<?xml version="1.0" encoding="UTF-8" standalone="no"?>
<!DOCTYPE svg PUBLIC "-//W3C//DTD SVG 1.1//EN"
 "http://www.w3.org/Graphics/SVG/1.1/DTD/svg11.dtd">
<!-- Generated by graphviz version 2.40.1 (20161225.0304)
 -->
<!-- Title: fplll/bkz_param.h Pages: 1 -->
<svg width="925pt" height="252pt"
 viewBox="0.00 0.00 925.00 252.00" xmlns="http://www.w3.org/2000/svg" xmlns:xlink="http://www.w3.org/1999/xlink">
<g id="graph0" class="graph" transform="scale(1 1) rotate(0) translate(4 248)">
<title>fplll/bkz_param.h</title>
<polygon fill="#ffffff" stroke="transparent" points="-4,4 -4,-248 921,-248 921,4 -4,4"/>
<!-- Node0 -->
<g id="node1" class="node">
<title>Node0</title>
<polygon fill="#bfbfbf" stroke="#000000" points="372.5,-224.5 372.5,-243.5 463.5,-243.5 463.5,-224.5 372.5,-224.5"/>
<text text-anchor="middle" x="418" y="-231.5" font-family="Helvetica,sans-Serif" font-size="10.00" fill="#000000">fplll/bkz_param.h</text>
</g>
<!-- Node1 -->
<g id="node2" class="node">
<title>Node1</title>
<g id="a_node2"><a xlink:href="bkz_8h.html" target="_top" xlink:title="fplll/bkz.h">
<polygon fill="#ffffff" stroke="#000000" points="359.5,-168.5 359.5,-187.5 418.5,-187.5 418.5,-168.5 359.5,-168.5"/>
<text text-anchor="middle" x="389" y="-175.5" font-family="Helvetica,sans-Serif" font-size="10.00" fill="#000000">fplll/bkz.h</text>
</a>
</g>
</g>
<!-- Node0&#45;&gt;Node1 -->
<g id="edge1" class="edge">
<title>Node0&#45;&gt;Node1</title>
<path fill="none" stroke="#191970" d="M408.3353,-215.3372C403.5313,-206.0605 397.9277,-195.2398 393.9935,-187.6427"/>
<polygon fill="#191970" stroke="#191970" points="405.242,-216.9751 412.9486,-224.2455 411.458,-213.7561 405.242,-216.9751"/>
</g>
<!-- Node2 -->
<g id="node3" class="node">
<title>Node2</title>
<g id="a_node3"><a xlink:href="bkz_8cpp.html" target="_top" xlink:title="fplll/bkz.cpp">
<polygon fill="#ffffff" stroke="#000000" points="313.5,-112.5 313.5,-131.5 382.5,-131.5 382.5,-112.5 313.5,-112.5"/>
<text text-anchor="middle" x="348" y="-119.5" font-family="Helvetica,sans-Serif" font-size="10.00" fill="#000000">fplll/bkz.cpp</text>
</a>
</g>
</g>
<!-- Node0&#45;&gt;Node2 -->
<g id="edge24" class="edge">
<title>Node0&#45;&gt;Node2</title>
<path fill="none" stroke="#191970" d="M384.4306,-219.6838C371.3021,-212.2544 357.5945,-201.7976 350,-188 340.1606,-170.1238 343.0372,-145.1984 345.7036,-131.669"/>
<polygon fill="#191970" stroke="#191970" points="382.8616,-222.813 393.3447,-224.3474 386.1066,-216.6105 382.8616,-222.813"/>
</g>
<!-- Node3 -->
<g id="node4" class="node">
<title>Node3</title>
<g id="a_node4"><a xlink:href="fplll_8h.html" target="_top" xlink:title="fplll/fplll.h">
<polygon fill="#ffffff" stroke="#000000" points="409,-112.5 409,-131.5 467,-131.5 467,-112.5 409,-112.5"/>
<text text-anchor="middle" x="438" y="-119.5" font-family="Helvetica,sans-Serif" font-size="10.00" fill="#000000">fplll/fplll.h</text>
</a>
</g>
</g>
<!-- Node0&#45;&gt;Node3 -->
<g id="edge26" class="edge">
<title>Node0&#45;&gt;Node3</title>
<path fill="none" stroke="#191970" d="M421.9476,-214.4654C423.5658,-206.2965 425.4246,-196.6979 427,-188 430.6023,-168.1111 434.3895,-144.7683 436.446,-131.8549"/>
<polygon fill="#191970" stroke="#191970" points="418.4699,-214.0075 419.9395,-224.4999 425.3339,-215.3812 418.4699,-214.0075"/>
</g>
<!-- Node18 -->
<g id="node19" class="node">
<title>Node18</title>
<g id="a_node19"><a xlink:href="bkz__param_8cpp.html" target="_top" xlink:title="fplll/bkz_param.cpp">
<polygon fill="#ffffff" stroke="#000000" points="475.5,-168.5 475.5,-187.5 576.5,-187.5 576.5,-168.5 475.5,-168.5"/>
<text text-anchor="middle" x="526" y="-175.5" font-family="Helvetica,sans-Serif" font-size="10.00" fill="#000000">fplll/bkz_param.cpp</text>
</a>
</g>
</g>
<!-- Node0&#45;&gt;Node18 -->
<g id="edge25" class="edge">
<title>Node0&#45;&gt;Node18</title>
<path fill="none" stroke="#191970" d="M445.7771,-219.5971C465.1382,-209.558 490.4385,-196.4393 507.4034,-187.6427"/>
<polygon fill="#191970" stroke="#191970" points="444.0786,-216.5352 436.8122,-224.2455 447.3008,-222.7495 444.0786,-216.5352"/>
</g>
<!-- Node1&#45;&gt;Node2 -->
<g id="edge2" class="edge">
<title>Node1&#45;&gt;Node2</title>
<path fill="none" stroke="#191970" d="M375.7636,-159.9209C368.8789,-150.5176 360.7391,-139.3997 355.0598,-131.6427"/>
<polygon fill="#191970" stroke="#191970" points="373.1269,-162.2445 381.8583,-168.2455 378.7749,-158.1093 373.1269,-162.2445"/>
</g>
<!-- Node1&#45;&gt;Node3 -->
<g id="edge3" class="edge">
<title>Node1&#45;&gt;Node3</title>
<path fill="none" stroke="#191970" d="M404.3122,-160.5004C412.6447,-150.9775 422.6353,-139.5596 429.5627,-131.6427"/>
<polygon fill="#191970" stroke="#191970" points="401.4862,-158.415 397.5351,-168.2455 406.7543,-163.0245 401.4862,-158.415"/>
</g>
<!-- Node4 -->
<g id="node5" class="node">
<title>Node4</title>
<g id="a_node5"><a xlink:href="fplll_8cpp.html" target="_top" xlink:title="fplll/fplll.cpp">
<polygon fill="#ffffff" stroke="#000000" points="0,-56.5 0,-75.5 68,-75.5 68,-56.5 0,-56.5"/>
<text text-anchor="middle" x="34" y="-63.5" font-family="Helvetica,sans-Serif" font-size="10.00" fill="#000000">fplll/fplll.cpp</text>
</a>
</g>
</g>
<!-- Node3&#45;&gt;Node4 -->
<g id="edge4" class="edge">
<title>Node3&#45;&gt;Node4</title>
<path fill="none" stroke="#191970" d="M399.1149,-113.4262C396.3741,-112.9144 393.6488,-112.4326 391,-112 252.3671,-89.3578 215.4133,-99.9483 77,-76 74.1301,-75.5035 71.1648,-74.934 68.1956,-74.3242"/>
<polygon fill="#191970" stroke="#191970" points="398.5102,-116.8743 408.9987,-115.3767 399.8655,-110.0068 398.5102,-116.8743"/>
</g>
<!-- Node5 -->
<g id="node6" class="node">
<title>Node5</title>
<g id="a_node6"><a xlink:href="main_8h.html" target="_top" xlink:title="fplll/main.h">
<polygon fill="#ffffff" stroke="#000000" points="86,-56.5 86,-75.5 150,-75.5 150,-56.5 86,-56.5"/>
<text text-anchor="middle" x="118" y="-63.5" font-family="Helvetica,sans-Serif" font-size="10.00" fill="#000000">fplll/main.h</text>
</a>
</g>
</g>
<!-- Node3&#45;&gt;Node5 -->
<g id="edge5" class="edge">
<title>Node3&#45;&gt;Node5</title>
<path fill="none" stroke="#191970" d="M399.094,-113.5469C396.3582,-113.0064 393.6397,-112.4852 391,-112 288.3744,-93.1352 261.3353,-96.3811 159,-76 156.1258,-75.4276 153.1487,-74.7899 150.1712,-74.1213"/>
<polygon fill="#191970" stroke="#191970" points="398.4696,-116.9915 408.9671,-115.5586 399.8672,-110.1325 398.4696,-116.9915"/>
</g>
<!-- Node7 -->
<g id="node8" class="node">
<title>Node7</title>
<g id="a_node8"><a xlink:href="sieve__main_8cpp.html" target="_top" xlink:title="fplll/sieve/sieve_main.cpp">
<polygon fill="#ffffff" stroke="#000000" points="168.5,-56.5 168.5,-75.5 297.5,-75.5 297.5,-56.5 168.5,-56.5"/>
<text text-anchor="middle" x="233" y="-63.5" font-family="Helvetica,sans-Serif" font-size="10.00" fill="#000000">fplll/sieve/sieve_main.cpp</text>
</a>
</g>
</g>
<!-- Node3&#45;&gt;Node7 -->
<g id="edge7" class="edge">
<title>Node3&#45;&gt;Node7</title>
<path fill="none" stroke="#191970" d="M398.961,-111.3357C361.0916,-100.9909 304.1678,-85.4409 267.8045,-75.5076"/>
<polygon fill="#191970" stroke="#191970" points="398.0596,-114.7176 408.6285,-113.9766 399.9043,-107.965 398.0596,-114.7176"/>
</g>
<!-- Node8 -->
<g id="node9" class="node">
<title>Node8</title>
<g id="a_node9"><a xlink:href="test__bkz_8cpp.html" target="_top" xlink:title="tests/test_bkz.cpp">
<polygon fill="#ffffff" stroke="#000000" points="106,-.5 106,-19.5 204,-19.5 204,-.5 106,-.5"/>
<text text-anchor="middle" x="155" y="-7.5" font-family="Helvetica,sans-Serif" font-size="10.00" fill="#000000">tests/test_bkz.cpp</text>
</a>
</g>
</g>
<!-- Node3&#45;&gt;Node8 -->
<g id="edge8" class="edge">
<title>Node3&#45;&gt;Node8</title>
<path fill="none" stroke="#191970" d="M406.6283,-108.1718C387.2151,-99.3947 361.902,-87.5501 340,-76 324.4926,-67.8221 322.0526,-63.0479 306,-56 269.7411,-40.0804 226.3054,-27.4766 195.3471,-19.5174"/>
<polygon fill="#191970" stroke="#191970" points="405.3613,-111.4395 415.9176,-112.3416 408.2279,-105.0534 405.3613,-111.4395"/>
</g>
<!-- Node9 -->
<g id="node10" class="node">
<title>Node9</title>
<g id="a_node10"><a xlink:href="test__cvp_8cpp.html" target="_top" xlink:title="tests/test_cvp.cpp">
<polygon fill="#ffffff" stroke="#000000" points="222,-.5 222,-19.5 320,-19.5 320,-.5 222,-.5"/>
<text text-anchor="middle" x="271" y="-7.5" font-family="Helvetica,sans-Serif" font-size="10.00" fill="#000000">tests/test_cvp.cpp</text>
</a>
</g>
</g>
<!-- Node3&#45;&gt;Node9 -->
<g id="edge9" class="edge">
<title>Node3&#45;&gt;Node9</title>
<path fill="none" stroke="#191970" d="M415.3493,-106.7016C395.4995,-93.3055 365.8607,-73.3283 340,-56 321.2222,-43.4177 299.5247,-28.9671 285.5513,-19.6722"/>
<polygon fill="#191970" stroke="#191970" points="413.4853,-109.6661 423.7319,-112.3603 417.4019,-103.8643 413.4853,-109.6661"/>
</g>
<!-- Node10 -->
<g id="node11" class="node">
<title>Node10</title>
<g id="a_node11"><a xlink:href="test__lll_8cpp.html" target="_top" xlink:title="tests/test_lll.cpp">
<polygon fill="#ffffff" stroke="#000000" points="338.5,-.5 338.5,-19.5 427.5,-19.5 427.5,-.5 338.5,-.5"/>
<text text-anchor="middle" x="383" y="-7.5" font-family="Helvetica,sans-Serif" font-size="10.00" fill="#000000">tests/test_lll.cpp</text>
</a>
</g>
</g>
<!-- Node3&#45;&gt;Node10 -->
<g id="edge10" class="edge">
<title>Node3&#45;&gt;Node10</title>
<path fill="none" stroke="#191970" d="M428.7923,-103.2498C416.9304,-79.0946 396.7599,-38.0202 387.6774,-19.5249"/>
<polygon fill="#191970" stroke="#191970" points="425.7611,-105.0176 433.3107,-112.4509 432.0444,-101.932 425.7611,-105.0176"/>
</g>
<!-- Node11 -->
<g id="node12" class="node">
<title>Node11</title>
<g id="a_node12"><a xlink:href="test__lll__gram_8cpp.html" target="_top" xlink:title="tests/test_lll_gram.cpp">
<polygon fill="#ffffff" stroke="#000000" points="561,-.5 561,-19.5 677,-19.5 677,-.5 561,-.5"/>
<text text-anchor="middle" x="619" y="-7.5" font-family="Helvetica,sans-Serif" font-size="10.00" fill="#000000">tests/test_lll_gram.cpp</text>
</a>
</g>
</g>
<!-- Node3&#45;&gt;Node11 -->
<g id="edge11" class="edge">
<title>Node3&#45;&gt;Node11</title>
<path fill="none" stroke="#191970" d="M468.1855,-108.0238C485.9666,-99.4364 508.6878,-87.8402 528,-76 557.6161,-57.8425 590.0421,-33.0269 607.0523,-19.5906"/>
<polygon fill="#191970" stroke="#191970" points="466.3877,-105.0036 458.8684,-112.4675 469.4011,-111.3217 466.3877,-105.0036"/>
</g>
<!-- Node12 -->
<g id="node13" class="node">
<title>Node12</title>
<g id="a_node13"><a xlink:href="test__nr_8cpp.html" target="_top" xlink:title="tests/test_nr.cpp">
<polygon fill="#ffffff" stroke="#000000" points="652,-56.5 652,-75.5 742,-75.5 742,-56.5 652,-56.5"/>
<text text-anchor="middle" x="697" y="-63.5" font-family="Helvetica,sans-Serif" font-size="10.00" fill="#000000">tests/test_nr.cpp</text>
</a>
</g>
</g>
<!-- Node3&#45;&gt;Node12 -->
<g id="edge12" class="edge">
<title>Node3&#45;&gt;Node12</title>
<path fill="none" stroke="#191970" d="M477.0515,-113.5564C524.2313,-103.3554 603.4054,-86.2367 652.7867,-75.5596"/>
<polygon fill="#191970" stroke="#191970" points="476.2416,-110.1506 467.2071,-115.6849 477.721,-116.9925 476.2416,-110.1506"/>
</g>
<!-- Node13 -->
<g id="node14" class="node">
<title>Node13</title>
<g id="a_node14"><a xlink:href="test__pruner_8cpp.html" target="_top" xlink:title="tests/test_pruner.cpp">
<polygon fill="#ffffff" stroke="#000000" points="760.5,-56.5 760.5,-75.5 869.5,-75.5 869.5,-56.5 760.5,-56.5"/>
<text text-anchor="middle" x="815" y="-63.5" font-family="Helvetica,sans-Serif" font-size="10.00" fill="#000000">tests/test_pruner.cpp</text>
</a>
</g>
</g>
<!-- Node3&#45;&gt;Node13 -->
<g id="edge13" class="edge">
<title>Node3&#45;&gt;Node13</title>
<path fill="none" stroke="#191970" d="M477.4221,-116.3234C536.7821,-107.7494 652.6428,-90.9114 751,-76 754.0021,-75.5449 757.0829,-75.0745 760.1923,-74.5972"/>
<polygon fill="#191970" stroke="#191970" points="476.7544,-112.8835 467.357,-117.7762 477.7545,-119.8117 476.7544,-112.8835"/>
</g>
<!-- Node14 -->
<g id="node15" class="node">
<title>Node14</title>
<g id="a_node15"><a xlink:href="test__sieve_8cpp.html" target="_top" xlink:title="tests/test_sieve.cpp">
<polygon fill="#ffffff" stroke="#000000" points="695.5,-.5 695.5,-19.5 800.5,-19.5 800.5,-.5 695.5,-.5"/>
<text text-anchor="middle" x="748" y="-7.5" font-family="Helvetica,sans-Serif" font-size="10.00" fill="#000000">tests/test_sieve.cpp</text>
</a>
</g>
</g>
<!-- Node3&#45;&gt;Node14 -->
<g id="edge14" class="edge">
<title>Node3&#45;&gt;Node14</title>
<path fill="none" stroke="#191970" d="M472.1945,-108.7847C518.4029,-90.9408 596.5775,-60.8096 610,-56 646.9687,-42.7532 689.9429,-28.6269 717.9868,-19.5772"/>
<polygon fill="#191970" stroke="#191970" points="470.9214,-105.5243 462.8541,-112.3923 473.4436,-112.0542 470.9214,-105.5243"/>
</g>
<!-- Node15 -->
<g id="node16" class="node">
<title>Node15</title>
<g id="a_node16"><a xlink:href="test__svp_8cpp.html" target="_top" xlink:title="tests/test_svp.cpp">
<polygon fill="#ffffff" stroke="#000000" points="819,-.5 819,-19.5 917,-19.5 917,-.5 819,-.5"/>
<text text-anchor="middle" x="868" y="-7.5" font-family="Helvetica,sans-Serif" font-size="10.00" fill="#000000">tests/test_svp.cpp</text>
</a>
</g>
</g>
<!-- Node3&#45;&gt;Node15 -->
<g id="edge15" class="edge">
<title>Node3&#45;&gt;Node15</title>
<path fill="none" stroke="#191970" d="M476.9117,-112.611C509.8447,-104.2557 558.08,-91.0513 599,-76 619.1604,-68.5845 622.5703,-62.6377 643,-56 675.0418,-45.5895 762.8348,-28.877 818.806,-18.7201"/>
<polygon fill="#191970" stroke="#191970" points="476.0554,-109.2173 467.2074,-115.045 477.7584,-116.007 476.0554,-109.2173"/>
</g>
<!-- Node16 -->
<g id="node17" class="node">
<title>Node16</title>
<g id="a_node17"><a xlink:href="test__utils_8h.html" target="_top" xlink:title="tests/test_utils.h">
<polygon fill="#ffffff" stroke="#000000" points="430.5,-56.5 430.5,-75.5 519.5,-75.5 519.5,-56.5 430.5,-56.5"/>
<text text-anchor="middle" x="475" y="-63.5" font-family="Helvetica,sans-Serif" font-size="10.00" fill="#000000">tests/test_utils.h</text>
</a>
</g>
</g>
<!-- Node3&#45;&gt;Node16 -->
<g id="edge16" class="edge">
<title>Node3&#45;&gt;Node16</title>
<path fill="none" stroke="#191970" d="M450.1376,-103.6296C456.3093,-94.2887 463.5566,-83.3197 468.6289,-75.6427"/>
<polygon fill="#191970" stroke="#191970" points="447.0373,-101.9728 444.4449,-112.2455 452.8777,-105.8316 447.0373,-101.9728"/>
</g>
<!-- Node6 -->
<g id="node7" class="node">
<title>Node6</title>
<g id="a_node7"><a xlink:href="main_8cpp.html" target="_top" xlink:title="fplll/main.cpp">
<polygon fill="#ffffff" stroke="#000000" points="14,-.5 14,-19.5 88,-19.5 88,-.5 14,-.5"/>
<text text-anchor="middle" x="51" y="-7.5" font-family="Helvetica,sans-Serif" font-size="10.00" fill="#000000">fplll/main.cpp</text>
</a>
</g>
</g>
<!-- Node5&#45;&gt;Node6 -->
<g id="edge6" class="edge">
<title>Node5&#45;&gt;Node6</title>
<path fill="none" stroke="#191970" d="M98.4324,-49.645C86.7802,-39.9058 72.3916,-27.8795 62.5368,-19.6427"/>
<polygon fill="#191970" stroke="#191970" points="96.4121,-52.5179 106.3295,-56.2455 100.9012,-47.1469 96.4121,-52.5179"/>
</g>
<!-- Node16&#45;&gt;Node8 -->
<g id="edge17" class="edge">
<title>Node16&#45;&gt;Node8</title>
<path fill="none" stroke="#191970" d="M420.0129,-56.3773C359.3262,-45.7571 262.5405,-28.8196 204.2509,-18.6189"/>
<polygon fill="#191970" stroke="#191970" points="419.7148,-59.8782 430.1684,-58.1545 420.9215,-52.983 419.7148,-59.8782"/>
</g>
<!-- Node16&#45;&gt;Node9 -->
<g id="edge18" class="edge">
<title>Node16&#45;&gt;Node9</title>
<path fill="none" stroke="#191970" d="M430.2653,-53.7199C392.7545,-43.4228 339.9579,-28.9296 305.6112,-19.5011"/>
<polygon fill="#191970" stroke="#191970" points="429.3613,-57.1012 439.9311,-56.3733 431.2144,-50.3509 429.3613,-57.1012"/>
</g>
<!-- Node16&#45;&gt;Node10 -->
<g id="edge20" class="edge">
<title>Node16&#45;&gt;Node10</title>
<path fill="none" stroke="#191970" d="M449.9776,-50.769C433.675,-40.8456 412.899,-28.1994 398.8415,-19.6427"/>
<polygon fill="#191970" stroke="#191970" points="448.613,-54.0357 458.9748,-56.2455 452.2527,-48.0563 448.613,-54.0357"/>
</g>
<!-- Node16&#45;&gt;Node11 -->
<g id="edge21" class="edge">
<title>Node16&#45;&gt;Node11</title>
<path fill="none" stroke="#191970" d="M509.3182,-52.6541C535.578,-42.4419 571.1492,-28.6086 594.5685,-19.5011"/>
<polygon fill="#191970" stroke="#191970" points="507.806,-49.4867 499.7545,-56.3733 510.3431,-56.0108 507.806,-49.4867"/>
</g>
<!-- Node16&#45;&gt;Node14 -->
<g id="edge22" class="edge">
<title>Node16&#45;&gt;Node14</title>
<path fill="none" stroke="#191970" d="M529.8219,-54.7545C580.1251,-44.4359 653.8355,-29.3158 701.372,-19.5647"/>
<polygon fill="#191970" stroke="#191970" points="528.8674,-51.3773 519.7747,-56.8154 530.2741,-58.2345 528.8674,-51.3773"/>
</g>
<!-- Node16&#45;&gt;Node15 -->
<g id="edge23" class="edge">
<title>Node16&#45;&gt;Node15</title>
<path fill="none" stroke="#191970" d="M529.8383,-58.9781C596.0741,-50.3742 710.8354,-35.0752 809,-20 812.1833,-19.5111 815.4608,-18.994 818.763,-18.4627"/>
<polygon fill="#191970" stroke="#191970" points="529.1017,-55.5442 519.6344,-60.3004 530.0014,-62.4861 529.1017,-55.5442"/>
</g>
<!-- Node17 -->
<g id="node18" class="node">
<title>Node17</title>
<g id="a_node18"><a xlink:href="test__gso_8cpp.html" target="_top" xlink:title="tests/test_gso.cpp">
<polygon fill="#ffffff" stroke="#000000" points="445,-.5 445,-19.5 543,-19.5 543,-.5 445,-.5"/>
<text text-anchor="middle" x="494" y="-7.5" font-family="Helvetica,sans-Serif" font-size="10.00" fill="#000000">tests/test_gso.cpp</text>
</a>
</g>
</g>
<!-- Node16&#45;&gt;Node17 -->
<g id="edge19" class="edge">
<title>Node16&#45;&gt;Node17</title>
<path fill="none" stroke="#191970" d="M481.5315,-46.7493C484.6336,-37.6064 488.2051,-27.0798 490.7284,-19.6427"/>
<polygon fill="#191970" stroke="#191970" points="478.2082,-45.6512 478.3095,-56.2455 484.837,-47.9003 478.2082,-45.6512"/>
</g>
</g>
</svg>
