<?xml version="1.0" encoding="UTF-8" standalone="no"?>
<!DOCTYPE svg PUBLIC "-//W3C//DTD SVG 1.1//EN"
 "http://www.w3.org/Graphics/SVG/1.1/DTD/svg11.dtd">
<!-- Generated by graphviz version 2.40.1 (20161225.0304)
 -->
<!-- Title: fplll/bkz.h Pages: 1 -->
<svg width="1760pt" height="207pt"
 viewBox="0.00 0.00 1759.50 207.00" xmlns="http://www.w3.org/2000/svg" xmlns:xlink="http://www.w3.org/1999/xlink">
<g id="graph0" class="graph" transform="scale(1 1) rotate(0) translate(4 203)">
<title>fplll/bkz.h</title>
<polygon fill="#ffffff" stroke="transparent" points="-4,4 -4,-203 1755.5,-203 1755.5,4 -4,4"/>
<!-- Node0 -->
<g id="node1" class="node">
<title>Node0</title>
<polygon fill="#bfbfbf" stroke="#000000" points="862.5,-179.5 862.5,-198.5 921.5,-198.5 921.5,-179.5 862.5,-179.5"/>
<text text-anchor="middle" x="892" y="-186.5" font-family="Helvetica,sans-Serif" font-size="10.00" fill="#000000">fplll/bkz.h</text>
</g>
<!-- Node1 -->
<g id="node2" class="node">
<title>Node1</title>
<g id="a_node2"><a xlink:href="bkz_8cpp.html" target="_top" xlink:title="fplll/bkz.cpp">
<polygon fill="#ffffff" stroke="#000000" points="816.5,-123.5 816.5,-142.5 885.5,-142.5 885.5,-123.5 816.5,-123.5"/>
<text text-anchor="middle" x="851" y="-130.5" font-family="Helvetica,sans-Serif" font-size="10.00" fill="#000000">fplll/bkz.cpp</text>
</a>
</g>
</g>
<!-- Node0&#45;&gt;Node1 -->
<g id="edge1" class="edge">
<title>Node0&#45;&gt;Node1</title>
<path fill="none" stroke="#191970" d="M878.7636,-170.9209C871.8789,-161.5176 863.7391,-150.3997 858.0598,-142.6427"/>
<polygon fill="#191970" stroke="#191970" points="876.1269,-173.2445 884.8583,-179.2455 881.7749,-169.1093 876.1269,-173.2445"/>
</g>
<!-- Node2 -->
<g id="node3" class="node">
<title>Node2</title>
<g id="a_node3"><a xlink:href="fplll_8h.html" target="_top" xlink:title="fplll/fplll.h">
<polygon fill="#ffffff" stroke="#000000" points="904,-123.5 904,-142.5 962,-142.5 962,-123.5 904,-123.5"/>
<text text-anchor="middle" x="933" y="-130.5" font-family="Helvetica,sans-Serif" font-size="10.00" fill="#000000">fplll/fplll.h</text>
</a>
</g>
</g>
<!-- Node0&#45;&gt;Node2 -->
<g id="edge2" class="edge">
<title>Node0&#45;&gt;Node2</title>
<path fill="none" stroke="#191970" d="M905.2364,-170.9209C912.1211,-161.5176 920.2609,-150.3997 925.9402,-142.6427"/>
<polygon fill="#191970" stroke="#191970" points="902.2251,-169.1093 899.1417,-179.2455 907.8731,-173.2445 902.2251,-169.1093"/>
</g>
<!-- Node3 -->
<g id="node4" class="node">
<title>Node3</title>
<g id="a_node4"><a xlink:href="fplll_8cpp.html" target="_top" xlink:title="fplll/fplll.cpp">
<polygon fill="#ffffff" stroke="#000000" points="0,-62 0,-81 68,-81 68,-62 0,-62"/>
<text text-anchor="middle" x="34" y="-69" font-family="Helvetica,sans-Serif" font-size="10.00" fill="#000000">fplll/fplll.cpp</text>
</a>
</g>
</g>
<!-- Node2&#45;&gt;Node3 -->
<g id="edge3" class="edge">
<title>Node2&#45;&gt;Node3</title>
<path fill="none" stroke="#191970" d="M893.804,-123.3447C532.6403,-71.1508 430.3539,-156.7913 77,-87 70.1491,-85.6469 62.9272,-83.3925 56.3988,-81.0163"/>
<polygon fill="#191970" stroke="#191970" points="893.3427,-126.8145 903.7455,-124.8067 894.3612,-119.889 893.3427,-126.8145"/>
</g>
<!-- Node4 -->
<g id="node5" class="node">
<title>Node4</title>
<g id="a_node5"><a xlink:href="main_8h.html" target="_top" xlink:title="fplll/main.h">
<polygon fill="#ffffff" stroke="#000000" points="86,-62 86,-81 150,-81 150,-62 86,-62"/>
<text text-anchor="middle" x="118" y="-69" font-family="Helvetica,sans-Serif" font-size="10.00" fill="#000000">fplll/main.h</text>
</a>
</g>
</g>
<!-- Node2&#45;&gt;Node4 -->
<g id="edge4" class="edge">
<title>Node2&#45;&gt;Node4</title>
<path fill="none" stroke="#191970" d="M893.5713,-123.3039C568.7141,-75.7493 475.914,-152.9561 159,-87 152.4439,-85.6355 145.5504,-83.3776 139.3262,-81.0017"/>
<polygon fill="#191970" stroke="#191970" points="893.336,-126.8075 903.7432,-124.8224 894.3696,-119.8842 893.336,-126.8075"/>
</g>
<!-- Node6 -->
<g id="node7" class="node">
<title>Node6</title>
<g id="a_node7"><a xlink:href="pruner_8cpp.html" target="_top" xlink:title="fplll/pruner/pruner.cpp">
<polygon fill="#ffffff" stroke="#000000" points="418,-.5 418,-19.5 528,-19.5 528,-.5 418,-.5"/>
<text text-anchor="middle" x="473" y="-7.5" font-family="Helvetica,sans-Serif" font-size="10.00" fill="#000000">fplll/pruner/pruner.cpp</text>
</a>
</g>
</g>
<!-- Node2&#45;&gt;Node6 -->
<g id="edge6" class="edge">
<title>Node2&#45;&gt;Node6</title>
<path fill="none" stroke="#191970" d="M893.8028,-123.2287C778.7135,-102.361 739.8083,-131.8957 637,-87 617.0256,-78.2773 617.9455,-66.7764 599,-56 570.2567,-39.6505 534.6331,-27.2856 508.6056,-19.5152"/>
<polygon fill="#191970" stroke="#191970" points="893.2149,-126.6795 903.6929,-125.1109 894.5236,-119.8029 893.2149,-126.6795"/>
</g>
<!-- Node7 -->
<g id="node8" class="node">
<title>Node7</title>
<g id="a_node8"><a xlink:href="pruner__cost_8cpp.html" target="_top" xlink:title="fplll/pruner/pruner\l_cost.cpp">
<polygon fill="#ffffff" stroke="#000000" points="646,-56.5 646,-86.5 738,-86.5 738,-56.5 646,-56.5"/>
<text text-anchor="start" x="654" y="-74.5" font-family="Helvetica,sans-Serif" font-size="10.00" fill="#000000">fplll/pruner/pruner</text>
<text text-anchor="middle" x="692" y="-63.5" font-family="Helvetica,sans-Serif" font-size="10.00" fill="#000000">_cost.cpp</text>
</a>
</g>
</g>
<!-- Node2&#45;&gt;Node7 -->
<g id="edge7" class="edge">
<title>Node2&#45;&gt;Node7</title>
<path fill="none" stroke="#191970" d="M893.8742,-122.9949C827.1557,-106.3904 809.1254,-103.356 747,-87 744.1219,-86.2423 741.1631,-85.4493 738.1819,-84.6397"/>
<polygon fill="#191970" stroke="#191970" points="893.071,-126.4017 903.6213,-125.4307 894.7682,-119.6106 893.071,-126.4017"/>
</g>
<!-- Node8 -->
<g id="node9" class="node">
<title>Node8</title>
<g id="a_node9"><a xlink:href="pruner__optimize_8cpp.html" target="_top" xlink:title="fplll/pruner/pruner\l_optimize.cpp">
<polygon fill="#ffffff" stroke="#000000" points="756,-56.5 756,-86.5 848,-86.5 848,-56.5 756,-56.5"/>
<text text-anchor="start" x="764" y="-74.5" font-family="Helvetica,sans-Serif" font-size="10.00" fill="#000000">fplll/pruner/pruner</text>
<text text-anchor="middle" x="802" y="-63.5" font-family="Helvetica,sans-Serif" font-size="10.00" fill="#000000">_optimize.cpp</text>
</a>
</g>
</g>
<!-- Node2&#45;&gt;Node8 -->
<g id="edge9" class="edge">
<title>Node2&#45;&gt;Node8</title>
<path fill="none" stroke="#191970" d="M903.2933,-119.0537C882.6557,-109.3651 855.1763,-96.4644 834.0462,-86.5446"/>
<polygon fill="#191970" stroke="#191970" points="901.9917,-122.3092 912.5313,-123.3906 904.9665,-115.9727 901.9917,-122.3092"/>
</g>
<!-- Node9 -->
<g id="node10" class="node">
<title>Node9</title>
<g id="a_node10"><a xlink:href="pruner__optimize__tc_8cpp.html" target="_top" xlink:title="fplll/pruner/pruner\l_optimize_tc.cpp">
<polygon fill="#ffffff" stroke="#000000" points="168,-56.5 168,-86.5 260,-86.5 260,-56.5 168,-56.5"/>
<text text-anchor="start" x="176" y="-74.5" font-family="Helvetica,sans-Serif" font-size="10.00" fill="#000000">fplll/pruner/pruner</text>
<text text-anchor="middle" x="214" y="-63.5" font-family="Helvetica,sans-Serif" font-size="10.00" fill="#000000">_optimize_tc.cpp</text>
</a>
</g>
</g>
<!-- Node2&#45;&gt;Node9 -->
<g id="edge11" class="edge">
<title>Node2&#45;&gt;Node9</title>
<path fill="none" stroke="#191970" d="M893.8164,-123.3217C617.2656,-81.4694 540.1924,-132.4682 269,-87 266.0648,-86.5079 263.0622,-85.9182 260.0484,-85.2607"/>
<polygon fill="#191970" stroke="#191970" points="893.3227,-126.7868 903.739,-124.85 894.3883,-119.8684 893.3227,-126.7868"/>
</g>
<!-- Node10 -->
<g id="node11" class="node">
<title>Node10</title>
<g id="a_node11"><a xlink:href="pruner__optimize__tp_8cpp.html" target="_top" xlink:title="fplll/pruner/pruner\l_optimize_tp.cpp">
<polygon fill="#ffffff" stroke="#000000" points="278,-56.5 278,-86.5 370,-86.5 370,-56.5 278,-56.5"/>
<text text-anchor="start" x="286" y="-74.5" font-family="Helvetica,sans-Serif" font-size="10.00" fill="#000000">fplll/pruner/pruner</text>
<text text-anchor="middle" x="324" y="-63.5" font-family="Helvetica,sans-Serif" font-size="10.00" fill="#000000">_optimize_tp.cpp</text>
</a>
</g>
</g>
<!-- Node2&#45;&gt;Node10 -->
<g id="edge13" class="edge">
<title>Node2&#45;&gt;Node10</title>
<path fill="none" stroke="#191970" d="M893.8009,-123.2991C665.6965,-87.4712 601.8514,-125.7684 379,-87 376.0679,-86.4899 373.0677,-85.8865 370.0556,-85.2187"/>
<polygon fill="#191970" stroke="#191970" points="893.3051,-126.7642 903.7327,-124.8893 894.4119,-119.8522 893.3051,-126.7642"/>
</g>
<!-- Node11 -->
<g id="node12" class="node">
<title>Node11</title>
<g id="a_node12"><a xlink:href="pruner__prob_8cpp.html" target="_top" xlink:title="fplll/pruner/pruner\l_prob.cpp">
<polygon fill="#ffffff" stroke="#000000" points="388,-56.5 388,-86.5 480,-86.5 480,-56.5 388,-56.5"/>
<text text-anchor="start" x="396" y="-74.5" font-family="Helvetica,sans-Serif" font-size="10.00" fill="#000000">fplll/pruner/pruner</text>
<text text-anchor="middle" x="434" y="-63.5" font-family="Helvetica,sans-Serif" font-size="10.00" fill="#000000">_prob.cpp</text>
</a>
</g>
</g>
<!-- Node2&#45;&gt;Node11 -->
<g id="edge15" class="edge">
<title>Node2&#45;&gt;Node11</title>
<path fill="none" stroke="#191970" d="M893.6765,-123.2463C714.072,-93.4205 663.5246,-119.0602 489,-87 486.0728,-86.4623 483.0764,-85.8377 480.0671,-85.1541"/>
<polygon fill="#191970" stroke="#191970" points="893.2783,-126.7287 903.7227,-124.9497 894.4485,-119.8272 893.2783,-126.7287"/>
</g>
<!-- Node12 -->
<g id="node13" class="node">
<title>Node12</title>
<g id="a_node13"><a xlink:href="pruner__util_8cpp.html" target="_top" xlink:title="fplll/pruner/pruner\l_util.cpp">
<polygon fill="#ffffff" stroke="#000000" points="498,-56.5 498,-86.5 590,-86.5 590,-56.5 498,-56.5"/>
<text text-anchor="start" x="506" y="-74.5" font-family="Helvetica,sans-Serif" font-size="10.00" fill="#000000">fplll/pruner/pruner</text>
<text text-anchor="middle" x="544" y="-63.5" font-family="Helvetica,sans-Serif" font-size="10.00" fill="#000000">_util.cpp</text>
</a>
</g>
</g>
<!-- Node2&#45;&gt;Node12 -->
<g id="edge17" class="edge">
<title>Node2&#45;&gt;Node12</title>
<path fill="none" stroke="#191970" d="M893.8261,-123.2073C764.6374,-99.4087 728.4711,-110.7003 604,-87 599.4554,-86.1347 594.7447,-85.1227 590.052,-84.0379"/>
<polygon fill="#191970" stroke="#191970" points="893.2285,-126.6561 903.7026,-125.061 894.5199,-119.7763 893.2285,-126.6561"/>
</g>
<!-- Node13 -->
<g id="node14" class="node">
<title>Node13</title>
<g id="a_node14"><a xlink:href="test__bkz_8cpp.html" target="_top" xlink:title="tests/test_bkz.cpp">
<polygon fill="#ffffff" stroke="#000000" points="546,-.5 546,-19.5 644,-19.5 644,-.5 546,-.5"/>
<text text-anchor="middle" x="595" y="-7.5" font-family="Helvetica,sans-Serif" font-size="10.00" fill="#000000">tests/test_bkz.cpp</text>
</a>
</g>
</g>
<!-- Node2&#45;&gt;Node13 -->
<g id="edge19" class="edge">
<title>Node2&#45;&gt;Node13</title>
<path fill="none" stroke="#191970" d="M917.066,-115.7813C897.0018,-94.2717 864.2648,-59.8087 857,-56 855.8177,-55.3802 719.5194,-31.6335 644.0074,-18.5092"/>
<polygon fill="#191970" stroke="#191970" points="914.6836,-118.359 924.0558,-123.2999 919.8103,-113.5928 914.6836,-118.359"/>
</g>
<!-- Node14 -->
<g id="node15" class="node">
<title>Node14</title>
<g id="a_node15"><a xlink:href="test__bkz__gram_8cpp.html" target="_top" xlink:title="tests/test_bkz_gram.cpp">
<polygon fill="#ffffff" stroke="#000000" points="662.5,-.5 662.5,-19.5 787.5,-19.5 787.5,-.5 662.5,-.5"/>
<text text-anchor="middle" x="725" y="-7.5" font-family="Helvetica,sans-Serif" font-size="10.00" fill="#000000">tests/test_bkz_gram.cpp</text>
</a>
</g>
</g>
<!-- Node2&#45;&gt;Node14 -->
<g id="edge20" class="edge">
<title>Node2&#45;&gt;Node14</title>
<path fill="none" stroke="#191970" d="M926.9963,-113.5871C920.5849,-96.031 908.7334,-70.741 890,-56 872.1216,-41.9318 816.6766,-28.2486 774.9549,-19.5153"/>
<polygon fill="#191970" stroke="#191970" points="923.7802,-115.0028 930.2983,-123.3554 930.4116,-112.7612 923.7802,-115.0028"/>
</g>
<!-- Node15 -->
<g id="node16" class="node">
<title>Node15</title>
<g id="a_node16"><a xlink:href="test__counter_8cpp.html" target="_top" xlink:title="tests/test_counter.cpp">
<polygon fill="#ffffff" stroke="#000000" points="1278,-62 1278,-81 1392,-81 1392,-62 1278,-62"/>
<text text-anchor="middle" x="1335" y="-69" font-family="Helvetica,sans-Serif" font-size="10.00" fill="#000000">tests/test_counter.cpp</text>
</a>
</g>
</g>
<!-- Node2&#45;&gt;Node15 -->
<g id="edge21" class="edge">
<title>Node2&#45;&gt;Node15</title>
<path fill="none" stroke="#191970" d="M972.4991,-128.5066C1034.7176,-121.2049 1159.2545,-105.6834 1264,-87 1273.6881,-85.2719 1284.0638,-83.158 1293.8086,-81.0537"/>
<polygon fill="#191970" stroke="#191970" points="971.87,-125.0561 962.3424,-129.6903 972.6804,-132.0091 971.87,-125.0561"/>
</g>
<!-- Node16 -->
<g id="node17" class="node">
<title>Node16</title>
<g id="a_node17"><a xlink:href="test__cvp_8cpp.html" target="_top" xlink:title="tests/test_cvp.cpp">
<polygon fill="#ffffff" stroke="#000000" points="806,-.5 806,-19.5 904,-19.5 904,-.5 806,-.5"/>
<text text-anchor="middle" x="855" y="-7.5" font-family="Helvetica,sans-Serif" font-size="10.00" fill="#000000">tests/test_cvp.cpp</text>
</a>
</g>
</g>
<!-- Node2&#45;&gt;Node16 -->
<g id="edge22" class="edge">
<title>Node2&#45;&gt;Node16</title>
<path fill="none" stroke="#191970" d="M936.4405,-113.0454C938.2249,-96.5806 938.2396,-73.2117 928,-56 917.7369,-38.7489 898.217,-26.9542 881.9429,-19.6302"/>
<polygon fill="#191970" stroke="#191970" points="932.9419,-112.7929 935.0266,-123.1806 939.8747,-113.7601 932.9419,-112.7929"/>
</g>
<!-- Node17 -->
<g id="node18" class="node">
<title>Node17</title>
<g id="a_node18"><a xlink:href="test__enum_8cpp.html" target="_top" xlink:title="tests/test_enum.cpp">
<polygon fill="#ffffff" stroke="#000000" points="1410,-62 1410,-81 1516,-81 1516,-62 1410,-62"/>
<text text-anchor="middle" x="1463" y="-69" font-family="Helvetica,sans-Serif" font-size="10.00" fill="#000000">tests/test_enum.cpp</text>
</a>
</g>
</g>
<!-- Node2&#45;&gt;Node17 -->
<g id="edge23" class="edge">
<title>Node2&#45;&gt;Node17</title>
<path fill="none" stroke="#191970" d="M972.4453,-131.0845C1053.3172,-126.7271 1243.5604,-114.2651 1401,-87 1410.0739,-85.4286 1419.7813,-83.2468 1428.7575,-81.0157"/>
<polygon fill="#191970" stroke="#191970" points="972.0286,-127.6015 962.2266,-131.623 972.397,-134.5918 972.0286,-127.6015"/>
</g>
<!-- Node18 -->
<g id="node19" class="node">
<title>Node18</title>
<g id="a_node19"><a xlink:href="test__hlll_8cpp.html" target="_top" xlink:title="tests/test_hlll.cpp">
<polygon fill="#ffffff" stroke="#000000" points="922,-.5 922,-19.5 1016,-19.5 1016,-.5 922,-.5"/>
<text text-anchor="middle" x="969" y="-7.5" font-family="Helvetica,sans-Serif" font-size="10.00" fill="#000000">tests/test_hlll.cpp</text>
</a>
</g>
</g>
<!-- Node2&#45;&gt;Node18 -->
<g id="edge24" class="edge">
<title>Node2&#45;&gt;Node18</title>
<path fill="none" stroke="#191970" d="M949.0446,-115.7685C955.5651,-107.6646 962.4005,-97.4874 966,-87 973.9042,-63.9704 972.0859,-34.7677 970.3743,-19.8092"/>
<polygon fill="#191970" stroke="#191970" points="946.3632,-113.5188 942.5125,-123.3891 951.6779,-118.0744 946.3632,-113.5188"/>
</g>
<!-- Node19 -->
<g id="node20" class="node">
<title>Node19</title>
<g id="a_node20"><a xlink:href="test__lll_8cpp.html" target="_top" xlink:title="tests/test_lll.cpp">
<polygon fill="#ffffff" stroke="#000000" points="1150.5,-.5 1150.5,-19.5 1239.5,-19.5 1239.5,-.5 1150.5,-.5"/>
<text text-anchor="middle" x="1195" y="-7.5" font-family="Helvetica,sans-Serif" font-size="10.00" fill="#000000">tests/test_lll.cpp</text>
</a>
</g>
</g>
<!-- Node2&#45;&gt;Node19 -->
<g id="edge25" class="edge">
<title>Node2&#45;&gt;Node19</title>
<path fill="none" stroke="#191970" d="M972.6231,-129.0929C1011.2533,-123.9345 1070.6439,-112.3359 1116,-87 1147.4346,-69.4406 1175.3049,-36.145 1187.893,-19.6956"/>
<polygon fill="#191970" stroke="#191970" points="971.7952,-125.669 962.3068,-130.3831 972.6639,-132.6149 971.7952,-125.669"/>
</g>
<!-- Node20 -->
<g id="node21" class="node">
<title>Node20</title>
<g id="a_node21"><a xlink:href="test__lll__gram_8cpp.html" target="_top" xlink:title="tests/test_lll_gram.cpp">
<polygon fill="#ffffff" stroke="#000000" points="1257,-.5 1257,-19.5 1373,-19.5 1373,-.5 1257,-.5"/>
<text text-anchor="middle" x="1315" y="-7.5" font-family="Helvetica,sans-Serif" font-size="10.00" fill="#000000">tests/test_lll_gram.cpp</text>
</a>
</g>
</g>
<!-- Node2&#45;&gt;Node20 -->
<g id="edge26" class="edge">
<title>Node2&#45;&gt;Node20</title>
<path fill="none" stroke="#191970" d="M972.3227,-128.865C1016.5789,-123.2556 1089.9968,-111.0439 1149,-87 1172.8647,-77.2751 1175.0165,-67.6558 1198,-56 1227.1989,-41.1922 1262.3491,-27.9444 1286.4518,-19.5124"/>
<polygon fill="#191970" stroke="#191970" points="971.7673,-125.4067 962.2636,-130.0895 972.6132,-132.3554 971.7673,-125.4067"/>
</g>
<!-- Node21 -->
<g id="node22" class="node">
<title>Node21</title>
<g id="a_node22"><a xlink:href="test__nr_8cpp.html" target="_top" xlink:title="tests/test_nr.cpp">
<polygon fill="#ffffff" stroke="#000000" points="1534,-62 1534,-81 1624,-81 1624,-62 1534,-62"/>
<text text-anchor="middle" x="1579" y="-69" font-family="Helvetica,sans-Serif" font-size="10.00" fill="#000000">tests/test_nr.cpp</text>
</a>
</g>
</g>
<!-- Node2&#45;&gt;Node21 -->
<g id="edge27" class="edge">
<title>Node2&#45;&gt;Node21</title>
<path fill="none" stroke="#191970" d="M972.0545,-130.9981C1086.2361,-124.9815 1418.1371,-106.284 1525,-87 1533.1587,-85.5277 1541.8528,-83.3243 1549.8272,-81.0376"/>
<polygon fill="#191970" stroke="#191970" points="971.8141,-127.5058 962.0108,-131.5241 972.1803,-134.4962 971.8141,-127.5058"/>
</g>
<!-- Node22 -->
<g id="node23" class="node">
<title>Node22</title>
<g id="a_node23"><a xlink:href="test__pruner_8cpp.html" target="_top" xlink:title="tests/test_pruner.cpp">
<polygon fill="#ffffff" stroke="#000000" points="1642.5,-62 1642.5,-81 1751.5,-81 1751.5,-62 1642.5,-62"/>
<text text-anchor="middle" x="1697" y="-69" font-family="Helvetica,sans-Serif" font-size="10.00" fill="#000000">tests/test_pruner.cpp</text>
</a>
</g>
</g>
<!-- Node2&#45;&gt;Node22 -->
<g id="edge28" class="edge">
<title>Node2&#45;&gt;Node22</title>
<path fill="none" stroke="#191970" d="M972.5307,-131.2992C1100.7203,-125.6429 1504.0428,-106.7032 1633,-87 1642.606,-85.5323 1652.8887,-83.3305 1662.3397,-81.0438"/>
<polygon fill="#191970" stroke="#191970" points="972.221,-127.8093 962.3841,-131.7445 972.5279,-134.8026 972.221,-127.8093"/>
</g>
<!-- Node23 -->
<g id="node24" class="node">
<title>Node23</title>
<g id="a_node24"><a xlink:href="test__svp_8cpp.html" target="_top" xlink:title="tests/test_svp.cpp">
<polygon fill="#ffffff" stroke="#000000" points="1391,-.5 1391,-19.5 1489,-19.5 1489,-.5 1391,-.5"/>
<text text-anchor="middle" x="1440" y="-7.5" font-family="Helvetica,sans-Serif" font-size="10.00" fill="#000000">tests/test_svp.cpp</text>
</a>
</g>
</g>
<!-- Node2&#45;&gt;Node23 -->
<g id="edge29" class="edge">
<title>Node2&#45;&gt;Node23</title>
<path fill="none" stroke="#191970" d="M972.4328,-130.5548C1023.4826,-126.3458 1114.4923,-115.2585 1187,-87 1211.011,-77.6422 1212.1938,-65.8673 1236,-56 1263.502,-44.6008 1339.4887,-28.9284 1390.5523,-19.1361"/>
<polygon fill="#191970" stroke="#191970" points="971.8658,-127.0882 962.1669,-131.3522 972.4079,-134.0672 971.8658,-127.0882"/>
</g>
<!-- Node24 -->
<g id="node25" class="node">
<title>Node24</title>
<g id="a_node25"><a xlink:href="test__svp__gram_8cpp.html" target="_top" xlink:title="tests/test_svp_gram.cpp">
<polygon fill="#ffffff" stroke="#000000" points="1507.5,-.5 1507.5,-19.5 1632.5,-19.5 1632.5,-.5 1507.5,-.5"/>
<text text-anchor="middle" x="1570" y="-7.5" font-family="Helvetica,sans-Serif" font-size="10.00" fill="#000000">tests/test_svp_gram.cpp</text>
</a>
</g>
</g>
<!-- Node2&#45;&gt;Node24 -->
<g id="edge30" class="edge">
<title>Node2&#45;&gt;Node24</title>
<path fill="none" stroke="#191970" d="M972.4698,-129.0274C1041.2084,-121.7382 1179.8727,-105.2871 1225,-87 1247.1705,-78.0158 1246.8089,-64.9332 1269,-56 1279.9572,-51.5891 1422.363,-30.911 1507.3094,-18.8331"/>
<polygon fill="#191970" stroke="#191970" points="972.0394,-125.5532 962.4586,-130.0765 972.769,-132.5151 972.0394,-125.5532"/>
</g>
<!-- Node25 -->
<g id="node26" class="node">
<title>Node25</title>
<g id="a_node26"><a xlink:href="test__utils_8h.html" target="_top" xlink:title="tests/test_utils.h">
<polygon fill="#ffffff" stroke="#000000" points="1018.5,-62 1018.5,-81 1107.5,-81 1107.5,-62 1018.5,-62"/>
<text text-anchor="middle" x="1063" y="-69" font-family="Helvetica,sans-Serif" font-size="10.00" fill="#000000">tests/test_utils.h</text>
</a>
</g>
</g>
<!-- Node2&#45;&gt;Node25 -->
<g id="edge31" class="edge">
<title>Node2&#45;&gt;Node25</title>
<path fill="none" stroke="#191970" d="M962.5181,-119.0357C987.0577,-107.4265 1021.3258,-91.2151 1042.8301,-81.0419"/>
<polygon fill="#191970" stroke="#191970" points="960.8553,-115.9504 953.3125,-123.3906 963.8488,-122.278 960.8553,-115.9504"/>
</g>
<!-- Node5 -->
<g id="node6" class="node">
<title>Node5</title>
<g id="a_node6"><a xlink:href="main_8cpp.html" target="_top" xlink:title="fplll/main.cpp">
<polygon fill="#ffffff" stroke="#000000" points="81,-.5 81,-19.5 155,-19.5 155,-.5 81,-.5"/>
<text text-anchor="middle" x="118" y="-7.5" font-family="Helvetica,sans-Serif" font-size="10.00" fill="#000000">fplll/main.cpp</text>
</a>
</g>
</g>
<!-- Node4&#45;&gt;Node5 -->
<g id="edge5" class="edge">
<title>Node4&#45;&gt;Node5</title>
<path fill="none" stroke="#191970" d="M118,-51.7462C118,-41.0519 118,-28.314 118,-19.7449"/>
<polygon fill="#191970" stroke="#191970" points="114.5001,-51.8906 118,-61.8906 121.5001,-51.8907 114.5001,-51.8906"/>
</g>
<!-- Node7&#45;&gt;Node6 -->
<g id="edge8" class="edge">
<title>Node7&#45;&gt;Node6</title>
<path fill="none" stroke="#191970" d="M636.0271,-55.7816C595.2677,-44.3354 541.3853,-29.2041 506.9508,-19.5341"/>
<polygon fill="#191970" stroke="#191970" points="635.2494,-59.1985 645.8233,-58.5326 637.142,-52.4592 635.2494,-59.1985"/>
</g>
<!-- Node8&#45;&gt;Node6 -->
<g id="edge10" class="edge">
<title>Node8&#45;&gt;Node6</title>
<path fill="none" stroke="#191970" d="M745.9386,-56.0187C704.6808,-47.7982 595.6287,-29.902 528.2875,-18.9519"/>
<polygon fill="#191970" stroke="#191970" points="745.3724,-59.4762 755.8789,-58.1107 746.8141,-52.6262 745.3724,-59.4762"/>
</g>
<!-- Node9&#45;&gt;Node6 -->
<g id="edge12" class="edge">
<title>Node9&#45;&gt;Node6</title>
<path fill="none" stroke="#191970" d="M270.1327,-55.7801C329.7628,-40.8154 388.1973,-27.9396 427.4625,-19.5462"/>
<polygon fill="#191970" stroke="#191970" points="269.0038,-52.4553 260.1659,-58.2984 270.7186,-59.242 269.0038,-52.4553"/>
</g>
<!-- Node10&#45;&gt;Node6 -->
<g id="edge14" class="edge">
<title>Node10&#45;&gt;Node6</title>
<path fill="none" stroke="#191970" d="M369.9277,-52.5433C396.4363,-41.6018 428.633,-28.3126 449.9103,-19.5303"/>
<polygon fill="#191970" stroke="#191970" points="368.3577,-49.4048 360.4495,-56.4554 371.0284,-55.8753 368.3577,-49.4048"/>
</g>
<!-- Node11&#45;&gt;Node6 -->
<g id="edge16" class="edge">
<title>Node11&#45;&gt;Node6</title>
<path fill="none" stroke="#191970" d="M449.0431,-47.7782C455.2001,-38.069 461.9835,-27.3722 466.7556,-19.8469"/>
<polygon fill="#191970" stroke="#191970" points="446.0401,-45.9782 443.6405,-56.2977 451.9517,-49.7271 446.0401,-45.9782"/>
</g>
<!-- Node12&#45;&gt;Node6 -->
<g id="edge18" class="edge">
<title>Node12&#45;&gt;Node6</title>
<path fill="none" stroke="#191970" d="M518.6587,-49.5494C506.9308,-39.3907 493.5876,-27.8329 484.368,-19.8469"/>
<polygon fill="#191970" stroke="#191970" points="516.5992,-52.396 526.4494,-56.2977 521.1823,-47.1049 516.5992,-52.396"/>
</g>
<!-- Node25&#45;&gt;Node13 -->
<g id="edge32" class="edge">
<title>Node25&#45;&gt;Node13</title>
<path fill="none" stroke="#191970" d="M1008.1464,-65.4183C929.399,-56.504 779.8188,-38.8874 653,-20 650.0691,-19.5635 647.0579,-19.0976 644.0223,-18.6145"/>
<polygon fill="#191970" stroke="#191970" points="1007.987,-68.9225 1018.3163,-66.5657 1008.7718,-61.9666 1007.987,-68.9225"/>
</g>
<!-- Node25&#45;&gt;Node14 -->
<g id="edge33" class="edge">
<title>Node25&#45;&gt;Node14</title>
<path fill="none" stroke="#191970" d="M1008.6107,-61.6037C944.9368,-50.0181 840.2172,-30.9641 777.4091,-19.536"/>
<polygon fill="#191970" stroke="#191970" points="1007.9998,-65.05 1018.4648,-63.3967 1009.2529,-58.163 1007.9998,-65.05"/>
</g>
<!-- Node25&#45;&gt;Node16 -->
<g id="edge34" class="edge">
<title>Node25&#45;&gt;Node16</title>
<path fill="none" stroke="#191970" d="M1020.8885,-59.0488C981.3997,-47.373 923.2011,-30.1652 887.2718,-19.5419"/>
<polygon fill="#191970" stroke="#191970" points="1019.918,-62.4115 1030.5,-61.8906 1021.9028,-55.6988 1019.918,-62.4115"/>
</g>
<!-- Node25&#45;&gt;Node18 -->
<g id="edge36" class="edge">
<title>Node25&#45;&gt;Node18</title>
<path fill="none" stroke="#191970" d="M1039.7461,-56.286C1022.1694,-44.7864 998.5832,-29.355 983.5844,-19.5419"/>
<polygon fill="#191970" stroke="#191970" points="1038.0281,-59.3445 1048.3125,-61.8906 1041.8606,-53.4868 1038.0281,-59.3445"/>
</g>
<!-- Node25&#45;&gt;Node19 -->
<g id="edge37" class="edge">
<title>Node25&#45;&gt;Node19</title>
<path fill="none" stroke="#191970" d="M1092.9722,-57.5357C1117.8894,-45.9265 1152.6847,-29.7151 1174.5198,-19.5419"/>
<polygon fill="#191970" stroke="#191970" points="1091.2113,-54.4948 1083.625,-61.8906 1094.1676,-60.8399 1091.2113,-54.4948"/>
</g>
<!-- Node25&#45;&gt;Node20 -->
<g id="edge38" class="edge">
<title>Node25&#45;&gt;Node20</title>
<path fill="none" stroke="#191970" d="M1111.9201,-59.5612C1159.7453,-47.8895 1231.6308,-30.346 1275.8098,-19.5643"/>
<polygon fill="#191970" stroke="#191970" points="1110.9835,-56.1869 1102.0985,-61.9581 1112.6432,-62.9873 1110.9835,-56.1869"/>
</g>
<!-- Node25&#45;&gt;Node23 -->
<g id="edge39" class="edge">
<title>Node25&#45;&gt;Node23</title>
<path fill="none" stroke="#191970" d="M1117.8632,-62.8251C1181.444,-52.7295 1289.3557,-35.4645 1382,-20 1384.9228,-19.5121 1387.9277,-19.0064 1390.9585,-18.4933"/>
<polygon fill="#191970" stroke="#191970" points="1116.995,-59.419 1107.667,-64.443 1118.092,-66.3325 1116.995,-59.419"/>
</g>
<!-- Node25&#45;&gt;Node24 -->
<g id="edge40" class="edge">
<title>Node25&#45;&gt;Node24</title>
<path fill="none" stroke="#191970" d="M1117.9674,-65.3521C1200.538,-56.0355 1361.4711,-37.5612 1498,-20 1501.004,-19.6136 1504.0776,-19.2118 1507.1814,-18.8008"/>
<polygon fill="#191970" stroke="#191970" points="1117.3561,-61.8988 1107.8109,-66.4965 1118.1399,-68.8547 1117.3561,-61.8988"/>
</g>
<!-- Node26 -->
<g id="node27" class="node">
<title>Node26</title>
<g id="a_node27"><a xlink:href="test__gso_8cpp.html" target="_top" xlink:title="tests/test_gso.cpp">
<polygon fill="#ffffff" stroke="#000000" points="1034,-.5 1034,-19.5 1132,-19.5 1132,-.5 1034,-.5"/>
<text text-anchor="middle" x="1083" y="-7.5" font-family="Helvetica,sans-Serif" font-size="10.00" fill="#000000">tests/test_gso.cpp</text>
</a>
</g>
</g>
<!-- Node25&#45;&gt;Node26 -->
<g id="edge35" class="edge">
<title>Node25&#45;&gt;Node26</title>
<path fill="none" stroke="#191970" d="M1069.3144,-52.0832C1072.8145,-41.3205 1077.0149,-28.4042 1079.8309,-19.7449"/>
<polygon fill="#191970" stroke="#191970" points="1065.8893,-51.2984 1066.125,-61.8906 1072.5461,-53.4633 1065.8893,-51.2984"/>
</g>
</g>
</svg>
