<?xml version="1.0" encoding="UTF-8" standalone="no"?>
<!DOCTYPE svg PUBLIC "-//W3C//DTD SVG 1.1//EN"
 "http://www.w3.org/Graphics/SVG/1.1/DTD/svg11.dtd">
<!-- Generated by graphviz version 2.38.0 (20140413.2041)
 -->
<!-- Title: fplll/bkz_param.h Pages: 1 -->
<svg width="925pt" height="252pt"
 viewBox="0.00 0.00 925.00 252.00" xmlns="http://www.w3.org/2000/svg" xmlns:xlink="http://www.w3.org/1999/xlink">
<g id="graph0" class="graph" transform="scale(1 1) rotate(0) translate(4 248)">
<title>fplll/bkz_param.h</title>
<polygon fill="white" stroke="none" points="-4,4 -4,-248 921,-248 921,4 -4,4"/>
<!-- Node0 -->
<g id="node1" class="node"><title>Node0</title>
<polygon fill="#bfbfbf" stroke="black" points="372.5,-224.5 372.5,-243.5 463.5,-243.5 463.5,-224.5 372.5,-224.5"/>
<text text-anchor="middle" x="418" y="-231.5" font-family="Helvetica,sans-Serif" font-size="10.00">fplll/bkz_param.h</text>
</g>
<!-- Node1 -->
<g id="node2" class="node"><title>Node1</title>
<g id="a_node2"><a xlink:href="bkz_8h.html" target="_top" xlink:title="fplll/bkz.h">
<polygon fill="white" stroke="black" points="359.5,-168.5 359.5,-187.5 418.5,-187.5 418.5,-168.5 359.5,-168.5"/>
<text text-anchor="middle" x="389" y="-175.5" font-family="Helvetica,sans-Serif" font-size="10.00">fplll/bkz.h</text>
</a>
</g>
</g>
<!-- Node0&#45;&gt;Node1 -->
<g id="edge1" class="edge"><title>Node0&#45;&gt;Node1</title>
<path fill="none" stroke="midnightblue" d="M408.324,-214.983C403.402,-205.817 397.642,-195.092 393.7,-187.751"/>
<polygon fill="midnightblue" stroke="midnightblue" points="405.396,-216.929 413.211,-224.083 411.563,-213.617 405.396,-216.929"/>
</g>
<!-- Node2 -->
<g id="node3" class="node"><title>Node2</title>
<g id="a_node3"><a xlink:href="bkz_8cpp.html" target="_top" xlink:title="fplll/bkz.cpp">
<polygon fill="white" stroke="black" points="304.5,-112.5 304.5,-131.5 373.5,-131.5 373.5,-112.5 304.5,-112.5"/>
<text text-anchor="middle" x="339" y="-119.5" font-family="Helvetica,sans-Serif" font-size="10.00">fplll/bkz.cpp</text>
</a>
</g>
</g>
<!-- Node0&#45;&gt;Node2 -->
<g id="edge24" class="edge"><title>Node0&#45;&gt;Node2</title>
<path fill="none" stroke="midnightblue" d="M387.335,-219.73C373.807,-212.328 358.972,-201.786 350,-188 338.638,-170.541 337.872,-145.054 338.378,-131.777"/>
<polygon fill="midnightblue" stroke="midnightblue" points="385.905,-222.93 396.403,-224.355 389.085,-216.694 385.905,-222.93"/>
</g>
<!-- Node3 -->
<g id="node4" class="node"><title>Node3</title>
<g id="a_node4"><a xlink:href="fplll_8h.html" target="_top" xlink:title="fplll/fplll.h">
<polygon fill="white" stroke="black" points="409,-112.5 409,-131.5 467,-131.5 467,-112.5 409,-112.5"/>
<text text-anchor="middle" x="438" y="-119.5" font-family="Helvetica,sans-Serif" font-size="10.00">fplll/fplll.h</text>
</a>
</g>
</g>
<!-- Node0&#45;&gt;Node3 -->
<g id="edge26" class="edge"><title>Node0&#45;&gt;Node3</title>
<path fill="none" stroke="midnightblue" d="M421.83,-214.496C423.477,-206.377 425.389,-196.726 427,-188 430.698,-167.966 434.571,-144.367 436.589,-131.846"/>
<polygon fill="midnightblue" stroke="midnightblue" points="418.381,-213.889 419.802,-224.388 425.239,-215.295 418.381,-213.889"/>
</g>
<!-- Node18 -->
<g id="node19" class="node"><title>Node18</title>
<g id="a_node19"><a xlink:href="bkz__param_8cpp.html" target="_top" xlink:title="fplll/bkz_param.cpp">
<polygon fill="white" stroke="black" points="475.5,-168.5 475.5,-187.5 576.5,-187.5 576.5,-168.5 475.5,-168.5"/>
<text text-anchor="middle" x="526" y="-175.5" font-family="Helvetica,sans-Serif" font-size="10.00">fplll/bkz_param.cpp</text>
</a>
</g>
</g>
<!-- Node0&#45;&gt;Node18 -->
<g id="edge25" class="edge"><title>Node0&#45;&gt;Node18</title>
<path fill="none" stroke="midnightblue" d="M444.548,-219.726C464.546,-209.727 491.387,-196.307 508.691,-187.655"/>
<polygon fill="midnightblue" stroke="midnightblue" points="442.731,-216.721 435.352,-224.324 445.862,-222.982 442.731,-216.721"/>
</g>
<!-- Node1&#45;&gt;Node2 -->
<g id="edge2" class="edge"><title>Node1&#45;&gt;Node2</title>
<path fill="none" stroke="midnightblue" d="M373.924,-160.718C365.111,-151.2 354.334,-139.561 347.103,-131.751"/>
<polygon fill="midnightblue" stroke="midnightblue" points="371.381,-163.123 380.744,-168.083 376.518,-158.367 371.381,-163.123"/>
</g>
<!-- Node1&#45;&gt;Node3 -->
<g id="edge3" class="edge"><title>Node1&#45;&gt;Node3</title>
<path fill="none" stroke="midnightblue" d="M404.034,-160.431C412.622,-150.967 423.043,-139.483 430.059,-131.751"/>
<polygon fill="midnightblue" stroke="midnightblue" points="401.219,-158.325 397.091,-168.083 406.403,-163.029 401.219,-158.325"/>
</g>
<!-- Node4 -->
<g id="node5" class="node"><title>Node4</title>
<g id="a_node5"><a xlink:href="fplll_8cpp.html" target="_top" xlink:title="fplll/fplll.cpp">
<polygon fill="white" stroke="black" points="0,-56.5 0,-75.5 68,-75.5 68,-56.5 0,-56.5"/>
<text text-anchor="middle" x="34" y="-63.5" font-family="Helvetica,sans-Serif" font-size="10.00">fplll/fplll.cpp</text>
</a>
</g>
</g>
<!-- Node3&#45;&gt;Node4 -->
<g id="edge4" class="edge"><title>Node3&#45;&gt;Node4</title>
<path fill="none" stroke="midnightblue" d="M398.943,-114.508C393.265,-113.627 387.486,-112.764 382,-112 246.809,-93.1664 211.711,-98.0033 77,-76 74.1396,-75.5328 71.181,-75.006 68.2163,-74.4476"/>
<polygon fill="midnightblue" stroke="midnightblue" points="398.545,-117.989 408.97,-116.097 399.641,-111.075 398.545,-117.989"/>
</g>
<!-- Node5 -->
<g id="node6" class="node"><title>Node5</title>
<g id="a_node6"><a xlink:href="main_8h.html" target="_top" xlink:title="fplll/main.h">
<polygon fill="white" stroke="black" points="86,-56.5 86,-75.5 150,-75.5 150,-56.5 86,-56.5"/>
<text text-anchor="middle" x="118" y="-63.5" font-family="Helvetica,sans-Serif" font-size="10.00">fplll/main.h</text>
</a>
</g>
</g>
<!-- Node3&#45;&gt;Node5 -->
<g id="edge5" class="edge"><title>Node3&#45;&gt;Node5</title>
<path fill="none" stroke="midnightblue" d="M398.614,-114.662C322.403,-102.396 161.938,-76.559 159,-76 156.136,-75.4552 153.167,-74.8609 150.194,-74.2459"/>
<polygon fill="midnightblue" stroke="midnightblue" points="398.354,-118.165 408.783,-116.299 399.467,-111.254 398.354,-118.165"/>
</g>
<!-- Node7 -->
<g id="node8" class="node"><title>Node7</title>
<g id="a_node8"><a xlink:href="sieve__main_8cpp.html" target="_top" xlink:title="fplll/sieve/sieve_main.cpp">
<polygon fill="white" stroke="black" points="168.5,-56.5 168.5,-75.5 297.5,-75.5 297.5,-56.5 168.5,-56.5"/>
<text text-anchor="middle" x="233" y="-63.5" font-family="Helvetica,sans-Serif" font-size="10.00">fplll/sieve/sieve_main.cpp</text>
</a>
</g>
</g>
<!-- Node3&#45;&gt;Node7 -->
<g id="edge7" class="edge"><title>Node3&#45;&gt;Node7</title>
<path fill="none" stroke="midnightblue" d="M398.749,-110.661C360.019,-100.459 301.508,-85.0461 265.361,-75.5243"/>
<polygon fill="midnightblue" stroke="midnightblue" points="398.067,-114.1 408.628,-113.263 399.85,-107.331 398.067,-114.1"/>
</g>
<!-- Node8 -->
<g id="node9" class="node"><title>Node8</title>
<g id="a_node9"><a xlink:href="test__bkz_8cpp.html" target="_top" xlink:title="tests/test_bkz.cpp">
<polygon fill="white" stroke="black" points="106,-0.5 106,-19.5 204,-19.5 204,-0.5 106,-0.5"/>
<text text-anchor="middle" x="155" y="-7.5" font-family="Helvetica,sans-Serif" font-size="10.00">tests/test_bkz.cpp</text>
</a>
</g>
</g>
<!-- Node3&#45;&gt;Node8 -->
<g id="edge8" class="edge"><title>Node3&#45;&gt;Node8</title>
<path fill="none" stroke="midnightblue" d="M408.475,-108.377C388.827,-99.7496 362.575,-87.7841 340,-76 324.458,-67.8872 322.074,-62.9992 306,-56 268.756,-39.7826 223.911,-27.2378 192.815,-19.5619"/>
<polygon fill="midnightblue" stroke="midnightblue" points="407.253,-111.662 417.819,-112.447 410.048,-105.245 407.253,-111.662"/>
</g>
<!-- Node9 -->
<g id="node10" class="node"><title>Node9</title>
<g id="a_node10"><a xlink:href="test__cvp_8cpp.html" target="_top" xlink:title="tests/test_cvp.cpp">
<polygon fill="white" stroke="black" points="222,-0.5 222,-19.5 320,-19.5 320,-0.5 222,-0.5"/>
<text text-anchor="middle" x="271" y="-7.5" font-family="Helvetica,sans-Serif" font-size="10.00">tests/test_cvp.cpp</text>
</a>
</g>
</g>
<!-- Node3&#45;&gt;Node9 -->
<g id="edge9" class="edge"><title>Node3&#45;&gt;Node9</title>
<path fill="none" stroke="midnightblue" d="M416.438,-106.63C396.603,-93.4267 366.358,-73.3361 340,-56 320.643,-43.2687 298.153,-28.6301 284.248,-19.5965"/>
<polygon fill="midnightblue" stroke="midnightblue" points="414.759,-109.717 425.022,-112.346 418.639,-103.89 414.759,-109.717"/>
</g>
<!-- Node10 -->
<g id="node11" class="node"><title>Node10</title>
<g id="a_node11"><a xlink:href="test__lll_8cpp.html" target="_top" xlink:title="tests/test_lll.cpp">
<polygon fill="white" stroke="black" points="338.5,-0.5 338.5,-19.5 427.5,-19.5 427.5,-0.5 338.5,-0.5"/>
<text text-anchor="middle" x="383" y="-7.5" font-family="Helvetica,sans-Serif" font-size="10.00">tests/test_lll.cpp</text>
</a>
</g>
</g>
<!-- Node3&#45;&gt;Node10 -->
<g id="edge10" class="edge"><title>Node3&#45;&gt;Node10</title>
<path fill="none" stroke="midnightblue" d="M429.16,-103.32C417.185,-79.3697 396.274,-37.5484 387.296,-19.5914"/>
<polygon fill="midnightblue" stroke="midnightblue" points="426.082,-104.989 433.684,-112.368 432.343,-101.859 426.082,-104.989"/>
</g>
<!-- Node11 -->
<g id="node12" class="node"><title>Node11</title>
<g id="a_node12"><a xlink:href="test__lll__gram_8cpp.html" target="_top" xlink:title="tests/test_lll_gram.cpp">
<polygon fill="white" stroke="black" points="561,-0.5 561,-19.5 677,-19.5 677,-0.5 561,-0.5"/>
<text text-anchor="middle" x="619" y="-7.5" font-family="Helvetica,sans-Serif" font-size="10.00">tests/test_lll_gram.cpp</text>
</a>
</g>
</g>
<!-- Node3&#45;&gt;Node11 -->
<g id="edge11" class="edge"><title>Node3&#45;&gt;Node11</title>
<path fill="none" stroke="midnightblue" d="M466.796,-108.016C484.768,-99.569 508.175,-87.9364 528,-76 558.272,-57.7739 591.495,-32.6099 608.173,-19.5849"/>
<polygon fill="midnightblue" stroke="midnightblue" points="465.025,-104.979 457.427,-112.363 467.971,-111.329 465.025,-104.979"/>
</g>
<!-- Node12 -->
<g id="node13" class="node"><title>Node12</title>
<g id="a_node13"><a xlink:href="test__nr_8cpp.html" target="_top" xlink:title="tests/test_nr.cpp">
<polygon fill="white" stroke="black" points="652,-56.5 652,-75.5 742,-75.5 742,-56.5 652,-56.5"/>
<text text-anchor="middle" x="697" y="-63.5" font-family="Helvetica,sans-Serif" font-size="10.00">tests/test_nr.cpp</text>
</a>
</g>
</g>
<!-- Node3&#45;&gt;Node12 -->
<g id="edge12" class="edge"><title>Node3&#45;&gt;Node12</title>
<path fill="none" stroke="midnightblue" d="M477.264,-112.814C525.508,-102.755 606.972,-85.7703 655.998,-75.5488"/>
<polygon fill="midnightblue" stroke="midnightblue" points="476.282,-109.443 467.207,-114.91 477.711,-116.296 476.282,-109.443"/>
</g>
<!-- Node13 -->
<g id="node14" class="node"><title>Node13</title>
<g id="a_node14"><a xlink:href="test__pruner_8cpp.html" target="_top" xlink:title="tests/test_pruner.cpp">
<polygon fill="white" stroke="black" points="760.5,-56.5 760.5,-75.5 869.5,-75.5 869.5,-56.5 760.5,-56.5"/>
<text text-anchor="middle" x="815" y="-63.5" font-family="Helvetica,sans-Serif" font-size="10.00">tests/test_pruner.cpp</text>
</a>
</g>
</g>
<!-- Node3&#45;&gt;Node13 -->
<g id="edge13" class="edge"><title>Node3&#45;&gt;Node13</title>
<path fill="none" stroke="midnightblue" d="M477.509,-115.341C545.218,-105.642 683.542,-85.8295 760.417,-74.8183"/>
<polygon fill="midnightblue" stroke="midnightblue" points="476.672,-111.925 467.269,-116.808 477.664,-118.854 476.672,-111.925"/>
</g>
<!-- Node14 -->
<g id="node15" class="node"><title>Node14</title>
<g id="a_node15"><a xlink:href="test__sieve_8cpp.html" target="_top" xlink:title="tests/test_sieve.cpp">
<polygon fill="white" stroke="black" points="695.5,-0.5 695.5,-19.5 800.5,-19.5 800.5,-0.5 695.5,-0.5"/>
<text text-anchor="middle" x="748" y="-7.5" font-family="Helvetica,sans-Serif" font-size="10.00">tests/test_sieve.cpp</text>
</a>
</g>
</g>
<!-- Node3&#45;&gt;Node14 -->
<g id="edge14" class="edge"><title>Node3&#45;&gt;Node14</title>
<path fill="none" stroke="midnightblue" d="M470.134,-108.846C519.431,-90.2013 608.261,-56.6117 610,-56 648.154,-42.578 692.71,-28.2977 720.644,-19.5112"/>
<polygon fill="midnightblue" stroke="midnightblue" points="468.664,-105.66 460.549,-112.471 471.141,-112.207 468.664,-105.66"/>
</g>
<!-- Node15 -->
<g id="node16" class="node"><title>Node15</title>
<g id="a_node16"><a xlink:href="test__svp_8cpp.html" target="_top" xlink:title="tests/test_svp.cpp">
<polygon fill="white" stroke="black" points="819,-0.5 819,-19.5 917,-19.5 917,-0.5 819,-0.5"/>
<text text-anchor="middle" x="868" y="-7.5" font-family="Helvetica,sans-Serif" font-size="10.00">tests/test_svp.cpp</text>
</a>
</g>
</g>
<!-- Node3&#45;&gt;Node15 -->
<g id="edge15" class="edge"><title>Node3&#45;&gt;Node15</title>
<path fill="none" stroke="midnightblue" d="M477.351,-111.805C510.28,-103.684 558.28,-90.845 599,-76 619.182,-68.6425 622.556,-62.5941 643,-56 675.036,-45.6668 762.831,-29.3654 818.804,-19.4789"/>
<polygon fill="midnightblue" stroke="midnightblue" points="476.105,-108.506 467.217,-114.273 477.761,-115.307 476.105,-108.506"/>
</g>
<!-- Node16 -->
<g id="node17" class="node"><title>Node16</title>
<g id="a_node17"><a xlink:href="test__utils_8h.html" target="_top" xlink:title="tests/test_utils.h">
<polygon fill="white" stroke="black" points="430.5,-56.5 430.5,-75.5 519.5,-75.5 519.5,-56.5 430.5,-56.5"/>
<text text-anchor="middle" x="475" y="-63.5" font-family="Helvetica,sans-Serif" font-size="10.00">tests/test_utils.h</text>
</a>
</g>
</g>
<!-- Node3&#45;&gt;Node16 -->
<g id="edge16" class="edge"><title>Node3&#45;&gt;Node16</title>
<path fill="none" stroke="midnightblue" d="M449.946,-103.566C456.312,-94.2747 463.867,-83.2484 469.004,-75.7511"/>
<polygon fill="midnightblue" stroke="midnightblue" points="446.875,-101.855 444.11,-112.083 452.649,-105.812 446.875,-101.855"/>
</g>
<!-- Node6 -->
<g id="node7" class="node"><title>Node6</title>
<g id="a_node7"><a xlink:href="main_8cpp.html" target="_top" xlink:title="fplll/main.cpp">
<polygon fill="white" stroke="black" points="14,-0.5 14,-19.5 88,-19.5 88,-0.5 14,-0.5"/>
<text text-anchor="middle" x="51" y="-7.5" font-family="Helvetica,sans-Serif" font-size="10.00">fplll/main.cpp</text>
</a>
</g>
</g>
<!-- Node5&#45;&gt;Node6 -->
<g id="edge6" class="edge"><title>Node5&#45;&gt;Node6</title>
<path fill="none" stroke="midnightblue" d="M99.1652,-49.8197C87.1616,-40.1452 72.0283,-27.9481 61.9606,-19.8339"/>
<polygon fill="midnightblue" stroke="midnightblue" points="97.253,-52.7738 107.235,-56.324 101.646,-47.3236 97.253,-52.7738"/>
</g>
<!-- Node16&#45;&gt;Node8 -->
<g id="edge17" class="edge"><title>Node16&#45;&gt;Node8</title>
<path fill="none" stroke="midnightblue" d="M420.013,-55.7209C359.326,-45.48 262.541,-29.1475 204.251,-19.3111"/>
<polygon fill="midnightblue" stroke="midnightblue" points="419.725,-59.2218 430.168,-57.4347 420.89,-52.3194 419.725,-59.2218"/>
</g>
<!-- Node16&#45;&gt;Node9 -->
<g id="edge18" class="edge"><title>Node16&#45;&gt;Node9</title>
<path fill="none" stroke="midnightblue" d="M432.799,-53.8291C394.282,-43.6333 338.178,-28.7823 303.173,-19.5164"/>
<polygon fill="midnightblue" stroke="midnightblue" points="432.113,-57.268 442.676,-56.4435 433.904,-50.5011 432.113,-57.268"/>
</g>
<!-- Node16&#45;&gt;Node10 -->
<g id="edge20" class="edge"><title>Node16&#45;&gt;Node10</title>
<path fill="none" stroke="midnightblue" d="M451.45,-51.1774C434.521,-41.2407 412.217,-28.1492 397.745,-19.6545"/>
<polygon fill="midnightblue" stroke="midnightblue" points="449.823,-54.2804 460.219,-56.324 453.366,-48.2435 449.823,-54.2804"/>
</g>
<!-- Node16&#45;&gt;Node11 -->
<g id="edge21" class="edge"><title>Node16&#45;&gt;Node11</title>
<path fill="none" stroke="midnightblue" d="M507.251,-52.9058C534.324,-42.7536 572.317,-28.5063 596.29,-19.5164"/>
<polygon fill="midnightblue" stroke="midnightblue" points="505.952,-49.6551 497.817,-56.4435 508.409,-56.2094 505.952,-49.6551"/>
</g>
<!-- Node16&#45;&gt;Node14 -->
<g id="edge22" class="edge"><title>Node16&#45;&gt;Node14</title>
<path fill="none" stroke="midnightblue" d="M528.218,-54.4734C579.813,-44.2678 657.104,-28.9794 704.945,-19.5164"/>
<polygon fill="midnightblue" stroke="midnightblue" points="527.388,-51.0696 518.258,-56.4435 528.747,-57.9365 527.388,-51.0696"/>
</g>
<!-- Node16&#45;&gt;Node15 -->
<g id="edge23" class="edge"><title>Node16&#45;&gt;Node15</title>
<path fill="none" stroke="midnightblue" d="M529.803,-57.9145C596.005,-49.2864 710.733,-34.1137 809,-20 812.179,-19.5434 815.454,-19.0653 818.754,-18.5778"/>
<polygon fill="midnightblue" stroke="midnightblue" points="529.069,-54.4804 519.605,-59.2419 529.973,-61.4219 529.069,-54.4804"/>
</g>
<!-- Node17 -->
<g id="node18" class="node"><title>Node17</title>
<g id="a_node18"><a xlink:href="test__gso_8cpp.html" target="_top" xlink:title="tests/test_gso.cpp">
<polygon fill="white" stroke="black" points="445,-0.5 445,-19.5 543,-19.5 543,-0.5 445,-0.5"/>
<text text-anchor="middle" x="494" y="-7.5" font-family="Helvetica,sans-Serif" font-size="10.00">tests/test_gso.cpp</text>
</a>
</g>
</g>
<!-- Node16&#45;&gt;Node17 -->
<g id="edge19" class="edge"><title>Node16&#45;&gt;Node17</title>
<path fill="none" stroke="midnightblue" d="M481.546,-46.3956C484.724,-37.362 488.393,-26.936 490.921,-19.7511"/>
<polygon fill="midnightblue" stroke="midnightblue" points="478.155,-45.4882 478.137,-56.083 484.758,-47.8116 478.155,-45.4882"/>
</g>
</g>
</svg>
