<?xml version="1.0" encoding="UTF-8" standalone="no"?>
<!DOCTYPE svg PUBLIC "-//W3C//DTD SVG 1.1//EN"
 "http://www.w3.org/Graphics/SVG/1.1/DTD/svg11.dtd">
<!-- Generated by graphviz version 2.38.0 (20140413.2041)
 -->
<!-- Title: fplll/bkz_param.h Pages: 1 -->
<svg width="1004pt" height="252pt"
 viewBox="0.00 0.00 1004.00 252.00" xmlns="http://www.w3.org/2000/svg" xmlns:xlink="http://www.w3.org/1999/xlink">
<g id="graph0" class="graph" transform="scale(1 1) rotate(0) translate(4 248)">
<title>fplll/bkz_param.h</title>
<polygon fill="white" stroke="none" points="-4,4 -4,-248 1000,-248 1000,4 -4,4"/>
<!-- Node1 -->
<g id="node1" class="node"><title>Node1</title>
<polygon fill="#bfbfbf" stroke="black" points="457.5,-224.5 457.5,-243.5 548.5,-243.5 548.5,-224.5 457.5,-224.5"/>
<text text-anchor="middle" x="503" y="-231.5" font-family="Helvetica,sans-Serif" font-size="10.00">fplll/bkz_param.h</text>
</g>
<!-- Node2 -->
<g id="node2" class="node"><title>Node2</title>
<g id="a_node2"><a xlink:href="bkz_8h.html" target="_top" xlink:title="fplll/bkz.h">
<polygon fill="white" stroke="black" points="415.5,-168.5 415.5,-187.5 474.5,-187.5 474.5,-168.5 415.5,-168.5"/>
<text text-anchor="middle" x="445" y="-175.5" font-family="Helvetica,sans-Serif" font-size="10.00">fplll/bkz.h</text>
</a>
</g>
</g>
<!-- Node1&#45;&gt;Node2 -->
<g id="edge1" class="edge"><title>Node1&#45;&gt;Node2</title>
<path fill="none" stroke="midnightblue" d="M486.087,-217.253C475.797,-207.673 463.034,-195.791 454.488,-187.834"/>
<polygon fill="midnightblue" stroke="midnightblue" points="483.977,-220.071 493.681,-224.324 488.747,-214.948 483.977,-220.071"/>
</g>
<!-- Node3 -->
<g id="node3" class="node"><title>Node3</title>
<g id="a_node3"><a xlink:href="bkz_8cpp.html" target="_top" xlink:title="fplll/bkz.cpp">
<polygon fill="white" stroke="black" points="357.5,-112.5 357.5,-131.5 426.5,-131.5 426.5,-112.5 357.5,-112.5"/>
<text text-anchor="middle" x="392" y="-119.5" font-family="Helvetica,sans-Serif" font-size="10.00">fplll/bkz.cpp</text>
</a>
</g>
</g>
<!-- Node1&#45;&gt;Node3 -->
<g id="edge14" class="edge"><title>Node1&#45;&gt;Node3</title>
<path fill="none" stroke="midnightblue" d="M456.027,-221.068C437.916,-214.214 418.576,-203.734 406,-188 392.739,-171.408 391.308,-145.088 391.552,-131.595"/>
<polygon fill="midnightblue" stroke="midnightblue" points="455.032,-224.428 465.627,-224.421 457.34,-217.819 455.032,-224.428"/>
</g>
<!-- Node4 -->
<g id="node4" class="node"><title>Node4</title>
<g id="a_node4"><a xlink:href="fplll_8h.html" target="_top" xlink:title="fplll/fplll.h">
<polygon fill="white" stroke="black" points="447,-112.5 447,-131.5 505,-131.5 505,-112.5 447,-112.5"/>
<text text-anchor="middle" x="476" y="-119.5" font-family="Helvetica,sans-Serif" font-size="10.00">fplll/fplll.h</text>
</a>
</g>
</g>
<!-- Node1&#45;&gt;Node4 -->
<g id="edge20" class="edge"><title>Node1&#45;&gt;Node4</title>
<path fill="none" stroke="midnightblue" d="M498.422,-214.348C492.508,-190.254 482.457,-149.308 478.109,-131.591"/>
<polygon fill="midnightblue" stroke="midnightblue" points="495.098,-215.491 500.881,-224.368 501.897,-213.822 495.098,-215.491"/>
</g>
<!-- Node15 -->
<g id="node15" class="node"><title>Node15</title>
<g id="a_node15"><a xlink:href="bkz__param_8cpp.html" target="_top" xlink:title="fplll/bkz_param.cpp">
<polygon fill="white" stroke="black" points="621.5,-112.5 621.5,-131.5 722.5,-131.5 722.5,-112.5 621.5,-112.5"/>
<text text-anchor="middle" x="672" y="-119.5" font-family="Helvetica,sans-Serif" font-size="10.00">fplll/bkz_param.cpp</text>
</a>
</g>
</g>
<!-- Node1&#45;&gt;Node15 -->
<g id="edge15" class="edge"><title>Node1&#45;&gt;Node15</title>
<path fill="none" stroke="midnightblue" d="M541.561,-221.129C562.831,-213.545 589.088,-202.416 610,-188 633.625,-171.713 655.318,-145.26 665.652,-131.668"/>
<polygon fill="midnightblue" stroke="midnightblue" points="540.188,-217.9 531.872,-224.465 542.466,-224.519 540.188,-217.9"/>
</g>
<!-- Node16 -->
<g id="node16" class="node"><title>Node16</title>
<g id="a_node16"><a xlink:href="pruner_8h.html" target="_top" xlink:title="fplll/pruner.h">
<polygon fill="white" stroke="black" points="531,-168.5 531,-187.5 601,-187.5 601,-168.5 531,-168.5"/>
<text text-anchor="middle" x="566" y="-175.5" font-family="Helvetica,sans-Serif" font-size="10.00">fplll/pruner.h</text>
</a>
</g>
</g>
<!-- Node1&#45;&gt;Node16 -->
<g id="edge16" class="edge"><title>Node1&#45;&gt;Node16</title>
<path fill="none" stroke="midnightblue" d="M521.04,-217.537C532.273,-207.909 546.319,-195.869 555.694,-187.834"/>
<polygon fill="midnightblue" stroke="midnightblue" points="518.437,-215.159 513.122,-224.324 522.992,-220.473 518.437,-215.159"/>
</g>
<!-- Node2&#45;&gt;Node3 -->
<g id="edge2" class="edge"><title>Node2&#45;&gt;Node3</title>
<path fill="none" stroke="midnightblue" d="M429.019,-160.718C419.678,-151.2 408.254,-139.561 400.589,-131.751"/>
<polygon fill="midnightblue" stroke="midnightblue" points="426.746,-163.398 436.248,-168.083 431.741,-158.494 426.746,-163.398"/>
</g>
<!-- Node2&#45;&gt;Node4 -->
<g id="edge3" class="edge"><title>Node2&#45;&gt;Node4</title>
<path fill="none" stroke="midnightblue" d="M455.176,-159.275C460.474,-150.045 466.717,-139.17 470.976,-131.751"/>
<polygon fill="midnightblue" stroke="midnightblue" points="452.062,-157.668 450.119,-168.083 458.133,-161.153 452.062,-157.668"/>
</g>
<!-- Node5 -->
<g id="node5" class="node"><title>Node5</title>
<g id="a_node5"><a xlink:href="fplll_8cpp.html" target="_top" xlink:title="fplll/fplll.cpp">
<polygon fill="white" stroke="black" points="0,-56.5 0,-75.5 68,-75.5 68,-56.5 0,-56.5"/>
<text text-anchor="middle" x="34" y="-63.5" font-family="Helvetica,sans-Serif" font-size="10.00">fplll/fplll.cpp</text>
</a>
</g>
</g>
<!-- Node4&#45;&gt;Node5 -->
<g id="edge4" class="edge"><title>Node4&#45;&gt;Node5</title>
<path fill="none" stroke="midnightblue" d="M436.834,-112.3C436.219,-112.197 435.607,-112.097 435,-112 277.082,-86.8144 235.039,-100.415 77,-76 74.1357,-75.5575 71.1743,-75.0481 68.2077,-74.5013"/>
<polygon fill="midnightblue" stroke="midnightblue" points="436.49,-115.796 446.962,-114.19 437.774,-108.915 436.49,-115.796"/>
</g>
<!-- Node6 -->
<g id="node6" class="node"><title>Node6</title>
<g id="a_node6"><a xlink:href="main_8h.html" target="_top" xlink:title="fplll/main.h">
<polygon fill="white" stroke="black" points="86,-56.5 86,-75.5 150,-75.5 150,-56.5 86,-56.5"/>
<text text-anchor="middle" x="118" y="-63.5" font-family="Helvetica,sans-Serif" font-size="10.00">fplll/main.h</text>
</a>
</g>
</g>
<!-- Node4&#45;&gt;Node6 -->
<g id="edge5" class="edge"><title>Node4&#45;&gt;Node6</title>
<path fill="none" stroke="midnightblue" d="M436.83,-112.325C436.216,-112.214 435.606,-112.106 435,-112 313.139,-90.7184 280.861,-97.2816 159,-76 156.128,-75.4985 153.153,-74.934 150.177,-74.3385"/>
<polygon fill="midnightblue" stroke="midnightblue" points="436.459,-115.819 446.944,-114.297 437.799,-108.948 436.459,-115.819"/>
</g>
<!-- Node8 -->
<g id="node8" class="node"><title>Node8</title>
<g id="a_node8"><a xlink:href="sieve__main_8cpp.html" target="_top" xlink:title="fplll/sieve/sieve_main.cpp">
<polygon fill="white" stroke="black" points="168.5,-56.5 168.5,-75.5 297.5,-75.5 297.5,-56.5 168.5,-56.5"/>
<text text-anchor="middle" x="233" y="-63.5" font-family="Helvetica,sans-Serif" font-size="10.00">fplll/sieve/sieve_main.cpp</text>
</a>
</g>
</g>
<!-- Node4&#45;&gt;Node8 -->
<g id="edge7" class="edge"><title>Node4&#45;&gt;Node8</title>
<path fill="none" stroke="midnightblue" d="M436.899,-112.311C391.441,-102.209 316.882,-85.6404 271.627,-75.5837"/>
<polygon fill="midnightblue" stroke="midnightblue" points="436.167,-115.734 446.689,-114.486 437.686,-108.9 436.167,-115.734"/>
</g>
<!-- Node9 -->
<g id="node9" class="node"><title>Node9</title>
<g id="a_node9"><a xlink:href="test__bkz_8cpp.html" target="_top" xlink:title="tests/test_bkz.cpp">
<polygon fill="white" stroke="black" points="316,-56.5 316,-75.5 414,-75.5 414,-56.5 316,-56.5"/>
<text text-anchor="middle" x="365" y="-63.5" font-family="Helvetica,sans-Serif" font-size="10.00">tests/test_bkz.cpp</text>
</a>
</g>
</g>
<!-- Node4&#45;&gt;Node9 -->
<g id="edge8" class="edge"><title>Node4&#45;&gt;Node9</title>
<path fill="none" stroke="midnightblue" d="M448.995,-107.862C428.412,-97.8492 400.655,-84.3458 382.79,-75.6545"/>
<polygon fill="midnightblue" stroke="midnightblue" points="447.642,-111.097 458.166,-112.324 450.705,-104.802 447.642,-111.097"/>
</g>
<!-- Node10 -->
<g id="node10" class="node"><title>Node10</title>
<g id="a_node10"><a xlink:href="test__lll_8cpp.html" target="_top" xlink:title="tests/test_lll.cpp">
<polygon fill="white" stroke="black" points="431.5,-56.5 431.5,-75.5 520.5,-75.5 520.5,-56.5 431.5,-56.5"/>
<text text-anchor="middle" x="476" y="-63.5" font-family="Helvetica,sans-Serif" font-size="10.00">tests/test_lll.cpp</text>
</a>
</g>
</g>
<!-- Node4&#45;&gt;Node10 -->
<g id="edge9" class="edge"><title>Node4&#45;&gt;Node10</title>
<path fill="none" stroke="midnightblue" d="M476,-101.805C476,-92.9102 476,-82.7798 476,-75.7511"/>
<polygon fill="midnightblue" stroke="midnightblue" points="472.5,-102.083 476,-112.083 479.5,-102.083 472.5,-102.083"/>
</g>
<!-- Node11 -->
<g id="node11" class="node"><title>Node11</title>
<g id="a_node11"><a xlink:href="test__nr_8cpp.html" target="_top" xlink:title="tests/test_nr.cpp">
<polygon fill="white" stroke="black" points="539,-56.5 539,-75.5 629,-75.5 629,-56.5 539,-56.5"/>
<text text-anchor="middle" x="584" y="-63.5" font-family="Helvetica,sans-Serif" font-size="10.00">tests/test_nr.cpp</text>
</a>
</g>
</g>
<!-- Node4&#45;&gt;Node11 -->
<g id="edge10" class="edge"><title>Node4&#45;&gt;Node11</title>
<path fill="none" stroke="midnightblue" d="M502.548,-107.726C522.546,-97.7271 549.387,-84.3065 566.691,-75.6545"/>
<polygon fill="midnightblue" stroke="midnightblue" points="500.731,-104.721 493.352,-112.324 503.862,-110.982 500.731,-104.721"/>
</g>
<!-- Node12 -->
<g id="node12" class="node"><title>Node12</title>
<g id="a_node12"><a xlink:href="test__pruner_8cpp.html" target="_top" xlink:title="tests/test_pruner.cpp">
<polygon fill="white" stroke="black" points="647.5,-56.5 647.5,-75.5 756.5,-75.5 756.5,-56.5 647.5,-56.5"/>
<text text-anchor="middle" x="702" y="-63.5" font-family="Helvetica,sans-Serif" font-size="10.00">tests/test_pruner.cpp</text>
</a>
</g>
</g>
<!-- Node4&#45;&gt;Node12 -->
<g id="edge11" class="edge"><title>Node4&#45;&gt;Node12</title>
<path fill="none" stroke="midnightblue" d="M515.075,-111.663C557.644,-101.492 625.154,-85.3615 666.332,-75.5225"/>
<polygon fill="midnightblue" stroke="midnightblue" points="513.996,-108.323 505.083,-114.051 515.623,-115.131 513.996,-108.323"/>
</g>
<!-- Node13 -->
<g id="node13" class="node"><title>Node13</title>
<g id="a_node13"><a xlink:href="test__sieve_8cpp.html" target="_top" xlink:title="tests/test_sieve.cpp">
<polygon fill="white" stroke="black" points="774.5,-56.5 774.5,-75.5 879.5,-75.5 879.5,-56.5 774.5,-56.5"/>
<text text-anchor="middle" x="827" y="-63.5" font-family="Helvetica,sans-Serif" font-size="10.00">tests/test_sieve.cpp</text>
</a>
</g>
</g>
<!-- Node4&#45;&gt;Node13 -->
<g id="edge12" class="edge"><title>Node4&#45;&gt;Node13</title>
<path fill="none" stroke="midnightblue" d="M515.362,-111.877C626.862,-91.0016 657.208,-91.7964 766,-76 768.754,-75.6001 771.579,-75.1885 774.43,-74.7719"/>
<polygon fill="midnightblue" stroke="midnightblue" points="514.579,-108.463 505.402,-113.758 515.878,-115.341 514.579,-108.463"/>
</g>
<!-- Node14 -->
<g id="node14" class="node"><title>Node14</title>
<g id="a_node14"><a xlink:href="test__svp_8cpp.html" target="_top" xlink:title="tests/test_svp.cpp">
<polygon fill="white" stroke="black" points="898,-56.5 898,-75.5 996,-75.5 996,-56.5 898,-56.5"/>
<text text-anchor="middle" x="947" y="-63.5" font-family="Helvetica,sans-Serif" font-size="10.00">tests/test_svp.cpp</text>
</a>
</g>
</g>
<!-- Node4&#45;&gt;Node14 -->
<g id="edge13" class="edge"><title>Node4&#45;&gt;Node14</title>
<path fill="none" stroke="midnightblue" d="M515.415,-111.971C680.936,-85.1062 726.115,-96.4386 889,-76 891.932,-75.6321 894.944,-75.232 897.981,-74.8118"/>
<polygon fill="midnightblue" stroke="midnightblue" points="514.677,-108.545 505.378,-113.623 515.814,-115.453 514.677,-108.545"/>
</g>
<!-- Node7 -->
<g id="node7" class="node"><title>Node7</title>
<g id="a_node7"><a xlink:href="main_8cpp.html" target="_top" xlink:title="fplll/main.cpp">
<polygon fill="white" stroke="black" points="81,-0.5 81,-19.5 155,-19.5 155,-0.5 81,-0.5"/>
<text text-anchor="middle" x="118" y="-7.5" font-family="Helvetica,sans-Serif" font-size="10.00">fplll/main.cpp</text>
</a>
</g>
</g>
<!-- Node6&#45;&gt;Node7 -->
<g id="edge6" class="edge"><title>Node6&#45;&gt;Node7</title>
<path fill="none" stroke="midnightblue" d="M118,-45.8045C118,-36.9102 118,-26.7798 118,-19.7511"/>
<polygon fill="midnightblue" stroke="midnightblue" points="114.5,-46.083 118,-56.083 121.5,-46.083 114.5,-46.083"/>
</g>
<!-- Node16&#45;&gt;Node4 -->
<g id="edge18" class="edge"><title>Node16&#45;&gt;Node4</title>
<path fill="none" stroke="midnightblue" d="M542.962,-163.177C526.401,-153.241 504.582,-140.149 490.424,-131.655"/>
<polygon fill="midnightblue" stroke="midnightblue" points="541.164,-166.18 551.54,-168.324 544.766,-160.178 541.164,-166.18"/>
</g>
<!-- Node16&#45;&gt;Node15 -->
<g id="edge17" class="edge"><title>Node16&#45;&gt;Node15</title>
<path fill="none" stroke="midnightblue" d="M592.056,-163.726C611.684,-153.727 638.028,-140.307 655.012,-131.655"/>
<polygon fill="midnightblue" stroke="midnightblue" points="590.352,-160.666 583.031,-168.324 593.53,-166.903 590.352,-160.666"/>
</g>
<!-- Node17 -->
<g id="node17" class="node"><title>Node17</title>
<g id="a_node17"><a xlink:href="pruner_8cpp.html" target="_top" xlink:title="fplll/pruner.cpp">
<polygon fill="white" stroke="black" points="523,-112.5 523,-131.5 603,-131.5 603,-112.5 523,-112.5"/>
<text text-anchor="middle" x="563" y="-119.5" font-family="Helvetica,sans-Serif" font-size="10.00">fplll/pruner.cpp</text>
</a>
</g>
</g>
<!-- Node16&#45;&gt;Node17 -->
<g id="edge19" class="edge"><title>Node16&#45;&gt;Node17</title>
<path fill="none" stroke="midnightblue" d="M564.934,-157.805C564.439,-148.91 563.877,-138.78 563.486,-131.751"/>
<polygon fill="midnightblue" stroke="midnightblue" points="561.455,-158.293 565.505,-168.083 568.444,-157.904 561.455,-158.293"/>
</g>
</g>
</svg>
