<?xml version="1.0" encoding="UTF-8" standalone="no"?>
<!DOCTYPE svg PUBLIC "-//W3C//DTD SVG 1.1//EN"
 "http://www.w3.org/Graphics/SVG/1.1/DTD/svg11.dtd">
<!-- Generated by graphviz version 2.38.0 (20140413.2041)
 -->
<!-- Title: fplll/bkz_param.h Pages: 1 -->
<svg width="856pt" height="252pt"
 viewBox="0.00 0.00 856.00 252.00" xmlns="http://www.w3.org/2000/svg" xmlns:xlink="http://www.w3.org/1999/xlink">
<g id="graph0" class="graph" transform="scale(1 1) rotate(0) translate(4 248)">
<title>fplll/bkz_param.h</title>
<polygon fill="white" stroke="none" points="-4,4 -4,-248 852,-248 852,4 -4,4"/>
<!-- Node1 -->
<g id="node1" class="node"><title>Node1</title>
<polygon fill="#bfbfbf" stroke="black" points="336.5,-224.5 336.5,-243.5 427.5,-243.5 427.5,-224.5 336.5,-224.5"/>
<text text-anchor="middle" x="382" y="-231.5" font-family="Helvetica,sans-Serif" font-size="10.00">fplll/bkz_param.h</text>
</g>
<!-- Node2 -->
<g id="node2" class="node"><title>Node2</title>
<g id="a_node2"><a xlink:href="bkz_8h.html" target="_top" xlink:title="fplll/bkz.h">
<polygon fill="white" stroke="black" points="294.5,-168.5 294.5,-187.5 353.5,-187.5 353.5,-168.5 294.5,-168.5"/>
<text text-anchor="middle" x="324" y="-175.5" font-family="Helvetica,sans-Serif" font-size="10.00">fplll/bkz.h</text>
</a>
</g>
</g>
<!-- Node1&#45;&gt;Node2 -->
<g id="edge1" class="edge"><title>Node1&#45;&gt;Node2</title>
<path fill="none" stroke="midnightblue" d="M365.087,-217.253C354.797,-207.673 342.034,-195.791 333.488,-187.834"/>
<polygon fill="midnightblue" stroke="midnightblue" points="362.977,-220.071 372.681,-224.324 367.747,-214.948 362.977,-220.071"/>
</g>
<!-- Node3 -->
<g id="node3" class="node"><title>Node3</title>
<g id="a_node3"><a xlink:href="bkz_8cpp.html" target="_top" xlink:title="fplll/bkz.cpp">
<polygon fill="white" stroke="black" points="248.5,-112.5 248.5,-131.5 317.5,-131.5 317.5,-112.5 248.5,-112.5"/>
<text text-anchor="middle" x="283" y="-119.5" font-family="Helvetica,sans-Serif" font-size="10.00">fplll/bkz.cpp</text>
</a>
</g>
</g>
<!-- Node1&#45;&gt;Node3 -->
<g id="edge13" class="edge"><title>Node1&#45;&gt;Node3</title>
<path fill="none" stroke="midnightblue" d="M330.73,-221.078C313.275,-214.345 295.53,-203.947 285,-188 273.678,-170.853 277.443,-145.234 280.567,-131.855"/>
<polygon fill="midnightblue" stroke="midnightblue" points="329.755,-224.445 340.35,-224.454 332.073,-217.84 329.755,-224.445"/>
</g>
<!-- Node4 -->
<g id="node4" class="node"><title>Node4</title>
<g id="a_node4"><a xlink:href="fplll_8h.html" target="_top" xlink:title="fplll/fplll.h">
<polygon fill="white" stroke="black" points="353,-112.5 353,-131.5 411,-131.5 411,-112.5 353,-112.5"/>
<text text-anchor="middle" x="382" y="-119.5" font-family="Helvetica,sans-Serif" font-size="10.00">fplll/fplll.h</text>
</a>
</g>
</g>
<!-- Node1&#45;&gt;Node4 -->
<g id="edge15" class="edge"><title>Node1&#45;&gt;Node4</title>
<path fill="none" stroke="midnightblue" d="M382,-214.348C382,-190.254 382,-149.308 382,-131.591"/>
<polygon fill="midnightblue" stroke="midnightblue" points="378.5,-214.368 382,-224.368 385.5,-214.369 378.5,-214.368"/>
</g>
<!-- Node14 -->
<g id="node14" class="node"><title>Node14</title>
<g id="a_node14"><a xlink:href="bkz__param_8cpp.html" target="_top" xlink:title="fplll/bkz_param.cpp">
<polygon fill="white" stroke="black" points="410.5,-168.5 410.5,-187.5 511.5,-187.5 511.5,-168.5 410.5,-168.5"/>
<text text-anchor="middle" x="461" y="-175.5" font-family="Helvetica,sans-Serif" font-size="10.00">fplll/bkz_param.cpp</text>
</a>
</g>
</g>
<!-- Node1&#45;&gt;Node14 -->
<g id="edge14" class="edge"><title>Node1&#45;&gt;Node14</title>
<path fill="none" stroke="midnightblue" d="M403.034,-218.622C417.466,-208.757 436.141,-195.992 448.339,-187.655"/>
<polygon fill="midnightblue" stroke="midnightblue" points="400.973,-215.791 394.693,-224.324 404.923,-221.57 400.973,-215.791"/>
</g>
<!-- Node15 -->
<g id="node15" class="node"><title>Node15</title>
<g id="a_node15"><a xlink:href="pruner_8h.html" target="_top" xlink:title="fplll/pruner.h">
<polygon fill="white" stroke="black" points="530,-168.5 530,-187.5 600,-187.5 600,-168.5 530,-168.5"/>
<text text-anchor="middle" x="565" y="-175.5" font-family="Helvetica,sans-Serif" font-size="10.00">fplll/pruner.h</text>
</a>
</g>
</g>
<!-- Node1&#45;&gt;Node15 -->
<g id="edge16" class="edge"><title>Node1&#45;&gt;Node15</title>
<path fill="none" stroke="midnightblue" d="M420.743,-221.568C455.265,-211.381 505.005,-196.703 536.139,-187.516"/>
<polygon fill="midnightblue" stroke="midnightblue" points="419.597,-218.256 410.997,-224.444 421.579,-224.97 419.597,-218.256"/>
</g>
<!-- Node2&#45;&gt;Node3 -->
<g id="edge2" class="edge"><title>Node2&#45;&gt;Node3</title>
<path fill="none" stroke="midnightblue" d="M310.983,-159.855C303.883,-150.505 295.396,-139.327 289.644,-131.751"/>
<polygon fill="midnightblue" stroke="midnightblue" points="308.395,-162.235 317.23,-168.083 313.97,-158.002 308.395,-162.235"/>
</g>
<!-- Node2&#45;&gt;Node4 -->
<g id="edge3" class="edge"><title>Node2&#45;&gt;Node4</title>
<path fill="none" stroke="midnightblue" d="M340.913,-161.253C351.203,-151.673 363.966,-139.791 372.512,-131.834"/>
<polygon fill="midnightblue" stroke="midnightblue" points="338.253,-158.948 333.319,-168.324 343.023,-164.071 338.253,-158.948"/>
</g>
<!-- Node5 -->
<g id="node5" class="node"><title>Node5</title>
<g id="a_node5"><a xlink:href="fplll_8cpp.html" target="_top" xlink:title="fplll/fplll.cpp">
<polygon fill="white" stroke="black" points="0,-56.5 0,-75.5 68,-75.5 68,-56.5 0,-56.5"/>
<text text-anchor="middle" x="34" y="-63.5" font-family="Helvetica,sans-Serif" font-size="10.00">fplll/fplll.cpp</text>
</a>
</g>
</g>
<!-- Node4&#45;&gt;Node5 -->
<g id="edge4" class="edge"><title>Node4&#45;&gt;Node5</title>
<path fill="none" stroke="midnightblue" d="M342.924,-114.639C337.248,-113.739 331.476,-112.836 326,-112 215.463,-95.128 187.11,-95.4632 77,-76 74.146,-75.4955 71.1918,-74.9425 68.23,-74.3665"/>
<polygon fill="midnightblue" stroke="midnightblue" points="342.521,-118.119 352.949,-116.242 343.627,-111.207 342.521,-118.119"/>
</g>
<!-- Node6 -->
<g id="node6" class="node"><title>Node6</title>
<g id="a_node6"><a xlink:href="main_8h.html" target="_top" xlink:title="fplll/main.h">
<polygon fill="white" stroke="black" points="86,-56.5 86,-75.5 150,-75.5 150,-56.5 86,-56.5"/>
<text text-anchor="middle" x="118" y="-63.5" font-family="Helvetica,sans-Serif" font-size="10.00">fplll/main.h</text>
</a>
</g>
</g>
<!-- Node4&#45;&gt;Node6 -->
<g id="edge5" class="edge"><title>Node4&#45;&gt;Node6</title>
<path fill="none" stroke="midnightblue" d="M342.907,-113.32C298.35,-104.518 223.359,-89.5564 159,-76 156.148,-75.3992 153.186,-74.7664 150.218,-74.1263"/>
<polygon fill="midnightblue" stroke="midnightblue" points="342.257,-116.759 352.745,-115.261 343.612,-109.891 342.257,-116.759"/>
</g>
<!-- Node8 -->
<g id="node8" class="node"><title>Node8</title>
<g id="a_node8"><a xlink:href="test__bkz_8cpp.html" target="_top" xlink:title="tests/test_bkz.cpp">
<polygon fill="white" stroke="black" points="168,-56.5 168,-75.5 266,-75.5 266,-56.5 168,-56.5"/>
<text text-anchor="middle" x="217" y="-63.5" font-family="Helvetica,sans-Serif" font-size="10.00">tests/test_bkz.cpp</text>
</a>
</g>
</g>
<!-- Node4&#45;&gt;Node8 -->
<g id="edge7" class="edge"><title>Node4&#45;&gt;Node8</title>
<path fill="none" stroke="midnightblue" d="M346.264,-109.304C315.173,-99.1294 270.853,-84.6246 243.022,-75.5164"/>
<polygon fill="midnightblue" stroke="midnightblue" points="345.263,-112.659 355.855,-112.444 347.44,-106.007 345.263,-112.659"/>
</g>
<!-- Node9 -->
<g id="node9" class="node"><title>Node9</title>
<g id="a_node9"><a xlink:href="test__lll_8cpp.html" target="_top" xlink:title="tests/test_lll.cpp">
<polygon fill="white" stroke="black" points="283.5,-56.5 283.5,-75.5 372.5,-75.5 372.5,-56.5 283.5,-56.5"/>
<text text-anchor="middle" x="328" y="-63.5" font-family="Helvetica,sans-Serif" font-size="10.00">tests/test_lll.cpp</text>
</a>
</g>
</g>
<!-- Node4&#45;&gt;Node9 -->
<g id="edge8" class="edge"><title>Node4&#45;&gt;Node9</title>
<path fill="none" stroke="midnightblue" d="M366.002,-105.002C356.433,-95.4329 344.639,-83.6389 336.751,-75.7511"/>
<polygon fill="midnightblue" stroke="midnightblue" points="363.537,-107.487 373.083,-112.083 368.487,-102.537 363.537,-107.487"/>
</g>
<!-- Node10 -->
<g id="node10" class="node"><title>Node10</title>
<g id="a_node10"><a xlink:href="test__nr_8cpp.html" target="_top" xlink:title="tests/test_nr.cpp">
<polygon fill="white" stroke="black" points="391,-56.5 391,-75.5 481,-75.5 481,-56.5 391,-56.5"/>
<text text-anchor="middle" x="436" y="-63.5" font-family="Helvetica,sans-Serif" font-size="10.00">tests/test_nr.cpp</text>
</a>
</g>
</g>
<!-- Node4&#45;&gt;Node10 -->
<g id="edge9" class="edge"><title>Node4&#45;&gt;Node10</title>
<path fill="none" stroke="midnightblue" d="M397.998,-105.002C407.567,-95.4329 419.361,-83.6389 427.249,-75.7511"/>
<polygon fill="midnightblue" stroke="midnightblue" points="395.513,-102.537 390.917,-112.083 400.463,-107.487 395.513,-102.537"/>
</g>
<!-- Node11 -->
<g id="node11" class="node"><title>Node11</title>
<g id="a_node11"><a xlink:href="test__pruner_8cpp.html" target="_top" xlink:title="tests/test_pruner.cpp">
<polygon fill="white" stroke="black" points="499.5,-56.5 499.5,-75.5 608.5,-75.5 608.5,-56.5 499.5,-56.5"/>
<text text-anchor="middle" x="554" y="-63.5" font-family="Helvetica,sans-Serif" font-size="10.00">tests/test_pruner.cpp</text>
</a>
</g>
</g>
<!-- Node4&#45;&gt;Node11 -->
<g id="edge10" class="edge"><title>Node4&#45;&gt;Node11</title>
<path fill="none" stroke="midnightblue" d="M418.832,-109.436C451.262,-99.2551 497.737,-84.664 526.874,-75.5164"/>
<polygon fill="midnightblue" stroke="midnightblue" points="417.746,-106.109 409.254,-112.444 419.843,-112.787 417.746,-106.109"/>
</g>
<!-- Node12 -->
<g id="node12" class="node"><title>Node12</title>
<g id="a_node12"><a xlink:href="test__sieve_8cpp.html" target="_top" xlink:title="tests/test_sieve.cpp">
<polygon fill="white" stroke="black" points="626.5,-56.5 626.5,-75.5 731.5,-75.5 731.5,-56.5 626.5,-56.5"/>
<text text-anchor="middle" x="679" y="-63.5" font-family="Helvetica,sans-Serif" font-size="10.00">tests/test_sieve.cpp</text>
</a>
</g>
</g>
<!-- Node4&#45;&gt;Node12 -->
<g id="edge11" class="edge"><title>Node4&#45;&gt;Node12</title>
<path fill="none" stroke="midnightblue" d="M420.959,-113.916C475.336,-104.03 573.856,-86.117 632.163,-75.5158"/>
<polygon fill="midnightblue" stroke="midnightblue" points="420.231,-110.491 411.018,-115.724 421.483,-117.379 420.231,-110.491"/>
</g>
<!-- Node13 -->
<g id="node13" class="node"><title>Node13</title>
<g id="a_node13"><a xlink:href="test__svp_8cpp.html" target="_top" xlink:title="tests/test_svp.cpp">
<polygon fill="white" stroke="black" points="750,-56.5 750,-75.5 848,-75.5 848,-56.5 750,-56.5"/>
<text text-anchor="middle" x="799" y="-63.5" font-family="Helvetica,sans-Serif" font-size="10.00">tests/test_svp.cpp</text>
</a>
</g>
</g>
<!-- Node4&#45;&gt;Node13 -->
<g id="edge12" class="edge"><title>Node4&#45;&gt;Node13</title>
<path fill="none" stroke="midnightblue" d="M421.338,-116.451C487.443,-108.72 624.973,-92.2704 741,-76 743.926,-75.5896 746.934,-75.1567 749.967,-74.7117"/>
<polygon fill="midnightblue" stroke="midnightblue" points="420.883,-112.98 411.355,-117.615 421.694,-119.933 420.883,-112.98"/>
</g>
<!-- Node7 -->
<g id="node7" class="node"><title>Node7</title>
<g id="a_node7"><a xlink:href="main_8cpp.html" target="_top" xlink:title="fplll/main.cpp">
<polygon fill="white" stroke="black" points="81,-0.5 81,-19.5 155,-19.5 155,-0.5 81,-0.5"/>
<text text-anchor="middle" x="118" y="-7.5" font-family="Helvetica,sans-Serif" font-size="10.00">fplll/main.cpp</text>
</a>
</g>
</g>
<!-- Node6&#45;&gt;Node7 -->
<g id="edge6" class="edge"><title>Node6&#45;&gt;Node7</title>
<path fill="none" stroke="midnightblue" d="M118,-45.8045C118,-36.9102 118,-26.7798 118,-19.7511"/>
<polygon fill="midnightblue" stroke="midnightblue" points="114.5,-46.083 118,-56.083 121.5,-46.083 114.5,-46.083"/>
</g>
<!-- Node15&#45;&gt;Node4 -->
<g id="edge17" class="edge"><title>Node15&#45;&gt;Node4</title>
<path fill="none" stroke="midnightblue" d="M526.257,-165.568C491.735,-155.381 441.995,-140.703 410.861,-131.516"/>
<polygon fill="midnightblue" stroke="midnightblue" points="525.421,-168.97 536.003,-168.444 527.403,-162.256 525.421,-168.97"/>
</g>
<!-- Node16 -->
<g id="node16" class="node"><title>Node16</title>
<g id="a_node16"><a xlink:href="pruner_8cpp.html" target="_top" xlink:title="fplll/pruner.cpp">
<polygon fill="white" stroke="black" points="525,-112.5 525,-131.5 605,-131.5 605,-112.5 525,-112.5"/>
<text text-anchor="middle" x="565" y="-119.5" font-family="Helvetica,sans-Serif" font-size="10.00">fplll/pruner.cpp</text>
</a>
</g>
</g>
<!-- Node15&#45;&gt;Node16 -->
<g id="edge18" class="edge"><title>Node15&#45;&gt;Node16</title>
<path fill="none" stroke="midnightblue" d="M565,-157.805C565,-148.91 565,-138.78 565,-131.751"/>
<polygon fill="midnightblue" stroke="midnightblue" points="561.5,-158.083 565,-168.083 568.5,-158.083 561.5,-158.083"/>
</g>
</g>
</svg>
