<?xml version="1.0" encoding="UTF-8" standalone="no"?>
<!DOCTYPE svg PUBLIC "-//W3C//DTD SVG 1.1//EN"
 "http://www.w3.org/Graphics/SVG/1.1/DTD/svg11.dtd">
<!-- Generated by graphviz version 2.40.1 (20161225.0304)
 -->
<!-- Title: fplll/bkz.h Pages: 1 -->
<svg width="1862pt" height="207pt"
 viewBox="0.00 0.00 1861.50 207.00" xmlns="http://www.w3.org/2000/svg" xmlns:xlink="http://www.w3.org/1999/xlink">
<g id="graph0" class="graph" transform="scale(1 1) rotate(0) translate(4 203)">
<title>fplll/bkz.h</title>
<polygon fill="#ffffff" stroke="transparent" points="-4,4 -4,-203 1857.5,-203 1857.5,4 -4,4"/>
<!-- Node0 -->
<g id="node1" class="node">
<title>Node0</title>
<polygon fill="#bfbfbf" stroke="#000000" points="991.5,-179.5 991.5,-198.5 1050.5,-198.5 1050.5,-179.5 991.5,-179.5"/>
<text text-anchor="middle" x="1021" y="-186.5" font-family="Helvetica,sans-Serif" font-size="10.00" fill="#000000">fplll/bkz.h</text>
</g>
<!-- Node1 -->
<g id="node2" class="node">
<title>Node1</title>
<g id="a_node2"><a xlink:href="bkz_8cpp.html" target="_top" xlink:title="fplll/bkz.cpp">
<polygon fill="#ffffff" stroke="#000000" points="945.5,-123.5 945.5,-142.5 1014.5,-142.5 1014.5,-123.5 945.5,-123.5"/>
<text text-anchor="middle" x="980" y="-130.5" font-family="Helvetica,sans-Serif" font-size="10.00" fill="#000000">fplll/bkz.cpp</text>
</a>
</g>
</g>
<!-- Node0&#45;&gt;Node1 -->
<g id="edge1" class="edge">
<title>Node0&#45;&gt;Node1</title>
<path fill="none" stroke="#191970" d="M1007.7636,-170.9209C1000.8789,-161.5176 992.7391,-150.3997 987.0598,-142.6427"/>
<polygon fill="#191970" stroke="#191970" points="1005.1269,-173.2445 1013.8583,-179.2455 1010.7749,-169.1093 1005.1269,-173.2445"/>
</g>
<!-- Node2 -->
<g id="node3" class="node">
<title>Node2</title>
<g id="a_node3"><a xlink:href="fplll_8h.html" target="_top" xlink:title="fplll/fplll.h">
<polygon fill="#ffffff" stroke="#000000" points="1033,-123.5 1033,-142.5 1091,-142.5 1091,-123.5 1033,-123.5"/>
<text text-anchor="middle" x="1062" y="-130.5" font-family="Helvetica,sans-Serif" font-size="10.00" fill="#000000">fplll/fplll.h</text>
</a>
</g>
</g>
<!-- Node0&#45;&gt;Node2 -->
<g id="edge2" class="edge">
<title>Node0&#45;&gt;Node2</title>
<path fill="none" stroke="#191970" d="M1034.2364,-170.9209C1041.1211,-161.5176 1049.2609,-150.3997 1054.9402,-142.6427"/>
<polygon fill="#191970" stroke="#191970" points="1031.2251,-169.1093 1028.1417,-179.2455 1036.8731,-173.2445 1031.2251,-169.1093"/>
</g>
<!-- Node3 -->
<g id="node4" class="node">
<title>Node3</title>
<g id="a_node4"><a xlink:href="fplll_8cpp.html" target="_top" xlink:title="fplll/fplll.cpp">
<polygon fill="#ffffff" stroke="#000000" points="0,-62 0,-81 68,-81 68,-62 0,-62"/>
<text text-anchor="middle" x="34" y="-69" font-family="Helvetica,sans-Serif" font-size="10.00" fill="#000000">fplll/fplll.cpp</text>
</a>
</g>
</g>
<!-- Node2&#45;&gt;Node3 -->
<g id="edge3" class="edge">
<title>Node2&#45;&gt;Node3</title>
<path fill="none" stroke="#191970" d="M1022.8178,-123.3558C604.7972,-64.0325 486.7905,-166.6619 77,-87 70.1451,-85.6674 62.9219,-83.4195 56.3936,-81.0429"/>
<polygon fill="#191970" stroke="#191970" points="1022.3513,-126.8246 1032.7484,-124.7874 1023.3501,-119.8962 1022.3513,-126.8246"/>
</g>
<!-- Node4 -->
<g id="node5" class="node">
<title>Node4</title>
<g id="a_node5"><a xlink:href="main_8h.html" target="_top" xlink:title="fplll/main.h">
<polygon fill="#ffffff" stroke="#000000" points="86,-62 86,-81 150,-81 150,-62 86,-62"/>
<text text-anchor="middle" x="118" y="-69" font-family="Helvetica,sans-Serif" font-size="10.00" fill="#000000">fplll/main.h</text>
</a>
</g>
</g>
<!-- Node2&#45;&gt;Node4 -->
<g id="edge4" class="edge">
<title>Node2&#45;&gt;Node4</title>
<path fill="none" stroke="#191970" d="M1022.8114,-123.3501C640.9218,-68.6084 532.3363,-163.2784 159,-87 152.439,-85.6595 145.5439,-83.409 139.3198,-81.0326"/>
<polygon fill="#191970" stroke="#191970" points="1022.3462,-126.8192 1032.7467,-124.799 1023.3565,-119.8925 1022.3462,-126.8192"/>
</g>
<!-- Node6 -->
<g id="node7" class="node">
<title>Node6</title>
<g id="a_node7"><a xlink:href="pruner_8cpp.html" target="_top" xlink:title="fplll/pruner/pruner.cpp">
<polygon fill="#ffffff" stroke="#000000" points="417,-.5 417,-19.5 527,-19.5 527,-.5 417,-.5"/>
<text text-anchor="middle" x="472" y="-7.5" font-family="Helvetica,sans-Serif" font-size="10.00" fill="#000000">fplll/pruner/pruner.cpp</text>
</a>
</g>
</g>
<!-- Node2&#45;&gt;Node6 -->
<g id="edge6" class="edge">
<title>Node2&#45;&gt;Node6</title>
<path fill="none" stroke="#191970" d="M1022.6822,-123.6376C907.2591,-113.123 360.1239,-142.862 307,-87 269.8034,-47.8862 355.6314,-26.6939 416.9191,-16.9171"/>
<polygon fill="#191970" stroke="#191970" points="1022.4009,-127.1286 1032.7426,-124.8266 1023.2225,-120.177 1022.4009,-127.1286"/>
</g>
<!-- Node7 -->
<g id="node8" class="node">
<title>Node7</title>
<g id="a_node8"><a xlink:href="pruner__cost_8cpp.html" target="_top" xlink:title="fplll/pruner/pruner\l_cost.cpp">
<polygon fill="#ffffff" stroke="#000000" points="316,-56.5 316,-86.5 408,-86.5 408,-56.5 316,-56.5"/>
<text text-anchor="start" x="324" y="-74.5" font-family="Helvetica,sans-Serif" font-size="10.00" fill="#000000">fplll/pruner/pruner</text>
<text text-anchor="middle" x="362" y="-63.5" font-family="Helvetica,sans-Serif" font-size="10.00" fill="#000000">_cost.cpp</text>
</a>
</g>
</g>
<!-- Node2&#45;&gt;Node7 -->
<g id="edge7" class="edge">
<title>Node2&#45;&gt;Node7</title>
<path fill="none" stroke="#191970" d="M1022.7095,-123.3025C754.6133,-82.5218 679.8062,-131.3053 417,-87 414.0652,-86.5052 411.063,-85.9136 408.0494,-85.2545"/>
<polygon fill="#191970" stroke="#191970" points="1022.3202,-126.7838 1032.7381,-124.8558 1023.3916,-119.8663 1022.3202,-126.7838"/>
</g>
<!-- Node8 -->
<g id="node9" class="node">
<title>Node8</title>
<g id="a_node9"><a xlink:href="pruner__optimize_8cpp.html" target="_top" xlink:title="fplll/pruner/pruner\l_optimize.cpp">
<polygon fill="#ffffff" stroke="#000000" points="426,-56.5 426,-86.5 518,-86.5 518,-56.5 426,-56.5"/>
<text text-anchor="start" x="434" y="-74.5" font-family="Helvetica,sans-Serif" font-size="10.00" fill="#000000">fplll/pruner/pruner</text>
<text text-anchor="middle" x="472" y="-63.5" font-family="Helvetica,sans-Serif" font-size="10.00" fill="#000000">_optimize.cpp</text>
</a>
</g>
</g>
<!-- Node2&#45;&gt;Node8 -->
<g id="edge9" class="edge">
<title>Node2&#45;&gt;Node8</title>
<path fill="none" stroke="#191970" d="M1022.8244,-123.2983C803.0637,-88.4998 741.5142,-124.6125 527,-87 524.0686,-86.486 521.0689,-85.8796 518.0572,-85.2096"/>
<polygon fill="#191970" stroke="#191970" points="1022.3013,-126.7591 1032.7313,-124.8978 1023.417,-119.8486 1022.3013,-126.7591"/>
</g>
<!-- Node9 -->
<g id="node10" class="node">
<title>Node9</title>
<g id="a_node10"><a xlink:href="pruner__optimize__tc_8cpp.html" target="_top" xlink:title="fplll/pruner/pruner\l_optimize_tc.cpp">
<polygon fill="#ffffff" stroke="#000000" points="536,-56.5 536,-86.5 628,-86.5 628,-56.5 536,-56.5"/>
<text text-anchor="start" x="544" y="-74.5" font-family="Helvetica,sans-Serif" font-size="10.00" fill="#000000">fplll/pruner/pruner</text>
<text text-anchor="middle" x="582" y="-63.5" font-family="Helvetica,sans-Serif" font-size="10.00" fill="#000000">_optimize_tc.cpp</text>
</a>
</g>
</g>
<!-- Node2&#45;&gt;Node9 -->
<g id="edge11" class="edge">
<title>Node2&#45;&gt;Node9</title>
<path fill="none" stroke="#191970" d="M1022.6094,-123.2273C851.4137,-94.4417 803.1707,-117.8985 637,-87 634.074,-86.4559 631.0785,-85.8265 628.0699,-85.1392"/>
<polygon fill="#191970" stroke="#191970" points="1022.2721,-126.7205 1032.7203,-124.9635 1023.4569,-119.8215 1022.2721,-126.7205"/>
</g>
<!-- Node10 -->
<g id="node11" class="node">
<title>Node10</title>
<g id="a_node11"><a xlink:href="pruner__optimize__tp_8cpp.html" target="_top" xlink:title="fplll/pruner/pruner\l_optimize_tp.cpp">
<polygon fill="#ffffff" stroke="#000000" points="646,-56.5 646,-86.5 738,-86.5 738,-56.5 646,-56.5"/>
<text text-anchor="start" x="654" y="-74.5" font-family="Helvetica,sans-Serif" font-size="10.00" fill="#000000">fplll/pruner/pruner</text>
<text text-anchor="middle" x="692" y="-63.5" font-family="Helvetica,sans-Serif" font-size="10.00" fill="#000000">_optimize_tp.cpp</text>
</a>
</g>
</g>
<!-- Node2&#45;&gt;Node10 -->
<g id="edge13" class="edge">
<title>Node2&#45;&gt;Node10</title>
<path fill="none" stroke="#191970" d="M1022.5237,-123.142C899.7093,-100.2144 864.9902,-111.188 747,-87 744.0845,-86.4023 741.097,-85.7319 738.0944,-85.0139"/>
<polygon fill="#191970" stroke="#191970" points="1022.2204,-126.6471 1032.6988,-125.0807 1023.5306,-119.7708 1022.2204,-126.6471"/>
</g>
<!-- Node11 -->
<g id="node12" class="node">
<title>Node11</title>
<g id="a_node12"><a xlink:href="pruner__prob_8cpp.html" target="_top" xlink:title="fplll/pruner/pruner\l_prob.cpp">
<polygon fill="#ffffff" stroke="#000000" points="756,-56.5 756,-86.5 848,-86.5 848,-56.5 756,-56.5"/>
<text text-anchor="start" x="764" y="-74.5" font-family="Helvetica,sans-Serif" font-size="10.00" fill="#000000">fplll/pruner/pruner</text>
<text text-anchor="middle" x="802" y="-63.5" font-family="Helvetica,sans-Serif" font-size="10.00" fill="#000000">_prob.cpp</text>
</a>
</g>
</g>
<!-- Node2&#45;&gt;Node11 -->
<g id="edge15" class="edge">
<title>Node2&#45;&gt;Node11</title>
<path fill="none" stroke="#191970" d="M1022.7297,-123.0148C947.8623,-105.5609 927.2498,-104.4989 857,-87 854.1121,-86.2806 851.1457,-85.517 848.1589,-84.7294"/>
<polygon fill="#191970" stroke="#191970" points="1022.1059,-126.4635 1032.6417,-125.3468 1023.7091,-119.6496 1022.1059,-126.4635"/>
</g>
<!-- Node12 -->
<g id="node13" class="node">
<title>Node12</title>
<g id="a_node13"><a xlink:href="pruner__util_8cpp.html" target="_top" xlink:title="fplll/pruner/pruner\l_util.cpp">
<polygon fill="#ffffff" stroke="#000000" points="168,-56.5 168,-86.5 260,-86.5 260,-56.5 168,-56.5"/>
<text text-anchor="start" x="176" y="-74.5" font-family="Helvetica,sans-Serif" font-size="10.00" fill="#000000">fplll/pruner/pruner</text>
<text text-anchor="middle" x="214" y="-63.5" font-family="Helvetica,sans-Serif" font-size="10.00" fill="#000000">_util.cpp</text>
</a>
</g>
</g>
<!-- Node2&#45;&gt;Node12 -->
<g id="edge17" class="edge">
<title>Node2&#45;&gt;Node12</title>
<path fill="none" stroke="#191970" d="M1022.3843,-123.2724C691.5754,-74.6482 600.1313,-136.4289 274,-87 269.5324,-86.3229 264.9157,-85.4507 260.3192,-84.4658"/>
<polygon fill="#191970" stroke="#191970" points="1022.3363,-126.804 1032.7436,-124.8195 1023.3703,-119.8808 1022.3363,-126.804"/>
</g>
<!-- Node13 -->
<g id="node14" class="node">
<title>Node13</title>
<g id="a_node14"><a xlink:href="sieve__main_8cpp.html" target="_top" xlink:title="fplll/sieve/sieve_main.cpp">
<polygon fill="#ffffff" stroke="#000000" points="866.5,-62 866.5,-81 995.5,-81 995.5,-62 866.5,-62"/>
<text text-anchor="middle" x="931" y="-69" font-family="Helvetica,sans-Serif" font-size="10.00" fill="#000000">fplll/sieve/sieve_main.cpp</text>
</a>
</g>
</g>
<!-- Node2&#45;&gt;Node13 -->
<g id="edge19" class="edge">
<title>Node2&#45;&gt;Node13</title>
<path fill="none" stroke="#191970" d="M1032.2549,-119.0357C1007.5264,-107.4265 972.9948,-91.2151 951.325,-81.0419"/>
<polygon fill="#191970" stroke="#191970" points="1030.9917,-122.3092 1041.5313,-123.3906 1033.9665,-115.9727 1030.9917,-122.3092"/>
</g>
<!-- Node14 -->
<g id="node15" class="node">
<title>Node14</title>
<g id="a_node15"><a xlink:href="test__bkz_8cpp.html" target="_top" xlink:title="tests/test_bkz.cpp">
<polygon fill="#ffffff" stroke="#000000" points="643,-.5 643,-19.5 741,-19.5 741,-.5 643,-.5"/>
<text text-anchor="middle" x="692" y="-7.5" font-family="Helvetica,sans-Serif" font-size="10.00" fill="#000000">tests/test_bkz.cpp</text>
</a>
</g>
</g>
<!-- Node2&#45;&gt;Node14 -->
<g id="edge20" class="edge">
<title>Node2&#45;&gt;Node14</title>
<path fill="none" stroke="#191970" d="M1053.2841,-114.1965C1043.8415,-96.106 1026.9867,-69.5613 1004,-56 905.799,1.9351 862.6367,-37.6881 750,-20 747.0727,-19.5403 744.0642,-19.0564 741.0307,-18.5597"/>
<polygon fill="#191970" stroke="#191970" points="1050.1874,-115.8302 1057.7594,-123.2408 1056.4614,-112.7257 1050.1874,-115.8302"/>
</g>
<!-- Node15 -->
<g id="node16" class="node">
<title>Node15</title>
<g id="a_node16"><a xlink:href="test__bkz__gram_8cpp.html" target="_top" xlink:title="tests/test_bkz_gram.cpp">
<polygon fill="#ffffff" stroke="#000000" points="759.5,-.5 759.5,-19.5 884.5,-19.5 884.5,-.5 759.5,-.5"/>
<text text-anchor="middle" x="822" y="-7.5" font-family="Helvetica,sans-Serif" font-size="10.00" fill="#000000">tests/test_bkz_gram.cpp</text>
</a>
</g>
</g>
<!-- Node2&#45;&gt;Node15 -->
<g id="edge21" class="edge">
<title>Node2&#45;&gt;Node15</title>
<path fill="none" stroke="#191970" d="M1061.2029,-113.0629C1059.3988,-95.5123 1053.9577,-70.5486 1038,-56 1026.4188,-45.4415 941.524,-29.6063 881.6862,-19.5415"/>
<polygon fill="#191970" stroke="#191970" points="1057.7334,-113.6165 1061.9372,-123.3417 1064.7156,-113.1177 1057.7334,-113.6165"/>
</g>
<!-- Node16 -->
<g id="node17" class="node">
<title>Node16</title>
<g id="a_node17"><a xlink:href="test__cvp_8cpp.html" target="_top" xlink:title="tests/test_cvp.cpp">
<polygon fill="#ffffff" stroke="#000000" points="903,-.5 903,-19.5 1001,-19.5 1001,-.5 903,-.5"/>
<text text-anchor="middle" x="952" y="-7.5" font-family="Helvetica,sans-Serif" font-size="10.00" fill="#000000">tests/test_cvp.cpp</text>
</a>
</g>
</g>
<!-- Node2&#45;&gt;Node16 -->
<g id="edge22" class="edge">
<title>Node2&#45;&gt;Node16</title>
<path fill="none" stroke="#191970" d="M1072.8362,-113.7187C1080.6114,-97.039 1087.8227,-72.9959 1076,-56 1066.0348,-41.6745 1024.1885,-28.1437 991.8329,-19.5143"/>
<polygon fill="#191970" stroke="#191970" points="1069.5156,-112.5258 1068.0872,-123.0239 1075.7505,-115.7079 1069.5156,-112.5258"/>
</g>
<!-- Node17 -->
<g id="node18" class="node">
<title>Node17</title>
<g id="a_node18"><a xlink:href="test__enum_8cpp.html" target="_top" xlink:title="tests/test_enum.cpp">
<polygon fill="#ffffff" stroke="#000000" points="1464,-62 1464,-81 1570,-81 1570,-62 1464,-62"/>
<text text-anchor="middle" x="1517" y="-69" font-family="Helvetica,sans-Serif" font-size="10.00" fill="#000000">tests/test_enum.cpp</text>
</a>
</g>
</g>
<!-- Node2&#45;&gt;Node17 -->
<g id="edge23" class="edge">
<title>Node2&#45;&gt;Node17</title>
<path fill="none" stroke="#191970" d="M1101.5495,-129.7507C1171.9547,-123.6466 1323.5132,-109.0608 1450,-87 1459.4093,-85.3589 1469.4807,-83.2298 1478.8816,-81.078"/>
<polygon fill="#191970" stroke="#191970" points="1101.0274,-126.2825 1091.3627,-130.6235 1101.625,-133.2569 1101.0274,-126.2825"/>
</g>
<!-- Node18 -->
<g id="node19" class="node">
<title>Node18</title>
<g id="a_node19"><a xlink:href="test__hlll_8cpp.html" target="_top" xlink:title="tests/test_hlll.cpp">
<polygon fill="#ffffff" stroke="#000000" points="1019,-.5 1019,-19.5 1113,-19.5 1113,-.5 1019,-.5"/>
<text text-anchor="middle" x="1066" y="-7.5" font-family="Helvetica,sans-Serif" font-size="10.00" fill="#000000">tests/test_hlll.cpp</text>
</a>
</g>
</g>
<!-- Node2&#45;&gt;Node18 -->
<g id="edge24" class="edge">
<title>Node2&#45;&gt;Node18</title>
<path fill="none" stroke="#191970" d="M1087.4494,-117.4967C1097.7137,-109.7437 1108.4303,-99.3631 1114,-87 1119.6592,-74.4381 1119.4076,-68.6722 1114,-56 1107.3859,-40.5006 1092.7037,-27.7184 1081.3074,-19.5954"/>
<polygon fill="#191970" stroke="#191970" points="1085.2382,-114.7723 1079.0567,-123.377 1089.2549,-120.5052 1085.2382,-114.7723"/>
</g>
<!-- Node19 -->
<g id="node20" class="node">
<title>Node19</title>
<g id="a_node20"><a xlink:href="test__lll_8cpp.html" target="_top" xlink:title="tests/test_lll.cpp">
<polygon fill="#ffffff" stroke="#000000" points="1131.5,-.5 1131.5,-19.5 1220.5,-19.5 1220.5,-.5 1131.5,-.5"/>
<text text-anchor="middle" x="1176" y="-7.5" font-family="Helvetica,sans-Serif" font-size="10.00" fill="#000000">tests/test_lll.cpp</text>
</a>
</g>
</g>
<!-- Node2&#45;&gt;Node19 -->
<g id="edge25" class="edge">
<title>Node2&#45;&gt;Node19</title>
<path fill="none" stroke="#191970" d="M1089.8877,-118.3781C1103.3972,-110.3632 1119.2056,-99.5132 1131,-87 1150.5411,-66.2681 1165.2389,-35.56 1171.9607,-19.9266"/>
<polygon fill="#191970" stroke="#191970" points="1087.9317,-115.4644 1080.9798,-123.4595 1091.4002,-121.5447 1087.9317,-115.4644"/>
</g>
<!-- Node20 -->
<g id="node21" class="node">
<title>Node20</title>
<g id="a_node21"><a xlink:href="test__lll__gram_8cpp.html" target="_top" xlink:title="tests/test_lll_gram.cpp">
<polygon fill="#ffffff" stroke="#000000" points="1354,-.5 1354,-19.5 1470,-19.5 1470,-.5 1354,-.5"/>
<text text-anchor="middle" x="1412" y="-7.5" font-family="Helvetica,sans-Serif" font-size="10.00" fill="#000000">tests/test_lll_gram.cpp</text>
</a>
</g>
</g>
<!-- Node2&#45;&gt;Node20 -->
<g id="edge26" class="edge">
<title>Node2&#45;&gt;Node20</title>
<path fill="none" stroke="#191970" d="M1101.36,-130.5629C1150.1552,-126.4087 1235.0596,-115.4259 1302,-87 1324.0187,-77.6499 1326.4095,-69.7281 1346,-56 1363.9577,-43.4161 1384.7127,-28.9659 1398.0797,-19.6715"/>
<polygon fill="#191970" stroke="#191970" points="1100.9136,-127.0873 1091.2235,-131.3713 1101.4702,-134.0652 1100.9136,-127.0873"/>
</g>
<!-- Node21 -->
<g id="node22" class="node">
<title>Node21</title>
<g id="a_node22"><a xlink:href="test__nr_8cpp.html" target="_top" xlink:title="tests/test_nr.cpp">
<polygon fill="#ffffff" stroke="#000000" points="1588,-62 1588,-81 1678,-81 1678,-62 1588,-62"/>
<text text-anchor="middle" x="1633" y="-69" font-family="Helvetica,sans-Serif" font-size="10.00" fill="#000000">tests/test_nr.cpp</text>
</a>
</g>
</g>
<!-- Node2&#45;&gt;Node21 -->
<g id="edge27" class="edge">
<title>Node2&#45;&gt;Node21</title>
<path fill="none" stroke="#191970" d="M1101.3221,-132.0553C1188.1952,-129.4122 1402.752,-119.8246 1579,-87 1587.0545,-85.4999 1595.6372,-83.3154 1603.5343,-81.0572"/>
<polygon fill="#191970" stroke="#191970" points="1101.0247,-128.5623 1091.1304,-132.3509 1101.2277,-135.5594 1101.0247,-128.5623"/>
</g>
<!-- Node22 -->
<g id="node23" class="node">
<title>Node22</title>
<g id="a_node23"><a xlink:href="test__pruner_8cpp.html" target="_top" xlink:title="tests/test_pruner.cpp">
<polygon fill="#ffffff" stroke="#000000" points="1696.5,-62 1696.5,-81 1805.5,-81 1805.5,-62 1696.5,-62"/>
<text text-anchor="middle" x="1751" y="-69" font-family="Helvetica,sans-Serif" font-size="10.00" fill="#000000">tests/test_pruner.cpp</text>
</a>
</g>
</g>
<!-- Node2&#45;&gt;Node22 -->
<g id="edge28" class="edge">
<title>Node2&#45;&gt;Node22</title>
<path fill="none" stroke="#191970" d="M1101.2992,-132.3428C1200.2398,-130.205 1467.398,-121.435 1687,-87 1696.4872,-85.5123 1706.6391,-83.3321 1715.998,-81.074"/>
<polygon fill="#191970" stroke="#191970" points="1101.0903,-128.8463 1091.1643,-132.551 1101.2341,-135.8448 1101.0903,-128.8463"/>
</g>
<!-- Node23 -->
<g id="node24" class="node">
<title>Node23</title>
<g id="a_node24"><a xlink:href="test__sieve_8cpp.html" target="_top" xlink:title="tests/test_sieve.cpp">
<polygon fill="#ffffff" stroke="#000000" points="1488.5,-.5 1488.5,-19.5 1593.5,-19.5 1593.5,-.5 1488.5,-.5"/>
<text text-anchor="middle" x="1541" y="-7.5" font-family="Helvetica,sans-Serif" font-size="10.00" fill="#000000">tests/test_sieve.cpp</text>
</a>
</g>
</g>
<!-- Node2&#45;&gt;Node23 -->
<g id="edge29" class="edge">
<title>Node2&#45;&gt;Node23</title>
<path fill="none" stroke="#191970" d="M1101.1534,-128.5574C1166.6901,-120.7754 1295.5911,-103.8932 1338,-87 1360.9034,-77.8766 1361.6842,-66.4789 1384,-56 1419.7361,-39.2193 1462.951,-27.0999 1494.9877,-19.5271"/>
<polygon fill="#191970" stroke="#191970" points="1100.7253,-125.0836 1091.2022,-129.7269 1101.5424,-132.0357 1100.7253,-125.0836"/>
</g>
<!-- Node24 -->
<g id="node25" class="node">
<title>Node24</title>
<g id="a_node25"><a xlink:href="test__svp_8cpp.html" target="_top" xlink:title="tests/test_svp.cpp">
<polygon fill="#ffffff" stroke="#000000" points="1612,-.5 1612,-19.5 1710,-19.5 1710,-.5 1612,-.5"/>
<text text-anchor="middle" x="1661" y="-7.5" font-family="Helvetica,sans-Serif" font-size="10.00" fill="#000000">tests/test_svp.cpp</text>
</a>
</g>
</g>
<!-- Node2&#45;&gt;Node24 -->
<g id="edge30" class="edge">
<title>Node2&#45;&gt;Node24</title>
<path fill="none" stroke="#191970" d="M1101.3375,-129.3691C1173.8436,-122.3234 1325.6618,-105.8248 1375,-87 1398.3795,-78.0796 1398.8235,-65.4351 1422,-56 1430.7689,-52.4302 1544.4333,-31.3069 1611.7993,-18.9621"/>
<polygon fill="#191970" stroke="#191970" points="1100.8565,-125.899 1091.237,-130.3391 1101.5258,-132.867 1100.8565,-125.899"/>
</g>
<!-- Node25 -->
<g id="node26" class="node">
<title>Node25</title>
<g id="a_node26"><a xlink:href="test__svp__gram_8cpp.html" target="_top" xlink:title="tests/test_svp_gram.cpp">
<polygon fill="#ffffff" stroke="#000000" points="1728.5,-.5 1728.5,-19.5 1853.5,-19.5 1853.5,-.5 1728.5,-.5"/>
<text text-anchor="middle" x="1791" y="-7.5" font-family="Helvetica,sans-Serif" font-size="10.00" fill="#000000">tests/test_svp_gram.cpp</text>
</a>
</g>
</g>
<!-- Node2&#45;&gt;Node25 -->
<g id="edge31" class="edge">
<title>Node2&#45;&gt;Node25</title>
<path fill="none" stroke="#191970" d="M1101.234,-130.2709C1180.324,-124.3755 1356.1172,-109.1687 1412,-87 1433.8995,-78.3125 1433.1216,-64.7406 1455,-56 1564.9682,-12.0669 1601.6866,-36.1454 1719,-20 1722.0005,-19.5871 1725.0712,-19.1636 1728.1727,-18.7354"/>
<polygon fill="#191970" stroke="#191970" points="1100.9024,-126.7857 1091.1855,-131.0085 1101.4149,-133.7669 1100.9024,-126.7857"/>
</g>
<!-- Node26 -->
<g id="node27" class="node">
<title>Node26</title>
<g id="a_node27"><a xlink:href="test__utils_8h.html" target="_top" xlink:title="tests/test_utils.h">
<polygon fill="#ffffff" stroke="#000000" points="1204.5,-62 1204.5,-81 1293.5,-81 1293.5,-62 1204.5,-62"/>
<text text-anchor="middle" x="1249" y="-69" font-family="Helvetica,sans-Serif" font-size="10.00" fill="#000000">tests/test_utils.h</text>
</a>
</g>
</g>
<!-- Node2&#45;&gt;Node26 -->
<g id="edge32" class="edge">
<title>Node2&#45;&gt;Node26</title>
<path fill="none" stroke="#191970" d="M1100.766,-120.2507C1136.2472,-108.5818 1187.9583,-91.5752 1219.9864,-81.0419"/>
<polygon fill="#191970" stroke="#191970" points="1099.6247,-116.9416 1091.2188,-123.3906 1101.8117,-123.5912 1099.6247,-116.9416"/>
</g>
<!-- Node5 -->
<g id="node6" class="node">
<title>Node5</title>
<g id="a_node6"><a xlink:href="main_8cpp.html" target="_top" xlink:title="fplll/main.cpp">
<polygon fill="#ffffff" stroke="#000000" points="81,-.5 81,-19.5 155,-19.5 155,-.5 81,-.5"/>
<text text-anchor="middle" x="118" y="-7.5" font-family="Helvetica,sans-Serif" font-size="10.00" fill="#000000">fplll/main.cpp</text>
</a>
</g>
</g>
<!-- Node4&#45;&gt;Node5 -->
<g id="edge5" class="edge">
<title>Node4&#45;&gt;Node5</title>
<path fill="none" stroke="#191970" d="M118,-51.7462C118,-41.0519 118,-28.314 118,-19.7449"/>
<polygon fill="#191970" stroke="#191970" points="114.5001,-51.8906 118,-61.8906 121.5001,-51.8907 114.5001,-51.8906"/>
</g>
<!-- Node7&#45;&gt;Node6 -->
<g id="edge8" class="edge">
<title>Node7&#45;&gt;Node6</title>
<path fill="none" stroke="#191970" d="M397.7204,-51.5291C416.9284,-40.79 439.7281,-28.0429 454.9539,-19.5303"/>
<polygon fill="#191970" stroke="#191970" points="395.9295,-48.5204 388.909,-56.4554 399.3455,-54.6303 395.9295,-48.5204"/>
</g>
<!-- Node8&#45;&gt;Node6 -->
<g id="edge10" class="edge">
<title>Node8&#45;&gt;Node6</title>
<path fill="none" stroke="#191970" d="M472,-46.2849C472,-36.9858 472,-26.9883 472,-19.8469"/>
<polygon fill="#191970" stroke="#191970" points="468.5001,-46.2977 472,-56.2977 475.5001,-46.2978 468.5001,-46.2977"/>
</g>
<!-- Node9&#45;&gt;Node6 -->
<g id="edge12" class="edge">
<title>Node9&#45;&gt;Node6</title>
<path fill="none" stroke="#191970" d="M546.2796,-51.5291C527.0716,-40.79 504.2719,-28.0429 489.0461,-19.5303"/>
<polygon fill="#191970" stroke="#191970" points="544.6545,-54.6303 555.091,-56.4554 548.0705,-48.5204 544.6545,-54.6303"/>
</g>
<!-- Node10&#45;&gt;Node6 -->
<g id="edge14" class="edge">
<title>Node10&#45;&gt;Node6</title>
<path fill="none" stroke="#191970" d="M636.0246,-55.7302C585.6648,-41.622 537.8185,-28.2982 506.4543,-19.5751"/>
<polygon fill="#191970" stroke="#191970" points="635.2156,-59.1383 645.7892,-58.4668 637.1047,-52.398 635.2156,-59.1383"/>
</g>
<!-- Node11&#45;&gt;Node6 -->
<g id="edge16" class="edge">
<title>Node11&#45;&gt;Node6</title>
<path fill="none" stroke="#191970" d="M745.9654,-55.9032C664.554,-38.0172 580.7149,-25.033 527.1265,-17.4173"/>
<polygon fill="#191970" stroke="#191970" points="745.3579,-59.3536 755.8794,-58.1087 746.878,-52.5206 745.3579,-59.3536"/>
</g>
<!-- Node12&#45;&gt;Node6 -->
<g id="edge18" class="edge">
<title>Node12&#45;&gt;Node6</title>
<path fill="none" stroke="#191970" d="M270.1697,-56.9446C271.4582,-56.6252 272.7363,-56.31 274,-56 327.4682,-42.8848 389.2969,-28.6722 429.442,-19.5699"/>
<polygon fill="#191970" stroke="#191970" points="269.0079,-53.6275 260.159,-59.4539 270.7099,-60.4174 269.0079,-53.6275"/>
</g>
<!-- Node26&#45;&gt;Node14 -->
<g id="edge33" class="edge">
<title>Node26&#45;&gt;Node14</title>
<path fill="none" stroke="#191970" d="M1194.3026,-67.0786C1102.3288,-59.3701 910.9614,-42.1561 750,-20 747.0645,-19.5959 744.0497,-19.1551 741.0114,-18.691"/>
<polygon fill="#191970" stroke="#191970" points="1194.2301,-70.5846 1204.4862,-67.9272 1194.8114,-63.6087 1194.2301,-70.5846"/>
</g>
<!-- Node26&#45;&gt;Node15 -->
<g id="edge34" class="edge">
<title>Node26&#45;&gt;Node15</title>
<path fill="none" stroke="#191970" d="M1193.8299,-63.554C1114.422,-52.117 968.3058,-31.0721 884.8386,-19.0505"/>
<polygon fill="#191970" stroke="#191970" points="1193.7137,-67.0733 1204.1106,-65.0347 1194.7117,-60.1448 1193.7137,-67.0733"/>
</g>
<!-- Node26&#45;&gt;Node16 -->
<g id="edge35" class="edge">
<title>Node26&#45;&gt;Node16</title>
<path fill="none" stroke="#191970" d="M1194.411,-60.1962C1138.0708,-48.5298 1051.1451,-30.53 998.1293,-19.552"/>
<polygon fill="#191970" stroke="#191970" points="1193.7125,-63.6258 1204.2145,-62.2262 1195.132,-56.7712 1193.7125,-63.6258"/>
</g>
<!-- Node26&#45;&gt;Node18 -->
<g id="edge37" class="edge">
<title>Node26&#45;&gt;Node18</title>
<path fill="none" stroke="#191970" d="M1210.6172,-58.6009C1175.9088,-46.9366 1125.602,-30.0302 1094.393,-19.5419"/>
<polygon fill="#191970" stroke="#191970" points="1209.8122,-62.0226 1220.4063,-61.8906 1212.0422,-55.3873 1209.8122,-62.0226"/>
</g>
<!-- Node26&#45;&gt;Node19 -->
<g id="edge38" class="edge">
<title>Node26&#45;&gt;Node19</title>
<path fill="none" stroke="#191970" d="M1229.8529,-55.3692C1216.4261,-44.0576 1198.9163,-29.3062 1187.5671,-19.7449"/>
<polygon fill="#191970" stroke="#191970" points="1227.6909,-58.1243 1237.5938,-61.8906 1232.201,-52.7709 1227.6909,-58.1243"/>
</g>
<!-- Node26&#45;&gt;Node20 -->
<g id="edge39" class="edge">
<title>Node26&#45;&gt;Node20</title>
<path fill="none" stroke="#191970" d="M1283.9871,-58.2993C1314.8711,-46.6468 1359.1504,-29.9402 1386.7101,-19.5419"/>
<polygon fill="#191970" stroke="#191970" points="1282.5894,-55.0858 1274.4688,-61.8906 1285.0605,-61.6351 1282.5894,-55.0858"/>
</g>
<!-- Node26&#45;&gt;Node23 -->
<g id="edge40" class="edge">
<title>Node26&#45;&gt;Node23</title>
<path fill="none" stroke="#191970" d="M1303.6709,-59.9854C1359.162,-48.2981 1444.0674,-30.4156 1495.8584,-19.5076"/>
<polygon fill="#191970" stroke="#191970" points="1302.7303,-56.6066 1293.6664,-62.0925 1304.1731,-63.4564 1302.7303,-56.6066"/>
</g>
<!-- Node26&#45;&gt;Node24 -->
<g id="edge41" class="edge">
<title>Node26&#45;&gt;Node24</title>
<path fill="none" stroke="#191970" d="M1304.0568,-63.9469C1373.7333,-54.2832 1497.4033,-36.7813 1603,-20 1605.9265,-19.5349 1608.9343,-19.0469 1611.9673,-18.5471"/>
<polygon fill="#191970" stroke="#191970" points="1303.1884,-60.5337 1293.7629,-65.372 1304.1484,-67.4675 1303.1884,-60.5337"/>
</g>
<!-- Node26&#45;&gt;Node25 -->
<g id="edge42" class="edge">
<title>Node26&#45;&gt;Node25</title>
<path fill="none" stroke="#191970" d="M1303.7567,-66.0181C1391.4886,-57.1183 1568.9459,-38.6375 1719,-20 1722.0057,-19.6267 1725.0806,-19.2355 1728.1854,-18.833"/>
<polygon fill="#191970" stroke="#191970" points="1303.3616,-62.5401 1293.765,-67.0296 1304.0667,-69.5045 1303.3616,-62.5401"/>
</g>
<!-- Node27 -->
<g id="node28" class="node">
<title>Node27</title>
<g id="a_node28"><a xlink:href="test__gso_8cpp.html" target="_top" xlink:title="tests/test_gso.cpp">
<polygon fill="#ffffff" stroke="#000000" points="1238,-.5 1238,-19.5 1336,-19.5 1336,-.5 1238,-.5"/>
<text text-anchor="middle" x="1287" y="-7.5" font-family="Helvetica,sans-Serif" font-size="10.00" fill="#000000">tests/test_gso.cpp</text>
</a>
</g>
</g>
<!-- Node26&#45;&gt;Node27 -->
<g id="edge36" class="edge">
<title>Node26&#45;&gt;Node27</title>
<path fill="none" stroke="#191970" d="M1260.3779,-53.0857C1267.1461,-42.132 1275.4611,-28.6748 1280.9788,-19.7449"/>
<polygon fill="#191970" stroke="#191970" points="1257.2165,-51.5438 1254.9375,-61.8906 1263.1714,-55.2233 1257.2165,-51.5438"/>
</g>
</g>
</svg>
