<?xml version="1.0" encoding="UTF-8" standalone="no"?>
<!DOCTYPE svg PUBLIC "-//W3C//DTD SVG 1.1//EN"
 "http://www.w3.org/Graphics/SVG/1.1/DTD/svg11.dtd">
<!-- Generated by graphviz version 2.38.0 (20140413.2041)
 -->
<!-- Title: fplll/bkz_param.h Pages: 1 -->
<svg width="1121pt" height="252pt"
 viewBox="0.00 0.00 1121.00 252.00" xmlns="http://www.w3.org/2000/svg" xmlns:xlink="http://www.w3.org/1999/xlink">
<g id="graph0" class="graph" transform="scale(1 1) rotate(0) translate(4 248)">
<title>fplll/bkz_param.h</title>
<polygon fill="white" stroke="none" points="-4,4 -4,-248 1117,-248 1117,4 -4,4"/>
<!-- Node0 -->
<g id="node1" class="node"><title>Node0</title>
<polygon fill="#bfbfbf" stroke="black" points="518.5,-224.5 518.5,-243.5 609.5,-243.5 609.5,-224.5 518.5,-224.5"/>
<text text-anchor="middle" x="564" y="-231.5" font-family="Helvetica,sans-Serif" font-size="10.00">fplll/bkz_param.h</text>
</g>
<!-- Node1 -->
<g id="node2" class="node"><title>Node1</title>
<g id="a_node2"><a xlink:href="bkz_8h.html" target="_top" xlink:title="fplll/bkz.h">
<polygon fill="white" stroke="black" points="476.5,-168.5 476.5,-187.5 535.5,-187.5 535.5,-168.5 476.5,-168.5"/>
<text text-anchor="middle" x="506" y="-175.5" font-family="Helvetica,sans-Serif" font-size="10.00">fplll/bkz.h</text>
</a>
</g>
</g>
<!-- Node0&#45;&gt;Node1 -->
<g id="edge1" class="edge"><title>Node0&#45;&gt;Node1</title>
<path fill="none" stroke="midnightblue" d="M547.087,-217.253C536.797,-207.673 524.034,-195.791 515.488,-187.834"/>
<polygon fill="midnightblue" stroke="midnightblue" points="544.977,-220.071 554.681,-224.324 549.747,-214.948 544.977,-220.071"/>
</g>
<!-- Node2 -->
<g id="node3" class="node"><title>Node2</title>
<g id="a_node3"><a xlink:href="bkz_8cpp.html" target="_top" xlink:title="fplll/bkz.cpp">
<polygon fill="white" stroke="black" points="418.5,-112.5 418.5,-131.5 487.5,-131.5 487.5,-112.5 418.5,-112.5"/>
<text text-anchor="middle" x="453" y="-119.5" font-family="Helvetica,sans-Serif" font-size="10.00">fplll/bkz.cpp</text>
</a>
</g>
</g>
<!-- Node0&#45;&gt;Node2 -->
<g id="edge15" class="edge"><title>Node0&#45;&gt;Node2</title>
<path fill="none" stroke="midnightblue" d="M517.027,-221.068C498.916,-214.214 479.576,-203.734 467,-188 453.739,-171.408 452.308,-145.088 452.552,-131.595"/>
<polygon fill="midnightblue" stroke="midnightblue" points="516.032,-224.428 526.627,-224.421 518.34,-217.819 516.032,-224.428"/>
</g>
<!-- Node3 -->
<g id="node4" class="node"><title>Node3</title>
<g id="a_node4"><a xlink:href="fplll_8h.html" target="_top" xlink:title="fplll/fplll.h">
<polygon fill="white" stroke="black" points="508,-112.5 508,-131.5 566,-131.5 566,-112.5 508,-112.5"/>
<text text-anchor="middle" x="537" y="-119.5" font-family="Helvetica,sans-Serif" font-size="10.00">fplll/fplll.h</text>
</a>
</g>
</g>
<!-- Node0&#45;&gt;Node3 -->
<g id="edge21" class="edge"><title>Node0&#45;&gt;Node3</title>
<path fill="none" stroke="midnightblue" d="M559.422,-214.348C553.508,-190.254 543.457,-149.308 539.109,-131.591"/>
<polygon fill="midnightblue" stroke="midnightblue" points="556.098,-215.491 561.881,-224.368 562.897,-213.822 556.098,-215.491"/>
</g>
<!-- Node15 -->
<g id="node16" class="node"><title>Node15</title>
<g id="a_node16"><a xlink:href="bkz__param_8cpp.html" target="_top" xlink:title="fplll/bkz_param.cpp">
<polygon fill="white" stroke="black" points="682.5,-112.5 682.5,-131.5 783.5,-131.5 783.5,-112.5 682.5,-112.5"/>
<text text-anchor="middle" x="733" y="-119.5" font-family="Helvetica,sans-Serif" font-size="10.00">fplll/bkz_param.cpp</text>
</a>
</g>
</g>
<!-- Node0&#45;&gt;Node15 -->
<g id="edge16" class="edge"><title>Node0&#45;&gt;Node15</title>
<path fill="none" stroke="midnightblue" d="M602.561,-221.129C623.831,-213.545 650.088,-202.416 671,-188 694.625,-171.713 716.318,-145.26 726.652,-131.668"/>
<polygon fill="midnightblue" stroke="midnightblue" points="601.188,-217.9 592.872,-224.465 603.466,-224.519 601.188,-217.9"/>
</g>
<!-- Node16 -->
<g id="node17" class="node"><title>Node16</title>
<g id="a_node17"><a xlink:href="pruner_8h.html" target="_top" xlink:title="fplll/pruner.h">
<polygon fill="white" stroke="black" points="592,-168.5 592,-187.5 662,-187.5 662,-168.5 592,-168.5"/>
<text text-anchor="middle" x="627" y="-175.5" font-family="Helvetica,sans-Serif" font-size="10.00">fplll/pruner.h</text>
</a>
</g>
</g>
<!-- Node0&#45;&gt;Node16 -->
<g id="edge17" class="edge"><title>Node0&#45;&gt;Node16</title>
<path fill="none" stroke="midnightblue" d="M582.04,-217.537C593.273,-207.909 607.319,-195.869 616.694,-187.834"/>
<polygon fill="midnightblue" stroke="midnightblue" points="579.437,-215.159 574.122,-224.324 583.992,-220.473 579.437,-215.159"/>
</g>
<!-- Node1&#45;&gt;Node2 -->
<g id="edge2" class="edge"><title>Node1&#45;&gt;Node2</title>
<path fill="none" stroke="midnightblue" d="M490.019,-160.718C480.678,-151.2 469.254,-139.561 461.589,-131.751"/>
<polygon fill="midnightblue" stroke="midnightblue" points="487.746,-163.398 497.248,-168.083 492.741,-158.494 487.746,-163.398"/>
</g>
<!-- Node1&#45;&gt;Node3 -->
<g id="edge3" class="edge"><title>Node1&#45;&gt;Node3</title>
<path fill="none" stroke="midnightblue" d="M516.176,-159.275C521.474,-150.045 527.717,-139.17 531.976,-131.751"/>
<polygon fill="midnightblue" stroke="midnightblue" points="513.062,-157.668 511.119,-168.083 519.133,-161.153 513.062,-157.668"/>
</g>
<!-- Node4 -->
<g id="node5" class="node"><title>Node4</title>
<g id="a_node5"><a xlink:href="fplll_8cpp.html" target="_top" xlink:title="fplll/fplll.cpp">
<polygon fill="white" stroke="black" points="0,-56.5 0,-75.5 68,-75.5 68,-56.5 0,-56.5"/>
<text text-anchor="middle" x="34" y="-63.5" font-family="Helvetica,sans-Serif" font-size="10.00">fplll/fplll.cpp</text>
</a>
</g>
</g>
<!-- Node3&#45;&gt;Node4 -->
<g id="edge4" class="edge"><title>Node3&#45;&gt;Node4</title>
<path fill="none" stroke="midnightblue" d="M497.836,-112.288C497.22,-112.189 496.608,-112.092 496,-112 311.216,-83.9031 261.919,-103.195 77,-76 74.1326,-75.5783 71.169,-75.0835 68.2009,-74.5466"/>
<polygon fill="midnightblue" stroke="midnightblue" points="497.504,-115.785 507.97,-114.137 498.761,-108.899 497.504,-115.785"/>
</g>
<!-- Node5 -->
<g id="node6" class="node"><title>Node5</title>
<g id="a_node6"><a xlink:href="main_8h.html" target="_top" xlink:title="fplll/main.h">
<polygon fill="white" stroke="black" points="86,-56.5 86,-75.5 150,-75.5 150,-56.5 86,-56.5"/>
<text text-anchor="middle" x="118" y="-63.5" font-family="Helvetica,sans-Serif" font-size="10.00">fplll/main.h</text>
</a>
</g>
</g>
<!-- Node3&#45;&gt;Node5 -->
<g id="edge5" class="edge"><title>Node3&#45;&gt;Node5</title>
<path fill="none" stroke="midnightblue" d="M497.833,-112.306C497.218,-112.201 496.607,-112.099 496,-112 347.324,-87.8156 307.676,-100.184 159,-76 156.123,-75.532 153.144,-74.9905 150.165,-74.4099"/>
<polygon fill="midnightblue" stroke="midnightblue" points="497.483,-115.801 507.958,-114.213 498.779,-108.922 497.483,-115.801"/>
</g>
<!-- Node7 -->
<g id="node8" class="node"><title>Node7</title>
<g id="a_node8"><a xlink:href="sieve__main_8cpp.html" target="_top" xlink:title="fplll/sieve/sieve_main.cpp">
<polygon fill="white" stroke="black" points="168.5,-56.5 168.5,-75.5 297.5,-75.5 297.5,-56.5 168.5,-56.5"/>
<text text-anchor="middle" x="233" y="-63.5" font-family="Helvetica,sans-Serif" font-size="10.00">fplll/sieve/sieve_main.cpp</text>
</a>
</g>
</g>
<!-- Node3&#45;&gt;Node7 -->
<g id="edge7" class="edge"><title>Node3&#45;&gt;Node7</title>
<path fill="none" stroke="midnightblue" d="M497.824,-112.359C497.212,-112.238 496.603,-112.118 496,-112 424.051,-97.9558 340.555,-84.0791 287.282,-75.5295"/>
<polygon fill="midnightblue" stroke="midnightblue" points="497.417,-115.849 507.918,-114.441 498.831,-108.993 497.417,-115.849"/>
</g>
<!-- Node8 -->
<g id="node9" class="node"><title>Node8</title>
<g id="a_node9"><a xlink:href="test__bkz_8cpp.html" target="_top" xlink:title="tests/test_bkz.cpp">
<polygon fill="white" stroke="black" points="316,-56.5 316,-75.5 414,-75.5 414,-56.5 316,-56.5"/>
<text text-anchor="middle" x="365" y="-63.5" font-family="Helvetica,sans-Serif" font-size="10.00">tests/test_bkz.cpp</text>
</a>
</g>
</g>
<!-- Node3&#45;&gt;Node8 -->
<g id="edge8" class="edge"><title>Node3&#45;&gt;Node8</title>
<path fill="none" stroke="midnightblue" d="M500.168,-109.436C467.738,-99.2551 421.263,-84.664 392.126,-75.5164"/>
<polygon fill="midnightblue" stroke="midnightblue" points="499.157,-112.787 509.746,-112.444 501.254,-106.109 499.157,-112.787"/>
</g>
<!-- Node9 -->
<g id="node10" class="node"><title>Node9</title>
<g id="a_node10"><a xlink:href="test__cvp_8cpp.html" target="_top" xlink:title="tests/test_cvp.cpp">
<polygon fill="white" stroke="black" points="432,-56.5 432,-75.5 530,-75.5 530,-56.5 432,-56.5"/>
<text text-anchor="middle" x="481" y="-63.5" font-family="Helvetica,sans-Serif" font-size="10.00">tests/test_cvp.cpp</text>
</a>
</g>
</g>
<!-- Node3&#45;&gt;Node9 -->
<g id="edge9" class="edge"><title>Node3&#45;&gt;Node9</title>
<path fill="none" stroke="midnightblue" d="M520.67,-105.253C510.735,-95.6731 498.412,-83.7906 490.161,-75.8339"/>
<polygon fill="midnightblue" stroke="midnightblue" points="518.375,-107.902 528.003,-112.324 523.234,-102.863 518.375,-107.902"/>
</g>
<!-- Node10 -->
<g id="node11" class="node"><title>Node10</title>
<g id="a_node11"><a xlink:href="test__lll_8cpp.html" target="_top" xlink:title="tests/test_lll.cpp">
<polygon fill="white" stroke="black" points="548.5,-56.5 548.5,-75.5 637.5,-75.5 637.5,-56.5 548.5,-56.5"/>
<text text-anchor="middle" x="593" y="-63.5" font-family="Helvetica,sans-Serif" font-size="10.00">tests/test_lll.cpp</text>
</a>
</g>
</g>
<!-- Node3&#45;&gt;Node10 -->
<g id="edge10" class="edge"><title>Node3&#45;&gt;Node10</title>
<path fill="none" stroke="midnightblue" d="M553.33,-105.253C563.265,-95.6731 575.588,-83.7906 583.839,-75.8339"/>
<polygon fill="midnightblue" stroke="midnightblue" points="550.766,-102.863 545.997,-112.324 555.625,-107.902 550.766,-102.863"/>
</g>
<!-- Node11 -->
<g id="node12" class="node"><title>Node11</title>
<g id="a_node12"><a xlink:href="test__nr_8cpp.html" target="_top" xlink:title="tests/test_nr.cpp">
<polygon fill="white" stroke="black" points="656,-56.5 656,-75.5 746,-75.5 746,-56.5 656,-56.5"/>
<text text-anchor="middle" x="701" y="-63.5" font-family="Helvetica,sans-Serif" font-size="10.00">tests/test_nr.cpp</text>
</a>
</g>
</g>
<!-- Node3&#45;&gt;Node11 -->
<g id="edge11" class="edge"><title>Node3&#45;&gt;Node11</title>
<path fill="none" stroke="midnightblue" d="M572.52,-109.304C603.422,-99.1294 647.473,-84.6246 675.135,-75.5164"/>
<polygon fill="midnightblue" stroke="midnightblue" points="571.39,-105.992 562.986,-112.444 573.579,-112.64 571.39,-105.992"/>
</g>
<!-- Node12 -->
<g id="node13" class="node"><title>Node12</title>
<g id="a_node13"><a xlink:href="test__pruner_8cpp.html" target="_top" xlink:title="tests/test_pruner.cpp">
<polygon fill="white" stroke="black" points="764.5,-56.5 764.5,-75.5 873.5,-75.5 873.5,-56.5 764.5,-56.5"/>
<text text-anchor="middle" x="819" y="-63.5" font-family="Helvetica,sans-Serif" font-size="10.00">tests/test_pruner.cpp</text>
</a>
</g>
</g>
<!-- Node3&#45;&gt;Node12 -->
<g id="edge12" class="edge"><title>Node3&#45;&gt;Node12</title>
<path fill="none" stroke="midnightblue" d="M576.207,-111.829C648.492,-96.7469 721.156,-83.741 768.385,-75.5714"/>
<polygon fill="midnightblue" stroke="midnightblue" points="575.079,-108.489 566.013,-113.97 576.518,-115.34 575.079,-108.489"/>
</g>
<!-- Node13 -->
<g id="node14" class="node"><title>Node13</title>
<g id="a_node14"><a xlink:href="test__sieve_8cpp.html" target="_top" xlink:title="tests/test_sieve.cpp">
<polygon fill="white" stroke="black" points="891.5,-56.5 891.5,-75.5 996.5,-75.5 996.5,-56.5 891.5,-56.5"/>
<text text-anchor="middle" x="944" y="-63.5" font-family="Helvetica,sans-Serif" font-size="10.00">tests/test_sieve.cpp</text>
</a>
</g>
</g>
<!-- Node3&#45;&gt;Node13 -->
<g id="edge13" class="edge"><title>Node3&#45;&gt;Node13</title>
<path fill="none" stroke="midnightblue" d="M576.361,-111.934C712.455,-88.3453 749.57,-93.637 883,-76 885.759,-75.6353 888.587,-75.2518 891.442,-74.8571"/>
<polygon fill="midnightblue" stroke="midnightblue" points="575.633,-108.508 566.388,-113.683 576.843,-115.403 575.633,-108.508"/>
</g>
<!-- Node14 -->
<g id="node15" class="node"><title>Node14</title>
<g id="a_node15"><a xlink:href="test__svp_8cpp.html" target="_top" xlink:title="tests/test_svp.cpp">
<polygon fill="white" stroke="black" points="1015,-56.5 1015,-75.5 1113,-75.5 1113,-56.5 1015,-56.5"/>
<text text-anchor="middle" x="1064" y="-63.5" font-family="Helvetica,sans-Serif" font-size="10.00">tests/test_svp.cpp</text>
</a>
</g>
</g>
<!-- Node3&#45;&gt;Node14 -->
<g id="edge14" class="edge"><title>Node3&#45;&gt;Node14</title>
<path fill="none" stroke="midnightblue" d="M576.419,-111.997C766.59,-82.3344 818.391,-98.3628 1006,-76 1008.93,-75.6502 1011.95,-75.2642 1014.99,-74.8547"/>
<polygon fill="midnightblue" stroke="midnightblue" points="575.702,-108.567 566.372,-113.586 576.796,-115.481 575.702,-108.567"/>
</g>
<!-- Node6 -->
<g id="node7" class="node"><title>Node6</title>
<g id="a_node7"><a xlink:href="main_8cpp.html" target="_top" xlink:title="fplll/main.cpp">
<polygon fill="white" stroke="black" points="81,-0.5 81,-19.5 155,-19.5 155,-0.5 81,-0.5"/>
<text text-anchor="middle" x="118" y="-7.5" font-family="Helvetica,sans-Serif" font-size="10.00">fplll/main.cpp</text>
</a>
</g>
</g>
<!-- Node5&#45;&gt;Node6 -->
<g id="edge6" class="edge"><title>Node5&#45;&gt;Node6</title>
<path fill="none" stroke="midnightblue" d="M118,-45.8045C118,-36.9102 118,-26.7798 118,-19.7511"/>
<polygon fill="midnightblue" stroke="midnightblue" points="114.5,-46.083 118,-56.083 121.5,-46.083 114.5,-46.083"/>
</g>
<!-- Node16&#45;&gt;Node3 -->
<g id="edge19" class="edge"><title>Node16&#45;&gt;Node3</title>
<path fill="none" stroke="midnightblue" d="M603.962,-163.177C587.401,-153.241 565.582,-140.149 551.424,-131.655"/>
<polygon fill="midnightblue" stroke="midnightblue" points="602.164,-166.18 612.54,-168.324 605.766,-160.178 602.164,-166.18"/>
</g>
<!-- Node16&#45;&gt;Node15 -->
<g id="edge18" class="edge"><title>Node16&#45;&gt;Node15</title>
<path fill="none" stroke="midnightblue" d="M653.056,-163.726C672.684,-153.727 699.028,-140.307 716.012,-131.655"/>
<polygon fill="midnightblue" stroke="midnightblue" points="651.352,-160.666 644.031,-168.324 654.53,-166.903 651.352,-160.666"/>
</g>
<!-- Node17 -->
<g id="node18" class="node"><title>Node17</title>
<g id="a_node18"><a xlink:href="pruner_8cpp.html" target="_top" xlink:title="fplll/pruner.cpp">
<polygon fill="white" stroke="black" points="584,-112.5 584,-131.5 664,-131.5 664,-112.5 584,-112.5"/>
<text text-anchor="middle" x="624" y="-119.5" font-family="Helvetica,sans-Serif" font-size="10.00">fplll/pruner.cpp</text>
</a>
</g>
</g>
<!-- Node16&#45;&gt;Node17 -->
<g id="edge20" class="edge"><title>Node16&#45;&gt;Node17</title>
<path fill="none" stroke="midnightblue" d="M625.934,-157.805C625.439,-148.91 624.877,-138.78 624.486,-131.751"/>
<polygon fill="midnightblue" stroke="midnightblue" points="622.455,-158.293 626.505,-168.083 629.444,-157.904 622.455,-158.293"/>
</g>
</g>
</svg>
