<?xml version="1.0" encoding="UTF-8" standalone="no"?>
<!DOCTYPE svg PUBLIC "-//W3C//DTD SVG 1.1//EN"
 "http://www.w3.org/Graphics/SVG/1.1/DTD/svg11.dtd">
<!-- Generated by graphviz version 2.40.1 (20161225.0304)
 -->
<!-- Title: fplll Pages: 1 -->
<svg width="238pt" height="220pt"
 viewBox="0.00 0.00 238.00 220.00" xmlns="http://www.w3.org/2000/svg" xmlns:xlink="http://www.w3.org/1999/xlink">
<g id="graph0" class="graph" transform="scale(1 1) rotate(0) translate(4 216)">
<title>fplll</title>
<polygon fill="#ffffff" stroke="transparent" points="-4,4 -4,-216 234,-216 234,4 -4,4"/>
<g id="clust1" class="cluster">
<title>clusterdir_648eb9a0262415100be037a83da51ec4</title>
<g id="a_clust1"><a xlink:href="dir_648eb9a0262415100be037a83da51ec4.html" target="_top">
<polygon fill="#eeeeff" stroke="#000000" points="8,-8 8,-204 222,-204 222,-8 8,-8"/>
</a>
</g>
</g>
<!-- dir_648eb9a0262415100be037a83da51ec4 -->
<g id="node1" class="node">
<title>dir_648eb9a0262415100be037a83da51ec4</title>
<text text-anchor="middle" x="161" y="-175.5" font-family="Helvetica,sans-Serif" font-size="10.00" fill="#000000">fplll</text>
</g>
<!-- dir_1c35c54164086f71f6863a0c02e27e78 -->
<g id="node4" class="node">
<title>dir_1c35c54164086f71f6863a0c02e27e78</title>
<g id="a_node4"><a xlink:href="dir_1c35c54164086f71f6863a0c02e27e78.html" target="_top" xlink:title="io">
<polygon fill="#ffffff" stroke="#000000" points="142,-124 88,-124 88,-88 142,-88 142,-124"/>
<text text-anchor="middle" x="115" y="-103.5" font-family="Helvetica,sans-Serif" font-size="10.00" fill="#000000">io</text>
</a>
</g>
</g>
<!-- dir_648eb9a0262415100be037a83da51ec4&#45;&gt;dir_1c35c54164086f71f6863a0c02e27e78 -->
<g id="edge2" class="edge">
<title>dir_648eb9a0262415100be037a83da51ec4&#45;&gt;dir_1c35c54164086f71f6863a0c02e27e78</title>
<path fill="none" stroke="#000000" d="M149.3923,-159.8314C144.2022,-151.7079 137.9768,-141.9637 132.2575,-133.0118"/>
<polygon fill="#000000" stroke="#000000" points="135.0974,-130.9559 126.764,-124.4133 129.1985,-134.7246 135.0974,-130.9559"/>
<g id="a_edge2&#45;headlabel"><a xlink:href="dir_000000_000003.html" target="_top" xlink:title="1">
<text text-anchor="middle" x="139.4253" y="-129.9564" font-family="Helvetica,sans-Serif" font-size="10.00" fill="#000000">1</text>
</a>
</g>
</g>
<!-- dir_1657fdbdc6c293b0dd4b082f5e4c2d1d -->
<g id="node6" class="node">
<title>dir_1657fdbdc6c293b0dd4b082f5e4c2d1d</title>
<g id="a_node6"><a xlink:href="dir_1657fdbdc6c293b0dd4b082f5e4c2d1d.html" target="_top" xlink:title="pruner">
<polygon fill="#ffffff" stroke="#000000" points="214,-124 160,-124 160,-88 214,-88 214,-124"/>
<text text-anchor="middle" x="187" y="-103.5" font-family="Helvetica,sans-Serif" font-size="10.00" fill="#000000">pruner</text>
</a>
</g>
</g>
<!-- dir_648eb9a0262415100be037a83da51ec4&#45;&gt;dir_1657fdbdc6c293b0dd4b082f5e4c2d1d -->
<g id="edge1" class="edge">
<title>dir_648eb9a0262415100be037a83da51ec4&#45;&gt;dir_1657fdbdc6c293b0dd4b082f5e4c2d1d</title>
<path fill="none" stroke="#000000" d="M167.5609,-159.8314C170.4027,-151.9617 173.7937,-142.5712 176.9419,-133.8533"/>
<polygon fill="#000000" stroke="#000000" points="180.2462,-135.0076 180.3508,-124.4133 173.6623,-132.63 180.2462,-135.0076"/>
<g id="a_edge1&#45;headlabel"><a xlink:href="dir_000000_000005.html" target="_top" xlink:title="2">
<text text-anchor="middle" x="181.6959" y="-136.8528" font-family="Helvetica,sans-Serif" font-size="10.00" fill="#000000">2</text>
</a>
</g>
</g>
<!-- dir_288be6a3cd564beb7d9d01541561f027 -->
<g id="node2" class="node">
<title>dir_288be6a3cd564beb7d9d01541561f027</title>
<g id="a_node2"><a xlink:href="dir_288be6a3cd564beb7d9d01541561f027.html" target="_top" xlink:title="enum">
<polygon fill="#ffffff" stroke="#000000" points="70,-124 16,-124 16,-88 70,-88 70,-124"/>
<text text-anchor="middle" x="43" y="-103.5" font-family="Helvetica,sans-Serif" font-size="10.00" fill="#000000">enum</text>
</a>
</g>
</g>
<!-- dir_560b7ae84a3a01e110c91b67ccde88b6 -->
<g id="node5" class="node">
<title>dir_560b7ae84a3a01e110c91b67ccde88b6</title>
<g id="a_node5"><a xlink:href="dir_560b7ae84a3a01e110c91b67ccde88b6.html" target="_top" xlink:title="nr">
<polygon fill="#ffffff" stroke="#000000" points="70,-52 16,-52 16,-16 70,-16 70,-52"/>
<text text-anchor="middle" x="43" y="-31.5" font-family="Helvetica,sans-Serif" font-size="10.00" fill="#000000">nr</text>
</a>
</g>
</g>
<!-- dir_288be6a3cd564beb7d9d01541561f027&#45;&gt;dir_560b7ae84a3a01e110c91b67ccde88b6 -->
<g id="edge4" class="edge">
<title>dir_288be6a3cd564beb7d9d01541561f027&#45;&gt;dir_560b7ae84a3a01e110c91b67ccde88b6</title>
<path fill="none" stroke="#000000" d="M43,-87.8314C43,-80.131 43,-70.9743 43,-62.4166"/>
<polygon fill="#000000" stroke="#000000" points="46.5001,-62.4132 43,-52.4133 39.5001,-62.4133 46.5001,-62.4132"/>
<g id="a_edge4&#45;headlabel"><a xlink:href="dir_000002_000004.html" target="_top" xlink:title="1">
<text text-anchor="middle" x="49.3393" y="-63.5079" font-family="Helvetica,sans-Serif" font-size="10.00" fill="#000000">1</text>
</a>
</g>
</g>
<!-- dir_dddf611886e2a55cb28821cfec7569d7 -->
<g id="node3" class="node">
<title>dir_dddf611886e2a55cb28821cfec7569d7</title>
<g id="a_node3"><a xlink:href="dir_dddf611886e2a55cb28821cfec7569d7.html" target="_top" xlink:title="enum&#45;parallel">
<polygon fill="#ffffff" stroke="#000000" points="90,-196 16,-196 16,-160 90,-160 90,-196"/>
<text text-anchor="middle" x="53" y="-175.5" font-family="Helvetica,sans-Serif" font-size="10.00" fill="#000000">enum&#45;parallel</text>
</a>
</g>
</g>
<!-- dir_dddf611886e2a55cb28821cfec7569d7&#45;&gt;dir_288be6a3cd564beb7d9d01541561f027 -->
<g id="edge3" class="edge">
<title>dir_dddf611886e2a55cb28821cfec7569d7&#45;&gt;dir_288be6a3cd564beb7d9d01541561f027</title>
<path fill="none" stroke="#000000" d="M50.4766,-159.8314C49.4071,-152.131 48.1353,-142.9743 46.9468,-134.4166"/>
<polygon fill="#000000" stroke="#000000" points="50.3999,-133.8367 45.5574,-124.4133 43.4664,-134.7997 50.3999,-133.8367"/>
<g id="a_edge3&#45;headlabel"><a xlink:href="dir_000001_000002.html" target="_top" xlink:title="2">
<text text-anchor="middle" x="53.7066" y="-134.5065" font-family="Helvetica,sans-Serif" font-size="10.00" fill="#000000">2</text>
</a>
</g>
</g>
</g>
</svg>
