<?xml version="1.0" encoding="UTF-8" standalone="no"?>
<!DOCTYPE svg PUBLIC "-//W3C//DTD SVG 1.1//EN"
 "http://www.w3.org/Graphics/SVG/1.1/DTD/svg11.dtd">
<!-- Generated by graphviz version 2.38.0 (20140413.2041)
 -->
<!-- Title: fplll Pages: 1 -->
<svg width="166pt" height="220pt"
 viewBox="0.00 0.00 166.00 220.00" xmlns="http://www.w3.org/2000/svg" xmlns:xlink="http://www.w3.org/1999/xlink">
<g id="graph0" class="graph" transform="scale(1 1) rotate(0) translate(4 216)">
<title>fplll</title>
<polygon fill="white" stroke="none" points="-4,4 -4,-216 162,-216 162,4 -4,4"/>
<g id="clust1" class="cluster"><title>clusterdir_648eb9a0262415100be037a83da51ec4</title>
<g id="a_clust1"><a xlink:href="dir_648eb9a0262415100be037a83da51ec4.html" target="_top">
<polygon fill="#eeeeff" stroke="black" points="8,-8 8,-204 150,-204 150,-8 8,-8"/>
</a>
</g>
</g>
<!-- dir_648eb9a0262415100be037a83da51ec4 -->
<g id="node1" class="node"><title>dir_648eb9a0262415100be037a83da51ec4</title>
<text text-anchor="middle" x="115" y="-175.5" font-family="Helvetica,sans-Serif" font-size="10.00">fplll</text>
</g>
<!-- dir_288be6a3cd564beb7d9d01541561f027 -->
<g id="node2" class="node"><title>dir_288be6a3cd564beb7d9d01541561f027</title>
<g id="a_node2"><a xlink:href="dir_288be6a3cd564beb7d9d01541561f027.html" target="_top" xlink:title="enum">
<polygon fill="white" stroke="black" points="142,-124 88,-124 88,-88 142,-88 142,-124"/>
<text text-anchor="middle" x="115" y="-103.5" font-family="Helvetica,sans-Serif" font-size="10.00">enum</text>
</a>
</g>
</g>
<!-- dir_648eb9a0262415100be037a83da51ec4&#45;&gt;dir_288be6a3cd564beb7d9d01541561f027 -->
<g id="edge1" class="edge"><title>dir_648eb9a0262415100be037a83da51ec4&#45;&gt;dir_288be6a3cd564beb7d9d01541561f027</title>
<path fill="none" stroke="black" d="M115,-159.697C115,-151.983 115,-142.712 115,-134.112"/>
<polygon fill="black" stroke="black" points="118.5,-134.104 115,-124.104 111.5,-134.104 118.5,-134.104"/>
<g id="a_edge1&#45;headlabel"><a xlink:href="dir_000000_000001.html" target="_top" xlink:title="5">
<text text-anchor="middle" x="121.339" y="-135.199" font-family="Helvetica,sans-Serif" font-size="10.00">5</text>
</a>
</g>
</g>
<!-- dir_560b7ae84a3a01e110c91b67ccde88b6 -->
<g id="node3" class="node"><title>dir_560b7ae84a3a01e110c91b67ccde88b6</title>
<g id="a_node3"><a xlink:href="dir_560b7ae84a3a01e110c91b67ccde88b6.html" target="_top" xlink:title="nr">
<polygon fill="white" stroke="black" points="142,-52 88,-52 88,-16 142,-16 142,-52"/>
<text text-anchor="middle" x="115" y="-31.5" font-family="Helvetica,sans-Serif" font-size="10.00">nr</text>
</a>
</g>
</g>
<!-- dir_288be6a3cd564beb7d9d01541561f027&#45;&gt;dir_560b7ae84a3a01e110c91b67ccde88b6 -->
<g id="edge2" class="edge"><title>dir_288be6a3cd564beb7d9d01541561f027&#45;&gt;dir_560b7ae84a3a01e110c91b67ccde88b6</title>
<path fill="none" stroke="black" d="M115,-87.6966C115,-79.9827 115,-70.7125 115,-62.1124"/>
<polygon fill="black" stroke="black" points="118.5,-62.1043 115,-52.1043 111.5,-62.1044 118.5,-62.1043"/>
<g id="a_edge2&#45;headlabel"><a xlink:href="dir_000001_000002.html" target="_top" xlink:title="1">
<text text-anchor="middle" x="121.339" y="-63.199" font-family="Helvetica,sans-Serif" font-size="10.00">1</text>
</a>
</g>
</g>
<!-- dir_da61816240a5349a2deea220755ce64b -->
<g id="node4" class="node"><title>dir_da61816240a5349a2deea220755ce64b</title>
<g id="a_node4"><a xlink:href="dir_da61816240a5349a2deea220755ce64b.html" target="_top" xlink:title="sieve">
<polygon fill="white" stroke="black" points="70,-196 16,-196 16,-160 70,-160 70,-196"/>
<text text-anchor="middle" x="43" y="-175.5" font-family="Helvetica,sans-Serif" font-size="10.00">sieve</text>
</a>
</g>
</g>
</g>
</svg>
