<?xml version="1.0" encoding="UTF-8" standalone="no"?>
<!DOCTYPE svg PUBLIC "-//W3C//DTD SVG 1.1//EN"
 "http://www.w3.org/Graphics/SVG/1.1/DTD/svg11.dtd">
<!-- Generated by graphviz version 2.40.1 (20161225.0304)
 -->
<!-- Title: fplll/enum&#45;parallel Pages: 1 -->
<svg width="114pt" height="151pt"
 viewBox="0.00 0.00 114.00 151.00" xmlns="http://www.w3.org/2000/svg" xmlns:xlink="http://www.w3.org/1999/xlink">
<g id="graph0" class="graph" transform="scale(1 1) rotate(0) translate(4 147)">
<title>fplll/enum&#45;parallel</title>
<polygon fill="#ffffff" stroke="transparent" points="-4,4 -4,-147 110,-147 110,4 -4,4"/>
<g id="clust1" class="cluster">
<title>clusterdir_648eb9a0262415100be037a83da51ec4</title>
<g id="a_clust1"><a xlink:href="dir_648eb9a0262415100be037a83da51ec4.html" target="_top" xlink:title="fplll">
<polygon fill="#ddddee" stroke="#000000" points="8,-64 8,-135 98,-135 98,-64 8,-64"/>
<text text-anchor="middle" x="53" y="-123" font-family="Helvetica,sans-Serif" font-size="10.00" fill="#000000">fplll</text>
</a>
</g>
</g>
<!-- dir_dddf611886e2a55cb28821cfec7569d7 -->
<g id="node1" class="node">
<title>dir_dddf611886e2a55cb28821cfec7569d7</title>
<g id="a_node1"><a xlink:href="dir_dddf611886e2a55cb28821cfec7569d7.html" target="_top" xlink:title="enum&#45;parallel">
<polygon fill="#eeeeff" stroke="#000000" points="90,-108 16,-108 16,-72 90,-72 90,-108"/>
<text text-anchor="middle" x="53" y="-87.5" font-family="Helvetica,sans-Serif" font-size="10.00" fill="#000000">enum&#45;parallel</text>
</a>
</g>
</g>
<!-- dir_288be6a3cd564beb7d9d01541561f027 -->
<g id="node2" class="node">
<title>dir_288be6a3cd564beb7d9d01541561f027</title>
<g id="a_node2"><a xlink:href="dir_288be6a3cd564beb7d9d01541561f027.html" target="_top" xlink:title="enum">
<polygon fill="none" stroke="#000000" points="80,-36 26,-36 26,0 80,0 80,-36"/>
<text text-anchor="middle" x="53" y="-15.5" font-family="Helvetica,sans-Serif" font-size="10.00" fill="#000000">enum</text>
</a>
</g>
</g>
<!-- dir_dddf611886e2a55cb28821cfec7569d7&#45;&gt;dir_288be6a3cd564beb7d9d01541561f027 -->
<g id="edge1" class="edge">
<title>dir_dddf611886e2a55cb28821cfec7569d7&#45;&gt;dir_288be6a3cd564beb7d9d01541561f027</title>
<path fill="none" stroke="#000000" d="M53,-71.8314C53,-64.131 53,-54.9743 53,-46.4166"/>
<polygon fill="#000000" stroke="#000000" points="56.5001,-46.4132 53,-36.4133 49.5001,-46.4133 56.5001,-46.4132"/>
<g id="a_edge1&#45;headlabel"><a xlink:href="dir_000001_000002.html" target="_top" xlink:title="1">
<text text-anchor="middle" x="59.3393" y="-47.5079" font-family="Helvetica,sans-Serif" font-size="10.00" fill="#000000">1</text>
</a>
</g>
</g>
</g>
</svg>
