<?xml version="1.0" encoding="UTF-8" standalone="no"?>
<!DOCTYPE svg PUBLIC "-//W3C//DTD SVG 1.1//EN"
 "http://www.w3.org/Graphics/SVG/1.1/DTD/svg11.dtd">
<!-- Generated by graphviz version 2.43.0 (0)
 -->
<!-- Title: fplll Pages: 1 -->
<svg width="258pt" height="220pt"
 viewBox="0.00 0.00 258.00 220.00" xmlns="http://www.w3.org/2000/svg" xmlns:xlink="http://www.w3.org/1999/xlink">
<g id="graph0" class="graph" transform="scale(1 1) rotate(0) translate(4 216)">
<title>fplll</title>
<polygon fill="white" stroke="transparent" points="-4,4 -4,-216 254,-216 254,4 -4,4"/>
<g id="clust1" class="cluster">
<title>clusterdir_648eb9a0262415100be037a83da51ec4</title>
<g id="a_clust1"><a xlink:href="dir_648eb9a0262415100be037a83da51ec4.html" target="_top">
<polygon fill="#edf0f7" stroke="#404040" stroke-width="2" points="8,-8 8,-204 242,-204 242,-8 8,-8"/>
</a>
</g>
</g>
<!-- dir_648eb9a0262415100be037a83da51ec4 -->
<g id="node1" class="node">
<title>dir_648eb9a0262415100be037a83da51ec4</title>
<text text-anchor="middle" x="148" y="-175.5" font-family="Helvetica,sans-Serif" font-size="10.00">fplll</text>
</g>
<!-- dir_288be6a3cd564beb7d9d01541561f027 -->
<g id="node2" class="node">
<title>dir_288be6a3cd564beb7d9d01541561f027</title>
<g id="a_node2"><a xlink:href="dir_288be6a3cd564beb7d9d01541561f027.html" target="_top" xlink:title="enum">
<polygon fill="#a2b4d6" stroke="#404040" points="70,-124 16,-124 16,-88 70,-88 70,-124"/>
<text text-anchor="middle" x="43" y="-103.5" font-family="Helvetica,sans-Serif" font-size="10.00">enum</text>
</a>
</g>
</g>
<!-- dir_648eb9a0262415100be037a83da51ec4&#45;&gt;dir_288be6a3cd564beb7d9d01541561f027 -->
<g id="edge3" class="edge">
<title>dir_648eb9a0262415100be037a83da51ec4&#45;&gt;dir_288be6a3cd564beb7d9d01541561f027</title>
<path fill="none" stroke="black" d="M122.31,-159.88C108.71,-150.81 91.83,-139.55 77.14,-129.76"/>
<polygon fill="black" stroke="black" points="79.05,-126.82 68.78,-124.19 75.16,-132.65 79.05,-126.82"/>
<g id="a_edge3&#45;headlabel"><a xlink:href="dir_000002_000000.html" target="_top" xlink:title="7">
<text text-anchor="middle" x="83.61" y="-123.96" font-family="Helvetica,sans-Serif" font-size="10.00">7</text>
</a>
</g>
</g>
<!-- dir_1c35c54164086f71f6863a0c02e27e78 -->
<g id="node4" class="node">
<title>dir_1c35c54164086f71f6863a0c02e27e78</title>
<g id="a_node4"><a xlink:href="dir_1c35c54164086f71f6863a0c02e27e78.html" target="_top" xlink:title="io">
<polygon fill="#a2b4d6" stroke="#404040" points="142,-124 88,-124 88,-88 142,-88 142,-124"/>
<text text-anchor="middle" x="115" y="-103.5" font-family="Helvetica,sans-Serif" font-size="10.00">io</text>
</a>
</g>
</g>
<!-- dir_648eb9a0262415100be037a83da51ec4&#45;&gt;dir_1c35c54164086f71f6863a0c02e27e78 -->
<g id="edge2" class="edge">
<title>dir_648eb9a0262415100be037a83da51ec4&#45;&gt;dir_1c35c54164086f71f6863a0c02e27e78</title>
<path fill="none" stroke="black" d="M139.84,-159.7C136.09,-151.73 131.55,-142.1 127.38,-133.26"/>
<polygon fill="black" stroke="black" points="130.49,-131.66 123.06,-124.1 124.16,-134.64 130.49,-131.66"/>
<g id="a_edge2&#45;headlabel"><a xlink:href="dir_000002_000003.html" target="_top" xlink:title="1">
<text text-anchor="middle" x="134.59" y="-131.2" font-family="Helvetica,sans-Serif" font-size="10.00">1</text>
</a>
</g>
</g>
<!-- dir_560b7ae84a3a01e110c91b67ccde88b6 -->
<g id="node5" class="node">
<title>dir_560b7ae84a3a01e110c91b67ccde88b6</title>
<g id="a_node5"><a xlink:href="dir_560b7ae84a3a01e110c91b67ccde88b6.html" target="_top" xlink:title="nr">
<polygon fill="#a2b4d6" stroke="#404040" points="129,-52 75,-52 75,-16 129,-16 129,-52"/>
<text text-anchor="middle" x="102" y="-31.5" font-family="Helvetica,sans-Serif" font-size="10.00">nr</text>
</a>
</g>
</g>
<!-- dir_648eb9a0262415100be037a83da51ec4&#45;&gt;dir_560b7ae84a3a01e110c91b67ccde88b6 -->
<g id="edge4" class="edge">
<title>dir_648eb9a0262415100be037a83da51ec4&#45;&gt;dir_560b7ae84a3a01e110c91b67ccde88b6</title>
<path fill="none" stroke="black" d="M152.46,-159.93C156.41,-141.5 160.24,-111.61 151,-88 146.8,-77.28 139.31,-67.43 131.42,-59.2"/>
<polygon fill="black" stroke="black" points="133.76,-56.59 124.15,-52.13 128.88,-61.61 133.76,-56.59"/>
<g id="a_edge4&#45;headlabel"><a xlink:href="dir_000002_000004.html" target="_top" xlink:title="8">
<text text-anchor="middle" x="138.32" y="-54.57" font-family="Helvetica,sans-Serif" font-size="10.00">8</text>
</a>
</g>
</g>
<!-- dir_1657fdbdc6c293b0dd4b082f5e4c2d1d -->
<g id="node6" class="node">
<title>dir_1657fdbdc6c293b0dd4b082f5e4c2d1d</title>
<g id="a_node6"><a xlink:href="dir_1657fdbdc6c293b0dd4b082f5e4c2d1d.html" target="_top" xlink:title="pruner">
<polygon fill="#a2b4d6" stroke="#404040" points="234,-124 180,-124 180,-88 234,-88 234,-124"/>
<text text-anchor="middle" x="207" y="-103.5" font-family="Helvetica,sans-Serif" font-size="10.00">pruner</text>
</a>
</g>
</g>
<!-- dir_648eb9a0262415100be037a83da51ec4&#45;&gt;dir_1657fdbdc6c293b0dd4b082f5e4c2d1d -->
<g id="edge1" class="edge">
<title>dir_648eb9a0262415100be037a83da51ec4&#45;&gt;dir_1657fdbdc6c293b0dd4b082f5e4c2d1d</title>
<path fill="none" stroke="black" d="M162.58,-159.7C169.66,-151.3 178.28,-141.07 186.05,-131.86"/>
<polygon fill="black" stroke="black" points="188.81,-134.01 192.58,-124.1 183.46,-129.49 188.81,-134.01"/>
<g id="a_edge1&#45;headlabel"><a xlink:href="dir_000002_000005.html" target="_top" xlink:title="2">
<text text-anchor="middle" x="188.67" y="-136.08" font-family="Helvetica,sans-Serif" font-size="10.00">2</text>
</a>
</g>
</g>
<!-- dir_288be6a3cd564beb7d9d01541561f027&#45;&gt;dir_560b7ae84a3a01e110c91b67ccde88b6 -->
<g id="edge5" class="edge">
<title>dir_288be6a3cd564beb7d9d01541561f027&#45;&gt;dir_560b7ae84a3a01e110c91b67ccde88b6</title>
<path fill="none" stroke="black" d="M57.58,-87.7C64.66,-79.3 73.28,-69.07 81.05,-59.86"/>
<polygon fill="black" stroke="black" points="83.81,-62.01 87.58,-52.1 78.46,-57.49 83.81,-62.01"/>
<g id="a_edge5&#45;headlabel"><a xlink:href="dir_000000_000004.html" target="_top" xlink:title="1">
<text text-anchor="middle" x="83.67" y="-64.08" font-family="Helvetica,sans-Serif" font-size="10.00">1</text>
</a>
</g>
</g>
<!-- dir_dddf611886e2a55cb28821cfec7569d7 -->
<g id="node3" class="node">
<title>dir_dddf611886e2a55cb28821cfec7569d7</title>
<g id="a_node3"><a xlink:href="dir_dddf611886e2a55cb28821cfec7569d7.html" target="_top" xlink:title="enum&#45;parallel">
<polygon fill="#a2b4d6" stroke="#404040" points="90,-196 16,-196 16,-160 90,-160 90,-196"/>
<text text-anchor="middle" x="53" y="-175.5" font-family="Helvetica,sans-Serif" font-size="10.00">enum&#45;parallel</text>
</a>
</g>
</g>
<!-- dir_dddf611886e2a55cb28821cfec7569d7&#45;&gt;dir_288be6a3cd564beb7d9d01541561f027 -->
<g id="edge6" class="edge">
<title>dir_dddf611886e2a55cb28821cfec7569d7&#45;&gt;dir_288be6a3cd564beb7d9d01541561f027</title>
<path fill="none" stroke="black" d="M50.53,-159.7C49.43,-151.98 48.1,-142.71 46.87,-134.11"/>
<polygon fill="black" stroke="black" points="50.32,-133.51 45.44,-124.1 43.39,-134.5 50.32,-133.51"/>
<g id="a_edge6&#45;headlabel"><a xlink:href="dir_000001_000000.html" target="_top" xlink:title="2">
<text text-anchor="middle" x="53.64" y="-134.17" font-family="Helvetica,sans-Serif" font-size="10.00">2</text>
</a>
</g>
</g>
</g>
</svg>
