<?xml version="1.0" encoding="UTF-8" standalone="no"?>
<!DOCTYPE svg PUBLIC "-//W3C//DTD SVG 1.1//EN"
 "http://www.w3.org/Graphics/SVG/1.1/DTD/svg11.dtd">
<!-- Generated by graphviz version 2.40.1 (20161225.0304)
 -->
<!-- Title: fplll Pages: 1 -->
<svg width="310pt" height="220pt"
 viewBox="0.00 0.00 310.00 220.00" xmlns="http://www.w3.org/2000/svg" xmlns:xlink="http://www.w3.org/1999/xlink">
<g id="graph0" class="graph" transform="scale(1 1) rotate(0) translate(4 216)">
<title>fplll</title>
<polygon fill="#ffffff" stroke="transparent" points="-4,4 -4,-216 306,-216 306,4 -4,4"/>
<g id="clust1" class="cluster">
<title>clusterdir_648eb9a0262415100be037a83da51ec4</title>
<g id="a_clust1"><a xlink:href="dir_648eb9a0262415100be037a83da51ec4.html" target="_top">
<polygon fill="#eeeeff" stroke="#000000" points="8,-8 8,-204 294,-204 294,-8 8,-8"/>
</a>
</g>
</g>
<!-- dir_648eb9a0262415100be037a83da51ec4 -->
<g id="node1" class="node">
<title>dir_648eb9a0262415100be037a83da51ec4</title>
<text text-anchor="middle" x="228" y="-175.5" font-family="Helvetica,sans-Serif" font-size="10.00" fill="#000000">fplll</text>
</g>
<!-- dir_1c35c54164086f71f6863a0c02e27e78 -->
<g id="node4" class="node">
<title>dir_1c35c54164086f71f6863a0c02e27e78</title>
<g id="a_node4"><a xlink:href="dir_1c35c54164086f71f6863a0c02e27e78.html" target="_top" xlink:title="io">
<polygon fill="#ffffff" stroke="#000000" points="214,-124 160,-124 160,-88 214,-88 214,-124"/>
<text text-anchor="middle" x="187" y="-103.5" font-family="Helvetica,sans-Serif" font-size="10.00" fill="#000000">io</text>
</a>
</g>
</g>
<!-- dir_648eb9a0262415100be037a83da51ec4&#45;&gt;dir_1c35c54164086f71f6863a0c02e27e78 -->
<g id="edge3" class="edge">
<title>dir_648eb9a0262415100be037a83da51ec4&#45;&gt;dir_1c35c54164086f71f6863a0c02e27e78</title>
<path fill="none" stroke="#000000" d="M217.654,-159.8314C213.0763,-151.7925 207.5948,-142.1666 202.5412,-133.2918"/>
<polygon fill="#000000" stroke="#000000" points="205.4752,-131.3712 197.4853,-124.4133 199.3923,-134.8351 205.4752,-131.3712"/>
<g id="a_edge3&#45;headlabel"><a xlink:href="dir_000000_000003.html" target="_top" xlink:title="1">
<text text-anchor="middle" x="209.7212" y="-130.5899" font-family="Helvetica,sans-Serif" font-size="10.00" fill="#000000">1</text>
</a>
</g>
</g>
<!-- dir_1657fdbdc6c293b0dd4b082f5e4c2d1d -->
<g id="node6" class="node">
<title>dir_1657fdbdc6c293b0dd4b082f5e4c2d1d</title>
<g id="a_node6"><a xlink:href="dir_1657fdbdc6c293b0dd4b082f5e4c2d1d.html" target="_top" xlink:title="pruner">
<polygon fill="#ffffff" stroke="#000000" points="286,-124 232,-124 232,-88 286,-88 286,-124"/>
<text text-anchor="middle" x="259" y="-103.5" font-family="Helvetica,sans-Serif" font-size="10.00" fill="#000000">pruner</text>
</a>
</g>
</g>
<!-- dir_648eb9a0262415100be037a83da51ec4&#45;&gt;dir_1657fdbdc6c293b0dd4b082f5e4c2d1d -->
<g id="edge2" class="edge">
<title>dir_648eb9a0262415100be037a83da51ec4&#45;&gt;dir_1657fdbdc6c293b0dd4b082f5e4c2d1d</title>
<path fill="none" stroke="#000000" d="M235.8226,-159.8314C239.2109,-151.9617 243.2541,-142.5712 247.0076,-133.8533"/>
<polygon fill="#000000" stroke="#000000" points="250.3321,-134.9822 251.0721,-124.4133 243.9027,-132.214 250.3321,-134.9822"/>
<g id="a_edge2&#45;headlabel"><a xlink:href="dir_000000_000005.html" target="_top" xlink:title="2">
<text text-anchor="middle" x="251.5185" y="-136.9066" font-family="Helvetica,sans-Serif" font-size="10.00" fill="#000000">2</text>
</a>
</g>
</g>
<!-- dir_288be6a3cd564beb7d9d01541561f027 -->
<g id="node2" class="node">
<title>dir_288be6a3cd564beb7d9d01541561f027</title>
<g id="a_node2"><a xlink:href="dir_288be6a3cd564beb7d9d01541561f027.html" target="_top" xlink:title="enum">
<polygon fill="#ffffff" stroke="#000000" points="142,-124 88,-124 88,-88 142,-88 142,-124"/>
<text text-anchor="middle" x="115" y="-103.5" font-family="Helvetica,sans-Serif" font-size="10.00" fill="#000000">enum</text>
</a>
</g>
</g>
<!-- dir_560b7ae84a3a01e110c91b67ccde88b6 -->
<g id="node5" class="node">
<title>dir_560b7ae84a3a01e110c91b67ccde88b6</title>
<g id="a_node5"><a xlink:href="dir_560b7ae84a3a01e110c91b67ccde88b6.html" target="_top" xlink:title="nr">
<polygon fill="#ffffff" stroke="#000000" points="106,-52 52,-52 52,-16 106,-16 106,-52"/>
<text text-anchor="middle" x="79" y="-31.5" font-family="Helvetica,sans-Serif" font-size="10.00" fill="#000000">nr</text>
</a>
</g>
</g>
<!-- dir_288be6a3cd564beb7d9d01541561f027&#45;&gt;dir_560b7ae84a3a01e110c91b67ccde88b6 -->
<g id="edge5" class="edge">
<title>dir_288be6a3cd564beb7d9d01541561f027&#45;&gt;dir_560b7ae84a3a01e110c91b67ccde88b6</title>
<path fill="none" stroke="#000000" d="M105.9157,-87.8314C101.9385,-79.8771 97.1845,-70.369 92.7861,-61.5723"/>
<polygon fill="#000000" stroke="#000000" points="95.8093,-59.7923 88.2066,-52.4133 89.5483,-62.9228 95.8093,-59.7923"/>
<g id="a_edge5&#45;headlabel"><a xlink:href="dir_000002_000004.html" target="_top" xlink:title="1">
<text text-anchor="middle" x="99.9563" y="-59.2377" font-family="Helvetica,sans-Serif" font-size="10.00" fill="#000000">1</text>
</a>
</g>
</g>
<!-- dir_dddf611886e2a55cb28821cfec7569d7 -->
<g id="node3" class="node">
<title>dir_dddf611886e2a55cb28821cfec7569d7</title>
<g id="a_node3"><a xlink:href="dir_dddf611886e2a55cb28821cfec7569d7.html" target="_top" xlink:title="enum&#45;parallel">
<polygon fill="#ffffff" stroke="#000000" points="152,-196 78,-196 78,-160 152,-160 152,-196"/>
<text text-anchor="middle" x="115" y="-175.5" font-family="Helvetica,sans-Serif" font-size="10.00" fill="#000000">enum&#45;parallel</text>
</a>
</g>
</g>
<!-- dir_dddf611886e2a55cb28821cfec7569d7&#45;&gt;dir_288be6a3cd564beb7d9d01541561f027 -->
<g id="edge4" class="edge">
<title>dir_dddf611886e2a55cb28821cfec7569d7&#45;&gt;dir_288be6a3cd564beb7d9d01541561f027</title>
<path fill="none" stroke="#000000" d="M115,-159.8314C115,-152.131 115,-142.9743 115,-134.4166"/>
<polygon fill="#000000" stroke="#000000" points="118.5001,-134.4132 115,-124.4133 111.5001,-134.4133 118.5001,-134.4132"/>
<g id="a_edge4&#45;headlabel"><a xlink:href="dir_000001_000002.html" target="_top" xlink:title="1">
<text text-anchor="middle" x="121.3393" y="-135.5079" font-family="Helvetica,sans-Serif" font-size="10.00" fill="#000000">1</text>
</a>
</g>
</g>
<!-- dir_da61816240a5349a2deea220755ce64b -->
<g id="node7" class="node">
<title>dir_da61816240a5349a2deea220755ce64b</title>
<g id="a_node7"><a xlink:href="dir_da61816240a5349a2deea220755ce64b.html" target="_top" xlink:title="sieve">
<polygon fill="#ffffff" stroke="#000000" points="70,-124 16,-124 16,-88 70,-88 70,-124"/>
<text text-anchor="middle" x="43" y="-103.5" font-family="Helvetica,sans-Serif" font-size="10.00" fill="#000000">sieve</text>
</a>
</g>
</g>
<!-- dir_da61816240a5349a2deea220755ce64b&#45;&gt;dir_560b7ae84a3a01e110c91b67ccde88b6 -->
<g id="edge1" class="edge">
<title>dir_da61816240a5349a2deea220755ce64b&#45;&gt;dir_560b7ae84a3a01e110c91b67ccde88b6</title>
<path fill="none" stroke="#000000" d="M52.0843,-87.8314C56.0615,-79.8771 60.8155,-70.369 65.2139,-61.5723"/>
<polygon fill="#000000" stroke="#000000" points="68.4517,-62.9228 69.7934,-52.4133 62.1907,-59.7923 68.4517,-62.9228"/>
<g id="a_edge1&#45;headlabel"><a xlink:href="dir_000006_000004.html" target="_top" xlink:title="2">
<text text-anchor="middle" x="69.3837" y="-64.9077" font-family="Helvetica,sans-Serif" font-size="10.00" fill="#000000">2</text>
</a>
</g>
</g>
</g>
</svg>
