<?xml version="1.0" encoding="UTF-8" standalone="no"?>
<!DOCTYPE svg PUBLIC "-//W3C//DTD SVG 1.1//EN"
 "http://www.w3.org/Graphics/SVG/1.1/DTD/svg11.dtd">
<!-- Generated by graphviz version 2.43.0 (0)
 -->
<!-- Title: fplll/enum&#45;parallel Pages: 1 -->
<svg width="114pt" height="167pt"
 viewBox="0.00 0.00 114.00 167.00" xmlns="http://www.w3.org/2000/svg" xmlns:xlink="http://www.w3.org/1999/xlink">
<g id="graph0" class="graph" transform="scale(1 1) rotate(0) translate(4 163)">
<title>fplll/enum&#45;parallel</title>
<polygon fill="white" stroke="transparent" points="-4,4 -4,-163 110,-163 110,4 -4,4"/>
<g id="clust1" class="cluster">
<title>clusterdir_648eb9a0262415100be037a83da51ec4</title>
<g id="a_clust1"><a xlink:href="dir_648eb9a0262415100be037a83da51ec4.html" target="_top" xlink:title="fplll">
<polygon fill="#edf0f7" stroke="#404040" stroke-dasharray="5,2" points="8,-8 8,-151 98,-151 98,-8 8,-8"/>
<text text-anchor="middle" x="53" y="-139" font-family="Helvetica,sans-Serif" font-size="10.00">fplll</text>
</a>
</g>
</g>
<!-- dir_288be6a3cd564beb7d9d01541561f027 -->
<g id="node1" class="node">
<title>dir_288be6a3cd564beb7d9d01541561f027</title>
<g id="a_node1"><a xlink:href="dir_288be6a3cd564beb7d9d01541561f027.html" target="_top" xlink:title="enum">
<polygon fill="#a2b4d6" stroke="#404040" points="80,-52 26,-52 26,-16 80,-16 80,-52"/>
<text text-anchor="middle" x="53" y="-31.5" font-family="Helvetica,sans-Serif" font-size="10.00">enum</text>
</a>
</g>
</g>
<!-- dir_dddf611886e2a55cb28821cfec7569d7 -->
<g id="node2" class="node">
<title>dir_dddf611886e2a55cb28821cfec7569d7</title>
<g id="a_node2"><a xlink:href="dir_dddf611886e2a55cb28821cfec7569d7.html" target="_top" xlink:title="enum&#45;parallel">
<polygon fill="#edf0f7" stroke="#404040" stroke-width="2" points="90,-124 16,-124 16,-88 90,-88 90,-124"/>
<text text-anchor="middle" x="53" y="-103.5" font-family="Helvetica,sans-Serif" font-size="10.00">enum&#45;parallel</text>
</a>
</g>
</g>
<!-- dir_dddf611886e2a55cb28821cfec7569d7&#45;&gt;dir_288be6a3cd564beb7d9d01541561f027 -->
<g id="edge1" class="edge">
<title>dir_dddf611886e2a55cb28821cfec7569d7&#45;&gt;dir_288be6a3cd564beb7d9d01541561f027</title>
<path fill="none" stroke="black" d="M53,-87.7C53,-79.98 53,-70.71 53,-62.11"/>
<polygon fill="black" stroke="black" points="56.5,-62.1 53,-52.1 49.5,-62.1 56.5,-62.1"/>
<g id="a_edge1&#45;headlabel"><a xlink:href="dir_000001_000000.html" target="_top" xlink:title="2">
<text text-anchor="middle" x="59.34" y="-63.2" font-family="Helvetica,sans-Serif" font-size="10.00">2</text>
</a>
</g>
</g>
</g>
</svg>
