<?xml version="1.0" encoding="UTF-8" standalone="no"?>
<!DOCTYPE svg PUBLIC "-//W3C//DTD SVG 1.1//EN"
 "http://www.w3.org/Graphics/SVG/1.1/DTD/svg11.dtd">
<!-- Generated by graphviz version 2.43.0 (0)
 -->
<!-- Title: fplll Pages: 1 -->
<svg width="238pt" height="220pt"
 viewBox="0.00 0.00 238.00 220.00" xmlns="http://www.w3.org/2000/svg" xmlns:xlink="http://www.w3.org/1999/xlink">
<g id="graph0" class="graph" transform="scale(1 1) rotate(0) translate(4 216)">
<title>fplll</title>
<polygon fill="white" stroke="transparent" points="-4,4 -4,-216 234,-216 234,4 -4,4"/>
<g id="clust1" class="cluster">
<title>clusterdir_648eb9a0262415100be037a83da51ec4</title>
<g id="a_clust1"><a xlink:href="dir_648eb9a0262415100be037a83da51ec4.html" target="_top">
<polygon fill="#eeeeff" stroke="black" points="8,-8 8,-204 222,-204 222,-8 8,-8"/>
</a>
</g>
</g>
<!-- dir_648eb9a0262415100be037a83da51ec4 -->
<g id="node1" class="node">
<title>dir_648eb9a0262415100be037a83da51ec4</title>
<text text-anchor="middle" x="161" y="-175.5" font-family="Helvetica,sans-Serif" font-size="10.00">fplll</text>
</g>
<!-- dir_1c35c54164086f71f6863a0c02e27e78 -->
<g id="node4" class="node">
<title>dir_1c35c54164086f71f6863a0c02e27e78</title>
<g id="a_node4"><a xlink:href="dir_1c35c54164086f71f6863a0c02e27e78.html" target="_top" xlink:title="io">
<polygon fill="white" stroke="black" points="142,-124 88,-124 88,-88 142,-88 142,-124"/>
<text text-anchor="middle" x="115" y="-103.5" font-family="Helvetica,sans-Serif" font-size="10.00">io</text>
</a>
</g>
</g>
<!-- dir_648eb9a0262415100be037a83da51ec4&#45;&gt;dir_1c35c54164086f71f6863a0c02e27e78 -->
<g id="edge2" class="edge">
<title>dir_648eb9a0262415100be037a83da51ec4&#45;&gt;dir_1c35c54164086f71f6863a0c02e27e78</title>
<path fill="none" stroke="black" d="M149.63,-159.7C144.28,-151.56 137.8,-141.69 131.89,-132.7"/>
<polygon fill="black" stroke="black" points="134.66,-130.54 126.24,-124.1 128.81,-134.38 134.66,-130.54"/>
<g id="a_edge2&#45;headlabel"><a xlink:href="dir_000000_000003.html" target="_top" xlink:title="1">
<text text-anchor="middle" x="139" y="-129.48" font-family="Helvetica,sans-Serif" font-size="10.00">1</text>
</a>
</g>
</g>
<!-- dir_1657fdbdc6c293b0dd4b082f5e4c2d1d -->
<g id="node6" class="node">
<title>dir_1657fdbdc6c293b0dd4b082f5e4c2d1d</title>
<g id="a_node6"><a xlink:href="dir_1657fdbdc6c293b0dd4b082f5e4c2d1d.html" target="_top" xlink:title="pruner">
<polygon fill="white" stroke="black" points="214,-124 160,-124 160,-88 214,-88 214,-124"/>
<text text-anchor="middle" x="187" y="-103.5" font-family="Helvetica,sans-Serif" font-size="10.00">pruner</text>
</a>
</g>
</g>
<!-- dir_648eb9a0262415100be037a83da51ec4&#45;&gt;dir_1657fdbdc6c293b0dd4b082f5e4c2d1d -->
<g id="edge1" class="edge">
<title>dir_648eb9a0262415100be037a83da51ec4&#45;&gt;dir_1657fdbdc6c293b0dd4b082f5e4c2d1d</title>
<path fill="none" stroke="black" d="M167.43,-159.7C170.36,-151.81 173.89,-142.3 177.14,-133.55"/>
<polygon fill="black" stroke="black" points="180.45,-134.7 180.65,-124.1 173.88,-132.26 180.45,-134.7"/>
<g id="a_edge1&#45;headlabel"><a xlink:href="dir_000000_000005.html" target="_top" xlink:title="2">
<text text-anchor="middle" x="181.86" y="-136.56" font-family="Helvetica,sans-Serif" font-size="10.00">2</text>
</a>
</g>
</g>
<!-- dir_288be6a3cd564beb7d9d01541561f027 -->
<g id="node2" class="node">
<title>dir_288be6a3cd564beb7d9d01541561f027</title>
<g id="a_node2"><a xlink:href="dir_288be6a3cd564beb7d9d01541561f027.html" target="_top" xlink:title="enum">
<polygon fill="white" stroke="black" points="70,-124 16,-124 16,-88 70,-88 70,-124"/>
<text text-anchor="middle" x="43" y="-103.5" font-family="Helvetica,sans-Serif" font-size="10.00">enum</text>
</a>
</g>
</g>
<!-- dir_560b7ae84a3a01e110c91b67ccde88b6 -->
<g id="node5" class="node">
<title>dir_560b7ae84a3a01e110c91b67ccde88b6</title>
<g id="a_node5"><a xlink:href="dir_560b7ae84a3a01e110c91b67ccde88b6.html" target="_top" xlink:title="nr">
<polygon fill="white" stroke="black" points="70,-52 16,-52 16,-16 70,-16 70,-52"/>
<text text-anchor="middle" x="43" y="-31.5" font-family="Helvetica,sans-Serif" font-size="10.00">nr</text>
</a>
</g>
</g>
<!-- dir_288be6a3cd564beb7d9d01541561f027&#45;&gt;dir_560b7ae84a3a01e110c91b67ccde88b6 -->
<g id="edge4" class="edge">
<title>dir_288be6a3cd564beb7d9d01541561f027&#45;&gt;dir_560b7ae84a3a01e110c91b67ccde88b6</title>
<path fill="none" stroke="black" d="M43,-87.7C43,-79.98 43,-70.71 43,-62.11"/>
<polygon fill="black" stroke="black" points="46.5,-62.1 43,-52.1 39.5,-62.1 46.5,-62.1"/>
<g id="a_edge4&#45;headlabel"><a xlink:href="dir_000002_000004.html" target="_top" xlink:title="1">
<text text-anchor="middle" x="49.34" y="-63.2" font-family="Helvetica,sans-Serif" font-size="10.00">1</text>
</a>
</g>
</g>
<!-- dir_dddf611886e2a55cb28821cfec7569d7 -->
<g id="node3" class="node">
<title>dir_dddf611886e2a55cb28821cfec7569d7</title>
<g id="a_node3"><a xlink:href="dir_dddf611886e2a55cb28821cfec7569d7.html" target="_top" xlink:title="enum&#45;parallel">
<polygon fill="white" stroke="black" points="90,-196 16,-196 16,-160 90,-160 90,-196"/>
<text text-anchor="middle" x="53" y="-175.5" font-family="Helvetica,sans-Serif" font-size="10.00">enum&#45;parallel</text>
</a>
</g>
</g>
<!-- dir_dddf611886e2a55cb28821cfec7569d7&#45;&gt;dir_288be6a3cd564beb7d9d01541561f027 -->
<g id="edge3" class="edge">
<title>dir_dddf611886e2a55cb28821cfec7569d7&#45;&gt;dir_288be6a3cd564beb7d9d01541561f027</title>
<path fill="none" stroke="black" d="M50.53,-159.7C49.43,-151.98 48.1,-142.71 46.87,-134.11"/>
<polygon fill="black" stroke="black" points="50.32,-133.51 45.44,-124.1 43.39,-134.5 50.32,-133.51"/>
<g id="a_edge3&#45;headlabel"><a xlink:href="dir_000001_000002.html" target="_top" xlink:title="2">
<text text-anchor="middle" x="53.64" y="-134.17" font-family="Helvetica,sans-Serif" font-size="10.00">2</text>
</a>
</g>
</g>
</g>
</svg>
