<?xml version="1.0" encoding="UTF-8" standalone="no"?>
<!DOCTYPE svg PUBLIC "-//W3C//DTD SVG 1.1//EN"
 "http://www.w3.org/Graphics/SVG/1.1/DTD/svg11.dtd">
<!-- Generated by graphviz version 2.43.0 (0)
 -->
<!-- Title: fplll/enum/enumerate_ext_api.h Pages: 1 -->
<svg width="1736pt" height="497pt"
 viewBox="0.00 0.00 1736.00 497.00" xmlns="http://www.w3.org/2000/svg" xmlns:xlink="http://www.w3.org/1999/xlink">
<g id="graph0" class="graph" transform="scale(1 1) rotate(0) translate(4 493)">
<title>fplll/enum/enumerate_ext_api.h</title>
<polygon fill="white" stroke="transparent" points="-4,4 -4,-493 1732,-493 1732,4 -4,4"/>
<!-- Node1 -->
<g id="node1" class="node">
<title>Node1</title>
<g id="a_node1"><a xlink:title=" ">
<polygon fill="#bfbfbf" stroke="black" points="1090.5,-458.5 1090.5,-488.5 1197.5,-488.5 1197.5,-458.5 1090.5,-458.5"/>
<text text-anchor="start" x="1098.5" y="-476.5" font-family="Helvetica,sans-Serif" font-size="10.00">fplll/enum/enumerate</text>
<text text-anchor="middle" x="1144" y="-465.5" font-family="Helvetica,sans-Serif" font-size="10.00">_ext_api.h</text>
</a>
</g>
</g>
<!-- Node2 -->
<g id="node2" class="node">
<title>Node2</title>
<g id="a_node2"><a xlink:href="enumerate__base_8h.html" target="_top" xlink:title=" ">
<polygon fill="white" stroke="black" points="987.5,-391.5 987.5,-421.5 1094.5,-421.5 1094.5,-391.5 987.5,-391.5"/>
<text text-anchor="start" x="995.5" y="-409.5" font-family="Helvetica,sans-Serif" font-size="10.00">fplll/enum/enumerate</text>
<text text-anchor="middle" x="1041" y="-398.5" font-family="Helvetica,sans-Serif" font-size="10.00">_base.h</text>
</a>
</g>
</g>
<!-- Node1&#45;&gt;Node2 -->
<g id="edge1" class="edge">
<title>Node1&#45;&gt;Node2</title>
<path fill="none" stroke="midnightblue" d="M1113.12,-453.02C1097.1,-442.9 1077.87,-430.77 1063.31,-421.58"/>
<polygon fill="midnightblue" stroke="midnightblue" points="1111.33,-456.02 1121.65,-458.4 1115.06,-450.1 1111.33,-456.02"/>
</g>
<!-- Node34 -->
<g id="node34" class="node">
<title>Node34</title>
<g id="a_node34"><a xlink:href="enumerate__ext_8h.html" target="_top" xlink:title=" ">
<polygon fill="white" stroke="black" points="1090.5,-324.5 1090.5,-354.5 1197.5,-354.5 1197.5,-324.5 1090.5,-324.5"/>
<text text-anchor="start" x="1098.5" y="-342.5" font-family="Helvetica,sans-Serif" font-size="10.00">fplll/enum/enumerate</text>
<text text-anchor="middle" x="1144" y="-331.5" font-family="Helvetica,sans-Serif" font-size="10.00">_ext.h</text>
</a>
</g>
</g>
<!-- Node1&#45;&gt;Node34 -->
<g id="edge59" class="edge">
<title>Node1&#45;&gt;Node34</title>
<path fill="none" stroke="midnightblue" d="M1144,-448.02C1144,-420.51 1144,-376.79 1144,-354.52"/>
<polygon fill="midnightblue" stroke="midnightblue" points="1140.5,-448.37 1144,-458.37 1147.5,-448.37 1140.5,-448.37"/>
</g>
<!-- Node39 -->
<g id="node39" class="node">
<title>Node39</title>
<g id="a_node39"><a xlink:href="enumlib_8h.html" target="_top" xlink:title=" ">
<polygon fill="white" stroke="black" points="1240,-190.5 1240,-220.5 1332,-220.5 1332,-190.5 1240,-190.5"/>
<text text-anchor="start" x="1248" y="-208.5" font-family="Helvetica,sans-Serif" font-size="10.00">fplll/enum&#45;parallel</text>
<text text-anchor="middle" x="1286" y="-197.5" font-family="Helvetica,sans-Serif" font-size="10.00">/enumlib.h</text>
</a>
</g>
</g>
<!-- Node1&#45;&gt;Node39 -->
<g id="edge60" class="edge">
<title>Node1&#45;&gt;Node39</title>
<path fill="none" stroke="midnightblue" d="M1156.5,-449.08C1185.26,-395.2 1255.42,-263.79 1278.5,-220.55"/>
<polygon fill="midnightblue" stroke="midnightblue" points="1153.26,-447.73 1151.63,-458.2 1159.43,-451.03 1153.26,-447.73"/>
</g>
<!-- Node3 -->
<g id="node3" class="node">
<title>Node3</title>
<g id="a_node3"><a xlink:href="enumerate_8h.html" target="_top" xlink:title=" ">
<polygon fill="white" stroke="black" points="879,-263 879,-282 995,-282 995,-263 879,-263"/>
<text text-anchor="middle" x="937" y="-270" font-family="Helvetica,sans-Serif" font-size="10.00">fplll/enum/enumerate.h</text>
</a>
</g>
</g>
<!-- Node2&#45;&gt;Node3 -->
<g id="edge2" class="edge">
<title>Node2&#45;&gt;Node3</title>
<path fill="none" stroke="midnightblue" d="M994.29,-386.55C980.11,-378.72 965.73,-368.29 956,-355 939.52,-332.49 937.07,-297.9 936.88,-282.01"/>
<polygon fill="midnightblue" stroke="midnightblue" points="993.04,-389.85 1003.53,-391.34 996.25,-383.63 993.04,-389.85"/>
</g>
<!-- Node33 -->
<g id="node33" class="node">
<title>Node33</title>
<g id="a_node33"><a xlink:href="enumerate__base_8cpp.html" target="_top" xlink:title=" ">
<polygon fill="white" stroke="black" points="965.5,-324.5 965.5,-354.5 1072.5,-354.5 1072.5,-324.5 965.5,-324.5"/>
<text text-anchor="start" x="973.5" y="-342.5" font-family="Helvetica,sans-Serif" font-size="10.00">fplll/enum/enumerate</text>
<text text-anchor="middle" x="1019" y="-331.5" font-family="Helvetica,sans-Serif" font-size="10.00">_base.cpp</text>
</a>
</g>
</g>
<!-- Node2&#45;&gt;Node33 -->
<g id="edge49" class="edge">
<title>Node2&#45;&gt;Node33</title>
<path fill="none" stroke="midnightblue" d="M1032.94,-381.7C1029.86,-372.59 1026.44,-362.49 1023.76,-354.58"/>
<polygon fill="midnightblue" stroke="midnightblue" points="1029.71,-383.05 1036.23,-391.4 1036.34,-380.8 1029.71,-383.05"/>
</g>
<!-- Node2&#45;&gt;Node34 -->
<g id="edge50" class="edge">
<title>Node2&#45;&gt;Node34</title>
<path fill="none" stroke="midnightblue" d="M1071.88,-386.02C1087.9,-375.9 1107.13,-363.77 1121.69,-354.58"/>
<polygon fill="midnightblue" stroke="midnightblue" points="1069.94,-383.1 1063.35,-391.4 1073.67,-389.02 1069.94,-383.1"/>
</g>
<!-- Node4 -->
<g id="node4" class="node">
<title>Node4</title>
<g id="a_node4"><a xlink:href="bkz_8cpp.html" target="_top" xlink:title=" ">
<polygon fill="white" stroke="black" points="977.5,-129 977.5,-148 1046.5,-148 1046.5,-129 977.5,-129"/>
<text text-anchor="middle" x="1012" y="-136" font-family="Helvetica,sans-Serif" font-size="10.00">fplll/bkz.cpp</text>
</a>
</g>
</g>
<!-- Node3&#45;&gt;Node4 -->
<g id="edge3" class="edge">
<title>Node3&#45;&gt;Node4</title>
<path fill="none" stroke="midnightblue" d="M975.75,-258.95C993.47,-251.04 1012.77,-238.88 1023,-221 1036.55,-197.33 1023.76,-163.61 1016.39,-148.02"/>
<polygon fill="midnightblue" stroke="midnightblue" points="974.04,-255.87 966.13,-262.91 976.71,-262.34 974.04,-255.87"/>
</g>
<!-- Node5 -->
<g id="node5" class="node">
<title>Node5</title>
<g id="a_node5"><a xlink:href="bkz_8h.html" target="_top" xlink:title=" ">
<polygon fill="white" stroke="black" points="810.5,-196 810.5,-215 869.5,-215 869.5,-196 810.5,-196"/>
<text text-anchor="middle" x="840" y="-203" font-family="Helvetica,sans-Serif" font-size="10.00">fplll/bkz.h</text>
</a>
</g>
</g>
<!-- Node3&#45;&gt;Node5 -->
<g id="edge4" class="edge">
<title>Node3&#45;&gt;Node5</title>
<path fill="none" stroke="midnightblue" d="M915.5,-257.09C896.31,-244.24 868.85,-225.83 852.87,-215.13"/>
<polygon fill="midnightblue" stroke="midnightblue" points="913.66,-260.07 923.92,-262.73 917.56,-254.26 913.66,-260.07"/>
</g>
<!-- Node31 -->
<g id="node31" class="node">
<title>Node31</title>
<g id="a_node31"><a xlink:href="enumerate_8cpp.html" target="_top" xlink:title=" ">
<polygon fill="white" stroke="black" points="888,-196 888,-215 1014,-215 1014,-196 888,-196"/>
<text text-anchor="middle" x="951" y="-203" font-family="Helvetica,sans-Serif" font-size="10.00">fplll/enum/enumerate.cpp</text>
</a>
</g>
</g>
<!-- Node3&#45;&gt;Node31 -->
<g id="edge46" class="edge">
<title>Node3&#45;&gt;Node31</title>
<path fill="none" stroke="midnightblue" d="M941,-252.91C943.68,-240.49 947.08,-224.72 949.14,-215.13"/>
<polygon fill="midnightblue" stroke="midnightblue" points="937.57,-252.22 938.89,-262.73 944.42,-253.69 937.57,-252.22"/>
</g>
<!-- Node32 -->
<g id="node32" class="node">
<title>Node32</title>
<g id="a_node32"><a xlink:href="svpcvp_8cpp.html" target="_top" xlink:title=" ">
<polygon fill="white" stroke="black" points="320.5,-129 320.5,-148 405.5,-148 405.5,-129 320.5,-129"/>
<text text-anchor="middle" x="363" y="-136" font-family="Helvetica,sans-Serif" font-size="10.00">fplll/svpcvp.cpp</text>
</a>
</g>
</g>
<!-- Node3&#45;&gt;Node32 -->
<g id="edge47" class="edge">
<title>Node3&#45;&gt;Node32</title>
<path fill="none" stroke="midnightblue" d="M889.84,-260.66C778.43,-235.03 500.74,-171.17 400.14,-148.04"/>
<polygon fill="midnightblue" stroke="midnightblue" points="889.25,-264.11 899.78,-262.94 890.82,-257.29 889.25,-264.11"/>
</g>
<!-- Node5&#45;&gt;Node4 -->
<g id="edge5" class="edge">
<title>Node5&#45;&gt;Node4</title>
<path fill="none" stroke="midnightblue" d="M872.36,-192.27C906.5,-179.37 959.41,-159.38 989.34,-148.06"/>
<polygon fill="midnightblue" stroke="midnightblue" points="870.96,-189.06 862.84,-195.87 873.43,-195.61 870.96,-189.06"/>
</g>
<!-- Node6 -->
<g id="node6" class="node">
<title>Node6</title>
<g id="a_node6"><a xlink:href="fplll_8h.html" target="_top" xlink:title=" ">
<polygon fill="white" stroke="black" points="841,-129 841,-148 899,-148 899,-129 841,-129"/>
<text text-anchor="middle" x="870" y="-136" font-family="Helvetica,sans-Serif" font-size="10.00">fplll/fplll.h</text>
</a>
</g>
</g>
<!-- Node5&#45;&gt;Node6 -->
<g id="edge6" class="edge">
<title>Node5&#45;&gt;Node6</title>
<path fill="none" stroke="midnightblue" d="M848.4,-186.29C854.17,-173.81 861.55,-157.81 866.02,-148.13"/>
<polygon fill="midnightblue" stroke="midnightblue" points="845.06,-185.19 844.05,-195.73 851.41,-188.12 845.06,-185.19"/>
</g>
<!-- Node7 -->
<g id="node7" class="node">
<title>Node7</title>
<g id="a_node7"><a xlink:href="fplll_8cpp.html" target="_top" xlink:title=" ">
<polygon fill="white" stroke="black" points="0,-62 0,-81 68,-81 68,-62 0,-62"/>
<text text-anchor="middle" x="34" y="-69" font-family="Helvetica,sans-Serif" font-size="10.00">fplll/fplll.cpp</text>
</a>
</g>
</g>
<!-- Node6&#45;&gt;Node7 -->
<g id="edge7" class="edge">
<title>Node6&#45;&gt;Node7</title>
<path fill="none" stroke="midnightblue" d="M830.8,-136.36C691.94,-132.11 223.92,-115.93 77,-87 69.89,-85.6 62.33,-83.33 55.58,-81"/>
<polygon fill="midnightblue" stroke="midnightblue" points="830.87,-139.86 840.97,-136.67 831.08,-132.87 830.87,-139.86"/>
</g>
<!-- Node8 -->
<g id="node8" class="node">
<title>Node8</title>
<g id="a_node8"><a xlink:href="main_8h.html" target="_top" xlink:title=" ">
<polygon fill="white" stroke="black" points="1629,-62 1629,-81 1693,-81 1693,-62 1629,-62"/>
<text text-anchor="middle" x="1661" y="-69" font-family="Helvetica,sans-Serif" font-size="10.00">fplll/main.h</text>
</a>
</g>
</g>
<!-- Node6&#45;&gt;Node8 -->
<g id="edge8" class="edge">
<title>Node6&#45;&gt;Node8</title>
<path fill="none" stroke="midnightblue" d="M909.15,-130.89C927.05,-128.08 948.55,-125 968,-123 1243.46,-94.71 1315.42,-122.8 1590,-87 1602.72,-85.34 1616.58,-82.7 1628.65,-80.13"/>
<polygon fill="midnightblue" stroke="midnightblue" points="908.4,-127.47 899.07,-132.5 909.5,-134.38 908.4,-127.47"/>
</g>
<!-- Node10 -->
<g id="node10" class="node">
<title>Node10</title>
<g id="a_node10"><a xlink:href="pruner_8cpp.html" target="_top" xlink:title=" ">
<polygon fill="white" stroke="black" points="297,-0.5 297,-19.5 407,-19.5 407,-0.5 297,-0.5"/>
<text text-anchor="middle" x="352" y="-7.5" font-family="Helvetica,sans-Serif" font-size="10.00">fplll/pruner/pruner.cpp</text>
</a>
</g>
</g>
<!-- Node6&#45;&gt;Node10 -->
<g id="edge10" class="edge">
<title>Node6&#45;&gt;Node10</title>
<path fill="none" stroke="midnightblue" d="M830.72,-137.65C769.23,-136.5 647.68,-128.57 555,-87 535.11,-78.08 536.38,-65.97 517,-56 481.62,-37.79 438.07,-26.32 404.6,-19.51"/>
<polygon fill="midnightblue" stroke="midnightblue" points="830.73,-141.15 840.77,-137.79 830.82,-134.15 830.73,-141.15"/>
</g>
<!-- Node11 -->
<g id="node11" class="node">
<title>Node11</title>
<g id="a_node11"><a xlink:href="pruner__cost_8cpp.html" target="_top" xlink:title=" ">
<polygon fill="white" stroke="black" points="564,-56.5 564,-86.5 656,-86.5 656,-56.5 564,-56.5"/>
<text text-anchor="start" x="572" y="-74.5" font-family="Helvetica,sans-Serif" font-size="10.00">fplll/pruner/pruner</text>
<text text-anchor="middle" x="610" y="-63.5" font-family="Helvetica,sans-Serif" font-size="10.00">_cost.cpp</text>
</a>
</g>
</g>
<!-- Node6&#45;&gt;Node11 -->
<g id="edge11" class="edge">
<title>Node6&#45;&gt;Node11</title>
<path fill="none" stroke="midnightblue" d="M830.84,-128.05C789.55,-118.05 722.63,-101.69 665,-87 662.13,-86.27 659.18,-85.51 656.2,-84.74"/>
<polygon fill="midnightblue" stroke="midnightblue" points="830.22,-131.51 840.77,-130.46 831.87,-124.7 830.22,-131.51"/>
</g>
<!-- Node12 -->
<g id="node12" class="node">
<title>Node12</title>
<g id="a_node12"><a xlink:href="pruner__optimize_8cpp.html" target="_top" xlink:title=" ">
<polygon fill="white" stroke="black" points="674,-56.5 674,-86.5 766,-86.5 766,-56.5 674,-56.5"/>
<text text-anchor="start" x="682" y="-74.5" font-family="Helvetica,sans-Serif" font-size="10.00">fplll/pruner/pruner</text>
<text text-anchor="middle" x="720" y="-63.5" font-family="Helvetica,sans-Serif" font-size="10.00">_optimize.cpp</text>
</a>
</g>
</g>
<!-- Node6&#45;&gt;Node12 -->
<g id="edge13" class="edge">
<title>Node6&#45;&gt;Node12</title>
<path fill="none" stroke="midnightblue" d="M840.62,-124.77C815.23,-113.77 778.6,-97.89 752.37,-86.53"/>
<polygon fill="midnightblue" stroke="midnightblue" points="839.51,-128.1 850.08,-128.87 842.3,-121.68 839.51,-128.1"/>
</g>
<!-- Node13 -->
<g id="node13" class="node">
<title>Node13</title>
<g id="a_node13"><a xlink:href="pruner__optimize__tc_8cpp.html" target="_top" xlink:title=" ">
<polygon fill="white" stroke="black" points="86,-56.5 86,-86.5 178,-86.5 178,-56.5 86,-56.5"/>
<text text-anchor="start" x="94" y="-74.5" font-family="Helvetica,sans-Serif" font-size="10.00">fplll/pruner/pruner</text>
<text text-anchor="middle" x="132" y="-63.5" font-family="Helvetica,sans-Serif" font-size="10.00">_optimize_tc.cpp</text>
</a>
</g>
</g>
<!-- Node6&#45;&gt;Node13 -->
<g id="edge15" class="edge">
<title>Node6&#45;&gt;Node13</title>
<path fill="none" stroke="midnightblue" d="M830.66,-137.11C725.49,-135.54 429.34,-127.55 187,-87 184.08,-86.51 181.09,-85.94 178.08,-85.31"/>
<polygon fill="midnightblue" stroke="midnightblue" points="830.77,-140.62 840.81,-137.25 830.86,-133.62 830.77,-140.62"/>
</g>
<!-- Node14 -->
<g id="node14" class="node">
<title>Node14</title>
<g id="a_node14"><a xlink:href="pruner__optimize__tp_8cpp.html" target="_top" xlink:title=" ">
<polygon fill="white" stroke="black" points="196,-56.5 196,-86.5 288,-86.5 288,-56.5 196,-56.5"/>
<text text-anchor="start" x="204" y="-74.5" font-family="Helvetica,sans-Serif" font-size="10.00">fplll/pruner/pruner</text>
<text text-anchor="middle" x="242" y="-63.5" font-family="Helvetica,sans-Serif" font-size="10.00">_optimize_tp.cpp</text>
</a>
</g>
</g>
<!-- Node6&#45;&gt;Node14 -->
<g id="edge17" class="edge">
<title>Node6&#45;&gt;Node14</title>
<path fill="none" stroke="midnightblue" d="M830.75,-136.34C737.52,-133.07 495.69,-121.69 297,-87 294.08,-86.49 291.09,-85.9 288.09,-85.26"/>
<polygon fill="midnightblue" stroke="midnightblue" points="830.74,-139.84 840.86,-136.68 830.98,-132.84 830.74,-139.84"/>
</g>
<!-- Node15 -->
<g id="node15" class="node">
<title>Node15</title>
<g id="a_node15"><a xlink:href="pruner__prob_8cpp.html" target="_top" xlink:title=" ">
<polygon fill="white" stroke="black" points="306,-56.5 306,-86.5 398,-86.5 398,-56.5 306,-56.5"/>
<text text-anchor="start" x="314" y="-74.5" font-family="Helvetica,sans-Serif" font-size="10.00">fplll/pruner/pruner</text>
<text text-anchor="middle" x="352" y="-63.5" font-family="Helvetica,sans-Serif" font-size="10.00">_prob.cpp</text>
</a>
</g>
</g>
<!-- Node6&#45;&gt;Node15 -->
<g id="edge19" class="edge">
<title>Node6&#45;&gt;Node15</title>
<path fill="none" stroke="midnightblue" d="M830.66,-135.2C750.43,-130.06 562.41,-115.8 407,-87 404.09,-86.46 401.1,-85.85 398.1,-85.19"/>
<polygon fill="midnightblue" stroke="midnightblue" points="830.6,-138.7 840.8,-135.83 831.04,-131.71 830.6,-138.7"/>
</g>
<!-- Node16 -->
<g id="node16" class="node">
<title>Node16</title>
<g id="a_node16"><a xlink:href="pruner__util_8cpp.html" target="_top" xlink:title=" ">
<polygon fill="white" stroke="black" points="416,-56.5 416,-86.5 508,-86.5 508,-56.5 416,-56.5"/>
<text text-anchor="start" x="424" y="-74.5" font-family="Helvetica,sans-Serif" font-size="10.00">fplll/pruner/pruner</text>
<text text-anchor="middle" x="462" y="-63.5" font-family="Helvetica,sans-Serif" font-size="10.00">_util.cpp</text>
</a>
</g>
</g>
<!-- Node6&#45;&gt;Node16 -->
<g id="edge21" class="edge">
<title>Node6&#45;&gt;Node16</title>
<path fill="none" stroke="midnightblue" d="M830.83,-133.02C766.2,-125.36 633.29,-108.47 522,-87 517.48,-86.13 512.78,-85.14 508.09,-84.1"/>
<polygon fill="midnightblue" stroke="midnightblue" points="830.63,-136.52 840.97,-134.21 831.45,-129.57 830.63,-136.52"/>
</g>
<!-- Node17 -->
<g id="node17" class="node">
<title>Node17</title>
<g id="a_node17"><a xlink:href="test__bkz_8cpp.html" target="_top" xlink:title=" ">
<polygon fill="white" stroke="black" points="425,-0.5 425,-19.5 523,-19.5 523,-0.5 425,-0.5"/>
<text text-anchor="middle" x="474" y="-7.5" font-family="Helvetica,sans-Serif" font-size="10.00">tests/test_bkz.cpp</text>
</a>
</g>
</g>
<!-- Node6&#45;&gt;Node17 -->
<g id="edge23" class="edge">
<title>Node6&#45;&gt;Node17</title>
<path fill="none" stroke="midnightblue" d="M850.96,-122.56C838.54,-112.69 822.09,-99.33 808,-87 792.86,-73.75 793.11,-64.76 775,-56 676.72,-8.45 639.94,-36.37 532,-20 529.08,-19.56 526.07,-19.1 523.04,-18.63"/>
<polygon fill="midnightblue" stroke="midnightblue" points="848.82,-125.33 858.83,-128.79 853.16,-119.84 848.82,-125.33"/>
</g>
<!-- Node18 -->
<g id="node18" class="node">
<title>Node18</title>
<g id="a_node18"><a xlink:href="test__bkz__gram_8cpp.html" target="_top" xlink:title=" ">
<polygon fill="white" stroke="black" points="541.5,-0.5 541.5,-19.5 666.5,-19.5 666.5,-0.5 541.5,-0.5"/>
<text text-anchor="middle" x="604" y="-7.5" font-family="Helvetica,sans-Serif" font-size="10.00">tests/test_bkz_gram.cpp</text>
</a>
</g>
</g>
<!-- Node6&#45;&gt;Node18 -->
<g id="edge24" class="edge">
<title>Node6&#45;&gt;Node18</title>
<path fill="none" stroke="midnightblue" d="M861.33,-119.73C851.2,-100.89 832.63,-71.75 808,-56 784.47,-40.96 715.43,-27.73 664.14,-19.58"/>
<polygon fill="midnightblue" stroke="midnightblue" points="858.28,-121.45 865.97,-128.74 864.51,-118.25 858.28,-121.45"/>
</g>
<!-- Node19 -->
<g id="node19" class="node">
<title>Node19</title>
<g id="a_node19"><a xlink:href="test__counter_8cpp.html" target="_top" xlink:title=" ">
<polygon fill="white" stroke="black" points="1234.5,-62 1234.5,-81 1347.5,-81 1347.5,-62 1234.5,-62"/>
<text text-anchor="middle" x="1291" y="-69" font-family="Helvetica,sans-Serif" font-size="10.00">tests/test_counter.cpp</text>
</a>
</g>
</g>
<!-- Node6&#45;&gt;Node19 -->
<g id="edge25" class="edge">
<title>Node6&#45;&gt;Node19</title>
<path fill="none" stroke="midnightblue" d="M909.25,-131.65C927.16,-128.99 948.65,-125.81 968,-123 1079.96,-106.72 1108.53,-106.33 1220,-87 1230.16,-85.24 1241.1,-83.12 1251.27,-81.05"/>
<polygon fill="midnightblue" stroke="midnightblue" points="908.53,-128.22 899.15,-133.15 909.56,-135.14 908.53,-128.22"/>
</g>
<!-- Node20 -->
<g id="node20" class="node">
<title>Node20</title>
<g id="a_node20"><a xlink:href="test__cvp_8cpp.html" target="_top" xlink:title=" ">
<polygon fill="white" stroke="black" points="685,-0.5 685,-19.5 783,-19.5 783,-0.5 685,-0.5"/>
<text text-anchor="middle" x="734" y="-7.5" font-family="Helvetica,sans-Serif" font-size="10.00">tests/test_cvp.cpp</text>
</a>
</g>
</g>
<!-- Node6&#45;&gt;Node20 -->
<g id="edge26" class="edge">
<title>Node6&#45;&gt;Node20</title>
<path fill="none" stroke="midnightblue" d="M869.04,-118.48C867.16,-100.34 861.7,-73.28 846,-56 828.81,-37.08 802.57,-25.97 779.8,-19.53"/>
<polygon fill="midnightblue" stroke="midnightblue" points="865.57,-118.99 869.82,-128.7 872.55,-118.46 865.57,-118.99"/>
</g>
<!-- Node21 -->
<g id="node21" class="node">
<title>Node21</title>
<g id="a_node21"><a xlink:href="test__enum_8cpp.html" target="_top" xlink:title=" ">
<polygon fill="white" stroke="black" points="801,-0.5 801,-19.5 907,-19.5 907,-0.5 801,-0.5"/>
<text text-anchor="middle" x="854" y="-7.5" font-family="Helvetica,sans-Serif" font-size="10.00">tests/test_enum.cpp</text>
</a>
</g>
</g>
<!-- Node6&#45;&gt;Node21 -->
<g id="edge27" class="edge">
<title>Node6&#45;&gt;Node21</title>
<path fill="none" stroke="midnightblue" d="M877.92,-119.14C884.02,-102.43 890.42,-77.19 884,-56 879.76,-41.98 869.54,-28.34 862.21,-19.82"/>
<polygon fill="midnightblue" stroke="midnightblue" points="874.54,-118.19 874.09,-128.77 881.04,-120.77 874.54,-118.19"/>
</g>
<!-- Node22 -->
<g id="node22" class="node">
<title>Node22</title>
<g id="a_node22"><a xlink:href="test__hlll_8cpp.html" target="_top" xlink:title=" ">
<polygon fill="white" stroke="black" points="925,-0.5 925,-19.5 1019,-19.5 1019,-0.5 925,-0.5"/>
<text text-anchor="middle" x="972" y="-7.5" font-family="Helvetica,sans-Serif" font-size="10.00">tests/test_hlll.cpp</text>
</a>
</g>
</g>
<!-- Node6&#45;&gt;Node22 -->
<g id="edge28" class="edge">
<title>Node6&#45;&gt;Node22</title>
<path fill="none" stroke="midnightblue" d="M883.33,-120.97C905.22,-93.82 948.08,-40.67 964.94,-19.76"/>
<polygon fill="midnightblue" stroke="midnightblue" points="880.56,-118.82 877.01,-128.81 886.01,-123.22 880.56,-118.82"/>
</g>
<!-- Node23 -->
<g id="node23" class="node">
<title>Node23</title>
<g id="a_node23"><a xlink:href="test__lll_8cpp.html" target="_top" xlink:title=" ">
<polygon fill="white" stroke="black" points="1153.5,-0.5 1153.5,-19.5 1242.5,-19.5 1242.5,-0.5 1153.5,-0.5"/>
<text text-anchor="middle" x="1198" y="-7.5" font-family="Helvetica,sans-Serif" font-size="10.00">tests/test_lll.cpp</text>
</a>
</g>
</g>
<!-- Node6&#45;&gt;Node23 -->
<g id="edge29" class="edge">
<title>Node6&#45;&gt;Node23</title>
<path fill="none" stroke="midnightblue" d="M909.26,-132.08C951.04,-125.32 1018.37,-111.56 1072,-87 1093.75,-77.04 1095.7,-68.66 1116,-56 1137.91,-42.33 1164.23,-28.28 1181.04,-19.6"/>
<polygon fill="midnightblue" stroke="midnightblue" points="908.56,-128.65 899.22,-133.65 909.64,-135.57 908.56,-128.65"/>
</g>
<!-- Node24 -->
<g id="node24" class="node">
<title>Node24</title>
<g id="a_node24"><a xlink:href="test__lll__gram_8cpp.html" target="_top" xlink:title=" ">
<polygon fill="white" stroke="black" points="1260,-0.5 1260,-19.5 1376,-19.5 1376,-0.5 1260,-0.5"/>
<text text-anchor="middle" x="1318" y="-7.5" font-family="Helvetica,sans-Serif" font-size="10.00">tests/test_lll_gram.cpp</text>
</a>
</g>
</g>
<!-- Node6&#45;&gt;Node24 -->
<g id="edge30" class="edge">
<title>Node6&#45;&gt;Node24</title>
<path fill="none" stroke="midnightblue" d="M909.23,-131.05C967.17,-121.21 1072.6,-102.01 1108,-87 1130.7,-77.38 1131.59,-66.29 1154,-56 1191.83,-38.63 1237.74,-26.74 1271.35,-19.57"/>
<polygon fill="midnightblue" stroke="midnightblue" points="908.61,-127.61 899.33,-132.72 909.77,-134.51 908.61,-127.61"/>
</g>
<!-- Node25 -->
<g id="node25" class="node">
<title>Node25</title>
<g id="a_node25"><a xlink:href="test__nr_8cpp.html" target="_top" xlink:title=" ">
<polygon fill="white" stroke="black" points="1365.5,-62 1365.5,-81 1454.5,-81 1454.5,-62 1365.5,-62"/>
<text text-anchor="middle" x="1410" y="-69" font-family="Helvetica,sans-Serif" font-size="10.00">tests/test_nr.cpp</text>
</a>
</g>
</g>
<!-- Node6&#45;&gt;Node25 -->
<g id="edge31" class="edge">
<title>Node6&#45;&gt;Node25</title>
<path fill="none" stroke="midnightblue" d="M909.19,-131.2C927.09,-128.45 948.59,-125.33 968,-123 1140.39,-102.29 1186.17,-118.03 1357,-87 1365.35,-85.48 1374.3,-83.27 1382.43,-81.02"/>
<polygon fill="midnightblue" stroke="midnightblue" points="908.45,-127.77 899.1,-132.77 909.52,-134.69 908.45,-127.77"/>
</g>
<!-- Node26 -->
<g id="node26" class="node">
<title>Node26</title>
<g id="a_node26"><a xlink:href="test__pruner_8cpp.html" target="_top" xlink:title=" ">
<polygon fill="white" stroke="black" points="1473,-62 1473,-81 1581,-81 1581,-62 1473,-62"/>
<text text-anchor="middle" x="1527" y="-69" font-family="Helvetica,sans-Serif" font-size="10.00">tests/test_pruner.cpp</text>
</a>
</g>
</g>
<!-- Node6&#45;&gt;Node26 -->
<g id="edge32" class="edge">
<title>Node6&#45;&gt;Node26</title>
<path fill="none" stroke="midnightblue" d="M909.17,-131.02C927.06,-128.24 948.56,-125.14 968,-123 1187.7,-98.81 1245.44,-119.88 1464,-87 1473.88,-85.51 1484.5,-83.31 1494.16,-81.06"/>
<polygon fill="midnightblue" stroke="midnightblue" points="908.42,-127.6 899.09,-132.62 909.51,-134.51 908.42,-127.6"/>
</g>
<!-- Node27 -->
<g id="node27" class="node">
<title>Node27</title>
<g id="a_node27"><a xlink:href="test__svp_8cpp.html" target="_top" xlink:title=" ">
<polygon fill="white" stroke="black" points="1394,-0.5 1394,-19.5 1492,-19.5 1492,-0.5 1394,-0.5"/>
<text text-anchor="middle" x="1443" y="-7.5" font-family="Helvetica,sans-Serif" font-size="10.00">tests/test_svp.cpp</text>
</a>
</g>
</g>
<!-- Node6&#45;&gt;Node27 -->
<g id="edge33" class="edge">
<title>Node6&#45;&gt;Node27</title>
<path fill="none" stroke="midnightblue" d="M909.38,-131.16C980.14,-119.65 1123.43,-95.67 1145,-87 1168.22,-77.66 1168.76,-65.29 1192,-56 1210.42,-48.64 1326.1,-29.52 1393.81,-18.72"/>
<polygon fill="midnightblue" stroke="midnightblue" points="908.8,-127.71 899.49,-132.77 909.92,-134.62 908.8,-127.71"/>
</g>
<!-- Node28 -->
<g id="node28" class="node">
<title>Node28</title>
<g id="a_node28"><a xlink:href="test__svp__gram_8cpp.html" target="_top" xlink:title=" ">
<polygon fill="white" stroke="black" points="1510.5,-0.5 1510.5,-19.5 1635.5,-19.5 1635.5,-0.5 1510.5,-0.5"/>
<text text-anchor="middle" x="1573" y="-7.5" font-family="Helvetica,sans-Serif" font-size="10.00">tests/test_svp_gram.cpp</text>
</a>
</g>
</g>
<!-- Node6&#45;&gt;Node28 -->
<g id="edge34" class="edge">
<title>Node6&#45;&gt;Node28</title>
<path fill="none" stroke="midnightblue" d="M909.44,-131.63C990.74,-119.47 1170.44,-92.2 1183,-87 1204.77,-77.99 1204.09,-64.67 1226,-56 1229.29,-54.7 1411.46,-31.47 1510.49,-18.91"/>
<polygon fill="midnightblue" stroke="midnightblue" points="908.48,-128.24 899.11,-133.18 909.52,-135.16 908.48,-128.24"/>
</g>
<!-- Node29 -->
<g id="node29" class="node">
<title>Node29</title>
<g id="a_node29"><a xlink:href="test__utils_8h.html" target="_top" xlink:title=" ">
<polygon fill="white" stroke="black" points="974.5,-62 974.5,-81 1063.5,-81 1063.5,-62 974.5,-62"/>
<text text-anchor="middle" x="1019" y="-69" font-family="Helvetica,sans-Serif" font-size="10.00">tests/test_utils.h</text>
</a>
</g>
</g>
<!-- Node6&#45;&gt;Node29 -->
<g id="edge35" class="edge">
<title>Node6&#45;&gt;Node29</title>
<path fill="none" stroke="midnightblue" d="M899.16,-124.78C928.66,-111.91 973.49,-92.35 999.13,-81.17"/>
<polygon fill="midnightblue" stroke="midnightblue" points="897.55,-121.66 889.79,-128.87 900.35,-128.08 897.55,-121.66"/>
</g>
<!-- Node9 -->
<g id="node9" class="node">
<title>Node9</title>
<g id="a_node9"><a xlink:href="main_8cpp.html" target="_top" xlink:title=" ">
<polygon fill="white" stroke="black" points="1654,-0.5 1654,-19.5 1728,-19.5 1728,-0.5 1654,-0.5"/>
<text text-anchor="middle" x="1691" y="-7.5" font-family="Helvetica,sans-Serif" font-size="10.00">fplll/main.cpp</text>
</a>
</g>
</g>
<!-- Node8&#45;&gt;Node9 -->
<g id="edge9" class="edge">
<title>Node8&#45;&gt;Node9</title>
<path fill="none" stroke="midnightblue" d="M1669.91,-52.83C1675.46,-41.83 1682.35,-28.16 1686.71,-19.51"/>
<polygon fill="midnightblue" stroke="midnightblue" points="1666.68,-51.47 1665.3,-61.98 1672.93,-54.62 1666.68,-51.47"/>
</g>
<!-- Node11&#45;&gt;Node10 -->
<g id="edge12" class="edge">
<title>Node11&#45;&gt;Node10</title>
<path fill="none" stroke="midnightblue" d="M553.83,-56.9C552.54,-56.6 551.26,-56.3 550,-56 494.57,-43 430.28,-28.5 390.36,-19.56"/>
<polygon fill="midnightblue" stroke="midnightblue" points="553.29,-60.37 563.83,-59.27 554.91,-53.56 553.29,-60.37"/>
</g>
<!-- Node12&#45;&gt;Node10 -->
<g id="edge14" class="edge">
<title>Node12&#45;&gt;Node10</title>
<path fill="none" stroke="midnightblue" d="M663.89,-56.13C622.21,-49.17 485.34,-29.79 407.3,-18.78"/>
<polygon fill="midnightblue" stroke="midnightblue" points="663.42,-59.6 673.88,-57.93 664.65,-52.71 663.42,-59.6"/>
</g>
<!-- Node13&#45;&gt;Node10 -->
<g id="edge16" class="edge">
<title>Node13&#45;&gt;Node10</title>
<path fill="none" stroke="midnightblue" d="M187.94,-55.37C229.95,-44.01 285.98,-28.86 320.49,-19.52"/>
<polygon fill="midnightblue" stroke="midnightblue" points="186.86,-52.04 178.12,-58.03 188.69,-58.79 186.86,-52.04"/>
</g>
<!-- Node14&#45;&gt;Node10 -->
<g id="edge18" class="edge">
<title>Node14&#45;&gt;Node10</title>
<path fill="none" stroke="midnightblue" d="M277.12,-51.51C296.89,-40.81 320.62,-27.97 335.99,-19.66"/>
<polygon fill="midnightblue" stroke="midnightblue" points="275.2,-48.56 268.07,-56.4 278.53,-54.72 275.2,-48.56"/>
</g>
<!-- Node15&#45;&gt;Node10 -->
<g id="edge20" class="edge">
<title>Node15&#45;&gt;Node10</title>
<path fill="none" stroke="midnightblue" d="M352,-46.29C352,-36.86 352,-26.65 352,-19.66"/>
<polygon fill="midnightblue" stroke="midnightblue" points="348.5,-46.4 352,-56.4 355.5,-46.4 348.5,-46.4"/>
</g>
<!-- Node16&#45;&gt;Node10 -->
<g id="edge22" class="edge">
<title>Node16&#45;&gt;Node10</title>
<path fill="none" stroke="midnightblue" d="M426.88,-51.51C407.11,-40.81 383.38,-27.97 368.01,-19.66"/>
<polygon fill="midnightblue" stroke="midnightblue" points="425.47,-54.72 435.93,-56.4 428.8,-48.56 425.47,-54.72"/>
</g>
<!-- Node29&#45;&gt;Node17 -->
<g id="edge36" class="edge">
<title>Node29&#45;&gt;Node17</title>
<path fill="none" stroke="midnightblue" d="M964.26,-65.73C874.03,-57.67 688.46,-40.24 532,-20 529.07,-19.62 526.06,-19.21 523.02,-18.79"/>
<polygon fill="midnightblue" stroke="midnightblue" points="963.99,-69.22 974.26,-66.62 964.61,-62.25 963.99,-69.22"/>
</g>
<!-- Node29&#45;&gt;Node18 -->
<g id="edge37" class="edge">
<title>Node29&#45;&gt;Node18</title>
<path fill="none" stroke="midnightblue" d="M964.1,-62.63C886.17,-51.46 744.03,-31.08 663.61,-19.55"/>
<polygon fill="midnightblue" stroke="midnightblue" points="963.8,-66.12 974.19,-64.08 964.79,-59.19 963.8,-66.12"/>
</g>
<!-- Node29&#45;&gt;Node20 -->
<g id="edge38" class="edge">
<title>Node29&#45;&gt;Node20</title>
<path fill="none" stroke="midnightblue" d="M968.24,-59.9C912.99,-48.37 825.73,-30.15 774.76,-19.51"/>
<polygon fill="midnightblue" stroke="midnightblue" points="967.66,-63.36 978.17,-61.98 969.09,-56.51 967.66,-63.36"/>
</g>
<!-- Node29&#45;&gt;Node21 -->
<g id="edge39" class="edge">
<title>Node29&#45;&gt;Node21</title>
<path fill="none" stroke="midnightblue" d="M985.95,-58.58C953.88,-47.02 906,-29.75 877.6,-19.51"/>
<polygon fill="midnightblue" stroke="midnightblue" points="984.77,-61.88 995.36,-61.98 987.14,-55.29 984.77,-61.88"/>
</g>
<!-- Node29&#45;&gt;Node22 -->
<g id="edge41" class="edge">
<title>Node29&#45;&gt;Node22</title>
<path fill="none" stroke="midnightblue" d="M1005.84,-53.84C997.02,-42.67 985.77,-28.43 978.72,-19.51"/>
<polygon fill="midnightblue" stroke="midnightblue" points="1003.32,-56.3 1012.27,-61.98 1008.81,-51.96 1003.32,-56.3"/>
</g>
<!-- Node29&#45;&gt;Node23 -->
<g id="edge42" class="edge">
<title>Node29&#45;&gt;Node23</title>
<path fill="none" stroke="midnightblue" d="M1054.4,-58.73C1089.2,-47.17 1141.45,-29.8 1172.4,-19.51"/>
<polygon fill="midnightblue" stroke="midnightblue" points="1053.03,-55.5 1044.65,-61.98 1055.24,-62.14 1053.03,-55.5"/>
</g>
<!-- Node29&#45;&gt;Node24 -->
<g id="edge43" class="edge">
<title>Node29&#45;&gt;Node24</title>
<path fill="none" stroke="midnightblue" d="M1071.9,-59.97C1129.84,-48.44 1221.66,-30.17 1275.24,-19.51"/>
<polygon fill="midnightblue" stroke="midnightblue" points="1070.96,-56.59 1061.84,-61.98 1072.33,-63.46 1070.96,-56.59"/>
</g>
<!-- Node29&#45;&gt;Node27 -->
<g id="edge44" class="edge">
<title>Node29&#45;&gt;Node27</title>
<path fill="none" stroke="midnightblue" d="M1073.68,-63.25C1145.25,-53.69 1274.6,-36.18 1385,-20 1387.92,-19.57 1390.93,-19.12 1393.96,-18.67"/>
<polygon fill="midnightblue" stroke="midnightblue" points="1072.99,-59.81 1063.54,-64.6 1073.92,-66.75 1072.99,-59.81"/>
</g>
<!-- Node29&#45;&gt;Node28 -->
<g id="edge45" class="edge">
<title>Node29&#45;&gt;Node28</title>
<path fill="none" stroke="midnightblue" d="M1073.73,-65.12C1163.17,-56.26 1346.22,-37.78 1501,-20 1504,-19.65 1507.08,-19.3 1510.18,-18.93"/>
<polygon fill="midnightblue" stroke="midnightblue" points="1073.16,-61.66 1063.56,-66.13 1073.85,-68.63 1073.16,-61.66"/>
</g>
<!-- Node30 -->
<g id="node30" class="node">
<title>Node30</title>
<g id="a_node30"><a xlink:href="test__gso_8cpp.html" target="_top" xlink:title=" ">
<polygon fill="white" stroke="black" points="1037,-0.5 1037,-19.5 1135,-19.5 1135,-0.5 1037,-0.5"/>
<text text-anchor="middle" x="1086" y="-7.5" font-family="Helvetica,sans-Serif" font-size="10.00">tests/test_gso.cpp</text>
</a>
</g>
</g>
<!-- Node29&#45;&gt;Node30 -->
<g id="edge40" class="edge">
<title>Node29&#45;&gt;Node30</title>
<path fill="none" stroke="midnightblue" d="M1036.29,-55.15C1049.06,-43.81 1065.98,-28.78 1076.42,-19.51"/>
<polygon fill="midnightblue" stroke="midnightblue" points="1033.75,-52.72 1028.6,-61.98 1038.4,-57.95 1033.75,-52.72"/>
</g>
<!-- Node32&#45;&gt;Node7 -->
<g id="edge48" class="edge">
<title>Node32&#45;&gt;Node7</title>
<path fill="none" stroke="midnightblue" d="M310.43,-130.64C252.67,-122.54 157.42,-107.54 77,-87 70.59,-85.36 63.75,-83.24 57.47,-81.12"/>
<polygon fill="midnightblue" stroke="midnightblue" points="310.03,-134.12 320.42,-132.02 310.99,-127.18 310.03,-134.12"/>
</g>
<!-- Node34&#45;&gt;Node3 -->
<g id="edge51" class="edge">
<title>Node34&#45;&gt;Node3</title>
<path fill="none" stroke="midnightblue" d="M1089.64,-321.43C1049.27,-308.75 995.92,-292 964.16,-282.03"/>
<polygon fill="midnightblue" stroke="midnightblue" points="1088.75,-324.82 1099.34,-324.48 1090.85,-318.14 1088.75,-324.82"/>
</g>
<!-- Node35 -->
<g id="node35" class="node">
<title>Node35</title>
<g id="a_node35"><a xlink:href="enumerate__ext_8cpp.html" target="_top" xlink:title=" ">
<polygon fill="white" stroke="black" points="1013.5,-257.5 1013.5,-287.5 1120.5,-287.5 1120.5,-257.5 1013.5,-257.5"/>
<text text-anchor="start" x="1021.5" y="-275.5" font-family="Helvetica,sans-Serif" font-size="10.00">fplll/enum/enumerate</text>
<text text-anchor="middle" x="1067" y="-264.5" font-family="Helvetica,sans-Serif" font-size="10.00">_ext.cpp</text>
</a>
</g>
</g>
<!-- Node34&#45;&gt;Node35 -->
<g id="edge52" class="edge">
<title>Node34&#45;&gt;Node35</title>
<path fill="none" stroke="midnightblue" d="M1119.58,-317.88C1107.88,-308.01 1094.16,-296.43 1083.68,-287.58"/>
<polygon fill="midnightblue" stroke="midnightblue" points="1117.39,-320.62 1127.29,-324.4 1121.91,-315.27 1117.39,-320.62"/>
</g>
<!-- Node36 -->
<g id="node36" class="node">
<title>Node36</title>
<g id="a_node36"><a xlink:href="fplll__types_8h.html" target="_top" xlink:title=" ">
<polygon fill="white" stroke="black" points="1139,-257.5 1139,-287.5 1231,-287.5 1231,-257.5 1139,-257.5"/>
<text text-anchor="start" x="1147" y="-275.5" font-family="Helvetica,sans-Serif" font-size="10.00">fplll/enum&#45;parallel</text>
<text text-anchor="middle" x="1185" y="-264.5" font-family="Helvetica,sans-Serif" font-size="10.00">/fplll_types.h</text>
</a>
</g>
</g>
<!-- Node34&#45;&gt;Node36 -->
<g id="edge53" class="edge">
<title>Node34&#45;&gt;Node36</title>
<path fill="none" stroke="midnightblue" d="M1158.28,-315.87C1164.21,-306.46 1170.91,-295.83 1176.12,-287.58"/>
<polygon fill="midnightblue" stroke="midnightblue" points="1155.27,-314.07 1152.9,-324.4 1161.19,-317.81 1155.27,-314.07"/>
</g>
<!-- Node37 -->
<g id="node37" class="node">
<title>Node37</title>
<g id="a_node37"><a xlink:href="enumeration_8h.html" target="_top" xlink:title=" ">
<polygon fill="white" stroke="black" points="1130,-190.5 1130,-220.5 1222,-220.5 1222,-190.5 1130,-190.5"/>
<text text-anchor="start" x="1138" y="-208.5" font-family="Helvetica,sans-Serif" font-size="10.00">fplll/enum&#45;parallel</text>
<text text-anchor="middle" x="1176" y="-197.5" font-family="Helvetica,sans-Serif" font-size="10.00">/enumeration.h</text>
</a>
</g>
</g>
<!-- Node36&#45;&gt;Node37 -->
<g id="edge54" class="edge">
<title>Node36&#45;&gt;Node37</title>
<path fill="none" stroke="midnightblue" d="M1181.66,-247.4C1180.41,-238.37 1179.03,-228.41 1177.95,-220.58"/>
<polygon fill="midnightblue" stroke="midnightblue" points="1178.21,-247.97 1183.05,-257.4 1185.14,-247.01 1178.21,-247.97"/>
</g>
<!-- Node38 -->
<g id="node38" class="node">
<title>Node38</title>
<g id="a_node38"><a xlink:href="enumlib_8cpp.html" target="_top" xlink:title=" ">
<polygon fill="white" stroke="black" points="1130,-123.5 1130,-153.5 1222,-153.5 1222,-123.5 1130,-123.5"/>
<text text-anchor="start" x="1138" y="-141.5" font-family="Helvetica,sans-Serif" font-size="10.00">fplll/enum&#45;parallel</text>
<text text-anchor="middle" x="1176" y="-130.5" font-family="Helvetica,sans-Serif" font-size="10.00">/enumlib.cpp</text>
</a>
</g>
</g>
<!-- Node36&#45;&gt;Node38 -->
<g id="edge56" class="edge">
<title>Node36&#45;&gt;Node38</title>
<path fill="none" stroke="midnightblue" d="M1148.88,-251.8C1137.85,-243.81 1127.05,-233.48 1121,-221 1114.99,-208.6 1115.46,-202.61 1121,-190 1127.62,-174.93 1141.21,-162.38 1153.22,-153.56"/>
<polygon fill="midnightblue" stroke="midnightblue" points="1147.02,-254.78 1157.28,-257.46 1150.93,-248.97 1147.02,-254.78"/>
</g>
<!-- Node36&#45;&gt;Node39 -->
<g id="edge57" class="edge">
<title>Node36&#45;&gt;Node39</title>
<path fill="none" stroke="midnightblue" d="M1215.71,-251.73C1231.34,-241.68 1249.97,-229.68 1264.13,-220.58"/>
<polygon fill="midnightblue" stroke="midnightblue" points="1213.43,-249.04 1206.92,-257.4 1217.22,-254.93 1213.43,-249.04"/>
</g>
<!-- Node37&#45;&gt;Node38 -->
<g id="edge55" class="edge">
<title>Node37&#45;&gt;Node38</title>
<path fill="none" stroke="midnightblue" d="M1176,-180.11C1176,-171.15 1176,-161.32 1176,-153.58"/>
<polygon fill="midnightblue" stroke="midnightblue" points="1172.5,-180.4 1176,-190.4 1179.5,-180.4 1172.5,-180.4"/>
</g>
<!-- Node39&#45;&gt;Node38 -->
<g id="edge58" class="edge">
<title>Node39&#45;&gt;Node38</title>
<path fill="none" stroke="midnightblue" d="M1253.5,-185.3C1236.29,-175.12 1215.52,-162.85 1199.82,-153.58"/>
<polygon fill="midnightblue" stroke="midnightblue" points="1251.74,-188.32 1262.13,-190.4 1255.3,-182.3 1251.74,-188.32"/>
</g>
</g>
</svg>
