<?xml version="1.0" encoding="UTF-8" standalone="no"?>
<!DOCTYPE svg PUBLIC "-//W3C//DTD SVG 1.1//EN"
 "http://www.w3.org/Graphics/SVG/1.1/DTD/svg11.dtd">
<!-- Generated by graphviz version 2.40.1 (20161225.0304)
 -->
<!-- Title: fplll/enum/enumerate.h Pages: 1 -->
<svg width="1760pt" height="263pt"
 viewBox="0.00 0.00 1760.00 263.00" xmlns="http://www.w3.org/2000/svg" xmlns:xlink="http://www.w3.org/1999/xlink">
<g id="graph0" class="graph" transform="scale(1 1) rotate(0) translate(4 259)">
<title>fplll/enum/enumerate.h</title>
<polygon fill="#ffffff" stroke="transparent" points="-4,4 -4,-259 1756,-259 1756,4 -4,4"/>
<!-- Node0 -->
<g id="node1" class="node">
<title>Node0</title>
<polygon fill="#bfbfbf" stroke="#000000" points="860,-235.5 860,-254.5 976,-254.5 976,-235.5 860,-235.5"/>
<text text-anchor="middle" x="918" y="-242.5" font-family="Helvetica,sans-Serif" font-size="10.00" fill="#000000">fplll/enum/enumerate.h</text>
</g>
<!-- Node1 -->
<g id="node2" class="node">
<title>Node1</title>
<g id="a_node2"><a xlink:href="bkz_8h.html" target="_top" xlink:title="fplll/bkz.h">
<polygon fill="#ffffff" stroke="#000000" points="859.5,-179.5 859.5,-198.5 918.5,-198.5 918.5,-179.5 859.5,-179.5"/>
<text text-anchor="middle" x="889" y="-186.5" font-family="Helvetica,sans-Serif" font-size="10.00" fill="#000000">fplll/bkz.h</text>
</a>
</g>
</g>
<!-- Node0&#45;&gt;Node1 -->
<g id="edge1" class="edge">
<title>Node0&#45;&gt;Node1</title>
<path fill="none" stroke="#191970" d="M908.3353,-226.3372C903.5313,-217.0605 897.9277,-206.2398 893.9935,-198.6427"/>
<polygon fill="#191970" stroke="#191970" points="905.242,-227.9751 912.9486,-235.2455 911.458,-224.7561 905.242,-227.9751"/>
</g>
<!-- Node2 -->
<g id="node3" class="node">
<title>Node2</title>
<g id="a_node3"><a xlink:href="bkz_8cpp.html" target="_top" xlink:title="fplll/bkz.cpp">
<polygon fill="#ffffff" stroke="#000000" points="778.5,-123.5 778.5,-142.5 847.5,-142.5 847.5,-123.5 778.5,-123.5"/>
<text text-anchor="middle" x="813" y="-130.5" font-family="Helvetica,sans-Serif" font-size="10.00" fill="#000000">fplll/bkz.cpp</text>
</a>
</g>
</g>
<!-- Node0&#45;&gt;Node2 -->
<g id="edge42" class="edge">
<title>Node0&#45;&gt;Node2</title>
<path fill="none" stroke="#191970" d="M890.4303,-230.3934C877.095,-222.3823 861.5226,-211.5311 850,-199 834.1734,-181.7882 822.4677,-156.6032 816.8037,-142.854"/>
<polygon fill="#191970" stroke="#191970" points="888.8172,-233.5035 899.2277,-235.4715 892.3167,-227.441 888.8172,-233.5035"/>
</g>
<!-- Node28 -->
<g id="node29" class="node">
<title>Node28</title>
<g id="a_node29"><a xlink:href="enumerate_8cpp.html" target="_top" xlink:title="fplll/enum/enumerate.cpp">
<polygon fill="#ffffff" stroke="#000000" points="975,-179.5 975,-198.5 1101,-198.5 1101,-179.5 975,-179.5"/>
<text text-anchor="middle" x="1038" y="-186.5" font-family="Helvetica,sans-Serif" font-size="10.00" fill="#000000">fplll/enum/enumerate.cpp</text>
</a>
</g>
</g>
<!-- Node0&#45;&gt;Node28 -->
<g id="edge43" class="edge">
<title>Node0&#45;&gt;Node28</title>
<path fill="none" stroke="#191970" d="M947.7624,-231.1109C969.5232,-220.9559 998.4682,-207.4482 1017.6405,-198.5011"/>
<polygon fill="#191970" stroke="#191970" points="946.2105,-227.9727 938.6287,-235.3733 949.1707,-234.316 946.2105,-227.9727"/>
</g>
<!-- Node29 -->
<g id="node30" class="node">
<title>Node29</title>
<g id="a_node30"><a xlink:href="svpcvp_8cpp.html" target="_top" xlink:title="fplll/svpcvp.cpp">
<polygon fill="#ffffff" stroke="#000000" points="1308.5,-123.5 1308.5,-142.5 1393.5,-142.5 1393.5,-123.5 1308.5,-123.5"/>
<text text-anchor="middle" x="1351" y="-130.5" font-family="Helvetica,sans-Serif" font-size="10.00" fill="#000000">fplll/svpcvp.cpp</text>
</a>
</g>
</g>
<!-- Node0&#45;&gt;Node29 -->
<g id="edge44" class="edge">
<title>Node0&#45;&gt;Node29</title>
<path fill="none" stroke="#191970" d="M926.2972,-226.2423C934.1732,-210.824 947.5537,-189.8194 966,-179 1023.1939,-145.4539 1220.3515,-136.2971 1308.1909,-133.8583"/>
<polygon fill="#191970" stroke="#191970" points="923.0727,-224.8726 921.9186,-235.4044 929.3885,-227.891 923.0727,-224.8726"/>
</g>
<!-- Node1&#45;&gt;Node2 -->
<g id="edge2" class="edge">
<title>Node1&#45;&gt;Node2</title>
<path fill="none" stroke="#191970" d="M867.5703,-173.2097C854.2223,-163.3743 837.4821,-151.0394 826.0865,-142.6427"/>
<polygon fill="#191970" stroke="#191970" points="865.635,-176.1312 875.7618,-179.2455 869.7874,-170.4958 865.635,-176.1312"/>
</g>
<!-- Node3 -->
<g id="node4" class="node">
<title>Node3</title>
<g id="a_node4"><a xlink:href="fplll_8h.html" target="_top" xlink:title="fplll/fplll.h">
<polygon fill="#ffffff" stroke="#000000" points="866,-123.5 866,-142.5 924,-142.5 924,-123.5 866,-123.5"/>
<text text-anchor="middle" x="895" y="-130.5" font-family="Helvetica,sans-Serif" font-size="10.00" fill="#000000">fplll/fplll.h</text>
</a>
</g>
</g>
<!-- Node1&#45;&gt;Node3 -->
<g id="edge3" class="edge">
<title>Node1&#45;&gt;Node3</title>
<path fill="none" stroke="#191970" d="M891.126,-169.1575C892.0905,-160.155 893.1872,-149.9199 893.9669,-142.6427"/>
<polygon fill="#191970" stroke="#191970" points="887.6305,-168.9296 890.0451,-179.2455 894.5906,-169.6753 887.6305,-168.9296"/>
</g>
<!-- Node4 -->
<g id="node5" class="node">
<title>Node4</title>
<g id="a_node5"><a xlink:href="fplll_8cpp.html" target="_top" xlink:title="fplll/fplll.cpp">
<polygon fill="#ffffff" stroke="#000000" points="1684,-62 1684,-81 1752,-81 1752,-62 1684,-62"/>
<text text-anchor="middle" x="1718" y="-69" font-family="Helvetica,sans-Serif" font-size="10.00" fill="#000000">fplll/fplll.cpp</text>
</a>
</g>
</g>
<!-- Node3&#45;&gt;Node4 -->
<g id="edge4" class="edge">
<title>Node3&#45;&gt;Node4</title>
<path fill="none" stroke="#191970" d="M934.501,-132.1658C1072.2908,-129.023 1531.0843,-116.5384 1675,-87 1681.6851,-85.6279 1688.7314,-83.4284 1695.1418,-81.1123"/>
<polygon fill="#191970" stroke="#191970" points="934.3156,-128.669 924.3967,-132.3926 934.4728,-135.6673 934.3156,-128.669"/>
</g>
<!-- Node5 -->
<g id="node6" class="node">
<title>Node5</title>
<g id="a_node6"><a xlink:href="main_8h.html" target="_top" xlink:title="fplll/main.h">
<polygon fill="#ffffff" stroke="#000000" points="1602,-62 1602,-81 1666,-81 1666,-62 1602,-62"/>
<text text-anchor="middle" x="1634" y="-69" font-family="Helvetica,sans-Serif" font-size="10.00" fill="#000000">fplll/main.h</text>
</a>
</g>
</g>
<!-- Node3&#45;&gt;Node5 -->
<g id="edge5" class="edge">
<title>Node3&#45;&gt;Node5</title>
<path fill="none" stroke="#191970" d="M934.2134,-131.7309C1061.3619,-127.4066 1461.3091,-112.1075 1588,-87 1595.1092,-85.5911 1602.6332,-83.3796 1609.491,-81.0637"/>
<polygon fill="#191970" stroke="#191970" points="934.0256,-128.2351 924.149,-132.0695 934.2611,-135.2312 934.0256,-128.2351"/>
</g>
<!-- Node7 -->
<g id="node8" class="node">
<title>Node7</title>
<g id="a_node8"><a xlink:href="pruner_8cpp.html" target="_top" xlink:title="fplll/pruner/pruner.cpp">
<polygon fill="#ffffff" stroke="#000000" points="249,-.5 249,-19.5 359,-19.5 359,-.5 249,-.5"/>
<text text-anchor="middle" x="304" y="-7.5" font-family="Helvetica,sans-Serif" font-size="10.00" fill="#000000">fplll/pruner/pruner.cpp</text>
</a>
</g>
</g>
<!-- Node3&#45;&gt;Node7 -->
<g id="edge7" class="edge">
<title>Node3&#45;&gt;Node7</title>
<path fill="none" stroke="#191970" d="M855.5423,-123.6295C753.2073,-114.2134 293.6188,-134.3435 249,-87 228.2682,-65.0022 265.7515,-34.8479 288.4757,-19.6262"/>
<polygon fill="#191970" stroke="#191970" points="855.3918,-127.1366 865.7381,-124.8554 856.2275,-120.1866 855.3918,-127.1366"/>
</g>
<!-- Node8 -->
<g id="node9" class="node">
<title>Node8</title>
<g id="a_node9"><a xlink:href="pruner__cost_8cpp.html" target="_top" xlink:title="fplll/pruner/pruner\l_cost.cpp">
<polygon fill="#ffffff" stroke="#000000" points="258,-56.5 258,-86.5 350,-86.5 350,-56.5 258,-56.5"/>
<text text-anchor="start" x="266" y="-74.5" font-family="Helvetica,sans-Serif" font-size="10.00" fill="#000000">fplll/pruner/pruner</text>
<text text-anchor="middle" x="304" y="-63.5" font-family="Helvetica,sans-Serif" font-size="10.00" fill="#000000">_cost.cpp</text>
</a>
</g>
</g>
<!-- Node3&#45;&gt;Node8 -->
<g id="edge8" class="edge">
<title>Node3&#45;&gt;Node8</title>
<path fill="none" stroke="#191970" d="M855.8053,-123.2956C635.62,-88.4476 573.9471,-124.6723 359,-87 356.0685,-86.4862 353.0688,-85.88 350.0571,-85.2101"/>
<polygon fill="#191970" stroke="#191970" points="855.3015,-126.7595 865.7314,-124.8973 856.4167,-119.8489 855.3015,-126.7595"/>
</g>
<!-- Node9 -->
<g id="node10" class="node">
<title>Node9</title>
<g id="a_node10"><a xlink:href="pruner__optimize_8cpp.html" target="_top" xlink:title="fplll/pruner/pruner\l_optimize.cpp">
<polygon fill="#ffffff" stroke="#000000" points="0,-56.5 0,-86.5 92,-86.5 92,-56.5 0,-56.5"/>
<text text-anchor="start" x="8" y="-74.5" font-family="Helvetica,sans-Serif" font-size="10.00" fill="#000000">fplll/pruner/pruner</text>
<text text-anchor="middle" x="46" y="-63.5" font-family="Helvetica,sans-Serif" font-size="10.00" fill="#000000">_optimize.cpp</text>
</a>
</g>
</g>
<!-- Node3&#45;&gt;Node9 -->
<g id="edge10" class="edge">
<title>Node3&#45;&gt;Node9</title>
<path fill="none" stroke="#191970" d="M855.7972,-123.3348C521.997,-74.337 429.345,-140.3824 101,-87 98.0624,-86.5224 95.058,-85.9439 92.0428,-85.2947"/>
<polygon fill="#191970" stroke="#191970" points="855.3369,-126.8048 865.7438,-124.8182 856.3695,-119.8814 855.3369,-126.8048"/>
</g>
<!-- Node10 -->
<g id="node11" class="node">
<title>Node10</title>
<g id="a_node11"><a xlink:href="pruner__optimize__tc_8cpp.html" target="_top" xlink:title="fplll/pruner/pruner\l_optimize_tc.cpp">
<polygon fill="#ffffff" stroke="#000000" points="368,-56.5 368,-86.5 460,-86.5 460,-56.5 368,-56.5"/>
<text text-anchor="start" x="376" y="-74.5" font-family="Helvetica,sans-Serif" font-size="10.00" fill="#000000">fplll/pruner/pruner</text>
<text text-anchor="middle" x="414" y="-63.5" font-family="Helvetica,sans-Serif" font-size="10.00" fill="#000000">_optimize_tc.cpp</text>
</a>
</g>
</g>
<!-- Node3&#45;&gt;Node10 -->
<g id="edge12" class="edge">
<title>Node3&#45;&gt;Node10</title>
<path fill="none" stroke="#191970" d="M855.8411,-123.2667C684.0175,-94.3671 635.6841,-117.9733 469,-87 466.0739,-86.4563 463.0783,-85.8271 460.0697,-85.14"/>
<polygon fill="#191970" stroke="#191970" points="855.2723,-126.7201 865.7204,-124.9628 856.4569,-119.8211 855.2723,-126.7201"/>
</g>
<!-- Node11 -->
<g id="node12" class="node">
<title>Node11</title>
<g id="a_node12"><a xlink:href="pruner__optimize__tp_8cpp.html" target="_top" xlink:title="fplll/pruner/pruner\l_optimize_tp.cpp">
<polygon fill="#ffffff" stroke="#000000" points="478,-56.5 478,-86.5 570,-86.5 570,-56.5 478,-56.5"/>
<text text-anchor="start" x="486" y="-74.5" font-family="Helvetica,sans-Serif" font-size="10.00" fill="#000000">fplll/pruner/pruner</text>
<text text-anchor="middle" x="524" y="-63.5" font-family="Helvetica,sans-Serif" font-size="10.00" fill="#000000">_optimize_tp.cpp</text>
</a>
</g>
</g>
<!-- Node3&#45;&gt;Node11 -->
<g id="edge14" class="edge">
<title>Node3&#45;&gt;Node11</title>
<path fill="none" stroke="#191970" d="M855.861,-123.2059C732.3341,-100.1429 697.535,-111.271 579,-87 576.0843,-86.403 573.0967,-85.733 570.094,-85.0155"/>
<polygon fill="#191970" stroke="#191970" points="855.2209,-126.6468 865.6991,-125.0792 856.5303,-119.7704 855.2209,-126.6468"/>
</g>
<!-- Node12 -->
<g id="node13" class="node">
<title>Node12</title>
<g id="a_node13"><a xlink:href="pruner__prob_8cpp.html" target="_top" xlink:title="fplll/pruner/pruner\l_prob.cpp">
<polygon fill="#ffffff" stroke="#000000" points="588,-56.5 588,-86.5 680,-86.5 680,-56.5 588,-56.5"/>
<text text-anchor="start" x="596" y="-74.5" font-family="Helvetica,sans-Serif" font-size="10.00" fill="#000000">fplll/pruner/pruner</text>
<text text-anchor="middle" x="634" y="-63.5" font-family="Helvetica,sans-Serif" font-size="10.00" fill="#000000">_prob.cpp</text>
</a>
</g>
</g>
<!-- Node3&#45;&gt;Node12 -->
<g id="edge16" class="edge">
<title>Node3&#45;&gt;Node12</title>
<path fill="none" stroke="#191970" d="M855.4876,-122.9426C782.5756,-105.6708 762.6349,-103.4864 694,-87 689.5017,-85.9195 684.8218,-84.7647 680.1481,-83.591"/>
<polygon fill="#191970" stroke="#191970" points="855.0988,-126.448 865.6379,-125.3629 856.7224,-119.6389 855.0988,-126.448"/>
</g>
<!-- Node13 -->
<g id="node14" class="node">
<title>Node13</title>
<g id="a_node14"><a xlink:href="pruner__util_8cpp.html" target="_top" xlink:title="fplll/pruner/pruner\l_util.cpp">
<polygon fill="#ffffff" stroke="#000000" points="110,-56.5 110,-86.5 202,-86.5 202,-56.5 110,-56.5"/>
<text text-anchor="start" x="118" y="-74.5" font-family="Helvetica,sans-Serif" font-size="10.00" fill="#000000">fplll/pruner/pruner</text>
<text text-anchor="middle" x="156" y="-63.5" font-family="Helvetica,sans-Serif" font-size="10.00" fill="#000000">_util.cpp</text>
</a>
</g>
</g>
<!-- Node3&#45;&gt;Node13 -->
<g id="edge18" class="edge">
<title>Node3&#45;&gt;Node13</title>
<path fill="none" stroke="#191970" d="M855.587,-123.288C572.6281,-80.6053 494.2018,-130.3271 216,-87 211.5352,-86.3047 206.9204,-85.4203 202.325,-84.4276"/>
<polygon fill="#191970" stroke="#191970" points="855.3245,-126.7886 865.7396,-124.8457 856.3861,-119.8696 855.3245,-126.7886"/>
</g>
<!-- Node14 -->
<g id="node15" class="node">
<title>Node14</title>
<g id="a_node15"><a xlink:href="test__bkz_8cpp.html" target="_top" xlink:title="tests/test_bkz.cpp">
<polygon fill="#ffffff" stroke="#000000" points="399,-.5 399,-19.5 497,-19.5 497,-.5 399,-.5"/>
<text text-anchor="middle" x="448" y="-7.5" font-family="Helvetica,sans-Serif" font-size="10.00" fill="#000000">tests/test_bkz.cpp</text>
</a>
</g>
</g>
<!-- Node3&#45;&gt;Node14 -->
<g id="edge20" class="edge">
<title>Node3&#45;&gt;Node14</title>
<path fill="none" stroke="#191970" d="M856.0501,-122.8952C805.959,-109.8639 724.9945,-88.6633 722,-87 704.4085,-77.2287 706.9285,-65.1382 689,-56 680.4731,-51.6538 565.1045,-30.7324 497.1355,-18.655"/>
<polygon fill="#191970" stroke="#191970" points="855.3689,-126.3344 865.9278,-125.4631 857.1302,-119.5596 855.3689,-126.3344"/>
</g>
<!-- Node15 -->
<g id="node16" class="node">
<title>Node15</title>
<g id="a_node16"><a xlink:href="test__bkz__gram_8cpp.html" target="_top" xlink:title="tests/test_bkz_gram.cpp">
<polygon fill="#ffffff" stroke="#000000" points="515.5,-.5 515.5,-19.5 640.5,-19.5 640.5,-.5 515.5,-.5"/>
<text text-anchor="middle" x="578" y="-7.5" font-family="Helvetica,sans-Serif" font-size="10.00" fill="#000000">tests/test_bkz_gram.cpp</text>
</a>
</g>
</g>
<!-- Node3&#45;&gt;Node15 -->
<g id="edge21" class="edge">
<title>Node3&#45;&gt;Node15</title>
<path fill="none" stroke="#191970" d="M856.9301,-119.9603C833.2621,-111.4446 802.415,-99.5974 776,-87 751.0215,-75.0877 747.3227,-67.162 722,-56 686.8179,-40.4921 644.7446,-27.669 615.1889,-19.5366"/>
<polygon fill="#191970" stroke="#191970" points="856.0055,-123.3462 866.6002,-123.3984 858.3505,-116.7506 856.0055,-123.3462"/>
</g>
<!-- Node16 -->
<g id="node17" class="node">
<title>Node16</title>
<g id="a_node17"><a xlink:href="test__counter_8cpp.html" target="_top" xlink:title="tests/test_counter.cpp">
<polygon fill="#ffffff" stroke="#000000" points="1072,-62 1072,-81 1186,-81 1186,-62 1072,-62"/>
<text text-anchor="middle" x="1129" y="-69" font-family="Helvetica,sans-Serif" font-size="10.00" fill="#000000">tests/test_counter.cpp</text>
</a>
</g>
</g>
<!-- Node3&#45;&gt;Node16 -->
<g id="edge22" class="edge">
<title>Node3&#45;&gt;Node16</title>
<path fill="none" stroke="#191970" d="M933.9546,-122.7619C978.0892,-111.1625 1049.4613,-92.4044 1092.5379,-81.083"/>
<polygon fill="#191970" stroke="#191970" points="932.945,-119.4083 924.1631,-125.3353 934.7244,-126.1784 932.945,-119.4083"/>
</g>
<!-- Node17 -->
<g id="node18" class="node">
<title>Node17</title>
<g id="a_node18"><a xlink:href="test__cvp_8cpp.html" target="_top" xlink:title="tests/test_cvp.cpp">
<polygon fill="#ffffff" stroke="#000000" points="659,-.5 659,-19.5 757,-19.5 757,-.5 659,-.5"/>
<text text-anchor="middle" x="708" y="-7.5" font-family="Helvetica,sans-Serif" font-size="10.00" fill="#000000">tests/test_cvp.cpp</text>
</a>
</g>
</g>
<!-- Node3&#45;&gt;Node17 -->
<g id="edge23" class="edge">
<title>Node3&#45;&gt;Node17</title>
<path fill="none" stroke="#191970" d="M871.7836,-117.7492C858.1546,-108.7949 840.5976,-97.2575 825,-87 788.2261,-62.8164 744.9653,-34.3381 722.7735,-19.7274"/>
<polygon fill="#191970" stroke="#191970" points="870.2396,-120.9225 880.5191,-123.4881 874.0831,-115.0721 870.2396,-120.9225"/>
</g>
<!-- Node18 -->
<g id="node19" class="node">
<title>Node18</title>
<g id="a_node19"><a xlink:href="test__enum_8cpp.html" target="_top" xlink:title="tests/test_enum.cpp">
<polygon fill="#ffffff" stroke="#000000" points="1204,-62 1204,-81 1310,-81 1310,-62 1204,-62"/>
<text text-anchor="middle" x="1257" y="-69" font-family="Helvetica,sans-Serif" font-size="10.00" fill="#000000">tests/test_enum.cpp</text>
</a>
</g>
</g>
<!-- Node3&#45;&gt;Node18 -->
<g id="edge24" class="edge">
<title>Node3&#45;&gt;Node18</title>
<path fill="none" stroke="#191970" d="M934.2208,-128.168C991.7115,-120.8182 1102.1168,-105.6895 1195,-87 1203.593,-85.271 1212.7867,-83.133 1221.3921,-81.0032"/>
<polygon fill="#191970" stroke="#191970" points="933.5983,-124.7188 924.118,-129.4489 934.4789,-131.6632 933.5983,-124.7188"/>
</g>
<!-- Node19 -->
<g id="node20" class="node">
<title>Node19</title>
<g id="a_node20"><a xlink:href="test__hlll_8cpp.html" target="_top" xlink:title="tests/test_hlll.cpp">
<polygon fill="#ffffff" stroke="#000000" points="775,-.5 775,-19.5 869,-19.5 869,-.5 775,-.5"/>
<text text-anchor="middle" x="822" y="-7.5" font-family="Helvetica,sans-Serif" font-size="10.00" fill="#000000">tests/test_hlll.cpp</text>
</a>
</g>
</g>
<!-- Node3&#45;&gt;Node19 -->
<g id="edge25" class="edge">
<title>Node3&#45;&gt;Node19</title>
<path fill="none" stroke="#191970" d="M870.4182,-117.2782C859.9093,-109.3824 848.3851,-98.9493 841,-87 827.6806,-65.4488 823.6924,-35.0991 822.5026,-19.7322"/>
<polygon fill="#191970" stroke="#191970" points="868.7126,-120.3595 878.8937,-123.2914 872.7631,-114.6504 868.7126,-120.3595"/>
</g>
<!-- Node20 -->
<g id="node21" class="node">
<title>Node20</title>
<g id="a_node21"><a xlink:href="test__lll_8cpp.html" target="_top" xlink:title="tests/test_lll.cpp">
<polygon fill="#ffffff" stroke="#000000" points="1003.5,-.5 1003.5,-19.5 1092.5,-19.5 1092.5,-.5 1003.5,-.5"/>
<text text-anchor="middle" x="1048" y="-7.5" font-family="Helvetica,sans-Serif" font-size="10.00" fill="#000000">tests/test_lll.cpp</text>
</a>
</g>
</g>
<!-- Node3&#45;&gt;Node20 -->
<g id="edge26" class="edge">
<title>Node3&#45;&gt;Node20</title>
<path fill="none" stroke="#191970" d="M914.8704,-117.0257C947.1109,-91.107 1009.847,-40.672 1036.0501,-19.6068"/>
<polygon fill="#191970" stroke="#191970" points="912.6065,-114.355 907.0057,-123.3484 916.9924,-119.8106 912.6065,-114.355"/>
</g>
<!-- Node21 -->
<g id="node22" class="node">
<title>Node21</title>
<g id="a_node22"><a xlink:href="test__lll__gram_8cpp.html" target="_top" xlink:title="tests/test_lll_gram.cpp">
<polygon fill="#ffffff" stroke="#000000" points="1110,-.5 1110,-19.5 1226,-19.5 1226,-.5 1110,-.5"/>
<text text-anchor="middle" x="1168" y="-7.5" font-family="Helvetica,sans-Serif" font-size="10.00" fill="#000000">tests/test_lll_gram.cpp</text>
</a>
</g>
</g>
<!-- Node3&#45;&gt;Node21 -->
<g id="edge27" class="edge">
<title>Node3&#45;&gt;Node21</title>
<path fill="none" stroke="#191970" d="M925.4741,-118.9699C943.4366,-110.3639 966.4097,-98.767 986,-87 1006.5067,-74.6825 1008.648,-66.786 1030,-56 1062.1216,-39.7737 1101.242,-27.3588 1129.6167,-19.5398"/>
<polygon fill="#191970" stroke="#191970" points="923.6041,-115.9827 916.0637,-123.4254 926.5996,-122.3094 923.6041,-115.9827"/>
</g>
<!-- Node22 -->
<g id="node23" class="node">
<title>Node22</title>
<g id="a_node23"><a xlink:href="test__nr_8cpp.html" target="_top" xlink:title="tests/test_nr.cpp">
<polygon fill="#ffffff" stroke="#000000" points="1328,-62 1328,-81 1418,-81 1418,-62 1328,-62"/>
<text text-anchor="middle" x="1373" y="-69" font-family="Helvetica,sans-Serif" font-size="10.00" fill="#000000">tests/test_nr.cpp</text>
</a>
</g>
</g>
<!-- Node3&#45;&gt;Node22 -->
<g id="edge28" class="edge">
<title>Node3&#45;&gt;Node22</title>
<path fill="none" stroke="#191970" d="M934.4676,-130.9821C1009.8152,-126.6315 1179.1126,-114.454 1319,-87 1326.9439,-85.4409 1335.4131,-83.2635 1343.2318,-81.0326"/>
<polygon fill="#191970" stroke="#191970" points="933.8348,-127.5121 924.0471,-131.5681 934.2279,-134.501 933.8348,-127.5121"/>
</g>
<!-- Node23 -->
<g id="node24" class="node">
<title>Node23</title>
<g id="a_node24"><a xlink:href="test__pruner_8cpp.html" target="_top" xlink:title="tests/test_pruner.cpp">
<polygon fill="#ffffff" stroke="#000000" points="1436.5,-62 1436.5,-81 1545.5,-81 1545.5,-62 1436.5,-62"/>
<text text-anchor="middle" x="1491" y="-69" font-family="Helvetica,sans-Serif" font-size="10.00" fill="#000000">tests/test_pruner.cpp</text>
</a>
</g>
</g>
<!-- Node3&#45;&gt;Node23 -->
<g id="edge29" class="edge">
<title>Node3&#45;&gt;Node23</title>
<path fill="none" stroke="#191970" d="M934.1308,-131.6442C1022.5139,-128.1403 1244.1285,-116.8743 1427,-87 1436.3647,-85.4702 1446.3845,-83.303 1455.6502,-81.0726"/>
<polygon fill="#191970" stroke="#191970" points="933.8822,-128.1511 924.0244,-132.0338 934.1519,-135.1459 933.8822,-128.1511"/>
</g>
<!-- Node24 -->
<g id="node25" class="node">
<title>Node24</title>
<g id="a_node25"><a xlink:href="test__svp_8cpp.html" target="_top" xlink:title="tests/test_svp.cpp">
<polygon fill="#ffffff" stroke="#000000" points="1244,-.5 1244,-19.5 1342,-19.5 1342,-.5 1244,-.5"/>
<text text-anchor="middle" x="1293" y="-7.5" font-family="Helvetica,sans-Serif" font-size="10.00" fill="#000000">tests/test_svp.cpp</text>
</a>
</g>
</g>
<!-- Node3&#45;&gt;Node24 -->
<g id="edge30" class="edge">
<title>Node3&#45;&gt;Node24</title>
<path fill="none" stroke="#191970" d="M933.8553,-122.2542C959.6839,-114.3197 993.8915,-102.2628 1022,-87 1042.0759,-76.0989 1042.1632,-65.365 1063,-56 1079.2962,-48.6757 1181.3429,-29.7749 1243.9094,-18.6123"/>
<polygon fill="#191970" stroke="#191970" points="932.6207,-118.9704 924.0464,-125.1939 934.6303,-125.6757 932.6207,-118.9704"/>
</g>
<!-- Node25 -->
<g id="node26" class="node">
<title>Node25</title>
<g id="a_node26"><a xlink:href="test__svp__gram_8cpp.html" target="_top" xlink:title="tests/test_svp_gram.cpp">
<polygon fill="#ffffff" stroke="#000000" points="1407.5,-.5 1407.5,-19.5 1532.5,-19.5 1532.5,-.5 1407.5,-.5"/>
<text text-anchor="middle" x="1470" y="-7.5" font-family="Helvetica,sans-Serif" font-size="10.00" fill="#000000">tests/test_svp_gram.cpp</text>
</a>
</g>
</g>
<!-- Node3&#45;&gt;Node25 -->
<g id="edge31" class="edge">
<title>Node3&#45;&gt;Node25</title>
<path fill="none" stroke="#191970" d="M934.6248,-131.715C1073.902,-127.0088 1533.7397,-109.7936 1555,-87 1564.3976,-76.9246 1562.0526,-67.8359 1555,-56 1544.2637,-37.9821 1523.7465,-26.5925 1505.5598,-19.6541"/>
<polygon fill="#191970" stroke="#191970" points="934.2827,-128.2244 924.4055,-132.0572 934.5171,-135.2204 934.2827,-128.2244"/>
</g>
<!-- Node26 -->
<g id="node27" class="node">
<title>Node26</title>
<g id="a_node27"><a xlink:href="test__utils_8h.html" target="_top" xlink:title="tests/test_utils.h">
<polygon fill="#ffffff" stroke="#000000" points="850.5,-62 850.5,-81 939.5,-81 939.5,-62 850.5,-62"/>
<text text-anchor="middle" x="895" y="-69" font-family="Helvetica,sans-Serif" font-size="10.00" fill="#000000">tests/test_utils.h</text>
</a>
</g>
</g>
<!-- Node3&#45;&gt;Node26 -->
<g id="edge32" class="edge">
<title>Node3&#45;&gt;Node26</title>
<path fill="none" stroke="#191970" d="M895,-113.2462C895,-102.5519 895,-89.814 895,-81.2449"/>
<polygon fill="#191970" stroke="#191970" points="891.5001,-113.3906 895,-123.3906 898.5001,-113.3907 891.5001,-113.3906"/>
</g>
<!-- Node6 -->
<g id="node7" class="node">
<title>Node6</title>
<g id="a_node7"><a xlink:href="main_8cpp.html" target="_top" xlink:title="fplll/main.cpp">
<polygon fill="#ffffff" stroke="#000000" points="1597,-.5 1597,-19.5 1671,-19.5 1671,-.5 1597,-.5"/>
<text text-anchor="middle" x="1634" y="-7.5" font-family="Helvetica,sans-Serif" font-size="10.00" fill="#000000">fplll/main.cpp</text>
</a>
</g>
</g>
<!-- Node5&#45;&gt;Node6 -->
<g id="edge6" class="edge">
<title>Node5&#45;&gt;Node6</title>
<path fill="none" stroke="#191970" d="M1634,-51.7462C1634,-41.0519 1634,-28.314 1634,-19.7449"/>
<polygon fill="#191970" stroke="#191970" points="1630.5001,-51.8906 1634,-61.8906 1637.5001,-51.8907 1630.5001,-51.8906"/>
</g>
<!-- Node8&#45;&gt;Node7 -->
<g id="edge9" class="edge">
<title>Node8&#45;&gt;Node7</title>
<path fill="none" stroke="#191970" d="M304,-46.2849C304,-36.9858 304,-26.9883 304,-19.8469"/>
<polygon fill="#191970" stroke="#191970" points="300.5001,-46.2977 304,-56.2977 307.5001,-46.2978 300.5001,-46.2977"/>
</g>
<!-- Node9&#45;&gt;Node7 -->
<g id="edge11" class="edge">
<title>Node9&#45;&gt;Node7</title>
<path fill="none" stroke="#191970" d="M102.092,-55.7884C161.4704,-40.8502 219.6174,-27.9674 258.6884,-19.5631"/>
<polygon fill="#191970" stroke="#191970" points="101.0015,-52.454 92.1668,-58.3019 102.72,-59.2398 101.0015,-52.454"/>
</g>
<!-- Node10&#45;&gt;Node7 -->
<g id="edge13" class="edge">
<title>Node10&#45;&gt;Node7</title>
<path fill="none" stroke="#191970" d="M378.2796,-51.5291C359.0716,-40.79 336.2719,-28.0429 321.0461,-19.5303"/>
<polygon fill="#191970" stroke="#191970" points="376.6545,-54.6303 387.091,-56.4554 380.0705,-48.5204 376.6545,-54.6303"/>
</g>
<!-- Node11&#45;&gt;Node7 -->
<g id="edge15" class="edge">
<title>Node11&#45;&gt;Node7</title>
<path fill="none" stroke="#191970" d="M468.0246,-55.7302C417.6648,-41.622 369.8185,-28.2982 338.4543,-19.5751"/>
<polygon fill="#191970" stroke="#191970" points="467.2156,-59.1383 477.7892,-58.4668 469.1047,-52.398 467.2156,-59.1383"/>
</g>
<!-- Node12&#45;&gt;Node7 -->
<g id="edge17" class="edge">
<title>Node12&#45;&gt;Node7</title>
<path fill="none" stroke="#191970" d="M577.9654,-55.9032C496.554,-38.0172 412.7149,-25.033 359.1265,-17.4173"/>
<polygon fill="#191970" stroke="#191970" points="577.3579,-59.3536 587.8794,-58.1087 578.878,-52.5206 577.3579,-59.3536"/>
</g>
<!-- Node13&#45;&gt;Node7 -->
<g id="edge19" class="edge">
<title>Node13&#45;&gt;Node7</title>
<path fill="none" stroke="#191970" d="M201.6195,-52.5433C227.9501,-41.6018 259.9308,-28.3126 281.0653,-19.5303"/>
<polygon fill="#191970" stroke="#191970" points="200.0963,-49.386 192.2049,-56.4554 202.7824,-55.8501 200.0963,-49.386"/>
</g>
<!-- Node26&#45;&gt;Node14 -->
<g id="edge33" class="edge">
<title>Node26&#45;&gt;Node14</title>
<path fill="none" stroke="#191970" d="M840.0828,-64.9163C764.6591,-55.7176 624.8342,-38.1035 506,-20 503.0706,-19.5537 500.0606,-19.0802 497.0258,-18.5914"/>
<polygon fill="#191970" stroke="#191970" points="839.9397,-68.4246 850.2891,-66.1576 840.7849,-61.4758 839.9397,-68.4246"/>
</g>
<!-- Node26&#45;&gt;Node15 -->
<g id="edge34" class="edge">
<title>Node26&#45;&gt;Node15</title>
<path fill="none" stroke="#191970" d="M840.211,-60.8706C780.2185,-49.2317 684.8915,-30.7376 627.2065,-19.5464"/>
<polygon fill="#191970" stroke="#191970" points="839.7704,-64.3503 850.254,-62.819 841.1036,-57.4784 839.7704,-64.3503"/>
</g>
<!-- Node26&#45;&gt;Node17 -->
<g id="edge35" class="edge">
<title>Node26&#45;&gt;Node17</title>
<path fill="none" stroke="#191970" d="M856.234,-58.7507C820.7528,-47.0818 769.0417,-30.0752 737.0136,-19.5419"/>
<polygon fill="#191970" stroke="#191970" points="855.1883,-62.0912 865.7813,-61.8906 857.3753,-55.4416 855.1883,-62.0912"/>
</g>
<!-- Node26&#45;&gt;Node19 -->
<g id="edge37" class="edge">
<title>Node26&#45;&gt;Node19</title>
<path fill="none" stroke="#191970" d="M875.8529,-55.3692C862.4261,-44.0576 844.9163,-29.3062 833.5671,-19.7449"/>
<polygon fill="#191970" stroke="#191970" points="873.6909,-58.1243 883.5938,-61.8906 878.201,-52.7709 873.6909,-58.1243"/>
</g>
<!-- Node26&#45;&gt;Node20 -->
<g id="edge38" class="edge">
<title>Node26&#45;&gt;Node20</title>
<path fill="none" stroke="#191970" d="M928.2179,-58.1477C957.1894,-46.5023 998.5047,-29.8952 1024.2616,-19.5419"/>
<polygon fill="#191970" stroke="#191970" points="926.8794,-54.9135 918.9063,-61.8906 929.4901,-61.4084 926.8794,-54.9135"/>
</g>
<!-- Node26&#45;&gt;Node21 -->
<g id="edge39" class="edge">
<title>Node26&#45;&gt;Node21</title>
<path fill="none" stroke="#191970" d="M947.3478,-59.7074C999.1552,-48.0365 1077.4832,-30.3912 1125.5439,-19.5643"/>
<polygon fill="#191970" stroke="#191970" points="946.343,-56.3459 937.3567,-61.9581 947.8815,-63.1748 946.343,-56.3459"/>
</g>
<!-- Node26&#45;&gt;Node24 -->
<g id="edge40" class="edge">
<title>Node26&#45;&gt;Node24</title>
<path fill="none" stroke="#191970" d="M949.5404,-63.5888C1016.741,-53.7605 1134.3797,-36.2929 1235,-20 1237.9251,-19.5263 1240.9318,-19.0317 1243.9641,-18.5268"/>
<polygon fill="#191970" stroke="#191970" points="948.9883,-60.1322 939.5991,-65.0408 950,-67.0587 948.9883,-60.1322"/>
</g>
<!-- Node26&#45;&gt;Node25 -->
<g id="edge41" class="edge">
<title>Node26&#45;&gt;Node25</title>
<path fill="none" stroke="#191970" d="M949.5872,-65.6615C1056.6435,-54.2112 1293.5809,-28.8692 1407.045,-16.7335"/>
<polygon fill="#191970" stroke="#191970" points="949.2119,-62.1816 939.6408,-66.7254 949.9564,-69.1419 949.2119,-62.1816"/>
</g>
<!-- Node27 -->
<g id="node28" class="node">
<title>Node27</title>
<g id="a_node28"><a xlink:href="test__gso_8cpp.html" target="_top" xlink:title="tests/test_gso.cpp">
<polygon fill="#ffffff" stroke="#000000" points="887,-.5 887,-19.5 985,-19.5 985,-.5 887,-.5"/>
<text text-anchor="middle" x="936" y="-7.5" font-family="Helvetica,sans-Serif" font-size="10.00" fill="#000000">tests/test_gso.cpp</text>
</a>
</g>
</g>
<!-- Node26&#45;&gt;Node27 -->
<g id="edge36" class="edge">
<title>Node26&#45;&gt;Node27</title>
<path fill="none" stroke="#191970" d="M907.0554,-53.4169C914.3971,-42.4043 923.49,-28.765 929.5034,-19.7449"/>
<polygon fill="#191970" stroke="#191970" points="904.0411,-51.6286 901.4063,-61.8906 909.8655,-55.5116 904.0411,-51.6286"/>
</g>
<!-- Node29&#45;&gt;Node4 -->
<g id="edge45" class="edge">
<title>Node29&#45;&gt;Node4</title>
<path fill="none" stroke="#191970" d="M1404.0829,-128.826C1468.7873,-122.9709 1581.1159,-110.3236 1675,-87 1681.3151,-85.4311 1687.9964,-83.277 1694.1614,-81.0736"/>
<polygon fill="#191970" stroke="#191970" points="1403.3836,-125.3741 1393.7307,-129.7413 1404.0002,-132.3468 1403.3836,-125.3741"/>
</g>
</g>
</svg>
