<?xml version="1.0" encoding="UTF-8" standalone="no"?>
<!DOCTYPE svg PUBLIC "-//W3C//DTD SVG 1.1//EN"
 "http://www.w3.org/Graphics/SVG/1.1/DTD/svg11.dtd">
<!-- Generated by graphviz version 2.38.0 (20140413.2041)
 -->
<!-- Title: fplll/enum/enumerate.h Pages: 1 -->
<svg width="1008pt" height="520pt"
 viewBox="0.00 0.00 1008.00 520.00" xmlns="http://www.w3.org/2000/svg" xmlns:xlink="http://www.w3.org/1999/xlink">
<g id="graph0" class="graph" transform="scale(1 1) rotate(0) translate(4 516)">
<title>fplll/enum/enumerate.h</title>
<polygon fill="white" stroke="none" points="-4,4 -4,-516 1004,-516 1004,4 -4,4"/>
<!-- Node1 -->
<g id="node1" class="node"><title>Node1</title>
<polygon fill="#bfbfbf" stroke="black" points="537,-492.5 537,-511.5 653,-511.5 653,-492.5 537,-492.5"/>
<text text-anchor="middle" x="595" y="-499.5" font-family="Helvetica,sans-Serif" font-size="10.00">fplll/enum/enumerate.h</text>
</g>
<!-- Node2 -->
<g id="node2" class="node"><title>Node2</title>
<g id="a_node2"><a xlink:href="bkz_8h.html" target="_top" xlink:title="fplll/bkz.h">
<polygon fill="white" stroke="black" points="510.5,-436.5 510.5,-455.5 569.5,-455.5 569.5,-436.5 510.5,-436.5"/>
<text text-anchor="middle" x="540" y="-443.5" font-family="Helvetica,sans-Serif" font-size="10.00">fplll/bkz.h</text>
</a>
</g>
</g>
<!-- Node1&#45;&gt;Node2 -->
<g id="edge1" class="edge"><title>Node1&#45;&gt;Node2</title>
<path fill="none" stroke="midnightblue" d="M578.706,-485.002C568.959,-475.433 556.947,-463.639 548.913,-455.751"/>
<polygon fill="midnightblue" stroke="midnightblue" points="576.33,-487.575 585.918,-492.083 581.234,-482.58 576.33,-487.575"/>
</g>
<!-- Node3 -->
<g id="node3" class="node"><title>Node3</title>
<g id="a_node3"><a xlink:href="bkz_8cpp.html" target="_top" xlink:title="fplll/bkz.cpp">
<polygon fill="white" stroke="black" points="429.5,-380.5 429.5,-399.5 498.5,-399.5 498.5,-380.5 429.5,-380.5"/>
<text text-anchor="middle" x="464" y="-387.5" font-family="Helvetica,sans-Serif" font-size="10.00">fplll/bkz.cpp</text>
</a>
</g>
</g>
<!-- Node1&#45;&gt;Node3 -->
<g id="edge30" class="edge"><title>Node1&#45;&gt;Node3</title>
<path fill="none" stroke="midnightblue" d="M557.695,-488.832C539.358,-481.479 517.853,-470.657 502,-456 484.34,-439.672 472.435,-413.236 467.136,-399.658"/>
<polygon fill="midnightblue" stroke="midnightblue" points="556.633,-492.173 567.224,-492.463 559.126,-485.632 556.633,-492.173"/>
</g>
<!-- Node25 -->
<g id="node25" class="node"><title>Node25</title>
<g id="a_node25"><a xlink:href="enumerate_8cpp.html" target="_top" xlink:title="fplll/enum/enumerate.cpp">
<polygon fill="white" stroke="black" points="588,-436.5 588,-455.5 714,-455.5 714,-436.5 588,-436.5"/>
<text text-anchor="middle" x="651" y="-443.5" font-family="Helvetica,sans-Serif" font-size="10.00">fplll/enum/enumerate.cpp</text>
</a>
</g>
</g>
<!-- Node1&#45;&gt;Node25 -->
<g id="edge31" class="edge"><title>Node1&#45;&gt;Node25</title>
<path fill="none" stroke="midnightblue" d="M611.33,-485.253C621.265,-475.673 633.588,-463.791 641.839,-455.834"/>
<polygon fill="midnightblue" stroke="midnightblue" points="608.766,-482.863 603.997,-492.324 613.625,-487.902 608.766,-482.863"/>
</g>
<!-- Node26 -->
<g id="node26" class="node"><title>Node26</title>
<g id="a_node26"><a xlink:href="svpcvp_8cpp.html" target="_top" xlink:title="fplll/svpcvp.cpp">
<polygon fill="white" stroke="black" points="893.5,-380.5 893.5,-399.5 978.5,-399.5 978.5,-380.5 893.5,-380.5"/>
<text text-anchor="middle" x="936" y="-387.5" font-family="Helvetica,sans-Serif" font-size="10.00">fplll/svpcvp.cpp</text>
</a>
</g>
</g>
<!-- Node1&#45;&gt;Node26 -->
<g id="edge32" class="edge"><title>Node1&#45;&gt;Node26</title>
<path fill="none" stroke="midnightblue" d="M631.028,-489.378C699.845,-467.179 848.543,-419.212 909.308,-399.61"/>
<polygon fill="midnightblue" stroke="midnightblue" points="629.917,-486.059 621.474,-492.46 632.066,-492.721 629.917,-486.059"/>
</g>
<!-- Node2&#45;&gt;Node3 -->
<g id="edge2" class="edge"><title>Node2&#45;&gt;Node3</title>
<path fill="none" stroke="midnightblue" d="M519.424,-430.38C505.688,-420.62 488.075,-408.106 476.433,-399.834"/>
<polygon fill="midnightblue" stroke="midnightblue" points="517.61,-433.385 527.789,-436.324 521.665,-427.679 517.61,-433.385"/>
</g>
<!-- Node4 -->
<g id="node4" class="node"><title>Node4</title>
<g id="a_node4"><a xlink:href="fplll_8h.html" target="_top" xlink:title="fplll/fplll.h">
<polygon fill="white" stroke="black" points="517,-380.5 517,-399.5 575,-399.5 575,-380.5 517,-380.5"/>
<text text-anchor="middle" x="546" y="-387.5" font-family="Helvetica,sans-Serif" font-size="10.00">fplll/fplll.h</text>
</a>
</g>
</g>
<!-- Node2&#45;&gt;Node4 -->
<g id="edge3" class="edge"><title>Node2&#45;&gt;Node4</title>
<path fill="none" stroke="midnightblue" d="M542.1,-426.101C543.096,-417.136 544.238,-406.858 545.028,-399.751"/>
<polygon fill="midnightblue" stroke="midnightblue" points="538.617,-425.758 540.991,-436.083 545.574,-426.531 538.617,-425.758"/>
</g>
<!-- Node5 -->
<g id="node5" class="node"><title>Node5</title>
<g id="a_node5"><a xlink:href="fplll_8cpp.html" target="_top" xlink:title="fplll/fplll.cpp">
<polygon fill="white" stroke="black" points="932,-319 932,-338 1000,-338 1000,-319 932,-319"/>
<text text-anchor="middle" x="966" y="-326" font-family="Helvetica,sans-Serif" font-size="10.00">fplll/fplll.cpp</text>
</a>
</g>
</g>
<!-- Node4&#45;&gt;Node5 -->
<g id="edge4" class="edge"><title>Node4&#45;&gt;Node5</title>
<path fill="none" stroke="midnightblue" d="M585.192,-386.991C654.203,-382.864 801.6,-371.405 923,-344 929.763,-342.473 936.957,-340.283 943.487,-338.065"/>
<polygon fill="midnightblue" stroke="midnightblue" points="584.978,-383.497 575.198,-387.57 585.383,-390.486 584.978,-383.497"/>
</g>
<!-- Node6 -->
<g id="node6" class="node"><title>Node6</title>
<g id="a_node6"><a xlink:href="main_8h.html" target="_top" xlink:title="fplll/main.h">
<polygon fill="white" stroke="black" points="64,-319 64,-338 128,-338 128,-319 64,-319"/>
<text text-anchor="middle" x="96" y="-326" font-family="Helvetica,sans-Serif" font-size="10.00">fplll/main.h</text>
</a>
</g>
</g>
<!-- Node4&#45;&gt;Node6 -->
<g id="edge5" class="edge"><title>Node4&#45;&gt;Node6</title>
<path fill="none" stroke="midnightblue" d="M506.518,-379.916C368.766,-356.148 331.175,-361.595 196,-344 173.385,-341.056 147.951,-337.363 128.393,-334.441"/>
<polygon fill="midnightblue" stroke="midnightblue" points="506.159,-383.407 516.612,-381.679 507.364,-376.511 506.159,-383.407"/>
</g>
<!-- Node8 -->
<g id="node8" class="node"><title>Node8</title>
<g id="a_node8"><a xlink:href="sampler__basic_8h.html" target="_top" xlink:title="fplll/sieve/sampler\l_basic.h">
<polygon fill="white" stroke="black" points="205.5,-313.5 205.5,-343.5 300.5,-343.5 300.5,-313.5 205.5,-313.5"/>
<text text-anchor="start" x="213.5" y="-331.5" font-family="Helvetica,sans-Serif" font-size="10.00">fplll/sieve/sampler</text>
<text text-anchor="middle" x="253" y="-320.5" font-family="Helvetica,sans-Serif" font-size="10.00">_basic.h</text>
</a>
</g>
</g>
<!-- Node4&#45;&gt;Node8 -->
<g id="edge7" class="edge"><title>Node4&#45;&gt;Node8</title>
<path fill="none" stroke="midnightblue" d="M507.034,-379.881C420.943,-361.916 397.308,-361.292 315,-344 310.348,-343.023 305.51,-341.965 300.679,-340.88"/>
<polygon fill="midnightblue" stroke="midnightblue" points="506.48,-383.341 516.986,-381.976 507.922,-376.491 506.48,-383.341"/>
</g>
<!-- Node11 -->
<g id="node11" class="node"><title>Node11</title>
<g id="a_node11"><a xlink:href="sieve__common_8h.html" target="_top" xlink:title="fplll/sieve/sieve_common.h">
<polygon fill="white" stroke="black" points="318.5,-252 318.5,-271 453.5,-271 453.5,-252 318.5,-252"/>
<text text-anchor="middle" x="386" y="-259" font-family="Helvetica,sans-Serif" font-size="10.00">fplll/sieve/sieve_common.h</text>
</a>
</g>
</g>
<!-- Node4&#45;&gt;Node11 -->
<g id="edge24" class="edge"><title>Node4&#45;&gt;Node11</title>
<path fill="none" stroke="midnightblue" d="M506.851,-380.001C433.242,-366.633 391.577,-398.471 348,-344 329.373,-320.716 359.694,-286.809 376.292,-271.091"/>
<polygon fill="midnightblue" stroke="midnightblue" points="506.461,-383.494 516.962,-382.087 507.875,-376.639 506.461,-383.494"/>
</g>
<!-- Node20 -->
<g id="node20" class="node"><title>Node20</title>
<g id="a_node20"><a xlink:href="test__bkz_8cpp.html" target="_top" xlink:title="tests/test_bkz.cpp">
<polygon fill="white" stroke="black" points="357,-319 357,-338 455,-338 455,-319 357,-319"/>
<text text-anchor="middle" x="406" y="-326" font-family="Helvetica,sans-Serif" font-size="10.00">tests/test_bkz.cpp</text>
</a>
</g>
</g>
<!-- Node4&#45;&gt;Node20 -->
<g id="edge25" class="edge"><title>Node4&#45;&gt;Node20</title>
<path fill="none" stroke="midnightblue" d="M516.54,-376.48C489.35,-364.924 449.708,-348.076 426.021,-338.009"/>
<polygon fill="midnightblue" stroke="midnightblue" points="515.369,-379.785 525.941,-380.475 518.107,-373.342 515.369,-379.785"/>
</g>
<!-- Node21 -->
<g id="node21" class="node"><title>Node21</title>
<g id="a_node21"><a xlink:href="test__lll_8cpp.html" target="_top" xlink:title="tests/test_lll.cpp">
<polygon fill="white" stroke="black" points="472.5,-319 472.5,-338 561.5,-338 561.5,-319 472.5,-319"/>
<text text-anchor="middle" x="517" y="-326" font-family="Helvetica,sans-Serif" font-size="10.00">tests/test_lll.cpp</text>
</a>
</g>
</g>
<!-- Node4&#45;&gt;Node21 -->
<g id="edge26" class="edge"><title>Node4&#45;&gt;Node21</title>
<path fill="none" stroke="midnightblue" d="M537.39,-371.335C532.025,-360.328 525.365,-346.663 521.147,-338.009"/>
<polygon fill="midnightblue" stroke="midnightblue" points="534.317,-373.019 541.845,-380.475 540.61,-369.952 534.317,-373.019"/>
</g>
<!-- Node22 -->
<g id="node22" class="node"><title>Node22</title>
<g id="a_node22"><a xlink:href="test__nr_8cpp.html" target="_top" xlink:title="tests/test_nr.cpp">
<polygon fill="white" stroke="black" points="580,-319 580,-338 670,-338 670,-319 580,-319"/>
<text text-anchor="middle" x="625" y="-326" font-family="Helvetica,sans-Serif" font-size="10.00">tests/test_nr.cpp</text>
</a>
</g>
</g>
<!-- Node4&#45;&gt;Node22 -->
<g id="edge27" class="edge"><title>Node4&#45;&gt;Node22</title>
<path fill="none" stroke="midnightblue" d="M565.526,-374.294C580.68,-362.88 601.157,-347.458 613.702,-338.009"/>
<polygon fill="midnightblue" stroke="midnightblue" points="563.201,-371.663 557.319,-380.475 567.412,-377.255 563.201,-371.663"/>
</g>
<!-- Node23 -->
<g id="node23" class="node"><title>Node23</title>
<g id="a_node23"><a xlink:href="test__pruner_8cpp.html" target="_top" xlink:title="tests/test_pruner.cpp">
<polygon fill="white" stroke="black" points="688.5,-319 688.5,-338 797.5,-338 797.5,-319 688.5,-319"/>
<text text-anchor="middle" x="743" y="-326" font-family="Helvetica,sans-Serif" font-size="10.00">tests/test_pruner.cpp</text>
</a>
</g>
</g>
<!-- Node4&#45;&gt;Node23 -->
<g id="edge28" class="edge"><title>Node4&#45;&gt;Node23</title>
<path fill="none" stroke="midnightblue" d="M583.981,-377.529C622.268,-365.965 680.474,-348.385 714.827,-338.009"/>
<polygon fill="midnightblue" stroke="midnightblue" points="582.786,-374.233 574.225,-380.475 584.81,-380.934 582.786,-374.233"/>
</g>
<!-- Node24 -->
<g id="node24" class="node"><title>Node24</title>
<g id="a_node24"><a xlink:href="test__svp_8cpp.html" target="_top" xlink:title="tests/test_svp.cpp">
<polygon fill="white" stroke="black" points="816,-319 816,-338 914,-338 914,-319 816,-319"/>
<text text-anchor="middle" x="865" y="-326" font-family="Helvetica,sans-Serif" font-size="10.00">tests/test_svp.cpp</text>
</a>
</g>
</g>
<!-- Node4&#45;&gt;Node24 -->
<g id="edge29" class="edge"><title>Node4&#45;&gt;Node24</title>
<path fill="none" stroke="midnightblue" d="M585.074,-383.19C636.261,-375.368 728.71,-360.512 807,-344 815.328,-342.244 824.271,-340.125 832.582,-338.056"/>
<polygon fill="midnightblue" stroke="midnightblue" points="584.462,-379.743 575.101,-384.705 585.513,-386.664 584.462,-379.743"/>
</g>
<!-- Node7 -->
<g id="node7" class="node"><title>Node7</title>
<g id="a_node7"><a xlink:href="main_8cpp.html" target="_top" xlink:title="fplll/main.cpp">
<polygon fill="white" stroke="black" points="0,-252 0,-271 74,-271 74,-252 0,-252"/>
<text text-anchor="middle" x="37" y="-259" font-family="Helvetica,sans-Serif" font-size="10.00">fplll/main.cpp</text>
</a>
</g>
</g>
<!-- Node6&#45;&gt;Node7 -->
<g id="edge6" class="edge"><title>Node6&#45;&gt;Node7</title>
<path fill="none" stroke="midnightblue" d="M81.1455,-311.135C69.6068,-298.423 54.0626,-281.298 44.8309,-271.127"/>
<polygon fill="midnightblue" stroke="midnightblue" points="78.7303,-313.682 88.043,-318.734 83.9135,-308.977 78.7303,-313.682"/>
</g>
<!-- Node9 -->
<g id="node9" class="node"><title>Node9</title>
<g id="a_node9"><a xlink:href="sampler__basic_8cpp.html" target="_top" xlink:title="fplll/sieve/sampler\l_basic.cpp">
<polygon fill="white" stroke="black" points="92.5,-246.5 92.5,-276.5 187.5,-276.5 187.5,-246.5 92.5,-246.5"/>
<text text-anchor="start" x="100.5" y="-264.5" font-family="Helvetica,sans-Serif" font-size="10.00">fplll/sieve/sampler</text>
<text text-anchor="middle" x="140" y="-253.5" font-family="Helvetica,sans-Serif" font-size="10.00">_basic.cpp</text>
</a>
</g>
</g>
<!-- Node8&#45;&gt;Node9 -->
<g id="edge8" class="edge"><title>Node8&#45;&gt;Node9</title>
<path fill="none" stroke="midnightblue" d="M219.614,-308.296C201.932,-298.125 180.602,-285.855 164.471,-276.577"/>
<polygon fill="midnightblue" stroke="midnightblue" points="218.067,-311.444 228.481,-313.396 221.558,-305.376 218.067,-311.444"/>
</g>
<!-- Node10 -->
<g id="node10" class="node"><title>Node10</title>
<g id="a_node10"><a xlink:href="sampler__main_8cpp.html" target="_top" xlink:title="fplll/sieve/sampler\l_main.cpp">
<polygon fill="white" stroke="black" points="205.5,-246.5 205.5,-276.5 300.5,-276.5 300.5,-246.5 205.5,-246.5"/>
<text text-anchor="start" x="213.5" y="-264.5" font-family="Helvetica,sans-Serif" font-size="10.00">fplll/sieve/sampler</text>
<text text-anchor="middle" x="253" y="-253.5" font-family="Helvetica,sans-Serif" font-size="10.00">_main.cpp</text>
</a>
</g>
</g>
<!-- Node8&#45;&gt;Node10 -->
<g id="edge9" class="edge"><title>Node8&#45;&gt;Node10</title>
<path fill="none" stroke="midnightblue" d="M253,-303.108C253,-294.154 253,-284.323 253,-276.577"/>
<polygon fill="midnightblue" stroke="midnightblue" points="249.5,-303.396 253,-313.396 256.5,-303.396 249.5,-303.396"/>
</g>
<!-- Node8&#45;&gt;Node11 -->
<g id="edge10" class="edge"><title>Node8&#45;&gt;Node11</title>
<path fill="none" stroke="midnightblue" d="M290.921,-308.967C316.47,-296.481 348.969,-280.598 368.593,-271.007"/>
<polygon fill="midnightblue" stroke="midnightblue" points="289.307,-305.86 281.859,-313.396 292.38,-312.15 289.307,-305.86"/>
</g>
<!-- Node12 -->
<g id="node12" class="node"><title>Node12</title>
<g id="a_node12"><a xlink:href="sieve__gauss__str_8h.html" target="_top" xlink:title="fplll/sieve/sieve_gauss\l_str.h">
<polygon fill="white" stroke="black" points="328,-179.5 328,-209.5 444,-209.5 444,-179.5 328,-179.5"/>
<text text-anchor="start" x="336" y="-197.5" font-family="Helvetica,sans-Serif" font-size="10.00">fplll/sieve/sieve_gauss</text>
<text text-anchor="middle" x="386" y="-186.5" font-family="Helvetica,sans-Serif" font-size="10.00">_str.h</text>
</a>
</g>
</g>
<!-- Node11&#45;&gt;Node12 -->
<g id="edge11" class="edge"><title>Node11&#45;&gt;Node12</title>
<path fill="none" stroke="midnightblue" d="M379.817,-241.739C378.919,-231.487 379.088,-219.001 380.324,-209.589"/>
<polygon fill="midnightblue" stroke="midnightblue" points="376.364,-242.313 381.211,-251.734 383.297,-241.346 376.364,-242.313"/>
</g>
<!-- Node13 -->
<g id="node13" class="node"><title>Node13</title>
<g id="a_node13"><a xlink:href="sieve__gauss_8h.html" target="_top" xlink:title="fplll/sieve/sieve_gauss.h">
<polygon fill="white" stroke="black" points="367,-123.5 367,-142.5 491,-142.5 491,-123.5 367,-123.5"/>
<text text-anchor="middle" x="429" y="-130.5" font-family="Helvetica,sans-Serif" font-size="10.00">fplll/sieve/sieve_gauss.h</text>
</a>
</g>
</g>
<!-- Node11&#45;&gt;Node13 -->
<g id="edge23" class="edge"><title>Node11&#45;&gt;Node13</title>
<path fill="none" stroke="midnightblue" d="M414.689,-246.933C429.005,-238.492 444.95,-226.147 453,-210 464.482,-186.967 446.61,-157.284 435.977,-142.773"/>
<polygon fill="midnightblue" stroke="midnightblue" points="412.695,-244.034 405.615,-251.917 416.065,-250.17 412.695,-244.034"/>
</g>
<!-- Node12&#45;&gt;Node11 -->
<g id="edge12" class="edge"><title>Node12&#45;&gt;Node11</title>
<path fill="none" stroke="midnightblue" d="M392.551,-219.714C393.1,-230.923 392.513,-243.541 390.789,-251.734"/>
<polygon fill="midnightblue" stroke="midnightblue" points="396.024,-219.251 391.676,-209.589 389.05,-219.853 396.024,-219.251"/>
</g>
<!-- Node12&#45;&gt;Node13 -->
<g id="edge13" class="edge"><title>Node12&#45;&gt;Node13</title>
<path fill="none" stroke="midnightblue" d="M402.185,-171.104C409.352,-161.187 417.36,-150.106 422.743,-142.658"/>
<polygon fill="midnightblue" stroke="midnightblue" points="399.211,-169.244 396.19,-179.399 404.885,-173.344 399.211,-169.244"/>
</g>
<!-- Node14 -->
<g id="node14" class="node"><title>Node14</title>
<g id="a_node14"><a xlink:href="sieve__gauss_8cpp.html" target="_top" xlink:title="fplll/sieve/sieve_gauss.cpp">
<polygon fill="white" stroke="black" points="295,-0.5 295,-19.5 429,-19.5 429,-0.5 295,-0.5"/>
<text text-anchor="middle" x="362" y="-7.5" font-family="Helvetica,sans-Serif" font-size="10.00">fplll/sieve/sieve_gauss.cpp</text>
</a>
</g>
</g>
<!-- Node13&#45;&gt;Node14 -->
<g id="edge14" class="edge"><title>Node13&#45;&gt;Node14</title>
<path fill="none" stroke="midnightblue" d="M356.884,-125.287C306.002,-118.884 244.137,-107.149 228,-87 200.08,-52.1379 265.611,-30.4179 314.55,-19.5294"/>
<polygon fill="midnightblue" stroke="midnightblue" points="356.55,-128.771 366.897,-126.497 357.39,-121.822 356.55,-128.771"/>
</g>
<!-- Node15 -->
<g id="node15" class="node"><title>Node15</title>
<g id="a_node15"><a xlink:href="sieve__gauss__2sieve_8cpp.html" target="_top" xlink:title="fplll/sieve/sieve_gauss\l_2sieve.cpp">
<polygon fill="white" stroke="black" points="237,-56.5 237,-86.5 353,-86.5 353,-56.5 237,-56.5"/>
<text text-anchor="start" x="245" y="-74.5" font-family="Helvetica,sans-Serif" font-size="10.00">fplll/sieve/sieve_gauss</text>
<text text-anchor="middle" x="295" y="-63.5" font-family="Helvetica,sans-Serif" font-size="10.00">_2sieve.cpp</text>
</a>
</g>
</g>
<!-- Node13&#45;&gt;Node15 -->
<g id="edge15" class="edge"><title>Node13&#45;&gt;Node15</title>
<path fill="none" stroke="midnightblue" d="M400.467,-119.331C378.787,-109.704 348.978,-96.468 326.581,-86.523"/>
<polygon fill="midnightblue" stroke="midnightblue" points="399.241,-122.616 409.801,-123.475 402.082,-116.218 399.241,-122.616"/>
</g>
<!-- Node16 -->
<g id="node16" class="node"><title>Node16</title>
<g id="a_node16"><a xlink:href="sieve__gauss__3sieve_8cpp.html" target="_top" xlink:title="fplll/sieve/sieve_gauss\l_3sieve.cpp">
<polygon fill="white" stroke="black" points="371,-56.5 371,-86.5 487,-86.5 487,-56.5 371,-56.5"/>
<text text-anchor="start" x="379" y="-74.5" font-family="Helvetica,sans-Serif" font-size="10.00">fplll/sieve/sieve_gauss</text>
<text text-anchor="middle" x="429" y="-63.5" font-family="Helvetica,sans-Serif" font-size="10.00">_3sieve.cpp</text>
</a>
</g>
</g>
<!-- Node13&#45;&gt;Node16 -->
<g id="edge17" class="edge"><title>Node13&#45;&gt;Node16</title>
<path fill="none" stroke="midnightblue" d="M429,-113.235C429,-104.586 429,-94.4969 429,-86.523"/>
<polygon fill="midnightblue" stroke="midnightblue" points="425.5,-113.475 429,-123.475 432.5,-113.475 425.5,-113.475"/>
</g>
<!-- Node17 -->
<g id="node17" class="node"><title>Node17</title>
<g id="a_node17"><a xlink:href="sieve__gauss__4sieve_8cpp.html" target="_top" xlink:title="fplll/sieve/sieve_gauss\l_4sieve.cpp">
<polygon fill="white" stroke="black" points="505,-56.5 505,-86.5 621,-86.5 621,-56.5 505,-56.5"/>
<text text-anchor="start" x="513" y="-74.5" font-family="Helvetica,sans-Serif" font-size="10.00">fplll/sieve/sieve_gauss</text>
<text text-anchor="middle" x="563" y="-63.5" font-family="Helvetica,sans-Serif" font-size="10.00">_4sieve.cpp</text>
</a>
</g>
</g>
<!-- Node13&#45;&gt;Node17 -->
<g id="edge19" class="edge"><title>Node13&#45;&gt;Node17</title>
<path fill="none" stroke="midnightblue" d="M457.533,-119.331C479.213,-109.704 509.022,-96.468 531.419,-86.523"/>
<polygon fill="midnightblue" stroke="midnightblue" points="455.918,-116.218 448.199,-123.475 458.759,-122.616 455.918,-116.218"/>
</g>
<!-- Node18 -->
<g id="node18" class="node"><title>Node18</title>
<g id="a_node18"><a xlink:href="sieve__main_8h.html" target="_top" xlink:title="fplll/sieve/sieve_main.h">
<polygon fill="white" stroke="black" points="639.5,-62 639.5,-81 758.5,-81 758.5,-62 639.5,-62"/>
<text text-anchor="middle" x="699" y="-69" font-family="Helvetica,sans-Serif" font-size="10.00">fplll/sieve/sieve_main.h</text>
</a>
</g>
</g>
<!-- Node13&#45;&gt;Node18 -->
<g id="edge21" class="edge"><title>Node13&#45;&gt;Node18</title>
<path fill="none" stroke="midnightblue" d="M477.743,-121.258C530.12,-109.716 612.302,-91.6056 660.387,-81.0091"/>
<polygon fill="midnightblue" stroke="midnightblue" points="476.697,-117.905 467.684,-123.475 478.203,-124.741 476.697,-117.905"/>
</g>
<!-- Node15&#45;&gt;Node14 -->
<g id="edge16" class="edge"><title>Node15&#45;&gt;Node14</title>
<path fill="none" stroke="midnightblue" d="M318.538,-49.5972C330.116,-39.3153 343.44,-27.4824 352.251,-19.6578"/>
<polygon fill="midnightblue" stroke="midnightblue" points="316.031,-47.1421 310.878,-56.3993 320.679,-52.3761 316.031,-47.1421"/>
</g>
<!-- Node16&#45;&gt;Node14 -->
<g id="edge18" class="edge"><title>Node16&#45;&gt;Node14</title>
<path fill="none" stroke="midnightblue" d="M405.462,-49.5972C393.884,-39.3153 380.56,-27.4824 371.749,-19.6578"/>
<polygon fill="midnightblue" stroke="midnightblue" points="403.321,-52.3761 413.122,-56.3993 407.969,-47.1421 403.321,-52.3761"/>
</g>
<!-- Node17&#45;&gt;Node14 -->
<g id="edge20" class="edge"><title>Node17&#45;&gt;Node14</title>
<path fill="none" stroke="midnightblue" d="M505.802,-53.5681C468.209,-42.44 420.622,-28.3534 390.736,-19.5064"/>
<polygon fill="midnightblue" stroke="midnightblue" points="505.038,-56.9922 515.62,-56.4747 507.025,-50.2801 505.038,-56.9922"/>
</g>
<!-- Node19 -->
<g id="node19" class="node"><title>Node19</title>
<g id="a_node19"><a xlink:href="sieve__main_8cpp.html" target="_top" xlink:title="fplll/sieve/sieve_main.cpp">
<polygon fill="white" stroke="black" points="634.5,-0.5 634.5,-19.5 763.5,-19.5 763.5,-0.5 634.5,-0.5"/>
<text text-anchor="middle" x="699" y="-7.5" font-family="Helvetica,sans-Serif" font-size="10.00">fplll/sieve/sieve_main.cpp</text>
</a>
</g>
</g>
<!-- Node18&#45;&gt;Node19 -->
<g id="edge22" class="edge"><title>Node18&#45;&gt;Node19</title>
<path fill="none" stroke="midnightblue" d="M699,-51.8165C699,-40.9962 699,-27.898 699,-19.5091"/>
<polygon fill="midnightblue" stroke="midnightblue" points="695.5,-51.9751 699,-61.9751 702.5,-51.9751 695.5,-51.9751"/>
</g>
<!-- Node26&#45;&gt;Node5 -->
<g id="edge33" class="edge"><title>Node26&#45;&gt;Node5</title>
<path fill="none" stroke="midnightblue" d="M944.907,-371.335C950.456,-360.328 957.346,-346.663 961.71,-338.009"/>
<polygon fill="midnightblue" stroke="midnightblue" points="941.675,-369.97 940.298,-380.475 947.926,-373.122 941.675,-369.97"/>
</g>
</g>
</svg>
