<?xml version="1.0" encoding="UTF-8" standalone="no"?>
<!DOCTYPE svg PUBLIC "-//W3C//DTD SVG 1.1//EN"
 "http://www.w3.org/Graphics/SVG/1.1/DTD/svg11.dtd">
<!-- Generated by graphviz version 2.40.1 (20161225.0304)
 -->
<!-- Title: fplll/enum/enumerate.h Pages: 1 -->
<svg width="1814pt" height="263pt"
 viewBox="0.00 0.00 1814.00 263.00" xmlns="http://www.w3.org/2000/svg" xmlns:xlink="http://www.w3.org/1999/xlink">
<g id="graph0" class="graph" transform="scale(1 1) rotate(0) translate(4 259)">
<title>fplll/enum/enumerate.h</title>
<polygon fill="#ffffff" stroke="transparent" points="-4,4 -4,-259 1810,-259 1810,4 -4,4"/>
<!-- Node0 -->
<g id="node1" class="node">
<title>Node0</title>
<polygon fill="#bfbfbf" stroke="#000000" points="954,-235.5 954,-254.5 1070,-254.5 1070,-235.5 954,-235.5"/>
<text text-anchor="middle" x="1012" y="-242.5" font-family="Helvetica,sans-Serif" font-size="10.00" fill="#000000">fplll/enum/enumerate.h</text>
</g>
<!-- Node1 -->
<g id="node2" class="node">
<title>Node1</title>
<g id="a_node2"><a xlink:href="bkz_8h.html" target="_top" xlink:title="fplll/bkz.h">
<polygon fill="#ffffff" stroke="#000000" points="953.5,-179.5 953.5,-198.5 1012.5,-198.5 1012.5,-179.5 953.5,-179.5"/>
<text text-anchor="middle" x="983" y="-186.5" font-family="Helvetica,sans-Serif" font-size="10.00" fill="#000000">fplll/bkz.h</text>
</a>
</g>
</g>
<!-- Node0&#45;&gt;Node1 -->
<g id="edge1" class="edge">
<title>Node0&#45;&gt;Node1</title>
<path fill="none" stroke="#191970" d="M1002.3353,-226.3372C997.5313,-217.0605 991.9277,-206.2398 987.9935,-198.6427"/>
<polygon fill="#191970" stroke="#191970" points="999.242,-227.9751 1006.9486,-235.2455 1005.458,-224.7561 999.242,-227.9751"/>
</g>
<!-- Node2 -->
<g id="node3" class="node">
<title>Node2</title>
<g id="a_node3"><a xlink:href="bkz_8cpp.html" target="_top" xlink:title="fplll/bkz.cpp">
<polygon fill="#ffffff" stroke="#000000" points="872.5,-123.5 872.5,-142.5 941.5,-142.5 941.5,-123.5 872.5,-123.5"/>
<text text-anchor="middle" x="907" y="-130.5" font-family="Helvetica,sans-Serif" font-size="10.00" fill="#000000">fplll/bkz.cpp</text>
</a>
</g>
</g>
<!-- Node0&#45;&gt;Node2 -->
<g id="edge44" class="edge">
<title>Node0&#45;&gt;Node2</title>
<path fill="none" stroke="#191970" d="M984.4303,-230.3934C971.095,-222.3823 955.5226,-211.5311 944,-199 928.1734,-181.7882 916.4677,-156.6032 910.8037,-142.854"/>
<polygon fill="#191970" stroke="#191970" points="982.8172,-233.5035 993.2277,-235.4715 986.3167,-227.441 982.8172,-233.5035"/>
</g>
<!-- Node29 -->
<g id="node30" class="node">
<title>Node29</title>
<g id="a_node30"><a xlink:href="enumerate_8cpp.html" target="_top" xlink:title="fplll/enum/enumerate.cpp">
<polygon fill="#ffffff" stroke="#000000" points="1069,-179.5 1069,-198.5 1195,-198.5 1195,-179.5 1069,-179.5"/>
<text text-anchor="middle" x="1132" y="-186.5" font-family="Helvetica,sans-Serif" font-size="10.00" fill="#000000">fplll/enum/enumerate.cpp</text>
</a>
</g>
</g>
<!-- Node0&#45;&gt;Node29 -->
<g id="edge45" class="edge">
<title>Node0&#45;&gt;Node29</title>
<path fill="none" stroke="#191970" d="M1041.7624,-231.1109C1063.5232,-220.9559 1092.4682,-207.4482 1111.6405,-198.5011"/>
<polygon fill="#191970" stroke="#191970" points="1040.2105,-227.9727 1032.6287,-235.3733 1043.1707,-234.316 1040.2105,-227.9727"/>
</g>
<!-- Node30 -->
<g id="node31" class="node">
<title>Node30</title>
<g id="a_node31"><a xlink:href="svpcvp_8cpp.html" target="_top" xlink:title="fplll/svpcvp.cpp">
<polygon fill="#ffffff" stroke="#000000" points="1392.5,-123.5 1392.5,-142.5 1477.5,-142.5 1477.5,-123.5 1392.5,-123.5"/>
<text text-anchor="middle" x="1435" y="-130.5" font-family="Helvetica,sans-Serif" font-size="10.00" fill="#000000">fplll/svpcvp.cpp</text>
</a>
</g>
</g>
<!-- Node0&#45;&gt;Node30 -->
<g id="edge46" class="edge">
<title>Node0&#45;&gt;Node30</title>
<path fill="none" stroke="#191970" d="M1020.3058,-226.2569C1028.1871,-210.8477 1041.5707,-189.8483 1060,-179 1115.4661,-146.3501 1306.2707,-136.726 1392.3161,-134.012"/>
<polygon fill="#191970" stroke="#191970" points="1017.0839,-224.8817 1015.9236,-235.4128 1023.3979,-227.9038 1017.0839,-224.8817"/>
</g>
<!-- Node1&#45;&gt;Node2 -->
<g id="edge2" class="edge">
<title>Node1&#45;&gt;Node2</title>
<path fill="none" stroke="#191970" d="M961.5703,-173.2097C948.2223,-163.3743 931.4821,-151.0394 920.0865,-142.6427"/>
<polygon fill="#191970" stroke="#191970" points="959.635,-176.1312 969.7618,-179.2455 963.7874,-170.4958 959.635,-176.1312"/>
</g>
<!-- Node3 -->
<g id="node4" class="node">
<title>Node3</title>
<g id="a_node4"><a xlink:href="fplll_8h.html" target="_top" xlink:title="fplll/fplll.h">
<polygon fill="#ffffff" stroke="#000000" points="960,-123.5 960,-142.5 1018,-142.5 1018,-123.5 960,-123.5"/>
<text text-anchor="middle" x="989" y="-130.5" font-family="Helvetica,sans-Serif" font-size="10.00" fill="#000000">fplll/fplll.h</text>
</a>
</g>
</g>
<!-- Node1&#45;&gt;Node3 -->
<g id="edge3" class="edge">
<title>Node1&#45;&gt;Node3</title>
<path fill="none" stroke="#191970" d="M985.126,-169.1575C986.0905,-160.155 987.1872,-149.9199 987.9669,-142.6427"/>
<polygon fill="#191970" stroke="#191970" points="981.6305,-168.9296 984.0451,-179.2455 988.5906,-169.6753 981.6305,-168.9296"/>
</g>
<!-- Node4 -->
<g id="node5" class="node">
<title>Node4</title>
<g id="a_node5"><a xlink:href="fplll_8cpp.html" target="_top" xlink:title="fplll/fplll.cpp">
<polygon fill="#ffffff" stroke="#000000" points="1738,-62 1738,-81 1806,-81 1806,-62 1738,-62"/>
<text text-anchor="middle" x="1772" y="-69" font-family="Helvetica,sans-Serif" font-size="10.00" fill="#000000">fplll/fplll.cpp</text>
</a>
</g>
</g>
<!-- Node3&#45;&gt;Node4 -->
<g id="edge4" class="edge">
<title>Node3&#45;&gt;Node4</title>
<path fill="none" stroke="#191970" d="M1028.2091,-132.0282C1161.006,-128.5079 1593.08,-115.1223 1729,-87 1735.683,-85.6173 1742.7285,-83.4143 1749.1389,-81.0983"/>
<polygon fill="#191970" stroke="#191970" points="1027.9957,-128.5325 1018.0905,-132.2926 1028.1786,-135.5301 1027.9957,-128.5325"/>
</g>
<!-- Node5 -->
<g id="node6" class="node">
<title>Node5</title>
<g id="a_node6"><a xlink:href="main_8h.html" target="_top" xlink:title="fplll/main.h">
<polygon fill="#ffffff" stroke="#000000" points="1656,-62 1656,-81 1720,-81 1720,-62 1656,-62"/>
<text text-anchor="middle" x="1688" y="-69" font-family="Helvetica,sans-Serif" font-size="10.00" fill="#000000">fplll/main.h</text>
</a>
</g>
</g>
<!-- Node3&#45;&gt;Node5 -->
<g id="edge5" class="edge">
<title>Node3&#45;&gt;Node5</title>
<path fill="none" stroke="#191970" d="M1028.3842,-131.5409C1150.7832,-126.7993 1523.4334,-110.7469 1642,-87 1649.1063,-85.5767 1656.6294,-83.3605 1663.4872,-81.0446"/>
<polygon fill="#191970" stroke="#191970" points="1028.1906,-128.0457 1018.3322,-131.9266 1028.4591,-135.0405 1028.1906,-128.0457"/>
</g>
<!-- Node7 -->
<g id="node8" class="node">
<title>Node7</title>
<g id="a_node8"><a xlink:href="pruner_8cpp.html" target="_top" xlink:title="fplll/pruner/pruner.cpp">
<polygon fill="#ffffff" stroke="#000000" points="321,-.5 321,-19.5 431,-19.5 431,-.5 321,-.5"/>
<text text-anchor="middle" x="376" y="-7.5" font-family="Helvetica,sans-Serif" font-size="10.00" fill="#000000">fplll/pruner/pruner.cpp</text>
</a>
</g>
</g>
<!-- Node3&#45;&gt;Node7 -->
<g id="edge7" class="edge">
<title>Node3&#45;&gt;Node7</title>
<path fill="none" stroke="#191970" d="M949.722,-123.2778C784.6622,-96.4727 729.1992,-148.8303 579,-87 558.845,-78.7031 560.3521,-66.0279 541,-56 506.543,-38.1449 464.3389,-26.54 431.2402,-19.4529"/>
<polygon fill="#191970" stroke="#191970" points="949.2733,-126.7517 959.7182,-124.9755 950.4454,-119.8505 949.2733,-126.7517"/>
</g>
<!-- Node8 -->
<g id="node9" class="node">
<title>Node8</title>
<g id="a_node9"><a xlink:href="pruner__cost_8cpp.html" target="_top" xlink:title="fplll/pruner/pruner\l_cost.cpp">
<polygon fill="#ffffff" stroke="#000000" points="736,-56.5 736,-86.5 828,-86.5 828,-56.5 736,-56.5"/>
<text text-anchor="start" x="744" y="-74.5" font-family="Helvetica,sans-Serif" font-size="10.00" fill="#000000">fplll/pruner/pruner</text>
<text text-anchor="middle" x="782" y="-63.5" font-family="Helvetica,sans-Serif" font-size="10.00" fill="#000000">_cost.cpp</text>
</a>
</g>
</g>
<!-- Node3&#45;&gt;Node8 -->
<g id="edge8" class="edge">
<title>Node3&#45;&gt;Node8</title>
<path fill="none" stroke="#191970" d="M950.0339,-121.4231C915.4431,-111.1461 864.8502,-96.1149 828.2243,-85.2333"/>
<polygon fill="#191970" stroke="#191970" points="949.1983,-124.826 959.781,-124.319 951.1919,-118.1159 949.1983,-124.826"/>
</g>
<!-- Node9 -->
<g id="node10" class="node">
<title>Node9</title>
<g id="a_node10"><a xlink:href="pruner__optimize_8cpp.html" target="_top" xlink:title="fplll/pruner/pruner\l_optimize.cpp">
<polygon fill="#ffffff" stroke="#000000" points="110,-56.5 110,-86.5 202,-86.5 202,-56.5 110,-56.5"/>
<text text-anchor="start" x="118" y="-74.5" font-family="Helvetica,sans-Serif" font-size="10.00" fill="#000000">fplll/pruner/pruner</text>
<text text-anchor="middle" x="156" y="-63.5" font-family="Helvetica,sans-Serif" font-size="10.00" fill="#000000">_optimize.cpp</text>
</a>
</g>
</g>
<!-- Node3&#45;&gt;Node9 -->
<g id="edge10" class="edge">
<title>Node3&#45;&gt;Node9</title>
<path fill="none" stroke="#191970" d="M949.5184,-123.2921C622.9944,-75.2534 532.2172,-139.3933 211,-87 208.0627,-86.5209 205.0584,-85.9412 202.0434,-85.2911"/>
<polygon fill="#191970" stroke="#191970" points="949.3355,-126.8036 959.7433,-124.8216 950.3711,-119.8806 949.3355,-126.8036"/>
</g>
<!-- Node10 -->
<g id="node11" class="node">
<title>Node10</title>
<g id="a_node11"><a xlink:href="pruner__optimize__tc_8cpp.html" target="_top" xlink:title="fplll/pruner/pruner\l_optimize_tc.cpp">
<polygon fill="#ffffff" stroke="#000000" points="220,-56.5 220,-86.5 312,-86.5 312,-56.5 220,-56.5"/>
<text text-anchor="start" x="228" y="-74.5" font-family="Helvetica,sans-Serif" font-size="10.00" fill="#000000">fplll/pruner/pruner</text>
<text text-anchor="middle" x="266" y="-63.5" font-family="Helvetica,sans-Serif" font-size="10.00" fill="#000000">_optimize_tc.cpp</text>
</a>
</g>
</g>
<!-- Node3&#45;&gt;Node10 -->
<g id="edge12" class="edge">
<title>Node3&#45;&gt;Node10</title>
<path fill="none" stroke="#191970" d="M949.7552,-123.313C671.4926,-81.258 593.9307,-132.7084 321,-87 318.0647,-86.5084 315.0621,-85.9192 312.0482,-85.262"/>
<polygon fill="#191970" stroke="#191970" points="949.3232,-126.7877 959.7391,-124.8488 950.3876,-119.869 949.3232,-126.7877"/>
</g>
<!-- Node11 -->
<g id="node12" class="node">
<title>Node11</title>
<g id="a_node12"><a xlink:href="pruner__optimize__tp_8cpp.html" target="_top" xlink:title="fplll/pruner/pruner\l_optimize_tp.cpp">
<polygon fill="#ffffff" stroke="#000000" points="0,-56.5 0,-86.5 92,-86.5 92,-56.5 0,-56.5"/>
<text text-anchor="start" x="8" y="-74.5" font-family="Helvetica,sans-Serif" font-size="10.00" fill="#000000">fplll/pruner/pruner</text>
<text text-anchor="middle" x="46" y="-63.5" font-family="Helvetica,sans-Serif" font-size="10.00" fill="#000000">_optimize_tp.cpp</text>
</a>
</g>
</g>
<!-- Node3&#45;&gt;Node11 -->
<g id="edge14" class="edge">
<title>Node3&#45;&gt;Node11</title>
<path fill="none" stroke="#191970" d="M949.7029,-123.3296C574.562,-69.1726 470.6585,-146.1 101,-87 98.0612,-86.5301 95.0558,-85.9576 92.0399,-85.3128"/>
<polygon fill="#191970" stroke="#191970" points="949.3445,-126.8144 959.7463,-124.8013 950.3595,-119.8884 949.3445,-126.8144"/>
</g>
<!-- Node12 -->
<g id="node13" class="node">
<title>Node12</title>
<g id="a_node13"><a xlink:href="pruner__prob_8cpp.html" target="_top" xlink:title="fplll/pruner/pruner\l_prob.cpp">
<polygon fill="#ffffff" stroke="#000000" points="330,-56.5 330,-86.5 422,-86.5 422,-56.5 330,-56.5"/>
<text text-anchor="start" x="338" y="-74.5" font-family="Helvetica,sans-Serif" font-size="10.00" fill="#000000">fplll/pruner/pruner</text>
<text text-anchor="middle" x="376" y="-63.5" font-family="Helvetica,sans-Serif" font-size="10.00" fill="#000000">_prob.cpp</text>
</a>
</g>
</g>
<!-- Node3&#45;&gt;Node12 -->
<g id="edge16" class="edge">
<title>Node3&#45;&gt;Node12</title>
<path fill="none" stroke="#191970" d="M949.7272,-123.2884C719.9219,-87.2622 655.5843,-126.0079 431,-87 428.0677,-86.4907 425.0674,-85.8879 422.0552,-85.2205"/>
<polygon fill="#191970" stroke="#191970" points="949.3059,-126.7654 959.733,-124.8875 950.4107,-119.8531 949.3059,-126.7654"/>
</g>
<!-- Node13 -->
<g id="node14" class="node">
<title>Node13</title>
<g id="a_node14"><a xlink:href="pruner__util_8cpp.html" target="_top" xlink:title="fplll/pruner/pruner\l_util.cpp">
<polygon fill="#ffffff" stroke="#000000" points="440,-56.5 440,-86.5 532,-86.5 532,-56.5 440,-56.5"/>
<text text-anchor="start" x="448" y="-74.5" font-family="Helvetica,sans-Serif" font-size="10.00" fill="#000000">fplll/pruner/pruner</text>
<text text-anchor="middle" x="486" y="-63.5" font-family="Helvetica,sans-Serif" font-size="10.00" fill="#000000">_util.cpp</text>
</a>
</g>
</g>
<!-- Node3&#45;&gt;Node13 -->
<g id="edge18" class="edge">
<title>Node3&#45;&gt;Node13</title>
<path fill="none" stroke="#191970" d="M949.7002,-123.248C770.5284,-93.4029 720.4334,-117.0936 546,-87 541.4411,-86.2135 536.721,-85.2539 532.0223,-84.2015"/>
<polygon fill="#191970" stroke="#191970" points="949.2776,-126.7262 959.7225,-124.9504 950.4499,-119.8251 949.2776,-126.7262"/>
</g>
<!-- Node14 -->
<g id="node15" class="node">
<title>Node14</title>
<g id="a_node15"><a xlink:href="sieve__main_8cpp.html" target="_top" xlink:title="fplll/sieve/sieve_main.cpp">
<polygon fill="#ffffff" stroke="#000000" points="588.5,-62 588.5,-81 717.5,-81 717.5,-62 588.5,-62"/>
<text text-anchor="middle" x="653" y="-69" font-family="Helvetica,sans-Serif" font-size="10.00" fill="#000000">fplll/sieve/sieve_main.cpp</text>
</a>
</g>
</g>
<!-- Node3&#45;&gt;Node14 -->
<g id="edge20" class="edge">
<title>Node3&#45;&gt;Node14</title>
<path fill="none" stroke="#191970" d="M949.7935,-123.1255C850.0223,-102.6645 822.6283,-104.7241 727,-87 717.1913,-85.182 706.6845,-83.0774 696.7587,-81.0165"/>
<polygon fill="#191970" stroke="#191970" points="949.1768,-126.572 959.6794,-125.1773 950.5994,-119.7181 949.1768,-126.572"/>
</g>
<!-- Node15 -->
<g id="node16" class="node">
<title>Node15</title>
<g id="a_node16"><a xlink:href="test__bkz_8cpp.html" target="_top" xlink:title="tests/test_bkz.cpp">
<polygon fill="#ffffff" stroke="#000000" points="477,-.5 477,-19.5 575,-19.5 575,-.5 477,-.5"/>
<text text-anchor="middle" x="526" y="-7.5" font-family="Helvetica,sans-Serif" font-size="10.00" fill="#000000">tests/test_bkz.cpp</text>
</a>
</g>
</g>
<!-- Node3&#45;&gt;Node15 -->
<g id="edge21" class="edge">
<title>Node3&#45;&gt;Node15</title>
<path fill="none" stroke="#191970" d="M950.0981,-122.1605C925.9476,-114.4385 894.8821,-102.6522 870,-87 852.9668,-76.2852 855.1394,-64.7121 837,-56 734.619,-6.828 696.1972,-37.6507 584,-20 581.0728,-19.5395 578.0645,-19.055 575.031,-18.5578"/>
<polygon fill="#191970" stroke="#191970" points="949.0644,-125.5043 959.6523,-125.1203 951.1359,-118.8178 949.0644,-125.5043"/>
</g>
<!-- Node16 -->
<g id="node17" class="node">
<title>Node16</title>
<g id="a_node17"><a xlink:href="test__bkz__gram_8cpp.html" target="_top" xlink:title="tests/test_bkz_gram.cpp">
<polygon fill="#ffffff" stroke="#000000" points="593.5,-.5 593.5,-19.5 718.5,-19.5 718.5,-.5 593.5,-.5"/>
<text text-anchor="middle" x="656" y="-7.5" font-family="Helvetica,sans-Serif" font-size="10.00" fill="#000000">tests/test_bkz_gram.cpp</text>
</a>
</g>
</g>
<!-- Node3&#45;&gt;Node16 -->
<g id="edge22" class="edge">
<title>Node3&#45;&gt;Node16</title>
<path fill="none" stroke="#191970" d="M961.2719,-118.7507C945.2978,-110.1765 925.0664,-98.6855 908,-87 890.0158,-74.6861 889.6449,-65.4415 870,-56 843.1129,-43.0779 768.7162,-28.7043 715.1959,-19.5198"/>
<polygon fill="#191970" stroke="#191970" points="959.6539,-121.8543 970.1292,-123.4413 962.93,-115.6682 959.6539,-121.8543"/>
</g>
<!-- Node17 -->
<g id="node18" class="node">
<title>Node17</title>
<g id="a_node18"><a xlink:href="test__cvp_8cpp.html" target="_top" xlink:title="tests/test_cvp.cpp">
<polygon fill="#ffffff" stroke="#000000" points="737,-.5 737,-19.5 835,-19.5 835,-.5 737,-.5"/>
<text text-anchor="middle" x="786" y="-7.5" font-family="Helvetica,sans-Serif" font-size="10.00" fill="#000000">tests/test_cvp.cpp</text>
</a>
</g>
</g>
<!-- Node3&#45;&gt;Node17 -->
<g id="edge23" class="edge">
<title>Node3&#45;&gt;Node17</title>
<path fill="none" stroke="#191970" d="M972.878,-116.1791C953.5701,-96.3083 922.0742,-64.8302 908,-56 881.3472,-39.2779 847.6703,-27.1535 822.4546,-19.5639"/>
<polygon fill="#191970" stroke="#191970" points="970.3879,-118.6389 979.8535,-123.3984 975.422,-113.7749 970.3879,-118.6389"/>
</g>
<!-- Node18 -->
<g id="node19" class="node">
<title>Node18</title>
<g id="a_node19"><a xlink:href="test__enum_8cpp.html" target="_top" xlink:title="tests/test_enum.cpp">
<polygon fill="#ffffff" stroke="#000000" points="1258,-62 1258,-81 1364,-81 1364,-62 1258,-62"/>
<text text-anchor="middle" x="1311" y="-69" font-family="Helvetica,sans-Serif" font-size="10.00" fill="#000000">tests/test_enum.cpp</text>
</a>
</g>
</g>
<!-- Node3&#45;&gt;Node18 -->
<g id="edge24" class="edge">
<title>Node3&#45;&gt;Node18</title>
<path fill="none" stroke="#191970" d="M1028.2431,-126.5334C1078.4129,-118.1258 1167.8975,-102.6573 1244,-87 1252.8876,-85.1715 1262.4032,-83.0625 1271.3907,-81.0009"/>
<polygon fill="#191970" stroke="#191970" points="1027.4403,-123.1189 1018.1531,-128.2178 1028.593,-130.0233 1027.4403,-123.1189"/>
</g>
<!-- Node19 -->
<g id="node20" class="node">
<title>Node19</title>
<g id="a_node20"><a xlink:href="test__hlll_8cpp.html" target="_top" xlink:title="tests/test_hlll.cpp">
<polygon fill="#ffffff" stroke="#000000" points="853,-.5 853,-19.5 947,-19.5 947,-.5 853,-.5"/>
<text text-anchor="middle" x="900" y="-7.5" font-family="Helvetica,sans-Serif" font-size="10.00" fill="#000000">tests/test_hlll.cpp</text>
</a>
</g>
</g>
<!-- Node3&#45;&gt;Node19 -->
<g id="edge25" class="edge">
<title>Node3&#45;&gt;Node19</title>
<path fill="none" stroke="#191970" d="M980.2596,-114.0529C972.3878,-97.8987 959.9373,-74.4349 946,-56 935.647,-42.3062 921.3714,-28.657 911.4811,-19.827"/>
<polygon fill="#191970" stroke="#191970" points="977.2887,-115.9557 984.741,-123.4866 983.6115,-112.9521 977.2887,-115.9557"/>
</g>
<!-- Node20 -->
<g id="node21" class="node">
<title>Node20</title>
<g id="a_node21"><a xlink:href="test__lll_8cpp.html" target="_top" xlink:title="tests/test_lll.cpp">
<polygon fill="#ffffff" stroke="#000000" points="965.5,-.5 965.5,-19.5 1054.5,-19.5 1054.5,-.5 965.5,-.5"/>
<text text-anchor="middle" x="1010" y="-7.5" font-family="Helvetica,sans-Serif" font-size="10.00" fill="#000000">tests/test_lll.cpp</text>
</a>
</g>
</g>
<!-- Node3&#45;&gt;Node20 -->
<g id="edge26" class="edge">
<title>Node3&#45;&gt;Node20</title>
<path fill="none" stroke="#191970" d="M992.3753,-113.2305C996.9476,-86.4497 1004.9317,-39.686 1008.3598,-19.6068"/>
<polygon fill="#191970" stroke="#191970" points="988.8808,-112.902 990.6478,-123.3484 995.781,-114.0801 988.8808,-112.902"/>
</g>
<!-- Node21 -->
<g id="node22" class="node">
<title>Node21</title>
<g id="a_node22"><a xlink:href="test__lll__gram_8cpp.html" target="_top" xlink:title="tests/test_lll_gram.cpp">
<polygon fill="#ffffff" stroke="#000000" points="1188,-.5 1188,-19.5 1304,-19.5 1304,-.5 1188,-.5"/>
<text text-anchor="middle" x="1246" y="-7.5" font-family="Helvetica,sans-Serif" font-size="10.00" fill="#000000">tests/test_lll_gram.cpp</text>
</a>
</g>
</g>
<!-- Node3&#45;&gt;Node21 -->
<g id="edge27" class="edge">
<title>Node3&#45;&gt;Node21</title>
<path fill="none" stroke="#191970" d="M1028.1236,-124.0686C1058.0407,-116.4228 1099.8205,-103.9548 1134,-87 1155.4299,-76.3696 1158.3144,-69.5913 1178,-56 1196.4147,-43.2862 1217.8184,-28.8654 1231.6188,-19.6132"/>
<polygon fill="#191970" stroke="#191970" points="1026.9267,-120.7597 1018.0681,-126.5714 1028.6175,-127.5524 1026.9267,-120.7597"/>
</g>
<!-- Node22 -->
<g id="node23" class="node">
<title>Node22</title>
<g id="a_node23"><a xlink:href="test__nr_8cpp.html" target="_top" xlink:title="tests/test_nr.cpp">
<polygon fill="#ffffff" stroke="#000000" points="1382,-62 1382,-81 1472,-81 1472,-62 1382,-62"/>
<text text-anchor="middle" x="1427" y="-69" font-family="Helvetica,sans-Serif" font-size="10.00" fill="#000000">tests/test_nr.cpp</text>
</a>
</g>
</g>
<!-- Node3&#45;&gt;Node22 -->
<g id="edge28" class="edge">
<title>Node3&#45;&gt;Node22</title>
<path fill="none" stroke="#191970" d="M1028.2659,-130.3844C1098.1388,-125.2677 1248.4266,-112.171 1373,-87 1380.8395,-85.416 1389.1972,-83.2564 1396.9368,-81.0525"/>
<polygon fill="#191970" stroke="#191970" points="1027.8791,-126.9031 1018.1553,-131.1099 1028.3802,-133.8851 1027.8791,-126.9031"/>
</g>
<!-- Node23 -->
<g id="node24" class="node">
<title>Node23</title>
<g id="a_node24"><a xlink:href="test__pruner_8cpp.html" target="_top" xlink:title="tests/test_pruner.cpp">
<polygon fill="#ffffff" stroke="#000000" points="1490.5,-62 1490.5,-81 1599.5,-81 1599.5,-62 1490.5,-62"/>
<text text-anchor="middle" x="1545" y="-69" font-family="Helvetica,sans-Serif" font-size="10.00" fill="#000000">tests/test_pruner.cpp</text>
</a>
</g>
</g>
<!-- Node3&#45;&gt;Node23 -->
<g id="edge29" class="edge">
<title>Node3&#45;&gt;Node23</title>
<path fill="none" stroke="#191970" d="M1028.0885,-131.2655C1111.6841,-127.136 1313.8362,-114.907 1481,-87 1490.3593,-85.4375 1500.3772,-83.2589 1509.6429,-81.0279"/>
<polygon fill="#191970" stroke="#191970" points="1027.8445,-127.7731 1018.025,-131.7515 1028.1822,-134.7649 1027.8445,-127.7731"/>
</g>
<!-- Node24 -->
<g id="node25" class="node">
<title>Node24</title>
<g id="a_node25"><a xlink:href="test__sieve_8cpp.html" target="_top" xlink:title="tests/test_sieve.cpp">
<polygon fill="#ffffff" stroke="#000000" points="1322.5,-.5 1322.5,-19.5 1427.5,-19.5 1427.5,-.5 1322.5,-.5"/>
<text text-anchor="middle" x="1375" y="-7.5" font-family="Helvetica,sans-Serif" font-size="10.00" fill="#000000">tests/test_sieve.cpp</text>
</a>
</g>
</g>
<!-- Node3&#45;&gt;Node24 -->
<g id="edge30" class="edge">
<title>Node3&#45;&gt;Node24</title>
<path fill="none" stroke="#191970" d="M1028.2691,-127.0423C1065.8292,-120.4238 1123.4754,-107.829 1170,-87 1192.5015,-76.9261 1193.6664,-66.4409 1216,-56 1252.0542,-39.1447 1295.6356,-27.0632 1328.0465,-19.5237"/>
<polygon fill="#191970" stroke="#191970" points="1027.5037,-123.6222 1018.2338,-128.7525 1028.6797,-130.5228 1027.5037,-123.6222"/>
</g>
<!-- Node25 -->
<g id="node26" class="node">
<title>Node25</title>
<g id="a_node26"><a xlink:href="test__svp_8cpp.html" target="_top" xlink:title="tests/test_svp.cpp">
<polygon fill="#ffffff" stroke="#000000" points="1446,-.5 1446,-19.5 1544,-19.5 1544,-.5 1446,-.5"/>
<text text-anchor="middle" x="1495" y="-7.5" font-family="Helvetica,sans-Serif" font-size="10.00" fill="#000000">tests/test_svp.cpp</text>
</a>
</g>
</g>
<!-- Node3&#45;&gt;Node25 -->
<g id="edge31" class="edge">
<title>Node3&#45;&gt;Node25</title>
<path fill="none" stroke="#191970" d="M1028.2731,-129.7867C1073.1604,-124.982 1148.0311,-113.4683 1207,-87 1228.1663,-77.4995 1227.7254,-65.2554 1249,-56 1257.9893,-52.0893 1376.5975,-30.8251 1445.776,-18.6227"/>
<polygon fill="#191970" stroke="#191970" points="1027.6765,-126.3291 1018.0792,-130.8171 1028.3806,-133.2936 1027.6765,-126.3291"/>
</g>
<!-- Node26 -->
<g id="node27" class="node">
<title>Node26</title>
<g id="a_node27"><a xlink:href="test__svp__gram_8cpp.html" target="_top" xlink:title="tests/test_svp_gram.cpp">
<polygon fill="#ffffff" stroke="#000000" points="1562.5,-.5 1562.5,-19.5 1687.5,-19.5 1687.5,-.5 1562.5,-.5"/>
<text text-anchor="middle" x="1625" y="-7.5" font-family="Helvetica,sans-Serif" font-size="10.00" fill="#000000">tests/test_svp_gram.cpp</text>
</a>
</g>
</g>
<!-- Node3&#45;&gt;Node26 -->
<g id="edge32" class="edge">
<title>Node3&#45;&gt;Node26</title>
<path fill="none" stroke="#191970" d="M1028.3365,-132.7812C1157.8828,-131.6961 1565.3923,-125.246 1609,-87 1628.4008,-69.9846 1627.876,-36.1239 1626.2725,-19.5655"/>
<polygon fill="#191970" stroke="#191970" points="1028.0567,-129.2832 1018.0842,-132.8606 1028.111,-136.283 1028.0567,-129.2832"/>
</g>
<!-- Node27 -->
<g id="node28" class="node">
<title>Node27</title>
<g id="a_node28"><a xlink:href="test__utils_8h.html" target="_top" xlink:title="tests/test_utils.h">
<polygon fill="#ffffff" stroke="#000000" points="1036.5,-62 1036.5,-81 1125.5,-81 1125.5,-62 1036.5,-62"/>
<text text-anchor="middle" x="1081" y="-69" font-family="Helvetica,sans-Serif" font-size="10.00" fill="#000000">tests/test_utils.h</text>
</a>
</g>
</g>
<!-- Node3&#45;&gt;Node27 -->
<g id="edge33" class="edge">
<title>Node3&#45;&gt;Node27</title>
<path fill="none" stroke="#191970" d="M1011.7591,-117.786C1028.9618,-106.2864 1052.0462,-90.855 1066.7259,-81.0419"/>
<polygon fill="#191970" stroke="#191970" points="1009.7434,-114.9234 1003.375,-123.3906 1013.6337,-120.7429 1009.7434,-114.9234"/>
</g>
<!-- Node6 -->
<g id="node7" class="node">
<title>Node6</title>
<g id="a_node7"><a xlink:href="main_8cpp.html" target="_top" xlink:title="fplll/main.cpp">
<polygon fill="#ffffff" stroke="#000000" points="1706,-.5 1706,-19.5 1780,-19.5 1780,-.5 1706,-.5"/>
<text text-anchor="middle" x="1743" y="-7.5" font-family="Helvetica,sans-Serif" font-size="10.00" fill="#000000">fplll/main.cpp</text>
</a>
</g>
</g>
<!-- Node5&#45;&gt;Node6 -->
<g id="edge6" class="edge">
<title>Node5&#45;&gt;Node6</title>
<path fill="none" stroke="#191970" d="M1703.292,-54.4007C1713.285,-43.2268 1725.9763,-29.0356 1734.2851,-19.7449"/>
<polygon fill="#191970" stroke="#191970" points="1700.6511,-52.1034 1696.5938,-61.8906 1705.8689,-56.7698 1700.6511,-52.1034"/>
</g>
<!-- Node8&#45;&gt;Node7 -->
<g id="edge9" class="edge">
<title>Node8&#45;&gt;Node7</title>
<path fill="none" stroke="#191970" d="M726.3061,-56.0624C726.204,-56.0415 726.1019,-56.0207 726,-56 670.8945,-44.8093 514.9587,-26.0268 431.0553,-16.2859"/>
<polygon fill="#191970" stroke="#191970" points="725.4567,-59.4589 735.9782,-58.2144 726.9771,-52.626 725.4567,-59.4589"/>
</g>
<!-- Node9&#45;&gt;Node7 -->
<g id="edge11" class="edge">
<title>Node9&#45;&gt;Node7</title>
<path fill="none" stroke="#191970" d="M211.9754,-55.7302C262.3352,-41.622 310.1815,-28.2982 341.5457,-19.5751"/>
<polygon fill="#191970" stroke="#191970" points="210.8953,-52.398 202.2108,-58.4668 212.7844,-59.1383 210.8953,-52.398"/>
</g>
<!-- Node10&#45;&gt;Node7 -->
<g id="edge13" class="edge">
<title>Node10&#45;&gt;Node7</title>
<path fill="none" stroke="#191970" d="M301.7204,-51.5291C320.9284,-40.79 343.7281,-28.0429 358.9539,-19.5303"/>
<polygon fill="#191970" stroke="#191970" points="299.9295,-48.5204 292.909,-56.4554 303.3455,-54.6303 299.9295,-48.5204"/>
</g>
<!-- Node11&#45;&gt;Node7 -->
<g id="edge15" class="edge">
<title>Node11&#45;&gt;Node7</title>
<path fill="none" stroke="#191970" d="M102.0346,-55.9032C183.446,-38.0172 267.2851,-25.033 320.8735,-17.4173"/>
<polygon fill="#191970" stroke="#191970" points="101.122,-52.5206 92.1206,-58.1087 102.6421,-59.3536 101.122,-52.5206"/>
</g>
<!-- Node12&#45;&gt;Node7 -->
<g id="edge17" class="edge">
<title>Node12&#45;&gt;Node7</title>
<path fill="none" stroke="#191970" d="M376,-46.2849C376,-36.9858 376,-26.9883 376,-19.8469"/>
<polygon fill="#191970" stroke="#191970" points="372.5001,-46.2977 376,-56.2977 379.5001,-46.2978 372.5001,-46.2977"/>
</g>
<!-- Node13&#45;&gt;Node7 -->
<g id="edge19" class="edge">
<title>Node13&#45;&gt;Node7</title>
<path fill="none" stroke="#191970" d="M450.2796,-51.5291C431.0716,-40.79 408.2719,-28.0429 393.0461,-19.5303"/>
<polygon fill="#191970" stroke="#191970" points="448.6545,-54.6303 459.091,-56.4554 452.0705,-48.5204 448.6545,-54.6303"/>
</g>
<!-- Node27&#45;&gt;Node15 -->
<g id="edge34" class="edge">
<title>Node27&#45;&gt;Node15</title>
<path fill="none" stroke="#191970" d="M1026.1673,-67.0365C934.4261,-59.2958 744.1116,-42.0726 584,-20 581.0645,-19.5953 578.0498,-19.154 575.0116,-18.6895"/>
<polygon fill="#191970" stroke="#191970" points="1026.07,-70.5405 1036.3277,-67.8889 1026.6553,-63.565 1026.07,-70.5405"/>
</g>
<!-- Node27&#45;&gt;Node16 -->
<g id="edge35" class="edge">
<title>Node27&#45;&gt;Node16</title>
<path fill="none" stroke="#191970" d="M1026.0883,-63.554C947.0523,-52.117 801.6205,-31.0721 718.5443,-19.0505"/>
<polygon fill="#191970" stroke="#191970" points="1025.9226,-67.0664 1036.3208,-65.0347 1026.9252,-60.1385 1025.9226,-67.0664"/>
</g>
<!-- Node27&#45;&gt;Node17 -->
<g id="edge36" class="edge">
<title>Node27&#45;&gt;Node17</title>
<path fill="none" stroke="#191970" d="M1026.0994,-60.0546C970.0833,-48.3767 884.1484,-30.4614 831.712,-19.5298"/>
<polygon fill="#191970" stroke="#191970" points="1025.692,-63.5449 1036.1958,-62.1595 1027.1207,-56.6922 1025.692,-63.5449"/>
</g>
<!-- Node27&#45;&gt;Node19 -->
<g id="edge38" class="edge">
<title>Node27&#45;&gt;Node19</title>
<path fill="none" stroke="#191970" d="M1043.0367,-58.6009C1008.7076,-46.9366 958.9507,-30.0302 928.0827,-19.5419"/>
<polygon fill="#191970" stroke="#191970" points="1042.1244,-61.9873 1052.7188,-61.8906 1044.3764,-55.3595 1042.1244,-61.9873"/>
</g>
<!-- Node27&#45;&gt;Node20 -->
<g id="edge39" class="edge">
<title>Node27&#45;&gt;Node20</title>
<path fill="none" stroke="#191970" d="M1062.0068,-55.0482C1048.9978,-43.7798 1032.1843,-29.216 1021.2502,-19.7449"/>
<polygon fill="#191970" stroke="#191970" points="1060.056,-57.9888 1069.9063,-61.8906 1064.6391,-52.6978 1060.056,-57.9888"/>
</g>
<!-- Node27&#45;&gt;Node21 -->
<g id="edge40" class="edge">
<title>Node27&#45;&gt;Node21</title>
<path fill="none" stroke="#191970" d="M1116.4164,-58.2993C1147.6793,-46.6468 1192.502,-29.9402 1220.3998,-19.5419"/>
<polygon fill="#191970" stroke="#191970" points="1114.9291,-55.1184 1106.7813,-61.8906 1117.3739,-61.6776 1114.9291,-55.1184"/>
</g>
<!-- Node27&#45;&gt;Node24 -->
<g id="edge41" class="edge">
<title>Node27&#45;&gt;Node24</title>
<path fill="none" stroke="#191970" d="M1135.7145,-60.0546C1191.5407,-48.3767 1277.1843,-30.4614 1329.443,-19.5298"/>
<polygon fill="#191970" stroke="#191970" points="1134.7238,-56.686 1125.6523,-62.1595 1136.1571,-63.5377 1134.7238,-56.686"/>
</g>
<!-- Node27&#45;&gt;Node25 -->
<g id="edge42" class="edge">
<title>Node27&#45;&gt;Node25</title>
<path fill="none" stroke="#191970" d="M1135.9164,-63.9468C1205.7293,-54.2497 1329.9378,-36.6791 1436,-20 1439.1815,-19.4997 1442.4577,-18.9739 1445.7589,-18.4361"/>
<polygon fill="#191970" stroke="#191970" points="1135.0292,-60.5363 1125.6047,-65.3768 1135.9907,-67.4699 1135.0292,-60.5363"/>
</g>
<!-- Node27&#45;&gt;Node26 -->
<g id="edge43" class="edge">
<title>Node27&#45;&gt;Node26</title>
<path fill="none" stroke="#191970" d="M1135.6459,-66.0632C1223.6314,-57.191 1402.114,-38.7057 1553,-20 1556.0058,-19.6274 1559.0808,-19.2367 1562.1856,-18.8347"/>
<polygon fill="#191970" stroke="#191970" points="1135.227,-62.5875 1125.6277,-67.0712 1135.9279,-69.5524 1135.227,-62.5875"/>
</g>
<!-- Node28 -->
<g id="node29" class="node">
<title>Node28</title>
<g id="a_node29"><a xlink:href="test__gso_8cpp.html" target="_top" xlink:title="tests/test_gso.cpp">
<polygon fill="#ffffff" stroke="#000000" points="1072,-.5 1072,-19.5 1170,-19.5 1170,-.5 1072,-.5"/>
<text text-anchor="middle" x="1121" y="-7.5" font-family="Helvetica,sans-Serif" font-size="10.00" fill="#000000">tests/test_gso.cpp</text>
</a>
</g>
</g>
<!-- Node27&#45;&gt;Node28 -->
<g id="edge37" class="edge">
<title>Node27&#45;&gt;Node28</title>
<path fill="none" stroke="#191970" d="M1092.7614,-53.4169C1099.924,-42.4043 1108.7951,-28.765 1114.6619,-19.7449"/>
<polygon fill="#191970" stroke="#191970" points="1089.7683,-51.5994 1087.25,-61.8906 1095.6363,-55.416 1089.7683,-51.5994"/>
</g>
<!-- Node30&#45;&gt;Node4 -->
<g id="edge47" class="edge">
<title>Node30&#45;&gt;Node4</title>
<path fill="none" stroke="#191970" d="M1488.1294,-127.7744C1547.4898,-121.2252 1646.1389,-108.2096 1729,-87 1735.3039,-85.3864 1741.9811,-83.2162 1748.1458,-81.0116"/>
<polygon fill="#191970" stroke="#191970" points="1487.4393,-124.3285 1477.874,-128.8845 1488.1926,-131.2879 1487.4393,-124.3285"/>
</g>
</g>
</svg>
