<?xml version="1.0" encoding="UTF-8" standalone="no"?>
<!DOCTYPE svg PUBLIC "-//W3C//DTD SVG 1.1//EN"
 "http://www.w3.org/Graphics/SVG/1.1/DTD/svg11.dtd">
<!-- Generated by graphviz version 2.40.1 (20161225.0304)
 -->
<!-- Title: fplll/enum/enumerate_ext.h Pages: 1 -->
<svg width="1131pt" height="330pt"
 viewBox="0.00 0.00 1131.00 330.00" xmlns="http://www.w3.org/2000/svg" xmlns:xlink="http://www.w3.org/1999/xlink">
<g id="graph0" class="graph" transform="scale(1 1) rotate(0) translate(4 326)">
<title>fplll/enum/enumerate_ext.h</title>
<polygon fill="#ffffff" stroke="transparent" points="-4,4 -4,-326 1127,-326 1127,4 -4,4"/>
<!-- Node0 -->
<g id="node1" class="node">
<title>Node0</title>
<polygon fill="#bfbfbf" stroke="#000000" points="595.5,-291.5 595.5,-321.5 702.5,-321.5 702.5,-291.5 595.5,-291.5"/>
<text text-anchor="start" x="603.5" y="-309.5" font-family="Helvetica,sans-Serif" font-size="10.00" fill="#000000">fplll/enum/enumerate</text>
<text text-anchor="middle" x="649" y="-298.5" font-family="Helvetica,sans-Serif" font-size="10.00" fill="#000000">_ext.h</text>
</g>
<!-- Node1 -->
<g id="node2" class="node">
<title>Node1</title>
<g id="a_node2"><a xlink:href="enumerate_8h.html" target="_top" xlink:title="fplll/enum/enumerate.h">
<polygon fill="#ffffff" stroke="#000000" points="526,-230 526,-249 642,-249 642,-230 526,-230"/>
<text text-anchor="middle" x="584" y="-237" font-family="Helvetica,sans-Serif" font-size="10.00" fill="#000000">fplll/enum/enumerate.h</text>
</a>
</g>
</g>
<!-- Node0&#45;&gt;Node1 -->
<g id="edge1" class="edge">
<title>Node0&#45;&gt;Node1</title>
<path fill="none" stroke="#191970" d="M627.0404,-283.8648C615.5279,-271.998 602.0366,-258.0916 593.2697,-249.055"/>
<polygon fill="#191970" stroke="#191970" points="624.7752,-286.5564 634.2505,-291.2967 629.7994,-281.6821 624.7752,-286.5564"/>
</g>
<!-- Node21 -->
<g id="node22" class="node">
<title>Node21</title>
<g id="a_node22"><a xlink:href="enumerate__ext_8cpp.html" target="_top" xlink:title="fplll/enum/enumerate\l_ext.cpp">
<polygon fill="#ffffff" stroke="#000000" points="660.5,-224.5 660.5,-254.5 767.5,-254.5 767.5,-224.5 660.5,-224.5"/>
<text text-anchor="start" x="668.5" y="-242.5" font-family="Helvetica,sans-Serif" font-size="10.00" fill="#000000">fplll/enum/enumerate</text>
<text text-anchor="middle" x="714" y="-231.5" font-family="Helvetica,sans-Serif" font-size="10.00" fill="#000000">_ext.cpp</text>
</a>
</g>
</g>
<!-- Node0&#45;&gt;Node21 -->
<g id="edge29" class="edge">
<title>Node0&#45;&gt;Node21</title>
<path fill="none" stroke="#191970" d="M670.9008,-283.9253C680.2555,-274.2828 690.9257,-263.2843 699.3089,-254.6432"/>
<polygon fill="#191970" stroke="#191970" points="668.2006,-281.6821 663.7495,-291.2967 673.2248,-286.5564 668.2006,-281.6821"/>
</g>
<!-- Node2 -->
<g id="node3" class="node">
<title>Node2</title>
<g id="a_node3"><a xlink:href="bkz_8h.html" target="_top" xlink:title="fplll/bkz.h">
<polygon fill="#ffffff" stroke="#000000" points="525.5,-168.5 525.5,-187.5 584.5,-187.5 584.5,-168.5 525.5,-168.5"/>
<text text-anchor="middle" x="555" y="-175.5" font-family="Helvetica,sans-Serif" font-size="10.00" fill="#000000">fplll/bkz.h</text>
</a>
</g>
</g>
<!-- Node1&#45;&gt;Node2 -->
<g id="edge2" class="edge">
<title>Node1&#45;&gt;Node2</title>
<path fill="none" stroke="#191970" d="M575.16,-220.753C570.0237,-209.8606 563.7635,-196.5846 559.5951,-187.7449"/>
<polygon fill="#191970" stroke="#191970" points="572.0379,-222.3386 579.4688,-229.8906 578.3693,-219.353 572.0379,-222.3386"/>
</g>
<!-- Node3 -->
<g id="node4" class="node">
<title>Node3</title>
<g id="a_node4"><a xlink:href="bkz_8cpp.html" target="_top" xlink:title="fplll/bkz.cpp">
<polygon fill="#ffffff" stroke="#000000" points="444.5,-112.5 444.5,-131.5 513.5,-131.5 513.5,-112.5 444.5,-112.5"/>
<text text-anchor="middle" x="479" y="-119.5" font-family="Helvetica,sans-Serif" font-size="10.00" fill="#000000">fplll/bkz.cpp</text>
</a>
</g>
</g>
<!-- Node1&#45;&gt;Node3 -->
<g id="edge25" class="edge">
<title>Node1&#45;&gt;Node3</title>
<path fill="none" stroke="#191970" d="M559.0623,-224.2823C545.2272,-214.9949 528.3703,-202.1962 516,-188 500.6389,-170.3715 488.7513,-145.3493 482.9334,-131.738"/>
<polygon fill="#191970" stroke="#191970" points="557.3481,-227.3425 567.6401,-229.8578 561.1631,-221.4734 557.3481,-227.3425"/>
</g>
<!-- Node19 -->
<g id="node20" class="node">
<title>Node19</title>
<g id="a_node20"><a xlink:href="enumerate_8cpp.html" target="_top" xlink:title="fplll/enum/enumerate.cpp">
<polygon fill="#ffffff" stroke="#000000" points="641,-168.5 641,-187.5 767,-187.5 767,-168.5 641,-168.5"/>
<text text-anchor="middle" x="704" y="-175.5" font-family="Helvetica,sans-Serif" font-size="10.00" fill="#000000">fplll/enum/enumerate.cpp</text>
</a>
</g>
</g>
<!-- Node1&#45;&gt;Node19 -->
<g id="edge26" class="edge">
<title>Node1&#45;&gt;Node19</title>
<path fill="none" stroke="#191970" d="M611.8509,-225.2264C634.4584,-213.6401 665.7072,-197.6251 685.3817,-187.5419"/>
<polygon fill="#191970" stroke="#191970" points="610.053,-222.2149 602.75,-229.8906 613.2457,-228.4444 610.053,-222.2149"/>
</g>
<!-- Node20 -->
<g id="node21" class="node">
<title>Node20</title>
<g id="a_node21"><a xlink:href="svpcvp_8cpp.html" target="_top" xlink:title="fplll/svpcvp.cpp">
<polygon fill="#ffffff" stroke="#000000" points="827.5,-112.5 827.5,-131.5 912.5,-131.5 912.5,-112.5 827.5,-112.5"/>
<text text-anchor="middle" x="870" y="-119.5" font-family="Helvetica,sans-Serif" font-size="10.00" fill="#000000">fplll/svpcvp.cpp</text>
</a>
</g>
</g>
<!-- Node1&#45;&gt;Node20 -->
<g id="edge27" class="edge">
<title>Node1&#45;&gt;Node20</title>
<path fill="none" stroke="#191970" d="M591.6427,-220.5603C599.3303,-204.0191 612.8034,-180.7215 632,-168 663.4846,-147.1353 767.8277,-132.9146 827.3776,-126.2786"/>
<polygon fill="#191970" stroke="#191970" points="588.3891,-219.2658 587.6044,-229.8315 594.8067,-222.0612 588.3891,-219.2658"/>
</g>
<!-- Node2&#45;&gt;Node3 -->
<g id="edge3" class="edge">
<title>Node2&#45;&gt;Node3</title>
<path fill="none" stroke="#191970" d="M533.5703,-162.2097C520.2223,-152.3743 503.4821,-140.0394 492.0865,-131.6427"/>
<polygon fill="#191970" stroke="#191970" points="531.635,-165.1312 541.7618,-168.2455 535.7874,-159.4958 531.635,-165.1312"/>
</g>
<!-- Node4 -->
<g id="node5" class="node">
<title>Node4</title>
<g id="a_node5"><a xlink:href="fplll_8h.html" target="_top" xlink:title="fplll/fplll.h">
<polygon fill="#ffffff" stroke="#000000" points="532,-112.5 532,-131.5 590,-131.5 590,-112.5 532,-112.5"/>
<text text-anchor="middle" x="561" y="-119.5" font-family="Helvetica,sans-Serif" font-size="10.00" fill="#000000">fplll/fplll.h</text>
</a>
</g>
</g>
<!-- Node2&#45;&gt;Node4 -->
<g id="edge4" class="edge">
<title>Node2&#45;&gt;Node4</title>
<path fill="none" stroke="#191970" d="M557.126,-158.1575C558.0905,-149.155 559.1872,-138.9199 559.9669,-131.6427"/>
<polygon fill="#191970" stroke="#191970" points="553.6305,-157.9296 556.0451,-168.2455 560.5906,-158.6753 553.6305,-157.9296"/>
</g>
<!-- Node5 -->
<g id="node6" class="node">
<title>Node5</title>
<g id="a_node6"><a xlink:href="fplll_8cpp.html" target="_top" xlink:title="fplll/fplll.cpp">
<polygon fill="#ffffff" stroke="#000000" points="1055,-56.5 1055,-75.5 1123,-75.5 1123,-56.5 1055,-56.5"/>
<text text-anchor="middle" x="1089" y="-63.5" font-family="Helvetica,sans-Serif" font-size="10.00" fill="#000000">fplll/fplll.cpp</text>
</a>
</g>
</g>
<!-- Node4&#45;&gt;Node5 -->
<g id="edge5" class="edge">
<title>Node4&#45;&gt;Node5</title>
<path fill="none" stroke="#191970" d="M600.3675,-120.0575C683.2522,-115.5753 881.6559,-102.7798 1046,-76 1048.8746,-75.5316 1051.8432,-74.9819 1054.8147,-74.3854"/>
<polygon fill="#191970" stroke="#191970" points="599.9473,-116.5748 590.1467,-120.5995 600.3181,-123.5649 599.9473,-116.5748"/>
</g>
<!-- Node6 -->
<g id="node7" class="node">
<title>Node6</title>
<g id="a_node7"><a xlink:href="main_8h.html" target="_top" xlink:title="fplll/main.h">
<polygon fill="#ffffff" stroke="#000000" points="825,-56.5 825,-75.5 889,-75.5 889,-56.5 825,-56.5"/>
<text text-anchor="middle" x="857" y="-63.5" font-family="Helvetica,sans-Serif" font-size="10.00" fill="#000000">fplll/main.h</text>
</a>
</g>
</g>
<!-- Node4&#45;&gt;Node6 -->
<g id="edge6" class="edge">
<title>Node4&#45;&gt;Node6</title>
<path fill="none" stroke="#191970" d="M600.2731,-115.6769C650.4743,-107.4199 739.9919,-92.1094 816,-76 818.867,-75.3924 821.839,-74.7305 824.8133,-74.0461"/>
<polygon fill="#191970" stroke="#191970" points="599.4797,-112.2601 590.1765,-117.3295 600.6105,-119.1682 599.4797,-112.2601"/>
</g>
<!-- Node8 -->
<g id="node9" class="node">
<title>Node8</title>
<g id="a_node9"><a xlink:href="sieve__main_8cpp.html" target="_top" xlink:title="fplll/sieve/sieve_main.cpp">
<polygon fill="#ffffff" stroke="#000000" points="907.5,-56.5 907.5,-75.5 1036.5,-75.5 1036.5,-56.5 907.5,-56.5"/>
<text text-anchor="middle" x="972" y="-63.5" font-family="Helvetica,sans-Serif" font-size="10.00" fill="#000000">fplll/sieve/sieve_main.cpp</text>
</a>
</g>
</g>
<!-- Node4&#45;&gt;Node8 -->
<g id="edge8" class="edge">
<title>Node4&#45;&gt;Node8</title>
<path fill="none" stroke="#191970" d="M600.5203,-116.6152C671.5148,-106.942 821.2437,-86.541 907.3596,-74.8074"/>
<polygon fill="#191970" stroke="#191970" points="599.6645,-113.1994 590.2286,-118.0175 600.6096,-120.1353 599.6645,-113.1994"/>
</g>
<!-- Node9 -->
<g id="node10" class="node">
<title>Node9</title>
<g id="a_node10"><a xlink:href="test__bkz_8cpp.html" target="_top" xlink:title="tests/test_bkz.cpp">
<polygon fill="#ffffff" stroke="#000000" points="0,-.5 0,-19.5 98,-19.5 98,-.5 0,-.5"/>
<text text-anchor="middle" x="49" y="-7.5" font-family="Helvetica,sans-Serif" font-size="10.00" fill="#000000">tests/test_bkz.cpp</text>
</a>
</g>
</g>
<!-- Node4&#45;&gt;Node9 -->
<g id="edge9" class="edge">
<title>Node4&#45;&gt;Node9</title>
<path fill="none" stroke="#191970" d="M521.8093,-111.9703C403.3147,-89.3611 369.1459,-101.7401 255,-76 188.3248,-60.9646 112.3344,-33.9492 73.9736,-19.5871"/>
<polygon fill="#191970" stroke="#191970" points="521.1398,-115.4056 531.625,-113.8855 522.4804,-108.5351 521.1398,-115.4056"/>
</g>
<!-- Node10 -->
<g id="node11" class="node">
<title>Node10</title>
<g id="a_node11"><a xlink:href="test__cvp_8cpp.html" target="_top" xlink:title="tests/test_cvp.cpp">
<polygon fill="#ffffff" stroke="#000000" points="116,-.5 116,-19.5 214,-19.5 214,-.5 116,-.5"/>
<text text-anchor="middle" x="165" y="-7.5" font-family="Helvetica,sans-Serif" font-size="10.00" fill="#000000">tests/test_cvp.cpp</text>
</a>
</g>
</g>
<!-- Node4&#45;&gt;Node10 -->
<g id="edge10" class="edge">
<title>Node4&#45;&gt;Node10</title>
<path fill="none" stroke="#191970" d="M521.7263,-111.8966C428.1559,-92.617 399.9878,-102.7843 312,-76 263.2921,-61.1729 209.5422,-34.0695 182.538,-19.6393"/>
<polygon fill="#191970" stroke="#191970" points="521.095,-115.3404 531.6034,-113.9898 522.5463,-108.4925 521.095,-115.3404"/>
</g>
<!-- Node11 -->
<g id="node12" class="node">
<title>Node11</title>
<g id="a_node12"><a xlink:href="test__lll_8cpp.html" target="_top" xlink:title="tests/test_lll.cpp">
<polygon fill="#ffffff" stroke="#000000" points="232.5,-.5 232.5,-19.5 321.5,-19.5 321.5,-.5 232.5,-.5"/>
<text text-anchor="middle" x="277" y="-7.5" font-family="Helvetica,sans-Serif" font-size="10.00" fill="#000000">tests/test_lll.cpp</text>
</a>
</g>
</g>
<!-- Node4&#45;&gt;Node11 -->
<g id="edge11" class="edge">
<title>Node4&#45;&gt;Node11</title>
<path fill="none" stroke="#191970" d="M521.8475,-111.9434C440.7575,-95.1333 411.3677,-113.4182 342,-76 316.2392,-62.1042 294.2539,-34.6079 283.6962,-19.8728"/>
<polygon fill="#191970" stroke="#191970" points="521.4809,-115.4462 531.999,-114.1735 522.9829,-108.6093 521.4809,-115.4462"/>
</g>
<!-- Node12 -->
<g id="node13" class="node">
<title>Node12</title>
<g id="a_node13"><a xlink:href="test__lll__gram_8cpp.html" target="_top" xlink:title="tests/test_lll_gram.cpp">
<polygon fill="#ffffff" stroke="#000000" points="455,-.5 455,-19.5 571,-19.5 571,-.5 455,-.5"/>
<text text-anchor="middle" x="513" y="-7.5" font-family="Helvetica,sans-Serif" font-size="10.00" fill="#000000">tests/test_lll_gram.cpp</text>
</a>
</g>
</g>
<!-- Node4&#45;&gt;Node12 -->
<g id="edge12" class="edge">
<title>Node4&#45;&gt;Node12</title>
<path fill="none" stroke="#191970" d="M535.5506,-106.4967C525.2863,-98.7437 514.5697,-88.3631 509,-76 500.7014,-57.5793 505.704,-33.2918 509.641,-19.9109"/>
<polygon fill="#191970" stroke="#191970" points="533.7451,-109.5052 543.9433,-112.377 537.7618,-103.7723 533.7451,-109.5052"/>
</g>
<!-- Node13 -->
<g id="node14" class="node">
<title>Node13</title>
<g id="a_node14"><a xlink:href="test__nr_8cpp.html" target="_top" xlink:title="tests/test_nr.cpp">
<polygon fill="#ffffff" stroke="#000000" points="589,-56.5 589,-75.5 679,-75.5 679,-56.5 589,-56.5"/>
<text text-anchor="middle" x="634" y="-63.5" font-family="Helvetica,sans-Serif" font-size="10.00" fill="#000000">tests/test_nr.cpp</text>
</a>
</g>
</g>
<!-- Node4&#45;&gt;Node13 -->
<g id="edge13" class="edge">
<title>Node4&#45;&gt;Node13</title>
<path fill="none" stroke="#191970" d="M581.951,-105.928C594.7107,-96.1397 610.5885,-83.9595 621.4301,-75.6427"/>
<polygon fill="#191970" stroke="#191970" points="579.5196,-103.3819 573.7156,-112.2455 583.7803,-108.9359 579.5196,-103.3819"/>
</g>
<!-- Node14 -->
<g id="node15" class="node">
<title>Node14</title>
<g id="a_node15"><a xlink:href="test__pruner_8cpp.html" target="_top" xlink:title="tests/test_pruner.cpp">
<polygon fill="#ffffff" stroke="#000000" points="697.5,-56.5 697.5,-75.5 806.5,-75.5 806.5,-56.5 697.5,-56.5"/>
<text text-anchor="middle" x="752" y="-63.5" font-family="Helvetica,sans-Serif" font-size="10.00" fill="#000000">tests/test_pruner.cpp</text>
</a>
</g>
</g>
<!-- Node4&#45;&gt;Node14 -->
<g id="edge14" class="edge">
<title>Node4&#45;&gt;Node14</title>
<path fill="none" stroke="#191970" d="M599.9387,-110.5834C635.1658,-100.2551 686.4447,-85.2204 719.5149,-75.5244"/>
<polygon fill="#191970" stroke="#191970" points="598.6201,-107.3226 590.0088,-113.4948 600.5896,-114.0399 598.6201,-107.3226"/>
</g>
<!-- Node15 -->
<g id="node16" class="node">
<title>Node15</title>
<g id="a_node16"><a xlink:href="test__sieve_8cpp.html" target="_top" xlink:title="tests/test_sieve.cpp">
<polygon fill="#ffffff" stroke="#000000" points="589.5,-.5 589.5,-19.5 694.5,-19.5 694.5,-.5 589.5,-.5"/>
<text text-anchor="middle" x="642" y="-7.5" font-family="Helvetica,sans-Serif" font-size="10.00" fill="#000000">tests/test_sieve.cpp</text>
</a>
</g>
</g>
<!-- Node4&#45;&gt;Node15 -->
<g id="edge15" class="edge">
<title>Node4&#45;&gt;Node15</title>
<path fill="none" stroke="#191970" d="M550.0568,-103.1383C543.5323,-89.1848 538.089,-70.2154 547,-56 558.582,-37.5235 579.924,-26.2847 599.4495,-19.5472"/>
<polygon fill="#191970" stroke="#191970" points="547.0885,-105.0166 554.8089,-112.2724 553.2984,-101.7858 547.0885,-105.0166"/>
</g>
<!-- Node16 -->
<g id="node17" class="node">
<title>Node16</title>
<g id="a_node17"><a xlink:href="test__svp_8cpp.html" target="_top" xlink:title="tests/test_svp.cpp">
<polygon fill="#ffffff" stroke="#000000" points="713,-.5 713,-19.5 811,-19.5 811,-.5 713,-.5"/>
<text text-anchor="middle" x="762" y="-7.5" font-family="Helvetica,sans-Serif" font-size="10.00" fill="#000000">tests/test_svp.cpp</text>
</a>
</g>
</g>
<!-- Node4&#45;&gt;Node16 -->
<g id="edge16" class="edge">
<title>Node4&#45;&gt;Node16</title>
<path fill="none" stroke="#191970" d="M561.6104,-102.3266C563.1287,-87.6091 567.5734,-68.0263 580,-56 589.719,-46.5941 663.3594,-30.0448 713.9366,-19.5711"/>
<polygon fill="#191970" stroke="#191970" points="558.11,-102.216 560.9359,-112.427 565.0945,-102.6824 558.11,-102.216"/>
</g>
<!-- Node17 -->
<g id="node18" class="node">
<title>Node17</title>
<g id="a_node18"><a xlink:href="test__utils_8h.html" target="_top" xlink:title="tests/test_utils.h">
<polygon fill="#ffffff" stroke="#000000" points="351.5,-56.5 351.5,-75.5 440.5,-75.5 440.5,-56.5 351.5,-56.5"/>
<text text-anchor="middle" x="396" y="-63.5" font-family="Helvetica,sans-Serif" font-size="10.00" fill="#000000">tests/test_utils.h</text>
</a>
</g>
</g>
<!-- Node4&#45;&gt;Node17 -->
<g id="edge17" class="edge">
<title>Node4&#45;&gt;Node17</title>
<path fill="none" stroke="#191970" d="M522.8644,-109.057C492.6675,-98.8084 451.1837,-84.729 423.9944,-75.5011"/>
<polygon fill="#191970" stroke="#191970" points="522.0411,-112.4736 532.6355,-112.3733 524.2909,-105.845 522.0411,-112.4736"/>
</g>
<!-- Node7 -->
<g id="node8" class="node">
<title>Node7</title>
<g id="a_node8"><a xlink:href="main_8cpp.html" target="_top" xlink:title="fplll/main.cpp">
<polygon fill="#ffffff" stroke="#000000" points="829,-.5 829,-19.5 903,-19.5 903,-.5 829,-.5"/>
<text text-anchor="middle" x="866" y="-7.5" font-family="Helvetica,sans-Serif" font-size="10.00" fill="#000000">fplll/main.cpp</text>
</a>
</g>
</g>
<!-- Node6&#45;&gt;Node7 -->
<g id="edge7" class="edge">
<title>Node6&#45;&gt;Node7</title>
<path fill="none" stroke="#191970" d="M860.189,-46.1575C861.6358,-37.155 863.2807,-26.9199 864.4503,-19.6427"/>
<polygon fill="#191970" stroke="#191970" points="856.6989,-45.8168 858.5677,-56.2455 863.6102,-46.9276 856.6989,-45.8168"/>
</g>
<!-- Node17&#45;&gt;Node9 -->
<g id="edge18" class="edge">
<title>Node17&#45;&gt;Node9</title>
<path fill="none" stroke="#191970" d="M341.3465,-57.5157C283.2073,-48.44 188.5618,-33.5217 107,-20 104.0767,-19.5154 101.0714,-19.0122 98.0402,-18.5009"/>
<polygon fill="#191970" stroke="#191970" points="340.9933,-61.0028 351.4132,-59.0857 342.072,-54.0864 340.9933,-61.0028"/>
</g>
<!-- Node17&#45;&gt;Node10 -->
<g id="edge19" class="edge">
<title>Node17&#45;&gt;Node10</title>
<path fill="none" stroke="#191970" d="M346.6951,-54.0473C304.1778,-43.7401 243.5943,-29.0532 204.2851,-19.5237"/>
<polygon fill="#191970" stroke="#191970" points="346.009,-57.4823 356.5522,-56.4369 347.6583,-50.6793 346.009,-57.4823"/>
</g>
<!-- Node17&#45;&gt;Node11 -->
<g id="edge21" class="edge">
<title>Node17&#45;&gt;Node11</title>
<path fill="none" stroke="#191970" d="M366.4856,-52.1109C344.9062,-41.9559 316.2024,-28.4482 297.1899,-19.5011"/>
<polygon fill="#191970" stroke="#191970" points="365.0047,-55.2821 375.5432,-56.3733 367.9853,-48.9484 365.0047,-55.2821"/>
</g>
<!-- Node17&#45;&gt;Node12 -->
<g id="edge22" class="edge">
<title>Node17&#45;&gt;Node12</title>
<path fill="none" stroke="#191970" d="M425.3042,-51.9741C446.488,-41.8348 474.5403,-28.408 493.1494,-19.5011"/>
<polygon fill="#191970" stroke="#191970" points="423.622,-48.8989 416.113,-56.3733 426.6441,-55.2129 423.622,-48.8989"/>
</g>
<!-- Node17&#45;&gt;Node15 -->
<g id="edge23" class="edge">
<title>Node17&#45;&gt;Node15</title>
<path fill="none" stroke="#191970" d="M447.9344,-54.1775C493.2398,-43.8641 558.1255,-29.0934 600.1639,-19.5237"/>
<polygon fill="#191970" stroke="#191970" points="446.983,-50.8045 438.0094,-56.4369 448.5368,-57.6299 446.983,-50.8045"/>
</g>
<!-- Node17&#45;&gt;Node16 -->
<g id="edge24" class="edge">
<title>Node17&#45;&gt;Node16</title>
<path fill="none" stroke="#191970" d="M450.9536,-58.1729C512.6067,-49.3031 615.569,-34.2251 704,-20 706.9256,-19.5294 709.9327,-19.0371 712.9652,-18.534"/>
<polygon fill="#191970" stroke="#191970" points="450.0799,-54.7624 440.6791,-59.6486 451.0751,-61.6913 450.0799,-54.7624"/>
</g>
<!-- Node18 -->
<g id="node19" class="node">
<title>Node18</title>
<g id="a_node19"><a xlink:href="test__gso_8cpp.html" target="_top" xlink:title="tests/test_gso.cpp">
<polygon fill="#ffffff" stroke="#000000" points="339,-.5 339,-19.5 437,-19.5 437,-.5 339,-.5"/>
<text text-anchor="middle" x="388" y="-7.5" font-family="Helvetica,sans-Serif" font-size="10.00" fill="#000000">tests/test_gso.cpp</text>
</a>
</g>
</g>
<!-- Node17&#45;&gt;Node18 -->
<g id="edge20" class="edge">
<title>Node17&#45;&gt;Node18</title>
<path fill="none" stroke="#191970" d="M393.1654,-46.1575C391.8793,-37.155 390.4171,-26.9199 389.3775,-19.6427"/>
<polygon fill="#191970" stroke="#191970" points="389.7274,-46.8411 394.6065,-56.2455 396.657,-45.851 389.7274,-46.8411"/>
</g>
<!-- Node20&#45;&gt;Node5 -->
<g id="edge28" class="edge">
<title>Node20&#45;&gt;Node5</title>
<path fill="none" stroke="#191970" d="M917.4968,-109.8547C958.8567,-99.2787 1017.8202,-84.2012 1054.723,-74.7649"/>
<polygon fill="#191970" stroke="#191970" points="916.4686,-106.5049 907.6474,-112.3733 918.2028,-113.2867 916.4686,-106.5049"/>
</g>
</g>
</svg>
