<?xml version="1.0" encoding="UTF-8" standalone="no"?>
<!DOCTYPE svg PUBLIC "-//W3C//DTD SVG 1.1//EN"
 "http://www.w3.org/Graphics/SVG/1.1/DTD/svg11.dtd">
<!-- Generated by graphviz version 2.38.0 (20140413.2041)
 -->
<!-- Title: fplll/enum/enumerate_base.h Pages: 1 -->
<svg width="861pt" height="330pt"
 viewBox="0.00 0.00 861.00 330.00" xmlns="http://www.w3.org/2000/svg" xmlns:xlink="http://www.w3.org/1999/xlink">
<g id="graph0" class="graph" transform="scale(1 1) rotate(0) translate(4 326)">
<title>fplll/enum/enumerate_base.h</title>
<polygon fill="white" stroke="none" points="-4,4 -4,-326 857,-326 857,4 -4,4"/>
<!-- Node1 -->
<g id="node1" class="node"><title>Node1</title>
<polygon fill="#bfbfbf" stroke="black" points="533.5,-291.5 533.5,-321.5 640.5,-321.5 640.5,-291.5 533.5,-291.5"/>
<text text-anchor="start" x="541.5" y="-309.5" font-family="Helvetica,sans-Serif" font-size="10.00">fplll/enum/enumerate</text>
<text text-anchor="middle" x="587" y="-298.5" font-family="Helvetica,sans-Serif" font-size="10.00">_base.h</text>
</g>
<!-- Node2 -->
<g id="node2" class="node"><title>Node2</title>
<g id="a_node2"><a xlink:href="enumerate_8h.html" target="_top" xlink:title="fplll/enum/enumerate.h">
<polygon fill="white" stroke="black" points="464,-230 464,-249 580,-249 580,-230 464,-230"/>
<text text-anchor="middle" x="522" y="-237" font-family="Helvetica,sans-Serif" font-size="10.00">fplll/enum/enumerate.h</text>
</a>
</g>
</g>
<!-- Node1&#45;&gt;Node2 -->
<g id="edge1" class="edge"><title>Node1&#45;&gt;Node2</title>
<path fill="none" stroke="midnightblue" d="M565.497,-283.997C553.632,-272.132 539.552,-258.052 530.695,-249.195"/>
<polygon fill="midnightblue" stroke="midnightblue" points="563.35,-286.8 572.896,-291.396 568.3,-281.85 563.35,-286.8"/>
</g>
<!-- Node17 -->
<g id="node17" class="node"><title>Node17</title>
<g id="a_node17"><a xlink:href="enumerate__base_8cpp.html" target="_top" xlink:title="fplll/enum/enumerate\l_base.cpp">
<polygon fill="white" stroke="black" points="598.5,-224.5 598.5,-254.5 705.5,-254.5 705.5,-224.5 598.5,-224.5"/>
<text text-anchor="start" x="606.5" y="-242.5" font-family="Helvetica,sans-Serif" font-size="10.00">fplll/enum/enumerate</text>
<text text-anchor="middle" x="652" y="-231.5" font-family="Helvetica,sans-Serif" font-size="10.00">_base.cpp</text>
</a>
</g>
</g>
<!-- Node1&#45;&gt;Node17 -->
<g id="edge18" class="edge"><title>Node1&#45;&gt;Node17</title>
<path fill="none" stroke="midnightblue" d="M608.189,-284.311C617.939,-274.561 629.241,-263.259 637.923,-254.577"/>
<polygon fill="midnightblue" stroke="midnightblue" points="605.7,-281.85 601.104,-291.396 610.65,-286.8 605.7,-281.85"/>
</g>
<!-- Node3 -->
<g id="node3" class="node"><title>Node3</title>
<g id="a_node3"><a xlink:href="bkz_8h.html" target="_top" xlink:title="fplll/bkz.h">
<polygon fill="white" stroke="black" points="437.5,-168.5 437.5,-187.5 496.5,-187.5 496.5,-168.5 437.5,-168.5"/>
<text text-anchor="middle" x="467" y="-175.5" font-family="Helvetica,sans-Serif" font-size="10.00">fplll/bkz.h</text>
</a>
</g>
</g>
<!-- Node2&#45;&gt;Node3 -->
<g id="edge2" class="edge"><title>Node2&#45;&gt;Node3</title>
<path fill="none" stroke="midnightblue" d="M507.208,-222.497C496.798,-211.236 483.273,-196.604 474.866,-187.509"/>
<polygon fill="midnightblue" stroke="midnightblue" points="504.762,-225.008 514.12,-229.975 509.902,-220.256 504.762,-225.008"/>
</g>
<!-- Node4 -->
<g id="node4" class="node"><title>Node4</title>
<g id="a_node4"><a xlink:href="bkz_8cpp.html" target="_top" xlink:title="fplll/bkz.cpp">
<polygon fill="white" stroke="black" points="356.5,-112.5 356.5,-131.5 425.5,-131.5 425.5,-112.5 356.5,-112.5"/>
<text text-anchor="middle" x="391" y="-119.5" font-family="Helvetica,sans-Serif" font-size="10.00">fplll/bkz.cpp</text>
</a>
</g>
</g>
<!-- Node2&#45;&gt;Node4 -->
<g id="edge14" class="edge"><title>Node2&#45;&gt;Node4</title>
<path fill="none" stroke="midnightblue" d="M489.07,-225.927C469.879,-217.389 446.157,-204.624 429,-188 411.726,-171.263 399.653,-145.007 394.228,-131.561"/>
<polygon fill="midnightblue" stroke="midnightblue" points="487.784,-229.183 498.355,-229.89 490.532,-222.745 487.784,-229.183"/>
</g>
<!-- Node15 -->
<g id="node15" class="node"><title>Node15</title>
<g id="a_node15"><a xlink:href="enumerate_8cpp.html" target="_top" xlink:title="fplll/enum/enumerate.cpp">
<polygon fill="white" stroke="black" points="515,-168.5 515,-187.5 641,-187.5 641,-168.5 515,-168.5"/>
<text text-anchor="middle" x="578" y="-175.5" font-family="Helvetica,sans-Serif" font-size="10.00">fplll/enum/enumerate.cpp</text>
</a>
</g>
</g>
<!-- Node2&#45;&gt;Node15 -->
<g id="edge15" class="edge"><title>Node2&#45;&gt;Node15</title>
<path fill="none" stroke="midnightblue" d="M537.061,-222.497C547.661,-211.236 561.431,-196.604 569.991,-187.509"/>
<polygon fill="midnightblue" stroke="midnightblue" points="534.328,-220.294 530.023,-229.975 539.426,-225.092 534.328,-220.294"/>
</g>
<!-- Node16 -->
<g id="node16" class="node"><title>Node16</title>
<g id="a_node16"><a xlink:href="svpcvp_8cpp.html" target="_top" xlink:title="fplll/svpcvp.cpp">
<polygon fill="white" stroke="black" points="743.5,-112.5 743.5,-131.5 828.5,-131.5 828.5,-112.5 743.5,-112.5"/>
<text text-anchor="middle" x="786" y="-119.5" font-family="Helvetica,sans-Serif" font-size="10.00">fplll/svpcvp.cpp</text>
</a>
</g>
</g>
<!-- Node2&#45;&gt;Node16 -->
<g id="edge16" class="edge"><title>Node2&#45;&gt;Node16</title>
<path fill="none" stroke="midnightblue" d="M554.713,-226.319C580.731,-216.457 617.956,-201.958 650,-188 693.425,-169.084 743.43,-144.423 769.002,-131.597"/>
<polygon fill="midnightblue" stroke="midnightblue" points="553.445,-223.056 545.324,-229.86 555.916,-229.605 553.445,-223.056"/>
</g>
<!-- Node3&#45;&gt;Node4 -->
<g id="edge3" class="edge"><title>Node3&#45;&gt;Node4</title>
<path fill="none" stroke="midnightblue" d="M446.424,-162.38C432.688,-152.62 415.075,-140.106 403.433,-131.834"/>
<polygon fill="midnightblue" stroke="midnightblue" points="444.61,-165.385 454.789,-168.324 448.665,-159.679 444.61,-165.385"/>
</g>
<!-- Node5 -->
<g id="node5" class="node"><title>Node5</title>
<g id="a_node5"><a xlink:href="fplll_8h.html" target="_top" xlink:title="fplll/fplll.h">
<polygon fill="white" stroke="black" points="444,-112.5 444,-131.5 502,-131.5 502,-112.5 444,-112.5"/>
<text text-anchor="middle" x="473" y="-119.5" font-family="Helvetica,sans-Serif" font-size="10.00">fplll/fplll.h</text>
</a>
</g>
</g>
<!-- Node3&#45;&gt;Node5 -->
<g id="edge4" class="edge"><title>Node3&#45;&gt;Node5</title>
<path fill="none" stroke="midnightblue" d="M469.1,-158.101C470.096,-149.136 471.238,-138.858 472.028,-131.751"/>
<polygon fill="midnightblue" stroke="midnightblue" points="465.617,-157.758 467.991,-168.083 472.574,-158.531 465.617,-157.758"/>
</g>
<!-- Node6 -->
<g id="node6" class="node"><title>Node6</title>
<g id="a_node6"><a xlink:href="fplll_8cpp.html" target="_top" xlink:title="fplll/fplll.cpp">
<polygon fill="white" stroke="black" points="785,-56.5 785,-75.5 853,-75.5 853,-56.5 785,-56.5"/>
<text text-anchor="middle" x="819" y="-63.5" font-family="Helvetica,sans-Serif" font-size="10.00">fplll/fplll.cpp</text>
</a>
</g>
</g>
<!-- Node5&#45;&gt;Node6 -->
<g id="edge5" class="edge"><title>Node5&#45;&gt;Node6</title>
<path fill="none" stroke="midnightblue" d="M512.528,-115.886C570.488,-108.216 681.868,-92.826 776,-76 778.853,-75.49 781.807,-74.9331 784.768,-74.3545"/>
<polygon fill="midnightblue" stroke="midnightblue" points="511.801,-112.451 502.343,-117.227 512.715,-119.391 511.801,-112.451"/>
</g>
<!-- Node7 -->
<g id="node7" class="node"><title>Node7</title>
<g id="a_node7"><a xlink:href="main_8h.html" target="_top" xlink:title="fplll/main.h">
<polygon fill="white" stroke="black" points="5,-56.5 5,-75.5 69,-75.5 69,-56.5 5,-56.5"/>
<text text-anchor="middle" x="37" y="-63.5" font-family="Helvetica,sans-Serif" font-size="10.00">fplll/main.h</text>
</a>
</g>
</g>
<!-- Node5&#45;&gt;Node7 -->
<g id="edge6" class="edge"><title>Node5&#45;&gt;Node7</title>
<path fill="none" stroke="midnightblue" d="M433.568,-111.964C275.953,-86.1876 232.248,-100.622 78,-76 75.1214,-75.5405 72.1414,-75.0049 69.162,-74.4281"/>
<polygon fill="midnightblue" stroke="midnightblue" points="433.181,-115.448 443.62,-113.637 434.33,-108.543 433.181,-115.448"/>
</g>
<!-- Node9 -->
<g id="node9" class="node"><title>Node9</title>
<g id="a_node9"><a xlink:href="test__bkz_8cpp.html" target="_top" xlink:title="tests/test_bkz.cpp">
<polygon fill="white" stroke="black" points="87,-56.5 87,-75.5 185,-75.5 185,-56.5 87,-56.5"/>
<text text-anchor="middle" x="136" y="-63.5" font-family="Helvetica,sans-Serif" font-size="10.00">tests/test_bkz.cpp</text>
</a>
</g>
</g>
<!-- Node5&#45;&gt;Node9 -->
<g id="edge8" class="edge"><title>Node5&#45;&gt;Node9</title>
<path fill="none" stroke="midnightblue" d="M433.713,-111.878C326.973,-91.5344 297.929,-91.8256 194,-76 191.079,-75.5551 188.075,-75.0956 185.045,-74.6304"/>
<polygon fill="midnightblue" stroke="midnightblue" points="433.113,-115.326 443.594,-113.777 434.435,-108.452 433.113,-115.326"/>
</g>
<!-- Node10 -->
<g id="node10" class="node"><title>Node10</title>
<g id="a_node10"><a xlink:href="test__lll_8cpp.html" target="_top" xlink:title="tests/test_lll.cpp">
<polygon fill="white" stroke="black" points="202.5,-56.5 202.5,-75.5 291.5,-75.5 291.5,-56.5 202.5,-56.5"/>
<text text-anchor="middle" x="247" y="-63.5" font-family="Helvetica,sans-Serif" font-size="10.00">tests/test_lll.cpp</text>
</a>
</g>
</g>
<!-- Node5&#45;&gt;Node10 -->
<g id="edge9" class="edge"><title>Node5&#45;&gt;Node10</title>
<path fill="none" stroke="midnightblue" d="M433.925,-111.663C391.356,-101.492 323.846,-85.3615 282.668,-75.5225"/>
<polygon fill="midnightblue" stroke="midnightblue" points="433.377,-115.131 443.917,-114.051 435.004,-108.323 433.377,-115.131"/>
</g>
<!-- Node11 -->
<g id="node11" class="node"><title>Node11</title>
<g id="a_node11"><a xlink:href="test__nr_8cpp.html" target="_top" xlink:title="tests/test_nr.cpp">
<polygon fill="white" stroke="black" points="310,-56.5 310,-75.5 400,-75.5 400,-56.5 310,-56.5"/>
<text text-anchor="middle" x="355" y="-63.5" font-family="Helvetica,sans-Serif" font-size="10.00">tests/test_nr.cpp</text>
</a>
</g>
</g>
<!-- Node5&#45;&gt;Node11 -->
<g id="edge10" class="edge"><title>Node5&#45;&gt;Node11</title>
<path fill="none" stroke="midnightblue" d="M445.1,-108.232C423.027,-98.1312 392.824,-84.3091 373.61,-75.5164"/>
<polygon fill="midnightblue" stroke="midnightblue" points="443.753,-111.465 454.303,-112.444 446.666,-105.1 443.753,-111.465"/>
</g>
<!-- Node12 -->
<g id="node12" class="node"><title>Node12</title>
<g id="a_node12"><a xlink:href="test__pruner_8cpp.html" target="_top" xlink:title="tests/test_pruner.cpp">
<polygon fill="white" stroke="black" points="418.5,-56.5 418.5,-75.5 527.5,-75.5 527.5,-56.5 418.5,-56.5"/>
<text text-anchor="middle" x="473" y="-63.5" font-family="Helvetica,sans-Serif" font-size="10.00">tests/test_pruner.cpp</text>
</a>
</g>
</g>
<!-- Node5&#45;&gt;Node12 -->
<g id="edge11" class="edge"><title>Node5&#45;&gt;Node12</title>
<path fill="none" stroke="midnightblue" d="M473,-101.805C473,-92.9102 473,-82.7798 473,-75.7511"/>
<polygon fill="midnightblue" stroke="midnightblue" points="469.5,-102.083 473,-112.083 476.5,-102.083 469.5,-102.083"/>
</g>
<!-- Node13 -->
<g id="node13" class="node"><title>Node13</title>
<g id="a_node13"><a xlink:href="test__sieve_8cpp.html" target="_top" xlink:title="tests/test_sieve.cpp">
<polygon fill="white" stroke="black" points="545.5,-56.5 545.5,-75.5 650.5,-75.5 650.5,-56.5 545.5,-56.5"/>
<text text-anchor="middle" x="598" y="-63.5" font-family="Helvetica,sans-Serif" font-size="10.00">tests/test_sieve.cpp</text>
</a>
</g>
</g>
<!-- Node5&#45;&gt;Node13 -->
<g id="edge12" class="edge"><title>Node5&#45;&gt;Node13</title>
<path fill="none" stroke="midnightblue" d="M502.241,-108.368C525.65,-98.2553 557.841,-84.3486 578.286,-75.5164"/>
<polygon fill="midnightblue" stroke="midnightblue" points="500.599,-105.265 492.807,-112.444 503.375,-111.691 500.599,-105.265"/>
</g>
<!-- Node14 -->
<g id="node14" class="node"><title>Node14</title>
<g id="a_node14"><a xlink:href="test__svp_8cpp.html" target="_top" xlink:title="tests/test_svp.cpp">
<polygon fill="white" stroke="black" points="669,-56.5 669,-75.5 767,-75.5 767,-56.5 669,-56.5"/>
<text text-anchor="middle" x="718" y="-63.5" font-family="Helvetica,sans-Serif" font-size="10.00">tests/test_svp.cpp</text>
</a>
</g>
</g>
<!-- Node5&#45;&gt;Node14 -->
<g id="edge13" class="edge"><title>Node5&#45;&gt;Node14</title>
<path fill="none" stroke="midnightblue" d="M511.936,-112.418C557.805,-102.308 633.542,-85.6153 679.306,-75.5285"/>
<polygon fill="midnightblue" stroke="midnightblue" points="511.079,-109.023 502.067,-114.593 512.586,-115.859 511.079,-109.023"/>
</g>
<!-- Node8 -->
<g id="node8" class="node"><title>Node8</title>
<g id="a_node8"><a xlink:href="main_8cpp.html" target="_top" xlink:title="fplll/main.cpp">
<polygon fill="white" stroke="black" points="0,-0.5 0,-19.5 74,-19.5 74,-0.5 0,-0.5"/>
<text text-anchor="middle" x="37" y="-7.5" font-family="Helvetica,sans-Serif" font-size="10.00">fplll/main.cpp</text>
</a>
</g>
</g>
<!-- Node7&#45;&gt;Node8 -->
<g id="edge7" class="edge"><title>Node7&#45;&gt;Node8</title>
<path fill="none" stroke="midnightblue" d="M37,-45.8045C37,-36.9102 37,-26.7798 37,-19.7511"/>
<polygon fill="midnightblue" stroke="midnightblue" points="33.5001,-46.083 37,-56.083 40.5001,-46.083 33.5001,-46.083"/>
</g>
<!-- Node16&#45;&gt;Node6 -->
<g id="edge17" class="edge"><title>Node16&#45;&gt;Node6</title>
<path fill="none" stroke="midnightblue" d="M796.832,-103.275C802.472,-94.0454 809.118,-83.1703 813.652,-75.7511"/>
<polygon fill="midnightblue" stroke="midnightblue" points="793.677,-101.725 791.449,-112.083 799.65,-105.375 793.677,-101.725"/>
</g>
</g>
</svg>
