<?xml version="1.0" encoding="UTF-8" standalone="no"?>
<!DOCTYPE svg PUBLIC "-//W3C//DTD SVG 1.1//EN"
 "http://www.w3.org/Graphics/SVG/1.1/DTD/svg11.dtd">
<!-- Generated by graphviz version 2.43.0 (0)
 -->
<!-- Title: fplll/enum/enumerate_ext_api.h Pages: 1 -->
<svg width="1915pt" height="497pt"
 viewBox="0.00 0.00 1915.00 497.00" xmlns="http://www.w3.org/2000/svg" xmlns:xlink="http://www.w3.org/1999/xlink">
<g id="graph0" class="graph" transform="scale(1 1) rotate(0) translate(4 493)">
<title>fplll/enum/enumerate_ext_api.h</title>
<polygon fill="white" stroke="transparent" points="-4,4 -4,-493 1911,-493 1911,4 -4,4"/>
<!-- Node1 -->
<g id="node1" class="node">
<title>Node1</title>
<g id="a_node1"><a xlink:title=" ">
<polygon fill="#bfbfbf" stroke="black" points="821.5,-458.5 821.5,-488.5 928.5,-488.5 928.5,-458.5 821.5,-458.5"/>
<text text-anchor="start" x="829.5" y="-476.5" font-family="Helvetica,sans-Serif" font-size="10.00">fplll/enum/enumerate</text>
<text text-anchor="middle" x="875" y="-465.5" font-family="Helvetica,sans-Serif" font-size="10.00">_ext_api.h</text>
</a>
</g>
</g>
<!-- Node2 -->
<g id="node2" class="node">
<title>Node2</title>
<g id="a_node2"><a xlink:href="enumlib_8h.html" target="_top" xlink:title=" ">
<polygon fill="white" stroke="black" points="610,-190.5 610,-220.5 702,-220.5 702,-190.5 610,-190.5"/>
<text text-anchor="start" x="618" y="-208.5" font-family="Helvetica,sans-Serif" font-size="10.00">fplll/enum&#45;parallel</text>
<text text-anchor="middle" x="656" y="-197.5" font-family="Helvetica,sans-Serif" font-size="10.00">/enumlib.h</text>
</a>
</g>
</g>
<!-- Node1&#45;&gt;Node2 -->
<g id="edge1" class="edge">
<title>Node1&#45;&gt;Node2</title>
<path fill="none" stroke="midnightblue" d="M851.98,-451.43C816.95,-418.65 749.37,-352.48 702,-288 685.74,-265.87 670.9,-237.44 662.69,-220.67"/>
<polygon fill="midnightblue" stroke="midnightblue" points="849.64,-454.03 859.34,-458.28 854.4,-448.9 849.64,-454.03"/>
</g>
<!-- Node4 -->
<g id="node4" class="node">
<title>Node4</title>
<g id="a_node4"><a xlink:href="enumerate__base_8h.html" target="_top" xlink:title=" ">
<polygon fill="white" stroke="black" points="903.5,-391.5 903.5,-421.5 1010.5,-421.5 1010.5,-391.5 903.5,-391.5"/>
<text text-anchor="start" x="911.5" y="-409.5" font-family="Helvetica,sans-Serif" font-size="10.00">fplll/enum/enumerate</text>
<text text-anchor="middle" x="957" y="-398.5" font-family="Helvetica,sans-Serif" font-size="10.00">_base.h</text>
</a>
</g>
</g>
<!-- Node1&#45;&gt;Node4 -->
<g id="edge3" class="edge">
<title>Node1&#45;&gt;Node4</title>
<path fill="none" stroke="midnightblue" d="M900.65,-452.17C913.19,-442.23 927.97,-430.51 939.24,-421.58"/>
<polygon fill="midnightblue" stroke="midnightblue" points="898.46,-449.44 892.79,-458.4 902.8,-454.93 898.46,-449.44"/>
</g>
<!-- Node38 -->
<g id="node38" class="node">
<title>Node38</title>
<g id="a_node38"><a xlink:href="enumerate__ext_8h.html" target="_top" xlink:title=" ">
<polygon fill="white" stroke="black" points="821.5,-324.5 821.5,-354.5 928.5,-354.5 928.5,-324.5 821.5,-324.5"/>
<text text-anchor="start" x="829.5" y="-342.5" font-family="Helvetica,sans-Serif" font-size="10.00">fplll/enum/enumerate</text>
<text text-anchor="middle" x="875" y="-331.5" font-family="Helvetica,sans-Serif" font-size="10.00">_ext.h</text>
</a>
</g>
</g>
<!-- Node1&#45;&gt;Node38 -->
<g id="edge62" class="edge">
<title>Node1&#45;&gt;Node38</title>
<path fill="none" stroke="midnightblue" d="M875,-448.02C875,-420.51 875,-376.79 875,-354.52"/>
<polygon fill="midnightblue" stroke="midnightblue" points="871.5,-448.37 875,-458.37 878.5,-448.37 871.5,-448.37"/>
</g>
<!-- Node3 -->
<g id="node3" class="node">
<title>Node3</title>
<g id="a_node3"><a xlink:href="enumlib_8cpp.html" target="_top" xlink:title=" ">
<polygon fill="white" stroke="black" points="720,-123.5 720,-153.5 812,-153.5 812,-123.5 720,-123.5"/>
<text text-anchor="start" x="728" y="-141.5" font-family="Helvetica,sans-Serif" font-size="10.00">fplll/enum&#45;parallel</text>
<text text-anchor="middle" x="766" y="-130.5" font-family="Helvetica,sans-Serif" font-size="10.00">/enumlib.cpp</text>
</a>
</g>
</g>
<!-- Node2&#45;&gt;Node3 -->
<g id="edge2" class="edge">
<title>Node2&#45;&gt;Node3</title>
<path fill="none" stroke="midnightblue" d="M688.5,-185.3C705.71,-175.12 726.48,-162.85 742.18,-153.58"/>
<polygon fill="midnightblue" stroke="midnightblue" points="686.7,-182.3 679.87,-190.4 690.26,-188.32 686.7,-182.3"/>
</g>
<!-- Node5 -->
<g id="node5" class="node">
<title>Node5</title>
<g id="a_node5"><a xlink:href="enumerate_8h.html" target="_top" xlink:title=" ">
<polygon fill="white" stroke="black" points="947,-263 947,-282 1063,-282 1063,-263 947,-263"/>
<text text-anchor="middle" x="1005" y="-270" font-family="Helvetica,sans-Serif" font-size="10.00">fplll/enum/enumerate.h</text>
</a>
</g>
</g>
<!-- Node4&#45;&gt;Node5 -->
<g id="edge4" class="edge">
<title>Node4&#45;&gt;Node5</title>
<path fill="none" stroke="midnightblue" d="M961.17,-381.38C964.44,-364.88 969.67,-342.69 977,-324 983.07,-308.51 993.04,-291.87 999.3,-282.09"/>
<polygon fill="midnightblue" stroke="midnightblue" points="957.71,-380.83 959.3,-391.31 964.59,-382.13 957.71,-380.83"/>
</g>
<!-- Node37 -->
<g id="node37" class="node">
<title>Node37</title>
<g id="a_node37"><a xlink:href="enumerate__base_8cpp.html" target="_top" xlink:title=" ">
<polygon fill="white" stroke="black" points="985.5,-324.5 985.5,-354.5 1092.5,-354.5 1092.5,-324.5 985.5,-324.5"/>
<text text-anchor="start" x="993.5" y="-342.5" font-family="Helvetica,sans-Serif" font-size="10.00">fplll/enum/enumerate</text>
<text text-anchor="middle" x="1039" y="-331.5" font-family="Helvetica,sans-Serif" font-size="10.00">_base.cpp</text>
</a>
</g>
</g>
<!-- Node4&#45;&gt;Node37 -->
<g id="edge53" class="edge">
<title>Node4&#45;&gt;Node37</title>
<path fill="none" stroke="midnightblue" d="M982.65,-385.17C995.19,-375.23 1009.97,-363.51 1021.24,-354.58"/>
<polygon fill="midnightblue" stroke="midnightblue" points="980.46,-382.44 974.79,-391.4 984.8,-387.93 980.46,-382.44"/>
</g>
<!-- Node4&#45;&gt;Node38 -->
<g id="edge54" class="edge">
<title>Node4&#45;&gt;Node38</title>
<path fill="none" stroke="midnightblue" d="M931.35,-385.17C918.81,-375.23 904.03,-363.51 892.76,-354.58"/>
<polygon fill="midnightblue" stroke="midnightblue" points="929.2,-387.93 939.21,-391.4 933.54,-382.44 929.2,-387.93"/>
</g>
<!-- Node6 -->
<g id="node6" class="node">
<title>Node6</title>
<g id="a_node6"><a xlink:href="bkz_8cpp.html" target="_top" xlink:title=" ">
<polygon fill="white" stroke="black" points="1101.5,-129 1101.5,-148 1170.5,-148 1170.5,-129 1101.5,-129"/>
<text text-anchor="middle" x="1136" y="-136" font-family="Helvetica,sans-Serif" font-size="10.00">fplll/bkz.cpp</text>
</a>
</g>
</g>
<!-- Node5&#45;&gt;Node6 -->
<g id="edge5" class="edge">
<title>Node5&#45;&gt;Node6</title>
<path fill="none" stroke="midnightblue" d="M1073.34,-267.66C1106.04,-261.96 1142.45,-249.14 1163,-221 1179.79,-198.01 1156.5,-163.96 1143.59,-148.15"/>
<polygon fill="midnightblue" stroke="midnightblue" points="1072.68,-264.22 1063.34,-269.2 1073.75,-271.13 1072.68,-264.22"/>
</g>
<!-- Node7 -->
<g id="node7" class="node">
<title>Node7</title>
<g id="a_node7"><a xlink:href="bkz_8h.html" target="_top" xlink:title=" ">
<polygon fill="white" stroke="black" points="950.5,-196 950.5,-215 1009.5,-215 1009.5,-196 950.5,-196"/>
<text text-anchor="middle" x="980" y="-203" font-family="Helvetica,sans-Serif" font-size="10.00">fplll/bkz.h</text>
</a>
</g>
</g>
<!-- Node5&#45;&gt;Node7 -->
<g id="edge6" class="edge">
<title>Node5&#45;&gt;Node7</title>
<path fill="none" stroke="midnightblue" d="M998,-253.29C993.2,-240.81 987.04,-224.81 983.32,-215.13"/>
<polygon fill="midnightblue" stroke="midnightblue" points="994.77,-254.66 1001.63,-262.73 1001.31,-252.14 994.77,-254.66"/>
</g>
<!-- Node35 -->
<g id="node35" class="node">
<title>Node35</title>
<g id="a_node35"><a xlink:href="enumerate_8cpp.html" target="_top" xlink:title=" ">
<polygon fill="white" stroke="black" points="1028,-196 1028,-215 1154,-215 1154,-196 1028,-196"/>
<text text-anchor="middle" x="1091" y="-203" font-family="Helvetica,sans-Serif" font-size="10.00">fplll/enum/enumerate.cpp</text>
</a>
</g>
</g>
<!-- Node5&#45;&gt;Node35 -->
<g id="edge50" class="edge">
<title>Node5&#45;&gt;Node35</title>
<path fill="none" stroke="midnightblue" d="M1024.76,-256.57C1041.73,-243.74 1065.62,-225.69 1079.59,-215.13"/>
<polygon fill="midnightblue" stroke="midnightblue" points="1022.47,-253.91 1016.6,-262.73 1026.69,-259.5 1022.47,-253.91"/>
</g>
<!-- Node36 -->
<g id="node36" class="node">
<title>Node36</title>
<g id="a_node36"><a xlink:href="svpcvp_8cpp.html" target="_top" xlink:title=" ">
<polygon fill="white" stroke="black" points="851.5,-129 851.5,-148 936.5,-148 936.5,-129 851.5,-129"/>
<text text-anchor="middle" x="894" y="-136" font-family="Helvetica,sans-Serif" font-size="10.00">fplll/svpcvp.cpp</text>
</a>
</g>
</g>
<!-- Node5&#45;&gt;Node36 -->
<g id="edge51" class="edge">
<title>Node5&#45;&gt;Node36</title>
<path fill="none" stroke="midnightblue" d="M983.15,-257.03C970.19,-247.74 954,-234.86 942,-221 921.47,-197.29 904.85,-163.59 897.74,-148.01"/>
<polygon fill="midnightblue" stroke="midnightblue" points="981.31,-260.01 991.52,-262.85 985.31,-254.26 981.31,-260.01"/>
</g>
<!-- Node7&#45;&gt;Node6 -->
<g id="edge7" class="edge">
<title>Node7&#45;&gt;Node6</title>
<path fill="none" stroke="midnightblue" d="M1010.12,-191.95C1041.01,-179.08 1088.23,-159.4 1115.2,-148.17"/>
<polygon fill="midnightblue" stroke="midnightblue" points="1008.6,-188.79 1000.72,-195.87 1011.29,-195.25 1008.6,-188.79"/>
</g>
<!-- Node8 -->
<g id="node8" class="node">
<title>Node8</title>
<g id="a_node8"><a xlink:href="fplll_8h.html" target="_top" xlink:title=" ">
<polygon fill="white" stroke="black" points="965,-129 965,-148 1023,-148 1023,-129 965,-129"/>
<text text-anchor="middle" x="994" y="-136" font-family="Helvetica,sans-Serif" font-size="10.00">fplll/fplll.h</text>
</a>
</g>
</g>
<!-- Node7&#45;&gt;Node8 -->
<g id="edge8" class="edge">
<title>Node7&#45;&gt;Node8</title>
<path fill="none" stroke="midnightblue" d="M984,-185.91C986.68,-173.49 990.08,-157.72 992.14,-148.13"/>
<polygon fill="midnightblue" stroke="midnightblue" points="980.57,-185.22 981.89,-195.73 987.42,-186.69 980.57,-185.22"/>
</g>
<!-- Node9 -->
<g id="node9" class="node">
<title>Node9</title>
<g id="a_node9"><a xlink:href="fplll_8cpp.html" target="_top" xlink:title=" ">
<polygon fill="white" stroke="black" points="0,-62 0,-81 68,-81 68,-62 0,-62"/>
<text text-anchor="middle" x="34" y="-69" font-family="Helvetica,sans-Serif" font-size="10.00">fplll/fplll.cpp</text>
</a>
</g>
</g>
<!-- Node8&#45;&gt;Node9 -->
<g id="edge9" class="edge">
<title>Node8&#45;&gt;Node9</title>
<path fill="none" stroke="midnightblue" d="M959.95,-126.07C955.31,-124.85 950.57,-123.77 946,-123 564.85,-58.6 457.08,-157.47 77,-87 69.87,-85.68 62.32,-83.43 55.56,-81.1"/>
<polygon fill="midnightblue" stroke="midnightblue" points="959.29,-129.52 969.86,-128.91 961.22,-122.79 959.29,-129.52"/>
</g>
<!-- Node10 -->
<g id="node10" class="node">
<title>Node10</title>
<g id="a_node10"><a xlink:href="main_8h.html" target="_top" xlink:title=" ">
<polygon fill="white" stroke="black" points="1838,-62 1838,-81 1902,-81 1902,-62 1838,-62"/>
<text text-anchor="middle" x="1870" y="-69" font-family="Helvetica,sans-Serif" font-size="10.00">fplll/main.h</text>
</a>
</g>
</g>
<!-- Node8&#45;&gt;Node10 -->
<g id="edge10" class="edge">
<title>Node8&#45;&gt;Node10</title>
<path fill="none" stroke="midnightblue" d="M1033.29,-130.85C1051.42,-128.02 1073.25,-124.92 1093,-123 1418.96,-91.23 1507.67,-150.27 1829,-87 1835.82,-85.66 1843.03,-83.41 1849.47,-81.08"/>
<polygon fill="midnightblue" stroke="midnightblue" points="1032.69,-127.41 1023.37,-132.44 1033.79,-134.32 1032.69,-127.41"/>
</g>
<!-- Node12 -->
<g id="node12" class="node">
<title>Node12</title>
<g id="a_node12"><a xlink:href="pruner_8cpp.html" target="_top" xlink:title=" ">
<polygon fill="white" stroke="black" points="401,-0.5 401,-19.5 511,-19.5 511,-0.5 401,-0.5"/>
<text text-anchor="middle" x="456" y="-7.5" font-family="Helvetica,sans-Serif" font-size="10.00">fplll/pruner/pruner.cpp</text>
</a>
</g>
</g>
<!-- Node8&#45;&gt;Node12 -->
<g id="edge12" class="edge">
<title>Node8&#45;&gt;Node12</title>
<path fill="none" stroke="midnightblue" d="M958.77,-126.13C954.49,-124.97 950.17,-123.89 946,-123 822.87,-96.7 780.68,-136.71 665,-87 644.97,-78.39 646.42,-65.89 627,-56 590.61,-37.48 545.88,-26.06 511.29,-19.36"/>
<polygon fill="midnightblue" stroke="midnightblue" points="957.97,-129.55 968.55,-128.95 959.91,-122.82 957.97,-129.55"/>
</g>
<!-- Node13 -->
<g id="node13" class="node">
<title>Node13</title>
<g id="a_node13"><a xlink:href="pruner__cost_8cpp.html" target="_top" xlink:title=" ">
<polygon fill="white" stroke="black" points="674,-56.5 674,-86.5 766,-86.5 766,-56.5 674,-56.5"/>
<text text-anchor="start" x="682" y="-74.5" font-family="Helvetica,sans-Serif" font-size="10.00">fplll/pruner/pruner</text>
<text text-anchor="middle" x="720" y="-63.5" font-family="Helvetica,sans-Serif" font-size="10.00">_cost.cpp</text>
</a>
</g>
</g>
<!-- Node8&#45;&gt;Node13 -->
<g id="edge13" class="edge">
<title>Node8&#45;&gt;Node13</title>
<path fill="none" stroke="midnightblue" d="M957.29,-126.06C953.49,-124.98 949.67,-123.94 946,-123 870.76,-103.75 850.57,-104.91 775,-87 772.12,-86.32 769.15,-85.6 766.17,-84.85"/>
<polygon fill="midnightblue" stroke="midnightblue" points="956.62,-129.51 967.2,-128.96 958.59,-122.79 956.62,-129.51"/>
</g>
<!-- Node14 -->
<g id="node14" class="node">
<title>Node14</title>
<g id="a_node14"><a xlink:href="pruner__optimize_8cpp.html" target="_top" xlink:title=" ">
<polygon fill="white" stroke="black" points="86,-56.5 86,-86.5 178,-86.5 178,-56.5 86,-56.5"/>
<text text-anchor="start" x="94" y="-74.5" font-family="Helvetica,sans-Serif" font-size="10.00">fplll/pruner/pruner</text>
<text text-anchor="middle" x="132" y="-63.5" font-family="Helvetica,sans-Serif" font-size="10.00">_optimize.cpp</text>
</a>
</g>
</g>
<!-- Node8&#45;&gt;Node14 -->
<g id="edge15" class="edge">
<title>Node8&#45;&gt;Node14</title>
<path fill="none" stroke="midnightblue" d="M959.95,-126.1C955.3,-124.87 950.56,-123.79 946,-123 613.18,-65.74 520.79,-138.33 187,-87 184.07,-86.55 181.07,-86.01 178.07,-85.4"/>
<polygon fill="midnightblue" stroke="midnightblue" points="959.28,-129.55 969.86,-128.94 961.22,-122.82 959.28,-129.55"/>
</g>
<!-- Node15 -->
<g id="node15" class="node">
<title>Node15</title>
<g id="a_node15"><a xlink:href="pruner__optimize__tc_8cpp.html" target="_top" xlink:title=" ">
<polygon fill="white" stroke="black" points="196,-56.5 196,-86.5 288,-86.5 288,-56.5 196,-56.5"/>
<text text-anchor="start" x="204" y="-74.5" font-family="Helvetica,sans-Serif" font-size="10.00">fplll/pruner/pruner</text>
<text text-anchor="middle" x="242" y="-63.5" font-family="Helvetica,sans-Serif" font-size="10.00">_optimize_tc.cpp</text>
</a>
</g>
</g>
<!-- Node8&#45;&gt;Node15 -->
<g id="edge17" class="edge">
<title>Node8&#45;&gt;Node15</title>
<path fill="none" stroke="midnightblue" d="M959.94,-126.13C955.3,-124.9 950.56,-123.8 946,-123 661.49,-72.88 582.35,-132.05 297,-87 294.07,-86.54 291.08,-85.99 288.07,-85.37"/>
<polygon fill="midnightblue" stroke="midnightblue" points="959.27,-129.58 969.85,-128.98 961.21,-122.85 959.27,-129.58"/>
</g>
<!-- Node16 -->
<g id="node16" class="node">
<title>Node16</title>
<g id="a_node16"><a xlink:href="pruner__optimize__tp_8cpp.html" target="_top" xlink:title=" ">
<polygon fill="white" stroke="black" points="306,-56.5 306,-86.5 398,-86.5 398,-56.5 306,-56.5"/>
<text text-anchor="start" x="314" y="-74.5" font-family="Helvetica,sans-Serif" font-size="10.00">fplll/pruner/pruner</text>
<text text-anchor="middle" x="352" y="-63.5" font-family="Helvetica,sans-Serif" font-size="10.00">_optimize_tp.cpp</text>
</a>
</g>
</g>
<!-- Node8&#45;&gt;Node16 -->
<g id="edge19" class="edge">
<title>Node8&#45;&gt;Node16</title>
<path fill="none" stroke="midnightblue" d="M959.63,-126.1C955.08,-124.89 950.46,-123.81 946,-123 709.79,-80.01 643.94,-125.78 407,-87 404.08,-86.52 401.08,-85.96 398.08,-85.33"/>
<polygon fill="midnightblue" stroke="midnightblue" points="958.77,-129.49 969.35,-128.89 960.7,-122.76 958.77,-129.49"/>
</g>
<!-- Node17 -->
<g id="node17" class="node">
<title>Node17</title>
<g id="a_node17"><a xlink:href="pruner__prob_8cpp.html" target="_top" xlink:title=" ">
<polygon fill="white" stroke="black" points="416,-56.5 416,-86.5 508,-86.5 508,-56.5 416,-56.5"/>
<text text-anchor="start" x="424" y="-74.5" font-family="Helvetica,sans-Serif" font-size="10.00">fplll/pruner/pruner</text>
<text text-anchor="middle" x="462" y="-63.5" font-family="Helvetica,sans-Serif" font-size="10.00">_prob.cpp</text>
</a>
</g>
</g>
<!-- Node8&#45;&gt;Node17 -->
<g id="edge21" class="edge">
<title>Node8&#45;&gt;Node17</title>
<path fill="none" stroke="midnightblue" d="M959.62,-126.17C955.07,-124.95 950.45,-123.85 946,-123 758.05,-87.14 705.55,-119.51 517,-87 514.08,-86.5 511.09,-85.91 508.09,-85.27"/>
<polygon fill="midnightblue" stroke="midnightblue" points="958.76,-129.56 969.33,-128.97 960.69,-122.84 958.76,-129.56"/>
</g>
<!-- Node18 -->
<g id="node18" class="node">
<title>Node18</title>
<g id="a_node18"><a xlink:href="pruner__util_8cpp.html" target="_top" xlink:title=" ">
<polygon fill="white" stroke="black" points="526,-56.5 526,-86.5 618,-86.5 618,-56.5 526,-56.5"/>
<text text-anchor="start" x="534" y="-74.5" font-family="Helvetica,sans-Serif" font-size="10.00">fplll/pruner/pruner</text>
<text text-anchor="middle" x="572" y="-63.5" font-family="Helvetica,sans-Serif" font-size="10.00">_util.cpp</text>
</a>
</g>
</g>
<!-- Node8&#45;&gt;Node18 -->
<g id="edge23" class="edge">
<title>Node8&#45;&gt;Node18</title>
<path fill="none" stroke="midnightblue" d="M958.93,-126.12C954.6,-124.95 950.22,-123.87 946,-123 808.44,-94.58 770.31,-111.54 632,-87 627.46,-86.19 622.76,-85.25 618.07,-84.24"/>
<polygon fill="midnightblue" stroke="midnightblue" points="958.23,-129.56 968.81,-128.96 960.17,-122.83 958.23,-129.56"/>
</g>
<!-- Node19 -->
<g id="node19" class="node">
<title>Node19</title>
<g id="a_node19"><a xlink:href="test__babai_8cpp.html" target="_top" xlink:title=" ">
<polygon fill="white" stroke="black" points="784.5,-62 784.5,-81 889.5,-81 889.5,-62 784.5,-62"/>
<text text-anchor="middle" x="837" y="-69" font-family="Helvetica,sans-Serif" font-size="10.00">tests/test_babai.cpp</text>
</a>
</g>
</g>
<!-- Node8&#45;&gt;Node19 -->
<g id="edge25" class="edge">
<title>Node8&#45;&gt;Node19</title>
<path fill="none" stroke="midnightblue" d="M963.68,-124.95C932.6,-112.08 885.07,-92.4 857.93,-81.17"/>
<polygon fill="midnightblue" stroke="midnightblue" points="962.57,-128.28 973.15,-128.87 965.25,-121.81 962.57,-128.28"/>
</g>
<!-- Node20 -->
<g id="node20" class="node">
<title>Node20</title>
<g id="a_node20"><a xlink:href="test__bkz_8cpp.html" target="_top" xlink:title=" ">
<polygon fill="white" stroke="black" points="529,-0.5 529,-19.5 627,-19.5 627,-0.5 529,-0.5"/>
<text text-anchor="middle" x="578" y="-7.5" font-family="Helvetica,sans-Serif" font-size="10.00">tests/test_bkz.cpp</text>
</a>
</g>
</g>
<!-- Node8&#45;&gt;Node20 -->
<g id="edge26" class="edge">
<title>Node8&#45;&gt;Node20</title>
<path fill="none" stroke="midnightblue" d="M975.02,-122.49C962.63,-112.59 946.18,-99.22 932,-87 916.51,-73.65 916.52,-64.67 898,-56 791.55,-6.16 752.3,-37.01 636,-20 633.08,-19.57 630.07,-19.13 627.04,-18.67"/>
<polygon fill="midnightblue" stroke="midnightblue" points="972.87,-125.25 982.87,-128.74 977.23,-119.78 972.87,-125.25"/>
</g>
<!-- Node21 -->
<g id="node21" class="node">
<title>Node21</title>
<g id="a_node21"><a xlink:href="test__bkz__gram_8cpp.html" target="_top" xlink:title=" ">
<polygon fill="white" stroke="black" points="645.5,-0.5 645.5,-19.5 770.5,-19.5 770.5,-0.5 645.5,-0.5"/>
<text text-anchor="middle" x="708" y="-7.5" font-family="Helvetica,sans-Serif" font-size="10.00">tests/test_bkz_gram.cpp</text>
</a>
</g>
</g>
<!-- Node8&#45;&gt;Node21 -->
<g id="edge27" class="edge">
<title>Node8&#45;&gt;Node21</title>
<path fill="none" stroke="midnightblue" d="M985.55,-119.93C975.5,-101.03 956.91,-71.59 932,-56 917.59,-46.98 821.95,-29.85 760.39,-19.52"/>
<polygon fill="midnightblue" stroke="midnightblue" points="982.48,-121.62 990.12,-128.96 988.72,-118.45 982.48,-121.62"/>
</g>
<!-- Node22 -->
<g id="node22" class="node">
<title>Node22</title>
<g id="a_node22"><a xlink:href="test__ceil_8cpp.html" target="_top" xlink:title=" ">
<polygon fill="white" stroke="black" points="1358.5,-62 1358.5,-81 1455.5,-81 1455.5,-62 1358.5,-62"/>
<text text-anchor="middle" x="1407" y="-69" font-family="Helvetica,sans-Serif" font-size="10.00">tests/test_ceil.cpp</text>
</a>
</g>
</g>
<!-- Node8&#45;&gt;Node22 -->
<g id="edge28" class="edge">
<title>Node8&#45;&gt;Node22</title>
<path fill="none" stroke="midnightblue" d="M1033,-131.76C1051.22,-129.09 1073.22,-125.87 1093,-123 1204.53,-106.83 1233.21,-107.66 1344,-87 1353.27,-85.27 1363.24,-83.12 1372.45,-81"/>
<polygon fill="midnightblue" stroke="midnightblue" points="1032.41,-128.31 1023.02,-133.23 1033.42,-135.24 1032.41,-128.31"/>
</g>
<!-- Node23 -->
<g id="node23" class="node">
<title>Node23</title>
<g id="a_node23"><a xlink:href="test__counter_8cpp.html" target="_top" xlink:title=" ">
<polygon fill="white" stroke="black" points="1473.5,-62 1473.5,-81 1586.5,-81 1586.5,-62 1473.5,-62"/>
<text text-anchor="middle" x="1530" y="-69" font-family="Helvetica,sans-Serif" font-size="10.00">tests/test_counter.cpp</text>
</a>
</g>
</g>
<!-- Node8&#45;&gt;Node23 -->
<g id="edge29" class="edge">
<title>Node8&#45;&gt;Node23</title>
<path fill="none" stroke="midnightblue" d="M1033.34,-131.29C1051.48,-128.54 1073.3,-125.39 1093,-123 1257.89,-102.96 1300.96,-113.13 1465,-87 1474.93,-85.42 1485.62,-83.24 1495.41,-81.05"/>
<polygon fill="midnightblue" stroke="midnightblue" points="1032.76,-127.83 1023.41,-132.81 1033.82,-134.75 1032.76,-127.83"/>
</g>
<!-- Node24 -->
<g id="node24" class="node">
<title>Node24</title>
<g id="a_node24"><a xlink:href="test__cvp_8cpp.html" target="_top" xlink:title=" ">
<polygon fill="white" stroke="black" points="789,-0.5 789,-19.5 887,-19.5 887,-0.5 789,-0.5"/>
<text text-anchor="middle" x="838" y="-7.5" font-family="Helvetica,sans-Serif" font-size="10.00">tests/test_cvp.cpp</text>
</a>
</g>
</g>
<!-- Node8&#45;&gt;Node24 -->
<g id="edge30" class="edge">
<title>Node8&#45;&gt;Node24</title>
<path fill="none" stroke="midnightblue" d="M993.26,-118.56C991.56,-100.27 986.23,-72.93 970,-56 956.68,-42.11 908.99,-28.11 874.75,-19.5"/>
<polygon fill="midnightblue" stroke="midnightblue" points="989.78,-118.85 993.92,-128.6 996.76,-118.39 989.78,-118.85"/>
</g>
<!-- Node25 -->
<g id="node25" class="node">
<title>Node25</title>
<g id="a_node25"><a xlink:href="test__enum_8cpp.html" target="_top" xlink:title=" ">
<polygon fill="white" stroke="black" points="905,-0.5 905,-19.5 1011,-19.5 1011,-0.5 905,-0.5"/>
<text text-anchor="middle" x="958" y="-7.5" font-family="Helvetica,sans-Serif" font-size="10.00">tests/test_enum.cpp</text>
</a>
</g>
</g>
<!-- Node8&#45;&gt;Node25 -->
<g id="edge31" class="edge">
<title>Node8&#45;&gt;Node25</title>
<path fill="none" stroke="midnightblue" d="M1002.95,-119.17C1009.95,-102.14 1017.09,-76.42 1008,-56 1000.87,-40 984.93,-27.3 972.95,-19.53"/>
<polygon fill="midnightblue" stroke="midnightblue" points="999.66,-117.97 998.76,-128.52 1006.05,-120.83 999.66,-117.97"/>
</g>
<!-- Node26 -->
<g id="node26" class="node">
<title>Node26</title>
<g id="a_node26"><a xlink:href="test__hlll_8cpp.html" target="_top" xlink:title=" ">
<polygon fill="white" stroke="black" points="1029,-0.5 1029,-19.5 1123,-19.5 1123,-0.5 1029,-0.5"/>
<text text-anchor="middle" x="1076" y="-7.5" font-family="Helvetica,sans-Serif" font-size="10.00">tests/test_hlll.cpp</text>
</a>
</g>
</g>
<!-- Node8&#45;&gt;Node26 -->
<g id="edge32" class="edge">
<title>Node8&#45;&gt;Node26</title>
<path fill="none" stroke="midnightblue" d="M1005.17,-120.26C1022.91,-92.9 1056.88,-40.49 1070.32,-19.76"/>
<polygon fill="midnightblue" stroke="midnightblue" points="1002.14,-118.51 999.64,-128.81 1008.01,-122.32 1002.14,-118.51"/>
</g>
<!-- Node27 -->
<g id="node27" class="node">
<title>Node27</title>
<g id="a_node27"><a xlink:href="test__lll_8cpp.html" target="_top" xlink:title=" ">
<polygon fill="white" stroke="black" points="1257.5,-0.5 1257.5,-19.5 1346.5,-19.5 1346.5,-0.5 1257.5,-0.5"/>
<text text-anchor="middle" x="1302" y="-7.5" font-family="Helvetica,sans-Serif" font-size="10.00">tests/test_lll.cpp</text>
</a>
</g>
</g>
<!-- Node8&#45;&gt;Node27 -->
<g id="edge33" class="edge">
<title>Node8&#45;&gt;Node27</title>
<path fill="none" stroke="midnightblue" d="M1033.17,-132.31C1075.17,-125.71 1143.11,-112.05 1197,-87 1197.64,-86.7 1262.65,-39.55 1290.04,-19.68"/>
<polygon fill="midnightblue" stroke="midnightblue" points="1032.43,-128.88 1023.07,-133.83 1033.48,-135.8 1032.43,-128.88"/>
</g>
<!-- Node28 -->
<g id="node28" class="node">
<title>Node28</title>
<g id="a_node28"><a xlink:href="test__lll__gram_8cpp.html" target="_top" xlink:title=" ">
<polygon fill="white" stroke="black" points="1364,-0.5 1364,-19.5 1480,-19.5 1480,-0.5 1364,-0.5"/>
<text text-anchor="middle" x="1422" y="-7.5" font-family="Helvetica,sans-Serif" font-size="10.00">tests/test_lll_gram.cpp</text>
</a>
</g>
</g>
<!-- Node8&#45;&gt;Node28 -->
<g id="edge34" class="edge">
<title>Node8&#45;&gt;Node28</title>
<path fill="none" stroke="midnightblue" d="M1033.4,-130.94C1091.15,-121.01 1195.75,-101.76 1231,-87 1254.08,-77.34 1255.39,-66.73 1278,-56 1312.79,-39.5 1355.1,-27.11 1384.83,-19.55"/>
<polygon fill="midnightblue" stroke="midnightblue" points="1032.46,-127.55 1023.19,-132.68 1033.64,-134.45 1032.46,-127.55"/>
</g>
<!-- Node29 -->
<g id="node29" class="node">
<title>Node29</title>
<g id="a_node29"><a xlink:href="test__nr_8cpp.html" target="_top" xlink:title=" ">
<polygon fill="white" stroke="black" points="1604.5,-62 1604.5,-81 1693.5,-81 1693.5,-62 1604.5,-62"/>
<text text-anchor="middle" x="1649" y="-69" font-family="Helvetica,sans-Serif" font-size="10.00">tests/test_nr.cpp</text>
</a>
</g>
</g>
<!-- Node8&#45;&gt;Node29 -->
<g id="edge35" class="edge">
<title>Node8&#45;&gt;Node29</title>
<path fill="none" stroke="midnightblue" d="M1033.31,-131.06C1051.44,-128.26 1073.28,-125.15 1093,-123 1315.81,-98.74 1375.08,-124.75 1596,-87 1604.46,-85.55 1613.53,-83.33 1621.72,-81.06"/>
<polygon fill="midnightblue" stroke="midnightblue" points="1032.72,-127.61 1023.38,-132.61 1033.81,-134.53 1032.72,-127.61"/>
</g>
<!-- Node30 -->
<g id="node30" class="node">
<title>Node30</title>
<g id="a_node30"><a xlink:href="test__pruner_8cpp.html" target="_top" xlink:title=" ">
<polygon fill="white" stroke="black" points="1712,-62 1712,-81 1820,-81 1820,-62 1712,-62"/>
<text text-anchor="middle" x="1766" y="-69" font-family="Helvetica,sans-Serif" font-size="10.00">tests/test_pruner.cpp</text>
</a>
</g>
</g>
<!-- Node8&#45;&gt;Node30 -->
<g id="edge36" class="edge">
<title>Node8&#45;&gt;Node30</title>
<path fill="none" stroke="midnightblue" d="M1033.3,-130.95C1051.43,-128.13 1073.26,-125.02 1093,-123 1363.17,-95.3 1434.17,-125.59 1703,-87 1713,-85.56 1723.75,-83.35 1733.5,-81.07"/>
<polygon fill="midnightblue" stroke="midnightblue" points="1032.7,-127.5 1023.37,-132.52 1033.8,-134.41 1032.7,-127.5"/>
</g>
<!-- Node31 -->
<g id="node31" class="node">
<title>Node31</title>
<g id="a_node31"><a xlink:href="test__svp_8cpp.html" target="_top" xlink:title=" ">
<polygon fill="white" stroke="black" points="1498,-0.5 1498,-19.5 1596,-19.5 1596,-0.5 1498,-0.5"/>
<text text-anchor="middle" x="1547" y="-7.5" font-family="Helvetica,sans-Serif" font-size="10.00">tests/test_svp.cpp</text>
</a>
</g>
</g>
<!-- Node8&#45;&gt;Node31 -->
<g id="edge37" class="edge">
<title>Node8&#45;&gt;Node31</title>
<path fill="none" stroke="midnightblue" d="M1033.67,-131.07C1104.3,-119.48 1246.51,-95.53 1268,-87 1291.6,-77.63 1292.44,-65.49 1316,-56 1332.65,-49.29 1435.31,-30.59 1498.04,-19.52"/>
<polygon fill="midnightblue" stroke="midnightblue" points="1032.68,-127.68 1023.38,-132.75 1033.81,-134.59 1032.68,-127.68"/>
</g>
<!-- Node32 -->
<g id="node32" class="node">
<title>Node32</title>
<g id="a_node32"><a xlink:href="test__svp__gram_8cpp.html" target="_top" xlink:title=" ">
<polygon fill="white" stroke="black" points="1614.5,-0.5 1614.5,-19.5 1739.5,-19.5 1739.5,-0.5 1614.5,-0.5"/>
<text text-anchor="middle" x="1677" y="-7.5" font-family="Helvetica,sans-Serif" font-size="10.00">tests/test_svp_gram.cpp</text>
</a>
</g>
</g>
<!-- Node8&#45;&gt;Node32 -->
<g id="edge38" class="edge">
<title>Node8&#45;&gt;Node32</title>
<path fill="none" stroke="midnightblue" d="M1033.31,-131.62C1114.34,-119.43 1293.45,-92.12 1306,-87 1328.15,-77.97 1327.74,-64.77 1350,-56 1362.15,-51.22 1522.73,-30.44 1614.24,-18.86"/>
<polygon fill="midnightblue" stroke="midnightblue" points="1032.38,-128.22 1023.01,-133.17 1033.42,-135.14 1032.38,-128.22"/>
</g>
<!-- Node33 -->
<g id="node33" class="node">
<title>Node33</title>
<g id="a_node33"><a xlink:href="test__utils_8h.html" target="_top" xlink:title=" ">
<polygon fill="white" stroke="black" points="1098.5,-62 1098.5,-81 1187.5,-81 1187.5,-62 1098.5,-62"/>
<text text-anchor="middle" x="1143" y="-69" font-family="Helvetica,sans-Serif" font-size="10.00">tests/test_utils.h</text>
</a>
</g>
</g>
<!-- Node8&#45;&gt;Node33 -->
<g id="edge39" class="edge">
<title>Node8&#45;&gt;Node33</title>
<path fill="none" stroke="midnightblue" d="M1023.16,-124.78C1052.66,-111.91 1097.49,-92.35 1123.13,-81.17"/>
<polygon fill="midnightblue" stroke="midnightblue" points="1021.55,-121.66 1013.79,-128.87 1024.35,-128.08 1021.55,-121.66"/>
</g>
<!-- Node11 -->
<g id="node11" class="node">
<title>Node11</title>
<g id="a_node11"><a xlink:href="main_8cpp.html" target="_top" xlink:title=" ">
<polygon fill="white" stroke="black" points="1833,-0.5 1833,-19.5 1907,-19.5 1907,-0.5 1833,-0.5"/>
<text text-anchor="middle" x="1870" y="-7.5" font-family="Helvetica,sans-Serif" font-size="10.00">fplll/main.cpp</text>
</a>
</g>
</g>
<!-- Node10&#45;&gt;Node11 -->
<g id="edge11" class="edge">
<title>Node10&#45;&gt;Node11</title>
<path fill="none" stroke="midnightblue" d="M1870,-51.82C1870,-41 1870,-27.9 1870,-19.51"/>
<polygon fill="midnightblue" stroke="midnightblue" points="1866.5,-51.98 1870,-61.98 1873.5,-51.98 1866.5,-51.98"/>
</g>
<!-- Node13&#45;&gt;Node12 -->
<g id="edge14" class="edge">
<title>Node13&#45;&gt;Node12</title>
<path fill="none" stroke="midnightblue" d="M663.83,-56.89C662.54,-56.59 661.26,-56.29 660,-56 603.11,-42.85 537.09,-28.44 495.92,-19.56"/>
<polygon fill="midnightblue" stroke="midnightblue" points="663.3,-60.36 673.83,-59.24 664.9,-53.55 663.3,-60.36"/>
</g>
<!-- Node14&#45;&gt;Node12 -->
<g id="edge16" class="edge">
<title>Node14&#45;&gt;Node12</title>
<path fill="none" stroke="midnightblue" d="M188.29,-55.84C267.47,-39.1 348.52,-26.36 400.85,-18.71"/>
<polygon fill="midnightblue" stroke="midnightblue" points="187.19,-52.49 178.14,-58.01 188.65,-59.34 187.19,-52.49"/>
</g>
<!-- Node15&#45;&gt;Node12 -->
<g id="edge18" class="edge">
<title>Node15&#45;&gt;Node12</title>
<path fill="none" stroke="midnightblue" d="M297.96,-54.94C338.68,-43.62 392.27,-28.72 425.41,-19.5"/>
<polygon fill="midnightblue" stroke="midnightblue" points="296.87,-51.61 288.17,-57.66 298.74,-58.36 296.87,-51.61"/>
</g>
<!-- Node16&#45;&gt;Node12 -->
<g id="edge20" class="edge">
<title>Node16&#45;&gt;Node12</title>
<path fill="none" stroke="midnightblue" d="M385.45,-51.36C404.1,-40.69 426.4,-27.93 440.87,-19.66"/>
<polygon fill="midnightblue" stroke="midnightblue" points="383.59,-48.4 376.65,-56.4 387.06,-54.47 383.59,-48.4"/>
</g>
<!-- Node17&#45;&gt;Node12 -->
<g id="edge22" class="edge">
<title>Node17&#45;&gt;Node12</title>
<path fill="none" stroke="midnightblue" d="M459.56,-46.29C458.61,-36.86 457.58,-26.65 456.87,-19.66"/>
<polygon fill="midnightblue" stroke="midnightblue" points="456.09,-46.8 460.58,-56.4 463.06,-46.1 456.09,-46.8"/>
</g>
<!-- Node18&#45;&gt;Node12 -->
<g id="edge24" class="edge">
<title>Node18&#45;&gt;Node12</title>
<path fill="none" stroke="midnightblue" d="M535.53,-51.8C514.57,-41.04 489.23,-28.05 472.88,-19.66"/>
<polygon fill="midnightblue" stroke="midnightblue" points="534.01,-54.95 544.51,-56.4 537.21,-48.72 534.01,-54.95"/>
</g>
<!-- Node33&#45;&gt;Node20 -->
<g id="edge40" class="edge">
<title>Node33&#45;&gt;Node20</title>
<path fill="none" stroke="midnightblue" d="M1088.47,-66.05C995.46,-58.25 800.29,-40.91 636,-20 633.07,-19.63 630.06,-19.22 627.02,-18.8"/>
<polygon fill="midnightblue" stroke="midnightblue" points="1088.23,-69.55 1098.49,-66.89 1088.81,-62.57 1088.23,-69.55"/>
</g>
<!-- Node33&#45;&gt;Node21 -->
<g id="edge41" class="edge">
<title>Node33&#45;&gt;Node21</title>
<path fill="none" stroke="midnightblue" d="M1088.49,-63.04C1007.42,-51.96 855.51,-31.18 770.2,-19.51"/>
<polygon fill="midnightblue" stroke="midnightblue" points="1088.11,-66.52 1098.49,-64.41 1089.06,-59.59 1088.11,-66.52"/>
</g>
<!-- Node33&#45;&gt;Node24 -->
<g id="edge42" class="edge">
<title>Node33&#45;&gt;Node24</title>
<path fill="none" stroke="midnightblue" d="M1089.41,-60.05C1030.32,-48.52 936.39,-30.19 881.62,-19.51"/>
<polygon fill="midnightblue" stroke="midnightblue" points="1088.82,-63.5 1099.3,-61.98 1090.16,-56.63 1088.82,-63.5"/>
</g>
<!-- Node33&#45;&gt;Node25 -->
<g id="edge43" class="edge">
<title>Node33&#45;&gt;Node25</title>
<path fill="none" stroke="midnightblue" d="M1106.87,-58.88C1070.91,-47.32 1016.58,-29.84 984.46,-19.51"/>
<polygon fill="midnightblue" stroke="midnightblue" points="1105.9,-62.25 1116.49,-61.98 1108.05,-55.58 1105.9,-62.25"/>
</g>
<!-- Node33&#45;&gt;Node26 -->
<g id="edge45" class="edge">
<title>Node33&#45;&gt;Node26</title>
<path fill="none" stroke="midnightblue" d="M1125.71,-55.15C1112.94,-43.81 1096.02,-28.78 1085.58,-19.51"/>
<polygon fill="midnightblue" stroke="midnightblue" points="1123.6,-57.95 1133.4,-61.98 1128.25,-52.72 1123.6,-57.95"/>
</g>
<!-- Node33&#45;&gt;Node27 -->
<g id="edge46" class="edge">
<title>Node33&#45;&gt;Node27</title>
<path fill="none" stroke="midnightblue" d="M1175.25,-58.43C1206.15,-46.87 1252.01,-29.71 1279.26,-19.51"/>
<polygon fill="midnightblue" stroke="midnightblue" points="1173.92,-55.19 1165.78,-61.98 1176.37,-61.75 1173.92,-55.19"/>
</g>
<!-- Node33&#45;&gt;Node28 -->
<g id="edge47" class="edge">
<title>Node33&#45;&gt;Node28</title>
<path fill="none" stroke="midnightblue" d="M1193.03,-59.83C1247.14,-48.29 1332.31,-30.13 1382.1,-19.51"/>
<polygon fill="midnightblue" stroke="midnightblue" points="1192.02,-56.47 1182.97,-61.98 1193.48,-63.31 1192.02,-56.47"/>
</g>
<!-- Node33&#45;&gt;Node31 -->
<g id="edge48" class="edge">
<title>Node33&#45;&gt;Node31</title>
<path fill="none" stroke="midnightblue" d="M1197.62,-62.68C1265.83,-52.89 1386.08,-35.5 1489,-20 1491.92,-19.56 1494.93,-19.1 1497.96,-18.64"/>
<polygon fill="midnightblue" stroke="midnightblue" points="1196.93,-59.25 1187.53,-64.13 1197.93,-66.17 1196.93,-59.25"/>
</g>
<!-- Node33&#45;&gt;Node32 -->
<g id="edge49" class="edge">
<title>Node33&#45;&gt;Node32</title>
<path fill="none" stroke="midnightblue" d="M1197.74,-64.79C1284.26,-55.71 1457.92,-37.23 1605,-20 1608,-19.65 1611.08,-19.28 1614.18,-18.91"/>
<polygon fill="midnightblue" stroke="midnightblue" points="1197.21,-61.33 1187.62,-65.85 1197.94,-68.29 1197.21,-61.33"/>
</g>
<!-- Node34 -->
<g id="node34" class="node">
<title>Node34</title>
<g id="a_node34"><a xlink:href="test__gso_8cpp.html" target="_top" xlink:title=" ">
<polygon fill="white" stroke="black" points="1141,-0.5 1141,-19.5 1239,-19.5 1239,-0.5 1141,-0.5"/>
<text text-anchor="middle" x="1190" y="-7.5" font-family="Helvetica,sans-Serif" font-size="10.00">tests/test_gso.cpp</text>
</a>
</g>
</g>
<!-- Node33&#45;&gt;Node34 -->
<g id="edge44" class="edge">
<title>Node33&#45;&gt;Node34</title>
<path fill="none" stroke="midnightblue" d="M1156.16,-53.84C1164.98,-42.67 1176.23,-28.43 1183.28,-19.51"/>
<polygon fill="midnightblue" stroke="midnightblue" points="1153.19,-51.96 1149.73,-61.98 1158.68,-56.3 1153.19,-51.96"/>
</g>
<!-- Node36&#45;&gt;Node9 -->
<g id="edge52" class="edge">
<title>Node36&#45;&gt;Node9</title>
<path fill="none" stroke="midnightblue" d="M846.81,-127.07C838.26,-125.48 829.39,-124.03 821,-123 492.42,-82.64 402.29,-148.48 77,-87 69.88,-85.65 62.32,-83.4 55.56,-81.07"/>
<polygon fill="midnightblue" stroke="midnightblue" points="846.18,-130.51 856.66,-128.98 847.51,-123.64 846.18,-130.51"/>
</g>
<!-- Node38&#45;&gt;Node5 -->
<g id="edge60" class="edge">
<title>Node38&#45;&gt;Node5</title>
<path fill="none" stroke="midnightblue" d="M912.39,-319.8C937.32,-307.34 968.89,-291.56 987.99,-282.01"/>
<polygon fill="midnightblue" stroke="midnightblue" points="910.59,-316.79 903.21,-324.4 913.72,-323.05 910.59,-316.79"/>
</g>
<!-- Node39 -->
<g id="node39" class="node">
<title>Node39</title>
<g id="a_node39"><a xlink:href="fplll__types_8h.html" target="_top" xlink:title=" ">
<polygon fill="white" stroke="black" points="711,-257.5 711,-287.5 803,-287.5 803,-257.5 711,-257.5"/>
<text text-anchor="start" x="719" y="-275.5" font-family="Helvetica,sans-Serif" font-size="10.00">fplll/enum&#45;parallel</text>
<text text-anchor="middle" x="757" y="-264.5" font-family="Helvetica,sans-Serif" font-size="10.00">/fplll_types.h</text>
</a>
</g>
</g>
<!-- Node38&#45;&gt;Node39 -->
<g id="edge55" class="edge">
<title>Node38&#45;&gt;Node39</title>
<path fill="none" stroke="midnightblue" d="M840.39,-319.44C821.88,-309.24 799.48,-296.9 782.55,-287.58"/>
<polygon fill="midnightblue" stroke="midnightblue" points="838.95,-322.64 849.4,-324.4 842.33,-316.51 838.95,-322.64"/>
</g>
<!-- Node41 -->
<g id="node41" class="node">
<title>Node41</title>
<g id="a_node41"><a xlink:href="enumerate__ext_8cpp.html" target="_top" xlink:title=" ">
<polygon fill="white" stroke="black" points="821.5,-257.5 821.5,-287.5 928.5,-287.5 928.5,-257.5 821.5,-257.5"/>
<text text-anchor="start" x="829.5" y="-275.5" font-family="Helvetica,sans-Serif" font-size="10.00">fplll/enum/enumerate</text>
<text text-anchor="middle" x="875" y="-264.5" font-family="Helvetica,sans-Serif" font-size="10.00">_ext.cpp</text>
</a>
</g>
</g>
<!-- Node38&#45;&gt;Node41 -->
<g id="edge61" class="edge">
<title>Node38&#45;&gt;Node41</title>
<path fill="none" stroke="midnightblue" d="M875,-314.11C875,-305.15 875,-295.32 875,-287.58"/>
<polygon fill="midnightblue" stroke="midnightblue" points="871.5,-314.4 875,-324.4 878.5,-314.4 871.5,-314.4"/>
</g>
<!-- Node39&#45;&gt;Node2 -->
<g id="edge59" class="edge">
<title>Node39&#45;&gt;Node2</title>
<path fill="none" stroke="midnightblue" d="M726.29,-251.73C710.66,-241.68 692.03,-229.68 677.87,-220.58"/>
<polygon fill="midnightblue" stroke="midnightblue" points="724.78,-254.93 735.08,-257.4 728.57,-249.04 724.78,-254.93"/>
</g>
<!-- Node39&#45;&gt;Node3 -->
<g id="edge58" class="edge">
<title>Node39&#45;&gt;Node3</title>
<path fill="none" stroke="midnightblue" d="M793.12,-251.8C804.15,-243.81 814.95,-233.48 821,-221 827.01,-208.6 826.54,-202.61 821,-190 814.38,-174.93 800.79,-162.38 788.78,-153.56"/>
<polygon fill="midnightblue" stroke="midnightblue" points="791.07,-248.97 784.72,-257.46 794.98,-254.78 791.07,-248.97"/>
</g>
<!-- Node40 -->
<g id="node40" class="node">
<title>Node40</title>
<g id="a_node40"><a xlink:href="enumeration_8h.html" target="_top" xlink:title=" ">
<polygon fill="white" stroke="black" points="720,-190.5 720,-220.5 812,-220.5 812,-190.5 720,-190.5"/>
<text text-anchor="start" x="728" y="-208.5" font-family="Helvetica,sans-Serif" font-size="10.00">fplll/enum&#45;parallel</text>
<text text-anchor="middle" x="766" y="-197.5" font-family="Helvetica,sans-Serif" font-size="10.00">/enumeration.h</text>
</a>
</g>
</g>
<!-- Node39&#45;&gt;Node40 -->
<g id="edge56" class="edge">
<title>Node39&#45;&gt;Node40</title>
<path fill="none" stroke="midnightblue" d="M760.34,-247.4C761.59,-238.37 762.97,-228.41 764.05,-220.58"/>
<polygon fill="midnightblue" stroke="midnightblue" points="756.86,-247.01 758.95,-257.4 763.79,-247.97 756.86,-247.01"/>
</g>
<!-- Node40&#45;&gt;Node3 -->
<g id="edge57" class="edge">
<title>Node40&#45;&gt;Node3</title>
<path fill="none" stroke="midnightblue" d="M766,-180.11C766,-171.15 766,-161.32 766,-153.58"/>
<polygon fill="midnightblue" stroke="midnightblue" points="762.5,-180.4 766,-190.4 769.5,-180.4 762.5,-180.4"/>
</g>
</g>
</svg>
