<?xml version="1.0" encoding="UTF-8" standalone="no"?>
<!DOCTYPE svg PUBLIC "-//W3C//DTD SVG 1.1//EN"
 "http://www.w3.org/Graphics/SVG/1.1/DTD/svg11.dtd">
<!-- Generated by graphviz version 2.40.1 (20161225.0304)
 -->
<!-- Title: fplll/enum/enumerate_ext.h Pages: 1 -->
<svg width="1853pt" height="363pt"
 viewBox="0.00 0.00 1853.00 363.00" xmlns="http://www.w3.org/2000/svg" xmlns:xlink="http://www.w3.org/1999/xlink">
<g id="graph0" class="graph" transform="scale(1 1) rotate(0) translate(4 359)">
<title>fplll/enum/enumerate_ext.h</title>
<polygon fill="#ffffff" stroke="transparent" points="-4,4 -4,-359 1849,-359 1849,4 -4,4"/>
<!-- Node0 -->
<g id="node1" class="node">
<title>Node0</title>
<polygon fill="#bfbfbf" stroke="#000000" points="1133.5,-324.5 1133.5,-354.5 1240.5,-354.5 1240.5,-324.5 1133.5,-324.5"/>
<text text-anchor="start" x="1141.5" y="-342.5" font-family="Helvetica,sans-Serif" font-size="10.00" fill="#000000">fplll/enum/enumerate</text>
<text text-anchor="middle" x="1187" y="-331.5" font-family="Helvetica,sans-Serif" font-size="10.00" fill="#000000">_ext.h</text>
</g>
<!-- Node1 -->
<g id="node2" class="node">
<title>Node1</title>
<g id="a_node2"><a xlink:href="enumerate_8h.html" target="_top" xlink:title="fplll/enum/enumerate.h">
<polygon fill="#ffffff" stroke="#000000" points="999,-263 999,-282 1115,-282 1115,-263 999,-263"/>
<text text-anchor="middle" x="1057" y="-270" font-family="Helvetica,sans-Serif" font-size="10.00" fill="#000000">fplll/enum/enumerate.h</text>
</a>
</g>
</g>
<!-- Node0&#45;&gt;Node1 -->
<g id="edge1" class="edge">
<title>Node0&#45;&gt;Node1</title>
<path fill="none" stroke="#191970" d="M1148.9123,-319.8702C1124.7963,-307.4412 1094.678,-291.9187 1075.6345,-282.1039"/>
<polygon fill="#191970" stroke="#191970" points="1147.3331,-322.9938 1157.8255,-324.4639 1150.54,-316.7715 1147.3331,-322.9938"/>
</g>
<!-- Node32 -->
<g id="node33" class="node">
<title>Node32</title>
<g id="a_node33"><a xlink:href="enumerate__ext_8cpp.html" target="_top" xlink:title="fplll/enum/enumerate\l_ext.cpp">
<polygon fill="#ffffff" stroke="#000000" points="1133.5,-257.5 1133.5,-287.5 1240.5,-287.5 1240.5,-257.5 1133.5,-257.5"/>
<text text-anchor="start" x="1141.5" y="-275.5" font-family="Helvetica,sans-Serif" font-size="10.00" fill="#000000">fplll/enum/enumerate</text>
<text text-anchor="middle" x="1187" y="-264.5" font-family="Helvetica,sans-Serif" font-size="10.00" fill="#000000">_ext.cpp</text>
</a>
</g>
</g>
<!-- Node0&#45;&gt;Node32 -->
<g id="edge49" class="edge">
<title>Node0&#45;&gt;Node32</title>
<path fill="none" stroke="#191970" d="M1187,-314.0249C1187,-305.128 1187,-295.4287 1187,-287.6432"/>
<polygon fill="#191970" stroke="#191970" points="1183.5001,-314.2966 1187,-324.2967 1190.5001,-314.2967 1183.5001,-314.2966"/>
</g>
<!-- Node33 -->
<g id="node34" class="node">
<title>Node33</title>
<g id="a_node34"><a xlink:href="fplll__types_8h.html" target="_top" xlink:title="fplll/enum&#45;parallel\l/fplll_types.h">
<polygon fill="#ffffff" stroke="#000000" points="1259,-257.5 1259,-287.5 1351,-287.5 1351,-257.5 1259,-257.5"/>
<text text-anchor="start" x="1267" y="-275.5" font-family="Helvetica,sans-Serif" font-size="10.00" fill="#000000">fplll/enum&#45;parallel</text>
<text text-anchor="middle" x="1305" y="-264.5" font-family="Helvetica,sans-Serif" font-size="10.00" fill="#000000">/fplll_types.h</text>
</a>
</g>
</g>
<!-- Node0&#45;&gt;Node33 -->
<g id="edge50" class="edge">
<title>Node0&#45;&gt;Node33</title>
<path fill="none" stroke="#191970" d="M1222.4773,-319.3561C1240.365,-309.1995 1261.7023,-297.0843 1278.1986,-287.7177"/>
<polygon fill="#191970" stroke="#191970" points="1220.4494,-316.4827 1213.4815,-324.4639 1223.9057,-322.5699 1220.4494,-316.4827"/>
</g>
<!-- Node2 -->
<g id="node3" class="node">
<title>Node2</title>
<g id="a_node3"><a xlink:href="bkz_8h.html" target="_top" xlink:title="fplll/bkz.h">
<polygon fill="#ffffff" stroke="#000000" points="939.5,-196 939.5,-215 998.5,-215 998.5,-196 939.5,-196"/>
<text text-anchor="middle" x="969" y="-203" font-family="Helvetica,sans-Serif" font-size="10.00" fill="#000000">fplll/bkz.h</text>
</a>
</g>
</g>
<!-- Node1&#45;&gt;Node2 -->
<g id="edge2" class="edge">
<title>Node1&#45;&gt;Node2</title>
<path fill="none" stroke="#191970" d="M1036.1899,-256.6559C1019.225,-243.7395 995.8204,-225.9201 981.5849,-215.0817"/>
<polygon fill="#191970" stroke="#191970" points="1034.3151,-259.6275 1044.3917,-262.9005 1038.5555,-254.058 1034.3151,-259.6275"/>
</g>
<!-- Node3 -->
<g id="node4" class="node">
<title>Node3</title>
<g id="a_node4"><a xlink:href="bkz_8cpp.html" target="_top" xlink:title="fplll/bkz.cpp">
<polygon fill="#ffffff" stroke="#000000" points="1106.5,-129 1106.5,-148 1175.5,-148 1175.5,-129 1106.5,-129"/>
<text text-anchor="middle" x="1141" y="-136" font-family="Helvetica,sans-Serif" font-size="10.00" fill="#000000">fplll/bkz.cpp</text>
</a>
</g>
</g>
<!-- Node1&#45;&gt;Node3 -->
<g id="edge45" class="edge">
<title>Node1&#45;&gt;Node3</title>
<path fill="none" stroke="#191970" d="M1102.6983,-259.2791C1121.4015,-251.3675 1141.1623,-239.2029 1152,-221 1165.8232,-197.7826 1153.5821,-164.4637 1145.9792,-148.1893"/>
<polygon fill="#191970" stroke="#191970" points="1101.3947,-256.0307 1093.3572,-262.9335 1103.9451,-262.5495 1101.3947,-256.0307"/>
</g>
<!-- Node30 -->
<g id="node31" class="node">
<title>Node30</title>
<g id="a_node31"><a xlink:href="enumerate_8cpp.html" target="_top" xlink:title="fplll/enum/enumerate.cpp">
<polygon fill="#ffffff" stroke="#000000" points="1017,-196 1017,-215 1143,-215 1143,-196 1017,-196"/>
<text text-anchor="middle" x="1080" y="-203" font-family="Helvetica,sans-Serif" font-size="10.00" fill="#000000">fplll/enum/enumerate.cpp</text>
</a>
</g>
</g>
<!-- Node1&#45;&gt;Node30 -->
<g id="edge46" class="edge">
<title>Node1&#45;&gt;Node30</title>
<path fill="none" stroke="#191970" d="M1063.5695,-253.3628C1067.8668,-240.8444 1073.2973,-225.0252 1076.7108,-215.0817"/>
<polygon fill="#191970" stroke="#191970" points="1060.2319,-252.3059 1060.2953,-262.9005 1066.8526,-254.5787 1060.2319,-252.3059"/>
</g>
<!-- Node31 -->
<g id="node32" class="node">
<title>Node31</title>
<g id="a_node32"><a xlink:href="svpcvp_8cpp.html" target="_top" xlink:title="fplll/svpcvp.cpp">
<polygon fill="#ffffff" stroke="#000000" points="183.5,-129 183.5,-148 268.5,-148 268.5,-129 183.5,-129"/>
<text text-anchor="middle" x="226" y="-136" font-family="Helvetica,sans-Serif" font-size="10.00" fill="#000000">fplll/svpcvp.cpp</text>
</a>
</g>
</g>
<!-- Node1&#45;&gt;Node31 -->
<g id="edge47" class="edge">
<title>Node1&#45;&gt;Node31</title>
<path fill="none" stroke="#191970" d="M988.8423,-261.5095C823.3897,-234.83 404.1819,-167.2321 268.8403,-145.4081"/>
<polygon fill="#191970" stroke="#191970" points="988.4663,-264.994 998.896,-263.1306 989.5807,-258.0832 988.4663,-264.994"/>
</g>
<!-- Node2&#45;&gt;Node3 -->
<g id="edge3" class="edge">
<title>Node2&#45;&gt;Node3</title>
<path fill="none" stroke="#191970" d="M1002.3938,-192.2056C1004.2898,-191.4578 1006.1687,-190.7185 1008,-190 1045.5723,-175.2597 1089.2182,-158.4116 1115.9712,-148.1157"/>
<polygon fill="#191970" stroke="#191970" points="1000.9224,-189.0237 992.9119,-195.9578 1003.4982,-195.5326 1000.9224,-189.0237"/>
</g>
<!-- Node4 -->
<g id="node5" class="node">
<title>Node4</title>
<g id="a_node5"><a xlink:href="fplll_8h.html" target="_top" xlink:title="fplll/fplll.h">
<polygon fill="#ffffff" stroke="#000000" points="970,-129 970,-148 1028,-148 1028,-129 970,-129"/>
<text text-anchor="middle" x="999" y="-136" font-family="Helvetica,sans-Serif" font-size="10.00" fill="#000000">fplll/fplll.h</text>
</a>
</g>
</g>
<!-- Node2&#45;&gt;Node4 -->
<g id="edge4" class="edge">
<title>Node2&#45;&gt;Node4</title>
<path fill="none" stroke="#191970" d="M977.4012,-186.7374C983.0322,-174.1614 990.2129,-158.1246 994.7097,-148.0817"/>
<polygon fill="#191970" stroke="#191970" points="974.1906,-185.3433 973.2983,-195.9005 980.5794,-188.204 974.1906,-185.3433"/>
</g>
<!-- Node5 -->
<g id="node6" class="node">
<title>Node5</title>
<g id="a_node6"><a xlink:href="fplll_8cpp.html" target="_top" xlink:title="fplll/fplll.cpp">
<polygon fill="#ffffff" stroke="#000000" points="0,-62 0,-81 68,-81 68,-62 0,-62"/>
<text text-anchor="middle" x="34" y="-69" font-family="Helvetica,sans-Serif" font-size="10.00" fill="#000000">fplll/fplll.cpp</text>
</a>
</g>
</g>
<!-- Node4&#45;&gt;Node5 -->
<g id="edge5" class="edge">
<title>Node4&#45;&gt;Node5</title>
<path fill="none" stroke="#191970" d="M959.6199,-137.8176C806.3734,-134.9273 249.7816,-122.1834 77,-87 70.3127,-85.6383 63.2657,-83.4422 56.8554,-81.1261"/>
<polygon fill="#191970" stroke="#191970" points="959.8827,-141.3229 969.9458,-138.0088 960.0123,-134.3241 959.8827,-141.3229"/>
</g>
<!-- Node6 -->
<g id="node7" class="node">
<title>Node6</title>
<g id="a_node7"><a xlink:href="main_8h.html" target="_top" xlink:title="fplll/main.h">
<polygon fill="#ffffff" stroke="#000000" points="1769,-62 1769,-81 1833,-81 1833,-62 1769,-62"/>
<text text-anchor="middle" x="1801" y="-69" font-family="Helvetica,sans-Serif" font-size="10.00" fill="#000000">fplll/main.h</text>
</a>
</g>
</g>
<!-- Node4&#45;&gt;Node6 -->
<g id="edge6" class="edge">
<title>Node4&#45;&gt;Node6</title>
<path fill="none" stroke="#191970" d="M1038.132,-131.3891C1056.0237,-128.3757 1077.5283,-125.0856 1097,-123 1378.5089,-92.8474 1452.6639,-126.5992 1733,-87 1744.7496,-85.3403 1757.4684,-82.6799 1768.6927,-80.0281"/>
<polygon fill="#191970" stroke="#191970" points="1037.3206,-127.9772 1028.0578,-133.1202 1038.5061,-134.8761 1037.3206,-127.9772"/>
</g>
<!-- Node8 -->
<g id="node9" class="node">
<title>Node8</title>
<g id="a_node9"><a xlink:href="pruner_8cpp.html" target="_top" xlink:title="fplll/pruner/pruner.cpp">
<polygon fill="#ffffff" stroke="#000000" points="335,-.5 335,-19.5 445,-19.5 445,-.5 335,-.5"/>
<text text-anchor="middle" x="390" y="-7.5" font-family="Helvetica,sans-Serif" font-size="10.00" fill="#000000">fplll/pruner/pruner.cpp</text>
</a>
</g>
</g>
<!-- Node4&#45;&gt;Node8 -->
<g id="edge8" class="edge">
<title>Node4&#45;&gt;Node8</title>
<path fill="none" stroke="#191970" d="M959.341,-137.3492C804.8166,-132.6762 250.3281,-114.0693 225,-87 188.1754,-47.6438 273.5925,-26.5559 334.7561,-16.8598"/>
<polygon fill="#191970" stroke="#191970" points="959.6623,-140.8603 969.7627,-137.6615 959.8721,-133.8635 959.6623,-140.8603"/>
</g>
<!-- Node9 -->
<g id="node10" class="node">
<title>Node9</title>
<g id="a_node10"><a xlink:href="pruner__cost_8cpp.html" target="_top" xlink:title="fplll/pruner/pruner\l_cost.cpp">
<polygon fill="#ffffff" stroke="#000000" points="234,-56.5 234,-86.5 326,-86.5 326,-56.5 234,-56.5"/>
<text text-anchor="start" x="242" y="-74.5" font-family="Helvetica,sans-Serif" font-size="10.00" fill="#000000">fplll/pruner/pruner</text>
<text text-anchor="middle" x="280" y="-63.5" font-family="Helvetica,sans-Serif" font-size="10.00" fill="#000000">_cost.cpp</text>
</a>
</g>
</g>
<!-- Node4&#45;&gt;Node9 -->
<g id="edge9" class="edge">
<title>Node4&#45;&gt;Node9</title>
<path fill="none" stroke="#191970" d="M959.8475,-136.4807C836.4095,-129.9541 456.3977,-108.5956 335,-87 332.0698,-86.4787 329.0711,-85.8668 326.0602,-85.1926"/>
<polygon fill="#191970" stroke="#191970" points="959.8039,-139.9831 969.974,-137.0132 960.1716,-132.9928 959.8039,-139.9831"/>
</g>
<!-- Node10 -->
<g id="node11" class="node">
<title>Node10</title>
<g id="a_node11"><a xlink:href="pruner__optimize_8cpp.html" target="_top" xlink:title="fplll/pruner/pruner\l_optimize.cpp">
<polygon fill="#ffffff" stroke="#000000" points="344,-56.5 344,-86.5 436,-86.5 436,-56.5 344,-56.5"/>
<text text-anchor="start" x="352" y="-74.5" font-family="Helvetica,sans-Serif" font-size="10.00" fill="#000000">fplll/pruner/pruner</text>
<text text-anchor="middle" x="390" y="-63.5" font-family="Helvetica,sans-Serif" font-size="10.00" fill="#000000">_optimize.cpp</text>
</a>
</g>
</g>
<!-- Node4&#45;&gt;Node10 -->
<g id="edge11" class="edge">
<title>Node4&#45;&gt;Node10</title>
<path fill="none" stroke="#191970" d="M959.7611,-137.303C868.6403,-133.9917 635.9279,-122.4722 445,-87 442.0739,-86.4564 439.0783,-85.8273 436.0697,-85.1403"/>
<polygon fill="#191970" stroke="#191970" points="959.7907,-140.8061 969.9072,-137.6587 960.036,-133.8104 959.7907,-140.8061"/>
</g>
<!-- Node11 -->
<g id="node12" class="node">
<title>Node11</title>
<g id="a_node12"><a xlink:href="pruner__optimize__tc_8cpp.html" target="_top" xlink:title="fplll/pruner/pruner\l_optimize_tc.cpp">
<polygon fill="#ffffff" stroke="#000000" points="454,-56.5 454,-86.5 546,-86.5 546,-56.5 454,-56.5"/>
<text text-anchor="start" x="462" y="-74.5" font-family="Helvetica,sans-Serif" font-size="10.00" fill="#000000">fplll/pruner/pruner</text>
<text text-anchor="middle" x="500" y="-63.5" font-family="Helvetica,sans-Serif" font-size="10.00" fill="#000000">_optimize_tc.cpp</text>
</a>
</g>
</g>
<!-- Node4&#45;&gt;Node11 -->
<g id="edge13" class="edge">
<title>Node4&#45;&gt;Node11</title>
<path fill="none" stroke="#191970" d="M959.6183,-136.046C881.7375,-130.7288 702.7797,-116.2009 555,-87 552.0803,-86.4231 549.0896,-85.7685 546.0846,-85.0624"/>
<polygon fill="#191970" stroke="#191970" points="959.7116,-139.56 969.923,-136.7357 960.1791,-132.5756 959.7116,-139.56"/>
</g>
<!-- Node12 -->
<g id="node13" class="node">
<title>Node12</title>
<g id="a_node13"><a xlink:href="pruner__optimize__tp_8cpp.html" target="_top" xlink:title="fplll/pruner/pruner\l_optimize_tp.cpp">
<polygon fill="#ffffff" stroke="#000000" points="564,-56.5 564,-86.5 656,-86.5 656,-56.5 564,-56.5"/>
<text text-anchor="start" x="572" y="-74.5" font-family="Helvetica,sans-Serif" font-size="10.00" fill="#000000">fplll/pruner/pruner</text>
<text text-anchor="middle" x="610" y="-63.5" font-family="Helvetica,sans-Serif" font-size="10.00" fill="#000000">_optimize_tp.cpp</text>
</a>
</g>
</g>
<!-- Node4&#45;&gt;Node12 -->
<g id="edge15" class="edge">
<title>Node4&#45;&gt;Node12</title>
<path fill="none" stroke="#191970" d="M959.4963,-133.9901C896.6989,-126.467 770.4181,-109.8926 665,-87 662.0916,-86.3684 659.1096,-85.672 656.1111,-84.9346"/>
<polygon fill="#191970" stroke="#191970" points="959.3988,-137.5029 969.7413,-135.2043 960.2227,-130.5516 959.3988,-137.5029"/>
</g>
<!-- Node13 -->
<g id="node14" class="node">
<title>Node13</title>
<g id="a_node14"><a xlink:href="pruner__prob_8cpp.html" target="_top" xlink:title="fplll/pruner/pruner\l_prob.cpp">
<polygon fill="#ffffff" stroke="#000000" points="674,-56.5 674,-86.5 766,-86.5 766,-56.5 674,-56.5"/>
<text text-anchor="start" x="682" y="-74.5" font-family="Helvetica,sans-Serif" font-size="10.00" fill="#000000">fplll/pruner/pruner</text>
<text text-anchor="middle" x="720" y="-63.5" font-family="Helvetica,sans-Serif" font-size="10.00" fill="#000000">_prob.cpp</text>
</a>
</g>
</g>
<!-- Node4&#45;&gt;Node13 -->
<g id="edge17" class="edge">
<title>Node4&#45;&gt;Node13</title>
<path fill="none" stroke="#191970" d="M960.0069,-130.1389C915.2071,-120.393 839.5585,-103.5078 775,-87 772.1166,-86.2627 769.1537,-85.4854 766.1695,-84.6875"/>
<polygon fill="#191970" stroke="#191970" points="959.3799,-133.5842 969.8945,-132.2829 960.8634,-126.7432 959.3799,-133.5842"/>
</g>
<!-- Node14 -->
<g id="node15" class="node">
<title>Node14</title>
<g id="a_node15"><a xlink:href="pruner__util_8cpp.html" target="_top" xlink:title="fplll/pruner/pruner\l_util.cpp">
<polygon fill="#ffffff" stroke="#000000" points="86,-56.5 86,-86.5 178,-86.5 178,-56.5 86,-56.5"/>
<text text-anchor="start" x="94" y="-74.5" font-family="Helvetica,sans-Serif" font-size="10.00" fill="#000000">fplll/pruner/pruner</text>
<text text-anchor="middle" x="132" y="-63.5" font-family="Helvetica,sans-Serif" font-size="10.00" fill="#000000">_util.cpp</text>
</a>
</g>
</g>
<!-- Node4&#45;&gt;Node14 -->
<g id="edge19" class="edge">
<title>Node4&#45;&gt;Node14</title>
<path fill="none" stroke="#191970" d="M959.6492,-136.9762C819.158,-131.3818 342.6527,-111.0446 192,-87 187.4316,-86.2709 182.7051,-85.3494 178.0025,-84.3207"/>
<polygon fill="#191970" stroke="#191970" points="959.803,-140.4849 969.9336,-137.3832 960.0799,-133.4904 959.803,-140.4849"/>
</g>
<!-- Node15 -->
<g id="node16" class="node">
<title>Node15</title>
<g id="a_node16"><a xlink:href="sieve__main_8cpp.html" target="_top" xlink:title="fplll/sieve/sieve_main.cpp">
<polygon fill="#ffffff" stroke="#000000" points="784.5,-62 784.5,-81 913.5,-81 913.5,-62 784.5,-62"/>
<text text-anchor="middle" x="849" y="-69" font-family="Helvetica,sans-Serif" font-size="10.00" fill="#000000">fplll/sieve/sieve_main.cpp</text>
</a>
</g>
</g>
<!-- Node4&#45;&gt;Node15 -->
<g id="edge21" class="edge">
<title>Node4&#45;&gt;Node15</title>
<path fill="none" stroke="#191970" d="M968.1993,-124.7424C939.0501,-111.7224 896.0524,-92.5167 870.4515,-81.0817"/>
<polygon fill="#191970" stroke="#191970" points="966.9506,-128.0179 977.5087,-128.9005 969.8055,-121.6265 966.9506,-128.0179"/>
</g>
<!-- Node16 -->
<g id="node17" class="node">
<title>Node16</title>
<g id="a_node17"><a xlink:href="test__bkz_8cpp.html" target="_top" xlink:title="tests/test_bkz.cpp">
<polygon fill="#ffffff" stroke="#000000" points="542,-.5 542,-19.5 640,-19.5 640,-.5 542,-.5"/>
<text text-anchor="middle" x="591" y="-7.5" font-family="Helvetica,sans-Serif" font-size="10.00" fill="#000000">tests/test_bkz.cpp</text>
</a>
</g>
</g>
<!-- Node4&#45;&gt;Node16 -->
<g id="edge22" class="edge">
<title>Node4&#45;&gt;Node16</title>
<path fill="none" stroke="#191970" d="M984.9986,-120.8984C967.2506,-99.0768 937.1468,-63.799 922,-56 813.1924,.024 769.9926,-38.4005 649,-20 646.0705,-19.5545 643.0604,-19.0816 640.0255,-18.5932"/>
<polygon fill="#191970" stroke="#191970" points="982.3502,-123.1899 991.3494,-128.7814 987.8013,-118.7983 982.3502,-123.1899"/>
</g>
<!-- Node17 -->
<g id="node18" class="node">
<title>Node17</title>
<g id="a_node18"><a xlink:href="test__bkz__gram_8cpp.html" target="_top" xlink:title="tests/test_bkz_gram.cpp">
<polygon fill="#ffffff" stroke="#000000" points="658.5,-.5 658.5,-19.5 783.5,-19.5 783.5,-.5 658.5,-.5"/>
<text text-anchor="middle" x="721" y="-7.5" font-family="Helvetica,sans-Serif" font-size="10.00" fill="#000000">tests/test_bkz_gram.cpp</text>
</a>
</g>
</g>
<!-- Node4&#45;&gt;Node17 -->
<g id="edge23" class="edge">
<title>Node4&#45;&gt;Node17</title>
<path fill="none" stroke="#191970" d="M994.172,-119.0698C988.3816,-99.975 976.7534,-71.5103 956,-56 942.2636,-45.7339 848.6104,-29.5921 783.7646,-19.4135"/>
<polygon fill="#191970" stroke="#191970" points="990.8291,-120.1132 996.8705,-128.8168 997.5754,-118.2454 990.8291,-120.1132"/>
</g>
<!-- Node18 -->
<g id="node19" class="node">
<title>Node18</title>
<g id="a_node19"><a xlink:href="test__cvp_8cpp.html" target="_top" xlink:title="tests/test_cvp.cpp">
<polygon fill="#ffffff" stroke="#000000" points="802,-.5 802,-19.5 900,-19.5 900,-.5 802,-.5"/>
<text text-anchor="middle" x="851" y="-7.5" font-family="Helvetica,sans-Serif" font-size="10.00" fill="#000000">tests/test_cvp.cpp</text>
</a>
</g>
</g>
<!-- Node4&#45;&gt;Node18 -->
<g id="edge24" class="edge">
<title>Node4&#45;&gt;Node18</title>
<path fill="none" stroke="#191970" d="M1003.5605,-118.8443C1006.5719,-100.6273 1007.7707,-73.7415 994,-56 982.1669,-40.7548 936.2211,-27.7624 899.5604,-19.5133"/>
<polygon fill="#191970" stroke="#191970" points="1000.077,-118.4181 1001.5689,-128.9074 1006.9438,-119.7772 1000.077,-118.4181"/>
</g>
<!-- Node19 -->
<g id="node20" class="node">
<title>Node19</title>
<g id="a_node20"><a xlink:href="test__enum_8cpp.html" target="_top" xlink:title="tests/test_enum.cpp">
<polygon fill="#ffffff" stroke="#000000" points="1382,-62 1382,-81 1488,-81 1488,-62 1382,-62"/>
<text text-anchor="middle" x="1435" y="-69" font-family="Helvetica,sans-Serif" font-size="10.00" fill="#000000">tests/test_enum.cpp</text>
</a>
</g>
</g>
<!-- Node4&#45;&gt;Node19 -->
<g id="edge25" class="edge">
<title>Node4&#45;&gt;Node19</title>
<path fill="none" stroke="#191970" d="M1038.2178,-132.0693C1056.1267,-129.1914 1077.6209,-125.8193 1097,-123 1217.2368,-105.508 1248.4541,-108.7174 1368,-87 1377.28,-85.3141 1387.213,-83.1927 1396.5121,-81.0651"/>
<polygon fill="#191970" stroke="#191970" points="1037.4447,-128.6487 1028.1308,-133.6987 1038.561,-135.5592 1037.4447,-128.6487"/>
</g>
<!-- Node20 -->
<g id="node21" class="node">
<title>Node20</title>
<g id="a_node21"><a xlink:href="test__hlll_8cpp.html" target="_top" xlink:title="tests/test_hlll.cpp">
<polygon fill="#ffffff" stroke="#000000" points="918,-.5 918,-19.5 1012,-19.5 1012,-.5 918,-.5"/>
<text text-anchor="middle" x="965" y="-7.5" font-family="Helvetica,sans-Serif" font-size="10.00" fill="#000000">tests/test_hlll.cpp</text>
</a>
</g>
</g>
<!-- Node4&#45;&gt;Node20 -->
<g id="edge26" class="edge">
<title>Node4&#45;&gt;Node20</title>
<path fill="none" stroke="#191970" d="M1015.1295,-120.5419C1028.3737,-103.5007 1043.2596,-77.3883 1032,-56 1023.0612,-39.0201 1004.7107,-27.0989 989.4712,-19.6538"/>
<polygon fill="#191970" stroke="#191970" points="1012.1789,-118.6177 1008.5004,-128.5534 1017.5721,-123.0802 1012.1789,-118.6177"/>
</g>
<!-- Node21 -->
<g id="node22" class="node">
<title>Node21</title>
<g id="a_node22"><a xlink:href="test__lll_8cpp.html" target="_top" xlink:title="tests/test_lll.cpp">
<polygon fill="#ffffff" stroke="#000000" points="1030.5,-.5 1030.5,-19.5 1119.5,-19.5 1119.5,-.5 1030.5,-.5"/>
<text text-anchor="middle" x="1075" y="-7.5" font-family="Helvetica,sans-Serif" font-size="10.00" fill="#000000">tests/test_lll.cpp</text>
</a>
</g>
</g>
<!-- Node4&#45;&gt;Node21 -->
<g id="edge27" class="edge">
<title>Node4&#45;&gt;Node21</title>
<path fill="none" stroke="#191970" d="M1018.1175,-122.1091C1028.1424,-112.6815 1039.9724,-100.126 1048,-87 1061.5995,-64.7634 1069.5979,-34.7136 1073.0213,-19.5695"/>
<polygon fill="#191970" stroke="#191970" points="1015.6293,-119.6405 1010.5717,-128.9503 1020.3311,-124.8264 1015.6293,-119.6405"/>
</g>
<!-- Node22 -->
<g id="node23" class="node">
<title>Node22</title>
<g id="a_node23"><a xlink:href="test__lll__gram_8cpp.html" target="_top" xlink:title="tests/test_lll_gram.cpp">
<polygon fill="#ffffff" stroke="#000000" points="1253,-.5 1253,-19.5 1369,-19.5 1369,-.5 1253,-.5"/>
<text text-anchor="middle" x="1311" y="-7.5" font-family="Helvetica,sans-Serif" font-size="10.00" fill="#000000">tests/test_lll_gram.cpp</text>
</a>
</g>
</g>
<!-- Node4&#45;&gt;Node22 -->
<g id="edge28" class="edge">
<title>Node4&#45;&gt;Node22</title>
<path fill="none" stroke="#191970" d="M1038.0049,-131.6939C1092.5336,-121.7934 1188.4172,-102.8686 1220,-87 1237.9377,-77.9873 1280.948,-38.4149 1300.729,-19.7757"/>
<polygon fill="#191970" stroke="#191970" points="1037.228,-128.2774 1028.0055,-133.4925 1038.4672,-135.1669 1037.228,-128.2774"/>
</g>
<!-- Node23 -->
<g id="node24" class="node">
<title>Node23</title>
<g id="a_node24"><a xlink:href="test__nr_8cpp.html" target="_top" xlink:title="tests/test_nr.cpp">
<polygon fill="#ffffff" stroke="#000000" points="1506,-62 1506,-81 1596,-81 1596,-62 1506,-62"/>
<text text-anchor="middle" x="1551" y="-69" font-family="Helvetica,sans-Serif" font-size="10.00" fill="#000000">tests/test_nr.cpp</text>
</a>
</g>
</g>
<!-- Node4&#45;&gt;Node23 -->
<g id="edge29" class="edge">
<title>Node4&#45;&gt;Node23</title>
<path fill="none" stroke="#191970" d="M1038.1666,-131.6887C1056.0652,-128.7349 1077.5656,-125.4087 1097,-123 1274.141,-101.0452 1321.5377,-119.7706 1497,-87 1505.0537,-85.4958 1513.6362,-83.3099 1521.5332,-81.0517"/>
<polygon fill="#191970" stroke="#191970" points="1037.3725,-128.2728 1028.0872,-133.375 1038.5277,-135.1768 1037.3725,-128.2728"/>
</g>
<!-- Node24 -->
<g id="node25" class="node">
<title>Node24</title>
<g id="a_node25"><a xlink:href="test__pruner_8cpp.html" target="_top" xlink:title="tests/test_pruner.cpp">
<polygon fill="#ffffff" stroke="#000000" points="1614.5,-62 1614.5,-81 1723.5,-81 1723.5,-62 1614.5,-62"/>
<text text-anchor="middle" x="1669" y="-69" font-family="Helvetica,sans-Serif" font-size="10.00" fill="#000000">tests/test_pruner.cpp</text>
</a>
</g>
</g>
<!-- Node4&#45;&gt;Node24 -->
<g id="edge30" class="edge">
<title>Node4&#45;&gt;Node24</title>
<path fill="none" stroke="#191970" d="M1038.1462,-131.5173C1056.0407,-128.5294 1077.5436,-125.2239 1097,-123 1321.8798,-97.2963 1381.3409,-121.7596 1605,-87 1614.6022,-85.5077 1624.8836,-83.2976 1634.3346,-81.0108"/>
<polygon fill="#191970" stroke="#191970" points="1037.3423,-128.1036 1028.0698,-133.2292 1038.5148,-135.0047 1037.3423,-128.1036"/>
</g>
<!-- Node25 -->
<g id="node26" class="node">
<title>Node25</title>
<g id="a_node26"><a xlink:href="test__sieve_8cpp.html" target="_top" xlink:title="tests/test_sieve.cpp">
<polygon fill="#ffffff" stroke="#000000" points="1387.5,-.5 1387.5,-19.5 1492.5,-19.5 1492.5,-.5 1387.5,-.5"/>
<text text-anchor="middle" x="1440" y="-7.5" font-family="Helvetica,sans-Serif" font-size="10.00" fill="#000000">tests/test_sieve.cpp</text>
</a>
</g>
</g>
<!-- Node4&#45;&gt;Node25 -->
<g id="edge31" class="edge">
<title>Node4&#45;&gt;Node25</title>
<path fill="none" stroke="#191970" d="M1038.2242,-132.4155C1099.6055,-122.586 1215.3423,-102.7262 1254,-87 1277.5236,-77.4304 1279.1061,-66.9912 1302,-56 1335.0114,-40.1514 1374.8997,-27.4988 1403.2841,-19.5062"/>
<polygon fill="#191970" stroke="#191970" points="1037.4691,-128.9915 1028.1425,-134.0179 1038.568,-135.9047 1037.4691,-128.9915"/>
</g>
<!-- Node26 -->
<g id="node27" class="node">
<title>Node26</title>
<g id="a_node27"><a xlink:href="test__svp_8cpp.html" target="_top" xlink:title="tests/test_svp.cpp">
<polygon fill="#ffffff" stroke="#000000" points="1511,-.5 1511,-19.5 1609,-19.5 1609,-.5 1511,-.5"/>
<text text-anchor="middle" x="1560" y="-7.5" font-family="Helvetica,sans-Serif" font-size="10.00" fill="#000000">tests/test_svp.cpp</text>
</a>
</g>
</g>
<!-- Node4&#45;&gt;Node26 -->
<g id="edge32" class="edge">
<title>Node4&#45;&gt;Node26</title>
<path fill="none" stroke="#191970" d="M1038.3277,-132.0128C1115.4821,-119.2272 1280.2466,-91.609 1292,-87 1315.6428,-77.7286 1316.5092,-65.65 1340,-56 1355.633,-49.578 1450.8668,-30.7802 1510.8005,-19.2988"/>
<polygon fill="#191970" stroke="#191970" points="1037.3415,-128.6284 1028.0473,-133.7146 1038.4847,-135.5344 1037.3415,-128.6284"/>
</g>
<!-- Node27 -->
<g id="node28" class="node">
<title>Node27</title>
<g id="a_node28"><a xlink:href="test__svp__gram_8cpp.html" target="_top" xlink:title="tests/test_svp_gram.cpp">
<polygon fill="#ffffff" stroke="#000000" points="1627.5,-.5 1627.5,-19.5 1752.5,-19.5 1752.5,-.5 1627.5,-.5"/>
<text text-anchor="middle" x="1690" y="-7.5" font-family="Helvetica,sans-Serif" font-size="10.00" fill="#000000">tests/test_svp_gram.cpp</text>
</a>
</g>
</g>
<!-- Node4&#45;&gt;Node27 -->
<g id="edge33" class="edge">
<title>Node4&#45;&gt;Node27</title>
<path fill="none" stroke="#191970" d="M1038.2466,-132.2598C1056.1612,-129.4199 1077.6519,-126.0248 1097,-123 1200.5268,-106.8152 1233.0428,-126.7374 1330,-87 1351.7999,-78.0654 1351.1593,-64.8343 1373,-56 1378.8642,-53.628 1536.6122,-31.3788 1627.3203,-18.7142"/>
<polygon fill="#191970" stroke="#191970" points="1037.4833,-128.8371 1028.1553,-133.8608 1038.5802,-135.7506 1037.4833,-128.8371"/>
</g>
<!-- Node28 -->
<g id="node29" class="node">
<title>Node28</title>
<g id="a_node29"><a xlink:href="test__utils_8h.html" target="_top" xlink:title="tests/test_utils.h">
<polygon fill="#ffffff" stroke="#000000" points="1122.5,-62 1122.5,-81 1211.5,-81 1211.5,-62 1122.5,-62"/>
<text text-anchor="middle" x="1167" y="-69" font-family="Helvetica,sans-Serif" font-size="10.00" fill="#000000">tests/test_utils.h</text>
</a>
</g>
</g>
<!-- Node4&#45;&gt;Node28 -->
<g id="edge34" class="edge">
<title>Node4&#45;&gt;Node28</title>
<path fill="none" stroke="#191970" d="M1032.6486,-125.0806C1065.3049,-112.057 1114.052,-92.6162 1142.9743,-81.0817"/>
<polygon fill="#191970" stroke="#191970" points="1031.0623,-121.9451 1023.0703,-128.9005 1033.6554,-128.4471 1031.0623,-121.9451"/>
</g>
<!-- Node7 -->
<g id="node8" class="node">
<title>Node7</title>
<g id="a_node8"><a xlink:href="main_8cpp.html" target="_top" xlink:title="fplll/main.cpp">
<polygon fill="#ffffff" stroke="#000000" points="1771,-.5 1771,-19.5 1845,-19.5 1845,-.5 1771,-.5"/>
<text text-anchor="middle" x="1808" y="-7.5" font-family="Helvetica,sans-Serif" font-size="10.00" fill="#000000">fplll/main.cpp</text>
</a>
</g>
</g>
<!-- Node6&#45;&gt;Node7 -->
<g id="edge7" class="edge">
<title>Node6&#45;&gt;Node7</title>
<path fill="none" stroke="#191970" d="M1803.2484,-51.7462C1804.4656,-41.0519 1805.9155,-28.314 1806.8908,-19.7449"/>
<polygon fill="#191970" stroke="#191970" points="1799.7472,-51.5589 1802.0938,-61.8906 1806.7023,-52.3506 1799.7472,-51.5589"/>
</g>
<!-- Node9&#45;&gt;Node8 -->
<g id="edge10" class="edge">
<title>Node9&#45;&gt;Node8</title>
<path fill="none" stroke="#191970" d="M315.7204,-51.5291C334.9284,-40.79 357.7281,-28.0429 372.9539,-19.5303"/>
<polygon fill="#191970" stroke="#191970" points="313.9295,-48.5204 306.909,-56.4554 317.3455,-54.6303 313.9295,-48.5204"/>
</g>
<!-- Node10&#45;&gt;Node8 -->
<g id="edge12" class="edge">
<title>Node10&#45;&gt;Node8</title>
<path fill="none" stroke="#191970" d="M390,-46.2849C390,-36.9858 390,-26.9883 390,-19.8469"/>
<polygon fill="#191970" stroke="#191970" points="386.5001,-46.2977 390,-56.2977 393.5001,-46.2978 386.5001,-46.2977"/>
</g>
<!-- Node11&#45;&gt;Node8 -->
<g id="edge14" class="edge">
<title>Node11&#45;&gt;Node8</title>
<path fill="none" stroke="#191970" d="M464.2796,-51.5291C445.0716,-40.79 422.2719,-28.0429 407.0461,-19.5303"/>
<polygon fill="#191970" stroke="#191970" points="462.6545,-54.6303 473.091,-56.4554 466.0705,-48.5204 462.6545,-54.6303"/>
</g>
<!-- Node12&#45;&gt;Node8 -->
<g id="edge16" class="edge">
<title>Node12&#45;&gt;Node8</title>
<path fill="none" stroke="#191970" d="M554.0246,-55.7302C503.6648,-41.622 455.8185,-28.2982 424.4543,-19.5751"/>
<polygon fill="#191970" stroke="#191970" points="553.2156,-59.1383 563.7892,-58.4668 555.1047,-52.398 553.2156,-59.1383"/>
</g>
<!-- Node13&#45;&gt;Node8 -->
<g id="edge18" class="edge">
<title>Node13&#45;&gt;Node8</title>
<path fill="none" stroke="#191970" d="M663.9654,-55.9032C582.554,-38.0172 498.7149,-25.033 445.1265,-17.4173"/>
<polygon fill="#191970" stroke="#191970" points="663.3579,-59.3536 673.8794,-58.1087 664.878,-52.5206 663.3579,-59.3536"/>
</g>
<!-- Node14&#45;&gt;Node8 -->
<g id="edge20" class="edge">
<title>Node14&#45;&gt;Node8</title>
<path fill="none" stroke="#191970" d="M188.1697,-56.9446C189.4582,-56.6252 190.7363,-56.31 192,-56 245.4682,-42.8848 307.2969,-28.6722 347.442,-19.5699"/>
<polygon fill="#191970" stroke="#191970" points="187.0079,-53.6275 178.159,-59.4539 188.7099,-60.4174 187.0079,-53.6275"/>
</g>
<!-- Node28&#45;&gt;Node16 -->
<g id="edge35" class="edge">
<title>Node28&#45;&gt;Node16</title>
<path fill="none" stroke="#191970" d="M1111.974,-67.3325C1017.1899,-59.8629 817.1021,-42.8181 649,-20 646.0637,-19.6014 643.0484,-19.1648 640.0096,-18.7039"/>
<polygon fill="#191970" stroke="#191970" points="1111.9397,-70.8404 1122.1824,-68.132 1112.4863,-63.8618 1111.9397,-70.8404"/>
</g>
<!-- Node28&#45;&gt;Node17 -->
<g id="edge36" class="edge">
<title>Node28&#45;&gt;Node17</title>
<path fill="none" stroke="#191970" d="M1112.0666,-63.956C1039.1534,-53.9383 906.3987,-35.6824 793,-20 789.9998,-19.5851 786.9292,-19.1601 783.828,-18.7305"/>
<polygon fill="#191970" stroke="#191970" points="1111.9973,-67.4793 1122.3806,-65.373 1112.9501,-60.5445 1111.9973,-67.4793"/>
</g>
<!-- Node28&#45;&gt;Node18 -->
<g id="edge37" class="edge">
<title>Node28&#45;&gt;Node18</title>
<path fill="none" stroke="#191970" d="M1112.3838,-60.8706C1052.5806,-49.2317 957.5543,-30.7376 900.0513,-19.5464"/>
<polygon fill="#191970" stroke="#191970" points="1111.9107,-64.3441 1122.3951,-62.819 1113.248,-57.473 1111.9107,-64.3441"/>
</g>
<!-- Node28&#45;&gt;Node20 -->
<g id="edge39" class="edge">
<title>Node28&#45;&gt;Node20</title>
<path fill="none" stroke="#191970" d="M1125.6148,-58.9001C1087.275,-47.2273 1031.0859,-30.1202 996.3409,-19.5419"/>
<polygon fill="#191970" stroke="#191970" points="1124.8516,-62.3263 1135.4375,-61.8906 1126.8905,-55.6297 1124.8516,-62.3263"/>
</g>
<!-- Node28&#45;&gt;Node21 -->
<g id="edge40" class="edge">
<title>Node28&#45;&gt;Node21</title>
<path fill="none" stroke="#191970" d="M1144.2409,-56.286C1127.0382,-44.7864 1103.9538,-29.355 1089.2741,-19.5419"/>
<polygon fill="#191970" stroke="#191970" points="1142.3663,-59.2429 1152.625,-61.8906 1146.2566,-53.4234 1142.3663,-59.2429"/>
</g>
<!-- Node28&#45;&gt;Node22 -->
<g id="edge41" class="edge">
<title>Node28&#45;&gt;Node22</title>
<path fill="none" stroke="#191970" d="M1198.9778,-57.8428C1226.2064,-46.2139 1264.627,-29.8051 1288.658,-19.5419"/>
<polygon fill="#191970" stroke="#191970" points="1197.3217,-54.7442 1189.5,-61.8906 1200.0711,-61.1817 1197.3217,-54.7442"/>
</g>
<!-- Node28&#45;&gt;Node25 -->
<g id="edge42" class="edge">
<title>Node28&#45;&gt;Node25</title>
<path fill="none" stroke="#191970" d="M1219.3478,-59.7074C1271.1552,-48.0365 1349.4832,-30.3912 1397.5439,-19.5643"/>
<polygon fill="#191970" stroke="#191970" points="1218.343,-56.3459 1209.3567,-61.9581 1219.8815,-63.1748 1218.343,-56.3459"/>
</g>
<!-- Node28&#45;&gt;Node26 -->
<g id="edge43" class="edge">
<title>Node28&#45;&gt;Node26</title>
<path fill="none" stroke="#191970" d="M1221.975,-63.3622C1288.3822,-53.4596 1403.4609,-36.0677 1502,-20 1504.9246,-19.5231 1507.9309,-19.026 1510.9628,-18.5192"/>
<polygon fill="#191970" stroke="#191970" points="1221.1202,-59.9508 1211.7449,-64.8858 1222.1514,-66.8744 1221.1202,-59.9508"/>
</g>
<!-- Node28&#45;&gt;Node27 -->
<g id="edge44" class="edge">
<title>Node28&#45;&gt;Node27</title>
<path fill="none" stroke="#191970" d="M1221.712,-65.6862C1306.6181,-56.5661 1475.2103,-38.0659 1618,-20 1621.0048,-19.6198 1624.0791,-19.223 1627.1833,-18.8161"/>
<polygon fill="#191970" stroke="#191970" points="1221.1024,-62.2314 1211.5326,-66.7777 1221.8488,-69.1915 1221.1024,-62.2314"/>
</g>
<!-- Node29 -->
<g id="node30" class="node">
<title>Node29</title>
<g id="a_node30"><a xlink:href="test__gso_8cpp.html" target="_top" xlink:title="tests/test_gso.cpp">
<polygon fill="#ffffff" stroke="#000000" points="1137,-.5 1137,-19.5 1235,-19.5 1235,-.5 1137,-.5"/>
<text text-anchor="middle" x="1186" y="-7.5" font-family="Helvetica,sans-Serif" font-size="10.00" fill="#000000">tests/test_gso.cpp</text>
</a>
</g>
</g>
<!-- Node28&#45;&gt;Node29 -->
<g id="edge38" class="edge">
<title>Node28&#45;&gt;Node29</title>
<path fill="none" stroke="#191970" d="M1172.9987,-52.0832C1176.3237,-41.3205 1180.3141,-28.4042 1182.9894,-19.7449"/>
<polygon fill="#191970" stroke="#191970" points="1169.5765,-51.3031 1169.9688,-61.8906 1176.2646,-53.3693 1169.5765,-51.3031"/>
</g>
<!-- Node31&#45;&gt;Node5 -->
<g id="edge48" class="edge">
<title>Node31&#45;&gt;Node5</title>
<path fill="none" stroke="#191970" d="M188.2577,-125.6084C158.1082,-115.2733 114.7954,-100.3431 77,-87 71.6123,-85.098 65.8539,-83.0398 60.3594,-81.0637"/>
<polygon fill="#191970" stroke="#191970" points="187.356,-128.9991 197.9506,-128.9283 189.6242,-122.3768 187.356,-128.9991"/>
</g>
<!-- Node34 -->
<g id="node35" class="node">
<title>Node34</title>
<g id="a_node35"><a xlink:href="enumeration_8h.html" target="_top" xlink:title="fplll/enum&#45;parallel\l/enumeration.h">
<polygon fill="#ffffff" stroke="#000000" points="1259,-190.5 1259,-220.5 1351,-220.5 1351,-190.5 1259,-190.5"/>
<text text-anchor="start" x="1267" y="-208.5" font-family="Helvetica,sans-Serif" font-size="10.00" fill="#000000">fplll/enum&#45;parallel</text>
<text text-anchor="middle" x="1305" y="-197.5" font-family="Helvetica,sans-Serif" font-size="10.00" fill="#000000">/enumeration.h</text>
</a>
</g>
</g>
<!-- Node33&#45;&gt;Node34 -->
<g id="edge51" class="edge">
<title>Node33&#45;&gt;Node34</title>
<path fill="none" stroke="#191970" d="M1305,-247.0249C1305,-238.128 1305,-228.4287 1305,-220.6432"/>
<polygon fill="#191970" stroke="#191970" points="1301.5001,-247.2966 1305,-257.2967 1308.5001,-247.2967 1301.5001,-247.2966"/>
</g>
<!-- Node35 -->
<g id="node36" class="node">
<title>Node35</title>
<g id="a_node36"><a xlink:href="enumlib_8cpp.html" target="_top" xlink:title="fplll/enum&#45;parallel\l/enumlib.cpp">
<polygon fill="#ffffff" stroke="#000000" points="1259,-123.5 1259,-153.5 1351,-153.5 1351,-123.5 1259,-123.5"/>
<text text-anchor="start" x="1267" y="-141.5" font-family="Helvetica,sans-Serif" font-size="10.00" fill="#000000">fplll/enum&#45;parallel</text>
<text text-anchor="middle" x="1305" y="-130.5" font-family="Helvetica,sans-Serif" font-size="10.00" fill="#000000">/enumlib.cpp</text>
</a>
</g>
</g>
<!-- Node33&#45;&gt;Node35 -->
<g id="edge55" class="edge">
<title>Node33&#45;&gt;Node35</title>
<path fill="none" stroke="#191970" d="M1273.5104,-251.0191C1264.143,-242.8285 1255.0412,-232.6265 1250,-221 1244.5191,-208.3593 1244.5191,-202.6407 1250,-190 1256.4527,-175.1181 1269.5584,-162.5701 1281.3581,-153.5867"/>
<polygon fill="#191970" stroke="#191970" points="1271.3948,-253.8101 1281.3581,-257.4133 1275.8164,-248.3833 1271.3948,-253.8101"/>
</g>
<!-- Node36 -->
<g id="node37" class="node">
<title>Node36</title>
<g id="a_node37"><a xlink:href="enumlib_8h.html" target="_top" xlink:title="fplll/enum&#45;parallel\l/enumlib.h">
<polygon fill="#ffffff" stroke="#000000" points="1369,-190.5 1369,-220.5 1461,-220.5 1461,-190.5 1369,-190.5"/>
<text text-anchor="start" x="1377" y="-208.5" font-family="Helvetica,sans-Serif" font-size="10.00" fill="#000000">fplll/enum&#45;parallel</text>
<text text-anchor="middle" x="1415" y="-197.5" font-family="Helvetica,sans-Serif" font-size="10.00" fill="#000000">/enumlib.h</text>
</a>
</g>
</g>
<!-- Node33&#45;&gt;Node36 -->
<g id="edge53" class="edge">
<title>Node33&#45;&gt;Node36</title>
<path fill="none" stroke="#191970" d="M1338.5318,-252.0761C1355.1117,-241.9774 1374.7788,-229.9983 1390.0157,-220.7177"/>
<polygon fill="#191970" stroke="#191970" points="1336.406,-249.2727 1329.6861,-257.4639 1340.0473,-255.2511 1336.406,-249.2727"/>
</g>
<!-- Node34&#45;&gt;Node35 -->
<g id="edge52" class="edge">
<title>Node34&#45;&gt;Node35</title>
<path fill="none" stroke="#191970" d="M1305,-180.0249C1305,-171.128 1305,-161.4287 1305,-153.6432"/>
<polygon fill="#191970" stroke="#191970" points="1301.5001,-180.2966 1305,-190.2967 1308.5001,-180.2967 1301.5001,-180.2966"/>
</g>
<!-- Node36&#45;&gt;Node35 -->
<g id="edge54" class="edge">
<title>Node36&#45;&gt;Node35</title>
<path fill="none" stroke="#191970" d="M1381.4682,-185.0761C1364.8883,-174.9774 1345.2212,-162.9983 1329.9843,-153.7177"/>
<polygon fill="#191970" stroke="#191970" points="1379.9527,-188.2511 1390.3139,-190.4639 1383.594,-182.2727 1379.9527,-188.2511"/>
</g>
</g>
</svg>
