<?xml version="1.0" encoding="UTF-8" standalone="no"?>
<!DOCTYPE svg PUBLIC "-//W3C//DTD SVG 1.1//EN"
 "http://www.w3.org/Graphics/SVG/1.1/DTD/svg11.dtd">
<!-- Generated by graphviz version 2.38.0 (20140413.2041)
 -->
<!-- Title: fplll/enum/enumerate.h Pages: 1 -->
<svg width="1009pt" height="252pt"
 viewBox="0.00 0.00 1009.00 252.00" xmlns="http://www.w3.org/2000/svg" xmlns:xlink="http://www.w3.org/1999/xlink">
<g id="graph0" class="graph" transform="scale(1 1) rotate(0) translate(4 248)">
<title>fplll/enum/enumerate.h</title>
<polygon fill="white" stroke="none" points="-4,4 -4,-248 1005,-248 1005,4 -4,4"/>
<!-- Node1 -->
<g id="node1" class="node"><title>Node1</title>
<polygon fill="#bfbfbf" stroke="black" points="525,-224.5 525,-243.5 641,-243.5 641,-224.5 525,-224.5"/>
<text text-anchor="middle" x="583" y="-231.5" font-family="Helvetica,sans-Serif" font-size="10.00">fplll/enum/enumerate.h</text>
</g>
<!-- Node2 -->
<g id="node2" class="node"><title>Node2</title>
<g id="a_node2"><a xlink:href="bkz_8h.html" target="_top" xlink:title="fplll/bkz.h">
<polygon fill="white" stroke="black" points="498.5,-168.5 498.5,-187.5 557.5,-187.5 557.5,-168.5 498.5,-168.5"/>
<text text-anchor="middle" x="528" y="-175.5" font-family="Helvetica,sans-Serif" font-size="10.00">fplll/bkz.h</text>
</a>
</g>
</g>
<!-- Node1&#45;&gt;Node2 -->
<g id="edge1" class="edge"><title>Node1&#45;&gt;Node2</title>
<path fill="none" stroke="midnightblue" d="M566.706,-217.002C556.959,-207.433 544.947,-195.639 536.913,-187.751"/>
<polygon fill="midnightblue" stroke="midnightblue" points="564.33,-219.575 573.918,-224.083 569.234,-214.58 564.33,-219.575"/>
</g>
<!-- Node3 -->
<g id="node3" class="node"><title>Node3</title>
<g id="a_node3"><a xlink:href="bkz_8cpp.html" target="_top" xlink:title="fplll/bkz.cpp">
<polygon fill="white" stroke="black" points="417.5,-112.5 417.5,-131.5 486.5,-131.5 486.5,-112.5 417.5,-112.5"/>
<text text-anchor="middle" x="452" y="-119.5" font-family="Helvetica,sans-Serif" font-size="10.00">fplll/bkz.cpp</text>
</a>
</g>
</g>
<!-- Node1&#45;&gt;Node3 -->
<g id="edge14" class="edge"><title>Node1&#45;&gt;Node3</title>
<path fill="none" stroke="midnightblue" d="M545.695,-220.832C527.358,-213.479 505.853,-202.657 490,-188 472.34,-171.672 460.435,-145.236 455.136,-131.658"/>
<polygon fill="midnightblue" stroke="midnightblue" points="544.633,-224.173 555.224,-224.463 547.126,-217.632 544.633,-224.173"/>
</g>
<!-- Node15 -->
<g id="node15" class="node"><title>Node15</title>
<g id="a_node15"><a xlink:href="enumerate_8cpp.html" target="_top" xlink:title="fplll/enum/enumerate.cpp">
<polygon fill="white" stroke="black" points="576,-168.5 576,-187.5 702,-187.5 702,-168.5 576,-168.5"/>
<text text-anchor="middle" x="639" y="-175.5" font-family="Helvetica,sans-Serif" font-size="10.00">fplll/enum/enumerate.cpp</text>
</a>
</g>
</g>
<!-- Node1&#45;&gt;Node15 -->
<g id="edge15" class="edge"><title>Node1&#45;&gt;Node15</title>
<path fill="none" stroke="midnightblue" d="M599.33,-217.253C609.265,-207.673 621.588,-195.791 629.839,-187.834"/>
<polygon fill="midnightblue" stroke="midnightblue" points="596.766,-214.863 591.997,-224.324 601.625,-219.902 596.766,-214.863"/>
</g>
<!-- Node16 -->
<g id="node16" class="node"><title>Node16</title>
<g id="a_node16"><a xlink:href="svpcvp_8cpp.html" target="_top" xlink:title="fplll/svpcvp.cpp">
<polygon fill="white" stroke="black" points="892.5,-112.5 892.5,-131.5 977.5,-131.5 977.5,-112.5 892.5,-112.5"/>
<text text-anchor="middle" x="935" y="-119.5" font-family="Helvetica,sans-Serif" font-size="10.00">fplll/svpcvp.cpp</text>
</a>
</g>
</g>
<!-- Node1&#45;&gt;Node16 -->
<g id="edge16" class="edge"><title>Node1&#45;&gt;Node16</title>
<path fill="none" stroke="midnightblue" d="M620.19,-221.378C691.227,-199.179 844.721,-151.212 907.447,-131.61"/>
<polygon fill="midnightblue" stroke="midnightblue" points="618.829,-218.137 610.328,-224.46 620.917,-224.818 618.829,-218.137"/>
</g>
<!-- Node2&#45;&gt;Node3 -->
<g id="edge2" class="edge"><title>Node2&#45;&gt;Node3</title>
<path fill="none" stroke="midnightblue" d="M507.424,-162.38C493.688,-152.62 476.075,-140.106 464.433,-131.834"/>
<polygon fill="midnightblue" stroke="midnightblue" points="505.61,-165.385 515.789,-168.324 509.665,-159.679 505.61,-165.385"/>
</g>
<!-- Node4 -->
<g id="node4" class="node"><title>Node4</title>
<g id="a_node4"><a xlink:href="fplll_8h.html" target="_top" xlink:title="fplll/fplll.h">
<polygon fill="white" stroke="black" points="505,-112.5 505,-131.5 563,-131.5 563,-112.5 505,-112.5"/>
<text text-anchor="middle" x="534" y="-119.5" font-family="Helvetica,sans-Serif" font-size="10.00">fplll/fplll.h</text>
</a>
</g>
</g>
<!-- Node2&#45;&gt;Node4 -->
<g id="edge3" class="edge"><title>Node2&#45;&gt;Node4</title>
<path fill="none" stroke="midnightblue" d="M530.1,-158.101C531.096,-149.136 532.238,-138.858 533.028,-131.751"/>
<polygon fill="midnightblue" stroke="midnightblue" points="526.617,-157.758 528.991,-168.083 533.574,-158.531 526.617,-157.758"/>
</g>
<!-- Node5 -->
<g id="node5" class="node"><title>Node5</title>
<g id="a_node5"><a xlink:href="fplll_8cpp.html" target="_top" xlink:title="fplll/fplll.cpp">
<polygon fill="white" stroke="black" points="933,-56.5 933,-75.5 1001,-75.5 1001,-56.5 933,-56.5"/>
<text text-anchor="middle" x="967" y="-63.5" font-family="Helvetica,sans-Serif" font-size="10.00">fplll/fplll.cpp</text>
</a>
</g>
</g>
<!-- Node4&#45;&gt;Node5 -->
<g id="edge4" class="edge"><title>Node4&#45;&gt;Node5</title>
<path fill="none" stroke="midnightblue" d="M573.71,-117.628C644.411,-111.354 796.649,-96.6302 924,-76 926.861,-75.5365 929.82,-75.0124 932.785,-74.4557"/>
<polygon fill="midnightblue" stroke="midnightblue" points="573.136,-114.164 563.481,-118.527 573.749,-121.138 573.136,-114.164"/>
</g>
<!-- Node6 -->
<g id="node6" class="node"><title>Node6</title>
<g id="a_node6"><a xlink:href="main_8h.html" target="_top" xlink:title="fplll/main.h">
<polygon fill="white" stroke="black" points="5,-56.5 5,-75.5 69,-75.5 69,-56.5 5,-56.5"/>
<text text-anchor="middle" x="37" y="-63.5" font-family="Helvetica,sans-Serif" font-size="10.00">fplll/main.h</text>
</a>
</g>
</g>
<!-- Node4&#45;&gt;Node6 -->
<g id="edge5" class="edge"><title>Node4&#45;&gt;Node6</title>
<path fill="none" stroke="midnightblue" d="M494.594,-111.999C310.11,-83.1781 259.103,-103.556 78,-76 75.1182,-75.5615 72.1359,-75.0403 69.155,-74.473"/>
<polygon fill="midnightblue" stroke="midnightblue" points="494.201,-115.48 504.627,-113.594 495.3,-108.567 494.201,-115.48"/>
</g>
<!-- Node8 -->
<g id="node8" class="node"><title>Node8</title>
<g id="a_node8"><a xlink:href="sieve__main_8cpp.html" target="_top" xlink:title="fplll/sieve/sieve_main.cpp">
<polygon fill="white" stroke="black" points="87.5,-56.5 87.5,-75.5 216.5,-75.5 216.5,-56.5 87.5,-56.5"/>
<text text-anchor="middle" x="152" y="-63.5" font-family="Helvetica,sans-Serif" font-size="10.00">fplll/sieve/sieve_main.cpp</text>
</a>
</g>
</g>
<!-- Node4&#45;&gt;Node8 -->
<g id="edge7" class="edge"><title>Node4&#45;&gt;Node8</title>
<path fill="none" stroke="midnightblue" d="M494.74,-112.029C445.789,-104.111 301.944,-85.8225 216.756,-75.1065"/>
<polygon fill="midnightblue" stroke="midnightblue" points="494.156,-115.48 504.604,-113.724 495.342,-108.581 494.156,-115.48"/>
</g>
<!-- Node9 -->
<g id="node9" class="node"><title>Node9</title>
<g id="a_node9"><a xlink:href="test__bkz_8cpp.html" target="_top" xlink:title="tests/test_bkz.cpp">
<polygon fill="white" stroke="black" points="235,-56.5 235,-75.5 333,-75.5 333,-56.5 235,-56.5"/>
<text text-anchor="middle" x="284" y="-63.5" font-family="Helvetica,sans-Serif" font-size="10.00">tests/test_bkz.cpp</text>
</a>
</g>
</g>
<!-- Node4&#45;&gt;Node9 -->
<g id="edge8" class="edge"><title>Node4&#45;&gt;Node9</title>
<path fill="none" stroke="midnightblue" d="M494.997,-111.814C430.255,-97.3387 366.193,-83.9205 325.498,-75.5092"/>
<polygon fill="midnightblue" stroke="midnightblue" points="494.446,-115.277 504.97,-114.051 495.979,-108.447 494.446,-115.277"/>
</g>
<!-- Node10 -->
<g id="node10" class="node"><title>Node10</title>
<g id="a_node10"><a xlink:href="test__lll_8cpp.html" target="_top" xlink:title="tests/test_lll.cpp">
<polygon fill="white" stroke="black" points="350.5,-56.5 350.5,-75.5 439.5,-75.5 439.5,-56.5 350.5,-56.5"/>
<text text-anchor="middle" x="395" y="-63.5" font-family="Helvetica,sans-Serif" font-size="10.00">tests/test_lll.cpp</text>
</a>
</g>
</g>
<!-- Node4&#45;&gt;Node10 -->
<g id="edge9" class="edge"><title>Node4&#45;&gt;Node10</title>
<path fill="none" stroke="midnightblue" d="M502.524,-108.772C476.415,-98.6287 439.961,-84.4669 416.922,-75.5164"/>
<polygon fill="midnightblue" stroke="midnightblue" points="501.386,-112.085 511.975,-112.444 503.921,-105.56 501.386,-112.085"/>
</g>
<!-- Node11 -->
<g id="node11" class="node"><title>Node11</title>
<g id="a_node11"><a xlink:href="test__nr_8cpp.html" target="_top" xlink:title="tests/test_nr.cpp">
<polygon fill="white" stroke="black" points="458,-56.5 458,-75.5 548,-75.5 548,-56.5 458,-56.5"/>
<text text-anchor="middle" x="503" y="-63.5" font-family="Helvetica,sans-Serif" font-size="10.00">tests/test_nr.cpp</text>
</a>
</g>
</g>
<!-- Node4&#45;&gt;Node11 -->
<g id="edge10" class="edge"><title>Node4&#45;&gt;Node11</title>
<path fill="none" stroke="midnightblue" d="M523.824,-103.275C518.526,-94.0454 512.283,-83.1703 508.024,-75.7511"/>
<polygon fill="midnightblue" stroke="midnightblue" points="520.867,-105.153 528.881,-112.083 526.938,-101.668 520.867,-105.153"/>
</g>
<!-- Node12 -->
<g id="node12" class="node"><title>Node12</title>
<g id="a_node12"><a xlink:href="test__pruner_8cpp.html" target="_top" xlink:title="tests/test_pruner.cpp">
<polygon fill="white" stroke="black" points="566.5,-56.5 566.5,-75.5 675.5,-75.5 675.5,-56.5 566.5,-56.5"/>
<text text-anchor="middle" x="621" y="-63.5" font-family="Helvetica,sans-Serif" font-size="10.00">tests/test_pruner.cpp</text>
</a>
</g>
</g>
<!-- Node4&#45;&gt;Node12 -->
<g id="edge11" class="edge"><title>Node4&#45;&gt;Node12</title>
<path fill="none" stroke="midnightblue" d="M556.716,-106.901C572.669,-96.9986 593.497,-84.0705 607.057,-75.6545"/>
<polygon fill="midnightblue" stroke="midnightblue" points="554.629,-104.077 547.978,-112.324 558.32,-110.024 554.629,-104.077"/>
</g>
<!-- Node13 -->
<g id="node13" class="node"><title>Node13</title>
<g id="a_node13"><a xlink:href="test__sieve_8cpp.html" target="_top" xlink:title="tests/test_sieve.cpp">
<polygon fill="white" stroke="black" points="693.5,-56.5 693.5,-75.5 798.5,-75.5 798.5,-56.5 693.5,-56.5"/>
<text text-anchor="middle" x="746" y="-63.5" font-family="Helvetica,sans-Serif" font-size="10.00">tests/test_sieve.cpp</text>
</a>
</g>
</g>
<!-- Node4&#45;&gt;Node13 -->
<g id="edge12" class="edge"><title>Node4&#45;&gt;Node13</title>
<path fill="none" stroke="midnightblue" d="M572.955,-111.077C612.944,-100.892 674.527,-85.2054 712.43,-75.5509"/>
<polygon fill="midnightblue" stroke="midnightblue" points="571.86,-107.745 563.033,-113.605 573.588,-114.528 571.86,-107.745"/>
</g>
<!-- Node14 -->
<g id="node14" class="node"><title>Node14</title>
<g id="a_node14"><a xlink:href="test__svp_8cpp.html" target="_top" xlink:title="tests/test_svp.cpp">
<polygon fill="white" stroke="black" points="817,-56.5 817,-75.5 915,-75.5 915,-56.5 817,-56.5"/>
<text text-anchor="middle" x="866" y="-63.5" font-family="Helvetica,sans-Serif" font-size="10.00">tests/test_svp.cpp</text>
</a>
</g>
</g>
<!-- Node4&#45;&gt;Node14 -->
<g id="edge13" class="edge"><title>Node4&#45;&gt;Node14</title>
<path fill="none" stroke="midnightblue" d="M573.121,-114.637C633.81,-104.766 750.543,-85.7792 816.839,-74.996"/>
<polygon fill="midnightblue" stroke="midnightblue" points="572.48,-111.195 563.172,-116.255 573.604,-118.104 572.48,-111.195"/>
</g>
<!-- Node7 -->
<g id="node7" class="node"><title>Node7</title>
<g id="a_node7"><a xlink:href="main_8cpp.html" target="_top" xlink:title="fplll/main.cpp">
<polygon fill="white" stroke="black" points="0,-0.5 0,-19.5 74,-19.5 74,-0.5 0,-0.5"/>
<text text-anchor="middle" x="37" y="-7.5" font-family="Helvetica,sans-Serif" font-size="10.00">fplll/main.cpp</text>
</a>
</g>
</g>
<!-- Node6&#45;&gt;Node7 -->
<g id="edge6" class="edge"><title>Node6&#45;&gt;Node7</title>
<path fill="none" stroke="midnightblue" d="M37,-45.8045C37,-36.9102 37,-26.7798 37,-19.7511"/>
<polygon fill="midnightblue" stroke="midnightblue" points="33.5001,-46.083 37,-56.083 40.5001,-46.083 33.5001,-46.083"/>
</g>
<!-- Node16&#45;&gt;Node5 -->
<g id="edge17" class="edge"><title>Node16&#45;&gt;Node5</title>
<path fill="none" stroke="midnightblue" d="M945.504,-103.275C950.973,-94.0454 957.418,-83.1703 961.814,-75.7511"/>
<polygon fill="midnightblue" stroke="midnightblue" points="942.371,-101.696 940.284,-112.083 948.393,-105.264 942.371,-101.696"/>
</g>
</g>
</svg>
