<?xml version="1.0" encoding="UTF-8" standalone="no"?>
<!DOCTYPE svg PUBLIC "-//W3C//DTD SVG 1.1//EN"
 "http://www.w3.org/Graphics/SVG/1.1/DTD/svg11.dtd">
<!-- Generated by graphviz version 2.43.0 (0)
 -->
<!-- Title: fplll/enum/enumerate.h Pages: 1 -->
<svg width="1671pt" height="263pt"
 viewBox="0.00 0.00 1671.00 263.00" xmlns="http://www.w3.org/2000/svg" xmlns:xlink="http://www.w3.org/1999/xlink">
<g id="graph0" class="graph" transform="scale(1 1) rotate(0) translate(4 259)">
<title>fplll/enum/enumerate.h</title>
<polygon fill="white" stroke="transparent" points="-4,4 -4,-259 1667,-259 1667,4 -4,4"/>
<!-- Node1 -->
<g id="node1" class="node">
<title>Node1</title>
<g id="a_node1"><a xlink:title=" ">
<polygon fill="#bfbfbf" stroke="black" points="825,-235.5 825,-254.5 941,-254.5 941,-235.5 825,-235.5"/>
<text text-anchor="middle" x="883" y="-242.5" font-family="Helvetica,sans-Serif" font-size="10.00">fplll/enum/enumerate.h</text>
</a>
</g>
</g>
<!-- Node2 -->
<g id="node2" class="node">
<title>Node2</title>
<g id="a_node2"><a xlink:href="bkz_8cpp.html" target="_top" xlink:title=" ">
<polygon fill="white" stroke="black" points="743.5,-123.5 743.5,-142.5 812.5,-142.5 812.5,-123.5 743.5,-123.5"/>
<text text-anchor="middle" x="778" y="-130.5" font-family="Helvetica,sans-Serif" font-size="10.00">fplll/bkz.cpp</text>
</a>
</g>
</g>
<!-- Node1&#45;&gt;Node2 -->
<g id="edge1" class="edge">
<title>Node1&#45;&gt;Node2</title>
<path fill="none" stroke="midnightblue" d="M856.54,-230.42C842.97,-222.55 826.86,-211.69 815,-199 798.86,-181.74 786.97,-156.17 781.44,-142.83"/>
<polygon fill="midnightblue" stroke="midnightblue" points="854.99,-233.57 865.43,-235.38 858.4,-227.45 854.99,-233.57"/>
</g>
<!-- Node3 -->
<g id="node3" class="node">
<title>Node3</title>
<g id="a_node3"><a xlink:href="bkz_8h.html" target="_top" xlink:title=" ">
<polygon fill="white" stroke="black" points="824.5,-179.5 824.5,-198.5 883.5,-198.5 883.5,-179.5 824.5,-179.5"/>
<text text-anchor="middle" x="854" y="-186.5" font-family="Helvetica,sans-Serif" font-size="10.00">fplll/bkz.h</text>
</a>
</g>
</g>
<!-- Node1&#45;&gt;Node3 -->
<g id="edge2" class="edge">
<title>Node1&#45;&gt;Node3</title>
<path fill="none" stroke="midnightblue" d="M873.32,-225.98C868.4,-216.82 862.64,-206.09 858.7,-198.75"/>
<polygon fill="midnightblue" stroke="midnightblue" points="870.4,-227.93 878.21,-235.08 876.56,-224.62 870.4,-227.93"/>
</g>
<!-- Node29 -->
<g id="node29" class="node">
<title>Node29</title>
<g id="a_node29"><a xlink:href="enumerate_8cpp.html" target="_top" xlink:title=" ">
<polygon fill="white" stroke="black" points="940,-179.5 940,-198.5 1066,-198.5 1066,-179.5 940,-179.5"/>
<text text-anchor="middle" x="1003" y="-186.5" font-family="Helvetica,sans-Serif" font-size="10.00">fplll/enum/enumerate.cpp</text>
</a>
</g>
</g>
<!-- Node1&#45;&gt;Node29 -->
<g id="edge44" class="edge">
<title>Node1&#45;&gt;Node29</title>
<path fill="none" stroke="midnightblue" d="M911.37,-231.23C933.82,-221.13 964.54,-207.31 984.07,-198.52"/>
<polygon fill="midnightblue" stroke="midnightblue" points="909.7,-228.15 902.01,-235.44 912.57,-234.53 909.7,-228.15"/>
</g>
<!-- Node30 -->
<g id="node30" class="node">
<title>Node30</title>
<g id="a_node30"><a xlink:href="svpcvp_8cpp.html" target="_top" xlink:title=" ">
<polygon fill="white" stroke="black" points="1246.5,-123.5 1246.5,-142.5 1331.5,-142.5 1331.5,-123.5 1246.5,-123.5"/>
<text text-anchor="middle" x="1289" y="-130.5" font-family="Helvetica,sans-Serif" font-size="10.00">fplll/svpcvp.cpp</text>
</a>
</g>
</g>
<!-- Node1&#45;&gt;Node30 -->
<g id="edge45" class="edge">
<title>Node1&#45;&gt;Node30</title>
<path fill="none" stroke="midnightblue" d="M891.1,-226.09C899,-210.88 912.51,-189.83 931,-179 983.63,-148.17 1163.37,-138.2 1246.36,-135.2"/>
<polygon fill="midnightblue" stroke="midnightblue" points="887.76,-224.97 886.54,-235.5 894.06,-228.03 887.76,-224.97"/>
</g>
<!-- Node3&#45;&gt;Node2 -->
<g id="edge3" class="edge">
<title>Node3&#45;&gt;Node2</title>
<path fill="none" stroke="midnightblue" d="M833.42,-173.38C819.69,-163.62 802.07,-151.11 790.43,-142.83"/>
<polygon fill="midnightblue" stroke="midnightblue" points="831.61,-176.38 841.79,-179.32 835.66,-170.68 831.61,-176.38"/>
</g>
<!-- Node4 -->
<g id="node4" class="node">
<title>Node4</title>
<g id="a_node4"><a xlink:href="fplll_8h.html" target="_top" xlink:title=" ">
<polygon fill="white" stroke="black" points="831,-123.5 831,-142.5 889,-142.5 889,-123.5 831,-123.5"/>
<text text-anchor="middle" x="860" y="-130.5" font-family="Helvetica,sans-Serif" font-size="10.00">fplll/fplll.h</text>
</a>
</g>
</g>
<!-- Node3&#45;&gt;Node4 -->
<g id="edge4" class="edge">
<title>Node3&#45;&gt;Node4</title>
<path fill="none" stroke="midnightblue" d="M856.1,-169.1C857.1,-160.14 858.24,-149.86 859.03,-142.75"/>
<polygon fill="midnightblue" stroke="midnightblue" points="852.62,-168.76 854.99,-179.08 859.57,-169.53 852.62,-168.76"/>
</g>
<!-- Node5 -->
<g id="node5" class="node">
<title>Node5</title>
<g id="a_node5"><a xlink:href="fplll_8cpp.html" target="_top" xlink:title=" ">
<polygon fill="white" stroke="black" points="1595,-62 1595,-81 1663,-81 1663,-62 1595,-62"/>
<text text-anchor="middle" x="1629" y="-69" font-family="Helvetica,sans-Serif" font-size="10.00">fplll/fplll.cpp</text>
</a>
</g>
</g>
<!-- Node4&#45;&gt;Node5 -->
<g id="edge5" class="edge">
<title>Node4&#45;&gt;Node5</title>
<path fill="none" stroke="midnightblue" d="M899.33,-130.93C1030.58,-127.13 1452.67,-113.14 1586,-87 1593.11,-85.61 1600.67,-83.34 1607.43,-81.01"/>
<polygon fill="midnightblue" stroke="midnightblue" points="899.22,-127.43 889.32,-131.21 899.42,-134.42 899.22,-127.43"/>
</g>
<!-- Node6 -->
<g id="node6" class="node">
<title>Node6</title>
<g id="a_node6"><a xlink:href="main_8h.html" target="_top" xlink:title=" ">
<polygon fill="white" stroke="black" points="1513,-62 1513,-81 1577,-81 1577,-62 1513,-62"/>
<text text-anchor="middle" x="1545" y="-69" font-family="Helvetica,sans-Serif" font-size="10.00">fplll/main.h</text>
</a>
</g>
</g>
<!-- Node4&#45;&gt;Node6 -->
<g id="edge6" class="edge">
<title>Node4&#45;&gt;Node6</title>
<path fill="none" stroke="midnightblue" d="M899.32,-132.42C1000.01,-132.82 1275.03,-129.57 1499,-87 1506.4,-85.59 1514.29,-83.38 1521.4,-81.11"/>
<polygon fill="midnightblue" stroke="midnightblue" points="899.31,-128.92 889.29,-132.37 899.27,-135.92 899.31,-128.92"/>
</g>
<!-- Node8 -->
<g id="node8" class="node">
<title>Node8</title>
<g id="a_node8"><a xlink:href="pruner_8cpp.html" target="_top" xlink:title=" ">
<polygon fill="white" stroke="black" points="209,-0.5 209,-19.5 319,-19.5 319,-0.5 209,-0.5"/>
<text text-anchor="middle" x="264" y="-7.5" font-family="Helvetica,sans-Serif" font-size="10.00">fplll/pruner/pruner.cpp</text>
</a>
</g>
</g>
<!-- Node4&#45;&gt;Node8 -->
<g id="edge8" class="edge">
<title>Node4&#45;&gt;Node8</title>
<path fill="none" stroke="midnightblue" d="M820.74,-123.58C723.15,-115.21 290.93,-131.65 249,-87 231.42,-68.27 248.42,-35.19 258.19,-19.59"/>
<polygon fill="midnightblue" stroke="midnightblue" points="820.38,-127.06 830.71,-124.7 821.16,-120.11 820.38,-127.06"/>
</g>
<!-- Node9 -->
<g id="node9" class="node">
<title>Node9</title>
<g id="a_node9"><a xlink:href="pruner__cost_8cpp.html" target="_top" xlink:title=" ">
<polygon fill="white" stroke="black" points="258,-56.5 258,-86.5 350,-86.5 350,-56.5 258,-56.5"/>
<text text-anchor="start" x="266" y="-74.5" font-family="Helvetica,sans-Serif" font-size="10.00">fplll/pruner/pruner</text>
<text text-anchor="middle" x="304" y="-63.5" font-family="Helvetica,sans-Serif" font-size="10.00">_cost.cpp</text>
</a>
</g>
</g>
<!-- Node4&#45;&gt;Node9 -->
<g id="edge9" class="edge">
<title>Node4&#45;&gt;Node9</title>
<path fill="none" stroke="midnightblue" d="M820.52,-123.2C615.61,-92.7 558.79,-120.84 359,-87 356.08,-86.51 353.09,-85.93 350.08,-85.29"/>
<polygon fill="midnightblue" stroke="midnightblue" points="820.29,-126.71 830.7,-124.75 821.34,-119.79 820.29,-126.71"/>
</g>
<!-- Node10 -->
<g id="node10" class="node">
<title>Node10</title>
<g id="a_node10"><a xlink:href="pruner__optimize_8cpp.html" target="_top" xlink:title=" ">
<polygon fill="white" stroke="black" points="110,-56.5 110,-86.5 202,-86.5 202,-56.5 110,-56.5"/>
<text text-anchor="start" x="118" y="-74.5" font-family="Helvetica,sans-Serif" font-size="10.00">fplll/pruner/pruner</text>
<text text-anchor="middle" x="156" y="-63.5" font-family="Helvetica,sans-Serif" font-size="10.00">_optimize.cpp</text>
</a>
</g>
</g>
<!-- Node4&#45;&gt;Node10 -->
<g id="edge11" class="edge">
<title>Node4&#45;&gt;Node10</title>
<path fill="none" stroke="midnightblue" d="M820.68,-123.26C552.6,-85.6 479.16,-126.31 216,-87 211.44,-86.32 206.72,-85.46 202.03,-84.5"/>
<polygon fill="midnightblue" stroke="midnightblue" points="820.32,-126.74 830.71,-124.69 821.31,-119.81 820.32,-126.74"/>
</g>
<!-- Node11 -->
<g id="node11" class="node">
<title>Node11</title>
<g id="a_node11"><a xlink:href="pruner__optimize__tc_8cpp.html" target="_top" xlink:title=" ">
<polygon fill="white" stroke="black" points="368,-56.5 368,-86.5 460,-86.5 460,-56.5 368,-56.5"/>
<text text-anchor="start" x="376" y="-74.5" font-family="Helvetica,sans-Serif" font-size="10.00">fplll/pruner/pruner</text>
<text text-anchor="middle" x="414" y="-63.5" font-family="Helvetica,sans-Serif" font-size="10.00">_optimize_tc.cpp</text>
</a>
</g>
</g>
<!-- Node4&#45;&gt;Node11 -->
<g id="edge13" class="edge">
<title>Node4&#45;&gt;Node11</title>
<path fill="none" stroke="midnightblue" d="M820.7,-123.18C664.08,-97.98 620.55,-114.55 469,-87 466.09,-86.47 463.1,-85.87 460.1,-85.21"/>
<polygon fill="midnightblue" stroke="midnightblue" points="820.26,-126.66 830.69,-124.82 821.39,-119.75 820.26,-126.66"/>
</g>
<!-- Node12 -->
<g id="node12" class="node">
<title>Node12</title>
<g id="a_node12"><a xlink:href="pruner__optimize__tp_8cpp.html" target="_top" xlink:title=" ">
<polygon fill="white" stroke="black" points="478,-56.5 478,-86.5 570,-86.5 570,-56.5 478,-56.5"/>
<text text-anchor="start" x="486" y="-74.5" font-family="Helvetica,sans-Serif" font-size="10.00">fplll/pruner/pruner</text>
<text text-anchor="middle" x="524" y="-63.5" font-family="Helvetica,sans-Serif" font-size="10.00">_optimize_tp.cpp</text>
</a>
</g>
</g>
<!-- Node4&#45;&gt;Node12 -->
<g id="edge15" class="edge">
<title>Node4&#45;&gt;Node12</title>
<path fill="none" stroke="midnightblue" d="M820.65,-123.09C712.42,-103.09 682.39,-108.25 579,-87 576.1,-86.4 573.12,-85.75 570.13,-85.05"/>
<polygon fill="midnightblue" stroke="midnightblue" points="820.19,-126.56 830.67,-124.97 821.48,-119.68 820.19,-126.56"/>
</g>
<!-- Node13 -->
<g id="node13" class="node">
<title>Node13</title>
<g id="a_node13"><a xlink:href="pruner__prob_8cpp.html" target="_top" xlink:title=" ">
<polygon fill="white" stroke="black" points="588,-56.5 588,-86.5 680,-86.5 680,-56.5 588,-56.5"/>
<text text-anchor="start" x="596" y="-74.5" font-family="Helvetica,sans-Serif" font-size="10.00">fplll/pruner/pruner</text>
<text text-anchor="middle" x="634" y="-63.5" font-family="Helvetica,sans-Serif" font-size="10.00">_prob.cpp</text>
</a>
</g>
</g>
<!-- Node4&#45;&gt;Node13 -->
<g id="edge17" class="edge">
<title>Node4&#45;&gt;Node13</title>
<path fill="none" stroke="midnightblue" d="M821.22,-121.79C782.12,-111.5 721.77,-95.61 680.21,-84.67"/>
<polygon fill="midnightblue" stroke="midnightblue" points="820.36,-125.18 830.92,-124.34 822.14,-118.41 820.36,-125.18"/>
</g>
<!-- Node14 -->
<g id="node14" class="node">
<title>Node14</title>
<g id="a_node14"><a xlink:href="pruner__util_8cpp.html" target="_top" xlink:title=" ">
<polygon fill="white" stroke="black" points="0,-56.5 0,-86.5 92,-86.5 92,-56.5 0,-56.5"/>
<text text-anchor="start" x="8" y="-74.5" font-family="Helvetica,sans-Serif" font-size="10.00">fplll/pruner/pruner</text>
<text text-anchor="middle" x="46" y="-63.5" font-family="Helvetica,sans-Serif" font-size="10.00">_util.cpp</text>
</a>
</g>
</g>
<!-- Node4&#45;&gt;Node14 -->
<g id="edge19" class="edge">
<title>Node4&#45;&gt;Node14</title>
<path fill="none" stroke="midnightblue" d="M820.73,-123.28C501.87,-79.97 414.37,-135.6 101,-87 98.07,-86.55 95.08,-86 92.07,-85.39"/>
<polygon fill="midnightblue" stroke="midnightblue" points="820.33,-126.76 830.72,-124.66 821.29,-119.82 820.33,-126.76"/>
</g>
<!-- Node15 -->
<g id="node15" class="node">
<title>Node15</title>
<g id="a_node15"><a xlink:href="test__bkz_8cpp.html" target="_top" xlink:title=" ">
<polygon fill="white" stroke="black" points="337,-0.5 337,-19.5 435,-19.5 435,-0.5 337,-0.5"/>
<text text-anchor="middle" x="386" y="-7.5" font-family="Helvetica,sans-Serif" font-size="10.00">tests/test_bkz.cpp</text>
</a>
</g>
</g>
<!-- Node4&#45;&gt;Node15 -->
<g id="edge21" class="edge">
<title>Node4&#45;&gt;Node15</title>
<path fill="none" stroke="midnightblue" d="M821.08,-121.37C786.51,-111.55 738.92,-97.02 722,-87 704.69,-76.75 707.12,-64.75 689,-56 589.9,-8.13 552.82,-36.44 444,-20 441.08,-19.56 438.07,-19.1 435.04,-18.64"/>
<polygon fill="midnightblue" stroke="midnightblue" points="820.32,-124.79 830.9,-124.13 822.22,-118.05 820.32,-124.79"/>
</g>
<!-- Node16 -->
<g id="node16" class="node">
<title>Node16</title>
<g id="a_node16"><a xlink:href="test__bkz__gram_8cpp.html" target="_top" xlink:title=" ">
<polygon fill="white" stroke="black" points="453.5,-0.5 453.5,-19.5 578.5,-19.5 578.5,-0.5 453.5,-0.5"/>
<text text-anchor="middle" x="516" y="-7.5" font-family="Helvetica,sans-Serif" font-size="10.00">tests/test_bkz_gram.cpp</text>
</a>
</g>
</g>
<!-- Node4&#45;&gt;Node16 -->
<g id="edge22" class="edge">
<title>Node4&#45;&gt;Node16</title>
<path fill="none" stroke="midnightblue" d="M827.15,-119.76C807.09,-111.67 781.29,-100.16 760,-87 741.46,-75.54 741.63,-65.47 722,-56 695.3,-43.11 619.9,-28.51 568.12,-19.53"/>
<polygon fill="midnightblue" stroke="midnightblue" points="825.91,-123.03 836.5,-123.44 828.48,-116.52 825.91,-123.03"/>
</g>
<!-- Node17 -->
<g id="node17" class="node">
<title>Node17</title>
<g id="a_node17"><a xlink:href="test__counter_8cpp.html" target="_top" xlink:title=" ">
<polygon fill="white" stroke="black" points="1110.5,-62 1110.5,-81 1223.5,-81 1223.5,-62 1110.5,-62"/>
<text text-anchor="middle" x="1167" y="-69" font-family="Helvetica,sans-Serif" font-size="10.00">tests/test_counter.cpp</text>
</a>
</g>
</g>
<!-- Node4&#45;&gt;Node17 -->
<g id="edge23" class="edge">
<title>Node4&#45;&gt;Node17</title>
<path fill="none" stroke="midnightblue" d="M899.11,-124.7C945.95,-115.93 1026.76,-100.67 1096,-87 1105.63,-85.1 1115.98,-83.01 1125.72,-81.03"/>
<polygon fill="midnightblue" stroke="midnightblue" points="898.27,-121.3 889.09,-126.58 899.56,-128.18 898.27,-121.3"/>
</g>
<!-- Node18 -->
<g id="node18" class="node">
<title>Node18</title>
<g id="a_node18"><a xlink:href="test__cvp_8cpp.html" target="_top" xlink:title=" ">
<polygon fill="white" stroke="black" points="597,-0.5 597,-19.5 695,-19.5 695,-0.5 597,-0.5"/>
<text text-anchor="middle" x="646" y="-7.5" font-family="Helvetica,sans-Serif" font-size="10.00">tests/test_cvp.cpp</text>
</a>
</g>
</g>
<!-- Node4&#45;&gt;Node18 -->
<g id="edge24" class="edge">
<title>Node4&#45;&gt;Node18</title>
<path fill="none" stroke="midnightblue" d="M839.33,-117.44C827.17,-108.77 811.57,-97.45 798,-87 780.73,-73.7 778.8,-67.02 760,-56 732.65,-39.97 698.52,-27.35 674.76,-19.61"/>
<polygon fill="midnightblue" stroke="midnightblue" points="837.32,-120.3 847.5,-123.24 841.37,-114.6 837.32,-120.3"/>
</g>
<!-- Node19 -->
<g id="node19" class="node">
<title>Node19</title>
<g id="a_node19"><a xlink:href="test__enum_8cpp.html" target="_top" xlink:title=" ">
<polygon fill="white" stroke="black" points="713,-0.5 713,-19.5 819,-19.5 819,-0.5 713,-0.5"/>
<text text-anchor="middle" x="766" y="-7.5" font-family="Helvetica,sans-Serif" font-size="10.00">tests/test_enum.cpp</text>
</a>
</g>
</g>
<!-- Node4&#45;&gt;Node19 -->
<g id="edge25" class="edge">
<title>Node4&#45;&gt;Node19</title>
<path fill="none" stroke="midnightblue" d="M846.87,-115.09C826.53,-88.91 788.15,-39.52 772.7,-19.62"/>
<polygon fill="midnightblue" stroke="midnightblue" points="844.34,-117.55 853.24,-123.3 849.87,-113.25 844.34,-117.55"/>
</g>
<!-- Node20 -->
<g id="node20" class="node">
<title>Node20</title>
<g id="a_node20"><a xlink:href="test__hlll_8cpp.html" target="_top" xlink:title=" ">
<polygon fill="white" stroke="black" points="837,-0.5 837,-19.5 931,-19.5 931,-0.5 837,-0.5"/>
<text text-anchor="middle" x="884" y="-7.5" font-family="Helvetica,sans-Serif" font-size="10.00">tests/test_hlll.cpp</text>
</a>
</g>
</g>
<!-- Node4&#45;&gt;Node20 -->
<g id="edge26" class="edge">
<title>Node4&#45;&gt;Node20</title>
<path fill="none" stroke="midnightblue" d="M863.7,-113.35C868.97,-86.77 878.43,-39.08 882.29,-19.62"/>
<polygon fill="midnightblue" stroke="midnightblue" points="860.24,-112.81 861.73,-123.3 867.1,-114.17 860.24,-112.81"/>
</g>
<!-- Node21 -->
<g id="node21" class="node">
<title>Node21</title>
<g id="a_node21"><a xlink:href="test__lll_8cpp.html" target="_top" xlink:title=" ">
<polygon fill="white" stroke="black" points="1065.5,-0.5 1065.5,-19.5 1154.5,-19.5 1154.5,-0.5 1065.5,-0.5"/>
<text text-anchor="middle" x="1110" y="-7.5" font-family="Helvetica,sans-Serif" font-size="10.00">tests/test_lll.cpp</text>
</a>
</g>
</g>
<!-- Node4&#45;&gt;Node21 -->
<g id="edge27" class="edge">
<title>Node4&#45;&gt;Node21</title>
<path fill="none" stroke="midnightblue" d="M898.89,-121.11C924.39,-113.25 958.06,-101.49 986,-87 1007.24,-75.99 1009.77,-68.77 1030,-56 1051.43,-42.48 1077.1,-28.39 1093.48,-19.66"/>
<polygon fill="midnightblue" stroke="midnightblue" points="897.76,-117.79 889.2,-124.03 899.78,-124.49 897.76,-117.79"/>
</g>
<!-- Node22 -->
<g id="node22" class="node">
<title>Node22</title>
<g id="a_node22"><a xlink:href="test__lll__gram_8cpp.html" target="_top" xlink:title=" ">
<polygon fill="white" stroke="black" points="1172,-0.5 1172,-19.5 1288,-19.5 1288,-0.5 1172,-0.5"/>
<text text-anchor="middle" x="1230" y="-7.5" font-family="Helvetica,sans-Serif" font-size="10.00">tests/test_lll_gram.cpp</text>
</a>
</g>
</g>
<!-- Node4&#45;&gt;Node22 -->
<g id="edge28" class="edge">
<title>Node4&#45;&gt;Node22</title>
<path fill="none" stroke="midnightblue" d="M898.97,-124.86C932.58,-117.85 981.88,-105.5 1022,-87 1044.39,-76.68 1045.61,-66.32 1068,-56 1105.51,-38.71 1151.05,-26.78 1184.28,-19.58"/>
<polygon fill="midnightblue" stroke="midnightblue" points="898.18,-121.45 889.07,-126.87 899.57,-128.31 898.18,-121.45"/>
</g>
<!-- Node23 -->
<g id="node23" class="node">
<title>Node23</title>
<g id="a_node23"><a xlink:href="test__nr_8cpp.html" target="_top" xlink:title=" ">
<polygon fill="white" stroke="black" points="1241.5,-62 1241.5,-81 1330.5,-81 1330.5,-62 1241.5,-62"/>
<text text-anchor="middle" x="1286" y="-69" font-family="Helvetica,sans-Serif" font-size="10.00">tests/test_nr.cpp</text>
</a>
</g>
</g>
<!-- Node4&#45;&gt;Node23 -->
<g id="edge29" class="edge">
<title>Node4&#45;&gt;Node23</title>
<path fill="none" stroke="midnightblue" d="M899.44,-129.08C967.68,-123.62 1111.97,-110.25 1232,-87 1240.29,-85.39 1249.18,-83.2 1257.31,-81.01"/>
<polygon fill="midnightblue" stroke="midnightblue" points="898.85,-125.62 889.16,-129.89 899.4,-132.59 898.85,-125.62"/>
</g>
<!-- Node24 -->
<g id="node24" class="node">
<title>Node24</title>
<g id="a_node24"><a xlink:href="test__pruner_8cpp.html" target="_top" xlink:title=" ">
<polygon fill="white" stroke="black" points="1349,-62 1349,-81 1457,-81 1457,-62 1349,-62"/>
<text text-anchor="middle" x="1403" y="-69" font-family="Helvetica,sans-Serif" font-size="10.00">tests/test_pruner.cpp</text>
</a>
</g>
</g>
<!-- Node4&#45;&gt;Node24 -->
<g id="edge30" class="edge">
<title>Node4&#45;&gt;Node24</title>
<path fill="none" stroke="midnightblue" d="M899.17,-130.04C981.18,-125.55 1176.81,-112.88 1339,-87 1348.79,-85.44 1359.31,-83.26 1368.95,-81.07"/>
<polygon fill="midnightblue" stroke="midnightblue" points="898.85,-126.55 889.05,-130.58 899.22,-133.54 898.85,-126.55"/>
</g>
<!-- Node25 -->
<g id="node25" class="node">
<title>Node25</title>
<g id="a_node25"><a xlink:href="test__svp_8cpp.html" target="_top" xlink:title=" ">
<polygon fill="white" stroke="black" points="1306,-0.5 1306,-19.5 1404,-19.5 1404,-0.5 1306,-0.5"/>
<text text-anchor="middle" x="1355" y="-7.5" font-family="Helvetica,sans-Serif" font-size="10.00">tests/test_svp.cpp</text>
</a>
</g>
</g>
<!-- Node4&#45;&gt;Node25 -->
<g id="edge31" class="edge">
<title>Node4&#45;&gt;Node25</title>
<path fill="none" stroke="midnightblue" d="M899.14,-127.98C940.41,-122.66 1006.59,-110.98 1059,-87 1080.1,-77.35 1079.68,-65.15 1101,-56 1110.36,-51.98 1234.79,-30.93 1305.95,-19.1"/>
<polygon fill="midnightblue" stroke="midnightblue" points="898.71,-124.51 889.21,-129.2 899.56,-131.46 898.71,-124.51"/>
</g>
<!-- Node26 -->
<g id="node26" class="node">
<title>Node26</title>
<g id="a_node26"><a xlink:href="test__svp__gram_8cpp.html" target="_top" xlink:title=" ">
<polygon fill="white" stroke="black" points="1422.5,-0.5 1422.5,-19.5 1547.5,-19.5 1547.5,-0.5 1422.5,-0.5"/>
<text text-anchor="middle" x="1485" y="-7.5" font-family="Helvetica,sans-Serif" font-size="10.00">tests/test_svp_gram.cpp</text>
</a>
</g>
</g>
<!-- Node4&#45;&gt;Node26 -->
<g id="edge32" class="edge">
<title>Node4&#45;&gt;Node26</title>
<path fill="none" stroke="midnightblue" d="M899.25,-131.71C1026.63,-130.41 1422.74,-123.44 1466,-87 1485.97,-70.18 1486.67,-35.84 1485.78,-19.72"/>
<polygon fill="midnightblue" stroke="midnightblue" points="899.13,-128.21 889.16,-131.81 899.2,-135.21 899.13,-128.21"/>
</g>
<!-- Node27 -->
<g id="node27" class="node">
<title>Node27</title>
<g id="a_node27"><a xlink:href="test__utils_8h.html" target="_top" xlink:title=" ">
<polygon fill="white" stroke="black" points="888.5,-62 888.5,-81 977.5,-81 977.5,-62 888.5,-62"/>
<text text-anchor="middle" x="933" y="-69" font-family="Helvetica,sans-Serif" font-size="10.00">tests/test_utils.h</text>
</a>
</g>
</g>
<!-- Node4&#45;&gt;Node27 -->
<g id="edge33" class="edge">
<title>Node4&#45;&gt;Node27</title>
<path fill="none" stroke="midnightblue" d="M878.44,-116.97C892.4,-105.59 911.08,-90.37 922.56,-81.01"/>
<polygon fill="midnightblue" stroke="midnightblue" points="876,-114.44 870.46,-123.48 880.42,-119.87 876,-114.44"/>
</g>
<!-- Node7 -->
<g id="node7" class="node">
<title>Node7</title>
<g id="a_node7"><a xlink:href="main_8cpp.html" target="_top" xlink:title=" ">
<polygon fill="white" stroke="black" points="1566,-0.5 1566,-19.5 1640,-19.5 1640,-0.5 1566,-0.5"/>
<text text-anchor="middle" x="1603" y="-7.5" font-family="Helvetica,sans-Serif" font-size="10.00">fplll/main.cpp</text>
</a>
</g>
</g>
<!-- Node6&#45;&gt;Node7 -->
<g id="edge7" class="edge">
<title>Node6&#45;&gt;Node7</title>
<path fill="none" stroke="midnightblue" d="M1560.6,-54.5C1571.58,-43.24 1585.84,-28.6 1594.71,-19.51"/>
<polygon fill="midnightblue" stroke="midnightblue" points="1557.78,-52.37 1553.31,-61.98 1562.8,-57.26 1557.78,-52.37"/>
</g>
<!-- Node9&#45;&gt;Node8 -->
<g id="edge10" class="edge">
<title>Node9&#45;&gt;Node8</title>
<path fill="none" stroke="midnightblue" d="M288.74,-47.8C282.13,-37.96 274.78,-27.03 269.82,-19.66"/>
<polygon fill="midnightblue" stroke="midnightblue" points="286.04,-50.05 294.52,-56.4 291.85,-46.15 286.04,-50.05"/>
</g>
<!-- Node10&#45;&gt;Node8 -->
<g id="edge12" class="edge">
<title>Node10&#45;&gt;Node8</title>
<path fill="none" stroke="midnightblue" d="M190.48,-51.51C209.89,-40.81 233.19,-27.97 248.29,-19.66"/>
<polygon fill="midnightblue" stroke="midnightblue" points="188.66,-48.51 181.59,-56.4 192.04,-54.64 188.66,-48.51"/>
</g>
<!-- Node11&#45;&gt;Node8 -->
<g id="edge14" class="edge">
<title>Node11&#45;&gt;Node8</title>
<path fill="none" stroke="midnightblue" d="M369.02,-52.66C341.51,-41.75 307.54,-28.27 285.83,-19.66"/>
<polygon fill="midnightblue" stroke="midnightblue" points="367.87,-55.97 378.45,-56.4 370.45,-49.46 367.87,-55.97"/>
</g>
<!-- Node12&#45;&gt;Node8 -->
<g id="edge16" class="edge">
<title>Node12&#45;&gt;Node8</title>
<path fill="none" stroke="midnightblue" d="M467.87,-55.78C405.9,-40.94 344.72,-27.81 305.34,-19.55"/>
<polygon fill="midnightblue" stroke="midnightblue" points="467.28,-59.24 477.82,-58.18 468.92,-52.43 467.28,-59.24"/>
</g>
<!-- Node13&#45;&gt;Node8 -->
<g id="edge18" class="edge">
<title>Node13&#45;&gt;Node8</title>
<path fill="none" stroke="midnightblue" d="M577.82,-56.19C537.56,-49.74 398.25,-29.99 319.29,-18.82"/>
<polygon fill="midnightblue" stroke="midnightblue" points="577.43,-59.68 587.88,-57.93 578.62,-52.78 577.43,-59.68"/>
</g>
<!-- Node14&#45;&gt;Node8 -->
<g id="edge20" class="edge">
<title>Node14&#45;&gt;Node8</title>
<path fill="none" stroke="midnightblue" d="M101.94,-55.23C143.44,-43.9 198.53,-28.87 232.61,-19.57"/>
<polygon fill="midnightblue" stroke="midnightblue" points="100.96,-51.87 92.23,-57.88 102.8,-58.62 100.96,-51.87"/>
</g>
<!-- Node27&#45;&gt;Node15 -->
<g id="edge34" class="edge">
<title>Node27&#45;&gt;Node15</title>
<path fill="none" stroke="midnightblue" d="M878.39,-65.78C787.91,-57.75 601.3,-40.31 444,-20 441.07,-19.62 438.06,-19.21 435.02,-18.79"/>
<polygon fill="midnightblue" stroke="midnightblue" points="878.14,-69.27 888.41,-66.66 878.76,-62.3 878.14,-69.27"/>
</g>
<!-- Node27&#45;&gt;Node16 -->
<g id="edge35" class="edge">
<title>Node27&#45;&gt;Node16</title>
<path fill="none" stroke="midnightblue" d="M878.23,-62.69C799.95,-51.52 656.59,-31.06 575.68,-19.52"/>
<polygon fill="midnightblue" stroke="midnightblue" points="877.98,-66.18 888.37,-64.13 878.97,-59.25 877.98,-66.18"/>
</g>
<!-- Node27&#45;&gt;Node18 -->
<g id="edge36" class="edge">
<title>Node27&#45;&gt;Node18</title>
<path fill="none" stroke="midnightblue" d="M881.88,-59.9C826.24,-48.37 738.37,-30.15 687.04,-19.51"/>
<polygon fill="midnightblue" stroke="midnightblue" points="881.38,-63.37 891.88,-61.98 882.8,-56.52 881.38,-63.37"/>
</g>
<!-- Node27&#45;&gt;Node19 -->
<g id="edge37" class="edge">
<title>Node27&#45;&gt;Node19</title>
<path fill="none" stroke="midnightblue" d="M899.55,-58.58C867.09,-47.02 818.63,-29.75 789.88,-19.51"/>
<polygon fill="midnightblue" stroke="midnightblue" points="898.48,-61.92 909.07,-61.98 900.83,-55.32 898.48,-61.92"/>
</g>
<!-- Node27&#45;&gt;Node20 -->
<g id="edge39" class="edge">
<title>Node27&#45;&gt;Node20</title>
<path fill="none" stroke="midnightblue" d="M919.55,-54.17C910.31,-42.95 898.43,-28.52 891.01,-19.51"/>
<polygon fill="midnightblue" stroke="midnightblue" points="916.92,-56.48 925.98,-61.98 922.32,-52.03 916.92,-56.48"/>
</g>
<!-- Node27&#45;&gt;Node21 -->
<g id="edge40" class="edge">
<title>Node27&#45;&gt;Node21</title>
<path fill="none" stroke="midnightblue" d="M968.01,-58.73C1002.41,-47.17 1054.08,-29.8 1084.69,-19.51"/>
<polygon fill="midnightblue" stroke="midnightblue" points="966.72,-55.47 958.36,-61.98 968.95,-62.11 966.72,-55.47"/>
</g>
<!-- Node27&#45;&gt;Node22 -->
<g id="edge41" class="edge">
<title>Node27&#45;&gt;Node22</title>
<path fill="none" stroke="midnightblue" d="M985.54,-59.97C1043.1,-48.44 1134.3,-30.17 1187.53,-19.51"/>
<polygon fill="midnightblue" stroke="midnightblue" points="984.67,-56.58 975.55,-61.98 986.05,-63.44 984.67,-56.58"/>
</g>
<!-- Node27&#45;&gt;Node25 -->
<g id="edge42" class="edge">
<title>Node27&#45;&gt;Node25</title>
<path fill="none" stroke="midnightblue" d="M987.67,-63.19C1058.91,-53.61 1187.35,-36.11 1297,-20 1299.92,-19.57 1302.93,-19.12 1305.96,-18.67"/>
<polygon fill="midnightblue" stroke="midnightblue" points="987.03,-59.75 977.58,-64.55 987.96,-66.69 987.03,-59.75"/>
</g>
<!-- Node27&#45;&gt;Node26 -->
<g id="edge43" class="edge">
<title>Node27&#45;&gt;Node26</title>
<path fill="none" stroke="midnightblue" d="M987.85,-65.08C1077.05,-56.19 1259.06,-37.72 1413,-20 1416,-19.65 1419.08,-19.29 1422.18,-18.93"/>
<polygon fill="midnightblue" stroke="midnightblue" points="987.3,-61.62 977.7,-66.09 988,-68.58 987.3,-61.62"/>
</g>
<!-- Node28 -->
<g id="node28" class="node">
<title>Node28</title>
<g id="a_node28"><a xlink:href="test__gso_8cpp.html" target="_top" xlink:title=" ">
<polygon fill="white" stroke="black" points="949,-0.5 949,-19.5 1047,-19.5 1047,-0.5 949,-0.5"/>
<text text-anchor="middle" x="998" y="-7.5" font-family="Helvetica,sans-Serif" font-size="10.00">tests/test_gso.cpp</text>
</a>
</g>
</g>
<!-- Node27&#45;&gt;Node28 -->
<g id="edge38" class="edge">
<title>Node27&#45;&gt;Node28</title>
<path fill="none" stroke="midnightblue" d="M949.77,-55.15C962.16,-43.81 978.58,-28.78 988.7,-19.51"/>
<polygon fill="midnightblue" stroke="midnightblue" points="947.33,-52.64 942.31,-61.98 952.05,-57.8 947.33,-52.64"/>
</g>
<!-- Node30&#45;&gt;Node5 -->
<g id="edge46" class="edge">
<title>Node30&#45;&gt;Node5</title>
<path fill="none" stroke="midnightblue" d="M1341.71,-126.83C1401.51,-120.32 1501.68,-107.44 1586,-87 1592.58,-85.4 1599.6,-83.24 1606.01,-81.08"/>
<polygon fill="midnightblue" stroke="midnightblue" points="1341.32,-123.35 1331.75,-127.9 1342.07,-130.31 1341.32,-123.35"/>
</g>
</g>
</svg>
