<?xml version="1.0" encoding="UTF-8" standalone="no"?>
<!DOCTYPE svg PUBLIC "-//W3C//DTD SVG 1.1//EN"
 "http://www.w3.org/Graphics/SVG/1.1/DTD/svg11.dtd">
<!-- Generated by graphviz version 2.43.0 (0)
 -->
<!-- Title: fplll/enum/enumerate.h Pages: 1 -->
<svg width="1910pt" height="263pt"
 viewBox="0.00 0.00 1910.00 263.00" xmlns="http://www.w3.org/2000/svg" xmlns:xlink="http://www.w3.org/1999/xlink">
<g id="graph0" class="graph" transform="scale(1 1) rotate(0) translate(4 259)">
<title>fplll/enum/enumerate.h</title>
<polygon fill="white" stroke="transparent" points="-4,4 -4,-259 1906,-259 1906,4 -4,4"/>
<!-- Node1 -->
<g id="node1" class="node">
<title>Node1</title>
<g id="a_node1"><a xlink:title=" ">
<polygon fill="#bfbfbf" stroke="black" points="949,-235.5 949,-254.5 1065,-254.5 1065,-235.5 949,-235.5"/>
<text text-anchor="middle" x="1007" y="-242.5" font-family="Helvetica,sans-Serif" font-size="10.00">fplll/enum/enumerate.h</text>
</a>
</g>
</g>
<!-- Node2 -->
<g id="node2" class="node">
<title>Node2</title>
<g id="a_node2"><a xlink:href="bkz_8cpp.html" target="_top" xlink:title=" ">
<polygon fill="white" stroke="black" points="867.5,-123.5 867.5,-142.5 936.5,-142.5 936.5,-123.5 867.5,-123.5"/>
<text text-anchor="middle" x="902" y="-130.5" font-family="Helvetica,sans-Serif" font-size="10.00">fplll/bkz.cpp</text>
</a>
</g>
</g>
<!-- Node1&#45;&gt;Node2 -->
<g id="edge1" class="edge">
<title>Node1&#45;&gt;Node2</title>
<path fill="none" stroke="midnightblue" d="M980.54,-230.42C966.97,-222.55 950.86,-211.69 939,-199 922.86,-181.74 910.97,-156.17 905.44,-142.83"/>
<polygon fill="midnightblue" stroke="midnightblue" points="978.99,-233.57 989.43,-235.38 982.4,-227.45 978.99,-233.57"/>
</g>
<!-- Node3 -->
<g id="node3" class="node">
<title>Node3</title>
<g id="a_node3"><a xlink:href="bkz_8h.html" target="_top" xlink:title=" ">
<polygon fill="white" stroke="black" points="948.5,-179.5 948.5,-198.5 1007.5,-198.5 1007.5,-179.5 948.5,-179.5"/>
<text text-anchor="middle" x="978" y="-186.5" font-family="Helvetica,sans-Serif" font-size="10.00">fplll/bkz.h</text>
</a>
</g>
</g>
<!-- Node1&#45;&gt;Node3 -->
<g id="edge2" class="edge">
<title>Node1&#45;&gt;Node3</title>
<path fill="none" stroke="midnightblue" d="M997.32,-225.98C992.4,-216.82 986.64,-206.09 982.7,-198.75"/>
<polygon fill="midnightblue" stroke="midnightblue" points="994.4,-227.93 1002.21,-235.08 1000.56,-224.62 994.4,-227.93"/>
</g>
<!-- Node31 -->
<g id="node31" class="node">
<title>Node31</title>
<g id="a_node31"><a xlink:href="enumerate_8cpp.html" target="_top" xlink:title=" ">
<polygon fill="white" stroke="black" points="1064,-179.5 1064,-198.5 1190,-198.5 1190,-179.5 1064,-179.5"/>
<text text-anchor="middle" x="1127" y="-186.5" font-family="Helvetica,sans-Serif" font-size="10.00">fplll/enum/enumerate.cpp</text>
</a>
</g>
</g>
<!-- Node1&#45;&gt;Node31 -->
<g id="edge46" class="edge">
<title>Node1&#45;&gt;Node31</title>
<path fill="none" stroke="midnightblue" d="M1035.37,-231.23C1057.82,-221.13 1088.54,-207.31 1108.07,-198.52"/>
<polygon fill="midnightblue" stroke="midnightblue" points="1033.7,-228.15 1026.01,-235.44 1036.57,-234.53 1033.7,-228.15"/>
</g>
<!-- Node32 -->
<g id="node32" class="node">
<title>Node32</title>
<g id="a_node32"><a xlink:href="svpcvp_8cpp.html" target="_top" xlink:title=" ">
<polygon fill="white" stroke="black" points="1428.5,-123.5 1428.5,-142.5 1513.5,-142.5 1513.5,-123.5 1428.5,-123.5"/>
<text text-anchor="middle" x="1471" y="-130.5" font-family="Helvetica,sans-Serif" font-size="10.00">fplll/svpcvp.cpp</text>
</a>
</g>
</g>
<!-- Node1&#45;&gt;Node32 -->
<g id="edge47" class="edge">
<title>Node1&#45;&gt;Node32</title>
<path fill="none" stroke="midnightblue" d="M1015.06,-226.02C1022.92,-210.75 1036.42,-189.67 1055,-179 1117.84,-142.92 1335.38,-135.74 1428.34,-134.34"/>
<polygon fill="midnightblue" stroke="midnightblue" points="1011.7,-224.93 1010.52,-235.46 1018.01,-227.96 1011.7,-224.93"/>
</g>
<!-- Node3&#45;&gt;Node2 -->
<g id="edge3" class="edge">
<title>Node3&#45;&gt;Node2</title>
<path fill="none" stroke="midnightblue" d="M957.42,-173.38C943.69,-163.62 926.07,-151.11 914.43,-142.83"/>
<polygon fill="midnightblue" stroke="midnightblue" points="955.61,-176.38 965.79,-179.32 959.66,-170.68 955.61,-176.38"/>
</g>
<!-- Node4 -->
<g id="node4" class="node">
<title>Node4</title>
<g id="a_node4"><a xlink:href="fplll_8h.html" target="_top" xlink:title=" ">
<polygon fill="white" stroke="black" points="955,-123.5 955,-142.5 1013,-142.5 1013,-123.5 955,-123.5"/>
<text text-anchor="middle" x="984" y="-130.5" font-family="Helvetica,sans-Serif" font-size="10.00">fplll/fplll.h</text>
</a>
</g>
</g>
<!-- Node3&#45;&gt;Node4 -->
<g id="edge4" class="edge">
<title>Node3&#45;&gt;Node4</title>
<path fill="none" stroke="midnightblue" d="M980.1,-169.1C981.1,-160.14 982.24,-149.86 983.03,-142.75"/>
<polygon fill="midnightblue" stroke="midnightblue" points="976.62,-168.76 978.99,-179.08 983.57,-169.53 976.62,-168.76"/>
</g>
<!-- Node5 -->
<g id="node5" class="node">
<title>Node5</title>
<g id="a_node5"><a xlink:href="fplll_8cpp.html" target="_top" xlink:title=" ">
<polygon fill="white" stroke="black" points="1834,-62 1834,-81 1902,-81 1902,-62 1834,-62"/>
<text text-anchor="middle" x="1868" y="-69" font-family="Helvetica,sans-Serif" font-size="10.00">fplll/fplll.cpp</text>
</a>
</g>
</g>
<!-- Node4&#45;&gt;Node5 -->
<g id="edge5" class="edge">
<title>Node4&#45;&gt;Node5</title>
<path fill="none" stroke="midnightblue" d="M1023.17,-131.31C1167.35,-128.57 1668.27,-117.04 1825,-87 1832.12,-85.64 1839.67,-83.38 1846.43,-81.05"/>
<polygon fill="midnightblue" stroke="midnightblue" points="1022.96,-127.82 1013.03,-131.5 1023.09,-134.82 1022.96,-127.82"/>
</g>
<!-- Node6 -->
<g id="node6" class="node">
<title>Node6</title>
<g id="a_node6"><a xlink:href="main_8h.html" target="_top" xlink:title=" ">
<polygon fill="white" stroke="black" points="1752,-62 1752,-81 1816,-81 1816,-62 1752,-62"/>
<text text-anchor="middle" x="1784" y="-69" font-family="Helvetica,sans-Serif" font-size="10.00">fplll/main.h</text>
</a>
</g>
</g>
<!-- Node4&#45;&gt;Node6 -->
<g id="edge6" class="edge">
<title>Node4&#45;&gt;Node6</title>
<path fill="none" stroke="midnightblue" d="M1023.45,-130.92C1158.09,-127.05 1598.79,-112.69 1738,-87 1745.58,-85.6 1753.65,-83.34 1760.88,-81.01"/>
<polygon fill="midnightblue" stroke="midnightblue" points="1023.1,-127.43 1013.2,-131.22 1023.29,-134.43 1023.1,-127.43"/>
</g>
<!-- Node8 -->
<g id="node8" class="node">
<title>Node8</title>
<g id="a_node8"><a xlink:href="pruner_8cpp.html" target="_top" xlink:title=" ">
<polygon fill="white" stroke="black" points="249,-0.5 249,-19.5 359,-19.5 359,-0.5 249,-0.5"/>
<text text-anchor="middle" x="304" y="-7.5" font-family="Helvetica,sans-Serif" font-size="10.00">fplll/pruner/pruner.cpp</text>
</a>
</g>
</g>
<!-- Node4&#45;&gt;Node8 -->
<g id="edge8" class="edge">
<title>Node4&#45;&gt;Node8</title>
<path fill="none" stroke="midnightblue" d="M944.56,-123.57C831.29,-114.21 300.55,-141.29 249,-87 227.92,-64.8 267.46,-34.22 289.96,-19.54"/>
<polygon fill="midnightblue" stroke="midnightblue" points="944.4,-127.07 954.72,-124.66 945.15,-120.11 944.4,-127.07"/>
</g>
<!-- Node9 -->
<g id="node9" class="node">
<title>Node9</title>
<g id="a_node9"><a xlink:href="pruner__cost_8cpp.html" target="_top" xlink:title=" ">
<polygon fill="white" stroke="black" points="258,-56.5 258,-86.5 350,-86.5 350,-56.5 258,-56.5"/>
<text text-anchor="start" x="266" y="-74.5" font-family="Helvetica,sans-Serif" font-size="10.00">fplll/pruner/pruner</text>
<text text-anchor="middle" x="304" y="-63.5" font-family="Helvetica,sans-Serif" font-size="10.00">_cost.cpp</text>
</a>
</g>
</g>
<!-- Node4&#45;&gt;Node9 -->
<g id="edge9" class="edge">
<title>Node4&#45;&gt;Node9</title>
<path fill="none" stroke="midnightblue" d="M944.6,-123.24C684.96,-86.61 613.35,-127.93 359,-87 356.08,-86.53 353.08,-85.97 350.07,-85.35"/>
<polygon fill="midnightblue" stroke="midnightblue" points="944.31,-126.74 954.71,-124.69 945.31,-119.81 944.31,-126.74"/>
</g>
<!-- Node10 -->
<g id="node10" class="node">
<title>Node10</title>
<g id="a_node10"><a xlink:href="pruner__optimize_8cpp.html" target="_top" xlink:title=" ">
<polygon fill="white" stroke="black" points="368,-56.5 368,-86.5 460,-86.5 460,-56.5 368,-56.5"/>
<text text-anchor="start" x="376" y="-74.5" font-family="Helvetica,sans-Serif" font-size="10.00">fplll/pruner/pruner</text>
<text text-anchor="middle" x="414" y="-63.5" font-family="Helvetica,sans-Serif" font-size="10.00">_optimize.cpp</text>
</a>
</g>
</g>
<!-- Node4&#45;&gt;Node10 -->
<g id="edge11" class="edge">
<title>Node4&#45;&gt;Node10</title>
<path fill="none" stroke="midnightblue" d="M944.54,-123.21C733.44,-92.01 674.95,-121.64 469,-87 466.08,-86.51 463.09,-85.93 460.08,-85.3"/>
<polygon fill="midnightblue" stroke="midnightblue" points="944.29,-126.71 954.7,-124.74 945.34,-119.79 944.29,-126.71"/>
</g>
<!-- Node11 -->
<g id="node11" class="node">
<title>Node11</title>
<g id="a_node11"><a xlink:href="pruner__optimize__tc_8cpp.html" target="_top" xlink:title=" ">
<polygon fill="white" stroke="black" points="478,-56.5 478,-86.5 570,-86.5 570,-56.5 478,-56.5"/>
<text text-anchor="start" x="486" y="-74.5" font-family="Helvetica,sans-Serif" font-size="10.00">fplll/pruner/pruner</text>
<text text-anchor="middle" x="524" y="-63.5" font-family="Helvetica,sans-Serif" font-size="10.00">_optimize_tc.cpp</text>
</a>
</g>
</g>
<!-- Node4&#45;&gt;Node11 -->
<g id="edge13" class="edge">
<title>Node4&#45;&gt;Node11</title>
<path fill="none" stroke="midnightblue" d="M944.82,-123.21C781.94,-97.31 736.73,-115.36 579,-87 576.08,-86.48 573.1,-85.88 570.09,-85.22"/>
<polygon fill="midnightblue" stroke="midnightblue" points="944.26,-126.67 954.69,-124.81 945.38,-119.76 944.26,-126.67"/>
</g>
<!-- Node12 -->
<g id="node12" class="node">
<title>Node12</title>
<g id="a_node12"><a xlink:href="pruner__optimize__tp_8cpp.html" target="_top" xlink:title=" ">
<polygon fill="white" stroke="black" points="0,-56.5 0,-86.5 92,-86.5 92,-56.5 0,-56.5"/>
<text text-anchor="start" x="8" y="-74.5" font-family="Helvetica,sans-Serif" font-size="10.00">fplll/pruner/pruner</text>
<text text-anchor="middle" x="46" y="-63.5" font-family="Helvetica,sans-Serif" font-size="10.00">_optimize_tp.cpp</text>
</a>
</g>
</g>
<!-- Node4&#45;&gt;Node12 -->
<g id="edge15" class="edge">
<title>Node4&#45;&gt;Node12</title>
<path fill="none" stroke="midnightblue" d="M944.72,-123.29C571.16,-73.81 468.96,-142.69 101,-87 98.07,-86.56 95.07,-86.02 92.06,-85.41"/>
<polygon fill="midnightblue" stroke="midnightblue" points="944.34,-126.77 954.72,-124.63 945.27,-119.83 944.34,-126.77"/>
</g>
<!-- Node13 -->
<g id="node13" class="node">
<title>Node13</title>
<g id="a_node13"><a xlink:href="pruner__prob_8cpp.html" target="_top" xlink:title=" ">
<polygon fill="white" stroke="black" points="110,-56.5 110,-86.5 202,-86.5 202,-56.5 110,-56.5"/>
<text text-anchor="start" x="118" y="-74.5" font-family="Helvetica,sans-Serif" font-size="10.00">fplll/pruner/pruner</text>
<text text-anchor="middle" x="156" y="-63.5" font-family="Helvetica,sans-Serif" font-size="10.00">_prob.cpp</text>
</a>
</g>
</g>
<!-- Node4&#45;&gt;Node13 -->
<g id="edge17" class="edge">
<title>Node4&#45;&gt;Node13</title>
<path fill="none" stroke="midnightblue" d="M944.61,-123.26C621.89,-79.47 533.78,-132.83 216,-87 211.44,-86.34 206.72,-85.5 202.02,-84.54"/>
<polygon fill="midnightblue" stroke="midnightblue" points="944.33,-126.76 954.72,-124.66 945.29,-119.82 944.33,-126.76"/>
</g>
<!-- Node14 -->
<g id="node14" class="node">
<title>Node14</title>
<g id="a_node14"><a xlink:href="pruner__util_8cpp.html" target="_top" xlink:title=" ">
<polygon fill="white" stroke="black" points="712,-56.5 712,-86.5 804,-86.5 804,-56.5 712,-56.5"/>
<text text-anchor="start" x="720" y="-74.5" font-family="Helvetica,sans-Serif" font-size="10.00">fplll/pruner/pruner</text>
<text text-anchor="middle" x="758" y="-63.5" font-family="Helvetica,sans-Serif" font-size="10.00">_util.cpp</text>
</a>
</g>
</g>
<!-- Node4&#45;&gt;Node14 -->
<g id="edge19" class="edge">
<title>Node4&#45;&gt;Node14</title>
<path fill="none" stroke="midnightblue" d="M945.22,-121.79C906.12,-111.5 845.77,-95.61 804.21,-84.67"/>
<polygon fill="midnightblue" stroke="midnightblue" points="944.36,-125.18 954.92,-124.34 946.14,-118.41 944.36,-125.18"/>
</g>
<!-- Node15 -->
<g id="node15" class="node">
<title>Node15</title>
<g id="a_node15"><a xlink:href="test__babai_8cpp.html" target="_top" xlink:title=" ">
<polygon fill="white" stroke="black" points="588.5,-62 588.5,-81 693.5,-81 693.5,-62 588.5,-62"/>
<text text-anchor="middle" x="641" y="-69" font-family="Helvetica,sans-Serif" font-size="10.00">tests/test_babai.cpp</text>
</a>
</g>
</g>
<!-- Node4&#45;&gt;Node15 -->
<g id="edge21" class="edge">
<title>Node4&#45;&gt;Node15</title>
<path fill="none" stroke="midnightblue" d="M944.65,-123.08C836.43,-103.01 806.68,-106.8 703,-87 693.99,-85.28 684.3,-83.15 675.33,-81.06"/>
<polygon fill="midnightblue" stroke="midnightblue" points="944.19,-126.56 954.67,-124.97 945.48,-119.68 944.19,-126.56"/>
</g>
<!-- Node16 -->
<g id="node16" class="node">
<title>Node16</title>
<g id="a_node16"><a xlink:href="test__bkz_8cpp.html" target="_top" xlink:title=" ">
<polygon fill="white" stroke="black" points="510,-0.5 510,-19.5 608,-19.5 608,-0.5 510,-0.5"/>
<text text-anchor="middle" x="559" y="-7.5" font-family="Helvetica,sans-Serif" font-size="10.00">tests/test_bkz.cpp</text>
</a>
</g>
</g>
<!-- Node4&#45;&gt;Node16 -->
<g id="edge22" class="edge">
<title>Node4&#45;&gt;Node16</title>
<path fill="none" stroke="midnightblue" d="M945.08,-121.37C910.51,-111.55 862.92,-97.02 846,-87 828.69,-76.75 830.99,-65.02 813,-56 803.89,-51.43 679.35,-30.62 608.12,-18.96"/>
<polygon fill="midnightblue" stroke="midnightblue" points="944.32,-124.79 954.9,-124.13 946.22,-118.05 944.32,-124.79"/>
</g>
<!-- Node17 -->
<g id="node17" class="node">
<title>Node17</title>
<g id="a_node17"><a xlink:href="test__bkz__gram_8cpp.html" target="_top" xlink:title=" ">
<polygon fill="white" stroke="black" points="626.5,-0.5 626.5,-19.5 751.5,-19.5 751.5,-0.5 626.5,-0.5"/>
<text text-anchor="middle" x="689" y="-7.5" font-family="Helvetica,sans-Serif" font-size="10.00">tests/test_bkz_gram.cpp</text>
</a>
</g>
</g>
<!-- Node4&#45;&gt;Node17 -->
<g id="edge23" class="edge">
<title>Node4&#45;&gt;Node17</title>
<path fill="none" stroke="midnightblue" d="M951.15,-119.76C931.09,-111.67 905.29,-100.16 884,-87 865.46,-75.54 865.32,-66.1 846,-56 811.7,-38.07 769.34,-26.47 737.27,-19.54"/>
<polygon fill="midnightblue" stroke="midnightblue" points="949.91,-123.03 960.5,-123.44 952.48,-116.52 949.91,-123.03"/>
</g>
<!-- Node18 -->
<g id="node18" class="node">
<title>Node18</title>
<g id="a_node18"><a xlink:href="test__ceil_8cpp.html" target="_top" xlink:title=" ">
<polygon fill="white" stroke="black" points="1234.5,-62 1234.5,-81 1331.5,-81 1331.5,-62 1234.5,-62"/>
<text text-anchor="middle" x="1283" y="-69" font-family="Helvetica,sans-Serif" font-size="10.00">tests/test_ceil.cpp</text>
</a>
</g>
</g>
<!-- Node4&#45;&gt;Node18 -->
<g id="edge24" class="edge">
<title>Node4&#45;&gt;Node18</title>
<path fill="none" stroke="midnightblue" d="M1023.17,-125C1070.07,-116.51 1150.94,-101.53 1220,-87 1228.79,-85.15 1238.23,-83.04 1247.07,-81.02"/>
<polygon fill="midnightblue" stroke="midnightblue" points="1022.36,-121.59 1013.14,-126.81 1023.6,-128.48 1022.36,-121.59"/>
</g>
<!-- Node19 -->
<g id="node19" class="node">
<title>Node19</title>
<g id="a_node19"><a xlink:href="test__counter_8cpp.html" target="_top" xlink:title=" ">
<polygon fill="white" stroke="black" points="1349.5,-62 1349.5,-81 1462.5,-81 1462.5,-62 1349.5,-62"/>
<text text-anchor="middle" x="1406" y="-69" font-family="Helvetica,sans-Serif" font-size="10.00">tests/test_counter.cpp</text>
</a>
</g>
</g>
<!-- Node4&#45;&gt;Node19 -->
<g id="edge25" class="edge">
<title>Node4&#45;&gt;Node19</title>
<path fill="none" stroke="midnightblue" d="M1023.54,-128.18C1089.42,-121.56 1225.73,-106.73 1340,-87 1349.71,-85.32 1360.15,-83.19 1369.81,-81.07"/>
<polygon fill="midnightblue" stroke="midnightblue" points="1022.81,-124.74 1013.2,-129.21 1023.5,-131.7 1022.81,-124.74"/>
</g>
<!-- Node20 -->
<g id="node20" class="node">
<title>Node20</title>
<g id="a_node20"><a xlink:href="test__cvp_8cpp.html" target="_top" xlink:title=" ">
<polygon fill="white" stroke="black" points="770,-0.5 770,-19.5 868,-19.5 868,-0.5 770,-0.5"/>
<text text-anchor="middle" x="819" y="-7.5" font-family="Helvetica,sans-Serif" font-size="10.00">tests/test_cvp.cpp</text>
</a>
</g>
</g>
<!-- Node4&#45;&gt;Node20 -->
<g id="edge26" class="edge">
<title>Node4&#45;&gt;Node20</title>
<path fill="none" stroke="midnightblue" d="M965.03,-117.18C945.05,-101.68 912.6,-76.75 884,-56 866.23,-43.1 845.28,-28.75 832.07,-19.8"/>
<polygon fill="midnightblue" stroke="midnightblue" points="962.98,-120.02 973.02,-123.4 967.28,-114.5 962.98,-120.02"/>
</g>
<!-- Node21 -->
<g id="node21" class="node">
<title>Node21</title>
<g id="a_node21"><a xlink:href="test__enum_8cpp.html" target="_top" xlink:title=" ">
<polygon fill="white" stroke="black" points="886,-0.5 886,-19.5 992,-19.5 992,-0.5 886,-0.5"/>
<text text-anchor="middle" x="939" y="-7.5" font-family="Helvetica,sans-Serif" font-size="10.00">tests/test_enum.cpp</text>
</a>
</g>
</g>
<!-- Node4&#45;&gt;Node21 -->
<g id="edge27" class="edge">
<title>Node4&#45;&gt;Node21</title>
<path fill="none" stroke="midnightblue" d="M977.19,-113.7C967.34,-87.2 949.48,-39.17 942.21,-19.62"/>
<polygon fill="midnightblue" stroke="midnightblue" points="974,-115.15 980.76,-123.3 980.56,-112.71 974,-115.15"/>
</g>
<!-- Node22 -->
<g id="node22" class="node">
<title>Node22</title>
<g id="a_node22"><a xlink:href="test__hlll_8cpp.html" target="_top" xlink:title=" ">
<polygon fill="white" stroke="black" points="1010,-0.5 1010,-19.5 1104,-19.5 1104,-0.5 1010,-0.5"/>
<text text-anchor="middle" x="1057" y="-7.5" font-family="Helvetica,sans-Serif" font-size="10.00">tests/test_hlll.cpp</text>
</a>
</g>
</g>
<!-- Node4&#45;&gt;Node22 -->
<g id="edge28" class="edge">
<title>Node4&#45;&gt;Node22</title>
<path fill="none" stroke="midnightblue" d="M985.45,-113C987.42,-96.8 992.06,-73.43 1003,-56 1012.73,-40.5 1029.6,-27.71 1041.9,-19.78"/>
<polygon fill="midnightblue" stroke="midnightblue" points="981.92,-113.05 984.43,-123.35 988.89,-113.73 981.92,-113.05"/>
</g>
<!-- Node23 -->
<g id="node23" class="node">
<title>Node23</title>
<g id="a_node23"><a xlink:href="test__lll_8cpp.html" target="_top" xlink:title=" ">
<polygon fill="white" stroke="black" points="1238.5,-0.5 1238.5,-19.5 1327.5,-19.5 1327.5,-0.5 1238.5,-0.5"/>
<text text-anchor="middle" x="1283" y="-7.5" font-family="Helvetica,sans-Serif" font-size="10.00">tests/test_lll.cpp</text>
</a>
</g>
</g>
<!-- Node4&#45;&gt;Node23 -->
<g id="edge29" class="edge">
<title>Node4&#45;&gt;Node23</title>
<path fill="none" stroke="midnightblue" d="M1022.89,-121.11C1048.39,-113.25 1082.06,-101.49 1110,-87 1131.24,-75.99 1132.72,-66.93 1154,-56 1185.43,-39.85 1223.98,-27.25 1250.71,-19.55"/>
<polygon fill="midnightblue" stroke="midnightblue" points="1021.76,-117.79 1013.2,-124.03 1023.78,-124.49 1021.76,-117.79"/>
</g>
<!-- Node24 -->
<g id="node24" class="node">
<title>Node24</title>
<g id="a_node24"><a xlink:href="test__lll__gram_8cpp.html" target="_top" xlink:title=" ">
<polygon fill="white" stroke="black" points="1345,-0.5 1345,-19.5 1461,-19.5 1461,-0.5 1345,-0.5"/>
<text text-anchor="middle" x="1403" y="-7.5" font-family="Helvetica,sans-Serif" font-size="10.00">tests/test_lll_gram.cpp</text>
</a>
</g>
</g>
<!-- Node4&#45;&gt;Node24 -->
<g id="edge30" class="edge">
<title>Node4&#45;&gt;Node24</title>
<path fill="none" stroke="midnightblue" d="M1022.97,-124.86C1056.58,-117.85 1105.88,-105.5 1146,-87 1168.39,-76.68 1169.31,-65.64 1192,-56 1220.36,-43.96 1299.39,-28.81 1352.27,-19.52"/>
<polygon fill="midnightblue" stroke="midnightblue" points="1022.18,-121.45 1013.07,-126.87 1023.57,-128.31 1022.18,-121.45"/>
</g>
<!-- Node25 -->
<g id="node25" class="node">
<title>Node25</title>
<g id="a_node25"><a xlink:href="test__nr_8cpp.html" target="_top" xlink:title=" ">
<polygon fill="white" stroke="black" points="1480.5,-62 1480.5,-81 1569.5,-81 1569.5,-62 1480.5,-62"/>
<text text-anchor="middle" x="1525" y="-69" font-family="Helvetica,sans-Serif" font-size="10.00">tests/test_nr.cpp</text>
</a>
</g>
</g>
<!-- Node4&#45;&gt;Node25 -->
<g id="edge31" class="edge">
<title>Node4&#45;&gt;Node25</title>
<path fill="none" stroke="midnightblue" d="M1023.05,-130.65C1106.09,-127.28 1306.09,-116.54 1471,-87 1479.5,-85.48 1488.62,-83.26 1496.9,-81.02"/>
<polygon fill="midnightblue" stroke="midnightblue" points="1022.9,-127.15 1013.05,-131.04 1023.18,-134.14 1022.9,-127.15"/>
</g>
<!-- Node26 -->
<g id="node26" class="node">
<title>Node26</title>
<g id="a_node26"><a xlink:href="test__pruner_8cpp.html" target="_top" xlink:title=" ">
<polygon fill="white" stroke="black" points="1588,-62 1588,-81 1696,-81 1696,-62 1588,-62"/>
<text text-anchor="middle" x="1642" y="-69" font-family="Helvetica,sans-Serif" font-size="10.00">tests/test_pruner.cpp</text>
</a>
</g>
</g>
<!-- Node4&#45;&gt;Node26 -->
<g id="edge32" class="edge">
<title>Node4&#45;&gt;Node26</title>
<path fill="none" stroke="midnightblue" d="M1023.29,-131.02C1118.79,-128.21 1370.5,-118.19 1578,-87 1588.03,-85.49 1598.82,-83.28 1608.63,-81.04"/>
<polygon fill="midnightblue" stroke="midnightblue" points="1023.12,-127.52 1013.22,-131.31 1023.32,-134.52 1023.12,-127.52"/>
</g>
<!-- Node27 -->
<g id="node27" class="node">
<title>Node27</title>
<g id="a_node27"><a xlink:href="test__svp_8cpp.html" target="_top" xlink:title=" ">
<polygon fill="white" stroke="black" points="1479,-0.5 1479,-19.5 1577,-19.5 1577,-0.5 1479,-0.5"/>
<text text-anchor="middle" x="1528" y="-7.5" font-family="Helvetica,sans-Serif" font-size="10.00">tests/test_svp.cpp</text>
</a>
</g>
</g>
<!-- Node4&#45;&gt;Node27 -->
<g id="edge33" class="edge">
<title>Node4&#45;&gt;Node27</title>
<path fill="none" stroke="midnightblue" d="M1023.14,-127.98C1064.41,-122.66 1130.59,-110.98 1183,-87 1204.1,-77.35 1203.55,-64.84 1225,-56 1326.76,-14.07 1361.18,-36.44 1470,-20 1472.92,-19.56 1475.93,-19.1 1478.96,-18.64"/>
<polygon fill="midnightblue" stroke="midnightblue" points="1022.71,-124.51 1013.21,-129.2 1023.56,-131.46 1022.71,-124.51"/>
</g>
<!-- Node28 -->
<g id="node28" class="node">
<title>Node28</title>
<g id="a_node28"><a xlink:href="test__svp__gram_8cpp.html" target="_top" xlink:title=" ">
<polygon fill="white" stroke="black" points="1599.5,-0.5 1599.5,-19.5 1724.5,-19.5 1724.5,-0.5 1599.5,-0.5"/>
<text text-anchor="middle" x="1662" y="-7.5" font-family="Helvetica,sans-Serif" font-size="10.00">tests/test_svp_gram.cpp</text>
</a>
</g>
</g>
<!-- Node4&#45;&gt;Node28 -->
<g id="edge34" class="edge">
<title>Node4&#45;&gt;Node28</title>
<path fill="none" stroke="midnightblue" d="M1023.81,-131.01C1171.61,-127.13 1681.52,-112 1705,-87 1724.62,-66.12 1691.83,-34.65 1673.33,-19.6"/>
<polygon fill="midnightblue" stroke="midnightblue" points="1023.32,-127.52 1013.41,-131.28 1023.5,-134.52 1023.32,-127.52"/>
</g>
<!-- Node29 -->
<g id="node29" class="node">
<title>Node29</title>
<g id="a_node29"><a xlink:href="test__utils_8h.html" target="_top" xlink:title=" ">
<polygon fill="white" stroke="black" points="1012.5,-62 1012.5,-81 1101.5,-81 1101.5,-62 1012.5,-62"/>
<text text-anchor="middle" x="1057" y="-69" font-family="Helvetica,sans-Serif" font-size="10.00">tests/test_utils.h</text>
</a>
</g>
</g>
<!-- Node4&#45;&gt;Node29 -->
<g id="edge35" class="edge">
<title>Node4&#45;&gt;Node29</title>
<path fill="none" stroke="midnightblue" d="M1002.44,-116.97C1016.4,-105.59 1035.08,-90.37 1046.56,-81.01"/>
<polygon fill="midnightblue" stroke="midnightblue" points="1000,-114.44 994.46,-123.48 1004.42,-119.87 1000,-114.44"/>
</g>
<!-- Node7 -->
<g id="node7" class="node">
<title>Node7</title>
<g id="a_node7"><a xlink:href="main_8cpp.html" target="_top" xlink:title=" ">
<polygon fill="white" stroke="black" points="1747,-0.5 1747,-19.5 1821,-19.5 1821,-0.5 1747,-0.5"/>
<text text-anchor="middle" x="1784" y="-7.5" font-family="Helvetica,sans-Serif" font-size="10.00">fplll/main.cpp</text>
</a>
</g>
</g>
<!-- Node6&#45;&gt;Node7 -->
<g id="edge7" class="edge">
<title>Node6&#45;&gt;Node7</title>
<path fill="none" stroke="midnightblue" d="M1784,-51.82C1784,-41 1784,-27.9 1784,-19.51"/>
<polygon fill="midnightblue" stroke="midnightblue" points="1780.5,-51.98 1784,-61.98 1787.5,-51.98 1780.5,-51.98"/>
</g>
<!-- Node9&#45;&gt;Node8 -->
<g id="edge10" class="edge">
<title>Node9&#45;&gt;Node8</title>
<path fill="none" stroke="midnightblue" d="M304,-46.29C304,-36.86 304,-26.65 304,-19.66"/>
<polygon fill="midnightblue" stroke="midnightblue" points="300.5,-46.4 304,-56.4 307.5,-46.4 300.5,-46.4"/>
</g>
<!-- Node10&#45;&gt;Node8 -->
<g id="edge12" class="edge">
<title>Node10&#45;&gt;Node8</title>
<path fill="none" stroke="midnightblue" d="M378.88,-51.51C359.11,-40.81 335.38,-27.97 320.01,-19.66"/>
<polygon fill="midnightblue" stroke="midnightblue" points="377.47,-54.72 387.93,-56.4 380.8,-48.56 377.47,-54.72"/>
</g>
<!-- Node11&#45;&gt;Node8 -->
<g id="edge14" class="edge">
<title>Node11&#45;&gt;Node8</title>
<path fill="none" stroke="midnightblue" d="M468.06,-55.37C426.05,-44.01 370.02,-28.86 335.51,-19.52"/>
<polygon fill="midnightblue" stroke="midnightblue" points="467.31,-58.79 477.88,-58.03 469.14,-52.04 467.31,-58.79"/>
</g>
<!-- Node12&#45;&gt;Node8 -->
<g id="edge16" class="edge">
<title>Node12&#45;&gt;Node8</title>
<path fill="none" stroke="midnightblue" d="M102.05,-55.8C163.5,-41.01 224.07,-27.86 263.06,-19.58"/>
<polygon fill="midnightblue" stroke="midnightblue" points="101.08,-52.43 92.18,-58.18 102.72,-59.23 101.08,-52.43"/>
</g>
<!-- Node13&#45;&gt;Node8 -->
<g id="edge18" class="edge">
<title>Node13&#45;&gt;Node8</title>
<path fill="none" stroke="midnightblue" d="M200.38,-52.66C227.52,-41.75 261.04,-28.27 282.46,-19.66"/>
<polygon fill="midnightblue" stroke="midnightblue" points="199.05,-49.42 191.07,-56.4 201.66,-55.92 199.05,-49.42"/>
</g>
<!-- Node14&#45;&gt;Node8 -->
<g id="edge20" class="edge">
<title>Node14&#45;&gt;Node8</title>
<path fill="none" stroke="midnightblue" d="M702.31,-56.06C702.2,-56.04 702.1,-56.02 702,-56 580.63,-33.54 436.23,-20.59 359.08,-14.76"/>
<polygon fill="midnightblue" stroke="midnightblue" points="701.47,-59.46 711.97,-58.03 702.87,-52.6 701.47,-59.46"/>
</g>
<!-- Node29&#45;&gt;Node16 -->
<g id="edge36" class="edge">
<title>Node29&#45;&gt;Node16</title>
<path fill="none" stroke="midnightblue" d="M1002.27,-64.92C918.98,-56.28 755.43,-38.68 617,-20 614.07,-19.6 611.06,-19.18 608.03,-18.75"/>
<polygon fill="midnightblue" stroke="midnightblue" points="1001.96,-68.41 1012.27,-65.96 1002.68,-61.45 1001.96,-68.41"/>
</g>
<!-- Node29&#45;&gt;Node17 -->
<g id="edge37" class="edge">
<title>Node29&#45;&gt;Node17</title>
<path fill="none" stroke="midnightblue" d="M1002.26,-61.65C932.02,-50.29 811.01,-30.73 741.75,-19.53"/>
<polygon fill="midnightblue" stroke="midnightblue" points="1001.81,-65.12 1012.24,-63.26 1002.93,-58.21 1001.81,-65.12"/>
</g>
<!-- Node29&#45;&gt;Node20 -->
<g id="edge38" class="edge">
<title>Node29&#45;&gt;Node20</title>
<path fill="none" stroke="midnightblue" d="M1013.16,-59.54C966.96,-47.99 895.16,-30.04 853.04,-19.51"/>
<polygon fill="midnightblue" stroke="midnightblue" points="1012.35,-62.95 1022.9,-61.98 1014.05,-56.15 1012.35,-62.95"/>
</g>
<!-- Node29&#45;&gt;Node21 -->
<g id="edge39" class="edge">
<title>Node29&#45;&gt;Node21</title>
<path fill="none" stroke="midnightblue" d="M1030.95,-57.37C1008.08,-45.83 975.49,-29.4 955.88,-19.51"/>
<polygon fill="midnightblue" stroke="midnightblue" points="1029.59,-60.6 1040.09,-61.98 1032.74,-54.35 1029.59,-60.6"/>
</g>
<!-- Node29&#45;&gt;Node22 -->
<g id="edge41" class="edge">
<title>Node29&#45;&gt;Node22</title>
<path fill="none" stroke="midnightblue" d="M1057,-51.82C1057,-41 1057,-27.9 1057,-19.51"/>
<polygon fill="midnightblue" stroke="midnightblue" points="1053.5,-51.98 1057,-61.98 1060.5,-51.98 1053.5,-51.98"/>
</g>
<!-- Node29&#45;&gt;Node23 -->
<g id="edge42" class="edge">
<title>Node29&#45;&gt;Node23</title>
<path fill="none" stroke="midnightblue" d="M1099.18,-59.4C1143.07,-47.84 1210.85,-30 1250.68,-19.51"/>
<polygon fill="midnightblue" stroke="midnightblue" points="1098.16,-56.04 1089.38,-61.98 1099.94,-62.81 1098.16,-56.04"/>
</g>
<!-- Node29&#45;&gt;Node24 -->
<g id="edge43" class="edge">
<title>Node29&#45;&gt;Node24</title>
<path fill="none" stroke="midnightblue" d="M1111.38,-61.15C1177.79,-49.73 1289.15,-30.58 1353.34,-19.54"/>
<polygon fill="midnightblue" stroke="midnightblue" points="1110.79,-57.7 1101.53,-62.84 1111.97,-64.6 1110.79,-57.7"/>
</g>
<!-- Node29&#45;&gt;Node27 -->
<g id="edge44" class="edge">
<title>Node29&#45;&gt;Node27</title>
<path fill="none" stroke="midnightblue" d="M1111.9,-64.36C1191.1,-55.37 1341.95,-37.76 1470,-20 1472.93,-19.59 1475.94,-19.16 1478.97,-18.72"/>
<polygon fill="midnightblue" stroke="midnightblue" points="1111.22,-60.91 1101.68,-65.52 1112.01,-67.87 1111.22,-60.91"/>
</g>
<!-- Node29&#45;&gt;Node28 -->
<g id="edge45" class="edge">
<title>Node29&#45;&gt;Node28</title>
<path fill="none" stroke="midnightblue" d="M1111.68,-65.69C1207.72,-57.16 1412.96,-38.5 1586,-20 1590.36,-19.53 1594.86,-19.04 1599.39,-18.53"/>
<polygon fill="midnightblue" stroke="midnightblue" points="1111.27,-62.21 1101.62,-66.58 1111.89,-69.19 1111.27,-62.21"/>
</g>
<!-- Node30 -->
<g id="node30" class="node">
<title>Node30</title>
<g id="a_node30"><a xlink:href="test__gso_8cpp.html" target="_top" xlink:title=" ">
<polygon fill="white" stroke="black" points="1122,-0.5 1122,-19.5 1220,-19.5 1220,-0.5 1122,-0.5"/>
<text text-anchor="middle" x="1171" y="-7.5" font-family="Helvetica,sans-Serif" font-size="10.00">tests/test_gso.cpp</text>
</a>
</g>
</g>
<!-- Node29&#45;&gt;Node30 -->
<g id="edge40" class="edge">
<title>Node29&#45;&gt;Node30</title>
<path fill="none" stroke="midnightblue" d="M1082.46,-57.21C1104.54,-45.69 1135.83,-29.36 1154.7,-19.51"/>
<polygon fill="midnightblue" stroke="midnightblue" points="1080.58,-54.25 1073.33,-61.98 1083.82,-60.45 1080.58,-54.25"/>
</g>
<!-- Node32&#45;&gt;Node5 -->
<g id="edge48" class="edge">
<title>Node32&#45;&gt;Node5</title>
<path fill="none" stroke="midnightblue" d="M1523.99,-128.56C1593.72,-123.29 1719.76,-111.18 1825,-87 1831.76,-85.45 1838.95,-83.25 1845.48,-81.03"/>
<polygon fill="midnightblue" stroke="midnightblue" points="1523.43,-125.1 1513.71,-129.32 1523.94,-132.08 1523.43,-125.1"/>
</g>
</g>
</svg>
