<?xml version="1.0" encoding="UTF-8" standalone="no"?>
<!DOCTYPE svg PUBLIC "-//W3C//DTD SVG 1.1//EN"
 "http://www.w3.org/Graphics/SVG/1.1/DTD/svg11.dtd">
<!-- Generated by graphviz version 2.38.0 (20140413.2041)
 -->
<!-- Title: fplll/enum/enumerate.h Pages: 1 -->
<svg width="1126pt" height="252pt"
 viewBox="0.00 0.00 1126.00 252.00" xmlns="http://www.w3.org/2000/svg" xmlns:xlink="http://www.w3.org/1999/xlink">
<g id="graph0" class="graph" transform="scale(1 1) rotate(0) translate(4 248)">
<title>fplll/enum/enumerate.h</title>
<polygon fill="white" stroke="none" points="-4,4 -4,-248 1122,-248 1122,4 -4,4"/>
<!-- Node0 -->
<g id="node1" class="node"><title>Node0</title>
<polygon fill="#bfbfbf" stroke="black" points="611,-224.5 611,-243.5 727,-243.5 727,-224.5 611,-224.5"/>
<text text-anchor="middle" x="669" y="-231.5" font-family="Helvetica,sans-Serif" font-size="10.00">fplll/enum/enumerate.h</text>
</g>
<!-- Node1 -->
<g id="node2" class="node"><title>Node1</title>
<g id="a_node2"><a xlink:href="bkz_8h.html" target="_top" xlink:title="fplll/bkz.h">
<polygon fill="white" stroke="black" points="584.5,-168.5 584.5,-187.5 643.5,-187.5 643.5,-168.5 584.5,-168.5"/>
<text text-anchor="middle" x="614" y="-175.5" font-family="Helvetica,sans-Serif" font-size="10.00">fplll/bkz.h</text>
</a>
</g>
</g>
<!-- Node0&#45;&gt;Node1 -->
<g id="edge1" class="edge"><title>Node0&#45;&gt;Node1</title>
<path fill="none" stroke="midnightblue" d="M652.706,-217.002C642.959,-207.433 630.947,-195.639 622.913,-187.751"/>
<polygon fill="midnightblue" stroke="midnightblue" points="650.33,-219.575 659.918,-224.083 655.234,-214.58 650.33,-219.575"/>
</g>
<!-- Node2 -->
<g id="node3" class="node"><title>Node2</title>
<g id="a_node3"><a xlink:href="bkz_8cpp.html" target="_top" xlink:title="fplll/bkz.cpp">
<polygon fill="white" stroke="black" points="503.5,-112.5 503.5,-131.5 572.5,-131.5 572.5,-112.5 503.5,-112.5"/>
<text text-anchor="middle" x="538" y="-119.5" font-family="Helvetica,sans-Serif" font-size="10.00">fplll/bkz.cpp</text>
</a>
</g>
</g>
<!-- Node0&#45;&gt;Node2 -->
<g id="edge15" class="edge"><title>Node0&#45;&gt;Node2</title>
<path fill="none" stroke="midnightblue" d="M631.695,-220.832C613.358,-213.479 591.853,-202.657 576,-188 558.34,-171.672 546.435,-145.236 541.136,-131.658"/>
<polygon fill="midnightblue" stroke="midnightblue" points="630.633,-224.173 641.224,-224.463 633.126,-217.632 630.633,-224.173"/>
</g>
<!-- Node15 -->
<g id="node16" class="node"><title>Node15</title>
<g id="a_node16"><a xlink:href="enumerate_8cpp.html" target="_top" xlink:title="fplll/enum/enumerate.cpp">
<polygon fill="white" stroke="black" points="662,-168.5 662,-187.5 788,-187.5 788,-168.5 662,-168.5"/>
<text text-anchor="middle" x="725" y="-175.5" font-family="Helvetica,sans-Serif" font-size="10.00">fplll/enum/enumerate.cpp</text>
</a>
</g>
</g>
<!-- Node0&#45;&gt;Node15 -->
<g id="edge16" class="edge"><title>Node0&#45;&gt;Node15</title>
<path fill="none" stroke="midnightblue" d="M685.33,-217.253C695.265,-207.673 707.588,-195.791 715.839,-187.834"/>
<polygon fill="midnightblue" stroke="midnightblue" points="682.766,-214.863 677.997,-224.324 687.625,-219.902 682.766,-214.863"/>
</g>
<!-- Node16 -->
<g id="node17" class="node"><title>Node16</title>
<g id="a_node17"><a xlink:href="svpcvp_8cpp.html" target="_top" xlink:title="fplll/svpcvp.cpp">
<polygon fill="white" stroke="black" points="978.5,-112.5 978.5,-131.5 1063.5,-131.5 1063.5,-112.5 978.5,-112.5"/>
<text text-anchor="middle" x="1021" y="-119.5" font-family="Helvetica,sans-Serif" font-size="10.00">fplll/svpcvp.cpp</text>
</a>
</g>
</g>
<!-- Node0&#45;&gt;Node16 -->
<g id="edge17" class="edge"><title>Node0&#45;&gt;Node16</title>
<path fill="none" stroke="midnightblue" d="M706.19,-221.378C777.227,-199.179 930.721,-151.212 993.447,-131.61"/>
<polygon fill="midnightblue" stroke="midnightblue" points="704.829,-218.137 696.328,-224.46 706.917,-224.818 704.829,-218.137"/>
</g>
<!-- Node1&#45;&gt;Node2 -->
<g id="edge2" class="edge"><title>Node1&#45;&gt;Node2</title>
<path fill="none" stroke="midnightblue" d="M593.424,-162.38C579.688,-152.62 562.075,-140.106 550.433,-131.834"/>
<polygon fill="midnightblue" stroke="midnightblue" points="591.61,-165.385 601.789,-168.324 595.665,-159.679 591.61,-165.385"/>
</g>
<!-- Node3 -->
<g id="node4" class="node"><title>Node3</title>
<g id="a_node4"><a xlink:href="fplll_8h.html" target="_top" xlink:title="fplll/fplll.h">
<polygon fill="white" stroke="black" points="591,-112.5 591,-131.5 649,-131.5 649,-112.5 591,-112.5"/>
<text text-anchor="middle" x="620" y="-119.5" font-family="Helvetica,sans-Serif" font-size="10.00">fplll/fplll.h</text>
</a>
</g>
</g>
<!-- Node1&#45;&gt;Node3 -->
<g id="edge3" class="edge"><title>Node1&#45;&gt;Node3</title>
<path fill="none" stroke="midnightblue" d="M616.1,-158.101C617.096,-149.136 618.238,-138.858 619.028,-131.751"/>
<polygon fill="midnightblue" stroke="midnightblue" points="612.617,-157.758 614.991,-168.083 619.574,-158.531 612.617,-157.758"/>
</g>
<!-- Node4 -->
<g id="node5" class="node"><title>Node4</title>
<g id="a_node5"><a xlink:href="fplll_8cpp.html" target="_top" xlink:title="fplll/fplll.cpp">
<polygon fill="white" stroke="black" points="1050,-56.5 1050,-75.5 1118,-75.5 1118,-56.5 1050,-56.5"/>
<text text-anchor="middle" x="1084" y="-63.5" font-family="Helvetica,sans-Serif" font-size="10.00">fplll/fplll.cpp</text>
</a>
</g>
</g>
<!-- Node3&#45;&gt;Node4 -->
<g id="edge4" class="edge"><title>Node3&#45;&gt;Node4</title>
<path fill="none" stroke="midnightblue" d="M659.578,-118.096C734.387,-112.313 901.55,-97.9901 1041,-76 1043.86,-75.5485 1046.82,-75.0328 1049.79,-74.4818"/>
<polygon fill="midnightblue" stroke="midnightblue" points="658.929,-114.635 649.225,-118.887 659.463,-121.615 658.929,-114.635"/>
</g>
<!-- Node5 -->
<g id="node6" class="node"><title>Node5</title>
<g id="a_node6"><a xlink:href="main_8h.html" target="_top" xlink:title="fplll/main.h">
<polygon fill="white" stroke="black" points="5,-56.5 5,-75.5 69,-75.5 69,-56.5 5,-56.5"/>
<text text-anchor="middle" x="37" y="-63.5" font-family="Helvetica,sans-Serif" font-size="10.00">fplll/main.h</text>
</a>
</g>
</g>
<!-- Node3&#45;&gt;Node5 -->
<g id="edge5" class="edge"><title>Node3&#45;&gt;Node5</title>
<path fill="none" stroke="midnightblue" d="M580.608,-112.031C358.231,-78.8814 297,-107.688 78,-76 75.115,-75.5826 72.1306,-75.0758 69.1483,-74.5179"/>
<polygon fill="midnightblue" stroke="midnightblue" points="580.222,-115.512 590.634,-113.551 581.271,-108.591 580.222,-115.512"/>
</g>
<!-- Node7 -->
<g id="node8" class="node"><title>Node7</title>
<g id="a_node8"><a xlink:href="sieve__main_8cpp.html" target="_top" xlink:title="fplll/sieve/sieve_main.cpp">
<polygon fill="white" stroke="black" points="87.5,-56.5 87.5,-75.5 216.5,-75.5 216.5,-56.5 87.5,-56.5"/>
<text text-anchor="middle" x="152" y="-63.5" font-family="Helvetica,sans-Serif" font-size="10.00">fplll/sieve/sieve_main.cpp</text>
</a>
</g>
</g>
<!-- Node3&#45;&gt;Node7 -->
<g id="edge7" class="edge"><title>Node3&#45;&gt;Node7</title>
<path fill="none" stroke="midnightblue" d="M580.596,-111.959C423.439,-85.934 380.811,-93.2399 226,-76 222.913,-75.6562 219.754,-75.2978 216.565,-74.9305"/>
<polygon fill="midnightblue" stroke="midnightblue" points="580.179,-115.437 590.62,-113.638 581.335,-108.534 580.179,-115.437"/>
</g>
<!-- Node8 -->
<g id="node9" class="node"><title>Node8</title>
<g id="a_node9"><a xlink:href="test__bkz_8cpp.html" target="_top" xlink:title="tests/test_bkz.cpp">
<polygon fill="white" stroke="black" points="235,-56.5 235,-75.5 333,-75.5 333,-56.5 235,-56.5"/>
<text text-anchor="middle" x="284" y="-63.5" font-family="Helvetica,sans-Serif" font-size="10.00">tests/test_bkz.cpp</text>
</a>
</g>
</g>
<!-- Node3&#45;&gt;Node8 -->
<g id="edge8" class="edge"><title>Node3&#45;&gt;Node8</title>
<path fill="none" stroke="midnightblue" d="M580.751,-111.884C474.418,-91.5805 445.502,-91.7929 342,-76 339.079,-75.5543 336.075,-75.094 333.045,-74.6283"/>
<polygon fill="midnightblue" stroke="midnightblue" points="580.113,-115.325 590.594,-113.779 581.436,-108.451 580.113,-115.325"/>
</g>
<!-- Node9 -->
<g id="node10" class="node"><title>Node9</title>
<g id="a_node10"><a xlink:href="test__cvp_8cpp.html" target="_top" xlink:title="tests/test_cvp.cpp">
<polygon fill="white" stroke="black" points="351,-56.5 351,-75.5 449,-75.5 449,-56.5 351,-56.5"/>
<text text-anchor="middle" x="400" y="-63.5" font-family="Helvetica,sans-Serif" font-size="10.00">tests/test_cvp.cpp</text>
</a>
</g>
</g>
<!-- Node3&#45;&gt;Node9 -->
<g id="edge9" class="edge"><title>Node3&#45;&gt;Node9</title>
<path fill="none" stroke="midnightblue" d="M581.036,-111.436C539.571,-101.258 474.574,-85.3045 434.781,-75.5371"/>
<polygon fill="midnightblue" stroke="midnightblue" points="580.24,-114.844 590.786,-113.829 581.908,-108.046 580.24,-114.844"/>
</g>
<!-- Node10 -->
<g id="node11" class="node"><title>Node10</title>
<g id="a_node11"><a xlink:href="test__lll_8cpp.html" target="_top" xlink:title="tests/test_lll.cpp">
<polygon fill="white" stroke="black" points="467.5,-56.5 467.5,-75.5 556.5,-75.5 556.5,-56.5 467.5,-56.5"/>
<text text-anchor="middle" x="512" y="-63.5" font-family="Helvetica,sans-Serif" font-size="10.00">tests/test_lll.cpp</text>
</a>
</g>
</g>
<!-- Node3&#45;&gt;Node10 -->
<g id="edge10" class="edge"><title>Node3&#45;&gt;Node10</title>
<path fill="none" stroke="midnightblue" d="M593.452,-107.726C573.454,-97.7271 546.613,-84.3065 529.309,-75.6545"/>
<polygon fill="midnightblue" stroke="midnightblue" points="592.138,-110.982 602.648,-112.324 595.269,-104.721 592.138,-110.982"/>
</g>
<!-- Node11 -->
<g id="node12" class="node"><title>Node11</title>
<g id="a_node12"><a xlink:href="test__nr_8cpp.html" target="_top" xlink:title="tests/test_nr.cpp">
<polygon fill="white" stroke="black" points="575,-56.5 575,-75.5 665,-75.5 665,-56.5 575,-56.5"/>
<text text-anchor="middle" x="620" y="-63.5" font-family="Helvetica,sans-Serif" font-size="10.00">tests/test_nr.cpp</text>
</a>
</g>
</g>
<!-- Node3&#45;&gt;Node11 -->
<g id="edge11" class="edge"><title>Node3&#45;&gt;Node11</title>
<path fill="none" stroke="midnightblue" d="M620,-101.805C620,-92.9102 620,-82.7798 620,-75.7511"/>
<polygon fill="midnightblue" stroke="midnightblue" points="616.5,-102.083 620,-112.083 623.5,-102.083 616.5,-102.083"/>
</g>
<!-- Node12 -->
<g id="node13" class="node"><title>Node12</title>
<g id="a_node13"><a xlink:href="test__pruner_8cpp.html" target="_top" xlink:title="tests/test_pruner.cpp">
<polygon fill="white" stroke="black" points="683.5,-56.5 683.5,-75.5 792.5,-75.5 792.5,-56.5 683.5,-56.5"/>
<text text-anchor="middle" x="738" y="-63.5" font-family="Helvetica,sans-Serif" font-size="10.00">tests/test_pruner.cpp</text>
</a>
</g>
</g>
<!-- Node3&#45;&gt;Node12 -->
<g id="edge12" class="edge"><title>Node3&#45;&gt;Node12</title>
<path fill="none" stroke="midnightblue" d="M647.9,-108.232C669.973,-98.1312 700.176,-84.3091 719.39,-75.5164"/>
<polygon fill="midnightblue" stroke="midnightblue" points="646.334,-105.1 638.697,-112.444 649.247,-111.465 646.334,-105.1"/>
</g>
<!-- Node13 -->
<g id="node14" class="node"><title>Node13</title>
<g id="a_node14"><a xlink:href="test__sieve_8cpp.html" target="_top" xlink:title="tests/test_sieve.cpp">
<polygon fill="white" stroke="black" points="810.5,-56.5 810.5,-75.5 915.5,-75.5 915.5,-56.5 810.5,-56.5"/>
<text text-anchor="middle" x="863" y="-63.5" font-family="Helvetica,sans-Serif" font-size="10.00">tests/test_sieve.cpp</text>
</a>
</g>
</g>
<!-- Node3&#45;&gt;Node13 -->
<g id="edge13" class="edge"><title>Node3&#45;&gt;Node13</title>
<path fill="none" stroke="midnightblue" d="M659.101,-112.311C704.559,-102.209 779.118,-85.6404 824.373,-75.5837"/>
<polygon fill="midnightblue" stroke="midnightblue" points="658.314,-108.9 649.311,-114.486 659.833,-115.734 658.314,-108.9"/>
</g>
<!-- Node14 -->
<g id="node15" class="node"><title>Node14</title>
<g id="a_node15"><a xlink:href="test__svp_8cpp.html" target="_top" xlink:title="tests/test_svp.cpp">
<polygon fill="white" stroke="black" points="934,-56.5 934,-75.5 1032,-75.5 1032,-56.5 934,-56.5"/>
<text text-anchor="middle" x="983" y="-63.5" font-family="Helvetica,sans-Serif" font-size="10.00">tests/test_svp.cpp</text>
</a>
</g>
</g>
<!-- Node3&#45;&gt;Node14 -->
<g id="edge14" class="edge"><title>Node3&#45;&gt;Node14</title>
<path fill="none" stroke="midnightblue" d="M659.225,-115.308C717.305,-106.859 829.593,-90.4403 925,-76 927.922,-75.5578 930.926,-75.1002 933.956,-74.6366"/>
<polygon fill="midnightblue" stroke="midnightblue" points="658.42,-111.888 649.028,-116.791 659.427,-118.815 658.42,-111.888"/>
</g>
<!-- Node6 -->
<g id="node7" class="node"><title>Node6</title>
<g id="a_node7"><a xlink:href="main_8cpp.html" target="_top" xlink:title="fplll/main.cpp">
<polygon fill="white" stroke="black" points="0,-0.5 0,-19.5 74,-19.5 74,-0.5 0,-0.5"/>
<text text-anchor="middle" x="37" y="-7.5" font-family="Helvetica,sans-Serif" font-size="10.00">fplll/main.cpp</text>
</a>
</g>
</g>
<!-- Node5&#45;&gt;Node6 -->
<g id="edge6" class="edge"><title>Node5&#45;&gt;Node6</title>
<path fill="none" stroke="midnightblue" d="M37,-45.8045C37,-36.9102 37,-26.7798 37,-19.7511"/>
<polygon fill="midnightblue" stroke="midnightblue" points="33.5001,-46.083 37,-56.083 40.5001,-46.083 33.5001,-46.083"/>
</g>
<!-- Node16&#45;&gt;Node4 -->
<g id="edge18" class="edge"><title>Node16&#45;&gt;Node4</title>
<path fill="none" stroke="midnightblue" d="M1039.04,-105.537C1050.27,-95.9087 1064.32,-83.8694 1073.69,-75.8339"/>
<polygon fill="midnightblue" stroke="midnightblue" points="1036.44,-103.159 1031.12,-112.324 1040.99,-108.473 1036.44,-103.159"/>
</g>
</g>
</svg>
