<?xml version="1.0" encoding="UTF-8" standalone="no"?>
<!DOCTYPE svg PUBLIC "-//W3C//DTD SVG 1.1//EN"
 "http://www.w3.org/Graphics/SVG/1.1/DTD/svg11.dtd">
<!-- Generated by graphviz version 2.43.0 (0)
 -->
<!-- Title: fplll/enum/enumerate_ext.h Pages: 1 -->
<svg width="1915pt" height="363pt"
 viewBox="0.00 0.00 1915.00 363.00" xmlns="http://www.w3.org/2000/svg" xmlns:xlink="http://www.w3.org/1999/xlink">
<g id="graph0" class="graph" transform="scale(1 1) rotate(0) translate(4 359)">
<title>fplll/enum/enumerate_ext.h</title>
<polygon fill="white" stroke="transparent" points="-4,4 -4,-359 1911,-359 1911,4 -4,4"/>
<!-- Node1 -->
<g id="node1" class="node">
<title>Node1</title>
<g id="a_node1"><a xlink:title=" ">
<polygon fill="#bfbfbf" stroke="black" points="910.5,-324.5 910.5,-354.5 1017.5,-354.5 1017.5,-324.5 910.5,-324.5"/>
<text text-anchor="start" x="918.5" y="-342.5" font-family="Helvetica,sans-Serif" font-size="10.00">fplll/enum/enumerate</text>
<text text-anchor="middle" x="964" y="-331.5" font-family="Helvetica,sans-Serif" font-size="10.00">_ext.h</text>
</a>
</g>
</g>
<!-- Node2 -->
<g id="node2" class="node">
<title>Node2</title>
<g id="a_node2"><a xlink:href="fplll__types_8h.html" target="_top" xlink:title=" ">
<polygon fill="white" stroke="black" points="731,-257.5 731,-287.5 823,-287.5 823,-257.5 731,-257.5"/>
<text text-anchor="start" x="739" y="-275.5" font-family="Helvetica,sans-Serif" font-size="10.00">fplll/enum&#45;parallel</text>
<text text-anchor="middle" x="777" y="-264.5" font-family="Helvetica,sans-Serif" font-size="10.00">/fplll_types.h</text>
</a>
</g>
</g>
<!-- Node1&#45;&gt;Node2 -->
<g id="edge1" class="edge">
<title>Node1&#45;&gt;Node2</title>
<path fill="none" stroke="midnightblue" d="M913.92,-321.09C883.73,-310.6 845.78,-297.41 817.5,-287.58"/>
<polygon fill="midnightblue" stroke="midnightblue" points="912.83,-324.42 923.42,-324.4 915.13,-317.81 912.83,-324.42"/>
</g>
<!-- Node6 -->
<g id="node6" class="node">
<title>Node6</title>
<g id="a_node6"><a xlink:href="enumerate_8h.html" target="_top" xlink:title=" ">
<polygon fill="white" stroke="black" points="906,-263 906,-282 1022,-282 1022,-263 906,-263"/>
<text text-anchor="middle" x="964" y="-270" font-family="Helvetica,sans-Serif" font-size="10.00">fplll/enum/enumerate.h</text>
</a>
</g>
</g>
<!-- Node1&#45;&gt;Node6 -->
<g id="edge7" class="edge">
<title>Node1&#45;&gt;Node6</title>
<path fill="none" stroke="midnightblue" d="M964,-314.25C964,-303.02 964,-290.38 964,-282.19"/>
<polygon fill="midnightblue" stroke="midnightblue" points="960.5,-314.4 964,-324.4 967.5,-314.4 960.5,-314.4"/>
</g>
<!-- Node38 -->
<g id="node38" class="node">
<title>Node38</title>
<g id="a_node38"><a xlink:href="enumerate__ext_8cpp.html" target="_top" xlink:title=" ">
<polygon fill="white" stroke="black" points="1040.5,-257.5 1040.5,-287.5 1147.5,-287.5 1147.5,-257.5 1040.5,-257.5"/>
<text text-anchor="start" x="1048.5" y="-275.5" font-family="Helvetica,sans-Serif" font-size="10.00">fplll/enum/enumerate</text>
<text text-anchor="middle" x="1094" y="-264.5" font-family="Helvetica,sans-Serif" font-size="10.00">_ext.cpp</text>
</a>
</g>
</g>
<!-- Node1&#45;&gt;Node38 -->
<g id="edge56" class="edge">
<title>Node1&#45;&gt;Node38</title>
<path fill="none" stroke="midnightblue" d="M1001.29,-319.85C1021.85,-309.58 1046.95,-297.03 1065.85,-287.58"/>
<polygon fill="midnightblue" stroke="midnightblue" points="999.59,-316.79 992.21,-324.4 1002.72,-323.05 999.59,-316.79"/>
</g>
<!-- Node3 -->
<g id="node3" class="node">
<title>Node3</title>
<g id="a_node3"><a xlink:href="enumeration_8h.html" target="_top" xlink:title=" ">
<polygon fill="white" stroke="black" points="676,-190.5 676,-220.5 768,-220.5 768,-190.5 676,-190.5"/>
<text text-anchor="start" x="684" y="-208.5" font-family="Helvetica,sans-Serif" font-size="10.00">fplll/enum&#45;parallel</text>
<text text-anchor="middle" x="722" y="-197.5" font-family="Helvetica,sans-Serif" font-size="10.00">/enumeration.h</text>
</a>
</g>
</g>
<!-- Node2&#45;&gt;Node3 -->
<g id="edge2" class="edge">
<title>Node2&#45;&gt;Node3</title>
<path fill="none" stroke="midnightblue" d="M758.58,-249.74C750.45,-240.12 741.11,-229.09 733.91,-220.58"/>
<polygon fill="midnightblue" stroke="midnightblue" points="755.93,-252.02 765.07,-257.4 761.28,-247.5 755.93,-252.02"/>
</g>
<!-- Node4 -->
<g id="node4" class="node">
<title>Node4</title>
<g id="a_node4"><a xlink:href="enumlib_8cpp.html" target="_top" xlink:title=" ">
<polygon fill="white" stroke="black" points="676,-123.5 676,-153.5 768,-153.5 768,-123.5 676,-123.5"/>
<text text-anchor="start" x="684" y="-141.5" font-family="Helvetica,sans-Serif" font-size="10.00">fplll/enum&#45;parallel</text>
<text text-anchor="middle" x="722" y="-130.5" font-family="Helvetica,sans-Serif" font-size="10.00">/enumlib.cpp</text>
</a>
</g>
</g>
<!-- Node2&#45;&gt;Node4 -->
<g id="edge4" class="edge">
<title>Node2&#45;&gt;Node4</title>
<path fill="none" stroke="midnightblue" d="M721.2,-259.43C700.54,-251.96 679.19,-240.01 667,-221 651.61,-197 679.71,-169.63 701.1,-153.5"/>
<polygon fill="midnightblue" stroke="midnightblue" points="720.33,-262.83 730.92,-262.65 722.53,-256.18 720.33,-262.83"/>
</g>
<!-- Node5 -->
<g id="node5" class="node">
<title>Node5</title>
<g id="a_node5"><a xlink:href="enumlib_8h.html" target="_top" xlink:title=" ">
<polygon fill="white" stroke="black" points="786,-190.5 786,-220.5 878,-220.5 878,-190.5 786,-190.5"/>
<text text-anchor="start" x="794" y="-208.5" font-family="Helvetica,sans-Serif" font-size="10.00">fplll/enum&#45;parallel</text>
<text text-anchor="middle" x="832" y="-197.5" font-family="Helvetica,sans-Serif" font-size="10.00">/enumlib.h</text>
</a>
</g>
</g>
<!-- Node2&#45;&gt;Node5 -->
<g id="edge5" class="edge">
<title>Node2&#45;&gt;Node5</title>
<path fill="none" stroke="midnightblue" d="M795.42,-249.74C803.55,-240.12 812.89,-229.09 820.09,-220.58"/>
<polygon fill="midnightblue" stroke="midnightblue" points="792.72,-247.5 788.93,-257.4 798.07,-252.02 792.72,-247.5"/>
</g>
<!-- Node3&#45;&gt;Node4 -->
<g id="edge3" class="edge">
<title>Node3&#45;&gt;Node4</title>
<path fill="none" stroke="midnightblue" d="M722,-180.11C722,-171.15 722,-161.32 722,-153.58"/>
<polygon fill="midnightblue" stroke="midnightblue" points="718.5,-180.4 722,-190.4 725.5,-180.4 718.5,-180.4"/>
</g>
<!-- Node5&#45;&gt;Node4 -->
<g id="edge6" class="edge">
<title>Node5&#45;&gt;Node4</title>
<path fill="none" stroke="midnightblue" d="M799.5,-185.3C782.29,-175.12 761.52,-162.85 745.82,-153.58"/>
<polygon fill="midnightblue" stroke="midnightblue" points="797.74,-188.32 808.13,-190.4 801.3,-182.3 797.74,-188.32"/>
</g>
<!-- Node7 -->
<g id="node7" class="node">
<title>Node7</title>
<g id="a_node7"><a xlink:href="bkz_8cpp.html" target="_top" xlink:title=" ">
<polygon fill="white" stroke="black" points="1101.5,-129 1101.5,-148 1170.5,-148 1170.5,-129 1101.5,-129"/>
<text text-anchor="middle" x="1136" y="-136" font-family="Helvetica,sans-Serif" font-size="10.00">fplll/bkz.cpp</text>
</a>
</g>
</g>
<!-- Node6&#45;&gt;Node7 -->
<g id="edge8" class="edge">
<title>Node6&#45;&gt;Node7</title>
<path fill="none" stroke="midnightblue" d="M1008.87,-260.56C1061.65,-247.48 1142.71,-226.64 1147,-221 1163.61,-199.19 1149.12,-164.25 1140.83,-148.14"/>
<polygon fill="midnightblue" stroke="midnightblue" points="1007.91,-257.19 999.04,-262.99 1009.59,-263.99 1007.91,-257.19"/>
</g>
<!-- Node8 -->
<g id="node8" class="node">
<title>Node8</title>
<g id="a_node8"><a xlink:href="bkz_8h.html" target="_top" xlink:title=" ">
<polygon fill="white" stroke="black" points="934.5,-196 934.5,-215 993.5,-215 993.5,-196 934.5,-196"/>
<text text-anchor="middle" x="964" y="-203" font-family="Helvetica,sans-Serif" font-size="10.00">fplll/bkz.h</text>
</a>
</g>
</g>
<!-- Node6&#45;&gt;Node8 -->
<g id="edge9" class="edge">
<title>Node6&#45;&gt;Node8</title>
<path fill="none" stroke="midnightblue" d="M964,-252.54C964,-240.17 964,-224.62 964,-215.13"/>
<polygon fill="midnightblue" stroke="midnightblue" points="960.5,-252.73 964,-262.73 967.5,-252.73 960.5,-252.73"/>
</g>
<!-- Node36 -->
<g id="node36" class="node">
<title>Node36</title>
<g id="a_node36"><a xlink:href="enumerate_8cpp.html" target="_top" xlink:title=" ">
<polygon fill="white" stroke="black" points="1012,-196 1012,-215 1138,-215 1138,-196 1012,-196"/>
<text text-anchor="middle" x="1075" y="-203" font-family="Helvetica,sans-Serif" font-size="10.00">fplll/enum/enumerate.cpp</text>
</a>
</g>
</g>
<!-- Node6&#45;&gt;Node36 -->
<g id="edge53" class="edge">
<title>Node6&#45;&gt;Node36</title>
<path fill="none" stroke="midnightblue" d="M987.71,-257.62C1009.7,-244.74 1041.74,-225.98 1060.27,-215.13"/>
<polygon fill="midnightblue" stroke="midnightblue" points="985.83,-254.66 978.97,-262.73 989.37,-260.7 985.83,-254.66"/>
</g>
<!-- Node37 -->
<g id="node37" class="node">
<title>Node37</title>
<g id="a_node37"><a xlink:href="svpcvp_8cpp.html" target="_top" xlink:title=" ">
<polygon fill="white" stroke="black" points="808.5,-129 808.5,-148 893.5,-148 893.5,-129 808.5,-129"/>
<text text-anchor="middle" x="851" y="-136" font-family="Helvetica,sans-Serif" font-size="10.00">fplll/svpcvp.cpp</text>
</a>
</g>
</g>
<!-- Node6&#45;&gt;Node37 -->
<g id="edge54" class="edge">
<title>Node6&#45;&gt;Node37</title>
<path fill="none" stroke="midnightblue" d="M949.9,-255.03C925.63,-226.67 876.76,-169.6 858.29,-148.02"/>
<polygon fill="midnightblue" stroke="midnightblue" points="947.42,-257.52 956.59,-262.84 952.74,-252.97 947.42,-257.52"/>
</g>
<!-- Node8&#45;&gt;Node7 -->
<g id="edge10" class="edge">
<title>Node8&#45;&gt;Node7</title>
<path fill="none" stroke="midnightblue" d="M996.36,-192.27C1030.5,-179.37 1083.41,-159.38 1113.34,-148.06"/>
<polygon fill="midnightblue" stroke="midnightblue" points="994.96,-189.06 986.84,-195.87 997.43,-195.61 994.96,-189.06"/>
</g>
<!-- Node9 -->
<g id="node9" class="node">
<title>Node9</title>
<g id="a_node9"><a xlink:href="fplll_8h.html" target="_top" xlink:title=" ">
<polygon fill="white" stroke="black" points="965,-129 965,-148 1023,-148 1023,-129 965,-129"/>
<text text-anchor="middle" x="994" y="-136" font-family="Helvetica,sans-Serif" font-size="10.00">fplll/fplll.h</text>
</a>
</g>
</g>
<!-- Node8&#45;&gt;Node9 -->
<g id="edge11" class="edge">
<title>Node8&#45;&gt;Node9</title>
<path fill="none" stroke="midnightblue" d="M972.4,-186.29C978.17,-173.81 985.55,-157.81 990.02,-148.13"/>
<polygon fill="midnightblue" stroke="midnightblue" points="969.06,-185.19 968.05,-195.73 975.41,-188.12 969.06,-185.19"/>
</g>
<!-- Node10 -->
<g id="node10" class="node">
<title>Node10</title>
<g id="a_node10"><a xlink:href="fplll_8cpp.html" target="_top" xlink:title=" ">
<polygon fill="white" stroke="black" points="0,-62 0,-81 68,-81 68,-62 0,-62"/>
<text text-anchor="middle" x="34" y="-69" font-family="Helvetica,sans-Serif" font-size="10.00">fplll/fplll.cpp</text>
</a>
</g>
</g>
<!-- Node9&#45;&gt;Node10 -->
<g id="edge12" class="edge">
<title>Node9&#45;&gt;Node10</title>
<path fill="none" stroke="midnightblue" d="M954.49,-130.27C938.27,-127.57 919.29,-124.73 902,-123 536.82,-86.37 437.79,-154.3 77,-87 69.87,-85.67 62.32,-83.42 55.56,-81.09"/>
<polygon fill="midnightblue" stroke="midnightblue" points="954.24,-133.78 964.69,-132.02 955.42,-126.88 954.24,-133.78"/>
</g>
<!-- Node11 -->
<g id="node11" class="node">
<title>Node11</title>
<g id="a_node11"><a xlink:href="main_8h.html" target="_top" xlink:title=" ">
<polygon fill="white" stroke="black" points="1838,-62 1838,-81 1902,-81 1902,-62 1838,-62"/>
<text text-anchor="middle" x="1870" y="-69" font-family="Helvetica,sans-Serif" font-size="10.00">fplll/main.h</text>
</a>
</g>
</g>
<!-- Node9&#45;&gt;Node11 -->
<g id="edge13" class="edge">
<title>Node9&#45;&gt;Node11</title>
<path fill="none" stroke="midnightblue" d="M1033.14,-130.81C1051.04,-127.98 1072.54,-124.91 1092,-123 1418.38,-90.96 1507.23,-150.34 1829,-87 1835.82,-85.66 1843.03,-83.41 1849.47,-81.08"/>
<polygon fill="midnightblue" stroke="midnightblue" points="1032.38,-127.39 1023.07,-132.44 1033.5,-134.3 1032.38,-127.39"/>
</g>
<!-- Node13 -->
<g id="node13" class="node">
<title>Node13</title>
<g id="a_node13"><a xlink:href="pruner_8cpp.html" target="_top" xlink:title=" ">
<polygon fill="white" stroke="black" points="401,-0.5 401,-19.5 511,-19.5 511,-0.5 401,-0.5"/>
<text text-anchor="middle" x="456" y="-7.5" font-family="Helvetica,sans-Serif" font-size="10.00">fplll/pruner/pruner.cpp</text>
</a>
</g>
</g>
<!-- Node9&#45;&gt;Node13 -->
<g id="edge15" class="edge">
<title>Node9&#45;&gt;Node13</title>
<path fill="none" stroke="midnightblue" d="M954.37,-131.2C938.14,-128.64 919.17,-125.66 902,-123 796.71,-106.71 762.39,-130.2 665,-87 645.08,-78.16 646.42,-65.89 627,-56 590.61,-37.48 545.88,-26.06 511.29,-19.36"/>
<polygon fill="midnightblue" stroke="midnightblue" points="954.16,-134.72 964.59,-132.82 955.26,-127.8 954.16,-134.72"/>
</g>
<!-- Node14 -->
<g id="node14" class="node">
<title>Node14</title>
<g id="a_node14"><a xlink:href="pruner__cost_8cpp.html" target="_top" xlink:title=" ">
<polygon fill="white" stroke="black" points="674,-56.5 674,-86.5 766,-86.5 766,-56.5 674,-56.5"/>
<text text-anchor="start" x="682" y="-74.5" font-family="Helvetica,sans-Serif" font-size="10.00">fplll/pruner/pruner</text>
<text text-anchor="middle" x="720" y="-63.5" font-family="Helvetica,sans-Serif" font-size="10.00">_cost.cpp</text>
</a>
</g>
</g>
<!-- Node9&#45;&gt;Node14 -->
<g id="edge16" class="edge">
<title>Node9&#45;&gt;Node14</title>
<path fill="none" stroke="midnightblue" d="M954.92,-128.87C911.04,-119.1 837.77,-102.51 775,-87 772.12,-86.29 769.17,-85.55 766.19,-84.79"/>
<polygon fill="midnightblue" stroke="midnightblue" points="954.36,-132.34 964.88,-131.09 955.88,-125.5 954.36,-132.34"/>
</g>
<!-- Node15 -->
<g id="node15" class="node">
<title>Node15</title>
<g id="a_node15"><a xlink:href="pruner__optimize_8cpp.html" target="_top" xlink:title=" ">
<polygon fill="white" stroke="black" points="86,-56.5 86,-86.5 178,-86.5 178,-56.5 86,-56.5"/>
<text text-anchor="start" x="94" y="-74.5" font-family="Helvetica,sans-Serif" font-size="10.00">fplll/pruner/pruner</text>
<text text-anchor="middle" x="132" y="-63.5" font-family="Helvetica,sans-Serif" font-size="10.00">_optimize.cpp</text>
</a>
</g>
</g>
<!-- Node9&#45;&gt;Node15 -->
<g id="edge18" class="edge">
<title>Node9&#45;&gt;Node15</title>
<path fill="none" stroke="midnightblue" d="M954.48,-130.33C938.27,-127.63 919.28,-124.79 902,-123 585.52,-90.19 501.41,-135.82 187,-87 184.07,-86.55 181.08,-86 178.07,-85.39"/>
<polygon fill="midnightblue" stroke="midnightblue" points="954.24,-133.84 964.69,-132.07 955.42,-126.94 954.24,-133.84"/>
</g>
<!-- Node16 -->
<g id="node16" class="node">
<title>Node16</title>
<g id="a_node16"><a xlink:href="pruner__optimize__tc_8cpp.html" target="_top" xlink:title=" ">
<polygon fill="white" stroke="black" points="196,-56.5 196,-86.5 288,-86.5 288,-56.5 196,-56.5"/>
<text text-anchor="start" x="204" y="-74.5" font-family="Helvetica,sans-Serif" font-size="10.00">fplll/pruner/pruner</text>
<text text-anchor="middle" x="242" y="-63.5" font-family="Helvetica,sans-Serif" font-size="10.00">_optimize_tc.cpp</text>
</a>
</g>
</g>
<!-- Node9&#45;&gt;Node16 -->
<g id="edge20" class="edge">
<title>Node9&#45;&gt;Node16</title>
<path fill="none" stroke="midnightblue" d="M954.47,-130.41C938.26,-127.73 919.27,-124.87 902,-123 634.2,-94 562.98,-129.54 297,-87 294.07,-86.53 291.08,-85.97 288.07,-85.36"/>
<polygon fill="midnightblue" stroke="midnightblue" points="954.24,-133.92 964.68,-132.14 955.4,-127.02 954.24,-133.92"/>
</g>
<!-- Node17 -->
<g id="node17" class="node">
<title>Node17</title>
<g id="a_node17"><a xlink:href="pruner__optimize__tp_8cpp.html" target="_top" xlink:title=" ">
<polygon fill="white" stroke="black" points="306,-56.5 306,-86.5 398,-86.5 398,-56.5 306,-56.5"/>
<text text-anchor="start" x="314" y="-74.5" font-family="Helvetica,sans-Serif" font-size="10.00">fplll/pruner/pruner</text>
<text text-anchor="middle" x="352" y="-63.5" font-family="Helvetica,sans-Serif" font-size="10.00">_optimize_tp.cpp</text>
</a>
</g>
</g>
<!-- Node9&#45;&gt;Node17 -->
<g id="edge22" class="edge">
<title>Node9&#45;&gt;Node17</title>
<path fill="none" stroke="midnightblue" d="M954.46,-130.52C938.24,-127.86 919.26,-124.98 902,-123 682.86,-97.81 624.58,-123.27 407,-87 404.08,-86.51 401.09,-85.94 398.08,-85.31"/>
<polygon fill="midnightblue" stroke="midnightblue" points="954.23,-134.03 964.67,-132.24 955.38,-127.13 954.23,-134.03"/>
</g>
<!-- Node18 -->
<g id="node18" class="node">
<title>Node18</title>
<g id="a_node18"><a xlink:href="pruner__prob_8cpp.html" target="_top" xlink:title=" ">
<polygon fill="white" stroke="black" points="416,-56.5 416,-86.5 508,-86.5 508,-56.5 416,-56.5"/>
<text text-anchor="start" x="424" y="-74.5" font-family="Helvetica,sans-Serif" font-size="10.00">fplll/pruner/pruner</text>
<text text-anchor="middle" x="462" y="-63.5" font-family="Helvetica,sans-Serif" font-size="10.00">_prob.cpp</text>
</a>
</g>
</g>
<!-- Node9&#45;&gt;Node18 -->
<g id="edge24" class="edge">
<title>Node9&#45;&gt;Node18</title>
<path fill="none" stroke="midnightblue" d="M954.44,-130.7C938.22,-128.06 919.24,-125.16 902,-123 731.48,-101.61 686.22,-117.01 517,-87 514.08,-86.48 511.09,-85.89 508.09,-85.24"/>
<polygon fill="midnightblue" stroke="midnightblue" points="954.21,-134.21 964.65,-132.39 955.35,-127.31 954.21,-134.21"/>
</g>
<!-- Node19 -->
<g id="node19" class="node">
<title>Node19</title>
<g id="a_node19"><a xlink:href="pruner__util_8cpp.html" target="_top" xlink:title=" ">
<polygon fill="white" stroke="black" points="526,-56.5 526,-86.5 618,-86.5 618,-56.5 526,-56.5"/>
<text text-anchor="start" x="534" y="-74.5" font-family="Helvetica,sans-Serif" font-size="10.00">fplll/pruner/pruner</text>
<text text-anchor="middle" x="572" y="-63.5" font-family="Helvetica,sans-Serif" font-size="10.00">_util.cpp</text>
</a>
</g>
</g>
<!-- Node9&#45;&gt;Node19 -->
<g id="edge26" class="edge">
<title>Node9&#45;&gt;Node19</title>
<path fill="none" stroke="midnightblue" d="M954.39,-131.05C938.16,-128.46 919.19,-125.5 902,-123 782.2,-105.57 751,-109.25 632,-87 627.47,-86.15 622.77,-85.18 618.08,-84.15"/>
<polygon fill="midnightblue" stroke="midnightblue" points="954.18,-134.56 964.61,-132.69 955.29,-127.65 954.18,-134.56"/>
</g>
<!-- Node20 -->
<g id="node20" class="node">
<title>Node20</title>
<g id="a_node20"><a xlink:href="test__babai_8cpp.html" target="_top" xlink:title=" ">
<polygon fill="white" stroke="black" points="784.5,-62 784.5,-81 889.5,-81 889.5,-62 784.5,-62"/>
<text text-anchor="middle" x="837" y="-69" font-family="Helvetica,sans-Serif" font-size="10.00">tests/test_babai.cpp</text>
</a>
</g>
</g>
<!-- Node9&#45;&gt;Node20 -->
<g id="edge28" class="edge">
<title>Node9&#45;&gt;Node20</title>
<path fill="none" stroke="midnightblue" d="M963.68,-124.95C932.6,-112.08 885.07,-92.4 857.93,-81.17"/>
<polygon fill="midnightblue" stroke="midnightblue" points="962.57,-128.28 973.15,-128.87 965.25,-121.81 962.57,-128.28"/>
</g>
<!-- Node21 -->
<g id="node21" class="node">
<title>Node21</title>
<g id="a_node21"><a xlink:href="test__bkz_8cpp.html" target="_top" xlink:title=" ">
<polygon fill="white" stroke="black" points="529,-0.5 529,-19.5 627,-19.5 627,-0.5 529,-0.5"/>
<text text-anchor="middle" x="578" y="-7.5" font-family="Helvetica,sans-Serif" font-size="10.00">tests/test_bkz.cpp</text>
</a>
</g>
</g>
<!-- Node9&#45;&gt;Node21 -->
<g id="edge29" class="edge">
<title>Node9&#45;&gt;Node21</title>
<path fill="none" stroke="midnightblue" d="M975.02,-122.49C962.63,-112.59 946.18,-99.22 932,-87 916.51,-73.65 916.52,-64.67 898,-56 791.55,-6.16 752.3,-37.01 636,-20 633.08,-19.57 630.07,-19.13 627.04,-18.67"/>
<polygon fill="midnightblue" stroke="midnightblue" points="972.87,-125.25 982.87,-128.74 977.23,-119.78 972.87,-125.25"/>
</g>
<!-- Node22 -->
<g id="node22" class="node">
<title>Node22</title>
<g id="a_node22"><a xlink:href="test__bkz__gram_8cpp.html" target="_top" xlink:title=" ">
<polygon fill="white" stroke="black" points="645.5,-0.5 645.5,-19.5 770.5,-19.5 770.5,-0.5 645.5,-0.5"/>
<text text-anchor="middle" x="708" y="-7.5" font-family="Helvetica,sans-Serif" font-size="10.00">tests/test_bkz_gram.cpp</text>
</a>
</g>
</g>
<!-- Node9&#45;&gt;Node22 -->
<g id="edge30" class="edge">
<title>Node9&#45;&gt;Node22</title>
<path fill="none" stroke="midnightblue" d="M985.55,-119.93C975.5,-101.03 956.91,-71.59 932,-56 917.59,-46.98 821.95,-29.85 760.39,-19.52"/>
<polygon fill="midnightblue" stroke="midnightblue" points="982.48,-121.62 990.12,-128.96 988.72,-118.45 982.48,-121.62"/>
</g>
<!-- Node23 -->
<g id="node23" class="node">
<title>Node23</title>
<g id="a_node23"><a xlink:href="test__ceil_8cpp.html" target="_top" xlink:title=" ">
<polygon fill="white" stroke="black" points="1358.5,-62 1358.5,-81 1455.5,-81 1455.5,-62 1358.5,-62"/>
<text text-anchor="middle" x="1407" y="-69" font-family="Helvetica,sans-Serif" font-size="10.00">tests/test_ceil.cpp</text>
</a>
</g>
</g>
<!-- Node9&#45;&gt;Node23 -->
<g id="edge31" class="edge">
<title>Node9&#45;&gt;Node23</title>
<path fill="none" stroke="midnightblue" d="M1033.25,-131.65C1051.16,-128.99 1072.65,-125.81 1092,-123 1203.96,-106.72 1232.77,-107.71 1344,-87 1353.27,-85.27 1363.24,-83.12 1372.45,-81"/>
<polygon fill="midnightblue" stroke="midnightblue" points="1032.53,-128.22 1023.15,-133.15 1033.56,-135.14 1032.53,-128.22"/>
</g>
<!-- Node24 -->
<g id="node24" class="node">
<title>Node24</title>
<g id="a_node24"><a xlink:href="test__counter_8cpp.html" target="_top" xlink:title=" ">
<polygon fill="white" stroke="black" points="1473.5,-62 1473.5,-81 1586.5,-81 1586.5,-62 1473.5,-62"/>
<text text-anchor="middle" x="1530" y="-69" font-family="Helvetica,sans-Serif" font-size="10.00">tests/test_counter.cpp</text>
</a>
</g>
</g>
<!-- Node9&#45;&gt;Node24 -->
<g id="edge32" class="edge">
<title>Node9&#45;&gt;Node24</title>
<path fill="none" stroke="midnightblue" d="M1033.19,-131.24C1051.09,-128.5 1072.59,-125.37 1092,-123 1257.32,-102.81 1300.52,-113.18 1465,-87 1474.93,-85.42 1485.62,-83.24 1495.41,-81.05"/>
<polygon fill="midnightblue" stroke="midnightblue" points="1032.45,-127.81 1023.11,-132.8 1033.53,-134.73 1032.45,-127.81"/>
</g>
<!-- Node25 -->
<g id="node25" class="node">
<title>Node25</title>
<g id="a_node25"><a xlink:href="test__cvp_8cpp.html" target="_top" xlink:title=" ">
<polygon fill="white" stroke="black" points="789,-0.5 789,-19.5 887,-19.5 887,-0.5 789,-0.5"/>
<text text-anchor="middle" x="838" y="-7.5" font-family="Helvetica,sans-Serif" font-size="10.00">tests/test_cvp.cpp</text>
</a>
</g>
</g>
<!-- Node9&#45;&gt;Node25 -->
<g id="edge33" class="edge">
<title>Node9&#45;&gt;Node25</title>
<path fill="none" stroke="midnightblue" d="M993.26,-118.56C991.56,-100.27 986.23,-72.93 970,-56 956.68,-42.11 908.99,-28.11 874.75,-19.5"/>
<polygon fill="midnightblue" stroke="midnightblue" points="989.78,-118.85 993.92,-128.6 996.76,-118.39 989.78,-118.85"/>
</g>
<!-- Node26 -->
<g id="node26" class="node">
<title>Node26</title>
<g id="a_node26"><a xlink:href="test__enum_8cpp.html" target="_top" xlink:title=" ">
<polygon fill="white" stroke="black" points="905,-0.5 905,-19.5 1011,-19.5 1011,-0.5 905,-0.5"/>
<text text-anchor="middle" x="958" y="-7.5" font-family="Helvetica,sans-Serif" font-size="10.00">tests/test_enum.cpp</text>
</a>
</g>
</g>
<!-- Node9&#45;&gt;Node26 -->
<g id="edge34" class="edge">
<title>Node9&#45;&gt;Node26</title>
<path fill="none" stroke="midnightblue" d="M1002.95,-119.17C1009.95,-102.14 1017.09,-76.42 1008,-56 1000.87,-40 984.93,-27.3 972.95,-19.53"/>
<polygon fill="midnightblue" stroke="midnightblue" points="999.66,-117.97 998.76,-128.52 1006.05,-120.83 999.66,-117.97"/>
</g>
<!-- Node27 -->
<g id="node27" class="node">
<title>Node27</title>
<g id="a_node27"><a xlink:href="test__hlll_8cpp.html" target="_top" xlink:title=" ">
<polygon fill="white" stroke="black" points="1029,-0.5 1029,-19.5 1123,-19.5 1123,-0.5 1029,-0.5"/>
<text text-anchor="middle" x="1076" y="-7.5" font-family="Helvetica,sans-Serif" font-size="10.00">tests/test_hlll.cpp</text>
</a>
</g>
</g>
<!-- Node9&#45;&gt;Node27 -->
<g id="edge35" class="edge">
<title>Node9&#45;&gt;Node27</title>
<path fill="none" stroke="midnightblue" d="M1005.17,-120.26C1022.91,-92.9 1056.88,-40.49 1070.32,-19.76"/>
<polygon fill="midnightblue" stroke="midnightblue" points="1002.14,-118.51 999.64,-128.81 1008.01,-122.32 1002.14,-118.51"/>
</g>
<!-- Node28 -->
<g id="node28" class="node">
<title>Node28</title>
<g id="a_node28"><a xlink:href="test__lll_8cpp.html" target="_top" xlink:title=" ">
<polygon fill="white" stroke="black" points="1257.5,-0.5 1257.5,-19.5 1346.5,-19.5 1346.5,-0.5 1257.5,-0.5"/>
<text text-anchor="middle" x="1302" y="-7.5" font-family="Helvetica,sans-Serif" font-size="10.00">tests/test_lll.cpp</text>
</a>
</g>
</g>
<!-- Node9&#45;&gt;Node28 -->
<g id="edge36" class="edge">
<title>Node9&#45;&gt;Node28</title>
<path fill="none" stroke="midnightblue" d="M1033.3,-132.17C1075.11,-125.49 1142.47,-111.78 1196,-87 1198.59,-85.8 1263.09,-39.17 1290.19,-19.56"/>
<polygon fill="midnightblue" stroke="midnightblue" points="1032.6,-128.74 1023.25,-133.72 1033.66,-135.65 1032.6,-128.74"/>
</g>
<!-- Node29 -->
<g id="node29" class="node">
<title>Node29</title>
<g id="a_node29"><a xlink:href="test__lll__gram_8cpp.html" target="_top" xlink:title=" ">
<polygon fill="white" stroke="black" points="1364,-0.5 1364,-19.5 1480,-19.5 1480,-0.5 1364,-0.5"/>
<text text-anchor="middle" x="1422" y="-7.5" font-family="Helvetica,sans-Serif" font-size="10.00">tests/test_lll_gram.cpp</text>
</a>
</g>
</g>
<!-- Node9&#45;&gt;Node29 -->
<g id="edge37" class="edge">
<title>Node9&#45;&gt;Node29</title>
<path fill="none" stroke="midnightblue" d="M1033.22,-130.88C1090.7,-120.88 1194.82,-101.55 1230,-87 1253.47,-77.3 1255,-66.77 1278,-56 1312.98,-39.61 1355.46,-27.17 1385.18,-19.57"/>
<polygon fill="midnightblue" stroke="midnightblue" points="1032.31,-127.49 1023.05,-132.64 1033.5,-134.38 1032.31,-127.49"/>
</g>
<!-- Node30 -->
<g id="node30" class="node">
<title>Node30</title>
<g id="a_node30"><a xlink:href="test__nr_8cpp.html" target="_top" xlink:title=" ">
<polygon fill="white" stroke="black" points="1604.5,-62 1604.5,-81 1693.5,-81 1693.5,-62 1604.5,-62"/>
<text text-anchor="middle" x="1649" y="-69" font-family="Helvetica,sans-Serif" font-size="10.00">tests/test_nr.cpp</text>
</a>
</g>
</g>
<!-- Node9&#45;&gt;Node30 -->
<g id="edge38" class="edge">
<title>Node9&#45;&gt;Node30</title>
<path fill="none" stroke="midnightblue" d="M1033.16,-131.01C1051.06,-128.23 1072.56,-125.13 1092,-123 1315.24,-98.55 1374.64,-124.81 1596,-87 1604.46,-85.55 1613.53,-83.33 1621.72,-81.06"/>
<polygon fill="midnightblue" stroke="midnightblue" points="1032.42,-127.59 1023.09,-132.61 1033.51,-134.5 1032.42,-127.59"/>
</g>
<!-- Node31 -->
<g id="node31" class="node">
<title>Node31</title>
<g id="a_node31"><a xlink:href="test__pruner_8cpp.html" target="_top" xlink:title=" ">
<polygon fill="white" stroke="black" points="1712,-62 1712,-81 1820,-81 1820,-62 1712,-62"/>
<text text-anchor="middle" x="1766" y="-69" font-family="Helvetica,sans-Serif" font-size="10.00">tests/test_pruner.cpp</text>
</a>
</g>
</g>
<!-- Node9&#45;&gt;Node31 -->
<g id="edge39" class="edge">
<title>Node9&#45;&gt;Node31</title>
<path fill="none" stroke="midnightblue" d="M1033.15,-130.9C1051.05,-128.09 1072.55,-125.01 1092,-123 1362.59,-95.07 1433.73,-125.64 1703,-87 1713,-85.57 1723.75,-83.35 1733.5,-81.07"/>
<polygon fill="midnightblue" stroke="midnightblue" points="1032.4,-127.48 1023.08,-132.51 1033.5,-134.39 1032.4,-127.48"/>
</g>
<!-- Node32 -->
<g id="node32" class="node">
<title>Node32</title>
<g id="a_node32"><a xlink:href="test__svp_8cpp.html" target="_top" xlink:title=" ">
<polygon fill="white" stroke="black" points="1498,-0.5 1498,-19.5 1596,-19.5 1596,-0.5 1498,-0.5"/>
<text text-anchor="middle" x="1547" y="-7.5" font-family="Helvetica,sans-Serif" font-size="10.00">tests/test_svp.cpp</text>
</a>
</g>
</g>
<!-- Node9&#45;&gt;Node32 -->
<g id="edge40" class="edge">
<title>Node9&#45;&gt;Node32</title>
<path fill="none" stroke="midnightblue" d="M1033.67,-131.07C1104.3,-119.48 1246.51,-95.53 1268,-87 1291.6,-77.63 1292.44,-65.49 1316,-56 1332.65,-49.29 1435.31,-30.59 1498.04,-19.52"/>
<polygon fill="midnightblue" stroke="midnightblue" points="1032.68,-127.68 1023.38,-132.75 1033.81,-134.59 1032.68,-127.68"/>
</g>
<!-- Node33 -->
<g id="node33" class="node">
<title>Node33</title>
<g id="a_node33"><a xlink:href="test__svp__gram_8cpp.html" target="_top" xlink:title=" ">
<polygon fill="white" stroke="black" points="1614.5,-0.5 1614.5,-19.5 1739.5,-19.5 1739.5,-0.5 1614.5,-0.5"/>
<text text-anchor="middle" x="1677" y="-7.5" font-family="Helvetica,sans-Serif" font-size="10.00">tests/test_svp_gram.cpp</text>
</a>
</g>
</g>
<!-- Node9&#45;&gt;Node33 -->
<g id="edge41" class="edge">
<title>Node9&#45;&gt;Node33</title>
<path fill="none" stroke="midnightblue" d="M1033.31,-131.62C1114.34,-119.43 1293.45,-92.12 1306,-87 1328.15,-77.97 1327.74,-64.77 1350,-56 1362.15,-51.22 1522.73,-30.44 1614.24,-18.86"/>
<polygon fill="midnightblue" stroke="midnightblue" points="1032.38,-128.22 1023.01,-133.17 1033.42,-135.14 1032.38,-128.22"/>
</g>
<!-- Node34 -->
<g id="node34" class="node">
<title>Node34</title>
<g id="a_node34"><a xlink:href="test__utils_8h.html" target="_top" xlink:title=" ">
<polygon fill="white" stroke="black" points="1098.5,-62 1098.5,-81 1187.5,-81 1187.5,-62 1098.5,-62"/>
<text text-anchor="middle" x="1143" y="-69" font-family="Helvetica,sans-Serif" font-size="10.00">tests/test_utils.h</text>
</a>
</g>
</g>
<!-- Node9&#45;&gt;Node34 -->
<g id="edge42" class="edge">
<title>Node9&#45;&gt;Node34</title>
<path fill="none" stroke="midnightblue" d="M1023.16,-124.78C1052.66,-111.91 1097.49,-92.35 1123.13,-81.17"/>
<polygon fill="midnightblue" stroke="midnightblue" points="1021.55,-121.66 1013.79,-128.87 1024.35,-128.08 1021.55,-121.66"/>
</g>
<!-- Node12 -->
<g id="node12" class="node">
<title>Node12</title>
<g id="a_node12"><a xlink:href="main_8cpp.html" target="_top" xlink:title=" ">
<polygon fill="white" stroke="black" points="1833,-0.5 1833,-19.5 1907,-19.5 1907,-0.5 1833,-0.5"/>
<text text-anchor="middle" x="1870" y="-7.5" font-family="Helvetica,sans-Serif" font-size="10.00">fplll/main.cpp</text>
</a>
</g>
</g>
<!-- Node11&#45;&gt;Node12 -->
<g id="edge14" class="edge">
<title>Node11&#45;&gt;Node12</title>
<path fill="none" stroke="midnightblue" d="M1870,-51.82C1870,-41 1870,-27.9 1870,-19.51"/>
<polygon fill="midnightblue" stroke="midnightblue" points="1866.5,-51.98 1870,-61.98 1873.5,-51.98 1866.5,-51.98"/>
</g>
<!-- Node14&#45;&gt;Node13 -->
<g id="edge17" class="edge">
<title>Node14&#45;&gt;Node13</title>
<path fill="none" stroke="midnightblue" d="M663.83,-56.89C662.54,-56.59 661.26,-56.29 660,-56 603.11,-42.85 537.09,-28.44 495.92,-19.56"/>
<polygon fill="midnightblue" stroke="midnightblue" points="663.3,-60.36 673.83,-59.24 664.9,-53.55 663.3,-60.36"/>
</g>
<!-- Node15&#45;&gt;Node13 -->
<g id="edge19" class="edge">
<title>Node15&#45;&gt;Node13</title>
<path fill="none" stroke="midnightblue" d="M188.29,-55.84C267.47,-39.1 348.52,-26.36 400.85,-18.71"/>
<polygon fill="midnightblue" stroke="midnightblue" points="187.19,-52.49 178.14,-58.01 188.65,-59.34 187.19,-52.49"/>
</g>
<!-- Node16&#45;&gt;Node13 -->
<g id="edge21" class="edge">
<title>Node16&#45;&gt;Node13</title>
<path fill="none" stroke="midnightblue" d="M297.96,-54.94C338.68,-43.62 392.27,-28.72 425.41,-19.5"/>
<polygon fill="midnightblue" stroke="midnightblue" points="296.87,-51.61 288.17,-57.66 298.74,-58.36 296.87,-51.61"/>
</g>
<!-- Node17&#45;&gt;Node13 -->
<g id="edge23" class="edge">
<title>Node17&#45;&gt;Node13</title>
<path fill="none" stroke="midnightblue" d="M385.45,-51.36C404.1,-40.69 426.4,-27.93 440.87,-19.66"/>
<polygon fill="midnightblue" stroke="midnightblue" points="383.59,-48.4 376.65,-56.4 387.06,-54.47 383.59,-48.4"/>
</g>
<!-- Node18&#45;&gt;Node13 -->
<g id="edge25" class="edge">
<title>Node18&#45;&gt;Node13</title>
<path fill="none" stroke="midnightblue" d="M459.56,-46.29C458.61,-36.86 457.58,-26.65 456.87,-19.66"/>
<polygon fill="midnightblue" stroke="midnightblue" points="456.09,-46.8 460.58,-56.4 463.06,-46.1 456.09,-46.8"/>
</g>
<!-- Node19&#45;&gt;Node13 -->
<g id="edge27" class="edge">
<title>Node19&#45;&gt;Node13</title>
<path fill="none" stroke="midnightblue" d="M535.53,-51.8C514.57,-41.04 489.23,-28.05 472.88,-19.66"/>
<polygon fill="midnightblue" stroke="midnightblue" points="534.01,-54.95 544.51,-56.4 537.21,-48.72 534.01,-54.95"/>
</g>
<!-- Node34&#45;&gt;Node21 -->
<g id="edge43" class="edge">
<title>Node34&#45;&gt;Node21</title>
<path fill="none" stroke="midnightblue" d="M1088.47,-66.05C995.46,-58.25 800.29,-40.91 636,-20 633.07,-19.63 630.06,-19.22 627.02,-18.8"/>
<polygon fill="midnightblue" stroke="midnightblue" points="1088.23,-69.55 1098.49,-66.89 1088.81,-62.57 1088.23,-69.55"/>
</g>
<!-- Node34&#45;&gt;Node22 -->
<g id="edge44" class="edge">
<title>Node34&#45;&gt;Node22</title>
<path fill="none" stroke="midnightblue" d="M1088.49,-63.04C1007.42,-51.96 855.51,-31.18 770.2,-19.51"/>
<polygon fill="midnightblue" stroke="midnightblue" points="1088.11,-66.52 1098.49,-64.41 1089.06,-59.59 1088.11,-66.52"/>
</g>
<!-- Node34&#45;&gt;Node25 -->
<g id="edge45" class="edge">
<title>Node34&#45;&gt;Node25</title>
<path fill="none" stroke="midnightblue" d="M1089.41,-60.05C1030.32,-48.52 936.39,-30.19 881.62,-19.51"/>
<polygon fill="midnightblue" stroke="midnightblue" points="1088.82,-63.5 1099.3,-61.98 1090.16,-56.63 1088.82,-63.5"/>
</g>
<!-- Node34&#45;&gt;Node26 -->
<g id="edge46" class="edge">
<title>Node34&#45;&gt;Node26</title>
<path fill="none" stroke="midnightblue" d="M1106.87,-58.88C1070.91,-47.32 1016.58,-29.84 984.46,-19.51"/>
<polygon fill="midnightblue" stroke="midnightblue" points="1105.9,-62.25 1116.49,-61.98 1108.05,-55.58 1105.9,-62.25"/>
</g>
<!-- Node34&#45;&gt;Node27 -->
<g id="edge48" class="edge">
<title>Node34&#45;&gt;Node27</title>
<path fill="none" stroke="midnightblue" d="M1125.71,-55.15C1112.94,-43.81 1096.02,-28.78 1085.58,-19.51"/>
<polygon fill="midnightblue" stroke="midnightblue" points="1123.6,-57.95 1133.4,-61.98 1128.25,-52.72 1123.6,-57.95"/>
</g>
<!-- Node34&#45;&gt;Node28 -->
<g id="edge49" class="edge">
<title>Node34&#45;&gt;Node28</title>
<path fill="none" stroke="midnightblue" d="M1175.25,-58.43C1206.15,-46.87 1252.01,-29.71 1279.26,-19.51"/>
<polygon fill="midnightblue" stroke="midnightblue" points="1173.92,-55.19 1165.78,-61.98 1176.37,-61.75 1173.92,-55.19"/>
</g>
<!-- Node34&#45;&gt;Node29 -->
<g id="edge50" class="edge">
<title>Node34&#45;&gt;Node29</title>
<path fill="none" stroke="midnightblue" d="M1193.03,-59.83C1247.14,-48.29 1332.31,-30.13 1382.1,-19.51"/>
<polygon fill="midnightblue" stroke="midnightblue" points="1192.02,-56.47 1182.97,-61.98 1193.48,-63.31 1192.02,-56.47"/>
</g>
<!-- Node34&#45;&gt;Node32 -->
<g id="edge51" class="edge">
<title>Node34&#45;&gt;Node32</title>
<path fill="none" stroke="midnightblue" d="M1197.62,-62.68C1265.83,-52.89 1386.08,-35.5 1489,-20 1491.92,-19.56 1494.93,-19.1 1497.96,-18.64"/>
<polygon fill="midnightblue" stroke="midnightblue" points="1196.93,-59.25 1187.53,-64.13 1197.93,-66.17 1196.93,-59.25"/>
</g>
<!-- Node34&#45;&gt;Node33 -->
<g id="edge52" class="edge">
<title>Node34&#45;&gt;Node33</title>
<path fill="none" stroke="midnightblue" d="M1197.74,-64.79C1284.26,-55.71 1457.92,-37.23 1605,-20 1608,-19.65 1611.08,-19.28 1614.18,-18.91"/>
<polygon fill="midnightblue" stroke="midnightblue" points="1197.21,-61.33 1187.62,-65.85 1197.94,-68.29 1197.21,-61.33"/>
</g>
<!-- Node35 -->
<g id="node35" class="node">
<title>Node35</title>
<g id="a_node35"><a xlink:href="test__gso_8cpp.html" target="_top" xlink:title=" ">
<polygon fill="white" stroke="black" points="1141,-0.5 1141,-19.5 1239,-19.5 1239,-0.5 1141,-0.5"/>
<text text-anchor="middle" x="1190" y="-7.5" font-family="Helvetica,sans-Serif" font-size="10.00">tests/test_gso.cpp</text>
</a>
</g>
</g>
<!-- Node34&#45;&gt;Node35 -->
<g id="edge47" class="edge">
<title>Node34&#45;&gt;Node35</title>
<path fill="none" stroke="midnightblue" d="M1156.16,-53.84C1164.98,-42.67 1176.23,-28.43 1183.28,-19.51"/>
<polygon fill="midnightblue" stroke="midnightblue" points="1153.19,-51.96 1149.73,-61.98 1158.68,-56.3 1153.19,-51.96"/>
</g>
<!-- Node37&#45;&gt;Node10 -->
<g id="edge55" class="edge">
<title>Node37&#45;&gt;Node10</title>
<path fill="none" stroke="midnightblue" d="M802.87,-127.04C794.29,-125.47 785.41,-124.03 777,-123 467.81,-84.95 383.02,-145.32 77,-87 69.88,-85.64 62.32,-83.39 55.57,-81.06"/>
<polygon fill="midnightblue" stroke="midnightblue" points="802.28,-130.49 812.76,-128.93 803.59,-123.62 802.28,-130.49"/>
</g>
</g>
</svg>
