<?xml version="1.0" encoding="UTF-8" standalone="no"?>
<!DOCTYPE svg PUBLIC "-//W3C//DTD SVG 1.1//EN"
 "http://www.w3.org/Graphics/SVG/1.1/DTD/svg11.dtd">
<!-- Generated by graphviz version 2.43.0 (0)
 -->
<!-- Title: fplll/enum&#45;parallel/enumlib_dim.cpp Pages: 1 -->
<svg width="1901pt" height="106pt"
 viewBox="0.00 0.00 1900.50 106.00" xmlns="http://www.w3.org/2000/svg" xmlns:xlink="http://www.w3.org/1999/xlink">
<g id="graph0" class="graph" transform="scale(1 1) rotate(0) translate(4 102)">
<title>fplll/enum&#45;parallel/enumlib_dim.cpp</title>
<polygon fill="white" stroke="transparent" points="-4,4 -4,-102 1896.5,-102 1896.5,4 -4,4"/>
<!-- Node1 -->
<g id="node1" class="node">
<title>Node1</title>
<g id="a_node1"><a xlink:title=" ">
<polygon fill="#bfbfbf" stroke="black" points="917.5,-67.5 917.5,-97.5 1010.5,-97.5 1010.5,-67.5 917.5,-67.5"/>
<text text-anchor="start" x="925.5" y="-85.5" font-family="Helvetica,sans-Serif" font-size="10.00">fplll/enum&#45;parallel</text>
<text text-anchor="middle" x="964" y="-74.5" font-family="Helvetica,sans-Serif" font-size="10.00">/enumlib_dim.cpp</text>
</a>
</g>
</g>
<!-- Node2 -->
<g id="node2" class="node">
<title>Node2</title>
<g id="a_node2"><a xlink:href="enumlib__dim_8100_8cpp.html" target="_top" xlink:title=" ">
<polygon fill="white" stroke="black" points="0,-0.5 0,-30.5 112,-30.5 112,-0.5 0,-0.5"/>
<text text-anchor="start" x="8" y="-18.5" font-family="Helvetica,sans-Serif" font-size="10.00">fplll/enum&#45;parallel</text>
<text text-anchor="middle" x="56" y="-7.5" font-family="Helvetica,sans-Serif" font-size="10.00">/enumlib_dim.100.cpp</text>
</a>
</g>
</g>
<!-- Node1&#45;&gt;Node2 -->
<g id="edge1" class="edge">
<title>Node1&#45;&gt;Node2</title>
<path fill="none" stroke="midnightblue" d="M906.92,-81.21C770.41,-79.85 414.62,-72.27 121,-31 118.14,-30.6 115.21,-30.14 112.27,-29.63"/>
<polygon fill="midnightblue" stroke="midnightblue" points="907.1,-84.72 917.13,-81.31 907.17,-77.72 907.1,-84.72"/>
</g>
<!-- Node3 -->
<g id="node3" class="node">
<title>Node3</title>
<g id="a_node3"><a xlink:href="enumlib__dim_8110_8cpp.html" target="_top" xlink:title=" ">
<polygon fill="white" stroke="black" points="130,-0.5 130,-30.5 242,-30.5 242,-0.5 130,-0.5"/>
<text text-anchor="start" x="138" y="-18.5" font-family="Helvetica,sans-Serif" font-size="10.00">fplll/enum&#45;parallel</text>
<text text-anchor="middle" x="186" y="-7.5" font-family="Helvetica,sans-Serif" font-size="10.00">/enumlib_dim.110.cpp</text>
</a>
</g>
</g>
<!-- Node1&#45;&gt;Node3 -->
<g id="edge2" class="edge">
<title>Node1&#45;&gt;Node3</title>
<path fill="none" stroke="midnightblue" d="M907.3,-80.35C786.19,-77.25 493.5,-66.44 251,-31 248.14,-30.58 245.22,-30.11 242.27,-29.59"/>
<polygon fill="midnightblue" stroke="midnightblue" points="907.36,-83.85 917.45,-80.6 907.54,-76.85 907.36,-83.85"/>
</g>
<!-- Node4 -->
<g id="node4" class="node">
<title>Node4</title>
<g id="a_node4"><a xlink:href="enumlib__dim_8120_8cpp.html" target="_top" xlink:title=" ">
<polygon fill="white" stroke="black" points="260,-0.5 260,-30.5 372,-30.5 372,-0.5 260,-0.5"/>
<text text-anchor="start" x="268" y="-18.5" font-family="Helvetica,sans-Serif" font-size="10.00">fplll/enum&#45;parallel</text>
<text text-anchor="middle" x="316" y="-7.5" font-family="Helvetica,sans-Serif" font-size="10.00">/enumlib_dim.120.cpp</text>
</a>
</g>
</g>
<!-- Node1&#45;&gt;Node4 -->
<g id="edge3" class="edge">
<title>Node1&#45;&gt;Node4</title>
<path fill="none" stroke="midnightblue" d="M907.25,-79.1C802.66,-74.11 572.67,-60.55 381,-31 378.14,-30.56 375.22,-30.07 372.28,-29.54"/>
<polygon fill="midnightblue" stroke="midnightblue" points="907.12,-82.59 917.27,-79.57 907.45,-75.6 907.12,-82.59"/>
</g>
<!-- Node5 -->
<g id="node5" class="node">
<title>Node5</title>
<g id="a_node5"><a xlink:href="enumlib__dim_8130_8cpp.html" target="_top" xlink:title=" ">
<polygon fill="white" stroke="black" points="390,-0.5 390,-30.5 502,-30.5 502,-0.5 390,-0.5"/>
<text text-anchor="start" x="398" y="-18.5" font-family="Helvetica,sans-Serif" font-size="10.00">fplll/enum&#45;parallel</text>
<text text-anchor="middle" x="446" y="-7.5" font-family="Helvetica,sans-Serif" font-size="10.00">/enumlib_dim.130.cpp</text>
</a>
</g>
</g>
<!-- Node1&#45;&gt;Node5 -->
<g id="edge4" class="edge">
<title>Node1&#45;&gt;Node5</title>
<path fill="none" stroke="midnightblue" d="M907.4,-77.18C821.38,-70.16 652.76,-54.64 511,-31 508.15,-30.52 505.23,-30 502.3,-29.45"/>
<polygon fill="midnightblue" stroke="midnightblue" points="907.22,-80.67 917.47,-77.99 907.78,-73.69 907.22,-80.67"/>
</g>
<!-- Node6 -->
<g id="node6" class="node">
<title>Node6</title>
<g id="a_node6"><a xlink:href="enumlib__dim_8140_8cpp.html" target="_top" xlink:title=" ">
<polygon fill="white" stroke="black" points="520,-0.5 520,-30.5 632,-30.5 632,-0.5 520,-0.5"/>
<text text-anchor="start" x="528" y="-18.5" font-family="Helvetica,sans-Serif" font-size="10.00">fplll/enum&#45;parallel</text>
<text text-anchor="middle" x="576" y="-7.5" font-family="Helvetica,sans-Serif" font-size="10.00">/enumlib_dim.140.cpp</text>
</a>
</g>
</g>
<!-- Node1&#45;&gt;Node6 -->
<g id="edge5" class="edge">
<title>Node1&#45;&gt;Node6</title>
<path fill="none" stroke="midnightblue" d="M907.32,-73.76C842.67,-64.68 733.9,-48.6 641,-31 638.16,-30.46 635.25,-29.89 632.32,-29.3"/>
<polygon fill="midnightblue" stroke="midnightblue" points="906.91,-77.24 917.3,-75.16 907.88,-70.31 906.91,-77.24"/>
</g>
<!-- Node7 -->
<g id="node7" class="node">
<title>Node7</title>
<g id="a_node7"><a xlink:href="enumlib__dim_8150_8cpp.html" target="_top" xlink:title=" ">
<polygon fill="white" stroke="black" points="650,-0.5 650,-30.5 762,-30.5 762,-0.5 650,-0.5"/>
<text text-anchor="start" x="658" y="-18.5" font-family="Helvetica,sans-Serif" font-size="10.00">fplll/enum&#45;parallel</text>
<text text-anchor="middle" x="706" y="-7.5" font-family="Helvetica,sans-Serif" font-size="10.00">/enumlib_dim.150.cpp</text>
</a>
</g>
</g>
<!-- Node1&#45;&gt;Node7 -->
<g id="edge6" class="edge">
<title>Node1&#45;&gt;Node7</title>
<path fill="none" stroke="midnightblue" d="M907.48,-67.26C864.22,-56.36 804.88,-41.41 761.8,-30.56"/>
<polygon fill="midnightblue" stroke="midnightblue" points="906.73,-70.68 917.28,-69.73 908.44,-63.89 906.73,-70.68"/>
</g>
<!-- Node8 -->
<g id="node8" class="node">
<title>Node8</title>
<g id="a_node8"><a xlink:href="enumlib__dim_8160_8cpp.html" target="_top" xlink:title=" ">
<polygon fill="white" stroke="black" points="780,-0.5 780,-30.5 892,-30.5 892,-0.5 780,-0.5"/>
<text text-anchor="start" x="788" y="-18.5" font-family="Helvetica,sans-Serif" font-size="10.00">fplll/enum&#45;parallel</text>
<text text-anchor="middle" x="836" y="-7.5" font-family="Helvetica,sans-Serif" font-size="10.00">/enumlib_dim.160.cpp</text>
</a>
</g>
</g>
<!-- Node1&#45;&gt;Node8 -->
<g id="edge7" class="edge">
<title>Node1&#45;&gt;Node8</title>
<path fill="none" stroke="midnightblue" d="M927.28,-62.85C907.04,-52.58 882.33,-40.03 863.72,-30.58"/>
<polygon fill="midnightblue" stroke="midnightblue" points="925.72,-65.99 936.23,-67.4 928.89,-59.75 925.72,-65.99"/>
</g>
<!-- Node9 -->
<g id="node9" class="node">
<title>Node9</title>
<g id="a_node9"><a xlink:href="enumlib__dim_820_8cpp.html" target="_top" xlink:title=" ">
<polygon fill="white" stroke="black" points="910.5,-0.5 910.5,-30.5 1017.5,-30.5 1017.5,-0.5 910.5,-0.5"/>
<text text-anchor="start" x="918.5" y="-18.5" font-family="Helvetica,sans-Serif" font-size="10.00">fplll/enum&#45;parallel</text>
<text text-anchor="middle" x="964" y="-7.5" font-family="Helvetica,sans-Serif" font-size="10.00">/enumlib_dim.20.cpp</text>
</a>
</g>
</g>
<!-- Node1&#45;&gt;Node9 -->
<g id="edge8" class="edge">
<title>Node1&#45;&gt;Node9</title>
<path fill="none" stroke="midnightblue" d="M964,-57.11C964,-48.15 964,-38.32 964,-30.58"/>
<polygon fill="midnightblue" stroke="midnightblue" points="960.5,-57.4 964,-67.4 967.5,-57.4 960.5,-57.4"/>
</g>
<!-- Node10 -->
<g id="node10" class="node">
<title>Node10</title>
<g id="a_node10"><a xlink:href="enumlib__dim_830_8cpp.html" target="_top" xlink:title=" ">
<polygon fill="white" stroke="black" points="1035.5,-0.5 1035.5,-30.5 1142.5,-30.5 1142.5,-0.5 1035.5,-0.5"/>
<text text-anchor="start" x="1043.5" y="-18.5" font-family="Helvetica,sans-Serif" font-size="10.00">fplll/enum&#45;parallel</text>
<text text-anchor="middle" x="1089" y="-7.5" font-family="Helvetica,sans-Serif" font-size="10.00">/enumlib_dim.30.cpp</text>
</a>
</g>
</g>
<!-- Node1&#45;&gt;Node10 -->
<g id="edge9" class="edge">
<title>Node1&#45;&gt;Node10</title>
<path fill="none" stroke="midnightblue" d="M1000.13,-62.71C1019.84,-52.46 1043.84,-39.98 1061.93,-30.58"/>
<polygon fill="midnightblue" stroke="midnightblue" points="998.38,-59.68 991.12,-67.4 1001.61,-65.89 998.38,-59.68"/>
</g>
<!-- Node11 -->
<g id="node11" class="node">
<title>Node11</title>
<g id="a_node11"><a xlink:href="enumlib__dim_840_8cpp.html" target="_top" xlink:title=" ">
<polygon fill="white" stroke="black" points="1160.5,-0.5 1160.5,-30.5 1267.5,-30.5 1267.5,-0.5 1160.5,-0.5"/>
<text text-anchor="start" x="1168.5" y="-18.5" font-family="Helvetica,sans-Serif" font-size="10.00">fplll/enum&#45;parallel</text>
<text text-anchor="middle" x="1214" y="-7.5" font-family="Helvetica,sans-Serif" font-size="10.00">/enumlib_dim.40.cpp</text>
</a>
</g>
</g>
<!-- Node1&#45;&gt;Node11 -->
<g id="edge10" class="edge">
<title>Node1&#45;&gt;Node11</title>
<path fill="none" stroke="midnightblue" d="M1020.49,-66.81C1062.31,-55.94 1118.93,-41.22 1160.12,-30.51"/>
<polygon fill="midnightblue" stroke="midnightblue" points="1019.53,-63.45 1010.73,-69.35 1021.29,-70.22 1019.53,-63.45"/>
</g>
<!-- Node12 -->
<g id="node12" class="node">
<title>Node12</title>
<g id="a_node12"><a xlink:href="enumlib__dim_850_8cpp.html" target="_top" xlink:title=" ">
<polygon fill="white" stroke="black" points="1285.5,-0.5 1285.5,-30.5 1392.5,-30.5 1392.5,-0.5 1285.5,-0.5"/>
<text text-anchor="start" x="1293.5" y="-18.5" font-family="Helvetica,sans-Serif" font-size="10.00">fplll/enum&#45;parallel</text>
<text text-anchor="middle" x="1339" y="-7.5" font-family="Helvetica,sans-Serif" font-size="10.00">/enumlib_dim.50.cpp</text>
</a>
</g>
</g>
<!-- Node1&#45;&gt;Node12 -->
<g id="edge11" class="edge">
<title>Node1&#45;&gt;Node12</title>
<path fill="none" stroke="midnightblue" d="M1020.69,-73.57C1083.55,-64.49 1187.86,-48.59 1277,-31 1279.71,-30.46 1282.48,-29.9 1285.28,-29.31"/>
<polygon fill="midnightblue" stroke="midnightblue" points="1019.98,-70.13 1010.58,-75.02 1020.98,-77.06 1019.98,-70.13"/>
</g>
<!-- Node13 -->
<g id="node13" class="node">
<title>Node13</title>
<g id="a_node13"><a xlink:href="enumlib__dim_860_8cpp.html" target="_top" xlink:title=" ">
<polygon fill="white" stroke="black" points="1410.5,-0.5 1410.5,-30.5 1517.5,-30.5 1517.5,-0.5 1410.5,-0.5"/>
<text text-anchor="start" x="1418.5" y="-18.5" font-family="Helvetica,sans-Serif" font-size="10.00">fplll/enum&#45;parallel</text>
<text text-anchor="middle" x="1464" y="-7.5" font-family="Helvetica,sans-Serif" font-size="10.00">/enumlib_dim.60.cpp</text>
</a>
</g>
</g>
<!-- Node1&#45;&gt;Node13 -->
<g id="edge12" class="edge">
<title>Node1&#45;&gt;Node13</title>
<path fill="none" stroke="midnightblue" d="M1020.67,-77.06C1104.45,-70.03 1266.08,-54.65 1402,-31 1404.72,-30.53 1407.5,-30.01 1410.31,-29.46"/>
<polygon fill="midnightblue" stroke="midnightblue" points="1020.28,-73.58 1010.6,-77.9 1020.86,-80.56 1020.28,-73.58"/>
</g>
<!-- Node14 -->
<g id="node14" class="node">
<title>Node14</title>
<g id="a_node14"><a xlink:href="enumlib__dim_870_8cpp.html" target="_top" xlink:title=" ">
<polygon fill="white" stroke="black" points="1535.5,-0.5 1535.5,-30.5 1642.5,-30.5 1642.5,-0.5 1535.5,-0.5"/>
<text text-anchor="start" x="1543.5" y="-18.5" font-family="Helvetica,sans-Serif" font-size="10.00">fplll/enum&#45;parallel</text>
<text text-anchor="middle" x="1589" y="-7.5" font-family="Helvetica,sans-Serif" font-size="10.00">/enumlib_dim.70.cpp</text>
</a>
</g>
</g>
<!-- Node1&#45;&gt;Node14 -->
<g id="edge13" class="edge">
<title>Node1&#45;&gt;Node14</title>
<path fill="none" stroke="midnightblue" d="M1020.69,-79.05C1122.57,-74.06 1343.17,-60.59 1527,-31 1529.73,-30.56 1532.52,-30.07 1535.32,-29.54"/>
<polygon fill="midnightblue" stroke="midnightblue" points="1020.44,-75.56 1010.62,-79.53 1020.77,-82.55 1020.44,-75.56"/>
</g>
<!-- Node15 -->
<g id="node15" class="node">
<title>Node15</title>
<g id="a_node15"><a xlink:href="enumlib__dim_880_8cpp.html" target="_top" xlink:title=" ">
<polygon fill="white" stroke="black" points="1660.5,-0.5 1660.5,-30.5 1767.5,-30.5 1767.5,-0.5 1660.5,-0.5"/>
<text text-anchor="start" x="1668.5" y="-18.5" font-family="Helvetica,sans-Serif" font-size="10.00">fplll/enum&#45;parallel</text>
<text text-anchor="middle" x="1714" y="-7.5" font-family="Helvetica,sans-Serif" font-size="10.00">/enumlib_dim.80.cpp</text>
</a>
</g>
</g>
<!-- Node1&#45;&gt;Node15 -->
<g id="edge14" class="edge">
<title>Node1&#45;&gt;Node15</title>
<path fill="none" stroke="midnightblue" d="M1020.83,-80.33C1139,-77.25 1419.56,-66.49 1652,-31 1654.73,-30.58 1657.52,-30.11 1660.33,-29.59"/>
<polygon fill="midnightblue" stroke="midnightblue" points="1020.49,-76.84 1010.58,-80.59 1020.67,-83.84 1020.49,-76.84"/>
</g>
<!-- Node16 -->
<g id="node16" class="node">
<title>Node16</title>
<g id="a_node16"><a xlink:href="enumlib__dim_890_8cpp.html" target="_top" xlink:title=" ">
<polygon fill="white" stroke="black" points="1785.5,-0.5 1785.5,-30.5 1892.5,-30.5 1892.5,-0.5 1785.5,-0.5"/>
<text text-anchor="start" x="1793.5" y="-18.5" font-family="Helvetica,sans-Serif" font-size="10.00">fplll/enum&#45;parallel</text>
<text text-anchor="middle" x="1839" y="-7.5" font-family="Helvetica,sans-Serif" font-size="10.00">/enumlib_dim.90.cpp</text>
</a>
</g>
</g>
<!-- Node1&#45;&gt;Node16 -->
<g id="edge15" class="edge">
<title>Node1&#45;&gt;Node16</title>
<path fill="none" stroke="midnightblue" d="M1020.92,-81.24C1153.96,-79.91 1495.35,-72.38 1777,-31 1779.73,-30.6 1782.53,-30.14 1785.34,-29.63"/>
<polygon fill="midnightblue" stroke="midnightblue" points="1020.54,-77.74 1010.57,-81.33 1020.6,-84.74 1020.54,-77.74"/>
</g>
</g>
</svg>
