<?xml version="1.0" encoding="UTF-8" standalone="no"?>
<!DOCTYPE svg PUBLIC "-//W3C//DTD SVG 1.1//EN"
 "http://www.w3.org/Graphics/SVG/1.1/DTD/svg11.dtd">
<!-- Generated by graphviz version 2.38.0 (20140413.2041)
 -->
<!-- Title: fplll/enum/enumerate_ext.h Pages: 1 -->
<svg width="1131pt" height="330pt"
 viewBox="0.00 0.00 1131.00 330.00" xmlns="http://www.w3.org/2000/svg" xmlns:xlink="http://www.w3.org/1999/xlink">
<g id="graph0" class="graph" transform="scale(1 1) rotate(0) translate(4 326)">
<title>fplll/enum/enumerate_ext.h</title>
<polygon fill="white" stroke="none" points="-4,4 -4,-326 1127,-326 1127,4 -4,4"/>
<!-- Node0 -->
<g id="node1" class="node"><title>Node0</title>
<polygon fill="#bfbfbf" stroke="black" points="595.5,-291.5 595.5,-321.5 702.5,-321.5 702.5,-291.5 595.5,-291.5"/>
<text text-anchor="start" x="603.5" y="-309.5" font-family="Helvetica,sans-Serif" font-size="10.00">fplll/enum/enumerate</text>
<text text-anchor="middle" x="649" y="-298.5" font-family="Helvetica,sans-Serif" font-size="10.00">_ext.h</text>
</g>
<!-- Node1 -->
<g id="node2" class="node"><title>Node1</title>
<g id="a_node2"><a xlink:href="enumerate_8h.html" target="_top" xlink:title="fplll/enum/enumerate.h">
<polygon fill="white" stroke="black" points="526,-230 526,-249 642,-249 642,-230 526,-230"/>
<text text-anchor="middle" x="584" y="-237" font-family="Helvetica,sans-Serif" font-size="10.00">fplll/enum/enumerate.h</text>
</a>
</g>
</g>
<!-- Node0&#45;&gt;Node1 -->
<g id="edge1" class="edge"><title>Node0&#45;&gt;Node1</title>
<path fill="none" stroke="midnightblue" d="M627.497,-283.997C615.632,-272.132 601.552,-258.052 592.695,-249.195"/>
<polygon fill="midnightblue" stroke="midnightblue" points="625.35,-286.8 634.896,-291.396 630.3,-281.85 625.35,-286.8"/>
</g>
<!-- Node21 -->
<g id="node22" class="node"><title>Node21</title>
<g id="a_node22"><a xlink:href="enumerate__ext_8cpp.html" target="_top" xlink:title="fplll/enum/enumerate\l_ext.cpp">
<polygon fill="white" stroke="black" points="660.5,-224.5 660.5,-254.5 767.5,-254.5 767.5,-224.5 660.5,-224.5"/>
<text text-anchor="start" x="668.5" y="-242.5" font-family="Helvetica,sans-Serif" font-size="10.00">fplll/enum/enumerate</text>
<text text-anchor="middle" x="714" y="-231.5" font-family="Helvetica,sans-Serif" font-size="10.00">_ext.cpp</text>
</a>
</g>
</g>
<!-- Node0&#45;&gt;Node21 -->
<g id="edge29" class="edge"><title>Node0&#45;&gt;Node21</title>
<path fill="none" stroke="midnightblue" d="M670.189,-284.311C679.939,-274.561 691.241,-263.259 699.923,-254.577"/>
<polygon fill="midnightblue" stroke="midnightblue" points="667.7,-281.85 663.104,-291.396 672.65,-286.8 667.7,-281.85"/>
</g>
<!-- Node2 -->
<g id="node3" class="node"><title>Node2</title>
<g id="a_node3"><a xlink:href="bkz_8h.html" target="_top" xlink:title="fplll/bkz.h">
<polygon fill="white" stroke="black" points="525.5,-168.5 525.5,-187.5 584.5,-187.5 584.5,-168.5 525.5,-168.5"/>
<text text-anchor="middle" x="555" y="-175.5" font-family="Helvetica,sans-Serif" font-size="10.00">fplll/bkz.h</text>
</a>
</g>
</g>
<!-- Node1&#45;&gt;Node2 -->
<g id="edge2" class="edge"><title>Node1&#45;&gt;Node2</title>
<path fill="none" stroke="midnightblue" d="M575.39,-220.835C570.025,-209.828 563.365,-196.163 559.147,-187.509"/>
<polygon fill="midnightblue" stroke="midnightblue" points="572.317,-222.519 579.845,-229.975 578.61,-219.452 572.317,-222.519"/>
</g>
<!-- Node3 -->
<g id="node4" class="node"><title>Node3</title>
<g id="a_node4"><a xlink:href="bkz_8cpp.html" target="_top" xlink:title="fplll/bkz.cpp">
<polygon fill="white" stroke="black" points="444.5,-112.5 444.5,-131.5 513.5,-131.5 513.5,-112.5 444.5,-112.5"/>
<text text-anchor="middle" x="479" y="-119.5" font-family="Helvetica,sans-Serif" font-size="10.00">fplll/bkz.cpp</text>
</a>
</g>
</g>
<!-- Node1&#45;&gt;Node3 -->
<g id="edge25" class="edge"><title>Node1&#45;&gt;Node3</title>
<path fill="none" stroke="midnightblue" d="M560.41,-224.505C546.345,-215.357 528.795,-202.449 516,-188 500.333,-170.307 488.241,-144.918 482.56,-131.719"/>
<polygon fill="midnightblue" stroke="midnightblue" points="558.737,-227.588 569.065,-229.953 562.466,-221.664 558.737,-227.588"/>
</g>
<!-- Node19 -->
<g id="node20" class="node"><title>Node19</title>
<g id="a_node20"><a xlink:href="enumerate_8cpp.html" target="_top" xlink:title="fplll/enum/enumerate.cpp">
<polygon fill="white" stroke="black" points="641,-168.5 641,-187.5 767,-187.5 767,-168.5 641,-168.5"/>
<text text-anchor="middle" x="704" y="-175.5" font-family="Helvetica,sans-Serif" font-size="10.00">fplll/enum/enumerate.cpp</text>
</a>
</g>
</g>
<!-- Node1&#45;&gt;Node19 -->
<g id="edge26" class="edge"><title>Node1&#45;&gt;Node19</title>
<path fill="none" stroke="midnightblue" d="M610.177,-225.521C633.449,-213.982 666.803,-197.443 686.839,-187.509"/>
<polygon fill="midnightblue" stroke="midnightblue" points="608.597,-222.397 601.193,-229.975 611.707,-228.669 608.597,-222.397"/>
</g>
<!-- Node20 -->
<g id="node21" class="node"><title>Node20</title>
<g id="a_node21"><a xlink:href="svpcvp_8cpp.html" target="_top" xlink:title="fplll/svpcvp.cpp">
<polygon fill="white" stroke="black" points="827.5,-112.5 827.5,-131.5 912.5,-131.5 912.5,-112.5 827.5,-112.5"/>
<text text-anchor="middle" x="870" y="-119.5" font-family="Helvetica,sans-Serif" font-size="10.00">fplll/svpcvp.cpp</text>
</a>
</g>
</g>
<!-- Node1&#45;&gt;Node20 -->
<g id="edge27" class="edge"><title>Node1&#45;&gt;Node20</title>
<path fill="none" stroke="midnightblue" d="M591.426,-220.382C599.105,-204.026 612.695,-180.647 632,-168 663.57,-147.318 767.879,-133.516 827.4,-127.113"/>
<polygon fill="midnightblue" stroke="midnightblue" points="588.049,-219.369 587.234,-229.932 594.458,-222.183 588.049,-219.369"/>
</g>
<!-- Node2&#45;&gt;Node3 -->
<g id="edge3" class="edge"><title>Node2&#45;&gt;Node3</title>
<path fill="none" stroke="midnightblue" d="M534.424,-162.38C520.688,-152.62 503.075,-140.106 491.433,-131.834"/>
<polygon fill="midnightblue" stroke="midnightblue" points="532.61,-165.385 542.789,-168.324 536.665,-159.679 532.61,-165.385"/>
</g>
<!-- Node4 -->
<g id="node5" class="node"><title>Node4</title>
<g id="a_node5"><a xlink:href="fplll_8h.html" target="_top" xlink:title="fplll/fplll.h">
<polygon fill="white" stroke="black" points="532,-112.5 532,-131.5 590,-131.5 590,-112.5 532,-112.5"/>
<text text-anchor="middle" x="561" y="-119.5" font-family="Helvetica,sans-Serif" font-size="10.00">fplll/fplll.h</text>
</a>
</g>
</g>
<!-- Node2&#45;&gt;Node4 -->
<g id="edge4" class="edge"><title>Node2&#45;&gt;Node4</title>
<path fill="none" stroke="midnightblue" d="M557.1,-158.101C558.096,-149.136 559.238,-138.858 560.028,-131.751"/>
<polygon fill="midnightblue" stroke="midnightblue" points="553.617,-157.758 555.991,-168.083 560.574,-158.531 553.617,-157.758"/>
</g>
<!-- Node5 -->
<g id="node6" class="node"><title>Node5</title>
<g id="a_node6"><a xlink:href="fplll_8cpp.html" target="_top" xlink:title="fplll/fplll.cpp">
<polygon fill="white" stroke="black" points="1055,-56.5 1055,-75.5 1123,-75.5 1123,-56.5 1055,-56.5"/>
<text text-anchor="middle" x="1089" y="-63.5" font-family="Helvetica,sans-Serif" font-size="10.00">fplll/fplll.cpp</text>
</a>
</g>
</g>
<!-- Node4&#45;&gt;Node5 -->
<g id="edge5" class="edge"><title>Node4&#45;&gt;Node5</title>
<path fill="none" stroke="midnightblue" d="M600.323,-118.873C683.123,-114.062 881.375,-100.783 1046,-76 1048.87,-75.5685 1051.83,-75.0669 1054.8,-74.5253"/>
<polygon fill="midnightblue" stroke="midnightblue" points="599.896,-115.392 590.113,-119.458 600.296,-122.38 599.896,-115.392"/>
</g>
<!-- Node6 -->
<g id="node7" class="node"><title>Node6</title>
<g id="a_node7"><a xlink:href="main_8h.html" target="_top" xlink:title="fplll/main.h">
<polygon fill="white" stroke="black" points="825,-56.5 825,-75.5 889,-75.5 889,-56.5 825,-56.5"/>
<text text-anchor="middle" x="857" y="-63.5" font-family="Helvetica,sans-Serif" font-size="10.00">fplll/main.h</text>
</a>
</g>
</g>
<!-- Node4&#45;&gt;Node6 -->
<g id="edge6" class="edge"><title>Node4&#45;&gt;Node6</title>
<path fill="none" stroke="midnightblue" d="M600.056,-114.526C649.994,-106.147 739.091,-90.8524 815,-76 818.22,-75.37 821.574,-74.6906 824.921,-73.9975"/>
<polygon fill="midnightblue" stroke="midnightblue" points="599.298,-111.105 590.013,-116.207 600.453,-118.009 599.298,-111.105"/>
</g>
<!-- Node8 -->
<g id="node9" class="node"><title>Node8</title>
<g id="a_node9"><a xlink:href="sieve__main_8cpp.html" target="_top" xlink:title="fplll/sieve/sieve_main.cpp">
<polygon fill="white" stroke="black" points="907.5,-56.5 907.5,-75.5 1036.5,-75.5 1036.5,-56.5 907.5,-56.5"/>
<text text-anchor="middle" x="972" y="-63.5" font-family="Helvetica,sans-Serif" font-size="10.00">fplll/sieve/sieve_main.cpp</text>
</a>
</g>
</g>
<!-- Node4&#45;&gt;Node8 -->
<g id="edge8" class="edge"><title>Node4&#45;&gt;Node8</title>
<path fill="none" stroke="midnightblue" d="M600.52,-115.808C671.515,-106.48 821.244,-86.8074 907.36,-75.4929"/>
<polygon fill="midnightblue" stroke="midnightblue" points="599.687,-112.387 590.229,-117.16 600.599,-119.327 599.687,-112.387"/>
</g>
<!-- Node9 -->
<g id="node10" class="node"><title>Node9</title>
<g id="a_node10"><a xlink:href="test__bkz_8cpp.html" target="_top" xlink:title="tests/test_bkz.cpp">
<polygon fill="white" stroke="black" points="0,-0.5 0,-19.5 98,-19.5 98,-0.5 0,-0.5"/>
<text text-anchor="middle" x="49" y="-7.5" font-family="Helvetica,sans-Serif" font-size="10.00">tests/test_bkz.cpp</text>
</a>
</g>
</g>
<!-- Node4&#45;&gt;Node9 -->
<g id="edge9" class="edge"><title>Node4&#45;&gt;Node9</title>
<path fill="none" stroke="midnightblue" d="M521.785,-112.145C402.439,-91.0998 368.777,-101.423 255,-76 186.925,-60.7889 109.026,-33.3684 71.5141,-19.5101"/>
<polygon fill="midnightblue" stroke="midnightblue" points="521.211,-115.598 531.673,-113.925 522.452,-108.709 521.211,-115.598"/>
</g>
<!-- Node10 -->
<g id="node11" class="node"><title>Node10</title>
<g id="a_node11"><a xlink:href="test__cvp_8cpp.html" target="_top" xlink:title="tests/test_cvp.cpp">
<polygon fill="white" stroke="black" points="116,-0.5 116,-19.5 214,-19.5 214,-0.5 116,-0.5"/>
<text text-anchor="middle" x="165" y="-7.5" font-family="Helvetica,sans-Serif" font-size="10.00">tests/test_cvp.cpp</text>
</a>
</g>
</g>
<!-- Node4&#45;&gt;Node10 -->
<g id="edge10" class="edge"><title>Node4&#45;&gt;Node10</title>
<path fill="none" stroke="midnightblue" d="M521.689,-112.076C427.33,-93.9694 399.648,-102.447 312,-76 262.311,-61.0066 207.226,-33.4874 180.817,-19.5589"/>
<polygon fill="midnightblue" stroke="midnightblue" points="521.164,-115.54 531.651,-114.038 522.516,-108.672 521.164,-115.54"/>
</g>
<!-- Node11 -->
<g id="node12" class="node"><title>Node11</title>
<g id="a_node12"><a xlink:href="test__lll_8cpp.html" target="_top" xlink:title="tests/test_lll.cpp">
<polygon fill="white" stroke="black" points="232.5,-0.5 232.5,-19.5 321.5,-19.5 321.5,-0.5 232.5,-0.5"/>
<text text-anchor="middle" x="277" y="-7.5" font-family="Helvetica,sans-Serif" font-size="10.00">tests/test_lll.cpp</text>
</a>
</g>
</g>
<!-- Node4&#45;&gt;Node11 -->
<g id="edge11" class="edge"><title>Node4&#45;&gt;Node11</title>
<path fill="none" stroke="midnightblue" d="M521.431,-112.037C439.965,-96.2736 411.121,-112.992 342,-76 315.829,-61.9935 293.374,-34.0271 283.052,-19.7803"/>
<polygon fill="midnightblue" stroke="midnightblue" points="521.134,-115.548 531.633,-114.126 522.539,-108.691 521.134,-115.548"/>
</g>
<!-- Node12 -->
<g id="node13" class="node"><title>Node12</title>
<g id="a_node13"><a xlink:href="test__lll__gram_8cpp.html" target="_top" xlink:title="tests/test_lll_gram.cpp">
<polygon fill="white" stroke="black" points="455,-0.5 455,-19.5 571,-19.5 571,-0.5 455,-0.5"/>
<text text-anchor="middle" x="513" y="-7.5" font-family="Helvetica,sans-Serif" font-size="10.00">tests/test_lll_gram.cpp</text>
</a>
</g>
</g>
<!-- Node4&#45;&gt;Node12 -->
<g id="edge12" class="edge"><title>Node4&#45;&gt;Node12</title>
<path fill="none" stroke="midnightblue" d="M536.631,-106.726C526.052,-99.089 514.777,-88.6398 509,-76 500.54,-57.4909 505.954,-32.8752 509.915,-19.8909"/>
<polygon fill="midnightblue" stroke="midnightblue" points="534.958,-109.818 545.217,-112.467 538.849,-103.999 534.958,-109.818"/>
</g>
<!-- Node13 -->
<g id="node14" class="node"><title>Node13</title>
<g id="a_node14"><a xlink:href="test__nr_8cpp.html" target="_top" xlink:title="tests/test_nr.cpp">
<polygon fill="white" stroke="black" points="589,-56.5 589,-75.5 679,-75.5 679,-56.5 589,-56.5"/>
<text text-anchor="middle" x="634" y="-63.5" font-family="Helvetica,sans-Serif" font-size="10.00">tests/test_nr.cpp</text>
</a>
</g>
</g>
<!-- Node4&#45;&gt;Node13 -->
<g id="edge13" class="edge"><title>Node4&#45;&gt;Node13</title>
<path fill="none" stroke="midnightblue" d="M581.142,-106.101C594.279,-96.3824 610.982,-84.0269 622.058,-75.8339"/>
<polygon fill="midnightblue" stroke="midnightblue" points="578.687,-103.563 572.729,-112.324 582.85,-109.191 578.687,-103.563"/>
</g>
<!-- Node14 -->
<g id="node15" class="node"><title>Node14</title>
<g id="a_node15"><a xlink:href="test__pruner_8cpp.html" target="_top" xlink:title="tests/test_pruner.cpp">
<polygon fill="white" stroke="black" points="697.5,-56.5 697.5,-75.5 806.5,-75.5 806.5,-56.5 697.5,-56.5"/>
<text text-anchor="middle" x="752" y="-63.5" font-family="Helvetica,sans-Serif" font-size="10.00">tests/test_pruner.cpp</text>
</a>
</g>
</g>
<!-- Node4&#45;&gt;Node14 -->
<g id="edge14" class="edge"><title>Node4&#45;&gt;Node14</title>
<path fill="none" stroke="midnightblue" d="M599.694,-110.06C635.738,-99.8699 688.74,-84.885 721.77,-75.5467"/>
<polygon fill="midnightblue" stroke="midnightblue" points="598.679,-106.71 590.009,-112.799 600.584,-113.446 598.679,-106.71"/>
</g>
<!-- Node15 -->
<g id="node16" class="node"><title>Node15</title>
<g id="a_node16"><a xlink:href="test__sieve_8cpp.html" target="_top" xlink:title="tests/test_sieve.cpp">
<polygon fill="white" stroke="black" points="589.5,-0.5 589.5,-19.5 694.5,-19.5 694.5,-0.5 589.5,-0.5"/>
<text text-anchor="middle" x="642" y="-7.5" font-family="Helvetica,sans-Serif" font-size="10.00">tests/test_sieve.cpp</text>
</a>
</g>
</g>
<!-- Node4&#45;&gt;Node15 -->
<g id="edge15" class="edge"><title>Node4&#45;&gt;Node15</title>
<path fill="none" stroke="midnightblue" d="M550.537,-103.327C543.845,-89.4992 537.96,-70.2856 547,-56 558.906,-37.186 581.04,-26.0841 600.949,-19.6165"/>
<polygon fill="midnightblue" stroke="midnightblue" points="547.538,-105.14 555.351,-112.296 553.706,-101.83 547.538,-105.14"/>
</g>
<!-- Node16 -->
<g id="node17" class="node"><title>Node16</title>
<g id="a_node17"><a xlink:href="test__svp_8cpp.html" target="_top" xlink:title="tests/test_svp.cpp">
<polygon fill="white" stroke="black" points="713,-0.5 713,-19.5 811,-19.5 811,-0.5 713,-0.5"/>
<text text-anchor="middle" x="762" y="-7.5" font-family="Helvetica,sans-Serif" font-size="10.00">tests/test_svp.cpp</text>
</a>
</g>
</g>
<!-- Node4&#45;&gt;Node16 -->
<g id="edge16" class="edge"><title>Node4&#45;&gt;Node16</title>
<path fill="none" stroke="midnightblue" d="M561.623,-102.119C563.126,-87.5555 567.545,-67.9424 580,-56 589.985,-46.426 666.967,-29.7234 717.562,-19.5818"/>
<polygon fill="midnightblue" stroke="midnightblue" points="558.106,-102.265 560.944,-112.473 565.091,-102.723 558.106,-102.265"/>
</g>
<!-- Node17 -->
<g id="node18" class="node"><title>Node17</title>
<g id="a_node18"><a xlink:href="test__utils_8h.html" target="_top" xlink:title="tests/test_utils.h">
<polygon fill="white" stroke="black" points="351.5,-56.5 351.5,-75.5 440.5,-75.5 440.5,-56.5 351.5,-56.5"/>
<text text-anchor="middle" x="396" y="-63.5" font-family="Helvetica,sans-Serif" font-size="10.00">tests/test_utils.h</text>
</a>
</g>
</g>
<!-- Node4&#45;&gt;Node17 -->
<g id="edge17" class="edge"><title>Node4&#45;&gt;Node17</title>
<path fill="none" stroke="midnightblue" d="M525.264,-109.304C494.173,-99.1294 449.853,-84.6246 422.022,-75.5164"/>
<polygon fill="midnightblue" stroke="midnightblue" points="524.263,-112.659 534.855,-112.444 526.44,-106.007 524.263,-112.659"/>
</g>
<!-- Node7 -->
<g id="node8" class="node"><title>Node7</title>
<g id="a_node8"><a xlink:href="main_8cpp.html" target="_top" xlink:title="fplll/main.cpp">
<polygon fill="white" stroke="black" points="829,-0.5 829,-19.5 903,-19.5 903,-0.5 829,-0.5"/>
<text text-anchor="middle" x="866" y="-7.5" font-family="Helvetica,sans-Serif" font-size="10.00">fplll/main.cpp</text>
</a>
</g>
</g>
<!-- Node6&#45;&gt;Node7 -->
<g id="edge7" class="edge"><title>Node6&#45;&gt;Node7</title>
<path fill="none" stroke="midnightblue" d="M860.15,-46.1005C861.644,-37.1357 863.357,-26.8579 864.541,-19.7511"/>
<polygon fill="midnightblue" stroke="midnightblue" points="856.678,-45.6436 858.486,-56.083 863.583,-46.7945 856.678,-45.6436"/>
</g>
<!-- Node17&#45;&gt;Node9 -->
<g id="edge18" class="edge"><title>Node17&#45;&gt;Node9</title>
<path fill="none" stroke="midnightblue" d="M341.43,-56.5079C274.635,-46.1132 162.505,-28.6635 98.2368,-18.6622"/>
<polygon fill="midnightblue" stroke="midnightblue" points="340.927,-59.9716 351.346,-58.051 342.003,-53.0548 340.927,-59.9716"/>
</g>
<!-- Node17&#45;&gt;Node10 -->
<g id="edge19" class="edge"><title>Node17&#45;&gt;Node10</title>
<path fill="none" stroke="midnightblue" d="M349.598,-54.1529C305.953,-43.95 241.49,-28.8809 201.431,-19.5164"/>
<polygon fill="midnightblue" stroke="midnightblue" points="348.863,-57.5753 359.397,-56.4435 350.457,-50.7591 348.863,-57.5753"/>
</g>
<!-- Node17&#45;&gt;Node11 -->
<g id="edge21" class="edge"><title>Node17&#45;&gt;Node11</title>
<path fill="none" stroke="midnightblue" d="M367.863,-52.2321C345.604,-42.1312 315.144,-28.3091 295.768,-19.5164"/>
<polygon fill="midnightblue" stroke="midnightblue" points="366.591,-55.4984 377.144,-56.4435 369.484,-49.124 366.591,-55.4984"/>
</g>
<!-- Node17&#45;&gt;Node12 -->
<g id="edge22" class="edge"><title>Node17&#45;&gt;Node12</title>
<path fill="none" stroke="midnightblue" d="M423.664,-52.2321C445.549,-42.1312 475.497,-28.3091 494.548,-19.5164"/>
<polygon fill="midnightblue" stroke="midnightblue" points="422.152,-49.075 414.539,-56.4435 425.085,-55.4308 422.152,-49.075"/>
</g>
<!-- Node17&#45;&gt;Node15 -->
<g id="edge23" class="edge"><title>Node17&#45;&gt;Node15</title>
<path fill="none" stroke="midnightblue" d="M444.829,-54.2815C491.316,-44.0769 560.363,-28.9203 603.203,-19.5164"/>
<polygon fill="midnightblue" stroke="midnightblue" points="443.996,-50.8808 434.979,-56.4435 445.497,-57.718 443.996,-50.8808"/>
</g>
<!-- Node17&#45;&gt;Node16 -->
<g id="edge24" class="edge"><title>Node17&#45;&gt;Node16</title>
<path fill="none" stroke="midnightblue" d="M450.995,-57.0375C512.439,-48.1182 614.866,-33.1813 703,-20 706.177,-19.5249 709.449,-19.0329 712.748,-18.535"/>
<polygon fill="midnightblue" stroke="midnightblue" points="450.147,-53.6237 440.753,-58.5235 451.152,-60.5512 450.147,-53.6237"/>
</g>
<!-- Node18 -->
<g id="node19" class="node"><title>Node18</title>
<g id="a_node19"><a xlink:href="test__gso_8cpp.html" target="_top" xlink:title="tests/test_gso.cpp">
<polygon fill="white" stroke="black" points="339,-0.5 339,-19.5 437,-19.5 437,-0.5 339,-0.5"/>
<text text-anchor="middle" x="388" y="-7.5" font-family="Helvetica,sans-Serif" font-size="10.00">tests/test_gso.cpp</text>
</a>
</g>
</g>
<!-- Node17&#45;&gt;Node18 -->
<g id="edge20" class="edge"><title>Node17&#45;&gt;Node18</title>
<path fill="none" stroke="midnightblue" d="M393.2,-46.1005C391.872,-37.1357 390.349,-26.8579 389.296,-19.7511"/>
<polygon fill="midnightblue" stroke="midnightblue" points="389.751,-46.7039 394.679,-56.083 396.676,-45.678 389.751,-46.7039"/>
</g>
<!-- Node20&#45;&gt;Node5 -->
<g id="edge28" class="edge"><title>Node20&#45;&gt;Node5</title>
<path fill="none" stroke="midnightblue" d="M914.545,-110.016C956.045,-99.7834 1017.04,-84.7437 1054.82,-75.4275"/>
<polygon fill="midnightblue" stroke="midnightblue" points="913.572,-106.651 904.701,-112.444 915.248,-113.448 913.572,-106.651"/>
</g>
</g>
</svg>
