<?xml version="1.0" encoding="UTF-8" standalone="no"?>
<!DOCTYPE svg PUBLIC "-//W3C//DTD SVG 1.1//EN"
 "http://www.w3.org/Graphics/SVG/1.1/DTD/svg11.dtd">
<!-- Generated by graphviz version 2.38.0 (20140413.2041)
 -->
<!-- Title: fplll/enum/enumerate_base.h Pages: 1 -->
<svg width="1126pt" height="397pt"
 viewBox="0.00 0.00 1126.00 397.00" xmlns="http://www.w3.org/2000/svg" xmlns:xlink="http://www.w3.org/1999/xlink">
<g id="graph0" class="graph" transform="scale(1 1) rotate(0) translate(4 393)">
<title>fplll/enum/enumerate_base.h</title>
<polygon fill="white" stroke="none" points="-4,4 -4,-393 1122,-393 1122,4 -4,4"/>
<!-- Node0 -->
<g id="node1" class="node"><title>Node0</title>
<polygon fill="#bfbfbf" stroke="black" points="697.5,-358.5 697.5,-388.5 804.5,-388.5 804.5,-358.5 697.5,-358.5"/>
<text text-anchor="start" x="705.5" y="-376.5" font-family="Helvetica,sans-Serif" font-size="10.00">fplll/enum/enumerate</text>
<text text-anchor="middle" x="751" y="-365.5" font-family="Helvetica,sans-Serif" font-size="10.00">_base.h</text>
</g>
<!-- Node1 -->
<g id="node2" class="node"><title>Node1</title>
<g id="a_node2"><a xlink:href="enumerate_8h.html" target="_top" xlink:title="fplll/enum/enumerate.h">
<polygon fill="white" stroke="black" points="611,-230 611,-249 727,-249 727,-230 611,-230"/>
<text text-anchor="middle" x="669" y="-237" font-family="Helvetica,sans-Serif" font-size="10.00">fplll/enum/enumerate.h</text>
</a>
</g>
</g>
<!-- Node0&#45;&gt;Node1 -->
<g id="edge1" class="edge"><title>Node0&#45;&gt;Node1</title>
<path fill="none" stroke="midnightblue" d="M718.046,-352.604C706.989,-344.409 695.56,-334.004 688,-322 673.211,-298.519 669.914,-264.709 669.192,-249.053"/>
<polygon fill="midnightblue" stroke="midnightblue" points="716.16,-355.556 726.358,-358.429 720.178,-349.824 716.16,-355.556"/>
</g>
<!-- Node18 -->
<g id="node19" class="node"><title>Node18</title>
<g id="a_node19"><a xlink:href="enumerate__ext_8h.html" target="_top" xlink:title="fplll/enum/enumerate\l_ext.h">
<polygon fill="white" stroke="black" points="697.5,-291.5 697.5,-321.5 804.5,-321.5 804.5,-291.5 697.5,-291.5"/>
<text text-anchor="start" x="705.5" y="-309.5" font-family="Helvetica,sans-Serif" font-size="10.00">fplll/enum/enumerate</text>
<text text-anchor="middle" x="751" y="-298.5" font-family="Helvetica,sans-Serif" font-size="10.00">_ext.h</text>
</a>
</g>
</g>
<!-- Node0&#45;&gt;Node18 -->
<g id="edge20" class="edge"><title>Node0&#45;&gt;Node18</title>
<path fill="none" stroke="midnightblue" d="M751,-348.108C751,-339.154 751,-329.323 751,-321.577"/>
<polygon fill="midnightblue" stroke="midnightblue" points="747.5,-348.396 751,-358.396 754.5,-348.396 747.5,-348.396"/>
</g>
<!-- Node20 -->
<g id="node21" class="node"><title>Node20</title>
<g id="a_node21"><a xlink:href="enumerate__base_8cpp.html" target="_top" xlink:title="fplll/enum/enumerate\l_base.cpp">
<polygon fill="white" stroke="black" points="822.5,-291.5 822.5,-321.5 929.5,-321.5 929.5,-291.5 822.5,-291.5"/>
<text text-anchor="start" x="830.5" y="-309.5" font-family="Helvetica,sans-Serif" font-size="10.00">fplll/enum/enumerate</text>
<text text-anchor="middle" x="876" y="-298.5" font-family="Helvetica,sans-Serif" font-size="10.00">_base.cpp</text>
</a>
</g>
</g>
<!-- Node0&#45;&gt;Node20 -->
<g id="edge23" class="edge"><title>Node0&#45;&gt;Node20</title>
<path fill="none" stroke="midnightblue" d="M787.126,-353.714C806.84,-343.463 830.841,-330.983 848.93,-321.577"/>
<polygon fill="midnightblue" stroke="midnightblue" points="785.381,-350.677 778.123,-358.396 788.61,-356.888 785.381,-350.677"/>
</g>
<!-- Node2 -->
<g id="node3" class="node"><title>Node2</title>
<g id="a_node3"><a xlink:href="bkz_8h.html" target="_top" xlink:title="fplll/bkz.h">
<polygon fill="white" stroke="black" points="584.5,-168.5 584.5,-187.5 643.5,-187.5 643.5,-168.5 584.5,-168.5"/>
<text text-anchor="middle" x="614" y="-175.5" font-family="Helvetica,sans-Serif" font-size="10.00">fplll/bkz.h</text>
</a>
</g>
</g>
<!-- Node1&#45;&gt;Node2 -->
<g id="edge2" class="edge"><title>Node1&#45;&gt;Node2</title>
<path fill="none" stroke="midnightblue" d="M654.208,-222.497C643.798,-211.236 630.273,-196.604 621.866,-187.509"/>
<polygon fill="midnightblue" stroke="midnightblue" points="651.762,-225.008 661.12,-229.975 656.902,-220.256 651.762,-225.008"/>
</g>
<!-- Node3 -->
<g id="node4" class="node"><title>Node3</title>
<g id="a_node4"><a xlink:href="bkz_8cpp.html" target="_top" xlink:title="fplll/bkz.cpp">
<polygon fill="white" stroke="black" points="503.5,-112.5 503.5,-131.5 572.5,-131.5 572.5,-112.5 503.5,-112.5"/>
<text text-anchor="middle" x="538" y="-119.5" font-family="Helvetica,sans-Serif" font-size="10.00">fplll/bkz.cpp</text>
</a>
</g>
</g>
<!-- Node1&#45;&gt;Node3 -->
<g id="edge16" class="edge"><title>Node1&#45;&gt;Node3</title>
<path fill="none" stroke="midnightblue" d="M635.258,-225.903C615.904,-217.417 592.127,-204.713 575,-188 557.9,-171.314 546.267,-145.035 541.076,-131.573"/>
<polygon fill="midnightblue" stroke="midnightblue" points="634.061,-229.196 644.636,-229.842 636.772,-222.743 634.061,-229.196"/>
</g>
<!-- Node16 -->
<g id="node17" class="node"><title>Node16</title>
<g id="a_node17"><a xlink:href="enumerate_8cpp.html" target="_top" xlink:title="fplll/enum/enumerate.cpp">
<polygon fill="white" stroke="black" points="662,-168.5 662,-187.5 788,-187.5 788,-168.5 662,-168.5"/>
<text text-anchor="middle" x="725" y="-175.5" font-family="Helvetica,sans-Serif" font-size="10.00">fplll/enum/enumerate.cpp</text>
</a>
</g>
</g>
<!-- Node1&#45;&gt;Node16 -->
<g id="edge17" class="edge"><title>Node1&#45;&gt;Node16</title>
<path fill="none" stroke="midnightblue" d="M684.061,-222.497C694.661,-211.236 708.431,-196.604 716.991,-187.509"/>
<polygon fill="midnightblue" stroke="midnightblue" points="681.328,-220.294 677.023,-229.975 686.426,-225.092 681.328,-220.294"/>
</g>
<!-- Node17 -->
<g id="node18" class="node"><title>Node17</title>
<g id="a_node18"><a xlink:href="svpcvp_8cpp.html" target="_top" xlink:title="fplll/svpcvp.cpp">
<polygon fill="white" stroke="black" points="975.5,-112.5 975.5,-131.5 1060.5,-131.5 1060.5,-112.5 975.5,-112.5"/>
<text text-anchor="middle" x="1018" y="-119.5" font-family="Helvetica,sans-Serif" font-size="10.00">fplll/svpcvp.cpp</text>
</a>
</g>
</g>
<!-- Node1&#45;&gt;Node17 -->
<g id="edge18" class="edge"><title>Node1&#45;&gt;Node17</title>
<path fill="none" stroke="midnightblue" d="M704.69,-226.689C775.038,-203.407 930.128,-152.081 991.883,-131.643"/>
<polygon fill="midnightblue" stroke="midnightblue" points="703.341,-223.448 694.947,-229.913 705.54,-230.094 703.341,-223.448"/>
</g>
<!-- Node2&#45;&gt;Node3 -->
<g id="edge3" class="edge"><title>Node2&#45;&gt;Node3</title>
<path fill="none" stroke="midnightblue" d="M593.424,-162.38C579.688,-152.62 562.075,-140.106 550.433,-131.834"/>
<polygon fill="midnightblue" stroke="midnightblue" points="591.61,-165.385 601.789,-168.324 595.665,-159.679 591.61,-165.385"/>
</g>
<!-- Node4 -->
<g id="node5" class="node"><title>Node4</title>
<g id="a_node5"><a xlink:href="fplll_8h.html" target="_top" xlink:title="fplll/fplll.h">
<polygon fill="white" stroke="black" points="591,-112.5 591,-131.5 649,-131.5 649,-112.5 591,-112.5"/>
<text text-anchor="middle" x="620" y="-119.5" font-family="Helvetica,sans-Serif" font-size="10.00">fplll/fplll.h</text>
</a>
</g>
</g>
<!-- Node2&#45;&gt;Node4 -->
<g id="edge4" class="edge"><title>Node2&#45;&gt;Node4</title>
<path fill="none" stroke="midnightblue" d="M616.1,-158.101C617.096,-149.136 618.238,-138.858 619.028,-131.751"/>
<polygon fill="midnightblue" stroke="midnightblue" points="612.617,-157.758 614.991,-168.083 619.574,-158.531 612.617,-157.758"/>
</g>
<!-- Node5 -->
<g id="node6" class="node"><title>Node5</title>
<g id="a_node6"><a xlink:href="fplll_8cpp.html" target="_top" xlink:title="fplll/fplll.cpp">
<polygon fill="white" stroke="black" points="1050,-56.5 1050,-75.5 1118,-75.5 1118,-56.5 1050,-56.5"/>
<text text-anchor="middle" x="1084" y="-63.5" font-family="Helvetica,sans-Serif" font-size="10.00">fplll/fplll.cpp</text>
</a>
</g>
</g>
<!-- Node4&#45;&gt;Node5 -->
<g id="edge5" class="edge"><title>Node4&#45;&gt;Node5</title>
<path fill="none" stroke="midnightblue" d="M659.578,-118.096C734.387,-112.313 901.55,-97.9901 1041,-76 1043.86,-75.5485 1046.82,-75.0328 1049.79,-74.4818"/>
<polygon fill="midnightblue" stroke="midnightblue" points="658.929,-114.635 649.225,-118.887 659.463,-121.615 658.929,-114.635"/>
</g>
<!-- Node6 -->
<g id="node7" class="node"><title>Node6</title>
<g id="a_node7"><a xlink:href="main_8h.html" target="_top" xlink:title="fplll/main.h">
<polygon fill="white" stroke="black" points="5,-56.5 5,-75.5 69,-75.5 69,-56.5 5,-56.5"/>
<text text-anchor="middle" x="37" y="-63.5" font-family="Helvetica,sans-Serif" font-size="10.00">fplll/main.h</text>
</a>
</g>
</g>
<!-- Node4&#45;&gt;Node6 -->
<g id="edge6" class="edge"><title>Node4&#45;&gt;Node6</title>
<path fill="none" stroke="midnightblue" d="M580.649,-112.228C357.581,-79.5494 296.566,-107.641 78,-76 75.1151,-75.5824 72.1307,-75.0755 69.1484,-74.5175"/>
<polygon fill="midnightblue" stroke="midnightblue" points="580.3,-115.714 590.706,-113.726 581.331,-108.791 580.3,-115.714"/>
</g>
<!-- Node8 -->
<g id="node9" class="node"><title>Node8</title>
<g id="a_node9"><a xlink:href="sieve__main_8cpp.html" target="_top" xlink:title="fplll/sieve/sieve_main.cpp">
<polygon fill="white" stroke="black" points="87.5,-56.5 87.5,-75.5 216.5,-75.5 216.5,-56.5 87.5,-56.5"/>
<text text-anchor="middle" x="152" y="-63.5" font-family="Helvetica,sans-Serif" font-size="10.00">fplll/sieve/sieve_main.cpp</text>
</a>
</g>
</g>
<!-- Node4&#45;&gt;Node8 -->
<g id="edge8" class="edge"><title>Node4&#45;&gt;Node8</title>
<path fill="none" stroke="midnightblue" d="M580.625,-112.16C422.811,-86.4142 380.378,-93.2137 226,-76 222.913,-75.6558 219.755,-75.297 216.565,-74.9295"/>
<polygon fill="midnightblue" stroke="midnightblue" points="580.255,-115.646 590.691,-113.82 581.394,-108.739 580.255,-115.646"/>
</g>
<!-- Node9 -->
<g id="node10" class="node"><title>Node9</title>
<g id="a_node10"><a xlink:href="test__bkz_8cpp.html" target="_top" xlink:title="tests/test_bkz.cpp">
<polygon fill="white" stroke="black" points="235,-56.5 235,-75.5 333,-75.5 333,-56.5 235,-56.5"/>
<text text-anchor="middle" x="284" y="-63.5" font-family="Helvetica,sans-Serif" font-size="10.00">tests/test_bkz.cpp</text>
</a>
</g>
</g>
<!-- Node4&#45;&gt;Node9 -->
<g id="edge9" class="edge"><title>Node4&#45;&gt;Node9</title>
<path fill="none" stroke="midnightblue" d="M580.762,-112.092C473.809,-91.9127 445.076,-91.7602 342,-76 339.079,-75.5534 336.075,-75.0924 333.045,-74.6261"/>
<polygon fill="midnightblue" stroke="midnightblue" points="580.186,-115.545 590.664,-113.974 581.494,-108.668 580.186,-115.545"/>
</g>
<!-- Node10 -->
<g id="node11" class="node"><title>Node10</title>
<g id="a_node11"><a xlink:href="test__cvp_8cpp.html" target="_top" xlink:title="tests/test_cvp.cpp">
<polygon fill="white" stroke="black" points="351,-56.5 351,-75.5 449,-75.5 449,-56.5 351,-56.5"/>
<text text-anchor="middle" x="400" y="-63.5" font-family="Helvetica,sans-Serif" font-size="10.00">tests/test_cvp.cpp</text>
</a>
</g>
</g>
<!-- Node4&#45;&gt;Node10 -->
<g id="edge10" class="edge"><title>Node4&#45;&gt;Node10</title>
<path fill="none" stroke="midnightblue" d="M581.036,-111.436C539.571,-101.258 474.574,-85.3045 434.781,-75.5371"/>
<polygon fill="midnightblue" stroke="midnightblue" points="580.24,-114.844 590.786,-113.829 581.908,-108.046 580.24,-114.844"/>
</g>
<!-- Node11 -->
<g id="node12" class="node"><title>Node11</title>
<g id="a_node12"><a xlink:href="test__lll_8cpp.html" target="_top" xlink:title="tests/test_lll.cpp">
<polygon fill="white" stroke="black" points="467.5,-56.5 467.5,-75.5 556.5,-75.5 556.5,-56.5 467.5,-56.5"/>
<text text-anchor="middle" x="512" y="-63.5" font-family="Helvetica,sans-Serif" font-size="10.00">tests/test_lll.cpp</text>
</a>
</g>
</g>
<!-- Node4&#45;&gt;Node11 -->
<g id="edge11" class="edge"><title>Node4&#45;&gt;Node11</title>
<path fill="none" stroke="midnightblue" d="M593.452,-107.726C573.454,-97.7271 546.613,-84.3065 529.309,-75.6545"/>
<polygon fill="midnightblue" stroke="midnightblue" points="592.138,-110.982 602.648,-112.324 595.269,-104.721 592.138,-110.982"/>
</g>
<!-- Node12 -->
<g id="node13" class="node"><title>Node12</title>
<g id="a_node13"><a xlink:href="test__nr_8cpp.html" target="_top" xlink:title="tests/test_nr.cpp">
<polygon fill="white" stroke="black" points="575,-56.5 575,-75.5 665,-75.5 665,-56.5 575,-56.5"/>
<text text-anchor="middle" x="620" y="-63.5" font-family="Helvetica,sans-Serif" font-size="10.00">tests/test_nr.cpp</text>
</a>
</g>
</g>
<!-- Node4&#45;&gt;Node12 -->
<g id="edge12" class="edge"><title>Node4&#45;&gt;Node12</title>
<path fill="none" stroke="midnightblue" d="M620,-101.805C620,-92.9102 620,-82.7798 620,-75.7511"/>
<polygon fill="midnightblue" stroke="midnightblue" points="616.5,-102.083 620,-112.083 623.5,-102.083 616.5,-102.083"/>
</g>
<!-- Node13 -->
<g id="node14" class="node"><title>Node13</title>
<g id="a_node14"><a xlink:href="test__pruner_8cpp.html" target="_top" xlink:title="tests/test_pruner.cpp">
<polygon fill="white" stroke="black" points="683.5,-56.5 683.5,-75.5 792.5,-75.5 792.5,-56.5 683.5,-56.5"/>
<text text-anchor="middle" x="738" y="-63.5" font-family="Helvetica,sans-Serif" font-size="10.00">tests/test_pruner.cpp</text>
</a>
</g>
</g>
<!-- Node4&#45;&gt;Node13 -->
<g id="edge13" class="edge"><title>Node4&#45;&gt;Node13</title>
<path fill="none" stroke="midnightblue" d="M647.9,-108.232C669.973,-98.1312 700.176,-84.3091 719.39,-75.5164"/>
<polygon fill="midnightblue" stroke="midnightblue" points="646.334,-105.1 638.697,-112.444 649.247,-111.465 646.334,-105.1"/>
</g>
<!-- Node14 -->
<g id="node15" class="node"><title>Node14</title>
<g id="a_node15"><a xlink:href="test__sieve_8cpp.html" target="_top" xlink:title="tests/test_sieve.cpp">
<polygon fill="white" stroke="black" points="810.5,-56.5 810.5,-75.5 915.5,-75.5 915.5,-56.5 810.5,-56.5"/>
<text text-anchor="middle" x="863" y="-63.5" font-family="Helvetica,sans-Serif" font-size="10.00">tests/test_sieve.cpp</text>
</a>
</g>
</g>
<!-- Node4&#45;&gt;Node14 -->
<g id="edge14" class="edge"><title>Node4&#45;&gt;Node14</title>
<path fill="none" stroke="midnightblue" d="M659.101,-112.311C704.559,-102.209 779.118,-85.6404 824.373,-75.5837"/>
<polygon fill="midnightblue" stroke="midnightblue" points="658.314,-108.9 649.311,-114.486 659.833,-115.734 658.314,-108.9"/>
</g>
<!-- Node15 -->
<g id="node16" class="node"><title>Node15</title>
<g id="a_node16"><a xlink:href="test__svp_8cpp.html" target="_top" xlink:title="tests/test_svp.cpp">
<polygon fill="white" stroke="black" points="934,-56.5 934,-75.5 1032,-75.5 1032,-56.5 934,-56.5"/>
<text text-anchor="middle" x="983" y="-63.5" font-family="Helvetica,sans-Serif" font-size="10.00">tests/test_svp.cpp</text>
</a>
</g>
</g>
<!-- Node4&#45;&gt;Node15 -->
<g id="edge15" class="edge"><title>Node4&#45;&gt;Node15</title>
<path fill="none" stroke="midnightblue" d="M659.225,-115.308C717.305,-106.859 829.593,-90.4403 925,-76 927.922,-75.5578 930.926,-75.1002 933.956,-74.6366"/>
<polygon fill="midnightblue" stroke="midnightblue" points="658.42,-111.888 649.028,-116.791 659.427,-118.815 658.42,-111.888"/>
</g>
<!-- Node7 -->
<g id="node8" class="node"><title>Node7</title>
<g id="a_node8"><a xlink:href="main_8cpp.html" target="_top" xlink:title="fplll/main.cpp">
<polygon fill="white" stroke="black" points="0,-0.5 0,-19.5 74,-19.5 74,-0.5 0,-0.5"/>
<text text-anchor="middle" x="37" y="-7.5" font-family="Helvetica,sans-Serif" font-size="10.00">fplll/main.cpp</text>
</a>
</g>
</g>
<!-- Node6&#45;&gt;Node7 -->
<g id="edge7" class="edge"><title>Node6&#45;&gt;Node7</title>
<path fill="none" stroke="midnightblue" d="M37,-45.8045C37,-36.9102 37,-26.7798 37,-19.7511"/>
<polygon fill="midnightblue" stroke="midnightblue" points="33.5001,-46.083 37,-56.083 40.5001,-46.083 33.5001,-46.083"/>
</g>
<!-- Node17&#45;&gt;Node5 -->
<g id="edge19" class="edge"><title>Node17&#45;&gt;Node5</title>
<path fill="none" stroke="midnightblue" d="M1036.55,-105.82C1048.38,-96.1452 1063.29,-83.9481 1073.2,-75.8339"/>
<polygon fill="midnightblue" stroke="midnightblue" points="1034.13,-103.283 1028.6,-112.324 1038.56,-108.7 1034.13,-103.283"/>
</g>
<!-- Node18&#45;&gt;Node1 -->
<g id="edge21" class="edge"><title>Node18&#45;&gt;Node1</title>
<path fill="none" stroke="midnightblue" d="M725.149,-285.008C709.926,-272.941 691.461,-258.305 679.968,-249.195"/>
<polygon fill="midnightblue" stroke="midnightblue" points="723.196,-287.927 733.207,-291.396 727.545,-282.441 723.196,-287.927"/>
</g>
<!-- Node19 -->
<g id="node20" class="node"><title>Node19</title>
<g id="a_node20"><a xlink:href="enumerate__ext_8cpp.html" target="_top" xlink:title="fplll/enum/enumerate\l_ext.cpp">
<polygon fill="white" stroke="black" points="745.5,-224.5 745.5,-254.5 852.5,-254.5 852.5,-224.5 745.5,-224.5"/>
<text text-anchor="start" x="753.5" y="-242.5" font-family="Helvetica,sans-Serif" font-size="10.00">fplll/enum/enumerate</text>
<text text-anchor="middle" x="799" y="-231.5" font-family="Helvetica,sans-Serif" font-size="10.00">_ext.cpp</text>
</a>
</g>
</g>
<!-- Node18&#45;&gt;Node19 -->
<g id="edge22" class="edge"><title>Node18&#45;&gt;Node19</title>
<path fill="none" stroke="midnightblue" d="M767.499,-283.157C774.499,-273.679 782.445,-262.919 788.605,-254.577"/>
<polygon fill="midnightblue" stroke="midnightblue" points="764.54,-281.272 761.415,-291.396 770.171,-285.431 764.54,-281.272"/>
</g>
</g>
</svg>
