<?xml version="1.0" encoding="UTF-8" standalone="no"?>
<!DOCTYPE svg PUBLIC "-//W3C//DTD SVG 1.1//EN"
 "http://www.w3.org/Graphics/SVG/1.1/DTD/svg11.dtd">
<!-- Generated by graphviz version 2.40.1 (20161225.0304)
 -->
<!-- Title: fplll/enum/enumerate_base.h Pages: 1 -->
<svg width="1765pt" height="430pt"
 viewBox="0.00 0.00 1765.00 430.00" xmlns="http://www.w3.org/2000/svg" xmlns:xlink="http://www.w3.org/1999/xlink">
<g id="graph0" class="graph" transform="scale(1 1) rotate(0) translate(4 426)">
<title>fplll/enum/enumerate_base.h</title>
<polygon fill="#ffffff" stroke="transparent" points="-4,4 -4,-426 1761,-426 1761,4 -4,4"/>
<!-- Node0 -->
<g id="node1" class="node">
<title>Node0</title>
<polygon fill="#bfbfbf" stroke="#000000" points="1013.5,-391.5 1013.5,-421.5 1120.5,-421.5 1120.5,-391.5 1013.5,-391.5"/>
<text text-anchor="start" x="1021.5" y="-409.5" font-family="Helvetica,sans-Serif" font-size="10.00" fill="#000000">fplll/enum/enumerate</text>
<text text-anchor="middle" x="1067" y="-398.5" font-family="Helvetica,sans-Serif" font-size="10.00" fill="#000000">_base.h</text>
</g>
<!-- Node1 -->
<g id="node2" class="node">
<title>Node1</title>
<g id="a_node2"><a xlink:href="enumerate_8h.html" target="_top" xlink:title="fplll/enum/enumerate.h">
<polygon fill="#ffffff" stroke="#000000" points="897,-263 897,-282 1013,-282 1013,-263 897,-263"/>
<text text-anchor="middle" x="955" y="-270" font-family="Helvetica,sans-Serif" font-size="10.00" fill="#000000">fplll/enum/enumerate.h</text>
</a>
</g>
</g>
<!-- Node0&#45;&gt;Node1 -->
<g id="edge1" class="edge">
<title>Node0&#45;&gt;Node1</title>
<path fill="none" stroke="#191970" d="M1036.7514,-385.2677C1025.6842,-376.6395 1013.5474,-366.0914 1004,-355 983.677,-331.3903 966.899,-298.2522 959.331,-282.1038"/>
<polygon fill="#191970" stroke="#191970" points="1034.8593,-388.2251 1044.9454,-391.4688 1039.0835,-382.6433 1034.8593,-388.2251"/>
</g>
<!-- Node31 -->
<g id="node32" class="node">
<title>Node31</title>
<g id="a_node32"><a xlink:href="enumerate__ext_8h.html" target="_top" xlink:title="fplll/enum/enumerate\l_ext.h">
<polygon fill="#ffffff" stroke="#000000" points="1013.5,-324.5 1013.5,-354.5 1120.5,-354.5 1120.5,-324.5 1013.5,-324.5"/>
<text text-anchor="start" x="1021.5" y="-342.5" font-family="Helvetica,sans-Serif" font-size="10.00" fill="#000000">fplll/enum/enumerate</text>
<text text-anchor="middle" x="1067" y="-331.5" font-family="Helvetica,sans-Serif" font-size="10.00" fill="#000000">_ext.h</text>
</a>
</g>
</g>
<!-- Node0&#45;&gt;Node31 -->
<g id="edge47" class="edge">
<title>Node0&#45;&gt;Node31</title>
<path fill="none" stroke="#191970" d="M1067,-381.0249C1067,-372.128 1067,-362.4287 1067,-354.6432"/>
<polygon fill="#191970" stroke="#191970" points="1063.5001,-381.2966 1067,-391.2967 1070.5001,-381.2967 1063.5001,-381.2966"/>
</g>
<!-- Node37 -->
<g id="node38" class="node">
<title>Node37</title>
<g id="a_node38"><a xlink:href="enumerate__base_8cpp.html" target="_top" xlink:title="fplll/enum/enumerate\l_base.cpp">
<polygon fill="#ffffff" stroke="#000000" points="1138.5,-324.5 1138.5,-354.5 1245.5,-354.5 1245.5,-324.5 1138.5,-324.5"/>
<text text-anchor="start" x="1146.5" y="-342.5" font-family="Helvetica,sans-Serif" font-size="10.00" fill="#000000">fplll/enum/enumerate</text>
<text text-anchor="middle" x="1192" y="-331.5" font-family="Helvetica,sans-Serif" font-size="10.00" fill="#000000">_base.cpp</text>
</a>
</g>
</g>
<!-- Node0&#45;&gt;Node37 -->
<g id="edge56" class="edge">
<title>Node0&#45;&gt;Node37</title>
<path fill="none" stroke="#191970" d="M1104.0613,-386.6352C1123.1156,-376.422 1145.9735,-364.1702 1163.6087,-354.7177"/>
<polygon fill="#191970" stroke="#191970" points="1102.2127,-383.6549 1095.0524,-391.4639 1105.5197,-389.8245 1102.2127,-383.6549"/>
</g>
<!-- Node2 -->
<g id="node3" class="node">
<title>Node2</title>
<g id="a_node3"><a xlink:href="bkz_8h.html" target="_top" xlink:title="fplll/bkz.h">
<polygon fill="#ffffff" stroke="#000000" points="810.5,-196 810.5,-215 869.5,-215 869.5,-196 810.5,-196"/>
<text text-anchor="middle" x="840" y="-203" font-family="Helvetica,sans-Serif" font-size="10.00" fill="#000000">fplll/bkz.h</text>
</a>
</g>
</g>
<!-- Node1&#45;&gt;Node2 -->
<g id="edge2" class="edge">
<title>Node1&#45;&gt;Node2</title>
<path fill="none" stroke="#191970" d="M929.6159,-257.711C907.3276,-244.7256 875.5615,-226.2184 856.4461,-215.0817"/>
<polygon fill="#191970" stroke="#191970" points="928.1208,-260.8906 938.5233,-262.9005 931.6447,-254.8423 928.1208,-260.8906"/>
</g>
<!-- Node3 -->
<g id="node4" class="node">
<title>Node3</title>
<g id="a_node4"><a xlink:href="bkz_8cpp.html" target="_top" xlink:title="fplll/bkz.cpp">
<polygon fill="#ffffff" stroke="#000000" points="977.5,-129 977.5,-148 1046.5,-148 1046.5,-129 977.5,-129"/>
<text text-anchor="middle" x="1012" y="-136" font-family="Helvetica,sans-Serif" font-size="10.00" fill="#000000">fplll/bkz.cpp</text>
</a>
</g>
</g>
<!-- Node1&#45;&gt;Node3 -->
<g id="edge43" class="edge">
<title>Node1&#45;&gt;Node3</title>
<path fill="none" stroke="#191970" d="M985.569,-257.7623C999.7143,-249.1759 1015.1053,-236.8824 1023,-221 1034.9631,-196.9329 1023.7355,-164.2871 1016.7009,-148.2334"/>
<polygon fill="#191970" stroke="#191970" points="983.5235,-254.8983 976.5447,-262.87 986.9715,-260.9902 983.5235,-254.8983"/>
</g>
<!-- Node29 -->
<g id="node30" class="node">
<title>Node29</title>
<g id="a_node30"><a xlink:href="enumerate_8cpp.html" target="_top" xlink:title="fplll/enum/enumerate.cpp">
<polygon fill="#ffffff" stroke="#000000" points="888,-196 888,-215 1014,-215 1014,-196 888,-196"/>
<text text-anchor="middle" x="951" y="-203" font-family="Helvetica,sans-Serif" font-size="10.00" fill="#000000">fplll/enum/enumerate.cpp</text>
</a>
</g>
</g>
<!-- Node1&#45;&gt;Node29 -->
<g id="edge44" class="edge">
<title>Node1&#45;&gt;Node29</title>
<path fill="none" stroke="#191970" d="M953.8124,-252.6079C953.0725,-240.214 952.1538,-224.8263 951.572,-215.0817"/>
<polygon fill="#191970" stroke="#191970" points="950.3371,-253.1269 954.4269,-262.9005 957.3246,-252.7097 950.3371,-253.1269"/>
</g>
<!-- Node30 -->
<g id="node31" class="node">
<title>Node30</title>
<g id="a_node31"><a xlink:href="svpcvp_8cpp.html" target="_top" xlink:title="fplll/svpcvp.cpp">
<polygon fill="#ffffff" stroke="#000000" points="320.5,-129 320.5,-148 405.5,-148 405.5,-129 320.5,-129"/>
<text text-anchor="middle" x="363" y="-136" font-family="Helvetica,sans-Serif" font-size="10.00" fill="#000000">fplll/svpcvp.cpp</text>
</a>
</g>
</g>
<!-- Node1&#45;&gt;Node30 -->
<g id="edge45" class="edge">
<title>Node1&#45;&gt;Node30</title>
<path fill="none" stroke="#191970" d="M902.8773,-260.702C787.2447,-234.5284 511.1206,-172.0273 405.282,-148.0706"/>
<polygon fill="#191970" stroke="#191970" points="902.3734,-264.1764 912.8994,-262.9705 903.9188,-257.3491 902.3734,-264.1764"/>
</g>
<!-- Node2&#45;&gt;Node3 -->
<g id="edge3" class="edge">
<title>Node2&#45;&gt;Node3</title>
<path fill="none" stroke="#191970" d="M873.3938,-192.2056C875.2898,-191.4578 877.1687,-190.7185 879,-190 916.5723,-175.2597 960.2182,-158.4116 986.9712,-148.1157"/>
<polygon fill="#191970" stroke="#191970" points="871.9224,-189.0237 863.9119,-195.9578 874.4982,-195.5326 871.9224,-189.0237"/>
</g>
<!-- Node4 -->
<g id="node5" class="node">
<title>Node4</title>
<g id="a_node5"><a xlink:href="fplll_8h.html" target="_top" xlink:title="fplll/fplll.h">
<polygon fill="#ffffff" stroke="#000000" points="841,-129 841,-148 899,-148 899,-129 841,-129"/>
<text text-anchor="middle" x="870" y="-136" font-family="Helvetica,sans-Serif" font-size="10.00" fill="#000000">fplll/fplll.h</text>
</a>
</g>
</g>
<!-- Node2&#45;&gt;Node4 -->
<g id="edge4" class="edge">
<title>Node2&#45;&gt;Node4</title>
<path fill="none" stroke="#191970" d="M848.4012,-186.7374C854.0322,-174.1614 861.2129,-158.1246 865.7097,-148.0817"/>
<polygon fill="#191970" stroke="#191970" points="845.1906,-185.3433 844.2983,-195.9005 851.5794,-188.204 845.1906,-185.3433"/>
</g>
<!-- Node5 -->
<g id="node6" class="node">
<title>Node5</title>
<g id="a_node6"><a xlink:href="fplll_8cpp.html" target="_top" xlink:title="fplll/fplll.cpp">
<polygon fill="#ffffff" stroke="#000000" points="0,-62 0,-81 68,-81 68,-62 0,-62"/>
<text text-anchor="middle" x="34" y="-69" font-family="Helvetica,sans-Serif" font-size="10.00" fill="#000000">fplll/fplll.cpp</text>
</a>
</g>
</g>
<!-- Node4&#45;&gt;Node5 -->
<g id="edge5" class="edge">
<title>Node4&#45;&gt;Node5</title>
<path fill="none" stroke="#191970" d="M830.7786,-137.4096C691.8437,-133.3203 223.6073,-117.5454 77,-87 70.319,-85.608 63.274,-83.402 56.8637,-81.0861"/>
<polygon fill="#191970" stroke="#191970" points="830.8577,-140.9133 840.9553,-137.7055 831.0612,-133.9162 830.8577,-140.9133"/>
</g>
<!-- Node6 -->
<g id="node7" class="node">
<title>Node6</title>
<g id="a_node7"><a xlink:href="main_8h.html" target="_top" xlink:title="fplll/main.h">
<polygon fill="#ffffff" stroke="#000000" points="1688,-62 1688,-81 1752,-81 1752,-62 1688,-62"/>
<text text-anchor="middle" x="1720" y="-69" font-family="Helvetica,sans-Serif" font-size="10.00" fill="#000000">fplll/main.h</text>
</a>
</g>
</g>
<!-- Node4&#45;&gt;Node6 -->
<g id="edge6" class="edge">
<title>Node4&#45;&gt;Node6</title>
<path fill="none" stroke="#191970" d="M909.1263,-131.3354C927.0169,-128.3112 948.5222,-125.0277 968,-123 1282.7042,-90.2392 1369.286,-151.7241 1679,-87 1685.406,-85.6613 1692.135,-83.4728 1698.247,-81.1565"/>
<polygon fill="#191970" stroke="#191970" points="908.3117,-127.9242 899.0529,-133.0745 909.5026,-134.8221 908.3117,-127.9242"/>
</g>
<!-- Node8 -->
<g id="node9" class="node">
<title>Node8</title>
<g id="a_node9"><a xlink:href="pruner_8cpp.html" target="_top" xlink:title="fplll/pruner/pruner.cpp">
<polygon fill="#ffffff" stroke="#000000" points="336,-.5 336,-19.5 446,-19.5 446,-.5 336,-.5"/>
<text text-anchor="middle" x="391" y="-7.5" font-family="Helvetica,sans-Serif" font-size="10.00" fill="#000000">fplll/pruner/pruner.cpp</text>
</a>
</g>
</g>
<!-- Node4&#45;&gt;Node8 -->
<g id="edge8" class="edge">
<title>Node4&#45;&gt;Node8</title>
<path fill="none" stroke="#191970" d="M830.4836,-134.6125C757.2869,-126.9915 603.6387,-108.9063 555,-87 535.1267,-78.0493 535.9455,-66.7764 517,-56 488.2567,-39.6505 452.6331,-27.2856 426.6056,-19.5152"/>
<polygon fill="#191970" stroke="#191970" points="830.3718,-138.1194 840.6773,-135.6602 831.0876,-131.1561 830.3718,-138.1194"/>
</g>
<!-- Node9 -->
<g id="node10" class="node">
<title>Node9</title>
<g id="a_node10"><a xlink:href="pruner__cost_8cpp.html" target="_top" xlink:title="fplll/pruner/pruner\l_cost.cpp">
<polygon fill="#ffffff" stroke="#000000" points="564,-56.5 564,-86.5 656,-86.5 656,-56.5 564,-56.5"/>
<text text-anchor="start" x="572" y="-74.5" font-family="Helvetica,sans-Serif" font-size="10.00" fill="#000000">fplll/pruner/pruner</text>
<text text-anchor="middle" x="610" y="-63.5" font-family="Helvetica,sans-Serif" font-size="10.00" fill="#000000">_cost.cpp</text>
</a>
</g>
</g>
<!-- Node4&#45;&gt;Node9 -->
<g id="edge9" class="edge">
<title>Node4&#45;&gt;Node9</title>
<path fill="none" stroke="#191970" d="M830.8053,-129.0063C789.4839,-118.915 722.5321,-102.33 665,-87 662.1242,-86.2337 659.1671,-85.4342 656.1872,-84.6197"/>
<polygon fill="#191970" stroke="#191970" points="830.1927,-132.4594 840.7371,-131.4273 831.8505,-125.6585 830.1927,-132.4594"/>
</g>
<!-- Node10 -->
<g id="node11" class="node">
<title>Node10</title>
<g id="a_node11"><a xlink:href="pruner__optimize_8cpp.html" target="_top" xlink:title="fplll/pruner/pruner\l_optimize.cpp">
<polygon fill="#ffffff" stroke="#000000" points="674,-56.5 674,-86.5 766,-86.5 766,-56.5 674,-56.5"/>
<text text-anchor="start" x="682" y="-74.5" font-family="Helvetica,sans-Serif" font-size="10.00" fill="#000000">fplll/pruner/pruner</text>
<text text-anchor="middle" x="720" y="-63.5" font-family="Helvetica,sans-Serif" font-size="10.00" fill="#000000">_optimize.cpp</text>
</a>
</g>
</g>
<!-- Node4&#45;&gt;Node10 -->
<g id="edge11" class="edge">
<title>Node4&#45;&gt;Node10</title>
<path fill="none" stroke="#191970" d="M839.1691,-124.7289C814.2617,-113.6035 779.2574,-97.9683 753.6308,-86.5218"/>
<polygon fill="#191970" stroke="#191970" points="837.9506,-128.0179 848.5087,-128.9005 840.8055,-121.6265 837.9506,-128.0179"/>
</g>
<!-- Node11 -->
<g id="node12" class="node">
<title>Node11</title>
<g id="a_node12"><a xlink:href="pruner__optimize__tc_8cpp.html" target="_top" xlink:title="fplll/pruner/pruner\l_optimize_tc.cpp">
<polygon fill="#ffffff" stroke="#000000" points="86,-56.5 86,-86.5 178,-86.5 178,-56.5 86,-56.5"/>
<text text-anchor="start" x="94" y="-74.5" font-family="Helvetica,sans-Serif" font-size="10.00" fill="#000000">fplll/pruner/pruner</text>
<text text-anchor="middle" x="132" y="-63.5" font-family="Helvetica,sans-Serif" font-size="10.00" fill="#000000">_optimize_tc.cpp</text>
</a>
</g>
</g>
<!-- Node4&#45;&gt;Node11 -->
<g id="edge13" class="edge">
<title>Node4&#45;&gt;Node11</title>
<path fill="none" stroke="#191970" d="M830.591,-136.5644C704.5403,-130.2103 312.1591,-109.1263 187,-87 184.0693,-86.4819 181.0701,-85.8724 178.0589,-85.1999"/>
<polygon fill="#191970" stroke="#191970" points="830.7579,-140.077 840.9206,-137.0821 831.1083,-133.0858 830.7579,-140.077"/>
</g>
<!-- Node12 -->
<g id="node13" class="node">
<title>Node12</title>
<g id="a_node13"><a xlink:href="pruner__optimize__tp_8cpp.html" target="_top" xlink:title="fplll/pruner/pruner\l_optimize_tp.cpp">
<polygon fill="#ffffff" stroke="#000000" points="196,-56.5 196,-86.5 288,-86.5 288,-56.5 196,-56.5"/>
<text text-anchor="start" x="204" y="-74.5" font-family="Helvetica,sans-Serif" font-size="10.00" fill="#000000">fplll/pruner/pruner</text>
<text text-anchor="middle" x="242" y="-63.5" font-family="Helvetica,sans-Serif" font-size="10.00" fill="#000000">_optimize_tp.cpp</text>
</a>
</g>
</g>
<!-- Node4&#45;&gt;Node12 -->
<g id="edge15" class="edge">
<title>Node4&#45;&gt;Node12</title>
<path fill="none" stroke="#191970" d="M830.7087,-137.4697C737.3886,-134.481 495.3865,-123.5443 297,-87 294.0731,-86.4608 291.0768,-85.8352 288.0677,-85.1507"/>
<polygon fill="#191970" stroke="#191970" points="830.7219,-140.9717 840.8248,-137.7808 830.9371,-133.975 830.7219,-140.9717"/>
</g>
<!-- Node13 -->
<g id="node14" class="node">
<title>Node13</title>
<g id="a_node14"><a xlink:href="pruner__prob_8cpp.html" target="_top" xlink:title="fplll/pruner/pruner\l_prob.cpp">
<polygon fill="#ffffff" stroke="#000000" points="306,-56.5 306,-86.5 398,-86.5 398,-56.5 306,-56.5"/>
<text text-anchor="start" x="314" y="-74.5" font-family="Helvetica,sans-Serif" font-size="10.00" fill="#000000">fplll/pruner/pruner</text>
<text text-anchor="middle" x="352" y="-63.5" font-family="Helvetica,sans-Serif" font-size="10.00" fill="#000000">_prob.cpp</text>
</a>
</g>
</g>
<!-- Node4&#45;&gt;Node13 -->
<g id="edge17" class="edge">
<title>Node4&#45;&gt;Node13</title>
<path fill="none" stroke="#191970" d="M830.6152,-136.3031C750.3191,-131.3457 562.1673,-117.282 407,-87 404.0789,-86.4299 401.0872,-85.7806 398.0814,-85.0785"/>
<polygon fill="#191970" stroke="#191970" points="830.5726,-139.8068 840.7655,-136.9164 830.9949,-132.8195 830.5726,-139.8068"/>
</g>
<!-- Node14 -->
<g id="node15" class="node">
<title>Node14</title>
<g id="a_node15"><a xlink:href="pruner__util_8cpp.html" target="_top" xlink:title="fplll/pruner/pruner\l_util.cpp">
<polygon fill="#ffffff" stroke="#000000" points="416,-56.5 416,-86.5 508,-86.5 508,-56.5 416,-56.5"/>
<text text-anchor="start" x="424" y="-74.5" font-family="Helvetica,sans-Serif" font-size="10.00" fill="#000000">fplll/pruner/pruner</text>
<text text-anchor="middle" x="462" y="-63.5" font-family="Helvetica,sans-Serif" font-size="10.00" fill="#000000">_util.cpp</text>
</a>
</g>
</g>
<!-- Node4&#45;&gt;Node14 -->
<g id="edge19" class="edge">
<title>Node4&#45;&gt;Node14</title>
<path fill="none" stroke="#191970" d="M830.7945,-134.0717C766.1132,-126.4591 633.1364,-109.5128 522,-87 517.4659,-86.0815 512.7621,-85.0343 508.0737,-83.9275"/>
<polygon fill="#191970" stroke="#191970" points="830.6082,-137.5736 840.9464,-135.2557 831.4192,-130.6208 830.6082,-137.5736"/>
</g>
<!-- Node15 -->
<g id="node16" class="node">
<title>Node15</title>
<g id="a_node16"><a xlink:href="test__bkz_8cpp.html" target="_top" xlink:title="tests/test_bkz.cpp">
<polygon fill="#ffffff" stroke="#000000" points="464,-.5 464,-19.5 562,-19.5 562,-.5 464,-.5"/>
<text text-anchor="middle" x="513" y="-7.5" font-family="Helvetica,sans-Serif" font-size="10.00" fill="#000000">tests/test_bkz.cpp</text>
</a>
</g>
</g>
<!-- Node4&#45;&gt;Node15 -->
<g id="edge21" class="edge">
<title>Node4&#45;&gt;Node15</title>
<path fill="none" stroke="#191970" d="M850.0903,-122.4793C837.8019,-112.4644 821.8024,-99.1952 808,-87 792.9199,-73.676 792.9956,-65.0053 775,-56 773.8062,-55.4026 637.513,-31.646 562.0047,-18.5144"/>
<polygon fill="#191970" stroke="#191970" points="847.9609,-125.2586 857.9322,-128.8395 852.3703,-119.8219 847.9609,-125.2586"/>
</g>
<!-- Node16 -->
<g id="node17" class="node">
<title>Node16</title>
<g id="a_node17"><a xlink:href="test__bkz__gram_8cpp.html" target="_top" xlink:title="tests/test_bkz_gram.cpp">
<polygon fill="#ffffff" stroke="#000000" points="580.5,-.5 580.5,-19.5 705.5,-19.5 705.5,-.5 580.5,-.5"/>
<text text-anchor="middle" x="643" y="-7.5" font-family="Helvetica,sans-Serif" font-size="10.00" fill="#000000">tests/test_bkz_gram.cpp</text>
</a>
</g>
</g>
<!-- Node4&#45;&gt;Node16 -->
<g id="edge22" class="edge">
<title>Node4&#45;&gt;Node16</title>
<path fill="none" stroke="#191970" d="M860.7378,-119.8851C850.4087,-101.0224 831.9556,-72.3574 808,-56 788.844,-42.9198 731.7636,-28.6995 690.0925,-19.5859"/>
<polygon fill="#191970" stroke="#191970" points="857.7613,-121.7456 865.5044,-128.9771 863.961,-118.4953 857.7613,-121.7456"/>
</g>
<!-- Node17 -->
<g id="node18" class="node">
<title>Node17</title>
<g id="a_node18"><a xlink:href="test__counter_8cpp.html" target="_top" xlink:title="tests/test_counter.cpp">
<polygon fill="#ffffff" stroke="#000000" points="1196,-62 1196,-81 1310,-81 1310,-62 1196,-62"/>
<text text-anchor="middle" x="1253" y="-69" font-family="Helvetica,sans-Serif" font-size="10.00" fill="#000000">tests/test_counter.cpp</text>
</a>
</g>
</g>
<!-- Node4&#45;&gt;Node17 -->
<g id="edge23" class="edge">
<title>Node4&#45;&gt;Node17</title>
<path fill="none" stroke="#191970" d="M908.9834,-132.322C980.5335,-120.9401 1130.2227,-96.9182 1182,-87 1191.4175,-85.196 1201.5009,-83.0971 1211.0248,-81.0373"/>
<polygon fill="#191970" stroke="#191970" points="908.3414,-128.88 899.0147,-133.9064 909.4402,-135.7932 908.3414,-128.88"/>
</g>
<!-- Node18 -->
<g id="node19" class="node">
<title>Node18</title>
<g id="a_node19"><a xlink:href="test__cvp_8cpp.html" target="_top" xlink:title="tests/test_cvp.cpp">
<polygon fill="#ffffff" stroke="#000000" points="724,-.5 724,-19.5 822,-19.5 822,-.5 724,-.5"/>
<text text-anchor="middle" x="773" y="-7.5" font-family="Helvetica,sans-Serif" font-size="10.00" fill="#000000">tests/test_cvp.cpp</text>
</a>
</g>
</g>
<!-- Node4&#45;&gt;Node18 -->
<g id="edge24" class="edge">
<title>Node4&#45;&gt;Node18</title>
<path fill="none" stroke="#191970" d="M868.2362,-118.7143C865.7745,-100.7977 859.9108,-74.4591 846,-56 833.4684,-39.3711 813.0238,-27.2387 796.9538,-19.6223"/>
<polygon fill="#191970" stroke="#191970" points="864.7836,-119.3301 869.392,-128.8701 871.7387,-118.5385 864.7836,-119.3301"/>
</g>
<!-- Node19 -->
<g id="node20" class="node">
<title>Node19</title>
<g id="a_node20"><a xlink:href="test__enum_8cpp.html" target="_top" xlink:title="tests/test_enum.cpp">
<polygon fill="#ffffff" stroke="#000000" points="1328,-62 1328,-81 1434,-81 1434,-62 1328,-62"/>
<text text-anchor="middle" x="1381" y="-69" font-family="Helvetica,sans-Serif" font-size="10.00" fill="#000000">tests/test_enum.cpp</text>
</a>
</g>
</g>
<!-- Node4&#45;&gt;Node19 -->
<g id="edge25" class="edge">
<title>Node4&#45;&gt;Node19</title>
<path fill="none" stroke="#191970" d="M909.1808,-131.8008C927.0823,-128.8693 948.581,-125.5296 968,-123 1123.5045,-102.7432 1164.5385,-114.086 1319,-87 1327.9613,-85.4286 1337.543,-83.2735 1346.4282,-81.07"/>
<polygon fill="#191970" stroke="#191970" points="908.3931,-128.3835 899.0993,-133.4703 909.5368,-135.2894 908.3931,-128.3835"/>
</g>
<!-- Node20 -->
<g id="node21" class="node">
<title>Node20</title>
<g id="a_node21"><a xlink:href="test__hlll_8cpp.html" target="_top" xlink:title="tests/test_hlll.cpp">
<polygon fill="#ffffff" stroke="#000000" points="840,-.5 840,-19.5 934,-19.5 934,-.5 840,-.5"/>
<text text-anchor="middle" x="887" y="-7.5" font-family="Helvetica,sans-Serif" font-size="10.00" fill="#000000">tests/test_hlll.cpp</text>
</a>
</g>
</g>
<!-- Node4&#45;&gt;Node20 -->
<g id="edge26" class="edge">
<title>Node4&#45;&gt;Node20</title>
<path fill="none" stroke="#191970" d="M876.3953,-119.0874C879.2542,-109.5337 882.3467,-97.7797 884,-87 887.6912,-62.9331 887.6503,-34.168 887.3182,-19.5492"/>
<polygon fill="#191970" stroke="#191970" points="873.0117,-118.1803 873.3561,-128.7696 879.6904,-120.2768 873.0117,-118.1803"/>
</g>
<!-- Node21 -->
<g id="node22" class="node">
<title>Node21</title>
<g id="a_node22"><a xlink:href="test__lll_8cpp.html" target="_top" xlink:title="tests/test_lll.cpp">
<polygon fill="#ffffff" stroke="#000000" points="1068.5,-.5 1068.5,-19.5 1157.5,-19.5 1157.5,-.5 1068.5,-.5"/>
<text text-anchor="middle" x="1113" y="-7.5" font-family="Helvetica,sans-Serif" font-size="10.00" fill="#000000">tests/test_lll.cpp</text>
</a>
</g>
</g>
<!-- Node4&#45;&gt;Node21 -->
<g id="edge27" class="edge">
<title>Node4&#45;&gt;Node21</title>
<path fill="none" stroke="#191970" d="M909.4468,-131.5259C944.0743,-124.1825 994.8763,-110.3683 1034,-87 1064.9122,-68.5364 1093.0273,-35.6646 1105.7824,-19.5042"/>
<polygon fill="#191970" stroke="#191970" points="908.3517,-128.1769 899.2504,-133.6006 909.7475,-135.0364 908.3517,-128.1769"/>
</g>
<!-- Node22 -->
<g id="node23" class="node">
<title>Node22</title>
<g id="a_node23"><a xlink:href="test__lll__gram_8cpp.html" target="_top" xlink:title="tests/test_lll_gram.cpp">
<polygon fill="#ffffff" stroke="#000000" points="1175,-.5 1175,-19.5 1291,-19.5 1291,-.5 1175,-.5"/>
<text text-anchor="middle" x="1233" y="-7.5" font-family="Helvetica,sans-Serif" font-size="10.00" fill="#000000">tests/test_lll_gram.cpp</text>
</a>
</g>
</g>
<!-- Node4&#45;&gt;Node22 -->
<g id="edge28" class="edge">
<title>Node4&#45;&gt;Node22</title>
<path fill="none" stroke="#191970" d="M909.3491,-131.9211C949.9822,-124.2835 1014.6552,-109.7439 1067,-87 1090.6354,-76.7304 1093.0165,-67.6558 1116,-56 1145.1989,-41.1922 1180.3491,-27.9444 1204.4518,-19.5124"/>
<polygon fill="#191970" stroke="#191970" points="908.5144,-128.5157 899.3084,-133.7597 909.7753,-135.4012 908.5144,-128.5157"/>
</g>
<!-- Node23 -->
<g id="node24" class="node">
<title>Node23</title>
<g id="a_node24"><a xlink:href="test__nr_8cpp.html" target="_top" xlink:title="tests/test_nr.cpp">
<polygon fill="#ffffff" stroke="#000000" points="1452,-62 1452,-81 1542,-81 1542,-62 1452,-62"/>
<text text-anchor="middle" x="1497" y="-69" font-family="Helvetica,sans-Serif" font-size="10.00" fill="#000000">tests/test_nr.cpp</text>
</a>
</g>
</g>
<!-- Node4&#45;&gt;Node23 -->
<g id="edge29" class="edge">
<title>Node4&#45;&gt;Node23</title>
<path fill="none" stroke="#191970" d="M909.1513,-131.5615C927.0468,-128.5824 948.5491,-125.2715 968,-123 1178.2875,-98.4424 1234.613,-124.4001 1443,-87 1451.1601,-85.5355 1459.8547,-83.3347 1467.8291,-81.048"/>
<polygon fill="#191970" stroke="#191970" points="908.35,-128.1472 899.0742,-133.2668 909.518,-135.0491 908.35,-128.1472"/>
</g>
<!-- Node24 -->
<g id="node25" class="node">
<title>Node24</title>
<g id="a_node25"><a xlink:href="test__pruner_8cpp.html" target="_top" xlink:title="tests/test_pruner.cpp">
<polygon fill="#ffffff" stroke="#000000" points="1560.5,-62 1560.5,-81 1669.5,-81 1669.5,-62 1560.5,-62"/>
<text text-anchor="middle" x="1615" y="-69" font-family="Helvetica,sans-Serif" font-size="10.00" fill="#000000">tests/test_pruner.cpp</text>
</a>
</g>
</g>
<!-- Node4&#45;&gt;Node24 -->
<g id="edge30" class="edge">
<title>Node4&#45;&gt;Node24</title>
<path fill="none" stroke="#191970" d="M909.137,-131.4354C927.0297,-128.4312 948.5337,-125.1355 968,-123 1226.0564,-94.69 1294.2966,-125.7029 1551,-87 1560.6089,-85.5513 1570.8925,-83.3558 1580.3435,-81.0692"/>
<polygon fill="#191970" stroke="#191970" points="908.3283,-128.0228 899.062,-133.1596 909.5092,-134.9225 908.3283,-128.0228"/>
</g>
<!-- Node25 -->
<g id="node26" class="node">
<title>Node25</title>
<g id="a_node26"><a xlink:href="test__svp_8cpp.html" target="_top" xlink:title="tests/test_svp.cpp">
<polygon fill="#ffffff" stroke="#000000" points="1309,-.5 1309,-19.5 1407,-19.5 1407,-.5 1309,-.5"/>
<text text-anchor="middle" x="1358" y="-7.5" font-family="Helvetica,sans-Serif" font-size="10.00" fill="#000000">tests/test_svp.cpp</text>
</a>
</g>
</g>
<!-- Node4&#45;&gt;Node25 -->
<g id="edge31" class="edge">
<title>Node4&#45;&gt;Node25</title>
<path fill="none" stroke="#191970" d="M909.2179,-131.6996C966.7011,-121.4349 1070.8237,-101.6302 1106,-87 1129.4484,-77.2476 1130.5855,-65.8336 1154,-56 1181.5321,-44.4371 1257.9141,-28.7406 1308.9981,-18.9973"/>
<polygon fill="#191970" stroke="#191970" points="908.2897,-128.3095 899.0545,-133.5018 909.512,-135.202 908.2897,-128.3095"/>
</g>
<!-- Node26 -->
<g id="node27" class="node">
<title>Node26</title>
<g id="a_node27"><a xlink:href="test__svp__gram_8cpp.html" target="_top" xlink:title="tests/test_svp_gram.cpp">
<polygon fill="#ffffff" stroke="#000000" points="1425.5,-.5 1425.5,-19.5 1550.5,-19.5 1550.5,-.5 1425.5,-.5"/>
<text text-anchor="middle" x="1488" y="-7.5" font-family="Helvetica,sans-Serif" font-size="10.00" fill="#000000">tests/test_svp_gram.cpp</text>
</a>
</g>
</g>
<!-- Node4&#45;&gt;Node26 -->
<g id="edge32" class="edge">
<title>Node4&#45;&gt;Node26</title>
<path fill="none" stroke="#191970" d="M909.7088,-132.0218C980.414,-120.3415 1122.7389,-96.12 1144,-87 1165.6519,-77.7124 1165.1928,-64.9167 1187,-56 1197.9331,-51.5296 1340.3485,-30.8751 1425.3028,-18.8169"/>
<polygon fill="#191970" stroke="#191970" points="908.7104,-128.639 899.4121,-133.7177 909.848,-135.546 908.7104,-128.639"/>
</g>
<!-- Node27 -->
<g id="node28" class="node">
<title>Node27</title>
<g id="a_node28"><a xlink:href="test__utils_8h.html" target="_top" xlink:title="tests/test_utils.h">
<polygon fill="#ffffff" stroke="#000000" points="936.5,-62 936.5,-81 1025.5,-81 1025.5,-62 936.5,-62"/>
<text text-anchor="middle" x="981" y="-69" font-family="Helvetica,sans-Serif" font-size="10.00" fill="#000000">tests/test_utils.h</text>
</a>
</g>
</g>
<!-- Node4&#45;&gt;Node27 -->
<g id="edge33" class="edge">
<title>Node4&#45;&gt;Node27</title>
<path fill="none" stroke="#191970" d="M894.5011,-123.711C916.0142,-110.7256 946.6755,-92.2184 965.1259,-81.0817"/>
<polygon fill="#191970" stroke="#191970" points="892.6562,-120.7364 885.9036,-128.9005 896.2736,-126.7293 892.6562,-120.7364"/>
</g>
<!-- Node7 -->
<g id="node8" class="node">
<title>Node7</title>
<g id="a_node8"><a xlink:href="main_8cpp.html" target="_top" xlink:title="fplll/main.cpp">
<polygon fill="#ffffff" stroke="#000000" points="1683,-.5 1683,-19.5 1757,-19.5 1757,-.5 1683,-.5"/>
<text text-anchor="middle" x="1720" y="-7.5" font-family="Helvetica,sans-Serif" font-size="10.00" fill="#000000">fplll/main.cpp</text>
</a>
</g>
</g>
<!-- Node6&#45;&gt;Node7 -->
<g id="edge7" class="edge">
<title>Node6&#45;&gt;Node7</title>
<path fill="none" stroke="#191970" d="M1720,-51.7462C1720,-41.0519 1720,-28.314 1720,-19.7449"/>
<polygon fill="#191970" stroke="#191970" points="1716.5001,-51.8906 1720,-61.8906 1723.5001,-51.8907 1716.5001,-51.8906"/>
</g>
<!-- Node9&#45;&gt;Node8 -->
<g id="edge10" class="edge">
<title>Node9&#45;&gt;Node8</title>
<path fill="none" stroke="#191970" d="M554.0271,-55.7816C513.2677,-44.3354 459.3853,-29.2041 424.9508,-19.5341"/>
<polygon fill="#191970" stroke="#191970" points="553.2494,-59.1985 563.8233,-58.5326 555.142,-52.4592 553.2494,-59.1985"/>
</g>
<!-- Node10&#45;&gt;Node8 -->
<g id="edge12" class="edge">
<title>Node10&#45;&gt;Node8</title>
<path fill="none" stroke="#191970" d="M663.9386,-56.0187C622.6808,-47.7982 513.6287,-29.902 446.2875,-18.9519"/>
<polygon fill="#191970" stroke="#191970" points="663.3724,-59.4762 673.8789,-58.1107 664.8141,-52.6262 663.3724,-59.4762"/>
</g>
<!-- Node11&#45;&gt;Node8 -->
<g id="edge14" class="edge">
<title>Node11&#45;&gt;Node8</title>
<path fill="none" stroke="#191970" d="M188.1327,-55.7801C247.7628,-40.8154 306.1973,-27.9396 345.4625,-19.5462"/>
<polygon fill="#191970" stroke="#191970" points="187.0038,-52.4553 178.1659,-58.2984 188.7186,-59.242 187.0038,-52.4553"/>
</g>
<!-- Node12&#45;&gt;Node8 -->
<g id="edge16" class="edge">
<title>Node12&#45;&gt;Node8</title>
<path fill="none" stroke="#191970" d="M287.9277,-52.5433C314.4363,-41.6018 346.633,-28.3126 367.9103,-19.5303"/>
<polygon fill="#191970" stroke="#191970" points="286.3577,-49.4048 278.4495,-56.4554 289.0284,-55.8753 286.3577,-49.4048"/>
</g>
<!-- Node13&#45;&gt;Node8 -->
<g id="edge18" class="edge">
<title>Node13&#45;&gt;Node8</title>
<path fill="none" stroke="#191970" d="M367.0431,-47.7782C373.2001,-38.069 379.9835,-27.3722 384.7556,-19.8469"/>
<polygon fill="#191970" stroke="#191970" points="364.0401,-45.9782 361.6405,-56.2977 369.9517,-49.7271 364.0401,-45.9782"/>
</g>
<!-- Node14&#45;&gt;Node8 -->
<g id="edge20" class="edge">
<title>Node14&#45;&gt;Node8</title>
<path fill="none" stroke="#191970" d="M436.6587,-49.5494C424.9308,-39.3907 411.5876,-27.8329 402.368,-19.8469"/>
<polygon fill="#191970" stroke="#191970" points="434.5992,-52.396 444.4494,-56.2977 439.1823,-47.1049 434.5992,-52.396"/>
</g>
<!-- Node27&#45;&gt;Node15 -->
<g id="edge34" class="edge">
<title>Node27&#45;&gt;Node15</title>
<path fill="none" stroke="#191970" d="M926.1464,-65.4183C847.399,-56.504 697.8188,-38.8874 571,-20 568.0691,-19.5635 565.0579,-19.0976 562.0223,-18.6145"/>
<polygon fill="#191970" stroke="#191970" points="925.987,-68.9225 936.3163,-66.5657 926.7718,-61.9666 925.987,-68.9225"/>
</g>
<!-- Node27&#45;&gt;Node16 -->
<g id="edge35" class="edge">
<title>Node27&#45;&gt;Node16</title>
<path fill="none" stroke="#191970" d="M926.6107,-61.6037C862.9368,-50.0181 758.2172,-30.9641 695.4091,-19.536"/>
<polygon fill="#191970" stroke="#191970" points="925.9998,-65.05 936.4648,-63.3967 927.2529,-58.163 925.9998,-65.05"/>
</g>
<!-- Node27&#45;&gt;Node18 -->
<g id="edge36" class="edge">
<title>Node27&#45;&gt;Node18</title>
<path fill="none" stroke="#191970" d="M938.8885,-59.0488C899.3997,-47.373 841.2011,-30.1652 805.2718,-19.5419"/>
<polygon fill="#191970" stroke="#191970" points="937.918,-62.4115 948.5,-61.8906 939.9028,-55.6988 937.918,-62.4115"/>
</g>
<!-- Node27&#45;&gt;Node20 -->
<g id="edge38" class="edge">
<title>Node27&#45;&gt;Node20</title>
<path fill="none" stroke="#191970" d="M957.7461,-56.286C940.1694,-44.7864 916.5832,-29.355 901.5844,-19.5419"/>
<polygon fill="#191970" stroke="#191970" points="956.0281,-59.3445 966.3125,-61.8906 959.8606,-53.4868 956.0281,-59.3445"/>
</g>
<!-- Node27&#45;&gt;Node21 -->
<g id="edge39" class="edge">
<title>Node27&#45;&gt;Node21</title>
<path fill="none" stroke="#191970" d="M1010.9722,-57.5357C1035.8894,-45.9265 1070.6847,-29.7151 1092.5198,-19.5419"/>
<polygon fill="#191970" stroke="#191970" points="1009.2113,-54.4948 1001.625,-61.8906 1012.1676,-60.8399 1009.2113,-54.4948"/>
</g>
<!-- Node27&#45;&gt;Node22 -->
<g id="edge40" class="edge">
<title>Node27&#45;&gt;Node22</title>
<path fill="none" stroke="#191970" d="M1029.9201,-59.5612C1077.7453,-47.8895 1149.6308,-30.346 1193.8098,-19.5643"/>
<polygon fill="#191970" stroke="#191970" points="1028.9835,-56.1869 1020.0985,-61.9581 1030.6432,-62.9873 1028.9835,-56.1869"/>
</g>
<!-- Node27&#45;&gt;Node25 -->
<g id="edge41" class="edge">
<title>Node27&#45;&gt;Node25</title>
<path fill="none" stroke="#191970" d="M1035.8632,-62.8251C1099.444,-52.7295 1207.3557,-35.4645 1300,-20 1302.9228,-19.5121 1305.9277,-19.0064 1308.9585,-18.4933"/>
<polygon fill="#191970" stroke="#191970" points="1034.995,-59.419 1025.667,-64.443 1036.092,-66.3325 1034.995,-59.419"/>
</g>
<!-- Node27&#45;&gt;Node26 -->
<g id="edge42" class="edge">
<title>Node27&#45;&gt;Node26</title>
<path fill="none" stroke="#191970" d="M1035.9674,-65.3521C1118.538,-56.0355 1279.4711,-37.5612 1416,-20 1419.004,-19.6136 1422.0776,-19.2118 1425.1814,-18.8008"/>
<polygon fill="#191970" stroke="#191970" points="1035.3561,-61.8988 1025.8109,-66.4965 1036.1399,-68.8547 1035.3561,-61.8988"/>
</g>
<!-- Node28 -->
<g id="node29" class="node">
<title>Node28</title>
<g id="a_node29"><a xlink:href="test__gso_8cpp.html" target="_top" xlink:title="tests/test_gso.cpp">
<polygon fill="#ffffff" stroke="#000000" points="952,-.5 952,-19.5 1050,-19.5 1050,-.5 952,-.5"/>
<text text-anchor="middle" x="1001" y="-7.5" font-family="Helvetica,sans-Serif" font-size="10.00" fill="#000000">tests/test_gso.cpp</text>
</a>
</g>
</g>
<!-- Node27&#45;&gt;Node28 -->
<g id="edge37" class="edge">
<title>Node27&#45;&gt;Node28</title>
<path fill="none" stroke="#191970" d="M987.3144,-52.0832C990.8145,-41.3205 995.0149,-28.4042 997.8309,-19.7449"/>
<polygon fill="#191970" stroke="#191970" points="983.8893,-51.2984 984.125,-61.8906 990.5461,-53.4633 983.8893,-51.2984"/>
</g>
<!-- Node30&#45;&gt;Node5 -->
<g id="edge46" class="edge">
<title>Node30&#45;&gt;Node5</title>
<path fill="none" stroke="#191970" d="M310.3516,-131.7231C252.5269,-123.6561 157.2155,-108.5164 77,-87 70.8684,-85.3553 64.3698,-83.2249 58.3324,-81.0729"/>
<polygon fill="#191970" stroke="#191970" points="309.9666,-135.203 320.3505,-133.0995 310.9212,-128.2684 309.9666,-135.203"/>
</g>
<!-- Node31&#45;&gt;Node1 -->
<g id="edge48" class="edge">
<title>Node31&#45;&gt;Node1</title>
<path fill="none" stroke="#191970" d="M1033.0829,-319.2103C1012.4976,-306.8959 987.172,-291.7457 971.0543,-282.1039"/>
<polygon fill="#191970" stroke="#191970" points="1031.4865,-322.3338 1041.865,-324.4639 1035.0801,-316.3266 1031.4865,-322.3338"/>
</g>
<!-- Node32 -->
<g id="node33" class="node">
<title>Node32</title>
<g id="a_node33"><a xlink:href="enumerate__ext_8cpp.html" target="_top" xlink:title="fplll/enum/enumerate\l_ext.cpp">
<polygon fill="#ffffff" stroke="#000000" points="1144.5,-257.5 1144.5,-287.5 1251.5,-287.5 1251.5,-257.5 1144.5,-257.5"/>
<text text-anchor="start" x="1152.5" y="-275.5" font-family="Helvetica,sans-Serif" font-size="10.00" fill="#000000">fplll/enum/enumerate</text>
<text text-anchor="middle" x="1198" y="-264.5" font-family="Helvetica,sans-Serif" font-size="10.00" fill="#000000">_ext.cpp</text>
</a>
</g>
</g>
<!-- Node31&#45;&gt;Node32 -->
<g id="edge49" class="edge">
<title>Node31&#45;&gt;Node32</title>
<path fill="none" stroke="#191970" d="M1105.5682,-319.7743C1125.5913,-309.5335 1149.6802,-297.2132 1168.2459,-287.7177"/>
<polygon fill="#191970" stroke="#191970" points="1103.7083,-316.7942 1096.399,-324.4639 1106.8958,-323.0264 1103.7083,-316.7942"/>
</g>
<!-- Node33 -->
<g id="node34" class="node">
<title>Node33</title>
<g id="a_node34"><a xlink:href="fplll__types_8h.html" target="_top" xlink:title="fplll/enum&#45;parallel\l/fplll_types.h">
<polygon fill="#ffffff" stroke="#000000" points="1034,-257.5 1034,-287.5 1126,-287.5 1126,-257.5 1034,-257.5"/>
<text text-anchor="start" x="1042" y="-275.5" font-family="Helvetica,sans-Serif" font-size="10.00" fill="#000000">fplll/enum&#45;parallel</text>
<text text-anchor="middle" x="1080" y="-264.5" font-family="Helvetica,sans-Serif" font-size="10.00" fill="#000000">/fplll_types.h</text>
</a>
</g>
</g>
<!-- Node31&#45;&gt;Node33 -->
<g id="edge50" class="edge">
<title>Node31&#45;&gt;Node33</title>
<path fill="none" stroke="#191970" d="M1071.8861,-314.3179C1073.6278,-305.3414 1075.5345,-295.5143 1077.0618,-287.6432"/>
<polygon fill="#191970" stroke="#191970" points="1068.4188,-313.813 1069.9499,-324.2967 1075.2907,-315.1464 1068.4188,-313.813"/>
</g>
<!-- Node34 -->
<g id="node35" class="node">
<title>Node34</title>
<g id="a_node35"><a xlink:href="enumeration_8h.html" target="_top" xlink:title="fplll/enum&#45;parallel\l/enumeration.h">
<polygon fill="#ffffff" stroke="#000000" points="1108,-190.5 1108,-220.5 1200,-220.5 1200,-190.5 1108,-190.5"/>
<text text-anchor="start" x="1116" y="-208.5" font-family="Helvetica,sans-Serif" font-size="10.00" fill="#000000">fplll/enum&#45;parallel</text>
<text text-anchor="middle" x="1154" y="-197.5" font-family="Helvetica,sans-Serif" font-size="10.00" fill="#000000">/enumeration.h</text>
</a>
</g>
</g>
<!-- Node33&#45;&gt;Node34 -->
<g id="edge51" class="edge">
<title>Node33&#45;&gt;Node34</title>
<path fill="none" stroke="#191970" d="M1104.3024,-250.4965C1115.101,-240.7193 1127.5418,-229.4554 1137.2747,-220.6432"/>
<polygon fill="#191970" stroke="#191970" points="1101.8556,-247.9903 1096.7917,-257.2967 1106.5539,-253.1794 1101.8556,-247.9903"/>
</g>
<!-- Node35 -->
<g id="node36" class="node">
<title>Node35</title>
<g id="a_node36"><a xlink:href="enumlib_8cpp.html" target="_top" xlink:title="fplll/enum&#45;parallel\l/enumlib.cpp">
<polygon fill="#ffffff" stroke="#000000" points="1108,-123.5 1108,-153.5 1200,-153.5 1200,-123.5 1108,-123.5"/>
<text text-anchor="start" x="1116" y="-141.5" font-family="Helvetica,sans-Serif" font-size="10.00" fill="#000000">fplll/enum&#45;parallel</text>
<text text-anchor="middle" x="1154" y="-130.5" font-family="Helvetica,sans-Serif" font-size="10.00" fill="#000000">/enumlib.cpp</text>
</a>
</g>
</g>
<!-- Node33&#45;&gt;Node35 -->
<g id="edge55" class="edge">
<title>Node33&#45;&gt;Node35</title>
<path fill="none" stroke="#191970" d="M1081.9882,-246.9032C1084.22,-229.8491 1088.9551,-207.4504 1099,-190 1107.2879,-175.6019 1120.8886,-162.8148 1132.4912,-153.5838"/>
<polygon fill="#191970" stroke="#191970" points="1078.4665,-246.9099 1080.8525,-257.2326 1085.4246,-247.675 1078.4665,-246.9099"/>
</g>
<!-- Node36 -->
<g id="node37" class="node">
<title>Node36</title>
<g id="a_node37"><a xlink:href="enumlib_8h.html" target="_top" xlink:title="fplll/enum&#45;parallel\l/enumlib.h">
<polygon fill="#ffffff" stroke="#000000" points="1218,-190.5 1218,-220.5 1310,-220.5 1310,-190.5 1218,-190.5"/>
<text text-anchor="start" x="1226" y="-208.5" font-family="Helvetica,sans-Serif" font-size="10.00" fill="#000000">fplll/enum&#45;parallel</text>
<text text-anchor="middle" x="1264" y="-197.5" font-family="Helvetica,sans-Serif" font-size="10.00" fill="#000000">/enumlib.h</text>
</a>
</g>
</g>
<!-- Node33&#45;&gt;Node36 -->
<g id="edge53" class="edge">
<title>Node33&#45;&gt;Node36</title>
<path fill="none" stroke="#191970" d="M1130.7998,-254.0023C1159.6685,-243.4903 1195.3585,-230.4945 1222.5267,-220.6017"/>
<polygon fill="#191970" stroke="#191970" points="1129.4921,-250.7535 1121.2932,-257.4639 1131.8872,-257.3311 1129.4921,-250.7535"/>
</g>
<!-- Node34&#45;&gt;Node35 -->
<g id="edge52" class="edge">
<title>Node34&#45;&gt;Node35</title>
<path fill="none" stroke="#191970" d="M1154,-180.0249C1154,-171.128 1154,-161.4287 1154,-153.6432"/>
<polygon fill="#191970" stroke="#191970" points="1150.5001,-180.2966 1154,-190.2967 1157.5001,-180.2967 1150.5001,-180.2966"/>
</g>
<!-- Node36&#45;&gt;Node35 -->
<g id="edge54" class="edge">
<title>Node36&#45;&gt;Node35</title>
<path fill="none" stroke="#191970" d="M1230.4682,-185.0761C1213.8883,-174.9774 1194.2212,-162.9983 1178.9843,-153.7177"/>
<polygon fill="#191970" stroke="#191970" points="1228.9527,-188.2511 1239.3139,-190.4639 1232.594,-182.2727 1228.9527,-188.2511"/>
</g>
</g>
</svg>
