<?xml version="1.0" encoding="UTF-8" standalone="no"?>
<!DOCTYPE svg PUBLIC "-//W3C//DTD SVG 1.1//EN"
 "http://www.w3.org/Graphics/SVG/1.1/DTD/svg11.dtd">
<!-- Generated by graphviz version 2.40.1 (20161225.0304)
 -->
<!-- Title: fplll/enum&#45;parallel/enumlib_dim.cpp Pages: 1 -->
<svg width="1901pt" height="106pt"
 viewBox="0.00 0.00 1900.50 106.00" xmlns="http://www.w3.org/2000/svg" xmlns:xlink="http://www.w3.org/1999/xlink">
<g id="graph0" class="graph" transform="scale(1 1) rotate(0) translate(4 102)">
<title>fplll/enum&#45;parallel/enumlib_dim.cpp</title>
<polygon fill="#ffffff" stroke="transparent" points="-4,4 -4,-102 1896.5,-102 1896.5,4 -4,4"/>
<!-- Node0 -->
<g id="node1" class="node">
<title>Node0</title>
<polygon fill="#bfbfbf" stroke="#000000" points="917.5,-67.5 917.5,-97.5 1010.5,-97.5 1010.5,-67.5 917.5,-67.5"/>
<text text-anchor="start" x="925.5" y="-85.5" font-family="Helvetica,sans-Serif" font-size="10.00" fill="#000000">fplll/enum&#45;parallel</text>
<text text-anchor="middle" x="964" y="-74.5" font-family="Helvetica,sans-Serif" font-size="10.00" fill="#000000">/enumlib_dim.cpp</text>
</g>
<!-- Node1 -->
<g id="node2" class="node">
<title>Node1</title>
<g id="a_node2"><a xlink:href="enumlib__dim_8100_8cpp.html" target="_top" xlink:title="fplll/enum&#45;parallel\l/enumlib_dim.100.cpp">
<polygon fill="#ffffff" stroke="#000000" points="0,-.5 0,-30.5 112,-30.5 112,-.5 0,-.5"/>
<text text-anchor="start" x="8" y="-18.5" font-family="Helvetica,sans-Serif" font-size="10.00" fill="#000000">fplll/enum&#45;parallel</text>
<text text-anchor="middle" x="56" y="-7.5" font-family="Helvetica,sans-Serif" font-size="10.00" fill="#000000">/enumlib_dim.100.cpp</text>
</a>
</g>
</g>
<!-- Node0&#45;&gt;Node1 -->
<g id="edge1" class="edge">
<title>Node0&#45;&gt;Node1</title>
<path fill="none" stroke="#191970" d="M906.9097,-80.3029C743.0552,-73.792 273.2955,-53.6361 121,-31 118.1312,-30.5736 115.2029,-30.0827 112.2539,-29.5439"/>
<polygon fill="#191970" stroke="#191970" points="907.123,-83.814 917.2535,-80.7119 907.3996,-76.8194 907.123,-83.814"/>
</g>
<!-- Node2 -->
<g id="node3" class="node">
<title>Node2</title>
<g id="a_node3"><a xlink:href="enumlib__dim_8110_8cpp.html" target="_top" xlink:title="fplll/enum&#45;parallel\l/enumlib_dim.110.cpp">
<polygon fill="#ffffff" stroke="#000000" points="130,-.5 130,-30.5 242,-30.5 242,-.5 130,-.5"/>
<text text-anchor="start" x="138" y="-18.5" font-family="Helvetica,sans-Serif" font-size="10.00" fill="#000000">fplll/enum&#45;parallel</text>
<text text-anchor="middle" x="186" y="-7.5" font-family="Helvetica,sans-Serif" font-size="10.00" fill="#000000">/enumlib_dim.110.cpp</text>
</a>
</g>
</g>
<!-- Node0&#45;&gt;Node2 -->
<g id="edge2" class="edge">
<title>Node0&#45;&gt;Node2</title>
<path fill="none" stroke="#191970" d="M907.2575,-81.5167C786.0645,-78.7352 493.2373,-68.3784 251,-31 248.1336,-30.5577 245.2072,-30.054 242.2598,-29.505"/>
<polygon fill="#191970" stroke="#191970" points="907.3365,-85.0193 917.4114,-81.7411 907.4912,-78.021 907.3365,-85.0193"/>
</g>
<!-- Node3 -->
<g id="node4" class="node">
<title>Node3</title>
<g id="a_node4"><a xlink:href="enumlib__dim_8120_8cpp.html" target="_top" xlink:title="fplll/enum&#45;parallel\l/enumlib_dim.120.cpp">
<polygon fill="#ffffff" stroke="#000000" points="260,-.5 260,-30.5 372,-30.5 372,-.5 260,-.5"/>
<text text-anchor="start" x="268" y="-18.5" font-family="Helvetica,sans-Serif" font-size="10.00" fill="#000000">fplll/enum&#45;parallel</text>
<text text-anchor="middle" x="316" y="-7.5" font-family="Helvetica,sans-Serif" font-size="10.00" fill="#000000">/enumlib_dim.120.cpp</text>
</a>
</g>
</g>
<!-- Node0&#45;&gt;Node3 -->
<g id="edge3" class="edge">
<title>Node0&#45;&gt;Node3</title>
<path fill="none" stroke="#191970" d="M907.2045,-80.2383C802.5503,-75.4611 572.454,-62.1126 381,-31 378.1373,-30.5348 375.2138,-30.0126 372.2687,-29.449"/>
<polygon fill="#191970" stroke="#191970" points="907.0895,-83.7366 917.236,-80.6874 907.4026,-76.7436 907.0895,-83.7366"/>
</g>
<!-- Node4 -->
<g id="node5" class="node">
<title>Node4</title>
<g id="a_node5"><a xlink:href="enumlib__dim_8130_8cpp.html" target="_top" xlink:title="fplll/enum&#45;parallel\l/enumlib_dim.130.cpp">
<polygon fill="#ffffff" stroke="#000000" points="390,-.5 390,-30.5 502,-30.5 502,-.5 390,-.5"/>
<text text-anchor="start" x="398" y="-18.5" font-family="Helvetica,sans-Serif" font-size="10.00" fill="#000000">fplll/enum&#45;parallel</text>
<text text-anchor="middle" x="446" y="-7.5" font-family="Helvetica,sans-Serif" font-size="10.00" fill="#000000">/enumlib_dim.130.cpp</text>
</a>
</g>
</g>
<!-- Node0&#45;&gt;Node4 -->
<g id="edge4" class="edge">
<title>Node0&#45;&gt;Node4</title>
<path fill="none" stroke="#191970" d="M907.3535,-78.2736C821.2803,-71.3535 652.5926,-55.837 511,-31 508.1433,-30.4989 505.2247,-29.9479 502.2835,-29.3614"/>
<polygon fill="#191970" stroke="#191970" points="907.1874,-81.7714 917.4334,-79.075 907.7422,-74.7934 907.1874,-81.7714"/>
</g>
<!-- Node5 -->
<g id="node6" class="node">
<title>Node5</title>
<g id="a_node6"><a xlink:href="enumlib__dim_8140_8cpp.html" target="_top" xlink:title="fplll/enum&#45;parallel\l/enumlib_dim.140.cpp">
<polygon fill="#ffffff" stroke="#000000" points="520,-.5 520,-30.5 632,-30.5 632,-.5 520,-.5"/>
<text text-anchor="start" x="528" y="-18.5" font-family="Helvetica,sans-Serif" font-size="10.00" fill="#000000">fplll/enum&#45;parallel</text>
<text text-anchor="middle" x="576" y="-7.5" font-family="Helvetica,sans-Serif" font-size="10.00" fill="#000000">/enumlib_dim.140.cpp</text>
</a>
</g>
</g>
<!-- Node0&#45;&gt;Node5 -->
<g id="edge5" class="edge">
<title>Node0&#45;&gt;Node5</title>
<path fill="none" stroke="#191970" d="M907.2732,-74.7867C842.588,-65.6831 733.7834,-49.4318 641,-31 638.1553,-30.4349 635.2463,-29.8323 632.3127,-29.205"/>
<polygon fill="#191970" stroke="#191970" points="906.8781,-78.2655 917.2668,-76.1857 907.8486,-71.3331 906.8781,-78.2655"/>
</g>
<!-- Node6 -->
<g id="node7" class="node">
<title>Node6</title>
<g id="a_node7"><a xlink:href="enumlib__dim_8150_8cpp.html" target="_top" xlink:title="fplll/enum&#45;parallel\l/enumlib_dim.150.cpp">
<polygon fill="#ffffff" stroke="#000000" points="650,-.5 650,-30.5 762,-30.5 762,-.5 650,-.5"/>
<text text-anchor="start" x="658" y="-18.5" font-family="Helvetica,sans-Serif" font-size="10.00" fill="#000000">fplll/enum&#45;parallel</text>
<text text-anchor="middle" x="706" y="-7.5" font-family="Helvetica,sans-Serif" font-size="10.00" fill="#000000">/enumlib_dim.150.cpp</text>
</a>
</g>
</g>
<!-- Node0&#45;&gt;Node6 -->
<g id="edge6" class="edge">
<title>Node0&#45;&gt;Node6</title>
<path fill="none" stroke="#191970" d="M907.5122,-67.8307C864.4103,-56.6376 805.3123,-41.2904 762.2655,-30.1116"/>
<polygon fill="#191970" stroke="#191970" points="906.7194,-71.2408 917.2781,-70.3668 908.4789,-64.4656 906.7194,-71.2408"/>
</g>
<!-- Node7 -->
<g id="node8" class="node">
<title>Node7</title>
<g id="a_node8"><a xlink:href="enumlib__dim_8160_8cpp.html" target="_top" xlink:title="fplll/enum&#45;parallel\l/enumlib_dim.160.cpp">
<polygon fill="#ffffff" stroke="#000000" points="780,-.5 780,-30.5 892,-30.5 892,-.5 780,-.5"/>
<text text-anchor="start" x="788" y="-18.5" font-family="Helvetica,sans-Serif" font-size="10.00" fill="#000000">fplll/enum&#45;parallel</text>
<text text-anchor="middle" x="836" y="-7.5" font-family="Helvetica,sans-Serif" font-size="10.00" fill="#000000">/enumlib_dim.160.cpp</text>
</a>
</g>
</g>
<!-- Node0&#45;&gt;Node7 -->
<g id="edge7" class="edge">
<title>Node0&#45;&gt;Node7</title>
<path fill="none" stroke="#191970" d="M926.3151,-62.7743C906.7505,-52.5335 883.2132,-40.2132 865.0727,-30.7177"/>
<polygon fill="#191970" stroke="#191970" points="924.7915,-65.9272 935.2743,-67.4639 928.0378,-59.7255 924.7915,-65.9272"/>
</g>
<!-- Node8 -->
<g id="node9" class="node">
<title>Node8</title>
<g id="a_node9"><a xlink:href="enumlib__dim_820_8cpp.html" target="_top" xlink:title="fplll/enum&#45;parallel\l/enumlib_dim.20.cpp">
<polygon fill="#ffffff" stroke="#000000" points="910.5,-.5 910.5,-30.5 1017.5,-30.5 1017.5,-.5 910.5,-.5"/>
<text text-anchor="start" x="918.5" y="-18.5" font-family="Helvetica,sans-Serif" font-size="10.00" fill="#000000">fplll/enum&#45;parallel</text>
<text text-anchor="middle" x="964" y="-7.5" font-family="Helvetica,sans-Serif" font-size="10.00" fill="#000000">/enumlib_dim.20.cpp</text>
</a>
</g>
</g>
<!-- Node0&#45;&gt;Node8 -->
<g id="edge8" class="edge">
<title>Node0&#45;&gt;Node8</title>
<path fill="none" stroke="#191970" d="M964,-57.0249C964,-48.128 964,-38.4287 964,-30.6432"/>
<polygon fill="#191970" stroke="#191970" points="960.5001,-57.2966 964,-67.2967 967.5001,-57.2967 960.5001,-57.2966"/>
</g>
<!-- Node9 -->
<g id="node10" class="node">
<title>Node9</title>
<g id="a_node10"><a xlink:href="enumlib__dim_830_8cpp.html" target="_top" xlink:title="fplll/enum&#45;parallel\l/enumlib_dim.30.cpp">
<polygon fill="#ffffff" stroke="#000000" points="1035.5,-.5 1035.5,-30.5 1142.5,-30.5 1142.5,-.5 1035.5,-.5"/>
<text text-anchor="start" x="1043.5" y="-18.5" font-family="Helvetica,sans-Serif" font-size="10.00" fill="#000000">fplll/enum&#45;parallel</text>
<text text-anchor="middle" x="1089" y="-7.5" font-family="Helvetica,sans-Serif" font-size="10.00" fill="#000000">/enumlib_dim.30.cpp</text>
</a>
</g>
</g>
<!-- Node0&#45;&gt;Node9 -->
<g id="edge9" class="edge">
<title>Node0&#45;&gt;Node9</title>
<path fill="none" stroke="#191970" d="M1001.0613,-62.6352C1020.1156,-52.422 1042.9735,-40.1702 1060.6087,-30.7177"/>
<polygon fill="#191970" stroke="#191970" points="999.2127,-59.6549 992.0524,-67.4639 1002.5197,-65.8245 999.2127,-59.6549"/>
</g>
<!-- Node10 -->
<g id="node11" class="node">
<title>Node10</title>
<g id="a_node11"><a xlink:href="enumlib__dim_840_8cpp.html" target="_top" xlink:title="fplll/enum&#45;parallel\l/enumlib_dim.40.cpp">
<polygon fill="#ffffff" stroke="#000000" points="1160.5,-.5 1160.5,-30.5 1267.5,-30.5 1267.5,-.5 1160.5,-.5"/>
<text text-anchor="start" x="1168.5" y="-18.5" font-family="Helvetica,sans-Serif" font-size="10.00" fill="#000000">fplll/enum&#45;parallel</text>
<text text-anchor="middle" x="1214" y="-7.5" font-family="Helvetica,sans-Serif" font-size="10.00" fill="#000000">/enumlib_dim.40.cpp</text>
</a>
</g>
</g>
<!-- Node0&#45;&gt;Node10 -->
<g id="edge10" class="edge">
<title>Node0&#45;&gt;Node10</title>
<path fill="none" stroke="#191970" d="M1020.4866,-67.3616C1062.3059,-56.154 1118.9298,-40.9788 1160.1168,-29.9407"/>
<polygon fill="#191970" stroke="#191970" points="1019.4829,-64.007 1010.7298,-69.9764 1021.295,-70.7684 1019.4829,-64.007"/>
</g>
<!-- Node11 -->
<g id="node12" class="node">
<title>Node11</title>
<g id="a_node12"><a xlink:href="enumlib__dim_850_8cpp.html" target="_top" xlink:title="fplll/enum&#45;parallel\l/enumlib_dim.50.cpp">
<polygon fill="#ffffff" stroke="#000000" points="1285.5,-.5 1285.5,-30.5 1392.5,-30.5 1392.5,-.5 1285.5,-.5"/>
<text text-anchor="start" x="1293.5" y="-18.5" font-family="Helvetica,sans-Serif" font-size="10.00" fill="#000000">fplll/enum&#45;parallel</text>
<text text-anchor="middle" x="1339" y="-7.5" font-family="Helvetica,sans-Serif" font-size="10.00" fill="#000000">/enumlib_dim.50.cpp</text>
</a>
</g>
</g>
<!-- Node0&#45;&gt;Node11 -->
<g id="edge11" class="edge">
<title>Node0&#45;&gt;Node11</title>
<path fill="none" stroke="#191970" d="M1020.7319,-74.5933C1083.6353,-65.4951 1187.9848,-49.4178 1277,-31 1279.7163,-30.438 1282.4933,-29.8379 1285.2933,-29.2126"/>
<polygon fill="#191970" stroke="#191970" points="1020.0215,-71.1593 1010.6215,-76.0471 1021.0179,-78.0881 1020.0215,-71.1593"/>
</g>
<!-- Node12 -->
<g id="node13" class="node">
<title>Node12</title>
<g id="a_node13"><a xlink:href="enumlib__dim_860_8cpp.html" target="_top" xlink:title="fplll/enum&#45;parallel\l/enumlib_dim.60.cpp">
<polygon fill="#ffffff" stroke="#000000" points="1410.5,-.5 1410.5,-30.5 1517.5,-30.5 1517.5,-.5 1410.5,-.5"/>
<text text-anchor="start" x="1418.5" y="-18.5" font-family="Helvetica,sans-Serif" font-size="10.00" fill="#000000">fplll/enum&#45;parallel</text>
<text text-anchor="middle" x="1464" y="-7.5" font-family="Helvetica,sans-Serif" font-size="10.00" fill="#000000">/enumlib_dim.60.cpp</text>
</a>
</g>
</g>
<!-- Node0&#45;&gt;Node12 -->
<g id="edge12" class="edge">
<title>Node0&#45;&gt;Node12</title>
<path fill="none" stroke="#191970" d="M1020.7192,-78.1651C1104.5495,-71.2318 1266.2585,-55.8426 1402,-31 1404.7285,-30.5007 1407.5153,-29.951 1410.3231,-29.3657"/>
<polygon fill="#191970" stroke="#191970" points="1020.3253,-74.6855 1010.6437,-78.9886 1020.8956,-81.6622 1020.3253,-74.6855"/>
</g>
<!-- Node13 -->
<g id="node14" class="node">
<title>Node13</title>
<g id="a_node14"><a xlink:href="enumlib__dim_870_8cpp.html" target="_top" xlink:title="fplll/enum&#45;parallel\l/enumlib_dim.70.cpp">
<polygon fill="#ffffff" stroke="#000000" points="1535.5,-.5 1535.5,-30.5 1642.5,-30.5 1642.5,-.5 1535.5,-.5"/>
<text text-anchor="start" x="1543.5" y="-18.5" font-family="Helvetica,sans-Serif" font-size="10.00" fill="#000000">fplll/enum&#45;parallel</text>
<text text-anchor="middle" x="1589" y="-7.5" font-family="Helvetica,sans-Serif" font-size="10.00" fill="#000000">/enumlib_dim.70.cpp</text>
</a>
</g>
</g>
<!-- Node0&#45;&gt;Node13 -->
<g id="edge13" class="edge">
<title>Node0&#45;&gt;Node13</title>
<path fill="none" stroke="#191970" d="M1020.7346,-80.1973C1122.6929,-75.4192 1343.399,-62.1573 1527,-31 1529.7347,-30.5359 1532.5265,-30.0147 1535.3383,-29.4518"/>
<polygon fill="#191970" stroke="#191970" points="1020.4852,-76.705 1010.6563,-80.6599 1020.8063,-83.6976 1020.4852,-76.705"/>
</g>
<!-- Node14 -->
<g id="node15" class="node">
<title>Node14</title>
<g id="a_node15"><a xlink:href="enumlib__dim_880_8cpp.html" target="_top" xlink:title="fplll/enum&#45;parallel\l/enumlib_dim.80.cpp">
<polygon fill="#ffffff" stroke="#000000" points="1660.5,-.5 1660.5,-30.5 1767.5,-30.5 1767.5,-.5 1660.5,-.5"/>
<text text-anchor="start" x="1668.5" y="-18.5" font-family="Helvetica,sans-Serif" font-size="10.00" fill="#000000">fplll/enum&#45;parallel</text>
<text text-anchor="middle" x="1714" y="-7.5" font-family="Helvetica,sans-Serif" font-size="10.00" fill="#000000">/enumlib_dim.80.cpp</text>
</a>
</g>
</g>
<!-- Node0&#45;&gt;Node14 -->
<g id="edge14" class="edge">
<title>Node0&#45;&gt;Node14</title>
<path fill="none" stroke="#191970" d="M1020.8803,-81.5109C1139.1349,-78.7383 1419.8428,-68.429 1652,-31 1654.7384,-30.5585 1657.5333,-30.0554 1660.3474,-29.507"/>
<polygon fill="#191970" stroke="#191970" points="1020.5415,-78.0175 1010.6229,-81.7418 1020.6992,-85.0157 1020.5415,-78.0175"/>
</g>
<!-- Node15 -->
<g id="node16" class="node">
<title>Node15</title>
<g id="a_node16"><a xlink:href="enumlib__dim_890_8cpp.html" target="_top" xlink:title="fplll/enum&#45;parallel\l/enumlib_dim.90.cpp">
<polygon fill="#ffffff" stroke="#000000" points="1785.5,-.5 1785.5,-30.5 1892.5,-30.5 1892.5,-.5 1785.5,-.5"/>
<text text-anchor="start" x="1793.5" y="-18.5" font-family="Helvetica,sans-Serif" font-size="10.00" fill="#000000">fplll/enum&#45;parallel</text>
<text text-anchor="middle" x="1839" y="-7.5" font-family="Helvetica,sans-Serif" font-size="10.00" fill="#000000">/enumlib_dim.90.cpp</text>
</a>
</g>
</g>
<!-- Node0&#45;&gt;Node15 -->
<g id="edge15" class="edge">
<title>Node0&#45;&gt;Node15</title>
<path fill="none" stroke="#191970" d="M1020.7386,-80.2502C1180.2904,-73.7099 1630.7631,-53.7182 1777,-31 1779.7409,-30.5742 1782.5378,-30.0837 1785.3535,-29.5453"/>
<polygon fill="#191970" stroke="#191970" points="1020.5053,-76.7567 1010.6562,-80.6615 1020.7906,-83.7509 1020.5053,-76.7567"/>
</g>
</g>
</svg>
