<?xml version="1.0" encoding="UTF-8" standalone="no"?>
<!DOCTYPE svg PUBLIC "-//W3C//DTD SVG 1.1//EN"
 "http://www.w3.org/Graphics/SVG/1.1/DTD/svg11.dtd">
<!-- Generated by graphviz version 2.40.1 (20161225.0304)
 -->
<!-- Title: fplll/enum/evaluator.h Pages: 1 -->
<svg width="1015pt" height="386pt"
 viewBox="0.00 0.00 1015.00 386.00" xmlns="http://www.w3.org/2000/svg" xmlns:xlink="http://www.w3.org/1999/xlink">
<g id="graph0" class="graph" transform="scale(1 1) rotate(0) translate(4 382)">
<title>fplll/enum/evaluator.h</title>
<polygon fill="#ffffff" stroke="transparent" points="-4,4 -4,-382 1011,-382 1011,4 -4,4"/>
<!-- Node0 -->
<g id="node1" class="node">
<title>Node0</title>
<polygon fill="#bfbfbf" stroke="#000000" points="355,-358.5 355,-377.5 465,-377.5 465,-358.5 355,-358.5"/>
<text text-anchor="middle" x="410" y="-365.5" font-family="Helvetica,sans-Serif" font-size="10.00" fill="#000000">fplll/enum/evaluator.h</text>
</g>
<!-- Node1 -->
<g id="node2" class="node">
<title>Node1</title>
<g id="a_node2"><a xlink:href="enumerate__ext_8h.html" target="_top" xlink:title="fplll/enum/enumerate\l_ext.h">
<polygon fill="#ffffff" stroke="#000000" points="315.5,-291.5 315.5,-321.5 422.5,-321.5 422.5,-291.5 315.5,-291.5"/>
<text text-anchor="start" x="323.5" y="-309.5" font-family="Helvetica,sans-Serif" font-size="10.00" fill="#000000">fplll/enum/enumerate</text>
<text text-anchor="middle" x="369" y="-298.5" font-family="Helvetica,sans-Serif" font-size="10.00" fill="#000000">_ext.h</text>
</a>
</g>
</g>
<!-- Node0&#45;&gt;Node1 -->
<g id="edge1" class="edge">
<title>Node0&#45;&gt;Node1</title>
<path fill="none" stroke="#191970" d="M397.8694,-349.8041C391.8697,-340.8045 384.7153,-330.073 379.0297,-321.5446"/>
<polygon fill="#191970" stroke="#191970" points="395.1345,-352.0116 403.5938,-358.3906 400.9589,-348.1286 395.1345,-352.0116"/>
</g>
<!-- Node2 -->
<g id="node3" class="node">
<title>Node2</title>
<g id="a_node3"><a xlink:href="enumerate_8h.html" target="_top" xlink:title="fplll/enum/enumerate.h">
<polygon fill="#ffffff" stroke="#000000" points="181,-230 181,-249 297,-249 297,-230 181,-230"/>
<text text-anchor="middle" x="239" y="-237" font-family="Helvetica,sans-Serif" font-size="10.00" fill="#000000">fplll/enum/enumerate.h</text>
</a>
</g>
</g>
<!-- Node0&#45;&gt;Node2 -->
<g id="edge31" class="edge">
<title>Node0&#45;&gt;Node2</title>
<path fill="none" stroke="#191970" d="M375.4011,-354.7316C349.8036,-344.5408 317.4751,-330.7701 306,-322 278.2927,-300.8241 254.978,-265.9483 244.6721,-249.1436"/>
<polygon fill="#191970" stroke="#191970" points="374.2376,-358.035 384.8245,-358.4441 376.8035,-351.5222 374.2376,-358.035"/>
</g>
<!-- Node3 -->
<g id="node4" class="node">
<title>Node3</title>
<g id="a_node4"><a xlink:href="bkz_8h.html" target="_top" xlink:title="fplll/bkz.h">
<polygon fill="#ffffff" stroke="#000000" points="416.5,-168.5 416.5,-187.5 475.5,-187.5 475.5,-168.5 416.5,-168.5"/>
<text text-anchor="middle" x="446" y="-175.5" font-family="Helvetica,sans-Serif" font-size="10.00" fill="#000000">fplll/bkz.h</text>
</a>
</g>
</g>
<!-- Node0&#45;&gt;Node3 -->
<g id="edge32" class="edge">
<title>Node0&#45;&gt;Node3</title>
<path fill="none" stroke="#191970" d="M420.124,-349.4729C424.157,-341.282 428.4403,-331.3939 431,-322 444.4144,-272.7703 445.9864,-211.0687 446.0623,-187.6305"/>
<polygon fill="#191970" stroke="#191970" points="416.9528,-347.9858 415.4615,-358.4751 423.1685,-351.2052 416.9528,-347.9858"/>
</g>
<!-- Node23 -->
<g id="node24" class="node">
<title>Node23</title>
<g id="a_node24"><a xlink:href="evaluator_8cpp.html" target="_top" xlink:title="fplll/enum/evaluator.cpp">
<polygon fill="#ffffff" stroke="#000000" points="479,-297 479,-316 599,-316 599,-297 479,-297"/>
<text text-anchor="middle" x="539" y="-304" font-family="Helvetica,sans-Serif" font-size="10.00" fill="#000000">fplll/enum/evaluator.cpp</text>
</a>
</g>
</g>
<!-- Node0&#45;&gt;Node23 -->
<g id="edge33" class="edge">
<title>Node0&#45;&gt;Node23</title>
<path fill="none" stroke="#191970" d="M439.291,-354.0357C463.6419,-342.4265 497.6464,-326.2151 518.9853,-316.0419"/>
<polygon fill="#191970" stroke="#191970" points="437.6767,-350.9278 430.1563,-358.3906 440.6891,-357.2465 437.6767,-350.9278"/>
</g>
<!-- Node1&#45;&gt;Node2 -->
<g id="edge2" class="edge">
<title>Node1&#45;&gt;Node2</title>
<path fill="none" stroke="#191970" d="M330.9123,-286.8702C306.7963,-274.4412 276.678,-258.9187 257.6345,-249.1039"/>
<polygon fill="#191970" stroke="#191970" points="329.3331,-289.9938 339.8255,-291.4639 332.54,-283.7715 329.3331,-289.9938"/>
</g>
<!-- Node22 -->
<g id="node23" class="node">
<title>Node22</title>
<g id="a_node23"><a xlink:href="enumerate__ext_8cpp.html" target="_top" xlink:title="fplll/enum/enumerate\l_ext.cpp">
<polygon fill="#ffffff" stroke="#000000" points="315.5,-224.5 315.5,-254.5 422.5,-254.5 422.5,-224.5 315.5,-224.5"/>
<text text-anchor="start" x="323.5" y="-242.5" font-family="Helvetica,sans-Serif" font-size="10.00" fill="#000000">fplll/enum/enumerate</text>
<text text-anchor="middle" x="369" y="-231.5" font-family="Helvetica,sans-Serif" font-size="10.00" fill="#000000">_ext.cpp</text>
</a>
</g>
</g>
<!-- Node1&#45;&gt;Node22 -->
<g id="edge30" class="edge">
<title>Node1&#45;&gt;Node22</title>
<path fill="none" stroke="#191970" d="M369,-281.0249C369,-272.128 369,-262.4287 369,-254.6432"/>
<polygon fill="#191970" stroke="#191970" points="365.5001,-281.2966 369,-291.2967 372.5001,-281.2967 365.5001,-281.2966"/>
</g>
<!-- Node2&#45;&gt;Node3 -->
<g id="edge3" class="edge">
<title>Node2&#45;&gt;Node3</title>
<path fill="none" stroke="#191970" d="M281.1137,-226.988C321.2828,-215.0537 380.7681,-197.3805 416.2318,-186.8442"/>
<polygon fill="#191970" stroke="#191970" points="279.9328,-223.6875 271.3438,-229.8906 281.9264,-230.3976 279.9328,-223.6875"/>
</g>
<!-- Node4 -->
<g id="node5" class="node">
<title>Node4</title>
<g id="a_node5"><a xlink:href="bkz_8cpp.html" target="_top" xlink:title="fplll/bkz.cpp">
<polygon fill="#ffffff" stroke="#000000" points="288.5,-112.5 288.5,-131.5 357.5,-131.5 357.5,-112.5 288.5,-112.5"/>
<text text-anchor="middle" x="323" y="-119.5" font-family="Helvetica,sans-Serif" font-size="10.00" fill="#000000">fplll/bkz.cpp</text>
</a>
</g>
</g>
<!-- Node2&#45;&gt;Node4 -->
<g id="edge26" class="edge">
<title>Node2&#45;&gt;Node4</title>
<path fill="none" stroke="#191970" d="M240.6228,-219.4657C242.6859,-204.2096 247.3696,-183.2967 258,-168 269.203,-151.8794 287.9768,-139.4894 302.4755,-131.6513"/>
<polygon fill="#191970" stroke="#191970" points="237.0962,-219.5245 239.5009,-229.8428 244.0556,-220.2769 237.0962,-219.5245"/>
</g>
<!-- Node20 -->
<g id="node21" class="node">
<title>Node20</title>
<g id="a_node21"><a xlink:href="enumerate_8cpp.html" target="_top" xlink:title="fplll/enum/enumerate.cpp">
<polygon fill="#ffffff" stroke="#000000" points="267,-168.5 267,-187.5 393,-187.5 393,-168.5 267,-168.5"/>
<text text-anchor="middle" x="330" y="-175.5" font-family="Helvetica,sans-Serif" font-size="10.00" fill="#000000">fplll/enum/enumerate.cpp</text>
</a>
</g>
</g>
<!-- Node2&#45;&gt;Node20 -->
<g id="edge27" class="edge">
<title>Node2&#45;&gt;Node20</title>
<path fill="none" stroke="#191970" d="M261.5117,-224.286C278.5275,-212.7864 301.3609,-197.355 315.8811,-187.5419"/>
<polygon fill="#191970" stroke="#191970" points="259.5443,-221.3913 253.2188,-229.8906 263.4639,-227.191 259.5443,-221.3913"/>
</g>
<!-- Node21 -->
<g id="node22" class="node">
<title>Node21</title>
<g id="a_node22"><a xlink:href="svpcvp_8cpp.html" target="_top" xlink:title="fplll/svpcvp.cpp">
<polygon fill="#ffffff" stroke="#000000" points="140.5,-112.5 140.5,-131.5 225.5,-131.5 225.5,-112.5 140.5,-112.5"/>
<text text-anchor="middle" x="183" y="-119.5" font-family="Helvetica,sans-Serif" font-size="10.00" fill="#000000">fplll/svpcvp.cpp</text>
</a>
</g>
</g>
<!-- Node2&#45;&gt;Node21 -->
<g id="edge28" class="edge">
<title>Node2&#45;&gt;Node21</title>
<path fill="none" stroke="#191970" d="M229.9874,-220.5896C217.9121,-195.2531 196.9289,-151.2259 187.646,-131.7484"/>
<polygon fill="#191970" stroke="#191970" points="226.9554,-222.3631 234.4173,-229.8845 233.2744,-219.3515 226.9554,-222.3631"/>
</g>
<!-- Node3&#45;&gt;Node4 -->
<g id="edge4" class="edge">
<title>Node3&#45;&gt;Node4</title>
<path fill="none" stroke="#191970" d="M415.4935,-164.1109C393.1888,-153.9559 363.5201,-140.4482 343.8685,-131.5011"/>
<polygon fill="#191970" stroke="#191970" points="414.3041,-167.415 424.8555,-168.3733 417.2047,-161.0442 414.3041,-167.415"/>
</g>
<!-- Node5 -->
<g id="node6" class="node">
<title>Node5</title>
<g id="a_node6"><a xlink:href="fplll_8h.html" target="_top" xlink:title="fplll/fplll.h">
<polygon fill="#ffffff" stroke="#000000" points="421,-112.5 421,-131.5 479,-131.5 479,-112.5 421,-112.5"/>
<text text-anchor="middle" x="450" y="-119.5" font-family="Helvetica,sans-Serif" font-size="10.00" fill="#000000">fplll/fplll.h</text>
</a>
</g>
</g>
<!-- Node3&#45;&gt;Node5 -->
<g id="edge5" class="edge">
<title>Node3&#45;&gt;Node5</title>
<path fill="none" stroke="#191970" d="M447.4173,-158.1575C448.0604,-149.155 448.7914,-138.9199 449.3112,-131.6427"/>
<polygon fill="#191970" stroke="#191970" points="443.9182,-158.0216 446.6967,-168.2455 450.9004,-158.5204 443.9182,-158.0216"/>
</g>
<!-- Node6 -->
<g id="node7" class="node">
<title>Node6</title>
<g id="a_node7"><a xlink:href="fplll_8cpp.html" target="_top" xlink:title="fplll/fplll.cpp">
<polygon fill="#ffffff" stroke="#000000" points="132,-56.5 132,-75.5 200,-75.5 200,-56.5 132,-56.5"/>
<text text-anchor="middle" x="166" y="-63.5" font-family="Helvetica,sans-Serif" font-size="10.00" fill="#000000">fplll/fplll.cpp</text>
</a>
</g>
</g>
<!-- Node5&#45;&gt;Node6 -->
<g id="edge6" class="edge">
<title>Node5&#45;&gt;Node6</title>
<path fill="none" stroke="#191970" d="M410.8859,-114.5361C364.0478,-105.5612 283.2377,-89.9594 214,-76 209.494,-75.0915 204.7533,-74.1214 200.0773,-73.156"/>
<polygon fill="#191970" stroke="#191970" points="410.4307,-118.0124 420.9104,-116.4551 411.7469,-111.1372 410.4307,-118.0124"/>
</g>
<!-- Node7 -->
<g id="node8" class="node">
<title>Node7</title>
<g id="a_node8"><a xlink:href="main_8h.html" target="_top" xlink:title="fplll/main.h">
<polygon fill="#ffffff" stroke="#000000" points="938,-56.5 938,-75.5 1002,-75.5 1002,-56.5 938,-56.5"/>
<text text-anchor="middle" x="970" y="-63.5" font-family="Helvetica,sans-Serif" font-size="10.00" fill="#000000">fplll/main.h</text>
</a>
</g>
</g>
<!-- Node5&#45;&gt;Node7 -->
<g id="edge7" class="edge">
<title>Node5&#45;&gt;Node7</title>
<path fill="none" stroke="#191970" d="M489.2026,-120.1439C571.2823,-115.8397 767.0285,-103.3845 929,-76 931.8897,-75.5114 934.8773,-74.9314 937.8617,-74.3004"/>
<polygon fill="#191970" stroke="#191970" points="488.8843,-116.6556 479.0769,-120.6635 489.2431,-123.6464 488.8843,-116.6556"/>
</g>
<!-- Node9 -->
<g id="node10" class="node">
<title>Node9</title>
<g id="a_node10"><a xlink:href="sieve__main_8cpp.html" target="_top" xlink:title="fplll/sieve/sieve_main.cpp">
<polygon fill="#ffffff" stroke="#000000" points="790.5,-56.5 790.5,-75.5 919.5,-75.5 919.5,-56.5 790.5,-56.5"/>
<text text-anchor="middle" x="855" y="-63.5" font-family="Helvetica,sans-Serif" font-size="10.00" fill="#000000">fplll/sieve/sieve_main.cpp</text>
</a>
</g>
</g>
<!-- Node5&#45;&gt;Node9 -->
<g id="edge9" class="edge">
<title>Node5&#45;&gt;Node9</title>
<path fill="none" stroke="#191970" d="M489.254,-116.5723C559.0658,-106.9193 705.4302,-86.6813 790.3156,-74.944"/>
<polygon fill="#191970" stroke="#191970" points="488.5529,-113.1358 479.1266,-117.9726 489.5118,-120.0699 488.5529,-113.1358"/>
</g>
<!-- Node10 -->
<g id="node11" class="node">
<title>Node10</title>
<g id="a_node11"><a xlink:href="test__bkz_8cpp.html" target="_top" xlink:title="tests/test_bkz.cpp">
<polygon fill="#ffffff" stroke="#000000" points="713,-.5 713,-19.5 811,-19.5 811,-.5 713,-.5"/>
<text text-anchor="middle" x="762" y="-7.5" font-family="Helvetica,sans-Serif" font-size="10.00" fill="#000000">tests/test_bkz.cpp</text>
</a>
</g>
</g>
<!-- Node5&#45;&gt;Node10 -->
<g id="edge10" class="edge">
<title>Node5&#45;&gt;Node10</title>
<path fill="none" stroke="#191970" d="M489.7376,-120.9107C560.8959,-118.1487 706.0959,-108.5711 743,-76 759.2704,-61.6399 762.0095,-34.3396 762.2336,-19.7564"/>
<polygon fill="#191970" stroke="#191970" points="489.2561,-117.4257 479.389,-121.2843 489.5088,-124.4211 489.2561,-117.4257"/>
</g>
<!-- Node11 -->
<g id="node12" class="node">
<title>Node11</title>
<g id="a_node12"><a xlink:href="test__cvp_8cpp.html" target="_top" xlink:title="tests/test_cvp.cpp">
<polygon fill="#ffffff" stroke="#000000" points="0,-.5 0,-19.5 98,-19.5 98,-.5 0,-.5"/>
<text text-anchor="middle" x="49" y="-7.5" font-family="Helvetica,sans-Serif" font-size="10.00" fill="#000000">tests/test_cvp.cpp</text>
</a>
</g>
</g>
<!-- Node5&#45;&gt;Node11 -->
<g id="edge11" class="edge">
<title>Node5&#45;&gt;Node11</title>
<path fill="none" stroke="#191970" d="M410.7321,-115.53C370.0735,-108.2301 305.0509,-94.8643 251,-76 231.4797,-69.1872 228.3337,-63.3255 209,-56 168.9987,-40.8435 121.7723,-27.8372 89.0445,-19.5607"/>
<polygon fill="#191970" stroke="#191970" points="410.3174,-119.0108 420.7728,-117.2981 411.5314,-112.1168 410.3174,-119.0108"/>
</g>
<!-- Node12 -->
<g id="node13" class="node">
<title>Node12</title>
<g id="a_node13"><a xlink:href="test__lll_8cpp.html" target="_top" xlink:title="tests/test_lll.cpp">
<polygon fill="#ffffff" stroke="#000000" points="116.5,-.5 116.5,-19.5 205.5,-19.5 205.5,-.5 116.5,-.5"/>
<text text-anchor="middle" x="161" y="-7.5" font-family="Helvetica,sans-Serif" font-size="10.00" fill="#000000">tests/test_lll.cpp</text>
</a>
</g>
</g>
<!-- Node5&#45;&gt;Node12 -->
<g id="edge12" class="edge">
<title>Node5&#45;&gt;Node12</title>
<path fill="none" stroke="#191970" d="M411.2356,-111.5208C381.0873,-102.9959 338.4054,-90.1022 302,-76 256.886,-58.5244 205.9253,-33.2195 179.3506,-19.578"/>
<polygon fill="#191970" stroke="#191970" points="410.3789,-114.9154 420.9521,-114.2397 412.2653,-108.1744 410.3789,-114.9154"/>
</g>
<!-- Node13 -->
<g id="node14" class="node">
<title>Node13</title>
<g id="a_node14"><a xlink:href="test__lll__gram_8cpp.html" target="_top" xlink:title="tests/test_lll_gram.cpp">
<polygon fill="#ffffff" stroke="#000000" points="223,-.5 223,-19.5 339,-19.5 339,-.5 223,-.5"/>
<text text-anchor="middle" x="281" y="-7.5" font-family="Helvetica,sans-Serif" font-size="10.00" fill="#000000">tests/test_lll_gram.cpp</text>
</a>
</g>
</g>
<!-- Node5&#45;&gt;Node13 -->
<g id="edge13" class="edge">
<title>Node5&#45;&gt;Node13</title>
<path fill="none" stroke="#191970" d="M410.9836,-114.8265C384.022,-108.3101 348.5523,-96.4857 323,-76 303.9261,-60.7081 290.9107,-34.2911 284.8639,-19.9537"/>
<polygon fill="#191970" stroke="#191970" points="410.335,-118.2683 420.862,-117.0711 411.8861,-111.4423 410.335,-118.2683"/>
</g>
<!-- Node14 -->
<g id="node15" class="node">
<title>Node14</title>
<g id="a_node15"><a xlink:href="test__nr_8cpp.html" target="_top" xlink:title="tests/test_nr.cpp">
<polygon fill="#ffffff" stroke="#000000" points="516,-56.5 516,-75.5 606,-75.5 606,-56.5 516,-56.5"/>
<text text-anchor="middle" x="561" y="-63.5" font-family="Helvetica,sans-Serif" font-size="10.00" fill="#000000">tests/test_nr.cpp</text>
</a>
</g>
</g>
<!-- Node5&#45;&gt;Node14 -->
<g id="edge14" class="edge">
<title>Node5&#45;&gt;Node14</title>
<path fill="none" stroke="#191970" d="M478.0734,-107.8368C498.1385,-97.7139 524.5922,-84.3679 542.1674,-75.5011"/>
<polygon fill="#191970" stroke="#191970" points="476.4332,-104.7441 469.0816,-112.3733 479.5862,-110.9938 476.4332,-104.7441"/>
</g>
<!-- Node15 -->
<g id="node16" class="node">
<title>Node15</title>
<g id="a_node16"><a xlink:href="test__pruner_8cpp.html" target="_top" xlink:title="tests/test_pruner.cpp">
<polygon fill="#ffffff" stroke="#000000" points="624.5,-56.5 624.5,-75.5 733.5,-75.5 733.5,-56.5 624.5,-56.5"/>
<text text-anchor="middle" x="679" y="-63.5" font-family="Helvetica,sans-Serif" font-size="10.00" fill="#000000">tests/test_pruner.cpp</text>
</a>
</g>
</g>
<!-- Node5&#45;&gt;Node15 -->
<g id="edge15" class="edge">
<title>Node5&#45;&gt;Node15</title>
<path fill="none" stroke="#191970" d="M488.8845,-112.4911C530.9773,-102.1977 597.7285,-85.8742 639.9038,-75.5606"/>
<polygon fill="#191970" stroke="#191970" points="487.8854,-109.1322 479.003,-114.9076 489.5482,-115.9319 487.8854,-109.1322"/>
</g>
<!-- Node16 -->
<g id="node17" class="node">
<title>Node16</title>
<g id="a_node17"><a xlink:href="test__sieve_8cpp.html" target="_top" xlink:title="tests/test_sieve.cpp">
<polygon fill="#ffffff" stroke="#000000" points="473.5,-.5 473.5,-19.5 578.5,-19.5 578.5,-.5 473.5,-.5"/>
<text text-anchor="middle" x="526" y="-7.5" font-family="Helvetica,sans-Serif" font-size="10.00" fill="#000000">tests/test_sieve.cpp</text>
</a>
</g>
</g>
<!-- Node5&#45;&gt;Node16 -->
<g id="edge16" class="edge">
<title>Node5&#45;&gt;Node16</title>
<path fill="none" stroke="#191970" d="M454.365,-102.4524C458.0771,-88.6456 464.3638,-70.1561 474,-56 484.038,-41.2536 499.8494,-28.1832 511.4038,-19.7796"/>
<polygon fill="#191970" stroke="#191970" points="450.9207,-101.8018 451.9252,-112.3489 457.7172,-103.4774 450.9207,-101.8018"/>
</g>
<!-- Node17 -->
<g id="node18" class="node">
<title>Node17</title>
<g id="a_node18"><a xlink:href="test__svp_8cpp.html" target="_top" xlink:title="tests/test_svp.cpp">
<polygon fill="#ffffff" stroke="#000000" points="597,-.5 597,-19.5 695,-19.5 695,-.5 597,-.5"/>
<text text-anchor="middle" x="646" y="-7.5" font-family="Helvetica,sans-Serif" font-size="10.00" fill="#000000">tests/test_svp.cpp</text>
</a>
</g>
</g>
<!-- Node5&#45;&gt;Node17 -->
<g id="edge17" class="edge">
<title>Node5&#45;&gt;Node17</title>
<path fill="none" stroke="#191970" d="M461.3649,-104.1256C471.6366,-89.3038 488.0264,-68.6768 507,-56 534.0536,-37.9247 568.8036,-26.4247 596.7902,-19.4435"/>
<polygon fill="#191970" stroke="#191970" points="458.429,-102.2198 455.7915,-112.4812 464.2524,-106.1042 458.429,-102.2198"/>
</g>
<!-- Node18 -->
<g id="node19" class="node">
<title>Node18</title>
<g id="a_node19"><a xlink:href="test__utils_8h.html" target="_top" xlink:title="tests/test_utils.h">
<polygon fill="#ffffff" stroke="#000000" points="332.5,-56.5 332.5,-75.5 421.5,-75.5 421.5,-56.5 332.5,-56.5"/>
<text text-anchor="middle" x="377" y="-63.5" font-family="Helvetica,sans-Serif" font-size="10.00" fill="#000000">tests/test_utils.h</text>
</a>
</g>
</g>
<!-- Node5&#45;&gt;Node18 -->
<g id="edge18" class="edge">
<title>Node5&#45;&gt;Node18</title>
<path fill="none" stroke="#191970" d="M429.049,-105.928C416.2893,-96.1397 400.4115,-83.9595 389.5699,-75.6427"/>
<polygon fill="#191970" stroke="#191970" points="427.2197,-108.9359 437.2844,-112.2455 431.4804,-103.3819 427.2197,-108.9359"/>
</g>
<!-- Node8 -->
<g id="node9" class="node">
<title>Node8</title>
<g id="a_node9"><a xlink:href="main_8cpp.html" target="_top" xlink:title="fplll/main.cpp">
<polygon fill="#ffffff" stroke="#000000" points="933,-.5 933,-19.5 1007,-19.5 1007,-.5 933,-.5"/>
<text text-anchor="middle" x="970" y="-7.5" font-family="Helvetica,sans-Serif" font-size="10.00" fill="#000000">fplll/main.cpp</text>
</a>
</g>
</g>
<!-- Node7&#45;&gt;Node8 -->
<g id="edge8" class="edge">
<title>Node7&#45;&gt;Node8</title>
<path fill="none" stroke="#191970" d="M970,-46.1575C970,-37.155 970,-26.9199 970,-19.6427"/>
<polygon fill="#191970" stroke="#191970" points="966.5001,-46.2455 970,-56.2455 973.5001,-46.2456 966.5001,-46.2455"/>
</g>
<!-- Node18&#45;&gt;Node10 -->
<g id="edge19" class="edge">
<title>Node18&#45;&gt;Node10</title>
<path fill="none" stroke="#191970" d="M431.7832,-58.8211C496.796,-50.1796 608.4344,-34.9565 704,-20 706.9276,-19.5418 709.9362,-19.0591 712.9699,-18.5633"/>
<polygon fill="#191970" stroke="#191970" points="431.212,-55.3661 421.7589,-60.1504 432.1323,-62.3053 431.212,-55.3661"/>
</g>
<!-- Node18&#45;&gt;Node11 -->
<g id="edge20" class="edge">
<title>Node18&#45;&gt;Node11</title>
<path fill="none" stroke="#191970" d="M321.9406,-56.6524C267.3739,-47.3807 181.4097,-32.7532 107,-20 104.0794,-19.4994 101.0761,-18.9839 98.0465,-18.4633"/>
<polygon fill="#191970" stroke="#191970" points="321.6431,-60.1519 332.0881,-58.3764 322.8156,-53.2508 321.6431,-60.1519"/>
</g>
<!-- Node18&#45;&gt;Node12 -->
<g id="edge22" class="edge">
<title>Node18&#45;&gt;Node12</title>
<path fill="none" stroke="#191970" d="M330.14,-53.8511C290.3927,-43.5462 234.169,-28.9697 197.6472,-19.5011"/>
<polygon fill="#191970" stroke="#191970" points="329.3099,-57.2516 339.8683,-56.3733 331.0667,-50.4756 329.3099,-57.2516"/>
</g>
<!-- Node18&#45;&gt;Node13 -->
<g id="edge23" class="edge">
<title>Node18&#45;&gt;Node13</title>
<path fill="none" stroke="#191970" d="M351.3654,-51.0465C334.2841,-41.0824 312.336,-28.2794 297.5303,-19.6427"/>
<polygon fill="#191970" stroke="#191970" points="349.8767,-54.23 360.2781,-56.2455 353.4038,-48.1836 349.8767,-54.23"/>
</g>
<!-- Node18&#45;&gt;Node16 -->
<g id="edge24" class="edge">
<title>Node18&#45;&gt;Node16</title>
<path fill="none" stroke="#191970" d="M412.1512,-52.7888C439.3568,-42.5639 476.3809,-28.6488 500.7202,-19.5011"/>
<polygon fill="#191970" stroke="#191970" points="410.7434,-49.5788 402.614,-56.3733 413.2061,-56.1313 410.7434,-49.5788"/>
</g>
<!-- Node18&#45;&gt;Node17 -->
<g id="edge25" class="edge">
<title>Node18&#45;&gt;Node17</title>
<path fill="none" stroke="#191970" d="M431.639,-54.6253C481.2657,-44.2941 553.6331,-29.2288 600.2708,-19.5198"/>
<polygon fill="#191970" stroke="#191970" points="430.7986,-51.2252 421.7218,-56.6899 432.2253,-58.0782 430.7986,-51.2252"/>
</g>
<!-- Node19 -->
<g id="node20" class="node">
<title>Node19</title>
<g id="a_node20"><a xlink:href="test__gso_8cpp.html" target="_top" xlink:title="tests/test_gso.cpp">
<polygon fill="#ffffff" stroke="#000000" points="357,-.5 357,-19.5 455,-19.5 455,-.5 357,-.5"/>
<text text-anchor="middle" x="406" y="-7.5" font-family="Helvetica,sans-Serif" font-size="10.00" fill="#000000">tests/test_gso.cpp</text>
</a>
</g>
</g>
<!-- Node18&#45;&gt;Node19 -->
<g id="edge21" class="edge">
<title>Node18&#45;&gt;Node19</title>
<path fill="none" stroke="#191970" d="M386.6647,-47.3372C391.4687,-38.0605 397.0723,-27.2398 401.0065,-19.6427"/>
<polygon fill="#191970" stroke="#191970" points="383.542,-45.7561 382.0514,-56.2455 389.758,-48.9751 383.542,-45.7561"/>
</g>
<!-- Node21&#45;&gt;Node6 -->
<g id="edge29" class="edge">
<title>Node21&#45;&gt;Node6</title>
<path fill="none" stroke="#191970" d="M177.0663,-102.4538C174.3119,-93.3803 171.1607,-82.9998 168.9272,-75.6427"/>
<polygon fill="#191970" stroke="#191970" points="173.7849,-103.6934 180.0388,-112.2455 180.483,-101.66 173.7849,-103.6934"/>
</g>
</g>
</svg>
