<?xml version="1.0" encoding="UTF-8" standalone="no"?>
<!DOCTYPE svg PUBLIC "-//W3C//DTD SVG 1.1//EN"
 "http://www.w3.org/Graphics/SVG/1.1/DTD/svg11.dtd">
<!-- Generated by graphviz version 2.38.0 (20140413.2041)
 -->
<!-- Title: fplll/enum/evaluator.h Pages: 1 -->
<svg width="864pt" height="308pt"
 viewBox="0.00 0.00 863.50 308.00" xmlns="http://www.w3.org/2000/svg" xmlns:xlink="http://www.w3.org/1999/xlink">
<g id="graph0" class="graph" transform="scale(1 1) rotate(0) translate(4 304)">
<title>fplll/enum/evaluator.h</title>
<polygon fill="white" stroke="none" points="-4,4 -4,-304 859.5,-304 859.5,4 -4,4"/>
<!-- Node1 -->
<g id="node1" class="node"><title>Node1</title>
<polygon fill="#bfbfbf" stroke="black" points="574,-280.5 574,-299.5 684,-299.5 684,-280.5 574,-280.5"/>
<text text-anchor="middle" x="629" y="-287.5" font-family="Helvetica,sans-Serif" font-size="10.00">fplll/enum/evaluator.h</text>
</g>
<!-- Node2 -->
<g id="node2" class="node"><title>Node2</title>
<g id="a_node2"><a xlink:href="bkz_8h.html" target="_top" xlink:title="fplll/bkz.h">
<polygon fill="white" stroke="black" points="513.5,-168.5 513.5,-187.5 572.5,-187.5 572.5,-168.5 513.5,-168.5"/>
<text text-anchor="middle" x="543" y="-175.5" font-family="Helvetica,sans-Serif" font-size="10.00">fplll/bkz.h</text>
</a>
</g>
</g>
<!-- Node1&#45;&gt;Node2 -->
<g id="edge1" class="edge"><title>Node1&#45;&gt;Node2</title>
<path fill="none" stroke="midnightblue" d="M600.308,-275.619C586.923,-268.057 571.818,-257.413 562,-244 549.361,-226.734 545.09,-201.165 543.677,-187.826"/>
<polygon fill="midnightblue" stroke="midnightblue" points="598.741,-278.75 609.213,-280.358 602.029,-272.571 598.741,-278.75"/>
</g>
<!-- Node14 -->
<g id="node14" class="node"><title>Node14</title>
<g id="a_node14"><a xlink:href="enumerate_8h.html" target="_top" xlink:title="fplll/enum/enumerate.h">
<polygon fill="white" stroke="black" points="571,-224.5 571,-243.5 687,-243.5 687,-224.5 571,-224.5"/>
<text text-anchor="middle" x="629" y="-231.5" font-family="Helvetica,sans-Serif" font-size="10.00">fplll/enum/enumerate.h</text>
</a>
</g>
</g>
<!-- Node1&#45;&gt;Node14 -->
<g id="edge13" class="edge"><title>Node1&#45;&gt;Node14</title>
<path fill="none" stroke="midnightblue" d="M629,-269.805C629,-260.91 629,-250.78 629,-243.751"/>
<polygon fill="midnightblue" stroke="midnightblue" points="625.5,-270.083 629,-280.083 632.5,-270.083 625.5,-270.083"/>
</g>
<!-- Node17 -->
<g id="node17" class="node"><title>Node17</title>
<g id="a_node17"><a xlink:href="evaluator_8cpp.html" target="_top" xlink:title="fplll/enum/evaluator.cpp">
<polygon fill="white" stroke="black" points="705,-224.5 705,-243.5 825,-243.5 825,-224.5 705,-224.5"/>
<text text-anchor="middle" x="765" y="-231.5" font-family="Helvetica,sans-Serif" font-size="10.00">fplll/enum/evaluator.cpp</text>
</a>
</g>
</g>
<!-- Node1&#45;&gt;Node17 -->
<g id="edge19" class="edge"><title>Node1&#45;&gt;Node17</title>
<path fill="none" stroke="midnightblue" d="M660.135,-276.638C685.657,-266.504 721.109,-252.427 743.551,-243.516"/>
<polygon fill="midnightblue" stroke="midnightblue" points="658.552,-273.5 650.55,-280.444 661.135,-280.006 658.552,-273.5"/>
</g>
<!-- Node3 -->
<g id="node3" class="node"><title>Node3</title>
<g id="a_node3"><a xlink:href="bkz_8cpp.html" target="_top" xlink:title="fplll/bkz.cpp">
<polygon fill="white" stroke="black" points="561.5,-112.5 561.5,-131.5 630.5,-131.5 630.5,-112.5 561.5,-112.5"/>
<text text-anchor="middle" x="596" y="-119.5" font-family="Helvetica,sans-Serif" font-size="10.00">fplll/bkz.cpp</text>
</a>
</g>
</g>
<!-- Node2&#45;&gt;Node3 -->
<g id="edge2" class="edge"><title>Node2&#45;&gt;Node3</title>
<path fill="none" stroke="midnightblue" d="M558.981,-160.718C568.322,-151.2 579.746,-139.561 587.411,-131.751"/>
<polygon fill="midnightblue" stroke="midnightblue" points="556.259,-158.494 551.752,-168.083 561.254,-163.398 556.259,-158.494"/>
</g>
<!-- Node4 -->
<g id="node4" class="node"><title>Node4</title>
<g id="a_node4"><a xlink:href="fplll_8h.html" target="_top" xlink:title="fplll/fplll.h">
<polygon fill="white" stroke="black" points="444,-112.5 444,-131.5 502,-131.5 502,-112.5 444,-112.5"/>
<text text-anchor="middle" x="473" y="-119.5" font-family="Helvetica,sans-Serif" font-size="10.00">fplll/fplll.h</text>
</a>
</g>
</g>
<!-- Node2&#45;&gt;Node4 -->
<g id="edge3" class="edge"><title>Node2&#45;&gt;Node4</title>
<path fill="none" stroke="midnightblue" d="M523.686,-162.101C511.088,-152.382 495.072,-140.027 484.451,-131.834"/>
<polygon fill="midnightblue" stroke="midnightblue" points="521.698,-164.987 531.753,-168.324 525.973,-159.445 521.698,-164.987"/>
</g>
<!-- Node5 -->
<g id="node5" class="node"><title>Node5</title>
<g id="a_node5"><a xlink:href="fplll_8cpp.html" target="_top" xlink:title="fplll/fplll.cpp">
<polygon fill="white" stroke="black" points="785,-56.5 785,-75.5 853,-75.5 853,-56.5 785,-56.5"/>
<text text-anchor="middle" x="819" y="-63.5" font-family="Helvetica,sans-Serif" font-size="10.00">fplll/fplll.cpp</text>
</a>
</g>
</g>
<!-- Node4&#45;&gt;Node5 -->
<g id="edge4" class="edge"><title>Node4&#45;&gt;Node5</title>
<path fill="none" stroke="midnightblue" d="M512.528,-115.886C570.488,-108.216 681.868,-92.826 776,-76 778.853,-75.49 781.807,-74.9331 784.768,-74.3545"/>
<polygon fill="midnightblue" stroke="midnightblue" points="511.801,-112.451 502.343,-117.227 512.715,-119.391 511.801,-112.451"/>
</g>
<!-- Node6 -->
<g id="node6" class="node"><title>Node6</title>
<g id="a_node6"><a xlink:href="main_8h.html" target="_top" xlink:title="fplll/main.h">
<polygon fill="white" stroke="black" points="5,-56.5 5,-75.5 69,-75.5 69,-56.5 5,-56.5"/>
<text text-anchor="middle" x="37" y="-63.5" font-family="Helvetica,sans-Serif" font-size="10.00">fplll/main.h</text>
</a>
</g>
</g>
<!-- Node4&#45;&gt;Node6 -->
<g id="edge5" class="edge"><title>Node4&#45;&gt;Node6</title>
<path fill="none" stroke="midnightblue" d="M433.297,-117.835C361.892,-111.842 207.198,-97.4814 78,-76 75.1245,-75.5219 72.1466,-74.9735 69.1685,-74.3884"/>
<polygon fill="midnightblue" stroke="midnightblue" points="433.365,-121.353 443.62,-118.692 433.944,-114.377 433.365,-121.353"/>
</g>
<!-- Node8 -->
<g id="node8" class="node"><title>Node8</title>
<g id="a_node8"><a xlink:href="test__bkz_8cpp.html" target="_top" xlink:title="tests/test_bkz.cpp">
<polygon fill="white" stroke="black" points="87,-56.5 87,-75.5 185,-75.5 185,-56.5 87,-56.5"/>
<text text-anchor="middle" x="136" y="-63.5" font-family="Helvetica,sans-Serif" font-size="10.00">tests/test_bkz.cpp</text>
</a>
</g>
</g>
<!-- Node4&#45;&gt;Node8 -->
<g id="edge7" class="edge"><title>Node4&#45;&gt;Node8</title>
<path fill="none" stroke="midnightblue" d="M433.882,-114.732C372.244,-104.855 252.617,-85.6864 185.226,-74.8879"/>
<polygon fill="midnightblue" stroke="midnightblue" points="433.548,-118.223 443.976,-116.349 434.656,-111.311 433.548,-118.223"/>
</g>
<!-- Node9 -->
<g id="node9" class="node"><title>Node9</title>
<g id="a_node9"><a xlink:href="test__lll_8cpp.html" target="_top" xlink:title="tests/test_lll.cpp">
<polygon fill="white" stroke="black" points="202.5,-56.5 202.5,-75.5 291.5,-75.5 291.5,-56.5 202.5,-56.5"/>
<text text-anchor="middle" x="247" y="-63.5" font-family="Helvetica,sans-Serif" font-size="10.00">tests/test_lll.cpp</text>
</a>
</g>
</g>
<!-- Node4&#45;&gt;Node9 -->
<g id="edge8" class="edge"><title>Node4&#45;&gt;Node9</title>
<path fill="none" stroke="midnightblue" d="M433.925,-111.663C391.356,-101.492 323.846,-85.3615 282.668,-75.5225"/>
<polygon fill="midnightblue" stroke="midnightblue" points="433.377,-115.131 443.917,-114.051 435.004,-108.323 433.377,-115.131"/>
</g>
<!-- Node10 -->
<g id="node10" class="node"><title>Node10</title>
<g id="a_node10"><a xlink:href="test__nr_8cpp.html" target="_top" xlink:title="tests/test_nr.cpp">
<polygon fill="white" stroke="black" points="310,-56.5 310,-75.5 400,-75.5 400,-56.5 310,-56.5"/>
<text text-anchor="middle" x="355" y="-63.5" font-family="Helvetica,sans-Serif" font-size="10.00">tests/test_nr.cpp</text>
</a>
</g>
</g>
<!-- Node4&#45;&gt;Node10 -->
<g id="edge9" class="edge"><title>Node4&#45;&gt;Node10</title>
<path fill="none" stroke="midnightblue" d="M445.1,-108.232C423.027,-98.1312 392.824,-84.3091 373.61,-75.5164"/>
<polygon fill="midnightblue" stroke="midnightblue" points="443.753,-111.465 454.303,-112.444 446.666,-105.1 443.753,-111.465"/>
</g>
<!-- Node11 -->
<g id="node11" class="node"><title>Node11</title>
<g id="a_node11"><a xlink:href="test__pruner_8cpp.html" target="_top" xlink:title="tests/test_pruner.cpp">
<polygon fill="white" stroke="black" points="418.5,-56.5 418.5,-75.5 527.5,-75.5 527.5,-56.5 418.5,-56.5"/>
<text text-anchor="middle" x="473" y="-63.5" font-family="Helvetica,sans-Serif" font-size="10.00">tests/test_pruner.cpp</text>
</a>
</g>
</g>
<!-- Node4&#45;&gt;Node11 -->
<g id="edge10" class="edge"><title>Node4&#45;&gt;Node11</title>
<path fill="none" stroke="midnightblue" d="M473,-101.805C473,-92.9102 473,-82.7798 473,-75.7511"/>
<polygon fill="midnightblue" stroke="midnightblue" points="469.5,-102.083 473,-112.083 476.5,-102.083 469.5,-102.083"/>
</g>
<!-- Node12 -->
<g id="node12" class="node"><title>Node12</title>
<g id="a_node12"><a xlink:href="test__sieve_8cpp.html" target="_top" xlink:title="tests/test_sieve.cpp">
<polygon fill="white" stroke="black" points="545.5,-56.5 545.5,-75.5 650.5,-75.5 650.5,-56.5 545.5,-56.5"/>
<text text-anchor="middle" x="598" y="-63.5" font-family="Helvetica,sans-Serif" font-size="10.00">tests/test_sieve.cpp</text>
</a>
</g>
</g>
<!-- Node4&#45;&gt;Node12 -->
<g id="edge11" class="edge"><title>Node4&#45;&gt;Node12</title>
<path fill="none" stroke="midnightblue" d="M502.241,-108.368C525.65,-98.2553 557.841,-84.3486 578.286,-75.5164"/>
<polygon fill="midnightblue" stroke="midnightblue" points="500.599,-105.265 492.807,-112.444 503.375,-111.691 500.599,-105.265"/>
</g>
<!-- Node13 -->
<g id="node13" class="node"><title>Node13</title>
<g id="a_node13"><a xlink:href="test__svp_8cpp.html" target="_top" xlink:title="tests/test_svp.cpp">
<polygon fill="white" stroke="black" points="669,-56.5 669,-75.5 767,-75.5 767,-56.5 669,-56.5"/>
<text text-anchor="middle" x="718" y="-63.5" font-family="Helvetica,sans-Serif" font-size="10.00">tests/test_svp.cpp</text>
</a>
</g>
</g>
<!-- Node4&#45;&gt;Node13 -->
<g id="edge12" class="edge"><title>Node4&#45;&gt;Node13</title>
<path fill="none" stroke="midnightblue" d="M511.936,-112.418C557.805,-102.308 633.542,-85.6153 679.306,-75.5285"/>
<polygon fill="midnightblue" stroke="midnightblue" points="511.079,-109.023 502.067,-114.593 512.586,-115.859 511.079,-109.023"/>
</g>
<!-- Node7 -->
<g id="node7" class="node"><title>Node7</title>
<g id="a_node7"><a xlink:href="main_8cpp.html" target="_top" xlink:title="fplll/main.cpp">
<polygon fill="white" stroke="black" points="0,-0.5 0,-19.5 74,-19.5 74,-0.5 0,-0.5"/>
<text text-anchor="middle" x="37" y="-7.5" font-family="Helvetica,sans-Serif" font-size="10.00">fplll/main.cpp</text>
</a>
</g>
</g>
<!-- Node6&#45;&gt;Node7 -->
<g id="edge6" class="edge"><title>Node6&#45;&gt;Node7</title>
<path fill="none" stroke="midnightblue" d="M37,-45.8045C37,-36.9102 37,-26.7798 37,-19.7511"/>
<polygon fill="midnightblue" stroke="midnightblue" points="33.5001,-46.083 37,-56.083 40.5001,-46.083 33.5001,-46.083"/>
</g>
<!-- Node14&#45;&gt;Node2 -->
<g id="edge14" class="edge"><title>Node14&#45;&gt;Node2</title>
<path fill="none" stroke="midnightblue" d="M606.545,-218.901C590.776,-208.999 570.186,-196.071 556.783,-187.655"/>
<polygon fill="midnightblue" stroke="midnightblue" points="604.852,-221.97 615.183,-224.324 608.575,-216.042 604.852,-221.97"/>
</g>
<!-- Node14&#45;&gt;Node3 -->
<g id="edge15" class="edge"><title>Node14&#45;&gt;Node3</title>
<path fill="none" stroke="midnightblue" d="M623.502,-214.674C616.287,-190.625 603.916,-149.388 598.577,-131.591"/>
<polygon fill="midnightblue" stroke="midnightblue" points="620.185,-215.796 626.411,-224.368 626.889,-213.784 620.185,-215.796"/>
</g>
<!-- Node15 -->
<g id="node15" class="node"><title>Node15</title>
<g id="a_node15"><a xlink:href="enumerate_8cpp.html" target="_top" xlink:title="fplll/enum/enumerate.cpp">
<polygon fill="white" stroke="black" points="629,-168.5 629,-187.5 755,-187.5 755,-168.5 629,-168.5"/>
<text text-anchor="middle" x="692" y="-175.5" font-family="Helvetica,sans-Serif" font-size="10.00">fplll/enum/enumerate.cpp</text>
</a>
</g>
</g>
<!-- Node14&#45;&gt;Node15 -->
<g id="edge16" class="edge"><title>Node14&#45;&gt;Node15</title>
<path fill="none" stroke="midnightblue" d="M647.04,-217.537C658.273,-207.909 672.319,-195.869 681.694,-187.834"/>
<polygon fill="midnightblue" stroke="midnightblue" points="644.437,-215.159 639.122,-224.324 648.992,-220.473 644.437,-215.159"/>
</g>
<!-- Node16 -->
<g id="node16" class="node"><title>Node16</title>
<g id="a_node16"><a xlink:href="svpcvp_8cpp.html" target="_top" xlink:title="fplll/svpcvp.cpp">
<polygon fill="white" stroke="black" points="770.5,-112.5 770.5,-131.5 855.5,-131.5 855.5,-112.5 770.5,-112.5"/>
<text text-anchor="middle" x="813" y="-119.5" font-family="Helvetica,sans-Serif" font-size="10.00">fplll/svpcvp.cpp</text>
</a>
</g>
</g>
<!-- Node14&#45;&gt;Node16 -->
<g id="edge17" class="edge"><title>Node14&#45;&gt;Node16</title>
<path fill="none" stroke="midnightblue" d="M686.5,-221.977C711.92,-215.139 741.155,-204.423 764,-188 785.113,-172.822 801.19,-145.883 808.563,-131.931"/>
<polygon fill="midnightblue" stroke="midnightblue" points="685.429,-218.638 676.603,-224.499 687.158,-225.421 685.429,-218.638"/>
</g>
<!-- Node16&#45;&gt;Node5 -->
<g id="edge18" class="edge"><title>Node16&#45;&gt;Node5</title>
<path fill="none" stroke="midnightblue" d="M815.1,-102.101C816.096,-93.1357 817.238,-82.8579 818.028,-75.7511"/>
<polygon fill="midnightblue" stroke="midnightblue" points="811.617,-101.758 813.991,-112.083 818.574,-102.531 811.617,-101.758"/>
</g>
</g>
</svg>
