<?xml version="1.0" encoding="UTF-8" standalone="no"?>
<!DOCTYPE svg PUBLIC "-//W3C//DTD SVG 1.1//EN"
 "http://www.w3.org/Graphics/SVG/1.1/DTD/svg11.dtd">
<!-- Generated by graphviz version 2.40.1 (20161225.0304)
 -->
<!-- Title: fplll/enum/evaluator.h Pages: 1 -->
<svg width="1760pt" height="419pt"
 viewBox="0.00 0.00 1760.00 419.00" xmlns="http://www.w3.org/2000/svg" xmlns:xlink="http://www.w3.org/1999/xlink">
<g id="graph0" class="graph" transform="scale(1 1) rotate(0) translate(4 415)">
<title>fplll/enum/evaluator.h</title>
<polygon fill="#ffffff" stroke="transparent" points="-4,4 -4,-415 1756,-415 1756,4 -4,4"/>
<!-- Node0 -->
<g id="node1" class="node">
<title>Node0</title>
<polygon fill="#bfbfbf" stroke="#000000" points="1304,-391.5 1304,-410.5 1414,-410.5 1414,-391.5 1304,-391.5"/>
<text text-anchor="middle" x="1359" y="-398.5" font-family="Helvetica,sans-Serif" font-size="10.00" fill="#000000">fplll/enum/evaluator.h</text>
</g>
<!-- Node1 -->
<g id="node2" class="node">
<title>Node1</title>
<g id="a_node2"><a xlink:href="enumerate__ext_8h.html" target="_top" xlink:title="fplll/enum/enumerate\l_ext.h">
<polygon fill="#ffffff" stroke="#000000" points="1346.5,-324.5 1346.5,-354.5 1453.5,-354.5 1453.5,-324.5 1346.5,-324.5"/>
<text text-anchor="start" x="1354.5" y="-342.5" font-family="Helvetica,sans-Serif" font-size="10.00" fill="#000000">fplll/enum/enumerate</text>
<text text-anchor="middle" x="1400" y="-331.5" font-family="Helvetica,sans-Serif" font-size="10.00" fill="#000000">_ext.h</text>
</a>
</g>
</g>
<!-- Node0&#45;&gt;Node1 -->
<g id="edge1" class="edge">
<title>Node0&#45;&gt;Node1</title>
<path fill="none" stroke="#191970" d="M1371.1306,-382.8041C1377.1303,-373.8045 1384.2847,-363.073 1389.9703,-354.5446"/>
<polygon fill="#191970" stroke="#191970" points="1368.0411,-381.1286 1365.4063,-391.3906 1373.8655,-385.0116 1368.0411,-381.1286"/>
</g>
<!-- Node2 -->
<g id="node3" class="node">
<title>Node2</title>
<g id="a_node3"><a xlink:href="enumerate_8h.html" target="_top" xlink:title="fplll/enum/enumerate.h">
<polygon fill="#ffffff" stroke="#000000" points="1260,-263 1260,-282 1376,-282 1376,-263 1260,-263"/>
<text text-anchor="middle" x="1318" y="-270" font-family="Helvetica,sans-Serif" font-size="10.00" fill="#000000">fplll/enum/enumerate.h</text>
</a>
</g>
</g>
<!-- Node0&#45;&gt;Node2 -->
<g id="edge55" class="edge">
<title>Node0&#45;&gt;Node2</title>
<path fill="none" stroke="#191970" d="M1348.9312,-382.3518C1344.8009,-374.1395 1340.2392,-364.2682 1337,-355 1328.0773,-329.4703 1322.1656,-298.0199 1319.546,-282.3485"/>
<polygon fill="#191970" stroke="#191970" points="1345.916,-384.1396 1353.6375,-391.3942 1352.1253,-380.9078 1345.916,-384.1396"/>
</g>
<!-- Node3 -->
<g id="node4" class="node">
<title>Node3</title>
<g id="a_node4"><a xlink:href="bkz_8h.html" target="_top" xlink:title="fplll/bkz.h">
<polygon fill="#ffffff" stroke="#000000" points="1195.5,-196 1195.5,-215 1254.5,-215 1254.5,-196 1195.5,-196"/>
<text text-anchor="middle" x="1225" y="-203" font-family="Helvetica,sans-Serif" font-size="10.00" fill="#000000">fplll/bkz.h</text>
</a>
</g>
</g>
<!-- Node0&#45;&gt;Node3 -->
<g id="edge56" class="edge">
<title>Node0&#45;&gt;Node3</title>
<path fill="none" stroke="#191970" d="M1338.9383,-385.0591C1314.8052,-364.8809 1274.6006,-327.9095 1251,-288 1236.7821,-263.957 1229.4994,-231.3003 1226.5797,-215.2388"/>
<polygon fill="#191970" stroke="#191970" points="1336.8009,-387.8328 1346.7506,-391.4734 1341.2428,-382.4227 1336.8009,-387.8328"/>
</g>
<!-- Node37 -->
<g id="node38" class="node">
<title>Node37</title>
<g id="a_node38"><a xlink:href="evaluator_8cpp.html" target="_top" xlink:title="fplll/enum/evaluator.cpp">
<polygon fill="#ffffff" stroke="#000000" points="1472,-330 1472,-349 1592,-349 1592,-330 1472,-330"/>
<text text-anchor="middle" x="1532" y="-337" font-family="Helvetica,sans-Serif" font-size="10.00" fill="#000000">fplll/enum/evaluator.cpp</text>
</a>
</g>
</g>
<!-- Node0&#45;&gt;Node37 -->
<g id="edge57" class="edge">
<title>Node0&#45;&gt;Node37</title>
<path fill="none" stroke="#191970" d="M1395.7087,-387.9504C1428.505,-376.2916 1475.7815,-359.4852 1505.1586,-349.0419"/>
<polygon fill="#191970" stroke="#191970" points="1394.2812,-384.7432 1386.0313,-391.3906 1396.626,-391.3388 1394.2812,-384.7432"/>
</g>
<!-- Node1&#45;&gt;Node2 -->
<g id="edge2" class="edge">
<title>Node1&#45;&gt;Node2</title>
<path fill="none" stroke="#191970" d="M1373.5357,-317.8767C1358.7511,-305.7967 1341.0699,-291.3498 1329.6941,-282.055"/>
<polygon fill="#191970" stroke="#191970" points="1371.4346,-320.6797 1381.3929,-324.2967 1375.8637,-315.2591 1371.4346,-320.6797"/>
</g>
<!-- Node32 -->
<g id="node33" class="node">
<title>Node32</title>
<g id="a_node33"><a xlink:href="enumerate__ext_8cpp.html" target="_top" xlink:title="fplll/enum/enumerate\l_ext.cpp">
<polygon fill="#ffffff" stroke="#000000" points="1394.5,-257.5 1394.5,-287.5 1501.5,-287.5 1501.5,-257.5 1394.5,-257.5"/>
<text text-anchor="start" x="1402.5" y="-275.5" font-family="Helvetica,sans-Serif" font-size="10.00" fill="#000000">fplll/enum/enumerate</text>
<text text-anchor="middle" x="1448" y="-264.5" font-family="Helvetica,sans-Serif" font-size="10.00" fill="#000000">_ext.cpp</text>
</a>
</g>
</g>
<!-- Node1&#45;&gt;Node32 -->
<g id="edge48" class="edge">
<title>Node1&#45;&gt;Node32</title>
<path fill="none" stroke="#191970" d="M1416.791,-316.0626C1423.5476,-306.6315 1431.1444,-296.0276 1437.1512,-287.6432"/>
<polygon fill="#191970" stroke="#191970" points="1413.8706,-314.1292 1410.8919,-324.2967 1419.561,-318.2059 1413.8706,-314.1292"/>
</g>
<!-- Node33 -->
<g id="node34" class="node">
<title>Node33</title>
<g id="a_node34"><a xlink:href="fplll__types_8h.html" target="_top" xlink:title="fplll/enum&#45;parallel\l/fplll_types.h">
<polygon fill="#ffffff" stroke="#000000" points="1525,-257.5 1525,-287.5 1617,-287.5 1617,-257.5 1525,-257.5"/>
<text text-anchor="start" x="1533" y="-275.5" font-family="Helvetica,sans-Serif" font-size="10.00" fill="#000000">fplll/enum&#45;parallel</text>
<text text-anchor="middle" x="1571" y="-264.5" font-family="Helvetica,sans-Serif" font-size="10.00" fill="#000000">/fplll_types.h</text>
</a>
</g>
</g>
<!-- Node1&#45;&gt;Node33 -->
<g id="edge49" class="edge">
<title>Node1&#45;&gt;Node33</title>
<path fill="none" stroke="#191970" d="M1447.912,-320.7275C1474.616,-310.2645 1507.4277,-297.4084 1532.4569,-287.6017"/>
<polygon fill="#191970" stroke="#191970" points="1446.4097,-317.5569 1438.3757,-324.4639 1448.9634,-324.0745 1446.4097,-317.5569"/>
</g>
<!-- Node2&#45;&gt;Node3 -->
<g id="edge3" class="edge">
<title>Node2&#45;&gt;Node3</title>
<path fill="none" stroke="#191970" d="M1296.4992,-257.0102C1278.5333,-244.067 1253.4824,-226.0195 1238.2999,-215.0817"/>
<polygon fill="#191970" stroke="#191970" points="1294.5158,-259.8949 1304.6754,-262.9005 1298.6075,-254.2153 1294.5158,-259.8949"/>
</g>
<!-- Node4 -->
<g id="node5" class="node">
<title>Node4</title>
<g id="a_node5"><a xlink:href="bkz_8cpp.html" target="_top" xlink:title="fplll/bkz.cpp">
<polygon fill="#ffffff" stroke="#000000" points="1219.5,-129 1219.5,-148 1288.5,-148 1288.5,-129 1219.5,-129"/>
<text text-anchor="middle" x="1254" y="-136" font-family="Helvetica,sans-Serif" font-size="10.00" fill="#000000">fplll/bkz.cpp</text>
</a>
</g>
</g>
<!-- Node2&#45;&gt;Node4 -->
<g id="edge44" class="edge">
<title>Node2&#45;&gt;Node4</title>
<path fill="none" stroke="#191970" d="M1309.0574,-253.7765C1295.2107,-224.7849 1269.083,-170.08 1258.561,-148.0496"/>
<polygon fill="#191970" stroke="#191970" points="1305.9292,-255.3479 1313.3973,-262.8631 1312.2457,-252.331 1305.9292,-255.3479"/>
</g>
<!-- Node30 -->
<g id="node31" class="node">
<title>Node30</title>
<g id="a_node31"><a xlink:href="enumerate_8cpp.html" target="_top" xlink:title="fplll/enum/enumerate.cpp">
<polygon fill="#ffffff" stroke="#000000" points="1349,-196 1349,-215 1475,-215 1475,-196 1349,-196"/>
<text text-anchor="middle" x="1412" y="-203" font-family="Helvetica,sans-Serif" font-size="10.00" fill="#000000">fplll/enum/enumerate.cpp</text>
</a>
</g>
</g>
<!-- Node2&#45;&gt;Node30 -->
<g id="edge45" class="edge">
<title>Node2&#45;&gt;Node30</title>
<path fill="none" stroke="#191970" d="M1339.732,-257.0102C1357.891,-244.067 1383.2114,-226.0195 1398.5571,-215.0817"/>
<polygon fill="#191970" stroke="#191970" points="1337.5796,-254.2462 1331.4679,-262.9005 1341.6426,-259.9464 1337.5796,-254.2462"/>
</g>
<!-- Node31 -->
<g id="node32" class="node">
<title>Node31</title>
<g id="a_node32"><a xlink:href="svpcvp_8cpp.html" target="_top" xlink:title="fplll/svpcvp.cpp">
<polygon fill="#ffffff" stroke="#000000" points="1381.5,-129 1381.5,-148 1466.5,-148 1466.5,-129 1381.5,-129"/>
<text text-anchor="middle" x="1424" y="-136" font-family="Helvetica,sans-Serif" font-size="10.00" fill="#000000">fplll/svpcvp.cpp</text>
</a>
</g>
</g>
<!-- Node2&#45;&gt;Node31 -->
<g id="edge46" class="edge">
<title>Node2&#45;&gt;Node31</title>
<path fill="none" stroke="#191970" d="M1319.1595,-252.6932C1321.1009,-234.7621 1326.2698,-208.414 1340,-190 1354.7244,-170.2526 1379.4619,-156.4261 1398.289,-148.1077"/>
<polygon fill="#191970" stroke="#191970" points="1315.655,-252.6008 1318.306,-262.8585 1322.6305,-253.1865 1315.655,-252.6008"/>
</g>
<!-- Node3&#45;&gt;Node4 -->
<g id="edge4" class="edge">
<title>Node3&#45;&gt;Node4</title>
<path fill="none" stroke="#191970" d="M1233.2832,-186.3628C1238.7017,-173.8444 1245.5488,-158.0252 1249.8527,-148.0817"/>
<polygon fill="#191970" stroke="#191970" points="1229.9153,-185.333 1229.155,-195.9005 1236.3393,-188.1136 1229.9153,-185.333"/>
</g>
<!-- Node5 -->
<g id="node6" class="node">
<title>Node5</title>
<g id="a_node6"><a xlink:href="fplll_8h.html" target="_top" xlink:title="fplll/fplll.h">
<polygon fill="#ffffff" stroke="#000000" points="866,-129 866,-148 924,-148 924,-129 866,-129"/>
<text text-anchor="middle" x="895" y="-136" font-family="Helvetica,sans-Serif" font-size="10.00" fill="#000000">fplll/fplll.h</text>
</a>
</g>
</g>
<!-- Node3&#45;&gt;Node5 -->
<g id="edge5" class="edge">
<title>Node3&#45;&gt;Node5</title>
<path fill="none" stroke="#191970" d="M1185.2342,-197.4263C1118.0027,-183.7763 983.4161,-156.4512 924.1547,-144.4193"/>
<polygon fill="#191970" stroke="#191970" points="1184.9278,-200.9355 1195.4243,-199.4952 1186.3207,-194.0754 1184.9278,-200.9355"/>
</g>
<!-- Node6 -->
<g id="node7" class="node">
<title>Node6</title>
<g id="a_node7"><a xlink:href="fplll_8cpp.html" target="_top" xlink:title="fplll/fplll.cpp">
<polygon fill="#ffffff" stroke="#000000" points="1684,-62 1684,-81 1752,-81 1752,-62 1684,-62"/>
<text text-anchor="middle" x="1718" y="-69" font-family="Helvetica,sans-Serif" font-size="10.00" fill="#000000">fplll/fplll.cpp</text>
</a>
</g>
</g>
<!-- Node5&#45;&gt;Node6 -->
<g id="edge6" class="edge">
<title>Node5&#45;&gt;Node6</title>
<path fill="none" stroke="#191970" d="M934.1296,-136.56C1082.0209,-129.1397 1602.189,-102.211 1675,-87 1681.6803,-85.6044 1688.725,-83.3973 1695.1353,-81.0813"/>
<polygon fill="#191970" stroke="#191970" points="933.9485,-133.0646 924.136,-137.0602 934.2985,-140.0559 933.9485,-133.0646"/>
</g>
<!-- Node7 -->
<g id="node8" class="node">
<title>Node7</title>
<g id="a_node8"><a xlink:href="main_8h.html" target="_top" xlink:title="fplll/main.h">
<polygon fill="#ffffff" stroke="#000000" points="1602,-62 1602,-81 1666,-81 1666,-62 1602,-62"/>
<text text-anchor="middle" x="1634" y="-69" font-family="Helvetica,sans-Serif" font-size="10.00" fill="#000000">fplll/main.h</text>
</a>
</g>
</g>
<!-- Node5&#45;&gt;Node7 -->
<g id="edge7" class="edge">
<title>Node5&#45;&gt;Node7</title>
<path fill="none" stroke="#191970" d="M934.2158,-136.8804C1061.3716,-131.4259 1461.3389,-112.6218 1588,-87 1595.1036,-85.563 1602.6257,-83.3423 1609.4836,-81.0265"/>
<polygon fill="#191970" stroke="#191970" points="933.9929,-133.3866 924.1508,-137.3086 934.2905,-140.3803 933.9929,-133.3866"/>
</g>
<!-- Node9 -->
<g id="node10" class="node">
<title>Node9</title>
<g id="a_node10"><a xlink:href="pruner_8cpp.html" target="_top" xlink:title="fplll/pruner/pruner.cpp">
<polygon fill="#ffffff" stroke="#000000" points="249,-.5 249,-19.5 359,-19.5 359,-.5 249,-.5"/>
<text text-anchor="middle" x="304" y="-7.5" font-family="Helvetica,sans-Serif" font-size="10.00" fill="#000000">fplll/pruner/pruner.cpp</text>
</a>
</g>
</g>
<!-- Node5&#45;&gt;Node9 -->
<g id="edge9" class="edge">
<title>Node5&#45;&gt;Node9</title>
<path fill="none" stroke="#191970" d="M855.7488,-136.8271C718.8538,-130.8056 269.69,-109.4051 249,-87 228.4927,-64.7928 265.8777,-34.7301 288.529,-19.5765"/>
<polygon fill="#191970" stroke="#191970" points="855.6559,-140.3263 865.7991,-137.2661 855.9614,-133.3329 855.6559,-140.3263"/>
</g>
<!-- Node10 -->
<g id="node11" class="node">
<title>Node10</title>
<g id="a_node11"><a xlink:href="pruner__cost_8cpp.html" target="_top" xlink:title="fplll/pruner/pruner\l_cost.cpp">
<polygon fill="#ffffff" stroke="#000000" points="258,-56.5 258,-86.5 350,-86.5 350,-56.5 258,-56.5"/>
<text text-anchor="start" x="266" y="-74.5" font-family="Helvetica,sans-Serif" font-size="10.00" fill="#000000">fplll/pruner/pruner</text>
<text text-anchor="middle" x="304" y="-63.5" font-family="Helvetica,sans-Serif" font-size="10.00" fill="#000000">_cost.cpp</text>
</a>
</g>
</g>
<!-- Node5&#45;&gt;Node10 -->
<g id="edge10" class="edge">
<title>Node5&#45;&gt;Node10</title>
<path fill="none" stroke="#191970" d="M855.8107,-137.1349C766.8055,-133.5129 542.8754,-121.4563 359,-87 356.0748,-86.4518 353.0798,-85.8193 350.0716,-85.1297"/>
<polygon fill="#191970" stroke="#191970" points="855.8544,-140.6392 865.9844,-137.5357 856.13,-133.6446 855.8544,-140.6392"/>
</g>
<!-- Node11 -->
<g id="node12" class="node">
<title>Node11</title>
<g id="a_node12"><a xlink:href="pruner__optimize_8cpp.html" target="_top" xlink:title="fplll/pruner/pruner\l_optimize.cpp">
<polygon fill="#ffffff" stroke="#000000" points="0,-56.5 0,-86.5 92,-86.5 92,-56.5 0,-56.5"/>
<text text-anchor="start" x="8" y="-74.5" font-family="Helvetica,sans-Serif" font-size="10.00" fill="#000000">fplll/pruner/pruner</text>
<text text-anchor="middle" x="46" y="-63.5" font-family="Helvetica,sans-Serif" font-size="10.00" fill="#000000">_optimize.cpp</text>
</a>
</g>
</g>
<!-- Node5&#45;&gt;Node11 -->
<g id="edge12" class="edge">
<title>Node5&#45;&gt;Node11</title>
<path fill="none" stroke="#191970" d="M855.7982,-137.0481C716.922,-131.7345 248.7889,-112.3283 101,-87 98.0666,-86.4973 95.0654,-85.8995 92.0526,-85.2359"/>
<polygon fill="#191970" stroke="#191970" points="855.8447,-140.5523 865.9704,-137.4346 856.1105,-133.5574 855.8447,-140.5523"/>
</g>
<!-- Node12 -->
<g id="node13" class="node">
<title>Node12</title>
<g id="a_node13"><a xlink:href="pruner__optimize__tc_8cpp.html" target="_top" xlink:title="fplll/pruner/pruner\l_optimize_tc.cpp">
<polygon fill="#ffffff" stroke="#000000" points="368,-56.5 368,-86.5 460,-86.5 460,-56.5 368,-56.5"/>
<text text-anchor="start" x="376" y="-74.5" font-family="Helvetica,sans-Serif" font-size="10.00" fill="#000000">fplll/pruner/pruner</text>
<text text-anchor="middle" x="414" y="-63.5" font-family="Helvetica,sans-Serif" font-size="10.00" fill="#000000">_optimize_tc.cpp</text>
</a>
</g>
</g>
<!-- Node5&#45;&gt;Node12 -->
<g id="edge14" class="edge">
<title>Node5&#45;&gt;Node12</title>
<path fill="none" stroke="#191970" d="M855.8276,-135.7975C780.3869,-130.1455 609.9296,-115.2014 469,-87 466.0817,-86.416 463.0921,-85.756 460.0879,-85.0459"/>
<polygon fill="#191970" stroke="#191970" points="855.599,-139.2901 865.829,-136.5338 856.113,-132.309 855.599,-139.2901"/>
</g>
<!-- Node13 -->
<g id="node14" class="node">
<title>Node13</title>
<g id="a_node14"><a xlink:href="pruner__optimize__tp_8cpp.html" target="_top" xlink:title="fplll/pruner/pruner\l_optimize_tp.cpp">
<polygon fill="#ffffff" stroke="#000000" points="478,-56.5 478,-86.5 570,-86.5 570,-56.5 478,-56.5"/>
<text text-anchor="start" x="486" y="-74.5" font-family="Helvetica,sans-Serif" font-size="10.00" fill="#000000">fplll/pruner/pruner</text>
<text text-anchor="middle" x="524" y="-63.5" font-family="Helvetica,sans-Serif" font-size="10.00" fill="#000000">_optimize_tp.cpp</text>
</a>
</g>
</g>
<!-- Node5&#45;&gt;Node13 -->
<g id="edge16" class="edge">
<title>Node5&#45;&gt;Node13</title>
<path fill="none" stroke="#191970" d="M855.4112,-133.5134C795.2934,-125.6115 677.5486,-108.8433 579,-87 576.0944,-86.356 573.1144,-85.65 570.1175,-84.9055"/>
<polygon fill="#191970" stroke="#191970" points="855.2317,-137.0195 865.6,-134.84 856.1356,-130.078 855.2317,-137.0195"/>
</g>
<!-- Node14 -->
<g id="node15" class="node">
<title>Node14</title>
<g id="a_node15"><a xlink:href="pruner__prob_8cpp.html" target="_top" xlink:title="fplll/pruner/pruner\l_prob.cpp">
<polygon fill="#ffffff" stroke="#000000" points="588,-56.5 588,-86.5 680,-86.5 680,-56.5 588,-56.5"/>
<text text-anchor="start" x="596" y="-74.5" font-family="Helvetica,sans-Serif" font-size="10.00" fill="#000000">fplll/pruner/pruner</text>
<text text-anchor="middle" x="634" y="-63.5" font-family="Helvetica,sans-Serif" font-size="10.00" fill="#000000">_prob.cpp</text>
</a>
</g>
</g>
<!-- Node5&#45;&gt;Node14 -->
<g id="edge18" class="edge">
<title>Node5&#45;&gt;Node14</title>
<path fill="none" stroke="#191970" d="M855.9564,-128.5207C815.4524,-118.1624 750.2825,-101.4801 694,-87 689.5197,-85.8473 684.8517,-84.6446 680.1854,-83.4411"/>
<polygon fill="#191970" stroke="#191970" points="855.1468,-131.9262 865.7021,-131.0127 856.8809,-125.1444 855.1468,-131.9262"/>
</g>
<!-- Node15 -->
<g id="node16" class="node">
<title>Node15</title>
<g id="a_node16"><a xlink:href="pruner__util_8cpp.html" target="_top" xlink:title="fplll/pruner/pruner\l_util.cpp">
<polygon fill="#ffffff" stroke="#000000" points="110,-56.5 110,-86.5 202,-86.5 202,-56.5 110,-56.5"/>
<text text-anchor="start" x="118" y="-74.5" font-family="Helvetica,sans-Serif" font-size="10.00" fill="#000000">fplll/pruner/pruner</text>
<text text-anchor="middle" x="156" y="-63.5" font-family="Helvetica,sans-Serif" font-size="10.00" fill="#000000">_util.cpp</text>
</a>
</g>
</g>
<!-- Node5&#45;&gt;Node15 -->
<g id="edge20" class="edge">
<title>Node5&#45;&gt;Node15</title>
<path fill="none" stroke="#191970" d="M855.904,-137.95C751.3769,-135.9601 457.0179,-126.9481 216,-87 211.4361,-86.2435 206.7125,-85.3039 202.0117,-84.2639"/>
<polygon fill="#191970" stroke="#191970" points="855.9306,-141.451 865.9919,-138.1312 856.0564,-134.4521 855.9306,-141.451"/>
</g>
<!-- Node16 -->
<g id="node17" class="node">
<title>Node16</title>
<g id="a_node17"><a xlink:href="test__bkz_8cpp.html" target="_top" xlink:title="tests/test_bkz.cpp">
<polygon fill="#ffffff" stroke="#000000" points="399,-.5 399,-19.5 497,-19.5 497,-.5 399,-.5"/>
<text text-anchor="middle" x="448" y="-7.5" font-family="Helvetica,sans-Serif" font-size="10.00" fill="#000000">tests/test_bkz.cpp</text>
</a>
</g>
</g>
<!-- Node5&#45;&gt;Node16 -->
<g id="edge22" class="edge">
<title>Node5&#45;&gt;Node16</title>
<path fill="none" stroke="#191970" d="M855.5758,-132.1683C819.0963,-125.0945 764.2832,-111.3079 722,-87 704.5543,-76.9708 706.9285,-65.1382 689,-56 680.4731,-51.6538 565.1045,-30.7324 497.1355,-18.655"/>
<polygon fill="#191970" stroke="#191970" points="855.342,-135.6846 865.8131,-134.0705 856.6209,-128.8024 855.342,-135.6846"/>
</g>
<!-- Node17 -->
<g id="node18" class="node">
<title>Node17</title>
<g id="a_node18"><a xlink:href="test__bkz__gram_8cpp.html" target="_top" xlink:title="tests/test_bkz_gram.cpp">
<polygon fill="#ffffff" stroke="#000000" points="515.5,-.5 515.5,-19.5 640.5,-19.5 640.5,-.5 515.5,-.5"/>
<text text-anchor="middle" x="578" y="-7.5" font-family="Helvetica,sans-Serif" font-size="10.00" fill="#000000">tests/test_bkz_gram.cpp</text>
</a>
</g>
</g>
<!-- Node5&#45;&gt;Node17 -->
<g id="edge23" class="edge">
<title>Node5&#45;&gt;Node17</title>
<path fill="none" stroke="#191970" d="M861.0651,-125.0083C837.0016,-115.1533 804.1216,-101.1009 776,-87 751.2621,-74.5958 747.3227,-67.162 722,-56 686.8179,-40.4921 644.7446,-27.669 615.1889,-19.5366"/>
<polygon fill="#191970" stroke="#191970" points="859.8917,-128.3094 870.4737,-128.8318 862.5271,-121.8244 859.8917,-128.3094"/>
</g>
<!-- Node18 -->
<g id="node19" class="node">
<title>Node18</title>
<g id="a_node19"><a xlink:href="test__counter_8cpp.html" target="_top" xlink:title="tests/test_counter.cpp">
<polygon fill="#ffffff" stroke="#000000" points="1072,-62 1072,-81 1186,-81 1186,-62 1072,-62"/>
<text text-anchor="middle" x="1129" y="-69" font-family="Helvetica,sans-Serif" font-size="10.00" fill="#000000">tests/test_counter.cpp</text>
</a>
</g>
</g>
<!-- Node5&#45;&gt;Node18 -->
<g id="edge24" class="edge">
<title>Node5&#45;&gt;Node18</title>
<path fill="none" stroke="#191970" d="M933.9066,-127.3601C979.1305,-114.4114 1053,-93.2607 1095.6871,-81.0383"/>
<polygon fill="#191970" stroke="#191970" points="932.8134,-124.0324 924.1631,-130.1499 934.7403,-130.762 932.8134,-124.0324"/>
</g>
<!-- Node19 -->
<g id="node20" class="node">
<title>Node19</title>
<g id="a_node20"><a xlink:href="test__cvp_8cpp.html" target="_top" xlink:title="tests/test_cvp.cpp">
<polygon fill="#ffffff" stroke="#000000" points="659,-.5 659,-19.5 757,-19.5 757,-.5 659,-.5"/>
<text text-anchor="middle" x="708" y="-7.5" font-family="Helvetica,sans-Serif" font-size="10.00" fill="#000000">tests/test_cvp.cpp</text>
</a>
</g>
</g>
<!-- Node5&#45;&gt;Node19 -->
<g id="edge25" class="edge">
<title>Node5&#45;&gt;Node19</title>
<path fill="none" stroke="#191970" d="M872.3478,-122.9342C833.2074,-96.0383 754.0354,-41.634 721.9634,-19.5952"/>
<polygon fill="#191970" stroke="#191970" points="870.7207,-126.0628 880.9446,-128.8416 874.6851,-120.2936 870.7207,-126.0628"/>
</g>
<!-- Node20 -->
<g id="node21" class="node">
<title>Node20</title>
<g id="a_node21"><a xlink:href="test__enum_8cpp.html" target="_top" xlink:title="tests/test_enum.cpp">
<polygon fill="#ffffff" stroke="#000000" points="1204,-62 1204,-81 1310,-81 1310,-62 1204,-62"/>
<text text-anchor="middle" x="1257" y="-69" font-family="Helvetica,sans-Serif" font-size="10.00" fill="#000000">tests/test_enum.cpp</text>
</a>
</g>
</g>
<!-- Node5&#45;&gt;Node20 -->
<g id="edge26" class="edge">
<title>Node5&#45;&gt;Node20</title>
<path fill="none" stroke="#191970" d="M934.1946,-132.7317C991.6527,-124.0586 1102.018,-106.575 1195,-87 1203.36,-85.24 1212.3001,-83.1365 1220.7149,-81.0553"/>
<polygon fill="#191970" stroke="#191970" points="933.4674,-129.3016 924.0977,-134.2472 934.5065,-136.224 933.4674,-129.3016"/>
</g>
<!-- Node21 -->
<g id="node22" class="node">
<title>Node21</title>
<g id="a_node22"><a xlink:href="test__hlll_8cpp.html" target="_top" xlink:title="tests/test_hlll.cpp">
<polygon fill="#ffffff" stroke="#000000" points="775,-.5 775,-19.5 869,-19.5 869,-.5 775,-.5"/>
<text text-anchor="middle" x="822" y="-7.5" font-family="Helvetica,sans-Serif" font-size="10.00" fill="#000000">tests/test_hlll.cpp</text>
</a>
</g>
</g>
<!-- Node5&#45;&gt;Node21 -->
<g id="edge27" class="edge">
<title>Node5&#45;&gt;Node21</title>
<path fill="none" stroke="#191970" d="M872.8152,-122.3408C861.7134,-113.155 848.9753,-100.7531 841,-87 828.2907,-65.0835 824.0356,-34.8936 822.6474,-19.6455"/>
<polygon fill="#191970" stroke="#191970" points="870.8622,-125.2582 880.8799,-128.7074 875.1997,-119.7639 870.8622,-125.2582"/>
</g>
<!-- Node22 -->
<g id="node23" class="node">
<title>Node22</title>
<g id="a_node23"><a xlink:href="test__lll_8cpp.html" target="_top" xlink:title="tests/test_lll.cpp">
<polygon fill="#ffffff" stroke="#000000" points="1003.5,-.5 1003.5,-19.5 1092.5,-19.5 1092.5,-.5 1003.5,-.5"/>
<text text-anchor="middle" x="1048" y="-7.5" font-family="Helvetica,sans-Serif" font-size="10.00" fill="#000000">tests/test_lll.cpp</text>
</a>
</g>
</g>
<!-- Node5&#45;&gt;Node22 -->
<g id="edge28" class="edge">
<title>Node5&#45;&gt;Node22</title>
<path fill="none" stroke="#191970" d="M914.1391,-122.0549C933.6453,-105.3338 964.8126,-78.725 992,-56 1007.0595,-43.4123 1024.5601,-29.0843 1035.9346,-19.8113"/>
<polygon fill="#191970" stroke="#191970" points="911.6065,-119.616 906.2962,-128.784 916.1647,-124.9287 911.6065,-119.616"/>
</g>
<!-- Node23 -->
<g id="node24" class="node">
<title>Node23</title>
<g id="a_node24"><a xlink:href="test__lll__gram_8cpp.html" target="_top" xlink:title="tests/test_lll_gram.cpp">
<polygon fill="#ffffff" stroke="#000000" points="1110,-.5 1110,-19.5 1226,-19.5 1226,-.5 1110,-.5"/>
<text text-anchor="middle" x="1168" y="-7.5" font-family="Helvetica,sans-Serif" font-size="10.00" fill="#000000">tests/test_lll_gram.cpp</text>
</a>
</g>
</g>
<!-- Node5&#45;&gt;Node23 -->
<g id="edge29" class="edge">
<title>Node5&#45;&gt;Node23</title>
<path fill="none" stroke="#191970" d="M923.5856,-124.2276C942.5442,-114.4274 967.7498,-100.75 989,-87 1008.1797,-74.5897 1009.7854,-66.6417 1030,-56 1061.3974,-39.4713 1099.8985,-27.2297 1128.2487,-19.548"/>
<polygon fill="#191970" stroke="#191970" points="921.8693,-121.1741 914.5606,-128.8444 925.0573,-127.406 921.8693,-121.1741"/>
</g>
<!-- Node24 -->
<g id="node25" class="node">
<title>Node24</title>
<g id="a_node25"><a xlink:href="test__nr_8cpp.html" target="_top" xlink:title="tests/test_nr.cpp">
<polygon fill="#ffffff" stroke="#000000" points="1328,-62 1328,-81 1418,-81 1418,-62 1328,-62"/>
<text text-anchor="middle" x="1373" y="-69" font-family="Helvetica,sans-Serif" font-size="10.00" fill="#000000">tests/test_nr.cpp</text>
</a>
</g>
</g>
<!-- Node5&#45;&gt;Node24 -->
<g id="edge30" class="edge">
<title>Node5&#45;&gt;Node24</title>
<path fill="none" stroke="#191970" d="M934.4626,-135.8083C1009.8017,-130.2068 1179.0854,-115.3907 1319,-87 1326.8382,-85.4095 1335.1954,-83.2476 1342.935,-81.0436"/>
<polygon fill="#191970" stroke="#191970" points="933.7621,-132.35 924.0433,-136.5684 934.2715,-139.3314 933.7621,-132.35"/>
</g>
<!-- Node25 -->
<g id="node26" class="node">
<title>Node25</title>
<g id="a_node26"><a xlink:href="test__pruner_8cpp.html" target="_top" xlink:title="tests/test_pruner.cpp">
<polygon fill="#ffffff" stroke="#000000" points="1436.5,-62 1436.5,-81 1545.5,-81 1545.5,-62 1436.5,-62"/>
<text text-anchor="middle" x="1491" y="-69" font-family="Helvetica,sans-Serif" font-size="10.00" fill="#000000">tests/test_pruner.cpp</text>
</a>
</g>
</g>
<!-- Node5&#45;&gt;Node25 -->
<g id="edge31" class="edge">
<title>Node5&#45;&gt;Node25</title>
<path fill="none" stroke="#191970" d="M934.1285,-136.6063C1022.5068,-131.9166 1244.1123,-117.8403 1427,-87 1436.3567,-85.4222 1446.3737,-83.2381 1455.6393,-81.0069"/>
<polygon fill="#191970" stroke="#191970" points="933.8272,-133.1172 924.0227,-137.1322 934.1911,-140.1077 933.8272,-133.1172"/>
</g>
<!-- Node26 -->
<g id="node27" class="node">
<title>Node26</title>
<g id="a_node27"><a xlink:href="test__svp_8cpp.html" target="_top" xlink:title="tests/test_svp.cpp">
<polygon fill="#ffffff" stroke="#000000" points="1244,-.5 1244,-19.5 1342,-19.5 1342,-.5 1244,-.5"/>
<text text-anchor="middle" x="1293" y="-7.5" font-family="Helvetica,sans-Serif" font-size="10.00" fill="#000000">tests/test_svp.cpp</text>
</a>
</g>
</g>
<!-- Node5&#45;&gt;Node26 -->
<g id="edge32" class="edge">
<title>Node5&#45;&gt;Node26</title>
<path fill="none" stroke="#191970" d="M933.676,-126.3833C960.0374,-117.338 995.2397,-103.6863 1024,-87 1043.1521,-75.8883 1042.9154,-65.3209 1063,-56 1079.2063,-48.479 1181.2864,-29.6511 1243.8827,-18.5539"/>
<polygon fill="#191970" stroke="#191970" points="932.4023,-123.1189 924.0375,-129.6212 934.6315,-129.7545 932.4023,-123.1189"/>
</g>
<!-- Node27 -->
<g id="node28" class="node">
<title>Node27</title>
<g id="a_node28"><a xlink:href="test__svp__gram_8cpp.html" target="_top" xlink:title="tests/test_svp_gram.cpp">
<polygon fill="#ffffff" stroke="#000000" points="1407.5,-.5 1407.5,-19.5 1532.5,-19.5 1532.5,-.5 1407.5,-.5"/>
<text text-anchor="middle" x="1470" y="-7.5" font-family="Helvetica,sans-Serif" font-size="10.00" fill="#000000">tests/test_svp_gram.cpp</text>
</a>
</g>
</g>
<!-- Node5&#45;&gt;Node27 -->
<g id="edge33" class="edge">
<title>Node5&#45;&gt;Node27</title>
<path fill="none" stroke="#191970" d="M934.3547,-136.1426C1074.7728,-127.6411 1543.4036,-98.4568 1554,-87 1563.3551,-76.8852 1561.0232,-67.8534 1554,-56 1543.3209,-37.9764 1522.8051,-26.5513 1504.7227,-19.5956"/>
<polygon fill="#191970" stroke="#191970" points="933.833,-132.6676 924.0623,-136.7643 934.2551,-139.6549 933.833,-132.6676"/>
</g>
<!-- Node28 -->
<g id="node29" class="node">
<title>Node28</title>
<g id="a_node29"><a xlink:href="test__utils_8h.html" target="_top" xlink:title="tests/test_utils.h">
<polygon fill="#ffffff" stroke="#000000" points="850.5,-62 850.5,-81 939.5,-81 939.5,-62 850.5,-62"/>
<text text-anchor="middle" x="895" y="-69" font-family="Helvetica,sans-Serif" font-size="10.00" fill="#000000">tests/test_utils.h</text>
</a>
</g>
</g>
<!-- Node5&#45;&gt;Node28 -->
<g id="edge34" class="edge">
<title>Node5&#45;&gt;Node28</title>
<path fill="none" stroke="#191970" d="M895,-118.6079C895,-106.214 895,-90.8263 895,-81.0817"/>
<polygon fill="#191970" stroke="#191970" points="891.5001,-118.9005 895,-128.9005 898.5001,-118.9006 891.5001,-118.9005"/>
</g>
<!-- Node8 -->
<g id="node9" class="node">
<title>Node8</title>
<g id="a_node9"><a xlink:href="main_8cpp.html" target="_top" xlink:title="fplll/main.cpp">
<polygon fill="#ffffff" stroke="#000000" points="1597,-.5 1597,-19.5 1671,-19.5 1671,-.5 1597,-.5"/>
<text text-anchor="middle" x="1634" y="-7.5" font-family="Helvetica,sans-Serif" font-size="10.00" fill="#000000">fplll/main.cpp</text>
</a>
</g>
</g>
<!-- Node7&#45;&gt;Node8 -->
<g id="edge8" class="edge">
<title>Node7&#45;&gt;Node8</title>
<path fill="none" stroke="#191970" d="M1634,-51.7462C1634,-41.0519 1634,-28.314 1634,-19.7449"/>
<polygon fill="#191970" stroke="#191970" points="1630.5001,-51.8906 1634,-61.8906 1637.5001,-51.8907 1630.5001,-51.8906"/>
</g>
<!-- Node10&#45;&gt;Node9 -->
<g id="edge11" class="edge">
<title>Node10&#45;&gt;Node9</title>
<path fill="none" stroke="#191970" d="M304,-46.2849C304,-36.9858 304,-26.9883 304,-19.8469"/>
<polygon fill="#191970" stroke="#191970" points="300.5001,-46.2977 304,-56.2977 307.5001,-46.2978 300.5001,-46.2977"/>
</g>
<!-- Node11&#45;&gt;Node9 -->
<g id="edge13" class="edge">
<title>Node11&#45;&gt;Node9</title>
<path fill="none" stroke="#191970" d="M102.092,-55.7884C161.4704,-40.8502 219.6174,-27.9674 258.6884,-19.5631"/>
<polygon fill="#191970" stroke="#191970" points="101.0015,-52.454 92.1668,-58.3019 102.72,-59.2398 101.0015,-52.454"/>
</g>
<!-- Node12&#45;&gt;Node9 -->
<g id="edge15" class="edge">
<title>Node12&#45;&gt;Node9</title>
<path fill="none" stroke="#191970" d="M378.2796,-51.5291C359.0716,-40.79 336.2719,-28.0429 321.0461,-19.5303"/>
<polygon fill="#191970" stroke="#191970" points="376.6545,-54.6303 387.091,-56.4554 380.0705,-48.5204 376.6545,-54.6303"/>
</g>
<!-- Node13&#45;&gt;Node9 -->
<g id="edge17" class="edge">
<title>Node13&#45;&gt;Node9</title>
<path fill="none" stroke="#191970" d="M468.0246,-55.7302C417.6648,-41.622 369.8185,-28.2982 338.4543,-19.5751"/>
<polygon fill="#191970" stroke="#191970" points="467.2156,-59.1383 477.7892,-58.4668 469.1047,-52.398 467.2156,-59.1383"/>
</g>
<!-- Node14&#45;&gt;Node9 -->
<g id="edge19" class="edge">
<title>Node14&#45;&gt;Node9</title>
<path fill="none" stroke="#191970" d="M577.9654,-55.9032C496.554,-38.0172 412.7149,-25.033 359.1265,-17.4173"/>
<polygon fill="#191970" stroke="#191970" points="577.3579,-59.3536 587.8794,-58.1087 578.878,-52.5206 577.3579,-59.3536"/>
</g>
<!-- Node15&#45;&gt;Node9 -->
<g id="edge21" class="edge">
<title>Node15&#45;&gt;Node9</title>
<path fill="none" stroke="#191970" d="M201.6195,-52.5433C227.9501,-41.6018 259.9308,-28.3126 281.0653,-19.5303"/>
<polygon fill="#191970" stroke="#191970" points="200.0963,-49.386 192.2049,-56.4554 202.7824,-55.8501 200.0963,-49.386"/>
</g>
<!-- Node28&#45;&gt;Node16 -->
<g id="edge35" class="edge">
<title>Node28&#45;&gt;Node16</title>
<path fill="none" stroke="#191970" d="M840.0828,-64.9163C764.6591,-55.7176 624.8342,-38.1035 506,-20 503.0706,-19.5537 500.0606,-19.0802 497.0258,-18.5914"/>
<polygon fill="#191970" stroke="#191970" points="839.9397,-68.4246 850.2891,-66.1576 840.7849,-61.4758 839.9397,-68.4246"/>
</g>
<!-- Node28&#45;&gt;Node17 -->
<g id="edge36" class="edge">
<title>Node28&#45;&gt;Node17</title>
<path fill="none" stroke="#191970" d="M840.211,-60.8706C780.2185,-49.2317 684.8915,-30.7376 627.2065,-19.5464"/>
<polygon fill="#191970" stroke="#191970" points="839.7704,-64.3503 850.254,-62.819 841.1036,-57.4784 839.7704,-64.3503"/>
</g>
<!-- Node28&#45;&gt;Node19 -->
<g id="edge37" class="edge">
<title>Node28&#45;&gt;Node19</title>
<path fill="none" stroke="#191970" d="M856.234,-58.7507C820.7528,-47.0818 769.0417,-30.0752 737.0136,-19.5419"/>
<polygon fill="#191970" stroke="#191970" points="855.1883,-62.0912 865.7813,-61.8906 857.3753,-55.4416 855.1883,-62.0912"/>
</g>
<!-- Node28&#45;&gt;Node21 -->
<g id="edge39" class="edge">
<title>Node28&#45;&gt;Node21</title>
<path fill="none" stroke="#191970" d="M875.8529,-55.3692C862.4261,-44.0576 844.9163,-29.3062 833.5671,-19.7449"/>
<polygon fill="#191970" stroke="#191970" points="873.6909,-58.1243 883.5938,-61.8906 878.201,-52.7709 873.6909,-58.1243"/>
</g>
<!-- Node28&#45;&gt;Node22 -->
<g id="edge40" class="edge">
<title>Node28&#45;&gt;Node22</title>
<path fill="none" stroke="#191970" d="M928.2179,-58.1477C957.1894,-46.5023 998.5047,-29.8952 1024.2616,-19.5419"/>
<polygon fill="#191970" stroke="#191970" points="926.8794,-54.9135 918.9063,-61.8906 929.4901,-61.4084 926.8794,-54.9135"/>
</g>
<!-- Node28&#45;&gt;Node23 -->
<g id="edge41" class="edge">
<title>Node28&#45;&gt;Node23</title>
<path fill="none" stroke="#191970" d="M947.3478,-59.7074C999.1552,-48.0365 1077.4832,-30.3912 1125.5439,-19.5643"/>
<polygon fill="#191970" stroke="#191970" points="946.343,-56.3459 937.3567,-61.9581 947.8815,-63.1748 946.343,-56.3459"/>
</g>
<!-- Node28&#45;&gt;Node26 -->
<g id="edge42" class="edge">
<title>Node28&#45;&gt;Node26</title>
<path fill="none" stroke="#191970" d="M949.5404,-63.5888C1016.741,-53.7605 1134.3797,-36.2929 1235,-20 1237.9251,-19.5263 1240.9318,-19.0317 1243.9641,-18.5268"/>
<polygon fill="#191970" stroke="#191970" points="948.9883,-60.1322 939.5991,-65.0408 950,-67.0587 948.9883,-60.1322"/>
</g>
<!-- Node28&#45;&gt;Node27 -->
<g id="edge43" class="edge">
<title>Node28&#45;&gt;Node27</title>
<path fill="none" stroke="#191970" d="M949.5872,-65.6615C1056.6435,-54.2112 1293.5809,-28.8692 1407.045,-16.7335"/>
<polygon fill="#191970" stroke="#191970" points="949.2119,-62.1816 939.6408,-66.7254 949.9564,-69.1419 949.2119,-62.1816"/>
</g>
<!-- Node29 -->
<g id="node30" class="node">
<title>Node29</title>
<g id="a_node30"><a xlink:href="test__gso_8cpp.html" target="_top" xlink:title="tests/test_gso.cpp">
<polygon fill="#ffffff" stroke="#000000" points="887,-.5 887,-19.5 985,-19.5 985,-.5 887,-.5"/>
<text text-anchor="middle" x="936" y="-7.5" font-family="Helvetica,sans-Serif" font-size="10.00" fill="#000000">tests/test_gso.cpp</text>
</a>
</g>
</g>
<!-- Node28&#45;&gt;Node29 -->
<g id="edge38" class="edge">
<title>Node28&#45;&gt;Node29</title>
<path fill="none" stroke="#191970" d="M907.0554,-53.4169C914.3971,-42.4043 923.49,-28.765 929.5034,-19.7449"/>
<polygon fill="#191970" stroke="#191970" points="904.0411,-51.6286 901.4063,-61.8906 909.8655,-55.5116 904.0411,-51.6286"/>
</g>
<!-- Node31&#45;&gt;Node6 -->
<g id="edge47" class="edge">
<title>Node31&#45;&gt;Node6</title>
<path fill="none" stroke="#191970" d="M1476.7914,-129.9426C1527.9506,-121.1177 1607.4944,-105.9861 1675,-87 1680.9585,-85.3242 1687.2779,-83.2306 1693.1852,-81.1295"/>
<polygon fill="#191970" stroke="#191970" points="1475.9038,-126.5434 1466.6352,-131.6759 1477.0815,-133.4436 1475.9038,-126.5434"/>
</g>
<!-- Node34 -->
<g id="node35" class="node">
<title>Node34</title>
<g id="a_node35"><a xlink:href="enumeration_8h.html" target="_top" xlink:title="fplll/enum&#45;parallel\l/enumeration.h">
<polygon fill="#ffffff" stroke="#000000" points="1531,-190.5 1531,-220.5 1623,-220.5 1623,-190.5 1531,-190.5"/>
<text text-anchor="start" x="1539" y="-208.5" font-family="Helvetica,sans-Serif" font-size="10.00" fill="#000000">fplll/enum&#45;parallel</text>
<text text-anchor="middle" x="1577" y="-197.5" font-family="Helvetica,sans-Serif" font-size="10.00" fill="#000000">/enumeration.h</text>
</a>
</g>
</g>
<!-- Node33&#45;&gt;Node34 -->
<g id="edge50" class="edge">
<title>Node33&#45;&gt;Node34</title>
<path fill="none" stroke="#191970" d="M1573.2551,-247.3179C1574.059,-238.3414 1574.939,-228.5143 1575.6439,-220.6432"/>
<polygon fill="#191970" stroke="#191970" points="1569.7675,-247.0243 1572.3615,-257.2967 1576.7396,-247.6487 1569.7675,-247.0243"/>
</g>
<!-- Node35 -->
<g id="node36" class="node">
<title>Node35</title>
<g id="a_node36"><a xlink:href="enumlib_8cpp.html" target="_top" xlink:title="fplll/enum&#45;parallel\l/enumlib.cpp">
<polygon fill="#ffffff" stroke="#000000" points="1531,-123.5 1531,-153.5 1623,-153.5 1623,-123.5 1531,-123.5"/>
<text text-anchor="start" x="1539" y="-141.5" font-family="Helvetica,sans-Serif" font-size="10.00" fill="#000000">fplll/enum&#45;parallel</text>
<text text-anchor="middle" x="1577" y="-130.5" font-family="Helvetica,sans-Serif" font-size="10.00" fill="#000000">/enumlib.cpp</text>
</a>
</g>
</g>
<!-- Node33&#45;&gt;Node35 -->
<g id="edge54" class="edge">
<title>Node33&#45;&gt;Node35</title>
<path fill="none" stroke="#191970" d="M1542.7783,-250.3071C1534.4656,-242.0915 1526.4189,-232.0551 1522,-221 1516.8862,-208.2064 1516.5191,-202.6407 1522,-190 1528.4527,-175.1181 1541.5584,-162.5701 1553.3581,-153.5867"/>
<polygon fill="#191970" stroke="#191970" points="1540.6638,-253.1178 1550.3909,-257.3171 1545.4056,-247.9684 1540.6638,-253.1178"/>
</g>
<!-- Node36 -->
<g id="node37" class="node">
<title>Node36</title>
<g id="a_node37"><a xlink:href="enumlib_8h.html" target="_top" xlink:title="fplll/enum&#45;parallel\l/enumlib.h">
<polygon fill="#ffffff" stroke="#000000" points="1641,-190.5 1641,-220.5 1733,-220.5 1733,-190.5 1641,-190.5"/>
<text text-anchor="start" x="1649" y="-208.5" font-family="Helvetica,sans-Serif" font-size="10.00" fill="#000000">fplll/enum&#45;parallel</text>
<text text-anchor="middle" x="1687" y="-197.5" font-family="Helvetica,sans-Serif" font-size="10.00" fill="#000000">/enumlib.h</text>
</a>
</g>
</g>
<!-- Node33&#45;&gt;Node36 -->
<g id="edge52" class="edge">
<title>Node33&#45;&gt;Node36</title>
<path fill="none" stroke="#191970" d="M1605.876,-252.3561C1623.4605,-242.1995 1644.4362,-230.0843 1660.6529,-220.7177"/>
<polygon fill="#191970" stroke="#191970" points="1603.9415,-249.4315 1597.0327,-257.4639 1607.4426,-255.4931 1603.9415,-249.4315"/>
</g>
<!-- Node34&#45;&gt;Node35 -->
<g id="edge51" class="edge">
<title>Node34&#45;&gt;Node35</title>
<path fill="none" stroke="#191970" d="M1577,-180.0249C1577,-171.128 1577,-161.4287 1577,-153.6432"/>
<polygon fill="#191970" stroke="#191970" points="1573.5001,-180.2966 1577,-190.2967 1580.5001,-180.2967 1573.5001,-180.2966"/>
</g>
<!-- Node36&#45;&gt;Node35 -->
<g id="edge53" class="edge">
<title>Node36&#45;&gt;Node35</title>
<path fill="none" stroke="#191970" d="M1653.4682,-185.0761C1636.8883,-174.9774 1617.2212,-162.9983 1601.9843,-153.7177"/>
<polygon fill="#191970" stroke="#191970" points="1651.9527,-188.2511 1662.3139,-190.4639 1655.594,-182.2727 1651.9527,-188.2511"/>
</g>
</g>
</svg>
