<?xml version="1.0" encoding="UTF-8" standalone="no"?>
<!DOCTYPE svg PUBLIC "-//W3C//DTD SVG 1.1//EN"
 "http://www.w3.org/Graphics/SVG/1.1/DTD/svg11.dtd">
<!-- Generated by graphviz version 2.38.0 (20140413.2041)
 -->
<!-- Title: fplll/enum/evaluator.h Pages: 1 -->
<svg width="1015pt" height="386pt"
 viewBox="0.00 0.00 1015.00 386.00" xmlns="http://www.w3.org/2000/svg" xmlns:xlink="http://www.w3.org/1999/xlink">
<g id="graph0" class="graph" transform="scale(1 1) rotate(0) translate(4 382)">
<title>fplll/enum/evaluator.h</title>
<polygon fill="white" stroke="none" points="-4,4 -4,-382 1011,-382 1011,4 -4,4"/>
<!-- Node0 -->
<g id="node1" class="node"><title>Node0</title>
<polygon fill="#bfbfbf" stroke="black" points="349,-358.5 349,-377.5 459,-377.5 459,-358.5 349,-358.5"/>
<text text-anchor="middle" x="404" y="-365.5" font-family="Helvetica,sans-Serif" font-size="10.00">fplll/enum/evaluator.h</text>
</g>
<!-- Node1 -->
<g id="node2" class="node"><title>Node1</title>
<g id="a_node2"><a xlink:href="enumerate__ext_8h.html" target="_top" xlink:title="fplll/enum/enumerate\l_ext.h">
<polygon fill="white" stroke="black" points="309.5,-291.5 309.5,-321.5 416.5,-321.5 416.5,-291.5 309.5,-291.5"/>
<text text-anchor="start" x="317.5" y="-309.5" font-family="Helvetica,sans-Serif" font-size="10.00">fplll/enum/enumerate</text>
<text text-anchor="middle" x="363" y="-298.5" font-family="Helvetica,sans-Serif" font-size="10.00">_ext.h</text>
</a>
</g>
</g>
<!-- Node0&#45;&gt;Node1 -->
<g id="edge1" class="edge"><title>Node0&#45;&gt;Node1</title>
<path fill="none" stroke="midnightblue" d="M392.26,-349.963C386.054,-340.956 378.528,-330.034 372.663,-321.523"/>
<polygon fill="midnightblue" stroke="midnightblue" points="389.57,-352.227 398.126,-358.475 395.334,-348.255 389.57,-352.227"/>
</g>
<!-- Node2 -->
<g id="node3" class="node"><title>Node2</title>
<g id="a_node3"><a xlink:href="enumerate_8h.html" target="_top" xlink:title="fplll/enum/enumerate.h">
<polygon fill="white" stroke="black" points="175,-230 175,-249 291,-249 291,-230 175,-230"/>
<text text-anchor="middle" x="233" y="-237" font-family="Helvetica,sans-Serif" font-size="10.00">fplll/enum/enumerate.h</text>
</a>
</g>
</g>
<!-- Node0&#45;&gt;Node2 -->
<g id="edge31" class="edge"><title>Node0&#45;&gt;Node2</title>
<path fill="none" stroke="midnightblue" d="M364.981,-355.107C344.394,-347.649 319.447,-336.647 300,-322 271.909,-300.841 248.267,-265.577 238.202,-249.267"/>
<polygon fill="midnightblue" stroke="midnightblue" points="364.098,-358.506 374.693,-358.484 366.397,-351.894 364.098,-358.506"/>
</g>
<!-- Node3 -->
<g id="node4" class="node"><title>Node3</title>
<g id="a_node4"><a xlink:href="bkz_8h.html" target="_top" xlink:title="fplll/bkz.h">
<polygon fill="white" stroke="black" points="410.5,-168.5 410.5,-187.5 469.5,-187.5 469.5,-168.5 410.5,-168.5"/>
<text text-anchor="middle" x="440" y="-175.5" font-family="Helvetica,sans-Serif" font-size="10.00">fplll/bkz.h</text>
</a>
</g>
</g>
<!-- Node0&#45;&gt;Node3 -->
<g id="edge32" class="edge"><title>Node0&#45;&gt;Node3</title>
<path fill="none" stroke="midnightblue" d="M413.818,-349.512C417.941,-341.387 422.379,-331.45 425,-322 438.744,-272.448 440.082,-210.048 440.08,-187.563"/>
<polygon fill="midnightblue" stroke="midnightblue" points="410.711,-347.899 409.089,-358.369 416.886,-351.196 410.711,-347.899"/>
</g>
<!-- Node23 -->
<g id="node24" class="node"><title>Node23</title>
<g id="a_node24"><a xlink:href="evaluator_8cpp.html" target="_top" xlink:title="fplll/enum/evaluator.cpp">
<polygon fill="white" stroke="black" points="473,-297 473,-316 593,-316 593,-297 473,-297"/>
<text text-anchor="middle" x="533" y="-304" font-family="Helvetica,sans-Serif" font-size="10.00">fplll/enum/evaluator.cpp</text>
</a>
</g>
</g>
<!-- Node0&#45;&gt;Node23 -->
<g id="edge33" class="edge"><title>Node0&#45;&gt;Node23</title>
<path fill="none" stroke="midnightblue" d="M431.807,-354.174C456.839,-342.629 492.918,-325.987 514.552,-316.009"/>
<polygon fill="midnightblue" stroke="midnightblue" points="430.097,-351.108 422.483,-358.475 433.029,-357.465 430.097,-351.108"/>
</g>
<!-- Node1&#45;&gt;Node2 -->
<g id="edge2" class="edge"><title>Node1&#45;&gt;Node2</title>
<path fill="none" stroke="midnightblue" d="M325.606,-286.803C300.684,-274.342 269.112,-258.556 250.014,-249.007"/>
<polygon fill="midnightblue" stroke="midnightblue" points="324.282,-290.054 334.792,-291.396 327.413,-283.793 324.282,-290.054"/>
</g>
<!-- Node22 -->
<g id="node23" class="node"><title>Node22</title>
<g id="a_node23"><a xlink:href="enumerate__ext_8cpp.html" target="_top" xlink:title="fplll/enum/enumerate\l_ext.cpp">
<polygon fill="white" stroke="black" points="309.5,-224.5 309.5,-254.5 416.5,-254.5 416.5,-224.5 309.5,-224.5"/>
<text text-anchor="start" x="317.5" y="-242.5" font-family="Helvetica,sans-Serif" font-size="10.00">fplll/enum/enumerate</text>
<text text-anchor="middle" x="363" y="-231.5" font-family="Helvetica,sans-Serif" font-size="10.00">_ext.cpp</text>
</a>
</g>
</g>
<!-- Node1&#45;&gt;Node22 -->
<g id="edge30" class="edge"><title>Node1&#45;&gt;Node22</title>
<path fill="none" stroke="midnightblue" d="M363,-281.108C363,-272.154 363,-262.323 363,-254.577"/>
<polygon fill="midnightblue" stroke="midnightblue" points="359.5,-281.396 363,-291.396 366.5,-281.396 359.5,-281.396"/>
</g>
<!-- Node2&#45;&gt;Node3 -->
<g id="edge3" class="edge"><title>Node2&#45;&gt;Node3</title>
<path fill="none" stroke="midnightblue" d="M272.397,-227.176C312.619,-215.614 374.146,-197.929 410.397,-187.509"/>
<polygon fill="midnightblue" stroke="midnightblue" points="271.302,-223.849 262.658,-229.975 273.236,-230.576 271.302,-223.849"/>
</g>
<!-- Node4 -->
<g id="node5" class="node"><title>Node4</title>
<g id="a_node5"><a xlink:href="bkz_8cpp.html" target="_top" xlink:title="fplll/bkz.cpp">
<polygon fill="white" stroke="black" points="280.5,-112.5 280.5,-131.5 349.5,-131.5 349.5,-112.5 280.5,-112.5"/>
<text text-anchor="middle" x="315" y="-119.5" font-family="Helvetica,sans-Serif" font-size="10.00">fplll/bkz.cpp</text>
</a>
</g>
</g>
<!-- Node2&#45;&gt;Node4 -->
<g id="edge26" class="edge"><title>Node2&#45;&gt;Node4</title>
<path fill="none" stroke="midnightblue" d="M234.57,-219.74C236.608,-204.628 241.284,-183.433 252,-168 263.345,-151.66 282.629,-139.172 296.88,-131.545"/>
<polygon fill="midnightblue" stroke="midnightblue" points="231.065,-219.595 233.469,-229.913 238.024,-220.348 231.065,-219.595"/>
</g>
<!-- Node20 -->
<g id="node21" class="node"><title>Node20</title>
<g id="a_node21"><a xlink:href="enumerate_8cpp.html" target="_top" xlink:title="fplll/enum/enumerate.cpp">
<polygon fill="white" stroke="black" points="261,-168.5 261,-187.5 387,-187.5 387,-168.5 261,-168.5"/>
<text text-anchor="middle" x="324" y="-175.5" font-family="Helvetica,sans-Serif" font-size="10.00">fplll/enum/enumerate.cpp</text>
</a>
</g>
</g>
<!-- Node2&#45;&gt;Node20 -->
<g id="edge27" class="edge"><title>Node2&#45;&gt;Node20</title>
<path fill="none" stroke="midnightblue" d="M254.52,-224.43C272.063,-212.959 296.265,-197.134 310.986,-187.509"/>
<polygon fill="midnightblue" stroke="midnightblue" points="252.492,-221.573 246.038,-229.975 256.323,-227.432 252.492,-221.573"/>
</g>
<!-- Node21 -->
<g id="node22" class="node"><title>Node21</title>
<g id="a_node22"><a xlink:href="svpcvp_8cpp.html" target="_top" xlink:title="fplll/svpcvp.cpp">
<polygon fill="white" stroke="black" points="128.5,-112.5 128.5,-131.5 213.5,-131.5 213.5,-112.5 128.5,-112.5"/>
<text text-anchor="middle" x="171" y="-119.5" font-family="Helvetica,sans-Serif" font-size="10.00">fplll/svpcvp.cpp</text>
</a>
</g>
</g>
<!-- Node2&#45;&gt;Node21 -->
<g id="edge28" class="edge"><title>Node2&#45;&gt;Node21</title>
<path fill="none" stroke="midnightblue" d="M223.434,-220.679C209.948,-195.557 185.862,-150.687 175.714,-131.782"/>
<polygon fill="midnightblue" stroke="midnightblue" points="220.526,-222.663 228.34,-229.819 226.694,-219.353 220.526,-222.663"/>
</g>
<!-- Node3&#45;&gt;Node4 -->
<g id="edge4" class="edge"><title>Node3&#45;&gt;Node4</title>
<path fill="none" stroke="midnightblue" d="M410.759,-164.368C387.35,-154.255 355.159,-140.349 334.714,-131.516"/>
<polygon fill="midnightblue" stroke="midnightblue" points="409.625,-167.691 420.193,-168.444 412.401,-161.265 409.625,-167.691"/>
</g>
<!-- Node5 -->
<g id="node6" class="node"><title>Node5</title>
<g id="a_node6"><a xlink:href="fplll_8h.html" target="_top" xlink:title="fplll/fplll.h">
<polygon fill="white" stroke="black" points="421,-112.5 421,-131.5 479,-131.5 479,-112.5 421,-112.5"/>
<text text-anchor="middle" x="450" y="-119.5" font-family="Helvetica,sans-Serif" font-size="10.00">fplll/fplll.h</text>
</a>
</g>
</g>
<!-- Node3&#45;&gt;Node5 -->
<g id="edge5" class="edge"><title>Node3&#45;&gt;Node5</title>
<path fill="none" stroke="midnightblue" d="M443.5,-158.101C445.16,-149.136 447.063,-138.858 448.379,-131.751"/>
<polygon fill="midnightblue" stroke="midnightblue" points="440.031,-157.613 441.651,-168.083 446.914,-158.888 440.031,-157.613"/>
</g>
<!-- Node6 -->
<g id="node7" class="node"><title>Node6</title>
<g id="a_node7"><a xlink:href="fplll_8cpp.html" target="_top" xlink:title="fplll/fplll.cpp">
<polygon fill="white" stroke="black" points="132,-56.5 132,-75.5 200,-75.5 200,-56.5 132,-56.5"/>
<text text-anchor="middle" x="166" y="-63.5" font-family="Helvetica,sans-Serif" font-size="10.00">fplll/fplll.cpp</text>
</a>
</g>
</g>
<!-- Node5&#45;&gt;Node6 -->
<g id="edge6" class="edge"><title>Node5&#45;&gt;Node6</title>
<path fill="none" stroke="midnightblue" d="M411.065,-113.597C355.173,-102.97 253.105,-83.5622 200.055,-73.4753"/>
<polygon fill="midnightblue" stroke="midnightblue" points="410.464,-117.045 420.942,-115.475 411.771,-110.168 410.464,-117.045"/>
</g>
<!-- Node7 -->
<g id="node8" class="node"><title>Node7</title>
<g id="a_node8"><a xlink:href="main_8h.html" target="_top" xlink:title="fplll/main.h">
<polygon fill="white" stroke="black" points="938,-56.5 938,-75.5 1002,-75.5 1002,-56.5 938,-56.5"/>
<text text-anchor="middle" x="970" y="-63.5" font-family="Helvetica,sans-Serif" font-size="10.00">fplll/main.h</text>
</a>
</g>
</g>
<!-- Node5&#45;&gt;Node7 -->
<g id="edge7" class="edge"><title>Node5&#45;&gt;Node7</title>
<path fill="none" stroke="midnightblue" d="M489.362,-118.861C571.336,-114.063 766.201,-100.864 928,-76 931.243,-75.5016 934.612,-74.9087 937.968,-74.2684"/>
<polygon fill="midnightblue" stroke="midnightblue" points="489.027,-115.374 479.245,-119.444 489.43,-122.363 489.027,-115.374"/>
</g>
<!-- Node9 -->
<g id="node10" class="node"><title>Node9</title>
<g id="a_node10"><a xlink:href="sieve__main_8cpp.html" target="_top" xlink:title="fplll/sieve/sieve_main.cpp">
<polygon fill="white" stroke="black" points="790.5,-56.5 790.5,-75.5 919.5,-75.5 919.5,-56.5 790.5,-56.5"/>
<text text-anchor="middle" x="855" y="-63.5" font-family="Helvetica,sans-Serif" font-size="10.00">fplll/sieve/sieve_main.cpp</text>
</a>
</g>
</g>
<!-- Node5&#45;&gt;Node9 -->
<g id="edge9" class="edge"><title>Node5&#45;&gt;Node9</title>
<path fill="none" stroke="midnightblue" d="M489.284,-115.762C559.314,-106.425 706.305,-86.826 791.064,-75.5248"/>
<polygon fill="midnightblue" stroke="midnightblue" points="488.576,-112.325 479.127,-117.116 489.501,-119.264 488.576,-112.325"/>
</g>
<!-- Node10 -->
<g id="node11" class="node"><title>Node10</title>
<g id="a_node11"><a xlink:href="test__bkz_8cpp.html" target="_top" xlink:title="tests/test_bkz.cpp">
<polygon fill="white" stroke="black" points="713,-0.5 713,-19.5 811,-19.5 811,-0.5 713,-0.5"/>
<text text-anchor="middle" x="762" y="-7.5" font-family="Helvetica,sans-Serif" font-size="10.00">tests/test_bkz.cpp</text>
</a>
</g>
</g>
<!-- Node5&#45;&gt;Node10 -->
<g id="edge10" class="edge"><title>Node5&#45;&gt;Node10</title>
<path fill="none" stroke="midnightblue" d="M489.54,-119.972C560.354,-117.331 704.899,-108.058 742,-76 758.617,-61.642 761.645,-33.8349 762.059,-19.7014"/>
<polygon fill="midnightblue" stroke="midnightblue" points="489.115,-116.484 479.242,-120.328 489.357,-123.48 489.115,-116.484"/>
</g>
<!-- Node11 -->
<g id="node12" class="node"><title>Node11</title>
<g id="a_node12"><a xlink:href="test__cvp_8cpp.html" target="_top" xlink:title="tests/test_cvp.cpp">
<polygon fill="white" stroke="black" points="0,-0.5 0,-19.5 98,-19.5 98,-0.5 0,-0.5"/>
<text text-anchor="middle" x="49" y="-7.5" font-family="Helvetica,sans-Serif" font-size="10.00">tests/test_cvp.cpp</text>
</a>
</g>
</g>
<!-- Node5&#45;&gt;Node11 -->
<g id="edge11" class="edge"><title>Node5&#45;&gt;Node11</title>
<path fill="none" stroke="midnightblue" d="M410.726,-114.777C370.063,-107.722 305.037,-94.7147 251,-76 231.463,-69.2338 228.355,-63.2696 209,-56 167.805,-40.5274 118.912,-27.5202 86.1112,-19.5317"/>
<polygon fill="midnightblue" stroke="midnightblue" points="410.323,-118.259 420.768,-116.484 411.496,-111.358 410.323,-118.259"/>
</g>
<!-- Node12 -->
<g id="node13" class="node"><title>Node12</title>
<g id="a_node13"><a xlink:href="test__lll_8cpp.html" target="_top" xlink:title="tests/test_lll.cpp">
<polygon fill="white" stroke="black" points="116.5,-0.5 116.5,-19.5 205.5,-19.5 205.5,-0.5 116.5,-0.5"/>
<text text-anchor="middle" x="161" y="-7.5" font-family="Helvetica,sans-Serif" font-size="10.00">tests/test_lll.cpp</text>
</a>
</g>
</g>
<!-- Node5&#45;&gt;Node12 -->
<g id="edge12" class="edge"><title>Node5&#45;&gt;Node12</title>
<path fill="none" stroke="midnightblue" d="M411.244,-110.783C381.1,-102.462 338.42,-89.8571 302,-76 255.897,-58.4586 203.655,-32.7808 177.61,-19.5628"/>
<polygon fill="midnightblue" stroke="midnightblue" points="410.39,-114.178 420.959,-113.436 412.234,-107.425 410.39,-114.178"/>
</g>
<!-- Node13 -->
<g id="node14" class="node"><title>Node13</title>
<g id="a_node14"><a xlink:href="test__lll__gram_8cpp.html" target="_top" xlink:title="tests/test_lll_gram.cpp">
<polygon fill="white" stroke="black" points="223,-0.5 223,-19.5 339,-19.5 339,-0.5 223,-0.5"/>
<text text-anchor="middle" x="281" y="-7.5" font-family="Helvetica,sans-Serif" font-size="10.00">tests/test_lll_gram.cpp</text>
</a>
</g>
</g>
<!-- Node5&#45;&gt;Node13 -->
<g id="edge13" class="edge"><title>Node5&#45;&gt;Node13</title>
<path fill="none" stroke="midnightblue" d="M411.032,-114.117C384.093,-107.804 348.63,-96.2567 323,-76 303.605,-60.6711 290.393,-33.7984 284.495,-19.895"/>
<polygon fill="midnightblue" stroke="midnightblue" points="410.383,-117.557 420.901,-116.287 411.886,-110.721 410.383,-117.557"/>
</g>
<!-- Node14 -->
<g id="node15" class="node"><title>Node14</title>
<g id="a_node15"><a xlink:href="test__nr_8cpp.html" target="_top" xlink:title="tests/test_nr.cpp">
<polygon fill="white" stroke="black" points="516,-56.5 516,-75.5 606,-75.5 606,-56.5 516,-56.5"/>
<text text-anchor="middle" x="561" y="-63.5" font-family="Helvetica,sans-Serif" font-size="10.00">tests/test_nr.cpp</text>
</a>
</g>
</g>
<!-- Node5&#45;&gt;Node14 -->
<g id="edge14" class="edge"><title>Node5&#45;&gt;Node14</title>
<path fill="none" stroke="midnightblue" d="M477.005,-107.862C497.588,-97.8492 525.345,-84.3458 543.21,-75.6545"/>
<polygon fill="midnightblue" stroke="midnightblue" points="475.295,-104.802 467.834,-112.324 478.358,-111.097 475.295,-104.802"/>
</g>
<!-- Node15 -->
<g id="node16" class="node"><title>Node15</title>
<g id="a_node16"><a xlink:href="test__pruner_8cpp.html" target="_top" xlink:title="tests/test_pruner.cpp">
<polygon fill="white" stroke="black" points="624.5,-56.5 624.5,-75.5 733.5,-75.5 733.5,-56.5 624.5,-56.5"/>
<text text-anchor="middle" x="679" y="-63.5" font-family="Helvetica,sans-Serif" font-size="10.00">tests/test_pruner.cpp</text>
</a>
</g>
</g>
<!-- Node5&#45;&gt;Node15 -->
<g id="edge15" class="edge"><title>Node5&#45;&gt;Node15</title>
<path fill="none" stroke="midnightblue" d="M488.827,-111.844C531.857,-101.698 600.706,-85.4623 642.695,-75.5611"/>
<polygon fill="midnightblue" stroke="midnightblue" points="487.933,-108.459 479.003,-114.161 489.539,-115.272 487.933,-108.459"/>
</g>
<!-- Node16 -->
<g id="node17" class="node"><title>Node16</title>
<g id="a_node17"><a xlink:href="test__sieve_8cpp.html" target="_top" xlink:title="tests/test_sieve.cpp">
<polygon fill="white" stroke="black" points="473.5,-0.5 473.5,-19.5 578.5,-19.5 578.5,-0.5 473.5,-0.5"/>
<text text-anchor="middle" x="526" y="-7.5" font-family="Helvetica,sans-Serif" font-size="10.00">tests/test_sieve.cpp</text>
</a>
</g>
</g>
<!-- Node5&#45;&gt;Node16 -->
<g id="edge16" class="edge"><title>Node5&#45;&gt;Node16</title>
<path fill="none" stroke="midnightblue" d="M454.13,-102.628C457.813,-88.9263 464.166,-70.2034 474,-56 484.466,-40.8836 501.158,-27.6696 512.797,-19.5395"/>
<polygon fill="midnightblue" stroke="midnightblue" points="450.726,-101.812 451.733,-112.358 457.523,-103.486 450.726,-101.812"/>
</g>
<!-- Node17 -->
<g id="node18" class="node"><title>Node17</title>
<g id="a_node18"><a xlink:href="test__svp_8cpp.html" target="_top" xlink:title="tests/test_svp.cpp">
<polygon fill="white" stroke="black" points="597,-0.5 597,-19.5 695,-19.5 695,-0.5 597,-0.5"/>
<text text-anchor="middle" x="646" y="-7.5" font-family="Helvetica,sans-Serif" font-size="10.00">tests/test_svp.cpp</text>
</a>
</g>
</g>
<!-- Node5&#45;&gt;Node17 -->
<g id="edge17" class="edge"><title>Node5&#45;&gt;Node17</title>
<path fill="none" stroke="midnightblue" d="M461.359,-103.435C471.652,-88.817 488.075,-68.4527 507,-56 534.864,-37.6653 570.778,-26.293 599.121,-19.5681"/>
<polygon fill="midnightblue" stroke="midnightblue" points="458.221,-101.826 455.515,-112.07 464.019,-105.749 458.221,-101.826"/>
</g>
<!-- Node18 -->
<g id="node19" class="node"><title>Node18</title>
<g id="a_node19"><a xlink:href="test__utils_8h.html" target="_top" xlink:title="tests/test_utils.h">
<polygon fill="white" stroke="black" points="332.5,-56.5 332.5,-75.5 421.5,-75.5 421.5,-56.5 332.5,-56.5"/>
<text text-anchor="middle" x="377" y="-63.5" font-family="Helvetica,sans-Serif" font-size="10.00">tests/test_utils.h</text>
</a>
</g>
</g>
<!-- Node5&#45;&gt;Node18 -->
<g id="edge18" class="edge"><title>Node5&#45;&gt;Node18</title>
<path fill="none" stroke="midnightblue" d="M429.858,-106.101C416.721,-96.3824 400.018,-84.0269 388.942,-75.8339"/>
<polygon fill="midnightblue" stroke="midnightblue" points="428.15,-109.191 438.271,-112.324 432.313,-103.563 428.15,-109.191"/>
</g>
<!-- Node8 -->
<g id="node9" class="node"><title>Node8</title>
<g id="a_node9"><a xlink:href="main_8cpp.html" target="_top" xlink:title="fplll/main.cpp">
<polygon fill="white" stroke="black" points="933,-0.5 933,-19.5 1007,-19.5 1007,-0.5 933,-0.5"/>
<text text-anchor="middle" x="970" y="-7.5" font-family="Helvetica,sans-Serif" font-size="10.00">fplll/main.cpp</text>
</a>
</g>
</g>
<!-- Node7&#45;&gt;Node8 -->
<g id="edge8" class="edge"><title>Node7&#45;&gt;Node8</title>
<path fill="none" stroke="midnightblue" d="M970,-45.8045C970,-36.9102 970,-26.7798 970,-19.7511"/>
<polygon fill="midnightblue" stroke="midnightblue" points="966.5,-46.083 970,-56.083 973.5,-46.083 966.5,-46.083"/>
</g>
<!-- Node18&#45;&gt;Node10 -->
<g id="edge19" class="edge"><title>Node18&#45;&gt;Node10</title>
<path fill="none" stroke="midnightblue" d="M431.747,-57.7585C496.725,-49.096 608.331,-34.0043 704,-20 706.924,-19.572 709.93,-19.1255 712.961,-18.6701"/>
<polygon fill="midnightblue" stroke="midnightblue" points="431.179,-54.3031 421.728,-59.0924 432.103,-61.2419 431.179,-54.3031"/>
</g>
<!-- Node18&#45;&gt;Node11 -->
<g id="edge20" class="edge"><title>Node18&#45;&gt;Node11</title>
<path fill="none" stroke="midnightblue" d="M322.348,-56.0023C259.763,-45.6988 158.151,-28.97 98.027,-19.0715"/>
<polygon fill="midnightblue" stroke="midnightblue" points="321.987,-59.4901 332.423,-57.6611 323.125,-52.5831 321.987,-59.4901"/>
</g>
<!-- Node18&#45;&gt;Node12 -->
<g id="edge22" class="edge"><title>Node18&#45;&gt;Node12</title>
<path fill="none" stroke="midnightblue" d="M332.836,-53.959C292.039,-43.7598 232.287,-28.8217 195.066,-19.5164"/>
<polygon fill="midnightblue" stroke="midnightblue" points="332.224,-57.4136 342.774,-56.4435 333.922,-50.6226 332.224,-57.4136"/>
</g>
<!-- Node18&#45;&gt;Node13 -->
<g id="edge23" class="edge"><title>Node18&#45;&gt;Node13</title>
<path fill="none" stroke="midnightblue" d="M352.426,-51.1774C334.761,-41.2407 311.487,-28.1492 296.386,-19.6545"/>
<polygon fill="midnightblue" stroke="midnightblue" points="351.144,-54.4718 361.576,-56.324 354.576,-48.3708 351.144,-54.4718"/>
</g>
<!-- Node18&#45;&gt;Node16 -->
<g id="edge24" class="edge"><title>Node18&#45;&gt;Node16</title>
<path fill="none" stroke="midnightblue" d="M410.371,-52.9058C438.384,-42.7536 477.696,-28.5063 502.501,-19.5164"/>
<polygon fill="midnightblue" stroke="midnightblue" points="408.819,-49.7456 400.609,-56.4435 411.204,-56.3267 408.819,-49.7456"/>
</g>
<!-- Node18&#45;&gt;Node17 -->
<g id="edge25" class="edge"><title>Node18&#45;&gt;Node17</title>
<path fill="none" stroke="midnightblue" d="M429.438,-54.4734C480.277,-44.2678 556.436,-28.9794 603.576,-19.5164"/>
<polygon fill="midnightblue" stroke="midnightblue" points="428.739,-51.0437 419.624,-56.4435 430.117,-57.9068 428.739,-51.0437"/>
</g>
<!-- Node19 -->
<g id="node20" class="node"><title>Node19</title>
<g id="a_node20"><a xlink:href="test__gso_8cpp.html" target="_top" xlink:title="tests/test_gso.cpp">
<polygon fill="white" stroke="black" points="357,-0.5 357,-19.5 455,-19.5 455,-0.5 357,-0.5"/>
<text text-anchor="middle" x="406" y="-7.5" font-family="Helvetica,sans-Serif" font-size="10.00">tests/test_gso.cpp</text>
</a>
</g>
</g>
<!-- Node18&#45;&gt;Node19 -->
<g id="edge21" class="edge"><title>Node18&#45;&gt;Node19</title>
<path fill="none" stroke="midnightblue" d="M386.676,-46.9827C391.598,-37.8168 397.358,-27.0922 401.3,-19.7511"/>
<polygon fill="midnightblue" stroke="midnightblue" points="383.437,-45.6171 381.789,-56.083 389.604,-48.929 383.437,-45.6171"/>
</g>
<!-- Node21&#45;&gt;Node6 -->
<g id="edge29" class="edge"><title>Node21&#45;&gt;Node6</title>
<path fill="none" stroke="midnightblue" d="M169.25,-102.101C168.42,-93.1357 167.468,-82.8579 166.81,-75.7511"/>
<polygon fill="midnightblue" stroke="midnightblue" points="165.767,-102.448 170.174,-112.083 172.737,-101.803 165.767,-102.448"/>
</g>
</g>
</svg>
