<?xml version="1.0" encoding="UTF-8" standalone="no"?>
<!DOCTYPE svg PUBLIC "-//W3C//DTD SVG 1.1//EN"
 "http://www.w3.org/Graphics/SVG/1.1/DTD/svg11.dtd">
<!-- Generated by graphviz version 2.43.0 (0)
 -->
<!-- Title: fplll/enum/evaluator.h Pages: 1 -->
<svg width="1697pt" height="419pt"
 viewBox="0.00 0.00 1697.00 419.00" xmlns="http://www.w3.org/2000/svg" xmlns:xlink="http://www.w3.org/1999/xlink">
<g id="graph0" class="graph" transform="scale(1 1) rotate(0) translate(4 415)">
<title>fplll/enum/evaluator.h</title>
<polygon fill="white" stroke="transparent" points="-4,4 -4,-415 1693,-415 1693,4 -4,4"/>
<!-- Node1 -->
<g id="node1" class="node">
<title>Node1</title>
<g id="a_node1"><a xlink:title=" ">
<polygon fill="#bfbfbf" stroke="black" points="1250.5,-391.5 1250.5,-410.5 1359.5,-410.5 1359.5,-391.5 1250.5,-391.5"/>
<text text-anchor="middle" x="1305" y="-398.5" font-family="Helvetica,sans-Serif" font-size="10.00">fplll/enum/evaluator.h</text>
</a>
</g>
</g>
<!-- Node2 -->
<g id="node2" class="node">
<title>Node2</title>
<g id="a_node2"><a xlink:href="bkz_8h.html" target="_top" xlink:title=" ">
<polygon fill="white" stroke="black" points="1135.5,-196 1135.5,-215 1194.5,-215 1194.5,-196 1135.5,-196"/>
<text text-anchor="middle" x="1165" y="-203" font-family="Helvetica,sans-Serif" font-size="10.00">fplll/bkz.h</text>
</a>
</g>
</g>
<!-- Node1&#45;&gt;Node2 -->
<g id="edge1" class="edge">
<title>Node1&#45;&gt;Node2</title>
<path fill="none" stroke="midnightblue" d="M1286.17,-384.64C1262.59,-364.55 1222.21,-327.28 1197,-288 1181.4,-263.7 1171.33,-230.57 1167.17,-215.11"/>
<polygon fill="midnightblue" stroke="midnightblue" points="1284.13,-387.49 1294.05,-391.23 1288.63,-382.13 1284.13,-387.49"/>
</g>
<!-- Node29 -->
<g id="node29" class="node">
<title>Node29</title>
<g id="a_node29"><a xlink:href="enumerate_8h.html" target="_top" xlink:title=" ">
<polygon fill="white" stroke="black" points="1206,-263 1206,-282 1322,-282 1322,-263 1206,-263"/>
<text text-anchor="middle" x="1264" y="-270" font-family="Helvetica,sans-Serif" font-size="10.00">fplll/enum/enumerate.h</text>
</a>
</g>
</g>
<!-- Node1&#45;&gt;Node29 -->
<g id="edge43" class="edge">
<title>Node1&#45;&gt;Node29</title>
<path fill="none" stroke="midnightblue" d="M1295.24,-382.39C1291.03,-374.24 1286.32,-364.32 1283,-355 1273.84,-329.27 1267.89,-297.38 1265.37,-282.25"/>
<polygon fill="midnightblue" stroke="midnightblue" points="1292.2,-384.13 1300.01,-391.29 1298.37,-380.82 1292.2,-384.13"/>
</g>
<!-- Node32 -->
<g id="node32" class="node">
<title>Node32</title>
<g id="a_node32"><a xlink:href="enumerate__ext_8h.html" target="_top" xlink:title=" ">
<polygon fill="white" stroke="black" points="1292.5,-324.5 1292.5,-354.5 1399.5,-354.5 1399.5,-324.5 1292.5,-324.5"/>
<text text-anchor="start" x="1300.5" y="-342.5" font-family="Helvetica,sans-Serif" font-size="10.00">fplll/enum/enumerate</text>
<text text-anchor="middle" x="1346" y="-331.5" font-family="Helvetica,sans-Serif" font-size="10.00">_ext.h</text>
</a>
</g>
</g>
<!-- Node1&#45;&gt;Node32 -->
<g id="edge49" class="edge">
<title>Node1&#45;&gt;Node32</title>
<path fill="none" stroke="midnightblue" d="M1316.74,-382.96C1322.95,-373.96 1330.47,-363.03 1336.34,-354.52"/>
<polygon fill="midnightblue" stroke="midnightblue" points="1313.67,-381.25 1310.87,-391.48 1319.43,-385.23 1313.67,-381.25"/>
</g>
<!-- Node38 -->
<g id="node38" class="node">
<title>Node38</title>
<g id="a_node38"><a xlink:href="evaluator_8cpp.html" target="_top" xlink:title=" ">
<polygon fill="white" stroke="black" points="1417.5,-330 1417.5,-349 1536.5,-349 1536.5,-330 1417.5,-330"/>
<text text-anchor="middle" x="1477" y="-337" font-family="Helvetica,sans-Serif" font-size="10.00">fplll/enum/evaluator.cpp</text>
</a>
</g>
</g>
<!-- Node1&#45;&gt;Node38 -->
<g id="edge58" class="edge">
<title>Node1&#45;&gt;Node38</title>
<path fill="none" stroke="midnightblue" d="M1339.45,-388.08C1372.88,-376.52 1422.79,-359.25 1452.4,-349.01"/>
<polygon fill="midnightblue" stroke="midnightblue" points="1337.95,-384.9 1329.64,-391.48 1340.24,-391.51 1337.95,-384.9"/>
</g>
<!-- Node3 -->
<g id="node3" class="node">
<title>Node3</title>
<g id="a_node3"><a xlink:href="bkz_8cpp.html" target="_top" xlink:title=" ">
<polygon fill="white" stroke="black" points="1159.5,-129 1159.5,-148 1228.5,-148 1228.5,-129 1159.5,-129"/>
<text text-anchor="middle" x="1194" y="-136" font-family="Helvetica,sans-Serif" font-size="10.00">fplll/bkz.cpp</text>
</a>
</g>
</g>
<!-- Node2&#45;&gt;Node3 -->
<g id="edge2" class="edge">
<title>Node2&#45;&gt;Node3</title>
<path fill="none" stroke="midnightblue" d="M1173.12,-186.29C1178.69,-173.81 1185.83,-157.81 1190.15,-148.13"/>
<polygon fill="midnightblue" stroke="midnightblue" points="1169.79,-185.18 1168.91,-195.73 1176.18,-188.03 1169.79,-185.18"/>
</g>
<!-- Node4 -->
<g id="node4" class="node">
<title>Node4</title>
<g id="a_node4"><a xlink:href="fplll_8h.html" target="_top" xlink:title=" ">
<polygon fill="white" stroke="black" points="831,-129 831,-148 889,-148 889,-129 831,-129"/>
<text text-anchor="middle" x="860" y="-136" font-family="Helvetica,sans-Serif" font-size="10.00">fplll/fplll.h</text>
</a>
</g>
</g>
<!-- Node2&#45;&gt;Node4 -->
<g id="edge3" class="edge">
<title>Node2&#45;&gt;Node4</title>
<path fill="none" stroke="midnightblue" d="M1125.66,-196.12C1063.53,-182.88 944.13,-157.43 889.09,-145.7"/>
<polygon fill="midnightblue" stroke="midnightblue" points="1124.97,-199.55 1135.48,-198.21 1126.43,-192.7 1124.97,-199.55"/>
</g>
<!-- Node5 -->
<g id="node5" class="node">
<title>Node5</title>
<g id="a_node5"><a xlink:href="fplll_8cpp.html" target="_top" xlink:title=" ">
<polygon fill="white" stroke="black" points="1595,-62 1595,-81 1663,-81 1663,-62 1595,-62"/>
<text text-anchor="middle" x="1629" y="-69" font-family="Helvetica,sans-Serif" font-size="10.00">fplll/fplll.cpp</text>
</a>
</g>
</g>
<!-- Node4&#45;&gt;Node5 -->
<g id="edge4" class="edge">
<title>Node4&#45;&gt;Node5</title>
<path fill="none" stroke="midnightblue" d="M899.59,-135.34C1041.33,-127.52 1518.61,-100.47 1586,-87 1592.95,-85.61 1600.33,-83.4 1606.98,-81.13"/>
<polygon fill="midnightblue" stroke="midnightblue" points="899,-131.87 889.21,-135.91 899.39,-138.86 899,-131.87"/>
</g>
<!-- Node6 -->
<g id="node6" class="node">
<title>Node6</title>
<g id="a_node6"><a xlink:href="main_8h.html" target="_top" xlink:title=" ">
<polygon fill="white" stroke="black" points="1513,-62 1513,-81 1577,-81 1577,-62 1513,-62"/>
<text text-anchor="middle" x="1545" y="-69" font-family="Helvetica,sans-Serif" font-size="10.00">fplll/main.h</text>
</a>
</g>
</g>
<!-- Node4&#45;&gt;Node6 -->
<g id="edge5" class="edge">
<title>Node4&#45;&gt;Node6</title>
<path fill="none" stroke="midnightblue" d="M899.3,-135.56C1019.81,-129.44 1383.02,-109.56 1499,-87 1506.4,-85.56 1514.28,-83.34 1521.39,-81.07"/>
<polygon fill="midnightblue" stroke="midnightblue" points="898.87,-132.08 889.06,-136.08 899.23,-139.07 898.87,-132.08"/>
</g>
<!-- Node8 -->
<g id="node8" class="node">
<title>Node8</title>
<g id="a_node8"><a xlink:href="pruner_8cpp.html" target="_top" xlink:title=" ">
<polygon fill="white" stroke="black" points="258,-0.5 258,-19.5 368,-19.5 368,-0.5 258,-0.5"/>
<text text-anchor="middle" x="313" y="-7.5" font-family="Helvetica,sans-Serif" font-size="10.00">fplll/pruner/pruner.cpp</text>
</a>
</g>
</g>
<!-- Node4&#45;&gt;Node8 -->
<g id="edge7" class="edge">
<title>Node4&#45;&gt;Node8</title>
<path fill="none" stroke="midnightblue" d="M821.02,-131.78C783.91,-125.1 727.45,-111.69 684,-87 666.5,-77.06 669.19,-64.61 651,-56 540,-3.42 498.7,-36.55 377,-20 374.11,-19.61 371.15,-19.2 368.15,-18.79"/>
<polygon fill="midnightblue" stroke="midnightblue" points="820.49,-135.24 830.94,-133.48 821.68,-128.34 820.49,-135.24"/>
</g>
<!-- Node9 -->
<g id="node9" class="node">
<title>Node9</title>
<g id="a_node9"><a xlink:href="pruner__cost_8cpp.html" target="_top" xlink:title=" ">
<polygon fill="white" stroke="black" points="440,-56.5 440,-86.5 532,-86.5 532,-56.5 440,-56.5"/>
<text text-anchor="start" x="448" y="-74.5" font-family="Helvetica,sans-Serif" font-size="10.00">fplll/pruner/pruner</text>
<text text-anchor="middle" x="486" y="-63.5" font-family="Helvetica,sans-Serif" font-size="10.00">_cost.cpp</text>
</a>
</g>
</g>
<!-- Node4&#45;&gt;Node9 -->
<g id="edge8" class="edge">
<title>Node4&#45;&gt;Node9</title>
<path fill="none" stroke="midnightblue" d="M820.55,-132.56C760.06,-124.68 640.9,-108.02 541,-87 538.1,-86.39 535.13,-85.72 532.13,-85.02"/>
<polygon fill="midnightblue" stroke="midnightblue" points="820.43,-136.07 830.79,-133.88 821.32,-129.13 820.43,-136.07"/>
</g>
<!-- Node10 -->
<g id="node10" class="node">
<title>Node10</title>
<g id="a_node10"><a xlink:href="pruner__optimize_8cpp.html" target="_top" xlink:title=" ">
<polygon fill="white" stroke="black" points="110,-56.5 110,-86.5 202,-86.5 202,-56.5 110,-56.5"/>
<text text-anchor="start" x="118" y="-74.5" font-family="Helvetica,sans-Serif" font-size="10.00">fplll/pruner/pruner</text>
<text text-anchor="middle" x="156" y="-63.5" font-family="Helvetica,sans-Serif" font-size="10.00">_optimize.cpp</text>
</a>
</g>
</g>
<!-- Node4&#45;&gt;Node10 -->
<g id="edge10" class="edge">
<title>Node4&#45;&gt;Node10</title>
<path fill="none" stroke="midnightblue" d="M820.9,-136.91C719.49,-134.83 439.96,-125.76 211,-87 208.08,-86.51 205.09,-85.93 202.08,-85.29"/>
<polygon fill="midnightblue" stroke="midnightblue" points="820.92,-140.41 830.99,-137.1 821.06,-133.41 820.92,-140.41"/>
</g>
<!-- Node11 -->
<g id="node11" class="node">
<title>Node11</title>
<g id="a_node11"><a xlink:href="pruner__optimize__tc_8cpp.html" target="_top" xlink:title=" ">
<polygon fill="white" stroke="black" points="220,-56.5 220,-86.5 312,-86.5 312,-56.5 220,-56.5"/>
<text text-anchor="start" x="228" y="-74.5" font-family="Helvetica,sans-Serif" font-size="10.00">fplll/pruner/pruner</text>
<text text-anchor="middle" x="266" y="-63.5" font-family="Helvetica,sans-Serif" font-size="10.00">_optimize_tc.cpp</text>
</a>
</g>
</g>
<!-- Node4&#45;&gt;Node11 -->
<g id="edge12" class="edge">
<title>Node4&#45;&gt;Node11</title>
<path fill="none" stroke="midnightblue" d="M820.63,-136.03C731.21,-132.2 506.19,-119.86 321,-87 318.08,-86.48 315.09,-85.89 312.09,-85.24"/>
<polygon fill="midnightblue" stroke="midnightblue" points="820.72,-139.53 830.85,-136.45 821.01,-132.54 820.72,-139.53"/>
</g>
<!-- Node12 -->
<g id="node12" class="node">
<title>Node12</title>
<g id="a_node12"><a xlink:href="pruner__optimize__tp_8cpp.html" target="_top" xlink:title=" ">
<polygon fill="white" stroke="black" points="330,-56.5 330,-86.5 422,-86.5 422,-56.5 330,-56.5"/>
<text text-anchor="start" x="338" y="-74.5" font-family="Helvetica,sans-Serif" font-size="10.00">fplll/pruner/pruner</text>
<text text-anchor="middle" x="376" y="-63.5" font-family="Helvetica,sans-Serif" font-size="10.00">_optimize_tp.cpp</text>
</a>
</g>
</g>
<!-- Node4&#45;&gt;Node12 -->
<g id="edge14" class="edge">
<title>Node4&#45;&gt;Node12</title>
<path fill="none" stroke="midnightblue" d="M820.87,-134.75C745.12,-129.01 573.32,-114 431,-87 428.09,-86.45 425.11,-85.83 422.11,-85.16"/>
<polygon fill="midnightblue" stroke="midnightblue" points="820.68,-138.24 830.91,-135.49 821.2,-131.26 820.68,-138.24"/>
</g>
<!-- Node13 -->
<g id="node13" class="node">
<title>Node13</title>
<g id="a_node13"><a xlink:href="pruner__prob_8cpp.html" target="_top" xlink:title=" ">
<polygon fill="white" stroke="black" points="0,-56.5 0,-86.5 92,-86.5 92,-56.5 0,-56.5"/>
<text text-anchor="start" x="8" y="-74.5" font-family="Helvetica,sans-Serif" font-size="10.00">fplll/pruner/pruner</text>
<text text-anchor="middle" x="46" y="-63.5" font-family="Helvetica,sans-Serif" font-size="10.00">_prob.cpp</text>
</a>
</g>
</g>
<!-- Node4&#45;&gt;Node13 -->
<g id="edge16" class="edge">
<title>Node4&#45;&gt;Node13</title>
<path fill="none" stroke="midnightblue" d="M820.59,-137.52C707.7,-137.03 373.72,-131.6 101,-87 98.08,-86.52 95.08,-85.96 92.08,-85.33"/>
<polygon fill="midnightblue" stroke="midnightblue" points="820.81,-141.03 830.82,-137.56 820.83,-134.03 820.81,-141.03"/>
</g>
<!-- Node14 -->
<g id="node14" class="node">
<title>Node14</title>
<g id="a_node14"><a xlink:href="pruner__util_8cpp.html" target="_top" xlink:title=" ">
<polygon fill="white" stroke="black" points="550,-56.5 550,-86.5 642,-86.5 642,-56.5 550,-56.5"/>
<text text-anchor="start" x="558" y="-74.5" font-family="Helvetica,sans-Serif" font-size="10.00">fplll/pruner/pruner</text>
<text text-anchor="middle" x="596" y="-63.5" font-family="Helvetica,sans-Serif" font-size="10.00">_util.cpp</text>
</a>
</g>
</g>
<!-- Node4&#45;&gt;Node14 -->
<g id="edge18" class="edge">
<title>Node4&#45;&gt;Node14</title>
<path fill="none" stroke="midnightblue" d="M821.07,-127.92C773.49,-116.2 693.05,-96.39 642.32,-83.91"/>
<polygon fill="midnightblue" stroke="midnightblue" points="820.45,-131.37 830.99,-130.36 822.12,-124.57 820.45,-131.37"/>
</g>
<!-- Node15 -->
<g id="node15" class="node">
<title>Node15</title>
<g id="a_node15"><a xlink:href="test__bkz_8cpp.html" target="_top" xlink:title=" ">
<polygon fill="white" stroke="black" points="386,-0.5 386,-19.5 484,-19.5 484,-0.5 386,-0.5"/>
<text text-anchor="middle" x="435" y="-7.5" font-family="Helvetica,sans-Serif" font-size="10.00">tests/test_bkz.cpp</text>
</a>
</g>
</g>
<!-- Node4&#45;&gt;Node15 -->
<g id="edge20" class="edge">
<title>Node4&#45;&gt;Node15</title>
<path fill="none" stroke="midnightblue" d="M821.14,-127.08C792.63,-118.54 753.53,-104.95 722,-87 703.06,-76.22 703.8,-65.12 684,-56 674.97,-51.84 554.24,-31.07 484.27,-19.25"/>
<polygon fill="midnightblue" stroke="midnightblue" points="820.18,-130.45 830.76,-129.89 822.14,-123.73 820.18,-130.45"/>
</g>
<!-- Node16 -->
<g id="node16" class="node">
<title>Node16</title>
<g id="a_node16"><a xlink:href="test__bkz__gram_8cpp.html" target="_top" xlink:title=" ">
<polygon fill="white" stroke="black" points="502.5,-0.5 502.5,-19.5 627.5,-19.5 627.5,-0.5 502.5,-0.5"/>
<text text-anchor="middle" x="565" y="-7.5" font-family="Helvetica,sans-Serif" font-size="10.00">tests/test_bkz_gram.cpp</text>
</a>
</g>
</g>
<!-- Node4&#45;&gt;Node16 -->
<g id="edge21" class="edge">
<title>Node4&#45;&gt;Node16</title>
<path fill="none" stroke="midnightblue" d="M830.63,-124.72C810.2,-115.34 782.67,-101.72 760,-87 741.72,-75.13 741.32,-66.1 722,-56 687.7,-38.07 645.34,-26.47 613.27,-19.54"/>
<polygon fill="midnightblue" stroke="midnightblue" points="829.2,-127.92 839.76,-128.84 832.09,-121.54 829.2,-127.92"/>
</g>
<!-- Node17 -->
<g id="node17" class="node">
<title>Node17</title>
<g id="a_node17"><a xlink:href="test__counter_8cpp.html" target="_top" xlink:title=" ">
<polygon fill="white" stroke="black" points="1072.5,-62 1072.5,-81 1185.5,-81 1185.5,-62 1072.5,-62"/>
<text text-anchor="middle" x="1129" y="-69" font-family="Helvetica,sans-Serif" font-size="10.00">tests/test_counter.cpp</text>
</a>
</g>
</g>
<!-- Node4&#45;&gt;Node17 -->
<g id="edge22" class="edge">
<title>Node4&#45;&gt;Node17</title>
<path fill="none" stroke="midnightblue" d="M898.95,-128.09C951.24,-115.45 1043.38,-93.19 1093.72,-81.02"/>
<polygon fill="midnightblue" stroke="midnightblue" points="897.94,-124.73 889.04,-130.48 899.59,-131.54 897.94,-124.73"/>
</g>
<!-- Node18 -->
<g id="node18" class="node">
<title>Node18</title>
<g id="a_node18"><a xlink:href="test__cvp_8cpp.html" target="_top" xlink:title=" ">
<polygon fill="white" stroke="black" points="646,-0.5 646,-19.5 744,-19.5 744,-0.5 646,-0.5"/>
<text text-anchor="middle" x="695" y="-7.5" font-family="Helvetica,sans-Serif" font-size="10.00">tests/test_cvp.cpp</text>
</a>
</g>
</g>
<!-- Node4&#45;&gt;Node18 -->
<g id="edge23" class="edge">
<title>Node4&#45;&gt;Node18</title>
<path fill="none" stroke="midnightblue" d="M842.14,-122.23C822.4,-105.52 789.47,-78.16 760,-56 742.45,-42.8 721.44,-28.52 708.16,-19.67"/>
<polygon fill="midnightblue" stroke="midnightblue" points="840.1,-125.09 849.99,-128.9 844.63,-119.76 840.1,-125.09"/>
</g>
<!-- Node19 -->
<g id="node19" class="node">
<title>Node19</title>
<g id="a_node19"><a xlink:href="test__enum_8cpp.html" target="_top" xlink:title=" ">
<polygon fill="white" stroke="black" points="762,-0.5 762,-19.5 868,-19.5 868,-0.5 762,-0.5"/>
<text text-anchor="middle" x="815" y="-7.5" font-family="Helvetica,sans-Serif" font-size="10.00">tests/test_enum.cpp</text>
</a>
</g>
</g>
<!-- Node4&#45;&gt;Node19 -->
<g id="edge24" class="edge">
<title>Node4&#45;&gt;Node19</title>
<path fill="none" stroke="midnightblue" d="M853.48,-119.17C843.65,-91.53 825.39,-40.22 818.11,-19.76"/>
<polygon fill="midnightblue" stroke="midnightblue" points="850.26,-120.56 856.91,-128.81 856.85,-118.21 850.26,-120.56"/>
</g>
<!-- Node20 -->
<g id="node20" class="node">
<title>Node20</title>
<g id="a_node20"><a xlink:href="test__hlll_8cpp.html" target="_top" xlink:title=" ">
<polygon fill="white" stroke="black" points="886,-0.5 886,-19.5 980,-19.5 980,-0.5 886,-0.5"/>
<text text-anchor="middle" x="933" y="-7.5" font-family="Helvetica,sans-Serif" font-size="10.00">tests/test_hlll.cpp</text>
</a>
</g>
</g>
<!-- Node4&#45;&gt;Node20 -->
<g id="edge25" class="edge">
<title>Node4&#45;&gt;Node20</title>
<path fill="none" stroke="midnightblue" d="M860.97,-118.97C862.61,-101.56 867.05,-75.38 879,-56 888.61,-40.42 905.5,-27.65 917.83,-19.74"/>
<polygon fill="midnightblue" stroke="midnightblue" points="857.47,-118.75 860.24,-128.97 864.45,-119.25 857.47,-118.75"/>
</g>
<!-- Node21 -->
<g id="node21" class="node">
<title>Node21</title>
<g id="a_node21"><a xlink:href="test__lll_8cpp.html" target="_top" xlink:title=" ">
<polygon fill="white" stroke="black" points="1114.5,-0.5 1114.5,-19.5 1203.5,-19.5 1203.5,-0.5 1114.5,-0.5"/>
<text text-anchor="middle" x="1159" y="-7.5" font-family="Helvetica,sans-Serif" font-size="10.00">tests/test_lll.cpp</text>
</a>
</g>
</g>
<!-- Node4&#45;&gt;Node21 -->
<g id="edge26" class="edge">
<title>Node4&#45;&gt;Node21</title>
<path fill="none" stroke="midnightblue" d="M896.1,-125.56C921.86,-116.44 956.93,-102.79 986,-87 1007.02,-75.58 1008.72,-66.93 1030,-56 1061.43,-39.85 1099.98,-27.25 1126.71,-19.55"/>
<polygon fill="midnightblue" stroke="midnightblue" points="894.67,-122.35 886.38,-128.95 896.97,-128.96 894.67,-122.35"/>
</g>
<!-- Node22 -->
<g id="node22" class="node">
<title>Node22</title>
<g id="a_node22"><a xlink:href="test__lll__gram_8cpp.html" target="_top" xlink:title=" ">
<polygon fill="white" stroke="black" points="1221,-0.5 1221,-19.5 1337,-19.5 1337,-0.5 1221,-0.5"/>
<text text-anchor="middle" x="1279" y="-7.5" font-family="Helvetica,sans-Serif" font-size="10.00">tests/test_lll_gram.cpp</text>
</a>
</g>
</g>
<!-- Node4&#45;&gt;Node22 -->
<g id="edge27" class="edge">
<title>Node4&#45;&gt;Node22</title>
<path fill="none" stroke="midnightblue" d="M899.21,-129.3C932.96,-121.31 982.35,-107.38 1022,-87 1042.32,-76.56 1042.2,-65.45 1063,-56 1091.25,-43.17 1170.24,-28.56 1224.45,-19.56"/>
<polygon fill="midnightblue" stroke="midnightblue" points="898.22,-125.94 889.26,-131.59 899.79,-132.76 898.22,-125.94"/>
</g>
<!-- Node23 -->
<g id="node23" class="node">
<title>Node23</title>
<g id="a_node23"><a xlink:href="test__nr_8cpp.html" target="_top" xlink:title=" ">
<polygon fill="white" stroke="black" points="1203.5,-62 1203.5,-81 1292.5,-81 1292.5,-62 1203.5,-62"/>
<text text-anchor="middle" x="1248" y="-69" font-family="Helvetica,sans-Serif" font-size="10.00">tests/test_nr.cpp</text>
</a>
</g>
</g>
<!-- Node4&#45;&gt;Node23 -->
<g id="edge28" class="edge">
<title>Node4&#45;&gt;Node23</title>
<path fill="none" stroke="midnightblue" d="M899.47,-132.99C962.23,-125.49 1088.46,-109.08 1194,-87 1202.08,-85.31 1210.74,-83.14 1218.72,-81"/>
<polygon fill="midnightblue" stroke="midnightblue" points="898.76,-129.55 889.24,-134.2 899.58,-136.5 898.76,-129.55"/>
</g>
<!-- Node24 -->
<g id="node24" class="node">
<title>Node24</title>
<g id="a_node24"><a xlink:href="test__pruner_8cpp.html" target="_top" xlink:title=" ">
<polygon fill="white" stroke="black" points="1311,-62 1311,-81 1419,-81 1419,-62 1311,-62"/>
<text text-anchor="middle" x="1365" y="-69" font-family="Helvetica,sans-Serif" font-size="10.00">tests/test_pruner.cpp</text>
</a>
</g>
</g>
<!-- Node4&#45;&gt;Node24 -->
<g id="edge29" class="edge">
<title>Node4&#45;&gt;Node24</title>
<path fill="none" stroke="midnightblue" d="M899.28,-134.45C976.57,-128.12 1153.7,-112.04 1301,-87 1310.66,-85.36 1321.05,-83.18 1330.59,-81.02"/>
<polygon fill="midnightblue" stroke="midnightblue" points="898.73,-130.98 889.05,-135.27 899.3,-137.96 898.73,-130.98"/>
</g>
<!-- Node25 -->
<g id="node25" class="node">
<title>Node25</title>
<g id="a_node25"><a xlink:href="test__svp_8cpp.html" target="_top" xlink:title=" ">
<polygon fill="white" stroke="black" points="1355,-0.5 1355,-19.5 1453,-19.5 1453,-0.5 1355,-0.5"/>
<text text-anchor="middle" x="1404" y="-7.5" font-family="Helvetica,sans-Serif" font-size="10.00">tests/test_svp.cpp</text>
</a>
</g>
</g>
<!-- Node4&#45;&gt;Node25 -->
<g id="edge30" class="edge">
<title>Node4&#45;&gt;Node25</title>
<path fill="none" stroke="midnightblue" d="M899.38,-135.45C1025.18,-128.7 1410.12,-106.54 1428,-87 1445.75,-67.6 1423.93,-35.14 1411.5,-19.68"/>
<polygon fill="midnightblue" stroke="midnightblue" points="898.86,-131.97 889.06,-136 899.23,-138.96 898.86,-131.97"/>
</g>
<!-- Node26 -->
<g id="node26" class="node">
<title>Node26</title>
<g id="a_node26"><a xlink:href="test__svp__gram_8cpp.html" target="_top" xlink:title=" ">
<polygon fill="white" stroke="black" points="1471.5,-0.5 1471.5,-19.5 1596.5,-19.5 1596.5,-0.5 1471.5,-0.5"/>
<text text-anchor="middle" x="1534" y="-7.5" font-family="Helvetica,sans-Serif" font-size="10.00">tests/test_svp_gram.cpp</text>
</a>
</g>
</g>
<!-- Node4&#45;&gt;Node26 -->
<g id="edge31" class="edge">
<title>Node4&#45;&gt;Node26</title>
<path fill="none" stroke="midnightblue" d="M899.31,-135.52C1022.5,-129.11 1395.83,-108.16 1446,-87 1482.08,-71.78 1514.01,-35.98 1527.36,-19.54"/>
<polygon fill="midnightblue" stroke="midnightblue" points="899,-132.03 889.19,-136.04 899.36,-139.02 899,-132.03"/>
</g>
<!-- Node27 -->
<g id="node27" class="node">
<title>Node27</title>
<g id="a_node27"><a xlink:href="test__utils_8h.html" target="_top" xlink:title=" ">
<polygon fill="white" stroke="black" points="888.5,-62 888.5,-81 977.5,-81 977.5,-62 888.5,-62"/>
<text text-anchor="middle" x="933" y="-69" font-family="Helvetica,sans-Serif" font-size="10.00">tests/test_utils.h</text>
</a>
</g>
</g>
<!-- Node4&#45;&gt;Node27 -->
<g id="edge32" class="edge">
<title>Node4&#45;&gt;Node27</title>
<path fill="none" stroke="midnightblue" d="M877.57,-121.86C891.92,-109.08 911.67,-91.49 923.31,-81.13"/>
<polygon fill="midnightblue" stroke="midnightblue" points="874.99,-119.47 869.85,-128.73 879.64,-124.7 874.99,-119.47"/>
</g>
<!-- Node7 -->
<g id="node7" class="node">
<title>Node7</title>
<g id="a_node7"><a xlink:href="main_8cpp.html" target="_top" xlink:title=" ">
<polygon fill="white" stroke="black" points="1615,-0.5 1615,-19.5 1689,-19.5 1689,-0.5 1615,-0.5"/>
<text text-anchor="middle" x="1652" y="-7.5" font-family="Helvetica,sans-Serif" font-size="10.00">fplll/main.cpp</text>
</a>
</g>
</g>
<!-- Node6&#45;&gt;Node7 -->
<g id="edge6" class="edge">
<title>Node6&#45;&gt;Node7</title>
<path fill="none" stroke="midnightblue" d="M1569.18,-57.06C1589.88,-45.54 1619.07,-29.31 1636.7,-19.51"/>
<polygon fill="midnightblue" stroke="midnightblue" points="1567.37,-54.06 1560.33,-61.98 1570.77,-60.17 1567.37,-54.06"/>
</g>
<!-- Node9&#45;&gt;Node8 -->
<g id="edge9" class="edge">
<title>Node9&#45;&gt;Node8</title>
<path fill="none" stroke="midnightblue" d="M435.34,-53.08C403.29,-42.05 363.28,-28.29 337.92,-19.57"/>
<polygon fill="midnightblue" stroke="midnightblue" points="434.41,-56.46 445,-56.4 436.68,-49.84 434.41,-56.46"/>
</g>
<!-- Node10&#45;&gt;Node8 -->
<g id="edge11" class="edge">
<title>Node10&#45;&gt;Node8</title>
<path fill="none" stroke="midnightblue" d="M202.7,-52.8C231.56,-41.86 267.32,-28.31 290.16,-19.66"/>
<polygon fill="midnightblue" stroke="midnightblue" points="201.32,-49.58 193.21,-56.4 203.8,-56.13 201.32,-49.58"/>
</g>
<!-- Node11&#45;&gt;Node8 -->
<g id="edge13" class="edge">
<title>Node11&#45;&gt;Node8</title>
<path fill="none" stroke="midnightblue" d="M283.45,-48.4C291.35,-38.41 300.22,-27.18 306.16,-19.66"/>
<polygon fill="midnightblue" stroke="midnightblue" points="280.59,-46.38 277.14,-56.4 286.08,-50.72 280.59,-46.38"/>
</g>
<!-- Node12&#45;&gt;Node8 -->
<g id="edge15" class="edge">
<title>Node12&#45;&gt;Node8</title>
<path fill="none" stroke="midnightblue" d="M353.55,-49.3C342.74,-39.09 330.37,-27.41 322.17,-19.66"/>
<polygon fill="midnightblue" stroke="midnightblue" points="351.4,-52.08 361.07,-56.4 356.2,-46.99 351.4,-52.08"/>
</g>
<!-- Node13&#45;&gt;Node8 -->
<g id="edge17" class="edge">
<title>Node13&#45;&gt;Node8</title>
<path fill="none" stroke="midnightblue" d="M101.99,-55.82C165.75,-40.8 228.98,-27.73 269.82,-19.52"/>
<polygon fill="midnightblue" stroke="midnightblue" points="101.1,-52.44 92.17,-58.15 102.71,-59.25 101.1,-52.44"/>
</g>
<!-- Node14&#45;&gt;Node8 -->
<g id="edge19" class="edge">
<title>Node14&#45;&gt;Node8</title>
<path fill="none" stroke="midnightblue" d="M539.88,-55.82C472.38,-40.46 404.88,-27.6 360.78,-19.53"/>
<polygon fill="midnightblue" stroke="midnightblue" points="539.31,-59.28 549.84,-58.1 540.87,-52.46 539.31,-59.28"/>
</g>
<!-- Node27&#45;&gt;Node15 -->
<g id="edge33" class="edge">
<title>Node27&#45;&gt;Node15</title>
<path fill="none" stroke="midnightblue" d="M878.27,-64.92C794.98,-56.28 631.43,-38.68 493,-20 490.07,-19.6 487.06,-19.18 484.03,-18.75"/>
<polygon fill="midnightblue" stroke="midnightblue" points="877.96,-68.41 888.27,-65.96 878.68,-61.45 877.96,-68.41"/>
</g>
<!-- Node27&#45;&gt;Node16 -->
<g id="edge34" class="edge">
<title>Node27&#45;&gt;Node16</title>
<path fill="none" stroke="midnightblue" d="M878.26,-61.65C808.02,-50.29 687.01,-30.73 617.75,-19.53"/>
<polygon fill="midnightblue" stroke="midnightblue" points="877.81,-65.12 888.24,-63.26 878.93,-58.21 877.81,-65.12"/>
</g>
<!-- Node27&#45;&gt;Node18 -->
<g id="edge35" class="edge">
<title>Node27&#45;&gt;Node18</title>
<path fill="none" stroke="midnightblue" d="M889.16,-59.54C842.96,-47.99 771.16,-30.04 729.04,-19.51"/>
<polygon fill="midnightblue" stroke="midnightblue" points="888.35,-62.95 898.9,-61.98 890.05,-56.15 888.35,-62.95"/>
</g>
<!-- Node27&#45;&gt;Node19 -->
<g id="edge36" class="edge">
<title>Node27&#45;&gt;Node19</title>
<path fill="none" stroke="midnightblue" d="M906.95,-57.37C884.08,-45.83 851.49,-29.4 831.88,-19.51"/>
<polygon fill="midnightblue" stroke="midnightblue" points="905.59,-60.6 916.09,-61.98 908.74,-54.35 905.59,-60.6"/>
</g>
<!-- Node27&#45;&gt;Node20 -->
<g id="edge38" class="edge">
<title>Node27&#45;&gt;Node20</title>
<path fill="none" stroke="midnightblue" d="M933,-51.82C933,-41 933,-27.9 933,-19.51"/>
<polygon fill="midnightblue" stroke="midnightblue" points="929.5,-51.98 933,-61.98 936.5,-51.98 929.5,-51.98"/>
</g>
<!-- Node27&#45;&gt;Node21 -->
<g id="edge39" class="edge">
<title>Node27&#45;&gt;Node21</title>
<path fill="none" stroke="midnightblue" d="M975.18,-59.4C1019.07,-47.84 1086.85,-30 1126.68,-19.51"/>
<polygon fill="midnightblue" stroke="midnightblue" points="974.16,-56.04 965.38,-61.98 975.94,-62.81 974.16,-56.04"/>
</g>
<!-- Node27&#45;&gt;Node22 -->
<g id="edge40" class="edge">
<title>Node27&#45;&gt;Node22</title>
<path fill="none" stroke="midnightblue" d="M987.38,-61.15C1053.79,-49.73 1165.15,-30.58 1229.34,-19.54"/>
<polygon fill="midnightblue" stroke="midnightblue" points="986.79,-57.7 977.53,-62.84 987.97,-64.6 986.79,-57.7"/>
</g>
<!-- Node27&#45;&gt;Node25 -->
<g id="edge41" class="edge">
<title>Node27&#45;&gt;Node25</title>
<path fill="none" stroke="midnightblue" d="M987.9,-64.36C1067.1,-55.37 1217.95,-37.76 1346,-20 1348.93,-19.59 1351.94,-19.16 1354.97,-18.72"/>
<polygon fill="midnightblue" stroke="midnightblue" points="987.22,-60.91 977.68,-65.52 988.01,-67.87 987.22,-60.91"/>
</g>
<!-- Node27&#45;&gt;Node26 -->
<g id="edge42" class="edge">
<title>Node27&#45;&gt;Node26</title>
<path fill="none" stroke="midnightblue" d="M987.8,-64.13C1010.99,-61.5 1038.3,-58.49 1063,-56 1240.15,-38.13 1284.97,-39.05 1462,-20 1465.01,-19.68 1468.08,-19.33 1471.19,-18.98"/>
<polygon fill="midnightblue" stroke="midnightblue" points="987.34,-60.66 977.8,-65.27 988.13,-67.61 987.34,-60.66"/>
</g>
<!-- Node28 -->
<g id="node28" class="node">
<title>Node28</title>
<g id="a_node28"><a xlink:href="test__gso_8cpp.html" target="_top" xlink:title=" ">
<polygon fill="white" stroke="black" points="998,-0.5 998,-19.5 1096,-19.5 1096,-0.5 998,-0.5"/>
<text text-anchor="middle" x="1047" y="-7.5" font-family="Helvetica,sans-Serif" font-size="10.00">tests/test_gso.cpp</text>
</a>
</g>
</g>
<!-- Node27&#45;&gt;Node28 -->
<g id="edge37" class="edge">
<title>Node27&#45;&gt;Node28</title>
<path fill="none" stroke="midnightblue" d="M958.46,-57.21C980.54,-45.69 1011.83,-29.36 1030.7,-19.51"/>
<polygon fill="midnightblue" stroke="midnightblue" points="956.58,-54.25 949.33,-61.98 959.82,-60.45 956.58,-54.25"/>
</g>
<!-- Node29&#45;&gt;Node2 -->
<g id="edge45" class="edge">
<title>Node29&#45;&gt;Node2</title>
<path fill="none" stroke="midnightblue" d="M1242.06,-257.09C1222.47,-244.24 1194.44,-225.83 1178.14,-215.13"/>
<polygon fill="midnightblue" stroke="midnightblue" points="1240.37,-260.17 1250.65,-262.73 1244.21,-254.32 1240.37,-260.17"/>
</g>
<!-- Node29&#45;&gt;Node3 -->
<g id="edge44" class="edge">
<title>Node29&#45;&gt;Node3</title>
<path fill="none" stroke="midnightblue" d="M1254.68,-253.92C1239.45,-225.2 1209.81,-169.32 1198.52,-148.02"/>
<polygon fill="midnightblue" stroke="midnightblue" points="1251.63,-255.64 1259.41,-262.84 1257.81,-252.36 1251.63,-255.64"/>
</g>
<!-- Node30 -->
<g id="node30" class="node">
<title>Node30</title>
<g id="a_node30"><a xlink:href="enumerate_8cpp.html" target="_top" xlink:title=" ">
<polygon fill="white" stroke="black" points="1251,-196 1251,-215 1377,-215 1377,-196 1251,-196"/>
<text text-anchor="middle" x="1314" y="-203" font-family="Helvetica,sans-Serif" font-size="10.00">fplll/enum/enumerate.cpp</text>
</a>
</g>
</g>
<!-- Node29&#45;&gt;Node30 -->
<g id="edge46" class="edge">
<title>Node29&#45;&gt;Node30</title>
<path fill="none" stroke="midnightblue" d="M1276.87,-254.77C1286.62,-242.1 1299.61,-225.2 1307.36,-215.13"/>
<polygon fill="midnightblue" stroke="midnightblue" points="1274.07,-252.67 1270.74,-262.73 1279.61,-256.94 1274.07,-252.67"/>
</g>
<!-- Node31 -->
<g id="node31" class="node">
<title>Node31</title>
<g id="a_node31"><a xlink:href="svpcvp_8cpp.html" target="_top" xlink:title=" ">
<polygon fill="white" stroke="black" points="1364.5,-129 1364.5,-148 1449.5,-148 1449.5,-129 1364.5,-129"/>
<text text-anchor="middle" x="1407" y="-136" font-family="Helvetica,sans-Serif" font-size="10.00">fplll/svpcvp.cpp</text>
</a>
</g>
</g>
<!-- Node29&#45;&gt;Node31 -->
<g id="edge47" class="edge">
<title>Node29&#45;&gt;Node31</title>
<path fill="none" stroke="midnightblue" d="M1320.12,-260.03C1343.51,-252.57 1369.1,-240.46 1386,-221 1404.4,-199.82 1407.01,-164.57 1407.17,-148.26"/>
<polygon fill="midnightblue" stroke="midnightblue" points="1318.86,-256.75 1310.27,-262.95 1320.85,-263.46 1318.86,-256.75"/>
</g>
<!-- Node31&#45;&gt;Node5 -->
<g id="edge48" class="edge">
<title>Node31&#45;&gt;Node5</title>
<path fill="none" stroke="midnightblue" d="M1448.93,-126.31C1485.32,-116.45 1539.34,-101.44 1586,-87 1591.87,-85.18 1598.16,-83.13 1604.06,-81.15"/>
<polygon fill="midnightblue" stroke="midnightblue" points="1447.9,-122.96 1439.15,-128.95 1449.72,-129.72 1447.9,-122.96"/>
</g>
<!-- Node32&#45;&gt;Node29 -->
<g id="edge50" class="edge">
<title>Node32&#45;&gt;Node29</title>
<path fill="none" stroke="midnightblue" d="M1320.15,-318.01C1304.93,-305.94 1286.46,-291.3 1274.97,-282.19"/>
<polygon fill="midnightblue" stroke="midnightblue" points="1318.2,-320.93 1328.21,-324.4 1322.54,-315.44 1318.2,-320.93"/>
</g>
<!-- Node33 -->
<g id="node33" class="node">
<title>Node33</title>
<g id="a_node33"><a xlink:href="enumerate__ext_8cpp.html" target="_top" xlink:title=" ">
<polygon fill="white" stroke="black" points="1340.5,-257.5 1340.5,-287.5 1447.5,-287.5 1447.5,-257.5 1340.5,-257.5"/>
<text text-anchor="start" x="1348.5" y="-275.5" font-family="Helvetica,sans-Serif" font-size="10.00">fplll/enum/enumerate</text>
<text text-anchor="middle" x="1394" y="-264.5" font-family="Helvetica,sans-Serif" font-size="10.00">_ext.cpp</text>
</a>
</g>
</g>
<!-- Node32&#45;&gt;Node33 -->
<g id="edge51" class="edge">
<title>Node32&#45;&gt;Node33</title>
<path fill="none" stroke="midnightblue" d="M1362.5,-316.16C1369.5,-306.68 1377.44,-295.92 1383.61,-287.58"/>
<polygon fill="midnightblue" stroke="midnightblue" points="1359.54,-314.27 1356.42,-324.4 1365.17,-318.43 1359.54,-314.27"/>
</g>
<!-- Node34 -->
<g id="node34" class="node">
<title>Node34</title>
<g id="a_node34"><a xlink:href="fplll__types_8h.html" target="_top" xlink:title=" ">
<polygon fill="white" stroke="black" points="1468,-257.5 1468,-287.5 1560,-287.5 1560,-257.5 1468,-257.5"/>
<text text-anchor="start" x="1476" y="-275.5" font-family="Helvetica,sans-Serif" font-size="10.00">fplll/enum&#45;parallel</text>
<text text-anchor="middle" x="1514" y="-264.5" font-family="Helvetica,sans-Serif" font-size="10.00">/fplll_types.h</text>
</a>
</g>
</g>
<!-- Node32&#45;&gt;Node34 -->
<g id="edge52" class="edge">
<title>Node32&#45;&gt;Node34</title>
<path fill="none" stroke="midnightblue" d="M1392.05,-320.68C1419,-310.26 1452.54,-297.28 1477.62,-287.58"/>
<polygon fill="midnightblue" stroke="midnightblue" points="1390.52,-317.52 1382.45,-324.4 1393.04,-324.05 1390.52,-317.52"/>
</g>
<!-- Node35 -->
<g id="node35" class="node">
<title>Node35</title>
<g id="a_node35"><a xlink:href="enumeration_8h.html" target="_top" xlink:title=" ">
<polygon fill="white" stroke="black" points="1471,-190.5 1471,-220.5 1563,-220.5 1563,-190.5 1471,-190.5"/>
<text text-anchor="start" x="1479" y="-208.5" font-family="Helvetica,sans-Serif" font-size="10.00">fplll/enum&#45;parallel</text>
<text text-anchor="middle" x="1517" y="-197.5" font-family="Helvetica,sans-Serif" font-size="10.00">/enumeration.h</text>
</a>
</g>
</g>
<!-- Node34&#45;&gt;Node35 -->
<g id="edge53" class="edge">
<title>Node34&#45;&gt;Node35</title>
<path fill="none" stroke="midnightblue" d="M1515.11,-247.4C1515.53,-238.37 1515.99,-228.41 1516.35,-220.58"/>
<polygon fill="midnightblue" stroke="midnightblue" points="1511.62,-247.25 1514.65,-257.4 1518.61,-247.57 1511.62,-247.25"/>
</g>
<!-- Node36 -->
<g id="node36" class="node">
<title>Node36</title>
<g id="a_node36"><a xlink:href="enumlib_8cpp.html" target="_top" xlink:title=" ">
<polygon fill="white" stroke="black" points="1471,-123.5 1471,-153.5 1563,-153.5 1563,-123.5 1471,-123.5"/>
<text text-anchor="start" x="1479" y="-141.5" font-family="Helvetica,sans-Serif" font-size="10.00">fplll/enum&#45;parallel</text>
<text text-anchor="middle" x="1517" y="-130.5" font-family="Helvetica,sans-Serif" font-size="10.00">/enumlib.cpp</text>
</a>
</g>
</g>
<!-- Node34&#45;&gt;Node36 -->
<g id="edge55" class="edge">
<title>Node34&#45;&gt;Node36</title>
<path fill="none" stroke="midnightblue" d="M1484.79,-250.76C1475.73,-242.63 1466.85,-232.48 1462,-221 1456.63,-208.31 1456.46,-202.61 1462,-190 1468.62,-174.93 1482.21,-162.38 1494.22,-153.56"/>
<polygon fill="midnightblue" stroke="midnightblue" points="1482.79,-253.65 1492.7,-257.38 1487.28,-248.28 1482.79,-253.65"/>
</g>
<!-- Node37 -->
<g id="node37" class="node">
<title>Node37</title>
<g id="a_node37"><a xlink:href="enumlib_8h.html" target="_top" xlink:title=" ">
<polygon fill="white" stroke="black" points="1581,-190.5 1581,-220.5 1673,-220.5 1673,-190.5 1581,-190.5"/>
<text text-anchor="start" x="1589" y="-208.5" font-family="Helvetica,sans-Serif" font-size="10.00">fplll/enum&#45;parallel</text>
<text text-anchor="middle" x="1627" y="-197.5" font-family="Helvetica,sans-Serif" font-size="10.00">/enumlib.h</text>
</a>
</g>
</g>
<!-- Node34&#45;&gt;Node37 -->
<g id="edge56" class="edge">
<title>Node34&#45;&gt;Node37</title>
<path fill="none" stroke="midnightblue" d="M1547.39,-252.3C1565.07,-242.12 1586.4,-229.85 1602.53,-220.58"/>
<polygon fill="midnightblue" stroke="midnightblue" points="1545.44,-249.38 1538.52,-257.4 1548.93,-255.44 1545.44,-249.38"/>
</g>
<!-- Node35&#45;&gt;Node36 -->
<g id="edge54" class="edge">
<title>Node35&#45;&gt;Node36</title>
<path fill="none" stroke="midnightblue" d="M1517,-180.11C1517,-171.15 1517,-161.32 1517,-153.58"/>
<polygon fill="midnightblue" stroke="midnightblue" points="1513.5,-180.4 1517,-190.4 1520.5,-180.4 1513.5,-180.4"/>
</g>
<!-- Node37&#45;&gt;Node36 -->
<g id="edge57" class="edge">
<title>Node37&#45;&gt;Node36</title>
<path fill="none" stroke="midnightblue" d="M1594.5,-185.3C1577.29,-175.12 1556.52,-162.85 1540.82,-153.58"/>
<polygon fill="midnightblue" stroke="midnightblue" points="1592.74,-188.32 1603.13,-190.4 1596.3,-182.3 1592.74,-188.32"/>
</g>
</g>
</svg>
