<?xml version="1.0" encoding="UTF-8" standalone="no"?>
<!DOCTYPE svg PUBLIC "-//W3C//DTD SVG 1.1//EN"
 "http://www.w3.org/Graphics/SVG/1.1/DTD/svg11.dtd">
<!-- Generated by graphviz version 2.40.1 (20161225.0304)
 -->
<!-- Title: fplll/enum/evaluator.h Pages: 1 -->
<svg width="1815pt" height="419pt"
 viewBox="0.00 0.00 1815.00 419.00" xmlns="http://www.w3.org/2000/svg" xmlns:xlink="http://www.w3.org/1999/xlink">
<g id="graph0" class="graph" transform="scale(1 1) rotate(0) translate(4 415)">
<title>fplll/enum/evaluator.h</title>
<polygon fill="#ffffff" stroke="transparent" points="-4,4 -4,-415 1811,-415 1811,4 -4,4"/>
<!-- Node0 -->
<g id="node1" class="node">
<title>Node0</title>
<polygon fill="#bfbfbf" stroke="#000000" points="1378,-391.5 1378,-410.5 1488,-410.5 1488,-391.5 1378,-391.5"/>
<text text-anchor="middle" x="1433" y="-398.5" font-family="Helvetica,sans-Serif" font-size="10.00" fill="#000000">fplll/enum/evaluator.h</text>
</g>
<!-- Node1 -->
<g id="node2" class="node">
<title>Node1</title>
<g id="a_node2"><a xlink:href="enumerate__ext_8h.html" target="_top" xlink:title="fplll/enum/enumerate\l_ext.h">
<polygon fill="#ffffff" stroke="#000000" points="1420.5,-324.5 1420.5,-354.5 1527.5,-354.5 1527.5,-324.5 1420.5,-324.5"/>
<text text-anchor="start" x="1428.5" y="-342.5" font-family="Helvetica,sans-Serif" font-size="10.00" fill="#000000">fplll/enum/enumerate</text>
<text text-anchor="middle" x="1474" y="-331.5" font-family="Helvetica,sans-Serif" font-size="10.00" fill="#000000">_ext.h</text>
</a>
</g>
</g>
<!-- Node0&#45;&gt;Node1 -->
<g id="edge1" class="edge">
<title>Node0&#45;&gt;Node1</title>
<path fill="none" stroke="#191970" d="M1445.1306,-382.8041C1451.1303,-373.8045 1458.2847,-363.073 1463.9703,-354.5446"/>
<polygon fill="#191970" stroke="#191970" points="1442.0411,-381.1286 1439.4063,-391.3906 1447.8655,-385.0116 1442.0411,-381.1286"/>
</g>
<!-- Node2 -->
<g id="node3" class="node">
<title>Node2</title>
<g id="a_node3"><a xlink:href="enumerate_8h.html" target="_top" xlink:title="fplll/enum/enumerate.h">
<polygon fill="#ffffff" stroke="#000000" points="1334,-263 1334,-282 1450,-282 1450,-263 1334,-263"/>
<text text-anchor="middle" x="1392" y="-270" font-family="Helvetica,sans-Serif" font-size="10.00" fill="#000000">fplll/enum/enumerate.h</text>
</a>
</g>
</g>
<!-- Node0&#45;&gt;Node2 -->
<g id="edge57" class="edge">
<title>Node0&#45;&gt;Node2</title>
<path fill="none" stroke="#191970" d="M1422.9312,-382.3518C1418.8009,-374.1395 1414.2392,-364.2682 1411,-355 1402.0773,-329.4703 1396.1656,-298.0199 1393.546,-282.3485"/>
<polygon fill="#191970" stroke="#191970" points="1419.916,-384.1396 1427.6375,-391.3942 1426.1253,-380.9078 1419.916,-384.1396"/>
</g>
<!-- Node3 -->
<g id="node4" class="node">
<title>Node3</title>
<g id="a_node4"><a xlink:href="bkz_8h.html" target="_top" xlink:title="fplll/bkz.h">
<polygon fill="#ffffff" stroke="#000000" points="1269.5,-196 1269.5,-215 1328.5,-215 1328.5,-196 1269.5,-196"/>
<text text-anchor="middle" x="1299" y="-203" font-family="Helvetica,sans-Serif" font-size="10.00" fill="#000000">fplll/bkz.h</text>
</a>
</g>
</g>
<!-- Node0&#45;&gt;Node3 -->
<g id="edge58" class="edge">
<title>Node0&#45;&gt;Node3</title>
<path fill="none" stroke="#191970" d="M1412.9383,-385.0591C1388.8052,-364.8809 1348.6006,-327.9095 1325,-288 1310.7821,-263.957 1303.4994,-231.3003 1300.5797,-215.2388"/>
<polygon fill="#191970" stroke="#191970" points="1410.8009,-387.8328 1420.7506,-391.4734 1415.2428,-382.4227 1410.8009,-387.8328"/>
</g>
<!-- Node38 -->
<g id="node39" class="node">
<title>Node38</title>
<g id="a_node39"><a xlink:href="evaluator_8cpp.html" target="_top" xlink:title="fplll/enum/evaluator.cpp">
<polygon fill="#ffffff" stroke="#000000" points="1546,-330 1546,-349 1666,-349 1666,-330 1546,-330"/>
<text text-anchor="middle" x="1606" y="-337" font-family="Helvetica,sans-Serif" font-size="10.00" fill="#000000">fplll/enum/evaluator.cpp</text>
</a>
</g>
</g>
<!-- Node0&#45;&gt;Node38 -->
<g id="edge59" class="edge">
<title>Node0&#45;&gt;Node38</title>
<path fill="none" stroke="#191970" d="M1469.7087,-387.9504C1502.505,-376.2916 1549.7815,-359.4852 1579.1586,-349.0419"/>
<polygon fill="#191970" stroke="#191970" points="1468.2812,-384.7432 1460.0313,-391.3906 1470.626,-391.3388 1468.2812,-384.7432"/>
</g>
<!-- Node1&#45;&gt;Node2 -->
<g id="edge2" class="edge">
<title>Node1&#45;&gt;Node2</title>
<path fill="none" stroke="#191970" d="M1447.5357,-317.8767C1432.7511,-305.7967 1415.0699,-291.3498 1403.6941,-282.055"/>
<polygon fill="#191970" stroke="#191970" points="1445.4346,-320.6797 1455.3929,-324.2967 1449.8637,-315.2591 1445.4346,-320.6797"/>
</g>
<!-- Node33 -->
<g id="node34" class="node">
<title>Node33</title>
<g id="a_node34"><a xlink:href="enumerate__ext_8cpp.html" target="_top" xlink:title="fplll/enum/enumerate\l_ext.cpp">
<polygon fill="#ffffff" stroke="#000000" points="1468.5,-257.5 1468.5,-287.5 1575.5,-287.5 1575.5,-257.5 1468.5,-257.5"/>
<text text-anchor="start" x="1476.5" y="-275.5" font-family="Helvetica,sans-Serif" font-size="10.00" fill="#000000">fplll/enum/enumerate</text>
<text text-anchor="middle" x="1522" y="-264.5" font-family="Helvetica,sans-Serif" font-size="10.00" fill="#000000">_ext.cpp</text>
</a>
</g>
</g>
<!-- Node1&#45;&gt;Node33 -->
<g id="edge50" class="edge">
<title>Node1&#45;&gt;Node33</title>
<path fill="none" stroke="#191970" d="M1490.791,-316.0626C1497.5476,-306.6315 1505.1444,-296.0276 1511.1512,-287.6432"/>
<polygon fill="#191970" stroke="#191970" points="1487.8706,-314.1292 1484.8919,-324.2967 1493.561,-318.2059 1487.8706,-314.1292"/>
</g>
<!-- Node34 -->
<g id="node35" class="node">
<title>Node34</title>
<g id="a_node35"><a xlink:href="fplll__types_8h.html" target="_top" xlink:title="fplll/enum&#45;parallel\l/fplll_types.h">
<polygon fill="#ffffff" stroke="#000000" points="1599,-257.5 1599,-287.5 1691,-287.5 1691,-257.5 1599,-257.5"/>
<text text-anchor="start" x="1607" y="-275.5" font-family="Helvetica,sans-Serif" font-size="10.00" fill="#000000">fplll/enum&#45;parallel</text>
<text text-anchor="middle" x="1645" y="-264.5" font-family="Helvetica,sans-Serif" font-size="10.00" fill="#000000">/fplll_types.h</text>
</a>
</g>
</g>
<!-- Node1&#45;&gt;Node34 -->
<g id="edge51" class="edge">
<title>Node1&#45;&gt;Node34</title>
<path fill="none" stroke="#191970" d="M1521.912,-320.7275C1548.616,-310.2645 1581.4277,-297.4084 1606.4569,-287.6017"/>
<polygon fill="#191970" stroke="#191970" points="1520.4097,-317.5569 1512.3757,-324.4639 1522.9634,-324.0745 1520.4097,-317.5569"/>
</g>
<!-- Node2&#45;&gt;Node3 -->
<g id="edge3" class="edge">
<title>Node2&#45;&gt;Node3</title>
<path fill="none" stroke="#191970" d="M1370.4992,-257.0102C1352.5333,-244.067 1327.4824,-226.0195 1312.2999,-215.0817"/>
<polygon fill="#191970" stroke="#191970" points="1368.5158,-259.8949 1378.6754,-262.9005 1372.6075,-254.2153 1368.5158,-259.8949"/>
</g>
<!-- Node4 -->
<g id="node5" class="node">
<title>Node4</title>
<g id="a_node5"><a xlink:href="bkz_8cpp.html" target="_top" xlink:title="fplll/bkz.cpp">
<polygon fill="#ffffff" stroke="#000000" points="1293.5,-129 1293.5,-148 1362.5,-148 1362.5,-129 1293.5,-129"/>
<text text-anchor="middle" x="1328" y="-136" font-family="Helvetica,sans-Serif" font-size="10.00" fill="#000000">fplll/bkz.cpp</text>
</a>
</g>
</g>
<!-- Node2&#45;&gt;Node4 -->
<g id="edge46" class="edge">
<title>Node2&#45;&gt;Node4</title>
<path fill="none" stroke="#191970" d="M1383.0574,-253.7765C1369.2107,-224.7849 1343.083,-170.08 1332.561,-148.0496"/>
<polygon fill="#191970" stroke="#191970" points="1379.9292,-255.3479 1387.3973,-262.8631 1386.2457,-252.331 1379.9292,-255.3479"/>
</g>
<!-- Node31 -->
<g id="node32" class="node">
<title>Node31</title>
<g id="a_node32"><a xlink:href="enumerate_8cpp.html" target="_top" xlink:title="fplll/enum/enumerate.cpp">
<polygon fill="#ffffff" stroke="#000000" points="1423,-196 1423,-215 1549,-215 1549,-196 1423,-196"/>
<text text-anchor="middle" x="1486" y="-203" font-family="Helvetica,sans-Serif" font-size="10.00" fill="#000000">fplll/enum/enumerate.cpp</text>
</a>
</g>
</g>
<!-- Node2&#45;&gt;Node31 -->
<g id="edge47" class="edge">
<title>Node2&#45;&gt;Node31</title>
<path fill="none" stroke="#191970" d="M1413.732,-257.0102C1431.891,-244.067 1457.2114,-226.0195 1472.5571,-215.0817"/>
<polygon fill="#191970" stroke="#191970" points="1411.5796,-254.2462 1405.4679,-262.9005 1415.6426,-259.9464 1411.5796,-254.2462"/>
</g>
<!-- Node32 -->
<g id="node33" class="node">
<title>Node32</title>
<g id="a_node33"><a xlink:href="svpcvp_8cpp.html" target="_top" xlink:title="fplll/svpcvp.cpp">
<polygon fill="#ffffff" stroke="#000000" points="1455.5,-129 1455.5,-148 1540.5,-148 1540.5,-129 1455.5,-129"/>
<text text-anchor="middle" x="1498" y="-136" font-family="Helvetica,sans-Serif" font-size="10.00" fill="#000000">fplll/svpcvp.cpp</text>
</a>
</g>
</g>
<!-- Node2&#45;&gt;Node32 -->
<g id="edge48" class="edge">
<title>Node2&#45;&gt;Node32</title>
<path fill="none" stroke="#191970" d="M1393.1595,-252.6932C1395.1009,-234.7621 1400.2698,-208.414 1414,-190 1428.7244,-170.2526 1453.4619,-156.4261 1472.289,-148.1077"/>
<polygon fill="#191970" stroke="#191970" points="1389.655,-252.6008 1392.306,-262.8585 1396.6305,-253.1865 1389.655,-252.6008"/>
</g>
<!-- Node3&#45;&gt;Node4 -->
<g id="edge4" class="edge">
<title>Node3&#45;&gt;Node4</title>
<path fill="none" stroke="#191970" d="M1307.2832,-186.3628C1312.7017,-173.8444 1319.5488,-158.0252 1323.8527,-148.0817"/>
<polygon fill="#191970" stroke="#191970" points="1303.9153,-185.333 1303.155,-195.9005 1310.3393,-188.1136 1303.9153,-185.333"/>
</g>
<!-- Node5 -->
<g id="node6" class="node">
<title>Node5</title>
<g id="a_node6"><a xlink:href="fplll_8h.html" target="_top" xlink:title="fplll/fplll.h">
<polygon fill="#ffffff" stroke="#000000" points="960,-129 960,-148 1018,-148 1018,-129 960,-129"/>
<text text-anchor="middle" x="989" y="-136" font-family="Helvetica,sans-Serif" font-size="10.00" fill="#000000">fplll/fplll.h</text>
</a>
</g>
</g>
<!-- Node3&#45;&gt;Node5 -->
<g id="edge5" class="edge">
<title>Node3&#45;&gt;Node5</title>
<path fill="none" stroke="#191970" d="M1259.2876,-196.917C1196.0766,-183.2553 1074.0281,-156.877 1018.1815,-144.807"/>
<polygon fill="#191970" stroke="#191970" points="1258.7622,-200.3842 1269.2759,-199.0758 1260.241,-193.5422 1258.7622,-200.3842"/>
</g>
<!-- Node6 -->
<g id="node7" class="node">
<title>Node6</title>
<g id="a_node7"><a xlink:href="fplll_8cpp.html" target="_top" xlink:title="fplll/fplll.cpp">
<polygon fill="#ffffff" stroke="#000000" points="1738,-62 1738,-81 1806,-81 1806,-62 1738,-62"/>
<text text-anchor="middle" x="1772" y="-69" font-family="Helvetica,sans-Serif" font-size="10.00" fill="#000000">fplll/fplll.cpp</text>
</a>
</g>
</g>
<!-- Node5&#45;&gt;Node6 -->
<g id="edge6" class="edge">
<title>Node5&#45;&gt;Node6</title>
<path fill="none" stroke="#191970" d="M1028.4488,-136.3941C1171.7991,-128.6537 1660.3084,-101.4778 1729,-87 1735.6778,-85.5926 1742.7217,-83.3815 1749.132,-81.0656"/>
<polygon fill="#191970" stroke="#191970" points="1028.1445,-132.9053 1018.3473,-136.9382 1028.5211,-139.8952 1028.1445,-132.9053"/>
</g>
<!-- Node7 -->
<g id="node8" class="node">
<title>Node7</title>
<g id="a_node8"><a xlink:href="main_8h.html" target="_top" xlink:title="fplll/main.h">
<polygon fill="#ffffff" stroke="#000000" points="1656,-62 1656,-81 1720,-81 1720,-62 1656,-62"/>
<text text-anchor="middle" x="1688" y="-69" font-family="Helvetica,sans-Serif" font-size="10.00" fill="#000000">fplll/main.h</text>
</a>
</g>
</g>
<!-- Node5&#45;&gt;Node7 -->
<g id="edge7" class="edge">
<title>Node5&#45;&gt;Node7</title>
<path fill="none" stroke="#191970" d="M1028.3865,-136.6676C1150.7921,-130.7722 1523.4598,-111.2584 1642,-87 1649.1003,-85.547 1656.6214,-83.321 1663.4792,-81.0053"/>
<polygon fill="#191970" stroke="#191970" points="1028.1554,-133.1745 1018.3339,-137.1481 1028.4897,-140.1665 1028.1554,-133.1745"/>
</g>
<!-- Node9 -->
<g id="node10" class="node">
<title>Node9</title>
<g id="a_node10"><a xlink:href="pruner_8cpp.html" target="_top" xlink:title="fplll/pruner/pruner.cpp">
<polygon fill="#ffffff" stroke="#000000" points="321,-.5 321,-19.5 431,-19.5 431,-.5 321,-.5"/>
<text text-anchor="middle" x="376" y="-7.5" font-family="Helvetica,sans-Serif" font-size="10.00" fill="#000000">fplll/pruner/pruner.cpp</text>
</a>
</g>
</g>
<!-- Node5&#45;&gt;Node9 -->
<g id="edge9" class="edge">
<title>Node5&#45;&gt;Node9</title>
<path fill="none" stroke="#191970" d="M949.6366,-136.3265C860.394,-130.956 645.3018,-115.3941 579,-87 558.9641,-78.4195 560.3521,-66.0279 541,-56 506.543,-38.1449 464.3389,-26.54 431.2402,-19.4529"/>
<polygon fill="#191970" stroke="#191970" points="949.6886,-139.8356 959.8775,-136.9311 950.1012,-132.8477 949.6886,-139.8356"/>
</g>
<!-- Node10 -->
<g id="node11" class="node">
<title>Node10</title>
<g id="a_node11"><a xlink:href="pruner__cost_8cpp.html" target="_top" xlink:title="fplll/pruner/pruner\l_cost.cpp">
<polygon fill="#ffffff" stroke="#000000" points="736,-56.5 736,-86.5 828,-86.5 828,-56.5 736,-56.5"/>
<text text-anchor="start" x="744" y="-74.5" font-family="Helvetica,sans-Serif" font-size="10.00" fill="#000000">fplll/pruner/pruner</text>
<text text-anchor="middle" x="782" y="-63.5" font-family="Helvetica,sans-Serif" font-size="10.00" fill="#000000">_cost.cpp</text>
</a>
</g>
</g>
<!-- Node5&#45;&gt;Node10 -->
<g id="edge10" class="edge">
<title>Node5&#45;&gt;Node10</title>
<path fill="none" stroke="#191970" d="M950.0339,-125.8878C915.4431,-114.6917 864.8502,-98.3162 828.2243,-86.4615"/>
<polygon fill="#191970" stroke="#191970" points="949.1891,-129.2931 959.781,-129.0426 951.3448,-122.6332 949.1891,-129.2931"/>
</g>
<!-- Node11 -->
<g id="node12" class="node">
<title>Node11</title>
<g id="a_node12"><a xlink:href="pruner__optimize_8cpp.html" target="_top" xlink:title="fplll/pruner/pruner\l_optimize.cpp">
<polygon fill="#ffffff" stroke="#000000" points="110,-56.5 110,-86.5 202,-86.5 202,-56.5 110,-56.5"/>
<text text-anchor="start" x="118" y="-74.5" font-family="Helvetica,sans-Serif" font-size="10.00" fill="#000000">fplll/pruner/pruner</text>
<text text-anchor="middle" x="156" y="-63.5" font-family="Helvetica,sans-Serif" font-size="10.00" fill="#000000">_optimize.cpp</text>
</a>
</g>
</g>
<!-- Node5&#45;&gt;Node11 -->
<g id="edge12" class="edge">
<title>Node5&#45;&gt;Node11</title>
<path fill="none" stroke="#191970" d="M949.6667,-136.9829C812.4516,-131.5209 355.4818,-111.8603 211,-87 208.0669,-86.4953 205.066,-85.8961 202.0534,-85.2313"/>
<polygon fill="#191970" stroke="#191970" points="949.5982,-140.4828 959.7287,-137.3807 949.8748,-133.4883 949.5982,-140.4828"/>
</g>
<!-- Node12 -->
<g id="node13" class="node">
<title>Node12</title>
<g id="a_node13"><a xlink:href="pruner__optimize__tc_8cpp.html" target="_top" xlink:title="fplll/pruner/pruner\l_optimize_tc.cpp">
<polygon fill="#ffffff" stroke="#000000" points="220,-56.5 220,-86.5 312,-86.5 312,-56.5 220,-56.5"/>
<text text-anchor="start" x="228" y="-74.5" font-family="Helvetica,sans-Serif" font-size="10.00" fill="#000000">fplll/pruner/pruner</text>
<text text-anchor="middle" x="266" y="-63.5" font-family="Helvetica,sans-Serif" font-size="10.00" fill="#000000">_optimize_tc.cpp</text>
</a>
</g>
</g>
<!-- Node5&#45;&gt;Node12 -->
<g id="edge14" class="edge">
<title>Node5&#45;&gt;Node12</title>
<path fill="none" stroke="#191970" d="M949.6117,-136.4891C825.4303,-129.9879 443.1296,-108.6967 321,-87 318.0697,-86.4794 315.0709,-85.868 312.0599,-85.1942"/>
<polygon fill="#191970" stroke="#191970" points="949.6307,-139.9948 959.7991,-137.0195 949.9947,-133.0042 949.6307,-139.9948"/>
</g>
<!-- Node13 -->
<g id="node14" class="node">
<title>Node13</title>
<g id="a_node14"><a xlink:href="pruner__optimize__tp_8cpp.html" target="_top" xlink:title="fplll/pruner/pruner\l_optimize_tp.cpp">
<polygon fill="#ffffff" stroke="#000000" points="0,-56.5 0,-86.5 92,-86.5 92,-56.5 0,-56.5"/>
<text text-anchor="start" x="8" y="-74.5" font-family="Helvetica,sans-Serif" font-size="10.00" fill="#000000">fplll/pruner/pruner</text>
<text text-anchor="middle" x="46" y="-63.5" font-family="Helvetica,sans-Serif" font-size="10.00" fill="#000000">_optimize_tp.cpp</text>
</a>
</g>
</g>
<!-- Node5&#45;&gt;Node13 -->
<g id="edge16" class="edge">
<title>Node5&#45;&gt;Node13</title>
<path fill="none" stroke="#191970" d="M949.6522,-137.3527C800.2237,-132.8196 267.9444,-115.0238 101,-87 98.0649,-86.5073 95.0624,-85.9172 92.0486,-85.2594"/>
<polygon fill="#191970" stroke="#191970" points="949.6384,-140.8538 959.7392,-137.6561 949.849,-133.8569 949.6384,-140.8538"/>
</g>
<!-- Node14 -->
<g id="node15" class="node">
<title>Node14</title>
<g id="a_node15"><a xlink:href="pruner__prob_8cpp.html" target="_top" xlink:title="fplll/pruner/pruner\l_prob.cpp">
<polygon fill="#ffffff" stroke="#000000" points="330,-56.5 330,-86.5 422,-86.5 422,-56.5 330,-56.5"/>
<text text-anchor="start" x="338" y="-74.5" font-family="Helvetica,sans-Serif" font-size="10.00" fill="#000000">fplll/pruner/pruner</text>
<text text-anchor="middle" x="376" y="-63.5" font-family="Helvetica,sans-Serif" font-size="10.00" fill="#000000">_prob.cpp</text>
</a>
</g>
</g>
<!-- Node5&#45;&gt;Node14 -->
<g id="edge18" class="edge">
<title>Node5&#45;&gt;Node14</title>
<path fill="none" stroke="#191970" d="M949.8065,-137.341C858.2598,-134.1007 623.5365,-122.7052 431,-87 428.0737,-86.4573 425.078,-85.829 422.0693,-85.1425"/>
<polygon fill="#191970" stroke="#191970" points="949.8822,-140.8455 959.9957,-137.6885 950.1208,-133.8496 949.8822,-140.8455"/>
</g>
<!-- Node15 -->
<g id="node16" class="node">
<title>Node15</title>
<g id="a_node16"><a xlink:href="pruner__util_8cpp.html" target="_top" xlink:title="fplll/pruner/pruner\l_util.cpp">
<polygon fill="#ffffff" stroke="#000000" points="440,-56.5 440,-86.5 532,-86.5 532,-56.5 440,-56.5"/>
<text text-anchor="start" x="448" y="-74.5" font-family="Helvetica,sans-Serif" font-size="10.00" fill="#000000">fplll/pruner/pruner</text>
<text text-anchor="middle" x="486" y="-63.5" font-family="Helvetica,sans-Serif" font-size="10.00" fill="#000000">_util.cpp</text>
</a>
</g>
</g>
<!-- Node5&#45;&gt;Node15 -->
<g id="edge20" class="edge">
<title>Node5&#45;&gt;Node15</title>
<path fill="none" stroke="#191970" d="M949.4747,-135.7333C871.7131,-129.8878 693.576,-114.5058 546,-87 541.4521,-86.1523 536.7392,-85.1521 532.0451,-84.0745"/>
<polygon fill="#191970" stroke="#191970" points="949.5363,-139.2473 959.7674,-136.495 950.053,-132.2664 949.5363,-139.2473"/>
</g>
<!-- Node16 -->
<g id="node17" class="node">
<title>Node16</title>
<g id="a_node17"><a xlink:href="sieve__main_8cpp.html" target="_top" xlink:title="fplll/sieve/sieve_main.cpp">
<polygon fill="#ffffff" stroke="#000000" points="588.5,-62 588.5,-81 717.5,-81 717.5,-62 588.5,-62"/>
<text text-anchor="middle" x="653" y="-69" font-family="Helvetica,sans-Serif" font-size="10.00" fill="#000000">fplll/sieve/sieve_main.cpp</text>
</a>
</g>
</g>
<!-- Node5&#45;&gt;Node16 -->
<g id="edge22" class="edge">
<title>Node5&#45;&gt;Node16</title>
<path fill="none" stroke="#191970" d="M949.9185,-130.9746C898.6901,-121.0743 806.0533,-103.0481 727,-87 717.6095,-85.0937 707.5573,-83.0142 697.9844,-81.0153"/>
<polygon fill="#191970" stroke="#191970" points="949.4165,-134.4422 959.8988,-132.9018 950.7438,-127.5692 949.4165,-134.4422"/>
</g>
<!-- Node17 -->
<g id="node18" class="node">
<title>Node17</title>
<g id="a_node18"><a xlink:href="test__bkz_8cpp.html" target="_top" xlink:title="tests/test_bkz.cpp">
<polygon fill="#ffffff" stroke="#000000" points="477,-.5 477,-19.5 575,-19.5 575,-.5 477,-.5"/>
<text text-anchor="middle" x="526" y="-7.5" font-family="Helvetica,sans-Serif" font-size="10.00" fill="#000000">tests/test_bkz.cpp</text>
</a>
</g>
</g>
<!-- Node5&#45;&gt;Node17 -->
<g id="edge23" class="edge">
<title>Node5&#45;&gt;Node17</title>
<path fill="none" stroke="#191970" d="M950.1585,-125.5863C926.0312,-116.6419 894.9689,-103.4052 870,-87 853.1821,-75.9502 855.1394,-64.7121 837,-56 734.619,-6.828 696.1972,-37.6507 584,-20 581.0728,-19.5395 578.0645,-19.055 575.031,-18.5578"/>
<polygon fill="#191970" stroke="#191970" points="949.1078,-128.9281 959.7021,-129.0359 951.4874,-122.3449 949.1078,-128.9281"/>
</g>
<!-- Node18 -->
<g id="node19" class="node">
<title>Node18</title>
<g id="a_node19"><a xlink:href="test__bkz__gram_8cpp.html" target="_top" xlink:title="tests/test_bkz_gram.cpp">
<polygon fill="#ffffff" stroke="#000000" points="593.5,-.5 593.5,-19.5 718.5,-19.5 718.5,-.5 593.5,-.5"/>
<text text-anchor="middle" x="656" y="-7.5" font-family="Helvetica,sans-Serif" font-size="10.00" fill="#000000">tests/test_bkz_gram.cpp</text>
</a>
</g>
</g>
<!-- Node5&#45;&gt;Node18 -->
<g id="edge24" class="edge">
<title>Node5&#45;&gt;Node18</title>
<path fill="none" stroke="#191970" d="M963.8936,-123.5945C947.6357,-113.6865 926.1839,-100.128 908,-87 890.3283,-74.2418 889.6449,-65.4415 870,-56 843.1129,-43.0779 768.7162,-28.7043 715.1959,-19.5198"/>
<polygon fill="#191970" stroke="#191970" points="962.4325,-126.8009 972.8018,-128.9754 966.0518,-120.8091 962.4325,-126.8009"/>
</g>
<!-- Node19 -->
<g id="node20" class="node">
<title>Node19</title>
<g id="a_node20"><a xlink:href="test__cvp_8cpp.html" target="_top" xlink:title="tests/test_cvp.cpp">
<polygon fill="#ffffff" stroke="#000000" points="737,-.5 737,-19.5 835,-19.5 835,-.5 737,-.5"/>
<text text-anchor="middle" x="786" y="-7.5" font-family="Helvetica,sans-Serif" font-size="10.00" fill="#000000">tests/test_cvp.cpp</text>
</a>
</g>
</g>
<!-- Node5&#45;&gt;Node19 -->
<g id="edge25" class="edge">
<title>Node5&#45;&gt;Node19</title>
<path fill="none" stroke="#191970" d="M975.392,-120.6237C960.5742,-102.223 935.3136,-73.8003 908,-56 881.924,-39.0063 848.664,-26.9972 823.4597,-19.5205"/>
<polygon fill="#191970" stroke="#191970" points="972.8581,-123.0637 981.7906,-128.7613 978.3608,-118.737 972.8581,-123.0637"/>
</g>
<!-- Node20 -->
<g id="node21" class="node">
<title>Node20</title>
<g id="a_node21"><a xlink:href="test__enum_8cpp.html" target="_top" xlink:title="tests/test_enum.cpp">
<polygon fill="#ffffff" stroke="#000000" points="1258,-62 1258,-81 1364,-81 1364,-62 1258,-62"/>
<text text-anchor="middle" x="1311" y="-69" font-family="Helvetica,sans-Serif" font-size="10.00" fill="#000000">tests/test_enum.cpp</text>
</a>
</g>
</g>
<!-- Node5&#45;&gt;Node20 -->
<g id="edge26" class="edge">
<title>Node5&#45;&gt;Node20</title>
<path fill="none" stroke="#191970" d="M1028.2,-130.9377C1078.3246,-121.1865 1167.7619,-103.5137 1244,-87 1252.6347,-85.1297 1261.8758,-83.0455 1270.6513,-81.0273"/>
<polygon fill="#191970" stroke="#191970" points="1027.2691,-127.553 1018.1196,-132.895 1028.6034,-134.4247 1027.2691,-127.553"/>
</g>
<!-- Node21 -->
<g id="node22" class="node">
<title>Node21</title>
<g id="a_node22"><a xlink:href="test__hlll_8cpp.html" target="_top" xlink:title="tests/test_hlll.cpp">
<polygon fill="#ffffff" stroke="#000000" points="853,-.5 853,-19.5 947,-19.5 947,-.5 853,-.5"/>
<text text-anchor="middle" x="900" y="-7.5" font-family="Helvetica,sans-Serif" font-size="10.00" fill="#000000">tests/test_hlll.cpp</text>
</a>
</g>
</g>
<!-- Node5&#45;&gt;Node21 -->
<g id="edge27" class="edge">
<title>Node5&#45;&gt;Node21</title>
<path fill="none" stroke="#191970" d="M980.9726,-119.2076C973.2903,-101.847 960.7161,-76.0595 946,-56 935.8455,-42.1584 921.5327,-28.5369 911.5794,-19.7538"/>
<polygon fill="#191970" stroke="#191970" points="977.9326,-120.9981 985.0991,-128.8015 984.363,-118.2323 977.9326,-120.9981"/>
</g>
<!-- Node22 -->
<g id="node23" class="node">
<title>Node22</title>
<g id="a_node23"><a xlink:href="test__lll_8cpp.html" target="_top" xlink:title="tests/test_lll.cpp">
<polygon fill="#ffffff" stroke="#000000" points="965.5,-.5 965.5,-19.5 1054.5,-19.5 1054.5,-.5 965.5,-.5"/>
<text text-anchor="middle" x="1010" y="-7.5" font-family="Helvetica,sans-Serif" font-size="10.00" fill="#000000">tests/test_lll.cpp</text>
</a>
</g>
</g>
<!-- Node5&#45;&gt;Node22 -->
<g id="edge28" class="edge">
<title>Node5&#45;&gt;Node22</title>
<path fill="none" stroke="#191970" d="M992.2402,-118.6733C996.8078,-90.7236 1004.9659,-40.8037 1008.4033,-19.7705"/>
<polygon fill="#191970" stroke="#191970" points="988.7372,-118.408 990.5784,-128.8416 995.6455,-119.5371 988.7372,-118.408"/>
</g>
<!-- Node23 -->
<g id="node24" class="node">
<title>Node23</title>
<g id="a_node24"><a xlink:href="test__lll__gram_8cpp.html" target="_top" xlink:title="tests/test_lll_gram.cpp">
<polygon fill="#ffffff" stroke="#000000" points="1188,-.5 1188,-19.5 1304,-19.5 1304,-.5 1188,-.5"/>
<text text-anchor="middle" x="1246" y="-7.5" font-family="Helvetica,sans-Serif" font-size="10.00" fill="#000000">tests/test_lll_gram.cpp</text>
</a>
</g>
</g>
<!-- Node5&#45;&gt;Node23 -->
<g id="edge29" class="edge">
<title>Node5&#45;&gt;Node23</title>
<path fill="none" stroke="#191970" d="M1027.6777,-127.9084C1057.5917,-118.9789 1099.5743,-104.8141 1134,-87 1155.2457,-76.0061 1158.3144,-69.5913 1178,-56 1196.4147,-43.2862 1217.8184,-28.8654 1231.6188,-19.6132"/>
<polygon fill="#191970" stroke="#191970" points="1026.6384,-124.5657 1018.024,-130.7336 1028.6046,-131.2839 1026.6384,-124.5657"/>
</g>
<!-- Node24 -->
<g id="node25" class="node">
<title>Node24</title>
<g id="a_node25"><a xlink:href="test__nr_8cpp.html" target="_top" xlink:title="tests/test_nr.cpp">
<polygon fill="#ffffff" stroke="#000000" points="1382,-62 1382,-81 1472,-81 1472,-62 1382,-62"/>
<text text-anchor="middle" x="1427" y="-69" font-family="Helvetica,sans-Serif" font-size="10.00" fill="#000000">tests/test_nr.cpp</text>
</a>
</g>
</g>
<!-- Node5&#45;&gt;Node24 -->
<g id="edge30" class="edge">
<title>Node5&#45;&gt;Node24</title>
<path fill="none" stroke="#191970" d="M1028.2573,-135.1467C1098.1167,-128.7561 1248.3843,-113.0949 1373,-87 1380.7327,-85.3808 1388.9781,-83.2344 1396.6377,-81.0567"/>
<polygon fill="#191970" stroke="#191970" points="1027.7941,-131.6742 1018.1487,-136.0578 1028.4225,-138.6459 1027.7941,-131.6742"/>
</g>
<!-- Node25 -->
<g id="node26" class="node">
<title>Node25</title>
<g id="a_node26"><a xlink:href="test__pruner_8cpp.html" target="_top" xlink:title="tests/test_pruner.cpp">
<polygon fill="#ffffff" stroke="#000000" points="1490.5,-62 1490.5,-81 1599.5,-81 1599.5,-62 1490.5,-62"/>
<text text-anchor="middle" x="1545" y="-69" font-family="Helvetica,sans-Serif" font-size="10.00" fill="#000000">tests/test_pruner.cpp</text>
</a>
</g>
</g>
<!-- Node5&#45;&gt;Node25 -->
<g id="edge31" class="edge">
<title>Node5&#45;&gt;Node25</title>
<path fill="none" stroke="#191970" d="M1028.0844,-136.1859C1111.6721,-130.848 1313.81,-115.8635 1481,-87 1490.2379,-85.4052 1500.1241,-83.2418 1509.2956,-81.0376"/>
<polygon fill="#191970" stroke="#191970" points="1027.7826,-132.6978 1018.0218,-136.8181 1028.2217,-139.684 1027.7826,-132.6978"/>
</g>
<!-- Node26 -->
<g id="node27" class="node">
<title>Node26</title>
<g id="a_node27"><a xlink:href="test__sieve_8cpp.html" target="_top" xlink:title="tests/test_sieve.cpp">
<polygon fill="#ffffff" stroke="#000000" points="1322.5,-.5 1322.5,-19.5 1427.5,-19.5 1427.5,-.5 1322.5,-.5"/>
<text text-anchor="middle" x="1375" y="-7.5" font-family="Helvetica,sans-Serif" font-size="10.00" fill="#000000">tests/test_sieve.cpp</text>
</a>
</g>
</g>
<!-- Node5&#45;&gt;Node26 -->
<g id="edge32" class="edge">
<title>Node5&#45;&gt;Node26</title>
<path fill="none" stroke="#191970" d="M1028.2448,-131.0845C1065.7873,-123.1321 1123.4211,-108.6504 1170,-87 1192.3566,-76.6084 1193.6664,-66.4409 1216,-56 1252.0542,-39.1447 1295.6356,-27.0632 1328.0465,-19.5237"/>
<polygon fill="#191970" stroke="#191970" points="1027.3006,-127.7056 1018.2146,-133.1549 1028.7157,-134.561 1027.3006,-127.7056"/>
</g>
<!-- Node27 -->
<g id="node28" class="node">
<title>Node27</title>
<g id="a_node28"><a xlink:href="test__svp_8cpp.html" target="_top" xlink:title="tests/test_svp.cpp">
<polygon fill="#ffffff" stroke="#000000" points="1446,-.5 1446,-19.5 1544,-19.5 1544,-.5 1446,-.5"/>
<text text-anchor="middle" x="1495" y="-7.5" font-family="Helvetica,sans-Serif" font-size="10.00" fill="#000000">tests/test_svp.cpp</text>
</a>
</g>
</g>
<!-- Node5&#45;&gt;Node27 -->
<g id="edge33" class="edge">
<title>Node5&#45;&gt;Node27</title>
<path fill="none" stroke="#191970" d="M1028.2754,-134.0662C1073.1648,-127.9178 1148.0374,-114.3212 1207,-87 1228.0506,-77.2459 1227.7254,-65.2554 1249,-56 1257.9893,-52.0893 1376.5975,-30.8251 1445.776,-18.6227"/>
<polygon fill="#191970" stroke="#191970" points="1027.5403,-130.6326 1018.081,-135.4045 1028.4515,-137.573 1027.5403,-130.6326"/>
</g>
<!-- Node28 -->
<g id="node29" class="node">
<title>Node28</title>
<g id="a_node29"><a xlink:href="test__svp__gram_8cpp.html" target="_top" xlink:title="tests/test_svp_gram.cpp">
<polygon fill="#ffffff" stroke="#000000" points="1562.5,-.5 1562.5,-19.5 1687.5,-19.5 1687.5,-.5 1562.5,-.5"/>
<text text-anchor="middle" x="1625" y="-7.5" font-family="Helvetica,sans-Serif" font-size="10.00" fill="#000000">tests/test_svp_gram.cpp</text>
</a>
</g>
</g>
<!-- Node5&#45;&gt;Node28 -->
<g id="edge34" class="edge">
<title>Node5&#45;&gt;Node28</title>
<path fill="none" stroke="#191970" d="M1028.1871,-136.515C1160.8561,-129.6301 1586.0869,-106.1517 1608,-87 1627.482,-69.973 1627.4636,-36.1179 1626.1195,-19.5631"/>
<polygon fill="#191970" stroke="#191970" points="1027.8724,-133.0265 1018.0661,-137.0375 1028.2333,-140.0172 1027.8724,-133.0265"/>
</g>
<!-- Node29 -->
<g id="node30" class="node">
<title>Node29</title>
<g id="a_node30"><a xlink:href="test__utils_8h.html" target="_top" xlink:title="tests/test_utils.h">
<polygon fill="#ffffff" stroke="#000000" points="1036.5,-62 1036.5,-81 1125.5,-81 1125.5,-62 1036.5,-62"/>
<text text-anchor="middle" x="1081" y="-69" font-family="Helvetica,sans-Serif" font-size="10.00" fill="#000000">tests/test_utils.h</text>
</a>
</g>
</g>
<!-- Node5&#45;&gt;Node29 -->
<g id="edge35" class="edge">
<title>Node5&#45;&gt;Node29</title>
<path fill="none" stroke="#191970" d="M1010.2696,-123.0102C1028.0423,-110.067 1052.8239,-92.0195 1067.8431,-81.0817"/>
<polygon fill="#191970" stroke="#191970" points="1008.2045,-120.1843 1002.1814,-128.9005 1012.3254,-125.8428 1008.2045,-120.1843"/>
</g>
<!-- Node8 -->
<g id="node9" class="node">
<title>Node8</title>
<g id="a_node9"><a xlink:href="main_8cpp.html" target="_top" xlink:title="fplll/main.cpp">
<polygon fill="#ffffff" stroke="#000000" points="1706,-.5 1706,-19.5 1780,-19.5 1780,-.5 1706,-.5"/>
<text text-anchor="middle" x="1743" y="-7.5" font-family="Helvetica,sans-Serif" font-size="10.00" fill="#000000">fplll/main.cpp</text>
</a>
</g>
</g>
<!-- Node7&#45;&gt;Node8 -->
<g id="edge8" class="edge">
<title>Node7&#45;&gt;Node8</title>
<path fill="none" stroke="#191970" d="M1703.292,-54.4007C1713.285,-43.2268 1725.9763,-29.0356 1734.2851,-19.7449"/>
<polygon fill="#191970" stroke="#191970" points="1700.6511,-52.1034 1696.5938,-61.8906 1705.8689,-56.7698 1700.6511,-52.1034"/>
</g>
<!-- Node10&#45;&gt;Node9 -->
<g id="edge11" class="edge">
<title>Node10&#45;&gt;Node9</title>
<path fill="none" stroke="#191970" d="M726.3061,-56.0624C726.204,-56.0415 726.1019,-56.0207 726,-56 670.8945,-44.8093 514.9587,-26.0268 431.0553,-16.2859"/>
<polygon fill="#191970" stroke="#191970" points="725.4567,-59.4589 735.9782,-58.2144 726.9771,-52.626 725.4567,-59.4589"/>
</g>
<!-- Node11&#45;&gt;Node9 -->
<g id="edge13" class="edge">
<title>Node11&#45;&gt;Node9</title>
<path fill="none" stroke="#191970" d="M211.9754,-55.7302C262.3352,-41.622 310.1815,-28.2982 341.5457,-19.5751"/>
<polygon fill="#191970" stroke="#191970" points="210.8953,-52.398 202.2108,-58.4668 212.7844,-59.1383 210.8953,-52.398"/>
</g>
<!-- Node12&#45;&gt;Node9 -->
<g id="edge15" class="edge">
<title>Node12&#45;&gt;Node9</title>
<path fill="none" stroke="#191970" d="M301.7204,-51.5291C320.9284,-40.79 343.7281,-28.0429 358.9539,-19.5303"/>
<polygon fill="#191970" stroke="#191970" points="299.9295,-48.5204 292.909,-56.4554 303.3455,-54.6303 299.9295,-48.5204"/>
</g>
<!-- Node13&#45;&gt;Node9 -->
<g id="edge17" class="edge">
<title>Node13&#45;&gt;Node9</title>
<path fill="none" stroke="#191970" d="M102.0346,-55.9032C183.446,-38.0172 267.2851,-25.033 320.8735,-17.4173"/>
<polygon fill="#191970" stroke="#191970" points="101.122,-52.5206 92.1206,-58.1087 102.6421,-59.3536 101.122,-52.5206"/>
</g>
<!-- Node14&#45;&gt;Node9 -->
<g id="edge19" class="edge">
<title>Node14&#45;&gt;Node9</title>
<path fill="none" stroke="#191970" d="M376,-46.2849C376,-36.9858 376,-26.9883 376,-19.8469"/>
<polygon fill="#191970" stroke="#191970" points="372.5001,-46.2977 376,-56.2977 379.5001,-46.2978 372.5001,-46.2977"/>
</g>
<!-- Node15&#45;&gt;Node9 -->
<g id="edge21" class="edge">
<title>Node15&#45;&gt;Node9</title>
<path fill="none" stroke="#191970" d="M450.2796,-51.5291C431.0716,-40.79 408.2719,-28.0429 393.0461,-19.5303"/>
<polygon fill="#191970" stroke="#191970" points="448.6545,-54.6303 459.091,-56.4554 452.0705,-48.5204 448.6545,-54.6303"/>
</g>
<!-- Node29&#45;&gt;Node17 -->
<g id="edge36" class="edge">
<title>Node29&#45;&gt;Node17</title>
<path fill="none" stroke="#191970" d="M1026.1673,-67.0365C934.4261,-59.2958 744.1116,-42.0726 584,-20 581.0645,-19.5953 578.0498,-19.154 575.0116,-18.6895"/>
<polygon fill="#191970" stroke="#191970" points="1026.07,-70.5405 1036.3277,-67.8889 1026.6553,-63.565 1026.07,-70.5405"/>
</g>
<!-- Node29&#45;&gt;Node18 -->
<g id="edge37" class="edge">
<title>Node29&#45;&gt;Node18</title>
<path fill="none" stroke="#191970" d="M1026.0883,-63.554C947.0523,-52.117 801.6205,-31.0721 718.5443,-19.0505"/>
<polygon fill="#191970" stroke="#191970" points="1025.9226,-67.0664 1036.3208,-65.0347 1026.9252,-60.1385 1025.9226,-67.0664"/>
</g>
<!-- Node29&#45;&gt;Node19 -->
<g id="edge38" class="edge">
<title>Node29&#45;&gt;Node19</title>
<path fill="none" stroke="#191970" d="M1026.0994,-60.0546C970.0833,-48.3767 884.1484,-30.4614 831.712,-19.5298"/>
<polygon fill="#191970" stroke="#191970" points="1025.692,-63.5449 1036.1958,-62.1595 1027.1207,-56.6922 1025.692,-63.5449"/>
</g>
<!-- Node29&#45;&gt;Node21 -->
<g id="edge40" class="edge">
<title>Node29&#45;&gt;Node21</title>
<path fill="none" stroke="#191970" d="M1043.0367,-58.6009C1008.7076,-46.9366 958.9507,-30.0302 928.0827,-19.5419"/>
<polygon fill="#191970" stroke="#191970" points="1042.1244,-61.9873 1052.7188,-61.8906 1044.3764,-55.3595 1042.1244,-61.9873"/>
</g>
<!-- Node29&#45;&gt;Node22 -->
<g id="edge41" class="edge">
<title>Node29&#45;&gt;Node22</title>
<path fill="none" stroke="#191970" d="M1062.0068,-55.0482C1048.9978,-43.7798 1032.1843,-29.216 1021.2502,-19.7449"/>
<polygon fill="#191970" stroke="#191970" points="1060.056,-57.9888 1069.9063,-61.8906 1064.6391,-52.6978 1060.056,-57.9888"/>
</g>
<!-- Node29&#45;&gt;Node23 -->
<g id="edge42" class="edge">
<title>Node29&#45;&gt;Node23</title>
<path fill="none" stroke="#191970" d="M1116.4164,-58.2993C1147.6793,-46.6468 1192.502,-29.9402 1220.3998,-19.5419"/>
<polygon fill="#191970" stroke="#191970" points="1114.9291,-55.1184 1106.7813,-61.8906 1117.3739,-61.6776 1114.9291,-55.1184"/>
</g>
<!-- Node29&#45;&gt;Node26 -->
<g id="edge43" class="edge">
<title>Node29&#45;&gt;Node26</title>
<path fill="none" stroke="#191970" d="M1135.7145,-60.0546C1191.5407,-48.3767 1277.1843,-30.4614 1329.443,-19.5298"/>
<polygon fill="#191970" stroke="#191970" points="1134.7238,-56.686 1125.6523,-62.1595 1136.1571,-63.5377 1134.7238,-56.686"/>
</g>
<!-- Node29&#45;&gt;Node27 -->
<g id="edge44" class="edge">
<title>Node29&#45;&gt;Node27</title>
<path fill="none" stroke="#191970" d="M1135.9164,-63.9468C1205.7293,-54.2497 1329.9378,-36.6791 1436,-20 1439.1815,-19.4997 1442.4577,-18.9739 1445.7589,-18.4361"/>
<polygon fill="#191970" stroke="#191970" points="1135.0292,-60.5363 1125.6047,-65.3768 1135.9907,-67.4699 1135.0292,-60.5363"/>
</g>
<!-- Node29&#45;&gt;Node28 -->
<g id="edge45" class="edge">
<title>Node29&#45;&gt;Node28</title>
<path fill="none" stroke="#191970" d="M1135.6459,-66.0632C1223.6314,-57.191 1402.114,-38.7057 1553,-20 1556.0058,-19.6274 1559.0808,-19.2367 1562.1856,-18.8347"/>
<polygon fill="#191970" stroke="#191970" points="1135.227,-62.5875 1125.6277,-67.0712 1135.9279,-69.5524 1135.227,-62.5875"/>
</g>
<!-- Node30 -->
<g id="node31" class="node">
<title>Node30</title>
<g id="a_node31"><a xlink:href="test__gso_8cpp.html" target="_top" xlink:title="tests/test_gso.cpp">
<polygon fill="#ffffff" stroke="#000000" points="1072,-.5 1072,-19.5 1170,-19.5 1170,-.5 1072,-.5"/>
<text text-anchor="middle" x="1121" y="-7.5" font-family="Helvetica,sans-Serif" font-size="10.00" fill="#000000">tests/test_gso.cpp</text>
</a>
</g>
</g>
<!-- Node29&#45;&gt;Node30 -->
<g id="edge39" class="edge">
<title>Node29&#45;&gt;Node30</title>
<path fill="none" stroke="#191970" d="M1092.7614,-53.4169C1099.924,-42.4043 1108.7951,-28.765 1114.6619,-19.7449"/>
<polygon fill="#191970" stroke="#191970" points="1089.7683,-51.5994 1087.25,-61.8906 1095.6363,-55.416 1089.7683,-51.5994"/>
</g>
<!-- Node32&#45;&gt;Node6 -->
<g id="edge49" class="edge">
<title>Node32&#45;&gt;Node6</title>
<path fill="none" stroke="#191970" d="M1550.5383,-128.7593C1597.6729,-119.5548 1668.5284,-104.5633 1729,-87 1734.944,-85.2736 1741.2578,-83.1603 1747.1642,-81.0561"/>
<polygon fill="#191970" stroke="#191970" points="1549.7121,-125.3541 1540.5594,-130.6907 1551.0423,-132.2266 1549.7121,-125.3541"/>
</g>
<!-- Node35 -->
<g id="node36" class="node">
<title>Node35</title>
<g id="a_node36"><a xlink:href="enumeration_8h.html" target="_top" xlink:title="fplll/enum&#45;parallel\l/enumeration.h">
<polygon fill="#ffffff" stroke="#000000" points="1605,-190.5 1605,-220.5 1697,-220.5 1697,-190.5 1605,-190.5"/>
<text text-anchor="start" x="1613" y="-208.5" font-family="Helvetica,sans-Serif" font-size="10.00" fill="#000000">fplll/enum&#45;parallel</text>
<text text-anchor="middle" x="1651" y="-197.5" font-family="Helvetica,sans-Serif" font-size="10.00" fill="#000000">/enumeration.h</text>
</a>
</g>
</g>
<!-- Node34&#45;&gt;Node35 -->
<g id="edge52" class="edge">
<title>Node34&#45;&gt;Node35</title>
<path fill="none" stroke="#191970" d="M1647.2551,-247.3179C1648.059,-238.3414 1648.939,-228.5143 1649.6439,-220.6432"/>
<polygon fill="#191970" stroke="#191970" points="1643.7675,-247.0243 1646.3615,-257.2967 1650.7396,-247.6487 1643.7675,-247.0243"/>
</g>
<!-- Node36 -->
<g id="node37" class="node">
<title>Node36</title>
<g id="a_node37"><a xlink:href="enumlib_8cpp.html" target="_top" xlink:title="fplll/enum&#45;parallel\l/enumlib.cpp">
<polygon fill="#ffffff" stroke="#000000" points="1605,-123.5 1605,-153.5 1697,-153.5 1697,-123.5 1605,-123.5"/>
<text text-anchor="start" x="1613" y="-141.5" font-family="Helvetica,sans-Serif" font-size="10.00" fill="#000000">fplll/enum&#45;parallel</text>
<text text-anchor="middle" x="1651" y="-130.5" font-family="Helvetica,sans-Serif" font-size="10.00" fill="#000000">/enumlib.cpp</text>
</a>
</g>
</g>
<!-- Node34&#45;&gt;Node36 -->
<g id="edge56" class="edge">
<title>Node34&#45;&gt;Node36</title>
<path fill="none" stroke="#191970" d="M1616.7783,-250.3071C1608.4656,-242.0915 1600.4189,-232.0551 1596,-221 1590.8862,-208.2064 1590.5191,-202.6407 1596,-190 1602.4527,-175.1181 1615.5584,-162.5701 1627.3581,-153.5867"/>
<polygon fill="#191970" stroke="#191970" points="1614.6638,-253.1178 1624.3909,-257.3171 1619.4056,-247.9684 1614.6638,-253.1178"/>
</g>
<!-- Node37 -->
<g id="node38" class="node">
<title>Node37</title>
<g id="a_node38"><a xlink:href="enumlib_8h.html" target="_top" xlink:title="fplll/enum&#45;parallel\l/enumlib.h">
<polygon fill="#ffffff" stroke="#000000" points="1715,-190.5 1715,-220.5 1807,-220.5 1807,-190.5 1715,-190.5"/>
<text text-anchor="start" x="1723" y="-208.5" font-family="Helvetica,sans-Serif" font-size="10.00" fill="#000000">fplll/enum&#45;parallel</text>
<text text-anchor="middle" x="1761" y="-197.5" font-family="Helvetica,sans-Serif" font-size="10.00" fill="#000000">/enumlib.h</text>
</a>
</g>
</g>
<!-- Node34&#45;&gt;Node37 -->
<g id="edge54" class="edge">
<title>Node34&#45;&gt;Node37</title>
<path fill="none" stroke="#191970" d="M1679.876,-252.3561C1697.4605,-242.1995 1718.4362,-230.0843 1734.6529,-220.7177"/>
<polygon fill="#191970" stroke="#191970" points="1677.9415,-249.4315 1671.0327,-257.4639 1681.4426,-255.4931 1677.9415,-249.4315"/>
</g>
<!-- Node35&#45;&gt;Node36 -->
<g id="edge53" class="edge">
<title>Node35&#45;&gt;Node36</title>
<path fill="none" stroke="#191970" d="M1651,-180.0249C1651,-171.128 1651,-161.4287 1651,-153.6432"/>
<polygon fill="#191970" stroke="#191970" points="1647.5001,-180.2966 1651,-190.2967 1654.5001,-180.2967 1647.5001,-180.2966"/>
</g>
<!-- Node37&#45;&gt;Node36 -->
<g id="edge55" class="edge">
<title>Node37&#45;&gt;Node36</title>
<path fill="none" stroke="#191970" d="M1727.4682,-185.0761C1710.8883,-174.9774 1691.2212,-162.9983 1675.9843,-153.7177"/>
<polygon fill="#191970" stroke="#191970" points="1725.9527,-188.2511 1736.3139,-190.4639 1729.594,-182.2727 1725.9527,-188.2511"/>
</g>
</g>
</svg>
