<?xml version="1.0" encoding="UTF-8" standalone="no"?>
<!DOCTYPE svg PUBLIC "-//W3C//DTD SVG 1.1//EN"
 "http://www.w3.org/Graphics/SVG/1.1/DTD/svg11.dtd">
<!-- Generated by graphviz version 2.38.0 (20140413.2041)
 -->
<!-- Title: fplll/enum/evaluator.h Pages: 1 -->
<svg width="1011pt" height="308pt"
 viewBox="0.00 0.00 1010.50 308.00" xmlns="http://www.w3.org/2000/svg" xmlns:xlink="http://www.w3.org/1999/xlink">
<g id="graph0" class="graph" transform="scale(1 1) rotate(0) translate(4 304)">
<title>fplll/enum/evaluator.h</title>
<polygon fill="white" stroke="none" points="-4,4 -4,-304 1006.5,-304 1006.5,4 -4,4"/>
<!-- Node1 -->
<g id="node1" class="node"><title>Node1</title>
<polygon fill="#bfbfbf" stroke="black" points="676,-280.5 676,-299.5 786,-299.5 786,-280.5 676,-280.5"/>
<text text-anchor="middle" x="731" y="-287.5" font-family="Helvetica,sans-Serif" font-size="10.00">fplll/enum/evaluator.h</text>
</g>
<!-- Node2 -->
<g id="node2" class="node"><title>Node2</title>
<g id="a_node2"><a xlink:href="bkz_8h.html" target="_top" xlink:title="fplll/bkz.h">
<polygon fill="white" stroke="black" points="615.5,-168.5 615.5,-187.5 674.5,-187.5 674.5,-168.5 615.5,-168.5"/>
<text text-anchor="middle" x="645" y="-175.5" font-family="Helvetica,sans-Serif" font-size="10.00">fplll/bkz.h</text>
</a>
</g>
</g>
<!-- Node1&#45;&gt;Node2 -->
<g id="edge1" class="edge"><title>Node1&#45;&gt;Node2</title>
<path fill="none" stroke="midnightblue" d="M702.308,-275.619C688.923,-268.057 673.818,-257.413 664,-244 651.361,-226.734 647.09,-201.165 645.677,-187.826"/>
<polygon fill="midnightblue" stroke="midnightblue" points="700.741,-278.75 711.213,-280.358 704.029,-272.571 700.741,-278.75"/>
</g>
<!-- Node15 -->
<g id="node15" class="node"><title>Node15</title>
<g id="a_node15"><a xlink:href="enumerate_8h.html" target="_top" xlink:title="fplll/enum/enumerate.h">
<polygon fill="white" stroke="black" points="673,-224.5 673,-243.5 789,-243.5 789,-224.5 673,-224.5"/>
<text text-anchor="middle" x="731" y="-231.5" font-family="Helvetica,sans-Serif" font-size="10.00">fplll/enum/enumerate.h</text>
</a>
</g>
</g>
<!-- Node1&#45;&gt;Node15 -->
<g id="edge14" class="edge"><title>Node1&#45;&gt;Node15</title>
<path fill="none" stroke="midnightblue" d="M731,-269.805C731,-260.91 731,-250.78 731,-243.751"/>
<polygon fill="midnightblue" stroke="midnightblue" points="727.5,-270.083 731,-280.083 734.5,-270.083 727.5,-270.083"/>
</g>
<!-- Node18 -->
<g id="node18" class="node"><title>Node18</title>
<g id="a_node18"><a xlink:href="evaluator_8cpp.html" target="_top" xlink:title="fplll/enum/evaluator.cpp">
<polygon fill="white" stroke="black" points="807,-224.5 807,-243.5 927,-243.5 927,-224.5 807,-224.5"/>
<text text-anchor="middle" x="867" y="-231.5" font-family="Helvetica,sans-Serif" font-size="10.00">fplll/enum/evaluator.cpp</text>
</a>
</g>
</g>
<!-- Node1&#45;&gt;Node18 -->
<g id="edge20" class="edge"><title>Node1&#45;&gt;Node18</title>
<path fill="none" stroke="midnightblue" d="M762.135,-276.638C787.657,-266.504 823.109,-252.427 845.551,-243.516"/>
<polygon fill="midnightblue" stroke="midnightblue" points="760.552,-273.5 752.55,-280.444 763.135,-280.006 760.552,-273.5"/>
</g>
<!-- Node3 -->
<g id="node3" class="node"><title>Node3</title>
<g id="a_node3"><a xlink:href="bkz_8cpp.html" target="_top" xlink:title="fplll/bkz.cpp">
<polygon fill="white" stroke="black" points="656.5,-112.5 656.5,-131.5 725.5,-131.5 725.5,-112.5 656.5,-112.5"/>
<text text-anchor="middle" x="691" y="-119.5" font-family="Helvetica,sans-Serif" font-size="10.00">fplll/bkz.cpp</text>
</a>
</g>
</g>
<!-- Node2&#45;&gt;Node3 -->
<g id="edge2" class="edge"><title>Node2&#45;&gt;Node3</title>
<path fill="none" stroke="midnightblue" d="M659.114,-160.431C667.176,-150.967 676.959,-139.483 683.545,-131.751"/>
<polygon fill="midnightblue" stroke="midnightblue" points="656.416,-158.201 652.596,-168.083 661.745,-162.74 656.416,-158.201"/>
</g>
<!-- Node4 -->
<g id="node4" class="node"><title>Node4</title>
<g id="a_node4"><a xlink:href="fplll_8h.html" target="_top" xlink:title="fplll/fplll.h">
<polygon fill="white" stroke="black" points="480,-112.5 480,-131.5 538,-131.5 538,-112.5 480,-112.5"/>
<text text-anchor="middle" x="509" y="-119.5" font-family="Helvetica,sans-Serif" font-size="10.00">fplll/fplll.h</text>
</a>
</g>
</g>
<!-- Node2&#45;&gt;Node4 -->
<g id="edge3" class="edge"><title>Node2&#45;&gt;Node4</title>
<path fill="none" stroke="midnightblue" d="M613.865,-164.638C588.343,-154.504 552.891,-140.427 530.449,-131.516"/>
<polygon fill="midnightblue" stroke="midnightblue" points="612.865,-168.006 623.45,-168.444 615.448,-161.5 612.865,-168.006"/>
</g>
<!-- Node5 -->
<g id="node5" class="node"><title>Node5</title>
<g id="a_node5"><a xlink:href="fplll_8cpp.html" target="_top" xlink:title="fplll/fplll.cpp">
<polygon fill="white" stroke="black" points="933,-56.5 933,-75.5 1001,-75.5 1001,-56.5 933,-56.5"/>
<text text-anchor="middle" x="967" y="-63.5" font-family="Helvetica,sans-Serif" font-size="10.00">fplll/fplll.cpp</text>
</a>
</g>
</g>
<!-- Node4&#45;&gt;Node5 -->
<g id="edge4" class="edge"><title>Node4&#45;&gt;Node5</title>
<path fill="none" stroke="midnightblue" d="M548.288,-118.036C622.163,-112.174 786.702,-97.7582 924,-76 926.863,-75.5464 929.823,-75.0291 932.788,-74.4771"/>
<polygon fill="midnightblue" stroke="midnightblue" points="547.755,-114.566 538.06,-118.838 548.303,-121.545 547.755,-114.566"/>
</g>
<!-- Node6 -->
<g id="node6" class="node"><title>Node6</title>
<g id="a_node6"><a xlink:href="main_8h.html" target="_top" xlink:title="fplll/main.h">
<polygon fill="white" stroke="black" points="5,-56.5 5,-75.5 69,-75.5 69,-56.5 5,-56.5"/>
<text text-anchor="middle" x="37" y="-63.5" font-family="Helvetica,sans-Serif" font-size="10.00">fplll/main.h</text>
</a>
</g>
</g>
<!-- Node4&#45;&gt;Node6 -->
<g id="edge5" class="edge"><title>Node4&#45;&gt;Node6</title>
<path fill="none" stroke="midnightblue" d="M469.778,-118.384C393.815,-112.99 221.466,-99.1611 78,-76 75.1222,-75.5354 72.1428,-74.9963 69.1637,-74.4173"/>
<polygon fill="midnightblue" stroke="midnightblue" points="469.624,-121.881 479.844,-119.089 470.113,-114.899 469.624,-121.881"/>
</g>
<!-- Node8 -->
<g id="node8" class="node"><title>Node8</title>
<g id="a_node8"><a xlink:href="sieve__main_8cpp.html" target="_top" xlink:title="fplll/sieve/sieve_main.cpp">
<polygon fill="white" stroke="black" points="87.5,-56.5 87.5,-75.5 216.5,-75.5 216.5,-56.5 87.5,-56.5"/>
<text text-anchor="middle" x="152" y="-63.5" font-family="Helvetica,sans-Serif" font-size="10.00">fplll/sieve/sieve_main.cpp</text>
</a>
</g>
</g>
<!-- Node4&#45;&gt;Node8 -->
<g id="edge7" class="edge"><title>Node4&#45;&gt;Node8</title>
<path fill="none" stroke="midnightblue" d="M469.792,-115.069C406.392,-105.48 281.13,-86.5323 208.235,-75.5062"/>
<polygon fill="midnightblue" stroke="midnightblue" points="469.374,-118.546 479.785,-116.581 470.421,-111.625 469.374,-118.546"/>
</g>
<!-- Node9 -->
<g id="node9" class="node"><title>Node9</title>
<g id="a_node9"><a xlink:href="test__bkz_8cpp.html" target="_top" xlink:title="tests/test_bkz.cpp">
<polygon fill="white" stroke="black" points="235,-56.5 235,-75.5 333,-75.5 333,-56.5 235,-56.5"/>
<text text-anchor="middle" x="284" y="-63.5" font-family="Helvetica,sans-Serif" font-size="10.00">tests/test_bkz.cpp</text>
</a>
</g>
</g>
<!-- Node4&#45;&gt;Node9 -->
<g id="edge8" class="edge"><title>Node4&#45;&gt;Node9</title>
<path fill="none" stroke="midnightblue" d="M469.641,-111.554C427.313,-101.395 360.602,-85.3846 319.733,-75.576"/>
<polygon fill="midnightblue" stroke="midnightblue" points="469.044,-115.01 479.585,-113.94 470.678,-108.203 469.044,-115.01"/>
</g>
<!-- Node10 -->
<g id="node10" class="node"><title>Node10</title>
<g id="a_node10"><a xlink:href="test__lll_8cpp.html" target="_top" xlink:title="tests/test_lll.cpp">
<polygon fill="white" stroke="black" points="350.5,-56.5 350.5,-75.5 439.5,-75.5 439.5,-56.5 350.5,-56.5"/>
<text text-anchor="middle" x="395" y="-63.5" font-family="Helvetica,sans-Serif" font-size="10.00">tests/test_lll.cpp</text>
</a>
</g>
</g>
<!-- Node4&#45;&gt;Node10 -->
<g id="edge9" class="edge"><title>Node4&#45;&gt;Node10</title>
<path fill="none" stroke="midnightblue" d="M481.758,-108.096C460.46,-98.0073 431.458,-84.2697 412.979,-75.5164"/>
<polygon fill="midnightblue" stroke="midnightblue" points="480.401,-111.326 490.936,-112.444 483.397,-105 480.401,-111.326"/>
</g>
<!-- Node11 -->
<g id="node11" class="node"><title>Node11</title>
<g id="a_node11"><a xlink:href="test__nr_8cpp.html" target="_top" xlink:title="tests/test_nr.cpp">
<polygon fill="white" stroke="black" points="458,-56.5 458,-75.5 548,-75.5 548,-56.5 458,-56.5"/>
<text text-anchor="middle" x="503" y="-63.5" font-family="Helvetica,sans-Serif" font-size="10.00">tests/test_nr.cpp</text>
</a>
</g>
</g>
<!-- Node4&#45;&gt;Node11 -->
<g id="edge10" class="edge"><title>Node4&#45;&gt;Node11</title>
<path fill="none" stroke="midnightblue" d="M506.9,-102.101C505.904,-93.1357 504.762,-82.8579 503.972,-75.7511"/>
<polygon fill="midnightblue" stroke="midnightblue" points="503.426,-102.531 508.009,-112.083 510.383,-101.758 503.426,-102.531"/>
</g>
<!-- Node12 -->
<g id="node12" class="node"><title>Node12</title>
<g id="a_node12"><a xlink:href="test__pruner_8cpp.html" target="_top" xlink:title="tests/test_pruner.cpp">
<polygon fill="white" stroke="black" points="566.5,-56.5 566.5,-75.5 675.5,-75.5 675.5,-56.5 566.5,-56.5"/>
<text text-anchor="middle" x="621" y="-63.5" font-family="Helvetica,sans-Serif" font-size="10.00">tests/test_pruner.cpp</text>
</a>
</g>
</g>
<!-- Node4&#45;&gt;Node12 -->
<g id="edge11" class="edge"><title>Node4&#45;&gt;Node12</title>
<path fill="none" stroke="midnightblue" d="M536.249,-107.862C557.016,-97.8492 585.023,-84.3458 603.05,-75.6545"/>
<polygon fill="midnightblue" stroke="midnightblue" points="534.482,-104.828 526.995,-112.324 537.523,-111.134 534.482,-104.828"/>
</g>
<!-- Node13 -->
<g id="node13" class="node"><title>Node13</title>
<g id="a_node13"><a xlink:href="test__sieve_8cpp.html" target="_top" xlink:title="tests/test_sieve.cpp">
<polygon fill="white" stroke="black" points="693.5,-56.5 693.5,-75.5 798.5,-75.5 798.5,-56.5 693.5,-56.5"/>
<text text-anchor="middle" x="746" y="-63.5" font-family="Helvetica,sans-Serif" font-size="10.00">tests/test_sieve.cpp</text>
</a>
</g>
</g>
<!-- Node4&#45;&gt;Node13 -->
<g id="edge12" class="edge"><title>Node4&#45;&gt;Node13</title>
<path fill="none" stroke="midnightblue" d="M547.918,-112.133C592.38,-102.002 664.633,-85.5392 708.496,-75.5453"/>
<polygon fill="midnightblue" stroke="midnightblue" points="547.033,-108.744 538.061,-114.379 548.589,-115.569 547.033,-108.744"/>
</g>
<!-- Node14 -->
<g id="node14" class="node"><title>Node14</title>
<g id="a_node14"><a xlink:href="test__svp_8cpp.html" target="_top" xlink:title="tests/test_svp.cpp">
<polygon fill="white" stroke="black" points="817,-56.5 817,-75.5 915,-75.5 915,-56.5 817,-56.5"/>
<text text-anchor="middle" x="866" y="-63.5" font-family="Helvetica,sans-Serif" font-size="10.00">tests/test_svp.cpp</text>
</a>
</g>
</g>
<!-- Node4&#45;&gt;Node14 -->
<g id="edge13" class="edge"><title>Node4&#45;&gt;Node14</title>
<path fill="none" stroke="midnightblue" d="M548.345,-115.137C605.528,-106.603 714.938,-90.2232 808,-76 810.921,-75.5535 813.925,-75.0927 816.955,-74.6266"/>
<polygon fill="midnightblue" stroke="midnightblue" points="547.665,-111.7 538.291,-116.637 548.698,-118.623 547.665,-111.7"/>
</g>
<!-- Node7 -->
<g id="node7" class="node"><title>Node7</title>
<g id="a_node7"><a xlink:href="main_8cpp.html" target="_top" xlink:title="fplll/main.cpp">
<polygon fill="white" stroke="black" points="0,-0.5 0,-19.5 74,-19.5 74,-0.5 0,-0.5"/>
<text text-anchor="middle" x="37" y="-7.5" font-family="Helvetica,sans-Serif" font-size="10.00">fplll/main.cpp</text>
</a>
</g>
</g>
<!-- Node6&#45;&gt;Node7 -->
<g id="edge6" class="edge"><title>Node6&#45;&gt;Node7</title>
<path fill="none" stroke="midnightblue" d="M37,-45.8045C37,-36.9102 37,-26.7798 37,-19.7511"/>
<polygon fill="midnightblue" stroke="midnightblue" points="33.5001,-46.083 37,-56.083 40.5001,-46.083 33.5001,-46.083"/>
</g>
<!-- Node15&#45;&gt;Node2 -->
<g id="edge15" class="edge"><title>Node15&#45;&gt;Node2</title>
<path fill="none" stroke="midnightblue" d="M708.545,-218.901C692.776,-208.999 672.186,-196.071 658.783,-187.655"/>
<polygon fill="midnightblue" stroke="midnightblue" points="706.852,-221.97 717.183,-224.324 710.575,-216.042 706.852,-221.97"/>
</g>
<!-- Node15&#45;&gt;Node3 -->
<g id="edge16" class="edge"><title>Node15&#45;&gt;Node3</title>
<path fill="none" stroke="midnightblue" d="M724.336,-214.674C715.591,-190.625 700.596,-149.388 694.124,-131.591"/>
<polygon fill="midnightblue" stroke="midnightblue" points="721.154,-216.167 727.861,-224.368 727.733,-213.774 721.154,-216.167"/>
</g>
<!-- Node16 -->
<g id="node16" class="node"><title>Node16</title>
<g id="a_node16"><a xlink:href="enumerate_8cpp.html" target="_top" xlink:title="fplll/enum/enumerate.cpp">
<polygon fill="white" stroke="black" points="731,-168.5 731,-187.5 857,-187.5 857,-168.5 731,-168.5"/>
<text text-anchor="middle" x="794" y="-175.5" font-family="Helvetica,sans-Serif" font-size="10.00">fplll/enum/enumerate.cpp</text>
</a>
</g>
</g>
<!-- Node15&#45;&gt;Node16 -->
<g id="edge17" class="edge"><title>Node15&#45;&gt;Node16</title>
<path fill="none" stroke="midnightblue" d="M749.04,-217.537C760.273,-207.909 774.319,-195.869 783.694,-187.834"/>
<polygon fill="midnightblue" stroke="midnightblue" points="746.437,-215.159 741.122,-224.324 750.992,-220.473 746.437,-215.159"/>
</g>
<!-- Node17 -->
<g id="node17" class="node"><title>Node17</title>
<g id="a_node17"><a xlink:href="svpcvp_8cpp.html" target="_top" xlink:title="fplll/svpcvp.cpp">
<polygon fill="white" stroke="black" points="917.5,-112.5 917.5,-131.5 1002.5,-131.5 1002.5,-112.5 917.5,-112.5"/>
<text text-anchor="middle" x="960" y="-119.5" font-family="Helvetica,sans-Serif" font-size="10.00">fplll/svpcvp.cpp</text>
</a>
</g>
</g>
<!-- Node15&#45;&gt;Node17 -->
<g id="edge18" class="edge"><title>Node15&#45;&gt;Node17</title>
<path fill="none" stroke="midnightblue" d="M775.275,-221.679C802.253,-213.951 836.997,-202.491 866,-188 898.658,-171.682 932.931,-145.242 949.626,-131.66"/>
<polygon fill="midnightblue" stroke="midnightblue" points="774.032,-218.392 765.344,-224.457 775.918,-225.134 774.032,-218.392"/>
</g>
<!-- Node17&#45;&gt;Node5 -->
<g id="edge19" class="edge"><title>Node17&#45;&gt;Node5</title>
<path fill="none" stroke="midnightblue" d="M962.45,-102.101C963.612,-93.1357 964.944,-82.8579 965.866,-75.7511"/>
<polygon fill="midnightblue" stroke="midnightblue" points="958.971,-101.716 961.156,-112.083 965.912,-102.616 958.971,-101.716"/>
</g>
</g>
</svg>
