<?xml version="1.0" encoding="UTF-8" standalone="no"?>
<!DOCTYPE svg PUBLIC "-//W3C//DTD SVG 1.1//EN"
 "http://www.w3.org/Graphics/SVG/1.1/DTD/svg11.dtd">
<!-- Generated by graphviz version 2.38.0 (20140413.2041)
 -->
<!-- Title: fplll/enum/evaluator.h Pages: 1 -->
<svg width="1126pt" height="386pt"
 viewBox="0.00 0.00 1126.00 386.00" xmlns="http://www.w3.org/2000/svg" xmlns:xlink="http://www.w3.org/1999/xlink">
<g id="graph0" class="graph" transform="scale(1 1) rotate(0) translate(4 382)">
<title>fplll/enum/evaluator.h</title>
<polygon fill="white" stroke="none" points="-4,4 -4,-382 1122,-382 1122,4 -4,4"/>
<!-- Node0 -->
<g id="node1" class="node"><title>Node0</title>
<polygon fill="#bfbfbf" stroke="black" points="291,-358.5 291,-377.5 401,-377.5 401,-358.5 291,-358.5"/>
<text text-anchor="middle" x="346" y="-365.5" font-family="Helvetica,sans-Serif" font-size="10.00">fplll/enum/evaluator.h</text>
</g>
<!-- Node1 -->
<g id="node2" class="node"><title>Node1</title>
<g id="a_node2"><a xlink:href="enumerate__ext_8h.html" target="_top" xlink:title="fplll/enum/enumerate\l_ext.h">
<polygon fill="white" stroke="black" points="251.5,-291.5 251.5,-321.5 358.5,-321.5 358.5,-291.5 251.5,-291.5"/>
<text text-anchor="start" x="259.5" y="-309.5" font-family="Helvetica,sans-Serif" font-size="10.00">fplll/enum/enumerate</text>
<text text-anchor="middle" x="305" y="-298.5" font-family="Helvetica,sans-Serif" font-size="10.00">_ext.h</text>
</a>
</g>
</g>
<!-- Node0&#45;&gt;Node1 -->
<g id="edge1" class="edge"><title>Node0&#45;&gt;Node1</title>
<path fill="none" stroke="midnightblue" d="M334.26,-349.963C328.054,-340.956 320.528,-330.034 314.663,-321.523"/>
<polygon fill="midnightblue" stroke="midnightblue" points="331.57,-352.227 340.126,-358.475 337.334,-348.255 331.57,-352.227"/>
</g>
<!-- Node2 -->
<g id="node3" class="node"><title>Node2</title>
<g id="a_node3"><a xlink:href="enumerate_8h.html" target="_top" xlink:title="fplll/enum/enumerate.h">
<polygon fill="white" stroke="black" points="117,-230 117,-249 233,-249 233,-230 117,-230"/>
<text text-anchor="middle" x="175" y="-237" font-family="Helvetica,sans-Serif" font-size="10.00">fplll/enum/enumerate.h</text>
</a>
</g>
</g>
<!-- Node0&#45;&gt;Node2 -->
<g id="edge22" class="edge"><title>Node0&#45;&gt;Node2</title>
<path fill="none" stroke="midnightblue" d="M306.981,-355.107C286.394,-347.649 261.447,-336.647 242,-322 213.909,-300.841 190.267,-265.577 180.202,-249.267"/>
<polygon fill="midnightblue" stroke="midnightblue" points="306.098,-358.506 316.693,-358.484 308.397,-351.894 306.098,-358.506"/>
</g>
<!-- Node3 -->
<g id="node4" class="node"><title>Node3</title>
<g id="a_node4"><a xlink:href="bkz_8h.html" target="_top" xlink:title="fplll/bkz.h">
<polygon fill="white" stroke="black" points="299.5,-168.5 299.5,-187.5 358.5,-187.5 358.5,-168.5 299.5,-168.5"/>
<text text-anchor="middle" x="329" y="-175.5" font-family="Helvetica,sans-Serif" font-size="10.00">fplll/bkz.h</text>
</a>
</g>
</g>
<!-- Node0&#45;&gt;Node3 -->
<g id="edge23" class="edge"><title>Node0&#45;&gt;Node3</title>
<path fill="none" stroke="midnightblue" d="M356.279,-349.626C360.493,-341.524 364.876,-331.574 367,-322 376.433,-279.478 381.961,-264.905 367,-224 361.591,-209.211 348.938,-195.931 339.714,-187.695"/>
<polygon fill="midnightblue" stroke="midnightblue" points="353.178,-348.001 351.384,-358.443 359.298,-351.399 353.178,-348.001"/>
</g>
<!-- Node20 -->
<g id="node21" class="node"><title>Node20</title>
<g id="a_node21"><a xlink:href="evaluator_8cpp.html" target="_top" xlink:title="fplll/enum/evaluator.cpp">
<polygon fill="white" stroke="black" points="415,-297 415,-316 535,-316 535,-297 415,-297"/>
<text text-anchor="middle" x="475" y="-304" font-family="Helvetica,sans-Serif" font-size="10.00">fplll/enum/evaluator.cpp</text>
</a>
</g>
</g>
<!-- Node0&#45;&gt;Node20 -->
<g id="edge24" class="edge"><title>Node0&#45;&gt;Node20</title>
<path fill="none" stroke="midnightblue" d="M373.807,-354.174C398.839,-342.629 434.918,-325.987 456.552,-316.009"/>
<polygon fill="midnightblue" stroke="midnightblue" points="372.097,-351.108 364.483,-358.475 375.029,-357.465 372.097,-351.108"/>
</g>
<!-- Node1&#45;&gt;Node2 -->
<g id="edge2" class="edge"><title>Node1&#45;&gt;Node2</title>
<path fill="none" stroke="midnightblue" d="M267.606,-286.803C242.684,-274.342 211.112,-258.556 192.014,-249.007"/>
<polygon fill="midnightblue" stroke="midnightblue" points="266.282,-290.054 276.792,-291.396 269.413,-283.793 266.282,-290.054"/>
</g>
<!-- Node19 -->
<g id="node20" class="node"><title>Node19</title>
<g id="a_node20"><a xlink:href="enumerate__ext_8cpp.html" target="_top" xlink:title="fplll/enum/enumerate\l_ext.cpp">
<polygon fill="white" stroke="black" points="251.5,-224.5 251.5,-254.5 358.5,-254.5 358.5,-224.5 251.5,-224.5"/>
<text text-anchor="start" x="259.5" y="-242.5" font-family="Helvetica,sans-Serif" font-size="10.00">fplll/enum/enumerate</text>
<text text-anchor="middle" x="305" y="-231.5" font-family="Helvetica,sans-Serif" font-size="10.00">_ext.cpp</text>
</a>
</g>
</g>
<!-- Node1&#45;&gt;Node19 -->
<g id="edge21" class="edge"><title>Node1&#45;&gt;Node19</title>
<path fill="none" stroke="midnightblue" d="M305,-281.108C305,-272.154 305,-262.323 305,-254.577"/>
<polygon fill="midnightblue" stroke="midnightblue" points="301.5,-281.396 305,-291.396 308.5,-281.396 301.5,-281.396"/>
</g>
<!-- Node2&#45;&gt;Node3 -->
<g id="edge3" class="edge"><title>Node2&#45;&gt;Node3</title>
<path fill="none" stroke="midnightblue" d="M206.622,-226.282C236.549,-214.72 280.693,-197.664 306.976,-187.509"/>
<polygon fill="midnightblue" stroke="midnightblue" points="205.131,-223.106 197.064,-229.975 207.654,-229.636 205.131,-223.106"/>
</g>
<!-- Node4 -->
<g id="node5" class="node"><title>Node4</title>
<g id="a_node5"><a xlink:href="bkz_8cpp.html" target="_top" xlink:title="fplll/bkz.cpp">
<polygon fill="white" stroke="black" points="253.5,-112.5 253.5,-131.5 322.5,-131.5 322.5,-112.5 253.5,-112.5"/>
<text text-anchor="middle" x="288" y="-119.5" font-family="Helvetica,sans-Serif" font-size="10.00">fplll/bkz.cpp</text>
</a>
</g>
</g>
<!-- Node2&#45;&gt;Node4 -->
<g id="edge17" class="edge"><title>Node2&#45;&gt;Node4</title>
<path fill="none" stroke="midnightblue" d="M190.511,-222.646C214.654,-197.969 260.419,-151.192 279.408,-131.782"/>
<polygon fill="midnightblue" stroke="midnightblue" points="187.985,-220.223 183.493,-229.819 192.988,-225.118 187.985,-220.223"/>
</g>
<!-- Node17 -->
<g id="node18" class="node"><title>Node17</title>
<g id="a_node18"><a xlink:href="enumerate_8cpp.html" target="_top" xlink:title="fplll/enum/enumerate.cpp">
<polygon fill="white" stroke="black" points="21,-168.5 21,-187.5 147,-187.5 147,-168.5 21,-168.5"/>
<text text-anchor="middle" x="84" y="-175.5" font-family="Helvetica,sans-Serif" font-size="10.00">fplll/enum/enumerate.cpp</text>
</a>
</g>
</g>
<!-- Node2&#45;&gt;Node17 -->
<g id="edge18" class="edge"><title>Node2&#45;&gt;Node17</title>
<path fill="none" stroke="midnightblue" d="M153.48,-224.43C135.937,-212.959 111.735,-197.134 97.0139,-187.509"/>
<polygon fill="midnightblue" stroke="midnightblue" points="151.677,-227.432 161.962,-229.975 155.508,-221.573 151.677,-227.432"/>
</g>
<!-- Node18 -->
<g id="node19" class="node"><title>Node18</title>
<g id="a_node19"><a xlink:href="svpcvp_8cpp.html" target="_top" xlink:title="fplll/svpcvp.cpp">
<polygon fill="white" stroke="black" points="61.5,-112.5 61.5,-131.5 146.5,-131.5 146.5,-112.5 61.5,-112.5"/>
<text text-anchor="middle" x="104" y="-119.5" font-family="Helvetica,sans-Serif" font-size="10.00">fplll/svpcvp.cpp</text>
</a>
</g>
</g>
<!-- Node2&#45;&gt;Node18 -->
<g id="edge19" class="edge"><title>Node2&#45;&gt;Node18</title>
<path fill="none" stroke="midnightblue" d="M172.968,-219.511C170.674,-204.581 165.878,-183.744 156,-168 146.355,-152.628 129.832,-139.646 117.998,-131.635"/>
<polygon fill="midnightblue" stroke="midnightblue" points="169.519,-220.13 174.278,-229.595 176.461,-219.228 169.519,-220.13"/>
</g>
<!-- Node3&#45;&gt;Node4 -->
<g id="edge4" class="edge"><title>Node3&#45;&gt;Node4</title>
<path fill="none" stroke="midnightblue" d="M315.983,-159.855C308.883,-150.505 300.396,-139.327 294.644,-131.751"/>
<polygon fill="midnightblue" stroke="midnightblue" points="313.395,-162.235 322.23,-168.083 318.97,-158.002 313.395,-162.235"/>
</g>
<!-- Node5 -->
<g id="node6" class="node"><title>Node5</title>
<g id="a_node6"><a xlink:href="fplll_8h.html" target="_top" xlink:title="fplll/fplll.h">
<polygon fill="white" stroke="black" points="482,-112.5 482,-131.5 540,-131.5 540,-112.5 482,-112.5"/>
<text text-anchor="middle" x="511" y="-119.5" font-family="Helvetica,sans-Serif" font-size="10.00">fplll/fplll.h</text>
</a>
</g>
</g>
<!-- Node3&#45;&gt;Node5 -->
<g id="edge5" class="edge"><title>Node3&#45;&gt;Node5</title>
<path fill="none" stroke="midnightblue" d="M367.531,-165.568C401.864,-155.381 451.333,-140.703 482.296,-131.516"/>
<polygon fill="midnightblue" stroke="midnightblue" points="366.43,-162.244 357.838,-168.444 368.421,-168.954 366.43,-162.244"/>
</g>
<!-- Node6 -->
<g id="node7" class="node"><title>Node6</title>
<g id="a_node7"><a xlink:href="fplll_8cpp.html" target="_top" xlink:title="fplll/fplll.cpp">
<polygon fill="white" stroke="black" points="0,-56.5 0,-75.5 68,-75.5 68,-56.5 0,-56.5"/>
<text text-anchor="middle" x="34" y="-63.5" font-family="Helvetica,sans-Serif" font-size="10.00">fplll/fplll.cpp</text>
</a>
</g>
</g>
<!-- Node5&#45;&gt;Node6 -->
<g id="edge6" class="edge"><title>Node5&#45;&gt;Node6</title>
<path fill="none" stroke="midnightblue" d="M471.808,-118.296C395.496,-112.732 221.753,-98.5915 77,-76 74.1364,-75.5531 71.1755,-75.0405 68.2092,-74.4917"/>
<polygon fill="midnightblue" stroke="midnightblue" points="471.691,-121.797 481.916,-119.025 472.194,-114.815 471.691,-121.797"/>
</g>
<!-- Node7 -->
<g id="node8" class="node"><title>Node7</title>
<g id="a_node8"><a xlink:href="main_8h.html" target="_top" xlink:title="fplll/main.h">
<polygon fill="white" stroke="black" points="1049,-56.5 1049,-75.5 1113,-75.5 1113,-56.5 1049,-56.5"/>
<text text-anchor="middle" x="1081" y="-63.5" font-family="Helvetica,sans-Serif" font-size="10.00">fplll/main.h</text>
</a>
</g>
</g>
<!-- Node5&#45;&gt;Node7 -->
<g id="edge7" class="edge"><title>Node5&#45;&gt;Node7</title>
<path fill="none" stroke="midnightblue" d="M550.183,-119.428C638.19,-115.512 858.072,-103.584 1040,-76 1042.88,-75.563 1045.86,-75.0429 1048.85,-74.4762"/>
<polygon fill="midnightblue" stroke="midnightblue" points="549.954,-115.934 540.116,-119.866 550.259,-122.928 549.954,-115.934"/>
</g>
<!-- Node9 -->
<g id="node10" class="node"><title>Node9</title>
<g id="a_node10"><a xlink:href="sieve__main_8cpp.html" target="_top" xlink:title="fplll/sieve/sieve_main.cpp">
<polygon fill="white" stroke="black" points="86.5,-56.5 86.5,-75.5 215.5,-75.5 215.5,-56.5 86.5,-56.5"/>
<text text-anchor="middle" x="151" y="-63.5" font-family="Helvetica,sans-Serif" font-size="10.00">fplll/sieve/sieve_main.cpp</text>
</a>
</g>
</g>
<!-- Node5&#45;&gt;Node9 -->
<g id="edge9" class="edge"><title>Node5&#45;&gt;Node9</title>
<path fill="none" stroke="midnightblue" d="M471.794,-115.119C408.003,-105.55 281.481,-86.5722 207.829,-75.5243"/>
<polygon fill="midnightblue" stroke="midnightblue" points="471.436,-118.604 481.845,-116.627 472.474,-111.682 471.436,-118.604"/>
</g>
<!-- Node10 -->
<g id="node11" class="node"><title>Node10</title>
<g id="a_node11"><a xlink:href="test__bkz_8cpp.html" target="_top" xlink:title="tests/test_bkz.cpp">
<polygon fill="white" stroke="black" points="234,-56.5 234,-75.5 332,-75.5 332,-56.5 234,-56.5"/>
<text text-anchor="middle" x="283" y="-63.5" font-family="Helvetica,sans-Serif" font-size="10.00">tests/test_bkz.cpp</text>
</a>
</g>
</g>
<!-- Node5&#45;&gt;Node10 -->
<g id="edge10" class="edge"><title>Node5&#45;&gt;Node10</title>
<path fill="none" stroke="midnightblue" d="M471.851,-111.728C428.922,-101.56 360.614,-85.3823 318.984,-75.5225"/>
<polygon fill="midnightblue" stroke="midnightblue" points="471.122,-115.152 481.66,-114.051 472.736,-108.34 471.122,-115.152"/>
</g>
<!-- Node11 -->
<g id="node12" class="node"><title>Node11</title>
<g id="a_node12"><a xlink:href="test__cvp_8cpp.html" target="_top" xlink:title="tests/test_cvp.cpp">
<polygon fill="white" stroke="black" points="350,-56.5 350,-75.5 448,-75.5 448,-56.5 350,-56.5"/>
<text text-anchor="middle" x="399" y="-63.5" font-family="Helvetica,sans-Serif" font-size="10.00">tests/test_cvp.cpp</text>
</a>
</g>
</g>
<!-- Node5&#45;&gt;Node11 -->
<g id="edge11" class="edge"><title>Node5&#45;&gt;Node11</title>
<path fill="none" stroke="midnightblue" d="M483.751,-107.862C462.984,-97.8492 434.977,-84.3458 416.95,-75.6545"/>
<polygon fill="midnightblue" stroke="midnightblue" points="482.477,-111.134 493.005,-112.324 485.518,-104.828 482.477,-111.134"/>
</g>
<!-- Node12 -->
<g id="node13" class="node"><title>Node12</title>
<g id="a_node13"><a xlink:href="test__lll_8cpp.html" target="_top" xlink:title="tests/test_lll.cpp">
<polygon fill="white" stroke="black" points="466.5,-56.5 466.5,-75.5 555.5,-75.5 555.5,-56.5 466.5,-56.5"/>
<text text-anchor="middle" x="511" y="-63.5" font-family="Helvetica,sans-Serif" font-size="10.00">tests/test_lll.cpp</text>
</a>
</g>
</g>
<!-- Node5&#45;&gt;Node12 -->
<g id="edge12" class="edge"><title>Node5&#45;&gt;Node12</title>
<path fill="none" stroke="midnightblue" d="M511,-101.805C511,-92.9102 511,-82.7798 511,-75.7511"/>
<polygon fill="midnightblue" stroke="midnightblue" points="507.5,-102.083 511,-112.083 514.5,-102.083 507.5,-102.083"/>
</g>
<!-- Node13 -->
<g id="node14" class="node"><title>Node13</title>
<g id="a_node14"><a xlink:href="test__nr_8cpp.html" target="_top" xlink:title="tests/test_nr.cpp">
<polygon fill="white" stroke="black" points="574,-56.5 574,-75.5 664,-75.5 664,-56.5 574,-56.5"/>
<text text-anchor="middle" x="619" y="-63.5" font-family="Helvetica,sans-Serif" font-size="10.00">tests/test_nr.cpp</text>
</a>
</g>
</g>
<!-- Node5&#45;&gt;Node13 -->
<g id="edge13" class="edge"><title>Node5&#45;&gt;Node13</title>
<path fill="none" stroke="midnightblue" d="M537.548,-107.726C557.546,-97.7271 584.387,-84.3065 601.691,-75.6545"/>
<polygon fill="midnightblue" stroke="midnightblue" points="535.731,-104.721 528.352,-112.324 538.862,-110.982 535.731,-104.721"/>
</g>
<!-- Node14 -->
<g id="node15" class="node"><title>Node14</title>
<g id="a_node15"><a xlink:href="test__pruner_8cpp.html" target="_top" xlink:title="tests/test_pruner.cpp">
<polygon fill="white" stroke="black" points="682.5,-56.5 682.5,-75.5 791.5,-75.5 791.5,-56.5 682.5,-56.5"/>
<text text-anchor="middle" x="737" y="-63.5" font-family="Helvetica,sans-Serif" font-size="10.00">tests/test_pruner.cpp</text>
</a>
</g>
</g>
<!-- Node5&#45;&gt;Node14 -->
<g id="edge14" class="edge"><title>Node5&#45;&gt;Node14</title>
<path fill="none" stroke="midnightblue" d="M550.075,-111.663C592.644,-101.492 660.154,-85.3615 701.332,-75.5225"/>
<polygon fill="midnightblue" stroke="midnightblue" points="548.996,-108.323 540.083,-114.051 550.623,-115.131 548.996,-108.323"/>
</g>
<!-- Node15 -->
<g id="node16" class="node"><title>Node15</title>
<g id="a_node16"><a xlink:href="test__sieve_8cpp.html" target="_top" xlink:title="tests/test_sieve.cpp">
<polygon fill="white" stroke="black" points="809.5,-56.5 809.5,-75.5 914.5,-75.5 914.5,-56.5 809.5,-56.5"/>
<text text-anchor="middle" x="862" y="-63.5" font-family="Helvetica,sans-Serif" font-size="10.00">tests/test_sieve.cpp</text>
</a>
</g>
</g>
<!-- Node5&#45;&gt;Node15 -->
<g id="edge15" class="edge"><title>Node5&#45;&gt;Node15</title>
<path fill="none" stroke="midnightblue" d="M549.991,-115.001C613.24,-105.271 738.268,-86.0356 809.351,-75.0999"/>
<polygon fill="midnightblue" stroke="midnightblue" points="549.374,-111.555 540.022,-116.535 550.438,-118.474 549.374,-111.555"/>
</g>
<!-- Node16 -->
<g id="node17" class="node"><title>Node16</title>
<g id="a_node17"><a xlink:href="test__svp_8cpp.html" target="_top" xlink:title="tests/test_svp.cpp">
<polygon fill="white" stroke="black" points="933,-56.5 933,-75.5 1031,-75.5 1031,-56.5 933,-56.5"/>
<text text-anchor="middle" x="982" y="-63.5" font-family="Helvetica,sans-Serif" font-size="10.00">tests/test_svp.cpp</text>
</a>
</g>
</g>
<!-- Node5&#45;&gt;Node16 -->
<g id="edge16" class="edge"><title>Node5&#45;&gt;Node16</title>
<path fill="none" stroke="midnightblue" d="M550.174,-117.282C623.476,-110.201 786.318,-93.8811 923,-76 926.185,-75.5833 929.464,-75.1356 932.767,-74.6705"/>
<polygon fill="midnightblue" stroke="midnightblue" points="549.641,-113.817 540.022,-118.259 550.311,-120.785 549.641,-113.817"/>
</g>
<!-- Node8 -->
<g id="node9" class="node"><title>Node8</title>
<g id="a_node9"><a xlink:href="main_8cpp.html" target="_top" xlink:title="fplll/main.cpp">
<polygon fill="white" stroke="black" points="1044,-0.5 1044,-19.5 1118,-19.5 1118,-0.5 1044,-0.5"/>
<text text-anchor="middle" x="1081" y="-7.5" font-family="Helvetica,sans-Serif" font-size="10.00">fplll/main.cpp</text>
</a>
</g>
</g>
<!-- Node7&#45;&gt;Node8 -->
<g id="edge8" class="edge"><title>Node7&#45;&gt;Node8</title>
<path fill="none" stroke="midnightblue" d="M1081,-45.8045C1081,-36.9102 1081,-26.7798 1081,-19.7511"/>
<polygon fill="midnightblue" stroke="midnightblue" points="1077.5,-46.083 1081,-56.083 1084.5,-46.083 1077.5,-46.083"/>
</g>
<!-- Node18&#45;&gt;Node6 -->
<g id="edge20" class="edge"><title>Node18&#45;&gt;Node6</title>
<path fill="none" stroke="midnightblue" d="M84.6862,-106.101C72.0883,-96.3824 56.0719,-84.0269 45.4513,-75.8339"/>
<polygon fill="midnightblue" stroke="midnightblue" points="82.6976,-108.987 92.7533,-112.324 86.9733,-103.445 82.6976,-108.987"/>
</g>
</g>
</svg>
