<?xml version="1.0" encoding="UTF-8" standalone="no"?>
<!DOCTYPE svg PUBLIC "-//W3C//DTD SVG 1.1//EN"
 "http://www.w3.org/Graphics/SVG/1.1/DTD/svg11.dtd">
<!-- Generated by graphviz version 2.43.0 (0)
 -->
<!-- Title: fplll/enum/evaluator.h Pages: 1 -->
<svg width="1888pt" height="419pt"
 viewBox="0.00 0.00 1887.94 419.00" xmlns="http://www.w3.org/2000/svg" xmlns:xlink="http://www.w3.org/1999/xlink">
<g id="graph0" class="graph" transform="scale(1 1) rotate(0) translate(4 415)">
<title>fplll/enum/evaluator.h</title>
<polygon fill="white" stroke="transparent" points="-4,4 -4,-415 1883.94,-415 1883.94,4 -4,4"/>
<!-- Node1 -->
<g id="node1" class="node">
<title>Node1</title>
<g id="a_node1"><a xlink:title=" ">
<polygon fill="#bfbfbf" stroke="black" points="1460.44,-391.5 1460.44,-410.5 1569.44,-410.5 1569.44,-391.5 1460.44,-391.5"/>
<text text-anchor="middle" x="1514.94" y="-398.5" font-family="Helvetica,sans-Serif" font-size="10.00">fplll/enum/evaluator.h</text>
</a>
</g>
</g>
<!-- Node2 -->
<g id="node2" class="node">
<title>Node2</title>
<g id="a_node2"><a xlink:href="bkz_8h.html" target="_top" xlink:title=" ">
<polygon fill="white" stroke="black" points="1295.44,-196 1295.44,-215 1354.44,-215 1354.44,-196 1295.44,-196"/>
<text text-anchor="middle" x="1324.94" y="-203" font-family="Helvetica,sans-Serif" font-size="10.00">fplll/bkz.h</text>
</a>
</g>
</g>
<!-- Node1&#45;&gt;Node2 -->
<g id="edge1" class="edge">
<title>Node1&#45;&gt;Node2</title>
<path fill="none" stroke="midnightblue" d="M1499.3,-384.07C1460.99,-345.06 1363.43,-245.71 1333.68,-215.41"/>
<polygon fill="midnightblue" stroke="midnightblue" points="1497.02,-386.75 1506.53,-391.44 1502.02,-381.85 1497.02,-386.75"/>
</g>
<!-- Node31 -->
<g id="node31" class="node">
<title>Node31</title>
<g id="a_node31"><a xlink:href="enumerate_8h.html" target="_top" xlink:title=" ">
<polygon fill="white" stroke="black" points="1415.94,-263 1415.94,-282 1531.94,-282 1531.94,-263 1415.94,-263"/>
<text text-anchor="middle" x="1473.94" y="-270" font-family="Helvetica,sans-Serif" font-size="10.00">fplll/enum/enumerate.h</text>
</a>
</g>
</g>
<!-- Node1&#45;&gt;Node31 -->
<g id="edge45" class="edge">
<title>Node1&#45;&gt;Node31</title>
<path fill="none" stroke="midnightblue" d="M1505.18,-382.39C1500.97,-374.24 1496.25,-364.32 1492.94,-355 1483.78,-329.27 1477.82,-297.38 1475.31,-282.25"/>
<polygon fill="midnightblue" stroke="midnightblue" points="1502.14,-384.13 1509.94,-391.29 1508.31,-380.82 1502.14,-384.13"/>
</g>
<!-- Node34 -->
<g id="node34" class="node">
<title>Node34</title>
<g id="a_node34"><a xlink:href="enumerate__ext_8h.html" target="_top" xlink:title=" ">
<polygon fill="white" stroke="black" points="1502.44,-324.5 1502.44,-354.5 1609.44,-354.5 1609.44,-324.5 1502.44,-324.5"/>
<text text-anchor="start" x="1510.44" y="-342.5" font-family="Helvetica,sans-Serif" font-size="10.00">fplll/enum/enumerate</text>
<text text-anchor="middle" x="1555.94" y="-331.5" font-family="Helvetica,sans-Serif" font-size="10.00">_ext.h</text>
</a>
</g>
</g>
<!-- Node1&#45;&gt;Node34 -->
<g id="edge51" class="edge">
<title>Node1&#45;&gt;Node34</title>
<path fill="none" stroke="midnightblue" d="M1526.68,-382.96C1532.88,-373.96 1540.41,-363.03 1546.27,-354.52"/>
<polygon fill="midnightblue" stroke="midnightblue" points="1523.6,-381.25 1520.81,-391.48 1529.37,-385.23 1523.6,-381.25"/>
</g>
<!-- Node40 -->
<g id="node40" class="node">
<title>Node40</title>
<g id="a_node40"><a xlink:href="evaluator_8cpp.html" target="_top" xlink:title=" ">
<polygon fill="white" stroke="black" points="1627.44,-330 1627.44,-349 1746.44,-349 1746.44,-330 1627.44,-330"/>
<text text-anchor="middle" x="1686.94" y="-337" font-family="Helvetica,sans-Serif" font-size="10.00">fplll/enum/evaluator.cpp</text>
</a>
</g>
</g>
<!-- Node1&#45;&gt;Node40 -->
<g id="edge60" class="edge">
<title>Node1&#45;&gt;Node40</title>
<path fill="none" stroke="midnightblue" d="M1549.39,-388.08C1582.82,-376.52 1632.73,-359.25 1662.34,-349.01"/>
<polygon fill="midnightblue" stroke="midnightblue" points="1547.89,-384.9 1539.58,-391.48 1550.17,-391.51 1547.89,-384.9"/>
</g>
<!-- Node3 -->
<g id="node3" class="node">
<title>Node3</title>
<g id="a_node3"><a xlink:href="bkz_8cpp.html" target="_top" xlink:title=" ">
<polygon fill="white" stroke="black" points="1319.44,-129 1319.44,-148 1388.44,-148 1388.44,-129 1319.44,-129"/>
<text text-anchor="middle" x="1353.94" y="-136" font-family="Helvetica,sans-Serif" font-size="10.00">fplll/bkz.cpp</text>
</a>
</g>
</g>
<!-- Node2&#45;&gt;Node3 -->
<g id="edge2" class="edge">
<title>Node2&#45;&gt;Node3</title>
<path fill="none" stroke="midnightblue" d="M1333.06,-186.29C1338.63,-173.81 1345.77,-157.81 1350.09,-148.13"/>
<polygon fill="midnightblue" stroke="midnightblue" points="1329.73,-185.18 1328.85,-195.73 1336.12,-188.03 1329.73,-185.18"/>
</g>
<!-- Node4 -->
<g id="node4" class="node">
<title>Node4</title>
<g id="a_node4"><a xlink:href="fplll_8h.html" target="_top" xlink:title=" ">
<polygon fill="white" stroke="black" points="932.94,-129 932.94,-148 990.94,-148 990.94,-129 932.94,-129"/>
<text text-anchor="middle" x="961.94" y="-136" font-family="Helvetica,sans-Serif" font-size="10.00">fplll/fplll.h</text>
</a>
</g>
</g>
<!-- Node2&#45;&gt;Node4 -->
<g id="edge3" class="edge">
<title>Node2&#45;&gt;Node4</title>
<path fill="none" stroke="midnightblue" d="M1284.97,-197.34C1211.3,-184.15 1055.68,-156.29 991.04,-144.71"/>
<polygon fill="midnightblue" stroke="midnightblue" points="1284.77,-200.86 1295.23,-199.18 1286,-193.97 1284.77,-200.86"/>
</g>
<!-- Node5 -->
<g id="node5" class="node">
<title>Node5</title>
<g id="a_node5"><a xlink:href="fplll_8cpp.html" target="_top" xlink:title=" ">
<polygon fill="white" stroke="black" points="1811.94,-62 1811.94,-81 1879.94,-81 1879.94,-62 1811.94,-62"/>
<text text-anchor="middle" x="1845.94" y="-69" font-family="Helvetica,sans-Serif" font-size="10.00">fplll/fplll.cpp</text>
</a>
</g>
</g>
<!-- Node4&#45;&gt;Node5 -->
<g id="edge4" class="edge">
<title>Node4&#45;&gt;Node5</title>
<path fill="none" stroke="midnightblue" d="M1001.02,-135.76C1156.14,-128.79 1723.73,-102.45 1802.94,-87 1810.05,-85.61 1817.6,-83.35 1824.36,-81.02"/>
<polygon fill="midnightblue" stroke="midnightblue" points="1000.83,-132.27 990.99,-136.21 1001.14,-139.26 1000.83,-132.27"/>
</g>
<!-- Node6 -->
<g id="node6" class="node">
<title>Node6</title>
<g id="a_node6"><a xlink:href="main_8h.html" target="_top" xlink:title=" ">
<polygon fill="white" stroke="black" points="1729.94,-62 1729.94,-81 1793.94,-81 1793.94,-62 1729.94,-62"/>
<text text-anchor="middle" x="1761.94" y="-69" font-family="Helvetica,sans-Serif" font-size="10.00">fplll/main.h</text>
</a>
</g>
</g>
<!-- Node4&#45;&gt;Node6 -->
<g id="edge5" class="edge">
<title>Node4&#45;&gt;Node6</title>
<path fill="none" stroke="midnightblue" d="M1001.39,-136.1C1136.03,-131.13 1576.75,-113.21 1715.94,-87 1723.34,-85.61 1731.23,-83.4 1738.34,-81.12"/>
<polygon fill="midnightblue" stroke="midnightblue" points="1001,-132.61 991.14,-136.48 1001.26,-139.61 1001,-132.61"/>
</g>
<!-- Node8 -->
<g id="node8" class="node">
<title>Node8</title>
<g id="a_node8"><a xlink:href="pruner_8cpp.html" target="_top" xlink:title=" ">
<polygon fill="white" stroke="black" points="226.94,-0.5 226.94,-19.5 336.94,-19.5 336.94,-0.5 226.94,-0.5"/>
<text text-anchor="middle" x="281.94" y="-7.5" font-family="Helvetica,sans-Serif" font-size="10.00">fplll/pruner/pruner.cpp</text>
</a>
</g>
</g>
<!-- Node4&#45;&gt;Node8 -->
<g id="edge7" class="edge">
<title>Node4&#45;&gt;Node8</title>
<path fill="none" stroke="midnightblue" d="M922.8,-136.92C747.18,-134.12 38.95,-120.75 6.94,-87 -2.55,-77 -1.99,-66.5 6.94,-56 34.58,-23.46 154.83,-14.4 226.84,-11.91"/>
<polygon fill="midnightblue" stroke="midnightblue" points="922.83,-140.42 932.89,-137.08 922.94,-133.42 922.83,-140.42"/>
</g>
<!-- Node9 -->
<g id="node9" class="node">
<title>Node9</title>
<g id="a_node9"><a xlink:href="pruner__cost_8cpp.html" target="_top" xlink:title=" ">
<polygon fill="white" stroke="black" points="579.94,-56.5 579.94,-86.5 671.94,-86.5 671.94,-56.5 579.94,-56.5"/>
<text text-anchor="start" x="587.94" y="-74.5" font-family="Helvetica,sans-Serif" font-size="10.00">fplll/pruner/pruner</text>
<text text-anchor="middle" x="625.94" y="-63.5" font-family="Helvetica,sans-Serif" font-size="10.00">_cost.cpp</text>
</a>
</g>
</g>
<!-- Node4&#45;&gt;Node9 -->
<g id="edge8" class="edge">
<title>Node4&#45;&gt;Node9</title>
<path fill="none" stroke="midnightblue" d="M922.73,-131.47C868.23,-122.86 766.64,-105.97 680.94,-87 678.04,-86.36 675.07,-85.67 672.08,-84.95"/>
<polygon fill="midnightblue" stroke="midnightblue" points="922.24,-134.94 932.66,-133.03 923.32,-128.02 922.24,-134.94"/>
</g>
<!-- Node10 -->
<g id="node10" class="node">
<title>Node10</title>
<g id="a_node10"><a xlink:href="pruner__optimize_8cpp.html" target="_top" xlink:title=" ">
<polygon fill="white" stroke="black" points="125.94,-56.5 125.94,-86.5 217.94,-86.5 217.94,-56.5 125.94,-56.5"/>
<text text-anchor="start" x="133.94" y="-74.5" font-family="Helvetica,sans-Serif" font-size="10.00">fplll/pruner/pruner</text>
<text text-anchor="middle" x="171.94" y="-63.5" font-family="Helvetica,sans-Serif" font-size="10.00">_optimize.cpp</text>
</a>
</g>
</g>
<!-- Node4&#45;&gt;Node10 -->
<g id="edge10" class="edge">
<title>Node4&#45;&gt;Node10</title>
<path fill="none" stroke="midnightblue" d="M922.63,-137.4C812.21,-136.58 490.1,-130.33 226.94,-87 224.01,-86.52 221.02,-85.95 218.01,-85.32"/>
<polygon fill="midnightblue" stroke="midnightblue" points="922.62,-140.9 932.64,-137.47 922.67,-133.9 922.62,-140.9"/>
</g>
<!-- Node11 -->
<g id="node11" class="node">
<title>Node11</title>
<g id="a_node11"><a xlink:href="pruner__optimize__tc_8cpp.html" target="_top" xlink:title=" ">
<polygon fill="white" stroke="black" points="15.94,-56.5 15.94,-86.5 107.94,-86.5 107.94,-56.5 15.94,-56.5"/>
<text text-anchor="start" x="23.94" y="-74.5" font-family="Helvetica,sans-Serif" font-size="10.00">fplll/pruner/pruner</text>
<text text-anchor="middle" x="61.94" y="-63.5" font-family="Helvetica,sans-Serif" font-size="10.00">_optimize_tc.cpp</text>
</a>
</g>
</g>
<!-- Node4&#45;&gt;Node11 -->
<g id="edge12" class="edge">
<title>Node4&#45;&gt;Node11</title>
<path fill="none" stroke="midnightblue" d="M922.65,-137.9C801.67,-138.56 424.37,-136.21 116.94,-87 114.01,-86.53 111.02,-85.97 108.01,-85.35"/>
<polygon fill="midnightblue" stroke="midnightblue" points="922.92,-141.4 932.89,-137.84 922.87,-134.4 922.92,-141.4"/>
</g>
<!-- Node12 -->
<g id="node12" class="node">
<title>Node12</title>
<g id="a_node12"><a xlink:href="pruner__optimize__tp_8cpp.html" target="_top" xlink:title=" ">
<polygon fill="white" stroke="black" points="235.94,-56.5 235.94,-86.5 327.94,-86.5 327.94,-56.5 235.94,-56.5"/>
<text text-anchor="start" x="243.94" y="-74.5" font-family="Helvetica,sans-Serif" font-size="10.00">fplll/pruner/pruner</text>
<text text-anchor="middle" x="281.94" y="-63.5" font-family="Helvetica,sans-Serif" font-size="10.00">_optimize_tp.cpp</text>
</a>
</g>
</g>
<!-- Node4&#45;&gt;Node12 -->
<g id="edge14" class="edge">
<title>Node4&#45;&gt;Node12</title>
<path fill="none" stroke="midnightblue" d="M922.59,-136.74C823.55,-134.29 556.17,-124.45 336.94,-87 334.02,-86.5 331.02,-85.92 328.02,-85.28"/>
<polygon fill="midnightblue" stroke="midnightblue" points="922.66,-140.24 932.74,-136.97 922.82,-133.24 922.66,-140.24"/>
</g>
<!-- Node13 -->
<g id="node13" class="node">
<title>Node13</title>
<g id="a_node13"><a xlink:href="pruner__prob_8cpp.html" target="_top" xlink:title=" ">
<polygon fill="white" stroke="black" points="345.94,-56.5 345.94,-86.5 437.94,-86.5 437.94,-56.5 345.94,-56.5"/>
<text text-anchor="start" x="353.94" y="-74.5" font-family="Helvetica,sans-Serif" font-size="10.00">fplll/pruner/pruner</text>
<text text-anchor="middle" x="391.94" y="-63.5" font-family="Helvetica,sans-Serif" font-size="10.00">_prob.cpp</text>
</a>
</g>
</g>
<!-- Node4&#45;&gt;Node13 -->
<g id="edge16" class="edge">
<title>Node4&#45;&gt;Node13</title>
<path fill="none" stroke="midnightblue" d="M922.51,-135.79C835.87,-131.56 622.64,-118.57 446.94,-87 444.02,-86.48 441.03,-85.88 438.03,-85.22"/>
<polygon fill="midnightblue" stroke="midnightblue" points="922.52,-139.29 932.67,-136.27 922.85,-132.3 922.52,-139.29"/>
</g>
<!-- Node14 -->
<g id="node14" class="node">
<title>Node14</title>
<g id="a_node14"><a xlink:href="pruner__util_8cpp.html" target="_top" xlink:title=" ">
<polygon fill="white" stroke="black" points="689.94,-56.5 689.94,-86.5 781.94,-86.5 781.94,-56.5 689.94,-56.5"/>
<text text-anchor="start" x="697.94" y="-74.5" font-family="Helvetica,sans-Serif" font-size="10.00">fplll/pruner/pruner</text>
<text text-anchor="middle" x="735.94" y="-63.5" font-family="Helvetica,sans-Serif" font-size="10.00">_util.cpp</text>
</a>
</g>
</g>
<!-- Node4&#45;&gt;Node14 -->
<g id="edge18" class="edge">
<title>Node4&#45;&gt;Node14</title>
<path fill="none" stroke="midnightblue" d="M923.15,-126.35C884.05,-115.1 823.7,-97.74 782.15,-85.79"/>
<polygon fill="midnightblue" stroke="midnightblue" points="922.28,-129.73 932.85,-129.14 924.21,-123.01 922.28,-129.73"/>
</g>
<!-- Node15 -->
<g id="node15" class="node">
<title>Node15</title>
<g id="a_node15"><a xlink:href="test__babai_8cpp.html" target="_top" xlink:title=" ">
<polygon fill="white" stroke="black" points="456.44,-62 456.44,-81 561.44,-81 561.44,-62 456.44,-62"/>
<text text-anchor="middle" x="508.94" y="-69" font-family="Helvetica,sans-Serif" font-size="10.00">tests/test_babai.cpp</text>
</a>
</g>
</g>
<!-- Node4&#45;&gt;Node15 -->
<g id="edge20" class="edge">
<title>Node4&#45;&gt;Node15</title>
<path fill="none" stroke="midnightblue" d="M922.62,-133.75C851.91,-126.72 698.74,-110.14 570.94,-87 561.69,-85.33 551.75,-83.17 542.59,-81.03"/>
<polygon fill="midnightblue" stroke="midnightblue" points="922.55,-137.26 932.84,-134.76 923.23,-130.3 922.55,-137.26"/>
</g>
<!-- Node16 -->
<g id="node16" class="node">
<title>Node16</title>
<g id="a_node16"><a xlink:href="test__bkz_8cpp.html" target="_top" xlink:title=" ">
<polygon fill="white" stroke="black" points="494.94,-0.5 494.94,-19.5 592.94,-19.5 592.94,-0.5 494.94,-0.5"/>
<text text-anchor="middle" x="543.94" y="-7.5" font-family="Helvetica,sans-Serif" font-size="10.00">tests/test_bkz.cpp</text>
</a>
</g>
</g>
<!-- Node4&#45;&gt;Node16 -->
<g id="edge21" class="edge">
<title>Node4&#45;&gt;Node16</title>
<path fill="none" stroke="midnightblue" d="M923.24,-127.88C894.48,-119.68 855.02,-106.16 823.94,-87 806.81,-76.44 808.9,-65.06 790.94,-56 782.14,-51.56 662.63,-30.96 593.14,-19.23"/>
<polygon fill="midnightblue" stroke="midnightblue" points="922.36,-131.27 932.93,-130.56 924.22,-124.52 922.36,-131.27"/>
</g>
<!-- Node17 -->
<g id="node17" class="node">
<title>Node17</title>
<g id="a_node17"><a xlink:href="test__bkz__gram_8cpp.html" target="_top" xlink:title=" ">
<polygon fill="white" stroke="black" points="611.44,-0.5 611.44,-19.5 736.44,-19.5 736.44,-0.5 611.44,-0.5"/>
<text text-anchor="middle" x="673.94" y="-7.5" font-family="Helvetica,sans-Serif" font-size="10.00">tests/test_bkz_gram.cpp</text>
</a>
</g>
</g>
<!-- Node4&#45;&gt;Node17 -->
<g id="edge22" class="edge">
<title>Node4&#45;&gt;Node17</title>
<path fill="none" stroke="midnightblue" d="M932.57,-124.72C912.14,-115.34 884.61,-101.72 861.94,-87 843.66,-75.13 843.19,-66.22 823.94,-56 790.55,-38.29 749.2,-26.54 718.37,-19.51"/>
<polygon fill="midnightblue" stroke="midnightblue" points="931.14,-127.92 941.69,-128.84 934.02,-121.54 931.14,-127.92"/>
</g>
<!-- Node18 -->
<g id="node18" class="node">
<title>Node18</title>
<g id="a_node18"><a xlink:href="test__ceil_8cpp.html" target="_top" xlink:title=" ">
<polygon fill="white" stroke="black" points="1174.44,-62 1174.44,-81 1271.44,-81 1271.44,-62 1174.44,-62"/>
<text text-anchor="middle" x="1222.94" y="-69" font-family="Helvetica,sans-Serif" font-size="10.00">tests/test_ceil.cpp</text>
</a>
</g>
</g>
<!-- Node4&#45;&gt;Node18 -->
<g id="edge23" class="edge">
<title>Node4&#45;&gt;Node18</title>
<path fill="none" stroke="midnightblue" d="M1001.08,-127.75C1052,-115.07 1140.15,-93.12 1188.59,-81.05"/>
<polygon fill="midnightblue" stroke="midnightblue" points="999.97,-124.42 991.12,-130.23 1001.67,-131.21 999.97,-124.42"/>
</g>
<!-- Node19 -->
<g id="node19" class="node">
<title>Node19</title>
<g id="a_node19"><a xlink:href="test__counter_8cpp.html" target="_top" xlink:title=" ">
<polygon fill="white" stroke="black" points="1289.44,-62 1289.44,-81 1402.44,-81 1402.44,-62 1289.44,-62"/>
<text text-anchor="middle" x="1345.94" y="-69" font-family="Helvetica,sans-Serif" font-size="10.00">tests/test_counter.cpp</text>
</a>
</g>
</g>
<!-- Node4&#45;&gt;Node19 -->
<g id="edge24" class="edge">
<title>Node4&#45;&gt;Node19</title>
<path fill="none" stroke="midnightblue" d="M1001.16,-132.03C1061.33,-123.47 1179.93,-105.91 1279.94,-87 1289.39,-85.21 1299.56,-83.08 1309.01,-81.01"/>
<polygon fill="midnightblue" stroke="midnightblue" points="1000.38,-128.6 990.97,-133.47 1001.37,-135.53 1000.38,-128.6"/>
</g>
<!-- Node20 -->
<g id="node20" class="node">
<title>Node20</title>
<g id="a_node20"><a xlink:href="test__cvp_8cpp.html" target="_top" xlink:title=" ">
<polygon fill="white" stroke="black" points="754.94,-0.5 754.94,-19.5 852.94,-19.5 852.94,-0.5 754.94,-0.5"/>
<text text-anchor="middle" x="803.94" y="-7.5" font-family="Helvetica,sans-Serif" font-size="10.00">tests/test_cvp.cpp</text>
</a>
</g>
</g>
<!-- Node4&#45;&gt;Node20 -->
<g id="edge25" class="edge">
<title>Node4&#45;&gt;Node20</title>
<path fill="none" stroke="midnightblue" d="M943.53,-122.28C923.54,-105.8 890.64,-78.83 861.94,-56 845.78,-43.15 826.84,-28.54 815.12,-19.55"/>
<polygon fill="midnightblue" stroke="midnightblue" points="941.55,-125.18 951.49,-128.85 946.01,-119.79 941.55,-125.18"/>
</g>
<!-- Node21 -->
<g id="node21" class="node">
<title>Node21</title>
<g id="a_node21"><a xlink:href="test__enum_8cpp.html" target="_top" xlink:title=" ">
<polygon fill="white" stroke="black" points="870.94,-0.5 870.94,-19.5 976.94,-19.5 976.94,-0.5 870.94,-0.5"/>
<text text-anchor="middle" x="923.94" y="-7.5" font-family="Helvetica,sans-Serif" font-size="10.00">tests/test_enum.cpp</text>
</a>
</g>
</g>
<!-- Node4&#45;&gt;Node21 -->
<g id="edge26" class="edge">
<title>Node4&#45;&gt;Node21</title>
<path fill="none" stroke="midnightblue" d="M956.43,-119.17C948.13,-91.53 932.71,-40.22 926.57,-19.76"/>
<polygon fill="midnightblue" stroke="midnightblue" points="953.1,-120.23 959.32,-128.81 959.8,-118.22 953.1,-120.23"/>
</g>
<!-- Node22 -->
<g id="node22" class="node">
<title>Node22</title>
<g id="a_node22"><a xlink:href="test__hlll_8cpp.html" target="_top" xlink:title=" ">
<polygon fill="white" stroke="black" points="994.94,-0.5 994.94,-19.5 1088.94,-19.5 1088.94,-0.5 994.94,-0.5"/>
<text text-anchor="middle" x="1041.94" y="-7.5" font-family="Helvetica,sans-Serif" font-size="10.00">tests/test_hlll.cpp</text>
</a>
</g>
</g>
<!-- Node4&#45;&gt;Node22 -->
<g id="edge27" class="edge">
<title>Node4&#45;&gt;Node22</title>
<path fill="none" stroke="midnightblue" d="M962.65,-118.8C964.11,-101.28 968.42,-75.01 980.94,-56 991.64,-39.73 1010.36,-27.23 1024.24,-19.58"/>
<polygon fill="midnightblue" stroke="midnightblue" points="959.15,-118.7 962.04,-128.89 966.13,-119.12 959.15,-118.7"/>
</g>
<!-- Node23 -->
<g id="node23" class="node">
<title>Node23</title>
<g id="a_node23"><a xlink:href="test__lll_8cpp.html" target="_top" xlink:title=" ">
<polygon fill="white" stroke="black" points="1223.44,-0.5 1223.44,-19.5 1312.44,-19.5 1312.44,-0.5 1223.44,-0.5"/>
<text text-anchor="middle" x="1267.94" y="-7.5" font-family="Helvetica,sans-Serif" font-size="10.00">tests/test_lll.cpp</text>
</a>
</g>
</g>
<!-- Node4&#45;&gt;Node23 -->
<g id="edge28" class="edge">
<title>Node4&#45;&gt;Node23</title>
<path fill="none" stroke="midnightblue" d="M998.04,-125.56C1023.79,-116.44 1058.87,-102.79 1087.94,-87 1108.96,-75.58 1110.57,-66.76 1131.94,-56 1164.7,-39.5 1204.85,-27.07 1233.01,-19.5"/>
<polygon fill="midnightblue" stroke="midnightblue" points="996.61,-122.35 988.31,-128.95 998.91,-128.96 996.61,-122.35"/>
</g>
<!-- Node24 -->
<g id="node24" class="node">
<title>Node24</title>
<g id="a_node24"><a xlink:href="test__lll__gram_8cpp.html" target="_top" xlink:title=" ">
<polygon fill="white" stroke="black" points="1329.94,-0.5 1329.94,-19.5 1445.94,-19.5 1445.94,-0.5 1329.94,-0.5"/>
<text text-anchor="middle" x="1387.94" y="-7.5" font-family="Helvetica,sans-Serif" font-size="10.00">tests/test_lll_gram.cpp</text>
</a>
</g>
</g>
<!-- Node4&#45;&gt;Node24 -->
<g id="edge29" class="edge">
<title>Node4&#45;&gt;Node24</title>
<path fill="none" stroke="midnightblue" d="M1001.14,-129.3C1034.89,-121.31 1084.28,-107.38 1123.94,-87 1144.25,-76.56 1144.11,-65.38 1164.94,-56 1194.01,-42.9 1275.15,-28.42 1331.1,-19.51"/>
<polygon fill="midnightblue" stroke="midnightblue" points="1000.16,-125.94 991.2,-131.59 1001.73,-132.76 1000.16,-125.94"/>
</g>
<!-- Node25 -->
<g id="node25" class="node">
<title>Node25</title>
<g id="a_node25"><a xlink:href="test__nr_8cpp.html" target="_top" xlink:title=" ">
<polygon fill="white" stroke="black" points="1420.44,-62 1420.44,-81 1509.44,-81 1509.44,-62 1420.44,-62"/>
<text text-anchor="middle" x="1464.94" y="-69" font-family="Helvetica,sans-Serif" font-size="10.00">tests/test_nr.cpp</text>
</a>
</g>
</g>
<!-- Node4&#45;&gt;Node25 -->
<g id="edge30" class="edge">
<title>Node4&#45;&gt;Node25</title>
<path fill="none" stroke="midnightblue" d="M1001.44,-135.06C1079.99,-129.77 1261.14,-115.37 1410.94,-87 1419.23,-85.43 1428.13,-83.25 1436.26,-81.06"/>
<polygon fill="midnightblue" stroke="midnightblue" points="1000.8,-131.6 991.05,-135.75 1001.26,-138.58 1000.8,-131.6"/>
</g>
<!-- Node26 -->
<g id="node26" class="node">
<title>Node26</title>
<g id="a_node26"><a xlink:href="test__pruner_8cpp.html" target="_top" xlink:title=" ">
<polygon fill="white" stroke="black" points="1527.94,-62 1527.94,-81 1635.94,-81 1635.94,-62 1527.94,-62"/>
<text text-anchor="middle" x="1581.94" y="-69" font-family="Helvetica,sans-Serif" font-size="10.00">tests/test_pruner.cpp</text>
</a>
</g>
</g>
<!-- Node4&#45;&gt;Node26 -->
<g id="edge31" class="edge">
<title>Node4&#45;&gt;Node26</title>
<path fill="none" stroke="midnightblue" d="M1001.2,-135.72C1092.4,-131.2 1325.46,-117.41 1517.94,-87 1527.84,-85.44 1538.5,-83.23 1548.22,-81.02"/>
<polygon fill="midnightblue" stroke="midnightblue" points="1000.86,-132.23 991.04,-136.22 1001.2,-139.23 1000.86,-132.23"/>
</g>
<!-- Node27 -->
<g id="node27" class="node">
<title>Node27</title>
<g id="a_node27"><a xlink:href="test__svp_8cpp.html" target="_top" xlink:title=" ">
<polygon fill="white" stroke="black" points="1464.94,-0.5 1464.94,-19.5 1562.94,-19.5 1562.94,-0.5 1464.94,-0.5"/>
<text text-anchor="middle" x="1513.94" y="-7.5" font-family="Helvetica,sans-Serif" font-size="10.00">tests/test_svp.cpp</text>
</a>
</g>
</g>
<!-- Node4&#45;&gt;Node27 -->
<g id="edge32" class="edge">
<title>Node4&#45;&gt;Node27</title>
<path fill="none" stroke="midnightblue" d="M1001.07,-136.06C1142.92,-130.68 1622.88,-110.74 1644.94,-87 1675.62,-53.96 1606.4,-31.08 1557.36,-19.58"/>
<polygon fill="midnightblue" stroke="midnightblue" points="1000.93,-132.57 991.07,-136.44 1001.2,-139.56 1000.93,-132.57"/>
</g>
<!-- Node28 -->
<g id="node28" class="node">
<title>Node28</title>
<g id="a_node28"><a xlink:href="test__svp__gram_8cpp.html" target="_top" xlink:title=" ">
<polygon fill="white" stroke="black" points="1581.44,-0.5 1581.44,-19.5 1706.44,-19.5 1706.44,-0.5 1581.44,-0.5"/>
<text text-anchor="middle" x="1643.94" y="-7.5" font-family="Helvetica,sans-Serif" font-size="10.00">tests/test_svp_gram.cpp</text>
</a>
</g>
</g>
<!-- Node4&#45;&gt;Node28 -->
<g id="edge33" class="edge">
<title>Node4&#45;&gt;Node28</title>
<path fill="none" stroke="midnightblue" d="M1001.13,-136.14C1145.47,-130.94 1640.23,-111.4 1662.94,-87 1680.54,-68.08 1661.55,-35.38 1650.58,-19.78"/>
<polygon fill="midnightblue" stroke="midnightblue" points="1000.83,-132.65 990.97,-136.5 1001.08,-139.64 1000.83,-132.65"/>
</g>
<!-- Node29 -->
<g id="node29" class="node">
<title>Node29</title>
<g id="a_node29"><a xlink:href="test__utils_8h.html" target="_top" xlink:title=" ">
<polygon fill="white" stroke="black" points="990.44,-62 990.44,-81 1079.44,-81 1079.44,-62 990.44,-62"/>
<text text-anchor="middle" x="1034.94" y="-69" font-family="Helvetica,sans-Serif" font-size="10.00">tests/test_utils.h</text>
</a>
</g>
</g>
<!-- Node4&#45;&gt;Node29 -->
<g id="edge34" class="edge">
<title>Node4&#45;&gt;Node29</title>
<path fill="none" stroke="midnightblue" d="M979.51,-121.86C993.86,-109.08 1013.61,-91.49 1025.25,-81.13"/>
<polygon fill="midnightblue" stroke="midnightblue" points="976.92,-119.47 971.78,-128.73 981.58,-124.7 976.92,-119.47"/>
</g>
<!-- Node7 -->
<g id="node7" class="node">
<title>Node7</title>
<g id="a_node7"><a xlink:href="main_8cpp.html" target="_top" xlink:title=" ">
<polygon fill="white" stroke="black" points="1724.94,-0.5 1724.94,-19.5 1798.94,-19.5 1798.94,-0.5 1724.94,-0.5"/>
<text text-anchor="middle" x="1761.94" y="-7.5" font-family="Helvetica,sans-Serif" font-size="10.00">fplll/main.cpp</text>
</a>
</g>
</g>
<!-- Node6&#45;&gt;Node7 -->
<g id="edge6" class="edge">
<title>Node6&#45;&gt;Node7</title>
<path fill="none" stroke="midnightblue" d="M1761.94,-51.82C1761.94,-41 1761.94,-27.9 1761.94,-19.51"/>
<polygon fill="midnightblue" stroke="midnightblue" points="1758.44,-51.98 1761.94,-61.98 1765.44,-51.98 1758.44,-51.98"/>
</g>
<!-- Node9&#45;&gt;Node8 -->
<g id="edge9" class="edge">
<title>Node9&#45;&gt;Node8</title>
<path fill="none" stroke="midnightblue" d="M570.24,-56.06C570.14,-56.04 570.04,-56.02 569.94,-56 489.53,-39.35 395.36,-25.73 337.17,-17.99"/>
<polygon fill="midnightblue" stroke="midnightblue" points="569.36,-59.45 579.88,-58.19 570.87,-52.62 569.36,-59.45"/>
</g>
<!-- Node10&#45;&gt;Node8 -->
<g id="edge11" class="edge">
<title>Node10&#45;&gt;Node8</title>
<path fill="none" stroke="midnightblue" d="M207.05,-51.51C226.82,-40.81 250.56,-27.97 265.93,-19.66"/>
<polygon fill="midnightblue" stroke="midnightblue" points="205.14,-48.56 198,-56.4 208.47,-54.72 205.14,-48.56"/>
</g>
<!-- Node11&#45;&gt;Node8 -->
<g id="edge13" class="edge">
<title>Node11&#45;&gt;Node8</title>
<path fill="none" stroke="midnightblue" d="M117.87,-55.37C159.89,-44.01 215.91,-28.86 250.43,-19.52"/>
<polygon fill="midnightblue" stroke="midnightblue" points="116.79,-52.04 108.06,-58.03 118.62,-58.79 116.79,-52.04"/>
</g>
<!-- Node12&#45;&gt;Node8 -->
<g id="edge15" class="edge">
<title>Node12&#45;&gt;Node8</title>
<path fill="none" stroke="midnightblue" d="M281.94,-46.29C281.94,-36.86 281.94,-26.65 281.94,-19.66"/>
<polygon fill="midnightblue" stroke="midnightblue" points="278.44,-46.4 281.94,-56.4 285.44,-46.4 278.44,-46.4"/>
</g>
<!-- Node13&#45;&gt;Node8 -->
<g id="edge17" class="edge">
<title>Node13&#45;&gt;Node8</title>
<path fill="none" stroke="midnightblue" d="M356.82,-51.51C337.05,-40.81 313.31,-27.97 297.94,-19.66"/>
<polygon fill="midnightblue" stroke="midnightblue" points="355.41,-54.72 365.87,-56.4 358.74,-48.56 355.41,-54.72"/>
</g>
<!-- Node14&#45;&gt;Node8 -->
<g id="edge19" class="edge">
<title>Node14&#45;&gt;Node8</title>
<path fill="none" stroke="midnightblue" d="M679.86,-55.97C552,-32.59 412.56,-20.26 337.17,-14.68"/>
<polygon fill="midnightblue" stroke="midnightblue" points="679.36,-59.44 689.83,-57.83 680.64,-52.56 679.36,-59.44"/>
</g>
<!-- Node29&#45;&gt;Node16 -->
<g id="edge35" class="edge">
<title>Node29&#45;&gt;Node16</title>
<path fill="none" stroke="midnightblue" d="M980.18,-64.79C897.94,-56.05 737.68,-38.44 601.94,-20 599.01,-19.6 596,-19.18 592.96,-18.74"/>
<polygon fill="midnightblue" stroke="midnightblue" points="979.98,-68.28 990.3,-65.86 980.72,-61.32 979.98,-68.28"/>
</g>
<!-- Node29&#45;&gt;Node17 -->
<g id="edge36" class="edge">
<title>Node29&#45;&gt;Node17</title>
<path fill="none" stroke="midnightblue" d="M980.07,-61.46C911.03,-50.08 793.32,-30.68 725.75,-19.54"/>
<polygon fill="midnightblue" stroke="midnightblue" points="979.87,-64.97 990.31,-63.14 981.01,-58.06 979.87,-64.97"/>
</g>
<!-- Node29&#45;&gt;Node20 -->
<g id="edge37" class="edge">
<title>Node29&#45;&gt;Node20</title>
<path fill="none" stroke="midnightblue" d="M992.11,-59.47C947.25,-47.91 877.77,-30.02 836.97,-19.51"/>
<polygon fill="midnightblue" stroke="midnightblue" points="991.28,-62.87 1001.84,-61.98 993.03,-56.09 991.28,-62.87"/>
</g>
<!-- Node29&#45;&gt;Node21 -->
<g id="edge38" class="edge">
<title>Node29&#45;&gt;Node21</title>
<path fill="none" stroke="midnightblue" d="M1010.15,-57.21C988.65,-45.69 958.18,-29.36 939.81,-19.51"/>
<polygon fill="midnightblue" stroke="midnightblue" points="1008.57,-60.34 1019.03,-61.98 1011.87,-54.17 1008.57,-60.34"/>
</g>
<!-- Node29&#45;&gt;Node22 -->
<g id="edge40" class="edge">
<title>Node29&#45;&gt;Node22</title>
<path fill="none" stroke="midnightblue" d="M1037.13,-51.82C1038.41,-41 1039.95,-27.9 1040.93,-19.51"/>
<polygon fill="midnightblue" stroke="midnightblue" points="1033.63,-51.63 1035.94,-61.98 1040.58,-52.45 1033.63,-51.63"/>
</g>
<!-- Node29&#45;&gt;Node23 -->
<g id="edge41" class="edge">
<title>Node29&#45;&gt;Node23</title>
<path fill="none" stroke="midnightblue" d="M1078.14,-59.47C1123.38,-47.91 1193.46,-30.02 1234.61,-19.51"/>
<polygon fill="midnightblue" stroke="midnightblue" points="1077.14,-56.11 1068.32,-61.98 1078.87,-62.89 1077.14,-56.11"/>
</g>
<!-- Node29&#45;&gt;Node24 -->
<g id="edge42" class="edge">
<title>Node29&#45;&gt;Node24</title>
<path fill="none" stroke="midnightblue" d="M1089.69,-61.27C1157.36,-49.86 1271.62,-30.61 1337.33,-19.53"/>
<polygon fill="midnightblue" stroke="midnightblue" points="1088.92,-57.85 1079.64,-62.96 1090.09,-64.75 1088.92,-57.85"/>
</g>
<!-- Node29&#45;&gt;Node27 -->
<g id="edge43" class="edge">
<title>Node29&#45;&gt;Node27</title>
<path fill="none" stroke="midnightblue" d="M1089.8,-64.47C1170.07,-55.51 1324.18,-37.83 1454.94,-20 1458.12,-19.57 1461.4,-19.11 1464.7,-18.63"/>
<polygon fill="midnightblue" stroke="midnightblue" points="1088.99,-61.03 1079.44,-65.62 1089.77,-67.99 1088.99,-61.03"/>
</g>
<!-- Node29&#45;&gt;Node28 -->
<g id="edge44" class="edge">
<title>Node29&#45;&gt;Node28</title>
<path fill="none" stroke="midnightblue" d="M1089.73,-64.11C1112.92,-61.47 1140.23,-58.47 1164.94,-56 1345.63,-37.93 1391.37,-39.27 1571.94,-20 1574.94,-19.68 1578.02,-19.34 1581.12,-18.99"/>
<polygon fill="midnightblue" stroke="midnightblue" points="1089.27,-60.64 1079.73,-65.25 1090.06,-67.59 1089.27,-60.64"/>
</g>
<!-- Node30 -->
<g id="node30" class="node">
<title>Node30</title>
<g id="a_node30"><a xlink:href="test__gso_8cpp.html" target="_top" xlink:title=" ">
<polygon fill="white" stroke="black" points="1106.94,-0.5 1106.94,-19.5 1204.94,-19.5 1204.94,-0.5 1106.94,-0.5"/>
<text text-anchor="middle" x="1155.94" y="-7.5" font-family="Helvetica,sans-Serif" font-size="10.00">tests/test_gso.cpp</text>
</a>
</g>
</g>
<!-- Node29&#45;&gt;Node30 -->
<g id="edge39" class="edge">
<title>Node29&#45;&gt;Node30</title>
<path fill="none" stroke="midnightblue" d="M1061.33,-57.52C1084.8,-45.98 1118.43,-29.44 1138.63,-19.51"/>
<polygon fill="midnightblue" stroke="midnightblue" points="1059.7,-54.42 1052.27,-61.98 1062.79,-60.7 1059.7,-54.42"/>
</g>
<!-- Node31&#45;&gt;Node2 -->
<g id="edge47" class="edge">
<title>Node31&#45;&gt;Node2</title>
<path fill="none" stroke="midnightblue" d="M1444.78,-258.78C1415.27,-245.91 1370.45,-226.35 1344.8,-215.17"/>
<polygon fill="midnightblue" stroke="midnightblue" points="1443.58,-262.08 1454.15,-262.87 1446.38,-255.66 1443.58,-262.08"/>
</g>
<!-- Node31&#45;&gt;Node3 -->
<g id="edge46" class="edge">
<title>Node31&#45;&gt;Node3</title>
<path fill="none" stroke="midnightblue" d="M1449.14,-257.79C1434.23,-248.7 1415.58,-235.77 1401.94,-221 1380.66,-197.96 1364.41,-163.93 1357.53,-148.14"/>
<polygon fill="midnightblue" stroke="midnightblue" points="1447.46,-260.86 1457.85,-262.92 1451.02,-254.83 1447.46,-260.86"/>
</g>
<!-- Node32 -->
<g id="node32" class="node">
<title>Node32</title>
<g id="a_node32"><a xlink:href="enumerate_8cpp.html" target="_top" xlink:title=" ">
<polygon fill="white" stroke="black" points="1410.94,-196 1410.94,-215 1536.94,-215 1536.94,-196 1410.94,-196"/>
<text text-anchor="middle" x="1473.94" y="-203" font-family="Helvetica,sans-Serif" font-size="10.00">fplll/enum/enumerate.cpp</text>
</a>
</g>
</g>
<!-- Node31&#45;&gt;Node32 -->
<g id="edge48" class="edge">
<title>Node31&#45;&gt;Node32</title>
<path fill="none" stroke="midnightblue" d="M1473.94,-252.54C1473.94,-240.17 1473.94,-224.62 1473.94,-215.13"/>
<polygon fill="midnightblue" stroke="midnightblue" points="1470.44,-252.73 1473.94,-262.73 1477.44,-252.73 1470.44,-252.73"/>
</g>
<!-- Node33 -->
<g id="node33" class="node">
<title>Node33</title>
<g id="a_node33"><a xlink:href="svpcvp_8cpp.html" target="_top" xlink:title=" ">
<polygon fill="white" stroke="black" points="1524.44,-129 1524.44,-148 1609.44,-148 1609.44,-129 1524.44,-129"/>
<text text-anchor="middle" x="1566.94" y="-136" font-family="Helvetica,sans-Serif" font-size="10.00">fplll/svpcvp.cpp</text>
</a>
</g>
</g>
<!-- Node31&#45;&gt;Node33 -->
<g id="edge49" class="edge">
<title>Node31&#45;&gt;Node33</title>
<path fill="none" stroke="midnightblue" d="M1502.05,-258.04C1517.17,-249.44 1534.92,-236.9 1545.94,-221 1561.82,-198.06 1565.69,-163.98 1566.63,-148.16"/>
<polygon fill="midnightblue" stroke="midnightblue" points="1500.21,-255.06 1493.06,-262.88 1503.53,-261.22 1500.21,-255.06"/>
</g>
<!-- Node33&#45;&gt;Node5 -->
<g id="edge50" class="edge">
<title>Node33&#45;&gt;Node5</title>
<path fill="none" stroke="midnightblue" d="M1607.69,-126.46C1612.48,-125.25 1617.31,-124.07 1621.94,-123 1701.85,-104.54 1723.69,-108.15 1802.94,-87 1809.33,-85.29 1816.16,-83.15 1822.45,-81.03"/>
<polygon fill="midnightblue" stroke="midnightblue" points="1606.79,-123.08 1597.98,-128.96 1608.53,-129.85 1606.79,-123.08"/>
</g>
<!-- Node34&#45;&gt;Node31 -->
<g id="edge58" class="edge">
<title>Node34&#45;&gt;Node31</title>
<path fill="none" stroke="midnightblue" d="M1530.08,-318.01C1514.86,-305.94 1496.4,-291.3 1484.9,-282.19"/>
<polygon fill="midnightblue" stroke="midnightblue" points="1528.13,-320.93 1538.14,-324.4 1532.48,-315.44 1528.13,-320.93"/>
</g>
<!-- Node35 -->
<g id="node35" class="node">
<title>Node35</title>
<g id="a_node35"><a xlink:href="fplll__types_8h.html" target="_top" xlink:title=" ">
<polygon fill="white" stroke="black" points="1556.94,-257.5 1556.94,-287.5 1648.94,-287.5 1648.94,-257.5 1556.94,-257.5"/>
<text text-anchor="start" x="1564.94" y="-275.5" font-family="Helvetica,sans-Serif" font-size="10.00">fplll/enum&#45;parallel</text>
<text text-anchor="middle" x="1602.94" y="-264.5" font-family="Helvetica,sans-Serif" font-size="10.00">/fplll_types.h</text>
</a>
</g>
</g>
<!-- Node34&#45;&gt;Node35 -->
<g id="edge52" class="edge">
<title>Node34&#45;&gt;Node35</title>
<path fill="none" stroke="midnightblue" d="M1572.09,-316.16C1578.95,-306.68 1586.73,-295.92 1592.76,-287.58"/>
<polygon fill="midnightblue" stroke="midnightblue" points="1569.16,-314.24 1566.13,-324.4 1574.83,-318.34 1569.16,-314.24"/>
</g>
<!-- Node39 -->
<g id="node39" class="node">
<title>Node39</title>
<g id="a_node39"><a xlink:href="enumerate__ext_8cpp.html" target="_top" xlink:title=" ">
<polygon fill="white" stroke="black" points="1667.44,-257.5 1667.44,-287.5 1774.44,-287.5 1774.44,-257.5 1667.44,-257.5"/>
<text text-anchor="start" x="1675.44" y="-275.5" font-family="Helvetica,sans-Serif" font-size="10.00">fplll/enum/enumerate</text>
<text text-anchor="middle" x="1720.94" y="-264.5" font-family="Helvetica,sans-Serif" font-size="10.00">_ext.cpp</text>
</a>
</g>
</g>
<!-- Node34&#45;&gt;Node39 -->
<g id="edge59" class="edge">
<title>Node34&#45;&gt;Node39</title>
<path fill="none" stroke="midnightblue" d="M1601.17,-320.68C1627.63,-310.26 1660.57,-297.28 1685.2,-287.58"/>
<polygon fill="midnightblue" stroke="midnightblue" points="1599.76,-317.47 1591.74,-324.4 1602.33,-323.99 1599.76,-317.47"/>
</g>
<!-- Node36 -->
<g id="node36" class="node">
<title>Node36</title>
<g id="a_node36"><a xlink:href="enumeration_8h.html" target="_top" xlink:title=" ">
<polygon fill="white" stroke="black" points="1630.94,-190.5 1630.94,-220.5 1722.94,-220.5 1722.94,-190.5 1630.94,-190.5"/>
<text text-anchor="start" x="1638.94" y="-208.5" font-family="Helvetica,sans-Serif" font-size="10.00">fplll/enum&#45;parallel</text>
<text text-anchor="middle" x="1676.94" y="-197.5" font-family="Helvetica,sans-Serif" font-size="10.00">/enumeration.h</text>
</a>
</g>
</g>
<!-- Node35&#45;&gt;Node36 -->
<g id="edge53" class="edge">
<title>Node35&#45;&gt;Node36</title>
<path fill="none" stroke="midnightblue" d="M1626.73,-250.6C1637.91,-240.78 1650.93,-229.34 1660.91,-220.58"/>
<polygon fill="midnightblue" stroke="midnightblue" points="1624.2,-248.17 1618.99,-257.4 1628.82,-253.43 1624.2,-248.17"/>
</g>
<!-- Node37 -->
<g id="node37" class="node">
<title>Node37</title>
<g id="a_node37"><a xlink:href="enumlib_8cpp.html" target="_top" xlink:title=" ">
<polygon fill="white" stroke="black" points="1630.94,-123.5 1630.94,-153.5 1722.94,-153.5 1722.94,-123.5 1630.94,-123.5"/>
<text text-anchor="start" x="1638.94" y="-141.5" font-family="Helvetica,sans-Serif" font-size="10.00">fplll/enum&#45;parallel</text>
<text text-anchor="middle" x="1676.94" y="-130.5" font-family="Helvetica,sans-Serif" font-size="10.00">/enumlib.cpp</text>
</a>
</g>
</g>
<!-- Node35&#45;&gt;Node37 -->
<g id="edge55" class="edge">
<title>Node35&#45;&gt;Node37</title>
<path fill="none" stroke="midnightblue" d="M1604.81,-247.08C1607,-230.11 1611.72,-207.5 1621.94,-190 1630.43,-175.45 1644.48,-162.65 1656.26,-153.58"/>
<polygon fill="midnightblue" stroke="midnightblue" points="1601.3,-246.99 1603.71,-257.31 1608.26,-247.74 1601.3,-246.99"/>
</g>
<!-- Node38 -->
<g id="node38" class="node">
<title>Node38</title>
<g id="a_node38"><a xlink:href="enumlib_8h.html" target="_top" xlink:title=" ">
<polygon fill="white" stroke="black" points="1740.94,-190.5 1740.94,-220.5 1832.94,-220.5 1832.94,-190.5 1740.94,-190.5"/>
<text text-anchor="start" x="1748.94" y="-208.5" font-family="Helvetica,sans-Serif" font-size="10.00">fplll/enum&#45;parallel</text>
<text text-anchor="middle" x="1786.94" y="-197.5" font-family="Helvetica,sans-Serif" font-size="10.00">/enumlib.h</text>
</a>
</g>
</g>
<!-- Node35&#45;&gt;Node38 -->
<g id="edge56" class="edge">
<title>Node35&#45;&gt;Node38</title>
<path fill="none" stroke="midnightblue" d="M1652.6,-253.96C1682.24,-243.48 1719.38,-230.37 1747.09,-220.58"/>
<polygon fill="midnightblue" stroke="midnightblue" points="1651.12,-250.76 1642.86,-257.4 1653.46,-257.37 1651.12,-250.76"/>
</g>
<!-- Node36&#45;&gt;Node37 -->
<g id="edge54" class="edge">
<title>Node36&#45;&gt;Node37</title>
<path fill="none" stroke="midnightblue" d="M1676.94,-180.11C1676.94,-171.15 1676.94,-161.32 1676.94,-153.58"/>
<polygon fill="midnightblue" stroke="midnightblue" points="1673.44,-180.4 1676.94,-190.4 1680.44,-180.4 1673.44,-180.4"/>
</g>
<!-- Node38&#45;&gt;Node37 -->
<g id="edge57" class="edge">
<title>Node38&#45;&gt;Node37</title>
<path fill="none" stroke="midnightblue" d="M1754.44,-185.3C1737.22,-175.12 1716.46,-162.85 1700.76,-153.58"/>
<polygon fill="midnightblue" stroke="midnightblue" points="1752.68,-188.32 1763.07,-190.4 1756.24,-182.3 1752.68,-188.32"/>
</g>
</g>
</svg>
