<?xml version="1.0" encoding="UTF-8" standalone="no"?>
<!DOCTYPE svg PUBLIC "-//W3C//DTD SVG 1.1//EN"
 "http://www.w3.org/Graphics/SVG/1.1/DTD/svg11.dtd">
<!-- Generated by graphviz version 2.43.0 (0)
 -->
<!-- Title: fplll/fplll.h Pages: 1 -->
<svg width="1749pt" height="151pt"
 viewBox="0.00 0.00 1748.50 151.00" xmlns="http://www.w3.org/2000/svg" xmlns:xlink="http://www.w3.org/1999/xlink">
<g id="graph0" class="graph" transform="scale(1 1) rotate(0) translate(4 147)">
<title>fplll/fplll.h</title>
<polygon fill="white" stroke="transparent" points="-4,4 -4,-147 1744.5,-147 1744.5,4 -4,4"/>
<!-- Node1 -->
<g id="node1" class="node">
<title>Node1</title>
<g id="a_node1"><a xlink:title=" ">
<polygon fill="#bfbfbf" stroke="black" points="904,-123.5 904,-142.5 962,-142.5 962,-123.5 904,-123.5"/>
<text text-anchor="middle" x="933" y="-130.5" font-family="Helvetica,sans-Serif" font-size="10.00">fplll/fplll.h</text>
</a>
</g>
</g>
<!-- Node2 -->
<g id="node2" class="node">
<title>Node2</title>
<g id="a_node2"><a xlink:href="fplll_8cpp.html" target="_top" xlink:title=" ">
<polygon fill="white" stroke="black" points="0,-62 0,-81 68,-81 68,-62 0,-62"/>
<text text-anchor="middle" x="34" y="-69" font-family="Helvetica,sans-Serif" font-size="10.00">fplll/fplll.cpp</text>
</a>
</g>
</g>
<!-- Node1&#45;&gt;Node2 -->
<g id="edge1" class="edge">
<title>Node1&#45;&gt;Node2</title>
<path fill="none" stroke="midnightblue" d="M893.62,-131.35C747.52,-128.73 236.71,-117.53 77,-87 69.88,-85.64 62.33,-83.38 55.57,-81.05"/>
<polygon fill="midnightblue" stroke="midnightblue" points="893.83,-134.86 903.89,-131.53 893.96,-127.86 893.83,-134.86"/>
</g>
<!-- Node3 -->
<g id="node3" class="node">
<title>Node3</title>
<g id="a_node3"><a xlink:href="main_8h.html" target="_top" xlink:title=" ">
<polygon fill="white" stroke="black" points="86,-62 86,-81 150,-81 150,-62 86,-62"/>
<text text-anchor="middle" x="118" y="-69" font-family="Helvetica,sans-Serif" font-size="10.00">fplll/main.h</text>
</a>
</g>
</g>
<!-- Node1&#45;&gt;Node3 -->
<g id="edge2" class="edge">
<title>Node1&#45;&gt;Node3</title>
<path fill="none" stroke="midnightblue" d="M893.81,-131.18C757.1,-128.09 301.9,-115.82 159,-87 152.19,-85.63 144.98,-83.37 138.54,-81.04"/>
<polygon fill="midnightblue" stroke="midnightblue" points="893.76,-134.68 903.83,-131.4 893.91,-127.68 893.76,-134.68"/>
</g>
<!-- Node5 -->
<g id="node5" class="node">
<title>Node5</title>
<g id="a_node5"><a xlink:href="pruner_8cpp.html" target="_top" xlink:title=" ">
<polygon fill="white" stroke="black" points="402,-0.5 402,-19.5 512,-19.5 512,-0.5 402,-0.5"/>
<text text-anchor="middle" x="457" y="-7.5" font-family="Helvetica,sans-Serif" font-size="10.00">fplll/pruner/pruner.cpp</text>
</a>
</g>
</g>
<!-- Node1&#45;&gt;Node5 -->
<g id="edge4" class="edge">
<title>Node1&#45;&gt;Node5</title>
<path fill="none" stroke="midnightblue" d="M893.57,-132.5C835.05,-131.83 722.88,-125.1 637,-87 617.08,-78.16 618.17,-66.37 599,-56 566.81,-38.6 526.82,-26.69 497.49,-19.51"/>
<polygon fill="midnightblue" stroke="midnightblue" points="893.83,-136 903.85,-132.56 893.88,-129 893.83,-136"/>
</g>
<!-- Node6 -->
<g id="node6" class="node">
<title>Node6</title>
<g id="a_node6"><a xlink:href="pruner__cost_8cpp.html" target="_top" xlink:title=" ">
<polygon fill="white" stroke="black" points="646,-56.5 646,-86.5 738,-86.5 738,-56.5 646,-56.5"/>
<text text-anchor="start" x="654" y="-74.5" font-family="Helvetica,sans-Serif" font-size="10.00">fplll/pruner/pruner</text>
<text text-anchor="middle" x="692" y="-63.5" font-family="Helvetica,sans-Serif" font-size="10.00">_cost.cpp</text>
</a>
</g>
</g>
<!-- Node1&#45;&gt;Node6 -->
<g id="edge5" class="edge">
<title>Node1&#45;&gt;Node6</title>
<path fill="none" stroke="midnightblue" d="M893.91,-122.79C856.23,-113.85 797.64,-99.8 747,-87 744.13,-86.27 741.17,-85.52 738.2,-84.75"/>
<polygon fill="midnightblue" stroke="midnightblue" points="893.42,-126.27 903.96,-125.17 895.03,-119.46 893.42,-126.27"/>
</g>
<!-- Node7 -->
<g id="node7" class="node">
<title>Node7</title>
<g id="a_node7"><a xlink:href="pruner__optimize_8cpp.html" target="_top" xlink:title=" ">
<polygon fill="white" stroke="black" points="756,-56.5 756,-86.5 848,-86.5 848,-56.5 756,-56.5"/>
<text text-anchor="start" x="764" y="-74.5" font-family="Helvetica,sans-Serif" font-size="10.00">fplll/pruner/pruner</text>
<text text-anchor="middle" x="802" y="-63.5" font-family="Helvetica,sans-Serif" font-size="10.00">_optimize.cpp</text>
</a>
</g>
</g>
<!-- Node1&#45;&gt;Node7 -->
<g id="edge7" class="edge">
<title>Node1&#45;&gt;Node7</title>
<path fill="none" stroke="midnightblue" d="M905.11,-119.33C883.91,-109.7 854.77,-96.47 832.87,-86.52"/>
<polygon fill="midnightblue" stroke="midnightblue" points="903.68,-122.53 914.23,-123.48 906.57,-116.15 903.68,-122.53"/>
</g>
<!-- Node8 -->
<g id="node8" class="node">
<title>Node8</title>
<g id="a_node8"><a xlink:href="pruner__optimize__tc_8cpp.html" target="_top" xlink:title=" ">
<polygon fill="white" stroke="black" points="168,-56.5 168,-86.5 260,-86.5 260,-56.5 168,-56.5"/>
<text text-anchor="start" x="176" y="-74.5" font-family="Helvetica,sans-Serif" font-size="10.00">fplll/pruner/pruner</text>
<text text-anchor="middle" x="214" y="-63.5" font-family="Helvetica,sans-Serif" font-size="10.00">_optimize_tc.cpp</text>
</a>
</g>
</g>
<!-- Node1&#45;&gt;Node8 -->
<g id="edge9" class="edge">
<title>Node1&#45;&gt;Node8</title>
<path fill="none" stroke="midnightblue" d="M893.73,-131.93C790.59,-131.2 503.83,-125.55 269,-87 266.08,-86.52 263.08,-85.95 260.08,-85.33"/>
<polygon fill="midnightblue" stroke="midnightblue" points="893.95,-135.43 903.98,-131.99 894,-128.43 893.95,-135.43"/>
</g>
<!-- Node9 -->
<g id="node9" class="node">
<title>Node9</title>
<g id="a_node9"><a xlink:href="pruner__optimize__tp_8cpp.html" target="_top" xlink:title=" ">
<polygon fill="white" stroke="black" points="278,-56.5 278,-86.5 370,-86.5 370,-56.5 278,-56.5"/>
<text text-anchor="start" x="286" y="-74.5" font-family="Helvetica,sans-Serif" font-size="10.00">fplll/pruner/pruner</text>
<text text-anchor="middle" x="324" y="-63.5" font-family="Helvetica,sans-Serif" font-size="10.00">_optimize_tp.cpp</text>
</a>
</g>
</g>
<!-- Node1&#45;&gt;Node9 -->
<g id="edge11" class="edge">
<title>Node1&#45;&gt;Node9</title>
<path fill="none" stroke="midnightblue" d="M893.8,-131.19C802.77,-128.8 570.22,-119.71 379,-87 376.08,-86.5 373.09,-85.92 370.08,-85.28"/>
<polygon fill="midnightblue" stroke="midnightblue" points="893.85,-134.69 903.94,-131.44 894.03,-127.7 893.85,-134.69"/>
</g>
<!-- Node10 -->
<g id="node10" class="node">
<title>Node10</title>
<g id="a_node10"><a xlink:href="pruner__prob_8cpp.html" target="_top" xlink:title=" ">
<polygon fill="white" stroke="black" points="388,-56.5 388,-86.5 480,-86.5 480,-56.5 388,-56.5"/>
<text text-anchor="start" x="396" y="-74.5" font-family="Helvetica,sans-Serif" font-size="10.00">fplll/pruner/pruner</text>
<text text-anchor="middle" x="434" y="-63.5" font-family="Helvetica,sans-Serif" font-size="10.00">_prob.cpp</text>
</a>
</g>
</g>
<!-- Node1&#45;&gt;Node10 -->
<g id="edge13" class="edge">
<title>Node1&#45;&gt;Node10</title>
<path fill="none" stroke="midnightblue" d="M893.65,-130.09C815.84,-125.85 636.99,-113.84 489,-87 486.09,-86.47 483.1,-85.87 480.1,-85.21"/>
<polygon fill="midnightblue" stroke="midnightblue" points="893.78,-133.6 903.95,-130.63 894.15,-126.61 893.78,-133.6"/>
</g>
<!-- Node11 -->
<g id="node11" class="node">
<title>Node11</title>
<g id="a_node11"><a xlink:href="pruner__util_8cpp.html" target="_top" xlink:title=" ">
<polygon fill="white" stroke="black" points="498,-56.5 498,-86.5 590,-86.5 590,-56.5 498,-56.5"/>
<text text-anchor="start" x="506" y="-74.5" font-family="Helvetica,sans-Serif" font-size="10.00">fplll/pruner/pruner</text>
<text text-anchor="middle" x="544" y="-63.5" font-family="Helvetica,sans-Serif" font-size="10.00">_util.cpp</text>
</a>
</g>
</g>
<!-- Node1&#45;&gt;Node11 -->
<g id="edge15" class="edge">
<title>Node1&#45;&gt;Node11</title>
<path fill="none" stroke="midnightblue" d="M893.69,-127.93C831.77,-121.22 707.89,-106.61 604,-87 599.47,-86.15 594.77,-85.17 590.09,-84.14"/>
<polygon fill="midnightblue" stroke="midnightblue" points="893.48,-131.42 903.79,-129.01 894.22,-124.46 893.48,-131.42"/>
</g>
<!-- Node12 -->
<g id="node12" class="node">
<title>Node12</title>
<g id="a_node12"><a xlink:href="test__bkz_8cpp.html" target="_top" xlink:title=" ">
<polygon fill="white" stroke="black" points="530,-0.5 530,-19.5 628,-19.5 628,-0.5 530,-0.5"/>
<text text-anchor="middle" x="579" y="-7.5" font-family="Helvetica,sans-Serif" font-size="10.00">tests/test_bkz.cpp</text>
</a>
</g>
</g>
<!-- Node1&#45;&gt;Node12 -->
<g id="edge17" class="edge">
<title>Node1&#45;&gt;Node12</title>
<path fill="none" stroke="midnightblue" d="M917.52,-116.03C896.4,-94.31 860.72,-57.9 857,-56 854.46,-54.7 707.29,-31.29 628.15,-18.76"/>
<polygon fill="midnightblue" stroke="midnightblue" points="915.08,-118.54 924.56,-123.28 920.11,-113.67 915.08,-118.54"/>
</g>
<!-- Node13 -->
<g id="node13" class="node">
<title>Node13</title>
<g id="a_node13"><a xlink:href="test__bkz__gram_8cpp.html" target="_top" xlink:title=" ">
<polygon fill="white" stroke="black" points="646.5,-0.5 646.5,-19.5 771.5,-19.5 771.5,-0.5 646.5,-0.5"/>
<text text-anchor="middle" x="709" y="-7.5" font-family="Helvetica,sans-Serif" font-size="10.00">tests/test_bkz_gram.cpp</text>
</a>
</g>
</g>
<!-- Node1&#45;&gt;Node13 -->
<g id="edge18" class="edge">
<title>Node1&#45;&gt;Node13</title>
<path fill="none" stroke="midnightblue" d="M927.42,-113.82C921.13,-96.37 909.19,-70.58 890,-56 870.15,-40.92 808.68,-27.69 762.85,-19.55"/>
<polygon fill="midnightblue" stroke="midnightblue" points="924.14,-115.05 930.63,-123.43 930.79,-112.83 924.14,-115.05"/>
</g>
<!-- Node14 -->
<g id="node14" class="node">
<title>Node14</title>
<g id="a_node14"><a xlink:href="test__counter_8cpp.html" target="_top" xlink:title=" ">
<polygon fill="white" stroke="black" points="1316.5,-62 1316.5,-81 1429.5,-81 1429.5,-62 1316.5,-62"/>
<text text-anchor="middle" x="1373" y="-69" font-family="Helvetica,sans-Serif" font-size="10.00">tests/test_counter.cpp</text>
</a>
</g>
</g>
<!-- Node1&#45;&gt;Node14 -->
<g id="edge19" class="edge">
<title>Node1&#45;&gt;Node14</title>
<path fill="none" stroke="midnightblue" d="M972.5,-128.23C1040.18,-121.54 1182.58,-106.44 1302,-87 1312.43,-85.3 1323.66,-83.16 1334.04,-81.04"/>
<polygon fill="midnightblue" stroke="midnightblue" points="971.9,-124.77 962.29,-129.23 972.59,-131.74 971.9,-124.77"/>
</g>
<!-- Node15 -->
<g id="node15" class="node">
<title>Node15</title>
<g id="a_node15"><a xlink:href="test__cvp_8cpp.html" target="_top" xlink:title=" ">
<polygon fill="white" stroke="black" points="790,-0.5 790,-19.5 888,-19.5 888,-0.5 790,-0.5"/>
<text text-anchor="middle" x="839" y="-7.5" font-family="Helvetica,sans-Serif" font-size="10.00">tests/test_cvp.cpp</text>
</a>
</g>
</g>
<!-- Node1&#45;&gt;Node15 -->
<g id="edge20" class="edge">
<title>Node1&#45;&gt;Node15</title>
<path fill="none" stroke="midnightblue" d="M936.65,-113.11C938.77,-96.65 939.14,-72.85 928,-56 915.78,-37.51 893.53,-26.26 874.33,-19.63"/>
<polygon fill="midnightblue" stroke="midnightblue" points="933.17,-112.72 935.03,-123.15 940.08,-113.84 933.17,-112.72"/>
</g>
<!-- Node16 -->
<g id="node16" class="node">
<title>Node16</title>
<g id="a_node16"><a xlink:href="test__enum_8cpp.html" target="_top" xlink:title=" ">
<polygon fill="white" stroke="black" points="906,-0.5 906,-19.5 1012,-19.5 1012,-0.5 906,-0.5"/>
<text text-anchor="middle" x="959" y="-7.5" font-family="Helvetica,sans-Serif" font-size="10.00">tests/test_enum.cpp</text>
</a>
</g>
</g>
<!-- Node1&#45;&gt;Node16 -->
<g id="edge21" class="edge">
<title>Node1&#45;&gt;Node16</title>
<path fill="none" stroke="midnightblue" d="M948.71,-115.88C955.43,-107.88 962.51,-97.66 966,-87 973.67,-63.58 966.5,-34.07 962,-19.69"/>
<polygon fill="midnightblue" stroke="midnightblue" points="946.1,-113.56 942.02,-123.34 951.3,-118.24 946.1,-113.56"/>
</g>
<!-- Node17 -->
<g id="node17" class="node">
<title>Node17</title>
<g id="a_node17"><a xlink:href="test__hlll_8cpp.html" target="_top" xlink:title=" ">
<polygon fill="white" stroke="black" points="1030,-0.5 1030,-19.5 1124,-19.5 1124,-0.5 1030,-0.5"/>
<text text-anchor="middle" x="1077" y="-7.5" font-family="Helvetica,sans-Serif" font-size="10.00">tests/test_hlll.cpp</text>
</a>
</g>
</g>
<!-- Node1&#45;&gt;Node17 -->
<g id="edge22" class="edge">
<title>Node1&#45;&gt;Node17</title>
<path fill="none" stroke="midnightblue" d="M951.12,-116.77C981.69,-91.09 1042.55,-39.95 1066.74,-19.62"/>
<polygon fill="midnightblue" stroke="midnightblue" points="948.76,-114.19 943.36,-123.3 953.26,-119.54 948.76,-114.19"/>
</g>
<!-- Node18 -->
<g id="node18" class="node">
<title>Node18</title>
<g id="a_node18"><a xlink:href="test__lll_8cpp.html" target="_top" xlink:title=" ">
<polygon fill="white" stroke="black" points="1258.5,-0.5 1258.5,-19.5 1347.5,-19.5 1347.5,-0.5 1258.5,-0.5"/>
<text text-anchor="middle" x="1303" y="-7.5" font-family="Helvetica,sans-Serif" font-size="10.00">tests/test_lll.cpp</text>
</a>
</g>
</g>
<!-- Node1&#45;&gt;Node18 -->
<g id="edge23" class="edge">
<title>Node1&#45;&gt;Node18</title>
<path fill="none" stroke="midnightblue" d="M972.04,-128.93C1017.37,-124.28 1093.63,-113.05 1154,-87 1175.96,-77.52 1177.11,-67.66 1198,-56 1224.67,-41.11 1257.25,-27.85 1278.98,-19.65"/>
<polygon fill="midnightblue" stroke="midnightblue" points="971.65,-125.46 962.04,-129.91 972.33,-132.42 971.65,-125.46"/>
</g>
<!-- Node19 -->
<g id="node19" class="node">
<title>Node19</title>
<g id="a_node19"><a xlink:href="test__lll__gram_8cpp.html" target="_top" xlink:title=" ">
<polygon fill="white" stroke="black" points="1365,-0.5 1365,-19.5 1481,-19.5 1481,-0.5 1365,-0.5"/>
<text text-anchor="middle" x="1423" y="-7.5" font-family="Helvetica,sans-Serif" font-size="10.00">tests/test_lll_gram.cpp</text>
</a>
</g>
</g>
<!-- Node1&#45;&gt;Node19 -->
<g id="edge24" class="edge">
<title>Node1&#45;&gt;Node19</title>
<path fill="none" stroke="midnightblue" d="M972.29,-130.21C1023.93,-126.72 1116.7,-116.55 1190,-87 1212.87,-77.78 1213.43,-65.93 1236,-56 1277.26,-37.84 1327.01,-26.32 1364.82,-19.49"/>
<polygon fill="midnightblue" stroke="midnightblue" points="971.98,-126.72 962.22,-130.83 972.41,-133.7 971.98,-126.72"/>
</g>
<!-- Node20 -->
<g id="node20" class="node">
<title>Node20</title>
<g id="a_node20"><a xlink:href="test__nr_8cpp.html" target="_top" xlink:title=" ">
<polygon fill="white" stroke="black" points="1447.5,-62 1447.5,-81 1536.5,-81 1536.5,-62 1447.5,-62"/>
<text text-anchor="middle" x="1492" y="-69" font-family="Helvetica,sans-Serif" font-size="10.00">tests/test_nr.cpp</text>
</a>
</g>
</g>
<!-- Node1&#45;&gt;Node20 -->
<g id="edge25" class="edge">
<title>Node1&#45;&gt;Node20</title>
<path fill="none" stroke="midnightblue" d="M972.07,-130.9C1057.43,-127.97 1266.72,-117.97 1439,-87 1447.36,-85.5 1456.31,-83.29 1464.43,-81.04"/>
<polygon fill="midnightblue" stroke="midnightblue" points="971.93,-127.4 962.05,-131.23 972.16,-134.39 971.93,-127.4"/>
</g>
<!-- Node21 -->
<g id="node21" class="node">
<title>Node21</title>
<g id="a_node21"><a xlink:href="test__pruner_8cpp.html" target="_top" xlink:title=" ">
<polygon fill="white" stroke="black" points="1555,-62 1555,-81 1663,-81 1663,-62 1555,-62"/>
<text text-anchor="middle" x="1609" y="-69" font-family="Helvetica,sans-Serif" font-size="10.00">tests/test_pruner.cpp</text>
</a>
</g>
</g>
<!-- Node1&#45;&gt;Node21 -->
<g id="edge26" class="edge">
<title>Node1&#45;&gt;Node21</title>
<path fill="none" stroke="midnightblue" d="M972.21,-131.2C1069.75,-128.75 1330.93,-119.45 1546,-87 1555.88,-85.51 1566.5,-83.3 1576.16,-81.06"/>
<polygon fill="midnightblue" stroke="midnightblue" points="972.12,-127.7 962.21,-131.44 972.29,-134.7 972.12,-127.7"/>
</g>
<!-- Node22 -->
<g id="node22" class="node">
<title>Node22</title>
<g id="a_node22"><a xlink:href="test__svp_8cpp.html" target="_top" xlink:title=" ">
<polygon fill="white" stroke="black" points="1499,-0.5 1499,-19.5 1597,-19.5 1597,-0.5 1499,-0.5"/>
<text text-anchor="middle" x="1548" y="-7.5" font-family="Helvetica,sans-Serif" font-size="10.00">tests/test_svp.cpp</text>
</a>
</g>
</g>
<!-- Node1&#45;&gt;Node22 -->
<g id="edge27" class="edge">
<title>Node1&#45;&gt;Node22</title>
<path fill="none" stroke="midnightblue" d="M972.15,-131.3C1029.81,-129.1 1140.13,-120.44 1227,-87 1250.35,-78.01 1250.7,-65.12 1274,-56 1279.22,-53.96 1421.5,-31.13 1498.91,-18.8"/>
<polygon fill="midnightblue" stroke="midnightblue" points="971.89,-127.8 962.01,-131.64 972.12,-134.8 971.89,-127.8"/>
</g>
<!-- Node23 -->
<g id="node23" class="node">
<title>Node23</title>
<g id="a_node23"><a xlink:href="test__svp__gram_8cpp.html" target="_top" xlink:title=" ">
<polygon fill="white" stroke="black" points="1615.5,-0.5 1615.5,-19.5 1740.5,-19.5 1740.5,-0.5 1615.5,-0.5"/>
<text text-anchor="middle" x="1678" y="-7.5" font-family="Helvetica,sans-Serif" font-size="10.00">tests/test_svp_gram.cpp</text>
</a>
</g>
</g>
<!-- Node1&#45;&gt;Node23 -->
<g id="edge28" class="edge">
<title>Node1&#45;&gt;Node23</title>
<path fill="none" stroke="midnightblue" d="M972.41,-132.59C1036.02,-132.25 1164.25,-126.2 1264,-87 1286.26,-78.25 1285.67,-64.58 1308,-56 1432.52,-8.13 1473.59,-36.27 1606,-20 1609,-19.63 1612.07,-19.25 1615.17,-18.87"/>
<polygon fill="midnightblue" stroke="midnightblue" points="972.04,-129.09 962.04,-132.6 972.04,-136.09 972.04,-129.09"/>
</g>
<!-- Node24 -->
<g id="node24" class="node">
<title>Node24</title>
<g id="a_node24"><a xlink:href="test__utils_8h.html" target="_top" xlink:title=" ">
<polygon fill="white" stroke="black" points="1056.5,-62 1056.5,-81 1145.5,-81 1145.5,-62 1056.5,-62"/>
<text text-anchor="middle" x="1101" y="-69" font-family="Helvetica,sans-Serif" font-size="10.00">tests/test_utils.h</text>
</a>
</g>
</g>
<!-- Node1&#45;&gt;Node24 -->
<g id="edge29" class="edge">
<title>Node1&#45;&gt;Node24</title>
<path fill="none" stroke="midnightblue" d="M966.65,-120.08C999.3,-108.52 1048.05,-91.25 1076.97,-81.01"/>
<polygon fill="midnightblue" stroke="midnightblue" points="965.33,-116.84 957.07,-123.48 967.67,-123.44 965.33,-116.84"/>
</g>
<!-- Node4 -->
<g id="node4" class="node">
<title>Node4</title>
<g id="a_node4"><a xlink:href="main_8cpp.html" target="_top" xlink:title=" ">
<polygon fill="white" stroke="black" points="81,-0.5 81,-19.5 155,-19.5 155,-0.5 81,-0.5"/>
<text text-anchor="middle" x="118" y="-7.5" font-family="Helvetica,sans-Serif" font-size="10.00">fplll/main.cpp</text>
</a>
</g>
</g>
<!-- Node3&#45;&gt;Node4 -->
<g id="edge3" class="edge">
<title>Node3&#45;&gt;Node4</title>
<path fill="none" stroke="midnightblue" d="M118,-51.82C118,-41 118,-27.9 118,-19.51"/>
<polygon fill="midnightblue" stroke="midnightblue" points="114.5,-51.98 118,-61.98 121.5,-51.98 114.5,-51.98"/>
</g>
<!-- Node6&#45;&gt;Node5 -->
<g id="edge6" class="edge">
<title>Node6&#45;&gt;Node5</title>
<path fill="none" stroke="midnightblue" d="M635.91,-56.3C590.76,-44.87 528.77,-29.17 490.87,-19.58"/>
<polygon fill="midnightblue" stroke="midnightblue" points="635.3,-59.75 645.85,-58.82 637.02,-52.97 635.3,-59.75"/>
</g>
<!-- Node7&#45;&gt;Node5 -->
<g id="edge8" class="edge">
<title>Node7&#45;&gt;Node5</title>
<path fill="none" stroke="midnightblue" d="M745.95,-55.95C689.33,-44.81 579.01,-28.5 512.01,-18.84"/>
<polygon fill="midnightblue" stroke="midnightblue" points="745.37,-59.4 755.87,-57.97 746.77,-52.54 745.37,-59.4"/>
</g>
<!-- Node8&#45;&gt;Node5 -->
<g id="edge10" class="edge">
<title>Node8&#45;&gt;Node5</title>
<path fill="none" stroke="midnightblue" d="M270.23,-55.72C327.99,-41.26 384.33,-27.94 420.19,-19.55"/>
<polygon fill="midnightblue" stroke="midnightblue" points="269.04,-52.41 260.19,-58.24 270.75,-59.2 269.04,-52.41"/>
</g>
<!-- Node9&#45;&gt;Node5 -->
<g id="edge12" class="edge">
<title>Node9&#45;&gt;Node5</title>
<path fill="none" stroke="midnightblue" d="M364.84,-52.23C389.06,-41.39 418.64,-28.16 437.65,-19.66"/>
<polygon fill="midnightblue" stroke="midnightblue" points="363.22,-49.12 355.52,-56.4 366.08,-55.51 363.22,-49.12"/>
</g>
<!-- Node10&#45;&gt;Node5 -->
<g id="edge14" class="edge">
<title>Node10&#45;&gt;Node5</title>
<path fill="none" stroke="midnightblue" d="M443.12,-46.9C446.83,-37.3 450.89,-26.81 453.65,-19.66"/>
<polygon fill="midnightblue" stroke="midnightblue" points="439.79,-45.81 439.45,-56.4 446.32,-48.33 439.79,-45.81"/>
</g>
<!-- Node11&#45;&gt;Node5 -->
<g id="edge16" class="edge">
<title>Node11&#45;&gt;Node5</title>
<path fill="none" stroke="midnightblue" d="M514.73,-50.48C499.41,-40 481.43,-27.71 469.66,-19.66"/>
<polygon fill="midnightblue" stroke="midnightblue" points="513.15,-53.64 523.38,-56.4 517.1,-47.87 513.15,-53.64"/>
</g>
<!-- Node24&#45;&gt;Node12 -->
<g id="edge30" class="edge">
<title>Node24&#45;&gt;Node12</title>
<path fill="none" stroke="midnightblue" d="M1046.3,-65.36C959.43,-57.02 784.64,-39.48 637,-20 634.07,-19.61 631.06,-19.2 628.03,-18.77"/>
<polygon fill="midnightblue" stroke="midnightblue" points="1046.16,-68.86 1056.45,-66.33 1046.83,-61.9 1046.16,-68.86"/>
</g>
<!-- Node24&#45;&gt;Node13 -->
<g id="edge31" class="edge">
<title>Node24&#45;&gt;Node13</title>
<path fill="none" stroke="midnightblue" d="M1046.34,-62.2C972.14,-50.94 840.21,-30.92 765.21,-19.53"/>
<polygon fill="midnightblue" stroke="midnightblue" points="1046,-65.69 1056.41,-63.73 1047.05,-58.77 1046,-65.69"/>
</g>
<!-- Node24&#45;&gt;Node15 -->
<g id="edge32" class="edge">
<title>Node24&#45;&gt;Node15</title>
<path fill="none" stroke="midnightblue" d="M1053.7,-59.76C1002.88,-48.22 923.13,-30.11 876.47,-19.51"/>
<polygon fill="midnightblue" stroke="midnightblue" points="1052.93,-63.17 1063.46,-61.98 1054.49,-56.35 1052.93,-63.17"/>
</g>
<!-- Node24&#45;&gt;Node16 -->
<g id="edge33" class="edge">
<title>Node24&#45;&gt;Node16</title>
<path fill="none" stroke="midnightblue" d="M1071.12,-57.98C1043.54,-46.42 1003.33,-29.58 979.31,-19.51"/>
<polygon fill="midnightblue" stroke="midnightblue" points="1070.08,-61.34 1080.65,-61.98 1072.78,-54.88 1070.08,-61.34"/>
</g>
<!-- Node24&#45;&gt;Node17 -->
<g id="edge35" class="edge">
<title>Node24&#45;&gt;Node17</title>
<path fill="none" stroke="midnightblue" d="M1093.74,-52.5C1089.32,-41.55 1083.89,-28.07 1080.43,-19.51"/>
<polygon fill="midnightblue" stroke="midnightblue" points="1090.57,-54.01 1097.56,-61.98 1097.07,-51.39 1090.57,-54.01"/>
</g>
<!-- Node24&#45;&gt;Node18 -->
<g id="edge36" class="edge">
<title>Node24&#45;&gt;Node18</title>
<path fill="none" stroke="midnightblue" d="M1139.69,-59.1C1178.95,-47.54 1238.81,-29.91 1274.11,-19.51"/>
<polygon fill="midnightblue" stroke="midnightblue" points="1138.55,-55.79 1129.94,-61.98 1140.52,-62.51 1138.55,-55.79"/>
</g>
<!-- Node24&#45;&gt;Node19 -->
<g id="edge37" class="edge">
<title>Node24&#45;&gt;Node19</title>
<path fill="none" stroke="midnightblue" d="M1155.79,-60.38C1217.99,-48.88 1318.38,-30.33 1376.78,-19.54"/>
<polygon fill="midnightblue" stroke="midnightblue" points="1154.97,-56.97 1145.77,-62.23 1156.24,-63.85 1154.97,-56.97"/>
</g>
<!-- Node24&#45;&gt;Node22 -->
<g id="edge38" class="edge">
<title>Node24&#45;&gt;Node22</title>
<path fill="none" stroke="midnightblue" d="M1155.88,-63.81C1231.26,-54.53 1371.04,-36.95 1490,-20 1492.93,-19.58 1495.93,-19.15 1498.97,-18.7"/>
<polygon fill="midnightblue" stroke="midnightblue" points="1155.18,-60.37 1145.68,-65.07 1156.03,-67.32 1155.18,-60.37"/>
</g>
<!-- Node24&#45;&gt;Node23 -->
<g id="edge39" class="edge">
<title>Node24&#45;&gt;Node23</title>
<path fill="none" stroke="midnightblue" d="M1155.61,-65.48C1248.3,-56.87 1442.27,-38.42 1606,-20 1609,-19.66 1612.08,-19.31 1615.18,-18.94"/>
<polygon fill="midnightblue" stroke="midnightblue" points="1155.26,-62 1145.62,-66.41 1155.91,-68.97 1155.26,-62"/>
</g>
<!-- Node25 -->
<g id="node25" class="node">
<title>Node25</title>
<g id="a_node25"><a xlink:href="test__gso_8cpp.html" target="_top" xlink:title=" ">
<polygon fill="white" stroke="black" points="1142,-0.5 1142,-19.5 1240,-19.5 1240,-0.5 1142,-0.5"/>
<text text-anchor="middle" x="1191" y="-7.5" font-family="Helvetica,sans-Serif" font-size="10.00">tests/test_gso.cpp</text>
</a>
</g>
</g>
<!-- Node24&#45;&gt;Node25 -->
<g id="edge34" class="edge">
<title>Node24&#45;&gt;Node25</title>
<path fill="none" stroke="midnightblue" d="M1122.28,-56.43C1139.63,-44.96 1163.57,-29.13 1178.13,-19.51"/>
<polygon fill="midnightblue" stroke="midnightblue" points="1120.31,-53.54 1113.89,-61.98 1124.17,-59.38 1120.31,-53.54"/>
</g>
</g>
</svg>
