<?xml version="1.0" encoding="UTF-8" standalone="no"?>
<!DOCTYPE svg PUBLIC "-//W3C//DTD SVG 1.1//EN"
 "http://www.w3.org/Graphics/SVG/1.1/DTD/svg11.dtd">
<!-- Generated by graphviz version 2.40.1 (20161225.0304)
 -->
<!-- Title: fplll/fplll.h Pages: 1 -->
<svg width="925pt" height="140pt"
 viewBox="0.00 0.00 925.00 140.00" xmlns="http://www.w3.org/2000/svg" xmlns:xlink="http://www.w3.org/1999/xlink">
<g id="graph0" class="graph" transform="scale(1 1) rotate(0) translate(4 136)">
<title>fplll/fplll.h</title>
<polygon fill="#ffffff" stroke="transparent" points="-4,4 -4,-136 921,-136 921,4 -4,4"/>
<!-- Node0 -->
<g id="node1" class="node">
<title>Node0</title>
<polygon fill="#bfbfbf" stroke="#000000" points="409,-112.5 409,-131.5 467,-131.5 467,-112.5 409,-112.5"/>
<text text-anchor="middle" x="438" y="-119.5" font-family="Helvetica,sans-Serif" font-size="10.00" fill="#000000">fplll/fplll.h</text>
</g>
<!-- Node1 -->
<g id="node2" class="node">
<title>Node1</title>
<g id="a_node2"><a xlink:href="fplll_8cpp.html" target="_top" xlink:title="fplll/fplll.cpp">
<polygon fill="#ffffff" stroke="#000000" points="0,-56.5 0,-75.5 68,-75.5 68,-56.5 0,-56.5"/>
<text text-anchor="middle" x="34" y="-63.5" font-family="Helvetica,sans-Serif" font-size="10.00" fill="#000000">fplll/fplll.cpp</text>
</a>
</g>
</g>
<!-- Node0&#45;&gt;Node1 -->
<g id="edge1" class="edge">
<title>Node0&#45;&gt;Node1</title>
<path fill="none" stroke="#191970" d="M398.8003,-118.3252C332.305,-111.7972 193.2861,-96.8746 77,-76 74.1333,-75.4854 71.1702,-74.9032 68.2025,-74.2849"/>
<polygon fill="#191970" stroke="#191970" points="398.5434,-121.8167 408.8351,-119.3005 399.2206,-114.8495 398.5434,-121.8167"/>
</g>
<!-- Node2 -->
<g id="node3" class="node">
<title>Node2</title>
<g id="a_node3"><a xlink:href="main_8h.html" target="_top" xlink:title="fplll/main.h">
<polygon fill="#ffffff" stroke="#000000" points="86,-56.5 86,-75.5 150,-75.5 150,-56.5 86,-56.5"/>
<text text-anchor="middle" x="118" y="-63.5" font-family="Helvetica,sans-Serif" font-size="10.00" fill="#000000">fplll/main.h</text>
</a>
</g>
</g>
<!-- Node0&#45;&gt;Node2 -->
<g id="edge2" class="edge">
<title>Node0&#45;&gt;Node2</title>
<path fill="none" stroke="#191970" d="M398.7552,-116.4885C344.5991,-108.6648 244.0017,-93.3474 159,-76 156.1285,-75.414 153.1534,-74.7669 150.1771,-74.0923"/>
<polygon fill="#191970" stroke="#191970" points="398.5529,-119.9952 408.9488,-117.9516 399.5476,-113.0662 398.5529,-119.9952"/>
</g>
<!-- Node4 -->
<g id="node5" class="node">
<title>Node4</title>
<g id="a_node5"><a xlink:href="sieve__main_8cpp.html" target="_top" xlink:title="fplll/sieve/sieve_main.cpp">
<polygon fill="#ffffff" stroke="#000000" points="168.5,-56.5 168.5,-75.5 297.5,-75.5 297.5,-56.5 168.5,-56.5"/>
<text text-anchor="middle" x="233" y="-63.5" font-family="Helvetica,sans-Serif" font-size="10.00" fill="#000000">fplll/sieve/sieve_main.cpp</text>
</a>
</g>
</g>
<!-- Node0&#45;&gt;Node4 -->
<g id="edge4" class="edge">
<title>Node0&#45;&gt;Node4</title>
<path fill="none" stroke="#191970" d="M398.961,-111.3357C361.0916,-100.9909 304.1678,-85.4409 267.8045,-75.5076"/>
<polygon fill="#191970" stroke="#191970" points="398.0596,-114.7176 408.6285,-113.9766 399.9043,-107.965 398.0596,-114.7176"/>
</g>
<!-- Node5 -->
<g id="node6" class="node">
<title>Node5</title>
<g id="a_node6"><a xlink:href="test__bkz_8cpp.html" target="_top" xlink:title="tests/test_bkz.cpp">
<polygon fill="#ffffff" stroke="#000000" points="106,-.5 106,-19.5 204,-19.5 204,-.5 106,-.5"/>
<text text-anchor="middle" x="155" y="-7.5" font-family="Helvetica,sans-Serif" font-size="10.00" fill="#000000">tests/test_bkz.cpp</text>
</a>
</g>
</g>
<!-- Node0&#45;&gt;Node5 -->
<g id="edge5" class="edge">
<title>Node0&#45;&gt;Node5</title>
<path fill="none" stroke="#191970" d="M406.6283,-108.1718C387.2151,-99.3947 361.902,-87.5501 340,-76 324.4926,-67.8221 322.0526,-63.0479 306,-56 269.7411,-40.0804 226.3054,-27.4766 195.3471,-19.5174"/>
<polygon fill="#191970" stroke="#191970" points="405.3613,-111.4395 415.9176,-112.3416 408.2279,-105.0534 405.3613,-111.4395"/>
</g>
<!-- Node6 -->
<g id="node7" class="node">
<title>Node6</title>
<g id="a_node7"><a xlink:href="test__cvp_8cpp.html" target="_top" xlink:title="tests/test_cvp.cpp">
<polygon fill="#ffffff" stroke="#000000" points="222,-.5 222,-19.5 320,-19.5 320,-.5 222,-.5"/>
<text text-anchor="middle" x="271" y="-7.5" font-family="Helvetica,sans-Serif" font-size="10.00" fill="#000000">tests/test_cvp.cpp</text>
</a>
</g>
</g>
<!-- Node0&#45;&gt;Node6 -->
<g id="edge6" class="edge">
<title>Node0&#45;&gt;Node6</title>
<path fill="none" stroke="#191970" d="M415.3493,-106.7016C395.4995,-93.3055 365.8607,-73.3283 340,-56 321.2222,-43.4177 299.5247,-28.9671 285.5513,-19.6722"/>
<polygon fill="#191970" stroke="#191970" points="413.4853,-109.6661 423.7319,-112.3603 417.4019,-103.8643 413.4853,-109.6661"/>
</g>
<!-- Node7 -->
<g id="node8" class="node">
<title>Node7</title>
<g id="a_node8"><a xlink:href="test__lll_8cpp.html" target="_top" xlink:title="tests/test_lll.cpp">
<polygon fill="#ffffff" stroke="#000000" points="338.5,-.5 338.5,-19.5 427.5,-19.5 427.5,-.5 338.5,-.5"/>
<text text-anchor="middle" x="383" y="-7.5" font-family="Helvetica,sans-Serif" font-size="10.00" fill="#000000">tests/test_lll.cpp</text>
</a>
</g>
</g>
<!-- Node0&#45;&gt;Node7 -->
<g id="edge7" class="edge">
<title>Node0&#45;&gt;Node7</title>
<path fill="none" stroke="#191970" d="M428.7923,-103.2498C416.9304,-79.0946 396.7599,-38.0202 387.6774,-19.5249"/>
<polygon fill="#191970" stroke="#191970" points="425.7611,-105.0176 433.3107,-112.4509 432.0444,-101.932 425.7611,-105.0176"/>
</g>
<!-- Node8 -->
<g id="node9" class="node">
<title>Node8</title>
<g id="a_node9"><a xlink:href="test__lll__gram_8cpp.html" target="_top" xlink:title="tests/test_lll_gram.cpp">
<polygon fill="#ffffff" stroke="#000000" points="561,-.5 561,-19.5 677,-19.5 677,-.5 561,-.5"/>
<text text-anchor="middle" x="619" y="-7.5" font-family="Helvetica,sans-Serif" font-size="10.00" fill="#000000">tests/test_lll_gram.cpp</text>
</a>
</g>
</g>
<!-- Node0&#45;&gt;Node8 -->
<g id="edge8" class="edge">
<title>Node0&#45;&gt;Node8</title>
<path fill="none" stroke="#191970" d="M468.1855,-108.0238C485.9666,-99.4364 508.6878,-87.8402 528,-76 557.6161,-57.8425 590.0421,-33.0269 607.0523,-19.5906"/>
<polygon fill="#191970" stroke="#191970" points="466.3877,-105.0036 458.8684,-112.4675 469.4011,-111.3217 466.3877,-105.0036"/>
</g>
<!-- Node9 -->
<g id="node10" class="node">
<title>Node9</title>
<g id="a_node10"><a xlink:href="test__nr_8cpp.html" target="_top" xlink:title="tests/test_nr.cpp">
<polygon fill="#ffffff" stroke="#000000" points="652,-56.5 652,-75.5 742,-75.5 742,-56.5 652,-56.5"/>
<text text-anchor="middle" x="697" y="-63.5" font-family="Helvetica,sans-Serif" font-size="10.00" fill="#000000">tests/test_nr.cpp</text>
</a>
</g>
</g>
<!-- Node0&#45;&gt;Node9 -->
<g id="edge9" class="edge">
<title>Node0&#45;&gt;Node9</title>
<path fill="none" stroke="#191970" d="M477.0515,-113.5564C524.2313,-103.3554 603.4054,-86.2367 652.7867,-75.5596"/>
<polygon fill="#191970" stroke="#191970" points="476.2416,-110.1506 467.2071,-115.6849 477.721,-116.9925 476.2416,-110.1506"/>
</g>
<!-- Node10 -->
<g id="node11" class="node">
<title>Node10</title>
<g id="a_node11"><a xlink:href="test__pruner_8cpp.html" target="_top" xlink:title="tests/test_pruner.cpp">
<polygon fill="#ffffff" stroke="#000000" points="760.5,-56.5 760.5,-75.5 869.5,-75.5 869.5,-56.5 760.5,-56.5"/>
<text text-anchor="middle" x="815" y="-63.5" font-family="Helvetica,sans-Serif" font-size="10.00" fill="#000000">tests/test_pruner.cpp</text>
</a>
</g>
</g>
<!-- Node0&#45;&gt;Node10 -->
<g id="edge10" class="edge">
<title>Node0&#45;&gt;Node10</title>
<path fill="none" stroke="#191970" d="M477.4221,-116.3234C536.7821,-107.7494 652.6428,-90.9114 751,-76 754.0021,-75.5449 757.0829,-75.0745 760.1923,-74.5972"/>
<polygon fill="#191970" stroke="#191970" points="476.7544,-112.8835 467.357,-117.7762 477.7545,-119.8117 476.7544,-112.8835"/>
</g>
<!-- Node11 -->
<g id="node12" class="node">
<title>Node11</title>
<g id="a_node12"><a xlink:href="test__sieve_8cpp.html" target="_top" xlink:title="tests/test_sieve.cpp">
<polygon fill="#ffffff" stroke="#000000" points="695.5,-.5 695.5,-19.5 800.5,-19.5 800.5,-.5 695.5,-.5"/>
<text text-anchor="middle" x="748" y="-7.5" font-family="Helvetica,sans-Serif" font-size="10.00" fill="#000000">tests/test_sieve.cpp</text>
</a>
</g>
</g>
<!-- Node0&#45;&gt;Node11 -->
<g id="edge11" class="edge">
<title>Node0&#45;&gt;Node11</title>
<path fill="none" stroke="#191970" d="M472.1945,-108.7847C518.4029,-90.9408 596.5775,-60.8096 610,-56 646.9687,-42.7532 689.9429,-28.6269 717.9868,-19.5772"/>
<polygon fill="#191970" stroke="#191970" points="470.9214,-105.5243 462.8541,-112.3923 473.4436,-112.0542 470.9214,-105.5243"/>
</g>
<!-- Node12 -->
<g id="node13" class="node">
<title>Node12</title>
<g id="a_node13"><a xlink:href="test__svp_8cpp.html" target="_top" xlink:title="tests/test_svp.cpp">
<polygon fill="#ffffff" stroke="#000000" points="819,-.5 819,-19.5 917,-19.5 917,-.5 819,-.5"/>
<text text-anchor="middle" x="868" y="-7.5" font-family="Helvetica,sans-Serif" font-size="10.00" fill="#000000">tests/test_svp.cpp</text>
</a>
</g>
</g>
<!-- Node0&#45;&gt;Node12 -->
<g id="edge12" class="edge">
<title>Node0&#45;&gt;Node12</title>
<path fill="none" stroke="#191970" d="M476.9117,-112.611C509.8447,-104.2557 558.08,-91.0513 599,-76 619.1604,-68.5845 622.5703,-62.6377 643,-56 675.0418,-45.5895 762.8348,-28.877 818.806,-18.7201"/>
<polygon fill="#191970" stroke="#191970" points="476.0554,-109.2173 467.2074,-115.045 477.7584,-116.007 476.0554,-109.2173"/>
</g>
<!-- Node13 -->
<g id="node14" class="node">
<title>Node13</title>
<g id="a_node14"><a xlink:href="test__utils_8h.html" target="_top" xlink:title="tests/test_utils.h">
<polygon fill="#ffffff" stroke="#000000" points="430.5,-56.5 430.5,-75.5 519.5,-75.5 519.5,-56.5 430.5,-56.5"/>
<text text-anchor="middle" x="475" y="-63.5" font-family="Helvetica,sans-Serif" font-size="10.00" fill="#000000">tests/test_utils.h</text>
</a>
</g>
</g>
<!-- Node0&#45;&gt;Node13 -->
<g id="edge13" class="edge">
<title>Node0&#45;&gt;Node13</title>
<path fill="none" stroke="#191970" d="M450.1376,-103.6296C456.3093,-94.2887 463.5566,-83.3197 468.6289,-75.6427"/>
<polygon fill="#191970" stroke="#191970" points="447.0373,-101.9728 444.4449,-112.2455 452.8777,-105.8316 447.0373,-101.9728"/>
</g>
<!-- Node3 -->
<g id="node4" class="node">
<title>Node3</title>
<g id="a_node4"><a xlink:href="main_8cpp.html" target="_top" xlink:title="fplll/main.cpp">
<polygon fill="#ffffff" stroke="#000000" points="14,-.5 14,-19.5 88,-19.5 88,-.5 14,-.5"/>
<text text-anchor="middle" x="51" y="-7.5" font-family="Helvetica,sans-Serif" font-size="10.00" fill="#000000">fplll/main.cpp</text>
</a>
</g>
</g>
<!-- Node2&#45;&gt;Node3 -->
<g id="edge3" class="edge">
<title>Node2&#45;&gt;Node3</title>
<path fill="none" stroke="#191970" d="M98.4324,-49.645C86.7802,-39.9058 72.3916,-27.8795 62.5368,-19.6427"/>
<polygon fill="#191970" stroke="#191970" points="96.4121,-52.5179 106.3295,-56.2455 100.9012,-47.1469 96.4121,-52.5179"/>
</g>
<!-- Node13&#45;&gt;Node5 -->
<g id="edge14" class="edge">
<title>Node13&#45;&gt;Node5</title>
<path fill="none" stroke="#191970" d="M420.0129,-56.3773C359.3262,-45.7571 262.5405,-28.8196 204.2509,-18.6189"/>
<polygon fill="#191970" stroke="#191970" points="419.7148,-59.8782 430.1684,-58.1545 420.9215,-52.983 419.7148,-59.8782"/>
</g>
<!-- Node13&#45;&gt;Node6 -->
<g id="edge15" class="edge">
<title>Node13&#45;&gt;Node6</title>
<path fill="none" stroke="#191970" d="M430.2653,-53.7199C392.7545,-43.4228 339.9579,-28.9296 305.6112,-19.5011"/>
<polygon fill="#191970" stroke="#191970" points="429.3613,-57.1012 439.9311,-56.3733 431.2144,-50.3509 429.3613,-57.1012"/>
</g>
<!-- Node13&#45;&gt;Node7 -->
<g id="edge17" class="edge">
<title>Node13&#45;&gt;Node7</title>
<path fill="none" stroke="#191970" d="M449.9776,-50.769C433.675,-40.8456 412.899,-28.1994 398.8415,-19.6427"/>
<polygon fill="#191970" stroke="#191970" points="448.613,-54.0357 458.9748,-56.2455 452.2527,-48.0563 448.613,-54.0357"/>
</g>
<!-- Node13&#45;&gt;Node8 -->
<g id="edge18" class="edge">
<title>Node13&#45;&gt;Node8</title>
<path fill="none" stroke="#191970" d="M509.3182,-52.6541C535.578,-42.4419 571.1492,-28.6086 594.5685,-19.5011"/>
<polygon fill="#191970" stroke="#191970" points="507.806,-49.4867 499.7545,-56.3733 510.3431,-56.0108 507.806,-49.4867"/>
</g>
<!-- Node13&#45;&gt;Node11 -->
<g id="edge19" class="edge">
<title>Node13&#45;&gt;Node11</title>
<path fill="none" stroke="#191970" d="M529.8219,-54.7545C580.1251,-44.4359 653.8355,-29.3158 701.372,-19.5647"/>
<polygon fill="#191970" stroke="#191970" points="528.8674,-51.3773 519.7747,-56.8154 530.2741,-58.2345 528.8674,-51.3773"/>
</g>
<!-- Node13&#45;&gt;Node12 -->
<g id="edge20" class="edge">
<title>Node13&#45;&gt;Node12</title>
<path fill="none" stroke="#191970" d="M529.7321,-59.0699C596.1307,-50.5276 711.4278,-35.2607 810,-20 812.9283,-19.5466 815.9375,-19.0677 818.9716,-18.5747"/>
<polygon fill="#191970" stroke="#191970" points="528.9787,-55.6378 519.5055,-60.3821 529.8696,-62.5809 528.9787,-55.6378"/>
</g>
<!-- Node14 -->
<g id="node15" class="node">
<title>Node14</title>
<g id="a_node15"><a xlink:href="test__gso_8cpp.html" target="_top" xlink:title="tests/test_gso.cpp">
<polygon fill="#ffffff" stroke="#000000" points="445,-.5 445,-19.5 543,-19.5 543,-.5 445,-.5"/>
<text text-anchor="middle" x="494" y="-7.5" font-family="Helvetica,sans-Serif" font-size="10.00" fill="#000000">tests/test_gso.cpp</text>
</a>
</g>
</g>
<!-- Node13&#45;&gt;Node14 -->
<g id="edge16" class="edge">
<title>Node13&#45;&gt;Node14</title>
<path fill="none" stroke="#191970" d="M481.5315,-46.7493C484.6336,-37.6064 488.2051,-27.0798 490.7284,-19.6427"/>
<polygon fill="#191970" stroke="#191970" points="478.2082,-45.6512 478.3095,-56.2455 484.837,-47.9003 478.2082,-45.6512"/>
</g>
</g>
</svg>
