<?xml version="1.0" encoding="UTF-8" standalone="no"?>
<!DOCTYPE svg PUBLIC "-//W3C//DTD SVG 1.1//EN"
 "http://www.w3.org/Graphics/SVG/1.1/DTD/svg11.dtd">
<!-- Generated by graphviz version 2.40.1 (20161225.0304)
 -->
<!-- Title: fplll/enum&#45;parallel/fplll_types.h Pages: 1 -->
<svg width="248pt" height="173pt"
 viewBox="0.00 0.00 248.00 173.00" xmlns="http://www.w3.org/2000/svg" xmlns:xlink="http://www.w3.org/1999/xlink">
<g id="graph0" class="graph" transform="scale(1 1) rotate(0) translate(4 169)">
<title>fplll/enum&#45;parallel/fplll_types.h</title>
<polygon fill="#ffffff" stroke="transparent" points="-4,4 -4,-169 244,-169 244,4 -4,4"/>
<!-- Node0 -->
<g id="node1" class="node">
<title>Node0</title>
<polygon fill="#bfbfbf" stroke="#000000" points="74,-134.5 74,-164.5 166,-164.5 166,-134.5 74,-134.5"/>
<text text-anchor="start" x="82" y="-152.5" font-family="Helvetica,sans-Serif" font-size="10.00" fill="#000000">fplll/enum&#45;parallel</text>
<text text-anchor="middle" x="120" y="-141.5" font-family="Helvetica,sans-Serif" font-size="10.00" fill="#000000">/fplll_types.h</text>
</g>
<!-- Node1 -->
<g id="node2" class="node">
<title>Node1</title>
<g id="a_node2"><a xlink:href="enumeration_8h.html" target="_top" xlink:title="fplll/enum&#45;parallel\l/enumeration.h">
<polygon fill="#ffffff" stroke="#000000" points="0,-67.5 0,-97.5 92,-97.5 92,-67.5 0,-67.5"/>
<text text-anchor="start" x="8" y="-85.5" font-family="Helvetica,sans-Serif" font-size="10.00" fill="#000000">fplll/enum&#45;parallel</text>
<text text-anchor="middle" x="46" y="-74.5" font-family="Helvetica,sans-Serif" font-size="10.00" fill="#000000">/enumeration.h</text>
</a>
</g>
</g>
<!-- Node0&#45;&gt;Node1 -->
<g id="edge1" class="edge">
<title>Node0&#45;&gt;Node1</title>
<path fill="none" stroke="#191970" d="M95.6976,-127.4965C84.899,-117.7193 72.4582,-106.4554 62.7253,-97.6432"/>
<polygon fill="#191970" stroke="#191970" points="93.4461,-130.1794 103.2083,-134.2967 98.1444,-124.9903 93.4461,-130.1794"/>
</g>
<!-- Node2 -->
<g id="node3" class="node">
<title>Node2</title>
<g id="a_node3"><a xlink:href="enumlib_8cpp.html" target="_top" xlink:title="fplll/enum&#45;parallel\l/enumlib.cpp">
<polygon fill="#ffffff" stroke="#000000" points="74,-.5 74,-30.5 166,-30.5 166,-.5 74,-.5"/>
<text text-anchor="start" x="82" y="-18.5" font-family="Helvetica,sans-Serif" font-size="10.00" fill="#000000">fplll/enum&#45;parallel</text>
<text text-anchor="middle" x="120" y="-7.5" font-family="Helvetica,sans-Serif" font-size="10.00" fill="#000000">/enumlib.cpp</text>
</a>
</g>
</g>
<!-- Node0&#45;&gt;Node2 -->
<g id="edge5" class="edge">
<title>Node0&#45;&gt;Node2</title>
<path fill="none" stroke="#191970" d="M120,-124.3415C120,-96.8131 120,-53.5714 120,-30.7614"/>
<polygon fill="#191970" stroke="#191970" points="116.5001,-124.3889 120,-134.389 123.5001,-124.389 116.5001,-124.3889"/>
</g>
<!-- Node3 -->
<g id="node4" class="node">
<title>Node3</title>
<g id="a_node4"><a xlink:href="enumlib_8h.html" target="_top" xlink:title="fplll/enum&#45;parallel\l/enumlib.h">
<polygon fill="#ffffff" stroke="#000000" points="148,-67.5 148,-97.5 240,-97.5 240,-67.5 148,-67.5"/>
<text text-anchor="start" x="156" y="-85.5" font-family="Helvetica,sans-Serif" font-size="10.00" fill="#000000">fplll/enum&#45;parallel</text>
<text text-anchor="middle" x="194" y="-74.5" font-family="Helvetica,sans-Serif" font-size="10.00" fill="#000000">/enumlib.h</text>
</a>
</g>
</g>
<!-- Node0&#45;&gt;Node3 -->
<g id="edge3" class="edge">
<title>Node0&#45;&gt;Node3</title>
<path fill="none" stroke="#191970" d="M144.3024,-127.4965C155.101,-117.7193 167.5418,-106.4554 177.2747,-97.6432"/>
<polygon fill="#191970" stroke="#191970" points="141.8556,-124.9903 136.7917,-134.2967 146.5539,-130.1794 141.8556,-124.9903"/>
</g>
<!-- Node1&#45;&gt;Node2 -->
<g id="edge2" class="edge">
<title>Node1&#45;&gt;Node2</title>
<path fill="none" stroke="#191970" d="M70.3024,-60.4965C81.101,-50.7193 93.5418,-39.4554 103.2747,-30.6432"/>
<polygon fill="#191970" stroke="#191970" points="67.8556,-57.9903 62.7917,-67.2967 72.5539,-63.1794 67.8556,-57.9903"/>
</g>
<!-- Node3&#45;&gt;Node2 -->
<g id="edge4" class="edge">
<title>Node3&#45;&gt;Node2</title>
<path fill="none" stroke="#191970" d="M169.6976,-60.4965C158.899,-50.7193 146.4582,-39.4554 136.7253,-30.6432"/>
<polygon fill="#191970" stroke="#191970" points="167.4461,-63.1794 177.2083,-67.2967 172.1444,-57.9903 167.4461,-63.1794"/>
</g>
</g>
</svg>
