<?xml version="1.0" encoding="UTF-8" standalone="no"?>
<!DOCTYPE svg PUBLIC "-//W3C//DTD SVG 1.1//EN"
 "http://www.w3.org/Graphics/SVG/1.1/DTD/svg11.dtd">
<!-- Generated by graphviz version 2.40.1 (20161225.0304)
 -->
<!-- Title: fplll/gso.h Pages: 1 -->
<svg width="1572pt" height="408pt"
 viewBox="0.00 0.00 1572.00 408.00" xmlns="http://www.w3.org/2000/svg" xmlns:xlink="http://www.w3.org/1999/xlink">
<g id="graph0" class="graph" transform="scale(1 1) rotate(0) translate(4 404)">
<title>fplll/gso.h</title>
<polygon fill="#ffffff" stroke="transparent" points="-4,4 -4,-404 1568,-404 1568,4 -4,4"/>
<!-- Node0 -->
<g id="node1" class="node">
<title>Node0</title>
<polygon fill="#bfbfbf" stroke="#000000" points="807.5,-380.5 807.5,-399.5 866.5,-399.5 866.5,-380.5 807.5,-380.5"/>
<text text-anchor="middle" x="837" y="-387.5" font-family="Helvetica,sans-Serif" font-size="10.00" fill="#000000">fplll/gso.h</text>
</g>
<!-- Node1 -->
<g id="node2" class="node">
<title>Node1</title>
<g id="a_node2"><a xlink:href="enumerate__ext_8h.html" target="_top" xlink:title="fplll/enum/enumerate\l_ext.h">
<polygon fill="#ffffff" stroke="#000000" points="611.5,-313.5 611.5,-343.5 718.5,-343.5 718.5,-313.5 611.5,-313.5"/>
<text text-anchor="start" x="619.5" y="-331.5" font-family="Helvetica,sans-Serif" font-size="10.00" fill="#000000">fplll/enum/enumerate</text>
<text text-anchor="middle" x="665" y="-320.5" font-family="Helvetica,sans-Serif" font-size="10.00" fill="#000000">_ext.h</text>
</a>
</g>
</g>
<!-- Node0&#45;&gt;Node1 -->
<g id="edge1" class="edge">
<title>Node0&#45;&gt;Node1</title>
<path fill="none" stroke="#191970" d="M800.5429,-376.9645C773.193,-367.1853 735.698,-353.7786 707.0759,-343.5446"/>
<polygon fill="#191970" stroke="#191970" points="799.5304,-380.3194 810.125,-380.3906 801.8872,-373.7281 799.5304,-380.3194"/>
</g>
<!-- Node2 -->
<g id="node3" class="node">
<title>Node2</title>
<g id="a_node3"><a xlink:href="enumerate_8h.html" target="_top" xlink:title="fplll/enum/enumerate.h">
<polygon fill="#ffffff" stroke="#000000" points="455,-252 455,-271 571,-271 571,-252 455,-252"/>
<text text-anchor="middle" x="513" y="-259" font-family="Helvetica,sans-Serif" font-size="10.00" fill="#000000">fplll/enum/enumerate.h</text>
</a>
</g>
</g>
<!-- Node0&#45;&gt;Node2 -->
<g id="edge31" class="edge">
<title>Node0&#45;&gt;Node2</title>
<path fill="none" stroke="#191970" d="M797.1546,-384.8885C739.3782,-377.0258 635.5778,-361.0736 602,-344 566.1296,-325.7606 534.2422,-288.8137 520.3619,-271.2275"/>
<polygon fill="#191970" stroke="#191970" points="797.0031,-388.3995 807.3799,-386.2609 797.9344,-381.4617 797.0031,-388.3995"/>
</g>
<!-- Node13 -->
<g id="node14" class="node">
<title>Node13</title>
<g id="a_node14"><a xlink:href="test__lll__gram_8cpp.html" target="_top" xlink:title="tests/test_lll_gram.cpp">
<polygon fill="#ffffff" stroke="#000000" points="787,-.5 787,-19.5 903,-19.5 903,-.5 787,-.5"/>
<text text-anchor="middle" x="845" y="-7.5" font-family="Helvetica,sans-Serif" font-size="10.00" fill="#000000">tests/test_lll_gram.cpp</text>
</a>
</g>
</g>
<!-- Node0&#45;&gt;Node13 -->
<g id="edge57" class="edge">
<title>Node0&#45;&gt;Node13</title>
<path fill="none" stroke="#191970" d="M858.9961,-374.1688C895.9224,-346.0638 969.0752,-283.4477 997,-210 1029.2376,-125.2086 908.7454,-46.172 862.4274,-19.5142"/>
<polygon fill="#191970" stroke="#191970" points="856.7719,-371.4615 850.8555,-380.2506 860.9615,-377.0693 856.7719,-371.4615"/>
</g>
<!-- Node19 -->
<g id="node20" class="node">
<title>Node19</title>
<g id="a_node20"><a xlink:href="test__gso_8cpp.html" target="_top" xlink:title="tests/test_gso.cpp">
<polygon fill="#ffffff" stroke="#000000" points="547,-.5 547,-19.5 645,-19.5 645,-.5 547,-.5"/>
<text text-anchor="middle" x="596" y="-7.5" font-family="Helvetica,sans-Serif" font-size="10.00" fill="#000000">tests/test_gso.cpp</text>
</a>
</g>
</g>
<!-- Node0&#45;&gt;Node19 -->
<g id="edge56" class="edge">
<title>Node0&#45;&gt;Node19</title>
<path fill="none" stroke="#191970" d="M817.8843,-373.4837C793.9359,-350.8485 756,-307.7013 756,-261.5 756,-261.5 756,-261.5 756,-133 756,-70.1082 677.3373,-34.9404 630.324,-19.5382"/>
<polygon fill="#191970" stroke="#191970" points="815.6521,-376.1851 825.3947,-380.3483 820.3747,-371.0182 815.6521,-376.1851"/>
</g>
<!-- Node23 -->
<g id="node24" class="node">
<title>Node23</title>
<g id="a_node24"><a xlink:href="lll_8h.html" target="_top" xlink:title="fplll/lll.h">
<polygon fill="#ffffff" stroke="#000000" points="812,-252 812,-271 862,-271 862,-252 812,-252"/>
<text text-anchor="middle" x="837" y="-259" font-family="Helvetica,sans-Serif" font-size="10.00" fill="#000000">fplll/lll.h</text>
</a>
</g>
</g>
<!-- Node0&#45;&gt;Node23 -->
<g id="edge32" class="edge">
<title>Node0&#45;&gt;Node23</title>
<path fill="none" stroke="#191970" d="M837,-370.1733C837,-342.2236 837,-292.3037 837,-271.2705"/>
<polygon fill="#191970" stroke="#191970" points="833.5001,-370.3416 837,-380.3416 840.5001,-370.3416 833.5001,-370.3416"/>
</g>
<!-- Node26 -->
<g id="node27" class="node">
<title>Node26</title>
<g id="a_node27"><a xlink:href="gso_8cpp.html" target="_top" xlink:title="fplll/gso.cpp">
<polygon fill="#ffffff" stroke="#000000" points="1177.5,-319 1177.5,-338 1246.5,-338 1246.5,-319 1177.5,-319"/>
<text text-anchor="middle" x="1212" y="-326" font-family="Helvetica,sans-Serif" font-size="10.00" fill="#000000">fplll/gso.cpp</text>
</a>
</g>
</g>
<!-- Node0&#45;&gt;Node26 -->
<g id="edge37" class="edge">
<title>Node0&#45;&gt;Node26</title>
<path fill="none" stroke="#191970" d="M876.9691,-387.165C939.8491,-382.1029 1065.3909,-369.5551 1169,-344 1175.3178,-342.4417 1182,-340.2914 1188.165,-338.0882"/>
<polygon fill="#191970" stroke="#191970" points="876.3976,-383.699 866.7015,-387.9695 876.9444,-390.6776 876.3976,-383.699"/>
</g>
<!-- Node27 -->
<g id="node28" class="node">
<title>Node27</title>
<g id="a_node28"><a xlink:href="sampler__basic_8h.html" target="_top" xlink:title="fplll/sieve/sampler\l_basic.h">
<polygon fill="#ffffff" stroke="#000000" points="1064.5,-313.5 1064.5,-343.5 1159.5,-343.5 1159.5,-313.5 1064.5,-313.5"/>
<text text-anchor="start" x="1072.5" y="-331.5" font-family="Helvetica,sans-Serif" font-size="10.00" fill="#000000">fplll/sieve/sampler</text>
<text text-anchor="middle" x="1112" y="-320.5" font-family="Helvetica,sans-Serif" font-size="10.00" fill="#000000">_basic.h</text>
</a>
</g>
</g>
<!-- Node0&#45;&gt;Node27 -->
<g id="edge38" class="edge">
<title>Node0&#45;&gt;Node27</title>
<path fill="none" stroke="#191970" d="M876.707,-381.1201C926.2545,-370.0394 1010.9176,-351.1057 1064.0366,-339.2264"/>
<polygon fill="#191970" stroke="#191970" points="875.6862,-377.7618 866.6911,-383.36 877.2139,-384.5931 875.6862,-377.7618"/>
</g>
<!-- Node1&#45;&gt;Node2 -->
<g id="edge2" class="edge">
<title>Node1&#45;&gt;Node2</title>
<path fill="none" stroke="#191970" d="M621.5809,-309.3613C593.2026,-296.8525 557.3486,-281.0484 534.788,-271.1039"/>
<polygon fill="#191970" stroke="#191970" points="620.326,-312.6331 630.8882,-313.4639 623.1495,-306.2277 620.326,-312.6331"/>
</g>
<!-- Node22 -->
<g id="node23" class="node">
<title>Node22</title>
<g id="a_node23"><a xlink:href="enumerate__ext_8cpp.html" target="_top" xlink:title="fplll/enum/enumerate\l_ext.cpp">
<polygon fill="#ffffff" stroke="#000000" points="611.5,-246.5 611.5,-276.5 718.5,-276.5 718.5,-246.5 611.5,-246.5"/>
<text text-anchor="start" x="619.5" y="-264.5" font-family="Helvetica,sans-Serif" font-size="10.00" fill="#000000">fplll/enum/enumerate</text>
<text text-anchor="middle" x="665" y="-253.5" font-family="Helvetica,sans-Serif" font-size="10.00" fill="#000000">_ext.cpp</text>
</a>
</g>
</g>
<!-- Node1&#45;&gt;Node22 -->
<g id="edge30" class="edge">
<title>Node1&#45;&gt;Node22</title>
<path fill="none" stroke="#191970" d="M665,-303.0249C665,-294.128 665,-284.4287 665,-276.6432"/>
<polygon fill="#191970" stroke="#191970" points="661.5001,-303.2966 665,-313.2967 668.5001,-303.2967 661.5001,-303.2966"/>
</g>
<!-- Node3 -->
<g id="node4" class="node">
<title>Node3</title>
<g id="a_node4"><a xlink:href="bkz_8h.html" target="_top" xlink:title="fplll/bkz.h">
<polygon fill="#ffffff" stroke="#000000" points="571.5,-185 571.5,-204 630.5,-204 630.5,-185 571.5,-185"/>
<text text-anchor="middle" x="601" y="-192" font-family="Helvetica,sans-Serif" font-size="10.00" fill="#000000">fplll/bkz.h</text>
</a>
</g>
</g>
<!-- Node2&#45;&gt;Node3 -->
<g id="edge3" class="edge">
<title>Node2&#45;&gt;Node3</title>
<path fill="none" stroke="#191970" d="M533.8101,-245.6559C550.775,-232.7395 574.1796,-214.9201 588.4151,-204.0817"/>
<polygon fill="#191970" stroke="#191970" points="531.4445,-243.058 525.6083,-251.9005 535.6849,-248.6275 531.4445,-243.058"/>
</g>
<!-- Node4 -->
<g id="node5" class="node">
<title>Node4</title>
<g id="a_node5"><a xlink:href="bkz_8cpp.html" target="_top" xlink:title="fplll/bkz.cpp">
<polygon fill="#ffffff" stroke="#000000" points="364.5,-123.5 364.5,-142.5 433.5,-142.5 433.5,-123.5 364.5,-123.5"/>
<text text-anchor="middle" x="399" y="-130.5" font-family="Helvetica,sans-Serif" font-size="10.00" fill="#000000">fplll/bkz.cpp</text>
</a>
</g>
</g>
<!-- Node2&#45;&gt;Node4 -->
<g id="edge26" class="edge">
<title>Node2&#45;&gt;Node4</title>
<path fill="none" stroke="#191970" d="M472.1849,-248.1969C453.1073,-240.0158 431.6419,-227.651 418,-210 402.3388,-189.7363 399.4053,-158.2705 398.972,-142.5778"/>
<polygon fill="#191970" stroke="#191970" points="471.0172,-251.4998 481.6007,-251.9906 473.6333,-245.007 471.0172,-251.4998"/>
</g>
<!-- Node20 -->
<g id="node21" class="node">
<title>Node20</title>
<g id="a_node21"><a xlink:href="enumerate_8cpp.html" target="_top" xlink:title="fplll/enum/enumerate.cpp">
<polygon fill="#ffffff" stroke="#000000" points="427,-185 427,-204 553,-204 553,-185 427,-185"/>
<text text-anchor="middle" x="490" y="-192" font-family="Helvetica,sans-Serif" font-size="10.00" fill="#000000">fplll/enum/enumerate.cpp</text>
</a>
</g>
</g>
<!-- Node2&#45;&gt;Node20 -->
<g id="edge27" class="edge">
<title>Node2&#45;&gt;Node20</title>
<path fill="none" stroke="#191970" d="M506.4305,-242.3628C502.1332,-229.8444 496.7027,-214.0252 493.2892,-204.0817"/>
<polygon fill="#191970" stroke="#191970" points="503.1474,-243.5787 509.7047,-251.9005 509.7681,-241.3059 503.1474,-243.5787"/>
</g>
<!-- Node21 -->
<g id="node22" class="node">
<title>Node21</title>
<g id="a_node22"><a xlink:href="svpcvp_8cpp.html" target="_top" xlink:title="fplll/svpcvp.cpp">
<polygon fill="#ffffff" stroke="#000000" points="166.5,-123.5 166.5,-142.5 251.5,-142.5 251.5,-123.5 166.5,-123.5"/>
<text text-anchor="middle" x="209" y="-130.5" font-family="Helvetica,sans-Serif" font-size="10.00" fill="#000000">fplll/svpcvp.cpp</text>
</a>
</g>
</g>
<!-- Node2&#45;&gt;Node21 -->
<g id="edge28" class="edge">
<title>Node2&#45;&gt;Node21</title>
<path fill="none" stroke="#191970" d="M480.8803,-247.9231C419.1117,-221.8136 285.1583,-165.1919 231.6999,-142.5952"/>
<polygon fill="#191970" stroke="#191970" points="479.5769,-251.1719 490.1506,-251.8416 482.3024,-244.7243 479.5769,-251.1719"/>
</g>
<!-- Node3&#45;&gt;Node4 -->
<g id="edge4" class="edge">
<title>Node3&#45;&gt;Node4</title>
<path fill="none" stroke="#191970" d="M568.508,-181.2967C566.3145,-180.4951 564.1306,-179.7219 562,-179 518.2773,-164.1861 466.8766,-150.2412 433.6603,-141.671"/>
<polygon fill="#191970" stroke="#191970" points="567.4582,-184.6419 578.0493,-184.9226 569.9448,-178.0985 567.4582,-184.6419"/>
</g>
<!-- Node5 -->
<g id="node6" class="node">
<title>Node5</title>
<g id="a_node6"><a xlink:href="fplll_8h.html" target="_top" xlink:title="fplll/fplll.h">
<polygon fill="#ffffff" stroke="#000000" points="452,-123.5 452,-142.5 510,-142.5 510,-123.5 452,-123.5"/>
<text text-anchor="middle" x="481" y="-130.5" font-family="Helvetica,sans-Serif" font-size="10.00" fill="#000000">fplll/fplll.h</text>
</a>
</g>
</g>
<!-- Node3&#45;&gt;Node5 -->
<g id="edge5" class="edge">
<title>Node3&#45;&gt;Node5</title>
<path fill="none" stroke="#191970" d="M573.1491,-180.2264C550.5416,-168.6401 519.2928,-152.6251 499.6183,-142.5419"/>
<polygon fill="#191970" stroke="#191970" points="571.7543,-183.4444 582.25,-184.8906 574.947,-177.2149 571.7543,-183.4444"/>
</g>
<!-- Node6 -->
<g id="node7" class="node">
<title>Node6</title>
<g id="a_node7"><a xlink:href="fplll_8cpp.html" target="_top" xlink:title="fplll/fplll.cpp">
<polygon fill="#ffffff" stroke="#000000" points="44,-62 44,-81 112,-81 112,-62 44,-62"/>
<text text-anchor="middle" x="78" y="-69" font-family="Helvetica,sans-Serif" font-size="10.00" fill="#000000">fplll/fplll.cpp</text>
</a>
</g>
</g>
<!-- Node5&#45;&gt;Node6 -->
<g id="edge6" class="edge">
<title>Node5&#45;&gt;Node6</title>
<path fill="none" stroke="#191970" d="M441.7059,-123.2173C298.9469,-98.0897 257.6785,-118.833 121,-87 114.508,-85.488 107.6467,-83.2994 101.3574,-81.041"/>
<polygon fill="#191970" stroke="#191970" points="441.2469,-126.6909 451.7096,-125.0232 442.4905,-119.8023 441.2469,-126.6909"/>
</g>
<!-- Node7 -->
<g id="node8" class="node">
<title>Node7</title>
<g id="a_node8"><a xlink:href="main_8h.html" target="_top" xlink:title="fplll/main.h">
<polygon fill="#ffffff" stroke="#000000" points="130,-62 130,-81 194,-81 194,-62 130,-62"/>
<text text-anchor="middle" x="162" y="-69" font-family="Helvetica,sans-Serif" font-size="10.00" fill="#000000">fplll/main.h</text>
</a>
</g>
</g>
<!-- Node5&#45;&gt;Node7 -->
<g id="edge7" class="edge">
<title>Node5&#45;&gt;Node7</title>
<path fill="none" stroke="#191970" d="M441.6691,-123.132C337.1086,-102.4796 307.1418,-111.1386 208,-87 201.4495,-85.4051 194.5009,-83.2934 188.0427,-81.1435"/>
<polygon fill="#191970" stroke="#191970" points="441.1894,-126.6057 451.6843,-125.1538 442.5746,-119.7441 441.1894,-126.6057"/>
</g>
<!-- Node9 -->
<g id="node10" class="node">
<title>Node9</title>
<g id="a_node10"><a xlink:href="sieve__main_8cpp.html" target="_top" xlink:title="fplll/sieve/sieve_main.cpp">
<polygon fill="#ffffff" stroke="#000000" points="941.5,-.5 941.5,-19.5 1070.5,-19.5 1070.5,-.5 941.5,-.5"/>
<text text-anchor="middle" x="1006" y="-7.5" font-family="Helvetica,sans-Serif" font-size="10.00" fill="#000000">fplll/sieve/sieve_main.cpp</text>
</a>
</g>
</g>
<!-- Node5&#45;&gt;Node9 -->
<g id="edge9" class="edge">
<title>Node5&#45;&gt;Node9</title>
<path fill="none" stroke="#191970" d="M520.0749,-128.449C574.8399,-121.6589 677.3284,-107.4466 763,-87 843.4958,-67.7887 936.0533,-35.5579 980.0998,-19.5791"/>
<polygon fill="#191970" stroke="#191970" points="519.5994,-124.981 510.0982,-129.6691 520.4491,-131.9293 519.5994,-124.981"/>
</g>
<!-- Node10 -->
<g id="node11" class="node">
<title>Node10</title>
<g id="a_node11"><a xlink:href="test__bkz_8cpp.html" target="_top" xlink:title="tests/test_bkz.cpp">
<polygon fill="#ffffff" stroke="#000000" points="208,-.5 208,-19.5 306,-19.5 306,-.5 208,-.5"/>
<text text-anchor="middle" x="257" y="-7.5" font-family="Helvetica,sans-Serif" font-size="10.00" fill="#000000">tests/test_bkz.cpp</text>
</a>
</g>
</g>
<!-- Node5&#45;&gt;Node10 -->
<g id="edge10" class="edge">
<title>Node5&#45;&gt;Node10</title>
<path fill="none" stroke="#191970" d="M441.9885,-122.9925C391.8269,-110.0723 310.7822,-88.9982 308,-87 283.5158,-69.4153 267.4881,-36.1315 260.7009,-19.6902"/>
<polygon fill="#191970" stroke="#191970" points="441.3238,-126.4354 451.8805,-125.5378 443.0682,-119.6562 441.3238,-126.4354"/>
</g>
<!-- Node11 -->
<g id="node12" class="node">
<title>Node11</title>
<g id="a_node12"><a xlink:href="test__cvp_8cpp.html" target="_top" xlink:title="tests/test_cvp.cpp">
<polygon fill="#ffffff" stroke="#000000" points="324,-.5 324,-19.5 422,-19.5 422,-.5 324,-.5"/>
<text text-anchor="middle" x="373" y="-7.5" font-family="Helvetica,sans-Serif" font-size="10.00" fill="#000000">tests/test_cvp.cpp</text>
</a>
</g>
</g>
<!-- Node5&#45;&gt;Node11 -->
<g id="edge11" class="edge">
<title>Node5&#45;&gt;Node11</title>
<path fill="none" stroke="#191970" d="M441.9933,-122.6788C394.108,-109.9195 318.9441,-89.5644 317,-87 308.6765,-76.0206 311.112,-68.4563 317,-56 324.6351,-39.8476 341.03,-27.4611 354.1176,-19.6324"/>
<polygon fill="#191970" stroke="#191970" points="441.1976,-126.0888 451.7613,-125.2771 442.997,-119.324 441.1976,-126.0888"/>
</g>
<!-- Node12 -->
<g id="node13" class="node">
<title>Node12</title>
<g id="a_node13"><a xlink:href="test__lll_8cpp.html" target="_top" xlink:title="tests/test_lll.cpp">
<polygon fill="#ffffff" stroke="#000000" points="440.5,-.5 440.5,-19.5 529.5,-19.5 529.5,-.5 440.5,-.5"/>
<text text-anchor="middle" x="485" y="-7.5" font-family="Helvetica,sans-Serif" font-size="10.00" fill="#000000">tests/test_lll.cpp</text>
</a>
</g>
</g>
<!-- Node5&#45;&gt;Node12 -->
<g id="edge12" class="edge">
<title>Node5&#45;&gt;Node12</title>
<path fill="none" stroke="#191970" d="M471.7909,-114.156C468.2981,-106.0107 464.7441,-96.2434 463,-87 460.4454,-73.4611 459.9522,-69.4365 463,-56 466.0157,-42.7049 473.3644,-28.7591 478.7417,-19.7567"/>
<polygon fill="#191970" stroke="#191970" points="468.6976,-115.8077 476.0415,-123.4444 475.0628,-112.8948 468.6976,-115.8077"/>
</g>
<!-- Node5&#45;&gt;Node13 -->
<g id="edge13" class="edge">
<title>Node5&#45;&gt;Node13</title>
<path fill="none" stroke="#191970" d="M520.3153,-129.8167C568.6901,-124.9196 652.681,-113.1975 720,-87 764.6558,-69.622 811.1368,-36.2413 832.679,-19.734"/>
<polygon fill="#191970" stroke="#191970" points="519.8799,-126.3424 510.2627,-130.7875 520.5528,-133.31 519.8799,-126.3424"/>
</g>
<!-- Node14 -->
<g id="node15" class="node">
<title>Node14</title>
<g id="a_node15"><a xlink:href="test__nr_8cpp.html" target="_top" xlink:title="tests/test_nr.cpp">
<polygon fill="#ffffff" stroke="#000000" points="472,-62 472,-81 562,-81 562,-62 472,-62"/>
<text text-anchor="middle" x="517" y="-69" font-family="Helvetica,sans-Serif" font-size="10.00" fill="#000000">tests/test_nr.cpp</text>
</a>
</g>
</g>
<!-- Node5&#45;&gt;Node14 -->
<g id="edge14" class="edge">
<title>Node5&#45;&gt;Node14</title>
<path fill="none" stroke="#191970" d="M491.7791,-114.5857C498.191,-103.632 506.0684,-90.1748 511.2957,-81.2449"/>
<polygon fill="#191970" stroke="#191970" points="488.6563,-112.9923 486.625,-123.3906 494.6974,-116.5286 488.6563,-112.9923"/>
</g>
<!-- Node15 -->
<g id="node16" class="node">
<title>Node15</title>
<g id="a_node16"><a xlink:href="test__pruner_8cpp.html" target="_top" xlink:title="tests/test_pruner.cpp">
<polygon fill="#ffffff" stroke="#000000" points="580.5,-62 580.5,-81 689.5,-81 689.5,-62 580.5,-62"/>
<text text-anchor="middle" x="635" y="-69" font-family="Helvetica,sans-Serif" font-size="10.00" fill="#000000">tests/test_pruner.cpp</text>
</a>
</g>
</g>
<!-- Node5&#45;&gt;Node15 -->
<g id="edge15" class="edge">
<title>Node5&#45;&gt;Node15</title>
<path fill="none" stroke="#191970" d="M514.435,-119.6477C543.5959,-108.0023 585.1812,-91.3952 611.1065,-81.0419"/>
<polygon fill="#191970" stroke="#191970" points="513.0513,-116.4315 505.0625,-123.3906 515.6474,-122.9323 513.0513,-116.4315"/>
</g>
<!-- Node16 -->
<g id="node17" class="node">
<title>Node16</title>
<g id="a_node17"><a xlink:href="test__sieve_8cpp.html" target="_top" xlink:title="tests/test_sieve.cpp">
<polygon fill="#ffffff" stroke="#000000" points="663.5,-.5 663.5,-19.5 768.5,-19.5 768.5,-.5 663.5,-.5"/>
<text text-anchor="middle" x="716" y="-7.5" font-family="Helvetica,sans-Serif" font-size="10.00" fill="#000000">tests/test_sieve.cpp</text>
</a>
</g>
</g>
<!-- Node5&#45;&gt;Node16 -->
<g id="edge16" class="edge">
<title>Node5&#45;&gt;Node16</title>
<path fill="none" stroke="#191970" d="M520.5609,-129.6483C576.1189,-124.128 673.2519,-111.2397 698,-87 716.4385,-68.9403 717.503,-35.8792 716.7675,-19.5897"/>
<polygon fill="#191970" stroke="#191970" points="519.9881,-126.1871 510.3675,-130.6249 520.6557,-133.1552 519.9881,-126.1871"/>
</g>
<!-- Node17 -->
<g id="node18" class="node">
<title>Node17</title>
<g id="a_node18"><a xlink:href="test__svp_8cpp.html" target="_top" xlink:title="tests/test_svp.cpp">
<polygon fill="#ffffff" stroke="#000000" points="92,-.5 92,-19.5 190,-19.5 190,-.5 92,-.5"/>
<text text-anchor="middle" x="141" y="-7.5" font-family="Helvetica,sans-Serif" font-size="10.00" fill="#000000">tests/test_svp.cpp</text>
</a>
</g>
</g>
<!-- Node5&#45;&gt;Node17 -->
<g id="edge17" class="edge">
<title>Node5&#45;&gt;Node17</title>
<path fill="none" stroke="#191970" d="M441.7676,-123.0658C367.0942,-106.2829 344.2382,-112.693 277,-87 229.3506,-68.7923 178.3405,-35.8005 154.6034,-19.5584"/>
<polygon fill="#191970" stroke="#191970" points="441.1091,-126.5058 451.6408,-125.3508 442.6875,-119.6861 441.1091,-126.5058"/>
</g>
<!-- Node18 -->
<g id="node19" class="node">
<title>Node18</title>
<g id="a_node19"><a xlink:href="test__utils_8h.html" target="_top" xlink:title="tests/test_utils.h">
<polygon fill="#ffffff" stroke="#000000" points="326.5,-62 326.5,-81 415.5,-81 415.5,-62 326.5,-62"/>
<text text-anchor="middle" x="371" y="-69" font-family="Helvetica,sans-Serif" font-size="10.00" fill="#000000">tests/test_utils.h</text>
</a>
</g>
</g>
<!-- Node5&#45;&gt;Node18 -->
<g id="edge18" class="edge">
<title>Node5&#45;&gt;Node18</title>
<path fill="none" stroke="#191970" d="M454.913,-118.415C434.2358,-106.8546 405.9407,-91.035 388.0668,-81.0419"/>
<polygon fill="#191970" stroke="#191970" points="453.376,-121.5655 463.8125,-123.3906 456.7921,-115.4556 453.376,-121.5655"/>
</g>
<!-- Node8 -->
<g id="node9" class="node">
<title>Node8</title>
<g id="a_node9"><a xlink:href="main_8cpp.html" target="_top" xlink:title="fplll/main.cpp">
<polygon fill="#ffffff" stroke="#000000" points="0,-.5 0,-19.5 74,-19.5 74,-.5 0,-.5"/>
<text text-anchor="middle" x="37" y="-7.5" font-family="Helvetica,sans-Serif" font-size="10.00" fill="#000000">fplll/main.cpp</text>
</a>
</g>
</g>
<!-- Node7&#45;&gt;Node8 -->
<g id="edge8" class="edge">
<title>Node7&#45;&gt;Node8</title>
<path fill="none" stroke="#191970" d="M133.3035,-57.3813C109.7301,-45.7832 76.9798,-29.6701 56.3941,-19.5419"/>
<polygon fill="#191970" stroke="#191970" points="131.9508,-60.6164 142.4688,-61.8906 135.0411,-54.3355 131.9508,-60.6164"/>
</g>
<!-- Node18&#45;&gt;Node10 -->
<g id="edge19" class="edge">
<title>Node18&#45;&gt;Node10</title>
<path fill="none" stroke="#191970" d="M344.2535,-57.071C322.7997,-45.4972 293.2947,-29.5801 274.6874,-19.5419"/>
<polygon fill="#191970" stroke="#191970" points="342.7247,-60.223 353.1875,-61.8906 346.0483,-54.0623 342.7247,-60.223"/>
</g>
<!-- Node18&#45;&gt;Node11 -->
<g id="edge20" class="edge">
<title>Node18&#45;&gt;Node11</title>
<path fill="none" stroke="#191970" d="M371.6424,-51.7462C371.9902,-41.0519 372.4044,-28.314 372.6831,-19.7449"/>
<polygon fill="#191970" stroke="#191970" points="368.1395,-51.7821 371.3125,-61.8906 375.1358,-52.0097 368.1395,-51.7821"/>
</g>
<!-- Node18&#45;&gt;Node12 -->
<g id="edge22" class="edge">
<title>Node18&#45;&gt;Node12</title>
<path fill="none" stroke="#191970" d="M397.7465,-57.071C419.2003,-45.4972 448.7053,-29.5801 467.3126,-19.5419"/>
<polygon fill="#191970" stroke="#191970" points="395.9517,-54.0623 388.8125,-61.8906 399.2753,-60.223 395.9517,-54.0623"/>
</g>
<!-- Node18&#45;&gt;Node13 -->
<g id="edge23" class="edge">
<title>Node18&#45;&gt;Node13</title>
<path fill="none" stroke="#191970" d="M425.899,-61.7634C438.0949,-59.7365 450.9718,-57.7016 463,-56 602.085,-36.3246 637.717,-38.2211 777,-20 780.1946,-19.5821 783.4717,-19.1411 786.7784,-18.6865"/>
<polygon fill="#191970" stroke="#191970" points="425.1278,-58.3439 415.8483,-63.4566 426.2908,-65.2466 425.1278,-58.3439"/>
</g>
<!-- Node18&#45;&gt;Node16 -->
<g id="edge24" class="edge">
<title>Node18&#45;&gt;Node16</title>
<path fill="none" stroke="#191970" d="M425.8376,-61.7246C491.0745,-50.0954 599.2062,-30.8198 663.4297,-19.3712"/>
<polygon fill="#191970" stroke="#191970" points="424.9796,-58.3223 415.749,-63.523 426.2081,-65.2137 424.9796,-58.3223"/>
</g>
<!-- Node18&#45;&gt;Node17 -->
<g id="edge25" class="edge">
<title>Node18&#45;&gt;Node17</title>
<path fill="none" stroke="#191970" d="M325.5263,-59.3407C281.8781,-47.6696 216.8378,-30.2784 176.7689,-19.5643"/>
<polygon fill="#191970" stroke="#191970" points="324.7501,-62.7561 335.3149,-61.9581 326.5584,-55.9937 324.7501,-62.7561"/>
</g>
<!-- Node18&#45;&gt;Node19 -->
<g id="edge21" class="edge">
<title>Node18&#45;&gt;Node19</title>
<path fill="none" stroke="#191970" d="M416.0114,-59.1969C458.7356,-47.5189 522.06,-30.2103 561.0906,-19.5419"/>
<polygon fill="#191970" stroke="#191970" points="414.8796,-55.8778 406.1563,-61.8906 416.7252,-62.6301 414.8796,-55.8778"/>
</g>
<!-- Node21&#45;&gt;Node6 -->
<g id="edge29" class="edge">
<title>Node21&#45;&gt;Node6</title>
<path fill="none" stroke="#191970" d="M179.2549,-119.0357C154.5264,-107.4265 119.9948,-91.2151 98.325,-81.0419"/>
<polygon fill="#191970" stroke="#191970" points="177.9917,-122.3092 188.5313,-123.3906 180.9665,-115.9727 177.9917,-122.3092"/>
</g>
<!-- Node23&#45;&gt;Node3 -->
<g id="edge33" class="edge">
<title>Node23&#45;&gt;Node3</title>
<path fill="none" stroke="#191970" d="M801.834,-251.5164C755.4102,-238.3368 674.4731,-215.3589 630.8671,-202.9792"/>
<polygon fill="#191970" stroke="#191970" points="801.1681,-254.9656 811.7439,-254.3298 803.0799,-248.2318 801.1681,-254.9656"/>
</g>
<!-- Node23&#45;&gt;Node13 -->
<g id="edge36" class="edge">
<title>Node23&#45;&gt;Node13</title>
<path fill="none" stroke="#191970" d="M825.8866,-242.8253C820.8812,-233.3442 815.534,-221.4364 813,-210 796.9497,-137.5611 829.0961,-48.6659 840.8935,-19.652"/>
<polygon fill="#191970" stroke="#191970" points="822.9146,-244.682 830.8466,-251.7057 829.0259,-241.2685 822.9146,-244.682"/>
</g>
<!-- Node24 -->
<g id="node25" class="node">
<title>Node24</title>
<g id="a_node25"><a xlink:href="lll_8cpp.html" target="_top" xlink:title="fplll/lll.cpp">
<polygon fill="#ffffff" stroke="#000000" points="928,-185 928,-204 988,-204 988,-185 928,-185"/>
<text text-anchor="middle" x="958" y="-192" font-family="Helvetica,sans-Serif" font-size="10.00" fill="#000000">fplll/lll.cpp</text>
</a>
</g>
</g>
<!-- Node23&#45;&gt;Node24 -->
<g id="edge34" class="edge">
<title>Node23&#45;&gt;Node24</title>
<path fill="none" stroke="#191970" d="M863.395,-246.8846C886.861,-233.891 920.4934,-215.2681 940.6958,-204.0817"/>
<polygon fill="#191970" stroke="#191970" points="861.3893,-243.9944 854.3363,-251.9005 864.7802,-250.1183 861.3893,-243.9944"/>
</g>
<!-- Node25 -->
<g id="node26" class="node">
<title>Node25</title>
<g id="a_node26"><a xlink:href="wrapper_8cpp.html" target="_top" xlink:title="fplll/wrapper.cpp">
<polygon fill="#ffffff" stroke="#000000" points="822,-185 822,-204 910,-204 910,-185 822,-185"/>
<text text-anchor="middle" x="866" y="-192" font-family="Helvetica,sans-Serif" font-size="10.00" fill="#000000">fplll/wrapper.cpp</text>
</a>
</g>
</g>
<!-- Node23&#45;&gt;Node25 -->
<g id="edge35" class="edge">
<title>Node23&#45;&gt;Node25</title>
<path fill="none" stroke="#191970" d="M845.2832,-242.3628C850.7017,-229.8444 857.5488,-214.0252 861.8527,-204.0817"/>
<polygon fill="#191970" stroke="#191970" points="841.9153,-241.333 841.155,-251.9005 848.3393,-244.1136 841.9153,-241.333"/>
</g>
<!-- Node28 -->
<g id="node29" class="node">
<title>Node28</title>
<g id="a_node29"><a xlink:href="sampler__basic_8cpp.html" target="_top" xlink:title="fplll/sieve/sampler\l_basic.cpp">
<polygon fill="#ffffff" stroke="#000000" points="1197.5,-246.5 1197.5,-276.5 1292.5,-276.5 1292.5,-246.5 1197.5,-246.5"/>
<text text-anchor="start" x="1205.5" y="-264.5" font-family="Helvetica,sans-Serif" font-size="10.00" fill="#000000">fplll/sieve/sampler</text>
<text text-anchor="middle" x="1245" y="-253.5" font-family="Helvetica,sans-Serif" font-size="10.00" fill="#000000">_basic.cpp</text>
</a>
</g>
</g>
<!-- Node27&#45;&gt;Node28 -->
<g id="edge39" class="edge">
<title>Node27&#45;&gt;Node28</title>
<path fill="none" stroke="#191970" d="M1150.8813,-308.9132C1171.2643,-298.645 1195.8572,-286.2561 1214.7917,-276.7177"/>
<polygon fill="#191970" stroke="#191970" points="1149.2039,-305.8391 1141.8478,-313.4639 1152.3533,-312.0906 1149.2039,-305.8391"/>
</g>
<!-- Node29 -->
<g id="node30" class="node">
<title>Node29</title>
<g id="a_node30"><a xlink:href="sampler__main_8cpp.html" target="_top" xlink:title="fplll/sieve/sampler\l_main.cpp">
<polygon fill="#ffffff" stroke="#000000" points="1310.5,-246.5 1310.5,-276.5 1405.5,-276.5 1405.5,-246.5 1310.5,-246.5"/>
<text text-anchor="start" x="1318.5" y="-264.5" font-family="Helvetica,sans-Serif" font-size="10.00" fill="#000000">fplll/sieve/sampler</text>
<text text-anchor="middle" x="1358" y="-253.5" font-family="Helvetica,sans-Serif" font-size="10.00" fill="#000000">_main.cpp</text>
</a>
</g>
</g>
<!-- Node27&#45;&gt;Node29 -->
<g id="edge40" class="edge">
<title>Node27&#45;&gt;Node29</title>
<path fill="none" stroke="#191970" d="M1169.2487,-312.9353C1229.6557,-296.5652 1245.8186,-292.3785 1302,-277 1304.7244,-276.2543 1307.5227,-275.4862 1310.3462,-274.7097"/>
<polygon fill="#191970" stroke="#191970" points="1168.3201,-309.5607 1159.5846,-315.5559 1170.1521,-316.3167 1168.3201,-309.5607"/>
</g>
<!-- Node30 -->
<g id="node31" class="node">
<title>Node30</title>
<g id="a_node31"><a xlink:href="sieve__common_8h.html" target="_top" xlink:title="fplll/sieve/sieve_common.h">
<polygon fill="#ffffff" stroke="#000000" points="1044.5,-252 1044.5,-271 1179.5,-271 1179.5,-252 1044.5,-252"/>
<text text-anchor="middle" x="1112" y="-259" font-family="Helvetica,sans-Serif" font-size="10.00" fill="#000000">fplll/sieve/sieve_common.h</text>
</a>
</g>
</g>
<!-- Node27&#45;&gt;Node30 -->
<g id="edge41" class="edge">
<title>Node27&#45;&gt;Node30</title>
<path fill="none" stroke="#191970" d="M1112,-303.1199C1112,-291.9072 1112,-279.4031 1112,-271.055"/>
<polygon fill="#191970" stroke="#191970" points="1108.5001,-303.2966 1112,-313.2967 1115.5001,-303.2967 1108.5001,-303.2966"/>
</g>
<!-- Node31 -->
<g id="node32" class="node">
<title>Node31</title>
<g id="a_node32"><a xlink:href="sieve__gauss__str_8h.html" target="_top" xlink:title="fplll/sieve/sieve_gauss\l_str.h">
<polygon fill="#ffffff" stroke="#000000" points="1117,-179.5 1117,-209.5 1233,-209.5 1233,-179.5 1117,-179.5"/>
<text text-anchor="start" x="1125" y="-197.5" font-family="Helvetica,sans-Serif" font-size="10.00" fill="#000000">fplll/sieve/sieve_gauss</text>
<text text-anchor="middle" x="1175" y="-186.5" font-family="Helvetica,sans-Serif" font-size="10.00" fill="#000000">_str.h</text>
</a>
</g>
</g>
<!-- Node30&#45;&gt;Node31 -->
<g id="edge42" class="edge">
<title>Node30&#45;&gt;Node31</title>
<path fill="none" stroke="#191970" d="M1122.4066,-244.0423C1131.4081,-233.33 1144.2648,-219.7528 1155.1363,-209.5218"/>
<polygon fill="#191970" stroke="#191970" points="1119.6353,-241.9038 1116.1258,-251.9005 1125.1033,-246.2743 1119.6353,-241.9038"/>
</g>
<!-- Node32 -->
<g id="node33" class="node">
<title>Node32</title>
<g id="a_node33"><a xlink:href="sieve__gauss_8h.html" target="_top" xlink:title="fplll/sieve/sieve_gauss.h">
<polygon fill="#ffffff" stroke="#000000" points="1113,-123.5 1113,-142.5 1237,-142.5 1237,-123.5 1113,-123.5"/>
<text text-anchor="middle" x="1175" y="-130.5" font-family="Helvetica,sans-Serif" font-size="10.00" fill="#000000">fplll/sieve/sieve_gauss.h</text>
</a>
</g>
</g>
<!-- Node30&#45;&gt;Node32 -->
<g id="edge55" class="edge">
<title>Node30&#45;&gt;Node32</title>
<path fill="none" stroke="#191970" d="M1105.7763,-242.2446C1101.29,-224.7156 1097.6556,-198.6499 1108,-179 1116.9388,-162.0201 1135.2893,-150.0989 1150.5288,-142.6538"/>
<polygon fill="#191970" stroke="#191970" points="1102.4324,-243.2807 1108.5625,-251.922 1109.1592,-241.344 1102.4324,-243.2807"/>
</g>
<!-- Node31&#45;&gt;Node30 -->
<g id="edge43" class="edge">
<title>Node31&#45;&gt;Node30</title>
<path fill="none" stroke="#191970" d="M1159.9966,-217.2986C1149.6106,-229.1099 1136.1286,-242.9043 1125.927,-251.9005"/>
<polygon fill="#191970" stroke="#191970" points="1162.799,-219.406 1166.6138,-209.5218 1157.4678,-214.8697 1162.799,-219.406"/>
</g>
<!-- Node31&#45;&gt;Node32 -->
<g id="edge44" class="edge">
<title>Node31&#45;&gt;Node32</title>
<path fill="none" stroke="#191970" d="M1175,-169.2849C1175,-159.9858 1175,-149.9883 1175,-142.8469"/>
<polygon fill="#191970" stroke="#191970" points="1171.5001,-169.2977 1175,-179.2977 1178.5001,-169.2978 1171.5001,-169.2977"/>
</g>
<!-- Node33 -->
<g id="node34" class="node">
<title>Node33</title>
<g id="a_node34"><a xlink:href="sieve__gauss_8cpp.html" target="_top" xlink:title="fplll/sieve/sieve_gauss.cpp">
<polygon fill="#ffffff" stroke="#000000" points="1238,-.5 1238,-19.5 1372,-19.5 1372,-.5 1238,-.5"/>
<text text-anchor="middle" x="1305" y="-7.5" font-family="Helvetica,sans-Serif" font-size="10.00" fill="#000000">fplll/sieve/sieve_gauss.cpp</text>
</a>
</g>
</g>
<!-- Node32&#45;&gt;Node33 -->
<g id="edge45" class="edge">
<title>Node32&#45;&gt;Node33</title>
<path fill="none" stroke="#191970" d="M1167.758,-113.5913C1162.8316,-96.7828 1159.1318,-72.6221 1171,-56 1181.648,-41.0868 1225.2949,-27.9505 1259.9209,-19.5747"/>
<polygon fill="#191970" stroke="#191970" points="1164.549,-115.0339 1171.0211,-123.4221 1171.1926,-112.8287 1164.549,-115.0339"/>
</g>
<!-- Node34 -->
<g id="node35" class="node">
<title>Node34</title>
<g id="a_node35"><a xlink:href="sieve__gauss__2sieve_8cpp.html" target="_top" xlink:title="fplll/sieve/sieve_gauss\l_2sieve.cpp">
<polygon fill="#ffffff" stroke="#000000" points="1180,-56.5 1180,-86.5 1296,-86.5 1296,-56.5 1180,-56.5"/>
<text text-anchor="start" x="1188" y="-74.5" font-family="Helvetica,sans-Serif" font-size="10.00" fill="#000000">fplll/sieve/sieve_gauss</text>
<text text-anchor="middle" x="1238" y="-63.5" font-family="Helvetica,sans-Serif" font-size="10.00" fill="#000000">_2sieve.cpp</text>
</a>
</g>
</g>
<!-- Node32&#45;&gt;Node34 -->
<g id="edge46" class="edge">
<title>Node32&#45;&gt;Node34</title>
<path fill="none" stroke="#191970" d="M1192.1994,-116.2101C1201.6953,-106.9403 1213.3923,-95.5218 1222.5885,-86.5446"/>
<polygon fill="#191970" stroke="#191970" points="1189.5546,-113.9007 1184.8438,-123.3906 1194.4444,-118.9097 1189.5546,-113.9007"/>
</g>
<!-- Node35 -->
<g id="node36" class="node">
<title>Node35</title>
<g id="a_node36"><a xlink:href="sieve__gauss__3sieve_8cpp.html" target="_top" xlink:title="fplll/sieve/sieve_gauss\l_3sieve.cpp">
<polygon fill="#ffffff" stroke="#000000" points="1314,-56.5 1314,-86.5 1430,-86.5 1430,-56.5 1314,-56.5"/>
<text text-anchor="start" x="1322" y="-74.5" font-family="Helvetica,sans-Serif" font-size="10.00" fill="#000000">fplll/sieve/sieve_gauss</text>
<text text-anchor="middle" x="1372" y="-63.5" font-family="Helvetica,sans-Serif" font-size="10.00" fill="#000000">_3sieve.cpp</text>
</a>
</g>
</g>
<!-- Node32&#45;&gt;Node35 -->
<g id="edge48" class="edge">
<title>Node32&#45;&gt;Node35</title>
<path fill="none" stroke="#191970" d="M1215.5256,-120.3486C1246.9494,-110.5386 1290.5948,-96.9133 1323.8084,-86.5446"/>
<polygon fill="#191970" stroke="#191970" points="1214.2839,-117.0696 1205.7813,-123.3906 1216.3699,-123.7515 1214.2839,-117.0696"/>
</g>
<!-- Node36 -->
<g id="node37" class="node">
<title>Node36</title>
<g id="a_node37"><a xlink:href="sieve__gauss__4sieve_8cpp.html" target="_top" xlink:title="fplll/sieve/sieve_gauss\l_4sieve.cpp">
<polygon fill="#ffffff" stroke="#000000" points="1448,-56.5 1448,-86.5 1564,-86.5 1564,-56.5 1448,-56.5"/>
<text text-anchor="start" x="1456" y="-74.5" font-family="Helvetica,sans-Serif" font-size="10.00" fill="#000000">fplll/sieve/sieve_gauss</text>
<text text-anchor="middle" x="1506" y="-63.5" font-family="Helvetica,sans-Serif" font-size="10.00" fill="#000000">_4sieve.cpp</text>
</a>
</g>
</g>
<!-- Node32&#45;&gt;Node36 -->
<g id="edge50" class="edge">
<title>Node32&#45;&gt;Node36</title>
<path fill="none" stroke="#191970" d="M1245.2305,-121.8391C1298.5377,-113.1073 1373.5674,-100.2589 1439,-87 1441.9253,-86.4072 1444.9183,-85.7824 1447.9377,-85.1375"/>
<polygon fill="#191970" stroke="#191970" points="1244.5087,-118.4105 1235.2028,-123.4751 1245.6359,-125.3192 1244.5087,-118.4105"/>
</g>
<!-- Node37 -->
<g id="node38" class="node">
<title>Node37</title>
<g id="a_node38"><a xlink:href="sieve__main_8h.html" target="_top" xlink:title="fplll/sieve/sieve_main.h">
<polygon fill="#ffffff" stroke="#000000" points="1004.5,-62 1004.5,-81 1123.5,-81 1123.5,-62 1004.5,-62"/>
<text text-anchor="middle" x="1064" y="-69" font-family="Helvetica,sans-Serif" font-size="10.00" fill="#000000">fplll/sieve/sieve_main.h</text>
</a>
</g>
</g>
<!-- Node32&#45;&gt;Node37 -->
<g id="edge52" class="edge">
<title>Node32&#45;&gt;Node37</title>
<path fill="none" stroke="#191970" d="M1148.6759,-118.415C1127.8107,-106.8546 1099.2584,-91.035 1081.222,-81.0419"/>
<polygon fill="#191970" stroke="#191970" points="1147.2128,-121.6057 1157.6563,-123.3906 1150.6053,-115.4827 1147.2128,-121.6057"/>
</g>
<!-- Node34&#45;&gt;Node33 -->
<g id="edge47" class="edge">
<title>Node34&#45;&gt;Node33</title>
<path fill="none" stroke="#191970" d="M1262.2333,-49.256C1273.2226,-39.1688 1285.6559,-27.7561 1294.2725,-19.8469"/>
<polygon fill="#191970" stroke="#191970" points="1259.562,-46.957 1254.5618,-56.2977 1264.2956,-52.1139 1259.562,-46.957"/>
</g>
<!-- Node35&#45;&gt;Node33 -->
<g id="edge49" class="edge">
<title>Node35&#45;&gt;Node33</title>
<path fill="none" stroke="#191970" d="M1347.7667,-49.256C1336.7774,-39.1688 1324.3441,-27.7561 1315.7275,-19.8469"/>
<polygon fill="#191970" stroke="#191970" points="1345.7044,-52.1139 1355.4382,-56.2977 1350.438,-46.957 1345.7044,-52.1139"/>
</g>
<!-- Node36&#45;&gt;Node33 -->
<g id="edge51" class="edge">
<title>Node36&#45;&gt;Node33</title>
<path fill="none" stroke="#191970" d="M1446.8506,-53.4021C1410.5801,-42.3044 1365.6061,-28.5437 1336.1479,-19.5303"/>
<polygon fill="#191970" stroke="#191970" points="1446.2434,-56.8764 1456.8299,-56.4554 1448.2915,-50.1827 1446.2434,-56.8764"/>
</g>
<!-- Node37&#45;&gt;Node9 -->
<g id="edge53" class="edge">
<title>Node37&#45;&gt;Node9</title>
<path fill="none" stroke="#191970" d="M1047.8739,-54.4007C1037.3358,-43.2268 1023.9523,-29.0356 1015.1903,-19.7449"/>
<polygon fill="#191970" stroke="#191970" points="1045.5302,-57.0169 1054.9375,-61.8906 1050.6227,-52.2142 1045.5302,-57.0169"/>
</g>
<!-- Node37&#45;&gt;Node16 -->
<g id="edge54" class="edge">
<title>Node37&#45;&gt;Node16</title>
<path fill="none" stroke="#191970" d="M1000.0641,-60.201C933.5673,-48.4494 830.6865,-30.2679 768.6938,-19.3123"/>
<polygon fill="#191970" stroke="#191970" points="999.5503,-63.6643 1010.0068,-61.9581 1000.7685,-56.7712 999.5503,-63.6643"/>
</g>
</g>
</svg>
