<?xml version="1.0" encoding="UTF-8" standalone="no"?>
<!DOCTYPE svg PUBLIC "-//W3C//DTD SVG 1.1//EN"
 "http://www.w3.org/Graphics/SVG/1.1/DTD/svg11.dtd">
<!-- Generated by graphviz version 2.40.1 (20161225.0304)
 -->
<!-- Title: fplll/gso.h Pages: 1 -->
<svg width="2139pt" height="431pt"
 viewBox="0.00 0.00 2138.91 431.00" xmlns="http://www.w3.org/2000/svg" xmlns:xlink="http://www.w3.org/1999/xlink">
<g id="graph0" class="graph" transform="scale(1 1) rotate(0) translate(4 427)">
<title>fplll/gso.h</title>
<polygon fill="#ffffff" stroke="transparent" points="-4,4 -4,-427 2134.9143,-427 2134.9143,4 -4,4"/>
<!-- Node0 -->
<g id="node1" class="node">
<title>Node0</title>
<polygon fill="#bfbfbf" stroke="#000000" points="1937.4143,-403.5 1937.4143,-422.5 1996.4143,-422.5 1996.4143,-403.5 1937.4143,-403.5"/>
<text text-anchor="middle" x="1966.9143" y="-410.5" font-family="Helvetica,sans-Serif" font-size="10.00" fill="#000000">fplll/gso.h</text>
</g>
<!-- Node1 -->
<g id="node2" class="node">
<title>Node1</title>
<g id="a_node2"><a xlink:href="lll_8h.html" target="_top" xlink:title="fplll/lll.h">
<polygon fill="#ffffff" stroke="#000000" points="1600.9143,-347.5 1600.9143,-366.5 1650.9143,-366.5 1650.9143,-347.5 1600.9143,-347.5"/>
<text text-anchor="middle" x="1625.9143" y="-354.5" font-family="Helvetica,sans-Serif" font-size="10.00" fill="#000000">fplll/lll.h</text>
</a>
</g>
</g>
<!-- Node0&#45;&gt;Node1 -->
<g id="edge1" class="edge">
<title>Node0&#45;&gt;Node1</title>
<path fill="none" stroke="#191970" d="M1927.3632,-406.5048C1856.4963,-394.8668 1709.8014,-370.7762 1651.0494,-361.1278"/>
<polygon fill="#191970" stroke="#191970" points="1926.8143,-409.9615 1937.2493,-408.1283 1927.9487,-403.054 1926.8143,-409.9615"/>
</g>
<!-- Node24 -->
<g id="node25" class="node">
<title>Node24</title>
<g id="a_node25"><a xlink:href="test__lll__gram_8cpp.html" target="_top" xlink:title="tests/test_lll_gram.cpp">
<polygon fill="#ffffff" stroke="#000000" points="2014.9143,-.5 2014.9143,-19.5 2130.9143,-19.5 2130.9143,-.5 2014.9143,-.5"/>
<text text-anchor="middle" x="2072.9143" y="-7.5" font-family="Helvetica,sans-Serif" font-size="10.00" fill="#000000">tests/test_lll_gram.cpp</text>
</a>
</g>
</g>
<!-- Node0&#45;&gt;Node24 -->
<g id="edge56" class="edge">
<title>Node0&#45;&gt;Node24</title>
<path fill="none" stroke="#191970" d="M1972.3121,-393.3284C1977.9291,-371.0948 1985.9143,-333.7312 1985.9143,-301 1985.9143,-301 1985.9143,-301 1985.9143,-133 1985.9143,-82.5189 2035.3629,-38.2438 2059.7009,-19.5093"/>
<polygon fill="#191970" stroke="#191970" points="1968.8728,-392.6455 1969.7178,-403.2066 1975.6432,-394.4237 1968.8728,-392.6455"/>
</g>
<!-- Node30 -->
<g id="node31" class="node">
<title>Node30</title>
<g id="a_node31"><a xlink:href="test__gso_8cpp.html" target="_top" xlink:title="tests/test_gso.cpp">
<polygon fill="#ffffff" stroke="#000000" points="1898.9143,-.5 1898.9143,-19.5 1996.9143,-19.5 1996.9143,-.5 1898.9143,-.5"/>
<text text-anchor="middle" x="1947.9143" y="-7.5" font-family="Helvetica,sans-Serif" font-size="10.00" fill="#000000">tests/test_gso.cpp</text>
</a>
</g>
</g>
<!-- Node0&#45;&gt;Node30 -->
<g id="edge55" class="edge">
<title>Node0&#45;&gt;Node30</title>
<path fill="none" stroke="#191970" d="M1961.5165,-393.3284C1955.8995,-371.0948 1947.9143,-333.7312 1947.9143,-301 1947.9143,-301 1947.9143,-301 1947.9143,-133 1947.9143,-90.7188 1947.9143,-40.262 1947.9143,-19.5691"/>
<polygon fill="#191970" stroke="#191970" points="1958.1854,-394.4237 1964.1108,-403.2066 1964.9558,-392.6455 1958.1854,-394.4237"/>
</g>
<!-- Node34 -->
<g id="node35" class="node">
<title>Node34</title>
<g id="a_node35"><a xlink:href="gso_8cpp.html" target="_top" xlink:title="fplll/gso.cpp">
<polygon fill="#ffffff" stroke="#000000" points="2014.4143,-347.5 2014.4143,-366.5 2083.4143,-366.5 2083.4143,-347.5 2014.4143,-347.5"/>
<text text-anchor="middle" x="2048.9143" y="-354.5" font-family="Helvetica,sans-Serif" font-size="10.00" fill="#000000">fplll/gso.cpp</text>
</a>
</g>
</g>
<!-- Node0&#45;&gt;Node34 -->
<g id="edge54" class="edge">
<title>Node0&#45;&gt;Node34</title>
<path fill="none" stroke="#191970" d="M1989.6253,-397.49C2004.0931,-387.6096 2022.3823,-375.1194 2034.7947,-366.6427"/>
<polygon fill="#191970" stroke="#191970" points="1987.4817,-394.7156 1981.1976,-403.2455 1991.4295,-400.4962 1987.4817,-394.7156"/>
</g>
<!-- Node2 -->
<g id="node3" class="node">
<title>Node2</title>
<g id="a_node3"><a xlink:href="pruner_8h.html" target="_top" xlink:title="fplll/pruner/pruner.h">
<polygon fill="#ffffff" stroke="#000000" points="1206.9143,-291.5 1206.9143,-310.5 1306.9143,-310.5 1306.9143,-291.5 1206.9143,-291.5"/>
<text text-anchor="middle" x="1256.9143" y="-298.5" font-family="Helvetica,sans-Serif" font-size="10.00" fill="#000000">fplll/pruner/pruner.h</text>
</a>
</g>
</g>
<!-- Node1&#45;&gt;Node2 -->
<g id="edge2" class="edge">
<title>Node1&#45;&gt;Node2</title>
<path fill="none" stroke="#191970" d="M1590.5663,-351.6355C1524.6712,-341.6352 1382.8942,-320.1189 1307.1061,-308.6172"/>
<polygon fill="#191970" stroke="#191970" points="1590.4295,-355.1548 1600.8415,-353.1949 1591.4799,-348.234 1590.4295,-355.1548"/>
</g>
<!-- Node4 -->
<g id="node5" class="node">
<title>Node4</title>
<g id="a_node5"><a xlink:href="bkz_8h.html" target="_top" xlink:title="fplll/bkz.h">
<polygon fill="#ffffff" stroke="#000000" points="1227.4143,-179.5 1227.4143,-198.5 1286.4143,-198.5 1286.4143,-179.5 1227.4143,-179.5"/>
<text text-anchor="middle" x="1256.9143" y="-186.5" font-family="Helvetica,sans-Serif" font-size="10.00" fill="#000000">fplll/bkz.h</text>
</a>
</g>
</g>
<!-- Node1&#45;&gt;Node4 -->
<g id="edge50" class="edge">
<title>Node1&#45;&gt;Node4</title>
<path fill="none" stroke="#191970" d="M1614.8252,-338.6659C1604.9928,-323.8533 1589.3548,-303.4829 1570.9143,-291 1478.594,-228.5058 1345.3027,-202.0946 1286.5885,-193.0116"/>
<polygon fill="#191970" stroke="#191970" points="1612.0983,-340.9001 1620.4193,-347.4584 1618.0043,-337.1425 1612.0983,-340.9001"/>
</g>
<!-- Node1&#45;&gt;Node24 -->
<g id="edge53" class="edge">
<title>Node1&#45;&gt;Node24</title>
<path fill="none" stroke="#191970" d="M1660.8463,-350.5213C1735.3082,-335.714 1902.9143,-296.6479 1902.9143,-245 1902.9143,-245 1902.9143,-245 1902.9143,-133 1902.9143,-68.7029 1983.723,-34.5979 2033.9129,-19.6164"/>
<polygon fill="#191970" stroke="#191970" points="1660.1278,-347.0954 1650.9847,-352.4485 1661.4704,-353.9655 1660.1278,-347.0954"/>
</g>
<!-- Node32 -->
<g id="node33" class="node">
<title>Node32</title>
<g id="a_node33"><a xlink:href="lll_8cpp.html" target="_top" xlink:title="fplll/lll.cpp">
<polygon fill="#ffffff" stroke="#000000" points="1501.9143,-291.5 1501.9143,-310.5 1561.9143,-310.5 1561.9143,-291.5 1501.9143,-291.5"/>
<text text-anchor="middle" x="1531.9143" y="-298.5" font-family="Helvetica,sans-Serif" font-size="10.00" fill="#000000">fplll/lll.cpp</text>
</a>
</g>
</g>
<!-- Node1&#45;&gt;Node32 -->
<g id="edge51" class="edge">
<title>Node1&#45;&gt;Node32</title>
<path fill="none" stroke="#191970" d="M1600.8137,-342.0465C1584.0883,-332.0824 1562.5975,-319.2794 1548.1002,-310.6427"/>
<polygon fill="#191970" stroke="#191970" points="1599.1584,-345.1343 1609.5407,-347.2455 1602.741,-339.1206 1599.1584,-345.1343"/>
</g>
<!-- Node33 -->
<g id="node34" class="node">
<title>Node33</title>
<g id="a_node34"><a xlink:href="wrapper_8cpp.html" target="_top" xlink:title="fplll/wrapper.cpp">
<polygon fill="#ffffff" stroke="#000000" points="1617.9143,-291.5 1617.9143,-310.5 1705.9143,-310.5 1705.9143,-291.5 1617.9143,-291.5"/>
<text text-anchor="middle" x="1661.9143" y="-298.5" font-family="Helvetica,sans-Serif" font-size="10.00" fill="#000000">fplll/wrapper.cpp</text>
</a>
</g>
</g>
<!-- Node1&#45;&gt;Node33 -->
<g id="edge52" class="edge">
<title>Node1&#45;&gt;Node33</title>
<path fill="none" stroke="#191970" d="M1637.7238,-338.6296C1643.7287,-329.2887 1650.7802,-318.3197 1655.7154,-310.6427"/>
<polygon fill="#191970" stroke="#191970" points="1634.6485,-336.9411 1632.185,-347.2455 1640.5368,-340.7264 1634.6485,-336.9411"/>
</g>
<!-- Node3 -->
<g id="node4" class="node">
<title>Node3</title>
<g id="a_node4"><a xlink:href="bkz__param_8h.html" target="_top" xlink:title="fplll/bkz_param.h">
<polygon fill="#ffffff" stroke="#000000" points="1153.4143,-235.5 1153.4143,-254.5 1244.4143,-254.5 1244.4143,-235.5 1153.4143,-235.5"/>
<text text-anchor="middle" x="1198.9143" y="-242.5" font-family="Helvetica,sans-Serif" font-size="10.00" fill="#000000">fplll/bkz_param.h</text>
</a>
</g>
</g>
<!-- Node2&#45;&gt;Node3 -->
<g id="edge3" class="edge">
<title>Node2&#45;&gt;Node3</title>
<path fill="none" stroke="#191970" d="M1239.385,-284.0751C1229.406,-274.4402 1217.2667,-262.7196 1208.9013,-254.6427"/>
<polygon fill="#191970" stroke="#191970" points="1237.1863,-286.8175 1246.8115,-291.2455 1242.0485,-281.7817 1237.1863,-286.8175"/>
</g>
<!-- Node6 -->
<g id="node7" class="node">
<title>Node6</title>
<g id="a_node7"><a xlink:href="fplll_8h.html" target="_top" xlink:title="fplll/fplll.h">
<polygon fill="#ffffff" stroke="#000000" points="1224.9143,-123.5 1224.9143,-142.5 1282.9143,-142.5 1282.9143,-123.5 1224.9143,-123.5"/>
<text text-anchor="middle" x="1253.9143" y="-130.5" font-family="Helvetica,sans-Serif" font-size="10.00" fill="#000000">fplll/fplll.h</text>
</a>
</g>
</g>
<!-- Node2&#45;&gt;Node6 -->
<g id="edge48" class="edge">
<title>Node2&#45;&gt;Node6</title>
<path fill="none" stroke="#191970" d="M1270.1259,-282.8999C1285.956,-258.8669 1308.7194,-215.2367 1294.9143,-179 1289.2776,-164.2045 1276.455,-151.1418 1266.6391,-142.7534"/>
<polygon fill="#191970" stroke="#191970" points="1267.0808,-281.1508 1264.2902,-291.3715 1272.8455,-285.1218 1267.0808,-281.1508"/>
</g>
<!-- Node10 -->
<g id="node11" class="node">
<title>Node10</title>
<g id="a_node11"><a xlink:href="pruner_8cpp.html" target="_top" xlink:title="fplll/pruner/pruner.cpp">
<polygon fill="#ffffff" stroke="#000000" points="435.9143,-.5 435.9143,-19.5 545.9143,-19.5 545.9143,-.5 435.9143,-.5"/>
<text text-anchor="middle" x="490.9143" y="-7.5" font-family="Helvetica,sans-Serif" font-size="10.00" fill="#000000">fplll/pruner/pruner.cpp</text>
</a>
</g>
</g>
<!-- Node2&#45;&gt;Node10 -->
<g id="edge49" class="edge">
<title>Node2&#45;&gt;Node10</title>
<path fill="none" stroke="#191970" d="M1196.5426,-298.8163C946.0927,-289.3665 1.9143,-249.7154 1.9143,-189 1.9143,-189 1.9143,-189 1.9143,-133 1.9143,-97.7513 -5.7429,-79.0622 20.9143,-56 51.7223,-29.3467 317.9843,-16.3526 435.5334,-11.8737"/>
<polygon fill="#191970" stroke="#191970" points="1196.4289,-302.3144 1206.5531,-299.1918 1196.6913,-295.3193 1196.4289,-302.3144"/>
</g>
<!-- Node3&#45;&gt;Node4 -->
<g id="edge4" class="edge">
<title>Node3&#45;&gt;Node4</title>
<path fill="none" stroke="#191970" d="M1216.4436,-228.0751C1226.4226,-218.4402 1238.5619,-206.7196 1246.9272,-198.6427"/>
<polygon fill="#191970" stroke="#191970" points="1213.7801,-225.7817 1209.0171,-235.2455 1218.6423,-230.8175 1213.7801,-225.7817"/>
</g>
<!-- Node5 -->
<g id="node6" class="node">
<title>Node5</title>
<g id="a_node6"><a xlink:href="bkz_8cpp.html" target="_top" xlink:title="fplll/bkz.cpp">
<polygon fill="#ffffff" stroke="#000000" points="1130.4143,-123.5 1130.4143,-142.5 1199.4143,-142.5 1199.4143,-123.5 1130.4143,-123.5"/>
<text text-anchor="middle" x="1164.9143" y="-130.5" font-family="Helvetica,sans-Serif" font-size="10.00" fill="#000000">fplll/bkz.cpp</text>
</a>
</g>
</g>
<!-- Node3&#45;&gt;Node5 -->
<g id="edge45" class="edge">
<title>Node3&#45;&gt;Node5</title>
<path fill="none" stroke="#191970" d="M1193.0415,-225.7222C1190.5351,-217.4901 1187.5792,-207.7751 1184.9143,-199 1178.8606,-179.0661 1171.7966,-155.7395 1167.8924,-142.8411"/>
<polygon fill="#191970" stroke="#191970" points="1189.7535,-226.9398 1196.0151,-235.4863 1196.4498,-224.9003 1189.7535,-226.9398"/>
</g>
<!-- Node3&#45;&gt;Node6 -->
<g id="edge47" class="edge">
<title>Node3&#45;&gt;Node6</title>
<path fill="none" stroke="#191970" d="M1202.5653,-225.0527C1205.5296,-211.5576 1210.4574,-193.6012 1217.9143,-179 1224.9251,-165.2722 1236.302,-151.6294 1244.3886,-142.8102"/>
<polygon fill="#191970" stroke="#191970" points="1199.0715,-224.6731 1200.5247,-235.1678 1205.9332,-226.0575 1199.0715,-224.6731"/>
</g>
<!-- Node31 -->
<g id="node32" class="node">
<title>Node31</title>
<g id="a_node32"><a xlink:href="bkz__param_8cpp.html" target="_top" xlink:title="fplll/bkz_param.cpp">
<polygon fill="#ffffff" stroke="#000000" points="1031.4143,-179.5 1031.4143,-198.5 1132.4143,-198.5 1132.4143,-179.5 1031.4143,-179.5"/>
<text text-anchor="middle" x="1081.9143" y="-186.5" font-family="Helvetica,sans-Serif" font-size="10.00" fill="#000000">fplll/bkz_param.cpp</text>
</a>
</g>
</g>
<!-- Node3&#45;&gt;Node31 -->
<g id="edge46" class="edge">
<title>Node3&#45;&gt;Node31</title>
<path fill="none" stroke="#191970" d="M1169.6101,-230.9741C1148.4263,-220.8348 1120.374,-207.408 1101.7648,-198.5011"/>
<polygon fill="#191970" stroke="#191970" points="1168.2702,-234.2129 1178.8013,-235.3733 1171.2923,-227.8989 1168.2702,-234.2129"/>
</g>
<!-- Node4&#45;&gt;Node5 -->
<g id="edge5" class="edge">
<title>Node4&#45;&gt;Node5</title>
<path fill="none" stroke="#191970" d="M1231.8919,-173.769C1215.5893,-163.8456 1194.8133,-151.1994 1180.7558,-142.6427"/>
<polygon fill="#191970" stroke="#191970" points="1230.5273,-177.0357 1240.8891,-179.2455 1234.1669,-171.0563 1230.5273,-177.0357"/>
</g>
<!-- Node4&#45;&gt;Node6 -->
<g id="edge6" class="edge">
<title>Node4&#45;&gt;Node6</title>
<path fill="none" stroke="#191970" d="M1255.8513,-169.1575C1255.369,-160.155 1254.8207,-149.9199 1254.4309,-142.6427"/>
<polygon fill="#191970" stroke="#191970" points="1252.3617,-169.4471 1256.3917,-179.2455 1259.3517,-169.0726 1252.3617,-169.4471"/>
</g>
<!-- Node7 -->
<g id="node8" class="node">
<title>Node7</title>
<g id="a_node8"><a xlink:href="fplll_8cpp.html" target="_top" xlink:title="fplll/fplll.cpp">
<polygon fill="#ffffff" stroke="#000000" points="1219.9143,-62 1219.9143,-81 1287.9143,-81 1287.9143,-62 1219.9143,-62"/>
<text text-anchor="middle" x="1253.9143" y="-69" font-family="Helvetica,sans-Serif" font-size="10.00" fill="#000000">fplll/fplll.cpp</text>
</a>
</g>
</g>
<!-- Node6&#45;&gt;Node7 -->
<g id="edge7" class="edge">
<title>Node6&#45;&gt;Node7</title>
<path fill="none" stroke="#191970" d="M1253.9143,-113.2462C1253.9143,-102.5519 1253.9143,-89.814 1253.9143,-81.2449"/>
<polygon fill="#191970" stroke="#191970" points="1250.4144,-113.3906 1253.9143,-123.3906 1257.4144,-113.3907 1250.4144,-113.3906"/>
</g>
<!-- Node8 -->
<g id="node9" class="node">
<title>Node8</title>
<g id="a_node9"><a xlink:href="main_8h.html" target="_top" xlink:title="fplll/main.h">
<polygon fill="#ffffff" stroke="#000000" points="1731.9143,-62 1731.9143,-81 1795.9143,-81 1795.9143,-62 1731.9143,-62"/>
<text text-anchor="middle" x="1763.9143" y="-69" font-family="Helvetica,sans-Serif" font-size="10.00" fill="#000000">fplll/main.h</text>
</a>
</g>
</g>
<!-- Node6&#45;&gt;Node8 -->
<g id="edge8" class="edge">
<title>Node6&#45;&gt;Node8</title>
<path fill="none" stroke="#191970" d="M1293.3854,-130.3865C1370.6446,-124.9374 1547.1114,-110.8476 1693.9143,-87 1706.3232,-84.9842 1719.8366,-82.1464 1731.6514,-79.4489"/>
<polygon fill="#191970" stroke="#191970" points="1292.8886,-126.9125 1283.1556,-131.0982 1293.3744,-133.8956 1292.8886,-126.9125"/>
</g>
<!-- Node6&#45;&gt;Node10 -->
<g id="edge10" class="edge">
<title>Node6&#45;&gt;Node10</title>
<path fill="none" stroke="#191970" d="M1214.7506,-124.0208C1212.4443,-123.637 1210.153,-123.2918 1207.9143,-123 1163.9631,-117.2718 441.5401,-119.0403 410.9143,-87 401.3943,-77.0403 404.0149,-67.9258 410.9143,-56 421.2638,-38.1107 441.4966,-26.57 459.0243,-19.5223"/>
<polygon fill="#191970" stroke="#191970" points="1214.3705,-127.5102 1224.8429,-125.9039 1215.6545,-120.629 1214.3705,-127.5102"/>
</g>
<!-- Node11 -->
<g id="node12" class="node">
<title>Node11</title>
<g id="a_node12"><a xlink:href="pruner__cost_8cpp.html" target="_top" xlink:title="fplll/pruner/pruner\l_cost.cpp">
<polygon fill="#ffffff" stroke="#000000" points="543.9143,-56.5 543.9143,-86.5 635.9143,-86.5 635.9143,-56.5 543.9143,-56.5"/>
<text text-anchor="start" x="551.9143" y="-74.5" font-family="Helvetica,sans-Serif" font-size="10.00" fill="#000000">fplll/pruner/pruner</text>
<text text-anchor="middle" x="589.9143" y="-63.5" font-family="Helvetica,sans-Serif" font-size="10.00" fill="#000000">_cost.cpp</text>
</a>
</g>
</g>
<!-- Node6&#45;&gt;Node11 -->
<g id="edge11" class="edge">
<title>Node6&#45;&gt;Node11</title>
<path fill="none" stroke="#191970" d="M1214.7439,-124.0708C1212.4392,-123.6744 1210.1502,-123.3127 1207.9143,-123 959.5979,-88.2705 892.0638,-129.2405 644.9143,-87 641.9807,-86.4986 638.9793,-85.9019 635.9663,-85.239"/>
<polygon fill="#191970" stroke="#191970" points="1214.3541,-127.5593 1224.8316,-125.9873 1215.6606,-120.6823 1214.3541,-127.5593"/>
</g>
<!-- Node12 -->
<g id="node13" class="node">
<title>Node12</title>
<g id="a_node13"><a xlink:href="pruner__optimize_8cpp.html" target="_top" xlink:title="fplll/pruner/pruner\l_optimize.cpp">
<polygon fill="#ffffff" stroke="#000000" points="653.9143,-56.5 653.9143,-86.5 745.9143,-86.5 745.9143,-56.5 653.9143,-56.5"/>
<text text-anchor="start" x="661.9143" y="-74.5" font-family="Helvetica,sans-Serif" font-size="10.00" fill="#000000">fplll/pruner/pruner</text>
<text text-anchor="middle" x="699.9143" y="-63.5" font-family="Helvetica,sans-Serif" font-size="10.00" fill="#000000">_optimize.cpp</text>
</a>
</g>
</g>
<!-- Node6&#45;&gt;Node12 -->
<g id="edge13" class="edge">
<title>Node6&#45;&gt;Node12</title>
<path fill="none" stroke="#191970" d="M1214.7379,-124.112C1212.4348,-123.7052 1210.1477,-123.33 1207.9143,-123 1008.115,-93.481 953.727,-122.5617 754.9143,-87 751.9846,-86.476 748.9863,-85.8619 745.9756,-85.1861"/>
<polygon fill="#191970" stroke="#191970" points="1214.34,-127.5997 1224.8217,-126.056 1215.6651,-120.7262 1214.34,-127.5997"/>
</g>
<!-- Node13 -->
<g id="node14" class="node">
<title>Node13</title>
<g id="a_node14"><a xlink:href="pruner__optimize__tc_8cpp.html" target="_top" xlink:title="fplll/pruner/pruner\l_optimize_tc.cpp">
<polygon fill="#ffffff" stroke="#000000" points="999.9143,-56.5 999.9143,-86.5 1091.9143,-86.5 1091.9143,-56.5 999.9143,-56.5"/>
<text text-anchor="start" x="1007.9143" y="-74.5" font-family="Helvetica,sans-Serif" font-size="10.00" fill="#000000">fplll/pruner/pruner</text>
<text text-anchor="middle" x="1045.9143" y="-63.5" font-family="Helvetica,sans-Serif" font-size="10.00" fill="#000000">_optimize_tc.cpp</text>
</a>
</g>
</g>
<!-- Node6&#45;&gt;Node13 -->
<g id="edge15" class="edge">
<title>Node6&#45;&gt;Node13</title>
<path fill="none" stroke="#191970" d="M1214.7265,-121.4132C1179.8449,-111.0997 1128.7888,-96.0038 1091.9673,-85.1166"/>
<polygon fill="#191970" stroke="#191970" points="1213.9721,-124.8399 1224.5541,-124.319 1215.9569,-118.1272 1213.9721,-124.8399"/>
</g>
<!-- Node14 -->
<g id="node15" class="node">
<title>Node14</title>
<g id="a_node15"><a xlink:href="pruner__optimize__tp_8cpp.html" target="_top" xlink:title="fplll/pruner/pruner\l_optimize_tp.cpp">
<polygon fill="#ffffff" stroke="#000000" points="1109.9143,-56.5 1109.9143,-86.5 1201.9143,-86.5 1201.9143,-56.5 1109.9143,-56.5"/>
<text text-anchor="start" x="1117.9143" y="-74.5" font-family="Helvetica,sans-Serif" font-size="10.00" fill="#000000">fplll/pruner/pruner</text>
<text text-anchor="middle" x="1155.9143" y="-63.5" font-family="Helvetica,sans-Serif" font-size="10.00" fill="#000000">_optimize_tp.cpp</text>
</a>
</g>
</g>
<!-- Node6&#45;&gt;Node14 -->
<g id="edge17" class="edge">
<title>Node6&#45;&gt;Node14</title>
<path fill="none" stroke="#191970" d="M1229.7799,-117.8545C1214.5857,-108.3193 1195.0513,-96.0605 1179.8878,-86.5446"/>
<polygon fill="#191970" stroke="#191970" points="1228.2711,-121.0397 1238.6018,-123.3906 1231.992,-115.1105 1228.2711,-121.0397"/>
</g>
<!-- Node15 -->
<g id="node16" class="node">
<title>Node15</title>
<g id="a_node16"><a xlink:href="pruner__prob_8cpp.html" target="_top" xlink:title="fplll/pruner/pruner\l_prob.cpp">
<polygon fill="#ffffff" stroke="#000000" points="29.9143,-56.5 29.9143,-86.5 121.9143,-86.5 121.9143,-56.5 29.9143,-56.5"/>
<text text-anchor="start" x="37.9143" y="-74.5" font-family="Helvetica,sans-Serif" font-size="10.00" fill="#000000">fplll/pruner/pruner</text>
<text text-anchor="middle" x="75.9143" y="-63.5" font-family="Helvetica,sans-Serif" font-size="10.00" fill="#000000">_prob.cpp</text>
</a>
</g>
</g>
<!-- Node6&#45;&gt;Node15 -->
<g id="edge19" class="edge">
<title>Node6&#45;&gt;Node15</title>
<path fill="none" stroke="#191970" d="M1214.7546,-123.9895C1212.4473,-123.6136 1210.1547,-123.2786 1207.9143,-123 732.6421,-63.8892 604.1764,-160.4901 130.9143,-87 127.9734,-86.5433 124.9664,-85.9808 121.9493,-85.3436"/>
<polygon fill="#191970" stroke="#191970" points="1214.3805,-127.4794 1224.8496,-125.8516 1215.6504,-120.5956 1214.3805,-127.4794"/>
</g>
<!-- Node16 -->
<g id="node17" class="node">
<title>Node16</title>
<g id="a_node17"><a xlink:href="pruner__util_8cpp.html" target="_top" xlink:title="fplll/pruner/pruner\l_util.cpp">
<polygon fill="#ffffff" stroke="#000000" points="139.9143,-56.5 139.9143,-86.5 231.9143,-86.5 231.9143,-56.5 139.9143,-56.5"/>
<text text-anchor="start" x="147.9143" y="-74.5" font-family="Helvetica,sans-Serif" font-size="10.00" fill="#000000">fplll/pruner/pruner</text>
<text text-anchor="middle" x="185.9143" y="-63.5" font-family="Helvetica,sans-Serif" font-size="10.00" fill="#000000">_util.cpp</text>
</a>
</g>
</g>
<!-- Node6&#45;&gt;Node16 -->
<g id="edge21" class="edge">
<title>Node6&#45;&gt;Node16</title>
<path fill="none" stroke="#191970" d="M1214.7533,-123.9996C1212.4463,-123.6212 1210.1542,-123.2829 1207.9143,-123 781.2286,-69.1091 665.7704,-153.7999 240.9143,-87 237.9742,-86.5377 234.968,-85.971 231.9513,-85.3305"/>
<polygon fill="#191970" stroke="#191970" points="1214.3773,-127.4894 1224.8474,-125.8685 1215.6518,-120.6064 1214.3773,-127.4894"/>
</g>
<!-- Node17 -->
<g id="node18" class="node">
<title>Node17</title>
<g id="a_node18"><a xlink:href="test__bkz_8cpp.html" target="_top" xlink:title="tests/test_bkz.cpp">
<polygon fill="#ffffff" stroke="#000000" points="951.9143,-.5 951.9143,-19.5 1049.9143,-19.5 1049.9143,-.5 951.9143,-.5"/>
<text text-anchor="middle" x="1000.9143" y="-7.5" font-family="Helvetica,sans-Serif" font-size="10.00" fill="#000000">tests/test_bkz.cpp</text>
</a>
</g>
</g>
<!-- Node6&#45;&gt;Node17 -->
<g id="edge23" class="edge">
<title>Node6&#45;&gt;Node17</title>
<path fill="none" stroke="#191970" d="M1274.1155,-116.6047C1291.9867,-100.1445 1312.9321,-74.6229 1296.9143,-56 1262.0337,-15.4466 1111.7179,-28.5447 1058.9143,-20 1055.9891,-19.5266 1052.9824,-19.0322 1049.9501,-18.5276"/>
<polygon fill="#191970" stroke="#191970" points="1271.4868,-114.254 1266.2646,-123.4724 1276.0957,-119.5226 1271.4868,-114.254"/>
</g>
<!-- Node18 -->
<g id="node19" class="node">
<title>Node18</title>
<g id="a_node19"><a xlink:href="test__bkz__gram_8cpp.html" target="_top" xlink:title="tests/test_bkz_gram.cpp">
<polygon fill="#ffffff" stroke="#000000" points="1068.4143,-.5 1068.4143,-19.5 1193.4143,-19.5 1193.4143,-.5 1068.4143,-.5"/>
<text text-anchor="middle" x="1130.9143" y="-7.5" font-family="Helvetica,sans-Serif" font-size="10.00" fill="#000000">tests/test_bkz_gram.cpp</text>
</a>
</g>
</g>
<!-- Node6&#45;&gt;Node18 -->
<g id="edge24" class="edge">
<title>Node6&#45;&gt;Node18</title>
<path fill="none" stroke="#191970" d="M1292.4349,-119.2594C1306.854,-112.0194 1321.7141,-101.5485 1329.9143,-87 1336.6794,-74.9975 1338.4897,-66.7838 1329.9143,-56 1320.9758,-44.7596 1243.6602,-29.3246 1188.0867,-19.505"/>
<polygon fill="#191970" stroke="#191970" points="1290.7157,-116.1978 1283.0976,-123.5609 1293.6446,-122.5556 1290.7157,-116.1978"/>
</g>
<!-- Node19 -->
<g id="node20" class="node">
<title>Node19</title>
<g id="a_node20"><a xlink:href="test__counter_8cpp.html" target="_top" xlink:title="tests/test_counter.cpp">
<polygon fill="#ffffff" stroke="#000000" points="249.9143,-62 249.9143,-81 363.9143,-81 363.9143,-62 249.9143,-62"/>
<text text-anchor="middle" x="306.9143" y="-69" font-family="Helvetica,sans-Serif" font-size="10.00" fill="#000000">tests/test_counter.cpp</text>
</a>
</g>
</g>
<!-- Node6&#45;&gt;Node19 -->
<g id="edge25" class="edge">
<title>Node6&#45;&gt;Node19</title>
<path fill="none" stroke="#191970" d="M1214.7512,-124.016C1212.4448,-123.6335 1210.1533,-123.2898 1207.9143,-123 841.7325,-75.6092 744.0753,-134.5514 377.9143,-87 367.1543,-85.6027 355.611,-83.3949 345.0251,-81.079"/>
<polygon fill="#191970" stroke="#191970" points="1214.3721,-127.5055 1224.8439,-125.8959 1215.6539,-120.6239 1214.3721,-127.5055"/>
</g>
<!-- Node20 -->
<g id="node21" class="node">
<title>Node20</title>
<g id="a_node21"><a xlink:href="test__cvp_8cpp.html" target="_top" xlink:title="tests/test_cvp.cpp">
<polygon fill="#ffffff" stroke="#000000" points="1211.9143,-.5 1211.9143,-19.5 1309.9143,-19.5 1309.9143,-.5 1211.9143,-.5"/>
<text text-anchor="middle" x="1260.9143" y="-7.5" font-family="Helvetica,sans-Serif" font-size="10.00" fill="#000000">tests/test_cvp.cpp</text>
</a>
</g>
</g>
<!-- Node6&#45;&gt;Node20 -->
<g id="edge26" class="edge">
<title>Node6&#45;&gt;Node20</title>
<path fill="none" stroke="#191970" d="M1292.9151,-128.4221C1318.9127,-123.1181 1351.2622,-111.6759 1367.9143,-87 1375.6213,-75.5794 1375.4923,-67.5065 1367.9143,-56 1354.9577,-36.3266 1331.6343,-25.0327 1310.0628,-18.5659"/>
<polygon fill="#191970" stroke="#191970" points="1292.1659,-125.0007 1282.9495,-130.2264 1293.4131,-131.8887 1292.1659,-125.0007"/>
</g>
<!-- Node21 -->
<g id="node22" class="node">
<title>Node21</title>
<g id="a_node22"><a xlink:href="test__enum_8cpp.html" target="_top" xlink:title="tests/test_enum.cpp">
<polygon fill="#ffffff" stroke="#000000" points="419.9143,-62 419.9143,-81 525.9143,-81 525.9143,-62 419.9143,-62"/>
<text text-anchor="middle" x="472.9143" y="-69" font-family="Helvetica,sans-Serif" font-size="10.00" fill="#000000">tests/test_enum.cpp</text>
</a>
</g>
</g>
<!-- Node6&#45;&gt;Node21 -->
<g id="edge27" class="edge">
<title>Node6&#45;&gt;Node21</title>
<path fill="none" stroke="#191970" d="M1214.7477,-124.043C1212.4421,-123.6536 1210.1518,-123.3011 1207.9143,-123 911.0508,-83.0558 831.1248,-131.5285 534.9143,-87 525.4785,-85.5815 515.3854,-83.3669 506.1415,-81.051"/>
<polygon fill="#191970" stroke="#191970" points="1214.3633,-127.532 1224.838,-125.9409 1215.6573,-120.6526 1214.3633,-127.532"/>
</g>
<!-- Node22 -->
<g id="node23" class="node">
<title>Node22</title>
<g id="a_node23"><a xlink:href="test__hlll_8cpp.html" target="_top" xlink:title="tests/test_hlll.cpp">
<polygon fill="#ffffff" stroke="#000000" points="1327.9143,-.5 1327.9143,-19.5 1421.9143,-19.5 1421.9143,-.5 1327.9143,-.5"/>
<text text-anchor="middle" x="1374.9143" y="-7.5" font-family="Helvetica,sans-Serif" font-size="10.00" fill="#000000">tests/test_hlll.cpp</text>
</a>
</g>
</g>
<!-- Node6&#45;&gt;Node22 -->
<g id="edge28" class="edge">
<title>Node6&#45;&gt;Node22</title>
<path fill="none" stroke="#191970" d="M1292.9261,-124.5364C1327.4509,-116.1619 1374.0047,-102.3935 1384.9143,-87 1399.4123,-66.5432 1387.564,-35.1649 1380.0004,-19.5344"/>
<polygon fill="#191970" stroke="#191970" points="1292.0284,-121.152 1283.0995,-126.8551 1293.6361,-127.9649 1292.0284,-121.152"/>
</g>
<!-- Node23 -->
<g id="node24" class="node">
<title>Node23</title>
<g id="a_node24"><a xlink:href="test__lll_8cpp.html" target="_top" xlink:title="tests/test_lll.cpp">
<polygon fill="#ffffff" stroke="#000000" points="1440.4143,-.5 1440.4143,-19.5 1529.4143,-19.5 1529.4143,-.5 1440.4143,-.5"/>
<text text-anchor="middle" x="1484.9143" y="-7.5" font-family="Helvetica,sans-Serif" font-size="10.00" fill="#000000">tests/test_lll.cpp</text>
</a>
</g>
</g>
<!-- Node6&#45;&gt;Node23 -->
<g id="edge29" class="edge">
<title>Node6&#45;&gt;Node23</title>
<path fill="none" stroke="#191970" d="M1293.0183,-126.0111C1324.2825,-119.2602 1368.4306,-107.0521 1402.9143,-87 1434.6525,-68.5444 1463.9983,-35.6689 1477.349,-19.5059"/>
<polygon fill="#191970" stroke="#191970" points="1292.0262,-122.6421 1282.9422,-128.0948 1293.4438,-129.4971 1292.0262,-122.6421"/>
</g>
<!-- Node6&#45;&gt;Node24 -->
<g id="edge30" class="edge">
<title>Node6&#45;&gt;Node24</title>
<path fill="none" stroke="#191970" d="M1293.2267,-131.0998C1402.2964,-125.6083 1707.0804,-108.715 1804.9143,-87 1843.7634,-78.3772 1850.8884,-67.732 1888.9143,-56 1936.2678,-41.3902 1991.5371,-28.06 2029.049,-19.5543"/>
<polygon fill="#191970" stroke="#191970" points="1292.8098,-127.6161 1282.9966,-131.6102 1293.1587,-134.6074 1292.8098,-127.6161"/>
</g>
<!-- Node25 -->
<g id="node26" class="node">
<title>Node25</title>
<g id="a_node26"><a xlink:href="test__nr_8cpp.html" target="_top" xlink:title="tests/test_nr.cpp">
<polygon fill="#ffffff" stroke="#000000" points="763.9143,-62 763.9143,-81 853.9143,-81 853.9143,-62 763.9143,-62"/>
<text text-anchor="middle" x="808.9143" y="-69" font-family="Helvetica,sans-Serif" font-size="10.00" fill="#000000">tests/test_nr.cpp</text>
</a>
</g>
</g>
<!-- Node6&#45;&gt;Node25 -->
<g id="edge31" class="edge">
<title>Node6&#45;&gt;Node25</title>
<path fill="none" stroke="#191970" d="M1214.9933,-124.2267C1212.603,-123.7849 1210.2292,-123.3712 1207.9143,-123 1055.6935,-98.5883 1014.2547,-116.38 862.9143,-87 854.9672,-85.4572 846.4969,-83.2855 838.6781,-81.0549"/>
<polygon fill="#191970" stroke="#191970" points="1214.316,-127.6605 1224.8049,-126.1656 1215.6731,-120.7933 1214.316,-127.6605"/>
</g>
<!-- Node26 -->
<g id="node27" class="node">
<title>Node26</title>
<g id="a_node27"><a xlink:href="test__pruner_8cpp.html" target="_top" xlink:title="tests/test_pruner.cpp">
<polygon fill="#ffffff" stroke="#000000" points="872.4143,-62 872.4143,-81 981.4143,-81 981.4143,-62 872.4143,-62"/>
<text text-anchor="middle" x="926.9143" y="-69" font-family="Helvetica,sans-Serif" font-size="10.00" fill="#000000">tests/test_pruner.cpp</text>
</a>
</g>
</g>
<!-- Node6&#45;&gt;Node26 -->
<g id="edge32" class="edge">
<title>Node6&#45;&gt;Node26</title>
<path fill="none" stroke="#191970" d="M1214.9643,-124.3917C1212.5812,-123.9088 1210.217,-123.441 1207.9143,-123 1111.8968,-104.6105 1086.7086,-106.5189 990.9143,-87 982.2886,-85.2425 973.0618,-83.1399 964.3758,-81.0589"/>
<polygon fill="#191970" stroke="#191970" points="1214.254,-127.8188 1224.7578,-126.4332 1215.6825,-120.9661 1214.254,-127.8188"/>
</g>
<!-- Node27 -->
<g id="node28" class="node">
<title>Node27</title>
<g id="a_node28"><a xlink:href="test__svp_8cpp.html" target="_top" xlink:title="tests/test_svp.cpp">
<polygon fill="#ffffff" stroke="#000000" points="1546.9143,-.5 1546.9143,-19.5 1644.9143,-19.5 1644.9143,-.5 1546.9143,-.5"/>
<text text-anchor="middle" x="1595.9143" y="-7.5" font-family="Helvetica,sans-Serif" font-size="10.00" fill="#000000">tests/test_svp.cpp</text>
</a>
</g>
</g>
<!-- Node6&#45;&gt;Node27 -->
<g id="edge33" class="edge">
<title>Node6&#45;&gt;Node27</title>
<path fill="none" stroke="#191970" d="M1293.1691,-130.5137C1378.3381,-124.7246 1574.0603,-109.1343 1593.9143,-87 1610.6118,-68.3847 1603.9825,-35.8792 1599.1958,-19.709"/>
<polygon fill="#191970" stroke="#191970" points="1292.854,-127.0269 1283.1099,-131.1867 1293.3213,-134.0113 1292.854,-127.0269"/>
</g>
<!-- Node28 -->
<g id="node29" class="node">
<title>Node28</title>
<g id="a_node29"><a xlink:href="test__svp__gram_8cpp.html" target="_top" xlink:title="tests/test_svp_gram.cpp">
<polygon fill="#ffffff" stroke="#000000" points="1663.4143,-.5 1663.4143,-19.5 1788.4143,-19.5 1788.4143,-.5 1663.4143,-.5"/>
<text text-anchor="middle" x="1725.9143" y="-7.5" font-family="Helvetica,sans-Serif" font-size="10.00" fill="#000000">tests/test_svp_gram.cpp</text>
</a>
</g>
</g>
<!-- Node6&#45;&gt;Node28 -->
<g id="edge34" class="edge">
<title>Node6&#45;&gt;Node28</title>
<path fill="none" stroke="#191970" d="M1293.3381,-130.3153C1374.172,-124.4291 1555.9596,-109.1251 1613.9143,-87 1655.799,-71.0099 1697.2055,-36.3402 1715.7717,-19.5265"/>
<polygon fill="#191970" stroke="#191970" points="1292.8051,-126.8444 1283.0811,-131.0509 1293.3059,-133.8265 1292.8051,-126.8444"/>
</g>
<!-- Node29 -->
<g id="node30" class="node">
<title>Node29</title>
<g id="a_node30"><a xlink:href="test__utils_8h.html" target="_top" xlink:title="tests/test_utils.h">
<polygon fill="#ffffff" stroke="#000000" points="1496.4143,-62 1496.4143,-81 1585.4143,-81 1585.4143,-62 1496.4143,-62"/>
<text text-anchor="middle" x="1540.9143" y="-69" font-family="Helvetica,sans-Serif" font-size="10.00" fill="#000000">tests/test_utils.h</text>
</a>
</g>
</g>
<!-- Node6&#45;&gt;Node29 -->
<g id="edge35" class="edge">
<title>Node6&#45;&gt;Node29</title>
<path fill="none" stroke="#191970" d="M1293.2329,-125.783C1338.7919,-117.255 1416.0439,-102.2838 1481.9143,-87 1489.7549,-85.1808 1498.1401,-83.0756 1506.0555,-81.0146"/>
<polygon fill="#191970" stroke="#191970" points="1292.3733,-122.3828 1283.1837,-127.6557 1293.6557,-129.2644 1292.3733,-122.3828"/>
</g>
<!-- Node9 -->
<g id="node10" class="node">
<title>Node9</title>
<g id="a_node10"><a xlink:href="main_8cpp.html" target="_top" xlink:title="fplll/main.cpp">
<polygon fill="#ffffff" stroke="#000000" points="1806.9143,-.5 1806.9143,-19.5 1880.9143,-19.5 1880.9143,-.5 1806.9143,-.5"/>
<text text-anchor="middle" x="1843.9143" y="-7.5" font-family="Helvetica,sans-Serif" font-size="10.00" fill="#000000">fplll/main.cpp</text>
</a>
</g>
</g>
<!-- Node8&#45;&gt;Node9 -->
<g id="edge9" class="edge">
<title>Node8&#45;&gt;Node9</title>
<path fill="none" stroke="#191970" d="M1784.5333,-55.6491C1799.3979,-44.222 1818.9713,-29.1749 1831.5021,-19.5419"/>
<polygon fill="#191970" stroke="#191970" points="1782.2092,-53.021 1776.4143,-61.8906 1786.4756,-58.5707 1782.2092,-53.021"/>
</g>
<!-- Node11&#45;&gt;Node10 -->
<g id="edge12" class="edge">
<title>Node11&#45;&gt;Node10</title>
<path fill="none" stroke="#191970" d="M557.0602,-51.0906C539.9229,-40.4447 519.773,-27.9274 506.2558,-19.5303"/>
<polygon fill="#191970" stroke="#191970" points="555.3548,-54.1516 565.6962,-56.4554 559.0486,-48.2055 555.3548,-54.1516"/>
</g>
<!-- Node12&#45;&gt;Node10 -->
<g id="edge14" class="edge">
<title>Node12&#45;&gt;Node10</title>
<path fill="none" stroke="#191970" d="M643.7458,-54.972C605.1981,-43.629 555.3977,-28.9748 523.305,-19.5312"/>
<polygon fill="#191970" stroke="#191970" points="643.2083,-58.4621 653.7896,-57.9274 645.1844,-51.7468 643.2083,-58.4621"/>
</g>
<!-- Node13&#45;&gt;Node10 -->
<g id="edge16" class="edge">
<title>Node13&#45;&gt;Node10</title>
<path fill="none" stroke="#191970" d="M989.6689,-56.1951C822.8526,-26.3666 636.6124,-15.6541 545.9892,-11.873"/>
<polygon fill="#191970" stroke="#191970" points="989.1496,-59.658 999.614,-58.0005 990.4,-52.7705 989.1496,-59.658"/>
</g>
<!-- Node14&#45;&gt;Node10 -->
<g id="edge18" class="edge">
<title>Node14&#45;&gt;Node10</title>
<path fill="none" stroke="#191970" d="M1099.9954,-56.1248C977.8314,-36.3345 672.2256,-19.2547 546.3085,-12.7593"/>
<polygon fill="#191970" stroke="#191970" points="1099.4104,-59.5755 1109.8554,-57.8001 1100.583,-52.6744 1099.4104,-59.5755"/>
</g>
<!-- Node15&#45;&gt;Node10 -->
<g id="edge20" class="edge">
<title>Node15&#45;&gt;Node10</title>
<path fill="none" stroke="#191970" d="M131.8637,-55.9861C244.8665,-33.4979 366.5916,-20.7079 435.609,-14.5115"/>
<polygon fill="#191970" stroke="#191970" points="131.1158,-52.5664 122.0068,-57.9772 132.5019,-59.4278 131.1158,-52.5664"/>
</g>
<!-- Node16&#45;&gt;Node10 -->
<g id="edge22" class="edge">
<title>Node16&#45;&gt;Node10</title>
<path fill="none" stroke="#191970" d="M242.2024,-55.8168C314.2199,-39.3591 386.9206,-26.6333 435.4986,-18.6812"/>
<polygon fill="#191970" stroke="#191970" points="241.0025,-52.5018 232.0475,-58.1637 242.5788,-59.322 241.0025,-52.5018"/>
</g>
<!-- Node29&#45;&gt;Node17 -->
<g id="edge36" class="edge">
<title>Node29&#45;&gt;Node17</title>
<path fill="none" stroke="#191970" d="M1486.0809,-66.7981C1396.4949,-58.8567 1213.2521,-41.5275 1058.9143,-20 1055.9795,-19.5906 1052.9653,-19.1457 1049.9274,-18.6785"/>
<polygon fill="#191970" stroke="#191970" points="1486.0052,-70.3049 1496.274,-67.6969 1486.6201,-63.332 1486.0052,-70.3049"/>
</g>
<!-- Node29&#45;&gt;Node18 -->
<g id="edge37" class="edge">
<title>Node29&#45;&gt;Node18</title>
<path fill="none" stroke="#191970" d="M1485.9557,-63.2562C1410.0105,-51.8644 1273.3359,-31.3632 1193.5348,-19.3931"/>
<polygon fill="#191970" stroke="#191970" points="1485.848,-66.7791 1496.2566,-64.8013 1486.8865,-59.8566 1485.848,-66.7791"/>
</g>
<!-- Node29&#45;&gt;Node20 -->
<g id="edge38" class="edge">
<title>Node29&#45;&gt;Node20</title>
<path fill="none" stroke="#191970" d="M1487.556,-59.7802C1434.4233,-48.11 1353.8548,-30.4137 1304.459,-19.5643"/>
<polygon fill="#191970" stroke="#191970" points="1486.9534,-63.2312 1497.4715,-61.9581 1488.4552,-56.3942 1486.9534,-63.2312"/>
</g>
<!-- Node29&#45;&gt;Node22 -->
<g id="edge40" class="edge">
<title>Node29&#45;&gt;Node22</title>
<path fill="none" stroke="#191970" d="M1505.2832,-58.2993C1473.8309,-46.6468 1428.7365,-29.9402 1400.6697,-19.5419"/>
<polygon fill="#191970" stroke="#191970" points="1504.3837,-61.6985 1514.9768,-61.8906 1506.8156,-55.1345 1504.3837,-61.6985"/>
</g>
<!-- Node29&#45;&gt;Node23 -->
<g id="edge41" class="edge">
<title>Node29&#45;&gt;Node23</title>
<path fill="none" stroke="#191970" d="M1525.3442,-54.4007C1515.1696,-43.2268 1502.2475,-29.0356 1493.7877,-19.7449"/>
<polygon fill="#191970" stroke="#191970" points="1522.8437,-56.8531 1532.1643,-61.8906 1528.0194,-52.1402 1522.8437,-56.8531"/>
</g>
<!-- Node29&#45;&gt;Node24 -->
<g id="edge42" class="edge">
<title>Node29&#45;&gt;Node24</title>
<path fill="none" stroke="#191970" d="M1595.7147,-66.1094C1682.7507,-57.3951 1857.8884,-39.2368 2005.9143,-20 2008.83,-19.6211 2011.8151,-19.2208 2014.8284,-18.807"/>
<polygon fill="#191970" stroke="#191970" points="1595.1479,-62.6485 1585.5451,-67.1247 1595.8434,-69.6139 1595.1479,-62.6485"/>
</g>
<!-- Node29&#45;&gt;Node27 -->
<g id="edge43" class="edge">
<title>Node29&#45;&gt;Node27</title>
<path fill="none" stroke="#191970" d="M1556.2063,-54.4007C1566.1993,-43.2268 1578.8906,-29.0356 1587.1994,-19.7449"/>
<polygon fill="#191970" stroke="#191970" points="1553.5653,-52.1034 1549.508,-61.8906 1558.7832,-56.7698 1553.5653,-52.1034"/>
</g>
<!-- Node29&#45;&gt;Node28 -->
<g id="edge44" class="edge">
<title>Node29&#45;&gt;Node28</title>
<path fill="none" stroke="#191970" d="M1579.7166,-58.6009C1614.8043,-46.9366 1665.6609,-30.0302 1697.211,-19.5419"/>
<polygon fill="#191970" stroke="#191970" points="1578.2058,-55.4147 1569.8205,-61.8906 1580.4141,-62.0573 1578.2058,-55.4147"/>
</g>
<!-- Node29&#45;&gt;Node30 -->
<g id="edge39" class="edge">
<title>Node29&#45;&gt;Node30</title>
<path fill="none" stroke="#191970" d="M1595.7593,-63.8258C1664.55,-54.1039 1786.0825,-36.6095 1889.9143,-20 1892.8403,-19.5319 1895.8477,-19.0416 1898.8805,-18.54"/>
<polygon fill="#191970" stroke="#191970" points="1595.0047,-60.3975 1585.5918,-65.2604 1595.9827,-67.3289 1595.0047,-60.3975"/>
</g>
</g>
</svg>
