<?xml version="1.0" encoding="UTF-8" standalone="no"?>
<!DOCTYPE svg PUBLIC "-//W3C//DTD SVG 1.1//EN"
 "http://www.w3.org/Graphics/SVG/1.1/DTD/svg11.dtd">
<!-- Generated by graphviz version 2.43.0 (0)
 -->
<!-- Title: fplll/gso_gram.h Pages: 1 -->
<svg width="2244pt" height="207pt"
 viewBox="0.00 0.00 2244.00 207.00" xmlns="http://www.w3.org/2000/svg" xmlns:xlink="http://www.w3.org/1999/xlink">
<g id="graph0" class="graph" transform="scale(1 1) rotate(0) translate(4 203)">
<title>fplll/gso_gram.h</title>
<polygon fill="white" stroke="transparent" points="-4,4 -4,-203 2240,-203 2240,4 -4,4"/>
<!-- Node1 -->
<g id="node1" class="node">
<title>Node1</title>
<g id="a_node1"><a xlink:title=" ">
<polygon fill="#bfbfbf" stroke="black" points="1904,-179.5 1904,-198.5 1990,-198.5 1990,-179.5 1904,-179.5"/>
<text text-anchor="middle" x="1947" y="-186.5" font-family="Helvetica,sans-Serif" font-size="10.00">fplll/gso_gram.h</text>
</a>
</g>
</g>
<!-- Node2 -->
<g id="node2" class="node">
<title>Node2</title>
<g id="a_node2"><a xlink:href="fplll_8h.html" target="_top" xlink:title=" ">
<polygon fill="white" stroke="black" points="1126,-123.5 1126,-142.5 1184,-142.5 1184,-123.5 1126,-123.5"/>
<text text-anchor="middle" x="1155" y="-130.5" font-family="Helvetica,sans-Serif" font-size="10.00">fplll/fplll.h</text>
</a>
</g>
</g>
<!-- Node1&#45;&gt;Node2 -->
<g id="edge1" class="edge">
<title>Node1&#45;&gt;Node2</title>
<path fill="none" stroke="midnightblue" d="M1893.75,-184.37C1740.53,-173.92 1301.99,-144.02 1184.34,-136"/>
<polygon fill="midnightblue" stroke="midnightblue" points="1893.64,-187.87 1903.86,-185.06 1894.12,-180.89 1893.64,-187.87"/>
</g>
<!-- Node15 -->
<g id="node15" class="node">
<title>Node15</title>
<g id="a_node15"><a xlink:href="test__bkz__gram_8cpp.html" target="_top" xlink:title=" ">
<polygon fill="white" stroke="black" points="1624.5,-0.5 1624.5,-19.5 1749.5,-19.5 1749.5,-0.5 1624.5,-0.5"/>
<text text-anchor="middle" x="1687" y="-7.5" font-family="Helvetica,sans-Serif" font-size="10.00">tests/test_bkz_gram.cpp</text>
</a>
</g>
</g>
<!-- Node1&#45;&gt;Node15 -->
<g id="edge44" class="edge">
<title>Node1&#45;&gt;Node15</title>
<path fill="none" stroke="midnightblue" d="M1926.05,-173.73C1874.26,-138.48 1741.42,-48.04 1699.72,-19.66"/>
<polygon fill="midnightblue" stroke="midnightblue" points="1924.22,-176.73 1934.46,-179.46 1928.16,-170.94 1924.22,-176.73"/>
</g>
<!-- Node22 -->
<g id="node22" class="node">
<title>Node22</title>
<g id="a_node22"><a xlink:href="test__lll__gram_8cpp.html" target="_top" xlink:title=" ">
<polygon fill="white" stroke="black" points="1768,-0.5 1768,-19.5 1884,-19.5 1884,-0.5 1768,-0.5"/>
<text text-anchor="middle" x="1826" y="-7.5" font-family="Helvetica,sans-Serif" font-size="10.00">tests/test_lll_gram.cpp</text>
</a>
</g>
</g>
<!-- Node1&#45;&gt;Node22 -->
<g id="edge46" class="edge">
<title>Node1&#45;&gt;Node22</title>
<path fill="none" stroke="midnightblue" d="M1935.24,-170.79C1909.94,-133.78 1851.1,-47.72 1832.06,-19.87"/>
<polygon fill="midnightblue" stroke="midnightblue" points="1932.63,-173.18 1941.16,-179.46 1938.41,-169.23 1932.63,-173.18"/>
</g>
<!-- Node26 -->
<g id="node26" class="node">
<title>Node26</title>
<g id="a_node26"><a xlink:href="test__svp__gram_8cpp.html" target="_top" xlink:title=" ">
<polygon fill="white" stroke="black" points="1902.5,-0.5 1902.5,-19.5 2027.5,-19.5 2027.5,-0.5 1902.5,-0.5"/>
<text text-anchor="middle" x="1965" y="-7.5" font-family="Helvetica,sans-Serif" font-size="10.00">tests/test_svp_gram.cpp</text>
</a>
</g>
</g>
<!-- Node1&#45;&gt;Node26 -->
<g id="edge47" class="edge">
<title>Node1&#45;&gt;Node26</title>
<path fill="none" stroke="midnightblue" d="M1956.55,-170.48C1966.68,-150.83 1982.01,-117.68 1988,-87 1990.64,-73.48 1991.22,-69.4 1988,-56 1984.76,-42.52 1976.75,-28.54 1971.1,-19.81"/>
<polygon fill="midnightblue" stroke="midnightblue" points="1953.4,-168.96 1951.81,-179.44 1959.58,-172.24 1953.4,-168.96"/>
</g>
<!-- Node28 -->
<g id="node28" class="node">
<title>Node28</title>
<g id="a_node28"><a xlink:href="test__gso_8cpp.html" target="_top" xlink:title=" ">
<polygon fill="white" stroke="black" points="2046,-0.5 2046,-19.5 2144,-19.5 2144,-0.5 2046,-0.5"/>
<text text-anchor="middle" x="2095" y="-7.5" font-family="Helvetica,sans-Serif" font-size="10.00">tests/test_gso.cpp</text>
</a>
</g>
</g>
<!-- Node1&#45;&gt;Node28 -->
<g id="edge45" class="edge">
<title>Node1&#45;&gt;Node28</title>
<path fill="none" stroke="midnightblue" d="M1962.18,-171.8C1970.01,-163.33 1979.65,-152.72 1988,-143 2027.04,-97.59 2071.45,-41.19 2088.16,-19.79"/>
<polygon fill="midnightblue" stroke="midnightblue" points="1959.57,-169.46 1955.32,-179.17 1964.69,-174.23 1959.57,-169.46"/>
</g>
<!-- Node29 -->
<g id="node29" class="node">
<title>Node29</title>
<g id="a_node29"><a xlink:href="gso__gram_8cpp.html" target="_top" xlink:title=" ">
<polygon fill="white" stroke="black" points="2073,-123.5 2073,-142.5 2169,-142.5 2169,-123.5 2073,-123.5"/>
<text text-anchor="middle" x="2121" y="-130.5" font-family="Helvetica,sans-Serif" font-size="10.00">fplll/gso_gram.cpp</text>
</a>
</g>
</g>
<!-- Node1&#45;&gt;Node29 -->
<g id="edge43" class="edge">
<title>Node1&#45;&gt;Node29</title>
<path fill="none" stroke="midnightblue" d="M1984.26,-176.44C2017.07,-166.26 2064.08,-151.66 2093.56,-142.52"/>
<polygon fill="midnightblue" stroke="midnightblue" points="1983.08,-173.14 1974.57,-179.44 1985.16,-179.82 1983.08,-173.14"/>
</g>
<!-- Node3 -->
<g id="node3" class="node">
<title>Node3</title>
<g id="a_node3"><a xlink:href="fplll_8cpp.html" target="_top" xlink:title=" ">
<polygon fill="white" stroke="black" points="1639,-62 1639,-81 1707,-81 1707,-62 1639,-62"/>
<text text-anchor="middle" x="1673" y="-69" font-family="Helvetica,sans-Serif" font-size="10.00">fplll/fplll.cpp</text>
</a>
</g>
</g>
<!-- Node2&#45;&gt;Node3 -->
<g id="edge2" class="edge">
<title>Node2&#45;&gt;Node3</title>
<path fill="none" stroke="midnightblue" d="M1194.43,-130.86C1275.7,-127.92 1467.4,-118.03 1625,-87 1632.52,-85.52 1640.54,-83.34 1647.83,-81.13"/>
<polygon fill="midnightblue" stroke="midnightblue" points="1194.04,-127.37 1184.17,-131.21 1194.28,-134.36 1194.04,-127.37"/>
</g>
<!-- Node4 -->
<g id="node4" class="node">
<title>Node4</title>
<g id="a_node4"><a xlink:href="main_8h.html" target="_top" xlink:title=" ">
<polygon fill="white" stroke="black" points="1915,-62 1915,-81 1979,-81 1979,-62 1915,-62"/>
<text text-anchor="middle" x="1947" y="-69" font-family="Helvetica,sans-Serif" font-size="10.00">fplll/main.h</text>
</a>
</g>
</g>
<!-- Node2&#45;&gt;Node4 -->
<g id="edge3" class="edge">
<title>Node2&#45;&gt;Node4</title>
<path fill="none" stroke="midnightblue" d="M1194.14,-130.99C1301.42,-127.9 1609.08,-116.9 1863,-87 1880.2,-84.98 1899.22,-81.77 1914.81,-78.89"/>
<polygon fill="midnightblue" stroke="midnightblue" points="1194,-127.49 1184.1,-131.27 1194.19,-134.49 1194,-127.49"/>
</g>
<!-- Node6 -->
<g id="node6" class="node">
<title>Node6</title>
<g id="a_node6"><a xlink:href="pruner_8cpp.html" target="_top" xlink:title=" ">
<polygon fill="white" stroke="black" points="249,-0.5 249,-19.5 359,-19.5 359,-0.5 249,-0.5"/>
<text text-anchor="middle" x="304" y="-7.5" font-family="Helvetica,sans-Serif" font-size="10.00">fplll/pruner/pruner.cpp</text>
</a>
</g>
</g>
<!-- Node2&#45;&gt;Node6 -->
<g id="edge5" class="edge">
<title>Node2&#45;&gt;Node6</title>
<path fill="none" stroke="midnightblue" d="M1115.77,-131.76C933.1,-130.46 173.35,-122.9 139,-87 101.77,-48.09 187.61,-27.27 248.91,-17.73"/>
<polygon fill="midnightblue" stroke="midnightblue" points="1115.96,-135.26 1125.98,-131.83 1116.01,-128.26 1115.96,-135.26"/>
</g>
<!-- Node7 -->
<g id="node7" class="node">
<title>Node7</title>
<g id="a_node7"><a xlink:href="pruner__cost_8cpp.html" target="_top" xlink:title=" ">
<polygon fill="white" stroke="black" points="148,-56.5 148,-86.5 240,-86.5 240,-56.5 148,-56.5"/>
<text text-anchor="start" x="156" y="-74.5" font-family="Helvetica,sans-Serif" font-size="10.00">fplll/pruner/pruner</text>
<text text-anchor="middle" x="194" y="-63.5" font-family="Helvetica,sans-Serif" font-size="10.00">_cost.cpp</text>
</a>
</g>
</g>
<!-- Node2&#45;&gt;Node7 -->
<g id="edge6" class="edge">
<title>Node2&#45;&gt;Node7</title>
<path fill="none" stroke="midnightblue" d="M1115.38,-131.13C963.68,-127.63 419.79,-113.46 249,-87 246.07,-86.55 243.08,-86 240.07,-85.39"/>
<polygon fill="midnightblue" stroke="midnightblue" points="1115.54,-134.63 1125.61,-131.36 1115.7,-127.64 1115.54,-134.63"/>
</g>
<!-- Node8 -->
<g id="node8" class="node">
<title>Node8</title>
<g id="a_node8"><a xlink:href="pruner__optimize_8cpp.html" target="_top" xlink:title=" ">
<polygon fill="white" stroke="black" points="258,-56.5 258,-86.5 350,-86.5 350,-56.5 258,-56.5"/>
<text text-anchor="start" x="266" y="-74.5" font-family="Helvetica,sans-Serif" font-size="10.00">fplll/pruner/pruner</text>
<text text-anchor="middle" x="304" y="-63.5" font-family="Helvetica,sans-Serif" font-size="10.00">_optimize.cpp</text>
</a>
</g>
</g>
<!-- Node2&#45;&gt;Node8 -->
<g id="edge8" class="edge">
<title>Node2&#45;&gt;Node8</title>
<path fill="none" stroke="midnightblue" d="M1115.66,-132.56C999.25,-133.63 646.68,-132.58 359,-87 356.07,-86.54 353.08,-85.98 350.07,-85.37"/>
<polygon fill="midnightblue" stroke="midnightblue" points="1115.9,-136.06 1125.86,-132.46 1115.83,-129.06 1115.9,-136.06"/>
</g>
<!-- Node9 -->
<g id="node9" class="node">
<title>Node9</title>
<g id="a_node9"><a xlink:href="pruner__optimize__tc_8cpp.html" target="_top" xlink:title=" ">
<polygon fill="white" stroke="black" points="368,-56.5 368,-86.5 460,-86.5 460,-56.5 368,-56.5"/>
<text text-anchor="start" x="376" y="-74.5" font-family="Helvetica,sans-Serif" font-size="10.00">fplll/pruner/pruner</text>
<text text-anchor="middle" x="414" y="-63.5" font-family="Helvetica,sans-Serif" font-size="10.00">_optimize_tc.cpp</text>
</a>
</g>
</g>
<!-- Node2&#45;&gt;Node9 -->
<g id="edge10" class="edge">
<title>Node2&#45;&gt;Node9</title>
<path fill="none" stroke="midnightblue" d="M1115.49,-132.05C1009.87,-131.63 712.43,-126.69 469,-87 466.08,-86.52 463.08,-85.96 460.07,-85.33"/>
<polygon fill="midnightblue" stroke="midnightblue" points="1115.68,-135.55 1125.69,-132.08 1115.7,-128.55 1115.68,-135.55"/>
</g>
<!-- Node10 -->
<g id="node10" class="node">
<title>Node10</title>
<g id="a_node10"><a xlink:href="pruner__optimize__tp_8cpp.html" target="_top" xlink:title=" ">
<polygon fill="white" stroke="black" points="602,-56.5 602,-86.5 694,-86.5 694,-56.5 602,-56.5"/>
<text text-anchor="start" x="610" y="-74.5" font-family="Helvetica,sans-Serif" font-size="10.00">fplll/pruner/pruner</text>
<text text-anchor="middle" x="648" y="-63.5" font-family="Helvetica,sans-Serif" font-size="10.00">_optimize_tp.cpp</text>
</a>
</g>
</g>
<!-- Node2&#45;&gt;Node10 -->
<g id="edge12" class="edge">
<title>Node2&#45;&gt;Node10</title>
<path fill="none" stroke="midnightblue" d="M1115.53,-130.18C1036.62,-126.07 854.02,-114.25 703,-87 700.08,-86.47 697.1,-85.87 694.09,-85.22"/>
<polygon fill="midnightblue" stroke="midnightblue" points="1115.8,-133.7 1125.96,-130.71 1116.15,-126.7 1115.8,-133.7"/>
</g>
<!-- Node11 -->
<g id="node11" class="node">
<title>Node11</title>
<g id="a_node11"><a xlink:href="pruner__prob_8cpp.html" target="_top" xlink:title=" ">
<polygon fill="white" stroke="black" points="712,-56.5 712,-86.5 804,-86.5 804,-56.5 712,-56.5"/>
<text text-anchor="start" x="720" y="-74.5" font-family="Helvetica,sans-Serif" font-size="10.00">fplll/pruner/pruner</text>
<text text-anchor="middle" x="758" y="-63.5" font-family="Helvetica,sans-Serif" font-size="10.00">_prob.cpp</text>
</a>
</g>
</g>
<!-- Node2&#45;&gt;Node11 -->
<g id="edge14" class="edge">
<title>Node2&#45;&gt;Node11</title>
<path fill="none" stroke="midnightblue" d="M1115.95,-128.49C1052.17,-122.39 921.82,-108.41 813,-87 810.09,-86.43 807.11,-85.79 804.11,-85.11"/>
<polygon fill="midnightblue" stroke="midnightblue" points="1115.69,-131.98 1125.97,-129.44 1116.35,-125.01 1115.69,-131.98"/>
</g>
<!-- Node12 -->
<g id="node12" class="node">
<title>Node12</title>
<g id="a_node12"><a xlink:href="pruner__util_8cpp.html" target="_top" xlink:title=" ">
<polygon fill="white" stroke="black" points="0,-56.5 0,-86.5 92,-86.5 92,-56.5 0,-56.5"/>
<text text-anchor="start" x="8" y="-74.5" font-family="Helvetica,sans-Serif" font-size="10.00">fplll/pruner/pruner</text>
<text text-anchor="middle" x="46" y="-63.5" font-family="Helvetica,sans-Serif" font-size="10.00">_util.cpp</text>
</a>
</g>
</g>
<!-- Node2&#45;&gt;Node12 -->
<g id="edge16" class="edge">
<title>Node2&#45;&gt;Node12</title>
<path fill="none" stroke="midnightblue" d="M1115.28,-131.33C948.79,-128.35 306.47,-115.25 106,-87 101.44,-86.36 96.71,-85.52 92.01,-84.57"/>
<polygon fill="midnightblue" stroke="midnightblue" points="1115.49,-134.83 1125.55,-131.51 1115.62,-127.83 1115.49,-134.83"/>
</g>
<!-- Node13 -->
<g id="node13" class="node">
<title>Node13</title>
<g id="a_node13"><a xlink:href="test__babai_8cpp.html" target="_top" xlink:title=" ">
<polygon fill="white" stroke="black" points="478.5,-62 478.5,-81 583.5,-81 583.5,-62 478.5,-62"/>
<text text-anchor="middle" x="531" y="-69" font-family="Helvetica,sans-Serif" font-size="10.00">tests/test_babai.cpp</text>
</a>
</g>
</g>
<!-- Node2&#45;&gt;Node13 -->
<g id="edge18" class="edge">
<title>Node2&#45;&gt;Node13</title>
<path fill="none" stroke="midnightblue" d="M1115.63,-130.88C1023.64,-127.81 787.66,-117.38 593,-87 583.28,-85.48 572.82,-83.27 563.32,-81.02"/>
<polygon fill="midnightblue" stroke="midnightblue" points="1115.76,-134.38 1125.87,-131.21 1115.98,-127.38 1115.76,-134.38"/>
</g>
<!-- Node14 -->
<g id="node14" class="node">
<title>Node14</title>
<g id="a_node14"><a xlink:href="test__bkz_8cpp.html" target="_top" xlink:title=" ">
<polygon fill="white" stroke="black" points="933,-0.5 933,-19.5 1031,-19.5 1031,-0.5 933,-0.5"/>
<text text-anchor="middle" x="982" y="-7.5" font-family="Helvetica,sans-Serif" font-size="10.00">tests/test_bkz.cpp</text>
</a>
</g>
</g>
<!-- Node2&#45;&gt;Node14 -->
<g id="edge19" class="edge">
<title>Node2&#45;&gt;Node14</title>
<path fill="none" stroke="midnightblue" d="M1137.23,-116.69C1118.39,-100.75 1087.47,-75.44 1059,-56 1038.67,-42.11 1013.89,-28.12 998.03,-19.51"/>
<polygon fill="midnightblue" stroke="midnightblue" points="1135.11,-119.48 1144.99,-123.3 1139.65,-114.15 1135.11,-119.48"/>
</g>
<!-- Node2&#45;&gt;Node15 -->
<g id="edge20" class="edge">
<title>Node2&#45;&gt;Node15</title>
<path fill="none" stroke="midnightblue" d="M1194.48,-131.85C1316.37,-130.99 1680.74,-125.2 1716,-87 1734.2,-67.28 1709.41,-34.97 1695.42,-19.62"/>
<polygon fill="midnightblue" stroke="midnightblue" points="1194.1,-128.35 1184.12,-131.92 1194.14,-135.35 1194.1,-128.35"/>
</g>
<!-- Node16 -->
<g id="node16" class="node">
<title>Node16</title>
<g id="a_node16"><a xlink:href="test__ceil_8cpp.html" target="_top" xlink:title=" ">
<polygon fill="white" stroke="black" points="822.5,-62 822.5,-81 919.5,-81 919.5,-62 822.5,-62"/>
<text text-anchor="middle" x="871" y="-69" font-family="Helvetica,sans-Serif" font-size="10.00">tests/test_ceil.cpp</text>
</a>
</g>
</g>
<!-- Node2&#45;&gt;Node16 -->
<g id="edge21" class="edge">
<title>Node2&#45;&gt;Node16</title>
<path fill="none" stroke="midnightblue" d="M1115.87,-124.9C1070.52,-116.52 993.62,-101.84 928,-87 919.93,-85.18 911.26,-83.05 903.18,-81.01"/>
<polygon fill="midnightblue" stroke="midnightblue" points="1115.4,-128.37 1125.87,-126.74 1116.67,-121.49 1115.4,-128.37"/>
</g>
<!-- Node17 -->
<g id="node17" class="node">
<title>Node17</title>
<g id="a_node17"><a xlink:href="test__counter_8cpp.html" target="_top" xlink:title=" ">
<polygon fill="white" stroke="black" points="937.5,-62 937.5,-81 1050.5,-81 1050.5,-62 937.5,-62"/>
<text text-anchor="middle" x="994" y="-69" font-family="Helvetica,sans-Serif" font-size="10.00">tests/test_counter.cpp</text>
</a>
</g>
</g>
<!-- Node2&#45;&gt;Node17 -->
<g id="edge22" class="edge">
<title>Node2&#45;&gt;Node17</title>
<path fill="none" stroke="midnightblue" d="M1122.35,-119.93C1091.06,-108.37 1044.62,-91.21 1017.02,-81.01"/>
<polygon fill="midnightblue" stroke="midnightblue" points="1121.34,-123.29 1131.93,-123.48 1123.77,-116.73 1121.34,-123.29"/>
</g>
<!-- Node18 -->
<g id="node18" class="node">
<title>Node18</title>
<g id="a_node18"><a xlink:href="test__cvp_8cpp.html" target="_top" xlink:title=" ">
<polygon fill="white" stroke="black" points="1049,-0.5 1049,-19.5 1147,-19.5 1147,-0.5 1049,-0.5"/>
<text text-anchor="middle" x="1098" y="-7.5" font-family="Helvetica,sans-Serif" font-size="10.00">tests/test_cvp.cpp</text>
</a>
</g>
</g>
<!-- Node2&#45;&gt;Node18 -->
<g id="edge23" class="edge">
<title>Node2&#45;&gt;Node18</title>
<path fill="none" stroke="midnightblue" d="M1146.55,-114.05C1134.1,-87.62 1111.31,-39.26 1102.06,-19.62"/>
<polygon fill="midnightblue" stroke="midnightblue" points="1143.47,-115.74 1150.9,-123.3 1149.81,-112.76 1143.47,-115.74"/>
</g>
<!-- Node19 -->
<g id="node19" class="node">
<title>Node19</title>
<g id="a_node19"><a xlink:href="test__enum_8cpp.html" target="_top" xlink:title=" ">
<polygon fill="white" stroke="black" points="1165,-0.5 1165,-19.5 1271,-19.5 1271,-0.5 1165,-0.5"/>
<text text-anchor="middle" x="1218" y="-7.5" font-family="Helvetica,sans-Serif" font-size="10.00">tests/test_enum.cpp</text>
</a>
</g>
</g>
<!-- Node2&#45;&gt;Node19 -->
<g id="edge24" class="edge">
<title>Node2&#45;&gt;Node19</title>
<path fill="none" stroke="midnightblue" d="M1158.75,-112.91C1162.4,-96.99 1168.89,-74.07 1179,-56 1186.87,-41.92 1199.63,-28.29 1208.4,-19.79"/>
<polygon fill="midnightblue" stroke="midnightblue" points="1155.24,-112.59 1156.58,-123.1 1162.09,-114.05 1155.24,-112.59"/>
</g>
<!-- Node20 -->
<g id="node20" class="node">
<title>Node20</title>
<g id="a_node20"><a xlink:href="test__hlll_8cpp.html" target="_top" xlink:title=" ">
<polygon fill="white" stroke="black" points="1289,-0.5 1289,-19.5 1383,-19.5 1383,-0.5 1289,-0.5"/>
<text text-anchor="middle" x="1336" y="-7.5" font-family="Helvetica,sans-Serif" font-size="10.00">tests/test_hlll.cpp</text>
</a>
</g>
</g>
<!-- Node2&#45;&gt;Node20 -->
<g id="edge25" class="edge">
<title>Node2&#45;&gt;Node20</title>
<path fill="none" stroke="midnightblue" d="M1165.53,-114.29C1176.47,-97.25 1195.05,-71.8 1217,-56 1241.74,-38.19 1274.38,-26.51 1299.23,-19.52"/>
<polygon fill="midnightblue" stroke="midnightblue" points="1162.29,-112.88 1160,-123.22 1168.24,-116.56 1162.29,-112.88"/>
</g>
<!-- Node21 -->
<g id="node21" class="node">
<title>Node21</title>
<g id="a_node21"><a xlink:href="test__lll_8cpp.html" target="_top" xlink:title=" ">
<polygon fill="white" stroke="black" points="1401.5,-0.5 1401.5,-19.5 1490.5,-19.5 1490.5,-0.5 1401.5,-0.5"/>
<text text-anchor="middle" x="1446" y="-7.5" font-family="Helvetica,sans-Serif" font-size="10.00">tests/test_lll.cpp</text>
</a>
</g>
</g>
<!-- Node2&#45;&gt;Node21 -->
<g id="edge26" class="edge">
<title>Node2&#45;&gt;Node21</title>
<path fill="none" stroke="midnightblue" d="M1175.88,-117.42C1187.85,-108.85 1203.03,-97.65 1216,-87 1231.8,-74.02 1231.89,-65.49 1250,-56 1275.9,-42.43 1351.82,-27.36 1401.21,-18.55"/>
<polygon fill="midnightblue" stroke="midnightblue" points="1173.57,-114.76 1167.44,-123.4 1177.62,-120.47 1173.57,-114.76"/>
</g>
<!-- Node2&#45;&gt;Node22 -->
<g id="edge27" class="edge">
<title>Node2&#45;&gt;Node22</title>
<path fill="none" stroke="midnightblue" d="M1194.16,-132.01C1307.77,-131.55 1635.64,-126.74 1734,-87 1771.26,-71.94 1804.88,-36.06 1818.98,-19.56"/>
<polygon fill="midnightblue" stroke="midnightblue" points="1194.15,-128.51 1184.16,-132.04 1194.17,-135.51 1194.15,-128.51"/>
</g>
<!-- Node23 -->
<g id="node23" class="node">
<title>Node23</title>
<g id="a_node23"><a xlink:href="test__nr_8cpp.html" target="_top" xlink:title=" ">
<polygon fill="white" stroke="black" points="1259.5,-62 1259.5,-81 1348.5,-81 1348.5,-62 1259.5,-62"/>
<text text-anchor="middle" x="1304" y="-69" font-family="Helvetica,sans-Serif" font-size="10.00">tests/test_nr.cpp</text>
</a>
</g>
</g>
<!-- Node2&#45;&gt;Node23 -->
<g id="edge28" class="edge">
<title>Node2&#45;&gt;Node23</title>
<path fill="none" stroke="midnightblue" d="M1185.97,-119.63C1214.92,-108.07 1257.37,-91.12 1282.69,-81.01"/>
<polygon fill="midnightblue" stroke="midnightblue" points="1184.34,-116.52 1176.35,-123.48 1186.93,-123.02 1184.34,-116.52"/>
</g>
<!-- Node24 -->
<g id="node24" class="node">
<title>Node24</title>
<g id="a_node24"><a xlink:href="test__pruner_8cpp.html" target="_top" xlink:title=" ">
<polygon fill="white" stroke="black" points="1367,-62 1367,-81 1475,-81 1475,-62 1367,-62"/>
<text text-anchor="middle" x="1421" y="-69" font-family="Helvetica,sans-Serif" font-size="10.00">tests/test_pruner.cpp</text>
</a>
</g>
</g>
<!-- Node2&#45;&gt;Node24 -->
<g id="edge29" class="edge">
<title>Node2&#45;&gt;Node24</title>
<path fill="none" stroke="midnightblue" d="M1193.89,-123.38C1234.58,-114.35 1300.28,-99.74 1357,-87 1365.56,-85.08 1374.76,-83 1383.44,-81.03"/>
<polygon fill="midnightblue" stroke="midnightblue" points="1193.11,-119.97 1184.11,-125.55 1194.63,-126.8 1193.11,-119.97"/>
</g>
<!-- Node25 -->
<g id="node25" class="node">
<title>Node25</title>
<g id="a_node25"><a xlink:href="test__svp_8cpp.html" target="_top" xlink:title=" ">
<polygon fill="white" stroke="black" points="1508,-0.5 1508,-19.5 1606,-19.5 1606,-0.5 1508,-0.5"/>
<text text-anchor="middle" x="1557" y="-7.5" font-family="Helvetica,sans-Serif" font-size="10.00">tests/test_svp.cpp</text>
</a>
</g>
</g>
<!-- Node2&#45;&gt;Node25 -->
<g id="edge30" class="edge">
<title>Node2&#45;&gt;Node25</title>
<path fill="none" stroke="midnightblue" d="M1194.37,-130.88C1296.65,-127.58 1564.66,-116.2 1591,-87 1609.2,-66.82 1582.33,-35.29 1566.78,-19.97"/>
<polygon fill="midnightblue" stroke="midnightblue" points="1194.04,-127.39 1184.15,-131.2 1194.26,-134.39 1194.04,-127.39"/>
</g>
<!-- Node2&#45;&gt;Node26 -->
<g id="edge31" class="edge">
<title>Node2&#45;&gt;Node26</title>
<path fill="none" stroke="midnightblue" d="M1194.22,-130.69C1311.99,-126.5 1661.2,-112.24 1772,-87 1839.94,-71.52 1915.44,-36.02 1948.25,-19.61"/>
<polygon fill="midnightblue" stroke="midnightblue" points="1194.07,-127.19 1184.2,-131.04 1194.32,-134.19 1194.07,-127.19"/>
</g>
<!-- Node27 -->
<g id="node27" class="node">
<title>Node27</title>
<g id="a_node27"><a xlink:href="test__utils_8h.html" target="_top" xlink:title=" ">
<polygon fill="white" stroke="black" points="1493.5,-62 1493.5,-81 1582.5,-81 1582.5,-62 1493.5,-62"/>
<text text-anchor="middle" x="1538" y="-69" font-family="Helvetica,sans-Serif" font-size="10.00">tests/test_utils.h</text>
</a>
</g>
</g>
<!-- Node2&#45;&gt;Node27 -->
<g id="edge32" class="edge">
<title>Node2&#45;&gt;Node27</title>
<path fill="none" stroke="midnightblue" d="M1194.38,-128.24C1256.37,-121.96 1380.36,-107.91 1484,-87 1492.18,-85.35 1500.96,-83.17 1509.01,-81.01"/>
<polygon fill="midnightblue" stroke="midnightblue" points="1193.86,-124.78 1184.25,-129.25 1194.55,-131.74 1193.86,-124.78"/>
</g>
<!-- Node5 -->
<g id="node5" class="node">
<title>Node5</title>
<g id="a_node5"><a xlink:href="main_8cpp.html" target="_top" xlink:title=" ">
<polygon fill="white" stroke="black" points="2162,-0.5 2162,-19.5 2236,-19.5 2236,-0.5 2162,-0.5"/>
<text text-anchor="middle" x="2199" y="-7.5" font-family="Helvetica,sans-Serif" font-size="10.00">fplll/main.cpp</text>
</a>
</g>
</g>
<!-- Node4&#45;&gt;Node5 -->
<g id="edge4" class="edge">
<title>Node4&#45;&gt;Node5</title>
<path fill="none" stroke="midnightblue" d="M1989.07,-60.57C2037.72,-49.08 2117.01,-30.36 2162.95,-19.51"/>
<polygon fill="midnightblue" stroke="midnightblue" points="1988.1,-57.2 1979.17,-62.9 1989.71,-64.01 1988.1,-57.2"/>
</g>
<!-- Node7&#45;&gt;Node6 -->
<g id="edge7" class="edge">
<title>Node7&#45;&gt;Node6</title>
<path fill="none" stroke="midnightblue" d="M229.12,-51.51C248.89,-40.81 272.62,-27.97 287.99,-19.66"/>
<polygon fill="midnightblue" stroke="midnightblue" points="227.2,-48.56 220.07,-56.4 230.53,-54.72 227.2,-48.56"/>
</g>
<!-- Node8&#45;&gt;Node6 -->
<g id="edge9" class="edge">
<title>Node8&#45;&gt;Node6</title>
<path fill="none" stroke="midnightblue" d="M304,-46.29C304,-36.86 304,-26.65 304,-19.66"/>
<polygon fill="midnightblue" stroke="midnightblue" points="300.5,-46.4 304,-56.4 307.5,-46.4 300.5,-46.4"/>
</g>
<!-- Node9&#45;&gt;Node6 -->
<g id="edge11" class="edge">
<title>Node9&#45;&gt;Node6</title>
<path fill="none" stroke="midnightblue" d="M378.88,-51.51C359.11,-40.81 335.38,-27.97 320.01,-19.66"/>
<polygon fill="midnightblue" stroke="midnightblue" points="377.47,-54.72 387.93,-56.4 380.8,-48.56 377.47,-54.72"/>
</g>
<!-- Node10&#45;&gt;Node6 -->
<g id="edge13" class="edge">
<title>Node10&#45;&gt;Node6</title>
<path fill="none" stroke="midnightblue" d="M592.3,-56.06C592.2,-56.04 592.1,-56.02 592,-56 511.6,-39.35 417.42,-25.73 359.23,-17.99"/>
<polygon fill="midnightblue" stroke="midnightblue" points="591.42,-59.45 601.94,-58.19 592.93,-52.62 591.42,-59.45"/>
</g>
<!-- Node11&#45;&gt;Node6 -->
<g id="edge15" class="edge">
<title>Node11&#45;&gt;Node6</title>
<path fill="none" stroke="midnightblue" d="M701.93,-55.97C574.07,-32.59 434.63,-20.26 359.24,-14.68"/>
<polygon fill="midnightblue" stroke="midnightblue" points="701.43,-59.44 711.9,-57.83 702.7,-52.56 701.43,-59.44"/>
</g>
<!-- Node12&#45;&gt;Node6 -->
<g id="edge17" class="edge">
<title>Node12&#45;&gt;Node6</title>
<path fill="none" stroke="midnightblue" d="M102.17,-56.9C103.46,-56.6 104.74,-56.3 106,-56 161.43,-43 225.72,-28.5 265.64,-19.56"/>
<polygon fill="midnightblue" stroke="midnightblue" points="101.09,-53.56 92.17,-59.27 102.71,-60.37 101.09,-53.56"/>
</g>
<!-- Node27&#45;&gt;Node14 -->
<g id="edge33" class="edge">
<title>Node27&#45;&gt;Node14</title>
<path fill="none" stroke="midnightblue" d="M1500.5,-59.5C1495,-58.16 1489.38,-56.93 1484,-56 1288.93,-22.19 1236.62,-43.19 1040,-20 1037.07,-19.65 1034.05,-19.27 1031.01,-18.86"/>
<polygon fill="midnightblue" stroke="midnightblue" points="1499.63,-62.89 1510.19,-62 1501.38,-56.11 1499.63,-62.89"/>
</g>
<!-- Node27&#45;&gt;Node15 -->
<g id="edge34" class="edge">
<title>Node27&#45;&gt;Node15</title>
<path fill="none" stroke="midnightblue" d="M1568.97,-58.13C1597.92,-46.57 1640.37,-29.62 1665.69,-19.51"/>
<polygon fill="midnightblue" stroke="midnightblue" points="1567.34,-55.02 1559.35,-61.98 1569.93,-61.52 1567.34,-55.02"/>
</g>
<!-- Node27&#45;&gt;Node18 -->
<g id="edge35" class="edge">
<title>Node27&#45;&gt;Node18</title>
<path fill="none" stroke="midnightblue" d="M1499.53,-59.4C1494.34,-58.13 1489.06,-56.95 1484,-56 1339.87,-28.9 1301.38,-39.25 1156,-20 1153.07,-19.61 1150.06,-19.2 1147.03,-18.76"/>
<polygon fill="midnightblue" stroke="midnightblue" points="1498.77,-62.82 1509.32,-61.93 1500.51,-56.04 1498.77,-62.82"/>
</g>
<!-- Node27&#45;&gt;Node19 -->
<g id="edge36" class="edge">
<title>Node27&#45;&gt;Node19</title>
<path fill="none" stroke="midnightblue" d="M1498.38,-59.4C1493.55,-58.19 1488.67,-57.02 1484,-56 1444.42,-47.36 1336.86,-29.85 1271.27,-19.4"/>
<polygon fill="midnightblue" stroke="midnightblue" points="1497.57,-62.81 1508.13,-61.94 1499.34,-56.03 1497.57,-62.81"/>
</g>
<!-- Node27&#45;&gt;Node20 -->
<g id="edge38" class="edge">
<title>Node27&#45;&gt;Node20</title>
<path fill="none" stroke="midnightblue" d="M1499.31,-59.1C1460.05,-47.54 1400.19,-29.91 1364.89,-19.51"/>
<polygon fill="midnightblue" stroke="midnightblue" points="1498.48,-62.51 1509.06,-61.98 1500.45,-55.79 1498.48,-62.51"/>
</g>
<!-- Node27&#45;&gt;Node21 -->
<g id="edge39" class="edge">
<title>Node27&#45;&gt;Node21</title>
<path fill="none" stroke="midnightblue" d="M1516.24,-56.43C1498.51,-44.96 1474.04,-29.13 1459.16,-19.51"/>
<polygon fill="midnightblue" stroke="midnightblue" points="1514.52,-59.48 1524.82,-61.98 1518.32,-53.61 1514.52,-59.48"/>
</g>
<!-- Node27&#45;&gt;Node22 -->
<g id="edge40" class="edge">
<title>Node27&#45;&gt;Node22</title>
<path fill="none" stroke="midnightblue" d="M1589.3,-59.9C1645.13,-48.37 1733.31,-30.15 1784.81,-19.51"/>
<polygon fill="midnightblue" stroke="midnightblue" points="1588.35,-56.52 1579.26,-61.98 1589.76,-63.38 1588.35,-56.52"/>
</g>
<!-- Node27&#45;&gt;Node25 -->
<g id="edge41" class="edge">
<title>Node27&#45;&gt;Node25</title>
<path fill="none" stroke="midnightblue" d="M1543.86,-52.16C1547.33,-41.27 1551.58,-27.99 1554.28,-19.51"/>
<polygon fill="midnightblue" stroke="midnightblue" points="1540.43,-51.38 1540.72,-61.98 1547.1,-53.51 1540.43,-51.38"/>
</g>
<!-- Node27&#45;&gt;Node26 -->
<g id="edge42" class="edge">
<title>Node27&#45;&gt;Node26</title>
<path fill="none" stroke="midnightblue" d="M1592.94,-61.63C1605.13,-59.72 1618,-57.75 1630,-56 1724.79,-42.16 1834.92,-27.68 1902.27,-18.99"/>
<polygon fill="midnightblue" stroke="midnightblue" points="1592.22,-58.2 1582.89,-63.21 1593.31,-65.12 1592.22,-58.2"/>
</g>
<!-- Node27&#45;&gt;Node28 -->
<g id="edge37" class="edge">
<title>Node27&#45;&gt;Node28</title>
<path fill="none" stroke="midnightblue" d="M1592.89,-61.22C1605.08,-59.34 1617.96,-57.48 1630,-56 1809.8,-33.89 1856.15,-41.67 2036,-20 2039.19,-19.62 2042.47,-19.19 2045.78,-18.75"/>
<polygon fill="midnightblue" stroke="midnightblue" points="1592.17,-57.79 1582.84,-62.81 1593.26,-64.71 1592.17,-57.79"/>
</g>
</g>
</svg>
