<?xml version="1.0" encoding="UTF-8" standalone="no"?>
<!DOCTYPE svg PUBLIC "-//W3C//DTD SVG 1.1//EN"
 "http://www.w3.org/Graphics/SVG/1.1/DTD/svg11.dtd">
<!-- Generated by graphviz version 2.38.0 (20140413.2041)
 -->
<!-- Title: fplll/gso.h Pages: 1 -->
<svg width="1131pt" height="408pt"
 viewBox="0.00 0.00 1131.41 408.00" xmlns="http://www.w3.org/2000/svg" xmlns:xlink="http://www.w3.org/1999/xlink">
<g id="graph0" class="graph" transform="scale(1 1) rotate(0) translate(4 404)">
<title>fplll/gso.h</title>
<polygon fill="white" stroke="none" points="-4,4 -4,-404 1127.41,-404 1127.41,4 -4,4"/>
<!-- Node1 -->
<g id="node1" class="node"><title>Node1</title>
<polygon fill="#bfbfbf" stroke="black" points="548.912,-380.5 548.912,-399.5 607.912,-399.5 607.912,-380.5 548.912,-380.5"/>
<text text-anchor="middle" x="578.412" y="-387.5" font-family="Helvetica,sans-Serif" font-size="10.00">fplll/gso.h</text>
</g>
<!-- Node2 -->
<g id="node2" class="node"><title>Node2</title>
<g id="a_node2"><a xlink:href="enumerate_8h.html" target="_top" xlink:title="fplll/enum/enumerate.h">
<polygon fill="white" stroke="black" points="110.412,-319 110.412,-338 226.412,-338 226.412,-319 110.412,-319"/>
<text text-anchor="middle" x="168.412" y="-326" font-family="Helvetica,sans-Serif" font-size="10.00">fplll/enum/enumerate.h</text>
</a>
</g>
</g>
<!-- Node1&#45;&gt;Node2 -->
<g id="edge1" class="edge"><title>Node1&#45;&gt;Node2</title>
<path fill="none" stroke="midnightblue" d="M538.47,-383.203C465.698,-372.643 311.247,-350.229 226.708,-337.96"/>
<polygon fill="midnightblue" stroke="midnightblue" points="538.197,-386.7 548.596,-384.673 539.202,-379.773 538.197,-386.7"/>
</g>
<!-- Node18 -->
<g id="node18" class="node"><title>Node18</title>
<g id="a_node18"><a xlink:href="lll_8h.html" target="_top" xlink:title="fplll/lll.h">
<polygon fill="white" stroke="black" points="325.412,-319 325.412,-338 375.412,-338 375.412,-319 325.412,-319"/>
<text text-anchor="middle" x="350.412" y="-326" font-family="Helvetica,sans-Serif" font-size="10.00">fplll/lll.h</text>
</a>
</g>
</g>
<!-- Node1&#45;&gt;Node18 -->
<g id="edge19" class="edge"><title>Node1&#45;&gt;Node18</title>
<path fill="none" stroke="midnightblue" d="M538.788,-378.659C491.881,-366.418 415.164,-346.398 375.666,-336.09"/>
<polygon fill="midnightblue" stroke="midnightblue" points="538.045,-382.083 548.605,-381.221 539.813,-375.31 538.045,-382.083"/>
</g>
<!-- Node21 -->
<g id="node21" class="node"><title>Node21</title>
<g id="a_node21"><a xlink:href="pruner_8h.html" target="_top" xlink:title="fplll/pruner.h">
<polygon fill="white" stroke="black" points="512.412,-319 512.412,-338 582.412,-338 582.412,-319 512.412,-319"/>
<text text-anchor="middle" x="547.412" y="-326" font-family="Helvetica,sans-Serif" font-size="10.00">fplll/pruner.h</text>
</a>
</g>
</g>
<!-- Node1&#45;&gt;Node21 -->
<g id="edge23" class="edge"><title>Node1&#45;&gt;Node21</title>
<path fill="none" stroke="midnightblue" d="M569.208,-371.335C563.474,-360.328 556.354,-346.663 551.845,-338.009"/>
<polygon fill="midnightblue" stroke="midnightblue" points="566.246,-373.224 573.97,-380.475 572.454,-369.989 566.246,-373.224"/>
</g>
<!-- Node23 -->
<g id="node23" class="node"><title>Node23</title>
<g id="a_node23"><a xlink:href="pruner_8cpp.html" target="_top" xlink:title="fplll/pruner.cpp">
<polygon fill="white" stroke="black" points="616.412,-252 616.412,-271 696.412,-271 696.412,-252 616.412,-252"/>
<text text-anchor="middle" x="656.412" y="-259" font-family="Helvetica,sans-Serif" font-size="10.00">fplll/pruner.cpp</text>
</a>
</g>
</g>
<!-- Node1&#45;&gt;Node23 -->
<g id="edge28" class="edge"><title>Node1&#45;&gt;Node23</title>
<path fill="none" stroke="midnightblue" d="M589.04,-371.763C605.914,-344.397 638.228,-291.99 651.013,-271.256"/>
<polygon fill="midnightblue" stroke="midnightblue" points="586.043,-369.956 583.773,-380.305 592.001,-373.63 586.043,-369.956"/>
</g>
<!-- Node24 -->
<g id="node24" class="node"><title>Node24</title>
<g id="a_node24"><a xlink:href="gso_8cpp.html" target="_top" xlink:title="fplll/gso.cpp">
<polygon fill="white" stroke="black" points="638.912,-319 638.912,-338 707.912,-338 707.912,-319 638.912,-319"/>
<text text-anchor="middle" x="673.412" y="-326" font-family="Helvetica,sans-Serif" font-size="10.00">fplll/gso.cpp</text>
</a>
</g>
</g>
<!-- Node1&#45;&gt;Node24 -->
<g id="edge27" class="edge"><title>Node1&#45;&gt;Node24</title>
<path fill="none" stroke="midnightblue" d="M600.626,-375.087C618.96,-363.604 644.388,-347.678 659.826,-338.009"/>
<polygon fill="midnightblue" stroke="midnightblue" points="598.64,-372.201 592.023,-380.475 602.356,-378.133 598.64,-372.201"/>
</g>
<!-- Node25 -->
<g id="node25" class="node"><title>Node25</title>
<g id="a_node25"><a xlink:href="sampler__basic_8h.html" target="_top" xlink:title="fplll/sieve/sampler\l_basic.h">
<polygon fill="white" stroke="black" points="776.912,-313.5 776.912,-343.5 871.912,-343.5 871.912,-313.5 776.912,-313.5"/>
<text text-anchor="start" x="784.912" y="-331.5" font-family="Helvetica,sans-Serif" font-size="10.00">fplll/sieve/sampler</text>
<text text-anchor="middle" x="824.412" y="-320.5" font-family="Helvetica,sans-Serif" font-size="10.00">_basic.h</text>
</a>
</g>
</g>
<!-- Node1&#45;&gt;Node25 -->
<g id="edge29" class="edge"><title>Node1&#45;&gt;Node25</title>
<path fill="none" stroke="midnightblue" d="M617.94,-379.439C661.103,-368.999 730.229,-352.28 776.46,-341.098"/>
<polygon fill="midnightblue" stroke="midnightblue" points="616.982,-376.07 608.085,-381.823 618.628,-382.874 616.982,-376.07"/>
</g>
<!-- Node3 -->
<g id="node3" class="node"><title>Node3</title>
<g id="a_node3"><a xlink:href="bkz_8h.html" target="_top" xlink:title="fplll/bkz.h">
<polygon fill="white" stroke="black" points="196.912,-252 196.912,-271 255.912,-271 255.912,-252 196.912,-252"/>
<text text-anchor="middle" x="226.412" y="-259" font-family="Helvetica,sans-Serif" font-size="10.00">fplll/bkz.h</text>
</a>
</g>
</g>
<!-- Node2&#45;&gt;Node3 -->
<g id="edge2" class="edge"><title>Node2&#45;&gt;Node3</title>
<path fill="none" stroke="midnightblue" d="M183.015,-311.135C194.358,-298.423 209.639,-281.298 218.714,-271.127"/>
<polygon fill="midnightblue" stroke="midnightblue" points="180.281,-308.942 176.234,-318.734 185.504,-313.603 180.281,-308.942"/>
</g>
<!-- Node4 -->
<g id="node4" class="node"><title>Node4</title>
<g id="a_node4"><a xlink:href="bkz_8cpp.html" target="_top" xlink:title="fplll/bkz.cpp">
<polygon fill="white" stroke="black" points="139.912,-185 139.912,-204 208.912,-204 208.912,-185 139.912,-185"/>
<text text-anchor="middle" x="174.412" y="-192" font-family="Helvetica,sans-Serif" font-size="10.00">fplll/bkz.cpp</text>
</a>
</g>
</g>
<!-- Node2&#45;&gt;Node4 -->
<g id="edge15" class="edge"><title>Node2&#45;&gt;Node4</title>
<path fill="none" stroke="midnightblue" d="M169.263,-308.775C170.583,-279.746 173.069,-225.038 174.025,-204.021"/>
<polygon fill="midnightblue" stroke="midnightblue" points="165.763,-308.69 168.806,-318.839 172.756,-309.008 165.763,-308.69"/>
</g>
<!-- Node16 -->
<g id="node16" class="node"><title>Node16</title>
<g id="a_node16"><a xlink:href="enumerate_8cpp.html" target="_top" xlink:title="fplll/enum/enumerate.cpp">
<polygon fill="white" stroke="black" points="14.412,-252 14.412,-271 140.412,-271 140.412,-252 14.412,-252"/>
<text text-anchor="middle" x="77.412" y="-259" font-family="Helvetica,sans-Serif" font-size="10.00">fplll/enum/enumerate.cpp</text>
</a>
</g>
</g>
<!-- Node2&#45;&gt;Node16 -->
<g id="edge16" class="edge"><title>Node2&#45;&gt;Node16</title>
<path fill="none" stroke="midnightblue" d="M147.999,-312.92C130.009,-300.069 104.407,-281.782 89.4902,-271.127"/>
<polygon fill="midnightblue" stroke="midnightblue" points="145.968,-315.769 156.139,-318.734 150.036,-310.073 145.968,-315.769"/>
</g>
<!-- Node17 -->
<g id="node17" class="node"><title>Node17</title>
<g id="a_node17"><a xlink:href="svpcvp_8cpp.html" target="_top" xlink:title="fplll/svpcvp.cpp">
<polygon fill="white" stroke="black" points="8.91198,-185 8.91198,-204 93.912,-204 93.912,-185 8.91198,-185"/>
<text text-anchor="middle" x="51.412" y="-192" font-family="Helvetica,sans-Serif" font-size="10.00">fplll/svpcvp.cpp</text>
</a>
</g>
</g>
<!-- Node2&#45;&gt;Node17 -->
<g id="edge17" class="edge"><title>Node2&#45;&gt;Node17</title>
<path fill="none" stroke="midnightblue" d="M100.296,-324.625C65.9949,-319.298 27.1697,-306.519 5.41198,-277 -12.904,-252.151 21.3066,-219.293 40.1638,-204.003"/>
<polygon fill="midnightblue" stroke="midnightblue" points="99.9186,-328.106 110.301,-325.993 100.867,-321.17 99.9186,-328.106"/>
</g>
<!-- Node3&#45;&gt;Node4 -->
<g id="edge3" class="edge"><title>Node3&#45;&gt;Node4</title>
<path fill="none" stroke="midnightblue" d="M213.028,-243.77C202.89,-231.097 189.373,-214.201 181.314,-204.127"/>
<polygon fill="midnightblue" stroke="midnightblue" points="210.419,-246.112 219.399,-251.734 215.885,-241.739 210.419,-246.112"/>
</g>
<!-- Node5 -->
<g id="node5" class="node"><title>Node5</title>
<g id="a_node5"><a xlink:href="fplll_8h.html" target="_top" xlink:title="fplll/fplll.h">
<polygon fill="white" stroke="black" points="353.412,-185 353.412,-204 411.412,-204 411.412,-185 353.412,-185"/>
<text text-anchor="middle" x="382.412" y="-192" font-family="Helvetica,sans-Serif" font-size="10.00">fplll/fplll.h</text>
</a>
</g>
</g>
<!-- Node3&#45;&gt;Node5 -->
<g id="edge4" class="edge"><title>Node3&#45;&gt;Node5</title>
<path fill="none" stroke="midnightblue" d="M256.536,-247.948C287.423,-235.079 334.644,-215.403 361.611,-204.167"/>
<polygon fill="midnightblue" stroke="midnightblue" points="255.012,-244.792 247.128,-251.869 257.705,-251.253 255.012,-244.792"/>
</g>
<!-- Node6 -->
<g id="node6" class="node"><title>Node6</title>
<g id="a_node6"><a xlink:href="fplll_8cpp.html" target="_top" xlink:title="fplll/fplll.cpp">
<polygon fill="white" stroke="black" points="39.412,-123.5 39.412,-142.5 107.412,-142.5 107.412,-123.5 39.412,-123.5"/>
<text text-anchor="middle" x="73.412" y="-130.5" font-family="Helvetica,sans-Serif" font-size="10.00">fplll/fplll.cpp</text>
</a>
</g>
</g>
<!-- Node5&#45;&gt;Node6 -->
<g id="edge5" class="edge"><title>Node5&#45;&gt;Node6</title>
<path fill="none" stroke="midnightblue" d="M343.347,-185.978C282.401,-174.242 165.69,-151.769 107.769,-140.616"/>
<polygon fill="midnightblue" stroke="midnightblue" points="342.861,-189.448 353.342,-187.902 344.184,-182.575 342.861,-189.448"/>
</g>
<!-- Node7 -->
<g id="node7" class="node"><title>Node7</title>
<g id="a_node7"><a xlink:href="main_8h.html" target="_top" xlink:title="fplll/main.h">
<polygon fill="white" stroke="black" points="290.412,-123.5 290.412,-142.5 354.412,-142.5 354.412,-123.5 290.412,-123.5"/>
<text text-anchor="middle" x="322.412" y="-130.5" font-family="Helvetica,sans-Serif" font-size="10.00">fplll/main.h</text>
</a>
</g>
</g>
<!-- Node5&#45;&gt;Node7 -->
<g id="edge6" class="edge"><title>Node5&#45;&gt;Node7</title>
<path fill="none" stroke="midnightblue" d="M366.605,-177.825C355.205,-166.52 340.253,-151.693 330.993,-142.509"/>
<polygon fill="midnightblue" stroke="midnightblue" points="364.25,-180.419 373.815,-184.975 369.179,-175.448 364.25,-180.419"/>
</g>
<!-- Node9 -->
<g id="node9" class="node"><title>Node9</title>
<g id="a_node9"><a xlink:href="sieve__main_8cpp.html" target="_top" xlink:title="fplll/sieve/sieve_main.cpp">
<polygon fill="white" stroke="black" points="361.912,-0.5 361.912,-19.5 490.912,-19.5 490.912,-0.5 361.912,-0.5"/>
<text text-anchor="middle" x="426.412" y="-7.5" font-family="Helvetica,sans-Serif" font-size="10.00">fplll/sieve/sieve_main.cpp</text>
</a>
</g>
</g>
<!-- Node5&#45;&gt;Node9 -->
<g id="edge8" class="edge"><title>Node5&#45;&gt;Node9</title>
<path fill="none" stroke="midnightblue" d="M382.835,-174.577C383.924,-147.596 387.785,-96.8189 401.412,-56 405.94,-42.4364 414.574,-28.2492 420.412,-19.5161"/>
<polygon fill="midnightblue" stroke="midnightblue" points="379.327,-174.777 382.511,-184.882 386.324,-174.997 379.327,-174.777"/>
</g>
<!-- Node10 -->
<g id="node10" class="node"><title>Node10</title>
<g id="a_node10"><a xlink:href="test__bkz_8cpp.html" target="_top" xlink:title="tests/test_bkz.cpp">
<polygon fill="white" stroke="black" points="410.412,-123.5 410.412,-142.5 508.412,-142.5 508.412,-123.5 410.412,-123.5"/>
<text text-anchor="middle" x="459.412" y="-130.5" font-family="Helvetica,sans-Serif" font-size="10.00">tests/test_bkz.cpp</text>
</a>
</g>
</g>
<!-- Node5&#45;&gt;Node10 -->
<g id="edge9" class="edge"><title>Node5&#45;&gt;Node10</title>
<path fill="none" stroke="midnightblue" d="M401.444,-178.794C416.214,-167.38 436.173,-151.958 448.4,-142.509"/>
<polygon fill="midnightblue" stroke="midnightblue" points="399.217,-176.091 393.444,-184.975 403.497,-181.63 399.217,-176.091"/>
</g>
<!-- Node11 -->
<g id="node11" class="node"><title>Node11</title>
<g id="a_node11"><a xlink:href="test__lll_8cpp.html" target="_top" xlink:title="tests/test_lll.cpp">
<polygon fill="white" stroke="black" points="525.912,-123.5 525.912,-142.5 614.912,-142.5 614.912,-123.5 525.912,-123.5"/>
<text text-anchor="middle" x="570.412" y="-130.5" font-family="Helvetica,sans-Serif" font-size="10.00">tests/test_lll.cpp</text>
</a>
</g>
</g>
<!-- Node5&#45;&gt;Node11 -->
<g id="edge10" class="edge"><title>Node5&#45;&gt;Node11</title>
<path fill="none" stroke="midnightblue" d="M419.125,-181.881C455.668,-170.315 510.882,-152.841 543.526,-142.509"/>
<polygon fill="midnightblue" stroke="midnightblue" points="417.826,-178.621 409.348,-184.975 419.938,-185.295 417.826,-178.621"/>
</g>
<!-- Node12 -->
<g id="node12" class="node"><title>Node12</title>
<g id="a_node12"><a xlink:href="test__nr_8cpp.html" target="_top" xlink:title="tests/test_nr.cpp">
<polygon fill="white" stroke="black" points="633.412,-123.5 633.412,-142.5 723.412,-142.5 723.412,-123.5 633.412,-123.5"/>
<text text-anchor="middle" x="678.412" y="-130.5" font-family="Helvetica,sans-Serif" font-size="10.00">tests/test_nr.cpp</text>
</a>
</g>
</g>
<!-- Node5&#45;&gt;Node12 -->
<g id="edge11" class="edge"><title>Node5&#45;&gt;Node12</title>
<path fill="none" stroke="midnightblue" d="M421.424,-185.658C476.998,-174.487 578.565,-154.071 635.966,-142.532"/>
<polygon fill="midnightblue" stroke="midnightblue" points="420.718,-182.23 411.604,-187.632 422.097,-189.093 420.718,-182.23"/>
</g>
<!-- Node13 -->
<g id="node13" class="node"><title>Node13</title>
<g id="a_node13"><a xlink:href="test__pruner_8cpp.html" target="_top" xlink:title="tests/test_pruner.cpp">
<polygon fill="white" stroke="black" points="741.912,-123.5 741.912,-142.5 850.912,-142.5 850.912,-123.5 741.912,-123.5"/>
<text text-anchor="middle" x="796.412" y="-130.5" font-family="Helvetica,sans-Serif" font-size="10.00">tests/test_pruner.cpp</text>
</a>
</g>
</g>
<!-- Node5&#45;&gt;Node13 -->
<g id="edge12" class="edge"><title>Node5&#45;&gt;Node13</title>
<path fill="none" stroke="midnightblue" d="M421.846,-187.833C496.2,-177.146 657.237,-154.002 741.891,-141.836"/>
<polygon fill="midnightblue" stroke="midnightblue" points="420.924,-184.429 411.524,-189.316 421.92,-191.358 420.924,-184.429"/>
</g>
<!-- Node14 -->
<g id="node14" class="node"><title>Node14</title>
<g id="a_node14"><a xlink:href="test__sieve_8cpp.html" target="_top" xlink:title="tests/test_sieve.cpp">
<polygon fill="white" stroke="black" points="166.912,-0.5 166.912,-19.5 271.912,-19.5 271.912,-0.5 166.912,-0.5"/>
<text text-anchor="middle" x="219.412" y="-7.5" font-family="Helvetica,sans-Serif" font-size="10.00">tests/test_sieve.cpp</text>
</a>
</g>
</g>
<!-- Node5&#45;&gt;Node14 -->
<g id="edge13" class="edge"><title>Node5&#45;&gt;Node14</title>
<path fill="none" stroke="midnightblue" d="M343.261,-190.117C286.886,-184.342 187.206,-170.448 165.412,-143 133.695,-103.055 187.989,-41.9234 210.407,-19.5679"/>
<polygon fill="midnightblue" stroke="midnightblue" points="342.959,-193.604 353.254,-191.102 343.646,-186.638 342.959,-193.604"/>
</g>
<!-- Node15 -->
<g id="node15" class="node"><title>Node15</title>
<g id="a_node15"><a xlink:href="test__svp_8cpp.html" target="_top" xlink:title="tests/test_svp.cpp">
<polygon fill="white" stroke="black" points="174.412,-123.5 174.412,-142.5 272.412,-142.5 272.412,-123.5 174.412,-123.5"/>
<text text-anchor="middle" x="223.412" y="-130.5" font-family="Helvetica,sans-Serif" font-size="10.00">tests/test_svp.cpp</text>
</a>
</g>
</g>
<!-- Node5&#45;&gt;Node15 -->
<g id="edge14" class="edge"><title>Node5&#45;&gt;Node15</title>
<path fill="none" stroke="midnightblue" d="M350.165,-181.433C319.262,-169.868 273.405,-152.708 246.151,-142.509"/>
<polygon fill="midnightblue" stroke="midnightblue" points="349.039,-184.748 359.631,-184.975 351.492,-178.192 349.039,-184.748"/>
</g>
<!-- Node8 -->
<g id="node8" class="node"><title>Node8</title>
<g id="a_node8"><a xlink:href="main_8cpp.html" target="_top" xlink:title="fplll/main.cpp">
<polygon fill="white" stroke="black" points="280.412,-62 280.412,-81 354.412,-81 354.412,-62 280.412,-62"/>
<text text-anchor="middle" x="317.412" y="-69" font-family="Helvetica,sans-Serif" font-size="10.00">fplll/main.cpp</text>
</a>
</g>
</g>
<!-- Node7&#45;&gt;Node8 -->
<g id="edge7" class="edge"><title>Node7&#45;&gt;Node8</title>
<path fill="none" stroke="midnightblue" d="M320.842,-113.317C319.933,-102.496 318.832,-89.398 318.127,-81.0091"/>
<polygon fill="midnightblue" stroke="midnightblue" points="317.37,-113.803 321.696,-123.475 324.346,-113.217 317.37,-113.803"/>
</g>
<!-- Node17&#45;&gt;Node6 -->
<g id="edge18" class="edge"><title>Node17&#45;&gt;Node6</title>
<path fill="none" stroke="midnightblue" d="M58.0686,-175.497C62.1163,-164.55 67.0987,-151.075 70.2658,-142.509"/>
<polygon fill="midnightblue" stroke="midnightblue" points="54.7493,-174.382 54.564,-184.975 61.3149,-176.81 54.7493,-174.382"/>
</g>
<!-- Node18&#45;&gt;Node3 -->
<g id="edge20" class="edge"><title>Node18&#45;&gt;Node3</title>
<path fill="none" stroke="midnightblue" d="M324.855,-314.103C300.299,-301.231 263.917,-282.16 242.946,-271.167"/>
<polygon fill="midnightblue" stroke="midnightblue" points="323.464,-317.326 333.946,-318.869 326.714,-311.126 323.464,-317.326"/>
</g>
<!-- Node19 -->
<g id="node19" class="node"><title>Node19</title>
<g id="a_node19"><a xlink:href="lll_8cpp.html" target="_top" xlink:title="fplll/lll.cpp">
<polygon fill="white" stroke="black" points="274.412,-252 274.412,-271 334.412,-271 334.412,-252 274.412,-252"/>
<text text-anchor="middle" x="304.412" y="-259" font-family="Helvetica,sans-Serif" font-size="10.00">fplll/lll.cpp</text>
</a>
</g>
</g>
<!-- Node18&#45;&gt;Node19 -->
<g id="edge21" class="edge"><title>Node18&#45;&gt;Node19</title>
<path fill="none" stroke="midnightblue" d="M338.313,-310.404C329.374,-297.773 317.578,-281.104 310.517,-271.127"/>
<polygon fill="midnightblue" stroke="midnightblue" points="335.575,-312.593 344.208,-318.734 341.288,-308.549 335.575,-312.593"/>
</g>
<!-- Node20 -->
<g id="node20" class="node"><title>Node20</title>
<g id="a_node20"><a xlink:href="wrapper_8cpp.html" target="_top" xlink:title="fplll/wrapper.cpp">
<polygon fill="white" stroke="black" points="352.412,-252 352.412,-271 440.412,-271 440.412,-252 352.412,-252"/>
<text text-anchor="middle" x="396.412" y="-259" font-family="Helvetica,sans-Serif" font-size="10.00">fplll/wrapper.cpp</text>
</a>
</g>
</g>
<!-- Node18&#45;&gt;Node20 -->
<g id="edge22" class="edge"><title>Node18&#45;&gt;Node20</title>
<path fill="none" stroke="midnightblue" d="M362.511,-310.404C371.45,-297.773 383.246,-281.104 390.307,-271.127"/>
<polygon fill="midnightblue" stroke="midnightblue" points="359.536,-308.549 356.616,-318.734 365.249,-312.593 359.536,-308.549"/>
</g>
<!-- Node21&#45;&gt;Node5 -->
<g id="edge25" class="edge"><title>Node21&#45;&gt;Node5</title>
<path fill="none" stroke="midnightblue" d="M529.295,-312.257C505.432,-292.21 464.708,-258.113 449.412,-246 430.457,-230.988 407.912,-214.211 394.404,-204.27"/>
<polygon fill="midnightblue" stroke="midnightblue" points="527.338,-315.184 537.245,-318.94 531.842,-309.826 527.338,-315.184"/>
</g>
<!-- Node22 -->
<g id="node22" class="node"><title>Node22</title>
<g id="a_node22"><a xlink:href="bkz__param_8cpp.html" target="_top" xlink:title="fplll/bkz_param.cpp">
<polygon fill="white" stroke="black" points="496.912,-252 496.912,-271 597.912,-271 597.912,-252 496.912,-252"/>
<text text-anchor="middle" x="547.412" y="-259" font-family="Helvetica,sans-Serif" font-size="10.00">fplll/bkz_param.cpp</text>
</a>
</g>
</g>
<!-- Node21&#45;&gt;Node22 -->
<g id="edge24" class="edge"><title>Node21&#45;&gt;Node22</title>
<path fill="none" stroke="midnightblue" d="M547.412,-308.537C547.412,-296.17 547.412,-280.62 547.412,-271.127"/>
<polygon fill="midnightblue" stroke="midnightblue" points="543.912,-308.734 547.412,-318.734 550.912,-308.734 543.912,-308.734"/>
</g>
<!-- Node21&#45;&gt;Node23 -->
<g id="edge26" class="edge"><title>Node21&#45;&gt;Node23</title>
<path fill="none" stroke="midnightblue" d="M570.986,-313.442C592.572,-300.57 623.834,-281.927 641.945,-271.127"/>
<polygon fill="midnightblue" stroke="midnightblue" points="568.908,-310.606 562.112,-318.734 572.494,-316.618 568.908,-310.606"/>
</g>
<!-- Node26 -->
<g id="node26" class="node"><title>Node26</title>
<g id="a_node26"><a xlink:href="sampler__basic_8cpp.html" target="_top" xlink:title="fplll/sieve/sampler\l_basic.cpp">
<polygon fill="white" stroke="black" points="714.912,-246.5 714.912,-276.5 809.912,-276.5 809.912,-246.5 714.912,-246.5"/>
<text text-anchor="start" x="722.912" y="-264.5" font-family="Helvetica,sans-Serif" font-size="10.00">fplll/sieve/sampler</text>
<text text-anchor="middle" x="762.412" y="-253.5" font-family="Helvetica,sans-Serif" font-size="10.00">_basic.cpp</text>
</a>
</g>
</g>
<!-- Node25&#45;&gt;Node26 -->
<g id="edge30" class="edge"><title>Node25&#45;&gt;Node26</title>
<path fill="none" stroke="midnightblue" d="M803.927,-306.024C794.69,-296.34 784.039,-285.174 775.839,-276.577"/>
<polygon fill="midnightblue" stroke="midnightblue" points="801.524,-308.576 810.959,-313.396 806.589,-303.744 801.524,-308.576"/>
</g>
<!-- Node27 -->
<g id="node27" class="node"><title>Node27</title>
<g id="a_node27"><a xlink:href="sampler__main_8cpp.html" target="_top" xlink:title="fplll/sieve/sampler\l_main.cpp">
<polygon fill="white" stroke="black" points="827.912,-246.5 827.912,-276.5 922.912,-276.5 922.912,-246.5 827.912,-246.5"/>
<text text-anchor="start" x="835.912" y="-264.5" font-family="Helvetica,sans-Serif" font-size="10.00">fplll/sieve/sampler</text>
<text text-anchor="middle" x="875.412" y="-253.5" font-family="Helvetica,sans-Serif" font-size="10.00">_main.cpp</text>
</a>
</g>
</g>
<!-- Node25&#45;&gt;Node27 -->
<g id="edge31" class="edge"><title>Node25&#45;&gt;Node27</title>
<path fill="none" stroke="midnightblue" d="M841.715,-305.447C849.207,-295.899 857.755,-285.004 864.367,-276.577"/>
<polygon fill="midnightblue" stroke="midnightblue" points="838.898,-303.368 835.478,-313.396 844.405,-307.689 838.898,-303.368"/>
</g>
<!-- Node28 -->
<g id="node28" class="node"><title>Node28</title>
<g id="a_node28"><a xlink:href="sieve__common_8h.html" target="_top" xlink:title="fplll/sieve/sieve_common.h">
<polygon fill="white" stroke="black" points="940.912,-252 940.912,-271 1075.91,-271 1075.91,-252 940.912,-252"/>
<text text-anchor="middle" x="1008.41" y="-259" font-family="Helvetica,sans-Serif" font-size="10.00">fplll/sieve/sieve_common.h</text>
</a>
</g>
</g>
<!-- Node25&#45;&gt;Node28 -->
<g id="edge32" class="edge"><title>Node25&#45;&gt;Node28</title>
<path fill="none" stroke="midnightblue" d="M874.104,-309.946C909.841,-297.321 956.467,-280.85 984.331,-271.007"/>
<polygon fill="midnightblue" stroke="midnightblue" points="872.6,-306.765 864.337,-313.396 874.932,-313.365 872.6,-306.765"/>
</g>
<!-- Node29 -->
<g id="node29" class="node"><title>Node29</title>
<g id="a_node29"><a xlink:href="sieve__gauss__str_8h.html" target="_top" xlink:title="fplll/sieve/sieve_gauss\l_str.h">
<polygon fill="white" stroke="black" points="878.412,-179.5 878.412,-209.5 994.412,-209.5 994.412,-179.5 878.412,-179.5"/>
<text text-anchor="start" x="886.412" y="-197.5" font-family="Helvetica,sans-Serif" font-size="10.00">fplll/sieve/sieve_gauss</text>
<text text-anchor="middle" x="936.412" y="-186.5" font-family="Helvetica,sans-Serif" font-size="10.00">_str.h</text>
</a>
</g>
</g>
<!-- Node28&#45;&gt;Node29 -->
<g id="edge33" class="edge"><title>Node28&#45;&gt;Node29</title>
<path fill="none" stroke="midnightblue" d="M985.682,-245.237C972.452,-234.452 956.607,-220.102 946.342,-209.589"/>
<polygon fill="midnightblue" stroke="midnightblue" points="983.895,-248.286 993.913,-251.734 988.232,-242.791 983.895,-248.286"/>
</g>
<!-- Node30 -->
<g id="node30" class="node"><title>Node30</title>
<g id="a_node30"><a xlink:href="sieve__gauss_8h.html" target="_top" xlink:title="fplll/sieve/sieve_gauss.h">
<polygon fill="white" stroke="black" points="874.412,-123.5 874.412,-142.5 998.412,-142.5 998.412,-123.5 874.412,-123.5"/>
<text text-anchor="middle" x="936.412" y="-130.5" font-family="Helvetica,sans-Serif" font-size="10.00">fplll/sieve/sieve_gauss.h</text>
</a>
</g>
</g>
<!-- Node28&#45;&gt;Node30 -->
<g id="edge46" class="edge"><title>Node28&#45;&gt;Node30</title>
<path fill="none" stroke="midnightblue" d="M1011.72,-241.919C1013.85,-224.482 1014.45,-198.271 1003.41,-179 993.52,-161.736 973.988,-149.779 958.553,-142.553"/>
<polygon fill="midnightblue" stroke="midnightblue" points="1008.24,-241.539 1010.21,-251.949 1015.16,-242.583 1008.24,-241.539"/>
</g>
<!-- Node29&#45;&gt;Node28 -->
<g id="edge34" class="edge"><title>Node29&#45;&gt;Node28</title>
<path fill="none" stroke="midnightblue" d="M965.795,-216.298C979.924,-228.274 995.381,-242.696 1003.49,-251.734"/>
<polygon fill="midnightblue" stroke="midnightblue" points="967.629,-213.272 957.695,-209.589 963.164,-218.663 967.629,-213.272"/>
</g>
<!-- Node29&#45;&gt;Node30 -->
<g id="edge35" class="edge"><title>Node29&#45;&gt;Node30</title>
<path fill="none" stroke="midnightblue" d="M936.412,-169.289C936.412,-159.857 936.412,-149.655 936.412,-142.658"/>
<polygon fill="midnightblue" stroke="midnightblue" points="932.912,-169.399 936.412,-179.399 939.912,-169.399 932.912,-169.399"/>
</g>
<!-- Node31 -->
<g id="node31" class="node"><title>Node31</title>
<g id="a_node31"><a xlink:href="sieve__gauss_8cpp.html" target="_top" xlink:title="fplll/sieve/sieve_gauss.cpp">
<polygon fill="white" stroke="black" points="869.412,-0.5 869.412,-19.5 1003.41,-19.5 1003.41,-0.5 869.412,-0.5"/>
<text text-anchor="middle" x="936.412" y="-7.5" font-family="Helvetica,sans-Serif" font-size="10.00">fplll/sieve/sieve_gauss.cpp</text>
</a>
</g>
</g>
<!-- Node30&#45;&gt;Node31 -->
<g id="edge36" class="edge"><title>Node30&#45;&gt;Node31</title>
<path fill="none" stroke="midnightblue" d="M948.169,-114.769C952.975,-106.71 957.973,-96.7548 960.412,-87 963.754,-73.6336 963.754,-69.3664 960.412,-56 957.019,-42.4281 948.672,-28.4676 942.779,-19.768"/>
<polygon fill="midnightblue" stroke="midnightblue" points="945.199,-112.917 942.779,-123.232 951.103,-116.678 945.199,-112.917"/>
</g>
<!-- Node32 -->
<g id="node32" class="node"><title>Node32</title>
<g id="a_node32"><a xlink:href="sieve__gauss__2sieve_8cpp.html" target="_top" xlink:title="fplll/sieve/sieve_gauss\l_2sieve.cpp">
<polygon fill="white" stroke="black" points="1007.41,-56.5 1007.41,-86.5 1123.41,-86.5 1123.41,-56.5 1007.41,-56.5"/>
<text text-anchor="start" x="1015.41" y="-74.5" font-family="Helvetica,sans-Serif" font-size="10.00">fplll/sieve/sieve_gauss</text>
<text text-anchor="middle" x="1065.41" y="-63.5" font-family="Helvetica,sans-Serif" font-size="10.00">_2sieve.cpp</text>
</a>
</g>
</g>
<!-- Node30&#45;&gt;Node32 -->
<g id="edge37" class="edge"><title>Node30&#45;&gt;Node32</title>
<path fill="none" stroke="midnightblue" d="M964.163,-119.2C985.01,-109.585 1013.54,-96.4232 1035.01,-86.523"/>
<polygon fill="midnightblue" stroke="midnightblue" points="962.509,-116.108 954.895,-123.475 965.441,-122.465 962.509,-116.108"/>
</g>
<!-- Node33 -->
<g id="node33" class="node"><title>Node33</title>
<g id="a_node33"><a xlink:href="sieve__gauss__3sieve_8cpp.html" target="_top" xlink:title="fplll/sieve/sieve_gauss\l_3sieve.cpp">
<polygon fill="white" stroke="black" points="701.412,-56.5 701.412,-86.5 817.412,-86.5 817.412,-56.5 701.412,-56.5"/>
<text text-anchor="start" x="709.412" y="-74.5" font-family="Helvetica,sans-Serif" font-size="10.00">fplll/sieve/sieve_gauss</text>
<text text-anchor="middle" x="759.412" y="-63.5" font-family="Helvetica,sans-Serif" font-size="10.00">_3sieve.cpp</text>
</a>
</g>
</g>
<!-- Node30&#45;&gt;Node33 -->
<g id="edge39" class="edge"><title>Node30&#45;&gt;Node33</title>
<path fill="none" stroke="midnightblue" d="M901.4,-120.23C872.578,-110.542 831.644,-96.7815 801.127,-86.523"/>
<polygon fill="midnightblue" stroke="midnightblue" points="900.458,-123.606 911.052,-123.475 902.689,-116.971 900.458,-123.606"/>
</g>
<!-- Node34 -->
<g id="node34" class="node"><title>Node34</title>
<g id="a_node34"><a xlink:href="sieve__gauss__4sieve_8cpp.html" target="_top" xlink:title="fplll/sieve/sieve_gauss\l_4sieve.cpp">
<polygon fill="white" stroke="black" points="835.412,-56.5 835.412,-86.5 951.412,-86.5 951.412,-56.5 835.412,-56.5"/>
<text text-anchor="start" x="843.412" y="-74.5" font-family="Helvetica,sans-Serif" font-size="10.00">fplll/sieve/sieve_gauss</text>
<text text-anchor="middle" x="893.412" y="-63.5" font-family="Helvetica,sans-Serif" font-size="10.00">_4sieve.cpp</text>
</a>
</g>
</g>
<!-- Node30&#45;&gt;Node34 -->
<g id="edge41" class="edge"><title>Node30&#45;&gt;Node34</title>
<path fill="none" stroke="midnightblue" d="M924.305,-115.247C917.757,-106.187 909.762,-95.124 903.546,-86.523"/>
<polygon fill="midnightblue" stroke="midnightblue" points="921.557,-117.42 930.251,-123.475 927.23,-113.32 921.557,-117.42"/>
</g>
<!-- Node35 -->
<g id="node35" class="node"><title>Node35</title>
<g id="a_node35"><a xlink:href="sieve__main_8h.html" target="_top" xlink:title="fplll/sieve/sieve_main.h">
<polygon fill="white" stroke="black" points="410.912,-62 410.912,-81 529.912,-81 529.912,-62 410.912,-62"/>
<text text-anchor="middle" x="470.412" y="-69" font-family="Helvetica,sans-Serif" font-size="10.00">fplll/sieve/sieve_main.h</text>
</a>
</g>
</g>
<!-- Node30&#45;&gt;Node35 -->
<g id="edge43" class="edge"><title>Node30&#45;&gt;Node35</title>
<path fill="none" stroke="midnightblue" d="M864.002,-122.755C772.179,-111.03 615.558,-91.0326 530.195,-80.1332"/>
<polygon fill="midnightblue" stroke="midnightblue" points="863.686,-126.242 874.049,-124.037 864.573,-119.299 863.686,-126.242"/>
</g>
<!-- Node32&#45;&gt;Node31 -->
<g id="edge38" class="edge"><title>Node32&#45;&gt;Node31</title>
<path fill="none" stroke="midnightblue" d="M1025.49,-52.0841C1002.05,-41.2763 973.533,-28.1219 955.183,-19.6578"/>
<polygon fill="midnightblue" stroke="midnightblue" points="1024.29,-55.3891 1034.84,-56.3993 1027.23,-49.0327 1024.29,-55.3891"/>
</g>
<!-- Node33&#45;&gt;Node31 -->
<g id="edge40" class="edge"><title>Node33&#45;&gt;Node31</title>
<path fill="none" stroke="midnightblue" d="M811.246,-53.0756C844.032,-42.0543 884.974,-28.2914 910.915,-19.5709"/>
<polygon fill="midnightblue" stroke="midnightblue" points="809.722,-49.8953 801.359,-56.3993 811.953,-56.5305 809.722,-49.8953"/>
</g>
<!-- Node34&#45;&gt;Node31 -->
<g id="edge42" class="edge"><title>Node34&#45;&gt;Node31</title>
<path fill="none" stroke="midnightblue" d="M909.597,-48.1041C916.764,-38.1868 924.772,-27.1062 930.155,-19.6578"/>
<polygon fill="midnightblue" stroke="midnightblue" points="906.623,-46.2442 903.602,-56.3993 912.297,-50.3444 906.623,-46.2442"/>
</g>
<!-- Node35&#45;&gt;Node9 -->
<g id="edge44" class="edge"><title>Node35&#45;&gt;Node9</title>
<path fill="none" stroke="midnightblue" d="M458.09,-53.8377C449.831,-42.6694 439.3,-28.4278 432.704,-19.5091"/>
<polygon fill="midnightblue" stroke="midnightblue" points="455.348,-56.0158 464.108,-61.9751 460.976,-51.8537 455.348,-56.0158"/>
</g>
<!-- Node35&#45;&gt;Node14 -->
<g id="edge45" class="edge"><title>Node35&#45;&gt;Node14</title>
<path fill="none" stroke="midnightblue" d="M424.489,-59.6138C375.771,-48.0653 299.823,-30.0615 255.307,-19.5091"/>
<polygon fill="midnightblue" stroke="midnightblue" points="423.912,-63.0741 434.45,-61.9751 425.527,-56.2628 423.912,-63.0741"/>
</g>
</g>
</svg>
