<?xml version="1.0" encoding="UTF-8" standalone="no"?>
<!DOCTYPE svg PUBLIC "-//W3C//DTD SVG 1.1//EN"
 "http://www.w3.org/Graphics/SVG/1.1/DTD/svg11.dtd">
<!-- Generated by graphviz version 2.38.0 (20140413.2041)
 -->
<!-- Title: fplll/gso.h Pages: 1 -->
<svg width="1544pt" height="408pt"
 viewBox="0.00 0.00 1544.00 408.00" xmlns="http://www.w3.org/2000/svg" xmlns:xlink="http://www.w3.org/1999/xlink">
<g id="graph0" class="graph" transform="scale(1 1) rotate(0) translate(4 404)">
<title>fplll/gso.h</title>
<polygon fill="white" stroke="none" points="-4,4 -4,-404 1540,-404 1540,4 -4,4"/>
<!-- Node0 -->
<g id="node1" class="node"><title>Node0</title>
<polygon fill="#bfbfbf" stroke="black" points="807.5,-380.5 807.5,-399.5 866.5,-399.5 866.5,-380.5 807.5,-380.5"/>
<text text-anchor="middle" x="837" y="-387.5" font-family="Helvetica,sans-Serif" font-size="10.00">fplll/gso.h</text>
</g>
<!-- Node1 -->
<g id="node2" class="node"><title>Node1</title>
<g id="a_node2"><a xlink:href="enumerate__ext_8h.html" target="_top" xlink:title="fplll/enum/enumerate\l_ext.h">
<polygon fill="white" stroke="black" points="611.5,-313.5 611.5,-343.5 718.5,-343.5 718.5,-313.5 611.5,-313.5"/>
<text text-anchor="start" x="619.5" y="-331.5" font-family="Helvetica,sans-Serif" font-size="10.00">fplll/enum/enumerate</text>
<text text-anchor="middle" x="665" y="-320.5" font-family="Helvetica,sans-Serif" font-size="10.00">_ext.h</text>
</a>
</g>
</g>
<!-- Node0&#45;&gt;Node1 -->
<g id="edge1" class="edge"><title>Node0&#45;&gt;Node1</title>
<path fill="none" stroke="midnightblue" d="M802.609,-377.103C774.622,-367.422 735.062,-353.737 705.537,-343.523"/>
<polygon fill="midnightblue" stroke="midnightblue" points="801.762,-380.513 812.357,-380.475 804.05,-373.898 801.762,-380.513"/>
</g>
<!-- Node2 -->
<g id="node3" class="node"><title>Node2</title>
<g id="a_node3"><a xlink:href="enumerate_8h.html" target="_top" xlink:title="fplll/enum/enumerate.h">
<polygon fill="white" stroke="black" points="436,-252 436,-271 552,-271 552,-252 436,-252"/>
<text text-anchor="middle" x="494" y="-259" font-family="Helvetica,sans-Serif" font-size="10.00">fplll/enum/enumerate.h</text>
</a>
</g>
</g>
<!-- Node0&#45;&gt;Node2 -->
<g id="edge31" class="edge"><title>Node0&#45;&gt;Node2</title>
<path fill="none" stroke="midnightblue" d="M797.129,-386.88C749.018,-383.1 666.552,-372.659 602,-344 560.136,-325.413 519.386,-287.855 502.343,-271.011"/>
<polygon fill="midnightblue" stroke="midnightblue" points="796.916,-390.374 807.144,-387.609 797.424,-383.392 796.916,-390.374"/>
</g>
<!-- Node13 -->
<g id="node14" class="node"><title>Node13</title>
<g id="a_node14"><a xlink:href="test__lll__gram_8cpp.html" target="_top" xlink:title="tests/test_lll_gram.cpp">
<polygon fill="white" stroke="black" points="787,-0.5 787,-19.5 903,-19.5 903,-0.5 787,-0.5"/>
<text text-anchor="middle" x="845" y="-7.5" font-family="Helvetica,sans-Serif" font-size="10.00">tests/test_lll_gram.cpp</text>
</a>
</g>
</g>
<!-- Node0&#45;&gt;Node13 -->
<g id="edge57" class="edge"><title>Node0&#45;&gt;Node13</title>
<path fill="none" stroke="midnightblue" d="M857.842,-374.154C894.374,-346.688 968.767,-283.95 997,-210 1029.64,-124.506 905.832,-45.0616 860.791,-19.5222"/>
<polygon fill="midnightblue" stroke="midnightblue" points="855.394,-371.611 849.422,-380.362 859.548,-377.245 855.394,-371.611"/>
</g>
<!-- Node19 -->
<g id="node20" class="node"><title>Node19</title>
<g id="a_node20"><a xlink:href="test__gso_8cpp.html" target="_top" xlink:title="tests/test_gso.cpp">
<polygon fill="white" stroke="black" points="547,-0.5 547,-19.5 645,-19.5 645,-0.5 547,-0.5"/>
<text text-anchor="middle" x="596" y="-7.5" font-family="Helvetica,sans-Serif" font-size="10.00">tests/test_gso.cpp</text>
</a>
</g>
</g>
<!-- Node0&#45;&gt;Node19 -->
<g id="edge56" class="edge"><title>Node0&#45;&gt;Node19</title>
<path fill="none" stroke="midnightblue" d="M818.667,-373.526C794.773,-351.518 756,-308.689 756,-262.5 756,-262.5 756,-262.5 756,-132 756,-68.6155 675.131,-34.1985 628.378,-19.5975"/>
<polygon fill="midnightblue" stroke="midnightblue" points="816.613,-376.383 826.411,-380.414 821.265,-371.152 816.613,-376.383"/>
</g>
<!-- Node23 -->
<g id="node24" class="node"><title>Node23</title>
<g id="a_node24"><a xlink:href="lll_8h.html" target="_top" xlink:title="fplll/lll.h">
<polygon fill="white" stroke="black" points="812,-252 812,-271 862,-271 862,-252 812,-252"/>
<text text-anchor="middle" x="837" y="-259" font-family="Helvetica,sans-Serif" font-size="10.00">fplll/lll.h</text>
</a>
</g>
</g>
<!-- Node0&#45;&gt;Node23 -->
<g id="edge32" class="edge"><title>Node0&#45;&gt;Node23</title>
<path fill="none" stroke="midnightblue" d="M837,-369.935C837,-342.124 837,-291.537 837,-271.256"/>
<polygon fill="midnightblue" stroke="midnightblue" points="833.5,-370.305 837,-380.305 840.5,-370.305 833.5,-370.305"/>
</g>
<!-- Node26 -->
<g id="node27" class="node"><title>Node26</title>
<g id="a_node27"><a xlink:href="gso_8cpp.html" target="_top" xlink:title="fplll/gso.cpp">
<polygon fill="white" stroke="black" points="1177.5,-319 1177.5,-338 1246.5,-338 1246.5,-319 1177.5,-319"/>
<text text-anchor="middle" x="1212" y="-326" font-family="Helvetica,sans-Serif" font-size="10.00">fplll/gso.cpp</text>
</a>
</g>
</g>
<!-- Node0&#45;&gt;Node26 -->
<g id="edge37" class="edge"><title>Node0&#45;&gt;Node26</title>
<path fill="none" stroke="midnightblue" d="M876.767,-385.963C939.348,-380.655 1064.37,-367.908 1168,-344 1174.74,-342.445 1181.92,-340.299 1188.48,-338.133"/>
<polygon fill="midnightblue" stroke="midnightblue" points="876.226,-382.496 866.549,-386.81 876.804,-389.472 876.226,-382.496"/>
</g>
<!-- Node27 -->
<g id="node28" class="node"><title>Node27</title>
<g id="a_node28"><a xlink:href="sampler__basic_8h.html" target="_top" xlink:title="fplll/sieve/sampler\l_basic.h">
<polygon fill="white" stroke="black" points="1064.5,-313.5 1064.5,-343.5 1159.5,-343.5 1159.5,-313.5 1064.5,-313.5"/>
<text text-anchor="start" x="1072.5" y="-331.5" font-family="Helvetica,sans-Serif" font-size="10.00">fplll/sieve/sampler</text>
<text text-anchor="middle" x="1112" y="-320.5" font-family="Helvetica,sans-Serif" font-size="10.00">_basic.h</text>
</a>
</g>
</g>
<!-- Node0&#45;&gt;Node27 -->
<g id="edge38" class="edge"><title>Node0&#45;&gt;Node27</title>
<path fill="none" stroke="midnightblue" d="M876.707,-380.409C926.254,-369.689 1010.92,-351.371 1064.04,-339.878"/>
<polygon fill="midnightblue" stroke="midnightblue" points="875.725,-377.04 866.691,-382.576 877.205,-383.882 875.725,-377.04"/>
</g>
<!-- Node1&#45;&gt;Node2 -->
<g id="edge2" class="edge"><title>Node1&#45;&gt;Node2</title>
<path fill="none" stroke="midnightblue" d="M618.393,-309.784C585.237,-297.181 542.165,-280.808 516.38,-271.007"/>
<polygon fill="midnightblue" stroke="midnightblue" points="617.304,-313.114 627.896,-313.396 619.792,-306.571 617.304,-313.114"/>
</g>
<!-- Node22 -->
<g id="node23" class="node"><title>Node22</title>
<g id="a_node23"><a xlink:href="enumerate__ext_8cpp.html" target="_top" xlink:title="fplll/enum/enumerate\l_ext.cpp">
<polygon fill="white" stroke="black" points="611.5,-246.5 611.5,-276.5 718.5,-276.5 718.5,-246.5 611.5,-246.5"/>
<text text-anchor="start" x="619.5" y="-264.5" font-family="Helvetica,sans-Serif" font-size="10.00">fplll/enum/enumerate</text>
<text text-anchor="middle" x="665" y="-253.5" font-family="Helvetica,sans-Serif" font-size="10.00">_ext.cpp</text>
</a>
</g>
</g>
<!-- Node1&#45;&gt;Node22 -->
<g id="edge30" class="edge"><title>Node1&#45;&gt;Node22</title>
<path fill="none" stroke="midnightblue" d="M665,-303.108C665,-294.154 665,-284.323 665,-276.577"/>
<polygon fill="midnightblue" stroke="midnightblue" points="661.5,-303.396 665,-313.396 668.5,-303.396 661.5,-303.396"/>
</g>
<!-- Node3 -->
<g id="node4" class="node"><title>Node3</title>
<g id="a_node4"><a xlink:href="bkz_8h.html" target="_top" xlink:title="fplll/bkz.h">
<polygon fill="white" stroke="black" points="571.5,-185 571.5,-204 630.5,-204 630.5,-185 571.5,-185"/>
<text text-anchor="middle" x="601" y="-192" font-family="Helvetica,sans-Serif" font-size="10.00">fplll/bkz.h</text>
</a>
</g>
</g>
<!-- Node2&#45;&gt;Node3 -->
<g id="edge3" class="edge"><title>Node2&#45;&gt;Node3</title>
<path fill="none" stroke="midnightblue" d="M517.141,-246.442C538.331,-233.57 569.019,-214.927 586.798,-204.127"/>
<polygon fill="midnightblue" stroke="midnightblue" points="515.16,-243.551 508.43,-251.734 518.794,-249.533 515.16,-243.551"/>
</g>
<!-- Node4 -->
<g id="node5" class="node"><title>Node4</title>
<g id="a_node5"><a xlink:href="bkz_8cpp.html" target="_top" xlink:title="fplll/bkz.cpp">
<polygon fill="white" stroke="black" points="364.5,-123.5 364.5,-142.5 433.5,-142.5 433.5,-123.5 364.5,-123.5"/>
<text text-anchor="middle" x="399" y="-130.5" font-family="Helvetica,sans-Serif" font-size="10.00">fplll/bkz.cpp</text>
</a>
</g>
</g>
<!-- Node2&#45;&gt;Node4 -->
<g id="edge26" class="edge"><title>Node2&#45;&gt;Node4</title>
<path fill="none" stroke="midnightblue" d="M464.1,-247.32C448.168,-238.841 429.531,-226.337 418,-210 403.255,-189.111 399.92,-157.915 399.189,-142.817"/>
<polygon fill="midnightblue" stroke="midnightblue" points="462.588,-250.477 473.094,-251.845 465.734,-244.224 462.588,-250.477"/>
</g>
<!-- Node20 -->
<g id="node21" class="node"><title>Node20</title>
<g id="a_node21"><a xlink:href="enumerate_8cpp.html" target="_top" xlink:title="fplll/enum/enumerate.cpp">
<polygon fill="white" stroke="black" points="427,-185 427,-204 553,-204 553,-185 427,-185"/>
<text text-anchor="middle" x="490" y="-192" font-family="Helvetica,sans-Serif" font-size="10.00">fplll/enum/enumerate.cpp</text>
</a>
</g>
</g>
<!-- Node2&#45;&gt;Node20 -->
<g id="edge27" class="edge"><title>Node2&#45;&gt;Node20</title>
<path fill="none" stroke="midnightblue" d="M492.833,-241.537C492.072,-229.17 491.115,-213.62 490.531,-204.127"/>
<polygon fill="midnightblue" stroke="midnightblue" points="489.353,-241.968 493.461,-251.734 496.34,-241.538 489.353,-241.968"/>
</g>
<!-- Node21 -->
<g id="node22" class="node"><title>Node21</title>
<g id="a_node22"><a xlink:href="svpcvp_8cpp.html" target="_top" xlink:title="fplll/svpcvp.cpp">
<polygon fill="white" stroke="black" points="97.5,-123.5 97.5,-142.5 182.5,-142.5 182.5,-123.5 97.5,-123.5"/>
<text text-anchor="middle" x="140" y="-130.5" font-family="Helvetica,sans-Serif" font-size="10.00">fplll/svpcvp.cpp</text>
</a>
</g>
</g>
<!-- Node2&#45;&gt;Node21 -->
<g id="edge28" class="edge"><title>Node2&#45;&gt;Node21</title>
<path fill="none" stroke="midnightblue" d="M460.149,-248.404C389.05,-222.997 225.677,-164.616 164.087,-142.607"/>
<polygon fill="midnightblue" stroke="midnightblue" points="459.352,-251.835 469.946,-251.905 461.707,-245.244 459.352,-251.835"/>
</g>
<!-- Node3&#45;&gt;Node4 -->
<g id="edge4" class="edge"><title>Node3&#45;&gt;Node4</title>
<path fill="none" stroke="midnightblue" d="M569.366,-181.478C566.883,-180.614 564.406,-179.778 562,-179 518.004,-164.778 466.446,-151.022 433.284,-142.543"/>
<polygon fill="midnightblue" stroke="midnightblue" points="568.248,-184.795 578.842,-184.884 570.616,-178.207 568.248,-184.795"/>
</g>
<!-- Node5 -->
<g id="node6" class="node"><title>Node5</title>
<g id="a_node6"><a xlink:href="fplll_8h.html" target="_top" xlink:title="fplll/fplll.h">
<polygon fill="white" stroke="black" points="452,-123.5 452,-142.5 510,-142.5 510,-123.5 452,-123.5"/>
<text text-anchor="middle" x="481" y="-130.5" font-family="Helvetica,sans-Serif" font-size="10.00">fplll/fplll.h</text>
</a>
</g>
</g>
<!-- Node3&#45;&gt;Node5 -->
<g id="edge5" class="edge"><title>Node3&#45;&gt;Node5</title>
<path fill="none" stroke="midnightblue" d="M574.823,-180.521C551.551,-168.982 518.197,-152.443 498.161,-142.509"/>
<polygon fill="midnightblue" stroke="midnightblue" points="573.293,-183.669 583.807,-184.975 576.403,-177.397 573.293,-183.669"/>
</g>
<!-- Node6 -->
<g id="node7" class="node"><title>Node6</title>
<g id="a_node7"><a xlink:href="fplll_8cpp.html" target="_top" xlink:title="fplll/fplll.cpp">
<polygon fill="white" stroke="black" points="44,-62 44,-81 112,-81 112,-62 44,-62"/>
<text text-anchor="middle" x="78" y="-69" font-family="Helvetica,sans-Serif" font-size="10.00">fplll/fplll.cpp</text>
</a>
</g>
</g>
<!-- Node5&#45;&gt;Node6 -->
<g id="edge6" class="edge"><title>Node5&#45;&gt;Node6</title>
<path fill="none" stroke="midnightblue" d="M441.665,-123.167C298.672,-99.6607 258.001,-117.414 121,-87 114.232,-85.4975 107.036,-83.3145 100.506,-81.0965"/>
<polygon fill="midnightblue" stroke="midnightblue" points="441.243,-126.646 451.686,-124.854 442.405,-119.743 441.243,-126.646"/>
</g>
<!-- Node7 -->
<g id="node8" class="node"><title>Node7</title>
<g id="a_node8"><a xlink:href="main_8h.html" target="_top" xlink:title="fplll/main.h">
<polygon fill="white" stroke="black" points="130,-62 130,-81 194,-81 194,-62 130,-62"/>
<text text-anchor="middle" x="162" y="-69" font-family="Helvetica,sans-Serif" font-size="10.00">fplll/main.h</text>
</a>
</g>
</g>
<!-- Node5&#45;&gt;Node7 -->
<g id="edge7" class="edge"><title>Node5&#45;&gt;Node7</title>
<path fill="none" stroke="midnightblue" d="M441.628,-123.081C336.89,-103.595 307.374,-110.163 208,-87 200.987,-85.3653 193.494,-83.1925 186.636,-81.0277"/>
<polygon fill="midnightblue" stroke="midnightblue" points="441.185,-126.56 451.662,-124.984 442.489,-119.682 441.185,-126.56"/>
</g>
<!-- Node9 -->
<g id="node10" class="node"><title>Node9</title>
<g id="a_node10"><a xlink:href="sieve__main_8cpp.html" target="_top" xlink:title="fplll/sieve/sieve_main.cpp">
<polygon fill="white" stroke="black" points="946.5,-0.5 946.5,-19.5 1075.5,-19.5 1075.5,-0.5 946.5,-0.5"/>
<text text-anchor="middle" x="1011" y="-7.5" font-family="Helvetica,sans-Serif" font-size="10.00">fplll/sieve/sieve_main.cpp</text>
</a>
</g>
</g>
<!-- Node5&#45;&gt;Node9 -->
<g id="edge9" class="edge"><title>Node5&#45;&gt;Node9</title>
<path fill="none" stroke="midnightblue" d="M520.336,-127.567C575.471,-120.946 678.664,-107.069 765,-87 847.942,-67.7202 943.664,-35.0495 987.218,-19.5935"/>
<polygon fill="midnightblue" stroke="midnightblue" points="519.811,-124.104 510.292,-128.756 520.634,-131.056 519.811,-124.104"/>
</g>
<!-- Node10 -->
<g id="node11" class="node"><title>Node10</title>
<g id="a_node11"><a xlink:href="test__bkz_8cpp.html" target="_top" xlink:title="tests/test_bkz.cpp">
<polygon fill="white" stroke="black" points="208,-0.5 208,-19.5 306,-19.5 306,-0.5 208,-0.5"/>
<text text-anchor="middle" x="257" y="-7.5" font-family="Helvetica,sans-Serif" font-size="10.00">tests/test_bkz.cpp</text>
</a>
</g>
</g>
<!-- Node5&#45;&gt;Node10 -->
<g id="edge10" class="edge"><title>Node5&#45;&gt;Node10</title>
<path fill="none" stroke="midnightblue" d="M442.015,-122.601C392.721,-110.608 313.55,-90.9379 308,-87 283.119,-69.345 266.872,-35.4225 260.304,-19.5647"/>
<polygon fill="midnightblue" stroke="midnightblue" points="441.2,-126.005 451.743,-124.963 442.851,-119.202 441.2,-126.005"/>
</g>
<!-- Node11 -->
<g id="node12" class="node"><title>Node11</title>
<g id="a_node12"><a xlink:href="test__cvp_8cpp.html" target="_top" xlink:title="tests/test_cvp.cpp">
<polygon fill="white" stroke="black" points="324,-0.5 324,-19.5 422,-19.5 422,-0.5 324,-0.5"/>
<text text-anchor="middle" x="373" y="-7.5" font-family="Helvetica,sans-Serif" font-size="10.00">tests/test_cvp.cpp</text>
</a>
</g>
</g>
<!-- Node5&#45;&gt;Node11 -->
<g id="edge11" class="edge"><title>Node5&#45;&gt;Node11</title>
<path fill="none" stroke="midnightblue" d="M441.915,-122.535C394.649,-110.905 320.878,-92.0853 317,-87 308.645,-76.0442 311.045,-68.4244 317,-56 324.924,-39.4667 342.213,-27.0831 355.498,-19.5351"/>
<polygon fill="midnightblue" stroke="midnightblue" points="441.308,-125.99 451.854,-124.971 442.974,-119.191 441.308,-125.99"/>
</g>
<!-- Node12 -->
<g id="node13" class="node"><title>Node12</title>
<g id="a_node13"><a xlink:href="test__lll_8cpp.html" target="_top" xlink:title="tests/test_lll.cpp">
<polygon fill="white" stroke="black" points="440.5,-0.5 440.5,-19.5 529.5,-19.5 529.5,-0.5 440.5,-0.5"/>
<text text-anchor="middle" x="485" y="-7.5" font-family="Helvetica,sans-Serif" font-size="10.00">tests/test_lll.cpp</text>
</a>
</g>
</g>
<!-- Node5&#45;&gt;Node12 -->
<g id="edge12" class="edge"><title>Node5&#45;&gt;Node12</title>
<path fill="none" stroke="midnightblue" d="M472.061,-114.195C468.483,-106.111 464.79,-96.2953 463,-87 460.395,-73.4708 459.894,-69.4232 463,-56 466.136,-42.4442 473.946,-28.255 479.362,-19.5194"/>
<polygon fill="midnightblue" stroke="midnightblue" points="468.944,-115.791 476.379,-123.339 475.273,-112.802 468.944,-115.791"/>
</g>
<!-- Node5&#45;&gt;Node13 -->
<g id="edge13" class="edge"><title>Node5&#45;&gt;Node13</title>
<path fill="none" stroke="midnightblue" d="M520.29,-128.958C568.639,-124.24 652.605,-112.846 720,-87 765.53,-69.5395 813.078,-35.5198 834.006,-19.6012"/>
<polygon fill="midnightblue" stroke="midnightblue" points="519.876,-125.481 510.243,-129.892 520.524,-132.451 519.876,-125.481"/>
</g>
<!-- Node14 -->
<g id="node15" class="node"><title>Node14</title>
<g id="a_node15"><a xlink:href="test__nr_8cpp.html" target="_top" xlink:title="tests/test_nr.cpp">
<polygon fill="white" stroke="black" points="472,-62 472,-81 562,-81 562,-62 472,-62"/>
<text text-anchor="middle" x="517" y="-69" font-family="Helvetica,sans-Serif" font-size="10.00">tests/test_nr.cpp</text>
</a>
</g>
</g>
<!-- Node5&#45;&gt;Node14 -->
<g id="edge14" class="edge"><title>Node5&#45;&gt;Node14</title>
<path fill="none" stroke="midnightblue" d="M491.485,-114.671C498.179,-103.608 506.562,-89.7512 511.852,-81.0091"/>
<polygon fill="midnightblue" stroke="midnightblue" points="488.34,-113.107 486.158,-123.475 494.329,-116.731 488.34,-113.107"/>
</g>
<!-- Node15 -->
<g id="node16" class="node"><title>Node15</title>
<g id="a_node16"><a xlink:href="test__pruner_8cpp.html" target="_top" xlink:title="tests/test_pruner.cpp">
<polygon fill="white" stroke="black" points="580.5,-62 580.5,-81 689.5,-81 689.5,-62 580.5,-62"/>
<text text-anchor="middle" x="635" y="-69" font-family="Helvetica,sans-Serif" font-size="10.00">tests/test_pruner.cpp</text>
</a>
</g>
</g>
<!-- Node5&#45;&gt;Node15 -->
<g id="edge15" class="edge"><title>Node5&#45;&gt;Node15</title>
<path fill="none" stroke="midnightblue" d="M512.622,-119.782C542.549,-108.22 586.693,-91.1641 612.976,-81.0091"/>
<polygon fill="midnightblue" stroke="midnightblue" points="511.131,-116.606 503.064,-123.475 513.654,-123.136 511.131,-116.606"/>
</g>
<!-- Node16 -->
<g id="node17" class="node"><title>Node16</title>
<g id="a_node17"><a xlink:href="test__sieve_8cpp.html" target="_top" xlink:title="tests/test_sieve.cpp">
<polygon fill="white" stroke="black" points="663.5,-0.5 663.5,-19.5 768.5,-19.5 768.5,-0.5 663.5,-0.5"/>
<text text-anchor="middle" x="716" y="-7.5" font-family="Helvetica,sans-Serif" font-size="10.00">tests/test_sieve.cpp</text>
</a>
</g>
</g>
<!-- Node5&#45;&gt;Node16 -->
<g id="edge16" class="edge"><title>Node5&#45;&gt;Node16</title>
<path fill="none" stroke="midnightblue" d="M520.543,-128.831C576.08,-123.567 673.186,-111.127 698,-87 716.568,-68.9459 717.449,-35.526 716.699,-19.719"/>
<polygon fill="midnightblue" stroke="midnightblue" points="519.995,-125.366 510.354,-129.76 520.631,-132.337 519.995,-125.366"/>
</g>
<!-- Node17 -->
<g id="node18" class="node"><title>Node17</title>
<g id="a_node18"><a xlink:href="test__svp_8cpp.html" target="_top" xlink:title="tests/test_svp.cpp">
<polygon fill="white" stroke="black" points="92,-0.5 92,-19.5 190,-19.5 190,-0.5 92,-0.5"/>
<text text-anchor="middle" x="141" y="-7.5" font-family="Helvetica,sans-Serif" font-size="10.00">tests/test_svp.cpp</text>
</a>
</g>
</g>
<!-- Node5&#45;&gt;Node17 -->
<g id="edge17" class="edge"><title>Node5&#45;&gt;Node17</title>
<path fill="none" stroke="midnightblue" d="M441.676,-123.007C366.463,-107.054 343.675,-112.717 276,-87 227.978,-68.7516 176.466,-35.4274 153.402,-19.6814"/>
<polygon fill="midnightblue" stroke="midnightblue" points="441.106,-126.465 451.622,-125.177 442.598,-119.626 441.106,-126.465"/>
</g>
<!-- Node18 -->
<g id="node19" class="node"><title>Node18</title>
<g id="a_node19"><a xlink:href="test__utils_8h.html" target="_top" xlink:title="tests/test_utils.h">
<polygon fill="white" stroke="black" points="326.5,-62 326.5,-81 415.5,-81 415.5,-62 326.5,-62"/>
<text text-anchor="middle" x="371" y="-69" font-family="Helvetica,sans-Serif" font-size="10.00">tests/test_utils.h</text>
</a>
</g>
</g>
<!-- Node5&#45;&gt;Node18 -->
<g id="edge18" class="edge"><title>Node5&#45;&gt;Node18</title>
<path fill="none" stroke="midnightblue" d="M456.434,-118.712C435.129,-107.188 404.934,-90.855 386.731,-81.0091"/>
<polygon fill="midnightblue" stroke="midnightblue" points="454.779,-121.796 465.24,-123.475 458.109,-115.639 454.779,-121.796"/>
</g>
<!-- Node8 -->
<g id="node9" class="node"><title>Node8</title>
<g id="a_node9"><a xlink:href="main_8cpp.html" target="_top" xlink:title="fplll/main.cpp">
<polygon fill="white" stroke="black" points="0,-0.5 0,-19.5 74,-19.5 74,-0.5 0,-0.5"/>
<text text-anchor="middle" x="37" y="-7.5" font-family="Helvetica,sans-Serif" font-size="10.00">fplll/main.cpp</text>
</a>
</g>
</g>
<!-- Node7&#45;&gt;Node8 -->
<g id="edge8" class="edge"><title>Node7&#45;&gt;Node8</title>
<path fill="none" stroke="midnightblue" d="M135.055,-57.6742C110.8,-46.1287 75.8393,-29.4875 54.8762,-19.5091"/>
<polygon fill="midnightblue" stroke="midnightblue" points="133.557,-60.8374 144.091,-61.9751 136.566,-54.5169 133.557,-60.8374"/>
</g>
<!-- Node18&#45;&gt;Node10 -->
<g id="edge19" class="edge"><title>Node18&#45;&gt;Node10</title>
<path fill="none" stroke="midnightblue" d="M345.54,-57.2118C323.461,-45.6881 292.168,-29.355 273.303,-19.5091"/>
<polygon fill="midnightblue" stroke="midnightblue" points="344.182,-60.4509 354.667,-61.9751 347.421,-54.2453 344.182,-60.4509"/>
</g>
<!-- Node18&#45;&gt;Node11 -->
<g id="edge20" class="edge"><title>Node18&#45;&gt;Node11</title>
<path fill="none" stroke="midnightblue" d="M371.628,-51.8165C371.992,-40.9962 372.432,-27.898 372.714,-19.5091"/>
<polygon fill="midnightblue" stroke="midnightblue" points="368.125,-51.8631 371.287,-61.9751 375.121,-52.0984 368.125,-51.8631"/>
</g>
<!-- Node18&#45;&gt;Node12 -->
<g id="edge22" class="edge"><title>Node18&#45;&gt;Node12</title>
<path fill="none" stroke="midnightblue" d="M396.46,-57.2118C418.539,-45.6881 449.832,-29.355 468.697,-19.5091"/>
<polygon fill="midnightblue" stroke="midnightblue" points="394.579,-54.2453 387.333,-61.9751 397.818,-60.4509 394.579,-54.2453"/>
</g>
<!-- Node18&#45;&gt;Node13 -->
<g id="edge23" class="edge"><title>Node18&#45;&gt;Node13</title>
<path fill="none" stroke="midnightblue" d="M425.917,-61.4564C438.112,-59.5566 450.984,-57.635 463,-56 602.187,-37.0611 637.589,-37.2161 777,-20 780.191,-19.6059 783.465,-19.1949 786.77,-18.7748"/>
<polygon fill="midnightblue" stroke="midnightblue" points="425.199,-58.0262 415.866,-63.0404 426.289,-64.9409 425.199,-58.0262"/>
</g>
<!-- Node18&#45;&gt;Node16 -->
<g id="edge24" class="edge"><title>Node18&#45;&gt;Node16</title>
<path fill="none" stroke="midnightblue" d="M426.003,-61.014C492.341,-49.5731 602.861,-30.5123 666.592,-19.5211"/>
<polygon fill="midnightblue" stroke="midnightblue" points="425.009,-57.6337 415.749,-62.7824 426.198,-64.5319 425.009,-57.6337"/>
</g>
<!-- Node18&#45;&gt;Node17 -->
<g id="edge25" class="edge"><title>Node18&#45;&gt;Node17</title>
<path fill="none" stroke="midnightblue" d="M328.357,-59.4685C283.696,-47.9147 214.512,-30.0173 173.892,-19.5091"/>
<polygon fill="midnightblue" stroke="midnightblue" points="327.489,-62.859 338.047,-61.9751 329.242,-56.0821 327.489,-62.859"/>
</g>
<!-- Node18&#45;&gt;Node19 -->
<g id="edge21" class="edge"><title>Node18&#45;&gt;Node19</title>
<path fill="none" stroke="midnightblue" d="M412.992,-59.3956C456.691,-47.8396 524.169,-29.9952 563.823,-19.5091"/>
<polygon fill="midnightblue" stroke="midnightblue" points="412.01,-56.0348 403.237,-61.9751 413.8,-62.8022 412.01,-56.0348"/>
</g>
<!-- Node21&#45;&gt;Node6 -->
<g id="edge29" class="edge"><title>Node21&#45;&gt;Node6</title>
<path fill="none" stroke="midnightblue" d="M123.666,-116.325C111.887,-105.02 96.4361,-90.1928 86.8666,-81.0091"/>
<polygon fill="midnightblue" stroke="midnightblue" points="121.478,-119.076 131.117,-123.475 126.325,-114.026 121.478,-119.076"/>
</g>
<!-- Node23&#45;&gt;Node3 -->
<g id="edge33" class="edge"><title>Node23&#45;&gt;Node3</title>
<path fill="none" stroke="midnightblue" d="M801.834,-250.814C755.41,-238.028 674.473,-215.736 630.867,-203.726"/>
<polygon fill="midnightblue" stroke="midnightblue" points="801.173,-254.263 811.744,-253.544 803.032,-247.514 801.173,-254.263"/>
</g>
<!-- Node23&#45;&gt;Node13 -->
<g id="edge36" class="edge"><title>Node23&#45;&gt;Node13</title>
<path fill="none" stroke="midnightblue" d="M826.45,-243.249C821.289,-233.8 815.631,-221.666 813,-210 796.602,-137.292 829.644,-47.8119 841.207,-19.8033"/>
<polygon fill="midnightblue" stroke="midnightblue" points="823.468,-245.084 831.501,-251.992 829.529,-241.583 823.468,-245.084"/>
</g>
<!-- Node24 -->
<g id="node25" class="node"><title>Node24</title>
<g id="a_node25"><a xlink:href="lll_8cpp.html" target="_top" xlink:title="fplll/lll.cpp">
<polygon fill="white" stroke="black" points="928,-185 928,-204 988,-204 988,-185 928,-185"/>
<text text-anchor="middle" x="958" y="-192" font-family="Helvetica,sans-Serif" font-size="10.00">fplll/lll.cpp</text>
</a>
</g>
</g>
<!-- Node23&#45;&gt;Node24 -->
<g id="edge34" class="edge"><title>Node23&#45;&gt;Node24</title>
<path fill="none" stroke="midnightblue" d="M862.208,-246.959C886.196,-234.073 921.565,-215.073 941.94,-204.127"/>
<polygon fill="midnightblue" stroke="midnightblue" points="860.472,-243.918 853.319,-251.734 863.784,-250.085 860.472,-243.918"/>
</g>
<!-- Node25 -->
<g id="node26" class="node"><title>Node25</title>
<g id="a_node26"><a xlink:href="wrapper_8cpp.html" target="_top" xlink:title="fplll/wrapper.cpp">
<polygon fill="white" stroke="black" points="822,-185 822,-204 910,-204 910,-185 822,-185"/>
<text text-anchor="middle" x="866" y="-192" font-family="Helvetica,sans-Serif" font-size="10.00">fplll/wrapper.cpp</text>
</a>
</g>
</g>
<!-- Node23&#45;&gt;Node25 -->
<g id="edge35" class="edge"><title>Node23&#45;&gt;Node25</title>
<path fill="none" stroke="midnightblue" d="M845.124,-242.29C850.694,-229.808 857.829,-213.814 862.151,-204.127"/>
<polygon fill="midnightblue" stroke="midnightblue" points="841.789,-241.175 840.911,-251.734 848.182,-244.028 841.789,-241.175"/>
</g>
<!-- Node28 -->
<g id="node29" class="node"><title>Node28</title>
<g id="a_node29"><a xlink:href="sampler__basic_8cpp.html" target="_top" xlink:title="fplll/sieve/sampler\l_basic.cpp">
<polygon fill="white" stroke="black" points="1197.5,-246.5 1197.5,-276.5 1292.5,-276.5 1292.5,-246.5 1197.5,-246.5"/>
<text text-anchor="start" x="1205.5" y="-264.5" font-family="Helvetica,sans-Serif" font-size="10.00">fplll/sieve/sampler</text>
<text text-anchor="middle" x="1245" y="-253.5" font-family="Helvetica,sans-Serif" font-size="10.00">_basic.cpp</text>
</a>
</g>
</g>
<!-- Node27&#45;&gt;Node28 -->
<g id="edge39" class="edge"><title>Node27&#45;&gt;Node28</title>
<path fill="none" stroke="midnightblue" d="M1149.87,-308.992C1170.95,-298.689 1196.78,-286.068 1216.2,-276.577"/>
<polygon fill="midnightblue" stroke="midnightblue" points="1148.31,-305.86 1140.86,-313.396 1151.38,-312.15 1148.31,-305.86"/>
</g>
<!-- Node29 -->
<g id="node30" class="node"><title>Node29</title>
<g id="a_node30"><a xlink:href="sampler__main_8cpp.html" target="_top" xlink:title="fplll/sieve/sampler\l_main.cpp">
<polygon fill="white" stroke="black" points="1310.5,-246.5 1310.5,-276.5 1405.5,-276.5 1405.5,-246.5 1310.5,-246.5"/>
<text text-anchor="start" x="1318.5" y="-264.5" font-family="Helvetica,sans-Serif" font-size="10.00">fplll/sieve/sampler</text>
<text text-anchor="middle" x="1358" y="-253.5" font-family="Helvetica,sans-Serif" font-size="10.00">_main.cpp</text>
</a>
</g>
</g>
<!-- Node27&#45;&gt;Node29 -->
<g id="edge40" class="edge"><title>Node27&#45;&gt;Node29</title>
<path fill="none" stroke="midnightblue" d="M1169.45,-312.321C1212.29,-300.999 1270.13,-285.716 1310.41,-275.075"/>
<polygon fill="midnightblue" stroke="midnightblue" points="1168.5,-308.952 1159.72,-314.89 1170.29,-315.719 1168.5,-308.952"/>
</g>
<!-- Node30 -->
<g id="node31" class="node"><title>Node30</title>
<g id="a_node31"><a xlink:href="sieve__common_8h.html" target="_top" xlink:title="fplll/sieve/sieve_common.h">
<polygon fill="white" stroke="black" points="1044.5,-252 1044.5,-271 1179.5,-271 1179.5,-252 1044.5,-252"/>
<text text-anchor="middle" x="1112" y="-259" font-family="Helvetica,sans-Serif" font-size="10.00">fplll/sieve/sieve_common.h</text>
</a>
</g>
</g>
<!-- Node27&#45;&gt;Node30 -->
<g id="edge41" class="edge"><title>Node27&#45;&gt;Node30</title>
<path fill="none" stroke="midnightblue" d="M1112,-303.25C1112,-292.017 1112,-279.377 1112,-271.195"/>
<polygon fill="midnightblue" stroke="midnightblue" points="1108.5,-303.396 1112,-313.396 1115.5,-303.396 1108.5,-303.396"/>
</g>
<!-- Node31 -->
<g id="node32" class="node"><title>Node31</title>
<g id="a_node32"><a xlink:href="sieve__gauss__str_8h.html" target="_top" xlink:title="fplll/sieve/sieve_gauss\l_str.h">
<polygon fill="white" stroke="black" points="1097,-179.5 1097,-209.5 1213,-209.5 1213,-179.5 1097,-179.5"/>
<text text-anchor="start" x="1105" y="-197.5" font-family="Helvetica,sans-Serif" font-size="10.00">fplll/sieve/sieve_gauss</text>
<text text-anchor="middle" x="1155" y="-186.5" font-family="Helvetica,sans-Serif" font-size="10.00">_str.h</text>
</a>
</g>
</g>
<!-- Node30&#45;&gt;Node31 -->
<g id="edge42" class="edge"><title>Node30&#45;&gt;Node31</title>
<path fill="none" stroke="midnightblue" d="M1117.67,-242.713C1123.57,-232.287 1132.3,-219.301 1140,-209.589"/>
<polygon fill="midnightblue" stroke="midnightblue" points="1114.49,-241.243 1113.01,-251.734 1120.71,-244.458 1114.49,-241.243"/>
</g>
<!-- Node32 -->
<g id="node33" class="node"><title>Node32</title>
<g id="a_node33"><a xlink:href="sieve__gauss_8h.html" target="_top" xlink:title="fplll/sieve/sieve_gauss.h">
<polygon fill="white" stroke="black" points="1093,-123.5 1093,-142.5 1217,-142.5 1217,-123.5 1093,-123.5"/>
<text text-anchor="middle" x="1155" y="-130.5" font-family="Helvetica,sans-Serif" font-size="10.00">fplll/sieve/sieve_gauss.h</text>
</a>
</g>
</g>
<!-- Node30&#45;&gt;Node32 -->
<g id="edge55" class="edge"><title>Node30&#45;&gt;Node32</title>
<path fill="none" stroke="midnightblue" d="M1099.79,-243.599C1089.1,-226.56 1076.88,-199.867 1088,-179 1097.29,-161.565 1116.67,-149.684 1132.21,-142.529"/>
<polygon fill="midnightblue" stroke="midnightblue" points="1096.93,-245.622 1105.41,-251.973 1102.74,-241.72 1096.93,-245.622"/>
</g>
<!-- Node31&#45;&gt;Node30 -->
<g id="edge43" class="edge"><title>Node31&#45;&gt;Node30</title>
<path fill="none" stroke="midnightblue" d="M1146.37,-218.334C1139.41,-229.874 1130.03,-243.203 1122.59,-251.734"/>
<polygon fill="midnightblue" stroke="midnightblue" points="1149.45,-220.01 1151.36,-209.589 1143.36,-216.544 1149.45,-220.01"/>
</g>
<!-- Node31&#45;&gt;Node32 -->
<g id="edge44" class="edge"><title>Node31&#45;&gt;Node32</title>
<path fill="none" stroke="midnightblue" d="M1155,-169.289C1155,-159.857 1155,-149.655 1155,-142.658"/>
<polygon fill="midnightblue" stroke="midnightblue" points="1151.5,-169.399 1155,-179.399 1158.5,-169.399 1151.5,-169.399"/>
</g>
<!-- Node33 -->
<g id="node34" class="node"><title>Node33</title>
<g id="a_node34"><a xlink:href="sieve__gauss_8cpp.html" target="_top" xlink:title="fplll/sieve/sieve_gauss.cpp">
<polygon fill="white" stroke="black" points="1210,-0.5 1210,-19.5 1344,-19.5 1344,-0.5 1210,-0.5"/>
<text text-anchor="middle" x="1277" y="-7.5" font-family="Helvetica,sans-Serif" font-size="10.00">fplll/sieve/sieve_gauss.cpp</text>
</a>
</g>
</g>
<!-- Node32&#45;&gt;Node33 -->
<g id="edge45" class="edge"><title>Node32&#45;&gt;Node33</title>
<path fill="none" stroke="midnightblue" d="M1145.32,-113.915C1137.92,-97.3411 1130.86,-72.8847 1143,-56 1158.47,-34.4816 1184.74,-23.1103 1209.94,-17.1543"/>
<polygon fill="midnightblue" stroke="midnightblue" points="1142.27,-115.633 1149.81,-123.078 1148.56,-112.557 1142.27,-115.633"/>
</g>
<!-- Node34 -->
<g id="node35" class="node"><title>Node34</title>
<g id="a_node35"><a xlink:href="sieve__gauss__2sieve_8cpp.html" target="_top" xlink:title="fplll/sieve/sieve_gauss\l_2sieve.cpp">
<polygon fill="white" stroke="black" points="1152,-56.5 1152,-86.5 1268,-86.5 1268,-56.5 1152,-56.5"/>
<text text-anchor="start" x="1160" y="-74.5" font-family="Helvetica,sans-Serif" font-size="10.00">fplll/sieve/sieve_gauss</text>
<text text-anchor="middle" x="1210" y="-63.5" font-family="Helvetica,sans-Serif" font-size="10.00">_2sieve.cpp</text>
</a>
</g>
</g>
<!-- Node32&#45;&gt;Node34 -->
<g id="edge46" class="edge"><title>Node32&#45;&gt;Node34</title>
<path fill="none" stroke="midnightblue" d="M1169.71,-116.091C1178.22,-106.88 1188.84,-95.3928 1197.04,-86.523"/>
<polygon fill="midnightblue" stroke="midnightblue" points="1167.1,-113.756 1162.88,-123.475 1172.24,-118.508 1167.1,-113.756"/>
</g>
<!-- Node35 -->
<g id="node36" class="node"><title>Node35</title>
<g id="a_node36"><a xlink:href="sieve__gauss__3sieve_8cpp.html" target="_top" xlink:title="fplll/sieve/sieve_gauss\l_3sieve.cpp">
<polygon fill="white" stroke="black" points="1286,-56.5 1286,-86.5 1402,-86.5 1402,-56.5 1286,-56.5"/>
<text text-anchor="start" x="1294" y="-74.5" font-family="Helvetica,sans-Serif" font-size="10.00">fplll/sieve/sieve_gauss</text>
<text text-anchor="middle" x="1344" y="-63.5" font-family="Helvetica,sans-Serif" font-size="10.00">_3sieve.cpp</text>
</a>
</g>
</g>
<!-- Node32&#45;&gt;Node35 -->
<g id="edge48" class="edge"><title>Node32&#45;&gt;Node35</title>
<path fill="none" stroke="midnightblue" d="M1191.98,-120.357C1222.78,-110.662 1266.73,-96.8263 1299.46,-86.523"/>
<polygon fill="midnightblue" stroke="midnightblue" points="1190.57,-117.134 1182.08,-123.475 1192.67,-123.811 1190.57,-117.134"/>
</g>
<!-- Node36 -->
<g id="node37" class="node"><title>Node36</title>
<g id="a_node37"><a xlink:href="sieve__gauss__4sieve_8cpp.html" target="_top" xlink:title="fplll/sieve/sieve_gauss\l_4sieve.cpp">
<polygon fill="white" stroke="black" points="1420,-56.5 1420,-86.5 1536,-86.5 1536,-56.5 1420,-56.5"/>
<text text-anchor="start" x="1428" y="-74.5" font-family="Helvetica,sans-Serif" font-size="10.00">fplll/sieve/sieve_gauss</text>
<text text-anchor="middle" x="1478" y="-63.5" font-family="Helvetica,sans-Serif" font-size="10.00">_4sieve.cpp</text>
</a>
</g>
</g>
<!-- Node32&#45;&gt;Node36 -->
<g id="edge50" class="edge"><title>Node32&#45;&gt;Node36</title>
<path fill="none" stroke="midnightblue" d="M1217.14,-121.777C1269.06,-113.067 1344.99,-99.9393 1411,-87 1413.92,-86.4277 1416.91,-85.8288 1419.92,-85.2141"/>
<polygon fill="midnightblue" stroke="midnightblue" points="1216.37,-118.357 1207.08,-123.459 1217.52,-125.261 1216.37,-118.357"/>
</g>
<!-- Node37 -->
<g id="node38" class="node"><title>Node37</title>
<g id="a_node38"><a xlink:href="sieve__main_8h.html" target="_top" xlink:title="fplll/sieve/sieve_main.h">
<polygon fill="white" stroke="black" points="976.5,-62 976.5,-81 1095.5,-81 1095.5,-62 976.5,-62"/>
<text text-anchor="middle" x="1036" y="-69" font-family="Helvetica,sans-Serif" font-size="10.00">fplll/sieve/sieve_main.h</text>
</a>
</g>
</g>
<!-- Node32&#45;&gt;Node37 -->
<g id="edge52" class="edge"><title>Node32&#45;&gt;Node37</title>
<path fill="none" stroke="midnightblue" d="M1128.73,-118.867C1105.67,-107.335 1072.8,-90.8992 1053.02,-81.0091"/>
<polygon fill="midnightblue" stroke="midnightblue" points="1127.44,-122.133 1137.95,-123.475 1130.57,-115.872 1127.44,-122.133"/>
</g>
<!-- Node34&#45;&gt;Node33 -->
<g id="edge47" class="edge"><title>Node34&#45;&gt;Node33</title>
<path fill="none" stroke="midnightblue" d="M1233.54,-49.5972C1245.12,-39.3153 1258.44,-27.4824 1267.25,-19.6578"/>
<polygon fill="midnightblue" stroke="midnightblue" points="1231.03,-47.1421 1225.88,-56.3993 1235.68,-52.3761 1231.03,-47.1421"/>
</g>
<!-- Node35&#45;&gt;Node33 -->
<g id="edge49" class="edge"><title>Node35&#45;&gt;Node33</title>
<path fill="none" stroke="midnightblue" d="M1320.46,-49.5972C1308.88,-39.3153 1295.56,-27.4824 1286.75,-19.6578"/>
<polygon fill="midnightblue" stroke="midnightblue" points="1318.32,-52.3761 1328.12,-56.3993 1322.97,-47.1421 1318.32,-52.3761"/>
</g>
<!-- Node36&#45;&gt;Node33 -->
<g id="edge51" class="edge"><title>Node36&#45;&gt;Node33</title>
<path fill="none" stroke="midnightblue" d="M1420.8,-53.5681C1383.21,-42.44 1335.62,-28.3534 1305.74,-19.5064"/>
<polygon fill="midnightblue" stroke="midnightblue" points="1420.04,-56.9922 1430.62,-56.4747 1422.03,-50.2801 1420.04,-56.9922"/>
</g>
<!-- Node37&#45;&gt;Node9 -->
<g id="edge53" class="edge"><title>Node37&#45;&gt;Node9</title>
<path fill="none" stroke="midnightblue" d="M1028.44,-52.4968C1023.84,-41.5497 1018.17,-28.0746 1014.58,-19.5091"/>
<polygon fill="midnightblue" stroke="midnightblue" points="1025.32,-54.1116 1032.42,-61.9751 1031.77,-51.4 1025.32,-54.1116"/>
</g>
<!-- Node37&#45;&gt;Node16 -->
<g id="edge54" class="edge"><title>Node37&#45;&gt;Node16</title>
<path fill="none" stroke="midnightblue" d="M980.158,-60.1169C918.187,-48.5942 819.347,-30.216 761.763,-19.5091"/>
<polygon fill="midnightblue" stroke="midnightblue" points="979.68,-63.588 990.152,-61.9751 980.96,-56.706 979.68,-63.588"/>
</g>
</g>
</svg>
