<?xml version="1.0" encoding="UTF-8" standalone="no"?>
<!DOCTYPE svg PUBLIC "-//W3C//DTD SVG 1.1//EN"
 "http://www.w3.org/Graphics/SVG/1.1/DTD/svg11.dtd">
<!-- Generated by graphviz version 2.38.0 (20140413.2041)
 -->
<!-- Title: fplll/gso.h Pages: 1 -->
<svg width="870pt" height="308pt"
 viewBox="0.00 0.00 869.50 308.00" xmlns="http://www.w3.org/2000/svg" xmlns:xlink="http://www.w3.org/1999/xlink">
<g id="graph0" class="graph" transform="scale(1 1) rotate(0) translate(4 304)">
<title>fplll/gso.h</title>
<polygon fill="white" stroke="none" points="-4,4 -4,-304 865.5,-304 865.5,4 -4,4"/>
<!-- Node1 -->
<g id="node1" class="node"><title>Node1</title>
<polygon fill="#bfbfbf" stroke="black" points="495,-280.5 495,-299.5 554,-299.5 554,-280.5 495,-280.5"/>
<text text-anchor="middle" x="524.5" y="-287.5" font-family="Helvetica,sans-Serif" font-size="10.00">fplll/gso.h</text>
</g>
<!-- Node2 -->
<g id="node2" class="node"><title>Node2</title>
<g id="a_node2"><a xlink:href="enumerate_8h.html" target="_top" xlink:title="fplll/enum/enumerate.h">
<polygon fill="white" stroke="black" points="113.5,-224.5 113.5,-243.5 229.5,-243.5 229.5,-224.5 113.5,-224.5"/>
<text text-anchor="middle" x="171.5" y="-231.5" font-family="Helvetica,sans-Serif" font-size="10.00">fplll/enum/enumerate.h</text>
</a>
</g>
</g>
<!-- Node1&#45;&gt;Node2 -->
<g id="edge1" class="edge"><title>Node1&#45;&gt;Node2</title>
<path fill="none" stroke="midnightblue" d="M484.763,-282.921C421.764,-273.284 298.773,-254.47 227.069,-243.501"/>
<polygon fill="midnightblue" stroke="midnightblue" points="484.293,-286.39 494.708,-284.443 485.352,-279.471 484.293,-286.39"/>
</g>
<!-- Node17 -->
<g id="node17" class="node"><title>Node17</title>
<g id="a_node17"><a xlink:href="lll_8h.html" target="_top" xlink:title="fplll/lll.h">
<polygon fill="white" stroke="black" points="378.5,-224.5 378.5,-243.5 428.5,-243.5 428.5,-224.5 378.5,-224.5"/>
<text text-anchor="middle" x="403.5" y="-231.5" font-family="Helvetica,sans-Serif" font-size="10.00">fplll/lll.h</text>
</a>
</g>
</g>
<!-- Node1&#45;&gt;Node17 -->
<g id="edge18" class="edge"><title>Node1&#45;&gt;Node17</title>
<path fill="none" stroke="midnightblue" d="M496.194,-276.368C473.535,-266.255 442.374,-252.349 422.583,-243.516"/>
<polygon fill="midnightblue" stroke="midnightblue" points="494.769,-279.564 505.327,-280.444 497.622,-273.172 494.769,-279.564"/>
</g>
<!-- Node20 -->
<g id="node20" class="node"><title>Node20</title>
<g id="a_node20"><a xlink:href="pruner_8h.html" target="_top" xlink:title="fplll/pruner.h">
<polygon fill="white" stroke="black" points="489.5,-224.5 489.5,-243.5 559.5,-243.5 559.5,-224.5 489.5,-224.5"/>
<text text-anchor="middle" x="524.5" y="-231.5" font-family="Helvetica,sans-Serif" font-size="10.00">fplll/pruner.h</text>
</a>
</g>
</g>
<!-- Node1&#45;&gt;Node20 -->
<g id="edge22" class="edge"><title>Node1&#45;&gt;Node20</title>
<path fill="none" stroke="midnightblue" d="M524.5,-269.805C524.5,-260.91 524.5,-250.78 524.5,-243.751"/>
<polygon fill="midnightblue" stroke="midnightblue" points="521,-270.083 524.5,-280.083 528,-270.083 521,-270.083"/>
</g>
<!-- Node21 -->
<g id="node21" class="node"><title>Node21</title>
<g id="a_node21"><a xlink:href="pruner_8cpp.html" target="_top" xlink:title="fplll/pruner.cpp">
<polygon fill="white" stroke="black" points="552.5,-168.5 552.5,-187.5 632.5,-187.5 632.5,-168.5 552.5,-168.5"/>
<text text-anchor="middle" x="592.5" y="-175.5" font-family="Helvetica,sans-Serif" font-size="10.00">fplll/pruner.cpp</text>
</a>
</g>
</g>
<!-- Node1&#45;&gt;Node21 -->
<g id="edge26" class="edge"><title>Node1&#45;&gt;Node21</title>
<path fill="none" stroke="midnightblue" d="M542.749,-273.662C551.48,-265.563 561.524,-255.03 568.5,-244 580.202,-225.497 587.396,-200.45 590.577,-187.515"/>
<polygon fill="midnightblue" stroke="midnightblue" points="540.367,-271.096 535.226,-280.36 545.022,-276.324 540.367,-271.096"/>
</g>
<!-- Node22 -->
<g id="node22" class="node"><title>Node22</title>
<g id="a_node22"><a xlink:href="gso_8cpp.html" target="_top" xlink:title="fplll/gso.cpp">
<polygon fill="white" stroke="black" points="616,-224.5 616,-243.5 685,-243.5 685,-224.5 616,-224.5"/>
<text text-anchor="middle" x="650.5" y="-231.5" font-family="Helvetica,sans-Serif" font-size="10.00">fplll/gso.cpp</text>
</a>
</g>
</g>
<!-- Node1&#45;&gt;Node22 -->
<g id="edge25" class="edge"><title>Node1&#45;&gt;Node22</title>
<path fill="none" stroke="midnightblue" d="M553.66,-276.503C577.281,-266.38 609.928,-252.388 630.628,-243.516"/>
<polygon fill="midnightblue" stroke="midnightblue" points="552.278,-273.287 544.465,-280.444 555.035,-279.721 552.278,-273.287"/>
</g>
<!-- Node3 -->
<g id="node3" class="node"><title>Node3</title>
<g id="a_node3"><a xlink:href="bkz_8h.html" target="_top" xlink:title="fplll/bkz.h">
<polygon fill="white" stroke="black" points="253,-168.5 253,-187.5 312,-187.5 312,-168.5 253,-168.5"/>
<text text-anchor="middle" x="282.5" y="-175.5" font-family="Helvetica,sans-Serif" font-size="10.00">fplll/bkz.h</text>
</a>
</g>
</g>
<!-- Node2&#45;&gt;Node3 -->
<g id="edge2" class="edge"><title>Node2&#45;&gt;Node3</title>
<path fill="none" stroke="midnightblue" d="M198.505,-219.862C219.088,-209.849 246.845,-196.346 264.71,-187.655"/>
<polygon fill="midnightblue" stroke="midnightblue" points="196.795,-216.802 189.334,-224.324 199.858,-223.097 196.795,-216.802"/>
</g>
<!-- Node4 -->
<g id="node4" class="node"><title>Node4</title>
<g id="a_node4"><a xlink:href="bkz_8cpp.html" target="_top" xlink:title="fplll/bkz.cpp">
<polygon fill="white" stroke="black" points="211,-112.5 211,-131.5 280,-131.5 280,-112.5 211,-112.5"/>
<text text-anchor="middle" x="245.5" y="-119.5" font-family="Helvetica,sans-Serif" font-size="10.00">fplll/bkz.cpp</text>
</a>
</g>
</g>
<!-- Node2&#45;&gt;Node4 -->
<g id="edge14" class="edge"><title>Node2&#45;&gt;Node4</title>
<path fill="none" stroke="midnightblue" d="M139.021,-220.221C113.311,-208.168 84.0898,-188.875 99.5,-168 124.941,-133.537 176.388,-124.647 210.904,-122.78"/>
<polygon fill="midnightblue" stroke="midnightblue" points="137.686,-223.458 148.246,-224.324 140.531,-217.062 137.686,-223.458"/>
</g>
<!-- Node15 -->
<g id="node15" class="node"><title>Node15</title>
<g id="a_node15"><a xlink:href="enumerate_8cpp.html" target="_top" xlink:title="fplll/enum/enumerate.cpp">
<polygon fill="white" stroke="black" points="108.5,-168.5 108.5,-187.5 234.5,-187.5 234.5,-168.5 108.5,-168.5"/>
<text text-anchor="middle" x="171.5" y="-175.5" font-family="Helvetica,sans-Serif" font-size="10.00">fplll/enum/enumerate.cpp</text>
</a>
</g>
</g>
<!-- Node2&#45;&gt;Node15 -->
<g id="edge15" class="edge"><title>Node2&#45;&gt;Node15</title>
<path fill="none" stroke="midnightblue" d="M171.5,-213.805C171.5,-204.91 171.5,-194.78 171.5,-187.751"/>
<polygon fill="midnightblue" stroke="midnightblue" points="168,-214.083 171.5,-224.083 175,-214.083 168,-214.083"/>
</g>
<!-- Node16 -->
<g id="node16" class="node"><title>Node16</title>
<g id="a_node16"><a xlink:href="svpcvp_8cpp.html" target="_top" xlink:title="fplll/svpcvp.cpp">
<polygon fill="white" stroke="black" points="0,-112.5 0,-131.5 85,-131.5 85,-112.5 0,-112.5"/>
<text text-anchor="middle" x="42.5" y="-119.5" font-family="Helvetica,sans-Serif" font-size="10.00">fplll/svpcvp.cpp</text>
</a>
</g>
</g>
<!-- Node2&#45;&gt;Node16 -->
<g id="edge16" class="edge"><title>Node2&#45;&gt;Node16</title>
<path fill="none" stroke="midnightblue" d="M141.89,-220.02C125.933,-212.158 106.499,-201.119 91.5,-188 72.1399,-171.067 55.5413,-145.358 47.5629,-131.909"/>
<polygon fill="midnightblue" stroke="midnightblue" points="140.772,-223.363 151.306,-224.494 143.776,-217.041 140.772,-223.363"/>
</g>
<!-- Node3&#45;&gt;Node4 -->
<g id="edge3" class="edge"><title>Node3&#45;&gt;Node4</title>
<path fill="none" stroke="midnightblue" d="M270.554,-159.566C264.188,-150.275 256.633,-139.248 251.496,-131.751"/>
<polygon fill="midnightblue" stroke="midnightblue" points="267.851,-161.812 276.39,-168.083 273.625,-157.855 267.851,-161.812"/>
</g>
<!-- Node5 -->
<g id="node5" class="node"><title>Node5</title>
<g id="a_node5"><a xlink:href="fplll_8h.html" target="_top" xlink:title="fplll/fplll.h">
<polygon fill="white" stroke="black" points="369.5,-112.5 369.5,-131.5 427.5,-131.5 427.5,-112.5 369.5,-112.5"/>
<text text-anchor="middle" x="398.5" y="-119.5" font-family="Helvetica,sans-Serif" font-size="10.00">fplll/fplll.h</text>
</a>
</g>
</g>
<!-- Node3&#45;&gt;Node5 -->
<g id="edge4" class="edge"><title>Node3&#45;&gt;Node5</title>
<path fill="none" stroke="midnightblue" d="M310.22,-164.096C331.892,-154.007 361.402,-140.27 380.205,-131.516"/>
<polygon fill="midnightblue" stroke="midnightblue" points="308.469,-161.05 300.881,-168.444 311.423,-167.396 308.469,-161.05"/>
</g>
<!-- Node6 -->
<g id="node6" class="node"><title>Node6</title>
<g id="a_node6"><a xlink:href="fplll_8cpp.html" target="_top" xlink:title="fplll/fplll.cpp">
<polygon fill="white" stroke="black" points="8.5,-56.5 8.5,-75.5 76.5,-75.5 76.5,-56.5 8.5,-56.5"/>
<text text-anchor="middle" x="42.5" y="-63.5" font-family="Helvetica,sans-Serif" font-size="10.00">fplll/fplll.cpp</text>
</a>
</g>
</g>
<!-- Node5&#45;&gt;Node6 -->
<g id="edge5" class="edge"><title>Node5&#45;&gt;Node6</title>
<path fill="none" stroke="midnightblue" d="M359.431,-116.194C300.069,-108.708 183.68,-93.3142 85.5,-76 82.6458,-75.4966 79.6914,-74.9444 76.7296,-74.3689"/>
<polygon fill="midnightblue" stroke="midnightblue" points="359.132,-119.684 369.49,-117.455 360.003,-112.738 359.132,-119.684"/>
</g>
<!-- Node7 -->
<g id="node7" class="node"><title>Node7</title>
<g id="a_node7"><a xlink:href="main_8h.html" target="_top" xlink:title="fplll/main.h">
<polygon fill="white" stroke="black" points="792.5,-56.5 792.5,-75.5 856.5,-75.5 856.5,-56.5 792.5,-56.5"/>
<text text-anchor="middle" x="824.5" y="-63.5" font-family="Helvetica,sans-Serif" font-size="10.00">fplll/main.h</text>
</a>
</g>
</g>
<!-- Node5&#45;&gt;Node7 -->
<g id="edge6" class="edge"><title>Node5&#45;&gt;Node7</title>
<path fill="none" stroke="midnightblue" d="M437.72,-117.718C507.545,-111.586 657.877,-97.0755 783.5,-76 786.375,-75.5177 789.352,-74.9664 792.33,-74.3794"/>
<polygon fill="midnightblue" stroke="midnightblue" points="437.277,-114.244 427.618,-118.596 437.883,-121.217 437.277,-114.244"/>
</g>
<!-- Node9 -->
<g id="node9" class="node"><title>Node9</title>
<g id="a_node9"><a xlink:href="test__bkz_8cpp.html" target="_top" xlink:title="tests/test_bkz.cpp">
<polygon fill="white" stroke="black" points="94.5,-56.5 94.5,-75.5 192.5,-75.5 192.5,-56.5 94.5,-56.5"/>
<text text-anchor="middle" x="143.5" y="-63.5" font-family="Helvetica,sans-Serif" font-size="10.00">tests/test_bkz.cpp</text>
</a>
</g>
</g>
<!-- Node5&#45;&gt;Node9 -->
<g id="edge8" class="edge"><title>Node5&#45;&gt;Node9</title>
<path fill="none" stroke="midnightblue" d="M359.313,-112.701C311.69,-102.617 231.76,-85.6904 183.69,-75.5108"/>
<polygon fill="midnightblue" stroke="midnightblue" points="358.74,-116.158 369.248,-114.806 360.19,-109.31 358.74,-116.158"/>
</g>
<!-- Node10 -->
<g id="node10" class="node"><title>Node10</title>
<g id="a_node10"><a xlink:href="test__lll_8cpp.html" target="_top" xlink:title="tests/test_lll.cpp">
<polygon fill="white" stroke="black" points="210,-56.5 210,-75.5 299,-75.5 299,-56.5 210,-56.5"/>
<text text-anchor="middle" x="254.5" y="-63.5" font-family="Helvetica,sans-Serif" font-size="10.00">tests/test_lll.cpp</text>
</a>
</g>
</g>
<!-- Node5&#45;&gt;Node10 -->
<g id="edge9" class="edge"><title>Node5&#45;&gt;Node10</title>
<path fill="none" stroke="midnightblue" d="M366.249,-108.906C339.176,-98.7536 301.183,-84.5063 277.21,-75.5164"/>
<polygon fill="midnightblue" stroke="midnightblue" points="365.091,-112.209 375.683,-112.444 367.548,-105.655 365.091,-112.209"/>
</g>
<!-- Node11 -->
<g id="node11" class="node"><title>Node11</title>
<g id="a_node11"><a xlink:href="test__nr_8cpp.html" target="_top" xlink:title="tests/test_nr.cpp">
<polygon fill="white" stroke="black" points="317.5,-56.5 317.5,-75.5 407.5,-75.5 407.5,-56.5 317.5,-56.5"/>
<text text-anchor="middle" x="362.5" y="-63.5" font-family="Helvetica,sans-Serif" font-size="10.00">tests/test_nr.cpp</text>
</a>
</g>
</g>
<!-- Node5&#45;&gt;Node11 -->
<g id="edge10" class="edge"><title>Node5&#45;&gt;Node11</title>
<path fill="none" stroke="midnightblue" d="M386.877,-103.566C380.683,-94.2747 373.332,-83.2484 368.334,-75.7511"/>
<polygon fill="midnightblue" stroke="midnightblue" points="384.096,-105.704 392.555,-112.083 389.92,-101.821 384.096,-105.704"/>
</g>
<!-- Node12 -->
<g id="node12" class="node"><title>Node12</title>
<g id="a_node12"><a xlink:href="test__pruner_8cpp.html" target="_top" xlink:title="tests/test_pruner.cpp">
<polygon fill="white" stroke="black" points="426,-56.5 426,-75.5 535,-75.5 535,-56.5 426,-56.5"/>
<text text-anchor="middle" x="480.5" y="-63.5" font-family="Helvetica,sans-Serif" font-size="10.00">tests/test_pruner.cpp</text>
</a>
</g>
</g>
<!-- Node5&#45;&gt;Node12 -->
<g id="edge11" class="edge"><title>Node5&#45;&gt;Node12</title>
<path fill="none" stroke="midnightblue" d="M420.333,-106.622C435.313,-96.7574 454.697,-83.9919 467.358,-75.6545"/>
<polygon fill="midnightblue" stroke="midnightblue" points="418.101,-103.901 411.675,-112.324 421.951,-109.747 418.101,-103.901"/>
</g>
<!-- Node13 -->
<g id="node13" class="node"><title>Node13</title>
<g id="a_node13"><a xlink:href="test__sieve_8cpp.html" target="_top" xlink:title="tests/test_sieve.cpp">
<polygon fill="white" stroke="black" points="553,-56.5 553,-75.5 658,-75.5 658,-56.5 553,-56.5"/>
<text text-anchor="middle" x="605.5" y="-63.5" font-family="Helvetica,sans-Serif" font-size="10.00">tests/test_sieve.cpp</text>
</a>
</g>
</g>
<!-- Node5&#45;&gt;Node13 -->
<g id="edge12" class="edge"><title>Node5&#45;&gt;Node13</title>
<path fill="none" stroke="midnightblue" d="M437.672,-110.781C476.723,-100.594 536.017,-85.1261 572.673,-75.5637"/>
<polygon fill="midnightblue" stroke="midnightblue" points="436.512,-107.467 427.719,-113.378 438.279,-114.24 436.512,-107.467"/>
</g>
<!-- Node14 -->
<g id="node14" class="node"><title>Node14</title>
<g id="a_node14"><a xlink:href="test__svp_8cpp.html" target="_top" xlink:title="tests/test_svp.cpp">
<polygon fill="white" stroke="black" points="676.5,-56.5 676.5,-75.5 774.5,-75.5 774.5,-56.5 676.5,-56.5"/>
<text text-anchor="middle" x="725.5" y="-63.5" font-family="Helvetica,sans-Serif" font-size="10.00">tests/test_svp.cpp</text>
</a>
</g>
</g>
<!-- Node5&#45;&gt;Node14 -->
<g id="edge13" class="edge"><title>Node5&#45;&gt;Node14</title>
<path fill="none" stroke="midnightblue" d="M437.669,-114.532C497.388,-104.67 611.125,-85.8876 676.319,-75.1216"/>
<polygon fill="midnightblue" stroke="midnightblue" points="436.815,-111.125 427.519,-116.208 437.956,-118.032 436.815,-111.125"/>
</g>
<!-- Node8 -->
<g id="node8" class="node"><title>Node8</title>
<g id="a_node8"><a xlink:href="main_8cpp.html" target="_top" xlink:title="fplll/main.cpp">
<polygon fill="white" stroke="black" points="787.5,-0.5 787.5,-19.5 861.5,-19.5 861.5,-0.5 787.5,-0.5"/>
<text text-anchor="middle" x="824.5" y="-7.5" font-family="Helvetica,sans-Serif" font-size="10.00">fplll/main.cpp</text>
</a>
</g>
</g>
<!-- Node7&#45;&gt;Node8 -->
<g id="edge7" class="edge"><title>Node7&#45;&gt;Node8</title>
<path fill="none" stroke="midnightblue" d="M824.5,-45.8045C824.5,-36.9102 824.5,-26.7798 824.5,-19.7511"/>
<polygon fill="midnightblue" stroke="midnightblue" points="821,-46.083 824.5,-56.083 828,-46.083 821,-46.083"/>
</g>
<!-- Node16&#45;&gt;Node6 -->
<g id="edge17" class="edge"><title>Node16&#45;&gt;Node6</title>
<path fill="none" stroke="midnightblue" d="M42.5,-101.805C42.5,-92.9102 42.5,-82.7798 42.5,-75.7511"/>
<polygon fill="midnightblue" stroke="midnightblue" points="39.0001,-102.083 42.5,-112.083 46.0001,-102.083 39.0001,-102.083"/>
</g>
<!-- Node17&#45;&gt;Node3 -->
<g id="edge19" class="edge"><title>Node17&#45;&gt;Node3</title>
<path fill="none" stroke="midnightblue" d="M375.194,-220.368C352.535,-210.255 321.374,-196.349 301.583,-187.516"/>
<polygon fill="midnightblue" stroke="midnightblue" points="373.769,-223.564 384.327,-224.444 376.622,-217.172 373.769,-223.564"/>
</g>
<!-- Node18 -->
<g id="node18" class="node"><title>Node18</title>
<g id="a_node18"><a xlink:href="lll_8cpp.html" target="_top" xlink:title="fplll/lll.cpp">
<polygon fill="white" stroke="black" points="330.5,-168.5 330.5,-187.5 390.5,-187.5 390.5,-168.5 330.5,-168.5"/>
<text text-anchor="middle" x="360.5" y="-175.5" font-family="Helvetica,sans-Serif" font-size="10.00">fplll/lll.cpp</text>
</a>
</g>
</g>
<!-- Node17&#45;&gt;Node18 -->
<g id="edge20" class="edge"><title>Node17&#45;&gt;Node18</title>
<path fill="none" stroke="midnightblue" d="M390.078,-216.144C382.586,-206.736 373.563,-195.405 367.468,-187.751"/>
<polygon fill="midnightblue" stroke="midnightblue" points="387.432,-218.44 396.399,-224.083 392.908,-214.08 387.432,-218.44"/>
</g>
<!-- Node19 -->
<g id="node19" class="node"><title>Node19</title>
<g id="a_node19"><a xlink:href="wrapper_8cpp.html" target="_top" xlink:title="fplll/wrapper.cpp">
<polygon fill="white" stroke="black" points="408.5,-168.5 408.5,-187.5 496.5,-187.5 496.5,-168.5 408.5,-168.5"/>
<text text-anchor="middle" x="452.5" y="-175.5" font-family="Helvetica,sans-Serif" font-size="10.00">fplll/wrapper.cpp</text>
</a>
</g>
</g>
<!-- Node17&#45;&gt;Node19 -->
<g id="edge21" class="edge"><title>Node17&#45;&gt;Node19</title>
<path fill="none" stroke="midnightblue" d="M418.534,-216.431C427.122,-206.967 437.543,-195.483 444.559,-187.751"/>
<polygon fill="midnightblue" stroke="midnightblue" points="415.719,-214.325 411.591,-224.083 420.903,-219.029 415.719,-214.325"/>
</g>
<!-- Node20&#45;&gt;Node5 -->
<g id="edge23" class="edge"><title>Node20&#45;&gt;Node5</title>
<path fill="none" stroke="midnightblue" d="M523.29,-214.166C521.45,-199.933 516.865,-180.736 505.5,-168 485.24,-145.295 451.654,-133.718 427.511,-128.042"/>
<polygon fill="midnightblue" stroke="midnightblue" points="519.823,-214.674 524.254,-224.298 526.791,-214.011 519.823,-214.674"/>
</g>
<!-- Node20&#45;&gt;Node21 -->
<g id="edge24" class="edge"><title>Node20&#45;&gt;Node21</title>
<path fill="none" stroke="midnightblue" d="M543.262,-218.101C555.5,-208.382 571.059,-196.027 581.376,-187.834"/>
<polygon fill="midnightblue" stroke="midnightblue" points="541.08,-215.364 535.425,-224.324 545.433,-220.846 541.08,-215.364"/>
</g>
</g>
</svg>
