<?xml version="1.0" encoding="UTF-8" standalone="no"?>
<!DOCTYPE svg PUBLIC "-//W3C//DTD SVG 1.1//EN"
 "http://www.w3.org/Graphics/SVG/1.1/DTD/svg11.dtd">
<!-- Generated by graphviz version 2.40.1 (20161225.0304)
 -->
<!-- Title: fplll/gso_interface.h Pages: 1 -->
<svg width="1916pt" height="464pt"
 viewBox="0.00 0.00 1916.00 464.00" xmlns="http://www.w3.org/2000/svg" xmlns:xlink="http://www.w3.org/1999/xlink">
<g id="graph0" class="graph" transform="scale(1 1) rotate(0) translate(4 460)">
<title>fplll/gso_interface.h</title>
<polygon fill="#ffffff" stroke="transparent" points="-4,4 -4,-460 1912,-460 1912,4 -4,4"/>
<!-- Node0 -->
<g id="node1" class="node">
<title>Node0</title>
<polygon fill="#bfbfbf" stroke="#000000" points="1632.5,-436.5 1632.5,-455.5 1733.5,-455.5 1733.5,-436.5 1632.5,-436.5"/>
<text text-anchor="middle" x="1683" y="-443.5" font-family="Helvetica,sans-Serif" font-size="10.00" fill="#000000">fplll/gso_interface.h</text>
</g>
<!-- Node1 -->
<g id="node2" class="node">
<title>Node1</title>
<g id="a_node2"><a xlink:href="gso_8h.html" target="_top" xlink:title="fplll/gso.h">
<polygon fill="#ffffff" stroke="#000000" points="1267.5,-380.5 1267.5,-399.5 1326.5,-399.5 1326.5,-380.5 1267.5,-380.5"/>
<text text-anchor="middle" x="1297" y="-387.5" font-family="Helvetica,sans-Serif" font-size="10.00" fill="#000000">fplll/gso.h</text>
</a>
</g>
</g>
<!-- Node0&#45;&gt;Node1 -->
<g id="edge1" class="edge">
<title>Node0&#45;&gt;Node1</title>
<path fill="none" stroke="#191970" d="M1622.2293,-437.1835C1538.2621,-425.0018 1389.986,-403.4902 1326.8319,-394.3279"/>
<polygon fill="#191970" stroke="#191970" points="1621.7414,-440.6493 1632.1403,-438.6214 1622.7465,-433.7218 1621.7414,-440.6493"/>
</g>
<!-- Node14 -->
<g id="node15" class="node">
<title>Node14</title>
<g id="a_node15"><a xlink:href="test__lll__gram_8cpp.html" target="_top" xlink:title="tests/test_lll_gram.cpp">
<polygon fill="#ffffff" stroke="#000000" points="1327,-.5 1327,-19.5 1443,-19.5 1443,-.5 1327,-.5"/>
<text text-anchor="middle" x="1385" y="-7.5" font-family="Helvetica,sans-Serif" font-size="10.00" fill="#000000">tests/test_lll_gram.cpp</text>
</a>
</g>
</g>
<!-- Node0&#45;&gt;Node14 -->
<g id="edge66" class="edge">
<title>Node0&#45;&gt;Node14</title>
<path fill="none" stroke="#191970" d="M1677.8521,-426.3803C1672.2253,-403.1774 1664,-363.3064 1664,-328.5 1664,-328.5 1664,-328.5 1664,-261.5 1664,-126.9993 1482.9026,-45.9761 1412.5152,-19.5642"/>
<polygon fill="#191970" stroke="#191970" points="1674.523,-427.4935 1680.3581,-436.3367 1681.3113,-425.7848 1674.523,-427.4935"/>
</g>
<!-- Node20 -->
<g id="node21" class="node">
<title>Node20</title>
<g id="a_node21"><a xlink:href="test__gso_8cpp.html" target="_top" xlink:title="tests/test_gso.cpp">
<polygon fill="#ffffff" stroke="#000000" points="1577,-.5 1577,-19.5 1675,-19.5 1675,-.5 1577,-.5"/>
<text text-anchor="middle" x="1626" y="-7.5" font-family="Helvetica,sans-Serif" font-size="10.00" fill="#000000">tests/test_gso.cpp</text>
</a>
</g>
</g>
<!-- Node0&#45;&gt;Node20 -->
<g id="edge65" class="edge">
<title>Node0&#45;&gt;Node20</title>
<path fill="none" stroke="#191970" d="M1704.6243,-430.1953C1729.8072,-409.7835 1768,-371.7047 1768,-328.5 1768,-328.5 1768,-328.5 1768,-133 1768,-97.7513 1772.4384,-82.327 1749,-56 1737.2132,-42.7606 1694.3633,-28.6328 1662.536,-19.5807"/>
<polygon fill="#191970" stroke="#191970" points="1702.3807,-427.5067 1696.6567,-436.4222 1706.6912,-433.0221 1702.3807,-427.5067"/>
</g>
<!-- Node24 -->
<g id="node25" class="node">
<title>Node24</title>
<g id="a_node25"><a xlink:href="lll_8h.html" target="_top" xlink:title="fplll/lll.h">
<polygon fill="#ffffff" stroke="#000000" points="1408,-319 1408,-338 1458,-338 1458,-319 1408,-319"/>
<text text-anchor="middle" x="1433" y="-326" font-family="Helvetica,sans-Serif" font-size="10.00" fill="#000000">fplll/lll.h</text>
</a>
</g>
</g>
<!-- Node0&#45;&gt;Node24 -->
<g id="edge59" class="edge">
<title>Node0&#45;&gt;Node24</title>
<path fill="none" stroke="#191970" d="M1653.285,-432.0339C1601.8427,-407.8561 1497.4795,-358.8054 1453.3906,-338.0836"/>
<polygon fill="#191970" stroke="#191970" points="1652.0024,-435.2984 1662.5415,-436.3845 1654.98,-428.9632 1652.0024,-435.2984"/>
</g>
<!-- Node39 -->
<g id="node40" class="node">
<title>Node39</title>
<g id="a_node40"><a xlink:href="gso__gram_8h.html" target="_top" xlink:title="fplll/gso_gram.h">
<polygon fill="#ffffff" stroke="#000000" points="1654,-62 1654,-81 1740,-81 1740,-62 1654,-62"/>
<text text-anchor="middle" x="1697" y="-69" font-family="Helvetica,sans-Serif" font-size="10.00" fill="#000000">fplll/gso_gram.h</text>
</a>
</g>
</g>
<!-- Node0&#45;&gt;Node39 -->
<g id="edge60" class="edge">
<title>Node0&#45;&gt;Node39</title>
<path fill="none" stroke="#191970" d="M1688.1479,-426.3803C1693.7747,-403.1774 1702,-363.3064 1702,-328.5 1702,-328.5 1702,-328.5 1702,-194.5 1702,-152.1838 1699.009,-101.7462 1697.6537,-81.0638"/>
<polygon fill="#191970" stroke="#191970" points="1684.6887,-425.7848 1685.6419,-436.3367 1691.477,-427.4935 1684.6887,-425.7848"/>
</g>
<!-- Node41 -->
<g id="node42" class="node">
<title>Node41</title>
<g id="a_node42"><a xlink:href="gso__interface_8cpp.html" target="_top" xlink:title="fplll/gso_interface.cpp">
<polygon fill="#ffffff" stroke="#000000" points="1796,-380.5 1796,-399.5 1908,-399.5 1908,-380.5 1796,-380.5"/>
<text text-anchor="middle" x="1852" y="-387.5" font-family="Helvetica,sans-Serif" font-size="10.00" fill="#000000">fplll/gso_interface.cpp</text>
</a>
</g>
</g>
<!-- Node0&#45;&gt;Node41 -->
<g id="edge64" class="edge">
<title>Node0&#45;&gt;Node41</title>
<path fill="none" stroke="#191970" d="M1721.6573,-433.1905C1752.6193,-422.9309 1795.3574,-408.7691 1823.327,-399.5011"/>
<polygon fill="#191970" stroke="#191970" points="1720.4437,-429.9054 1712.0521,-436.3733 1722.6455,-436.5501 1720.4437,-429.9054"/>
</g>
<!-- Node2 -->
<g id="node3" class="node">
<title>Node2</title>
<g id="a_node3"><a xlink:href="enumerate__ext_8h.html" target="_top" xlink:title="fplll/enum/enumerate\l_ext.h">
<polygon fill="#ffffff" stroke="#000000" points="1040.5,-313.5 1040.5,-343.5 1147.5,-343.5 1147.5,-313.5 1040.5,-313.5"/>
<text text-anchor="start" x="1048.5" y="-331.5" font-family="Helvetica,sans-Serif" font-size="10.00" fill="#000000">fplll/enum/enumerate</text>
<text text-anchor="middle" x="1094" y="-320.5" font-family="Helvetica,sans-Serif" font-size="10.00" fill="#000000">_ext.h</text>
</a>
</g>
</g>
<!-- Node1&#45;&gt;Node2 -->
<g id="edge2" class="edge">
<title>Node1&#45;&gt;Node2</title>
<path fill="none" stroke="#191970" d="M1257.8537,-378.1404C1225.2926,-368.2758 1178.7554,-354.1771 1143.5914,-343.524"/>
<polygon fill="#191970" stroke="#191970" points="1256.8968,-381.5075 1267.4821,-381.0574 1258.9264,-374.8082 1256.8968,-381.5075"/>
</g>
<!-- Node3 -->
<g id="node4" class="node">
<title>Node3</title>
<g id="a_node4"><a xlink:href="enumerate_8h.html" target="_top" xlink:title="fplll/enum/enumerate.h">
<polygon fill="#ffffff" stroke="#000000" points="847,-252 847,-271 963,-271 963,-252 847,-252"/>
<text text-anchor="middle" x="905" y="-259" font-family="Helvetica,sans-Serif" font-size="10.00" fill="#000000">fplll/enum/enumerate.h</text>
</a>
</g>
</g>
<!-- Node1&#45;&gt;Node3 -->
<g id="edge32" class="edge">
<title>Node1&#45;&gt;Node3</title>
<path fill="none" stroke="#191970" d="M1257.3287,-388.0844C1204.3139,-384.4249 1108.2037,-373.9065 1032,-344 985.2528,-325.6538 937.5659,-288.7595 916.3636,-271.2068"/>
<polygon fill="#191970" stroke="#191970" points="1257.1343,-391.579 1267.3384,-388.7285 1257.5839,-384.5934 1257.1343,-391.579"/>
</g>
<!-- Node1&#45;&gt;Node14 -->
<g id="edge58" class="edge">
<title>Node1&#45;&gt;Node14</title>
<path fill="none" stroke="#191970" d="M1302.2471,-370.4417C1304.3984,-362.2822 1306.8767,-352.6969 1309,-344 1340.2415,-216.0362 1374.3165,-59.4671 1382.9334,-19.591"/>
<polygon fill="#191970" stroke="#191970" points="1298.8524,-369.5885 1299.6648,-380.1522 1305.6173,-371.3876 1298.8524,-369.5885"/>
</g>
<!-- Node1&#45;&gt;Node20 -->
<g id="edge57" class="edge">
<title>Node1&#45;&gt;Node20</title>
<path fill="none" stroke="#191970" d="M1336.8745,-383.1328C1424.4799,-366.9139 1626,-322.9292 1626,-261.5 1626,-261.5 1626,-261.5 1626,-133 1626,-90.7188 1626,-40.262 1626,-19.5691"/>
<polygon fill="#191970" stroke="#191970" points="1335.9876,-379.7367 1326.7768,-384.9723 1337.2422,-386.6233 1335.9876,-379.7367"/>
</g>
<!-- Node1&#45;&gt;Node24 -->
<g id="edge33" class="edge">
<title>Node1&#45;&gt;Node24</title>
<path fill="none" stroke="#191970" d="M1327.5402,-376.1895C1353.2352,-364.5701 1389.3028,-348.2601 1411.8992,-338.0419"/>
<polygon fill="#191970" stroke="#191970" points="1325.9195,-373.0811 1318.25,-380.3906 1328.8038,-379.4593 1325.9195,-373.0811"/>
</g>
<!-- Node27 -->
<g id="node28" class="node">
<title>Node27</title>
<g id="a_node28"><a xlink:href="gso_8cpp.html" target="_top" xlink:title="fplll/gso.cpp">
<polygon fill="#ffffff" stroke="#000000" points="1230.5,-319 1230.5,-338 1299.5,-338 1299.5,-319 1230.5,-319"/>
<text text-anchor="middle" x="1265" y="-326" font-family="Helvetica,sans-Serif" font-size="10.00" fill="#000000">fplll/gso.cpp</text>
</a>
</g>
</g>
<!-- Node1&#45;&gt;Node27 -->
<g id="edge38" class="edge">
<title>Node1&#45;&gt;Node27</title>
<path fill="none" stroke="#191970" d="M1287.2455,-371.253C1281.5779,-360.3606 1274.67,-347.0846 1270.0705,-338.2449"/>
<polygon fill="#191970" stroke="#191970" points="1284.2793,-373.1352 1292,-380.3906 1290.489,-369.9041 1284.2793,-373.1352"/>
</g>
<!-- Node28 -->
<g id="node29" class="node">
<title>Node28</title>
<g id="a_node29"><a xlink:href="sampler__basic_8h.html" target="_top" xlink:title="fplll/sieve/sampler\l_basic.h">
<polygon fill="#ffffff" stroke="#000000" points="631.5,-313.5 631.5,-343.5 726.5,-343.5 726.5,-313.5 631.5,-313.5"/>
<text text-anchor="start" x="639.5" y="-331.5" font-family="Helvetica,sans-Serif" font-size="10.00" fill="#000000">fplll/sieve/sampler</text>
<text text-anchor="middle" x="679" y="-320.5" font-family="Helvetica,sans-Serif" font-size="10.00" fill="#000000">_basic.h</text>
</a>
</g>
</g>
<!-- Node1&#45;&gt;Node28 -->
<g id="edge39" class="edge">
<title>Node1&#45;&gt;Node28</title>
<path fill="none" stroke="#191970" d="M1256.9275,-386.0122C1147.5776,-375.1303 844.3775,-344.9575 726.623,-333.2392"/>
<polygon fill="#191970" stroke="#191970" points="1256.8951,-389.5262 1267.1926,-387.0337 1257.5883,-382.5606 1256.8951,-389.5262"/>
</g>
<!-- Node2&#45;&gt;Node3 -->
<g id="edge3" class="edge">
<title>Node2&#45;&gt;Node3</title>
<path fill="none" stroke="#191970" d="M1041.8144,-310.0003C1006.1399,-297.3538 960.3265,-281.1131 931.8134,-271.0053"/>
<polygon fill="#191970" stroke="#191970" points="1040.99,-313.4214 1051.5847,-313.4639 1043.3289,-306.8237 1040.99,-313.4214"/>
</g>
<!-- Node23 -->
<g id="node24" class="node">
<title>Node23</title>
<g id="a_node24"><a xlink:href="enumerate__ext_8cpp.html" target="_top" xlink:title="fplll/enum/enumerate\l_ext.cpp">
<polygon fill="#ffffff" stroke="#000000" points="1040.5,-246.5 1040.5,-276.5 1147.5,-276.5 1147.5,-246.5 1040.5,-246.5"/>
<text text-anchor="start" x="1048.5" y="-264.5" font-family="Helvetica,sans-Serif" font-size="10.00" fill="#000000">fplll/enum/enumerate</text>
<text text-anchor="middle" x="1094" y="-253.5" font-family="Helvetica,sans-Serif" font-size="10.00" fill="#000000">_ext.cpp</text>
</a>
</g>
</g>
<!-- Node2&#45;&gt;Node23 -->
<g id="edge31" class="edge">
<title>Node2&#45;&gt;Node23</title>
<path fill="none" stroke="#191970" d="M1094,-303.0249C1094,-294.128 1094,-284.4287 1094,-276.6432"/>
<polygon fill="#191970" stroke="#191970" points="1090.5001,-303.2966 1094,-313.2967 1097.5001,-303.2967 1090.5001,-303.2966"/>
</g>
<!-- Node4 -->
<g id="node5" class="node">
<title>Node4</title>
<g id="a_node5"><a xlink:href="bkz_8h.html" target="_top" xlink:title="fplll/bkz.h">
<polygon fill="#ffffff" stroke="#000000" points="904.5,-185 904.5,-204 963.5,-204 963.5,-185 904.5,-185"/>
<text text-anchor="middle" x="934" y="-192" font-family="Helvetica,sans-Serif" font-size="10.00" fill="#000000">fplll/bkz.h</text>
</a>
</g>
</g>
<!-- Node3&#45;&gt;Node4 -->
<g id="edge4" class="edge">
<title>Node3&#45;&gt;Node4</title>
<path fill="none" stroke="#191970" d="M913.2832,-242.3628C918.7017,-229.8444 925.5488,-214.0252 929.8527,-204.0817"/>
<polygon fill="#191970" stroke="#191970" points="909.9153,-241.333 909.155,-251.9005 916.3393,-244.1136 909.9153,-241.333"/>
</g>
<!-- Node5 -->
<g id="node6" class="node">
<title>Node5</title>
<g id="a_node6"><a xlink:href="bkz_8cpp.html" target="_top" xlink:title="fplll/bkz.cpp">
<polygon fill="#ffffff" stroke="#000000" points="817.5,-123.5 817.5,-142.5 886.5,-142.5 886.5,-123.5 817.5,-123.5"/>
<text text-anchor="middle" x="852" y="-130.5" font-family="Helvetica,sans-Serif" font-size="10.00" fill="#000000">fplll/bkz.cpp</text>
</a>
</g>
</g>
<!-- Node3&#45;&gt;Node5 -->
<g id="edge27" class="edge">
<title>Node3&#45;&gt;Node5</title>
<path fill="none" stroke="#191970" d="M897.1277,-242.4134C885.6615,-214.6134 864.7821,-163.9907 856.0298,-142.7705"/>
<polygon fill="#191970" stroke="#191970" points="893.9678,-243.9316 901.0164,-251.8416 900.439,-241.2625 893.9678,-243.9316"/>
</g>
<!-- Node21 -->
<g id="node22" class="node">
<title>Node21</title>
<g id="a_node22"><a xlink:href="enumerate_8cpp.html" target="_top" xlink:title="fplll/enum/enumerate.cpp">
<polygon fill="#ffffff" stroke="#000000" points="722,-185 722,-204 848,-204 848,-185 722,-185"/>
<text text-anchor="middle" x="785" y="-192" font-family="Helvetica,sans-Serif" font-size="10.00" fill="#000000">fplll/enum/enumerate.cpp</text>
</a>
</g>
</g>
<!-- Node3&#45;&gt;Node21 -->
<g id="edge28" class="edge">
<title>Node3&#45;&gt;Node21</title>
<path fill="none" stroke="#191970" d="M878.8232,-246.8846C855.5511,-233.891 822.1967,-215.2681 802.1612,-204.0817"/>
<polygon fill="#191970" stroke="#191970" points="877.3694,-250.0815 887.8069,-251.9005 880.7819,-243.9696 877.3694,-250.0815"/>
</g>
<!-- Node22 -->
<g id="node23" class="node">
<title>Node22</title>
<g id="a_node23"><a xlink:href="svpcvp_8cpp.html" target="_top" xlink:title="fplll/svpcvp.cpp">
<polygon fill="#ffffff" stroke="#000000" points="598.5,-123.5 598.5,-142.5 683.5,-142.5 683.5,-123.5 598.5,-123.5"/>
<text text-anchor="middle" x="641" y="-130.5" font-family="Helvetica,sans-Serif" font-size="10.00" fill="#000000">fplll/svpcvp.cpp</text>
</a>
</g>
</g>
<!-- Node3&#45;&gt;Node22 -->
<g id="edge29" class="edge">
<title>Node3&#45;&gt;Node22</title>
<path fill="none" stroke="#191970" d="M836.6292,-252.6522C798.2322,-245.4322 750.6229,-232.5779 713,-210 683.4974,-192.2952 658.4967,-159.0677 647.2966,-142.6648"/>
<polygon fill="#191970" stroke="#191970" points="836.2277,-256.136 846.6885,-254.4557 837.4631,-249.2458 836.2277,-256.136"/>
</g>
<!-- Node4&#45;&gt;Node5 -->
<g id="edge5" class="edge">
<title>Node4&#45;&gt;Node5</title>
<path fill="none" stroke="#191970" d="M912.8655,-178.6491C897.6293,-167.222 877.5666,-152.1749 864.7225,-142.5419"/>
<polygon fill="#191970" stroke="#191970" points="911.0875,-181.6906 921.1875,-184.8906 915.2875,-176.0906 911.0875,-181.6906"/>
</g>
<!-- Node6 -->
<g id="node7" class="node">
<title>Node6</title>
<g id="a_node7"><a xlink:href="fplll_8h.html" target="_top" xlink:title="fplll/fplll.h">
<polygon fill="#ffffff" stroke="#000000" points="905,-123.5 905,-142.5 963,-142.5 963,-123.5 905,-123.5"/>
<text text-anchor="middle" x="934" y="-130.5" font-family="Helvetica,sans-Serif" font-size="10.00" fill="#000000">fplll/fplll.h</text>
</a>
</g>
</g>
<!-- Node4&#45;&gt;Node6 -->
<g id="edge6" class="edge">
<title>Node4&#45;&gt;Node6</title>
<path fill="none" stroke="#191970" d="M934,-174.7462C934,-164.0519 934,-151.314 934,-142.7449"/>
<polygon fill="#191970" stroke="#191970" points="930.5001,-174.8906 934,-184.8906 937.5001,-174.8907 930.5001,-174.8906"/>
</g>
<!-- Node7 -->
<g id="node8" class="node">
<title>Node7</title>
<g id="a_node8"><a xlink:href="fplll_8cpp.html" target="_top" xlink:title="fplll/fplll.cpp">
<polygon fill="#ffffff" stroke="#000000" points="578,-62 578,-81 646,-81 646,-62 578,-62"/>
<text text-anchor="middle" x="612" y="-69" font-family="Helvetica,sans-Serif" font-size="10.00" fill="#000000">fplll/fplll.cpp</text>
</a>
</g>
</g>
<!-- Node6&#45;&gt;Node7 -->
<g id="edge7" class="edge">
<title>Node6&#45;&gt;Node7</title>
<path fill="none" stroke="#191970" d="M894.6219,-122.8965C790.2909,-102.0374 760.1368,-110.643 660,-87 653.0966,-85.3701 645.7563,-83.2198 638.9468,-81.0417"/>
<polygon fill="#191970" stroke="#191970" points="894.1161,-126.3654 904.6144,-124.9381 895.5174,-119.507 894.1161,-126.3654"/>
</g>
<!-- Node8 -->
<g id="node9" class="node">
<title>Node8</title>
<g id="a_node9"><a xlink:href="main_8h.html" target="_top" xlink:title="fplll/main.h">
<polygon fill="#ffffff" stroke="#000000" points="1000,-62 1000,-81 1064,-81 1064,-62 1000,-62"/>
<text text-anchor="middle" x="1032" y="-69" font-family="Helvetica,sans-Serif" font-size="10.00" fill="#000000">fplll/main.h</text>
</a>
</g>
</g>
<!-- Node6&#45;&gt;Node8 -->
<g id="edge8" class="edge">
<title>Node6&#45;&gt;Node8</title>
<path fill="none" stroke="#191970" d="M957.9916,-117.944C976.3422,-106.4281 1001.0862,-90.9 1016.795,-81.0419"/>
<polygon fill="#191970" stroke="#191970" points="955.9223,-115.1105 949.3125,-123.3906 959.6432,-121.0397 955.9223,-115.1105"/>
</g>
<!-- Node10 -->
<g id="node11" class="node">
<title>Node10</title>
<g id="a_node11"><a xlink:href="sieve__main_8cpp.html" target="_top" xlink:title="fplll/sieve/sieve_main.cpp">
<polygon fill="#ffffff" stroke="#000000" points="376.5,-.5 376.5,-19.5 505.5,-19.5 505.5,-.5 376.5,-.5"/>
<text text-anchor="middle" x="441" y="-7.5" font-family="Helvetica,sans-Serif" font-size="10.00" fill="#000000">fplll/sieve/sieve_main.cpp</text>
</a>
</g>
</g>
<!-- Node6&#45;&gt;Node10 -->
<g id="edge10" class="edge">
<title>Node6&#45;&gt;Node10</title>
<path fill="none" stroke="#191970" d="M894.5531,-122.9086C802.0547,-104.7307 769.0815,-127.4517 688,-87 669.9935,-78.0165 672.8216,-65.3449 655,-56 629.0013,-42.3673 556.4384,-28.4351 502.9853,-19.5303"/>
<polygon fill="#191970" stroke="#191970" points="894.0989,-126.389 904.6019,-124.9968 895.5232,-119.5354 894.0989,-126.389"/>
</g>
<!-- Node11 -->
<g id="node12" class="node">
<title>Node11</title>
<g id="a_node12"><a xlink:href="test__bkz_8cpp.html" target="_top" xlink:title="tests/test_bkz.cpp">
<polygon fill="#ffffff" stroke="#000000" points="647,-.5 647,-19.5 745,-19.5 745,-.5 647,-.5"/>
<text text-anchor="middle" x="696" y="-7.5" font-family="Helvetica,sans-Serif" font-size="10.00" fill="#000000">tests/test_bkz.cpp</text>
</a>
</g>
</g>
<!-- Node6&#45;&gt;Node11 -->
<g id="edge11" class="edge">
<title>Node6&#45;&gt;Node11</title>
<path fill="none" stroke="#191970" d="M895.0954,-120.0394C871.6747,-111.7001 841.5438,-100.0108 816,-87 775.1945,-66.2156 730.6979,-35.2593 709.1549,-19.6869"/>
<polygon fill="#191970" stroke="#191970" points="894.0942,-123.3972 904.6891,-123.4024 896.4099,-116.7913 894.0942,-123.3972"/>
</g>
<!-- Node12 -->
<g id="node13" class="node">
<title>Node12</title>
<g id="a_node13"><a xlink:href="test__cvp_8cpp.html" target="_top" xlink:title="tests/test_cvp.cpp">
<polygon fill="#ffffff" stroke="#000000" points="763,-.5 763,-19.5 861,-19.5 861,-.5 763,-.5"/>
<text text-anchor="middle" x="812" y="-7.5" font-family="Helvetica,sans-Serif" font-size="10.00" fill="#000000">tests/test_cvp.cpp</text>
</a>
</g>
</g>
<!-- Node6&#45;&gt;Node12 -->
<g id="edge12" class="edge">
<title>Node6&#45;&gt;Node12</title>
<path fill="none" stroke="#191970" d="M898.2921,-119.7692C874.0173,-110.1359 844.7776,-97.0678 836,-87 818.8847,-67.369 813.9707,-35.6165 812.5629,-19.7197"/>
<polygon fill="#191970" stroke="#191970" points="897.0486,-123.041 907.637,-123.4089 899.5891,-116.5183 897.0486,-123.041"/>
</g>
<!-- Node13 -->
<g id="node14" class="node">
<title>Node13</title>
<g id="a_node14"><a xlink:href="test__lll_8cpp.html" target="_top" xlink:title="tests/test_lll.cpp">
<polygon fill="#ffffff" stroke="#000000" points="879.5,-.5 879.5,-19.5 968.5,-19.5 968.5,-.5 879.5,-.5"/>
<text text-anchor="middle" x="924" y="-7.5" font-family="Helvetica,sans-Serif" font-size="10.00" fill="#000000">tests/test_lll.cpp</text>
</a>
</g>
</g>
<!-- Node6&#45;&gt;Node13 -->
<g id="edge13" class="edge">
<title>Node6&#45;&gt;Node13</title>
<path fill="none" stroke="#191970" d="M899.7247,-119.4558C877.7544,-109.9974 852.2236,-97.2758 846,-87 838.8625,-75.2151 839.1663,-67.9636 846,-56 856.1368,-38.2536 876.0926,-26.6687 893.2809,-19.5638"/>
<polygon fill="#191970" stroke="#191970" points="898.5951,-122.7775 909.1704,-123.4219 901.3052,-116.3233 898.5951,-122.7775"/>
</g>
<!-- Node6&#45;&gt;Node14 -->
<g id="edge14" class="edge">
<title>Node6&#45;&gt;Node14</title>
<path fill="none" stroke="#191970" d="M973.4029,-131.4286C1057.2762,-127.5619 1250.5773,-115.7271 1309,-87 1341.0254,-71.2527 1367.3771,-36.4655 1378.8361,-19.5749"/>
<polygon fill="#191970" stroke="#191970" points="973.0946,-127.9388 963.2608,-131.8817 973.407,-134.9318 973.0946,-127.9388"/>
</g>
<!-- Node15 -->
<g id="node16" class="node">
<title>Node15</title>
<g id="a_node16"><a xlink:href="test__nr_8cpp.html" target="_top" xlink:title="tests/test_nr.cpp">
<polygon fill="#ffffff" stroke="#000000" points="1082,-62 1082,-81 1172,-81 1172,-62 1082,-62"/>
<text text-anchor="middle" x="1127" y="-69" font-family="Helvetica,sans-Serif" font-size="10.00" fill="#000000">tests/test_nr.cpp</text>
</a>
</g>
</g>
<!-- Node6&#45;&gt;Node15 -->
<g id="edge15" class="edge">
<title>Node6&#45;&gt;Node15</title>
<path fill="none" stroke="#191970" d="M973.1599,-120.5216C1009.8134,-108.8419 1063.7841,-91.6439 1097.0935,-81.0298"/>
<polygon fill="#191970" stroke="#191970" points="971.7778,-117.2885 963.3125,-123.6595 973.9032,-123.9581 971.7778,-117.2885"/>
</g>
<!-- Node16 -->
<g id="node17" class="node">
<title>Node16</title>
<g id="a_node17"><a xlink:href="test__pruner_8cpp.html" target="_top" xlink:title="tests/test_pruner.cpp">
<polygon fill="#ffffff" stroke="#000000" points="1190.5,-62 1190.5,-81 1299.5,-81 1299.5,-62 1190.5,-62"/>
<text text-anchor="middle" x="1245" y="-69" font-family="Helvetica,sans-Serif" font-size="10.00" fill="#000000">tests/test_pruner.cpp</text>
</a>
</g>
</g>
<!-- Node6&#45;&gt;Node16 -->
<g id="edge16" class="edge">
<title>Node6&#45;&gt;Node16</title>
<path fill="none" stroke="#191970" d="M973.1249,-126.3796C1021.9355,-117.9672 1107.8833,-102.6507 1181,-87 1189.4961,-85.1814 1198.5883,-83.0765 1207.1738,-81.0156"/>
<polygon fill="#191970" stroke="#191970" points="972.2639,-122.9761 963,-128.1172 973.448,-129.8752 972.2639,-122.9761"/>
</g>
<!-- Node17 -->
<g id="node18" class="node">
<title>Node17</title>
<g id="a_node18"><a xlink:href="test__sieve_8cpp.html" target="_top" xlink:title="tests/test_sieve.cpp">
<polygon fill="#ffffff" stroke="#000000" points="523.5,-.5 523.5,-19.5 628.5,-19.5 628.5,-.5 523.5,-.5"/>
<text text-anchor="middle" x="576" y="-7.5" font-family="Helvetica,sans-Serif" font-size="10.00" fill="#000000">tests/test_sieve.cpp</text>
</a>
</g>
</g>
<!-- Node6&#45;&gt;Node17 -->
<g id="edge17" class="edge">
<title>Node6&#45;&gt;Node17</title>
<path fill="none" stroke="#191970" d="M894.8106,-122.6624C846.0527,-109.7796 768.3837,-89.1796 762,-87 728.2545,-75.4784 720.9369,-69.6626 688,-56 657.5163,-43.355 622.298,-28.9187 599.6177,-19.6441"/>
<polygon fill="#191970" stroke="#191970" points="894.1778,-126.1153 904.7401,-125.2849 895.9654,-119.3473 894.1778,-126.1153"/>
</g>
<!-- Node18 -->
<g id="node19" class="node">
<title>Node18</title>
<g id="a_node19"><a xlink:href="test__svp_8cpp.html" target="_top" xlink:title="tests/test_svp.cpp">
<polygon fill="#ffffff" stroke="#000000" points="986,-.5 986,-19.5 1084,-19.5 1084,-.5 986,-.5"/>
<text text-anchor="middle" x="1035" y="-7.5" font-family="Helvetica,sans-Serif" font-size="10.00" fill="#000000">tests/test_svp.cpp</text>
</a>
</g>
</g>
<!-- Node6&#45;&gt;Node18 -->
<g id="edge18" class="edge">
<title>Node6&#45;&gt;Node18</title>
<path fill="none" stroke="#191970" d="M946.4816,-114.8173C957.6377,-98.8968 974.6944,-75.3505 991,-56 1002.1091,-42.8165 1016.0178,-28.6188 1025.1889,-19.5386"/>
<polygon fill="#191970" stroke="#191970" points="943.4751,-113.0106 940.6453,-123.2205 949.2245,-117.0038 943.4751,-113.0106"/>
</g>
<!-- Node19 -->
<g id="node20" class="node">
<title>Node19</title>
<g id="a_node20"><a xlink:href="test__utils_8h.html" target="_top" xlink:title="tests/test_utils.h">
<polygon fill="#ffffff" stroke="#000000" points="854.5,-62 854.5,-81 943.5,-81 943.5,-62 854.5,-62"/>
<text text-anchor="middle" x="899" y="-69" font-family="Helvetica,sans-Serif" font-size="10.00" fill="#000000">tests/test_utils.h</text>
</a>
</g>
</g>
<!-- Node6&#45;&gt;Node19 -->
<g id="edge19" class="edge">
<title>Node6&#45;&gt;Node19</title>
<path fill="none" stroke="#191970" d="M923.5203,-114.5857C917.2865,-103.632 909.6279,-90.1748 904.5459,-81.2449"/>
<polygon fill="#191970" stroke="#191970" points="920.5431,-116.4307 928.5313,-123.3906 926.6269,-112.9683 920.5431,-116.4307"/>
</g>
<!-- Node9 -->
<g id="node10" class="node">
<title>Node9</title>
<g id="a_node10"><a xlink:href="main_8cpp.html" target="_top" xlink:title="fplll/main.cpp">
<polygon fill="#ffffff" stroke="#000000" points="1102,-.5 1102,-19.5 1176,-19.5 1176,-.5 1102,-.5"/>
<text text-anchor="middle" x="1139" y="-7.5" font-family="Helvetica,sans-Serif" font-size="10.00" fill="#000000">fplll/main.cpp</text>
</a>
</g>
</g>
<!-- Node8&#45;&gt;Node9 -->
<g id="edge9" class="edge">
<title>Node8&#45;&gt;Node9</title>
<path fill="none" stroke="#191970" d="M1057.6478,-56.7585C1077.7366,-45.2122 1105.0905,-29.49 1122.3987,-19.5419"/>
<polygon fill="#191970" stroke="#191970" points="1055.6446,-53.8729 1048.7188,-61.8906 1059.1328,-59.9419 1055.6446,-53.8729"/>
</g>
<!-- Node19&#45;&gt;Node11 -->
<g id="edge20" class="edge">
<title>Node19&#45;&gt;Node11</title>
<path fill="none" stroke="#191970" d="M857.4099,-58.9001C818.8803,-47.2273 762.4131,-30.1202 727.496,-19.5419"/>
<polygon fill="#191970" stroke="#191970" points="856.696,-62.3408 867.2813,-61.8906 858.7256,-55.6415 856.696,-62.3408"/>
</g>
<!-- Node19&#45;&gt;Node12 -->
<g id="edge21" class="edge">
<title>Node19&#45;&gt;Node12</title>
<path fill="none" stroke="#191970" d="M877.0287,-55.9685C860.8101,-44.5037 839.2529,-29.265 825.4983,-19.5419"/>
<polygon fill="#191970" stroke="#191970" points="875.2201,-58.9763 885.4063,-61.8906 879.2608,-53.2602 875.2201,-58.9763"/>
</g>
<!-- Node19&#45;&gt;Node13 -->
<g id="edge23" class="edge">
<title>Node19&#45;&gt;Node13</title>
<path fill="none" stroke="#191970" d="M906.7566,-52.4189C911.1585,-41.5901 916.4819,-28.4944 920.0387,-19.7449"/>
<polygon fill="#191970" stroke="#191970" points="903.4298,-51.3087 902.9063,-61.8906 909.9144,-53.9448 903.4298,-51.3087"/>
</g>
<!-- Node19&#45;&gt;Node14 -->
<g id="edge24" class="edge">
<title>Node19&#45;&gt;Node14</title>
<path fill="none" stroke="#191970" d="M953.9017,-61.7821C966.0974,-59.7541 978.9735,-57.714 991,-56 1109.9714,-39.044 1249.8171,-23.8307 1326.8014,-15.8625"/>
<polygon fill="#191970" stroke="#191970" points="953.1305,-58.3626 943.8509,-63.4753 954.2935,-65.2653 953.1305,-58.3626"/>
</g>
<!-- Node19&#45;&gt;Node17 -->
<g id="edge25" class="edge">
<title>Node19&#45;&gt;Node17</title>
<path fill="none" stroke="#191970" d="M844.5818,-61.1386C783.479,-49.5045 685.151,-30.7826 625.9416,-19.509"/>
<polygon fill="#191970" stroke="#191970" points="843.9492,-64.581 854.4274,-63.0133 845.2585,-57.7045 843.9492,-64.581"/>
</g>
<!-- Node19&#45;&gt;Node18 -->
<g id="edge26" class="edge">
<title>Node19&#45;&gt;Node18</title>
<path fill="none" stroke="#191970" d="M929.5402,-57.6895C955.2352,-46.0701 991.3028,-29.7601 1013.8992,-19.5419"/>
<polygon fill="#191970" stroke="#191970" points="927.9195,-54.5811 920.25,-61.8906 930.8038,-60.9593 927.9195,-54.5811"/>
</g>
<!-- Node19&#45;&gt;Node20 -->
<g id="edge22" class="edge">
<title>Node19&#45;&gt;Node20</title>
<path fill="none" stroke="#191970" d="M953.8496,-61.3855C966.0483,-59.3802 978.9388,-57.4496 991,-56 1104.3088,-42.3818 1447.9935,-20.8028 1576.6665,-12.967"/>
<polygon fill="#191970" stroke="#191970" points="953.0784,-57.966 943.7988,-63.0787 954.2413,-64.8688 953.0784,-57.966"/>
</g>
<!-- Node22&#45;&gt;Node7 -->
<g id="edge30" class="edge">
<title>Node22&#45;&gt;Node7</title>
<path fill="none" stroke="#191970" d="M632.16,-114.253C627.0237,-103.3606 620.7635,-90.0846 616.5951,-81.2449"/>
<polygon fill="#191970" stroke="#191970" points="629.0379,-115.8386 636.4688,-123.3906 635.3693,-112.853 629.0379,-115.8386"/>
</g>
<!-- Node24&#45;&gt;Node4 -->
<g id="edge34" class="edge">
<title>Node24&#45;&gt;Node4</title>
<path fill="none" stroke="#191970" d="M1397.8853,-317.2229C1345.6479,-300.6248 1244.2515,-269.0904 1157,-246 1088.2426,-227.8039 1006.6119,-209.8752 963.7264,-200.7362"/>
<polygon fill="#191970" stroke="#191970" points="1397.068,-320.6357 1407.6586,-320.3364 1399.1928,-313.966 1397.068,-320.6357"/>
</g>
<!-- Node24&#45;&gt;Node14 -->
<g id="edge37" class="edge">
<title>Node24&#45;&gt;Node14</title>
<path fill="none" stroke="#191970" d="M1426.1274,-309.2543C1417.5517,-283.4776 1404,-236.1543 1404,-194.5 1404,-194.5 1404,-194.5 1404,-133 1404,-90.4334 1392.7486,-40.5415 1387.5624,-19.8054"/>
<polygon fill="#191970" stroke="#191970" points="1422.8833,-310.5838 1429.444,-318.9029 1429.5032,-308.3082 1422.8833,-310.5838"/>
</g>
<!-- Node25 -->
<g id="node26" class="node">
<title>Node25</title>
<g id="a_node26"><a xlink:href="lll_8cpp.html" target="_top" xlink:title="fplll/lll.cpp">
<polygon fill="#ffffff" stroke="#000000" points="1432,-252 1432,-271 1492,-271 1492,-252 1432,-252"/>
<text text-anchor="middle" x="1462" y="-259" font-family="Helvetica,sans-Serif" font-size="10.00" fill="#000000">fplll/lll.cpp</text>
</a>
</g>
</g>
<!-- Node24&#45;&gt;Node25 -->
<g id="edge35" class="edge">
<title>Node24&#45;&gt;Node25</title>
<path fill="none" stroke="#191970" d="M1441.2832,-309.3628C1446.7017,-296.8444 1453.5488,-281.0252 1457.8527,-271.0817"/>
<polygon fill="#191970" stroke="#191970" points="1437.9153,-308.333 1437.155,-318.9005 1444.3393,-311.1136 1437.9153,-308.333"/>
</g>
<!-- Node26 -->
<g id="node27" class="node">
<title>Node26</title>
<g id="a_node27"><a xlink:href="wrapper_8cpp.html" target="_top" xlink:title="fplll/wrapper.cpp">
<polygon fill="#ffffff" stroke="#000000" points="1510,-252 1510,-271 1598,-271 1598,-252 1510,-252"/>
<text text-anchor="middle" x="1554" y="-259" font-family="Helvetica,sans-Serif" font-size="10.00" fill="#000000">fplll/wrapper.cpp</text>
</a>
</g>
</g>
<!-- Node24&#45;&gt;Node26 -->
<g id="edge36" class="edge">
<title>Node24&#45;&gt;Node26</title>
<path fill="none" stroke="#191970" d="M1459.395,-313.8846C1482.861,-300.891 1516.4934,-282.2681 1536.6958,-271.0817"/>
<polygon fill="#191970" stroke="#191970" points="1457.3893,-310.9944 1450.3363,-318.9005 1460.7802,-317.1183 1457.3893,-310.9944"/>
</g>
<!-- Node29 -->
<g id="node30" class="node">
<title>Node29</title>
<g id="a_node30"><a xlink:href="sampler__basic_8cpp.html" target="_top" xlink:title="fplll/sieve/sampler\l_basic.cpp">
<polygon fill="#ffffff" stroke="#000000" points="574.5,-246.5 574.5,-276.5 669.5,-276.5 669.5,-246.5 574.5,-246.5"/>
<text text-anchor="start" x="582.5" y="-264.5" font-family="Helvetica,sans-Serif" font-size="10.00" fill="#000000">fplll/sieve/sampler</text>
<text text-anchor="middle" x="622" y="-253.5" font-family="Helvetica,sans-Serif" font-size="10.00" fill="#000000">_basic.cpp</text>
</a>
</g>
</g>
<!-- Node28&#45;&gt;Node29 -->
<g id="edge40" class="edge">
<title>Node28&#45;&gt;Node29</title>
<path fill="none" stroke="#191970" d="M659.5506,-305.6385C651.4063,-296.0653 642.1616,-285.1987 634.883,-276.6432"/>
<polygon fill="#191970" stroke="#191970" points="656.9202,-307.948 666.0658,-313.2967 662.2518,-303.4121 656.9202,-307.948"/>
</g>
<!-- Node30 -->
<g id="node31" class="node">
<title>Node30</title>
<g id="a_node31"><a xlink:href="sampler__main_8cpp.html" target="_top" xlink:title="fplll/sieve/sampler\l_main.cpp">
<polygon fill="#ffffff" stroke="#000000" points="687.5,-246.5 687.5,-276.5 782.5,-276.5 782.5,-246.5 687.5,-246.5"/>
<text text-anchor="start" x="695.5" y="-264.5" font-family="Helvetica,sans-Serif" font-size="10.00" fill="#000000">fplll/sieve/sampler</text>
<text text-anchor="middle" x="735" y="-253.5" font-family="Helvetica,sans-Serif" font-size="10.00" fill="#000000">_main.cpp</text>
</a>
</g>
</g>
<!-- Node28&#45;&gt;Node30 -->
<g id="edge41" class="edge">
<title>Node28&#45;&gt;Node30</title>
<path fill="none" stroke="#191970" d="M698.3485,-305.3509C706.2911,-295.8482 715.2636,-285.1132 722.343,-276.6432"/>
<polygon fill="#191970" stroke="#191970" points="695.4349,-303.3792 691.7073,-313.2967 700.8059,-307.8684 695.4349,-303.3792"/>
</g>
<!-- Node31 -->
<g id="node32" class="node">
<title>Node31</title>
<g id="a_node32"><a xlink:href="sieve__common_8h.html" target="_top" xlink:title="fplll/sieve/sieve_common.h">
<polygon fill="#ffffff" stroke="#000000" points="296.5,-252 296.5,-271 431.5,-271 431.5,-252 296.5,-252"/>
<text text-anchor="middle" x="364" y="-259" font-family="Helvetica,sans-Serif" font-size="10.00" fill="#000000">fplll/sieve/sieve_common.h</text>
</a>
</g>
</g>
<!-- Node28&#45;&gt;Node31 -->
<g id="edge42" class="edge">
<title>Node28&#45;&gt;Node31</title>
<path fill="none" stroke="#191970" d="M621.2574,-316.2182C559.9927,-303.1873 464.5025,-282.8767 408.7164,-271.0111"/>
<polygon fill="#191970" stroke="#191970" points="620.6489,-319.667 631.1583,-318.3241 622.1053,-312.8202 620.6489,-319.667"/>
</g>
<!-- Node32 -->
<g id="node33" class="node">
<title>Node32</title>
<g id="a_node33"><a xlink:href="sieve__gauss__str_8h.html" target="_top" xlink:title="fplll/sieve/sieve_gauss\l_str.h">
<polygon fill="#ffffff" stroke="#000000" points="263,-179.5 263,-209.5 379,-209.5 379,-179.5 263,-179.5"/>
<text text-anchor="start" x="271" y="-197.5" font-family="Helvetica,sans-Serif" font-size="10.00" fill="#000000">fplll/sieve/sieve_gauss</text>
<text text-anchor="middle" x="321" y="-186.5" font-family="Helvetica,sans-Serif" font-size="10.00" fill="#000000">_str.h</text>
</a>
</g>
</g>
<!-- Node31&#45;&gt;Node32 -->
<g id="edge43" class="edge">
<title>Node31&#45;&gt;Node32</title>
<path fill="none" stroke="#191970" d="M346.5508,-243.7233C338.6702,-233.0615 330.1643,-219.6515 324.9021,-209.5218"/>
<polygon fill="#191970" stroke="#191970" points="344.0243,-246.1745 352.9386,-251.9005 349.5407,-241.8653 344.0243,-246.1745"/>
</g>
<!-- Node33 -->
<g id="node34" class="node">
<title>Node33</title>
<g id="a_node34"><a xlink:href="sieve__gauss_8h.html" target="_top" xlink:title="fplll/sieve/sieve_gauss.h">
<polygon fill="#ffffff" stroke="#000000" points="259,-123.5 259,-142.5 383,-142.5 383,-123.5 259,-123.5"/>
<text text-anchor="middle" x="321" y="-130.5" font-family="Helvetica,sans-Serif" font-size="10.00" fill="#000000">fplll/sieve/sieve_gauss.h</text>
</a>
</g>
</g>
<!-- Node31&#45;&gt;Node33 -->
<g id="edge56" class="edge">
<title>Node31&#45;&gt;Node33</title>
<path fill="none" stroke="#191970" d="M376.8987,-243.3055C387.4201,-226.0364 398.905,-199.7148 388,-179 379.0612,-162.0201 360.7107,-150.0989 345.4712,-142.6538"/>
<polygon fill="#191970" stroke="#191970" points="373.8396,-241.5889 371.301,-251.8751 379.7001,-245.4171 373.8396,-241.5889"/>
</g>
<!-- Node32&#45;&gt;Node31 -->
<g id="edge44" class="edge">
<title>Node32&#45;&gt;Node31</title>
<path fill="none" stroke="#191970" d="M342.3055,-217.6399C350.5266,-229.3748 358.7473,-242.9908 362.7397,-251.9005"/>
<polygon fill="#191970" stroke="#191970" points="345.1025,-215.5352 336.3796,-209.5218 339.4486,-219.6624 345.1025,-215.5352"/>
</g>
<!-- Node32&#45;&gt;Node33 -->
<g id="edge45" class="edge">
<title>Node32&#45;&gt;Node33</title>
<path fill="none" stroke="#191970" d="M321,-169.2849C321,-159.9858 321,-149.9883 321,-142.8469"/>
<polygon fill="#191970" stroke="#191970" points="317.5001,-169.2977 321,-179.2977 324.5001,-169.2978 317.5001,-169.2977"/>
</g>
<!-- Node34 -->
<g id="node35" class="node">
<title>Node34</title>
<g id="a_node35"><a xlink:href="sieve__gauss_8cpp.html" target="_top" xlink:title="fplll/sieve/sieve_gauss.cpp">
<polygon fill="#ffffff" stroke="#000000" points="187,-.5 187,-19.5 321,-19.5 321,-.5 187,-.5"/>
<text text-anchor="middle" x="254" y="-7.5" font-family="Helvetica,sans-Serif" font-size="10.00" fill="#000000">fplll/sieve/sieve_gauss.cpp</text>
</a>
</g>
</g>
<!-- Node33&#45;&gt;Node34 -->
<g id="edge46" class="edge">
<title>Node33&#45;&gt;Node34</title>
<path fill="none" stroke="#191970" d="M310.8114,-114.2956C296.3283,-87.7071 270.3169,-39.9549 259.233,-19.6068"/>
<polygon fill="#191970" stroke="#191970" points="307.8855,-116.241 315.7426,-123.3484 314.0326,-112.8925 307.8855,-116.241"/>
</g>
<!-- Node35 -->
<g id="node36" class="node">
<title>Node35</title>
<g id="a_node36"><a xlink:href="sieve__gauss__2sieve_8cpp.html" target="_top" xlink:title="fplll/sieve/sieve_gauss\l_2sieve.cpp">
<polygon fill="#ffffff" stroke="#000000" points="306,-56.5 306,-86.5 422,-86.5 422,-56.5 306,-56.5"/>
<text text-anchor="start" x="314" y="-74.5" font-family="Helvetica,sans-Serif" font-size="10.00" fill="#000000">fplll/sieve/sieve_gauss</text>
<text text-anchor="middle" x="364" y="-63.5" font-family="Helvetica,sans-Serif" font-size="10.00" fill="#000000">_2sieve.cpp</text>
</a>
</g>
</g>
<!-- Node33&#45;&gt;Node35 -->
<g id="edge47" class="edge">
<title>Node33&#45;&gt;Node35</title>
<path fill="none" stroke="#191970" d="M333.524,-115.0877C339.8566,-106.0307 347.4553,-95.1627 353.481,-86.5446"/>
<polygon fill="#191970" stroke="#191970" points="330.5805,-113.1896 327.7188,-123.3906 336.3174,-117.2007 330.5805,-113.1896"/>
</g>
<!-- Node36 -->
<g id="node37" class="node">
<title>Node36</title>
<g id="a_node37"><a xlink:href="sieve__gauss__3sieve_8cpp.html" target="_top" xlink:title="fplll/sieve/sieve_gauss\l_3sieve.cpp">
<polygon fill="#ffffff" stroke="#000000" points="0,-56.5 0,-86.5 116,-86.5 116,-56.5 0,-56.5"/>
<text text-anchor="start" x="8" y="-74.5" font-family="Helvetica,sans-Serif" font-size="10.00" fill="#000000">fplll/sieve/sieve_gauss</text>
<text text-anchor="middle" x="58" y="-63.5" font-family="Helvetica,sans-Serif" font-size="10.00" fill="#000000">_3sieve.cpp</text>
</a>
</g>
</g>
<!-- Node33&#45;&gt;Node36 -->
<g id="edge49" class="edge">
<title>Node33&#45;&gt;Node36</title>
<path fill="none" stroke="#191970" d="M270.2584,-121.1346C226.1184,-110.8129 162.1682,-95.8587 116.0109,-85.0653"/>
<polygon fill="#191970" stroke="#191970" points="269.6605,-124.5891 280.1948,-123.4581 271.2545,-117.773 269.6605,-124.5891"/>
</g>
<!-- Node37 -->
<g id="node38" class="node">
<title>Node37</title>
<g id="a_node38"><a xlink:href="sieve__gauss__4sieve_8cpp.html" target="_top" xlink:title="fplll/sieve/sieve_gauss\l_4sieve.cpp">
<polygon fill="#ffffff" stroke="#000000" points="134,-56.5 134,-86.5 250,-86.5 250,-56.5 134,-56.5"/>
<text text-anchor="start" x="142" y="-74.5" font-family="Helvetica,sans-Serif" font-size="10.00" fill="#000000">fplll/sieve/sieve_gauss</text>
<text text-anchor="middle" x="192" y="-63.5" font-family="Helvetica,sans-Serif" font-size="10.00" fill="#000000">_4sieve.cpp</text>
</a>
</g>
</g>
<!-- Node33&#45;&gt;Node37 -->
<g id="edge51" class="edge">
<title>Node33&#45;&gt;Node37</title>
<path fill="none" stroke="#191970" d="M291.7468,-119.0537C271.4243,-109.3651 244.3644,-96.4644 223.557,-86.5446"/>
<polygon fill="#191970" stroke="#191970" points="290.3109,-122.2465 300.8438,-123.3906 293.3233,-115.9278 290.3109,-122.2465"/>
</g>
<!-- Node38 -->
<g id="node39" class="node">
<title>Node38</title>
<g id="a_node39"><a xlink:href="sieve__main_8h.html" target="_top" xlink:title="fplll/sieve/sieve_main.h">
<polygon fill="#ffffff" stroke="#000000" points="440.5,-62 440.5,-81 559.5,-81 559.5,-62 440.5,-62"/>
<text text-anchor="middle" x="500" y="-69" font-family="Helvetica,sans-Serif" font-size="10.00" fill="#000000">fplll/sieve/sieve_main.h</text>
</a>
</g>
</g>
<!-- Node33&#45;&gt;Node38 -->
<g id="edge53" class="edge">
<title>Node33&#45;&gt;Node38</title>
<path fill="none" stroke="#191970" d="M358.5439,-120.1009C392.4935,-108.4366 441.7007,-91.5302 472.2276,-81.0419"/>
<polygon fill="#191970" stroke="#191970" points="357.2888,-116.8312 348.9688,-123.3906 359.5634,-123.4513 357.2888,-116.8312"/>
</g>
<!-- Node35&#45;&gt;Node34 -->
<g id="edge48" class="edge">
<title>Node35&#45;&gt;Node34</title>
<path fill="none" stroke="#191970" d="M328.2796,-51.5291C309.0716,-40.79 286.2719,-28.0429 271.0461,-19.5303"/>
<polygon fill="#191970" stroke="#191970" points="326.6545,-54.6303 337.091,-56.4554 330.0705,-48.5204 326.6545,-54.6303"/>
</g>
<!-- Node36&#45;&gt;Node34 -->
<g id="edge50" class="edge">
<title>Node36&#45;&gt;Node34</title>
<path fill="none" stroke="#191970" d="M115.678,-53.4021C151.0463,-42.3044 194.9015,-28.5437 223.627,-19.5303"/>
<polygon fill="#191970" stroke="#191970" points="114.4405,-50.122 105.947,-56.4554 116.5362,-56.801 114.4405,-50.122"/>
</g>
<!-- Node37&#45;&gt;Node34 -->
<g id="edge52" class="edge">
<title>Node37&#45;&gt;Node34</title>
<path fill="none" stroke="#191970" d="M214.7214,-48.9618C224.8171,-38.9475 236.1769,-27.6794 244.073,-19.8469"/>
<polygon fill="#191970" stroke="#191970" points="211.9607,-46.7705 207.3258,-56.2977 216.8904,-51.7402 211.9607,-46.7705"/>
</g>
<!-- Node38&#45;&gt;Node10 -->
<g id="edge54" class="edge">
<title>Node38&#45;&gt;Node10</title>
<path fill="none" stroke="#191970" d="M483.5958,-54.4007C472.8761,-43.2268 459.2618,-29.0356 450.3487,-19.7449"/>
<polygon fill="#191970" stroke="#191970" points="481.3327,-57.0974 490.7813,-61.8906 486.384,-52.2514 481.3327,-57.0974"/>
</g>
<!-- Node38&#45;&gt;Node17 -->
<g id="edge55" class="edge">
<title>Node38&#45;&gt;Node17</title>
<path fill="none" stroke="#191970" d="M519.934,-55.3692C533.9125,-44.0576 552.1419,-29.3062 563.9576,-19.7449"/>
<polygon fill="#191970" stroke="#191970" points="517.447,-52.8793 511.875,-61.8906 521.8504,-58.3209 517.447,-52.8793"/>
</g>
<!-- Node39&#45;&gt;Node14 -->
<g id="edge63" class="edge">
<title>Node39&#45;&gt;Node14</title>
<path fill="none" stroke="#191970" d="M1644.0695,-61.0666C1585.0217,-49.4274 1490.3158,-30.7594 1433.2408,-19.509"/>
<polygon fill="#191970" stroke="#191970" points="1643.4572,-64.5132 1653.9453,-63.0133 1644.811,-57.6453 1643.4572,-64.5132"/>
</g>
<!-- Node39&#45;&gt;Node20 -->
<g id="edge62" class="edge">
<title>Node39&#45;&gt;Node20</title>
<path fill="none" stroke="#191970" d="M1678.0068,-55.0482C1664.9978,-43.7798 1648.1843,-29.216 1637.2502,-19.7449"/>
<polygon fill="#191970" stroke="#191970" points="1676.056,-57.9888 1685.9063,-61.8906 1680.6391,-52.6978 1676.056,-57.9888"/>
</g>
<!-- Node40 -->
<g id="node41" class="node">
<title>Node40</title>
<g id="a_node41"><a xlink:href="gso__gram_8cpp.html" target="_top" xlink:title="fplll/gso_gram.cpp">
<polygon fill="#ffffff" stroke="#000000" points="1693,-.5 1693,-19.5 1789,-19.5 1789,-.5 1693,-.5"/>
<text text-anchor="middle" x="1741" y="-7.5" font-family="Helvetica,sans-Serif" font-size="10.00" fill="#000000">fplll/gso_gram.cpp</text>
</a>
</g>
</g>
<!-- Node39&#45;&gt;Node40 -->
<g id="edge61" class="edge">
<title>Node39&#45;&gt;Node40</title>
<path fill="none" stroke="#191970" d="M1709.7017,-53.7465C1717.621,-42.6775 1727.5101,-28.8552 1734.0281,-19.7449"/>
<polygon fill="#191970" stroke="#191970" points="1706.8472,-51.7212 1703.875,-61.8906 1712.5402,-55.7943 1706.8472,-51.7212"/>
</g>
</g>
</svg>
