<?xml version="1.0" encoding="UTF-8" standalone="no"?>
<!DOCTYPE svg PUBLIC "-//W3C//DTD SVG 1.1//EN"
 "http://www.w3.org/Graphics/SVG/1.1/DTD/svg11.dtd">
<!-- Generated by graphviz version 2.38.0 (20140413.2041)
 -->
<!-- Title: fplll/gso_gram.h Pages: 1 -->
<svg width="354pt" height="84pt"
 viewBox="0.00 0.00 354.00 84.00" xmlns="http://www.w3.org/2000/svg" xmlns:xlink="http://www.w3.org/1999/xlink">
<g id="graph0" class="graph" transform="scale(1 1) rotate(0) translate(4 80)">
<title>fplll/gso_gram.h</title>
<polygon fill="white" stroke="none" points="-4,4 -4,-80 350,-80 350,4 -4,4"/>
<!-- Node0 -->
<g id="node1" class="node"><title>Node0</title>
<polygon fill="#bfbfbf" stroke="black" points="120,-56.5 120,-75.5 206,-75.5 206,-56.5 120,-56.5"/>
<text text-anchor="middle" x="163" y="-63.5" font-family="Helvetica,sans-Serif" font-size="10.00">fplll/gso_gram.h</text>
</g>
<!-- Node1 -->
<g id="node2" class="node"><title>Node1</title>
<g id="a_node2"><a xlink:href="gso__gram_8cpp.html" target="_top" xlink:title="fplll/gso_gram.cpp">
<polygon fill="white" stroke="black" points="0,-0.5 0,-19.5 96,-19.5 96,-0.5 0,-0.5"/>
<text text-anchor="middle" x="48" y="-7.5" font-family="Helvetica,sans-Serif" font-size="10.00">fplll/gso_gram.cpp</text>
</a>
</g>
</g>
<!-- Node0&#45;&gt;Node1 -->
<g id="edge1" class="edge"><title>Node0&#45;&gt;Node1</title>
<path fill="none" stroke="midnightblue" d="M135.519,-52.096C114.034,-42.0073 84.7781,-28.2697 66.1368,-19.5164"/>
<polygon fill="midnightblue" stroke="midnightblue" points="134.238,-55.3612 144.778,-56.4435 137.214,-49.025 134.238,-55.3612"/>
</g>
<!-- Node2 -->
<g id="node3" class="node"><title>Node2</title>
<g id="a_node3"><a xlink:href="test__gso_8cpp.html" target="_top" xlink:title="tests/test_gso.cpp">
<polygon fill="white" stroke="black" points="114,-0.5 114,-19.5 212,-19.5 212,-0.5 114,-0.5"/>
<text text-anchor="middle" x="163" y="-7.5" font-family="Helvetica,sans-Serif" font-size="10.00">tests/test_gso.cpp</text>
</a>
</g>
</g>
<!-- Node0&#45;&gt;Node2 -->
<g id="edge2" class="edge"><title>Node0&#45;&gt;Node2</title>
<path fill="none" stroke="midnightblue" d="M163,-45.8045C163,-36.9102 163,-26.7798 163,-19.7511"/>
<polygon fill="midnightblue" stroke="midnightblue" points="159.5,-46.083 163,-56.083 166.5,-46.083 159.5,-46.083"/>
</g>
<!-- Node3 -->
<g id="node4" class="node"><title>Node3</title>
<g id="a_node4"><a xlink:href="test__lll__gram_8cpp.html" target="_top" xlink:title="tests/test_lll_gram.cpp">
<polygon fill="white" stroke="black" points="230,-0.5 230,-19.5 346,-19.5 346,-0.5 230,-0.5"/>
<text text-anchor="middle" x="288" y="-7.5" font-family="Helvetica,sans-Serif" font-size="10.00">tests/test_lll_gram.cpp</text>
</a>
</g>
</g>
<!-- Node0&#45;&gt;Node3 -->
<g id="edge3" class="edge"><title>Node0&#45;&gt;Node3</title>
<path fill="none" stroke="midnightblue" d="M192.241,-52.3678C215.65,-42.2553 247.841,-28.3486 268.286,-19.5164"/>
<polygon fill="midnightblue" stroke="midnightblue" points="190.599,-49.2647 182.807,-56.4435 193.375,-55.6907 190.599,-49.2647"/>
</g>
</g>
</svg>
