<?xml version="1.0" encoding="UTF-8" standalone="no"?>
<!DOCTYPE svg PUBLIC "-//W3C//DTD SVG 1.1//EN"
 "http://www.w3.org/Graphics/SVG/1.1/DTD/svg11.dtd">
<!-- Generated by graphviz version 2.43.0 (0)
 -->
<!-- Title: fplll/gso_gram.h Pages: 1 -->
<svg width="2005pt" height="207pt"
 viewBox="0.00 0.00 2005.00 207.00" xmlns="http://www.w3.org/2000/svg" xmlns:xlink="http://www.w3.org/1999/xlink">
<g id="graph0" class="graph" transform="scale(1 1) rotate(0) translate(4 203)">
<title>fplll/gso_gram.h</title>
<polygon fill="white" stroke="transparent" points="-4,4 -4,-203 2001,-203 2001,4 -4,4"/>
<!-- Node1 -->
<g id="node1" class="node">
<title>Node1</title>
<g id="a_node1"><a xlink:title=" ">
<polygon fill="#bfbfbf" stroke="black" points="1665,-179.5 1665,-198.5 1751,-198.5 1751,-179.5 1665,-179.5"/>
<text text-anchor="middle" x="1708" y="-186.5" font-family="Helvetica,sans-Serif" font-size="10.00">fplll/gso_gram.h</text>
</a>
</g>
</g>
<!-- Node2 -->
<g id="node2" class="node">
<title>Node2</title>
<g id="a_node2"><a xlink:href="fplll_8h.html" target="_top" xlink:title=" ">
<polygon fill="white" stroke="black" points="925,-123.5 925,-142.5 983,-142.5 983,-123.5 925,-123.5"/>
<text text-anchor="middle" x="954" y="-130.5" font-family="Helvetica,sans-Serif" font-size="10.00">fplll/fplll.h</text>
</a>
</g>
</g>
<!-- Node1&#45;&gt;Node2 -->
<g id="edge1" class="edge">
<title>Node1&#45;&gt;Node2</title>
<path fill="none" stroke="midnightblue" d="M1654.58,-184.17C1506.88,-173.6 1096.47,-144.2 983.25,-136.09"/>
<polygon fill="midnightblue" stroke="midnightblue" points="1654.53,-187.68 1664.75,-184.9 1655.03,-180.7 1654.53,-187.68"/>
</g>
<!-- Node14 -->
<g id="node14" class="node">
<title>Node14</title>
<g id="a_node14"><a xlink:href="test__bkz__gram_8cpp.html" target="_top" xlink:title=" ">
<polygon fill="white" stroke="black" points="1385.5,-0.5 1385.5,-19.5 1510.5,-19.5 1510.5,-0.5 1385.5,-0.5"/>
<text text-anchor="middle" x="1448" y="-7.5" font-family="Helvetica,sans-Serif" font-size="10.00">tests/test_bkz_gram.cpp</text>
</a>
</g>
</g>
<!-- Node1&#45;&gt;Node14 -->
<g id="edge42" class="edge">
<title>Node1&#45;&gt;Node14</title>
<path fill="none" stroke="midnightblue" d="M1687.05,-173.73C1635.26,-138.48 1502.42,-48.04 1460.72,-19.66"/>
<polygon fill="midnightblue" stroke="midnightblue" points="1685.22,-176.73 1695.46,-179.46 1689.16,-170.94 1685.22,-176.73"/>
</g>
<!-- Node20 -->
<g id="node20" class="node">
<title>Node20</title>
<g id="a_node20"><a xlink:href="test__lll__gram_8cpp.html" target="_top" xlink:title=" ">
<polygon fill="white" stroke="black" points="1529,-0.5 1529,-19.5 1645,-19.5 1645,-0.5 1529,-0.5"/>
<text text-anchor="middle" x="1587" y="-7.5" font-family="Helvetica,sans-Serif" font-size="10.00">tests/test_lll_gram.cpp</text>
</a>
</g>
</g>
<!-- Node1&#45;&gt;Node20 -->
<g id="edge44" class="edge">
<title>Node1&#45;&gt;Node20</title>
<path fill="none" stroke="midnightblue" d="M1696.24,-170.79C1670.94,-133.78 1612.1,-47.72 1593.06,-19.87"/>
<polygon fill="midnightblue" stroke="midnightblue" points="1693.63,-173.18 1702.16,-179.46 1699.41,-169.23 1693.63,-173.18"/>
</g>
<!-- Node24 -->
<g id="node24" class="node">
<title>Node24</title>
<g id="a_node24"><a xlink:href="test__svp__gram_8cpp.html" target="_top" xlink:title=" ">
<polygon fill="white" stroke="black" points="1663.5,-0.5 1663.5,-19.5 1788.5,-19.5 1788.5,-0.5 1663.5,-0.5"/>
<text text-anchor="middle" x="1726" y="-7.5" font-family="Helvetica,sans-Serif" font-size="10.00">tests/test_svp_gram.cpp</text>
</a>
</g>
</g>
<!-- Node1&#45;&gt;Node24 -->
<g id="edge45" class="edge">
<title>Node1&#45;&gt;Node24</title>
<path fill="none" stroke="midnightblue" d="M1717.55,-170.48C1727.68,-150.83 1743.01,-117.68 1749,-87 1751.64,-73.48 1752.22,-69.4 1749,-56 1745.76,-42.52 1737.75,-28.54 1732.1,-19.81"/>
<polygon fill="midnightblue" stroke="midnightblue" points="1714.4,-168.96 1712.81,-179.44 1720.58,-172.24 1714.4,-168.96"/>
</g>
<!-- Node26 -->
<g id="node26" class="node">
<title>Node26</title>
<g id="a_node26"><a xlink:href="test__gso_8cpp.html" target="_top" xlink:title=" ">
<polygon fill="white" stroke="black" points="1807,-0.5 1807,-19.5 1905,-19.5 1905,-0.5 1807,-0.5"/>
<text text-anchor="middle" x="1856" y="-7.5" font-family="Helvetica,sans-Serif" font-size="10.00">tests/test_gso.cpp</text>
</a>
</g>
</g>
<!-- Node1&#45;&gt;Node26 -->
<g id="edge43" class="edge">
<title>Node1&#45;&gt;Node26</title>
<path fill="none" stroke="midnightblue" d="M1723.18,-171.8C1731.01,-163.33 1740.65,-152.72 1749,-143 1788.04,-97.59 1832.45,-41.19 1849.16,-19.79"/>
<polygon fill="midnightblue" stroke="midnightblue" points="1720.57,-169.46 1716.32,-179.17 1725.69,-174.23 1720.57,-169.46"/>
</g>
<!-- Node27 -->
<g id="node27" class="node">
<title>Node27</title>
<g id="a_node27"><a xlink:href="gso__gram_8cpp.html" target="_top" xlink:title=" ">
<polygon fill="white" stroke="black" points="1834,-123.5 1834,-142.5 1930,-142.5 1930,-123.5 1834,-123.5"/>
<text text-anchor="middle" x="1882" y="-130.5" font-family="Helvetica,sans-Serif" font-size="10.00">fplll/gso_gram.cpp</text>
</a>
</g>
</g>
<!-- Node1&#45;&gt;Node27 -->
<g id="edge41" class="edge">
<title>Node1&#45;&gt;Node27</title>
<path fill="none" stroke="midnightblue" d="M1745.26,-176.44C1778.07,-166.26 1825.08,-151.66 1854.56,-142.52"/>
<polygon fill="midnightblue" stroke="midnightblue" points="1744.08,-173.14 1735.57,-179.44 1746.16,-179.82 1744.08,-173.14"/>
</g>
<!-- Node3 -->
<g id="node3" class="node">
<title>Node3</title>
<g id="a_node3"><a xlink:href="fplll_8cpp.html" target="_top" xlink:title=" ">
<polygon fill="white" stroke="black" points="1400,-62 1400,-81 1468,-81 1468,-62 1400,-62"/>
<text text-anchor="middle" x="1434" y="-69" font-family="Helvetica,sans-Serif" font-size="10.00">fplll/fplll.cpp</text>
</a>
</g>
</g>
<!-- Node2&#45;&gt;Node3 -->
<g id="edge2" class="edge">
<title>Node2&#45;&gt;Node3</title>
<path fill="none" stroke="midnightblue" d="M993.21,-130.4C1069.52,-126.75 1243.03,-115.77 1386,-87 1393.51,-85.49 1401.53,-83.3 1408.82,-81.09"/>
<polygon fill="midnightblue" stroke="midnightblue" points="992.93,-126.91 983.1,-130.87 993.25,-133.91 992.93,-126.91"/>
</g>
<!-- Node4 -->
<g id="node4" class="node">
<title>Node4</title>
<g id="a_node4"><a xlink:href="main_8h.html" target="_top" xlink:title=" ">
<polygon fill="white" stroke="black" points="1676,-62 1676,-81 1740,-81 1740,-62 1676,-62"/>
<text text-anchor="middle" x="1708" y="-69" font-family="Helvetica,sans-Serif" font-size="10.00">fplll/main.h</text>
</a>
</g>
</g>
<!-- Node2&#45;&gt;Node4 -->
<g id="edge3" class="edge">
<title>Node2&#45;&gt;Node4</title>
<path fill="none" stroke="midnightblue" d="M993.46,-130.78C1097.12,-127.27 1385.59,-115.51 1624,-87 1641.19,-84.94 1660.22,-81.74 1675.8,-78.86"/>
<polygon fill="midnightblue" stroke="midnightblue" points="993.04,-127.29 983.16,-131.12 993.27,-134.29 993.04,-127.29"/>
</g>
<!-- Node6 -->
<g id="node6" class="node">
<title>Node6</title>
<g id="a_node6"><a xlink:href="pruner_8cpp.html" target="_top" xlink:title=" ">
<polygon fill="white" stroke="black" points="285,-0.5 285,-19.5 395,-19.5 395,-0.5 285,-0.5"/>
<text text-anchor="middle" x="340" y="-7.5" font-family="Helvetica,sans-Serif" font-size="10.00">fplll/pruner/pruner.cpp</text>
</a>
</g>
</g>
<!-- Node2&#45;&gt;Node6 -->
<g id="edge5" class="edge">
<title>Node2&#45;&gt;Node6</title>
<path fill="none" stroke="midnightblue" d="M914.65,-131.65C788.73,-130.17 401.37,-122.73 359,-87 339.04,-70.16 338.33,-35.83 339.23,-19.72"/>
<polygon fill="midnightblue" stroke="midnightblue" points="914.94,-135.15 924.98,-131.76 915.02,-128.15 914.94,-135.15"/>
</g>
<!-- Node7 -->
<g id="node7" class="node">
<title>Node7</title>
<g id="a_node7"><a xlink:href="pruner__cost_8cpp.html" target="_top" xlink:title=" ">
<polygon fill="white" stroke="black" points="368,-56.5 368,-86.5 460,-86.5 460,-56.5 368,-56.5"/>
<text text-anchor="start" x="376" y="-74.5" font-family="Helvetica,sans-Serif" font-size="10.00">fplll/pruner/pruner</text>
<text text-anchor="middle" x="414" y="-63.5" font-family="Helvetica,sans-Serif" font-size="10.00">_cost.cpp</text>
</a>
</g>
</g>
<!-- Node2&#45;&gt;Node7 -->
<g id="edge6" class="edge">
<title>Node2&#45;&gt;Node7</title>
<path fill="none" stroke="midnightblue" d="M914.57,-130.55C831.56,-127.01 632.93,-116.01 469,-87 466.08,-86.48 463.09,-85.89 460.09,-85.24"/>
<polygon fill="midnightblue" stroke="midnightblue" points="914.67,-134.06 924.8,-130.97 914.96,-127.06 914.67,-134.06"/>
</g>
<!-- Node8 -->
<g id="node8" class="node">
<title>Node8</title>
<g id="a_node8"><a xlink:href="pruner__optimize_8cpp.html" target="_top" xlink:title=" ">
<polygon fill="white" stroke="black" points="478,-56.5 478,-86.5 570,-86.5 570,-56.5 478,-56.5"/>
<text text-anchor="start" x="486" y="-74.5" font-family="Helvetica,sans-Serif" font-size="10.00">fplll/pruner/pruner</text>
<text text-anchor="middle" x="524" y="-63.5" font-family="Helvetica,sans-Serif" font-size="10.00">_optimize.cpp</text>
</a>
</g>
</g>
<!-- Node2&#45;&gt;Node8 -->
<g id="edge8" class="edge">
<title>Node2&#45;&gt;Node8</title>
<path fill="none" stroke="midnightblue" d="M914.25,-129.05C845.48,-123.54 700.05,-110.11 579,-87 576.09,-86.44 573.11,-85.82 570.11,-85.15"/>
<polygon fill="midnightblue" stroke="midnightblue" points="914.37,-132.57 924.61,-129.87 914.92,-125.59 914.37,-132.57"/>
</g>
<!-- Node9 -->
<g id="node9" class="node">
<title>Node9</title>
<g id="a_node9"><a xlink:href="pruner__optimize__tc_8cpp.html" target="_top" xlink:title=" ">
<polygon fill="white" stroke="black" points="588,-56.5 588,-86.5 680,-86.5 680,-56.5 588,-56.5"/>
<text text-anchor="start" x="596" y="-74.5" font-family="Helvetica,sans-Serif" font-size="10.00">fplll/pruner/pruner</text>
<text text-anchor="middle" x="634" y="-63.5" font-family="Helvetica,sans-Serif" font-size="10.00">_optimize_tc.cpp</text>
</a>
</g>
</g>
<!-- Node2&#45;&gt;Node9 -->
<g id="edge10" class="edge">
<title>Node2&#45;&gt;Node9</title>
<path fill="none" stroke="midnightblue" d="M914.71,-126.45C862.78,-118.87 768.58,-104.21 689,-87 686.1,-86.37 683.13,-85.7 680.14,-84.99"/>
<polygon fill="midnightblue" stroke="midnightblue" points="914.42,-129.95 924.82,-127.92 915.43,-123.02 914.42,-129.95"/>
</g>
<!-- Node10 -->
<g id="node10" class="node">
<title>Node10</title>
<g id="a_node10"><a xlink:href="pruner__optimize__tp_8cpp.html" target="_top" xlink:title=" ">
<polygon fill="white" stroke="black" points="0,-56.5 0,-86.5 92,-86.5 92,-56.5 0,-56.5"/>
<text text-anchor="start" x="8" y="-74.5" font-family="Helvetica,sans-Serif" font-size="10.00">fplll/pruner/pruner</text>
<text text-anchor="middle" x="46" y="-63.5" font-family="Helvetica,sans-Serif" font-size="10.00">_optimize_tp.cpp</text>
</a>
</g>
</g>
<!-- Node2&#45;&gt;Node10 -->
<g id="edge12" class="edge">
<title>Node2&#45;&gt;Node10</title>
<path fill="none" stroke="midnightblue" d="M914.33,-130.99C768.31,-127.09 260.91,-112.03 101,-87 98.07,-86.54 95.08,-85.99 92.07,-85.38"/>
<polygon fill="midnightblue" stroke="midnightblue" points="914.51,-134.49 924.6,-131.26 914.7,-127.5 914.51,-134.49"/>
</g>
<!-- Node11 -->
<g id="node11" class="node">
<title>Node11</title>
<g id="a_node11"><a xlink:href="pruner__prob_8cpp.html" target="_top" xlink:title=" ">
<polygon fill="white" stroke="black" points="110,-56.5 110,-86.5 202,-86.5 202,-56.5 110,-56.5"/>
<text text-anchor="start" x="118" y="-74.5" font-family="Helvetica,sans-Serif" font-size="10.00">fplll/pruner/pruner</text>
<text text-anchor="middle" x="156" y="-63.5" font-family="Helvetica,sans-Serif" font-size="10.00">_prob.cpp</text>
</a>
</g>
</g>
<!-- Node2&#45;&gt;Node11 -->
<g id="edge14" class="edge">
<title>Node2&#45;&gt;Node11</title>
<path fill="none" stroke="midnightblue" d="M914.66,-132.34C803.41,-132.7 477.38,-129.75 211,-87 208.07,-86.53 205.08,-85.97 202.07,-85.35"/>
<polygon fill="midnightblue" stroke="midnightblue" points="914.76,-135.84 924.74,-132.29 914.73,-128.84 914.76,-135.84"/>
</g>
<!-- Node12 -->
<g id="node12" class="node">
<title>Node12</title>
<g id="a_node12"><a xlink:href="pruner__util_8cpp.html" target="_top" xlink:title=" ">
<polygon fill="white" stroke="black" points="220,-56.5 220,-86.5 312,-86.5 312,-56.5 220,-56.5"/>
<text text-anchor="start" x="228" y="-74.5" font-family="Helvetica,sans-Serif" font-size="10.00">fplll/pruner/pruner</text>
<text text-anchor="middle" x="266" y="-63.5" font-family="Helvetica,sans-Serif" font-size="10.00">_util.cpp</text>
</a>
</g>
</g>
<!-- Node2&#45;&gt;Node12 -->
<g id="edge16" class="edge">
<title>Node2&#45;&gt;Node12</title>
<path fill="none" stroke="midnightblue" d="M914.51,-131.44C815.1,-129.52 546.67,-121.33 326,-87 321.45,-86.29 316.73,-85.41 312.03,-84.44"/>
<polygon fill="midnightblue" stroke="midnightblue" points="914.63,-134.94 924.7,-131.62 914.76,-127.94 914.63,-134.94"/>
</g>
<!-- Node13 -->
<g id="node13" class="node">
<title>Node13</title>
<g id="a_node13"><a xlink:href="test__bkz_8cpp.html" target="_top" xlink:title=" ">
<polygon fill="white" stroke="black" points="694,-0.5 694,-19.5 792,-19.5 792,-0.5 694,-0.5"/>
<text text-anchor="middle" x="743" y="-7.5" font-family="Helvetica,sans-Serif" font-size="10.00">tests/test_bkz.cpp</text>
</a>
</g>
</g>
<!-- Node2&#45;&gt;Node13 -->
<g id="edge18" class="edge">
<title>Node2&#45;&gt;Node13</title>
<path fill="none" stroke="midnightblue" d="M930.37,-118.45C886.67,-93.39 794.38,-40.47 758.1,-19.66"/>
<polygon fill="midnightblue" stroke="midnightblue" points="928.75,-121.55 939.16,-123.49 932.23,-115.48 928.75,-121.55"/>
</g>
<!-- Node2&#45;&gt;Node14 -->
<g id="edge19" class="edge">
<title>Node2&#45;&gt;Node14</title>
<path fill="none" stroke="midnightblue" d="M993.53,-131.6C1109.78,-130.03 1444.47,-122.45 1477,-87 1495.14,-67.23 1470.38,-34.94 1456.41,-19.61"/>
<polygon fill="midnightblue" stroke="midnightblue" points="993.25,-128.11 983.29,-131.73 993.34,-135.11 993.25,-128.11"/>
</g>
<!-- Node15 -->
<g id="node15" class="node">
<title>Node15</title>
<g id="a_node15"><a xlink:href="test__counter_8cpp.html" target="_top" xlink:title=" ">
<polygon fill="white" stroke="black" points="698.5,-62 698.5,-81 811.5,-81 811.5,-62 698.5,-62"/>
<text text-anchor="middle" x="755" y="-69" font-family="Helvetica,sans-Serif" font-size="10.00">tests/test_counter.cpp</text>
</a>
</g>
</g>
<!-- Node2&#45;&gt;Node15 -->
<g id="edge20" class="edge">
<title>Node2&#45;&gt;Node15</title>
<path fill="none" stroke="midnightblue" d="M915.63,-120.53C876.96,-108.96 818.16,-91.38 783.46,-81.01"/>
<polygon fill="midnightblue" stroke="midnightblue" points="914.9,-123.96 925.49,-123.48 916.91,-117.26 914.9,-123.96"/>
</g>
<!-- Node16 -->
<g id="node16" class="node">
<title>Node16</title>
<g id="a_node16"><a xlink:href="test__cvp_8cpp.html" target="_top" xlink:title=" ">
<polygon fill="white" stroke="black" points="810,-0.5 810,-19.5 908,-19.5 908,-0.5 810,-0.5"/>
<text text-anchor="middle" x="859" y="-7.5" font-family="Helvetica,sans-Serif" font-size="10.00">tests/test_cvp.cpp</text>
</a>
</g>
</g>
<!-- Node2&#45;&gt;Node16 -->
<g id="edge21" class="edge">
<title>Node2&#45;&gt;Node16</title>
<path fill="none" stroke="midnightblue" d="M940.73,-115.09C920.17,-88.91 881.39,-39.52 865.77,-19.62"/>
<polygon fill="midnightblue" stroke="midnightblue" points="938.24,-117.59 947.17,-123.3 943.75,-113.27 938.24,-117.59"/>
</g>
<!-- Node17 -->
<g id="node17" class="node">
<title>Node17</title>
<g id="a_node17"><a xlink:href="test__enum_8cpp.html" target="_top" xlink:title=" ">
<polygon fill="white" stroke="black" points="926,-0.5 926,-19.5 1032,-19.5 1032,-0.5 926,-0.5"/>
<text text-anchor="middle" x="979" y="-7.5" font-family="Helvetica,sans-Serif" font-size="10.00">tests/test_enum.cpp</text>
</a>
</g>
</g>
<!-- Node2&#45;&gt;Node17 -->
<g id="edge22" class="edge">
<title>Node2&#45;&gt;Node17</title>
<path fill="none" stroke="midnightblue" d="M945.31,-113.75C939.07,-98.05 932.91,-75 940,-56 945.56,-41.08 958.55,-27.83 968.01,-19.63"/>
<polygon fill="midnightblue" stroke="midnightblue" points="942.27,-115.54 949.48,-123.3 948.69,-112.74 942.27,-115.54"/>
</g>
<!-- Node18 -->
<g id="node18" class="node">
<title>Node18</title>
<g id="a_node18"><a xlink:href="test__hlll_8cpp.html" target="_top" xlink:title=" ">
<polygon fill="white" stroke="black" points="1050,-0.5 1050,-19.5 1144,-19.5 1144,-0.5 1050,-0.5"/>
<text text-anchor="middle" x="1097" y="-7.5" font-family="Helvetica,sans-Serif" font-size="10.00">tests/test_hlll.cpp</text>
</a>
</g>
</g>
<!-- Node2&#45;&gt;Node18 -->
<g id="edge23" class="edge">
<title>Node2&#45;&gt;Node18</title>
<path fill="none" stroke="midnightblue" d="M955.4,-112.92C957.62,-95.96 963.32,-71.52 978,-56 996.82,-36.1 1025.33,-24.92 1049.72,-18.68"/>
<polygon fill="midnightblue" stroke="midnightblue" points="951.88,-112.96 954.36,-123.26 958.85,-113.66 951.88,-112.96"/>
</g>
<!-- Node19 -->
<g id="node19" class="node">
<title>Node19</title>
<g id="a_node19"><a xlink:href="test__lll_8cpp.html" target="_top" xlink:title=" ">
<polygon fill="white" stroke="black" points="1162.5,-0.5 1162.5,-19.5 1251.5,-19.5 1251.5,-0.5 1162.5,-0.5"/>
<text text-anchor="middle" x="1207" y="-7.5" font-family="Helvetica,sans-Serif" font-size="10.00">tests/test_lll.cpp</text>
</a>
</g>
</g>
<!-- Node2&#45;&gt;Node19 -->
<g id="edge24" class="edge">
<title>Node2&#45;&gt;Node19</title>
<path fill="none" stroke="midnightblue" d="M962.61,-114.19C972.04,-96.64 988.81,-70.43 1011,-56 1023.66,-47.77 1108.72,-30.11 1162.54,-19.53"/>
<polygon fill="midnightblue" stroke="midnightblue" points="959.36,-112.86 957.93,-123.36 965.59,-116.05 959.36,-112.86"/>
</g>
<!-- Node2&#45;&gt;Node20 -->
<g id="edge25" class="edge">
<title>Node2&#45;&gt;Node20</title>
<path fill="none" stroke="midnightblue" d="M993.48,-131.76C1102.21,-130.6 1403.98,-124.07 1495,-87 1532.22,-71.84 1565.86,-36.01 1579.98,-19.55"/>
<polygon fill="midnightblue" stroke="midnightblue" points="993.24,-128.26 983.27,-131.85 993.31,-135.26 993.24,-128.26"/>
</g>
<!-- Node21 -->
<g id="node21" class="node">
<title>Node21</title>
<g id="a_node21"><a xlink:href="test__nr_8cpp.html" target="_top" xlink:title=" ">
<polygon fill="white" stroke="black" points="1020.5,-62 1020.5,-81 1109.5,-81 1109.5,-62 1020.5,-62"/>
<text text-anchor="middle" x="1065" y="-69" font-family="Helvetica,sans-Serif" font-size="10.00">tests/test_nr.cpp</text>
</a>
</g>
</g>
<!-- Node2&#45;&gt;Node21 -->
<g id="edge26" class="edge">
<title>Node2&#45;&gt;Node21</title>
<path fill="none" stroke="midnightblue" d="M978.79,-118.71C1000.29,-107.19 1030.76,-90.86 1049.13,-81.01"/>
<polygon fill="midnightblue" stroke="midnightblue" points="977.06,-115.67 969.9,-123.48 980.37,-121.84 977.06,-115.67"/>
</g>
<!-- Node22 -->
<g id="node22" class="node">
<title>Node22</title>
<g id="a_node22"><a xlink:href="test__pruner_8cpp.html" target="_top" xlink:title=" ">
<polygon fill="white" stroke="black" points="1128,-62 1128,-81 1236,-81 1236,-62 1128,-62"/>
<text text-anchor="middle" x="1182" y="-69" font-family="Helvetica,sans-Serif" font-size="10.00">tests/test_pruner.cpp</text>
</a>
</g>
</g>
<!-- Node2&#45;&gt;Node22 -->
<g id="edge27" class="edge">
<title>Node2&#45;&gt;Node22</title>
<path fill="none" stroke="midnightblue" d="M993.11,-121.79C1037.11,-110.31 1107.8,-91.86 1149.08,-81.09"/>
<polygon fill="midnightblue" stroke="midnightblue" points="992.13,-118.43 983.34,-124.34 993.9,-125.2 992.13,-118.43"/>
</g>
<!-- Node23 -->
<g id="node23" class="node">
<title>Node23</title>
<g id="a_node23"><a xlink:href="test__svp_8cpp.html" target="_top" xlink:title=" ">
<polygon fill="white" stroke="black" points="1269,-0.5 1269,-19.5 1367,-19.5 1367,-0.5 1269,-0.5"/>
<text text-anchor="middle" x="1318" y="-7.5" font-family="Helvetica,sans-Serif" font-size="10.00">tests/test_svp.cpp</text>
</a>
</g>
</g>
<!-- Node2&#45;&gt;Node23 -->
<g id="edge28" class="edge">
<title>Node2&#45;&gt;Node23</title>
<path fill="none" stroke="midnightblue" d="M993.19,-130.48C1088.87,-126.36 1328.33,-113.49 1352,-87 1370.1,-66.73 1343.28,-35.25 1327.75,-19.95"/>
<polygon fill="midnightblue" stroke="midnightblue" points="992.9,-126.99 983.05,-130.9 993.19,-133.98 992.9,-126.99"/>
</g>
<!-- Node2&#45;&gt;Node24 -->
<g id="edge29" class="edge">
<title>Node2&#45;&gt;Node24</title>
<path fill="none" stroke="midnightblue" d="M993.41,-130.46C1106.38,-125.82 1429.85,-110.76 1533,-87 1600.9,-71.36 1676.42,-35.94 1709.25,-19.58"/>
<polygon fill="midnightblue" stroke="midnightblue" points="993,-126.98 983.15,-130.88 993.28,-133.97 993,-126.98"/>
</g>
<!-- Node25 -->
<g id="node25" class="node">
<title>Node25</title>
<g id="a_node25"><a xlink:href="test__utils_8h.html" target="_top" xlink:title=" ">
<polygon fill="white" stroke="black" points="1254.5,-62 1254.5,-81 1343.5,-81 1343.5,-62 1254.5,-62"/>
<text text-anchor="middle" x="1299" y="-69" font-family="Helvetica,sans-Serif" font-size="10.00">tests/test_utils.h</text>
</a>
</g>
</g>
<!-- Node2&#45;&gt;Node25 -->
<g id="edge30" class="edge">
<title>Node2&#45;&gt;Node25</title>
<path fill="none" stroke="midnightblue" d="M993.32,-127.3C1049.47,-120.28 1155.71,-105.83 1245,-87 1252.98,-85.32 1261.53,-83.18 1269.43,-81.06"/>
<polygon fill="midnightblue" stroke="midnightblue" points="992.6,-123.86 983.1,-128.57 993.46,-130.81 992.6,-123.86"/>
</g>
<!-- Node5 -->
<g id="node5" class="node">
<title>Node5</title>
<g id="a_node5"><a xlink:href="main_8cpp.html" target="_top" xlink:title=" ">
<polygon fill="white" stroke="black" points="1923,-0.5 1923,-19.5 1997,-19.5 1997,-0.5 1923,-0.5"/>
<text text-anchor="middle" x="1960" y="-7.5" font-family="Helvetica,sans-Serif" font-size="10.00">fplll/main.cpp</text>
</a>
</g>
</g>
<!-- Node4&#45;&gt;Node5 -->
<g id="edge4" class="edge">
<title>Node4&#45;&gt;Node5</title>
<path fill="none" stroke="midnightblue" d="M1750.07,-60.57C1798.72,-49.08 1878.01,-30.36 1923.95,-19.51"/>
<polygon fill="midnightblue" stroke="midnightblue" points="1749.1,-57.2 1740.17,-62.9 1750.71,-64.01 1749.1,-57.2"/>
</g>
<!-- Node7&#45;&gt;Node6 -->
<g id="edge7" class="edge">
<title>Node7&#45;&gt;Node6</title>
<path fill="none" stroke="midnightblue" d="M388.37,-49.89C375.5,-39.54 360.59,-27.56 350.77,-19.66"/>
<polygon fill="midnightblue" stroke="midnightblue" points="386.48,-52.86 396.46,-56.4 390.86,-47.41 386.48,-52.86"/>
</g>
<!-- Node8&#45;&gt;Node6 -->
<g id="edge9" class="edge">
<title>Node8&#45;&gt;Node6</title>
<path fill="none" stroke="midnightblue" d="M470.56,-53.22C436.4,-42.17 393.59,-28.33 366.51,-19.57"/>
<polygon fill="midnightblue" stroke="midnightblue" points="469.8,-56.65 480.39,-56.4 471.96,-49.99 469.8,-56.65"/>
</g>
<!-- Node9&#45;&gt;Node6 -->
<g id="edge11" class="edge">
<title>Node9&#45;&gt;Node6</title>
<path fill="none" stroke="midnightblue" d="M577.96,-55.85C507.86,-40.25 437.39,-27.5 391.04,-19.52"/>
<polygon fill="midnightblue" stroke="midnightblue" points="577.32,-59.3 587.85,-58.08 578.86,-52.47 577.32,-59.3"/>
</g>
<!-- Node10&#45;&gt;Node6 -->
<g id="edge13" class="edge">
<title>Node10&#45;&gt;Node6</title>
<path fill="none" stroke="midnightblue" d="M102.04,-55.85C172.14,-40.25 242.61,-27.5 288.96,-19.52"/>
<polygon fill="midnightblue" stroke="midnightblue" points="101.14,-52.47 92.15,-58.08 102.68,-59.3 101.14,-52.47"/>
</g>
<!-- Node11&#45;&gt;Node6 -->
<g id="edge15" class="edge">
<title>Node11&#45;&gt;Node6</title>
<path fill="none" stroke="midnightblue" d="M209.44,-53.22C243.6,-42.17 286.41,-28.33 313.49,-19.57"/>
<polygon fill="midnightblue" stroke="midnightblue" points="208.04,-49.99 199.61,-56.4 210.2,-56.65 208.04,-49.99"/>
</g>
<!-- Node12&#45;&gt;Node6 -->
<g id="edge17" class="edge">
<title>Node12&#45;&gt;Node6</title>
<path fill="none" stroke="midnightblue" d="M291.63,-49.89C304.5,-39.54 319.41,-27.56 329.23,-19.66"/>
<polygon fill="midnightblue" stroke="midnightblue" points="289.14,-47.41 283.54,-56.4 293.52,-52.86 289.14,-47.41"/>
</g>
<!-- Node25&#45;&gt;Node13 -->
<g id="edge31" class="edge">
<title>Node25&#45;&gt;Node13</title>
<path fill="none" stroke="midnightblue" d="M1261.5,-59.5C1256,-58.16 1250.38,-56.93 1245,-56 1049.93,-22.19 997.62,-43.19 801,-20 798.07,-19.65 795.05,-19.27 792.01,-18.86"/>
<polygon fill="midnightblue" stroke="midnightblue" points="1260.63,-62.89 1271.19,-62 1262.38,-56.11 1260.63,-62.89"/>
</g>
<!-- Node25&#45;&gt;Node14 -->
<g id="edge32" class="edge">
<title>Node25&#45;&gt;Node14</title>
<path fill="none" stroke="midnightblue" d="M1329.97,-58.13C1358.92,-46.57 1401.37,-29.62 1426.69,-19.51"/>
<polygon fill="midnightblue" stroke="midnightblue" points="1328.34,-55.02 1320.35,-61.98 1330.93,-61.52 1328.34,-55.02"/>
</g>
<!-- Node25&#45;&gt;Node16 -->
<g id="edge33" class="edge">
<title>Node25&#45;&gt;Node16</title>
<path fill="none" stroke="midnightblue" d="M1260.53,-59.4C1255.34,-58.13 1250.06,-56.95 1245,-56 1100.87,-28.9 1062.38,-39.25 917,-20 914.07,-19.61 911.06,-19.2 908.03,-18.76"/>
<polygon fill="midnightblue" stroke="midnightblue" points="1259.77,-62.82 1270.32,-61.93 1261.51,-56.04 1259.77,-62.82"/>
</g>
<!-- Node25&#45;&gt;Node17 -->
<g id="edge34" class="edge">
<title>Node25&#45;&gt;Node17</title>
<path fill="none" stroke="midnightblue" d="M1259.38,-59.4C1254.55,-58.19 1249.67,-57.02 1245,-56 1205.42,-47.36 1097.86,-29.85 1032.27,-19.4"/>
<polygon fill="midnightblue" stroke="midnightblue" points="1258.57,-62.81 1269.13,-61.94 1260.34,-56.03 1258.57,-62.81"/>
</g>
<!-- Node25&#45;&gt;Node18 -->
<g id="edge36" class="edge">
<title>Node25&#45;&gt;Node18</title>
<path fill="none" stroke="midnightblue" d="M1260.31,-59.1C1221.05,-47.54 1161.19,-29.91 1125.89,-19.51"/>
<polygon fill="midnightblue" stroke="midnightblue" points="1259.48,-62.51 1270.06,-61.98 1261.45,-55.79 1259.48,-62.51"/>
</g>
<!-- Node25&#45;&gt;Node19 -->
<g id="edge37" class="edge">
<title>Node25&#45;&gt;Node19</title>
<path fill="none" stroke="midnightblue" d="M1277.24,-56.43C1259.51,-44.96 1235.04,-29.13 1220.16,-19.51"/>
<polygon fill="midnightblue" stroke="midnightblue" points="1275.52,-59.48 1285.82,-61.98 1279.32,-53.61 1275.52,-59.48"/>
</g>
<!-- Node25&#45;&gt;Node20 -->
<g id="edge38" class="edge">
<title>Node25&#45;&gt;Node20</title>
<path fill="none" stroke="midnightblue" d="M1350.3,-59.9C1406.13,-48.37 1494.31,-30.15 1545.81,-19.51"/>
<polygon fill="midnightblue" stroke="midnightblue" points="1349.35,-56.52 1340.26,-61.98 1350.76,-63.38 1349.35,-56.52"/>
</g>
<!-- Node25&#45;&gt;Node23 -->
<g id="edge39" class="edge">
<title>Node25&#45;&gt;Node23</title>
<path fill="none" stroke="midnightblue" d="M1304.86,-52.16C1308.33,-41.27 1312.58,-27.99 1315.28,-19.51"/>
<polygon fill="midnightblue" stroke="midnightblue" points="1301.43,-51.38 1301.72,-61.98 1308.1,-53.51 1301.43,-51.38"/>
</g>
<!-- Node25&#45;&gt;Node24 -->
<g id="edge40" class="edge">
<title>Node25&#45;&gt;Node24</title>
<path fill="none" stroke="midnightblue" d="M1353.94,-61.63C1366.13,-59.72 1379,-57.75 1391,-56 1485.79,-42.16 1595.92,-27.68 1663.27,-18.99"/>
<polygon fill="midnightblue" stroke="midnightblue" points="1353.22,-58.2 1343.89,-63.21 1354.31,-65.12 1353.22,-58.2"/>
</g>
<!-- Node25&#45;&gt;Node26 -->
<g id="edge35" class="edge">
<title>Node25&#45;&gt;Node26</title>
<path fill="none" stroke="midnightblue" d="M1353.89,-61.22C1366.08,-59.34 1378.96,-57.48 1391,-56 1570.8,-33.89 1617.15,-41.67 1797,-20 1800.19,-19.62 1803.47,-19.19 1806.78,-18.75"/>
<polygon fill="midnightblue" stroke="midnightblue" points="1353.17,-57.79 1343.84,-62.81 1354.26,-64.71 1353.17,-57.79"/>
</g>
</g>
</svg>
