<?xml version="1.0" encoding="UTF-8" standalone="no"?>
<!DOCTYPE svg PUBLIC "-//W3C//DTD SVG 1.1//EN"
 "http://www.w3.org/Graphics/SVG/1.1/DTD/svg11.dtd">
<!-- Generated by graphviz version 2.38.0 (20140413.2041)
 -->
<!-- Title: fplll/gso.h Pages: 1 -->
<svg width="1488pt" height="408pt"
 viewBox="0.00 0.00 1487.63 408.00" xmlns="http://www.w3.org/2000/svg" xmlns:xlink="http://www.w3.org/1999/xlink">
<g id="graph0" class="graph" transform="scale(1 1) rotate(0) translate(4 404)">
<title>fplll/gso.h</title>
<polygon fill="white" stroke="none" points="-4,4 -4,-404 1483.63,-404 1483.63,4 -4,4"/>
<!-- Node0 -->
<g id="node1" class="node"><title>Node0</title>
<polygon fill="#bfbfbf" stroke="black" points="631,-380.5 631,-399.5 690,-399.5 690,-380.5 631,-380.5"/>
<text text-anchor="middle" x="660.5" y="-387.5" font-family="Helvetica,sans-Serif" font-size="10.00">fplll/gso.h</text>
</g>
<!-- Node1 -->
<g id="node2" class="node"><title>Node1</title>
<g id="a_node2"><a xlink:href="enumerate__ext_8h.html" target="_top" xlink:title="fplll/enum/enumerate\l_ext.h">
<polygon fill="white" stroke="black" points="223,-313.5 223,-343.5 330,-343.5 330,-313.5 223,-313.5"/>
<text text-anchor="start" x="231" y="-331.5" font-family="Helvetica,sans-Serif" font-size="10.00">fplll/enum/enumerate</text>
<text text-anchor="middle" x="276.5" y="-320.5" font-family="Helvetica,sans-Serif" font-size="10.00">_ext.h</text>
</a>
</g>
</g>
<!-- Node0&#45;&gt;Node1 -->
<g id="edge1" class="edge"><title>Node0&#45;&gt;Node1</title>
<path fill="none" stroke="midnightblue" d="M620.595,-382.817C551.155,-372.057 408.073,-349.887 330.071,-337.801"/>
<polygon fill="midnightblue" stroke="midnightblue" points="620.27,-386.308 630.688,-384.381 621.342,-379.391 620.27,-386.308"/>
</g>
<!-- Node2 -->
<g id="node3" class="node"><title>Node2</title>
<g id="a_node3"><a xlink:href="enumerate_8h.html" target="_top" xlink:title="fplll/enum/enumerate.h">
<polygon fill="white" stroke="black" points="88.5,-252 88.5,-271 204.5,-271 204.5,-252 88.5,-252"/>
<text text-anchor="middle" x="146.5" y="-259" font-family="Helvetica,sans-Serif" font-size="10.00">fplll/enum/enumerate.h</text>
</a>
</g>
</g>
<!-- Node0&#45;&gt;Node2 -->
<g id="edge22" class="edge"><title>Node0&#45;&gt;Node2</title>
<path fill="none" stroke="midnightblue" d="M620.805,-388.826C524.934,-387.806 283.506,-381.478 213.5,-344 181.849,-327.056 159.39,-288.283 150.6,-271.04"/>
<polygon fill="midnightblue" stroke="midnightblue" points="620.925,-392.327 630.957,-388.92 620.99,-385.328 620.925,-392.327"/>
</g>
<!-- Node20 -->
<g id="node21" class="node"><title>Node20</title>
<g id="a_node21"><a xlink:href="lll_8h.html" target="_top" xlink:title="fplll/lll.h">
<polygon fill="white" stroke="black" points="437.5,-319 437.5,-338 487.5,-338 487.5,-319 437.5,-319"/>
<text text-anchor="middle" x="462.5" y="-326" font-family="Helvetica,sans-Serif" font-size="10.00">fplll/lll.h</text>
</a>
</g>
</g>
<!-- Node0&#45;&gt;Node20 -->
<g id="edge23" class="edge"><title>Node0&#45;&gt;Node20</title>
<path fill="none" stroke="midnightblue" d="M622.538,-377.592C582.871,-365.672 521.764,-347.309 487.68,-337.067"/>
<polygon fill="midnightblue" stroke="midnightblue" points="621.547,-380.949 632.131,-380.475 623.562,-374.245 621.547,-380.949"/>
</g>
<!-- Node23 -->
<g id="node24" class="node"><title>Node23</title>
<g id="a_node24"><a xlink:href="pruner_8h.html" target="_top" xlink:title="fplll/pruner.h">
<polygon fill="white" stroke="black" points="625.5,-319 625.5,-338 695.5,-338 695.5,-319 625.5,-319"/>
<text text-anchor="middle" x="660.5" y="-326" font-family="Helvetica,sans-Serif" font-size="10.00">fplll/pruner.h</text>
</a>
</g>
</g>
<!-- Node0&#45;&gt;Node23 -->
<g id="edge27" class="edge"><title>Node0&#45;&gt;Node23</title>
<path fill="none" stroke="midnightblue" d="M660.5,-370.317C660.5,-359.496 660.5,-346.398 660.5,-338.009"/>
<polygon fill="midnightblue" stroke="midnightblue" points="657,-370.475 660.5,-380.475 664,-370.475 657,-370.475"/>
</g>
<!-- Node25 -->
<g id="node26" class="node"><title>Node25</title>
<g id="a_node26"><a xlink:href="pruner_8cpp.html" target="_top" xlink:title="fplll/pruner.cpp">
<polygon fill="white" stroke="black" points="728.5,-252 728.5,-271 808.5,-271 808.5,-252 728.5,-252"/>
<text text-anchor="middle" x="768.5" y="-259" font-family="Helvetica,sans-Serif" font-size="10.00">fplll/pruner.cpp</text>
</a>
</g>
</g>
<!-- Node0&#45;&gt;Node25 -->
<g id="edge32" class="edge"><title>Node0&#45;&gt;Node25</title>
<path fill="none" stroke="midnightblue" d="M676.717,-373.261C685.221,-364.8 695.675,-354.063 704.5,-344 726.8,-318.571 750.863,-286.537 762.072,-271.314"/>
<polygon fill="midnightblue" stroke="midnightblue" points="674.23,-370.798 669.559,-380.307 679.141,-375.786 674.23,-370.798"/>
</g>
<!-- Node26 -->
<g id="node27" class="node"><title>Node26</title>
<g id="a_node27"><a xlink:href="gso_8cpp.html" target="_top" xlink:title="fplll/gso.cpp">
<polygon fill="white" stroke="black" points="752,-319 752,-338 821,-338 821,-319 752,-319"/>
<text text-anchor="middle" x="786.5" y="-326" font-family="Helvetica,sans-Serif" font-size="10.00">fplll/gso.cpp</text>
</a>
</g>
</g>
<!-- Node0&#45;&gt;Node26 -->
<g id="edge31" class="edge"><title>Node0&#45;&gt;Node26</title>
<path fill="none" stroke="midnightblue" d="M687.66,-376.174C712.11,-364.629 747.35,-347.987 768.481,-338.009"/>
<polygon fill="midnightblue" stroke="midnightblue" points="686.101,-373.04 678.553,-380.475 689.09,-379.37 686.101,-373.04"/>
</g>
<!-- Node27 -->
<g id="node28" class="node"><title>Node27</title>
<g id="a_node28"><a xlink:href="sampler__basic_8h.html" target="_top" xlink:title="fplll/sieve/sampler\l_basic.h">
<polygon fill="white" stroke="black" points="923,-313.5 923,-343.5 1018,-343.5 1018,-313.5 923,-313.5"/>
<text text-anchor="start" x="931" y="-331.5" font-family="Helvetica,sans-Serif" font-size="10.00">fplll/sieve/sampler</text>
<text text-anchor="middle" x="970.5" y="-320.5" font-family="Helvetica,sans-Serif" font-size="10.00">_basic.h</text>
</a>
</g>
</g>
<!-- Node0&#45;&gt;Node27 -->
<g id="edge33" class="edge"><title>Node0&#45;&gt;Node27</title>
<path fill="none" stroke="midnightblue" d="M700.278,-381.365C757.206,-370.439 861.757,-350.372 922.776,-338.66"/>
<polygon fill="midnightblue" stroke="midnightblue" points="699.385,-377.973 690.224,-383.295 700.705,-384.847 699.385,-377.973"/>
</g>
<!-- Node1&#45;&gt;Node2 -->
<g id="edge2" class="edge"><title>Node1&#45;&gt;Node2</title>
<path fill="none" stroke="midnightblue" d="M239.106,-308.803C214.184,-296.342 182.612,-280.556 163.514,-271.007"/>
<polygon fill="midnightblue" stroke="midnightblue" points="237.782,-312.054 248.292,-313.396 240.913,-305.793 237.782,-312.054"/>
</g>
<!-- Node19 -->
<g id="node20" class="node"><title>Node19</title>
<g id="a_node20"><a xlink:href="enumerate__ext_8cpp.html" target="_top" xlink:title="fplll/enum/enumerate\l_ext.cpp">
<polygon fill="white" stroke="black" points="223,-246.5 223,-276.5 330,-276.5 330,-246.5 223,-246.5"/>
<text text-anchor="start" x="231" y="-264.5" font-family="Helvetica,sans-Serif" font-size="10.00">fplll/enum/enumerate</text>
<text text-anchor="middle" x="276.5" y="-253.5" font-family="Helvetica,sans-Serif" font-size="10.00">_ext.cpp</text>
</a>
</g>
</g>
<!-- Node1&#45;&gt;Node19 -->
<g id="edge21" class="edge"><title>Node1&#45;&gt;Node19</title>
<path fill="none" stroke="midnightblue" d="M276.5,-303.108C276.5,-294.154 276.5,-284.323 276.5,-276.577"/>
<polygon fill="midnightblue" stroke="midnightblue" points="273,-303.396 276.5,-313.396 280,-303.396 273,-303.396"/>
</g>
<!-- Node3 -->
<g id="node4" class="node"><title>Node3</title>
<g id="a_node4"><a xlink:href="bkz_8h.html" target="_top" xlink:title="fplll/bkz.h">
<polygon fill="white" stroke="black" points="298,-185 298,-204 357,-204 357,-185 298,-185"/>
<text text-anchor="middle" x="327.5" y="-192" font-family="Helvetica,sans-Serif" font-size="10.00">fplll/bkz.h</text>
</a>
</g>
</g>
<!-- Node2&#45;&gt;Node3 -->
<g id="edge3" class="edge"><title>Node2&#45;&gt;Node3</title>
<path fill="none" stroke="midnightblue" d="M180.093,-248.436C215.999,-235.542 272.019,-215.424 303.653,-204.064"/>
<polygon fill="midnightblue" stroke="midnightblue" points="178.764,-245.195 170.535,-251.869 181.13,-251.783 178.764,-245.195"/>
</g>
<!-- Node4 -->
<g id="node5" class="node"><title>Node4</title>
<g id="a_node5"><a xlink:href="bkz_8cpp.html" target="_top" xlink:title="fplll/bkz.cpp">
<polygon fill="white" stroke="black" points="256,-123.5 256,-142.5 325,-142.5 325,-123.5 256,-123.5"/>
<text text-anchor="middle" x="290.5" y="-130.5" font-family="Helvetica,sans-Serif" font-size="10.00">fplll/bkz.cpp</text>
</a>
</g>
</g>
<!-- Node2&#45;&gt;Node4 -->
<g id="edge17" class="edge"><title>Node2&#45;&gt;Node4</title>
<path fill="none" stroke="midnightblue" d="M168.828,-246.518C183.496,-236.935 202.802,-223.548 218.5,-210 244.368,-187.674 271.072,-157.152 283.434,-142.513"/>
<polygon fill="midnightblue" stroke="midnightblue" points="166.885,-243.606 160.368,-251.96 170.672,-249.493 166.885,-243.606"/>
</g>
<!-- Node17 -->
<g id="node18" class="node"><title>Node17</title>
<g id="a_node18"><a xlink:href="enumerate_8cpp.html" target="_top" xlink:title="fplll/enum/enumerate.cpp">
<polygon fill="white" stroke="black" points="83.5,-185 83.5,-204 209.5,-204 209.5,-185 83.5,-185"/>
<text text-anchor="middle" x="146.5" y="-192" font-family="Helvetica,sans-Serif" font-size="10.00">fplll/enum/enumerate.cpp</text>
</a>
</g>
</g>
<!-- Node2&#45;&gt;Node17 -->
<g id="edge18" class="edge"><title>Node2&#45;&gt;Node17</title>
<path fill="none" stroke="midnightblue" d="M146.5,-241.537C146.5,-229.17 146.5,-213.62 146.5,-204.127"/>
<polygon fill="midnightblue" stroke="midnightblue" points="143,-241.734 146.5,-251.734 150,-241.734 143,-241.734"/>
</g>
<!-- Node18 -->
<g id="node19" class="node"><title>Node18</title>
<g id="a_node19"><a xlink:href="svpcvp_8cpp.html" target="_top" xlink:title="fplll/svpcvp.cpp">
<polygon fill="white" stroke="black" points="0,-123.5 0,-142.5 85,-142.5 85,-123.5 0,-123.5"/>
<text text-anchor="middle" x="42.5" y="-130.5" font-family="Helvetica,sans-Serif" font-size="10.00">fplll/svpcvp.cpp</text>
</a>
</g>
</g>
<!-- Node2&#45;&gt;Node18 -->
<g id="edge19" class="edge"><title>Node2&#45;&gt;Node18</title>
<path fill="none" stroke="midnightblue" d="M120.118,-246.903C105.105,-238.07 86.8847,-225.352 74.5,-210 57.6007,-189.052 48.2644,-157.884 44.4969,-142.804"/>
<polygon fill="midnightblue" stroke="midnightblue" points="118.539,-250.03 128.97,-251.889 121.975,-243.932 118.539,-250.03"/>
</g>
<!-- Node3&#45;&gt;Node4 -->
<g id="edge4" class="edge"><title>Node3&#45;&gt;Node4</title>
<path fill="none" stroke="midnightblue" d="M316.724,-176.171C309.844,-165.108 301.228,-151.251 295.791,-142.509"/>
<polygon fill="midnightblue" stroke="midnightblue" points="313.946,-178.331 322.199,-184.975 319.89,-174.635 313.946,-178.331"/>
</g>
<!-- Node5 -->
<g id="node6" class="node"><title>Node5</title>
<g id="a_node6"><a xlink:href="fplll_8h.html" target="_top" xlink:title="fplll/fplll.h">
<polygon fill="white" stroke="black" points="475.5,-123.5 475.5,-142.5 533.5,-142.5 533.5,-123.5 475.5,-123.5"/>
<text text-anchor="middle" x="504.5" y="-130.5" font-family="Helvetica,sans-Serif" font-size="10.00">fplll/fplll.h</text>
</a>
</g>
</g>
<!-- Node3&#45;&gt;Node5 -->
<g id="edge5" class="edge"><title>Node3&#45;&gt;Node5</title>
<path fill="none" stroke="midnightblue" d="M362.507,-181.732C396.914,-170.166 448.584,-152.797 479.187,-142.509"/>
<polygon fill="midnightblue" stroke="midnightblue" points="361.223,-178.471 352.86,-184.975 363.454,-185.106 361.223,-178.471"/>
</g>
<!-- Node6 -->
<g id="node7" class="node"><title>Node6</title>
<g id="a_node7"><a xlink:href="fplll_8cpp.html" target="_top" xlink:title="fplll/fplll.cpp">
<polygon fill="white" stroke="black" points="5.5,-62 5.5,-81 73.5,-81 73.5,-62 5.5,-62"/>
<text text-anchor="middle" x="39.5" y="-69" font-family="Helvetica,sans-Serif" font-size="10.00">fplll/fplll.cpp</text>
</a>
</g>
</g>
<!-- Node5&#45;&gt;Node6 -->
<g id="edge6" class="edge"><title>Node5&#45;&gt;Node6</title>
<path fill="none" stroke="midnightblue" d="M465.097,-130.673C389.899,-127.51 221.067,-117.366 82.5,-87 75.7278,-85.5159 68.5304,-83.3388 62.0004,-81.1204"/>
<polygon fill="midnightblue" stroke="midnightblue" points="465.365,-134.187 475.497,-131.091 465.646,-127.192 465.365,-134.187"/>
</g>
<!-- Node7 -->
<g id="node8" class="node"><title>Node7</title>
<g id="a_node8"><a xlink:href="main_8h.html" target="_top" xlink:title="fplll/main.h">
<polygon fill="white" stroke="black" points="323.5,-62 323.5,-81 387.5,-81 387.5,-62 323.5,-62"/>
<text text-anchor="middle" x="355.5" y="-69" font-family="Helvetica,sans-Serif" font-size="10.00">fplll/main.h</text>
</a>
</g>
</g>
<!-- Node5&#45;&gt;Node7 -->
<g id="edge7" class="edge"><title>Node5&#45;&gt;Node7</title>
<path fill="none" stroke="midnightblue" d="M473.526,-119.631C444.579,-108.072 402.128,-91.12 376.808,-81.0091"/>
<polygon fill="midnightblue" stroke="midnightblue" points="472.567,-123.017 483.152,-123.475 475.163,-116.516 472.567,-123.017"/>
</g>
<!-- Node9 -->
<g id="node10" class="node"><title>Node9</title>
<g id="a_node10"><a xlink:href="sieve__main_8cpp.html" target="_top" xlink:title="fplll/sieve/sieve_main.cpp">
<polygon fill="white" stroke="black" points="893,-0.5 893,-19.5 1022,-19.5 1022,-0.5 893,-0.5"/>
<text text-anchor="middle" x="957.5" y="-7.5" font-family="Helvetica,sans-Serif" font-size="10.00">fplll/sieve/sieve_main.cpp</text>
</a>
</g>
</g>
<!-- Node5&#45;&gt;Node9 -->
<g id="edge9" class="edge"><title>Node5&#45;&gt;Node9</title>
<path fill="none" stroke="midnightblue" d="M543.834,-131.142C630.428,-128.669 834.607,-119.468 894.5,-87 923.428,-71.3177 944.402,-36.4089 953.08,-19.9346"/>
<polygon fill="midnightblue" stroke="midnightblue" points="543.534,-127.649 533.632,-131.417 543.723,-134.646 543.534,-127.649"/>
</g>
<!-- Node10 -->
<g id="node11" class="node"><title>Node10</title>
<g id="a_node11"><a xlink:href="test__bkz_8cpp.html" target="_top" xlink:title="tests/test_bkz.cpp">
<polygon fill="white" stroke="black" points="91.5,-62 91.5,-81 189.5,-81 189.5,-62 91.5,-62"/>
<text text-anchor="middle" x="140.5" y="-69" font-family="Helvetica,sans-Serif" font-size="10.00">tests/test_bkz.cpp</text>
</a>
</g>
</g>
<!-- Node5&#45;&gt;Node10 -->
<g id="edge10" class="edge"><title>Node5&#45;&gt;Node10</title>
<path fill="none" stroke="midnightblue" d="M464.946,-127.454C406.427,-120.44 293.459,-105.804 198.5,-87 189.947,-85.3064 180.763,-83.163 172.282,-81.0475"/>
<polygon fill="midnightblue" stroke="midnightblue" points="464.88,-130.97 475.223,-128.674 465.706,-124.019 464.88,-130.97"/>
</g>
<!-- Node11 -->
<g id="node12" class="node"><title>Node11</title>
<g id="a_node12"><a xlink:href="test__cvp_8cpp.html" target="_top" xlink:title="tests/test_cvp.cpp">
<polygon fill="white" stroke="black" points="207.5,-62 207.5,-81 305.5,-81 305.5,-62 207.5,-62"/>
<text text-anchor="middle" x="256.5" y="-69" font-family="Helvetica,sans-Serif" font-size="10.00">tests/test_cvp.cpp</text>
</a>
</g>
</g>
<!-- Node5&#45;&gt;Node11 -->
<g id="edge11" class="edge"><title>Node5&#45;&gt;Node11</title>
<path fill="none" stroke="midnightblue" d="M465.421,-122.894C426.985,-113.902 366.656,-99.6952 314.5,-87 306.634,-85.0853 298.177,-82.9912 290.219,-81.0049"/>
<polygon fill="midnightblue" stroke="midnightblue" points="464.645,-126.307 475.179,-125.175 466.238,-119.49 464.645,-126.307"/>
</g>
<!-- Node12 -->
<g id="node13" class="node"><title>Node12</title>
<g id="a_node13"><a xlink:href="test__lll_8cpp.html" target="_top" xlink:title="tests/test_lll.cpp">
<polygon fill="white" stroke="black" points="406,-62 406,-81 495,-81 495,-62 406,-62"/>
<text text-anchor="middle" x="450.5" y="-69" font-family="Helvetica,sans-Serif" font-size="10.00">tests/test_lll.cpp</text>
</a>
</g>
</g>
<!-- Node5&#45;&gt;Node12 -->
<g id="edge12" class="edge"><title>Node5&#45;&gt;Node12</title>
<path fill="none" stroke="midnightblue" d="M489.977,-115.997C479.756,-104.736 466.477,-90.1044 458.223,-81.0091"/>
<polygon fill="midnightblue" stroke="midnightblue" points="487.451,-118.422 496.763,-123.475 492.634,-113.718 487.451,-118.422"/>
</g>
<!-- Node13 -->
<g id="node14" class="node"><title>Node13</title>
<g id="a_node14"><a xlink:href="test__nr_8cpp.html" target="_top" xlink:title="tests/test_nr.cpp">
<polygon fill="white" stroke="black" points="513.5,-62 513.5,-81 603.5,-81 603.5,-62 513.5,-62"/>
<text text-anchor="middle" x="558.5" y="-69" font-family="Helvetica,sans-Serif" font-size="10.00">tests/test_nr.cpp</text>
</a>
</g>
</g>
<!-- Node5&#45;&gt;Node13 -->
<g id="edge13" class="edge"><title>Node5&#45;&gt;Node13</title>
<path fill="none" stroke="midnightblue" d="M519.023,-115.997C529.244,-104.736 542.523,-90.1044 550.777,-81.0091"/>
<polygon fill="midnightblue" stroke="midnightblue" points="516.366,-113.718 512.237,-123.475 521.549,-118.422 516.366,-113.718"/>
</g>
<!-- Node14 -->
<g id="node15" class="node"><title>Node14</title>
<g id="a_node15"><a xlink:href="test__pruner_8cpp.html" target="_top" xlink:title="tests/test_pruner.cpp">
<polygon fill="white" stroke="black" points="660,-62 660,-81 769,-81 769,-62 660,-62"/>
<text text-anchor="middle" x="714.5" y="-69" font-family="Helvetica,sans-Serif" font-size="10.00">tests/test_pruner.cpp</text>
</a>
</g>
</g>
<!-- Node5&#45;&gt;Node14 -->
<g id="edge14" class="edge"><title>Node5&#45;&gt;Node14</title>
<path fill="none" stroke="midnightblue" d="M543.534,-120.94C584.213,-109.415 647.094,-91.5985 684.188,-81.0883"/>
<polygon fill="midnightblue" stroke="midnightblue" points="542.367,-117.633 533.7,-123.727 544.275,-124.368 542.367,-117.633"/>
</g>
<!-- Node15 -->
<g id="node16" class="node"><title>Node15</title>
<g id="a_node16"><a xlink:href="test__sieve_8cpp.html" target="_top" xlink:title="tests/test_sieve.cpp">
<polygon fill="white" stroke="black" points="674,-0.5 674,-19.5 779,-19.5 779,-0.5 674,-0.5"/>
<text text-anchor="middle" x="726.5" y="-7.5" font-family="Helvetica,sans-Serif" font-size="10.00">tests/test_sieve.cpp</text>
</a>
</g>
</g>
<!-- Node5&#45;&gt;Node15 -->
<g id="edge15" class="edge"><title>Node5&#45;&gt;Node15</title>
<path fill="none" stroke="midnightblue" d="M540.3,-120.059C561.948,-112.124 589.68,-100.665 612.5,-87 631.2,-75.8025 632.628,-68.4762 650.5,-56 670.366,-42.1318 694.66,-28.2408 710.348,-19.6377"/>
<polygon fill="midnightblue" stroke="midnightblue" points="539.057,-116.786 530.821,-123.452 541.416,-123.377 539.057,-116.786"/>
</g>
<!-- Node16 -->
<g id="node17" class="node"><title>Node16</title>
<g id="a_node17"><a xlink:href="test__svp_8cpp.html" target="_top" xlink:title="tests/test_svp.cpp">
<polygon fill="white" stroke="black" points="787.5,-62 787.5,-81 885.5,-81 885.5,-62 787.5,-62"/>
<text text-anchor="middle" x="836.5" y="-69" font-family="Helvetica,sans-Serif" font-size="10.00">tests/test_svp.cpp</text>
</a>
</g>
</g>
<!-- Node5&#45;&gt;Node16 -->
<g id="edge16" class="edge"><title>Node5&#45;&gt;Node16</title>
<path fill="none" stroke="midnightblue" d="M543.752,-126.508C596.946,-118.843 694.783,-103.955 777.5,-87 786.076,-85.242 795.293,-83.0998 803.834,-81.0072"/>
<polygon fill="midnightblue" stroke="midnightblue" points="543.13,-123.061 533.727,-127.943 544.122,-129.991 543.13,-123.061"/>
</g>
<!-- Node8 -->
<g id="node9" class="node"><title>Node8</title>
<g id="a_node9"><a xlink:href="main_8cpp.html" target="_top" xlink:title="fplll/main.cpp">
<polygon fill="white" stroke="black" points="318.5,-0.5 318.5,-19.5 392.5,-19.5 392.5,-0.5 318.5,-0.5"/>
<text text-anchor="middle" x="355.5" y="-7.5" font-family="Helvetica,sans-Serif" font-size="10.00">fplll/main.cpp</text>
</a>
</g>
</g>
<!-- Node7&#45;&gt;Node8 -->
<g id="edge8" class="edge"><title>Node7&#45;&gt;Node8</title>
<path fill="none" stroke="midnightblue" d="M355.5,-51.8165C355.5,-40.9962 355.5,-27.898 355.5,-19.5091"/>
<polygon fill="midnightblue" stroke="midnightblue" points="352,-51.9751 355.5,-61.9751 359,-51.9751 352,-51.9751"/>
</g>
<!-- Node18&#45;&gt;Node6 -->
<g id="edge20" class="edge"><title>Node18&#45;&gt;Node6</title>
<path fill="none" stroke="midnightblue" d="M41.558,-113.317C41.0124,-102.496 40.352,-89.398 39.929,-81.0091"/>
<polygon fill="midnightblue" stroke="midnightblue" points="38.071,-113.664 42.0702,-123.475 45.0621,-113.312 38.071,-113.664"/>
</g>
<!-- Node20&#45;&gt;Node3 -->
<g id="edge24" class="edge"><title>Node20&#45;&gt;Node3</title>
<path fill="none" stroke="midnightblue" d="M432.859,-314.385C415.322,-305.598 393.486,-292.76 377.5,-277 354.804,-254.624 338.027,-219.968 331.057,-204.039"/>
<polygon fill="midnightblue" stroke="midnightblue" points="431.568,-317.648 442.095,-318.843 434.611,-311.344 431.568,-317.648"/>
</g>
<!-- Node21 -->
<g id="node22" class="node"><title>Node21</title>
<g id="a_node22"><a xlink:href="lll_8cpp.html" target="_top" xlink:title="fplll/lll.cpp">
<polygon fill="white" stroke="black" points="386.5,-252 386.5,-271 446.5,-271 446.5,-252 386.5,-252"/>
<text text-anchor="middle" x="416.5" y="-259" font-family="Helvetica,sans-Serif" font-size="10.00">fplll/lll.cpp</text>
</a>
</g>
</g>
<!-- Node20&#45;&gt;Node21 -->
<g id="edge25" class="edge"><title>Node20&#45;&gt;Node21</title>
<path fill="none" stroke="midnightblue" d="M450.401,-310.404C441.462,-297.773 429.666,-281.104 422.605,-271.127"/>
<polygon fill="midnightblue" stroke="midnightblue" points="447.663,-312.593 456.296,-318.734 453.376,-308.549 447.663,-312.593"/>
</g>
<!-- Node22 -->
<g id="node23" class="node"><title>Node22</title>
<g id="a_node23"><a xlink:href="wrapper_8cpp.html" target="_top" xlink:title="fplll/wrapper.cpp">
<polygon fill="white" stroke="black" points="464.5,-252 464.5,-271 552.5,-271 552.5,-252 464.5,-252"/>
<text text-anchor="middle" x="508.5" y="-259" font-family="Helvetica,sans-Serif" font-size="10.00">fplll/wrapper.cpp</text>
</a>
</g>
</g>
<!-- Node20&#45;&gt;Node22 -->
<g id="edge26" class="edge"><title>Node20&#45;&gt;Node22</title>
<path fill="none" stroke="midnightblue" d="M474.599,-310.404C483.538,-297.773 495.334,-281.104 502.395,-271.127"/>
<polygon fill="midnightblue" stroke="midnightblue" points="471.624,-308.549 468.704,-318.734 477.337,-312.593 471.624,-308.549"/>
</g>
<!-- Node23&#45;&gt;Node5 -->
<g id="edge29" class="edge"><title>Node23&#45;&gt;Node5</title>
<path fill="none" stroke="midnightblue" d="M671.77,-309.955C681.255,-292.77 691.635,-266.285 680.5,-246 649.042,-188.694 574.449,-156.519 533.187,-142.526"/>
<polygon fill="midnightblue" stroke="midnightblue" points="668.565,-308.497 666.459,-318.881 674.58,-312.077 668.565,-308.497"/>
</g>
<!-- Node24 -->
<g id="node25" class="node"><title>Node24</title>
<g id="a_node25"><a xlink:href="bkz__param_8cpp.html" target="_top" xlink:title="fplll/bkz_param.cpp">
<polygon fill="white" stroke="black" points="571,-252 571,-271 672,-271 672,-252 571,-252"/>
<text text-anchor="middle" x="621.5" y="-259" font-family="Helvetica,sans-Serif" font-size="10.00">fplll/bkz_param.cpp</text>
</a>
</g>
</g>
<!-- Node23&#45;&gt;Node24 -->
<g id="edge28" class="edge"><title>Node23&#45;&gt;Node24</title>
<path fill="none" stroke="midnightblue" d="M650.021,-310.035C642.47,-297.45 632.604,-281.007 626.676,-271.127"/>
<polygon fill="midnightblue" stroke="midnightblue" points="647.094,-311.96 655.24,-318.734 653.097,-308.358 647.094,-311.96"/>
</g>
<!-- Node23&#45;&gt;Node25 -->
<g id="edge30" class="edge"><title>Node23&#45;&gt;Node25</title>
<path fill="none" stroke="midnightblue" d="M683.858,-313.442C705.246,-300.57 736.221,-281.927 754.165,-271.127"/>
<polygon fill="midnightblue" stroke="midnightblue" points="681.828,-310.578 675.065,-318.734 685.438,-316.576 681.828,-310.578"/>
</g>
<!-- Node28 -->
<g id="node29" class="node"><title>Node28</title>
<g id="a_node29"><a xlink:href="sampler__basic_8cpp.html" target="_top" xlink:title="fplll/sieve/sampler\l_basic.cpp">
<polygon fill="white" stroke="black" points="867,-246.5 867,-276.5 962,-276.5 962,-246.5 867,-246.5"/>
<text text-anchor="start" x="875" y="-264.5" font-family="Helvetica,sans-Serif" font-size="10.00">fplll/sieve/sampler</text>
<text text-anchor="middle" x="914.5" y="-253.5" font-family="Helvetica,sans-Serif" font-size="10.00">_basic.cpp</text>
</a>
</g>
</g>
<!-- Node27&#45;&gt;Node28 -->
<g id="edge34" class="edge"><title>Node27&#45;&gt;Node28</title>
<path fill="none" stroke="midnightblue" d="M951.75,-305.736C943.464,-296.119 933.961,-285.089 926.627,-276.577"/>
<polygon fill="midnightblue" stroke="midnightblue" points="949.17,-308.104 958.349,-313.396 954.473,-303.535 949.17,-308.104"/>
</g>
<!-- Node29 -->
<g id="node30" class="node"><title>Node29</title>
<g id="a_node30"><a xlink:href="sampler__main_8cpp.html" target="_top" xlink:title="fplll/sieve/sampler\l_main.cpp">
<polygon fill="white" stroke="black" points="980,-246.5 980,-276.5 1075,-276.5 1075,-246.5 980,-246.5"/>
<text text-anchor="start" x="988" y="-264.5" font-family="Helvetica,sans-Serif" font-size="10.00">fplll/sieve/sampler</text>
<text text-anchor="middle" x="1027.5" y="-253.5" font-family="Helvetica,sans-Serif" font-size="10.00">_main.cpp</text>
</a>
</g>
</g>
<!-- Node27&#45;&gt;Node29 -->
<g id="edge35" class="edge"><title>Node27&#45;&gt;Node29</title>
<path fill="none" stroke="midnightblue" d="M989.585,-305.736C998.019,-296.119 1007.69,-285.089 1015.16,-276.577"/>
<polygon fill="midnightblue" stroke="midnightblue" points="986.83,-303.57 982.868,-313.396 992.093,-308.185 986.83,-303.57"/>
</g>
<!-- Node30 -->
<g id="node31" class="node"><title>Node30</title>
<g id="a_node31"><a xlink:href="sieve__common_8h.html" target="_top" xlink:title="fplll/sieve/sieve_common.h">
<polygon fill="white" stroke="black" points="1113,-252 1113,-271 1248,-271 1248,-252 1113,-252"/>
<text text-anchor="middle" x="1180.5" y="-259" font-family="Helvetica,sans-Serif" font-size="10.00">fplll/sieve/sieve_common.h</text>
</a>
</g>
</g>
<!-- Node27&#45;&gt;Node30 -->
<g id="edge36" class="edge"><title>Node27&#45;&gt;Node30</title>
<path fill="none" stroke="midnightblue" d="M1025.39,-310.51C1066.37,-297.825 1120.66,-281.022 1152.95,-271.029"/>
<polygon fill="midnightblue" stroke="midnightblue" points="1024.33,-307.176 1015.81,-313.476 1026.4,-313.863 1024.33,-307.176"/>
</g>
<!-- Node31 -->
<g id="node32" class="node"><title>Node31</title>
<g id="a_node32"><a xlink:href="sieve__gauss__str_8h.html" target="_top" xlink:title="fplll/sieve/sieve_gauss\l_str.h">
<polygon fill="white" stroke="black" points="1122.5,-179.5 1122.5,-209.5 1238.5,-209.5 1238.5,-179.5 1122.5,-179.5"/>
<text text-anchor="start" x="1130.5" y="-197.5" font-family="Helvetica,sans-Serif" font-size="10.00">fplll/sieve/sieve_gauss</text>
<text text-anchor="middle" x="1180.5" y="-186.5" font-family="Helvetica,sans-Serif" font-size="10.00">_str.h</text>
</a>
</g>
</g>
<!-- Node30&#45;&gt;Node31 -->
<g id="edge37" class="edge"><title>Node30&#45;&gt;Node31</title>
<path fill="none" stroke="midnightblue" d="M1174.32,-241.739C1173.42,-231.487 1173.59,-219.001 1174.82,-209.589"/>
<polygon fill="midnightblue" stroke="midnightblue" points="1170.86,-242.313 1175.71,-251.734 1177.8,-241.346 1170.86,-242.313"/>
</g>
<!-- Node32 -->
<g id="node33" class="node"><title>Node32</title>
<g id="a_node33"><a xlink:href="sieve__gauss_8h.html" target="_top" xlink:title="fplll/sieve/sieve_gauss.h">
<polygon fill="white" stroke="black" points="1204.5,-123.5 1204.5,-142.5 1328.5,-142.5 1328.5,-123.5 1204.5,-123.5"/>
<text text-anchor="middle" x="1266.5" y="-130.5" font-family="Helvetica,sans-Serif" font-size="10.00">fplll/sieve/sieve_gauss.h</text>
</a>
</g>
</g>
<!-- Node30&#45;&gt;Node32 -->
<g id="edge50" class="edge"><title>Node30&#45;&gt;Node32</title>
<path fill="none" stroke="midnightblue" d="M1206.56,-246.734C1220.68,-238.002 1237.27,-225.441 1247.5,-210 1261.62,-188.682 1265.25,-157.688 1266.18,-142.726"/>
<polygon fill="midnightblue" stroke="midnightblue" points="1204.59,-243.832 1197.74,-251.911 1208.13,-249.87 1204.59,-243.832"/>
</g>
<!-- Node31&#45;&gt;Node30 -->
<g id="edge38" class="edge"><title>Node31&#45;&gt;Node30</title>
<path fill="none" stroke="midnightblue" d="M1187.05,-219.714C1187.6,-230.923 1187.01,-243.541 1185.29,-251.734"/>
<polygon fill="midnightblue" stroke="midnightblue" points="1190.52,-219.251 1186.18,-209.589 1183.55,-219.853 1190.52,-219.251"/>
</g>
<!-- Node31&#45;&gt;Node32 -->
<g id="edge39" class="edge"><title>Node31&#45;&gt;Node32</title>
<path fill="none" stroke="midnightblue" d="M1209.43,-173.483C1224.58,-163.001 1242.35,-150.708 1253.99,-142.658"/>
<polygon fill="midnightblue" stroke="midnightblue" points="1207.11,-170.831 1200.88,-179.399 1211.1,-176.588 1207.11,-170.831"/>
</g>
<!-- Node33 -->
<g id="node34" class="node"><title>Node33</title>
<g id="a_node34"><a xlink:href="sieve__gauss_8cpp.html" target="_top" xlink:title="fplll/sieve/sieve_gauss.cpp">
<polygon fill="white" stroke="black" points="1271.5,-0.5 1271.5,-19.5 1405.5,-19.5 1405.5,-0.5 1271.5,-0.5"/>
<text text-anchor="middle" x="1338.5" y="-7.5" font-family="Helvetica,sans-Serif" font-size="10.00">fplll/sieve/sieve_gauss.cpp</text>
</a>
</g>
</g>
<!-- Node32&#45;&gt;Node33 -->
<g id="edge40" class="edge"><title>Node32&#45;&gt;Node33</title>
<path fill="none" stroke="midnightblue" d="M1338.54,-125.755C1391.02,-119.538 1455.73,-107.827 1472.5,-87 1500.51,-52.2103 1434.95,-30.4683 1385.98,-19.5557"/>
<polygon fill="midnightblue" stroke="midnightblue" points="1338.11,-122.282 1328.56,-126.89 1338.9,-129.237 1338.11,-122.282"/>
</g>
<!-- Node34 -->
<g id="node35" class="node"><title>Node34</title>
<g id="a_node35"><a xlink:href="sieve__gauss__2sieve_8cpp.html" target="_top" xlink:title="fplll/sieve/sieve_gauss\l_2sieve.cpp">
<polygon fill="white" stroke="black" points="1079.5,-56.5 1079.5,-86.5 1195.5,-86.5 1195.5,-56.5 1079.5,-56.5"/>
<text text-anchor="start" x="1087.5" y="-74.5" font-family="Helvetica,sans-Serif" font-size="10.00">fplll/sieve/sieve_gauss</text>
<text text-anchor="middle" x="1137.5" y="-63.5" font-family="Helvetica,sans-Serif" font-size="10.00">_2sieve.cpp</text>
</a>
</g>
</g>
<!-- Node32&#45;&gt;Node34 -->
<g id="edge41" class="edge"><title>Node32&#45;&gt;Node34</title>
<path fill="none" stroke="midnightblue" d="M1238.75,-119.2C1217.9,-109.585 1189.37,-96.4232 1167.9,-86.523"/>
<polygon fill="midnightblue" stroke="midnightblue" points="1237.47,-122.465 1248.02,-123.475 1240.4,-116.108 1237.47,-122.465"/>
</g>
<!-- Node35 -->
<g id="node36" class="node"><title>Node35</title>
<g id="a_node36"><a xlink:href="sieve__gauss__3sieve_8cpp.html" target="_top" xlink:title="fplll/sieve/sieve_gauss\l_3sieve.cpp">
<polygon fill="white" stroke="black" points="1213.5,-56.5 1213.5,-86.5 1329.5,-86.5 1329.5,-56.5 1213.5,-56.5"/>
<text text-anchor="start" x="1221.5" y="-74.5" font-family="Helvetica,sans-Serif" font-size="10.00">fplll/sieve/sieve_gauss</text>
<text text-anchor="middle" x="1271.5" y="-63.5" font-family="Helvetica,sans-Serif" font-size="10.00">_3sieve.cpp</text>
</a>
</g>
</g>
<!-- Node32&#45;&gt;Node35 -->
<g id="edge43" class="edge"><title>Node32&#45;&gt;Node35</title>
<path fill="none" stroke="midnightblue" d="M1268.08,-113.235C1268.8,-104.586 1269.65,-94.4969 1270.32,-86.523"/>
<polygon fill="midnightblue" stroke="midnightblue" points="1264.57,-113.217 1267.22,-123.475 1271.54,-113.803 1264.57,-113.217"/>
</g>
<!-- Node36 -->
<g id="node37" class="node"><title>Node36</title>
<g id="a_node37"><a xlink:href="sieve__gauss__4sieve_8cpp.html" target="_top" xlink:title="fplll/sieve/sieve_gauss\l_4sieve.cpp">
<polygon fill="white" stroke="black" points="1347.5,-56.5 1347.5,-86.5 1463.5,-86.5 1463.5,-56.5 1347.5,-56.5"/>
<text text-anchor="start" x="1355.5" y="-74.5" font-family="Helvetica,sans-Serif" font-size="10.00">fplll/sieve/sieve_gauss</text>
<text text-anchor="middle" x="1405.5" y="-63.5" font-family="Helvetica,sans-Serif" font-size="10.00">_4sieve.cpp</text>
</a>
</g>
</g>
<!-- Node32&#45;&gt;Node36 -->
<g id="edge45" class="edge"><title>Node32&#45;&gt;Node36</title>
<path fill="none" stroke="midnightblue" d="M1295.79,-119.461C1318.31,-109.823 1349.4,-96.5127 1372.74,-86.523"/>
<polygon fill="midnightblue" stroke="midnightblue" points="1294.23,-116.322 1286.42,-123.475 1296.99,-122.757 1294.23,-116.322"/>
</g>
<!-- Node37 -->
<g id="node38" class="node"><title>Node37</title>
<g id="a_node38"><a xlink:href="sieve__main_8h.html" target="_top" xlink:title="fplll/sieve/sieve_main.h">
<polygon fill="white" stroke="black" points="942,-62 942,-81 1061,-81 1061,-62 942,-62"/>
<text text-anchor="middle" x="1001.5" y="-69" font-family="Helvetica,sans-Serif" font-size="10.00">fplll/sieve/sieve_main.h</text>
</a>
</g>
</g>
<!-- Node32&#45;&gt;Node37 -->
<g id="edge47" class="edge"><title>Node32&#45;&gt;Node37</title>
<path fill="none" stroke="midnightblue" d="M1218.66,-121.258C1167.25,-109.716 1086.59,-91.6056 1039.4,-81.0091"/>
<polygon fill="midnightblue" stroke="midnightblue" points="1218.01,-124.699 1228.53,-123.475 1219.54,-117.869 1218.01,-124.699"/>
</g>
<!-- Node34&#45;&gt;Node33 -->
<g id="edge42" class="edge"><title>Node34&#45;&gt;Node33</title>
<path fill="none" stroke="midnightblue" d="M1194.7,-53.5681C1232.29,-42.44 1279.88,-28.3534 1309.76,-19.5064"/>
<polygon fill="midnightblue" stroke="midnightblue" points="1193.47,-50.2801 1184.88,-56.4747 1195.46,-56.9922 1193.47,-50.2801"/>
</g>
<!-- Node35&#45;&gt;Node33 -->
<g id="edge44" class="edge"><title>Node35&#45;&gt;Node33</title>
<path fill="none" stroke="midnightblue" d="M1295.04,-49.5972C1306.62,-39.3153 1319.94,-27.4824 1328.75,-19.6578"/>
<polygon fill="midnightblue" stroke="midnightblue" points="1292.53,-47.1421 1287.38,-56.3993 1297.18,-52.3761 1292.53,-47.1421"/>
</g>
<!-- Node36&#45;&gt;Node33 -->
<g id="edge46" class="edge"><title>Node36&#45;&gt;Node33</title>
<path fill="none" stroke="midnightblue" d="M1381.96,-49.5972C1370.38,-39.3153 1357.06,-27.4824 1348.25,-19.6578"/>
<polygon fill="midnightblue" stroke="midnightblue" points="1379.82,-52.3761 1389.62,-56.3993 1384.47,-47.1421 1379.82,-52.3761"/>
</g>
<!-- Node37&#45;&gt;Node9 -->
<g id="edge48" class="edge"><title>Node37&#45;&gt;Node9</title>
<path fill="none" stroke="midnightblue" d="M989.178,-53.8377C980.919,-42.6694 970.388,-28.4278 963.792,-19.5091"/>
<polygon fill="midnightblue" stroke="midnightblue" points="986.436,-56.0158 995.196,-61.9751 992.064,-51.8537 986.436,-56.0158"/>
</g>
<!-- Node37&#45;&gt;Node15 -->
<g id="edge49" class="edge"><title>Node37&#45;&gt;Node15</title>
<path fill="none" stroke="midnightblue" d="M952.187,-59.8304C898.856,-48.2915 814.905,-30.1277 765.828,-19.5091"/>
<polygon fill="midnightblue" stroke="midnightblue" points="951.585,-63.2812 962.099,-61.9751 953.066,-56.4395 951.585,-63.2812"/>
</g>
</g>
</svg>
