<?xml version="1.0" encoding="UTF-8" standalone="no"?>
<!DOCTYPE svg PUBLIC "-//W3C//DTD SVG 1.1//EN"
 "http://www.w3.org/Graphics/SVG/1.1/DTD/svg11.dtd">
<!-- Generated by graphviz version 2.43.0 (0)
 -->
<!-- Title: fplll/gso.h Pages: 1 -->
<svg width="1977pt" height="431pt"
 viewBox="0.00 0.00 1976.73 431.00" xmlns="http://www.w3.org/2000/svg" xmlns:xlink="http://www.w3.org/1999/xlink">
<g id="graph0" class="graph" transform="scale(1 1) rotate(0) translate(4 427)">
<title>fplll/gso.h</title>
<polygon fill="white" stroke="transparent" points="-4,4 -4,-427 1972.73,-427 1972.73,4 -4,4"/>
<!-- Node1 -->
<g id="node1" class="node">
<title>Node1</title>
<g id="a_node1"><a xlink:title=" ">
<polygon fill="#bfbfbf" stroke="black" points="1451.23,-403.5 1451.23,-422.5 1510.23,-422.5 1510.23,-403.5 1451.23,-403.5"/>
<text text-anchor="middle" x="1480.73" y="-410.5" font-family="Helvetica,sans-Serif" font-size="10.00">fplll/gso.h</text>
</a>
</g>
</g>
<!-- Node2 -->
<g id="node2" class="node">
<title>Node2</title>
<g id="a_node2"><a xlink:href="gso_8cpp.html" target="_top" xlink:title=" ">
<polygon fill="white" stroke="black" points="1037.23,-347.5 1037.23,-366.5 1106.23,-366.5 1106.23,-347.5 1037.23,-347.5"/>
<text text-anchor="middle" x="1071.73" y="-354.5" font-family="Helvetica,sans-Serif" font-size="10.00">fplll/gso.cpp</text>
</a>
</g>
</g>
<!-- Node1&#45;&gt;Node2 -->
<g id="edge1" class="edge">
<title>Node1&#45;&gt;Node2</title>
<path fill="none" stroke="midnightblue" d="M1440.64,-408.11C1373.29,-401.33 1233.26,-386.23 1115.73,-367 1112.65,-366.5 1109.46,-365.93 1106.27,-365.33"/>
<polygon fill="midnightblue" stroke="midnightblue" points="1440.51,-411.61 1450.81,-409.12 1441.21,-404.64 1440.51,-411.61"/>
</g>
<!-- Node3 -->
<g id="node3" class="node">
<title>Node3</title>
<g id="a_node3"><a xlink:href="lll_8h.html" target="_top" xlink:title=" ">
<polygon fill="white" stroke="black" points="1124.73,-347.5 1124.73,-366.5 1174.73,-366.5 1174.73,-347.5 1124.73,-347.5"/>
<text text-anchor="middle" x="1149.73" y="-354.5" font-family="Helvetica,sans-Serif" font-size="10.00">fplll/lll.h</text>
</a>
</g>
</g>
<!-- Node1&#45;&gt;Node3 -->
<g id="edge2" class="edge">
<title>Node1&#45;&gt;Node3</title>
<path fill="none" stroke="midnightblue" d="M1441.03,-405.52C1372.04,-394.27 1231.98,-371.42 1174.85,-362.1"/>
<polygon fill="midnightblue" stroke="midnightblue" points="1440.63,-409 1451.07,-407.16 1441.76,-402.1 1440.63,-409"/>
</g>
<!-- Node24 -->
<g id="node24" class="node">
<title>Node24</title>
<g id="a_node24"><a xlink:href="test__lll__gram_8cpp.html" target="_top" xlink:title=" ">
<polygon fill="white" stroke="black" points="1852.73,-0.5 1852.73,-19.5 1968.73,-19.5 1968.73,-0.5 1852.73,-0.5"/>
<text text-anchor="middle" x="1910.73" y="-7.5" font-family="Helvetica,sans-Serif" font-size="10.00">tests/test_lll_gram.cpp</text>
</a>
</g>
</g>
<!-- Node1&#45;&gt;Node24 -->
<g id="edge57" class="edge">
<title>Node1&#45;&gt;Node24</title>
<path fill="none" stroke="midnightblue" d="M1520.71,-409.56C1622.17,-402.26 1881.73,-376.34 1881.73,-302 1881.73,-302 1881.73,-302 1881.73,-132 1881.73,-88.8 1899.43,-39.25 1907.18,-19.63"/>
<polygon fill="midnightblue" stroke="midnightblue" points="1520.28,-406.08 1510.54,-410.26 1520.76,-413.06 1520.28,-406.08"/>
</g>
<!-- Node30 -->
<g id="node30" class="node">
<title>Node30</title>
<g id="a_node30"><a xlink:href="test__gso_8cpp.html" target="_top" xlink:title=" ">
<polygon fill="white" stroke="black" points="1736.73,-0.5 1736.73,-19.5 1834.73,-19.5 1834.73,-0.5 1736.73,-0.5"/>
<text text-anchor="middle" x="1785.73" y="-7.5" font-family="Helvetica,sans-Serif" font-size="10.00">tests/test_gso.cpp</text>
</a>
</g>
</g>
<!-- Node1&#45;&gt;Node30 -->
<g id="edge56" class="edge">
<title>Node1&#45;&gt;Node30</title>
<path fill="none" stroke="midnightblue" d="M1520.76,-405.75C1601.61,-392 1776.73,-355.98 1776.73,-302 1776.73,-302 1776.73,-302 1776.73,-132 1776.73,-89.87 1782.23,-39.72 1784.63,-19.79"/>
<polygon fill="midnightblue" stroke="midnightblue" points="1519.76,-402.37 1510.47,-407.47 1520.91,-409.27 1519.76,-402.37"/>
</g>
<!-- Node4 -->
<g id="node4" class="node">
<title>Node4</title>
<g id="a_node4"><a xlink:href="bkz_8h.html" target="_top" xlink:title=" ">
<polygon fill="white" stroke="black" points="966.23,-179.5 966.23,-198.5 1025.23,-198.5 1025.23,-179.5 966.23,-179.5"/>
<text text-anchor="middle" x="995.73" y="-186.5" font-family="Helvetica,sans-Serif" font-size="10.00">fplll/bkz.h</text>
</a>
</g>
</g>
<!-- Node3&#45;&gt;Node4 -->
<g id="edge3" class="edge">
<title>Node3&#45;&gt;Node4</title>
<path fill="none" stroke="midnightblue" d="M1147.1,-337.03C1144.47,-323.27 1139.37,-304.74 1129.73,-291 1098.62,-246.64 1041.98,-213.42 1013.33,-198.57"/>
<polygon fill="midnightblue" stroke="midnightblue" points="1143.71,-337.95 1148.78,-347.26 1150.62,-336.82 1143.71,-337.95"/>
</g>
<!-- Node3&#45;&gt;Node24 -->
<g id="edge55" class="edge">
<title>Node3&#45;&gt;Node24</title>
<path fill="none" stroke="midnightblue" d="M1185.03,-353.18C1312.1,-342.55 1738.73,-302.66 1738.73,-246 1738.73,-246 1738.73,-246 1738.73,-188 1738.73,-101.23 1846.35,-40.98 1891.34,-19.59"/>
<polygon fill="midnightblue" stroke="midnightblue" points="1184.72,-349.69 1175.04,-354 1185.3,-356.67 1184.72,-349.69"/>
</g>
<!-- Node31 -->
<g id="node31" class="node">
<title>Node31</title>
<g id="a_node31"><a xlink:href="lll_8cpp.html" target="_top" xlink:title=" ">
<polygon fill="white" stroke="black" points="838.73,-291.5 838.73,-310.5 898.73,-310.5 898.73,-291.5 838.73,-291.5"/>
<text text-anchor="middle" x="868.73" y="-298.5" font-family="Helvetica,sans-Serif" font-size="10.00">fplll/lll.cpp</text>
</a>
</g>
</g>
<!-- Node3&#45;&gt;Node31 -->
<g id="edge45" class="edge">
<title>Node3&#45;&gt;Node31</title>
<path fill="none" stroke="midnightblue" d="M1115.03,-347.06C1114.93,-347.04 1114.83,-347.02 1114.73,-347 1023.44,-327.36 999.26,-329.51 907.73,-311 904.87,-310.42 901.9,-309.79 898.93,-309.14"/>
<polygon fill="midnightblue" stroke="midnightblue" points="1114.02,-350.42 1124.55,-349.27 1115.6,-343.6 1114.02,-350.42"/>
</g>
<!-- Node32 -->
<g id="node32" class="node">
<title>Node32</title>
<g id="a_node32"><a xlink:href="pruner_8h.html" target="_top" xlink:title=" ">
<polygon fill="white" stroke="black" points="917.23,-291.5 917.23,-310.5 1016.23,-310.5 1016.23,-291.5 917.23,-291.5"/>
<text text-anchor="middle" x="966.73" y="-298.5" font-family="Helvetica,sans-Serif" font-size="10.00">fplll/pruner/pruner.h</text>
</a>
</g>
</g>
<!-- Node3&#45;&gt;Node32 -->
<g id="edge46" class="edge">
<title>Node3&#45;&gt;Node32</title>
<path fill="none" stroke="midnightblue" d="M1115,-345.75C1080.46,-335.56 1028.08,-320.1 995.71,-310.55"/>
<polygon fill="midnightblue" stroke="midnightblue" points="1114.09,-349.13 1124.67,-348.6 1116.07,-342.42 1114.09,-349.13"/>
</g>
<!-- Node35 -->
<g id="node35" class="node">
<title>Node35</title>
<g id="a_node35"><a xlink:href="wrapper_8cpp.html" target="_top" xlink:title=" ">
<polygon fill="white" stroke="black" points="1034.23,-291.5 1034.23,-310.5 1121.23,-310.5 1121.23,-291.5 1034.23,-291.5"/>
<text text-anchor="middle" x="1077.73" y="-298.5" font-family="Helvetica,sans-Serif" font-size="10.00">fplll/wrapper.cpp</text>
</a>
</g>
</g>
<!-- Node3&#45;&gt;Node35 -->
<g id="edge54" class="edge">
<title>Node3&#45;&gt;Node35</title>
<path fill="none" stroke="midnightblue" d="M1129.87,-341.1C1116.91,-331.38 1100.43,-319.03 1089.51,-310.83"/>
<polygon fill="midnightblue" stroke="midnightblue" points="1128.06,-344.12 1138.16,-347.32 1132.26,-338.52 1128.06,-344.12"/>
</g>
<!-- Node5 -->
<g id="node5" class="node">
<title>Node5</title>
<g id="a_node5"><a xlink:href="bkz_8cpp.html" target="_top" xlink:title=" ">
<polygon fill="white" stroke="black" points="903.23,-123.5 903.23,-142.5 972.23,-142.5 972.23,-123.5 903.23,-123.5"/>
<text text-anchor="middle" x="937.73" y="-130.5" font-family="Helvetica,sans-Serif" font-size="10.00">fplll/bkz.cpp</text>
</a>
</g>
</g>
<!-- Node4&#45;&gt;Node5 -->
<g id="edge4" class="edge">
<title>Node4&#45;&gt;Node5</title>
<path fill="none" stroke="midnightblue" d="M978.82,-172.25C968.53,-162.67 955.77,-150.79 947.22,-142.83"/>
<polygon fill="midnightblue" stroke="midnightblue" points="976.71,-175.07 986.41,-179.32 981.48,-169.95 976.71,-175.07"/>
</g>
<!-- Node6 -->
<g id="node6" class="node">
<title>Node6</title>
<g id="a_node6"><a xlink:href="fplll_8h.html" target="_top" xlink:title=" ">
<polygon fill="white" stroke="black" points="990.73,-123.5 990.73,-142.5 1048.73,-142.5 1048.73,-123.5 990.73,-123.5"/>
<text text-anchor="middle" x="1019.73" y="-130.5" font-family="Helvetica,sans-Serif" font-size="10.00">fplll/fplll.h</text>
</a>
</g>
</g>
<!-- Node4&#45;&gt;Node6 -->
<g id="edge5" class="edge">
<title>Node4&#45;&gt;Node6</title>
<path fill="none" stroke="midnightblue" d="M1003.87,-169.69C1007.91,-160.59 1012.61,-150.01 1015.84,-142.75"/>
<polygon fill="midnightblue" stroke="midnightblue" points="1000.56,-168.52 999.7,-179.08 1006.96,-171.37 1000.56,-168.52"/>
</g>
<!-- Node7 -->
<g id="node7" class="node">
<title>Node7</title>
<g id="a_node7"><a xlink:href="fplll_8cpp.html" target="_top" xlink:title=" ">
<polygon fill="white" stroke="black" points="1429.73,-62 1429.73,-81 1497.73,-81 1497.73,-62 1429.73,-62"/>
<text text-anchor="middle" x="1463.73" y="-69" font-family="Helvetica,sans-Serif" font-size="10.00">fplll/fplll.cpp</text>
</a>
</g>
</g>
<!-- Node6&#45;&gt;Node7 -->
<g id="edge6" class="edge">
<title>Node6&#45;&gt;Node7</title>
<path fill="none" stroke="midnightblue" d="M1059.18,-129.88C1130.82,-125.5 1286.81,-113.57 1415.73,-87 1423.24,-85.45 1431.25,-83.26 1438.54,-81.04"/>
<polygon fill="midnightblue" stroke="midnightblue" points="1058.61,-126.41 1048.83,-130.49 1059.02,-133.39 1058.61,-126.41"/>
</g>
<!-- Node8 -->
<g id="node8" class="node">
<title>Node8</title>
<g id="a_node8"><a xlink:href="main_8h.html" target="_top" xlink:title=" ">
<polygon fill="white" stroke="black" points="1620.73,-62 1620.73,-81 1684.73,-81 1684.73,-62 1620.73,-62"/>
<text text-anchor="middle" x="1652.73" y="-69" font-family="Helvetica,sans-Serif" font-size="10.00">fplll/main.h</text>
</a>
</g>
</g>
<!-- Node6&#45;&gt;Node8 -->
<g id="edge7" class="edge">
<title>Node6&#45;&gt;Node8</title>
<path fill="none" stroke="midnightblue" d="M1059.08,-130.32C1150.48,-126.1 1384.14,-113.44 1577.73,-87 1591.79,-85.08 1607.2,-82.23 1620.38,-79.57"/>
<polygon fill="midnightblue" stroke="midnightblue" points="1058.73,-126.84 1048.9,-130.79 1059.05,-133.83 1058.73,-126.84"/>
</g>
<!-- Node10 -->
<g id="node10" class="node">
<title>Node10</title>
<g id="a_node10"><a xlink:href="pruner_8cpp.html" target="_top" xlink:title=" ">
<polygon fill="white" stroke="black" points="295.73,-0.5 295.73,-19.5 405.73,-19.5 405.73,-0.5 295.73,-0.5"/>
<text text-anchor="middle" x="350.73" y="-7.5" font-family="Helvetica,sans-Serif" font-size="10.00">fplll/pruner/pruner.cpp</text>
</a>
</g>
</g>
<!-- Node6&#45;&gt;Node10 -->
<g id="edge9" class="edge">
<title>Node6&#45;&gt;Node10</title>
<path fill="none" stroke="midnightblue" d="M980.21,-123.31C859.05,-107.96 595.68,-125.66 498.73,-87 478.49,-78.93 479.47,-67.14 460.73,-56 434.13,-40.19 400.93,-27.45 378.01,-19.62"/>
<polygon fill="midnightblue" stroke="midnightblue" points="980.05,-126.82 990.44,-124.74 981.02,-119.89 980.05,-126.82"/>
</g>
<!-- Node11 -->
<g id="node11" class="node">
<title>Node11</title>
<g id="a_node11"><a xlink:href="pruner__cost_8cpp.html" target="_top" xlink:title=" ">
<polygon fill="white" stroke="black" points="507.73,-56.5 507.73,-86.5 599.73,-86.5 599.73,-56.5 507.73,-56.5"/>
<text text-anchor="start" x="515.73" y="-74.5" font-family="Helvetica,sans-Serif" font-size="10.00">fplll/pruner/pruner</text>
<text text-anchor="middle" x="553.73" y="-63.5" font-family="Helvetica,sans-Serif" font-size="10.00">_cost.cpp</text>
</a>
</g>
</g>
<!-- Node6&#45;&gt;Node11 -->
<g id="edge10" class="edge">
<title>Node6&#45;&gt;Node11</title>
<path fill="none" stroke="midnightblue" d="M980.4,-123.19C815.01,-97.03 769.05,-115.7 608.73,-87 605.82,-86.48 602.83,-85.88 599.83,-85.23"/>
<polygon fill="midnightblue" stroke="midnightblue" points="980,-126.67 990.43,-124.81 981.11,-119.76 980,-126.67"/>
</g>
<!-- Node12 -->
<g id="node12" class="node">
<title>Node12</title>
<g id="a_node12"><a xlink:href="pruner__optimize_8cpp.html" target="_top" xlink:title=" ">
<polygon fill="white" stroke="black" points="749.73,-56.5 749.73,-86.5 841.73,-86.5 841.73,-56.5 749.73,-56.5"/>
<text text-anchor="start" x="757.73" y="-74.5" font-family="Helvetica,sans-Serif" font-size="10.00">fplll/pruner/pruner</text>
<text text-anchor="middle" x="795.73" y="-63.5" font-family="Helvetica,sans-Serif" font-size="10.00">_optimize.cpp</text>
</a>
</g>
</g>
<!-- Node6&#45;&gt;Node12 -->
<g id="edge12" class="edge">
<title>Node6&#45;&gt;Node12</title>
<path fill="none" stroke="midnightblue" d="M980.59,-121.6C941.89,-111.32 882.68,-95.6 841.75,-84.72"/>
<polygon fill="midnightblue" stroke="midnightblue" points="979.88,-125.04 990.45,-124.22 981.68,-118.27 979.88,-125.04"/>
</g>
<!-- Node13 -->
<g id="node13" class="node">
<title>Node13</title>
<g id="a_node13"><a xlink:href="pruner__optimize__tc_8cpp.html" target="_top" xlink:title=" ">
<polygon fill="white" stroke="black" points="29.73,-56.5 29.73,-86.5 121.73,-86.5 121.73,-56.5 29.73,-56.5"/>
<text text-anchor="start" x="37.73" y="-74.5" font-family="Helvetica,sans-Serif" font-size="10.00">fplll/pruner/pruner</text>
<text text-anchor="middle" x="75.73" y="-63.5" font-family="Helvetica,sans-Serif" font-size="10.00">_optimize_tc.cpp</text>
</a>
</g>
</g>
<!-- Node6&#45;&gt;Node13 -->
<g id="edge14" class="edge">
<title>Node6&#45;&gt;Node13</title>
<path fill="none" stroke="midnightblue" d="M980.38,-123.28C604.23,-73.52 501.31,-143.03 130.73,-87 127.8,-86.56 124.81,-86.02 121.79,-85.41"/>
<polygon fill="midnightblue" stroke="midnightblue" points="980.08,-126.77 990.45,-124.63 981.01,-119.83 980.08,-126.77"/>
</g>
<!-- Node14 -->
<g id="node14" class="node">
<title>Node14</title>
<g id="a_node14"><a xlink:href="pruner__optimize__tp_8cpp.html" target="_top" xlink:title=" ">
<polygon fill="white" stroke="black" points="139.73,-56.5 139.73,-86.5 231.73,-86.5 231.73,-56.5 139.73,-56.5"/>
<text text-anchor="start" x="147.73" y="-74.5" font-family="Helvetica,sans-Serif" font-size="10.00">fplll/pruner/pruner</text>
<text text-anchor="middle" x="185.73" y="-63.5" font-family="Helvetica,sans-Serif" font-size="10.00">_optimize_tp.cpp</text>
</a>
</g>
</g>
<!-- Node6&#45;&gt;Node14 -->
<g id="edge16" class="edge">
<title>Node6&#45;&gt;Node14</title>
<path fill="none" stroke="midnightblue" d="M980.19,-123.25C652.73,-79.01 562.82,-136.73 240.73,-87 237.8,-86.55 234.81,-86 231.8,-85.39"/>
<polygon fill="midnightblue" stroke="midnightblue" points="980.07,-126.76 990.45,-124.65 981.02,-119.83 980.07,-126.76"/>
</g>
<!-- Node15 -->
<g id="node15" class="node">
<title>Node15</title>
<g id="a_node15"><a xlink:href="pruner__prob_8cpp.html" target="_top" xlink:title=" ">
<polygon fill="white" stroke="black" points="249.73,-56.5 249.73,-86.5 341.73,-86.5 341.73,-56.5 249.73,-56.5"/>
<text text-anchor="start" x="257.73" y="-74.5" font-family="Helvetica,sans-Serif" font-size="10.00">fplll/pruner/pruner</text>
<text text-anchor="middle" x="295.73" y="-63.5" font-family="Helvetica,sans-Serif" font-size="10.00">_prob.cpp</text>
</a>
</g>
</g>
<!-- Node6&#45;&gt;Node15 -->
<g id="edge18" class="edge">
<title>Node6&#45;&gt;Node15</title>
<path fill="none" stroke="midnightblue" d="M980.43,-123.26C701.3,-84.43 624.48,-130.45 350.73,-87 347.81,-86.54 344.81,-85.98 341.8,-85.36"/>
<polygon fill="midnightblue" stroke="midnightblue" points="980.05,-126.74 990.45,-124.68 981.03,-119.81 980.05,-126.74"/>
</g>
<!-- Node16 -->
<g id="node16" class="node">
<title>Node16</title>
<g id="a_node16"><a xlink:href="pruner__util_8cpp.html" target="_top" xlink:title=" ">
<polygon fill="white" stroke="black" points="359.73,-56.5 359.73,-86.5 451.73,-86.5 451.73,-56.5 359.73,-56.5"/>
<text text-anchor="start" x="367.73" y="-74.5" font-family="Helvetica,sans-Serif" font-size="10.00">fplll/pruner/pruner</text>
<text text-anchor="middle" x="405.73" y="-63.5" font-family="Helvetica,sans-Serif" font-size="10.00">_util.cpp</text>
</a>
</g>
</g>
<!-- Node6&#45;&gt;Node16 -->
<g id="edge20" class="edge">
<title>Node6&#45;&gt;Node16</title>
<path fill="none" stroke="midnightblue" d="M980.49,-123.25C752.03,-90.02 689.27,-121.58 465.73,-87 461.18,-86.3 456.46,-85.42 451.76,-84.45"/>
<polygon fill="midnightblue" stroke="midnightblue" points="980.03,-126.72 990.44,-124.72 981.06,-119.79 980.03,-126.72"/>
</g>
<!-- Node17 -->
<g id="node17" class="node">
<title>Node17</title>
<g id="a_node17"><a xlink:href="test__bkz_8cpp.html" target="_top" xlink:title=" ">
<polygon fill="white" stroke="black" points="665.73,-0.5 665.73,-19.5 763.73,-19.5 763.73,-0.5 665.73,-0.5"/>
<text text-anchor="middle" x="714.73" y="-7.5" font-family="Helvetica,sans-Serif" font-size="10.00">tests/test_bkz.cpp</text>
</a>
</g>
</g>
<!-- Node6&#45;&gt;Node17 -->
<g id="edge22" class="edge">
<title>Node6&#45;&gt;Node17</title>
<path fill="none" stroke="midnightblue" d="M986.78,-119.92C964.23,-111.37 933.83,-99.29 907.73,-87 881.64,-74.71 877.19,-67.46 850.73,-56 815.7,-40.82 773.79,-27.67 745.83,-19.57"/>
<polygon fill="midnightblue" stroke="midnightblue" points="985.64,-123.23 996.23,-123.47 988.1,-116.67 985.64,-123.23"/>
</g>
<!-- Node18 -->
<g id="node18" class="node">
<title>Node18</title>
<g id="a_node18"><a xlink:href="test__bkz__gram_8cpp.html" target="_top" xlink:title=" ">
<polygon fill="white" stroke="black" points="782.23,-0.5 782.23,-19.5 907.23,-19.5 907.23,-0.5 782.23,-0.5"/>
<text text-anchor="middle" x="844.73" y="-7.5" font-family="Helvetica,sans-Serif" font-size="10.00">tests/test_bkz_gram.cpp</text>
</a>
</g>
</g>
<!-- Node6&#45;&gt;Node18 -->
<g id="edge23" class="edge">
<title>Node6&#45;&gt;Node18</title>
<path fill="none" stroke="midnightblue" d="M998.98,-117.65C962.29,-92.28 887.03,-40.25 857.26,-19.66"/>
<polygon fill="midnightblue" stroke="midnightblue" points="997.21,-120.68 1007.43,-123.49 1001.19,-114.93 997.21,-120.68"/>
</g>
<!-- Node19 -->
<g id="node19" class="node">
<title>Node19</title>
<g id="a_node19"><a xlink:href="test__counter_8cpp.html" target="_top" xlink:title=" ">
<polygon fill="white" stroke="black" points="618.23,-62 618.23,-81 731.23,-81 731.23,-62 618.23,-62"/>
<text text-anchor="middle" x="674.73" y="-69" font-family="Helvetica,sans-Serif" font-size="10.00">tests/test_counter.cpp</text>
</a>
</g>
</g>
<!-- Node6&#45;&gt;Node19 -->
<g id="edge24" class="edge">
<title>Node6&#45;&gt;Node19</title>
<path fill="none" stroke="midnightblue" d="M980.46,-123.09C873.06,-103.06 843.69,-106.01 740.73,-87 731.27,-85.25 721.1,-83.14 711.64,-81.07"/>
<polygon fill="midnightblue" stroke="midnightblue" points="979.92,-126.55 990.4,-124.97 981.22,-119.68 979.92,-126.55"/>
</g>
<!-- Node20 -->
<g id="node20" class="node">
<title>Node20</title>
<g id="a_node20"><a xlink:href="test__cvp_8cpp.html" target="_top" xlink:title=" ">
<polygon fill="white" stroke="black" points="925.73,-0.5 925.73,-19.5 1023.73,-19.5 1023.73,-0.5 925.73,-0.5"/>
<text text-anchor="middle" x="974.73" y="-7.5" font-family="Helvetica,sans-Serif" font-size="10.00">tests/test_cvp.cpp</text>
</a>
</g>
</g>
<!-- Node6&#45;&gt;Node20 -->
<g id="edge25" class="edge">
<title>Node6&#45;&gt;Node20</title>
<path fill="none" stroke="midnightblue" d="M996.48,-117.68C986.25,-109.99 975.3,-99.5 969.73,-87 959.73,-64.53 966.9,-34.59 971.57,-19.9"/>
<polygon fill="midnightblue" stroke="midnightblue" points="994.58,-120.62 1004.78,-123.47 998.58,-114.88 994.58,-120.62"/>
</g>
<!-- Node21 -->
<g id="node21" class="node">
<title>Node21</title>
<g id="a_node21"><a xlink:href="test__enum_8cpp.html" target="_top" xlink:title=" ">
<polygon fill="white" stroke="black" points="1041.73,-0.5 1041.73,-19.5 1147.73,-19.5 1147.73,-0.5 1041.73,-0.5"/>
<text text-anchor="middle" x="1094.73" y="-7.5" font-family="Helvetica,sans-Serif" font-size="10.00">tests/test_enum.cpp</text>
</a>
</g>
</g>
<!-- Node6&#45;&gt;Node21 -->
<g id="edge26" class="edge">
<title>Node6&#45;&gt;Node21</title>
<path fill="none" stroke="midnightblue" d="M1008.81,-114.36C1000.29,-98.1 991.59,-73.86 1002.73,-56 1014.41,-37.3 1036.36,-26.15 1055.89,-19.64"/>
<polygon fill="midnightblue" stroke="midnightblue" points="1005.93,-116.37 1013.92,-123.33 1012.01,-112.91 1005.93,-116.37"/>
</g>
<!-- Node22 -->
<g id="node22" class="node">
<title>Node22</title>
<g id="a_node22"><a xlink:href="test__hlll_8cpp.html" target="_top" xlink:title=" ">
<polygon fill="white" stroke="black" points="1165.73,-0.5 1165.73,-19.5 1259.73,-19.5 1259.73,-0.5 1165.73,-0.5"/>
<text text-anchor="middle" x="1212.73" y="-7.5" font-family="Helvetica,sans-Serif" font-size="10.00">tests/test_hlll.cpp</text>
</a>
</g>
</g>
<!-- Node6&#45;&gt;Node22 -->
<g id="edge27" class="edge">
<title>Node6&#45;&gt;Node22</title>
<path fill="none" stroke="midnightblue" d="M1058.83,-129.65C1115.13,-125.35 1214.73,-114.04 1236.73,-87 1253.15,-66.82 1232.51,-35.29 1220.39,-19.97"/>
<polygon fill="midnightblue" stroke="midnightblue" points="1058.57,-126.16 1048.85,-130.37 1059.08,-133.14 1058.57,-126.16"/>
</g>
<!-- Node23 -->
<g id="node23" class="node">
<title>Node23</title>
<g id="a_node23"><a xlink:href="test__lll_8cpp.html" target="_top" xlink:title=" ">
<polygon fill="white" stroke="black" points="1278.23,-0.5 1278.23,-19.5 1367.23,-19.5 1367.23,-0.5 1278.23,-0.5"/>
<text text-anchor="middle" x="1322.73" y="-7.5" font-family="Helvetica,sans-Serif" font-size="10.00">tests/test_lll.cpp</text>
</a>
</g>
</g>
<!-- Node6&#45;&gt;Node23 -->
<g id="edge28" class="edge">
<title>Node6&#45;&gt;Node23</title>
<path fill="none" stroke="midnightblue" d="M1058.75,-130.02C1147.91,-125.1 1360.58,-110.94 1381.73,-87 1390.85,-76.67 1387.84,-68.35 1381.73,-56 1373.45,-39.26 1355.62,-27.05 1341.72,-19.6"/>
<polygon fill="midnightblue" stroke="midnightblue" points="1058.55,-126.53 1048.76,-130.56 1058.93,-133.52 1058.55,-126.53"/>
</g>
<!-- Node6&#45;&gt;Node24 -->
<g id="edge29" class="edge">
<title>Node6&#45;&gt;Node24</title>
<path fill="none" stroke="midnightblue" d="M1059.11,-130.77C1184.12,-126.63 1571.07,-112.09 1693.73,-87 1769.41,-71.52 1854.66,-36.02 1891.78,-19.61"/>
<polygon fill="midnightblue" stroke="midnightblue" points="1058.73,-127.28 1048.85,-131.1 1058.96,-134.27 1058.73,-127.28"/>
</g>
<!-- Node25 -->
<g id="node25" class="node">
<title>Node25</title>
<g id="a_node25"><a xlink:href="test__nr_8cpp.html" target="_top" xlink:title=" ">
<polygon fill="white" stroke="black" points="1012.23,-62 1012.23,-81 1101.23,-81 1101.23,-62 1012.23,-62"/>
<text text-anchor="middle" x="1056.73" y="-69" font-family="Helvetica,sans-Serif" font-size="10.00">tests/test_nr.cpp</text>
</a>
</g>
</g>
<!-- Node6&#45;&gt;Node25 -->
<g id="edge30" class="edge">
<title>Node6&#45;&gt;Node25</title>
<path fill="none" stroke="midnightblue" d="M1030.51,-114.67C1037.39,-103.61 1046,-89.75 1051.44,-81.01"/>
<polygon fill="midnightblue" stroke="midnightblue" points="1027.34,-113.13 1025.03,-123.48 1033.29,-116.83 1027.34,-113.13"/>
</g>
<!-- Node26 -->
<g id="node26" class="node">
<title>Node26</title>
<g id="a_node26"><a xlink:href="test__pruner_8cpp.html" target="_top" xlink:title=" ">
<polygon fill="white" stroke="black" points="1119.73,-62 1119.73,-81 1227.73,-81 1227.73,-62 1119.73,-62"/>
<text text-anchor="middle" x="1173.73" y="-69" font-family="Helvetica,sans-Serif" font-size="10.00">tests/test_pruner.cpp</text>
</a>
</g>
</g>
<!-- Node6&#45;&gt;Node26 -->
<g id="edge31" class="edge">
<title>Node6&#45;&gt;Node26</title>
<path fill="none" stroke="midnightblue" d="M1051.35,-119.78C1081.28,-108.22 1125.43,-91.16 1151.71,-81.01"/>
<polygon fill="midnightblue" stroke="midnightblue" points="1049.86,-116.61 1041.8,-123.48 1052.39,-123.14 1049.86,-116.61"/>
</g>
<!-- Node27 -->
<g id="node27" class="node">
<title>Node27</title>
<g id="a_node27"><a xlink:href="test__svp_8cpp.html" target="_top" xlink:title=" ">
<polygon fill="white" stroke="black" points="1384.73,-0.5 1384.73,-19.5 1482.73,-19.5 1482.73,-0.5 1384.73,-0.5"/>
<text text-anchor="middle" x="1433.73" y="-7.5" font-family="Helvetica,sans-Serif" font-size="10.00">tests/test_svp.cpp</text>
</a>
</g>
</g>
<!-- Node6&#45;&gt;Node27 -->
<g id="edge32" class="edge">
<title>Node6&#45;&gt;Node27</title>
<path fill="none" stroke="midnightblue" d="M1059.14,-131.34C1169.72,-129.07 1476.77,-119.86 1506.73,-87 1516.02,-76.82 1513.45,-68.03 1506.73,-56 1496.79,-38.19 1476.58,-26.56 1459.94,-19.59"/>
<polygon fill="midnightblue" stroke="midnightblue" points="1059,-127.84 1049.07,-131.54 1059.14,-134.84 1059,-127.84"/>
</g>
<!-- Node28 -->
<g id="node28" class="node">
<title>Node28</title>
<g id="a_node28"><a xlink:href="test__svp__gram_8cpp.html" target="_top" xlink:title=" ">
<polygon fill="white" stroke="black" points="1501.23,-0.5 1501.23,-19.5 1626.23,-19.5 1626.23,-0.5 1501.23,-0.5"/>
<text text-anchor="middle" x="1563.73" y="-7.5" font-family="Helvetica,sans-Serif" font-size="10.00">tests/test_svp_gram.cpp</text>
</a>
</g>
</g>
<!-- Node6&#45;&gt;Node28 -->
<g id="edge33" class="edge">
<title>Node6&#45;&gt;Node28</title>
<path fill="none" stroke="midnightblue" d="M1059.11,-130.66C1171.21,-126.56 1486.41,-112.81 1524.73,-87 1548.35,-71.09 1558.48,-36.3 1562.07,-19.89"/>
<polygon fill="midnightblue" stroke="midnightblue" points="1058.78,-127.17 1048.92,-131.03 1059.04,-134.17 1058.78,-127.17"/>
</g>
<!-- Node29 -->
<g id="node29" class="node">
<title>Node29</title>
<g id="a_node29"><a xlink:href="test__utils_8h.html" target="_top" xlink:title=" ">
<polygon fill="white" stroke="black" points="1284.23,-62 1284.23,-81 1373.23,-81 1373.23,-62 1284.23,-62"/>
<text text-anchor="middle" x="1328.73" y="-69" font-family="Helvetica,sans-Serif" font-size="10.00">tests/test_utils.h</text>
</a>
</g>
</g>
<!-- Node6&#45;&gt;Node29 -->
<g id="edge34" class="edge">
<title>Node6&#45;&gt;Node29</title>
<path fill="none" stroke="midnightblue" d="M1059.04,-125.71C1108.41,-117.63 1195.63,-102.76 1269.73,-87 1278.09,-85.22 1287.06,-83.12 1295.43,-81.07"/>
<polygon fill="midnightblue" stroke="midnightblue" points="1058.41,-122.27 1049.1,-127.33 1059.53,-129.18 1058.41,-122.27"/>
</g>
<!-- Node9 -->
<g id="node9" class="node">
<title>Node9</title>
<g id="a_node9"><a xlink:href="main_8cpp.html" target="_top" xlink:title=" ">
<polygon fill="white" stroke="black" points="1644.73,-0.5 1644.73,-19.5 1718.73,-19.5 1718.73,-0.5 1644.73,-0.5"/>
<text text-anchor="middle" x="1681.73" y="-7.5" font-family="Helvetica,sans-Serif" font-size="10.00">fplll/main.cpp</text>
</a>
</g>
</g>
<!-- Node8&#45;&gt;Node9 -->
<g id="edge8" class="edge">
<title>Node8&#45;&gt;Node9</title>
<path fill="none" stroke="midnightblue" d="M1661.34,-52.83C1666.71,-41.83 1673.37,-28.16 1677.59,-19.51"/>
<polygon fill="midnightblue" stroke="midnightblue" points="1658.12,-51.45 1656.89,-61.98 1664.41,-54.52 1658.12,-51.45"/>
</g>
<!-- Node11&#45;&gt;Node10 -->
<g id="edge11" class="edge">
<title>Node11&#45;&gt;Node10</title>
<path fill="none" stroke="midnightblue" d="M497.72,-54.08C459.59,-42.91 410.65,-28.56 379.98,-19.57"/>
<polygon fill="midnightblue" stroke="midnightblue" points="497.09,-57.54 507.67,-57 499.06,-50.83 497.09,-57.54"/>
</g>
<!-- Node12&#45;&gt;Node10 -->
<g id="edge13" class="edge">
<title>Node12&#45;&gt;Node10</title>
<path fill="none" stroke="midnightblue" d="M740.04,-56.06C739.94,-56.04 739.83,-56.02 739.73,-56 621.77,-34.01 481.56,-20.95 405.85,-14.96"/>
<polygon fill="midnightblue" stroke="midnightblue" points="739.2,-59.46 749.7,-58.04 740.61,-52.6 739.2,-59.46"/>
</g>
<!-- Node13&#45;&gt;Node10 -->
<g id="edge15" class="edge">
<title>Node13&#45;&gt;Node10</title>
<path fill="none" stroke="midnightblue" d="M131.98,-55.78C197.46,-40.63 262.63,-27.7 305.06,-19.57"/>
<polygon fill="midnightblue" stroke="midnightblue" points="130.84,-52.45 121.9,-58.13 132.43,-59.27 130.84,-52.45"/>
</g>
<!-- Node14&#45;&gt;Node10 -->
<g id="edge17" class="edge">
<title>Node14&#45;&gt;Node10</title>
<path fill="none" stroke="midnightblue" d="M234.42,-52.94C264.82,-41.98 302.63,-28.35 326.72,-19.66"/>
<polygon fill="midnightblue" stroke="midnightblue" points="233.05,-49.71 224.84,-56.4 235.43,-56.3 233.05,-49.71"/>
</g>
<!-- Node15&#45;&gt;Node10 -->
<g id="edge19" class="edge">
<title>Node15&#45;&gt;Node10</title>
<path fill="none" stroke="midnightblue" d="M315.6,-49C324.98,-38.86 335.64,-27.33 342.73,-19.66"/>
<polygon fill="midnightblue" stroke="midnightblue" points="312.98,-46.68 308.77,-56.4 318.12,-51.43 312.98,-46.68"/>
</g>
<!-- Node16&#45;&gt;Node10 -->
<g id="edge21" class="edge">
<title>Node16&#45;&gt;Node10</title>
<path fill="none" stroke="midnightblue" d="M385.86,-49C376.49,-38.86 365.83,-27.33 358.74,-19.66"/>
<polygon fill="midnightblue" stroke="midnightblue" points="383.34,-51.43 392.7,-56.4 388.48,-46.68 383.34,-51.43"/>
</g>
<!-- Node29&#45;&gt;Node17 -->
<g id="edge35" class="edge">
<title>Node29&#45;&gt;Node17</title>
<path fill="none" stroke="midnightblue" d="M1273.86,-61.13C1261.66,-59.24 1248.78,-57.41 1236.73,-56 1031.3,-31.88 978.19,-43.88 772.73,-20 769.8,-19.66 766.78,-19.28 763.74,-18.88"/>
<polygon fill="midnightblue" stroke="midnightblue" points="1273.49,-64.61 1283.91,-62.71 1274.57,-57.69 1273.49,-64.61"/>
</g>
<!-- Node29&#45;&gt;Node18 -->
<g id="edge36" class="edge">
<title>Node29&#45;&gt;Node18</title>
<path fill="none" stroke="midnightblue" d="M1273.82,-61.44C1261.62,-59.54 1248.75,-57.62 1236.73,-56 1094.9,-36.85 1058.85,-36.88 916.73,-20 913.73,-19.64 910.66,-19.27 907.56,-18.9"/>
<polygon fill="midnightblue" stroke="midnightblue" points="1273.45,-64.92 1283.87,-63.02 1274.54,-58.01 1273.45,-64.92"/>
</g>
<!-- Node29&#45;&gt;Node20 -->
<g id="edge37" class="edge">
<title>Node29&#45;&gt;Node20</title>
<path fill="none" stroke="midnightblue" d="M1273.74,-61.26C1205.26,-49.75 1089.31,-30.26 1023.74,-19.24"/>
<polygon fill="midnightblue" stroke="midnightblue" points="1273.46,-64.76 1283.9,-62.96 1274.62,-57.86 1273.46,-64.76"/>
</g>
<!-- Node29&#45;&gt;Node21 -->
<g id="edge38" class="edge">
<title>Node29&#45;&gt;Node21</title>
<path fill="none" stroke="midnightblue" d="M1285.35,-59.47C1239.91,-47.91 1169.52,-30.02 1128.2,-19.51"/>
<polygon fill="midnightblue" stroke="midnightblue" points="1284.65,-62.9 1295.21,-61.98 1286.38,-56.12 1284.65,-62.9"/>
</g>
<!-- Node29&#45;&gt;Node22 -->
<g id="edge40" class="edge">
<title>Node29&#45;&gt;Node22</title>
<path fill="none" stroke="midnightblue" d="M1303.13,-57.37C1280.65,-45.83 1248.6,-29.4 1229.32,-19.51"/>
<polygon fill="midnightblue" stroke="midnightblue" points="1301.62,-60.53 1312.11,-61.98 1304.81,-54.3 1301.62,-60.53"/>
</g>
<!-- Node29&#45;&gt;Node23 -->
<g id="edge41" class="edge">
<title>Node29&#45;&gt;Node23</title>
<path fill="none" stroke="midnightblue" d="M1326.85,-51.82C1325.76,-41 1324.44,-27.9 1323.59,-19.51"/>
<polygon fill="midnightblue" stroke="midnightblue" points="1323.39,-52.38 1327.87,-61.98 1330.35,-51.67 1323.39,-52.38"/>
</g>
<!-- Node29&#45;&gt;Node24 -->
<g id="edge42" class="edge">
<title>Node29&#45;&gt;Node24</title>
<path fill="none" stroke="midnightblue" d="M1383.62,-61.19C1395.81,-59.31 1408.69,-57.46 1420.73,-56 1608.04,-33.3 1656.18,-40.57 1843.73,-20 1846.65,-19.68 1849.63,-19.34 1852.65,-18.98"/>
<polygon fill="midnightblue" stroke="midnightblue" points="1382.9,-57.76 1373.56,-62.78 1383.99,-64.68 1382.9,-57.76"/>
</g>
<!-- Node29&#45;&gt;Node27 -->
<g id="edge43" class="edge">
<title>Node29&#45;&gt;Node27</title>
<path fill="none" stroke="midnightblue" d="M1352.73,-56.9C1373.03,-45.4 1401.5,-29.27 1418.72,-19.51"/>
<polygon fill="midnightblue" stroke="midnightblue" points="1350.75,-54 1343.78,-61.98 1354.2,-60.09 1350.75,-54"/>
</g>
<!-- Node29&#45;&gt;Node28 -->
<g id="edge44" class="edge">
<title>Node29&#45;&gt;Node28</title>
<path fill="none" stroke="midnightblue" d="M1372.3,-59.47C1417.93,-47.91 1488.62,-30.02 1530.13,-19.51"/>
<polygon fill="midnightblue" stroke="midnightblue" points="1371.24,-56.13 1362.4,-61.98 1372.96,-62.91 1371.24,-56.13"/>
</g>
<!-- Node29&#45;&gt;Node30 -->
<g id="edge39" class="edge">
<title>Node29&#45;&gt;Node30</title>
<path fill="none" stroke="midnightblue" d="M1383.65,-61.48C1395.85,-59.58 1408.72,-57.65 1420.73,-56 1556.83,-37.3 1591.61,-38.54 1727.73,-20 1730.66,-19.6 1733.67,-19.18 1736.7,-18.74"/>
<polygon fill="midnightblue" stroke="midnightblue" points="1382.93,-58.05 1373.6,-63.06 1384.02,-64.96 1382.93,-58.05"/>
</g>
<!-- Node32&#45;&gt;Node6 -->
<g id="edge52" class="edge">
<title>Node32&#45;&gt;Node6</title>
<path fill="none" stroke="midnightblue" d="M988.41,-285.12C999.06,-277.07 1011.54,-266.44 1020.73,-255 1038.29,-233.15 1043.1,-226.23 1049.73,-199 1051.84,-190.36 1052.31,-187.51 1049.73,-179 1045.49,-164.98 1035.28,-151.34 1027.95,-142.82"/>
<polygon fill="midnightblue" stroke="midnightblue" points="986.03,-282.52 980.01,-291.24 990.16,-288.18 986.03,-282.52"/>
</g>
<!-- Node32&#45;&gt;Node10 -->
<g id="edge53" class="edge">
<title>Node32&#45;&gt;Node10</title>
<path fill="none" stroke="midnightblue" d="M907.06,-291.2C765.39,-278.38 1.73,-288.62 1.73,-190 1.73,-190 1.73,-190 1.73,-132 1.73,-97.18 -5.2,-79.24 20.73,-56 60.19,-20.64 212.25,-12.85 295.49,-11.27"/>
<polygon fill="midnightblue" stroke="midnightblue" points="906.86,-294.7 917.18,-292.29 907.61,-287.74 906.86,-294.7"/>
</g>
<!-- Node33 -->
<g id="node33" class="node">
<title>Node33</title>
<g id="a_node33"><a xlink:href="bkz__param_8h.html" target="_top" xlink:title=" ">
<polygon fill="white" stroke="black" points="921.23,-235.5 921.23,-254.5 1012.23,-254.5 1012.23,-235.5 921.23,-235.5"/>
<text text-anchor="middle" x="966.73" y="-242.5" font-family="Helvetica,sans-Serif" font-size="10.00">fplll/bkz_param.h</text>
</a>
</g>
</g>
<!-- Node32&#45;&gt;Node33 -->
<g id="edge47" class="edge">
<title>Node32&#45;&gt;Node33</title>
<path fill="none" stroke="midnightblue" d="M966.73,-280.8C966.73,-271.91 966.73,-261.78 966.73,-254.75"/>
<polygon fill="midnightblue" stroke="midnightblue" points="963.23,-281.08 966.73,-291.08 970.23,-281.08 963.23,-281.08"/>
</g>
<!-- Node33&#45;&gt;Node4 -->
<g id="edge49" class="edge">
<title>Node33&#45;&gt;Node4</title>
<path fill="none" stroke="midnightblue" d="M976.41,-225.98C981.33,-216.82 987.09,-206.09 991.03,-198.75"/>
<polygon fill="midnightblue" stroke="midnightblue" points="973.17,-224.62 971.52,-235.08 979.34,-227.93 973.17,-224.62"/>
</g>
<!-- Node33&#45;&gt;Node5 -->
<g id="edge48" class="edge">
<title>Node33&#45;&gt;Node5</title>
<path fill="none" stroke="midnightblue" d="M961.9,-225.67C955.56,-201.62 944.69,-160.39 940,-142.59"/>
<polygon fill="midnightblue" stroke="midnightblue" points="958.52,-226.59 964.46,-235.37 965.29,-224.81 958.52,-226.59"/>
</g>
<!-- Node33&#45;&gt;Node6 -->
<g id="edge51" class="edge">
<title>Node33&#45;&gt;Node6</title>
<path fill="none" stroke="midnightblue" d="M998.57,-230.94C1011.97,-223.67 1026.18,-213.17 1033.73,-199 1043.61,-180.46 1032.37,-155.43 1025.04,-142.51"/>
<polygon fill="midnightblue" stroke="midnightblue" points="996.9,-227.87 989.52,-235.47 1000.03,-234.13 996.9,-227.87"/>
</g>
<!-- Node34 -->
<g id="node34" class="node">
<title>Node34</title>
<g id="a_node34"><a xlink:href="bkz__param_8cpp.html" target="_top" xlink:title=" ">
<polygon fill="white" stroke="black" points="808.23,-179.5 808.23,-198.5 909.23,-198.5 909.23,-179.5 808.23,-179.5"/>
<text text-anchor="middle" x="858.73" y="-186.5" font-family="Helvetica,sans-Serif" font-size="10.00">fplll/bkz_param.cpp</text>
</a>
</g>
</g>
<!-- Node33&#45;&gt;Node34 -->
<g id="edge50" class="edge">
<title>Node33&#45;&gt;Node34</title>
<path fill="none" stroke="midnightblue" d="M940.18,-230.73C920.19,-220.73 893.35,-207.31 876.04,-198.65"/>
<polygon fill="midnightblue" stroke="midnightblue" points="938.87,-233.98 949.38,-235.32 942,-227.72 938.87,-233.98"/>
</g>
</g>
</svg>
