<?xml version="1.0" encoding="UTF-8" standalone="no"?>
<!DOCTYPE svg PUBLIC "-//W3C//DTD SVG 1.1//EN"
 "http://www.w3.org/Graphics/SVG/1.1/DTD/svg11.dtd">
<!-- Generated by graphviz version 2.38.0 (20140413.2041)
 -->
<!-- Title: fplll/gso.h Pages: 1 -->
<svg width="1027pt" height="576pt"
 viewBox="0.00 0.00 1027.00 576.00" xmlns="http://www.w3.org/2000/svg" xmlns:xlink="http://www.w3.org/1999/xlink">
<g id="graph0" class="graph" transform="scale(1 1) rotate(0) translate(4 572)">
<title>fplll/gso.h</title>
<polygon fill="white" stroke="none" points="-4,4 -4,-572 1023,-572 1023,4 -4,4"/>
<!-- Node1 -->
<g id="node1" class="node"><title>Node1</title>
<polygon fill="#bfbfbf" stroke="black" points="592,-548.5 592,-567.5 651,-567.5 651,-548.5 592,-548.5"/>
<text text-anchor="middle" x="621.5" y="-555.5" font-family="Helvetica,sans-Serif" font-size="10.00">fplll/gso.h</text>
</g>
<!-- Node2 -->
<g id="node2" class="node"><title>Node2</title>
<g id="a_node2"><a xlink:href="enumerate_8h.html" target="_top" xlink:title="fplll/enum/enumerate.h">
<polygon fill="white" stroke="black" points="262.5,-492.5 262.5,-511.5 378.5,-511.5 378.5,-492.5 262.5,-492.5"/>
<text text-anchor="middle" x="320.5" y="-499.5" font-family="Helvetica,sans-Serif" font-size="10.00">fplll/enum/enumerate.h</text>
</a>
</g>
</g>
<!-- Node1&#45;&gt;Node2 -->
<g id="edge1" class="edge"><title>Node1&#45;&gt;Node2</title>
<path fill="none" stroke="midnightblue" d="M581.734,-549.866C526.618,-539.978 427.144,-522.132 368.132,-511.545"/>
<polygon fill="midnightblue" stroke="midnightblue" points="581.354,-553.354 591.815,-551.674 582.59,-546.464 581.354,-553.354"/>
</g>
<!-- Node28 -->
<g id="node28" class="node"><title>Node28</title>
<g id="a_node28"><a xlink:href="lll_8h.html" target="_top" xlink:title="fplll/lll.h">
<polygon fill="white" stroke="black" points="482.5,-492.5 482.5,-511.5 532.5,-511.5 532.5,-492.5 482.5,-492.5"/>
<text text-anchor="middle" x="507.5" y="-499.5" font-family="Helvetica,sans-Serif" font-size="10.00">fplll/lll.h</text>
</a>
</g>
</g>
<!-- Node1&#45;&gt;Node28 -->
<g id="edge35" class="edge"><title>Node1&#45;&gt;Node28</title>
<path fill="none" stroke="midnightblue" d="M594.258,-544.096C572.96,-534.007 543.958,-520.27 525.479,-511.516"/>
<polygon fill="midnightblue" stroke="midnightblue" points="592.901,-547.326 603.436,-548.444 595.897,-541 592.901,-547.326"/>
</g>
<!-- Node31 -->
<g id="node31" class="node"><title>Node31</title>
<g id="a_node31"><a xlink:href="pruner_8h.html" target="_top" xlink:title="fplll/pruner.h">
<polygon fill="white" stroke="black" points="586.5,-492.5 586.5,-511.5 656.5,-511.5 656.5,-492.5 586.5,-492.5"/>
<text text-anchor="middle" x="621.5" y="-499.5" font-family="Helvetica,sans-Serif" font-size="10.00">fplll/pruner.h</text>
</a>
</g>
</g>
<!-- Node1&#45;&gt;Node31 -->
<g id="edge39" class="edge"><title>Node1&#45;&gt;Node31</title>
<path fill="none" stroke="midnightblue" d="M621.5,-537.805C621.5,-528.91 621.5,-518.78 621.5,-511.751"/>
<polygon fill="midnightblue" stroke="midnightblue" points="618,-538.083 621.5,-548.083 625,-538.083 618,-538.083"/>
</g>
<!-- Node32 -->
<g id="node32" class="node"><title>Node32</title>
<g id="a_node32"><a xlink:href="pruner_8cpp.html" target="_top" xlink:title="fplll/pruner.cpp">
<polygon fill="white" stroke="black" points="648.5,-436.5 648.5,-455.5 728.5,-455.5 728.5,-436.5 648.5,-436.5"/>
<text text-anchor="middle" x="688.5" y="-443.5" font-family="Helvetica,sans-Serif" font-size="10.00">fplll/pruner.cpp</text>
</a>
</g>
</g>
<!-- Node1&#45;&gt;Node32 -->
<g id="edge44" class="edge"><title>Node1&#45;&gt;Node32</title>
<path fill="none" stroke="midnightblue" d="M639.813,-541.702C648.56,-533.613 658.6,-523.077 665.5,-512 677.019,-493.509 683.785,-468.457 686.733,-455.518"/>
<polygon fill="midnightblue" stroke="midnightblue" points="637.432,-539.135 632.271,-548.388 642.076,-544.374 637.432,-539.135"/>
</g>
<!-- Node33 -->
<g id="node33" class="node"><title>Node33</title>
<g id="a_node33"><a xlink:href="gso_8cpp.html" target="_top" xlink:title="fplll/gso.cpp">
<polygon fill="white" stroke="black" points="789,-380.5 789,-399.5 858,-399.5 858,-380.5 789,-380.5"/>
<text text-anchor="middle" x="823.5" y="-387.5" font-family="Helvetica,sans-Serif" font-size="10.00">fplll/gso.cpp</text>
</a>
</g>
</g>
<!-- Node1&#45;&gt;Node33 -->
<g id="edge42" class="edge"><title>Node1&#45;&gt;Node33</title>
<path fill="none" stroke="midnightblue" d="M642.655,-542.646C655.061,-534.042 670.917,-522.723 684.5,-512 735.227,-471.954 792.445,-419.769 814.326,-399.535"/>
<polygon fill="midnightblue" stroke="midnightblue" points="640.569,-539.833 634.312,-548.383 644.535,-545.601 640.569,-539.833"/>
</g>
<!-- Node3 -->
<g id="node3" class="node"><title>Node3</title>
<g id="a_node3"><a xlink:href="bkz_8h.html" target="_top" xlink:title="fplll/bkz.h">
<polygon fill="white" stroke="black" points="349,-436.5 349,-455.5 408,-455.5 408,-436.5 349,-436.5"/>
<text text-anchor="middle" x="378.5" y="-443.5" font-family="Helvetica,sans-Serif" font-size="10.00">fplll/bkz.h</text>
</a>
</g>
</g>
<!-- Node2&#45;&gt;Node3 -->
<g id="edge2" class="edge"><title>Node2&#45;&gt;Node3</title>
<path fill="none" stroke="midnightblue" d="M337.413,-485.253C347.703,-475.673 360.466,-463.791 369.012,-455.834"/>
<polygon fill="midnightblue" stroke="midnightblue" points="334.753,-482.948 329.819,-492.324 339.523,-488.071 334.753,-482.948"/>
</g>
<!-- Node4 -->
<g id="node4" class="node"><title>Node4</title>
<g id="a_node4"><a xlink:href="bkz_8cpp.html" target="_top" xlink:title="fplll/bkz.cpp">
<polygon fill="white" stroke="black" points="307,-380.5 307,-399.5 376,-399.5 376,-380.5 307,-380.5"/>
<text text-anchor="middle" x="341.5" y="-387.5" font-family="Helvetica,sans-Serif" font-size="10.00">fplll/bkz.cpp</text>
</a>
</g>
</g>
<!-- Node2&#45;&gt;Node4 -->
<g id="edge31" class="edge"><title>Node2&#45;&gt;Node4</title>
<path fill="none" stroke="midnightblue" d="M324.061,-482.348C328.661,-458.254 336.478,-417.308 339.86,-399.591"/>
<polygon fill="midnightblue" stroke="midnightblue" points="320.585,-481.89 322.148,-492.368 327.461,-483.202 320.585,-481.89"/>
</g>
<!-- Node26 -->
<g id="node26" class="node"><title>Node26</title>
<g id="a_node26"><a xlink:href="enumerate_8cpp.html" target="_top" xlink:title="fplll/enum/enumerate.cpp">
<polygon fill="white" stroke="black" points="166.5,-436.5 166.5,-455.5 292.5,-455.5 292.5,-436.5 166.5,-436.5"/>
<text text-anchor="middle" x="229.5" y="-443.5" font-family="Helvetica,sans-Serif" font-size="10.00">fplll/enum/enumerate.cpp</text>
</a>
</g>
</g>
<!-- Node2&#45;&gt;Node26 -->
<g id="edge32" class="edge"><title>Node2&#45;&gt;Node26</title>
<path fill="none" stroke="midnightblue" d="M297.206,-487.177C280.461,-477.241 258.4,-464.149 244.084,-455.655"/>
<polygon fill="midnightblue" stroke="midnightblue" points="295.493,-490.231 305.879,-492.324 299.066,-484.211 295.493,-490.231"/>
</g>
<!-- Node27 -->
<g id="node27" class="node"><title>Node27</title>
<g id="a_node27"><a xlink:href="svpcvp_8cpp.html" target="_top" xlink:title="fplll/svpcvp.cpp">
<polygon fill="white" stroke="black" points="0,-380.5 0,-399.5 85,-399.5 85,-380.5 0,-380.5"/>
<text text-anchor="middle" x="42.5" y="-387.5" font-family="Helvetica,sans-Serif" font-size="10.00">fplll/svpcvp.cpp</text>
</a>
</g>
</g>
<!-- Node2&#45;&gt;Node27 -->
<g id="edge33" class="edge"><title>Node2&#45;&gt;Node27</title>
<path fill="none" stroke="midnightblue" d="M268.924,-490.184C236.311,-482.515 193.644,-470.938 157.5,-456 118.501,-439.882 76.154,-413.355 55.4186,-399.708"/>
<polygon fill="midnightblue" stroke="midnightblue" points="268.174,-493.602 278.704,-492.438 269.746,-486.781 268.174,-493.602"/>
</g>
<!-- Node3&#45;&gt;Node4 -->
<g id="edge3" class="edge"><title>Node3&#45;&gt;Node4</title>
<path fill="none" stroke="midnightblue" d="M366.554,-427.566C360.188,-418.275 352.633,-407.248 347.496,-399.751"/>
<polygon fill="midnightblue" stroke="midnightblue" points="363.851,-429.812 372.39,-436.083 369.625,-425.855 363.851,-429.812"/>
</g>
<!-- Node5 -->
<g id="node5" class="node"><title>Node5</title>
<g id="a_node5"><a xlink:href="fplll_8h.html" target="_top" xlink:title="fplll/fplll.h">
<polygon fill="white" stroke="black" points="408.5,-380.5 408.5,-399.5 466.5,-399.5 466.5,-380.5 408.5,-380.5"/>
<text text-anchor="middle" x="437.5" y="-387.5" font-family="Helvetica,sans-Serif" font-size="10.00">fplll/fplll.h</text>
</a>
</g>
</g>
<!-- Node3&#45;&gt;Node5 -->
<g id="edge4" class="edge"><title>Node3&#45;&gt;Node5</title>
<path fill="none" stroke="midnightblue" d="M395.395,-429.537C405.915,-419.909 419.069,-407.869 427.848,-399.834"/>
<polygon fill="midnightblue" stroke="midnightblue" points="392.993,-426.99 387.979,-436.324 397.719,-432.154 392.993,-426.99"/>
</g>
<!-- Node6 -->
<g id="node6" class="node"><title>Node6</title>
<g id="a_node6"><a xlink:href="fplll_8cpp.html" target="_top" xlink:title="fplll/fplll.cpp">
<polygon fill="white" stroke="black" points="1.5,-319 1.5,-338 69.5,-338 69.5,-319 1.5,-319"/>
<text text-anchor="middle" x="35.5" y="-326" font-family="Helvetica,sans-Serif" font-size="10.00">fplll/fplll.cpp</text>
</a>
</g>
</g>
<!-- Node5&#45;&gt;Node6 -->
<g id="edge5" class="edge"><title>Node5&#45;&gt;Node6</title>
<path fill="none" stroke="midnightblue" d="M398.335,-382.118C393.678,-381.368 388.986,-380.644 384.5,-380 248.953,-360.531 212.102,-374.04 78.5,-344 71.736,-342.479 64.5412,-340.29 58.011,-338.073"/>
<polygon fill="midnightblue" stroke="midnightblue" points="397.946,-385.601 408.383,-383.781 399.089,-378.695 397.946,-385.601"/>
</g>
<!-- Node7 -->
<g id="node7" class="node"><title>Node7</title>
<g id="a_node7"><a xlink:href="main_8h.html" target="_top" xlink:title="fplll/main.h">
<polygon fill="white" stroke="black" points="87.5,-319 87.5,-338 151.5,-338 151.5,-319 87.5,-319"/>
<text text-anchor="middle" x="119.5" y="-326" font-family="Helvetica,sans-Serif" font-size="10.00">fplll/main.h</text>
</a>
</g>
</g>
<!-- Node5&#45;&gt;Node7 -->
<g id="edge6" class="edge"><title>Node5&#45;&gt;Node7</title>
<path fill="none" stroke="midnightblue" d="M398.306,-382.304C393.654,-381.521 388.972,-380.739 384.5,-380 285.016,-363.559 258.207,-368.911 160.5,-344 154.208,-342.396 147.517,-340.233 141.404,-338.068"/>
<polygon fill="midnightblue" stroke="midnightblue" points="397.906,-385.786 408.349,-384.002 399.072,-378.884 397.906,-385.786"/>
</g>
<!-- Node9 -->
<g id="node9" class="node"><title>Node9</title>
<g id="a_node9"><a xlink:href="sampler__basic_8h.html" target="_top" xlink:title="fplll/sieve/sampler\l_basic.h">
<polygon fill="white" stroke="black" points="783,-313.5 783,-343.5 878,-343.5 878,-313.5 783,-313.5"/>
<text text-anchor="start" x="791" y="-331.5" font-family="Helvetica,sans-Serif" font-size="10.00">fplll/sieve/sampler</text>
<text text-anchor="middle" x="830.5" y="-320.5" font-family="Helvetica,sans-Serif" font-size="10.00">_basic.h</text>
</a>
</g>
</g>
<!-- Node5&#45;&gt;Node9 -->
<g id="edge8" class="edge"><title>Node5&#45;&gt;Node9</title>
<path fill="none" stroke="midnightblue" d="M477.037,-384.85C539.306,-378.039 663.91,-363.295 768.5,-344 773.174,-343.138 778.028,-342.156 782.868,-341.119"/>
<polygon fill="midnightblue" stroke="midnightblue" points="476.436,-381.394 466.871,-385.952 477.19,-388.354 476.436,-381.394"/>
</g>
<!-- Node12 -->
<g id="node12" class="node"><title>Node12</title>
<g id="a_node12"><a xlink:href="sieve__common_8h.html" target="_top" xlink:title="fplll/sieve/sieve_common.h">
<polygon fill="white" stroke="black" points="658,-252 658,-271 793,-271 793,-252 658,-252"/>
<text text-anchor="middle" x="725.5" y="-259" font-family="Helvetica,sans-Serif" font-size="10.00">fplll/sieve/sieve_common.h</text>
</a>
</g>
</g>
<!-- Node5&#45;&gt;Node12 -->
<g id="edge25" class="edge"><title>Node5&#45;&gt;Node12</title>
<path fill="none" stroke="midnightblue" d="M476.768,-389.12C549.904,-388.416 702.569,-382.277 735.5,-344 753.351,-323.252 738.8,-287.782 730.409,-271.344"/>
<polygon fill="midnightblue" stroke="midnightblue" points="476.555,-385.621 466.578,-389.187 476.601,-392.621 476.555,-385.621"/>
</g>
<!-- Node21 -->
<g id="node21" class="node"><title>Node21</title>
<g id="a_node21"><a xlink:href="test__bkz_8cpp.html" target="_top" xlink:title="tests/test_bkz.cpp">
<polygon fill="white" stroke="black" points="169.5,-319 169.5,-338 267.5,-338 267.5,-319 169.5,-319"/>
<text text-anchor="middle" x="218.5" y="-326" font-family="Helvetica,sans-Serif" font-size="10.00">tests/test_bkz.cpp</text>
</a>
</g>
</g>
<!-- Node5&#45;&gt;Node21 -->
<g id="edge26" class="edge"><title>Node5&#45;&gt;Node21</title>
<path fill="none" stroke="midnightblue" d="M398.716,-378.463C356.274,-366.932 289.063,-348.671 249.828,-338.012"/>
<polygon fill="midnightblue" stroke="midnightblue" points="397.851,-381.854 408.418,-381.099 399.686,-375.099 397.851,-381.854"/>
</g>
<!-- Node22 -->
<g id="node22" class="node"><title>Node22</title>
<g id="a_node22"><a xlink:href="test__lll_8cpp.html" target="_top" xlink:title="tests/test_lll.cpp">
<polygon fill="white" stroke="black" points="285,-319 285,-338 374,-338 374,-319 285,-319"/>
<text text-anchor="middle" x="329.5" y="-326" font-family="Helvetica,sans-Serif" font-size="10.00">tests/test_lll.cpp</text>
</a>
</g>
</g>
<!-- Node5&#45;&gt;Node22 -->
<g id="edge27" class="edge"><title>Node5&#45;&gt;Node22</title>
<path fill="none" stroke="midnightblue" d="M413.098,-375.556C392.198,-364.042 362.737,-347.811 344.945,-338.009"/>
<polygon fill="midnightblue" stroke="midnightblue" points="411.579,-378.715 422.026,-380.475 414.956,-372.584 411.579,-378.715"/>
</g>
<!-- Node23 -->
<g id="node23" class="node"><title>Node23</title>
<g id="a_node23"><a xlink:href="test__nr_8cpp.html" target="_top" xlink:title="tests/test_nr.cpp">
<polygon fill="white" stroke="black" points="392.5,-319 392.5,-338 482.5,-338 482.5,-319 392.5,-319"/>
<text text-anchor="middle" x="437.5" y="-326" font-family="Helvetica,sans-Serif" font-size="10.00">tests/test_nr.cpp</text>
</a>
</g>
</g>
<!-- Node5&#45;&gt;Node23 -->
<g id="edge28" class="edge"><title>Node5&#45;&gt;Node23</title>
<path fill="none" stroke="midnightblue" d="M437.5,-370.317C437.5,-359.496 437.5,-346.398 437.5,-338.009"/>
<polygon fill="midnightblue" stroke="midnightblue" points="434,-370.475 437.5,-380.475 441,-370.475 434,-370.475"/>
</g>
<!-- Node24 -->
<g id="node24" class="node"><title>Node24</title>
<g id="a_node24"><a xlink:href="test__pruner_8cpp.html" target="_top" xlink:title="tests/test_pruner.cpp">
<polygon fill="white" stroke="black" points="501,-319 501,-338 610,-338 610,-319 501,-319"/>
<text text-anchor="middle" x="555.5" y="-326" font-family="Helvetica,sans-Serif" font-size="10.00">tests/test_pruner.cpp</text>
</a>
</g>
</g>
<!-- Node5&#45;&gt;Node24 -->
<g id="edge29" class="edge"><title>Node5&#45;&gt;Node24</title>
<path fill="none" stroke="midnightblue" d="M463.546,-375.867C486.416,-364.335 519.011,-347.899 538.625,-338.009"/>
<polygon fill="midnightblue" stroke="midnightblue" points="461.76,-372.847 454.407,-380.475 464.911,-379.098 461.76,-372.847"/>
</g>
<!-- Node25 -->
<g id="node25" class="node"><title>Node25</title>
<g id="a_node25"><a xlink:href="test__svp_8cpp.html" target="_top" xlink:title="tests/test_svp.cpp">
<polygon fill="white" stroke="black" points="628.5,-319 628.5,-338 726.5,-338 726.5,-319 628.5,-319"/>
<text text-anchor="middle" x="677.5" y="-326" font-family="Helvetica,sans-Serif" font-size="10.00">tests/test_svp.cpp</text>
</a>
</g>
</g>
<!-- Node5&#45;&gt;Node25 -->
<g id="edge30" class="edge"><title>Node5&#45;&gt;Node25</title>
<path fill="none" stroke="midnightblue" d="M476.892,-379.234C523.174,-367.76 599.211,-348.909 643.178,-338.009"/>
<polygon fill="midnightblue" stroke="midnightblue" points="475.793,-375.901 466.929,-381.704 477.477,-382.695 475.793,-375.901"/>
</g>
<!-- Node8 -->
<g id="node8" class="node"><title>Node8</title>
<g id="a_node8"><a xlink:href="main_8cpp.html" target="_top" xlink:title="fplll/main.cpp">
<polygon fill="white" stroke="black" points="82.5,-252 82.5,-271 156.5,-271 156.5,-252 82.5,-252"/>
<text text-anchor="middle" x="119.5" y="-259" font-family="Helvetica,sans-Serif" font-size="10.00">fplll/main.cpp</text>
</a>
</g>
</g>
<!-- Node7&#45;&gt;Node8 -->
<g id="edge7" class="edge"><title>Node7&#45;&gt;Node8</title>
<path fill="none" stroke="midnightblue" d="M119.5,-308.537C119.5,-296.17 119.5,-280.62 119.5,-271.127"/>
<polygon fill="midnightblue" stroke="midnightblue" points="116,-308.734 119.5,-318.734 123,-308.734 116,-308.734"/>
</g>
<!-- Node10 -->
<g id="node10" class="node"><title>Node10</title>
<g id="a_node10"><a xlink:href="sampler__basic_8cpp.html" target="_top" xlink:title="fplll/sieve/sampler\l_basic.cpp">
<polygon fill="white" stroke="black" points="811,-246.5 811,-276.5 906,-276.5 906,-246.5 811,-246.5"/>
<text text-anchor="start" x="819" y="-264.5" font-family="Helvetica,sans-Serif" font-size="10.00">fplll/sieve/sampler</text>
<text text-anchor="middle" x="858.5" y="-253.5" font-family="Helvetica,sans-Serif" font-size="10.00">_basic.cpp</text>
</a>
</g>
</g>
<!-- Node9&#45;&gt;Node10 -->
<g id="edge9" class="edge"><title>Node9&#45;&gt;Node10</title>
<path fill="none" stroke="midnightblue" d="M840.627,-303.991C844.584,-294.804 848.989,-284.578 852.436,-276.577"/>
<polygon fill="midnightblue" stroke="midnightblue" points="837.317,-302.827 836.576,-313.396 843.746,-305.597 837.317,-302.827"/>
</g>
<!-- Node11 -->
<g id="node11" class="node"><title>Node11</title>
<g id="a_node11"><a xlink:href="sampler__main_8cpp.html" target="_top" xlink:title="fplll/sieve/sampler\l_main.cpp">
<polygon fill="white" stroke="black" points="924,-246.5 924,-276.5 1019,-276.5 1019,-246.5 924,-246.5"/>
<text text-anchor="start" x="932" y="-264.5" font-family="Helvetica,sans-Serif" font-size="10.00">fplll/sieve/sampler</text>
<text text-anchor="middle" x="971.5" y="-253.5" font-family="Helvetica,sans-Serif" font-size="10.00">_main.cpp</text>
</a>
</g>
</g>
<!-- Node9&#45;&gt;Node11 -->
<g id="edge10" class="edge"><title>Node9&#45;&gt;Node11</title>
<path fill="none" stroke="midnightblue" d="M870.348,-309.131C892.752,-298.802 920.284,-286.11 940.965,-276.577"/>
<polygon fill="midnightblue" stroke="midnightblue" points="868.711,-306.031 861.095,-313.396 871.642,-312.388 868.711,-306.031"/>
</g>
<!-- Node9&#45;&gt;Node12 -->
<g id="edge11" class="edge"><title>Node9&#45;&gt;Node12</title>
<path fill="none" stroke="midnightblue" d="M798.959,-307.975C779.049,-295.649 754.327,-280.345 739.242,-271.007"/>
<polygon fill="midnightblue" stroke="midnightblue" points="797.372,-311.108 807.717,-313.396 801.056,-305.156 797.372,-311.108"/>
</g>
<!-- Node13 -->
<g id="node13" class="node"><title>Node13</title>
<g id="a_node13"><a xlink:href="sieve__gauss__str_8h.html" target="_top" xlink:title="fplll/sieve/sieve_gauss\l_str.h">
<polygon fill="white" stroke="black" points="667.5,-179.5 667.5,-209.5 783.5,-209.5 783.5,-179.5 667.5,-179.5"/>
<text text-anchor="start" x="675.5" y="-197.5" font-family="Helvetica,sans-Serif" font-size="10.00">fplll/sieve/sieve_gauss</text>
<text text-anchor="middle" x="725.5" y="-186.5" font-family="Helvetica,sans-Serif" font-size="10.00">_str.h</text>
</a>
</g>
</g>
<!-- Node12&#45;&gt;Node13 -->
<g id="edge12" class="edge"><title>Node12&#45;&gt;Node13</title>
<path fill="none" stroke="midnightblue" d="M719.317,-241.739C718.419,-231.487 718.588,-219.001 719.824,-209.589"/>
<polygon fill="midnightblue" stroke="midnightblue" points="715.864,-242.313 720.711,-251.734 722.797,-241.346 715.864,-242.313"/>
</g>
<!-- Node14 -->
<g id="node14" class="node"><title>Node14</title>
<g id="a_node14"><a xlink:href="sieve__gauss_8h.html" target="_top" xlink:title="fplll/sieve/sieve_gauss.h">
<polygon fill="white" stroke="black" points="706.5,-123.5 706.5,-142.5 830.5,-142.5 830.5,-123.5 706.5,-123.5"/>
<text text-anchor="middle" x="768.5" y="-130.5" font-family="Helvetica,sans-Serif" font-size="10.00">fplll/sieve/sieve_gauss.h</text>
</a>
</g>
</g>
<!-- Node12&#45;&gt;Node14 -->
<g id="edge24" class="edge"><title>Node12&#45;&gt;Node14</title>
<path fill="none" stroke="midnightblue" d="M754.189,-246.933C768.505,-238.492 784.45,-226.147 792.5,-210 803.982,-186.967 786.11,-157.284 775.477,-142.773"/>
<polygon fill="midnightblue" stroke="midnightblue" points="752.195,-244.034 745.115,-251.917 755.565,-250.17 752.195,-244.034"/>
</g>
<!-- Node13&#45;&gt;Node12 -->
<g id="edge13" class="edge"><title>Node13&#45;&gt;Node12</title>
<path fill="none" stroke="midnightblue" d="M732.051,-219.714C732.6,-230.923 732.013,-243.541 730.289,-251.734"/>
<polygon fill="midnightblue" stroke="midnightblue" points="735.524,-219.251 731.176,-209.589 728.55,-219.853 735.524,-219.251"/>
</g>
<!-- Node13&#45;&gt;Node14 -->
<g id="edge14" class="edge"><title>Node13&#45;&gt;Node14</title>
<path fill="none" stroke="midnightblue" d="M741.685,-171.104C748.852,-161.187 756.86,-150.106 762.243,-142.658"/>
<polygon fill="midnightblue" stroke="midnightblue" points="738.711,-169.244 735.69,-179.399 744.385,-173.344 738.711,-169.244"/>
</g>
<!-- Node15 -->
<g id="node15" class="node"><title>Node15</title>
<g id="a_node15"><a xlink:href="sieve__gauss_8cpp.html" target="_top" xlink:title="fplll/sieve/sieve_gauss.cpp">
<polygon fill="white" stroke="black" points="634.5,-0.5 634.5,-19.5 768.5,-19.5 768.5,-0.5 634.5,-0.5"/>
<text text-anchor="middle" x="701.5" y="-7.5" font-family="Helvetica,sans-Serif" font-size="10.00">fplll/sieve/sieve_gauss.cpp</text>
</a>
</g>
</g>
<!-- Node14&#45;&gt;Node15 -->
<g id="edge15" class="edge"><title>Node14&#45;&gt;Node15</title>
<path fill="none" stroke="midnightblue" d="M800.342,-118.942C813.739,-111.665 827.95,-101.166 835.5,-87 841.98,-74.8413 843.544,-67.1861 835.5,-56 820.027,-34.4816 793.76,-23.1103 768.561,-17.1543"/>
<polygon fill="midnightblue" stroke="midnightblue" points="798.666,-115.867 791.288,-123.471 801.798,-122.128 798.666,-115.867"/>
</g>
<!-- Node16 -->
<g id="node16" class="node"><title>Node16</title>
<g id="a_node16"><a xlink:href="sieve__gauss__2sieve_8cpp.html" target="_top" xlink:title="fplll/sieve/sieve_gauss\l_2sieve.cpp">
<polygon fill="white" stroke="black" points="442.5,-56.5 442.5,-86.5 558.5,-86.5 558.5,-56.5 442.5,-56.5"/>
<text text-anchor="start" x="450.5" y="-74.5" font-family="Helvetica,sans-Serif" font-size="10.00">fplll/sieve/sieve_gauss</text>
<text text-anchor="middle" x="500.5" y="-63.5" font-family="Helvetica,sans-Serif" font-size="10.00">_2sieve.cpp</text>
</a>
</g>
</g>
<!-- Node14&#45;&gt;Node16 -->
<g id="edge16" class="edge"><title>Node14&#45;&gt;Node16</title>
<path fill="none" stroke="midnightblue" d="M720.214,-121.28C674.841,-111.206 606.874,-96.1167 558.564,-85.3911"/>
<polygon fill="midnightblue" stroke="midnightblue" points="719.581,-124.724 730.102,-123.475 721.098,-117.891 719.581,-124.724"/>
</g>
<!-- Node17 -->
<g id="node17" class="node"><title>Node17</title>
<g id="a_node17"><a xlink:href="sieve__gauss__3sieve_8cpp.html" target="_top" xlink:title="fplll/sieve/sieve_gauss\l_3sieve.cpp">
<polygon fill="white" stroke="black" points="576.5,-56.5 576.5,-86.5 692.5,-86.5 692.5,-56.5 576.5,-56.5"/>
<text text-anchor="start" x="584.5" y="-74.5" font-family="Helvetica,sans-Serif" font-size="10.00">fplll/sieve/sieve_gauss</text>
<text text-anchor="middle" x="634.5" y="-63.5" font-family="Helvetica,sans-Serif" font-size="10.00">_3sieve.cpp</text>
</a>
</g>
</g>
<!-- Node14&#45;&gt;Node17 -->
<g id="edge18" class="edge"><title>Node14&#45;&gt;Node17</title>
<path fill="none" stroke="midnightblue" d="M739.967,-119.331C718.287,-109.704 688.478,-96.468 666.081,-86.523"/>
<polygon fill="midnightblue" stroke="midnightblue" points="738.741,-122.616 749.301,-123.475 741.582,-116.218 738.741,-122.616"/>
</g>
<!-- Node18 -->
<g id="node18" class="node"><title>Node18</title>
<g id="a_node18"><a xlink:href="sieve__gauss__4sieve_8cpp.html" target="_top" xlink:title="fplll/sieve/sieve_gauss\l_4sieve.cpp">
<polygon fill="white" stroke="black" points="710.5,-56.5 710.5,-86.5 826.5,-86.5 826.5,-56.5 710.5,-56.5"/>
<text text-anchor="start" x="718.5" y="-74.5" font-family="Helvetica,sans-Serif" font-size="10.00">fplll/sieve/sieve_gauss</text>
<text text-anchor="middle" x="768.5" y="-63.5" font-family="Helvetica,sans-Serif" font-size="10.00">_4sieve.cpp</text>
</a>
</g>
</g>
<!-- Node14&#45;&gt;Node18 -->
<g id="edge20" class="edge"><title>Node14&#45;&gt;Node18</title>
<path fill="none" stroke="midnightblue" d="M768.5,-113.235C768.5,-104.586 768.5,-94.4969 768.5,-86.523"/>
<polygon fill="midnightblue" stroke="midnightblue" points="765,-113.475 768.5,-123.475 772,-113.475 765,-113.475"/>
</g>
<!-- Node19 -->
<g id="node19" class="node"><title>Node19</title>
<g id="a_node19"><a xlink:href="sieve__main_8h.html" target="_top" xlink:title="fplll/sieve/sieve_main.h">
<polygon fill="white" stroke="black" points="883,-62 883,-81 1002,-81 1002,-62 883,-62"/>
<text text-anchor="middle" x="942.5" y="-69" font-family="Helvetica,sans-Serif" font-size="10.00">fplll/sieve/sieve_main.h</text>
</a>
</g>
</g>
<!-- Node14&#45;&gt;Node19 -->
<g id="edge22" class="edge"><title>Node14&#45;&gt;Node19</title>
<path fill="none" stroke="midnightblue" d="M802.914,-120.232C836.737,-108.666 887.532,-91.2966 917.616,-81.0091"/>
<polygon fill="midnightblue" stroke="midnightblue" points="801.76,-116.928 793.43,-123.475 804.025,-123.551 801.76,-116.928"/>
</g>
<!-- Node16&#45;&gt;Node15 -->
<g id="edge17" class="edge"><title>Node16&#45;&gt;Node15</title>
<path fill="none" stroke="midnightblue" d="M557.698,-53.5681C595.291,-42.44 642.878,-28.3534 672.764,-19.5064"/>
<polygon fill="midnightblue" stroke="midnightblue" points="556.475,-50.2801 547.88,-56.4747 558.462,-56.9922 556.475,-50.2801"/>
</g>
<!-- Node17&#45;&gt;Node15 -->
<g id="edge19" class="edge"><title>Node17&#45;&gt;Node15</title>
<path fill="none" stroke="midnightblue" d="M658.038,-49.5972C669.616,-39.3153 682.94,-27.4824 691.751,-19.6578"/>
<polygon fill="midnightblue" stroke="midnightblue" points="655.531,-47.1421 650.378,-56.3993 660.179,-52.3761 655.531,-47.1421"/>
</g>
<!-- Node18&#45;&gt;Node15 -->
<g id="edge21" class="edge"><title>Node18&#45;&gt;Node15</title>
<path fill="none" stroke="midnightblue" d="M744.962,-49.5972C733.384,-39.3153 720.06,-27.4824 711.249,-19.6578"/>
<polygon fill="midnightblue" stroke="midnightblue" points="742.821,-52.3761 752.622,-56.3993 747.469,-47.1421 742.821,-52.3761"/>
</g>
<!-- Node20 -->
<g id="node20" class="node"><title>Node20</title>
<g id="a_node20"><a xlink:href="sieve__main_8cpp.html" target="_top" xlink:title="fplll/sieve/sieve_main.cpp">
<polygon fill="white" stroke="black" points="878,-0.5 878,-19.5 1007,-19.5 1007,-0.5 878,-0.5"/>
<text text-anchor="middle" x="942.5" y="-7.5" font-family="Helvetica,sans-Serif" font-size="10.00">fplll/sieve/sieve_main.cpp</text>
</a>
</g>
</g>
<!-- Node19&#45;&gt;Node20 -->
<g id="edge23" class="edge"><title>Node19&#45;&gt;Node20</title>
<path fill="none" stroke="midnightblue" d="M942.5,-51.8165C942.5,-40.9962 942.5,-27.898 942.5,-19.5091"/>
<polygon fill="midnightblue" stroke="midnightblue" points="939,-51.9751 942.5,-61.9751 946,-51.9751 939,-51.9751"/>
</g>
<!-- Node27&#45;&gt;Node6 -->
<g id="edge34" class="edge"><title>Node27&#45;&gt;Node6</title>
<path fill="none" stroke="midnightblue" d="M40.3019,-370.317C39.029,-359.496 37.488,-346.398 36.5011,-338.009"/>
<polygon fill="midnightblue" stroke="midnightblue" points="36.8525,-370.953 41.4971,-380.475 43.8046,-370.135 36.8525,-370.953"/>
</g>
<!-- Node28&#45;&gt;Node3 -->
<g id="edge36" class="edge"><title>Node28&#45;&gt;Node3</title>
<path fill="none" stroke="midnightblue" d="M477.646,-488.503C453.462,-478.38 420.038,-464.388 398.845,-455.516"/>
<polygon fill="midnightblue" stroke="midnightblue" points="476.484,-491.811 487.06,-492.444 479.187,-485.354 476.484,-491.811"/>
</g>
<!-- Node29 -->
<g id="node29" class="node"><title>Node29</title>
<g id="a_node29"><a xlink:href="lll_8cpp.html" target="_top" xlink:title="fplll/lll.cpp">
<polygon fill="white" stroke="black" points="532.5,-436.5 532.5,-455.5 592.5,-455.5 592.5,-436.5 532.5,-436.5"/>
<text text-anchor="middle" x="562.5" y="-443.5" font-family="Helvetica,sans-Serif" font-size="10.00">fplll/lll.cpp</text>
</a>
</g>
</g>
<!-- Node28&#45;&gt;Node29 -->
<g id="edge37" class="edge"><title>Node28&#45;&gt;Node29</title>
<path fill="none" stroke="midnightblue" d="M523.794,-485.002C533.541,-475.433 545.553,-463.639 553.587,-455.751"/>
<polygon fill="midnightblue" stroke="midnightblue" points="521.266,-482.58 516.582,-492.083 526.17,-487.575 521.266,-482.58"/>
</g>
<!-- Node30 -->
<g id="node30" class="node"><title>Node30</title>
<g id="a_node30"><a xlink:href="wrapper_8cpp.html" target="_top" xlink:title="fplll/wrapper.cpp">
<polygon fill="white" stroke="black" points="426.5,-436.5 426.5,-455.5 514.5,-455.5 514.5,-436.5 426.5,-436.5"/>
<text text-anchor="middle" x="470.5" y="-443.5" font-family="Helvetica,sans-Serif" font-size="10.00">fplll/wrapper.cpp</text>
</a>
</g>
</g>
<!-- Node28&#45;&gt;Node30 -->
<g id="edge38" class="edge"><title>Node28&#45;&gt;Node30</title>
<path fill="none" stroke="midnightblue" d="M495.554,-483.566C489.188,-474.275 481.633,-463.248 476.496,-455.751"/>
<polygon fill="midnightblue" stroke="midnightblue" points="492.851,-485.812 501.39,-492.083 498.625,-481.855 492.851,-485.812"/>
</g>
<!-- Node31&#45;&gt;Node5 -->
<g id="edge40" class="edge"><title>Node31&#45;&gt;Node5</title>
<path fill="none" stroke="midnightblue" d="M620.419,-481.715C618.586,-467.238 613.806,-447.934 601.5,-436 564.939,-400.544 503.186,-392.439 466.792,-390.923"/>
<polygon fill="midnightblue" stroke="midnightblue" points="616.967,-482.408 621.345,-492.056 623.939,-481.784 616.967,-482.408"/>
</g>
<!-- Node31&#45;&gt;Node32 -->
<g id="edge41" class="edge"><title>Node31&#45;&gt;Node32</title>
<path fill="none" stroke="midnightblue" d="M640.335,-485.82C652.338,-476.145 667.472,-463.948 677.539,-455.834"/>
<polygon fill="midnightblue" stroke="midnightblue" points="637.854,-483.324 632.265,-492.324 642.247,-488.774 637.854,-483.324"/>
</g>
<!-- Node33&#45;&gt;Node9 -->
<g id="edge43" class="edge"><title>Node33&#45;&gt;Node9</title>
<path fill="none" stroke="midnightblue" d="M825.673,-370.526C826.698,-361.813 827.902,-351.586 828.85,-343.523"/>
<polygon fill="midnightblue" stroke="midnightblue" points="822.195,-370.135 824.503,-380.475 829.147,-370.953 822.195,-370.135"/>
</g>
</g>
</svg>
