<?xml version="1.0" encoding="UTF-8" standalone="no"?>
<!DOCTYPE svg PUBLIC "-//W3C//DTD SVG 1.1//EN"
 "http://www.w3.org/Graphics/SVG/1.1/DTD/svg11.dtd">
<!-- Generated by graphviz version 2.38.0 (20140413.2041)
 -->
<!-- Title: fplll/gso_interface.h Pages: 1 -->
<svg width="1916pt" height="464pt"
 viewBox="0.00 0.00 1916.00 464.00" xmlns="http://www.w3.org/2000/svg" xmlns:xlink="http://www.w3.org/1999/xlink">
<g id="graph0" class="graph" transform="scale(1 1) rotate(0) translate(4 460)">
<title>fplll/gso_interface.h</title>
<polygon fill="white" stroke="none" points="-4,4 -4,-460 1912,-460 1912,4 -4,4"/>
<!-- Node0 -->
<g id="node1" class="node"><title>Node0</title>
<polygon fill="#bfbfbf" stroke="black" points="1632.5,-436.5 1632.5,-455.5 1733.5,-455.5 1733.5,-436.5 1632.5,-436.5"/>
<text text-anchor="middle" x="1683" y="-443.5" font-family="Helvetica,sans-Serif" font-size="10.00">fplll/gso_interface.h</text>
</g>
<!-- Node1 -->
<g id="node2" class="node"><title>Node1</title>
<g id="a_node2"><a xlink:href="gso_8h.html" target="_top" xlink:title="fplll/gso.h">
<polygon fill="white" stroke="black" points="1267.5,-380.5 1267.5,-399.5 1326.5,-399.5 1326.5,-380.5 1267.5,-380.5"/>
<text text-anchor="middle" x="1297" y="-387.5" font-family="Helvetica,sans-Serif" font-size="10.00">fplll/gso.h</text>
</a>
</g>
</g>
<!-- Node0&#45;&gt;Node1 -->
<g id="edge1" class="edge"><title>Node0&#45;&gt;Node1</title>
<path fill="none" stroke="midnightblue" d="M1622.23,-436.498C1538.26,-424.752 1389.99,-404.008 1326.83,-395.173"/>
<polygon fill="midnightblue" stroke="midnightblue" points="1621.75,-439.966 1632.14,-437.885 1622.72,-433.033 1621.75,-439.966"/>
</g>
<!-- Node14 -->
<g id="node15" class="node"><title>Node14</title>
<g id="a_node15"><a xlink:href="test__lll__gram_8cpp.html" target="_top" xlink:title="tests/test_lll_gram.cpp">
<polygon fill="white" stroke="black" points="1327,-0.5 1327,-19.5 1443,-19.5 1443,-0.5 1327,-0.5"/>
<text text-anchor="middle" x="1385" y="-7.5" font-family="Helvetica,sans-Serif" font-size="10.00">tests/test_lll_gram.cpp</text>
</a>
</g>
</g>
<!-- Node0&#45;&gt;Node14 -->
<g id="edge66" class="edge"><title>Node0&#45;&gt;Node14</title>
<path fill="none" stroke="midnightblue" d="M1678.03,-426.445C1672.4,-403.755 1664,-364.095 1664,-329.5 1664,-329.5 1664,-329.5 1664,-260.5 1664,-125.016 1478.93,-44.7208 1410.25,-19.5883"/>
<polygon fill="midnightblue" stroke="midnightblue" points="1674.71,-427.576 1680.59,-436.386 1681.49,-425.829 1674.71,-427.576"/>
</g>
<!-- Node20 -->
<g id="node21" class="node"><title>Node20</title>
<g id="a_node21"><a xlink:href="test__gso_8cpp.html" target="_top" xlink:title="tests/test_gso.cpp">
<polygon fill="white" stroke="black" points="1577,-0.5 1577,-19.5 1675,-19.5 1675,-0.5 1577,-0.5"/>
<text text-anchor="middle" x="1626" y="-7.5" font-family="Helvetica,sans-Serif" font-size="10.00">tests/test_gso.cpp</text>
</a>
</g>
</g>
<!-- Node0&#45;&gt;Node20 -->
<g id="edge65" class="edge"><title>Node0&#45;&gt;Node20</title>
<path fill="none" stroke="midnightblue" d="M1703.78,-430.217C1728.94,-410.41 1768,-372.706 1768,-329.5 1768,-329.5 1768,-329.5 1768,-132 1768,-97.1827 1772.28,-81.8863 1749,-56 1730.07,-34.9523 1700.46,-23.7336 1675.04,-17.7618"/>
<polygon fill="midnightblue" stroke="midnightblue" points="1701.4,-427.628 1695.54,-436.457 1705.63,-433.207 1701.4,-427.628"/>
</g>
<!-- Node24 -->
<g id="node25" class="node"><title>Node24</title>
<g id="a_node25"><a xlink:href="lll_8h.html" target="_top" xlink:title="fplll/lll.h">
<polygon fill="white" stroke="black" points="1408,-319 1408,-338 1458,-338 1458,-319 1408,-319"/>
<text text-anchor="middle" x="1433" y="-326" font-family="Helvetica,sans-Serif" font-size="10.00">fplll/lll.h</text>
</a>
</g>
</g>
<!-- Node0&#45;&gt;Node24 -->
<g id="edge59" class="edge"><title>Node0&#45;&gt;Node24</title>
<path fill="none" stroke="midnightblue" d="M1655,-432.064C1603.53,-408.285 1495.18,-358.226 1451.67,-338.124"/>
<polygon fill="midnightblue" stroke="midnightblue" points="1653.66,-435.302 1664.21,-436.319 1656.6,-428.947 1653.66,-435.302"/>
</g>
<!-- Node39 -->
<g id="node40" class="node"><title>Node39</title>
<g id="a_node40"><a xlink:href="gso__gram_8h.html" target="_top" xlink:title="fplll/gso_gram.h">
<polygon fill="white" stroke="black" points="1654,-62 1654,-81 1740,-81 1740,-62 1654,-62"/>
<text text-anchor="middle" x="1697" y="-69" font-family="Helvetica,sans-Serif" font-size="10.00">fplll/gso_gram.h</text>
</a>
</g>
</g>
<!-- Node0&#45;&gt;Node39 -->
<g id="edge60" class="edge"><title>Node0&#45;&gt;Node39</title>
<path fill="none" stroke="midnightblue" d="M1687.97,-426.445C1693.6,-403.755 1702,-364.095 1702,-329.5 1702,-329.5 1702,-329.5 1702,-193.5 1702,-151.24 1698.92,-100.748 1697.59,-81.0036"/>
<polygon fill="midnightblue" stroke="midnightblue" points="1684.51,-425.829 1685.41,-436.386 1691.29,-427.576 1684.51,-425.829"/>
</g>
<!-- Node41 -->
<g id="node42" class="node"><title>Node41</title>
<g id="a_node42"><a xlink:href="gso__interface_8cpp.html" target="_top" xlink:title="fplll/gso_interface.cpp">
<polygon fill="white" stroke="black" points="1796,-380.5 1796,-399.5 1908,-399.5 1908,-380.5 1796,-380.5"/>
<text text-anchor="middle" x="1852" y="-387.5" font-family="Helvetica,sans-Serif" font-size="10.00">fplll/gso_interface.cpp</text>
</a>
</g>
</g>
<!-- Node0&#45;&gt;Node41 -->
<g id="edge64" class="edge"><title>Node0&#45;&gt;Node41</title>
<path fill="none" stroke="midnightblue" d="M1719.6,-433.304C1751.45,-423.129 1796.84,-408.625 1825.35,-399.516"/>
<polygon fill="midnightblue" stroke="midnightblue" points="1718.24,-430.066 1709.78,-436.444 1720.37,-436.734 1718.24,-430.066"/>
</g>
<!-- Node2 -->
<g id="node3" class="node"><title>Node2</title>
<g id="a_node3"><a xlink:href="enumerate__ext_8h.html" target="_top" xlink:title="fplll/enum/enumerate\l_ext.h">
<polygon fill="white" stroke="black" points="1032.5,-313.5 1032.5,-343.5 1139.5,-343.5 1139.5,-313.5 1032.5,-313.5"/>
<text text-anchor="start" x="1040.5" y="-331.5" font-family="Helvetica,sans-Serif" font-size="10.00">fplll/enum/enumerate</text>
<text text-anchor="middle" x="1086" y="-320.5" font-family="Helvetica,sans-Serif" font-size="10.00">_ext.h</text>
</a>
</g>
</g>
<!-- Node1&#45;&gt;Node2 -->
<g id="edge2" class="edge"><title>Node1&#45;&gt;Node2</title>
<path fill="none" stroke="midnightblue" d="M1257.52,-377.867C1223.14,-368.171 1173.11,-354.064 1135.95,-343.585"/>
<polygon fill="midnightblue" stroke="midnightblue" points="1256.64,-381.256 1267.22,-380.601 1258.54,-374.519 1256.64,-381.256"/>
</g>
<!-- Node3 -->
<g id="node4" class="node"><title>Node3</title>
<g id="a_node4"><a xlink:href="enumerate_8h.html" target="_top" xlink:title="fplll/enum/enumerate.h">
<polygon fill="white" stroke="black" points="870,-252 870,-271 986,-271 986,-252 870,-252"/>
<text text-anchor="middle" x="928" y="-259" font-family="Helvetica,sans-Serif" font-size="10.00">fplll/enum/enumerate.h</text>
</a>
</g>
</g>
<!-- Node1&#45;&gt;Node3 -->
<g id="edge32" class="edge"><title>Node1&#45;&gt;Node3</title>
<path fill="none" stroke="midnightblue" d="M1257.44,-389.094C1202.36,-387.796 1100.59,-380.142 1023,-344 984.588,-326.107 949.574,-288.186 935.068,-271.129"/>
<polygon fill="midnightblue" stroke="midnightblue" points="1257.43,-392.594 1267.49,-389.272 1257.55,-385.596 1257.43,-392.594"/>
</g>
<!-- Node1&#45;&gt;Node14 -->
<g id="edge58" class="edge"><title>Node1&#45;&gt;Node14</title>
<path fill="none" stroke="midnightblue" d="M1301.58,-370.485C1303.58,-362.364 1305.93,-352.714 1308,-344 1338.62,-215.267 1374.32,-58.1292 1383.02,-19.7562"/>
<polygon fill="midnightblue" stroke="midnightblue" points="1298.14,-369.834 1299.14,-380.381 1304.93,-371.51 1298.14,-369.834"/>
</g>
<!-- Node1&#45;&gt;Node20 -->
<g id="edge57" class="edge"><title>Node1&#45;&gt;Node20</title>
<path fill="none" stroke="midnightblue" d="M1336.87,-382.357C1424.48,-366.634 1626,-323.803 1626,-262.5 1626,-262.5 1626,-262.5 1626,-132 1626,-89.776 1626,-39.264 1626,-19.5085"/>
<polygon fill="midnightblue" stroke="midnightblue" points="1336.02,-378.955 1326.78,-384.14 1337.23,-385.848 1336.02,-378.955"/>
</g>
<!-- Node1&#45;&gt;Node24 -->
<g id="edge33" class="edge"><title>Node1&#45;&gt;Node24</title>
<path fill="none" stroke="midnightblue" d="M1325.97,-376.327C1352.37,-364.776 1390.64,-348.032 1413.55,-338.009"/>
<polygon fill="midnightblue" stroke="midnightblue" points="1324.24,-373.26 1316.49,-380.475 1327.05,-379.673 1324.24,-373.26"/>
</g>
<!-- Node27 -->
<g id="node28" class="node"><title>Node27</title>
<g id="a_node28"><a xlink:href="gso_8cpp.html" target="_top" xlink:title="fplll/gso.cpp">
<polygon fill="white" stroke="black" points="1230.5,-319 1230.5,-338 1299.5,-338 1299.5,-319 1230.5,-319"/>
<text text-anchor="middle" x="1265" y="-326" font-family="Helvetica,sans-Serif" font-size="10.00">fplll/gso.cpp</text>
</a>
</g>
</g>
<!-- Node1&#45;&gt;Node27 -->
<g id="edge38" class="edge"><title>Node1&#45;&gt;Node27</title>
<path fill="none" stroke="midnightblue" d="M1287.5,-371.335C1281.58,-360.328 1274.23,-346.663 1269.58,-338.009"/>
<polygon fill="midnightblue" stroke="midnightblue" points="1284.6,-373.326 1292.42,-380.475 1290.76,-370.01 1284.6,-373.326"/>
</g>
<!-- Node28 -->
<g id="node29" class="node"><title>Node28</title>
<g id="a_node29"><a xlink:href="sampler__basic_8h.html" target="_top" xlink:title="fplll/sieve/sampler\l_basic.h">
<polygon fill="white" stroke="black" points="581.5,-313.5 581.5,-343.5 676.5,-343.5 676.5,-313.5 581.5,-313.5"/>
<text text-anchor="start" x="589.5" y="-331.5" font-family="Helvetica,sans-Serif" font-size="10.00">fplll/sieve/sampler</text>
<text text-anchor="middle" x="629" y="-320.5" font-family="Helvetica,sans-Serif" font-size="10.00">_basic.h</text>
</a>
</g>
</g>
<!-- Node1&#45;&gt;Node28 -->
<g id="edge39" class="edge"><title>Node1&#45;&gt;Node28</title>
<path fill="none" stroke="midnightblue" d="M1257.22,-385.457C1141.06,-375.11 802.651,-344.967 676.84,-333.761"/>
<polygon fill="midnightblue" stroke="midnightblue" points="1257.16,-388.965 1267.43,-386.367 1257.78,-381.993 1257.16,-388.965"/>
</g>
<!-- Node2&#45;&gt;Node3 -->
<g id="edge3" class="edge"><title>Node2&#45;&gt;Node3</title>
<path fill="none" stroke="midnightblue" d="M1042.15,-309.458C1011.62,-296.9 972.298,-280.724 948.679,-271.007"/>
<polygon fill="midnightblue" stroke="midnightblue" points="1041.14,-312.828 1051.72,-313.396 1043.8,-306.355 1041.14,-312.828"/>
</g>
<!-- Node23 -->
<g id="node24" class="node"><title>Node23</title>
<g id="a_node24"><a xlink:href="enumerate__ext_8cpp.html" target="_top" xlink:title="fplll/enum/enumerate\l_ext.cpp">
<polygon fill="white" stroke="black" points="1032.5,-246.5 1032.5,-276.5 1139.5,-276.5 1139.5,-246.5 1032.5,-246.5"/>
<text text-anchor="start" x="1040.5" y="-264.5" font-family="Helvetica,sans-Serif" font-size="10.00">fplll/enum/enumerate</text>
<text text-anchor="middle" x="1086" y="-253.5" font-family="Helvetica,sans-Serif" font-size="10.00">_ext.cpp</text>
</a>
</g>
</g>
<!-- Node2&#45;&gt;Node23 -->
<g id="edge31" class="edge"><title>Node2&#45;&gt;Node23</title>
<path fill="none" stroke="midnightblue" d="M1086,-303.108C1086,-294.154 1086,-284.323 1086,-276.577"/>
<polygon fill="midnightblue" stroke="midnightblue" points="1082.5,-303.396 1086,-313.396 1089.5,-303.396 1082.5,-303.396"/>
</g>
<!-- Node4 -->
<g id="node5" class="node"><title>Node4</title>
<g id="a_node5"><a xlink:href="bkz_8h.html" target="_top" xlink:title="fplll/bkz.h">
<polygon fill="white" stroke="black" points="927.5,-185 927.5,-204 986.5,-204 986.5,-185 927.5,-185"/>
<text text-anchor="middle" x="957" y="-192" font-family="Helvetica,sans-Serif" font-size="10.00">fplll/bkz.h</text>
</a>
</g>
</g>
<!-- Node3&#45;&gt;Node4 -->
<g id="edge4" class="edge"><title>Node3&#45;&gt;Node4</title>
<path fill="none" stroke="midnightblue" d="M936.124,-242.29C941.694,-229.808 948.829,-213.814 953.151,-204.127"/>
<polygon fill="midnightblue" stroke="midnightblue" points="932.789,-241.175 931.911,-251.734 939.182,-244.028 932.789,-241.175"/>
</g>
<!-- Node5 -->
<g id="node6" class="node"><title>Node5</title>
<g id="a_node6"><a xlink:href="bkz_8cpp.html" target="_top" xlink:title="fplll/bkz.cpp">
<polygon fill="white" stroke="black" points="840.5,-123.5 840.5,-142.5 909.5,-142.5 909.5,-123.5 840.5,-123.5"/>
<text text-anchor="middle" x="875" y="-130.5" font-family="Helvetica,sans-Serif" font-size="10.00">fplll/bkz.cpp</text>
</a>
</g>
</g>
<!-- Node3&#45;&gt;Node5 -->
<g id="edge27" class="edge"><title>Node3&#45;&gt;Node5</title>
<path fill="none" stroke="midnightblue" d="M920.475,-242.54C908.93,-214.984 887.28,-163.309 878.668,-142.756"/>
<polygon fill="midnightblue" stroke="midnightblue" points="917.265,-243.934 924.357,-251.805 923.721,-241.229 917.265,-243.934"/>
</g>
<!-- Node21 -->
<g id="node22" class="node"><title>Node21</title>
<g id="a_node22"><a xlink:href="enumerate_8cpp.html" target="_top" xlink:title="fplll/enum/enumerate.cpp">
<polygon fill="white" stroke="black" points="745,-185 745,-204 871,-204 871,-185 745,-185"/>
<text text-anchor="middle" x="808" y="-192" font-family="Helvetica,sans-Serif" font-size="10.00">fplll/enum/enumerate.cpp</text>
</a>
</g>
</g>
<!-- Node3&#45;&gt;Node21 -->
<g id="edge28" class="edge"><title>Node3&#45;&gt;Node21</title>
<path fill="none" stroke="midnightblue" d="M903,-246.959C879.211,-234.073 844.134,-215.073 823.927,-204.127"/>
<polygon fill="midnightblue" stroke="midnightblue" points="901.356,-250.048 911.816,-251.734 904.69,-243.893 901.356,-250.048"/>
</g>
<!-- Node22 -->
<g id="node23" class="node"><title>Node22</title>
<g id="a_node23"><a xlink:href="svpcvp_8cpp.html" target="_top" xlink:title="fplll/svpcvp.cpp">
<polygon fill="white" stroke="black" points="599.5,-123.5 599.5,-142.5 684.5,-142.5 684.5,-123.5 599.5,-123.5"/>
<text text-anchor="middle" x="642" y="-130.5" font-family="Helvetica,sans-Serif" font-size="10.00">fplll/svpcvp.cpp</text>
</a>
</g>
</g>
<!-- Node3&#45;&gt;Node22 -->
<g id="edge29" class="edge"><title>Node3&#45;&gt;Node22</title>
<path fill="none" stroke="midnightblue" d="M860.751,-250.038C822.717,-242.378 775.098,-229.789 736,-210 700.237,-191.898 665.513,-158.502 650.186,-142.71"/>
<polygon fill="midnightblue" stroke="midnightblue" points="860.22,-253.5 870.704,-251.974 861.557,-246.629 860.22,-253.5"/>
</g>
<!-- Node4&#45;&gt;Node5 -->
<g id="edge5" class="edge"><title>Node4&#45;&gt;Node5</title>
<path fill="none" stroke="midnightblue" d="M936.733,-178.794C921.003,-167.38 899.748,-151.958 886.727,-142.509"/>
<polygon fill="midnightblue" stroke="midnightblue" points="935.102,-181.935 945.251,-184.975 939.213,-176.269 935.102,-181.935"/>
</g>
<!-- Node6 -->
<g id="node7" class="node"><title>Node6</title>
<g id="a_node7"><a xlink:href="fplll_8h.html" target="_top" xlink:title="fplll/fplll.h">
<polygon fill="white" stroke="black" points="928,-123.5 928,-142.5 986,-142.5 986,-123.5 928,-123.5"/>
<text text-anchor="middle" x="957" y="-130.5" font-family="Helvetica,sans-Serif" font-size="10.00">fplll/fplll.h</text>
</a>
</g>
</g>
<!-- Node4&#45;&gt;Node6 -->
<g id="edge6" class="edge"><title>Node4&#45;&gt;Node6</title>
<path fill="none" stroke="midnightblue" d="M957,-174.817C957,-163.996 957,-150.898 957,-142.509"/>
<polygon fill="midnightblue" stroke="midnightblue" points="953.5,-174.975 957,-184.975 960.5,-174.975 953.5,-174.975"/>
</g>
<!-- Node7 -->
<g id="node8" class="node"><title>Node7</title>
<g id="a_node8"><a xlink:href="fplll_8cpp.html" target="_top" xlink:title="fplll/fplll.cpp">
<polygon fill="white" stroke="black" points="578,-62 578,-81 646,-81 646,-62 578,-62"/>
<text text-anchor="middle" x="612" y="-69" font-family="Helvetica,sans-Serif" font-size="10.00">fplll/fplll.cpp</text>
</a>
</g>
</g>
<!-- Node6&#45;&gt;Node7 -->
<g id="edge7" class="edge"><title>Node6&#45;&gt;Node7</title>
<path fill="none" stroke="midnightblue" d="M917.742,-123.127C802.39,-102.476 769.995,-111.136 660,-87 652.687,-85.3954 644.871,-83.2325 637.715,-81.0676"/>
<polygon fill="midnightblue" stroke="midnightblue" points="917.204,-126.587 927.67,-124.94 918.462,-119.701 917.204,-126.587"/>
</g>
<!-- Node8 -->
<g id="node9" class="node"><title>Node8</title>
<g id="a_node9"><a xlink:href="main_8h.html" target="_top" xlink:title="fplll/main.h">
<polygon fill="white" stroke="black" points="1000,-62 1000,-81 1064,-81 1064,-62 1000,-62"/>
<text text-anchor="middle" x="1032" y="-69" font-family="Helvetica,sans-Serif" font-size="10.00">fplll/main.h</text>
</a>
</g>
</g>
<!-- Node6&#45;&gt;Node8 -->
<g id="edge8" class="edge"><title>Node6&#45;&gt;Node8</title>
<path fill="none" stroke="midnightblue" d="M975.942,-116.973C990.287,-105.593 1009.48,-90.3694 1021.27,-81.0091"/>
<polygon fill="midnightblue" stroke="midnightblue" points="973.405,-114.518 967.746,-123.475 977.755,-120.002 973.405,-114.518"/>
</g>
<!-- Node10 -->
<g id="node11" class="node"><title>Node10</title>
<g id="a_node11"><a xlink:href="sieve__main_8cpp.html" target="_top" xlink:title="fplll/sieve/sieve_main.cpp">
<polygon fill="white" stroke="black" points="391.5,-0.5 391.5,-19.5 520.5,-19.5 520.5,-0.5 391.5,-0.5"/>
<text text-anchor="middle" x="456" y="-7.5" font-family="Helvetica,sans-Serif" font-size="10.00">fplll/sieve/sieve_main.cpp</text>
</a>
</g>
</g>
<!-- Node6&#45;&gt;Node10 -->
<g id="edge10" class="edge"><title>Node6&#45;&gt;Node10</title>
<path fill="none" stroke="midnightblue" d="M917.801,-123.167C814.682,-105.044 779.066,-130.241 689,-87 670.565,-78.1494 673.131,-65.4582 655,-56 629.719,-42.8118 557.528,-28.4134 507.43,-19.5432"/>
<polygon fill="midnightblue" stroke="midnightblue" points="917.19,-126.613 927.66,-124.995 918.465,-119.731 917.19,-126.613"/>
</g>
<!-- Node11 -->
<g id="node12" class="node"><title>Node11</title>
<g id="a_node12"><a xlink:href="test__bkz_8cpp.html" target="_top" xlink:title="tests/test_bkz.cpp">
<polygon fill="white" stroke="black" points="662,-0.5 662,-19.5 760,-19.5 760,-0.5 662,-0.5"/>
<text text-anchor="middle" x="711" y="-7.5" font-family="Helvetica,sans-Serif" font-size="10.00">tests/test_bkz.cpp</text>
</a>
</g>
</g>
<!-- Node6&#45;&gt;Node11 -->
<g id="edge11" class="edge"><title>Node6&#45;&gt;Node11</title>
<path fill="none" stroke="midnightblue" d="M918.16,-122.334C890.307,-114.648 852.327,-102.602 821,-87 781.522,-67.3388 740.052,-34.9982 721.292,-19.6294"/>
<polygon fill="midnightblue" stroke="midnightblue" points="917.366,-125.745 927.932,-124.967 919.187,-118.986 917.366,-125.745"/>
</g>
<!-- Node12 -->
<g id="node13" class="node"><title>Node12</title>
<g id="a_node13"><a xlink:href="test__cvp_8cpp.html" target="_top" xlink:title="tests/test_cvp.cpp">
<polygon fill="white" stroke="black" points="778,-0.5 778,-19.5 876,-19.5 876,-0.5 778,-0.5"/>
<text text-anchor="middle" x="827" y="-7.5" font-family="Helvetica,sans-Serif" font-size="10.00">tests/test_cvp.cpp</text>
</a>
</g>
</g>
<!-- Node6&#45;&gt;Node12 -->
<g id="edge12" class="edge"><title>Node6&#45;&gt;Node12</title>
<path fill="none" stroke="midnightblue" d="M917.998,-122.237C886.753,-113.593 846.469,-100.315 836,-87 820.397,-67.155 822.997,-34.9034 825.375,-19.5927"/>
<polygon fill="midnightblue" stroke="midnightblue" points="917.209,-125.649 927.776,-124.875 919.032,-118.891 917.209,-125.649"/>
</g>
<!-- Node13 -->
<g id="node14" class="node"><title>Node13</title>
<g id="a_node14"><a xlink:href="test__lll_8cpp.html" target="_top" xlink:title="tests/test_lll.cpp">
<polygon fill="white" stroke="black" points="894.5,-0.5 894.5,-19.5 983.5,-19.5 983.5,-0.5 894.5,-0.5"/>
<text text-anchor="middle" x="939" y="-7.5" font-family="Helvetica,sans-Serif" font-size="10.00">tests/test_lll.cpp</text>
</a>
</g>
</g>
<!-- Node6&#45;&gt;Node13 -->
<g id="edge13" class="edge"><title>Node6&#45;&gt;Node13</title>
<path fill="none" stroke="midnightblue" d="M917.894,-121.36C889.13,-112.652 853.608,-99.7348 845,-87 837.285,-75.5851 837.656,-67.6575 845,-56 856.862,-37.1703 879.025,-26.0465 898.853,-19.5706"/>
<polygon fill="midnightblue" stroke="midnightblue" points="917.149,-124.79 927.73,-124.258 919.127,-118.075 917.149,-124.79"/>
</g>
<!-- Node6&#45;&gt;Node14 -->
<g id="edge14" class="edge"><title>Node6&#45;&gt;Node14</title>
<path fill="none" stroke="midnightblue" d="M996.359,-130.116C1076.1,-125.789 1253.75,-113.419 1308,-87 1340.42,-71.2104 1367.52,-36.3552 1379.05,-19.9144"/>
<polygon fill="midnightblue" stroke="midnightblue" points="996.032,-126.628 986.231,-130.65 996.401,-133.618 996.032,-126.628"/>
</g>
<!-- Node15 -->
<g id="node16" class="node"><title>Node15</title>
<g id="a_node16"><a xlink:href="test__nr_8cpp.html" target="_top" xlink:title="tests/test_nr.cpp">
<polygon fill="white" stroke="black" points="1082,-62 1082,-81 1172,-81 1172,-62 1082,-62"/>
<text text-anchor="middle" x="1127" y="-69" font-family="Helvetica,sans-Serif" font-size="10.00">tests/test_nr.cpp</text>
</a>
</g>
</g>
<!-- Node6&#45;&gt;Node15 -->
<g id="edge15" class="edge"><title>Node6&#45;&gt;Node15</title>
<path fill="none" stroke="midnightblue" d="M991.049,-120.083C1024.09,-108.517 1073.42,-91.2524 1102.69,-81.0091"/>
<polygon fill="midnightblue" stroke="midnightblue" points="989.639,-116.868 981.357,-123.475 991.952,-123.475 989.639,-116.868"/>
</g>
<!-- Node16 -->
<g id="node17" class="node"><title>Node16</title>
<g id="a_node17"><a xlink:href="test__pruner_8cpp.html" target="_top" xlink:title="tests/test_pruner.cpp">
<polygon fill="white" stroke="black" points="1190.5,-62 1190.5,-81 1299.5,-81 1299.5,-62 1190.5,-62"/>
<text text-anchor="middle" x="1245" y="-69" font-family="Helvetica,sans-Serif" font-size="10.00">tests/test_pruner.cpp</text>
</a>
</g>
</g>
<!-- Node6&#45;&gt;Node16 -->
<g id="edge16" class="edge"><title>Node6&#45;&gt;Node16</title>
<path fill="none" stroke="midnightblue" d="M995.914,-124.483C1040.64,-115.774 1116.22,-100.842 1181,-87 1189.8,-85.1192 1199.27,-83.0183 1208.15,-81.0124"/>
<polygon fill="midnightblue" stroke="midnightblue" points="995.192,-121.058 986.043,-126.402 996.527,-127.929 995.192,-121.058"/>
</g>
<!-- Node17 -->
<g id="node18" class="node"><title>Node17</title>
<g id="a_node18"><a xlink:href="test__sieve_8cpp.html" target="_top" xlink:title="tests/test_sieve.cpp">
<polygon fill="white" stroke="black" points="538.5,-0.5 538.5,-19.5 643.5,-19.5 643.5,-0.5 538.5,-0.5"/>
<text text-anchor="middle" x="591" y="-7.5" font-family="Helvetica,sans-Serif" font-size="10.00">tests/test_sieve.cpp</text>
</a>
</g>
</g>
<!-- Node6&#45;&gt;Node17 -->
<g id="edge17" class="edge"><title>Node6&#45;&gt;Node17</title>
<path fill="none" stroke="midnightblue" d="M918.117,-122.974C864.662,-110.539 774.217,-89.3924 767,-87 735.882,-76.6845 648.433,-37.2396 609.778,-19.6059"/>
<polygon fill="midnightblue" stroke="midnightblue" points="917.426,-126.407 927.959,-125.262 919.011,-119.589 917.426,-126.407"/>
</g>
<!-- Node18 -->
<g id="node19" class="node"><title>Node18</title>
<g id="a_node19"><a xlink:href="test__svp_8cpp.html" target="_top" xlink:title="tests/test_svp.cpp">
<polygon fill="white" stroke="black" points="1001,-0.5 1001,-19.5 1099,-19.5 1099,-0.5 1001,-0.5"/>
<text text-anchor="middle" x="1050" y="-7.5" font-family="Helvetica,sans-Serif" font-size="10.00">tests/test_svp.cpp</text>
</a>
</g>
</g>
<!-- Node6&#45;&gt;Node18 -->
<g id="edge18" class="edge"><title>Node6&#45;&gt;Node18</title>
<path fill="none" stroke="midnightblue" d="M962.44,-113.33C967.836,-97.0187 977.29,-73.3072 991,-56 1003.16,-40.6511 1021.68,-27.6647 1034.72,-19.6465"/>
<polygon fill="midnightblue" stroke="midnightblue" points="958.977,-112.682 959.351,-123.271 965.661,-114.76 958.977,-112.682"/>
</g>
<!-- Node19 -->
<g id="node20" class="node"><title>Node19</title>
<g id="a_node20"><a xlink:href="test__utils_8h.html" target="_top" xlink:title="tests/test_utils.h">
<polygon fill="white" stroke="black" points="854.5,-62 854.5,-81 943.5,-81 943.5,-62 854.5,-62"/>
<text text-anchor="middle" x="899" y="-69" font-family="Helvetica,sans-Serif" font-size="10.00">tests/test_utils.h</text>
</a>
</g>
</g>
<!-- Node6&#45;&gt;Node19 -->
<g id="edge19" class="edge"><title>Node6&#45;&gt;Node19</title>
<path fill="none" stroke="midnightblue" d="M941.401,-115.997C930.423,-104.736 916.161,-90.1044 907.295,-81.0091"/>
<polygon fill="midnightblue" stroke="midnightblue" points="939.203,-118.757 948.69,-123.475 944.216,-113.871 939.203,-118.757"/>
</g>
<!-- Node9 -->
<g id="node10" class="node"><title>Node9</title>
<g id="a_node10"><a xlink:href="main_8cpp.html" target="_top" xlink:title="fplll/main.cpp">
<polygon fill="white" stroke="black" points="1117,-0.5 1117,-19.5 1191,-19.5 1191,-0.5 1117,-0.5"/>
<text text-anchor="middle" x="1154" y="-7.5" font-family="Helvetica,sans-Serif" font-size="10.00">fplll/main.cpp</text>
</a>
</g>
</g>
<!-- Node8&#45;&gt;Node9 -->
<g id="edge9" class="edge"><title>Node8&#45;&gt;Node9</title>
<path fill="none" stroke="midnightblue" d="M1058.61,-57.5207C1082.27,-45.9816 1116.18,-29.4433 1136.55,-19.5091"/>
<polygon fill="midnightblue" stroke="midnightblue" points="1056.93,-54.4457 1049.48,-61.9751 1060,-60.7374 1056.93,-54.4457"/>
</g>
<!-- Node19&#45;&gt;Node11 -->
<g id="edge20" class="edge"><title>Node19&#45;&gt;Node11</title>
<path fill="none" stroke="midnightblue" d="M862.287,-58.8806C825.744,-47.3152 770.53,-29.8407 737.886,-19.5091"/>
<polygon fill="midnightblue" stroke="midnightblue" points="861.474,-62.2945 872.064,-61.9751 863.586,-55.6208 861.474,-62.2945"/>
</g>
<!-- Node19&#45;&gt;Node12 -->
<g id="edge21" class="edge"><title>Node19&#45;&gt;Node12</title>
<path fill="none" stroke="midnightblue" d="M880.816,-55.4727C867.045,-44.0925 848.623,-28.8694 837.297,-19.5091"/>
<polygon fill="midnightblue" stroke="midnightblue" points="878.746,-58.3028 888.684,-61.9751 883.205,-52.9069 878.746,-58.3028"/>
</g>
<!-- Node19&#45;&gt;Node13 -->
<g id="edge23" class="edge"><title>Node19&#45;&gt;Node13</title>
<path fill="none" stroke="midnightblue" d="M910.425,-53.5051C917.899,-42.388 927.343,-28.3395 933.28,-19.5091"/>
<polygon fill="midnightblue" stroke="midnightblue" points="907.406,-51.7234 904.731,-61.9751 913.215,-55.6288 907.406,-51.7234"/>
</g>
<!-- Node19&#45;&gt;Node14 -->
<g id="edge24" class="edge"><title>Node19&#45;&gt;Node14</title>
<path fill="none" stroke="midnightblue" d="M953.916,-61.4525C966.111,-59.5529 978.983,-57.6324 991,-56 1110.05,-39.8279 1249.86,-24.7944 1326.82,-16.8614"/>
<polygon fill="midnightblue" stroke="midnightblue" points="953.199,-58.0224 943.866,-63.0366 954.289,-64.937 953.199,-58.0224"/>
</g>
<!-- Node19&#45;&gt;Node17 -->
<g id="edge25" class="edge"><title>Node19&#45;&gt;Node17</title>
<path fill="none" stroke="midnightblue" d="M844.883,-60.0456C785.213,-48.5184 690.357,-30.1939 635.047,-19.5091"/>
<polygon fill="midnightblue" stroke="midnightblue" points="844.389,-63.5147 854.871,-61.9751 845.717,-56.6418 844.389,-63.5147"/>
</g>
<!-- Node19&#45;&gt;Node18 -->
<g id="edge26" class="edge"><title>Node19&#45;&gt;Node18</title>
<path fill="none" stroke="midnightblue" d="M930.006,-58.2824C959.35,-46.7199 1002.63,-29.6641 1028.41,-19.5091"/>
<polygon fill="midnightblue" stroke="midnightblue" points="928.655,-55.0527 920.635,-61.9751 931.222,-61.5653 928.655,-55.0527"/>
</g>
<!-- Node19&#45;&gt;Node20 -->
<g id="edge22" class="edge"><title>Node19&#45;&gt;Node20</title>
<path fill="none" stroke="midnightblue" d="M953.868,-61.0648C966.066,-59.1873 978.951,-57.3739 991,-56 1104.38,-43.0721 1448.02,-21.7204 1576.67,-13.9467"/>
<polygon fill="midnightblue" stroke="midnightblue" points="953.15,-57.6346 943.817,-62.6487 954.24,-64.5493 953.15,-57.6346"/>
</g>
<!-- Node22&#45;&gt;Node7 -->
<g id="edge30" class="edge"><title>Node22&#45;&gt;Node7</title>
<path fill="none" stroke="midnightblue" d="M633.093,-114.335C627.544,-103.328 620.654,-89.6629 616.29,-81.0091"/>
<polygon fill="midnightblue" stroke="midnightblue" points="630.074,-116.122 637.702,-123.475 636.325,-112.97 630.074,-116.122"/>
</g>
<!-- Node24&#45;&gt;Node4 -->
<g id="edge34" class="edge"><title>Node24&#45;&gt;Node4</title>
<path fill="none" stroke="midnightblue" d="M1398.19,-317.301C1344.55,-301.644 1238.43,-270.882 1148,-246 1091.12,-230.349 1024.45,-212.933 986.825,-203.188"/>
<polygon fill="midnightblue" stroke="midnightblue" points="1397.31,-320.69 1407.89,-320.135 1399.27,-313.971 1397.31,-320.69"/>
</g>
<!-- Node24&#45;&gt;Node14 -->
<g id="edge37" class="edge"><title>Node24&#45;&gt;Node14</title>
<path fill="none" stroke="midnightblue" d="M1426.4,-309.34C1417.84,-284.144 1404,-236.99 1404,-195.5 1404,-195.5 1404,-195.5 1404,-132 1404,-89.4713 1392.4,-39.5412 1387.33,-19.7318"/>
<polygon fill="midnightblue" stroke="midnightblue" points="1423.17,-310.719 1429.79,-318.994 1429.77,-308.399 1423.17,-310.719"/>
</g>
<!-- Node25 -->
<g id="node26" class="node"><title>Node25</title>
<g id="a_node26"><a xlink:href="lll_8cpp.html" target="_top" xlink:title="fplll/lll.cpp">
<polygon fill="white" stroke="black" points="1432,-252 1432,-271 1492,-271 1492,-252 1432,-252"/>
<text text-anchor="middle" x="1462" y="-259" font-family="Helvetica,sans-Serif" font-size="10.00">fplll/lll.cpp</text>
</a>
</g>
</g>
<!-- Node24&#45;&gt;Node25 -->
<g id="edge35" class="edge"><title>Node24&#45;&gt;Node25</title>
<path fill="none" stroke="midnightblue" d="M1441.12,-309.29C1446.69,-296.808 1453.83,-280.814 1458.15,-271.127"/>
<polygon fill="midnightblue" stroke="midnightblue" points="1437.79,-308.175 1436.91,-318.734 1444.18,-311.028 1437.79,-308.175"/>
</g>
<!-- Node26 -->
<g id="node27" class="node"><title>Node26</title>
<g id="a_node27"><a xlink:href="wrapper_8cpp.html" target="_top" xlink:title="fplll/wrapper.cpp">
<polygon fill="white" stroke="black" points="1510,-252 1510,-271 1598,-271 1598,-252 1510,-252"/>
<text text-anchor="middle" x="1554" y="-259" font-family="Helvetica,sans-Serif" font-size="10.00">fplll/wrapper.cpp</text>
</a>
</g>
</g>
<!-- Node24&#45;&gt;Node26 -->
<g id="edge36" class="edge"><title>Node24&#45;&gt;Node26</title>
<path fill="none" stroke="midnightblue" d="M1458.21,-313.959C1482.2,-301.073 1517.56,-282.073 1537.94,-271.127"/>
<polygon fill="midnightblue" stroke="midnightblue" points="1456.47,-310.918 1449.32,-318.734 1459.78,-317.085 1456.47,-310.918"/>
</g>
<!-- Node29 -->
<g id="node30" class="node"><title>Node29</title>
<g id="a_node30"><a xlink:href="sampler__basic_8cpp.html" target="_top" xlink:title="fplll/sieve/sampler\l_basic.cpp">
<polygon fill="white" stroke="black" points="524.5,-246.5 524.5,-276.5 619.5,-276.5 619.5,-246.5 524.5,-246.5"/>
<text text-anchor="start" x="532.5" y="-264.5" font-family="Helvetica,sans-Serif" font-size="10.00">fplll/sieve/sampler</text>
<text text-anchor="middle" x="572" y="-253.5" font-family="Helvetica,sans-Serif" font-size="10.00">_basic.cpp</text>
</a>
</g>
</g>
<!-- Node28&#45;&gt;Node29 -->
<g id="edge40" class="edge"><title>Node28&#45;&gt;Node29</title>
<path fill="none" stroke="midnightblue" d="M609.915,-305.736C601.481,-296.119 591.809,-285.089 584.344,-276.577"/>
<polygon fill="midnightblue" stroke="midnightblue" points="607.407,-308.185 616.632,-313.396 612.67,-303.57 607.407,-308.185"/>
</g>
<!-- Node30 -->
<g id="node31" class="node"><title>Node30</title>
<g id="a_node31"><a xlink:href="sampler__main_8cpp.html" target="_top" xlink:title="fplll/sieve/sampler\l_main.cpp">
<polygon fill="white" stroke="black" points="637.5,-246.5 637.5,-276.5 732.5,-276.5 732.5,-246.5 637.5,-246.5"/>
<text text-anchor="start" x="645.5" y="-264.5" font-family="Helvetica,sans-Serif" font-size="10.00">fplll/sieve/sampler</text>
<text text-anchor="middle" x="685" y="-253.5" font-family="Helvetica,sans-Serif" font-size="10.00">_main.cpp</text>
</a>
</g>
</g>
<!-- Node28&#45;&gt;Node30 -->
<g id="edge41" class="edge"><title>Node28&#45;&gt;Node30</title>
<path fill="none" stroke="midnightblue" d="M647.75,-305.736C656.036,-296.119 665.539,-285.089 672.873,-276.577"/>
<polygon fill="midnightblue" stroke="midnightblue" points="645.027,-303.535 641.151,-313.396 650.33,-308.104 645.027,-303.535"/>
</g>
<!-- Node31 -->
<g id="node32" class="node"><title>Node31</title>
<g id="a_node32"><a xlink:href="sieve__common_8h.html" target="_top" xlink:title="fplll/sieve/sieve_common.h">
<polygon fill="white" stroke="black" points="296.5,-252 296.5,-271 431.5,-271 431.5,-252 296.5,-252"/>
<text text-anchor="middle" x="364" y="-259" font-family="Helvetica,sans-Serif" font-size="10.00">fplll/sieve/sieve_common.h</text>
</a>
</g>
</g>
<!-- Node28&#45;&gt;Node31 -->
<g id="edge42" class="edge"><title>Node28&#45;&gt;Node31</title>
<path fill="none" stroke="midnightblue" d="M571.468,-313.388C518.941,-300.504 442.985,-281.874 399.036,-271.094"/>
<polygon fill="midnightblue" stroke="midnightblue" points="570.771,-316.821 581.317,-315.804 572.439,-310.023 570.771,-316.821"/>
</g>
<!-- Node32 -->
<g id="node33" class="node"><title>Node32</title>
<g id="a_node33"><a xlink:href="sieve__gauss__str_8h.html" target="_top" xlink:title="fplll/sieve/sieve_gauss\l_str.h">
<polygon fill="white" stroke="black" points="263,-179.5 263,-209.5 379,-209.5 379,-179.5 263,-179.5"/>
<text text-anchor="start" x="271" y="-197.5" font-family="Helvetica,sans-Serif" font-size="10.00">fplll/sieve/sieve_gauss</text>
<text text-anchor="middle" x="321" y="-186.5" font-family="Helvetica,sans-Serif" font-size="10.00">_str.h</text>
</a>
</g>
</g>
<!-- Node31&#45;&gt;Node32 -->
<g id="edge43" class="edge"><title>Node31&#45;&gt;Node32</title>
<path fill="none" stroke="midnightblue" d="M346.871,-243.673C338.771,-233.094 329.953,-219.602 324.644,-209.589"/>
<polygon fill="midnightblue" stroke="midnightblue" points="344.393,-246.174 353.412,-251.734 349.829,-241.763 344.393,-246.174"/>
</g>
<!-- Node33 -->
<g id="node34" class="node"><title>Node33</title>
<g id="a_node34"><a xlink:href="sieve__gauss_8h.html" target="_top" xlink:title="fplll/sieve/sieve_gauss.h">
<polygon fill="white" stroke="black" points="259,-123.5 259,-142.5 383,-142.5 383,-123.5 259,-123.5"/>
<text text-anchor="middle" x="321" y="-130.5" font-family="Helvetica,sans-Serif" font-size="10.00">fplll/sieve/sieve_gauss.h</text>
</a>
</g>
</g>
<!-- Node31&#45;&gt;Node33 -->
<g id="edge56" class="edge"><title>Node31&#45;&gt;Node33</title>
<path fill="none" stroke="midnightblue" d="M376.214,-243.599C386.903,-226.56 399.122,-199.867 388,-179 378.707,-161.565 359.326,-149.684 343.788,-142.529"/>
<polygon fill="midnightblue" stroke="midnightblue" points="373.26,-241.72 370.592,-251.973 379.071,-245.622 373.26,-241.72"/>
</g>
<!-- Node32&#45;&gt;Node31 -->
<g id="edge44" class="edge"><title>Node32&#45;&gt;Node31</title>
<path fill="none" stroke="midnightblue" d="M342.09,-217.651C350.558,-229.345 359.065,-243.034 362.989,-251.734"/>
<polygon fill="midnightblue" stroke="midnightblue" points="344.819,-215.457 335.997,-209.589 339.234,-219.677 344.819,-215.457"/>
</g>
<!-- Node32&#45;&gt;Node33 -->
<g id="edge45" class="edge"><title>Node32&#45;&gt;Node33</title>
<path fill="none" stroke="midnightblue" d="M321,-169.289C321,-159.857 321,-149.655 321,-142.658"/>
<polygon fill="midnightblue" stroke="midnightblue" points="317.5,-169.399 321,-179.399 324.5,-169.399 317.5,-169.399"/>
</g>
<!-- Node34 -->
<g id="node35" class="node"><title>Node34</title>
<g id="a_node35"><a xlink:href="sieve__gauss_8cpp.html" target="_top" xlink:title="fplll/sieve/sieve_gauss.cpp">
<polygon fill="white" stroke="black" points="168,-0.5 168,-19.5 302,-19.5 302,-0.5 168,-0.5"/>
<text text-anchor="middle" x="235" y="-7.5" font-family="Helvetica,sans-Serif" font-size="10.00">fplll/sieve/sieve_gauss.cpp</text>
</a>
</g>
</g>
<!-- Node33&#45;&gt;Node34 -->
<g id="edge46" class="edge"><title>Node33&#45;&gt;Node34</title>
<path fill="none" stroke="midnightblue" d="M308.983,-115.093C290.377,-88.914 255.268,-39.5162 241.129,-19.6232"/>
<polygon fill="midnightblue" stroke="midnightblue" points="306.169,-117.175 314.815,-123.298 311.875,-113.119 306.169,-117.175"/>
</g>
<!-- Node35 -->
<g id="node36" class="node"><title>Node35</title>
<g id="a_node36"><a xlink:href="sieve__gauss__2sieve_8cpp.html" target="_top" xlink:title="fplll/sieve/sieve_gauss\l_2sieve.cpp">
<polygon fill="white" stroke="black" points="306,-56.5 306,-86.5 422,-86.5 422,-56.5 306,-56.5"/>
<text text-anchor="start" x="314" y="-74.5" font-family="Helvetica,sans-Serif" font-size="10.00">fplll/sieve/sieve_gauss</text>
<text text-anchor="middle" x="364" y="-63.5" font-family="Helvetica,sans-Serif" font-size="10.00">_2sieve.cpp</text>
</a>
</g>
</g>
<!-- Node33&#45;&gt;Node35 -->
<g id="edge47" class="edge"><title>Node33&#45;&gt;Node35</title>
<path fill="none" stroke="midnightblue" d="M333.107,-115.247C339.655,-106.187 347.65,-95.124 353.866,-86.523"/>
<polygon fill="midnightblue" stroke="midnightblue" points="330.182,-113.32 327.161,-123.475 335.855,-117.42 330.182,-113.32"/>
</g>
<!-- Node36 -->
<g id="node37" class="node"><title>Node36</title>
<g id="a_node37"><a xlink:href="sieve__gauss__3sieve_8cpp.html" target="_top" xlink:title="fplll/sieve/sieve_gauss\l_3sieve.cpp">
<polygon fill="white" stroke="black" points="0,-56.5 0,-86.5 116,-86.5 116,-56.5 0,-56.5"/>
<text text-anchor="start" x="8" y="-74.5" font-family="Helvetica,sans-Serif" font-size="10.00">fplll/sieve/sieve_gauss</text>
<text text-anchor="middle" x="58" y="-63.5" font-family="Helvetica,sans-Serif" font-size="10.00">_3sieve.cpp</text>
</a>
</g>
</g>
<!-- Node33&#45;&gt;Node36 -->
<g id="edge49" class="edge"><title>Node33&#45;&gt;Node36</title>
<path fill="none" stroke="midnightblue" d="M273.434,-121.239C229.373,-111.271 163.712,-96.4157 116.468,-85.7275"/>
<polygon fill="midnightblue" stroke="midnightblue" points="272.793,-124.682 283.319,-123.475 274.337,-117.855 272.793,-124.682"/>
</g>
<!-- Node37 -->
<g id="node38" class="node"><title>Node37</title>
<g id="a_node38"><a xlink:href="sieve__gauss__4sieve_8cpp.html" target="_top" xlink:title="fplll/sieve/sieve_gauss\l_4sieve.cpp">
<polygon fill="white" stroke="black" points="134,-56.5 134,-86.5 250,-86.5 250,-56.5 134,-56.5"/>
<text text-anchor="start" x="142" y="-74.5" font-family="Helvetica,sans-Serif" font-size="10.00">fplll/sieve/sieve_gauss</text>
<text text-anchor="middle" x="192" y="-63.5" font-family="Helvetica,sans-Serif" font-size="10.00">_4sieve.cpp</text>
</a>
</g>
</g>
<!-- Node33&#45;&gt;Node37 -->
<g id="edge51" class="edge"><title>Node33&#45;&gt;Node37</title>
<path fill="none" stroke="midnightblue" d="M293.249,-119.2C272.402,-109.585 243.867,-96.4232 222.403,-86.523"/>
<polygon fill="midnightblue" stroke="midnightblue" points="291.971,-122.465 302.517,-123.475 294.903,-116.108 291.971,-122.465"/>
</g>
<!-- Node38 -->
<g id="node39" class="node"><title>Node38</title>
<g id="a_node39"><a xlink:href="sieve__main_8h.html" target="_top" xlink:title="fplll/sieve/sieve_main.h">
<polygon fill="white" stroke="black" points="440.5,-62 440.5,-81 559.5,-81 559.5,-62 440.5,-62"/>
<text text-anchor="middle" x="500" y="-69" font-family="Helvetica,sans-Serif" font-size="10.00">fplll/sieve/sieve_main.h</text>
</a>
</g>
</g>
<!-- Node33&#45;&gt;Node38 -->
<g id="edge53" class="edge"><title>Node33&#45;&gt;Node38</title>
<path fill="none" stroke="midnightblue" d="M356.403,-120.232C391.198,-108.666 443.452,-91.2966 474.401,-81.0091"/>
<polygon fill="midnightblue" stroke="midnightblue" points="355.032,-116.999 346.646,-123.475 357.24,-123.642 355.032,-116.999"/>
</g>
<!-- Node35&#45;&gt;Node34 -->
<g id="edge48" class="edge"><title>Node35&#45;&gt;Node34</title>
<path fill="none" stroke="midnightblue" d="M324.073,-52.0841C300.641,-41.2763 272.122,-28.1219 253.771,-19.6578"/>
<polygon fill="midnightblue" stroke="midnightblue" points="322.882,-55.3891 333.429,-56.3993 325.814,-49.0327 322.882,-55.3891"/>
</g>
<!-- Node36&#45;&gt;Node34 -->
<g id="edge50" class="edge"><title>Node36&#45;&gt;Node34</title>
<path fill="none" stroke="midnightblue" d="M109.834,-53.0756C142.62,-42.0543 183.562,-28.2914 209.503,-19.5709"/>
<polygon fill="midnightblue" stroke="midnightblue" points="108.31,-49.8953 99.9465,-56.3993 110.541,-56.5305 108.31,-49.8953"/>
</g>
<!-- Node37&#45;&gt;Node34 -->
<g id="edge52" class="edge"><title>Node37&#45;&gt;Node34</title>
<path fill="none" stroke="midnightblue" d="M208.185,-48.1041C215.352,-38.1868 223.36,-27.1062 228.743,-19.6578"/>
<polygon fill="midnightblue" stroke="midnightblue" points="205.211,-46.2442 202.19,-56.3993 210.885,-50.3444 205.211,-46.2442"/>
</g>
<!-- Node38&#45;&gt;Node10 -->
<g id="edge54" class="edge"><title>Node38&#45;&gt;Node10</title>
<path fill="none" stroke="midnightblue" d="M487.678,-53.8377C479.419,-42.6694 468.888,-28.4278 462.292,-19.5091"/>
<polygon fill="midnightblue" stroke="midnightblue" points="484.936,-56.0158 493.696,-61.9751 490.564,-51.8537 484.936,-56.0158"/>
</g>
<!-- Node38&#45;&gt;Node17 -->
<g id="edge55" class="edge"><title>Node38&#45;&gt;Node17</title>
<path fill="none" stroke="midnightblue" d="M521.52,-56.4295C539.063,-44.9589 563.265,-29.1343 577.986,-19.5091"/>
<polygon fill="midnightblue" stroke="midnightblue" points="519.492,-53.5732 513.038,-61.9751 523.323,-59.432 519.492,-53.5732"/>
</g>
<!-- Node39&#45;&gt;Node14 -->
<g id="edge63" class="edge"><title>Node39&#45;&gt;Node14</title>
<path fill="none" stroke="midnightblue" d="M1643.86,-60.3663C1583.53,-48.8616 1486.18,-30.2957 1429.63,-19.5109"/>
<polygon fill="midnightblue" stroke="midnightblue" points="1643.47,-63.8539 1653.95,-62.2892 1644.78,-56.9778 1643.47,-63.8539"/>
</g>
<!-- Node39&#45;&gt;Node20 -->
<g id="edge62" class="edge"><title>Node39&#45;&gt;Node20</title>
<path fill="none" stroke="midnightblue" d="M1679.07,-55.4727C1665.49,-44.0925 1647.32,-28.8694 1636.15,-19.5091"/>
<polygon fill="midnightblue" stroke="midnightblue" points="1676.91,-58.2346 1686.83,-61.9751 1681.41,-52.8694 1676.91,-58.2346"/>
</g>
<!-- Node40 -->
<g id="node41" class="node"><title>Node40</title>
<g id="a_node41"><a xlink:href="gso__gram_8cpp.html" target="_top" xlink:title="fplll/gso_gram.cpp">
<polygon fill="white" stroke="black" points="1693,-0.5 1693,-19.5 1789,-19.5 1789,-0.5 1693,-0.5"/>
<text text-anchor="middle" x="1741" y="-7.5" font-family="Helvetica,sans-Serif" font-size="10.00">fplll/gso_gram.cpp</text>
</a>
</g>
</g>
<!-- Node39&#45;&gt;Node40 -->
<g id="edge61" class="edge"><title>Node39&#45;&gt;Node40</title>
<path fill="none" stroke="midnightblue" d="M1709.32,-53.8377C1717.58,-42.6694 1728.11,-28.4278 1734.71,-19.5091"/>
<polygon fill="midnightblue" stroke="midnightblue" points="1706.44,-51.8537 1703.3,-61.9751 1712.06,-56.0158 1706.44,-51.8537"/>
</g>
</g>
</svg>
