<?xml version="1.0" encoding="UTF-8" standalone="no"?>
<!DOCTYPE svg PUBLIC "-//W3C//DTD SVG 1.1//EN"
 "http://www.w3.org/Graphics/SVG/1.1/DTD/svg11.dtd">
<!-- Generated by graphviz version 2.43.0 (0)
 -->
<!-- Title: fplll/gso.h Pages: 1 -->
<svg width="2216pt" height="431pt"
 viewBox="0.00 0.00 2215.71 431.00" xmlns="http://www.w3.org/2000/svg" xmlns:xlink="http://www.w3.org/1999/xlink">
<g id="graph0" class="graph" transform="scale(1 1) rotate(0) translate(4 427)">
<title>fplll/gso.h</title>
<polygon fill="white" stroke="transparent" points="-4,4 -4,-427 2211.71,-427 2211.71,4 -4,4"/>
<!-- Node1 -->
<g id="node1" class="node">
<title>Node1</title>
<g id="a_node1"><a xlink:title=" ">
<polygon fill="#bfbfbf" stroke="black" points="1654.21,-403.5 1654.21,-422.5 1713.21,-422.5 1713.21,-403.5 1654.21,-403.5"/>
<text text-anchor="middle" x="1683.71" y="-410.5" font-family="Helvetica,sans-Serif" font-size="10.00">fplll/gso.h</text>
</a>
</g>
</g>
<!-- Node2 -->
<g id="node2" class="node">
<title>Node2</title>
<g id="a_node2"><a xlink:href="gso_8cpp.html" target="_top" xlink:title=" ">
<polygon fill="white" stroke="black" points="1221.21,-347.5 1221.21,-366.5 1290.21,-366.5 1290.21,-347.5 1221.21,-347.5"/>
<text text-anchor="middle" x="1255.71" y="-354.5" font-family="Helvetica,sans-Serif" font-size="10.00">fplll/gso.cpp</text>
</a>
</g>
</g>
<!-- Node1&#45;&gt;Node2 -->
<g id="edge1" class="edge">
<title>Node1&#45;&gt;Node2</title>
<path fill="none" stroke="midnightblue" d="M1644.1,-408.48C1574.27,-402.02 1424.84,-387.09 1299.71,-367 1296.63,-366.51 1293.44,-365.95 1290.25,-365.35"/>
<polygon fill="midnightblue" stroke="midnightblue" points="1643.93,-411.98 1654.21,-409.41 1644.57,-405.01 1643.93,-411.98"/>
</g>
<!-- Node3 -->
<g id="node3" class="node">
<title>Node3</title>
<g id="a_node3"><a xlink:href="lll_8h.html" target="_top" xlink:title=" ">
<polygon fill="white" stroke="black" points="1308.71,-347.5 1308.71,-366.5 1358.71,-366.5 1358.71,-347.5 1308.71,-347.5"/>
<text text-anchor="middle" x="1333.71" y="-354.5" font-family="Helvetica,sans-Serif" font-size="10.00">fplll/lll.h</text>
</a>
</g>
</g>
<!-- Node1&#45;&gt;Node3 -->
<g id="edge2" class="edge">
<title>Node1&#45;&gt;Node3</title>
<path fill="none" stroke="midnightblue" d="M1644.05,-405.88C1571.37,-394.67 1418.8,-371.13 1358.75,-361.86"/>
<polygon fill="midnightblue" stroke="midnightblue" points="1643.75,-409.38 1654.17,-407.44 1644.82,-402.46 1643.75,-409.38"/>
</g>
<!-- Node26 -->
<g id="node26" class="node">
<title>Node26</title>
<g id="a_node26"><a xlink:href="test__lll__gram_8cpp.html" target="_top" xlink:title=" ">
<polygon fill="white" stroke="black" points="2091.71,-0.5 2091.71,-19.5 2207.71,-19.5 2207.71,-0.5 2091.71,-0.5"/>
<text text-anchor="middle" x="2149.71" y="-7.5" font-family="Helvetica,sans-Serif" font-size="10.00">tests/test_lll_gram.cpp</text>
</a>
</g>
</g>
<!-- Node1&#45;&gt;Node26 -->
<g id="edge59" class="edge">
<title>Node1&#45;&gt;Node26</title>
<path fill="none" stroke="midnightblue" d="M1723.55,-410.45C1831.35,-405.19 2120.71,-383.49 2120.71,-302 2120.71,-302 2120.71,-302 2120.71,-132 2120.71,-88.8 2138.41,-39.25 2146.15,-19.63"/>
<polygon fill="midnightblue" stroke="midnightblue" points="1723.23,-406.96 1713.4,-410.93 1723.56,-413.96 1723.23,-406.96"/>
</g>
<!-- Node32 -->
<g id="node32" class="node">
<title>Node32</title>
<g id="a_node32"><a xlink:href="test__gso_8cpp.html" target="_top" xlink:title=" ">
<polygon fill="white" stroke="black" points="1975.71,-0.5 1975.71,-19.5 2073.71,-19.5 2073.71,-0.5 1975.71,-0.5"/>
<text text-anchor="middle" x="2024.71" y="-7.5" font-family="Helvetica,sans-Serif" font-size="10.00">tests/test_gso.cpp</text>
</a>
</g>
</g>
<!-- Node1&#45;&gt;Node32 -->
<g id="edge58" class="edge">
<title>Node1&#45;&gt;Node32</title>
<path fill="none" stroke="midnightblue" d="M1723.63,-407.33C1811.86,-395.9 2015.71,-362.9 2015.71,-302 2015.71,-302 2015.71,-302 2015.71,-132 2015.71,-89.87 2021.2,-39.72 2023.61,-19.79"/>
<polygon fill="midnightblue" stroke="midnightblue" points="1722.95,-403.89 1713.46,-408.62 1723.83,-410.83 1722.95,-403.89"/>
</g>
<!-- Node4 -->
<g id="node4" class="node">
<title>Node4</title>
<g id="a_node4"><a xlink:href="bkz_8h.html" target="_top" xlink:title=" ">
<polygon fill="white" stroke="black" points="1150.21,-179.5 1150.21,-198.5 1209.21,-198.5 1209.21,-179.5 1150.21,-179.5"/>
<text text-anchor="middle" x="1179.71" y="-186.5" font-family="Helvetica,sans-Serif" font-size="10.00">fplll/bkz.h</text>
</a>
</g>
</g>
<!-- Node3&#45;&gt;Node4 -->
<g id="edge3" class="edge">
<title>Node3&#45;&gt;Node4</title>
<path fill="none" stroke="midnightblue" d="M1331.08,-337.03C1328.45,-323.27 1323.35,-304.74 1313.71,-291 1282.59,-246.64 1225.96,-213.42 1197.31,-198.57"/>
<polygon fill="midnightblue" stroke="midnightblue" points="1327.69,-337.95 1332.76,-347.26 1334.59,-336.82 1327.69,-337.95"/>
</g>
<!-- Node3&#45;&gt;Node26 -->
<g id="edge57" class="edge">
<title>Node3&#45;&gt;Node26</title>
<path fill="none" stroke="midnightblue" d="M1369.15,-353.73C1504.03,-344.64 1977.71,-308.26 1977.71,-246 1977.71,-246 1977.71,-246 1977.71,-188 1977.71,-101.23 2085.33,-40.98 2130.31,-19.59"/>
<polygon fill="midnightblue" stroke="midnightblue" points="1368.7,-350.25 1358.96,-354.41 1369.17,-357.24 1368.7,-350.25"/>
</g>
<!-- Node33 -->
<g id="node33" class="node">
<title>Node33</title>
<g id="a_node33"><a xlink:href="lll_8cpp.html" target="_top" xlink:title=" ">
<polygon fill="white" stroke="black" points="1022.71,-291.5 1022.71,-310.5 1082.71,-310.5 1082.71,-291.5 1022.71,-291.5"/>
<text text-anchor="middle" x="1052.71" y="-298.5" font-family="Helvetica,sans-Serif" font-size="10.00">fplll/lll.cpp</text>
</a>
</g>
</g>
<!-- Node3&#45;&gt;Node33 -->
<g id="edge47" class="edge">
<title>Node3&#45;&gt;Node33</title>
<path fill="none" stroke="midnightblue" d="M1299.01,-347.06C1298.91,-347.04 1298.81,-347.02 1298.71,-347 1207.42,-327.36 1183.24,-329.51 1091.71,-311 1088.85,-310.42 1085.88,-309.79 1082.91,-309.14"/>
<polygon fill="midnightblue" stroke="midnightblue" points="1298,-350.42 1308.53,-349.27 1299.58,-343.6 1298,-350.42"/>
</g>
<!-- Node34 -->
<g id="node34" class="node">
<title>Node34</title>
<g id="a_node34"><a xlink:href="pruner_8h.html" target="_top" xlink:title=" ">
<polygon fill="white" stroke="black" points="1101.21,-291.5 1101.21,-310.5 1200.21,-310.5 1200.21,-291.5 1101.21,-291.5"/>
<text text-anchor="middle" x="1150.71" y="-298.5" font-family="Helvetica,sans-Serif" font-size="10.00">fplll/pruner/pruner.h</text>
</a>
</g>
</g>
<!-- Node3&#45;&gt;Node34 -->
<g id="edge48" class="edge">
<title>Node3&#45;&gt;Node34</title>
<path fill="none" stroke="midnightblue" d="M1298.98,-345.75C1264.44,-335.56 1212.06,-320.1 1179.69,-310.55"/>
<polygon fill="midnightblue" stroke="midnightblue" points="1298.07,-349.13 1308.65,-348.6 1300.05,-342.42 1298.07,-349.13"/>
</g>
<!-- Node37 -->
<g id="node37" class="node">
<title>Node37</title>
<g id="a_node37"><a xlink:href="wrapper_8cpp.html" target="_top" xlink:title=" ">
<polygon fill="white" stroke="black" points="1218.21,-291.5 1218.21,-310.5 1305.21,-310.5 1305.21,-291.5 1218.21,-291.5"/>
<text text-anchor="middle" x="1261.71" y="-298.5" font-family="Helvetica,sans-Serif" font-size="10.00">fplll/wrapper.cpp</text>
</a>
</g>
</g>
<!-- Node3&#45;&gt;Node37 -->
<g id="edge56" class="edge">
<title>Node3&#45;&gt;Node37</title>
<path fill="none" stroke="midnightblue" d="M1313.84,-341.1C1300.89,-331.38 1284.41,-319.03 1273.49,-310.83"/>
<polygon fill="midnightblue" stroke="midnightblue" points="1312.04,-344.12 1322.14,-347.32 1316.24,-338.52 1312.04,-344.12"/>
</g>
<!-- Node5 -->
<g id="node5" class="node">
<title>Node5</title>
<g id="a_node5"><a xlink:href="bkz_8cpp.html" target="_top" xlink:title=" ">
<polygon fill="white" stroke="black" points="1087.21,-123.5 1087.21,-142.5 1156.21,-142.5 1156.21,-123.5 1087.21,-123.5"/>
<text text-anchor="middle" x="1121.71" y="-130.5" font-family="Helvetica,sans-Serif" font-size="10.00">fplll/bkz.cpp</text>
</a>
</g>
</g>
<!-- Node4&#45;&gt;Node5 -->
<g id="edge4" class="edge">
<title>Node4&#45;&gt;Node5</title>
<path fill="none" stroke="midnightblue" d="M1162.8,-172.25C1152.51,-162.67 1139.74,-150.79 1131.2,-142.83"/>
<polygon fill="midnightblue" stroke="midnightblue" points="1160.69,-175.07 1170.39,-179.32 1165.46,-169.95 1160.69,-175.07"/>
</g>
<!-- Node6 -->
<g id="node6" class="node">
<title>Node6</title>
<g id="a_node6"><a xlink:href="fplll_8h.html" target="_top" xlink:title=" ">
<polygon fill="white" stroke="black" points="1174.71,-123.5 1174.71,-142.5 1232.71,-142.5 1232.71,-123.5 1174.71,-123.5"/>
<text text-anchor="middle" x="1203.71" y="-130.5" font-family="Helvetica,sans-Serif" font-size="10.00">fplll/fplll.h</text>
</a>
</g>
</g>
<!-- Node4&#45;&gt;Node6 -->
<g id="edge5" class="edge">
<title>Node4&#45;&gt;Node6</title>
<path fill="none" stroke="midnightblue" d="M1187.85,-169.69C1191.89,-160.59 1196.59,-150.01 1199.82,-142.75"/>
<polygon fill="midnightblue" stroke="midnightblue" points="1184.54,-168.52 1183.67,-179.08 1190.93,-171.37 1184.54,-168.52"/>
</g>
<!-- Node7 -->
<g id="node7" class="node">
<title>Node7</title>
<g id="a_node7"><a xlink:href="fplll_8cpp.html" target="_top" xlink:title=" ">
<polygon fill="white" stroke="black" points="1668.71,-62 1668.71,-81 1736.71,-81 1736.71,-62 1668.71,-62"/>
<text text-anchor="middle" x="1702.71" y="-69" font-family="Helvetica,sans-Serif" font-size="10.00">fplll/fplll.cpp</text>
</a>
</g>
</g>
<!-- Node6&#45;&gt;Node7 -->
<g id="edge6" class="edge">
<title>Node6&#45;&gt;Node7</title>
<path fill="none" stroke="midnightblue" d="M1243.18,-130.63C1322.07,-127.34 1504.53,-116.88 1654.71,-87 1662.22,-85.51 1670.24,-83.32 1677.53,-81.11"/>
<polygon fill="midnightblue" stroke="midnightblue" points="1242.6,-127.15 1232.75,-131.05 1242.88,-134.15 1242.6,-127.15"/>
</g>
<!-- Node8 -->
<g id="node8" class="node">
<title>Node8</title>
<g id="a_node8"><a xlink:href="main_8h.html" target="_top" xlink:title=" ">
<polygon fill="white" stroke="black" points="1859.71,-62 1859.71,-81 1923.71,-81 1923.71,-62 1859.71,-62"/>
<text text-anchor="middle" x="1891.71" y="-69" font-family="Helvetica,sans-Serif" font-size="10.00">fplll/main.h</text>
</a>
</g>
</g>
<!-- Node6&#45;&gt;Node8 -->
<g id="edge7" class="edge">
<title>Node6&#45;&gt;Node8</title>
<path fill="none" stroke="midnightblue" d="M1243.15,-130.71C1340.76,-127.18 1601.32,-115.63 1816.71,-87 1830.78,-85.13 1846.19,-82.29 1859.36,-79.62"/>
<polygon fill="midnightblue" stroke="midnightblue" points="1242.74,-127.23 1232.87,-131.08 1242.99,-134.22 1242.74,-127.23"/>
</g>
<!-- Node10 -->
<g id="node10" class="node">
<title>Node10</title>
<g id="a_node10"><a xlink:href="pruner_8cpp.html" target="_top" xlink:title=" ">
<polygon fill="white" stroke="black" points="277.71,-0.5 277.71,-19.5 387.71,-19.5 387.71,-0.5 277.71,-0.5"/>
<text text-anchor="middle" x="332.71" y="-7.5" font-family="Helvetica,sans-Serif" font-size="10.00">fplll/pruner/pruner.cpp</text>
</a>
</g>
</g>
<!-- Node6&#45;&gt;Node10 -->
<g id="edge9" class="edge">
<title>Node6&#45;&gt;Node10</title>
<path fill="none" stroke="midnightblue" d="M1164.38,-123.51C1042.49,-112.19 462.52,-126.47 388.71,-87 360.67,-72.01 342.97,-36.09 336.04,-19.58"/>
<polygon fill="midnightblue" stroke="midnightblue" points="1164.1,-127 1174.43,-124.65 1164.88,-120.04 1164.1,-127"/>
</g>
<!-- Node11 -->
<g id="node11" class="node">
<title>Node11</title>
<g id="a_node11"><a xlink:href="pruner__cost_8cpp.html" target="_top" xlink:title=" ">
<polygon fill="white" stroke="black" points="397.71,-56.5 397.71,-86.5 489.71,-86.5 489.71,-56.5 397.71,-56.5"/>
<text text-anchor="start" x="405.71" y="-74.5" font-family="Helvetica,sans-Serif" font-size="10.00">fplll/pruner/pruner</text>
<text text-anchor="middle" x="443.71" y="-63.5" font-family="Helvetica,sans-Serif" font-size="10.00">_cost.cpp</text>
</a>
</g>
</g>
<!-- Node6&#45;&gt;Node11 -->
<g id="edge10" class="edge">
<title>Node6&#45;&gt;Node11</title>
<path fill="none" stroke="midnightblue" d="M1164.29,-123.25C869.38,-82.66 788.26,-132.51 498.71,-87 495.78,-86.54 492.79,-85.99 489.78,-85.37"/>
<polygon fill="midnightblue" stroke="midnightblue" points="1164.04,-126.75 1174.42,-124.67 1165.01,-119.82 1164.04,-126.75"/>
</g>
<!-- Node12 -->
<g id="node12" class="node">
<title>Node12</title>
<g id="a_node12"><a xlink:href="pruner__optimize_8cpp.html" target="_top" xlink:title=" ">
<polygon fill="white" stroke="black" points="631.71,-56.5 631.71,-86.5 723.71,-86.5 723.71,-56.5 631.71,-56.5"/>
<text text-anchor="start" x="639.71" y="-74.5" font-family="Helvetica,sans-Serif" font-size="10.00">fplll/pruner/pruner</text>
<text text-anchor="middle" x="677.71" y="-63.5" font-family="Helvetica,sans-Serif" font-size="10.00">_optimize.cpp</text>
</a>
</g>
</g>
<!-- Node6&#45;&gt;Node12 -->
<g id="edge12" class="edge">
<title>Node6&#45;&gt;Node12</title>
<path fill="none" stroke="midnightblue" d="M1164.28,-123.2C972.54,-94.15 919.34,-119.12 732.71,-87 729.79,-86.5 726.8,-85.91 723.79,-85.27"/>
<polygon fill="midnightblue" stroke="midnightblue" points="1163.99,-126.7 1174.41,-124.76 1165.06,-119.78 1163.99,-126.7"/>
</g>
<!-- Node13 -->
<g id="node13" class="node">
<title>Node13</title>
<g id="a_node13"><a xlink:href="pruner__optimize__tc_8cpp.html" target="_top" xlink:title=" ">
<polygon fill="white" stroke="black" points="988.71,-56.5 988.71,-86.5 1080.71,-86.5 1080.71,-56.5 988.71,-56.5"/>
<text text-anchor="start" x="996.71" y="-74.5" font-family="Helvetica,sans-Serif" font-size="10.00">fplll/pruner/pruner</text>
<text text-anchor="middle" x="1034.71" y="-63.5" font-family="Helvetica,sans-Serif" font-size="10.00">_optimize_tc.cpp</text>
</a>
</g>
</g>
<!-- Node6&#45;&gt;Node13 -->
<g id="edge14" class="edge">
<title>Node6&#45;&gt;Node13</title>
<path fill="none" stroke="midnightblue" d="M1169.92,-120.1C1142.42,-110.42 1103.55,-96.74 1074.54,-86.52"/>
<polygon fill="midnightblue" stroke="midnightblue" points="1168.9,-123.46 1179.5,-123.48 1171.23,-116.85 1168.9,-123.46"/>
</g>
<!-- Node14 -->
<g id="node14" class="node">
<title>Node14</title>
<g id="a_node14"><a xlink:href="pruner__optimize__tp_8cpp.html" target="_top" xlink:title=" ">
<polygon fill="white" stroke="black" points="29.71,-56.5 29.71,-86.5 121.71,-86.5 121.71,-56.5 29.71,-56.5"/>
<text text-anchor="start" x="37.71" y="-74.5" font-family="Helvetica,sans-Serif" font-size="10.00">fplll/pruner/pruner</text>
<text text-anchor="middle" x="75.71" y="-63.5" font-family="Helvetica,sans-Serif" font-size="10.00">_optimize_tp.cpp</text>
</a>
</g>
</g>
<!-- Node6&#45;&gt;Node14 -->
<g id="edge16" class="edge">
<title>Node6&#45;&gt;Node14</title>
<path fill="none" stroke="midnightblue" d="M1164.26,-123.28C706.98,-64.35 582.3,-153.54 130.71,-87 127.78,-86.57 124.78,-86.04 121.77,-85.44"/>
<polygon fill="midnightblue" stroke="midnightblue" points="1164.06,-126.78 1174.43,-124.61 1164.97,-119.84 1164.06,-126.78"/>
</g>
<!-- Node15 -->
<g id="node15" class="node">
<title>Node15</title>
<g id="a_node15"><a xlink:href="pruner__prob_8cpp.html" target="_top" xlink:title=" ">
<polygon fill="white" stroke="black" points="139.71,-56.5 139.71,-86.5 231.71,-86.5 231.71,-56.5 139.71,-56.5"/>
<text text-anchor="start" x="147.71" y="-74.5" font-family="Helvetica,sans-Serif" font-size="10.00">fplll/pruner/pruner</text>
<text text-anchor="middle" x="185.71" y="-63.5" font-family="Helvetica,sans-Serif" font-size="10.00">_prob.cpp</text>
</a>
</g>
</g>
<!-- Node6&#45;&gt;Node15 -->
<g id="edge18" class="edge">
<title>Node6&#45;&gt;Node15</title>
<path fill="none" stroke="midnightblue" d="M1164.41,-123.29C755.56,-69.82 643.9,-147.26 240.71,-87 237.78,-86.56 234.78,-86.03 231.77,-85.43"/>
<polygon fill="midnightblue" stroke="midnightblue" points="1164.06,-126.78 1174.43,-124.62 1164.98,-119.84 1164.06,-126.78"/>
</g>
<!-- Node16 -->
<g id="node16" class="node">
<title>Node16</title>
<g id="a_node16"><a xlink:href="pruner__util_8cpp.html" target="_top" xlink:title=" ">
<polygon fill="white" stroke="black" points="249.71,-56.5 249.71,-86.5 341.71,-86.5 341.71,-56.5 249.71,-56.5"/>
<text text-anchor="start" x="257.71" y="-74.5" font-family="Helvetica,sans-Serif" font-size="10.00">fplll/pruner/pruner</text>
<text text-anchor="middle" x="295.71" y="-63.5" font-family="Helvetica,sans-Serif" font-size="10.00">_util.cpp</text>
</a>
</g>
</g>
<!-- Node6&#45;&gt;Node16 -->
<g id="edge20" class="edge">
<title>Node6&#45;&gt;Node16</title>
<path fill="none" stroke="midnightblue" d="M1164.3,-123.27C806.3,-75.5 708.75,-137.04 355.71,-87 351.15,-86.35 346.42,-85.51 341.72,-84.57"/>
<polygon fill="midnightblue" stroke="midnightblue" points="1164.05,-126.77 1174.43,-124.64 1164.99,-119.83 1164.05,-126.77"/>
</g>
<!-- Node17 -->
<g id="node17" class="node">
<title>Node17</title>
<g id="a_node17"><a xlink:href="test__babai_8cpp.html" target="_top" xlink:title=" ">
<polygon fill="white" stroke="black" points="508.21,-62 508.21,-81 613.21,-81 613.21,-62 508.21,-62"/>
<text text-anchor="middle" x="560.71" y="-69" font-family="Helvetica,sans-Serif" font-size="10.00">tests/test_babai.cpp</text>
</a>
</g>
</g>
<!-- Node6&#45;&gt;Node17 -->
<g id="edge22" class="edge">
<title>Node6&#45;&gt;Node17</title>
<path fill="none" stroke="midnightblue" d="M1164.33,-123.23C924.09,-88.68 858.22,-122.12 622.71,-87 612.87,-85.53 602.29,-83.3 592.7,-81.03"/>
<polygon fill="midnightblue" stroke="midnightblue" points="1164.02,-126.73 1174.42,-124.71 1165.03,-119.8 1164.02,-126.73"/>
</g>
<!-- Node18 -->
<g id="node18" class="node">
<title>Node18</title>
<g id="a_node18"><a xlink:href="test__bkz_8cpp.html" target="_top" xlink:title=" ">
<polygon fill="white" stroke="black" points="904.71,-0.5 904.71,-19.5 1002.71,-19.5 1002.71,-0.5 904.71,-0.5"/>
<text text-anchor="middle" x="953.71" y="-7.5" font-family="Helvetica,sans-Serif" font-size="10.00">tests/test_bkz.cpp</text>
</a>
</g>
</g>
<!-- Node6&#45;&gt;Node18 -->
<g id="edge23" class="edge">
<title>Node6&#45;&gt;Node18</title>
<path fill="none" stroke="midnightblue" d="M1177.68,-118.58C1162.15,-110.18 1142.29,-98.76 1125.71,-87 1108.49,-74.78 1108.08,-66.4 1089.71,-56 1059.09,-38.66 1020.77,-26.74 992.61,-19.55"/>
<polygon fill="midnightblue" stroke="midnightblue" points="1176.25,-121.78 1186.72,-123.39 1179.53,-115.6 1176.25,-121.78"/>
</g>
<!-- Node19 -->
<g id="node19" class="node">
<title>Node19</title>
<g id="a_node19"><a xlink:href="test__bkz__gram_8cpp.html" target="_top" xlink:title=" ">
<polygon fill="white" stroke="black" points="1021.21,-0.5 1021.21,-19.5 1146.21,-19.5 1146.21,-0.5 1021.21,-0.5"/>
<text text-anchor="middle" x="1083.71" y="-7.5" font-family="Helvetica,sans-Serif" font-size="10.00">tests/test_bkz_gram.cpp</text>
</a>
</g>
</g>
<!-- Node6&#45;&gt;Node19 -->
<g id="edge24" class="edge">
<title>Node6&#45;&gt;Node19</title>
<path fill="none" stroke="midnightblue" d="M1187.95,-116.11C1162.27,-90.21 1112.25,-39.78 1092.26,-19.62"/>
<polygon fill="midnightblue" stroke="midnightblue" points="1185.55,-118.66 1195.08,-123.3 1190.52,-113.73 1185.55,-118.66"/>
</g>
<!-- Node20 -->
<g id="node20" class="node">
<title>Node20</title>
<g id="a_node20"><a xlink:href="test__ceil_8cpp.html" target="_top" xlink:title=" ">
<polygon fill="white" stroke="black" points="742.21,-62 742.21,-81 839.21,-81 839.21,-62 742.21,-62"/>
<text text-anchor="middle" x="790.71" y="-69" font-family="Helvetica,sans-Serif" font-size="10.00">tests/test_ceil.cpp</text>
</a>
</g>
</g>
<!-- Node6&#45;&gt;Node20 -->
<g id="edge25" class="edge">
<title>Node6&#45;&gt;Node20</title>
<path fill="none" stroke="midnightblue" d="M1164.49,-123.18C1023.21,-99.61 984.05,-111.96 847.71,-87 838.97,-85.4 829.59,-83.21 821.01,-81.02"/>
<polygon fill="midnightblue" stroke="midnightblue" points="1163.95,-126.63 1174.39,-124.86 1165.12,-119.73 1163.95,-126.63"/>
</g>
<!-- Node21 -->
<g id="node21" class="node">
<title>Node21</title>
<g id="a_node21"><a xlink:href="test__counter_8cpp.html" target="_top" xlink:title=" ">
<polygon fill="white" stroke="black" points="857.21,-62 857.21,-81 970.21,-81 970.21,-62 857.21,-62"/>
<text text-anchor="middle" x="913.71" y="-69" font-family="Helvetica,sans-Serif" font-size="10.00">tests/test_counter.cpp</text>
</a>
</g>
</g>
<!-- Node6&#45;&gt;Node21 -->
<g id="edge26" class="edge">
<title>Node6&#45;&gt;Node21</title>
<path fill="none" stroke="midnightblue" d="M1164.44,-123.01C1081.13,-105.44 1058.69,-103.36 979.71,-87 970.63,-85.12 960.88,-83.02 951.72,-81.01"/>
<polygon fill="midnightblue" stroke="midnightblue" points="1163.84,-126.46 1174.35,-125.11 1165.29,-119.61 1163.84,-126.46"/>
</g>
<!-- Node22 -->
<g id="node22" class="node">
<title>Node22</title>
<g id="a_node22"><a xlink:href="test__cvp_8cpp.html" target="_top" xlink:title=" ">
<polygon fill="white" stroke="black" points="1164.71,-0.5 1164.71,-19.5 1262.71,-19.5 1262.71,-0.5 1164.71,-0.5"/>
<text text-anchor="middle" x="1213.71" y="-7.5" font-family="Helvetica,sans-Serif" font-size="10.00">tests/test_cvp.cpp</text>
</a>
</g>
</g>
<!-- Node6&#45;&gt;Node22 -->
<g id="edge27" class="edge">
<title>Node6&#45;&gt;Node22</title>
<path fill="none" stroke="midnightblue" d="M1204.73,-112.81C1205.61,-97.43 1207,-75.31 1208.71,-56 1209.83,-43.32 1211.54,-28.66 1212.64,-19.62"/>
<polygon fill="midnightblue" stroke="midnightblue" points="1201.22,-112.92 1204.17,-123.1 1208.21,-113.31 1201.22,-112.92"/>
</g>
<!-- Node23 -->
<g id="node23" class="node">
<title>Node23</title>
<g id="a_node23"><a xlink:href="test__enum_8cpp.html" target="_top" xlink:title=" ">
<polygon fill="white" stroke="black" points="1280.71,-0.5 1280.71,-19.5 1386.71,-19.5 1386.71,-0.5 1280.71,-0.5"/>
<text text-anchor="middle" x="1333.71" y="-7.5" font-family="Helvetica,sans-Serif" font-size="10.00">tests/test_enum.cpp</text>
</a>
</g>
</g>
<!-- Node6&#45;&gt;Node23 -->
<g id="edge28" class="edge">
<title>Node6&#45;&gt;Node23</title>
<path fill="none" stroke="midnightblue" d="M1209.11,-113.64C1214.85,-96.83 1225.38,-72.19 1241.71,-56 1259.39,-38.48 1285.25,-26.66 1305.05,-19.55"/>
<polygon fill="midnightblue" stroke="midnightblue" points="1205.71,-112.79 1206.02,-123.38 1212.38,-114.91 1205.71,-112.79"/>
</g>
<!-- Node24 -->
<g id="node24" class="node">
<title>Node24</title>
<g id="a_node24"><a xlink:href="test__hlll_8cpp.html" target="_top" xlink:title=" ">
<polygon fill="white" stroke="black" points="1404.71,-0.5 1404.71,-19.5 1498.71,-19.5 1498.71,-0.5 1404.71,-0.5"/>
<text text-anchor="middle" x="1451.71" y="-7.5" font-family="Helvetica,sans-Serif" font-size="10.00">tests/test_hlll.cpp</text>
</a>
</g>
</g>
<!-- Node6&#45;&gt;Node24 -->
<g id="edge29" class="edge">
<title>Node6&#45;&gt;Node24</title>
<path fill="none" stroke="midnightblue" d="M1243.44,-131.47C1311.61,-129.62 1446.4,-121.56 1475.71,-87 1492.71,-66.95 1471.26,-34.8 1459.06,-19.55"/>
<polygon fill="midnightblue" stroke="midnightblue" points="1243.01,-127.97 1233.1,-131.71 1243.18,-134.97 1243.01,-127.97"/>
</g>
<!-- Node25 -->
<g id="node25" class="node">
<title>Node25</title>
<g id="a_node25"><a xlink:href="test__lll_8cpp.html" target="_top" xlink:title=" ">
<polygon fill="white" stroke="black" points="1517.21,-0.5 1517.21,-19.5 1606.21,-19.5 1606.21,-0.5 1517.21,-0.5"/>
<text text-anchor="middle" x="1561.71" y="-7.5" font-family="Helvetica,sans-Serif" font-size="10.00">tests/test_lll.cpp</text>
</a>
</g>
</g>
<!-- Node6&#45;&gt;Node25 -->
<g id="edge30" class="edge">
<title>Node6&#45;&gt;Node25</title>
<path fill="none" stroke="midnightblue" d="M1243.05,-130.69C1342.11,-126.98 1595.72,-114.84 1620.71,-87 1629.91,-76.75 1626.82,-68.35 1620.71,-56 1612.42,-39.26 1594.6,-27.05 1580.69,-19.6"/>
<polygon fill="midnightblue" stroke="midnightblue" points="1242.73,-127.2 1232.86,-131.06 1242.98,-134.19 1242.73,-127.2"/>
</g>
<!-- Node6&#45;&gt;Node26 -->
<g id="edge31" class="edge">
<title>Node6&#45;&gt;Node26</title>
<path fill="none" stroke="midnightblue" d="M1242.77,-131C1374.08,-127.44 1798.83,-114.04 1932.71,-87 1971.54,-79.16 2080.62,-37.78 2127.66,-19.59"/>
<polygon fill="midnightblue" stroke="midnightblue" points="1242.66,-127.51 1232.76,-131.27 1242.85,-134.5 1242.66,-127.51"/>
</g>
<!-- Node27 -->
<g id="node27" class="node">
<title>Node27</title>
<g id="a_node27"><a xlink:href="test__nr_8cpp.html" target="_top" xlink:title=" ">
<polygon fill="white" stroke="black" points="1251.21,-62 1251.21,-81 1340.21,-81 1340.21,-62 1251.21,-62"/>
<text text-anchor="middle" x="1295.71" y="-69" font-family="Helvetica,sans-Serif" font-size="10.00">tests/test_nr.cpp</text>
</a>
</g>
</g>
<!-- Node6&#45;&gt;Node27 -->
<g id="edge32" class="edge">
<title>Node6&#45;&gt;Node27</title>
<path fill="none" stroke="midnightblue" d="M1225.47,-117.93C1243.2,-106.46 1267.67,-90.63 1282.55,-81.01"/>
<polygon fill="midnightblue" stroke="midnightblue" points="1223.39,-115.11 1216.89,-123.48 1227.19,-120.98 1223.39,-115.11"/>
</g>
<!-- Node28 -->
<g id="node28" class="node">
<title>Node28</title>
<g id="a_node28"><a xlink:href="test__pruner_8cpp.html" target="_top" xlink:title=" ">
<polygon fill="white" stroke="black" points="1358.71,-62 1358.71,-81 1466.71,-81 1466.71,-62 1358.71,-62"/>
<text text-anchor="middle" x="1412.71" y="-69" font-family="Helvetica,sans-Serif" font-size="10.00">tests/test_pruner.cpp</text>
</a>
</g>
</g>
<!-- Node6&#45;&gt;Node28 -->
<g id="edge33" class="edge">
<title>Node6&#45;&gt;Node28</title>
<path fill="none" stroke="midnightblue" d="M1242.56,-120.94C1283.04,-109.41 1345.62,-91.6 1382.54,-81.09"/>
<polygon fill="midnightblue" stroke="midnightblue" points="1241.43,-117.62 1232.77,-123.73 1243.35,-124.35 1241.43,-117.62"/>
</g>
<!-- Node29 -->
<g id="node29" class="node">
<title>Node29</title>
<g id="a_node29"><a xlink:href="test__svp_8cpp.html" target="_top" xlink:title=" ">
<polygon fill="white" stroke="black" points="1623.71,-0.5 1623.71,-19.5 1721.71,-19.5 1721.71,-0.5 1623.71,-0.5"/>
<text text-anchor="middle" x="1672.71" y="-7.5" font-family="Helvetica,sans-Serif" font-size="10.00">tests/test_svp.cpp</text>
</a>
</g>
</g>
<!-- Node6&#45;&gt;Node29 -->
<g id="edge34" class="edge">
<title>Node6&#45;&gt;Node29</title>
<path fill="none" stroke="midnightblue" d="M1243.07,-131.73C1362.04,-130.52 1711.8,-123.84 1745.71,-87 1755.04,-76.86 1752.43,-68.03 1745.71,-56 1735.77,-38.19 1715.56,-26.56 1698.92,-19.59"/>
<polygon fill="midnightblue" stroke="midnightblue" points="1242.91,-128.24 1232.94,-131.83 1242.98,-135.23 1242.91,-128.24"/>
</g>
<!-- Node30 -->
<g id="node30" class="node">
<title>Node30</title>
<g id="a_node30"><a xlink:href="test__svp__gram_8cpp.html" target="_top" xlink:title=" ">
<polygon fill="white" stroke="black" points="1740.21,-0.5 1740.21,-19.5 1865.21,-19.5 1865.21,-0.5 1740.21,-0.5"/>
<text text-anchor="middle" x="1802.71" y="-7.5" font-family="Helvetica,sans-Serif" font-size="10.00">tests/test_svp_gram.cpp</text>
</a>
</g>
</g>
<!-- Node6&#45;&gt;Node30 -->
<g id="edge35" class="edge">
<title>Node6&#45;&gt;Node30</title>
<path fill="none" stroke="midnightblue" d="M1243.26,-131.03C1363.74,-127.76 1720.64,-115.74 1763.71,-87 1787.4,-71.2 1797.49,-36.35 1801.06,-19.91"/>
<polygon fill="midnightblue" stroke="midnightblue" points="1242.91,-127.54 1233.01,-131.3 1243.1,-134.53 1242.91,-127.54"/>
</g>
<!-- Node31 -->
<g id="node31" class="node">
<title>Node31</title>
<g id="a_node31"><a xlink:href="test__utils_8h.html" target="_top" xlink:title=" ">
<polygon fill="white" stroke="black" points="1523.21,-62 1523.21,-81 1612.21,-81 1612.21,-62 1523.21,-62"/>
<text text-anchor="middle" x="1567.71" y="-69" font-family="Helvetica,sans-Serif" font-size="10.00">tests/test_utils.h</text>
</a>
</g>
</g>
<!-- Node6&#45;&gt;Node31 -->
<g id="edge36" class="edge">
<title>Node6&#45;&gt;Node31</title>
<path fill="none" stroke="midnightblue" d="M1243.12,-127.39C1301.44,-120.31 1414.02,-105.58 1508.71,-87 1517.4,-85.29 1526.75,-83.15 1535.37,-81.03"/>
<polygon fill="midnightblue" stroke="midnightblue" points="1242.39,-123.96 1232.88,-128.63 1243.23,-130.91 1242.39,-123.96"/>
</g>
<!-- Node9 -->
<g id="node9" class="node">
<title>Node9</title>
<g id="a_node9"><a xlink:href="main_8cpp.html" target="_top" xlink:title=" ">
<polygon fill="white" stroke="black" points="1883.71,-0.5 1883.71,-19.5 1957.71,-19.5 1957.71,-0.5 1883.71,-0.5"/>
<text text-anchor="middle" x="1920.71" y="-7.5" font-family="Helvetica,sans-Serif" font-size="10.00">fplll/main.cpp</text>
</a>
</g>
</g>
<!-- Node8&#45;&gt;Node9 -->
<g id="edge8" class="edge">
<title>Node8&#45;&gt;Node9</title>
<path fill="none" stroke="midnightblue" d="M1900.32,-52.83C1905.68,-41.83 1912.34,-28.16 1916.56,-19.51"/>
<polygon fill="midnightblue" stroke="midnightblue" points="1897.1,-51.45 1895.86,-61.98 1903.39,-54.52 1897.1,-51.45"/>
</g>
<!-- Node11&#45;&gt;Node10 -->
<g id="edge11" class="edge">
<title>Node11&#45;&gt;Node10</title>
<path fill="none" stroke="midnightblue" d="M408.55,-51.65C388.54,-40.93 364.44,-28.01 348.86,-19.66"/>
<polygon fill="midnightblue" stroke="midnightblue" points="406.94,-54.76 417.4,-56.4 410.24,-48.59 406.94,-54.76"/>
</g>
<!-- Node12&#45;&gt;Node10 -->
<g id="edge13" class="edge">
<title>Node12&#45;&gt;Node10</title>
<path fill="none" stroke="midnightblue" d="M622.01,-56.06C621.91,-56.04 621.81,-56.02 621.71,-56 540.9,-39.29 446.24,-25.66 387.87,-17.94"/>
<polygon fill="midnightblue" stroke="midnightblue" points="621.13,-59.45 631.65,-58.19 622.64,-52.62 621.13,-59.45"/>
</g>
<!-- Node13&#45;&gt;Node10 -->
<g id="edge15" class="edge">
<title>Node13&#45;&gt;Node10</title>
<path fill="none" stroke="midnightblue" d="M979.02,-56.05C978.91,-56.03 978.81,-56.02 978.71,-56 762.06,-20.71 500.1,-13.08 387.98,-11.44"/>
<polygon fill="midnightblue" stroke="midnightblue" points="978.23,-59.46 988.71,-57.87 979.53,-52.58 978.23,-59.46"/>
</g>
<!-- Node14&#45;&gt;Node10 -->
<g id="edge17" class="edge">
<title>Node14&#45;&gt;Node10</title>
<path fill="none" stroke="midnightblue" d="M131.74,-55.8C193.1,-40.99 253.59,-27.79 292.36,-19.51"/>
<polygon fill="midnightblue" stroke="midnightblue" points="130.78,-52.43 121.89,-58.19 132.43,-59.23 130.78,-52.43"/>
</g>
<!-- Node15&#45;&gt;Node10 -->
<g id="edge19" class="edge">
<title>Node15&#45;&gt;Node10</title>
<path fill="none" stroke="midnightblue" d="M230.14,-52.52C257.04,-41.63 290.13,-28.23 311.32,-19.66"/>
<polygon fill="midnightblue" stroke="midnightblue" points="228.5,-49.4 220.55,-56.4 231.13,-55.89 228.5,-49.4"/>
</g>
<!-- Node16&#45;&gt;Node10 -->
<g id="edge21" class="edge">
<title>Node16&#45;&gt;Node10</title>
<path fill="none" stroke="midnightblue" d="M309.82,-47.8C315.94,-37.96 322.74,-27.03 327.33,-19.66"/>
<polygon fill="midnightblue" stroke="midnightblue" points="306.79,-46.06 304.48,-56.4 312.73,-49.76 306.79,-46.06"/>
</g>
<!-- Node31&#45;&gt;Node18 -->
<g id="edge37" class="edge">
<title>Node31&#45;&gt;Node18</title>
<path fill="none" stroke="midnightblue" d="M1512.83,-61.13C1500.64,-59.24 1487.75,-57.41 1475.71,-56 1270.28,-31.88 1217.17,-43.88 1011.71,-20 1008.77,-19.66 1005.76,-19.28 1002.72,-18.88"/>
<polygon fill="midnightblue" stroke="midnightblue" points="1512.46,-64.61 1522.89,-62.71 1513.55,-57.69 1512.46,-64.61"/>
</g>
<!-- Node31&#45;&gt;Node19 -->
<g id="edge38" class="edge">
<title>Node31&#45;&gt;Node19</title>
<path fill="none" stroke="midnightblue" d="M1512.8,-61.44C1500.6,-59.54 1487.73,-57.62 1475.71,-56 1333.88,-36.85 1297.83,-36.88 1155.71,-20 1152.71,-19.64 1149.64,-19.27 1146.53,-18.9"/>
<polygon fill="midnightblue" stroke="midnightblue" points="1512.42,-64.92 1522.85,-63.02 1513.51,-58.01 1512.42,-64.92"/>
</g>
<!-- Node31&#45;&gt;Node22 -->
<g id="edge39" class="edge">
<title>Node31&#45;&gt;Node22</title>
<path fill="none" stroke="midnightblue" d="M1512.72,-61.26C1444.23,-49.75 1328.29,-30.26 1262.72,-19.24"/>
<polygon fill="midnightblue" stroke="midnightblue" points="1512.43,-64.76 1522.88,-62.96 1513.59,-57.86 1512.43,-64.76"/>
</g>
<!-- Node31&#45;&gt;Node23 -->
<g id="edge40" class="edge">
<title>Node31&#45;&gt;Node23</title>
<path fill="none" stroke="midnightblue" d="M1524.33,-59.47C1478.89,-47.91 1408.5,-30.02 1367.17,-19.51"/>
<polygon fill="midnightblue" stroke="midnightblue" points="1523.63,-62.9 1534.18,-61.98 1525.35,-56.12 1523.63,-62.9"/>
</g>
<!-- Node31&#45;&gt;Node24 -->
<g id="edge42" class="edge">
<title>Node31&#45;&gt;Node24</title>
<path fill="none" stroke="midnightblue" d="M1542.11,-57.37C1519.62,-45.83 1487.58,-29.4 1468.3,-19.51"/>
<polygon fill="midnightblue" stroke="midnightblue" points="1540.59,-60.53 1551.09,-61.98 1543.79,-54.3 1540.59,-60.53"/>
</g>
<!-- Node31&#45;&gt;Node25 -->
<g id="edge43" class="edge">
<title>Node31&#45;&gt;Node25</title>
<path fill="none" stroke="midnightblue" d="M1565.83,-51.82C1564.73,-41 1563.41,-27.9 1562.57,-19.51"/>
<polygon fill="midnightblue" stroke="midnightblue" points="1562.36,-52.38 1566.85,-61.98 1569.33,-51.67 1562.36,-52.38"/>
</g>
<!-- Node31&#45;&gt;Node26 -->
<g id="edge44" class="edge">
<title>Node31&#45;&gt;Node26</title>
<path fill="none" stroke="midnightblue" d="M1622.59,-61.19C1634.79,-59.31 1647.67,-57.46 1659.71,-56 1847.02,-33.3 1895.15,-40.57 2082.71,-20 2085.63,-19.68 2088.61,-19.34 2091.63,-18.98"/>
<polygon fill="midnightblue" stroke="midnightblue" points="1621.88,-57.76 1612.54,-62.78 1622.97,-64.68 1621.88,-57.76"/>
</g>
<!-- Node31&#45;&gt;Node29 -->
<g id="edge45" class="edge">
<title>Node31&#45;&gt;Node29</title>
<path fill="none" stroke="midnightblue" d="M1591.71,-56.9C1612.01,-45.4 1640.47,-29.27 1657.69,-19.51"/>
<polygon fill="midnightblue" stroke="midnightblue" points="1589.73,-54 1582.75,-61.98 1593.18,-60.09 1589.73,-54"/>
</g>
<!-- Node31&#45;&gt;Node30 -->
<g id="edge46" class="edge">
<title>Node31&#45;&gt;Node30</title>
<path fill="none" stroke="midnightblue" d="M1611.28,-59.47C1656.91,-47.91 1727.6,-30.02 1769.1,-19.51"/>
<polygon fill="midnightblue" stroke="midnightblue" points="1610.21,-56.13 1601.38,-61.98 1611.93,-62.91 1610.21,-56.13"/>
</g>
<!-- Node31&#45;&gt;Node32 -->
<g id="edge41" class="edge">
<title>Node31&#45;&gt;Node32</title>
<path fill="none" stroke="midnightblue" d="M1622.63,-61.48C1634.82,-59.58 1647.7,-57.65 1659.71,-56 1795.81,-37.3 1830.59,-38.54 1966.71,-20 1969.64,-19.6 1972.65,-19.18 1975.68,-18.74"/>
<polygon fill="midnightblue" stroke="midnightblue" points="1621.91,-58.05 1612.58,-63.06 1623,-64.96 1621.91,-58.05"/>
</g>
<!-- Node34&#45;&gt;Node6 -->
<g id="edge54" class="edge">
<title>Node34&#45;&gt;Node6</title>
<path fill="none" stroke="midnightblue" d="M1172.39,-285.12C1183.03,-277.07 1195.51,-266.44 1204.71,-255 1222.27,-233.15 1227.08,-226.23 1233.71,-199 1235.81,-190.36 1236.29,-187.51 1233.71,-179 1229.47,-164.98 1219.25,-151.34 1211.92,-142.82"/>
<polygon fill="midnightblue" stroke="midnightblue" points="1170.01,-282.52 1163.99,-291.24 1174.13,-288.18 1170.01,-282.52"/>
</g>
<!-- Node34&#45;&gt;Node10 -->
<g id="edge55" class="edge">
<title>Node34&#45;&gt;Node10</title>
<path fill="none" stroke="midnightblue" d="M1091.14,-291.22C927.93,-277.72 1.71,-308.9 1.71,-190 1.71,-190 1.71,-190 1.71,-132 1.71,-97.18 -5.13,-79.34 20.71,-56 57.47,-22.8 198.21,-14.05 277.53,-11.78"/>
<polygon fill="midnightblue" stroke="midnightblue" points="1090.87,-294.71 1101.16,-292.23 1091.56,-287.75 1090.87,-294.71"/>
</g>
<!-- Node35 -->
<g id="node35" class="node">
<title>Node35</title>
<g id="a_node35"><a xlink:href="bkz__param_8h.html" target="_top" xlink:title=" ">
<polygon fill="white" stroke="black" points="1105.21,-235.5 1105.21,-254.5 1196.21,-254.5 1196.21,-235.5 1105.21,-235.5"/>
<text text-anchor="middle" x="1150.71" y="-242.5" font-family="Helvetica,sans-Serif" font-size="10.00">fplll/bkz_param.h</text>
</a>
</g>
</g>
<!-- Node34&#45;&gt;Node35 -->
<g id="edge49" class="edge">
<title>Node34&#45;&gt;Node35</title>
<path fill="none" stroke="midnightblue" d="M1150.71,-280.8C1150.71,-271.91 1150.71,-261.78 1150.71,-254.75"/>
<polygon fill="midnightblue" stroke="midnightblue" points="1147.21,-281.08 1150.71,-291.08 1154.21,-281.08 1147.21,-281.08"/>
</g>
<!-- Node35&#45;&gt;Node4 -->
<g id="edge51" class="edge">
<title>Node35&#45;&gt;Node4</title>
<path fill="none" stroke="midnightblue" d="M1160.39,-225.98C1165.31,-216.82 1171.07,-206.09 1175.01,-198.75"/>
<polygon fill="midnightblue" stroke="midnightblue" points="1157.15,-224.62 1155.5,-235.08 1163.31,-227.93 1157.15,-224.62"/>
</g>
<!-- Node35&#45;&gt;Node5 -->
<g id="edge50" class="edge">
<title>Node35&#45;&gt;Node5</title>
<path fill="none" stroke="midnightblue" d="M1145.88,-225.67C1139.54,-201.62 1128.67,-160.39 1123.97,-142.59"/>
<polygon fill="midnightblue" stroke="midnightblue" points="1142.5,-226.59 1148.43,-235.37 1149.27,-224.81 1142.5,-226.59"/>
</g>
<!-- Node35&#45;&gt;Node6 -->
<g id="edge53" class="edge">
<title>Node35&#45;&gt;Node6</title>
<path fill="none" stroke="midnightblue" d="M1182.55,-230.94C1195.95,-223.67 1210.16,-213.17 1217.71,-199 1227.59,-180.46 1216.35,-155.43 1209.02,-142.51"/>
<polygon fill="midnightblue" stroke="midnightblue" points="1180.88,-227.87 1173.5,-235.47 1184.01,-234.13 1180.88,-227.87"/>
</g>
<!-- Node36 -->
<g id="node36" class="node">
<title>Node36</title>
<g id="a_node36"><a xlink:href="bkz__param_8cpp.html" target="_top" xlink:title=" ">
<polygon fill="white" stroke="black" points="992.21,-179.5 992.21,-198.5 1093.21,-198.5 1093.21,-179.5 992.21,-179.5"/>
<text text-anchor="middle" x="1042.71" y="-186.5" font-family="Helvetica,sans-Serif" font-size="10.00">fplll/bkz_param.cpp</text>
</a>
</g>
</g>
<!-- Node35&#45;&gt;Node36 -->
<g id="edge52" class="edge">
<title>Node35&#45;&gt;Node36</title>
<path fill="none" stroke="midnightblue" d="M1124.16,-230.73C1104.16,-220.73 1077.32,-207.31 1060.02,-198.65"/>
<polygon fill="midnightblue" stroke="midnightblue" points="1122.85,-233.98 1133.36,-235.32 1125.98,-227.72 1122.85,-233.98"/>
</g>
</g>
</svg>
