<?xml version="1.0" encoding="UTF-8" standalone="no"?>
<!DOCTYPE svg PUBLIC "-//W3C//DTD SVG 1.1//EN"
 "http://www.w3.org/Graphics/SVG/1.1/DTD/svg11.dtd">
<!-- Generated by graphviz version 2.40.1 (20161225.0304)
 -->
<!-- Title: fplll/gso_gram.h Pages: 1 -->
<svg width="354pt" height="84pt"
 viewBox="0.00 0.00 354.00 84.00" xmlns="http://www.w3.org/2000/svg" xmlns:xlink="http://www.w3.org/1999/xlink">
<g id="graph0" class="graph" transform="scale(1 1) rotate(0) translate(4 80)">
<title>fplll/gso_gram.h</title>
<polygon fill="#ffffff" stroke="transparent" points="-4,4 -4,-80 350,-80 350,4 -4,4"/>
<!-- Node0 -->
<g id="node1" class="node">
<title>Node0</title>
<polygon fill="#bfbfbf" stroke="#000000" points="120,-56.5 120,-75.5 206,-75.5 206,-56.5 120,-56.5"/>
<text text-anchor="middle" x="163" y="-63.5" font-family="Helvetica,sans-Serif" font-size="10.00" fill="#000000">fplll/gso_gram.h</text>
</g>
<!-- Node1 -->
<g id="node2" class="node">
<title>Node1</title>
<g id="a_node2"><a xlink:href="gso__gram_8cpp.html" target="_top" xlink:title="fplll/gso_gram.cpp">
<polygon fill="#ffffff" stroke="#000000" points="0,-.5 0,-19.5 96,-19.5 96,-.5 0,-.5"/>
<text text-anchor="middle" x="48" y="-7.5" font-family="Helvetica,sans-Serif" font-size="10.00" fill="#000000">fplll/gso_gram.cpp</text>
</a>
</g>
</g>
<!-- Node0&#45;&gt;Node1 -->
<g id="edge1" class="edge">
<title>Node0&#45;&gt;Node1</title>
<path fill="none" stroke="#191970" d="M134.1967,-51.9741C113.375,-41.8348 85.8022,-28.408 67.5112,-19.5011"/>
<polygon fill="#191970" stroke="#191970" points="132.7078,-55.1419 143.2308,-56.3733 135.7724,-48.8484 132.7078,-55.1419"/>
</g>
<!-- Node2 -->
<g id="node3" class="node">
<title>Node2</title>
<g id="a_node3"><a xlink:href="test__gso_8cpp.html" target="_top" xlink:title="tests/test_gso.cpp">
<polygon fill="#ffffff" stroke="#000000" points="114,-.5 114,-19.5 212,-19.5 212,-.5 114,-.5"/>
<text text-anchor="middle" x="163" y="-7.5" font-family="Helvetica,sans-Serif" font-size="10.00" fill="#000000">tests/test_gso.cpp</text>
</a>
</g>
</g>
<!-- Node0&#45;&gt;Node2 -->
<g id="edge2" class="edge">
<title>Node0&#45;&gt;Node2</title>
<path fill="none" stroke="#191970" d="M163,-46.1575C163,-37.155 163,-26.9199 163,-19.6427"/>
<polygon fill="#191970" stroke="#191970" points="159.5001,-46.2455 163,-56.2455 166.5001,-46.2456 159.5001,-46.2455"/>
</g>
<!-- Node3 -->
<g id="node4" class="node">
<title>Node3</title>
<g id="a_node4"><a xlink:href="test__lll__gram_8cpp.html" target="_top" xlink:title="tests/test_lll_gram.cpp">
<polygon fill="#ffffff" stroke="#000000" points="230,-.5 230,-19.5 346,-19.5 346,-.5 230,-.5"/>
<text text-anchor="middle" x="288" y="-7.5" font-family="Helvetica,sans-Serif" font-size="10.00" fill="#000000">tests/test_lll_gram.cpp</text>
</a>
</g>
</g>
<!-- Node0&#45;&gt;Node3 -->
<g id="edge3" class="edge">
<title>Node0&#45;&gt;Node3</title>
<path fill="none" stroke="#191970" d="M193.698,-52.2473C216.3993,-42.0771 246.7315,-28.4883 266.7921,-19.5011"/>
<polygon fill="#191970" stroke="#191970" points="192.1833,-49.0906 184.4883,-56.3733 195.0453,-55.4789 192.1833,-49.0906"/>
</g>
</g>
</svg>
