<?xml version="1.0" encoding="UTF-8" standalone="no"?>
<!DOCTYPE svg PUBLIC "-//W3C//DTD SVG 1.1//EN"
 "http://www.w3.org/Graphics/SVG/1.1/DTD/svg11.dtd">
<!-- Generated by graphviz version 2.40.1 (20161225.0304)
 -->
<!-- Title: fplll/gso_gram.h Pages: 1 -->
<svg width="2146pt" height="207pt"
 viewBox="0.00 0.00 2146.00 207.00" xmlns="http://www.w3.org/2000/svg" xmlns:xlink="http://www.w3.org/1999/xlink">
<g id="graph0" class="graph" transform="scale(1 1) rotate(0) translate(4 203)">
<title>fplll/gso_gram.h</title>
<polygon fill="#ffffff" stroke="transparent" points="-4,4 -4,-203 2142,-203 2142,4 -4,4"/>
<!-- Node0 -->
<g id="node1" class="node">
<title>Node0</title>
<polygon fill="#bfbfbf" stroke="#000000" points="1807,-179.5 1807,-198.5 1893,-198.5 1893,-179.5 1807,-179.5"/>
<text text-anchor="middle" x="1850" y="-186.5" font-family="Helvetica,sans-Serif" font-size="10.00" fill="#000000">fplll/gso_gram.h</text>
</g>
<!-- Node1 -->
<g id="node2" class="node">
<title>Node1</title>
<g id="a_node2"><a xlink:href="fplll_8h.html" target="_top" xlink:title="fplll/fplll.h">
<polygon fill="#ffffff" stroke="#000000" points="1046,-123.5 1046,-142.5 1104,-142.5 1104,-123.5 1046,-123.5"/>
<text text-anchor="middle" x="1075" y="-130.5" font-family="Helvetica,sans-Serif" font-size="10.00" fill="#000000">fplll/fplll.h</text>
</a>
</g>
</g>
<!-- Node0&#45;&gt;Node1 -->
<g id="edge1" class="edge">
<title>Node0&#45;&gt;Node1</title>
<path fill="none" stroke="#191970" d="M1796.5632,-185.1388C1645.5717,-174.2284 1219.2529,-143.4234 1104.0196,-135.0969"/>
<polygon fill="#191970" stroke="#191970" points="1796.7245,-188.6595 1806.9507,-185.8893 1797.229,-181.6777 1796.7245,-188.6595"/>
</g>
<!-- Node14 -->
<g id="node15" class="node">
<title>Node14</title>
<g id="a_node15"><a xlink:href="test__bkz__gram_8cpp.html" target="_top" xlink:title="tests/test_bkz_gram.cpp">
<polygon fill="#ffffff" stroke="#000000" points="1526.5,-.5 1526.5,-19.5 1651.5,-19.5 1651.5,-.5 1526.5,-.5"/>
<text text-anchor="middle" x="1589" y="-7.5" font-family="Helvetica,sans-Serif" font-size="10.00" fill="#000000">tests/test_bkz_gram.cpp</text>
</a>
</g>
</g>
<!-- Node0&#45;&gt;Node14 -->
<g id="edge43" class="edge">
<title>Node0&#45;&gt;Node14</title>
<path fill="none" stroke="#191970" d="M1827.6955,-173.7031C1775.393,-137.8328 1646.035,-49.1159 1603.1019,-19.6714"/>
<polygon fill="#191970" stroke="#191970" points="1825.741,-176.6067 1835.9675,-179.3762 1829.7002,-170.8338 1825.741,-176.6067"/>
</g>
<!-- Node19 -->
<g id="node20" class="node">
<title>Node19</title>
<g id="a_node20"><a xlink:href="test__lll__gram_8cpp.html" target="_top" xlink:title="tests/test_lll_gram.cpp">
<polygon fill="#ffffff" stroke="#000000" points="1670,-.5 1670,-19.5 1786,-19.5 1786,-.5 1670,-.5"/>
<text text-anchor="middle" x="1728" y="-7.5" font-family="Helvetica,sans-Serif" font-size="10.00" fill="#000000">tests/test_lll_gram.cpp</text>
</a>
</g>
</g>
<!-- Node0&#45;&gt;Node19 -->
<g id="edge45" class="edge">
<title>Node0&#45;&gt;Node19</title>
<path fill="none" stroke="#191970" d="M1837.6905,-170.9393C1812.1528,-133.47 1754.1625,-48.3859 1734.5917,-19.6714"/>
<polygon fill="#191970" stroke="#191970" points="1834.9166,-173.0841 1843.4408,-179.3762 1840.7009,-169.1417 1834.9166,-173.0841"/>
</g>
<!-- Node24 -->
<g id="node25" class="node">
<title>Node24</title>
<g id="a_node25"><a xlink:href="test__svp__gram_8cpp.html" target="_top" xlink:title="tests/test_svp_gram.cpp">
<polygon fill="#ffffff" stroke="#000000" points="1804.5,-.5 1804.5,-19.5 1929.5,-19.5 1929.5,-.5 1804.5,-.5"/>
<text text-anchor="middle" x="1867" y="-7.5" font-family="Helvetica,sans-Serif" font-size="10.00" fill="#000000">tests/test_svp_gram.cpp</text>
</a>
</g>
</g>
<!-- Node0&#45;&gt;Node24 -->
<g id="edge46" class="edge">
<title>Node0&#45;&gt;Node24</title>
<path fill="none" stroke="#191970" d="M1860.0479,-170.3196C1870.1699,-150.3566 1885.1079,-117.4565 1891,-87 1893.6169,-73.473 1894.281,-69.3814 1891,-56 1887.6966,-42.5272 1879.6826,-28.6175 1873.8208,-19.672"/>
<polygon fill="#191970" stroke="#191970" points="1856.9091,-168.7695 1855.3969,-179.2559 1863.1184,-172.0013 1856.9091,-168.7695"/>
</g>
<!-- Node26 -->
<g id="node27" class="node">
<title>Node26</title>
<g id="a_node27"><a xlink:href="test__gso_8cpp.html" target="_top" xlink:title="tests/test_gso.cpp">
<polygon fill="#ffffff" stroke="#000000" points="1948,-.5 1948,-19.5 2046,-19.5 2046,-.5 1948,-.5"/>
<text text-anchor="middle" x="1997" y="-7.5" font-family="Helvetica,sans-Serif" font-size="10.00" fill="#000000">tests/test_gso.cpp</text>
</a>
</g>
</g>
<!-- Node0&#45;&gt;Node26 -->
<g id="edge44" class="edge">
<title>Node0&#45;&gt;Node26</title>
<path fill="none" stroke="#191970" d="M1865.7614,-171.7714C1873.4821,-163.2177 1882.8483,-152.6692 1891,-143 1929.0634,-97.8506 1972.35,-42.0704 1989.4665,-19.827"/>
<polygon fill="#191970" stroke="#191970" points="1863.0867,-169.5106 1858.9566,-179.2673 1868.2696,-174.2156 1863.0867,-169.5106"/>
</g>
<!-- Node27 -->
<g id="node28" class="node">
<title>Node27</title>
<g id="a_node28"><a xlink:href="gso__gram_8cpp.html" target="_top" xlink:title="fplll/gso_gram.cpp">
<polygon fill="#ffffff" stroke="#000000" points="1976,-123.5 1976,-142.5 2072,-142.5 2072,-123.5 1976,-123.5"/>
<text text-anchor="middle" x="2024" y="-130.5" font-family="Helvetica,sans-Serif" font-size="10.00" fill="#000000">fplll/gso_gram.cpp</text>
</a>
</g>
</g>
<!-- Node0&#45;&gt;Node27 -->
<g id="edge42" class="edge">
<title>Node0&#45;&gt;Node27</title>
<path fill="none" stroke="#191970" d="M1889.801,-176.1905C1921.679,-165.9309 1965.6816,-151.7691 1994.4787,-142.5011"/>
<polygon fill="#191970" stroke="#191970" points="1888.3585,-172.9779 1879.9117,-179.3733 1890.5031,-179.6413 1888.3585,-172.9779"/>
</g>
<!-- Node2 -->
<g id="node3" class="node">
<title>Node2</title>
<g id="a_node3"><a xlink:href="fplll_8cpp.html" target="_top" xlink:title="fplll/fplll.cpp">
<polygon fill="#ffffff" stroke="#000000" points="1542,-62 1542,-81 1610,-81 1610,-62 1542,-62"/>
<text text-anchor="middle" x="1576" y="-69" font-family="Helvetica,sans-Serif" font-size="10.00" fill="#000000">fplll/fplll.cpp</text>
</a>
</g>
</g>
<!-- Node1&#45;&gt;Node2 -->
<g id="edge2" class="edge">
<title>Node1&#45;&gt;Node2</title>
<path fill="none" stroke="#191970" d="M1114.2125,-131.7996C1193.2753,-128.7711 1377.1393,-118.6461 1528,-87 1535.1992,-85.4898 1542.8419,-83.3019 1549.862,-81.0435"/>
<polygon fill="#191970" stroke="#191970" points="1114.0746,-128.3022 1104.2094,-132.1659 1114.3309,-135.2976 1114.0746,-128.3022"/>
</g>
<!-- Node3 -->
<g id="node4" class="node">
<title>Node3</title>
<g id="a_node4"><a xlink:href="main_8h.html" target="_top" xlink:title="fplll/main.h">
<polygon fill="#ffffff" stroke="#000000" points="1818,-62 1818,-81 1882,-81 1882,-62 1818,-62"/>
<text text-anchor="middle" x="1850" y="-69" font-family="Helvetica,sans-Serif" font-size="10.00" fill="#000000">fplll/main.h</text>
</a>
</g>
</g>
<!-- Node1&#45;&gt;Node3 -->
<g id="edge3" class="edge">
<title>Node1&#45;&gt;Node3</title>
<path fill="none" stroke="#191970" d="M1114.2752,-131.9806C1219.9764,-128.8929 1519.1735,-117.8826 1766,-87 1783.2163,-84.8459 1802.2416,-81.4232 1817.8262,-78.3414"/>
<polygon fill="#191970" stroke="#191970" points="1113.9756,-128.4876 1104.0794,-132.2712 1114.1751,-135.4848 1113.9756,-128.4876"/>
</g>
<!-- Node5 -->
<g id="node6" class="node">
<title>Node5</title>
<g id="a_node6"><a xlink:href="pruner_8cpp.html" target="_top" xlink:title="fplll/pruner/pruner.cpp">
<polygon fill="#ffffff" stroke="#000000" points="249,-.5 249,-19.5 359,-19.5 359,-.5 249,-.5"/>
<text text-anchor="middle" x="304" y="-7.5" font-family="Helvetica,sans-Serif" font-size="10.00" fill="#000000">fplll/pruner/pruner.cpp</text>
</a>
</g>
</g>
<!-- Node1&#45;&gt;Node5 -->
<g id="edge5" class="edge">
<title>Node1&#45;&gt;Node5</title>
<path fill="none" stroke="#191970" d="M1035.3368,-132.2893C874.2619,-129.2133 276.3152,-115.8787 249,-87 228.2286,-65.0396 265.7292,-34.869 288.4663,-19.6351"/>
<polygon fill="#191970" stroke="#191970" points="1035.6716,-135.7961 1045.7358,-132.4852 1035.8035,-128.7974 1035.6716,-135.7961"/>
</g>
<!-- Node6 -->
<g id="node7" class="node">
<title>Node6</title>
<g id="a_node7"><a xlink:href="pruner__cost_8cpp.html" target="_top" xlink:title="fplll/pruner/pruner\l_cost.cpp">
<polygon fill="#ffffff" stroke="#000000" points="258,-56.5 258,-86.5 350,-86.5 350,-56.5 258,-56.5"/>
<text text-anchor="start" x="266" y="-74.5" font-family="Helvetica,sans-Serif" font-size="10.00" fill="#000000">fplll/pruner/pruner</text>
<text text-anchor="middle" x="304" y="-63.5" font-family="Helvetica,sans-Serif" font-size="10.00" fill="#000000">_cost.cpp</text>
</a>
</g>
</g>
<!-- Node1&#45;&gt;Node6 -->
<g id="edge6" class="edge">
<title>Node1&#45;&gt;Node6</title>
<path fill="none" stroke="#191970" d="M1035.4237,-131.556C905.1937,-126.6321 490.811,-109.5484 359,-87 356.0664,-86.4982 353.0651,-85.9011 350.0522,-85.238"/>
<polygon fill="#191970" stroke="#191970" points="1035.5964,-135.0649 1045.7206,-131.9423 1035.8589,-128.0698 1035.5964,-135.0649"/>
</g>
<!-- Node7 -->
<g id="node8" class="node">
<title>Node7</title>
<g id="a_node8"><a xlink:href="pruner__optimize_8cpp.html" target="_top" xlink:title="fplll/pruner/pruner\l_optimize.cpp">
<polygon fill="#ffffff" stroke="#000000" points="368,-56.5 368,-86.5 460,-86.5 460,-56.5 368,-56.5"/>
<text text-anchor="start" x="376" y="-74.5" font-family="Helvetica,sans-Serif" font-size="10.00" fill="#000000">fplll/pruner/pruner</text>
<text text-anchor="middle" x="414" y="-63.5" font-family="Helvetica,sans-Serif" font-size="10.00" fill="#000000">_optimize.cpp</text>
</a>
</g>
</g>
<!-- Node1&#45;&gt;Node7 -->
<g id="edge8" class="edge">
<title>Node1&#45;&gt;Node7</title>
<path fill="none" stroke="#191970" d="M1035.4291,-131.0273C918.9399,-125.0568 578.5656,-106.3979 469,-87 466.0694,-86.4812 463.0704,-85.8711 460.0592,-85.1982"/>
<polygon fill="#191970" stroke="#191970" points="1035.5054,-134.5356 1045.6706,-131.549 1035.8616,-127.5447 1035.5054,-134.5356"/>
</g>
<!-- Node8 -->
<g id="node9" class="node">
<title>Node8</title>
<g id="a_node9"><a xlink:href="pruner__optimize__tc_8cpp.html" target="_top" xlink:title="fplll/pruner/pruner\l_optimize_tc.cpp">
<polygon fill="#ffffff" stroke="#000000" points="626,-56.5 626,-86.5 718,-86.5 718,-56.5 626,-56.5"/>
<text text-anchor="start" x="634" y="-74.5" font-family="Helvetica,sans-Serif" font-size="10.00" fill="#000000">fplll/pruner/pruner</text>
<text text-anchor="middle" x="672" y="-63.5" font-family="Helvetica,sans-Serif" font-size="10.00" fill="#000000">_optimize_tc.cpp</text>
</a>
</g>
</g>
<!-- Node1&#45;&gt;Node8 -->
<g id="edge10" class="edge">
<title>Node1&#45;&gt;Node8</title>
<path fill="none" stroke="#191970" d="M1035.7235,-129.6582C970.941,-123.7339 837.8231,-109.818 727,-87 724.085,-86.3998 721.0979,-85.7274 718.0956,-85.008"/>
<polygon fill="#191970" stroke="#191970" points="1035.6183,-133.1628 1045.8919,-130.5735 1036.246,-126.191 1035.6183,-133.1628"/>
</g>
<!-- Node9 -->
<g id="node10" class="node">
<title>Node9</title>
<g id="a_node10"><a xlink:href="pruner__optimize__tp_8cpp.html" target="_top" xlink:title="fplll/pruner/pruner\l_optimize_tp.cpp">
<polygon fill="#ffffff" stroke="#000000" points="736,-56.5 736,-86.5 828,-86.5 828,-56.5 736,-56.5"/>
<text text-anchor="start" x="744" y="-74.5" font-family="Helvetica,sans-Serif" font-size="10.00" fill="#000000">fplll/pruner/pruner</text>
<text text-anchor="middle" x="782" y="-63.5" font-family="Helvetica,sans-Serif" font-size="10.00" fill="#000000">_optimize_tp.cpp</text>
</a>
</g>
</g>
<!-- Node1&#45;&gt;Node9 -->
<g id="edge12" class="edge">
<title>Node1&#45;&gt;Node9</title>
<path fill="none" stroke="#191970" d="M1035.8858,-125.9933C989.4762,-117.5146 909.8384,-102.4453 842,-87 837.4892,-85.973 832.801,-84.8537 828.1221,-83.7021"/>
<polygon fill="#191970" stroke="#191970" points="1035.3611,-129.4552 1045.826,-127.8012 1036.6137,-122.5682 1035.3611,-129.4552"/>
</g>
<!-- Node10 -->
<g id="node11" class="node">
<title>Node10</title>
<g id="a_node11"><a xlink:href="pruner__prob_8cpp.html" target="_top" xlink:title="fplll/pruner/pruner\l_prob.cpp">
<polygon fill="#ffffff" stroke="#000000" points="0,-56.5 0,-86.5 92,-86.5 92,-56.5 0,-56.5"/>
<text text-anchor="start" x="8" y="-74.5" font-family="Helvetica,sans-Serif" font-size="10.00" fill="#000000">fplll/pruner/pruner</text>
<text text-anchor="middle" x="46" y="-63.5" font-family="Helvetica,sans-Serif" font-size="10.00" fill="#000000">_prob.cpp</text>
</a>
</g>
</g>
<!-- Node1&#45;&gt;Node10 -->
<g id="edge14" class="edge">
<title>Node1&#45;&gt;Node10</title>
<path fill="none" stroke="#191970" d="M1035.5503,-132.3336C876.9584,-129.4698 285.5796,-116.966 101,-87 98.0623,-86.5231 95.0578,-85.9451 92.0425,-85.2962"/>
<polygon fill="#191970" stroke="#191970" points="1035.7258,-135.8372 1045.7866,-132.5158 1035.8505,-128.8383 1035.7258,-135.8372"/>
</g>
<!-- Node11 -->
<g id="node12" class="node">
<title>Node11</title>
<g id="a_node12"><a xlink:href="pruner__util_8cpp.html" target="_top" xlink:title="fplll/pruner/pruner\l_util.cpp">
<polygon fill="#ffffff" stroke="#000000" points="110,-56.5 110,-86.5 202,-86.5 202,-56.5 110,-56.5"/>
<text text-anchor="start" x="118" y="-74.5" font-family="Helvetica,sans-Serif" font-size="10.00" fill="#000000">fplll/pruner/pruner</text>
<text text-anchor="middle" x="156" y="-63.5" font-family="Helvetica,sans-Serif" font-size="10.00" fill="#000000">_util.cpp</text>
</a>
</g>
</g>
<!-- Node1&#45;&gt;Node11 -->
<g id="edge16" class="edge">
<title>Node1&#45;&gt;Node11</title>
<path fill="none" stroke="#191970" d="M1035.5466,-131.9321C889.1597,-127.8073 377.2734,-111.8944 216,-87 211.5343,-86.3107 206.9189,-85.4303 202.3231,-84.4402"/>
<polygon fill="#191970" stroke="#191970" points="1035.7449,-135.4389 1045.8387,-132.2196 1035.9404,-128.4416 1035.7449,-135.4389"/>
</g>
<!-- Node12 -->
<g id="node13" class="node">
<title>Node12</title>
<g id="a_node13"><a xlink:href="sieve__main_8cpp.html" target="_top" xlink:title="fplll/sieve/sieve_main.cpp">
<polygon fill="#ffffff" stroke="#000000" points="478.5,-62 478.5,-81 607.5,-81 607.5,-62 478.5,-62"/>
<text text-anchor="middle" x="543" y="-69" font-family="Helvetica,sans-Serif" font-size="10.00" fill="#000000">fplll/sieve/sieve_main.cpp</text>
</a>
</g>
</g>
<!-- Node1&#45;&gt;Node12 -->
<g id="edge18" class="edge">
<title>Node1&#45;&gt;Node12</title>
<path fill="none" stroke="#191970" d="M1035.8982,-130.4817C956.5767,-125.0633 771.19,-110.8223 617,-87 606.4926,-85.3766 595.226,-83.2288 584.7327,-81.0509"/>
<polygon fill="#191970" stroke="#191970" points="1035.7155,-133.9773 1045.9284,-131.1583 1036.1867,-126.9932 1035.7155,-133.9773"/>
</g>
<!-- Node13 -->
<g id="node14" class="node">
<title>Node13</title>
<g id="a_node14"><a xlink:href="test__bkz_8cpp.html" target="_top" xlink:title="tests/test_bkz.cpp">
<polygon fill="#ffffff" stroke="#000000" points="812,-.5 812,-19.5 910,-19.5 910,-.5 812,-.5"/>
<text text-anchor="middle" x="861" y="-7.5" font-family="Helvetica,sans-Serif" font-size="10.00" fill="#000000">tests/test_bkz.cpp</text>
</a>
</g>
</g>
<!-- Node1&#45;&gt;Node13 -->
<g id="edge19" class="edge">
<title>Node1&#45;&gt;Node13</title>
<path fill="none" stroke="#191970" d="M1035.6783,-129.0586C983.8687,-123.0379 896.7527,-109.7819 875,-87 857.3598,-68.5252 858.0784,-35.6586 859.7047,-19.5018"/>
<polygon fill="#191970" stroke="#191970" points="1035.5225,-132.563 1045.8506,-130.2007 1036.3036,-125.6067 1035.5225,-132.563"/>
</g>
<!-- Node1&#45;&gt;Node14 -->
<g id="edge20" class="edge">
<title>Node1&#45;&gt;Node14</title>
<path fill="none" stroke="#191970" d="M1114.5076,-132.6703C1233.9186,-131.2675 1584.9926,-124.0043 1619,-87 1637.0568,-67.3519 1613.038,-35.6072 1598.5527,-19.7158"/>
<polygon fill="#191970" stroke="#191970" points="1114.3048,-129.1723 1104.3439,-132.782 1114.3818,-136.1718 1114.3048,-129.1723"/>
</g>
<!-- Node15 -->
<g id="node16" class="node">
<title>Node15</title>
<g id="a_node16"><a xlink:href="test__cvp_8cpp.html" target="_top" xlink:title="tests/test_cvp.cpp">
<polygon fill="#ffffff" stroke="#000000" points="951,-.5 951,-19.5 1049,-19.5 1049,-.5 951,-.5"/>
<text text-anchor="middle" x="1000" y="-7.5" font-family="Helvetica,sans-Serif" font-size="10.00" fill="#000000">tests/test_cvp.cpp</text>
</a>
</g>
</g>
<!-- Node1&#45;&gt;Node15 -->
<g id="edge21" class="edge">
<title>Node1&#45;&gt;Node15</title>
<path fill="none" stroke="#191970" d="M1063.8084,-114.6458C1047.6393,-88.1284 1018.3198,-40.0445 1005.8578,-19.6068"/>
<polygon fill="#191970" stroke="#191970" points="1060.9205,-116.6326 1069.1149,-123.3484 1066.897,-112.9883 1060.9205,-116.6326"/>
</g>
<!-- Node16 -->
<g id="node17" class="node">
<title>Node16</title>
<g id="a_node17"><a xlink:href="test__enum_8cpp.html" target="_top" xlink:title="tests/test_enum.cpp">
<polygon fill="#ffffff" stroke="#000000" points="884,-62 884,-81 990,-81 990,-62 884,-62"/>
<text text-anchor="middle" x="937" y="-69" font-family="Helvetica,sans-Serif" font-size="10.00" fill="#000000">tests/test_enum.cpp</text>
</a>
</g>
</g>
<!-- Node1&#45;&gt;Node16 -->
<g id="edge22" class="edge">
<title>Node1&#45;&gt;Node16</title>
<path fill="none" stroke="#191970" d="M1044.0106,-119.1895C1017.9378,-107.5701 981.3398,-91.2601 958.4111,-81.0419"/>
<polygon fill="#191970" stroke="#191970" points="1042.8787,-122.5169 1053.4375,-123.3906 1045.7282,-116.1231 1042.8787,-122.5169"/>
</g>
<!-- Node17 -->
<g id="node18" class="node">
<title>Node17</title>
<g id="a_node18"><a xlink:href="test__hlll_8cpp.html" target="_top" xlink:title="tests/test_hlll.cpp">
<polygon fill="#ffffff" stroke="#000000" points="1067,-.5 1067,-19.5 1161,-19.5 1161,-.5 1067,-.5"/>
<text text-anchor="middle" x="1114" y="-7.5" font-family="Helvetica,sans-Serif" font-size="10.00" fill="#000000">tests/test_hlll.cpp</text>
</a>
</g>
</g>
<!-- Node1&#45;&gt;Node17 -->
<g id="edge23" class="edge">
<title>Node1&#45;&gt;Node17</title>
<path fill="none" stroke="#191970" d="M1073.2607,-112.8895C1072.5954,-96.9693 1073.2602,-74.4252 1080,-56 1085.1856,-41.8238 1096.1996,-28.2651 1104.2927,-19.5882"/>
<polygon fill="#191970" stroke="#191970" points="1069.7859,-113.3994 1073.9123,-123.1576 1076.7718,-112.956 1069.7859,-113.3994"/>
</g>
<!-- Node18 -->
<g id="node19" class="node">
<title>Node18</title>
<g id="a_node19"><a xlink:href="test__lll_8cpp.html" target="_top" xlink:title="tests/test_lll.cpp">
<polygon fill="#ffffff" stroke="#000000" points="1179.5,-.5 1179.5,-19.5 1268.5,-19.5 1268.5,-.5 1179.5,-.5"/>
<text text-anchor="middle" x="1224" y="-7.5" font-family="Helvetica,sans-Serif" font-size="10.00" fill="#000000">tests/test_lll.cpp</text>
</a>
</g>
</g>
<!-- Node1&#45;&gt;Node18 -->
<g id="edge24" class="edge">
<title>Node1&#45;&gt;Node18</title>
<path fill="none" stroke="#191970" d="M1080.3758,-113.3412C1085.9767,-96.1768 1096.3088,-71.6311 1113,-56 1132.2607,-37.9625 1159.5899,-26.5191 1182.3106,-19.5572"/>
<polygon fill="#191970" stroke="#191970" points="1076.8831,-112.8027 1077.3591,-123.3868 1083.5874,-114.816 1076.8831,-112.8027"/>
</g>
<!-- Node1&#45;&gt;Node19 -->
<g id="edge25" class="edge">
<title>Node1&#45;&gt;Node19</title>
<path fill="none" stroke="#191970" d="M1114.2708,-131.1748C1233.9622,-125.4192 1588.9729,-106.852 1637,-87 1673.3392,-71.9791 1705.8641,-36.84 1720.2193,-19.7198"/>
<polygon fill="#191970" stroke="#191970" points="1113.9132,-127.6878 1104.0915,-131.6606 1114.247,-134.6799 1113.9132,-127.6878"/>
</g>
<!-- Node20 -->
<g id="node21" class="node">
<title>Node20</title>
<g id="a_node21"><a xlink:href="test__nr_8cpp.html" target="_top" xlink:title="tests/test_nr.cpp">
<polygon fill="#ffffff" stroke="#000000" points="1122,-62 1122,-81 1212,-81 1212,-62 1122,-62"/>
<text text-anchor="middle" x="1167" y="-69" font-family="Helvetica,sans-Serif" font-size="10.00" fill="#000000">tests/test_nr.cpp</text>
</a>
</g>
</g>
<!-- Node1&#45;&gt;Node20 -->
<g id="edge26" class="edge">
<title>Node1&#45;&gt;Node20</title>
<path fill="none" stroke="#191970" d="M1097.7591,-117.786C1114.9618,-106.2864 1138.0462,-90.855 1152.7259,-81.0419"/>
<polygon fill="#191970" stroke="#191970" points="1095.7434,-114.9234 1089.375,-123.3906 1099.6337,-120.7429 1095.7434,-114.9234"/>
</g>
<!-- Node21 -->
<g id="node22" class="node">
<title>Node21</title>
<g id="a_node22"><a xlink:href="test__pruner_8cpp.html" target="_top" xlink:title="tests/test_pruner.cpp">
<polygon fill="#ffffff" stroke="#000000" points="1230.5,-62 1230.5,-81 1339.5,-81 1339.5,-62 1230.5,-62"/>
<text text-anchor="middle" x="1285" y="-69" font-family="Helvetica,sans-Serif" font-size="10.00" fill="#000000">tests/test_pruner.cpp</text>
</a>
</g>
</g>
<!-- Node1&#45;&gt;Node21 -->
<g id="edge27" class="edge">
<title>Node1&#45;&gt;Node21</title>
<path fill="none" stroke="#191970" d="M1113.8286,-121.6288C1153.6249,-109.9741 1214.8267,-92.0508 1252.2524,-81.0904"/>
<polygon fill="#191970" stroke="#191970" points="1112.8128,-118.2792 1104.1996,-124.4487 1114.7802,-124.997 1112.8128,-118.2792"/>
</g>
<!-- Node22 -->
<g id="node23" class="node">
<title>Node22</title>
<g id="a_node23"><a xlink:href="test__sieve_8cpp.html" target="_top" xlink:title="tests/test_sieve.cpp">
<polygon fill="#ffffff" stroke="#000000" points="1286.5,-.5 1286.5,-19.5 1391.5,-19.5 1391.5,-.5 1286.5,-.5"/>
<text text-anchor="middle" x="1339" y="-7.5" font-family="Helvetica,sans-Serif" font-size="10.00" fill="#000000">tests/test_sieve.cpp</text>
</a>
</g>
</g>
<!-- Node1&#45;&gt;Node22 -->
<g id="edge28" class="edge">
<title>Node1&#45;&gt;Node22</title>
<path fill="none" stroke="#191970" d="M1114.2661,-129.1771C1186.1796,-121.7778 1333.0622,-104.6654 1348,-87 1364.2511,-67.7815 1351.9581,-35.554 1344.1508,-19.5776"/>
<polygon fill="#191970" stroke="#191970" points="1113.8196,-125.7044 1104.2245,-130.1972 1114.5271,-132.6685 1113.8196,-125.7044"/>
</g>
<!-- Node23 -->
<g id="node24" class="node">
<title>Node23</title>
<g id="a_node24"><a xlink:href="test__svp_8cpp.html" target="_top" xlink:title="tests/test_svp.cpp">
<polygon fill="#ffffff" stroke="#000000" points="1410,-.5 1410,-19.5 1508,-19.5 1508,-.5 1410,-.5"/>
<text text-anchor="middle" x="1459" y="-7.5" font-family="Helvetica,sans-Serif" font-size="10.00" fill="#000000">tests/test_svp.cpp</text>
</a>
</g>
</g>
<!-- Node1&#45;&gt;Node23 -->
<g id="edge29" class="edge">
<title>Node1&#45;&gt;Node23</title>
<path fill="none" stroke="#191970" d="M1114.5355,-131.6053C1214.0751,-127.689 1468.9065,-114.9992 1494,-87 1512.2288,-66.6605 1485.4926,-35.229 1469.5083,-19.5607"/>
<polygon fill="#191970" stroke="#191970" points="1114.15,-128.1174 1104.2918,-131.9987 1114.4188,-135.1122 1114.15,-128.1174"/>
</g>
<!-- Node1&#45;&gt;Node24 -->
<g id="edge30" class="edge">
<title>Node1&#45;&gt;Node24</title>
<path fill="none" stroke="#191970" d="M1114.2891,-131.5491C1229.9313,-127.032 1567.701,-112.0057 1675,-87 1741.4558,-71.5127 1815.028,-36.5995 1848.5465,-19.6268"/>
<polygon fill="#191970" stroke="#191970" points="1113.9793,-128.0583 1104.1218,-131.9414 1114.2493,-135.0531 1113.9793,-128.0583"/>
</g>
<!-- Node25 -->
<g id="node26" class="node">
<title>Node25</title>
<g id="a_node26"><a xlink:href="test__utils_8h.html" target="_top" xlink:title="tests/test_utils.h">
<polygon fill="#ffffff" stroke="#000000" points="1396.5,-62 1396.5,-81 1485.5,-81 1485.5,-62 1396.5,-62"/>
<text text-anchor="middle" x="1441" y="-69" font-family="Helvetica,sans-Serif" font-size="10.00" fill="#000000">tests/test_utils.h</text>
</a>
</g>
</g>
<!-- Node1&#45;&gt;Node25 -->
<g id="edge31" class="edge">
<title>Node1&#45;&gt;Node25</title>
<path fill="none" stroke="#191970" d="M1114.3447,-128.4878C1172.9839,-121.4513 1286.6351,-106.6114 1382,-87 1390.1951,-85.3147 1398.9509,-83.1935 1407.1408,-81.0659"/>
<polygon fill="#191970" stroke="#191970" points="1113.9104,-125.0147 1104.3932,-129.6702 1114.7364,-131.9658 1113.9104,-125.0147"/>
</g>
<!-- Node4 -->
<g id="node5" class="node">
<title>Node4</title>
<g id="a_node5"><a xlink:href="main_8cpp.html" target="_top" xlink:title="fplll/main.cpp">
<polygon fill="#ffffff" stroke="#000000" points="2064,-.5 2064,-19.5 2138,-19.5 2138,-.5 2064,-.5"/>
<text text-anchor="middle" x="2101" y="-7.5" font-family="Helvetica,sans-Serif" font-size="10.00" fill="#000000">fplll/main.cpp</text>
</a>
</g>
</g>
<!-- Node3&#45;&gt;Node4 -->
<g id="edge4" class="edge">
<title>Node3&#45;&gt;Node4</title>
<path fill="none" stroke="#191970" d="M1891.8126,-61.2551C1939.8306,-49.4897 2017.88,-30.366 2063.8459,-19.1035"/>
<polygon fill="#191970" stroke="#191970" points="1890.924,-57.8692 1882.0443,-63.6485 1892.5899,-64.6681 1890.924,-57.8692"/>
</g>
<!-- Node6&#45;&gt;Node5 -->
<g id="edge7" class="edge">
<title>Node6&#45;&gt;Node5</title>
<path fill="none" stroke="#191970" d="M304,-46.2849C304,-36.9858 304,-26.9883 304,-19.8469"/>
<polygon fill="#191970" stroke="#191970" points="300.5001,-46.2977 304,-56.2977 307.5001,-46.2978 300.5001,-46.2977"/>
</g>
<!-- Node7&#45;&gt;Node5 -->
<g id="edge9" class="edge">
<title>Node7&#45;&gt;Node5</title>
<path fill="none" stroke="#191970" d="M378.2796,-51.5291C359.0716,-40.79 336.2719,-28.0429 321.0461,-19.5303"/>
<polygon fill="#191970" stroke="#191970" points="376.6545,-54.6303 387.091,-56.4554 380.0705,-48.5204 376.6545,-54.6303"/>
</g>
<!-- Node8&#45;&gt;Node5 -->
<g id="edge11" class="edge">
<title>Node8&#45;&gt;Node5</title>
<path fill="none" stroke="#191970" d="M616.3056,-56.0647C616.2037,-56.0431 616.1018,-56.0215 616,-56 526.8063,-37.1565 421.6556,-23.3659 359.0341,-16.0264"/>
<polygon fill="#191970" stroke="#191970" points="615.4377,-59.4566 625.9662,-58.2727 616.9974,-52.6325 615.4377,-59.4566"/>
</g>
<!-- Node9&#45;&gt;Node5 -->
<g id="edge13" class="edge">
<title>Node9&#45;&gt;Node5</title>
<path fill="none" stroke="#191970" d="M726.0884,-56.0234C589.1882,-30.1111 438.4669,-18.1101 359.1931,-13.0637"/>
<polygon fill="#191970" stroke="#191970" points="725.4393,-59.4626 735.9202,-57.9132 726.7606,-52.5884 725.4393,-59.4626"/>
</g>
<!-- Node10&#45;&gt;Node5 -->
<g id="edge15" class="edge">
<title>Node10&#45;&gt;Node5</title>
<path fill="none" stroke="#191970" d="M102.092,-55.7884C161.4704,-40.8502 219.6174,-27.9674 258.6884,-19.5631"/>
<polygon fill="#191970" stroke="#191970" points="101.0015,-52.454 92.1668,-58.3019 102.72,-59.2398 101.0015,-52.454"/>
</g>
<!-- Node11&#45;&gt;Node5 -->
<g id="edge17" class="edge">
<title>Node11&#45;&gt;Node5</title>
<path fill="none" stroke="#191970" d="M201.6195,-52.5433C227.9501,-41.6018 259.9308,-28.3126 281.0653,-19.5303"/>
<polygon fill="#191970" stroke="#191970" points="200.0963,-49.386 192.2049,-56.4554 202.7824,-55.8501 200.0963,-49.386"/>
</g>
<!-- Node25&#45;&gt;Node13 -->
<g id="edge32" class="edge">
<title>Node25&#45;&gt;Node13</title>
<path fill="none" stroke="#191970" d="M1386.2907,-61.6638C1373.7374,-59.6067 1360.4278,-57.5843 1348,-56 1168.3018,-33.0925 1122.1426,-39.1008 942,-20 931.7141,-18.9094 920.7079,-17.6276 910.2287,-16.3524"/>
<polygon fill="#191970" stroke="#191970" points="1385.7247,-65.1176 1396.1648,-63.3132 1386.8781,-58.2133 1385.7247,-65.1176"/>
</g>
<!-- Node25&#45;&gt;Node14 -->
<g id="edge33" class="edge">
<title>Node25&#45;&gt;Node14</title>
<path fill="none" stroke="#191970" d="M1473.4985,-57.9955C1501.5044,-46.358 1541.2306,-29.8501 1566.0374,-19.5419"/>
<polygon fill="#191970" stroke="#191970" points="1472.0164,-54.8212 1464.125,-61.8906 1474.7025,-61.2853 1472.0164,-54.8212"/>
</g>
<!-- Node25&#45;&gt;Node15 -->
<g id="edge34" class="edge">
<title>Node25&#45;&gt;Node15</title>
<path fill="none" stroke="#191970" d="M1386.247,-61.9846C1373.6958,-59.9119 1360.3981,-57.8019 1348,-56 1219.4722,-37.32 1186.4752,-39.0389 1058,-20 1055.0688,-19.5656 1052.0574,-19.1013 1049.0216,-18.6195"/>
<polygon fill="#191970" stroke="#191970" points="1385.6815,-65.4386 1396.1212,-63.6324 1386.8337,-58.5341 1385.6815,-65.4386"/>
</g>
<!-- Node25&#45;&gt;Node17 -->
<g id="edge36" class="edge">
<title>Node25&#45;&gt;Node17</title>
<path fill="none" stroke="#191970" d="M1386.0696,-61.1691C1323.0349,-49.3139 1220.7147,-30.0702 1161.1497,-18.8676"/>
<polygon fill="#191970" stroke="#191970" points="1385.743,-64.6689 1396.2177,-63.0776 1387.0369,-57.7895 1385.743,-64.6689"/>
</g>
<!-- Node25&#45;&gt;Node18 -->
<g id="edge37" class="edge">
<title>Node25&#45;&gt;Node18</title>
<path fill="none" stroke="#191970" d="M1397.328,-59.1229C1356.1263,-47.4459 1295.2316,-30.1877 1257.6682,-19.5419"/>
<polygon fill="#191970" stroke="#191970" points="1396.5183,-62.5312 1407.0938,-61.8906 1398.427,-55.7965 1396.5183,-62.5312"/>
</g>
<!-- Node25&#45;&gt;Node19 -->
<g id="edge38" class="edge">
<title>Node25&#45;&gt;Node19</title>
<path fill="none" stroke="#191970" d="M1495.3529,-59.8529C1549.8098,-48.1836 1632.6307,-30.4363 1683.3667,-19.5643"/>
<polygon fill="#191970" stroke="#191970" points="1494.5735,-56.4404 1485.5289,-61.9581 1496.0403,-63.285 1494.5735,-56.4404"/>
</g>
<!-- Node25&#45;&gt;Node22 -->
<g id="edge39" class="edge">
<title>Node25&#45;&gt;Node22</title>
<path fill="none" stroke="#191970" d="M1416.2903,-56.6015C1397.1649,-45.07 1371.2503,-29.445 1354.8256,-19.5419"/>
<polygon fill="#191970" stroke="#191970" points="1414.6915,-59.7244 1425.0625,-61.8906 1418.3059,-53.7298 1414.6915,-59.7244"/>
</g>
<!-- Node25&#45;&gt;Node23 -->
<g id="edge40" class="edge">
<title>Node25&#45;&gt;Node23</title>
<path fill="none" stroke="#191970" d="M1446.683,-52.0832C1449.833,-41.3205 1453.6134,-28.4042 1456.1478,-19.7449"/>
<polygon fill="#191970" stroke="#191970" points="1443.2625,-51.3101 1443.8125,-61.8906 1449.9806,-53.2764 1443.2625,-51.3101"/>
</g>
<!-- Node25&#45;&gt;Node24 -->
<g id="edge41" class="edge">
<title>Node25&#45;&gt;Node24</title>
<path fill="none" stroke="#191970" d="M1495.9288,-61.9652C1508.1229,-59.9268 1520.9916,-57.8362 1533,-56 1649.1881,-38.2342 1678.5672,-36.0848 1795,-20 1798.0003,-19.5855 1801.0709,-19.1609 1804.1721,-18.7316"/>
<polygon fill="#191970" stroke="#191970" points="1495.1575,-58.5458 1485.878,-63.6585 1496.3205,-65.4485 1495.1575,-58.5458"/>
</g>
<!-- Node25&#45;&gt;Node26 -->
<g id="edge35" class="edge">
<title>Node25&#45;&gt;Node26</title>
<path fill="none" stroke="#191970" d="M1495.868,-61.5332C1508.0656,-59.5195 1520.9511,-57.5481 1533,-56 1712.2364,-32.9711 1758.775,-43.1172 1938,-20 1941.1942,-19.588 1944.4799,-19.1291 1947.7882,-18.6408"/>
<polygon fill="#191970" stroke="#191970" points="1495.0968,-58.1138 1485.8172,-63.2264 1496.2597,-65.0165 1495.0968,-58.1138"/>
</g>
</g>
</svg>
