<?xml version="1.0" encoding="UTF-8" standalone="no"?>
<!DOCTYPE svg PUBLIC "-//W3C//DTD SVG 1.1//EN"
 "http://www.w3.org/Graphics/SVG/1.1/DTD/svg11.dtd">
<!-- Generated by graphviz version 2.40.1 (20161225.0304)
 -->
<!-- Title: fplll/gso_gram.h Pages: 1 -->
<svg width="2039pt" height="207pt"
 viewBox="0.00 0.00 2039.00 207.00" xmlns="http://www.w3.org/2000/svg" xmlns:xlink="http://www.w3.org/1999/xlink">
<g id="graph0" class="graph" transform="scale(1 1) rotate(0) translate(4 203)">
<title>fplll/gso_gram.h</title>
<polygon fill="#ffffff" stroke="transparent" points="-4,4 -4,-203 2035,-203 2035,4 -4,4"/>
<!-- Node0 -->
<g id="node1" class="node">
<title>Node0</title>
<polygon fill="#bfbfbf" stroke="#000000" points="1753,-179.5 1753,-198.5 1839,-198.5 1839,-179.5 1753,-179.5"/>
<text text-anchor="middle" x="1796" y="-186.5" font-family="Helvetica,sans-Serif" font-size="10.00" fill="#000000">fplll/gso_gram.h</text>
</g>
<!-- Node1 -->
<g id="node2" class="node">
<title>Node1</title>
<g id="a_node2"><a xlink:href="fplll_8h.html" target="_top" xlink:title="fplll/fplll.h">
<polygon fill="#ffffff" stroke="#000000" points="1011,-123.5 1011,-142.5 1069,-142.5 1069,-123.5 1011,-123.5"/>
<text text-anchor="middle" x="1040" y="-130.5" font-family="Helvetica,sans-Serif" font-size="10.00" fill="#000000">fplll/fplll.h</text>
</a>
</g>
</g>
<!-- Node0&#45;&gt;Node1 -->
<g id="edge1" class="edge">
<title>Node0&#45;&gt;Node1</title>
<path fill="none" stroke="#191970" d="M1742.7348,-185.0544C1594.9128,-174.1046 1182.9964,-143.5923 1069.3611,-135.1749"/>
<polygon fill="#191970" stroke="#191970" points="1742.6826,-188.5601 1752.9138,-185.8084 1743.1997,-181.5792 1742.6826,-188.5601"/>
</g>
<!-- Node13 -->
<g id="node14" class="node">
<title>Node13</title>
<g id="a_node14"><a xlink:href="test__bkz__gram_8cpp.html" target="_top" xlink:title="tests/test_bkz_gram.cpp">
<polygon fill="#ffffff" stroke="#000000" points="1419.5,-.5 1419.5,-19.5 1544.5,-19.5 1544.5,-.5 1419.5,-.5"/>
<text text-anchor="middle" x="1482" y="-7.5" font-family="Helvetica,sans-Serif" font-size="10.00" fill="#000000">tests/test_bkz_gram.cpp</text>
</a>
</g>
</g>
<!-- Node0&#45;&gt;Node13 -->
<g id="edge41" class="edge">
<title>Node0&#45;&gt;Node13</title>
<path fill="none" stroke="#191970" d="M1773.5783,-173.6309C1735.3785,-147.7613 1654.8282,-94.5687 1583,-56 1557.0278,-42.054 1526.024,-28.347 1505.28,-19.5746"/>
<polygon fill="#191970" stroke="#191970" points="1771.6852,-176.576 1781.9227,-179.3042 1775.621,-170.7873 1771.6852,-176.576"/>
</g>
<!-- Node19 -->
<g id="node20" class="node">
<title>Node19</title>
<g id="a_node20"><a xlink:href="test__lll__gram_8cpp.html" target="_top" xlink:title="tests/test_lll_gram.cpp">
<polygon fill="#ffffff" stroke="#000000" points="1563,-.5 1563,-19.5 1679,-19.5 1679,-.5 1563,-.5"/>
<text text-anchor="middle" x="1621" y="-7.5" font-family="Helvetica,sans-Serif" font-size="10.00" fill="#000000">tests/test_lll_gram.cpp</text>
</a>
</g>
</g>
<!-- Node0&#45;&gt;Node19 -->
<g id="edge43" class="edge">
<title>Node0&#45;&gt;Node19</title>
<path fill="none" stroke="#191970" d="M1781.0345,-171.4469C1758.6031,-145.429 1714.5566,-95.4571 1674,-56 1660.3769,-42.7462 1643.676,-28.5639 1632.7072,-19.5064"/>
<polygon fill="#191970" stroke="#191970" points="1778.6079,-173.9936 1787.7768,-179.3023 1783.9196,-169.4345 1778.6079,-173.9936"/>
</g>
<!-- Node23 -->
<g id="node24" class="node">
<title>Node23</title>
<g id="a_node24"><a xlink:href="test__svp__gram_8cpp.html" target="_top" xlink:title="tests/test_svp_gram.cpp">
<polygon fill="#ffffff" stroke="#000000" points="1697.5,-.5 1697.5,-19.5 1822.5,-19.5 1822.5,-.5 1697.5,-.5"/>
<text text-anchor="middle" x="1760" y="-7.5" font-family="Helvetica,sans-Serif" font-size="10.00" fill="#000000">tests/test_svp_gram.cpp</text>
</a>
</g>
</g>
<!-- Node0&#45;&gt;Node23 -->
<g id="edge44" class="edge">
<title>Node0&#45;&gt;Node23</title>
<path fill="none" stroke="#191970" d="M1810.1495,-171.1027C1829.2503,-144.6022 1858.5478,-93.9728 1837,-56 1826.9324,-38.2583 1807.0054,-26.6287 1789.9458,-19.5017"/>
<polygon fill="#191970" stroke="#191970" points="1807.1192,-169.3097 1803.9186,-179.4096 1812.719,-173.51 1807.1192,-169.3097"/>
</g>
<!-- Node25 -->
<g id="node26" class="node">
<title>Node25</title>
<g id="a_node26"><a xlink:href="test__gso_8cpp.html" target="_top" xlink:title="tests/test_gso.cpp">
<polygon fill="#ffffff" stroke="#000000" points="1841,-.5 1841,-19.5 1939,-19.5 1939,-.5 1841,-.5"/>
<text text-anchor="middle" x="1890" y="-7.5" font-family="Helvetica,sans-Serif" font-size="10.00" fill="#000000">tests/test_gso.cpp</text>
</a>
</g>
</g>
<!-- Node0&#45;&gt;Node25 -->
<g id="edge42" class="edge">
<title>Node0&#45;&gt;Node25</title>
<path fill="none" stroke="#191970" d="M1818.4254,-173.1125C1828.3761,-165.0738 1839.5046,-154.5712 1847,-143 1873.6503,-101.8579 1885.0157,-42.8348 1888.6247,-19.765"/>
<polygon fill="#191970" stroke="#191970" points="1816.2368,-170.3804 1810.4494,-179.255 1820.5078,-175.9264 1816.2368,-170.3804"/>
</g>
<!-- Node26 -->
<g id="node27" class="node">
<title>Node26</title>
<g id="a_node27"><a xlink:href="gso__gram_8cpp.html" target="_top" xlink:title="fplll/gso_gram.cpp">
<polygon fill="#ffffff" stroke="#000000" points="1922,-123.5 1922,-142.5 2018,-142.5 2018,-123.5 1922,-123.5"/>
<text text-anchor="middle" x="1970" y="-130.5" font-family="Helvetica,sans-Serif" font-size="10.00" fill="#000000">fplll/gso_gram.cpp</text>
</a>
</g>
</g>
<!-- Node0&#45;&gt;Node26 -->
<g id="edge40" class="edge">
<title>Node0&#45;&gt;Node26</title>
<path fill="none" stroke="#191970" d="M1835.801,-176.1905C1867.679,-165.9309 1911.6816,-151.7691 1940.4787,-142.5011"/>
<polygon fill="#191970" stroke="#191970" points="1834.3585,-172.9779 1825.9117,-179.3733 1836.5031,-179.6413 1834.3585,-172.9779"/>
</g>
<!-- Node2 -->
<g id="node3" class="node">
<title>Node2</title>
<g id="a_node3"><a xlink:href="fplll_8cpp.html" target="_top" xlink:title="fplll/fplll.cpp">
<polygon fill="#ffffff" stroke="#000000" points="1488,-62 1488,-81 1556,-81 1556,-62 1488,-62"/>
<text text-anchor="middle" x="1522" y="-69" font-family="Helvetica,sans-Serif" font-size="10.00" fill="#000000">fplll/fplll.cpp</text>
</a>
</g>
</g>
<!-- Node1&#45;&gt;Node2 -->
<g id="edge2" class="edge">
<title>Node1&#45;&gt;Node2</title>
<path fill="none" stroke="#191970" d="M1079.3082,-131.946C1156.5923,-129.2015 1333.3861,-119.5919 1478,-87 1484.6367,-85.5043 1491.6554,-83.3213 1498.0908,-81.0631"/>
<polygon fill="#191970" stroke="#191970" points="1078.9542,-128.4559 1069.0773,-132.2894 1079.1891,-135.4519 1078.9542,-128.4559"/>
</g>
<!-- Node3 -->
<g id="node4" class="node">
<title>Node3</title>
<g id="a_node4"><a xlink:href="main_8h.html" target="_top" xlink:title="fplll/main.h">
<polygon fill="#ffffff" stroke="#000000" points="1764,-62 1764,-81 1828,-81 1828,-62 1764,-62"/>
<text text-anchor="middle" x="1796" y="-69" font-family="Helvetica,sans-Serif" font-size="10.00" fill="#000000">fplll/main.h</text>
</a>
</g>
</g>
<!-- Node1&#45;&gt;Node3 -->
<g id="edge3" class="edge">
<title>Node1&#45;&gt;Node3</title>
<path fill="none" stroke="#191970" d="M1079.2827,-131.8776C1183.0281,-128.5748 1472.7995,-117.156 1712,-87 1729.2143,-84.8298 1748.2394,-81.4057 1763.8244,-78.3271"/>
<polygon fill="#191970" stroke="#191970" points="1079.1478,-128.38 1069.2616,-132.1896 1079.3657,-135.3766 1079.1478,-128.38"/>
</g>
<!-- Node5 -->
<g id="node6" class="node">
<title>Node5</title>
<g id="a_node6"><a xlink:href="pruner_8cpp.html" target="_top" xlink:title="fplll/pruner/pruner.cpp">
<polygon fill="#ffffff" stroke="#000000" points="249,-.5 249,-19.5 359,-19.5 359,-.5 249,-.5"/>
<text text-anchor="middle" x="304" y="-7.5" font-family="Helvetica,sans-Serif" font-size="10.00" fill="#000000">fplll/pruner/pruner.cpp</text>
</a>
</g>
</g>
<!-- Node1&#45;&gt;Node5 -->
<g id="edge5" class="edge">
<title>Node1&#45;&gt;Node5</title>
<path fill="none" stroke="#191970" d="M1000.4698,-132.1908C843.9732,-128.7981 275.0409,-114.5993 249,-87 228.2556,-65.0142 265.7443,-34.8546 288.4727,-19.629"/>
<polygon fill="#191970" stroke="#191970" points="1000.5197,-135.6926 1010.5924,-132.4076 1000.6697,-128.6942 1000.5197,-135.6926"/>
</g>
<!-- Node6 -->
<g id="node7" class="node">
<title>Node6</title>
<g id="a_node7"><a xlink:href="pruner__cost_8cpp.html" target="_top" xlink:title="fplll/pruner/pruner\l_cost.cpp">
<polygon fill="#ffffff" stroke="#000000" points="258,-56.5 258,-86.5 350,-86.5 350,-56.5 258,-56.5"/>
<text text-anchor="start" x="266" y="-74.5" font-family="Helvetica,sans-Serif" font-size="10.00" fill="#000000">fplll/pruner/pruner</text>
<text text-anchor="middle" x="304" y="-63.5" font-family="Helvetica,sans-Serif" font-size="10.00" fill="#000000">_cost.cpp</text>
</a>
</g>
</g>
<!-- Node1&#45;&gt;Node6 -->
<g id="edge6" class="edge">
<title>Node1&#45;&gt;Node6</title>
<path fill="none" stroke="#191970" d="M1000.2782,-131.4C874.1412,-126.1489 483.6663,-108.5371 359,-87 356.0673,-86.4933 353.0666,-85.8926 350.0542,-85.2267"/>
<polygon fill="#191970" stroke="#191970" points="1000.4845,-134.9114 1010.6205,-131.8275 1000.7736,-127.9174 1000.4845,-134.9114"/>
</g>
<!-- Node7 -->
<g id="node8" class="node">
<title>Node7</title>
<g id="a_node8"><a xlink:href="pruner__optimize_8cpp.html" target="_top" xlink:title="fplll/pruner/pruner\l_optimize.cpp">
<polygon fill="#ffffff" stroke="#000000" points="478,-56.5 478,-86.5 570,-86.5 570,-56.5 478,-56.5"/>
<text text-anchor="start" x="486" y="-74.5" font-family="Helvetica,sans-Serif" font-size="10.00" fill="#000000">fplll/pruner/pruner</text>
<text text-anchor="middle" x="524" y="-63.5" font-family="Helvetica,sans-Serif" font-size="10.00" fill="#000000">_optimize.cpp</text>
</a>
</g>
</g>
<!-- Node1&#45;&gt;Node7 -->
<g id="edge8" class="edge">
<title>Node1&#45;&gt;Node7</title>
<path fill="none" stroke="#191970" d="M1000.7825,-131.4055C920.8283,-127.6468 733.4806,-116.2412 579,-87 576.0758,-86.4465 573.0816,-85.8098 570.074,-85.1171"/>
<polygon fill="#191970" stroke="#191970" points="1000.7406,-134.9071 1010.8897,-131.8664 1001.0596,-127.9144 1000.7406,-134.9071"/>
</g>
<!-- Node8 -->
<g id="node9" class="node">
<title>Node8</title>
<g id="a_node9"><a xlink:href="pruner__optimize__tc_8cpp.html" target="_top" xlink:title="fplll/pruner/pruner\l_optimize_tc.cpp">
<polygon fill="#ffffff" stroke="#000000" points="588,-56.5 588,-86.5 680,-86.5 680,-56.5 588,-56.5"/>
<text text-anchor="start" x="596" y="-74.5" font-family="Helvetica,sans-Serif" font-size="10.00" fill="#000000">fplll/pruner/pruner</text>
<text text-anchor="middle" x="634" y="-63.5" font-family="Helvetica,sans-Serif" font-size="10.00" fill="#000000">_optimize_tc.cpp</text>
</a>
</g>
</g>
<!-- Node1&#45;&gt;Node8 -->
<g id="edge10" class="edge">
<title>Node1&#45;&gt;Node8</title>
<path fill="none" stroke="#191970" d="M1000.3841,-129.688C935.042,-123.8061 800.7749,-109.9493 689,-87 686.0846,-86.4014 683.0973,-85.7303 680.0948,-85.0118"/>
<polygon fill="#191970" stroke="#191970" points="1000.3705,-133.2004 1010.6403,-130.5964 1000.9881,-126.2277 1000.3705,-133.2004"/>
</g>
<!-- Node9 -->
<g id="node10" class="node">
<title>Node9</title>
<g id="a_node10"><a xlink:href="pruner__optimize__tp_8cpp.html" target="_top" xlink:title="fplll/pruner/pruner\l_optimize_tp.cpp">
<polygon fill="#ffffff" stroke="#000000" points="0,-56.5 0,-86.5 92,-86.5 92,-56.5 0,-56.5"/>
<text text-anchor="start" x="8" y="-74.5" font-family="Helvetica,sans-Serif" font-size="10.00" fill="#000000">fplll/pruner/pruner</text>
<text text-anchor="middle" x="46" y="-63.5" font-family="Helvetica,sans-Serif" font-size="10.00" fill="#000000">_optimize_tp.cpp</text>
</a>
</g>
</g>
<!-- Node1&#45;&gt;Node9 -->
<g id="edge12" class="edge">
<title>Node1&#45;&gt;Node9</title>
<path fill="none" stroke="#191970" d="M1000.4825,-132.2521C845.4168,-129.1335 278.3654,-115.9547 101,-87 98.0627,-86.5205 95.0586,-85.9405 92.0435,-85.2902"/>
<polygon fill="#191970" stroke="#191970" points="1000.8567,-135.7601 1010.9242,-132.4593 1000.9956,-128.7615 1000.8567,-135.7601"/>
</g>
<!-- Node10 -->
<g id="node11" class="node">
<title>Node10</title>
<g id="a_node11"><a xlink:href="pruner__prob_8cpp.html" target="_top" xlink:title="fplll/pruner/pruner\l_prob.cpp">
<polygon fill="#ffffff" stroke="#000000" points="110,-56.5 110,-86.5 202,-86.5 202,-56.5 110,-56.5"/>
<text text-anchor="start" x="118" y="-74.5" font-family="Helvetica,sans-Serif" font-size="10.00" fill="#000000">fplll/pruner/pruner</text>
<text text-anchor="middle" x="156" y="-63.5" font-family="Helvetica,sans-Serif" font-size="10.00" fill="#000000">_prob.cpp</text>
</a>
</g>
</g>
<!-- Node1&#45;&gt;Node10 -->
<g id="edge14" class="edge">
<title>Node1&#45;&gt;Node10</title>
<path fill="none" stroke="#191970" d="M1000.7314,-131.8346C858.445,-127.452 370.1763,-110.9779 216,-87 211.535,-86.3056 206.9202,-85.4218 202.3247,-84.4296"/>
<polygon fill="#191970" stroke="#191970" points="1000.6506,-135.3337 1010.7528,-132.1408 1000.8644,-128.3369 1000.6506,-135.3337"/>
</g>
<!-- Node11 -->
<g id="node12" class="node">
<title>Node11</title>
<g id="a_node12"><a xlink:href="pruner__util_8cpp.html" target="_top" xlink:title="fplll/pruner/pruner\l_util.cpp">
<polygon fill="#ffffff" stroke="#000000" points="368,-56.5 368,-86.5 460,-86.5 460,-56.5 368,-56.5"/>
<text text-anchor="start" x="376" y="-74.5" font-family="Helvetica,sans-Serif" font-size="10.00" fill="#000000">fplll/pruner/pruner</text>
<text text-anchor="middle" x="414" y="-63.5" font-family="Helvetica,sans-Serif" font-size="10.00" fill="#000000">_util.cpp</text>
</a>
</g>
</g>
<!-- Node1&#45;&gt;Node11 -->
<g id="edge16" class="edge">
<title>Node1&#45;&gt;Node11</title>
<path fill="none" stroke="#191970" d="M1000.8473,-132.4583C907.8558,-130.6059 666.7044,-122.474 469,-87 466.0706,-86.4744 463.0725,-85.8591 460.062,-85.1824"/>
<polygon fill="#191970" stroke="#191970" points="1000.8643,-135.9591 1010.9277,-132.6457 1000.9945,-128.9603 1000.8643,-135.9591"/>
</g>
<!-- Node12 -->
<g id="node13" class="node">
<title>Node12</title>
<g id="a_node13"><a xlink:href="test__bkz_8cpp.html" target="_top" xlink:title="tests/test_bkz.cpp">
<polygon fill="#ffffff" stroke="#000000" points="814,-.5 814,-19.5 912,-19.5 912,-.5 814,-.5"/>
<text text-anchor="middle" x="863" y="-7.5" font-family="Helvetica,sans-Serif" font-size="10.00" fill="#000000">tests/test_bkz.cpp</text>
</a>
</g>
</g>
<!-- Node1&#45;&gt;Node12 -->
<g id="edge18" class="edge">
<title>Node1&#45;&gt;Node12</title>
<path fill="none" stroke="#191970" d="M1000.9241,-128.6417C953.0756,-122.4067 876.2448,-109.1757 859,-87 843.7157,-67.3454 852.7529,-35.6036 858.838,-19.7144"/>
<polygon fill="#191970" stroke="#191970" points="1000.5954,-132.1278 1010.9537,-129.902 1001.4681,-125.1825 1000.5954,-132.1278"/>
</g>
<!-- Node1&#45;&gt;Node13 -->
<g id="edge19" class="edge">
<title>Node1&#45;&gt;Node13</title>
<path fill="none" stroke="#191970" d="M1079.2773,-132.5444C1195.6115,-130.791 1532.334,-122.6533 1565,-87 1574.3075,-76.8414 1571.9932,-67.8711 1565,-56 1554.3802,-37.9725 1533.8701,-26.5107 1515.8965,-19.5368"/>
<polygon fill="#191970" stroke="#191970" points="1078.9912,-129.048 1069.0422,-132.6905 1079.0912,-136.0473 1078.9912,-129.048"/>
</g>
<!-- Node14 -->
<g id="node15" class="node">
<title>Node14</title>
<g id="a_node15"><a xlink:href="test__counter_8cpp.html" target="_top" xlink:title="tests/test_counter.cpp">
<polygon fill="#ffffff" stroke="#000000" points="698,-62 698,-81 812,-81 812,-62 698,-62"/>
<text text-anchor="middle" x="755" y="-69" font-family="Helvetica,sans-Serif" font-size="10.00" fill="#000000">tests/test_counter.cpp</text>
</a>
</g>
</g>
<!-- Node1&#45;&gt;Node14 -->
<g id="edge20" class="edge">
<title>Node1&#45;&gt;Node14</title>
<path fill="none" stroke="#191970" d="M1000.896,-124.6338C957.985,-115.4439 887.0734,-100.2304 826,-87 817.1219,-85.0767 807.6215,-83.0092 798.5512,-81.0308"/>
<polygon fill="#191970" stroke="#191970" points="1000.4069,-128.1083 1010.9181,-126.7796 1001.8725,-121.2635 1000.4069,-128.1083"/>
</g>
<!-- Node15 -->
<g id="node16" class="node">
<title>Node15</title>
<g id="a_node16"><a xlink:href="test__cvp_8cpp.html" target="_top" xlink:title="tests/test_cvp.cpp">
<polygon fill="#ffffff" stroke="#000000" points="955,-.5 955,-19.5 1053,-19.5 1053,-.5 955,-.5"/>
<text text-anchor="middle" x="1004" y="-7.5" font-family="Helvetica,sans-Serif" font-size="10.00" fill="#000000">tests/test_cvp.cpp</text>
</a>
</g>
</g>
<!-- Node1&#45;&gt;Node15 -->
<g id="edge21" class="edge">
<title>Node1&#45;&gt;Node15</title>
<path fill="none" stroke="#191970" d="M1034.0588,-113.7427C1031.5409,-105.514 1028.5949,-95.7961 1026,-87 1018.919,-62.9973 1010.9192,-34.6808 1006.7934,-19.9833"/>
<polygon fill="#191970" stroke="#191970" points="1030.7738,-114.9685 1037.0566,-123.4995 1037.4651,-112.9125 1030.7738,-114.9685"/>
</g>
<!-- Node16 -->
<g id="node17" class="node">
<title>Node16</title>
<g id="a_node17"><a xlink:href="test__enum_8cpp.html" target="_top" xlink:title="tests/test_enum.cpp">
<polygon fill="#ffffff" stroke="#000000" points="868,-62 868,-81 974,-81 974,-62 868,-62"/>
<text text-anchor="middle" x="921" y="-69" font-family="Helvetica,sans-Serif" font-size="10.00" fill="#000000">tests/test_enum.cpp</text>
</a>
</g>
</g>
<!-- Node1&#45;&gt;Node16 -->
<g id="edge22" class="edge">
<title>Node1&#45;&gt;Node16</title>
<path fill="none" stroke="#191970" d="M1012.3812,-118.7264C989.9621,-107.1401 958.9737,-91.1251 939.4632,-81.0419"/>
<polygon fill="#191970" stroke="#191970" points="1010.9156,-121.9087 1021.4063,-123.3906 1014.1294,-115.6901 1010.9156,-121.9087"/>
</g>
<!-- Node17 -->
<g id="node18" class="node">
<title>Node17</title>
<g id="a_node18"><a xlink:href="test__hlll_8cpp.html" target="_top" xlink:title="tests/test_hlll.cpp">
<polygon fill="#ffffff" stroke="#000000" points="1073,-.5 1073,-19.5 1167,-19.5 1167,-.5 1073,-.5"/>
<text text-anchor="middle" x="1120" y="-7.5" font-family="Helvetica,sans-Serif" font-size="10.00" fill="#000000">tests/test_hlll.cpp</text>
</a>
</g>
</g>
<!-- Node1&#45;&gt;Node17 -->
<g id="edge23" class="edge">
<title>Node1&#45;&gt;Node17</title>
<path fill="none" stroke="#191970" d="M1042.9342,-113.1244C1046.0867,-96.7071 1052.3076,-73.3638 1064,-56 1074.3304,-40.6588 1091.2617,-27.7686 1103.807,-19.5729"/>
<polygon fill="#191970" stroke="#191970" points="1039.4427,-112.7791 1041.2125,-123.225 1046.3431,-113.9554 1039.4427,-112.7791"/>
</g>
<!-- Node18 -->
<g id="node19" class="node">
<title>Node18</title>
<g id="a_node19"><a xlink:href="test__lll_8cpp.html" target="_top" xlink:title="tests/test_lll.cpp">
<polygon fill="#ffffff" stroke="#000000" points="1192.5,-.5 1192.5,-19.5 1281.5,-19.5 1281.5,-.5 1192.5,-.5"/>
<text text-anchor="middle" x="1237" y="-7.5" font-family="Helvetica,sans-Serif" font-size="10.00" fill="#000000">tests/test_lll.cpp</text>
</a>
</g>
</g>
<!-- Node1&#45;&gt;Node18 -->
<g id="edge24" class="edge">
<title>Node1&#45;&gt;Node18</title>
<path fill="none" stroke="#191970" d="M1049.4538,-114.2717C1059.1558,-96.8368 1075.8103,-71.3044 1097,-56 1125.3101,-35.5528 1163.2329,-23.8326 1192.4687,-17.3461"/>
<polygon fill="#191970" stroke="#191970" points="1046.1708,-112.9907 1044.5631,-123.4629 1052.3504,-116.279 1046.1708,-112.9907"/>
</g>
<!-- Node1&#45;&gt;Node19 -->
<g id="edge25" class="edge">
<title>Node1&#45;&gt;Node19</title>
<path fill="none" stroke="#191970" d="M1079.1765,-131.8864C1196.8433,-128.2389 1541.5995,-115.2286 1583,-87 1606.4017,-71.0437 1615.9985,-36.3577 1619.3914,-19.5333"/>
<polygon fill="#191970" stroke="#191970" points="1079.0466,-128.3887 1069.1577,-132.1913 1079.2595,-135.3854 1079.0466,-128.3887"/>
</g>
<!-- Node20 -->
<g id="node21" class="node">
<title>Node20</title>
<g id="a_node21"><a xlink:href="test__nr_8cpp.html" target="_top" xlink:title="tests/test_nr.cpp">
<polygon fill="#ffffff" stroke="#000000" points="1106,-62 1106,-81 1196,-81 1196,-62 1106,-62"/>
<text text-anchor="middle" x="1151" y="-69" font-family="Helvetica,sans-Serif" font-size="10.00" fill="#000000">tests/test_nr.cpp</text>
</a>
</g>
</g>
<!-- Node1&#45;&gt;Node20 -->
<g id="edge26" class="edge">
<title>Node1&#45;&gt;Node20</title>
<path fill="none" stroke="#191970" d="M1066.3241,-118.415C1087.1893,-106.8546 1115.7416,-91.035 1133.778,-81.0419"/>
<polygon fill="#191970" stroke="#191970" points="1064.3947,-115.4827 1057.3438,-123.3906 1067.7872,-121.6057 1064.3947,-115.4827"/>
</g>
<!-- Node21 -->
<g id="node22" class="node">
<title>Node21</title>
<g id="a_node22"><a xlink:href="test__pruner_8cpp.html" target="_top" xlink:title="tests/test_pruner.cpp">
<polygon fill="#ffffff" stroke="#000000" points="1214.5,-62 1214.5,-81 1323.5,-81 1323.5,-62 1214.5,-62"/>
<text text-anchor="middle" x="1269" y="-69" font-family="Helvetica,sans-Serif" font-size="10.00" fill="#000000">tests/test_pruner.cpp</text>
</a>
</g>
</g>
<!-- Node1&#45;&gt;Node21 -->
<g id="edge27" class="edge">
<title>Node1&#45;&gt;Node21</title>
<path fill="none" stroke="#191970" d="M1078.8868,-122.5566C1122.1895,-110.9273 1191.5862,-92.2902 1233.4779,-81.0398"/>
<polygon fill="#191970" stroke="#191970" points="1077.753,-119.237 1069.003,-125.211 1079.5686,-125.9975 1077.753,-119.237"/>
</g>
<!-- Node22 -->
<g id="node23" class="node">
<title>Node22</title>
<g id="a_node23"><a xlink:href="test__svp_8cpp.html" target="_top" xlink:title="tests/test_svp.cpp">
<polygon fill="#ffffff" stroke="#000000" points="1303,-.5 1303,-19.5 1401,-19.5 1401,-.5 1303,-.5"/>
<text text-anchor="middle" x="1352" y="-7.5" font-family="Helvetica,sans-Serif" font-size="10.00" fill="#000000">tests/test_svp.cpp</text>
</a>
</g>
</g>
<!-- Node1&#45;&gt;Node22 -->
<g id="edge28" class="edge">
<title>Node1&#45;&gt;Node22</title>
<path fill="none" stroke="#191970" d="M1079.6854,-131.9837C1150.737,-129.341 1295.6555,-119.9507 1332,-87 1351.2368,-69.5595 1353.0057,-36.2081 1352.5881,-19.7207"/>
<polygon fill="#191970" stroke="#191970" points="1079.2254,-128.4973 1069.3518,-132.3396 1079.4664,-135.4932 1079.2254,-128.4973"/>
</g>
<!-- Node1&#45;&gt;Node23 -->
<g id="edge29" class="edge">
<title>Node1&#45;&gt;Node23</title>
<path fill="none" stroke="#191970" d="M1079.3107,-131.8294C1191.2167,-128.181 1509.8677,-115.511 1610,-87 1663.4915,-71.7692 1720.2079,-36.7318 1745.8968,-19.6779"/>
<polygon fill="#191970" stroke="#191970" points="1079.0238,-128.3367 1069.1408,-132.1545 1079.2475,-135.3331 1079.0238,-128.3367"/>
</g>
<!-- Node24 -->
<g id="node25" class="node">
<title>Node24</title>
<g id="a_node25"><a xlink:href="test__utils_8h.html" target="_top" xlink:title="tests/test_utils.h">
<polygon fill="#ffffff" stroke="#000000" points="1380.5,-62 1380.5,-81 1469.5,-81 1469.5,-62 1380.5,-62"/>
<text text-anchor="middle" x="1425" y="-69" font-family="Helvetica,sans-Serif" font-size="10.00" fill="#000000">tests/test_utils.h</text>
</a>
</g>
</g>
<!-- Node1&#45;&gt;Node24 -->
<g id="edge30" class="edge">
<title>Node1&#45;&gt;Node24</title>
<path fill="none" stroke="#191970" d="M1079.4751,-128.9357C1141.0412,-122.2592 1263.5019,-107.6219 1366,-87 1374.3061,-85.3289 1383.1826,-83.1885 1391.4618,-81.0354"/>
<polygon fill="#191970" stroke="#191970" points="1078.9869,-125.4679 1069.4171,-130.0142 1079.7333,-132.428 1078.9869,-125.4679"/>
</g>
<!-- Node4 -->
<g id="node5" class="node">
<title>Node4</title>
<g id="a_node5"><a xlink:href="main_8cpp.html" target="_top" xlink:title="fplll/main.cpp">
<polygon fill="#ffffff" stroke="#000000" points="1957,-.5 1957,-19.5 2031,-19.5 2031,-.5 1957,-.5"/>
<text text-anchor="middle" x="1994" y="-7.5" font-family="Helvetica,sans-Serif" font-size="10.00" fill="#000000">fplll/main.cpp</text>
</a>
</g>
</g>
<!-- Node3&#45;&gt;Node4 -->
<g id="edge4" class="edge">
<title>Node3&#45;&gt;Node4</title>
<path fill="none" stroke="#191970" d="M1836.5657,-58.9001C1874.1463,-47.2273 1929.2227,-30.1202 1963.2797,-19.5419"/>
<polygon fill="#191970" stroke="#191970" points="1835.4492,-55.5818 1826.9375,-61.8906 1837.5257,-62.2668 1835.4492,-55.5818"/>
</g>
<!-- Node6&#45;&gt;Node5 -->
<g id="edge7" class="edge">
<title>Node6&#45;&gt;Node5</title>
<path fill="none" stroke="#191970" d="M304,-46.2849C304,-36.9858 304,-26.9883 304,-19.8469"/>
<polygon fill="#191970" stroke="#191970" points="300.5001,-46.2977 304,-56.2977 307.5001,-46.2978 300.5001,-46.2977"/>
</g>
<!-- Node7&#45;&gt;Node5 -->
<g id="edge9" class="edge">
<title>Node7&#45;&gt;Node5</title>
<path fill="none" stroke="#191970" d="M468.0246,-55.7302C417.6648,-41.622 369.8185,-28.2982 338.4543,-19.5751"/>
<polygon fill="#191970" stroke="#191970" points="467.2156,-59.1383 477.7892,-58.4668 469.1047,-52.398 467.2156,-59.1383"/>
</g>
<!-- Node8&#45;&gt;Node5 -->
<g id="edge11" class="edge">
<title>Node8&#45;&gt;Node5</title>
<path fill="none" stroke="#191970" d="M577.9654,-55.9032C496.554,-38.0172 412.7149,-25.033 359.1265,-17.4173"/>
<polygon fill="#191970" stroke="#191970" points="577.3579,-59.3536 587.8794,-58.1087 578.878,-52.5206 577.3579,-59.3536"/>
</g>
<!-- Node9&#45;&gt;Node5 -->
<g id="edge13" class="edge">
<title>Node9&#45;&gt;Node5</title>
<path fill="none" stroke="#191970" d="M102.092,-55.7884C161.4704,-40.8502 219.6174,-27.9674 258.6884,-19.5631"/>
<polygon fill="#191970" stroke="#191970" points="101.0015,-52.454 92.1668,-58.3019 102.72,-59.2398 101.0015,-52.454"/>
</g>
<!-- Node10&#45;&gt;Node5 -->
<g id="edge15" class="edge">
<title>Node10&#45;&gt;Node5</title>
<path fill="none" stroke="#191970" d="M201.6195,-52.5433C227.9501,-41.6018 259.9308,-28.3126 281.0653,-19.5303"/>
<polygon fill="#191970" stroke="#191970" points="200.0963,-49.386 192.2049,-56.4554 202.7824,-55.8501 200.0963,-49.386"/>
</g>
<!-- Node11&#45;&gt;Node5 -->
<g id="edge17" class="edge">
<title>Node11&#45;&gt;Node5</title>
<path fill="none" stroke="#191970" d="M378.2796,-51.5291C359.0716,-40.79 336.2719,-28.0429 321.0461,-19.5303"/>
<polygon fill="#191970" stroke="#191970" points="376.6545,-54.6303 387.091,-56.4554 380.0705,-48.5204 376.6545,-54.6303"/>
</g>
<!-- Node24&#45;&gt;Node12 -->
<g id="edge31" class="edge">
<title>Node24&#45;&gt;Node12</title>
<path fill="none" stroke="#191970" d="M1370.2854,-61.7055C1357.7323,-59.6464 1344.4241,-57.6126 1332,-56 1161.1332,-33.8226 1117.3248,-38.3067 946,-20 935.0319,-18.828 923.2609,-17.4705 912.1304,-16.141"/>
<polygon fill="#191970" stroke="#191970" points="1369.7194,-65.1594 1380.1594,-63.3547 1370.8727,-58.255 1369.7194,-65.1594"/>
</g>
<!-- Node24&#45;&gt;Node13 -->
<g id="edge32" class="edge">
<title>Node24&#45;&gt;Node13</title>
<path fill="none" stroke="#191970" d="M1440.8481,-54.4007C1451.2044,-43.2268 1464.3572,-29.0356 1472.9682,-19.7449"/>
<polygon fill="#191970" stroke="#191970" points="1438.1369,-52.1771 1433.9063,-61.8906 1443.2709,-56.9355 1438.1369,-52.1771"/>
</g>
<!-- Node24&#45;&gt;Node15 -->
<g id="edge33" class="edge">
<title>Node24&#45;&gt;Node15</title>
<path fill="none" stroke="#191970" d="M1370.2334,-62.0762C1357.6829,-59.999 1344.3889,-57.864 1332,-56 1213.1567,-38.119 1182.8433,-37.881 1064,-20 1060.4494,-19.4658 1056.7837,-18.8971 1053.0959,-18.3125"/>
<polygon fill="#191970" stroke="#191970" points="1369.6681,-65.5302 1380.1078,-63.7235 1370.82,-58.6256 1369.6681,-65.5302"/>
</g>
<!-- Node24&#45;&gt;Node17 -->
<g id="edge35" class="edge">
<title>Node24&#45;&gt;Node17</title>
<path fill="none" stroke="#191970" d="M1370.2566,-60.4616C1312.3318,-48.7817 1221.8796,-30.5429 1167.0526,-19.4877"/>
<polygon fill="#191970" stroke="#191970" points="1369.8292,-63.9458 1380.3237,-62.4915 1371.2129,-57.0839 1369.8292,-63.9458"/>
</g>
<!-- Node24&#45;&gt;Node18 -->
<g id="edge36" class="edge">
<title>Node24&#45;&gt;Node18</title>
<path fill="none" stroke="#191970" d="M1386.0267,-58.7507C1350.3558,-47.0818 1298.3681,-30.0752 1266.1687,-19.5419"/>
<polygon fill="#191970" stroke="#191970" points="1385.0324,-62.1079 1395.625,-61.8906 1387.2088,-55.4549 1385.0324,-62.1079"/>
</g>
<!-- Node24&#45;&gt;Node19 -->
<g id="edge37" class="edge">
<title>Node24&#45;&gt;Node19</title>
<path fill="none" stroke="#191970" d="M1465.6318,-58.7507C1502.8206,-47.0818 1557.0205,-30.0752 1590.5901,-19.5419"/>
<polygon fill="#191970" stroke="#191970" points="1464.1185,-55.5573 1455.625,-61.8906 1466.2142,-62.2362 1464.1185,-55.5573"/>
</g>
<!-- Node24&#45;&gt;Node22 -->
<g id="edge38" class="edge">
<title>Node24&#45;&gt;Node22</title>
<path fill="none" stroke="#191970" d="M1405.8529,-55.3692C1392.4261,-44.0576 1374.9163,-29.3062 1363.5671,-19.7449"/>
<polygon fill="#191970" stroke="#191970" points="1403.6909,-58.1243 1413.5938,-61.8906 1408.201,-52.7709 1403.6909,-58.1243"/>
</g>
<!-- Node24&#45;&gt;Node23 -->
<g id="edge39" class="edge">
<title>Node24&#45;&gt;Node23</title>
<path fill="none" stroke="#191970" d="M1465.6554,-59.2805C1470.1393,-58.0971 1474.6536,-56.976 1479,-56 1519.4554,-46.9155 1627.5488,-29.985 1697.2666,-19.3918"/>
<polygon fill="#191970" stroke="#191970" points="1464.6827,-55.9179 1455.9647,-61.9383 1466.5343,-62.6686 1464.6827,-55.9179"/>
</g>
<!-- Node24&#45;&gt;Node25 -->
<g id="edge34" class="edge">
<title>Node24&#45;&gt;Node25</title>
<path fill="none" stroke="#191970" d="M1464.535,-59.2845C1469.3769,-58.046 1474.2805,-56.9112 1479,-56 1633.409,-26.1887 1675.1684,-41.1513 1831,-20 1834.1914,-19.5668 1837.475,-19.0919 1840.7817,-18.5918"/>
<polygon fill="#191970" stroke="#191970" points="1463.4975,-55.9393 1454.7617,-61.934 1465.3291,-62.6954 1463.4975,-55.9393"/>
</g>
</g>
</svg>
