<?xml version="1.0" encoding="UTF-8" standalone="no"?>
<!DOCTYPE svg PUBLIC "-//W3C//DTD SVG 1.1//EN"
 "http://www.w3.org/Graphics/SVG/1.1/DTD/svg11.dtd">
<!-- Generated by graphviz version 2.43.0 (0)
 -->
<!-- Title: fplll/hlll.h Pages: 1 -->
<svg width="1910pt" height="207pt"
 viewBox="0.00 0.00 1910.00 207.00" xmlns="http://www.w3.org/2000/svg" xmlns:xlink="http://www.w3.org/1999/xlink">
<g id="graph0" class="graph" transform="scale(1 1) rotate(0) translate(4 203)">
<title>fplll/hlll.h</title>
<polygon fill="white" stroke="transparent" points="-4,4 -4,-203 1906,-203 1906,4 -4,4"/>
<!-- Node1 -->
<g id="node1" class="node">
<title>Node1</title>
<g id="a_node1"><a xlink:title=" ">
<polygon fill="#bfbfbf" stroke="black" points="1109.5,-179.5 1109.5,-198.5 1164.5,-198.5 1164.5,-179.5 1109.5,-179.5"/>
<text text-anchor="middle" x="1137" y="-186.5" font-family="Helvetica,sans-Serif" font-size="10.00">fplll/hlll.h</text>
</a>
</g>
</g>
<!-- Node2 -->
<g id="node2" class="node">
<title>Node2</title>
<g id="a_node2"><a xlink:href="fplll_8h.html" target="_top" xlink:title=" ">
<polygon fill="white" stroke="black" points="1028,-123.5 1028,-142.5 1086,-142.5 1086,-123.5 1028,-123.5"/>
<text text-anchor="middle" x="1057" y="-130.5" font-family="Helvetica,sans-Serif" font-size="10.00">fplll/fplll.h</text>
</a>
</g>
</g>
<!-- Node1&#45;&gt;Node2 -->
<g id="edge1" class="edge">
<title>Node1&#45;&gt;Node2</title>
<path fill="none" stroke="midnightblue" d="M1115.7,-173.62C1101.08,-163.76 1082.17,-150.99 1069.82,-142.65"/>
<polygon fill="midnightblue" stroke="midnightblue" points="1113.9,-176.63 1124.15,-179.32 1117.82,-170.83 1113.9,-176.63"/>
</g>
<!-- Node29 -->
<g id="node29" class="node">
<title>Node29</title>
<g id="a_node29"><a xlink:href="hlll_8cpp.html" target="_top" xlink:title=" ">
<polygon fill="white" stroke="black" points="1104.5,-123.5 1104.5,-142.5 1169.5,-142.5 1169.5,-123.5 1104.5,-123.5"/>
<text text-anchor="middle" x="1137" y="-130.5" font-family="Helvetica,sans-Serif" font-size="10.00">fplll/hlll.cpp</text>
</a>
</g>
</g>
<!-- Node1&#45;&gt;Node29 -->
<g id="edge43" class="edge">
<title>Node1&#45;&gt;Node29</title>
<path fill="none" stroke="midnightblue" d="M1137,-168.8C1137,-159.91 1137,-149.78 1137,-142.75"/>
<polygon fill="midnightblue" stroke="midnightblue" points="1133.5,-169.08 1137,-179.08 1140.5,-169.08 1133.5,-169.08"/>
</g>
<!-- Node30 -->
<g id="node30" class="node">
<title>Node30</title>
<g id="a_node30"><a xlink:href="wrapper_8cpp.html" target="_top" xlink:title=" ">
<polygon fill="white" stroke="black" points="1187.5,-123.5 1187.5,-142.5 1274.5,-142.5 1274.5,-123.5 1187.5,-123.5"/>
<text text-anchor="middle" x="1231" y="-130.5" font-family="Helvetica,sans-Serif" font-size="10.00">fplll/wrapper.cpp</text>
</a>
</g>
</g>
<!-- Node1&#45;&gt;Node30 -->
<g id="edge44" class="edge">
<title>Node1&#45;&gt;Node30</title>
<path fill="none" stroke="midnightblue" d="M1161.06,-174.18C1178.36,-164.24 1201.15,-151.15 1215.93,-142.65"/>
<polygon fill="midnightblue" stroke="midnightblue" points="1159.03,-171.31 1152.1,-179.32 1162.52,-177.38 1159.03,-171.31"/>
</g>
<!-- Node3 -->
<g id="node3" class="node">
<title>Node3</title>
<g id="a_node3"><a xlink:href="fplll_8cpp.html" target="_top" xlink:title=" ">
<polygon fill="white" stroke="black" points="0,-62 0,-81 68,-81 68,-62 0,-62"/>
<text text-anchor="middle" x="34" y="-69" font-family="Helvetica,sans-Serif" font-size="10.00">fplll/fplll.cpp</text>
</a>
</g>
</g>
<!-- Node2&#45;&gt;Node3 -->
<g id="edge2" class="edge">
<title>Node2&#45;&gt;Node3</title>
<path fill="none" stroke="midnightblue" d="M1017.26,-131.65C857.52,-130.03 261.91,-121.71 77,-87 69.88,-85.66 62.32,-83.41 55.56,-81.08"/>
<polygon fill="midnightblue" stroke="midnightblue" points="1017.54,-135.15 1027.57,-131.75 1017.61,-128.16 1017.54,-135.15"/>
</g>
<!-- Node4 -->
<g id="node4" class="node">
<title>Node4</title>
<g id="a_node4"><a xlink:href="main_8h.html" target="_top" xlink:title=" ">
<polygon fill="white" stroke="black" points="86,-62 86,-81 150,-81 150,-62 86,-62"/>
<text text-anchor="middle" x="118" y="-69" font-family="Helvetica,sans-Serif" font-size="10.00">fplll/main.h</text>
</a>
</g>
</g>
<!-- Node2&#45;&gt;Node4 -->
<g id="edge3" class="edge">
<title>Node2&#45;&gt;Node4</title>
<path fill="none" stroke="midnightblue" d="M1017.65,-131.54C867.02,-129.55 327.06,-120.19 159,-87 152.19,-85.65 144.97,-83.4 138.53,-81.07"/>
<polygon fill="midnightblue" stroke="midnightblue" points="1017.77,-135.04 1027.82,-131.67 1017.86,-128.04 1017.77,-135.04"/>
</g>
<!-- Node6 -->
<g id="node6" class="node">
<title>Node6</title>
<g id="a_node6"><a xlink:href="pruner_8cpp.html" target="_top" xlink:title=" ">
<polygon fill="white" stroke="black" points="483,-0.5 483,-19.5 593,-19.5 593,-0.5 483,-0.5"/>
<text text-anchor="middle" x="538" y="-7.5" font-family="Helvetica,sans-Serif" font-size="10.00">fplll/pruner/pruner.cpp</text>
</a>
</g>
</g>
<!-- Node2&#45;&gt;Node6 -->
<g id="edge5" class="edge">
<title>Node2&#45;&gt;Node6</title>
<path fill="none" stroke="midnightblue" d="M1017.52,-132.88C956.77,-132.81 837.88,-126.95 747,-87 727.05,-78.23 728.42,-65.89 709,-56 672.61,-37.48 627.88,-26.06 593.29,-19.36"/>
<polygon fill="midnightblue" stroke="midnightblue" points="1017.83,-136.38 1027.82,-132.84 1017.8,-129.38 1017.83,-136.38"/>
</g>
<!-- Node7 -->
<g id="node7" class="node">
<title>Node7</title>
<g id="a_node7"><a xlink:href="pruner__cost_8cpp.html" target="_top" xlink:title=" ">
<polygon fill="white" stroke="black" points="756,-56.5 756,-86.5 848,-86.5 848,-56.5 756,-56.5"/>
<text text-anchor="start" x="764" y="-74.5" font-family="Helvetica,sans-Serif" font-size="10.00">fplll/pruner/pruner</text>
<text text-anchor="middle" x="802" y="-63.5" font-family="Helvetica,sans-Serif" font-size="10.00">_cost.cpp</text>
</a>
</g>
</g>
<!-- Node2&#45;&gt;Node7 -->
<g id="edge6" class="edge">
<title>Node2&#45;&gt;Node7</title>
<path fill="none" stroke="midnightblue" d="M1017.8,-123.62C977.41,-114.89 912.66,-100.59 857,-87 854.12,-86.3 851.16,-85.56 848.18,-84.81"/>
<polygon fill="midnightblue" stroke="midnightblue" points="1017.26,-127.09 1027.77,-125.77 1018.74,-120.24 1017.26,-127.09"/>
</g>
<!-- Node8 -->
<g id="node8" class="node">
<title>Node8</title>
<g id="a_node8"><a xlink:href="pruner__optimize_8cpp.html" target="_top" xlink:title=" ">
<polygon fill="white" stroke="black" points="168,-56.5 168,-86.5 260,-86.5 260,-56.5 168,-56.5"/>
<text text-anchor="start" x="176" y="-74.5" font-family="Helvetica,sans-Serif" font-size="10.00">fplll/pruner/pruner</text>
<text text-anchor="middle" x="214" y="-63.5" font-family="Helvetica,sans-Serif" font-size="10.00">_optimize.cpp</text>
</a>
</g>
</g>
<!-- Node2&#45;&gt;Node8 -->
<g id="edge8" class="edge">
<title>Node2&#45;&gt;Node8</title>
<path fill="none" stroke="midnightblue" d="M1017.66,-132.53C902.01,-133.49 553.46,-132.15 269,-87 266.07,-86.54 263.08,-85.98 260.07,-85.36"/>
<polygon fill="midnightblue" stroke="midnightblue" points="1017.83,-136.03 1027.8,-132.43 1017.76,-129.03 1017.83,-136.03"/>
</g>
<!-- Node9 -->
<g id="node9" class="node">
<title>Node9</title>
<g id="a_node9"><a xlink:href="pruner__optimize__tc_8cpp.html" target="_top" xlink:title=" ">
<polygon fill="white" stroke="black" points="278,-56.5 278,-86.5 370,-86.5 370,-56.5 278,-56.5"/>
<text text-anchor="start" x="286" y="-74.5" font-family="Helvetica,sans-Serif" font-size="10.00">fplll/pruner/pruner</text>
<text text-anchor="middle" x="324" y="-63.5" font-family="Helvetica,sans-Serif" font-size="10.00">_optimize_tc.cpp</text>
</a>
</g>
</g>
<!-- Node2&#45;&gt;Node9 -->
<g id="edge10" class="edge">
<title>Node2&#45;&gt;Node9</title>
<path fill="none" stroke="midnightblue" d="M1017.59,-132.01C912.87,-131.47 619.31,-126.28 379,-87 376.08,-86.52 373.08,-85.96 370.08,-85.33"/>
<polygon fill="midnightblue" stroke="midnightblue" points="1017.68,-135.51 1027.7,-132.05 1017.71,-128.51 1017.68,-135.51"/>
</g>
<!-- Node10 -->
<g id="node10" class="node">
<title>Node10</title>
<g id="a_node10"><a xlink:href="pruner__optimize__tp_8cpp.html" target="_top" xlink:title=" ">
<polygon fill="white" stroke="black" points="388,-56.5 388,-86.5 480,-86.5 480,-56.5 388,-56.5"/>
<text text-anchor="start" x="396" y="-74.5" font-family="Helvetica,sans-Serif" font-size="10.00">fplll/pruner/pruner</text>
<text text-anchor="middle" x="434" y="-63.5" font-family="Helvetica,sans-Serif" font-size="10.00">_optimize_tp.cpp</text>
</a>
</g>
</g>
<!-- Node2&#45;&gt;Node10 -->
<g id="edge12" class="edge">
<title>Node2&#45;&gt;Node10</title>
<path fill="none" stroke="midnightblue" d="M1017.76,-131.3C925.1,-129.12 685.72,-120.45 489,-87 486.08,-86.5 483.09,-85.92 480.08,-85.29"/>
<polygon fill="midnightblue" stroke="midnightblue" points="1017.73,-134.8 1027.81,-131.52 1017.89,-127.8 1017.73,-134.8"/>
</g>
<!-- Node11 -->
<g id="node11" class="node">
<title>Node11</title>
<g id="a_node11"><a xlink:href="pruner__prob_8cpp.html" target="_top" xlink:title=" ">
<polygon fill="white" stroke="black" points="498,-56.5 498,-86.5 590,-86.5 590,-56.5 498,-56.5"/>
<text text-anchor="start" x="506" y="-74.5" font-family="Helvetica,sans-Serif" font-size="10.00">fplll/pruner/pruner</text>
<text text-anchor="middle" x="544" y="-63.5" font-family="Helvetica,sans-Serif" font-size="10.00">_prob.cpp</text>
</a>
</g>
</g>
<!-- Node2&#45;&gt;Node11 -->
<g id="edge14" class="edge">
<title>Node2&#45;&gt;Node11</title>
<path fill="none" stroke="midnightblue" d="M1017.79,-130.26C938.26,-126.27 752.53,-114.6 599,-87 596.08,-86.48 593.1,-85.88 590.09,-85.22"/>
<polygon fill="midnightblue" stroke="midnightblue" points="1017.68,-133.76 1027.84,-130.75 1018.03,-126.77 1017.68,-133.76"/>
</g>
<!-- Node12 -->
<g id="node12" class="node">
<title>Node12</title>
<g id="a_node12"><a xlink:href="pruner__util_8cpp.html" target="_top" xlink:title=" ">
<polygon fill="white" stroke="black" points="608,-56.5 608,-86.5 700,-86.5 700,-56.5 608,-56.5"/>
<text text-anchor="start" x="616" y="-74.5" font-family="Helvetica,sans-Serif" font-size="10.00">fplll/pruner/pruner</text>
<text text-anchor="middle" x="654" y="-63.5" font-family="Helvetica,sans-Serif" font-size="10.00">_util.cpp</text>
</a>
</g>
</g>
<!-- Node2&#45;&gt;Node12 -->
<g id="edge16" class="edge">
<title>Node2&#45;&gt;Node12</title>
<path fill="none" stroke="midnightblue" d="M1017.89,-128.24C953.99,-121.79 823.35,-107.33 714,-87 709.47,-86.16 704.77,-85.19 700.08,-84.16"/>
<polygon fill="midnightblue" stroke="midnightblue" points="1017.63,-131.73 1027.93,-129.24 1018.32,-124.77 1017.63,-131.73"/>
</g>
<!-- Node13 -->
<g id="node13" class="node">
<title>Node13</title>
<g id="a_node13"><a xlink:href="test__babai_8cpp.html" target="_top" xlink:title=" ">
<polygon fill="white" stroke="black" points="866.5,-62 866.5,-81 971.5,-81 971.5,-62 866.5,-62"/>
<text text-anchor="middle" x="919" y="-69" font-family="Helvetica,sans-Serif" font-size="10.00">tests/test_babai.cpp</text>
</a>
</g>
</g>
<!-- Node2&#45;&gt;Node13 -->
<g id="edge18" class="edge">
<title>Node2&#45;&gt;Node13</title>
<path fill="none" stroke="midnightblue" d="M1027.96,-119.48C1001.16,-107.92 962.08,-91.08 938.74,-81.01"/>
<polygon fill="midnightblue" stroke="midnightblue" points="1026.66,-122.73 1037.23,-123.48 1029.43,-116.3 1026.66,-122.73"/>
</g>
<!-- Node14 -->
<g id="node14" class="node">
<title>Node14</title>
<g id="a_node14"><a xlink:href="test__bkz_8cpp.html" target="_top" xlink:title=" ">
<polygon fill="white" stroke="black" points="611,-0.5 611,-19.5 709,-19.5 709,-0.5 611,-0.5"/>
<text text-anchor="middle" x="660" y="-7.5" font-family="Helvetica,sans-Serif" font-size="10.00">tests/test_bkz.cpp</text>
</a>
</g>
</g>
<!-- Node2&#45;&gt;Node14 -->
<g id="edge19" class="edge">
<title>Node2&#45;&gt;Node14</title>
<path fill="none" stroke="midnightblue" d="M1041.78,-115.93C1021.54,-94.73 987.47,-59.68 980,-56 874.56,-4.06 834.3,-37.01 718,-20 715.08,-19.57 712.07,-19.13 709.04,-18.67"/>
<polygon fill="midnightblue" stroke="midnightblue" points="1039.34,-118.44 1048.77,-123.28 1044.41,-113.62 1039.34,-118.44"/>
</g>
<!-- Node15 -->
<g id="node15" class="node">
<title>Node15</title>
<g id="a_node15"><a xlink:href="test__bkz__gram_8cpp.html" target="_top" xlink:title=" ">
<polygon fill="white" stroke="black" points="727.5,-0.5 727.5,-19.5 852.5,-19.5 852.5,-0.5 727.5,-0.5"/>
<text text-anchor="middle" x="790" y="-7.5" font-family="Helvetica,sans-Serif" font-size="10.00">tests/test_bkz_gram.cpp</text>
</a>
</g>
</g>
<!-- Node2&#45;&gt;Node15 -->
<g id="edge20" class="edge">
<title>Node2&#45;&gt;Node15</title>
<path fill="none" stroke="midnightblue" d="M1051.56,-113.63C1045.38,-96.04 1033.52,-70.14 1014,-56 1000.37,-46.12 906.33,-29.56 844.5,-19.52"/>
<polygon fill="midnightblue" stroke="midnightblue" points="1048.29,-114.89 1054.7,-123.33 1054.95,-112.74 1048.29,-114.89"/>
</g>
<!-- Node16 -->
<g id="node16" class="node">
<title>Node16</title>
<g id="a_node16"><a xlink:href="test__ceil_8cpp.html" target="_top" xlink:title=" ">
<polygon fill="white" stroke="black" points="1440.5,-62 1440.5,-81 1537.5,-81 1537.5,-62 1440.5,-62"/>
<text text-anchor="middle" x="1489" y="-69" font-family="Helvetica,sans-Serif" font-size="10.00">tests/test_ceil.cpp</text>
</a>
</g>
</g>
<!-- Node2&#45;&gt;Node16 -->
<g id="edge21" class="edge">
<title>Node2&#45;&gt;Node16</title>
<path fill="none" stroke="midnightblue" d="M1096.62,-122.92C1242.65,-98.5 1283.36,-111.08 1426,-87 1435.52,-85.39 1445.75,-83.23 1455.14,-81.06"/>
<polygon fill="midnightblue" stroke="midnightblue" points="1095.65,-119.53 1086.38,-124.66 1096.83,-126.43 1095.65,-119.53"/>
</g>
<!-- Node17 -->
<g id="node17" class="node">
<title>Node17</title>
<g id="a_node17"><a xlink:href="test__counter_8cpp.html" target="_top" xlink:title=" ">
<polygon fill="white" stroke="black" points="1555.5,-62 1555.5,-81 1668.5,-81 1668.5,-62 1555.5,-62"/>
<text text-anchor="middle" x="1612" y="-69" font-family="Helvetica,sans-Serif" font-size="10.00">tests/test_counter.cpp</text>
</a>
</g>
</g>
<!-- Node2&#45;&gt;Node17 -->
<g id="edge22" class="edge">
<title>Node2&#45;&gt;Node17</title>
<path fill="none" stroke="midnightblue" d="M1096.29,-123.03C1295.84,-92.49 1350.93,-116.53 1547,-87 1557.18,-85.47 1568.13,-83.25 1578.1,-81"/>
<polygon fill="midnightblue" stroke="midnightblue" points="1095.71,-119.58 1086.37,-124.57 1096.79,-126.49 1095.71,-119.58"/>
</g>
<!-- Node18 -->
<g id="node18" class="node">
<title>Node18</title>
<g id="a_node18"><a xlink:href="test__cvp_8cpp.html" target="_top" xlink:title=" ">
<polygon fill="white" stroke="black" points="871,-0.5 871,-19.5 969,-19.5 969,-0.5 871,-0.5"/>
<text text-anchor="middle" x="920" y="-7.5" font-family="Helvetica,sans-Serif" font-size="10.00">tests/test_cvp.cpp</text>
</a>
</g>
</g>
<!-- Node2&#45;&gt;Node18 -->
<g id="edge23" class="edge">
<title>Node2&#45;&gt;Node18</title>
<path fill="none" stroke="midnightblue" d="M1061.13,-113.24C1063.68,-96.5 1064.42,-72.2 1052,-56 1040.59,-41.11 994.6,-27.75 960.1,-19.53"/>
<polygon fill="midnightblue" stroke="midnightblue" points="1057.63,-112.95 1059.22,-123.43 1064.51,-114.24 1057.63,-112.95"/>
</g>
<!-- Node19 -->
<g id="node19" class="node">
<title>Node19</title>
<g id="a_node19"><a xlink:href="test__enum_8cpp.html" target="_top" xlink:title=" ">
<polygon fill="white" stroke="black" points="987,-0.5 987,-19.5 1093,-19.5 1093,-0.5 987,-0.5"/>
<text text-anchor="middle" x="1040" y="-7.5" font-family="Helvetica,sans-Serif" font-size="10.00">tests/test_enum.cpp</text>
</a>
</g>
</g>
<!-- Node2&#45;&gt;Node19 -->
<g id="edge24" class="edge">
<title>Node2&#45;&gt;Node19</title>
<path fill="none" stroke="midnightblue" d="M1072.71,-115.88C1079.43,-107.88 1086.51,-97.66 1090,-87 1094.29,-73.91 1095.61,-68.59 1090,-56 1082.87,-40 1066.93,-27.3 1054.95,-19.53"/>
<polygon fill="midnightblue" stroke="midnightblue" points="1070.1,-113.56 1066.02,-123.34 1075.3,-118.24 1070.1,-113.56"/>
</g>
<!-- Node20 -->
<g id="node20" class="node">
<title>Node20</title>
<g id="a_node20"><a xlink:href="test__hlll_8cpp.html" target="_top" xlink:title=" ">
<polygon fill="white" stroke="black" points="1111,-0.5 1111,-19.5 1205,-19.5 1205,-0.5 1111,-0.5"/>
<text text-anchor="middle" x="1158" y="-7.5" font-family="Helvetica,sans-Serif" font-size="10.00">tests/test_hlll.cpp</text>
</a>
</g>
</g>
<!-- Node2&#45;&gt;Node20 -->
<g id="edge25" class="edge">
<title>Node2&#45;&gt;Node20</title>
<path fill="none" stroke="midnightblue" d="M1075.59,-116.71C1085.17,-108.4 1096.76,-97.67 1106,-87 1125.47,-64.53 1144.1,-34.59 1152.83,-19.9"/>
<polygon fill="midnightblue" stroke="midnightblue" points="1073.15,-114.19 1067.79,-123.33 1077.68,-119.53 1073.15,-114.19"/>
</g>
<!-- Node21 -->
<g id="node21" class="node">
<title>Node21</title>
<g id="a_node21"><a xlink:href="test__lll_8cpp.html" target="_top" xlink:title=" ">
<polygon fill="white" stroke="black" points="1339.5,-0.5 1339.5,-19.5 1428.5,-19.5 1428.5,-0.5 1339.5,-0.5"/>
<text text-anchor="middle" x="1384" y="-7.5" font-family="Helvetica,sans-Serif" font-size="10.00">tests/test_lll.cpp</text>
</a>
</g>
</g>
<!-- Node2&#45;&gt;Node21 -->
<g id="edge26" class="edge">
<title>Node2&#45;&gt;Node21</title>
<path fill="none" stroke="midnightblue" d="M1096.03,-122.91C1178.06,-106.48 1204.81,-118.65 1278,-87 1280.62,-85.87 1345.1,-39.2 1372.19,-19.57"/>
<polygon fill="midnightblue" stroke="midnightblue" points="1095.09,-119.53 1086.02,-125.01 1096.52,-126.39 1095.09,-119.53"/>
</g>
<!-- Node22 -->
<g id="node22" class="node">
<title>Node22</title>
<g id="a_node22"><a xlink:href="test__lll__gram_8cpp.html" target="_top" xlink:title=" ">
<polygon fill="white" stroke="black" points="1446,-0.5 1446,-19.5 1562,-19.5 1562,-0.5 1446,-0.5"/>
<text text-anchor="middle" x="1504" y="-7.5" font-family="Helvetica,sans-Serif" font-size="10.00">tests/test_lll_gram.cpp</text>
</a>
</g>
</g>
<!-- Node2&#45;&gt;Node22 -->
<g id="edge27" class="edge">
<title>Node2&#45;&gt;Node22</title>
<path fill="none" stroke="midnightblue" d="M1095.91,-122.99C1192.84,-104.86 1223.75,-121.12 1312,-87 1335.69,-77.84 1337,-66.77 1360,-56 1394.98,-39.61 1437.46,-27.17 1467.18,-19.57"/>
<polygon fill="midnightblue" stroke="midnightblue" points="1095.15,-119.57 1086,-124.92 1096.49,-126.44 1095.15,-119.57"/>
</g>
<!-- Node23 -->
<g id="node23" class="node">
<title>Node23</title>
<g id="a_node23"><a xlink:href="test__nr_8cpp.html" target="_top" xlink:title=" ">
<polygon fill="white" stroke="black" points="1686.5,-62 1686.5,-81 1775.5,-81 1775.5,-62 1686.5,-62"/>
<text text-anchor="middle" x="1731" y="-69" font-family="Helvetica,sans-Serif" font-size="10.00">tests/test_nr.cpp</text>
</a>
</g>
</g>
<!-- Node2&#45;&gt;Node23 -->
<g id="edge28" class="edge">
<title>Node2&#45;&gt;Node23</title>
<path fill="none" stroke="midnightblue" d="M1096.38,-123.06C1353.61,-86.06 1425.15,-128.94 1678,-87 1686.56,-85.58 1695.74,-83.34 1704,-81.04"/>
<polygon fill="midnightblue" stroke="midnightblue" points="1095.75,-119.61 1086.36,-124.52 1096.76,-126.54 1095.75,-119.61"/>
</g>
<!-- Node24 -->
<g id="node24" class="node">
<title>Node24</title>
<g id="a_node24"><a xlink:href="test__pruner_8cpp.html" target="_top" xlink:title=" ">
<polygon fill="white" stroke="black" points="1794,-62 1794,-81 1902,-81 1902,-62 1794,-62"/>
<text text-anchor="middle" x="1848" y="-69" font-family="Helvetica,sans-Serif" font-size="10.00">tests/test_pruner.cpp</text>
</a>
</g>
</g>
<!-- Node2&#45;&gt;Node24 -->
<g id="edge29" class="edge">
<title>Node2&#45;&gt;Node24</title>
<path fill="none" stroke="midnightblue" d="M1096.35,-123.07C1400.76,-80.5 1484.15,-129.14 1785,-87 1795.11,-85.58 1806,-83.34 1815.83,-81.04"/>
<polygon fill="midnightblue" stroke="midnightblue" points="1095.77,-119.62 1086.36,-124.49 1096.75,-126.55 1095.77,-119.62"/>
</g>
<!-- Node25 -->
<g id="node25" class="node">
<title>Node25</title>
<g id="a_node25"><a xlink:href="test__svp_8cpp.html" target="_top" xlink:title=" ">
<polygon fill="white" stroke="black" points="1580,-0.5 1580,-19.5 1678,-19.5 1678,-0.5 1580,-0.5"/>
<text text-anchor="middle" x="1629" y="-7.5" font-family="Helvetica,sans-Serif" font-size="10.00">tests/test_svp.cpp</text>
</a>
</g>
</g>
<!-- Node2&#45;&gt;Node25 -->
<g id="edge30" class="edge">
<title>Node2&#45;&gt;Node25</title>
<path fill="none" stroke="midnightblue" d="M1096.48,-122.92C1209.53,-103.16 1245.79,-125.85 1350,-87 1373.8,-78.13 1374.44,-65.49 1398,-56 1414.65,-49.29 1517.31,-30.59 1580.04,-19.52"/>
<polygon fill="midnightblue" stroke="midnightblue" points="1095.61,-119.52 1086.4,-124.75 1096.87,-126.4 1095.61,-119.52"/>
</g>
<!-- Node26 -->
<g id="node26" class="node">
<title>Node26</title>
<g id="a_node26"><a xlink:href="test__svp__gram_8cpp.html" target="_top" xlink:title=" ">
<polygon fill="white" stroke="black" points="1696.5,-0.5 1696.5,-19.5 1821.5,-19.5 1821.5,-0.5 1696.5,-0.5"/>
<text text-anchor="middle" x="1759" y="-7.5" font-family="Helvetica,sans-Serif" font-size="10.00">tests/test_svp_gram.cpp</text>
</a>
</g>
</g>
<!-- Node2&#45;&gt;Node26 -->
<g id="edge31" class="edge">
<title>Node2&#45;&gt;Node26</title>
<path fill="none" stroke="midnightblue" d="M1096.31,-122.98C1226.21,-101.47 1268.57,-133.05 1388,-87 1410.32,-78.39 1409.74,-64.77 1432,-56 1444.15,-51.22 1604.73,-30.44 1696.24,-18.86"/>
<polygon fill="midnightblue" stroke="midnightblue" points="1095.65,-119.55 1086.39,-124.7 1096.84,-126.44 1095.65,-119.55"/>
</g>
<!-- Node27 -->
<g id="node27" class="node">
<title>Node27</title>
<g id="a_node27"><a xlink:href="test__utils_8h.html" target="_top" xlink:title=" ">
<polygon fill="white" stroke="black" points="1180.5,-62 1180.5,-81 1269.5,-81 1269.5,-62 1180.5,-62"/>
<text text-anchor="middle" x="1225" y="-69" font-family="Helvetica,sans-Serif" font-size="10.00">tests/test_utils.h</text>
</a>
</g>
</g>
<!-- Node2&#45;&gt;Node27 -->
<g id="edge32" class="edge">
<title>Node2&#45;&gt;Node27</title>
<path fill="none" stroke="midnightblue" d="M1090.65,-120.08C1123.3,-108.52 1172.05,-91.25 1200.97,-81.01"/>
<polygon fill="midnightblue" stroke="midnightblue" points="1089.33,-116.84 1081.07,-123.48 1091.67,-123.44 1089.33,-116.84"/>
</g>
<!-- Node5 -->
<g id="node5" class="node">
<title>Node5</title>
<g id="a_node5"><a xlink:href="main_8cpp.html" target="_top" xlink:title=" ">
<polygon fill="white" stroke="black" points="81,-0.5 81,-19.5 155,-19.5 155,-0.5 81,-0.5"/>
<text text-anchor="middle" x="118" y="-7.5" font-family="Helvetica,sans-Serif" font-size="10.00">fplll/main.cpp</text>
</a>
</g>
</g>
<!-- Node4&#45;&gt;Node5 -->
<g id="edge4" class="edge">
<title>Node4&#45;&gt;Node5</title>
<path fill="none" stroke="midnightblue" d="M118,-51.82C118,-41 118,-27.9 118,-19.51"/>
<polygon fill="midnightblue" stroke="midnightblue" points="114.5,-51.98 118,-61.98 121.5,-51.98 114.5,-51.98"/>
</g>
<!-- Node7&#45;&gt;Node6 -->
<g id="edge7" class="edge">
<title>Node7&#45;&gt;Node6</title>
<path fill="none" stroke="midnightblue" d="M745.83,-56.89C744.54,-56.59 743.26,-56.29 742,-56 685.11,-42.85 619.09,-28.44 577.92,-19.56"/>
<polygon fill="midnightblue" stroke="midnightblue" points="745.3,-60.36 755.83,-59.24 746.9,-53.55 745.3,-60.36"/>
</g>
<!-- Node8&#45;&gt;Node6 -->
<g id="edge9" class="edge">
<title>Node8&#45;&gt;Node6</title>
<path fill="none" stroke="midnightblue" d="M270.29,-55.84C349.47,-39.1 430.52,-26.36 482.85,-18.71"/>
<polygon fill="midnightblue" stroke="midnightblue" points="269.19,-52.49 260.14,-58.01 270.65,-59.34 269.19,-52.49"/>
</g>
<!-- Node9&#45;&gt;Node6 -->
<g id="edge11" class="edge">
<title>Node9&#45;&gt;Node6</title>
<path fill="none" stroke="midnightblue" d="M379.96,-54.94C420.68,-43.62 474.27,-28.72 507.41,-19.5"/>
<polygon fill="midnightblue" stroke="midnightblue" points="378.87,-51.61 370.17,-57.66 380.74,-58.36 378.87,-51.61"/>
</g>
<!-- Node10&#45;&gt;Node6 -->
<g id="edge13" class="edge">
<title>Node10&#45;&gt;Node6</title>
<path fill="none" stroke="midnightblue" d="M467.45,-51.36C486.1,-40.69 508.4,-27.93 522.87,-19.66"/>
<polygon fill="midnightblue" stroke="midnightblue" points="465.59,-48.4 458.65,-56.4 469.06,-54.47 465.59,-48.4"/>
</g>
<!-- Node11&#45;&gt;Node6 -->
<g id="edge15" class="edge">
<title>Node11&#45;&gt;Node6</title>
<path fill="none" stroke="midnightblue" d="M541.56,-46.29C540.61,-36.86 539.58,-26.65 538.87,-19.66"/>
<polygon fill="midnightblue" stroke="midnightblue" points="538.09,-46.8 542.58,-56.4 545.06,-46.1 538.09,-46.8"/>
</g>
<!-- Node12&#45;&gt;Node6 -->
<g id="edge17" class="edge">
<title>Node12&#45;&gt;Node6</title>
<path fill="none" stroke="midnightblue" d="M617.53,-51.8C596.57,-41.04 571.23,-28.05 554.88,-19.66"/>
<polygon fill="midnightblue" stroke="midnightblue" points="616.01,-54.95 626.51,-56.4 619.21,-48.72 616.01,-54.95"/>
</g>
<!-- Node27&#45;&gt;Node14 -->
<g id="edge33" class="edge">
<title>Node27&#45;&gt;Node14</title>
<path fill="none" stroke="midnightblue" d="M1170.47,-66.05C1077.46,-58.25 882.29,-40.91 718,-20 715.07,-19.63 712.06,-19.22 709.02,-18.8"/>
<polygon fill="midnightblue" stroke="midnightblue" points="1170.23,-69.55 1180.49,-66.89 1170.81,-62.57 1170.23,-69.55"/>
</g>
<!-- Node27&#45;&gt;Node15 -->
<g id="edge34" class="edge">
<title>Node27&#45;&gt;Node15</title>
<path fill="none" stroke="midnightblue" d="M1170.49,-63.04C1089.42,-51.96 937.51,-31.18 852.2,-19.51"/>
<polygon fill="midnightblue" stroke="midnightblue" points="1170.11,-66.52 1180.49,-64.41 1171.06,-59.59 1170.11,-66.52"/>
</g>
<!-- Node27&#45;&gt;Node18 -->
<g id="edge35" class="edge">
<title>Node27&#45;&gt;Node18</title>
<path fill="none" stroke="midnightblue" d="M1171.41,-60.05C1112.32,-48.52 1018.39,-30.19 963.62,-19.51"/>
<polygon fill="midnightblue" stroke="midnightblue" points="1170.82,-63.5 1181.3,-61.98 1172.16,-56.63 1170.82,-63.5"/>
</g>
<!-- Node27&#45;&gt;Node19 -->
<g id="edge36" class="edge">
<title>Node27&#45;&gt;Node19</title>
<path fill="none" stroke="midnightblue" d="M1188.87,-58.88C1152.91,-47.32 1098.58,-29.84 1066.46,-19.51"/>
<polygon fill="midnightblue" stroke="midnightblue" points="1187.9,-62.25 1198.49,-61.98 1190.05,-55.58 1187.9,-62.25"/>
</g>
<!-- Node27&#45;&gt;Node20 -->
<g id="edge38" class="edge">
<title>Node27&#45;&gt;Node20</title>
<path fill="none" stroke="midnightblue" d="M1207.71,-55.15C1194.94,-43.81 1178.02,-28.78 1167.58,-19.51"/>
<polygon fill="midnightblue" stroke="midnightblue" points="1205.6,-57.95 1215.4,-61.98 1210.25,-52.72 1205.6,-57.95"/>
</g>
<!-- Node27&#45;&gt;Node21 -->
<g id="edge39" class="edge">
<title>Node27&#45;&gt;Node21</title>
<path fill="none" stroke="midnightblue" d="M1257.25,-58.43C1288.15,-46.87 1334.01,-29.71 1361.26,-19.51"/>
<polygon fill="midnightblue" stroke="midnightblue" points="1255.92,-55.19 1247.78,-61.98 1258.37,-61.75 1255.92,-55.19"/>
</g>
<!-- Node27&#45;&gt;Node22 -->
<g id="edge40" class="edge">
<title>Node27&#45;&gt;Node22</title>
<path fill="none" stroke="midnightblue" d="M1275.03,-59.83C1329.14,-48.29 1414.31,-30.13 1464.1,-19.51"/>
<polygon fill="midnightblue" stroke="midnightblue" points="1274.02,-56.47 1264.97,-61.98 1275.48,-63.31 1274.02,-56.47"/>
</g>
<!-- Node27&#45;&gt;Node25 -->
<g id="edge41" class="edge">
<title>Node27&#45;&gt;Node25</title>
<path fill="none" stroke="midnightblue" d="M1279.62,-62.68C1347.83,-52.89 1468.08,-35.5 1571,-20 1573.92,-19.56 1576.93,-19.1 1579.96,-18.64"/>
<polygon fill="midnightblue" stroke="midnightblue" points="1278.93,-59.25 1269.53,-64.13 1279.93,-66.17 1278.93,-59.25"/>
</g>
<!-- Node27&#45;&gt;Node26 -->
<g id="edge42" class="edge">
<title>Node27&#45;&gt;Node26</title>
<path fill="none" stroke="midnightblue" d="M1279.74,-64.79C1366.26,-55.71 1539.92,-37.23 1687,-20 1690,-19.65 1693.08,-19.28 1696.18,-18.91"/>
<polygon fill="midnightblue" stroke="midnightblue" points="1279.21,-61.33 1269.62,-65.85 1279.94,-68.29 1279.21,-61.33"/>
</g>
<!-- Node28 -->
<g id="node28" class="node">
<title>Node28</title>
<g id="a_node28"><a xlink:href="test__gso_8cpp.html" target="_top" xlink:title=" ">
<polygon fill="white" stroke="black" points="1223,-0.5 1223,-19.5 1321,-19.5 1321,-0.5 1223,-0.5"/>
<text text-anchor="middle" x="1272" y="-7.5" font-family="Helvetica,sans-Serif" font-size="10.00">tests/test_gso.cpp</text>
</a>
</g>
</g>
<!-- Node27&#45;&gt;Node28 -->
<g id="edge37" class="edge">
<title>Node27&#45;&gt;Node28</title>
<path fill="none" stroke="midnightblue" d="M1238.16,-53.84C1246.98,-42.67 1258.23,-28.43 1265.28,-19.51"/>
<polygon fill="midnightblue" stroke="midnightblue" points="1235.19,-51.96 1231.73,-61.98 1240.68,-56.3 1235.19,-51.96"/>
</g>
</g>
</svg>
