<?xml version="1.0" encoding="UTF-8" standalone="no"?>
<!DOCTYPE svg PUBLIC "-//W3C//DTD SVG 1.1//EN"
 "http://www.w3.org/Graphics/SVG/1.1/DTD/svg11.dtd">
<!-- Generated by graphviz version 2.43.0 (0)
 -->
<!-- Title: fplll/householder.h Pages: 1 -->
<svg width="2094pt" height="263pt"
 viewBox="0.00 0.00 2093.50 263.00" xmlns="http://www.w3.org/2000/svg" xmlns:xlink="http://www.w3.org/1999/xlink">
<g id="graph0" class="graph" transform="scale(1 1) rotate(0) translate(4 259)">
<title>fplll/householder.h</title>
<polygon fill="white" stroke="transparent" points="-4,4 -4,-259 2089.5,-259 2089.5,4 -4,4"/>
<!-- Node1 -->
<g id="node1" class="node">
<title>Node1</title>
<g id="a_node1"><a xlink:title=" ">
<polygon fill="#bfbfbf" stroke="black" points="1904.5,-235.5 1904.5,-254.5 1999.5,-254.5 1999.5,-235.5 1904.5,-235.5"/>
<text text-anchor="middle" x="1952" y="-242.5" font-family="Helvetica,sans-Serif" font-size="10.00">fplll/householder.h</text>
</a>
</g>
</g>
<!-- Node2 -->
<g id="node2" class="node">
<title>Node2</title>
<g id="a_node2"><a xlink:href="hlll_8h.html" target="_top" xlink:title=" ">
<polygon fill="white" stroke="black" points="1084.5,-179.5 1084.5,-198.5 1139.5,-198.5 1139.5,-179.5 1084.5,-179.5"/>
<text text-anchor="middle" x="1112" y="-186.5" font-family="Helvetica,sans-Serif" font-size="10.00">fplll/hlll.h</text>
</a>
</g>
</g>
<!-- Node1&#45;&gt;Node2 -->
<g id="edge1" class="edge">
<title>Node1&#45;&gt;Node2</title>
<path fill="none" stroke="midnightblue" d="M1893.98,-240.27C1728.48,-229.63 1258.43,-199.41 1139.57,-191.77"/>
<polygon fill="midnightblue" stroke="midnightblue" points="1894.23,-243.79 1904.43,-240.94 1894.68,-236.81 1894.23,-243.79"/>
</g>
<!-- Node29 -->
<g id="node29" class="node">
<title>Node29</title>
<g id="a_node29"><a xlink:href="test__gso_8cpp.html" target="_top" xlink:title=" ">
<polygon fill="white" stroke="black" points="1938,-0.5 1938,-19.5 2036,-19.5 2036,-0.5 1938,-0.5"/>
<text text-anchor="middle" x="1987" y="-7.5" font-family="Helvetica,sans-Serif" font-size="10.00">tests/test_gso.cpp</text>
</a>
</g>
</g>
<!-- Node1&#45;&gt;Node29 -->
<g id="edge47" class="edge">
<title>Node1&#45;&gt;Node29</title>
<path fill="none" stroke="midnightblue" d="M1954.8,-225.36C1961.92,-177.95 1980.52,-54.15 1985.66,-19.9"/>
<polygon fill="midnightblue" stroke="midnightblue" points="1951.31,-225.02 1953.29,-235.43 1958.23,-226.06 1951.31,-225.02"/>
</g>
<!-- Node32 -->
<g id="node32" class="node">
<title>Node32</title>
<g id="a_node32"><a xlink:href="householder_8cpp.html" target="_top" xlink:title=" ">
<polygon fill="white" stroke="black" points="1980.5,-179.5 1980.5,-198.5 2085.5,-198.5 2085.5,-179.5 1980.5,-179.5"/>
<text text-anchor="middle" x="2033" y="-186.5" font-family="Helvetica,sans-Serif" font-size="10.00">fplll/householder.cpp</text>
</a>
</g>
</g>
<!-- Node1&#45;&gt;Node32 -->
<g id="edge46" class="edge">
<title>Node1&#45;&gt;Node32</title>
<path fill="none" stroke="midnightblue" d="M1973.57,-229.62C1988.36,-219.76 2007.51,-206.99 2020.02,-198.65"/>
<polygon fill="midnightblue" stroke="midnightblue" points="1971.39,-226.86 1965.01,-235.32 1975.28,-232.69 1971.39,-226.86"/>
</g>
<!-- Node3 -->
<g id="node3" class="node">
<title>Node3</title>
<g id="a_node3"><a xlink:href="fplll_8h.html" target="_top" xlink:title=" ">
<polygon fill="white" stroke="black" points="1128,-123.5 1128,-142.5 1186,-142.5 1186,-123.5 1128,-123.5"/>
<text text-anchor="middle" x="1157" y="-130.5" font-family="Helvetica,sans-Serif" font-size="10.00">fplll/fplll.h</text>
</a>
</g>
</g>
<!-- Node2&#45;&gt;Node3 -->
<g id="edge2" class="edge">
<title>Node2&#45;&gt;Node3</title>
<path fill="none" stroke="midnightblue" d="M1126.05,-171.14C1133.89,-161.74 1143.33,-150.4 1149.71,-142.75"/>
<polygon fill="midnightblue" stroke="midnightblue" points="1123.14,-169.16 1119.43,-179.08 1128.52,-173.64 1123.14,-169.16"/>
</g>
<!-- Node30 -->
<g id="node30" class="node">
<title>Node30</title>
<g id="a_node30"><a xlink:href="hlll_8cpp.html" target="_top" xlink:title=" ">
<polygon fill="white" stroke="black" points="939.5,-123.5 939.5,-142.5 1004.5,-142.5 1004.5,-123.5 939.5,-123.5"/>
<text text-anchor="middle" x="972" y="-130.5" font-family="Helvetica,sans-Serif" font-size="10.00">fplll/hlll.cpp</text>
</a>
</g>
</g>
<!-- Node2&#45;&gt;Node30 -->
<g id="edge44" class="edge">
<title>Node2&#45;&gt;Node30</title>
<path fill="none" stroke="midnightblue" d="M1080.3,-175.77C1054,-165.63 1017.28,-151.47 994.08,-142.52"/>
<polygon fill="midnightblue" stroke="midnightblue" points="1079.23,-179.11 1089.82,-179.44 1081.75,-172.58 1079.23,-179.11"/>
</g>
<!-- Node31 -->
<g id="node31" class="node">
<title>Node31</title>
<g id="a_node31"><a xlink:href="wrapper_8cpp.html" target="_top" xlink:title=" ">
<polygon fill="white" stroke="black" points="1022.5,-123.5 1022.5,-142.5 1109.5,-142.5 1109.5,-123.5 1022.5,-123.5"/>
<text text-anchor="middle" x="1066" y="-130.5" font-family="Helvetica,sans-Serif" font-size="10.00">fplll/wrapper.cpp</text>
</a>
</g>
</g>
<!-- Node2&#45;&gt;Node31 -->
<g id="edge45" class="edge">
<title>Node2&#45;&gt;Node31</title>
<path fill="none" stroke="midnightblue" d="M1097.89,-171.43C1089.82,-161.97 1080.04,-150.48 1073.45,-142.75"/>
<polygon fill="midnightblue" stroke="midnightblue" points="1095.25,-173.74 1104.4,-179.08 1100.58,-169.2 1095.25,-173.74"/>
</g>
<!-- Node4 -->
<g id="node4" class="node">
<title>Node4</title>
<g id="a_node4"><a xlink:href="fplll_8cpp.html" target="_top" xlink:title=" ">
<polygon fill="white" stroke="black" points="1840,-62 1840,-81 1908,-81 1908,-62 1840,-62"/>
<text text-anchor="middle" x="1874" y="-69" font-family="Helvetica,sans-Serif" font-size="10.00">fplll/fplll.cpp</text>
</a>
</g>
</g>
<!-- Node3&#45;&gt;Node4 -->
<g id="edge3" class="edge">
<title>Node3&#45;&gt;Node4</title>
<path fill="none" stroke="midnightblue" d="M1196.34,-132.44C1300.18,-132.94 1589.89,-130.03 1826,-87 1833.71,-85.6 1841.93,-83.39 1849.35,-81.11"/>
<polygon fill="midnightblue" stroke="midnightblue" points="1196.33,-128.94 1186.31,-132.38 1196.28,-135.94 1196.33,-128.94"/>
</g>
<!-- Node5 -->
<g id="node5" class="node">
<title>Node5</title>
<g id="a_node5"><a xlink:href="main_8h.html" target="_top" xlink:title=" ">
<polygon fill="white" stroke="black" points="5,-62 5,-81 69,-81 69,-62 5,-62"/>
<text text-anchor="middle" x="37" y="-69" font-family="Helvetica,sans-Serif" font-size="10.00">fplll/main.h</text>
</a>
</g>
</g>
<!-- Node3&#45;&gt;Node5 -->
<g id="edge4" class="edge">
<title>Node3&#45;&gt;Node5</title>
<path fill="none" stroke="midnightblue" d="M1117.49,-123.28C657.57,-64.33 529.08,-172.47 78,-87 71.18,-85.71 63.96,-83.47 57.52,-81.14"/>
<polygon fill="midnightblue" stroke="midnightblue" points="1117.35,-126.79 1127.72,-124.61 1118.26,-119.85 1117.35,-126.79"/>
</g>
<!-- Node7 -->
<g id="node7" class="node">
<title>Node7</title>
<g id="a_node7"><a xlink:href="pruner_8cpp.html" target="_top" xlink:title=" ">
<polygon fill="white" stroke="black" points="372,-0.5 372,-19.5 482,-19.5 482,-0.5 372,-0.5"/>
<text text-anchor="middle" x="427" y="-7.5" font-family="Helvetica,sans-Serif" font-size="10.00">fplll/pruner/pruner.cpp</text>
</a>
</g>
</g>
<!-- Node3&#45;&gt;Node7 -->
<g id="edge6" class="edge">
<title>Node3&#45;&gt;Node7</title>
<path fill="none" stroke="midnightblue" d="M1117.56,-123.54C1007.59,-113.98 501.71,-132.95 446,-87 425.85,-70.38 425.24,-35.94 426.19,-19.76"/>
<polygon fill="midnightblue" stroke="midnightblue" points="1117.39,-127.04 1127.71,-124.67 1118.16,-120.09 1117.39,-127.04"/>
</g>
<!-- Node8 -->
<g id="node8" class="node">
<title>Node8</title>
<g id="a_node8"><a xlink:href="pruner__cost_8cpp.html" target="_top" xlink:title=" ">
<polygon fill="white" stroke="black" points="455,-56.5 455,-86.5 547,-86.5 547,-56.5 455,-56.5"/>
<text text-anchor="start" x="463" y="-74.5" font-family="Helvetica,sans-Serif" font-size="10.00">fplll/pruner/pruner</text>
<text text-anchor="middle" x="501" y="-63.5" font-family="Helvetica,sans-Serif" font-size="10.00">_cost.cpp</text>
</a>
</g>
</g>
<!-- Node3&#45;&gt;Node8 -->
<g id="edge7" class="edge">
<title>Node3&#45;&gt;Node8</title>
<path fill="none" stroke="midnightblue" d="M1117.63,-123.24C868.55,-87.79 799.8,-126.56 556,-87 553.08,-86.53 550.08,-85.96 547.07,-85.34"/>
<polygon fill="midnightblue" stroke="midnightblue" points="1117.31,-126.73 1127.71,-124.7 1118.32,-119.8 1117.31,-126.73"/>
</g>
<!-- Node9 -->
<g id="node9" class="node">
<title>Node9</title>
<g id="a_node9"><a xlink:href="pruner__optimize_8cpp.html" target="_top" xlink:title=" ">
<polygon fill="white" stroke="black" points="565,-56.5 565,-86.5 657,-86.5 657,-56.5 565,-56.5"/>
<text text-anchor="start" x="573" y="-74.5" font-family="Helvetica,sans-Serif" font-size="10.00">fplll/pruner/pruner</text>
<text text-anchor="middle" x="611" y="-63.5" font-family="Helvetica,sans-Serif" font-size="10.00">_optimize.cpp</text>
</a>
</g>
</g>
<!-- Node3&#45;&gt;Node9 -->
<g id="edge9" class="edge">
<title>Node3&#45;&gt;Node9</title>
<path fill="none" stroke="midnightblue" d="M1117.72,-123.23C917.05,-93.16 861.47,-120.28 666,-87 663.08,-86.5 660.09,-85.92 657.08,-85.29"/>
<polygon fill="midnightblue" stroke="midnightblue" points="1117.29,-126.7 1127.7,-124.75 1118.35,-119.78 1117.29,-126.7"/>
</g>
<!-- Node10 -->
<g id="node10" class="node">
<title>Node10</title>
<g id="a_node10"><a xlink:href="pruner__optimize__tc_8cpp.html" target="_top" xlink:title=" ">
<polygon fill="white" stroke="black" points="675,-56.5 675,-86.5 767,-86.5 767,-56.5 675,-56.5"/>
<text text-anchor="start" x="683" y="-74.5" font-family="Helvetica,sans-Serif" font-size="10.00">fplll/pruner/pruner</text>
<text text-anchor="middle" x="721" y="-63.5" font-family="Helvetica,sans-Serif" font-size="10.00">_optimize_tc.cpp</text>
</a>
</g>
</g>
<!-- Node3&#45;&gt;Node10 -->
<g id="edge11" class="edge">
<title>Node3&#45;&gt;Node10</title>
<path fill="none" stroke="midnightblue" d="M1117.51,-123.15C965.45,-98.47 923.1,-113.97 776,-87 773.09,-86.47 770.1,-85.86 767.1,-85.2"/>
<polygon fill="midnightblue" stroke="midnightblue" points="1117.25,-126.65 1127.69,-124.83 1118.4,-119.75 1117.25,-126.65"/>
</g>
<!-- Node11 -->
<g id="node11" class="node">
<title>Node11</title>
<g id="a_node11"><a xlink:href="pruner__optimize__tp_8cpp.html" target="_top" xlink:title=" ">
<polygon fill="white" stroke="black" points="87,-56.5 87,-86.5 179,-86.5 179,-56.5 87,-56.5"/>
<text text-anchor="start" x="95" y="-74.5" font-family="Helvetica,sans-Serif" font-size="10.00">fplll/pruner/pruner</text>
<text text-anchor="middle" x="133" y="-63.5" font-family="Helvetica,sans-Serif" font-size="10.00">_optimize_tp.cpp</text>
</a>
</g>
</g>
<!-- Node3&#45;&gt;Node11 -->
<g id="edge13" class="edge">
<title>Node3&#45;&gt;Node11</title>
<path fill="none" stroke="midnightblue" d="M1117.64,-123.29C706.19,-69.53 593.81,-147.6 188,-87 185.07,-86.56 182.07,-86.03 179.06,-85.43"/>
<polygon fill="midnightblue" stroke="midnightblue" points="1117.35,-126.78 1127.72,-124.62 1118.27,-119.84 1117.35,-126.78"/>
</g>
<!-- Node12 -->
<g id="node12" class="node">
<title>Node12</title>
<g id="a_node12"><a xlink:href="pruner__prob_8cpp.html" target="_top" xlink:title=" ">
<polygon fill="white" stroke="black" points="197,-56.5 197,-86.5 289,-86.5 289,-56.5 197,-56.5"/>
<text text-anchor="start" x="205" y="-74.5" font-family="Helvetica,sans-Serif" font-size="10.00">fplll/pruner/pruner</text>
<text text-anchor="middle" x="243" y="-63.5" font-family="Helvetica,sans-Serif" font-size="10.00">_prob.cpp</text>
</a>
</g>
</g>
<!-- Node3&#45;&gt;Node12 -->
<g id="edge15" class="edge">
<title>Node3&#45;&gt;Node12</title>
<path fill="none" stroke="midnightblue" d="M1117.73,-123.29C754.75,-75 655.4,-141.32 298,-87 295.07,-86.55 292.07,-86.01 289.06,-85.41"/>
<polygon fill="midnightblue" stroke="midnightblue" points="1117.34,-126.77 1127.72,-124.64 1118.28,-119.83 1117.34,-126.77"/>
</g>
<!-- Node13 -->
<g id="node13" class="node">
<title>Node13</title>
<g id="a_node13"><a xlink:href="pruner__util_8cpp.html" target="_top" xlink:title=" ">
<polygon fill="white" stroke="black" points="307,-56.5 307,-86.5 399,-86.5 399,-56.5 307,-56.5"/>
<text text-anchor="start" x="315" y="-74.5" font-family="Helvetica,sans-Serif" font-size="10.00">fplll/pruner/pruner</text>
<text text-anchor="middle" x="353" y="-63.5" font-family="Helvetica,sans-Serif" font-size="10.00">_util.cpp</text>
</a>
</g>
</g>
<!-- Node3&#45;&gt;Node13 -->
<g id="edge17" class="edge">
<title>Node3&#45;&gt;Node13</title>
<path fill="none" stroke="midnightblue" d="M1117.47,-123.24C805.45,-80.67 720.16,-131.56 413,-87 408.44,-86.34 403.72,-85.49 399.02,-84.54"/>
<polygon fill="midnightblue" stroke="midnightblue" points="1117.33,-126.75 1127.72,-124.66 1118.29,-119.82 1117.33,-126.75"/>
</g>
<!-- Node14 -->
<g id="node14" class="node">
<title>Node14</title>
<g id="a_node14"><a xlink:href="test__babai_8cpp.html" target="_top" xlink:title=" ">
<polygon fill="white" stroke="black" points="785.5,-62 785.5,-81 890.5,-81 890.5,-62 785.5,-62"/>
<text text-anchor="middle" x="838" y="-69" font-family="Helvetica,sans-Serif" font-size="10.00">tests/test_babai.cpp</text>
</a>
</g>
</g>
<!-- Node3&#45;&gt;Node14 -->
<g id="edge19" class="edge">
<title>Node3&#45;&gt;Node14</title>
<path fill="none" stroke="midnightblue" d="M1117.57,-123.03C1022.14,-104.24 996.15,-104.56 905,-87 895.53,-85.18 885.35,-83.06 875.85,-81.01"/>
<polygon fill="midnightblue" stroke="midnightblue" points="1117.16,-126.51 1127.65,-125.03 1118.53,-119.65 1117.16,-126.51"/>
</g>
<!-- Node15 -->
<g id="node15" class="node">
<title>Node15</title>
<g id="a_node15"><a xlink:href="test__bkz_8cpp.html" target="_top" xlink:title=" ">
<polygon fill="white" stroke="black" points="825,-0.5 825,-19.5 923,-19.5 923,-0.5 825,-0.5"/>
<text text-anchor="middle" x="874" y="-7.5" font-family="Helvetica,sans-Serif" font-size="10.00">tests/test_bkz.cpp</text>
</a>
</g>
</g>
<!-- Node3&#45;&gt;Node15 -->
<g id="edge20" class="edge">
<title>Node3&#45;&gt;Node15</title>
<path fill="none" stroke="midnightblue" d="M1117.95,-122.98C1063.35,-110.34 970.43,-88.69 967,-87 931.11,-69.27 896.74,-35.38 881.8,-19.55"/>
<polygon fill="midnightblue" stroke="midnightblue" points="1117.46,-126.46 1128,-125.31 1119.04,-119.64 1117.46,-126.46"/>
</g>
<!-- Node16 -->
<g id="node16" class="node">
<title>Node16</title>
<g id="a_node16"><a xlink:href="test__bkz__gram_8cpp.html" target="_top" xlink:title=" ">
<polygon fill="white" stroke="black" points="941.5,-0.5 941.5,-19.5 1066.5,-19.5 1066.5,-0.5 941.5,-0.5"/>
<text text-anchor="middle" x="1004" y="-7.5" font-family="Helvetica,sans-Serif" font-size="10.00">tests/test_bkz_gram.cpp</text>
</a>
</g>
</g>
<!-- Node3&#45;&gt;Node16 -->
<g id="edge21" class="edge">
<title>Node3&#45;&gt;Node16</title>
<path fill="none" stroke="midnightblue" d="M1117.97,-122.93C1065.44,-110.62 978.23,-89.85 976,-87 959.72,-66.17 982.45,-34.95 995.68,-19.83"/>
<polygon fill="midnightblue" stroke="midnightblue" points="1117.45,-126.4 1127.98,-125.27 1119.04,-119.58 1117.45,-126.4"/>
</g>
<!-- Node17 -->
<g id="node17" class="node">
<title>Node17</title>
<g id="a_node17"><a xlink:href="test__ceil_8cpp.html" target="_top" xlink:title=" ">
<polygon fill="white" stroke="black" points="985.5,-62 985.5,-81 1082.5,-81 1082.5,-62 985.5,-62"/>
<text text-anchor="middle" x="1034" y="-69" font-family="Helvetica,sans-Serif" font-size="10.00">tests/test_ceil.cpp</text>
</a>
</g>
</g>
<!-- Node3&#45;&gt;Node17 -->
<g id="edge22" class="edge">
<title>Node3&#45;&gt;Node17</title>
<path fill="none" stroke="midnightblue" d="M1130.17,-119.02C1106.31,-107.48 1072.13,-90.94 1051.59,-81.01"/>
<polygon fill="midnightblue" stroke="midnightblue" points="1128.85,-122.27 1139.38,-123.48 1131.9,-115.97 1128.85,-122.27"/>
</g>
<!-- Node18 -->
<g id="node18" class="node">
<title>Node18</title>
<g id="a_node18"><a xlink:href="test__counter_8cpp.html" target="_top" xlink:title=" ">
<polygon fill="white" stroke="black" points="1100.5,-62 1100.5,-81 1213.5,-81 1213.5,-62 1100.5,-62"/>
<text text-anchor="middle" x="1157" y="-69" font-family="Helvetica,sans-Serif" font-size="10.00">tests/test_counter.cpp</text>
</a>
</g>
</g>
<!-- Node3&#45;&gt;Node18 -->
<g id="edge23" class="edge">
<title>Node3&#45;&gt;Node18</title>
<path fill="none" stroke="midnightblue" d="M1157,-113.32C1157,-102.5 1157,-89.4 1157,-81.01"/>
<polygon fill="midnightblue" stroke="midnightblue" points="1153.5,-113.48 1157,-123.48 1160.5,-113.48 1153.5,-113.48"/>
</g>
<!-- Node19 -->
<g id="node19" class="node">
<title>Node19</title>
<g id="a_node19"><a xlink:href="test__cvp_8cpp.html" target="_top" xlink:title=" ">
<polygon fill="white" stroke="black" points="1085,-0.5 1085,-19.5 1183,-19.5 1183,-0.5 1085,-0.5"/>
<text text-anchor="middle" x="1134" y="-7.5" font-family="Helvetica,sans-Serif" font-size="10.00">tests/test_cvp.cpp</text>
</a>
</g>
</g>
<!-- Node3&#45;&gt;Node19 -->
<g id="edge24" class="edge">
<title>Node3&#45;&gt;Node19</title>
<path fill="none" stroke="midnightblue" d="M1188.02,-118.67C1200.99,-111.35 1214.72,-100.89 1222,-87 1228.39,-74.8 1229.19,-67.75 1222,-56 1210.63,-37.41 1188.88,-26.19 1169.85,-19.6"/>
<polygon fill="midnightblue" stroke="midnightblue" points="1186.07,-115.73 1178.81,-123.45 1189.3,-121.95 1186.07,-115.73"/>
</g>
<!-- Node20 -->
<g id="node20" class="node">
<title>Node20</title>
<g id="a_node20"><a xlink:href="test__enum_8cpp.html" target="_top" xlink:title=" ">
<polygon fill="white" stroke="black" points="1201,-0.5 1201,-19.5 1307,-19.5 1307,-0.5 1201,-0.5"/>
<text text-anchor="middle" x="1254" y="-7.5" font-family="Helvetica,sans-Serif" font-size="10.00">tests/test_enum.cpp</text>
</a>
</g>
</g>
<!-- Node3&#45;&gt;Node20 -->
<g id="edge25" class="edge">
<title>Node3&#45;&gt;Node20</title>
<path fill="none" stroke="midnightblue" d="M1195.19,-119.35C1211.03,-112.24 1228.2,-101.76 1239,-87 1253.93,-66.6 1255.02,-35.17 1254.55,-19.92"/>
<polygon fill="midnightblue" stroke="midnightblue" points="1193.45,-116.28 1185.56,-123.35 1196.14,-122.75 1193.45,-116.28"/>
</g>
<!-- Node21 -->
<g id="node21" class="node">
<title>Node21</title>
<g id="a_node21"><a xlink:href="test__hlll_8cpp.html" target="_top" xlink:title=" ">
<polygon fill="white" stroke="black" points="1325,-0.5 1325,-19.5 1419,-19.5 1419,-0.5 1325,-0.5"/>
<text text-anchor="middle" x="1372" y="-7.5" font-family="Helvetica,sans-Serif" font-size="10.00">tests/test_hlll.cpp</text>
</a>
</g>
</g>
<!-- Node3&#45;&gt;Node21 -->
<g id="edge26" class="edge">
<title>Node3&#45;&gt;Node21</title>
<path fill="none" stroke="midnightblue" d="M1188.97,-119.81C1209.68,-111.48 1236.99,-99.69 1260,-87 1298.68,-65.66 1340.95,-34.68 1360.68,-19.72"/>
<polygon fill="midnightblue" stroke="midnightblue" points="1187.68,-116.56 1179.67,-123.5 1190.26,-123.07 1187.68,-116.56"/>
</g>
<!-- Node22 -->
<g id="node22" class="node">
<title>Node22</title>
<g id="a_node22"><a xlink:href="test__lll_8cpp.html" target="_top" xlink:title=" ">
<polygon fill="white" stroke="black" points="1437.5,-0.5 1437.5,-19.5 1526.5,-19.5 1526.5,-0.5 1437.5,-0.5"/>
<text text-anchor="middle" x="1482" y="-7.5" font-family="Helvetica,sans-Serif" font-size="10.00">tests/test_lll.cpp</text>
</a>
</g>
</g>
<!-- Node3&#45;&gt;Node22 -->
<g id="edge27" class="edge">
<title>Node3&#45;&gt;Node22</title>
<path fill="none" stroke="midnightblue" d="M1196.42,-130.22C1265.62,-126.4 1405.27,-115.31 1444,-87 1466.86,-70.28 1476.81,-35.89 1480.35,-19.74"/>
<polygon fill="midnightblue" stroke="midnightblue" points="1196.15,-126.73 1186.35,-130.76 1196.52,-133.72 1196.15,-126.73"/>
</g>
<!-- Node23 -->
<g id="node23" class="node">
<title>Node23</title>
<g id="a_node23"><a xlink:href="test__lll__gram_8cpp.html" target="_top" xlink:title=" ">
<polygon fill="white" stroke="black" points="1544,-0.5 1544,-19.5 1660,-19.5 1660,-0.5 1544,-0.5"/>
<text text-anchor="middle" x="1602" y="-7.5" font-family="Helvetica,sans-Serif" font-size="10.00">tests/test_lll_gram.cpp</text>
</a>
</g>
</g>
<!-- Node3&#45;&gt;Node23 -->
<g id="edge28" class="edge">
<title>Node3&#45;&gt;Node23</title>
<path fill="none" stroke="midnightblue" d="M1196.41,-131.85C1318.09,-130.97 1681.8,-125.14 1717,-87 1726.34,-76.87 1724.77,-67.38 1717,-56 1703.95,-36.88 1681.44,-25.88 1659.78,-19.55"/>
<polygon fill="midnightblue" stroke="midnightblue" points="1196.04,-128.35 1186.07,-131.91 1196.09,-135.35 1196.04,-128.35"/>
</g>
<!-- Node24 -->
<g id="node24" class="node">
<title>Node24</title>
<g id="a_node24"><a xlink:href="test__nr_8cpp.html" target="_top" xlink:title=" ">
<polygon fill="white" stroke="black" points="1492.5,-62 1492.5,-81 1581.5,-81 1581.5,-62 1492.5,-62"/>
<text text-anchor="middle" x="1537" y="-69" font-family="Helvetica,sans-Serif" font-size="10.00">tests/test_nr.cpp</text>
</a>
</g>
</g>
<!-- Node3&#45;&gt;Node24 -->
<g id="edge29" class="edge">
<title>Node3&#45;&gt;Node24</title>
<path fill="none" stroke="midnightblue" d="M1196.68,-127.75C1257.52,-120.95 1377.39,-106.36 1478,-87 1486.7,-85.33 1496.04,-83.19 1504.67,-81.07"/>
<polygon fill="midnightblue" stroke="midnightblue" points="1195.93,-124.31 1186.38,-128.89 1196.7,-131.27 1195.93,-124.31"/>
</g>
<!-- Node25 -->
<g id="node25" class="node">
<title>Node25</title>
<g id="a_node25"><a xlink:href="test__pruner_8cpp.html" target="_top" xlink:title=" ">
<polygon fill="white" stroke="black" points="1600,-62 1600,-81 1708,-81 1708,-62 1600,-62"/>
<text text-anchor="middle" x="1654" y="-69" font-family="Helvetica,sans-Serif" font-size="10.00">tests/test_pruner.cpp</text>
</a>
</g>
</g>
<!-- Node3&#45;&gt;Node25 -->
<g id="edge30" class="edge">
<title>Node3&#45;&gt;Node25</title>
<path fill="none" stroke="midnightblue" d="M1196.14,-129.5C1272.33,-124.3 1445.77,-110.75 1590,-87 1599.78,-85.39 1610.3,-83.2 1619.94,-81.01"/>
<polygon fill="midnightblue" stroke="midnightblue" points="1195.78,-126.02 1186.04,-130.18 1196.26,-133 1195.78,-126.02"/>
</g>
<!-- Node26 -->
<g id="node26" class="node">
<title>Node26</title>
<g id="a_node26"><a xlink:href="test__svp_8cpp.html" target="_top" xlink:title=" ">
<polygon fill="white" stroke="black" points="1678,-0.5 1678,-19.5 1776,-19.5 1776,-0.5 1678,-0.5"/>
<text text-anchor="middle" x="1727" y="-7.5" font-family="Helvetica,sans-Serif" font-size="10.00">tests/test_svp.cpp</text>
</a>
</g>
</g>
<!-- Node3&#45;&gt;Node26 -->
<g id="edge31" class="edge">
<title>Node3&#45;&gt;Node26</title>
<path fill="none" stroke="midnightblue" d="M1196.44,-131.95C1320.78,-131.39 1698.51,-126.44 1735,-87 1752.21,-68.4 1739.29,-35.25 1731.61,-19.61"/>
<polygon fill="midnightblue" stroke="midnightblue" points="1196.21,-128.45 1186.23,-131.99 1196.24,-135.45 1196.21,-128.45"/>
</g>
<!-- Node27 -->
<g id="node27" class="node">
<title>Node27</title>
<g id="a_node27"><a xlink:href="test__svp__gram_8cpp.html" target="_top" xlink:title=" ">
<polygon fill="white" stroke="black" points="1794.5,-0.5 1794.5,-19.5 1919.5,-19.5 1919.5,-0.5 1794.5,-0.5"/>
<text text-anchor="middle" x="1857" y="-7.5" font-family="Helvetica,sans-Serif" font-size="10.00">tests/test_svp_gram.cpp</text>
</a>
</g>
</g>
<!-- Node3&#45;&gt;Node27 -->
<g id="edge32" class="edge">
<title>Node3&#45;&gt;Node27</title>
<path fill="none" stroke="midnightblue" d="M1196.47,-131.85C1312.57,-130.98 1651.24,-125.15 1754,-87 1794.42,-72 1832.73,-36.09 1848.91,-19.57"/>
<polygon fill="midnightblue" stroke="midnightblue" points="1196.23,-128.36 1186.26,-131.92 1196.28,-135.36 1196.23,-128.36"/>
</g>
<!-- Node28 -->
<g id="node28" class="node">
<title>Node28</title>
<g id="a_node28"><a xlink:href="test__utils_8h.html" target="_top" xlink:title=" ">
<polygon fill="white" stroke="black" points="1346.5,-62 1346.5,-81 1435.5,-81 1435.5,-62 1346.5,-62"/>
<text text-anchor="middle" x="1391" y="-69" font-family="Helvetica,sans-Serif" font-size="10.00">tests/test_utils.h</text>
</a>
</g>
</g>
<!-- Node3&#45;&gt;Node28 -->
<g id="edge33" class="edge">
<title>Node3&#45;&gt;Node28</title>
<path fill="none" stroke="midnightblue" d="M1195.88,-122.11C1240.96,-110.65 1314.54,-91.94 1357.3,-81.07"/>
<polygon fill="midnightblue" stroke="midnightblue" points="1194.99,-118.73 1186.16,-124.58 1196.72,-125.51 1194.99,-118.73"/>
</g>
<!-- Node6 -->
<g id="node6" class="node">
<title>Node6</title>
<g id="a_node6"><a xlink:href="main_8cpp.html" target="_top" xlink:title=" ">
<polygon fill="white" stroke="black" points="0,-0.5 0,-19.5 74,-19.5 74,-0.5 0,-0.5"/>
<text text-anchor="middle" x="37" y="-7.5" font-family="Helvetica,sans-Serif" font-size="10.00">fplll/main.cpp</text>
</a>
</g>
</g>
<!-- Node5&#45;&gt;Node6 -->
<g id="edge5" class="edge">
<title>Node5&#45;&gt;Node6</title>
<path fill="none" stroke="midnightblue" d="M37,-51.82C37,-41 37,-27.9 37,-19.51"/>
<polygon fill="midnightblue" stroke="midnightblue" points="33.5,-51.98 37,-61.98 40.5,-51.98 33.5,-51.98"/>
</g>
<!-- Node8&#45;&gt;Node7 -->
<g id="edge8" class="edge">
<title>Node8&#45;&gt;Node7</title>
<path fill="none" stroke="midnightblue" d="M475.37,-49.89C462.5,-39.54 447.59,-27.56 437.77,-19.66"/>
<polygon fill="midnightblue" stroke="midnightblue" points="473.48,-52.86 483.46,-56.4 477.86,-47.41 473.48,-52.86"/>
</g>
<!-- Node9&#45;&gt;Node7 -->
<g id="edge10" class="edge">
<title>Node9&#45;&gt;Node7</title>
<path fill="none" stroke="midnightblue" d="M557.56,-53.22C523.4,-42.17 480.59,-28.33 453.51,-19.57"/>
<polygon fill="midnightblue" stroke="midnightblue" points="556.8,-56.65 567.39,-56.4 558.96,-49.99 556.8,-56.65"/>
</g>
<!-- Node10&#45;&gt;Node7 -->
<g id="edge12" class="edge">
<title>Node10&#45;&gt;Node7</title>
<path fill="none" stroke="midnightblue" d="M664.96,-55.85C594.86,-40.25 524.39,-27.5 478.04,-19.52"/>
<polygon fill="midnightblue" stroke="midnightblue" points="664.32,-59.3 674.85,-58.08 665.86,-52.47 664.32,-59.3"/>
</g>
<!-- Node11&#45;&gt;Node7 -->
<g id="edge14" class="edge">
<title>Node11&#45;&gt;Node7</title>
<path fill="none" stroke="midnightblue" d="M189.04,-55.85C259.14,-40.25 329.61,-27.5 375.96,-19.52"/>
<polygon fill="midnightblue" stroke="midnightblue" points="188.14,-52.47 179.15,-58.08 189.68,-59.3 188.14,-52.47"/>
</g>
<!-- Node12&#45;&gt;Node7 -->
<g id="edge16" class="edge">
<title>Node12&#45;&gt;Node7</title>
<path fill="none" stroke="midnightblue" d="M296.44,-53.22C330.6,-42.17 373.41,-28.33 400.49,-19.57"/>
<polygon fill="midnightblue" stroke="midnightblue" points="295.04,-49.99 286.61,-56.4 297.2,-56.65 295.04,-49.99"/>
</g>
<!-- Node13&#45;&gt;Node7 -->
<g id="edge18" class="edge">
<title>Node13&#45;&gt;Node7</title>
<path fill="none" stroke="midnightblue" d="M378.63,-49.89C391.5,-39.54 406.41,-27.56 416.23,-19.66"/>
<polygon fill="midnightblue" stroke="midnightblue" points="376.14,-47.41 370.54,-56.4 380.52,-52.86 376.14,-47.41"/>
</g>
<!-- Node28&#45;&gt;Node15 -->
<g id="edge34" class="edge">
<title>Node28&#45;&gt;Node15</title>
<path fill="none" stroke="midnightblue" d="M1336.22,-65.27C1250.06,-56.86 1077.67,-39.31 932,-20 929.07,-19.61 926.06,-19.2 923.03,-18.76"/>
<polygon fill="midnightblue" stroke="midnightblue" points="1336,-68.76 1346.29,-66.25 1336.67,-61.79 1336,-68.76"/>
</g>
<!-- Node28&#45;&gt;Node16 -->
<g id="edge35" class="edge">
<title>Node28&#45;&gt;Node16</title>
<path fill="none" stroke="midnightblue" d="M1336.26,-62.08C1262.89,-50.8 1133.37,-30.89 1059.57,-19.54"/>
<polygon fill="midnightblue" stroke="midnightblue" points="1335.81,-65.56 1346.23,-63.62 1336.88,-58.64 1335.81,-65.56"/>
</g>
<!-- Node28&#45;&gt;Node19 -->
<g id="edge36" class="edge">
<title>Node28&#45;&gt;Node19</title>
<path fill="none" stroke="midnightblue" d="M1344.29,-59.69C1294.42,-48.14 1216.43,-30.08 1170.75,-19.51"/>
<polygon fill="midnightblue" stroke="midnightblue" points="1343.65,-63.13 1354.18,-61.98 1345.23,-56.31 1343.65,-63.13"/>
</g>
<!-- Node28&#45;&gt;Node20 -->
<g id="edge37" class="edge">
<title>Node28&#45;&gt;Node20</title>
<path fill="none" stroke="midnightblue" d="M1362.17,-57.98C1335.56,-46.42 1296.77,-29.58 1273.59,-19.51"/>
<polygon fill="midnightblue" stroke="midnightblue" points="1360.8,-61.2 1371.37,-61.98 1363.59,-54.78 1360.8,-61.2"/>
</g>
<!-- Node28&#45;&gt;Node21 -->
<g id="edge39" class="edge">
<title>Node28&#45;&gt;Node21</title>
<path fill="none" stroke="midnightblue" d="M1385.14,-52.16C1381.67,-41.27 1377.42,-27.99 1374.72,-19.51"/>
<polygon fill="midnightblue" stroke="midnightblue" points="1381.9,-53.51 1388.28,-61.98 1388.57,-51.38 1381.9,-53.51"/>
</g>
<!-- Node28&#45;&gt;Node22 -->
<g id="edge40" class="edge">
<title>Node28&#45;&gt;Node22</title>
<path fill="none" stroke="midnightblue" d="M1412.52,-56.43C1430.06,-44.96 1454.27,-29.13 1468.99,-19.51"/>
<polygon fill="midnightblue" stroke="midnightblue" points="1410.49,-53.57 1404.04,-61.98 1414.32,-59.43 1410.49,-53.57"/>
</g>
<!-- Node28&#45;&gt;Node23 -->
<g id="edge41" class="edge">
<title>Node28&#45;&gt;Node23</title>
<path fill="none" stroke="midnightblue" d="M1430.9,-59.25C1471.89,-47.69 1534.8,-29.95 1571.82,-19.51"/>
<polygon fill="midnightblue" stroke="midnightblue" points="1429.91,-55.89 1421.23,-61.98 1431.81,-62.63 1429.91,-55.89"/>
</g>
<!-- Node28&#45;&gt;Node26 -->
<g id="edge42" class="edge">
<title>Node28&#45;&gt;Node26</title>
<path fill="none" stroke="midnightblue" d="M1445.63,-60.83C1510.37,-49.36 1617.22,-30.44 1678.93,-19.51"/>
<polygon fill="midnightblue" stroke="midnightblue" points="1444.85,-57.41 1435.62,-62.6 1446.08,-64.3 1444.85,-57.41"/>
</g>
<!-- Node28&#45;&gt;Node27 -->
<g id="edge43" class="edge">
<title>Node28&#45;&gt;Node27</title>
<path fill="none" stroke="midnightblue" d="M1445.92,-61.5C1458.12,-59.59 1470.99,-57.66 1483,-56 1616.9,-37.47 1650.82,-36.38 1785,-20 1788,-19.63 1791.07,-19.26 1794.17,-18.87"/>
<polygon fill="midnightblue" stroke="midnightblue" points="1445.2,-58.07 1435.87,-63.08 1446.29,-64.98 1445.2,-58.07"/>
</g>
<!-- Node28&#45;&gt;Node29 -->
<g id="edge38" class="edge">
<title>Node28&#45;&gt;Node29</title>
<path fill="none" stroke="midnightblue" d="M1445.88,-61.15C1458.08,-59.27 1470.96,-57.43 1483,-56 1680.03,-32.54 1730.91,-42.98 1928,-20 1931.19,-19.63 1934.47,-19.21 1937.78,-18.77"/>
<polygon fill="midnightblue" stroke="midnightblue" points="1445.16,-57.72 1435.83,-62.74 1446.25,-64.64 1445.16,-57.72"/>
</g>
</g>
</svg>
