<?xml version="1.0" encoding="UTF-8" standalone="no"?>
<!DOCTYPE svg PUBLIC "-//W3C//DTD SVG 1.1//EN"
 "http://www.w3.org/Graphics/SVG/1.1/DTD/svg11.dtd">
<!-- Generated by graphviz version 2.43.0 (0)
 -->
<!-- Title: fplll/householder.h Pages: 1 -->
<svg width="1874pt" height="263pt"
 viewBox="0.00 0.00 1873.50 263.00" xmlns="http://www.w3.org/2000/svg" xmlns:xlink="http://www.w3.org/1999/xlink">
<g id="graph0" class="graph" transform="scale(1 1) rotate(0) translate(4 259)">
<title>fplll/householder.h</title>
<polygon fill="white" stroke="transparent" points="-4,4 -4,-259 1869.5,-259 1869.5,4 -4,4"/>
<!-- Node1 -->
<g id="node1" class="node">
<title>Node1</title>
<g id="a_node1"><a xlink:title=" ">
<polygon fill="#bfbfbf" stroke="black" points="1684.5,-235.5 1684.5,-254.5 1779.5,-254.5 1779.5,-235.5 1684.5,-235.5"/>
<text text-anchor="middle" x="1732" y="-242.5" font-family="Helvetica,sans-Serif" font-size="10.00">fplll/householder.h</text>
</a>
</g>
</g>
<!-- Node2 -->
<g id="node2" class="node">
<title>Node2</title>
<g id="a_node2"><a xlink:href="hlll_8h.html" target="_top" xlink:title=" ">
<polygon fill="white" stroke="black" points="930.5,-179.5 930.5,-198.5 985.5,-198.5 985.5,-179.5 930.5,-179.5"/>
<text text-anchor="middle" x="958" y="-186.5" font-family="Helvetica,sans-Serif" font-size="10.00">fplll/hlll.h</text>
</a>
</g>
</g>
<!-- Node1&#45;&gt;Node2 -->
<g id="edge1" class="edge">
<title>Node1&#45;&gt;Node2</title>
<path fill="none" stroke="midnightblue" d="M1674.19,-239.97C1519.07,-229.14 1097.77,-199.75 985.7,-191.93"/>
<polygon fill="midnightblue" stroke="midnightblue" points="1674.24,-243.48 1684.46,-240.68 1674.73,-236.5 1674.24,-243.48"/>
</g>
<!-- Node27 -->
<g id="node27" class="node">
<title>Node27</title>
<g id="a_node27"><a xlink:href="test__gso_8cpp.html" target="_top" xlink:title=" ">
<polygon fill="white" stroke="black" points="1721,-0.5 1721,-19.5 1819,-19.5 1819,-0.5 1721,-0.5"/>
<text text-anchor="middle" x="1770" y="-7.5" font-family="Helvetica,sans-Serif" font-size="10.00">tests/test_gso.cpp</text>
</a>
</g>
</g>
<!-- Node1&#45;&gt;Node27 -->
<g id="edge45" class="edge">
<title>Node1&#45;&gt;Node27</title>
<path fill="none" stroke="midnightblue" d="M1735.04,-225.36C1742.77,-177.95 1762.96,-54.15 1768.55,-19.9"/>
<polygon fill="midnightblue" stroke="midnightblue" points="1731.55,-225 1733.4,-235.43 1738.46,-226.12 1731.55,-225"/>
</g>
<!-- Node30 -->
<g id="node30" class="node">
<title>Node30</title>
<g id="a_node30"><a xlink:href="householder_8cpp.html" target="_top" xlink:title=" ">
<polygon fill="white" stroke="black" points="1760.5,-179.5 1760.5,-198.5 1865.5,-198.5 1865.5,-179.5 1760.5,-179.5"/>
<text text-anchor="middle" x="1813" y="-186.5" font-family="Helvetica,sans-Serif" font-size="10.00">fplll/householder.cpp</text>
</a>
</g>
</g>
<!-- Node1&#45;&gt;Node30 -->
<g id="edge44" class="edge">
<title>Node1&#45;&gt;Node30</title>
<path fill="none" stroke="midnightblue" d="M1753.57,-229.62C1768.36,-219.76 1787.51,-206.99 1800.02,-198.65"/>
<polygon fill="midnightblue" stroke="midnightblue" points="1751.39,-226.86 1745.01,-235.32 1755.28,-232.69 1751.39,-226.86"/>
</g>
<!-- Node3 -->
<g id="node3" class="node">
<title>Node3</title>
<g id="a_node3"><a xlink:href="fplll_8h.html" target="_top" xlink:title=" ">
<polygon fill="white" stroke="black" points="974,-123.5 974,-142.5 1032,-142.5 1032,-123.5 974,-123.5"/>
<text text-anchor="middle" x="1003" y="-130.5" font-family="Helvetica,sans-Serif" font-size="10.00">fplll/fplll.h</text>
</a>
</g>
</g>
<!-- Node2&#45;&gt;Node3 -->
<g id="edge2" class="edge">
<title>Node2&#45;&gt;Node3</title>
<path fill="none" stroke="midnightblue" d="M972.05,-171.14C979.89,-161.74 989.33,-150.4 995.71,-142.75"/>
<polygon fill="midnightblue" stroke="midnightblue" points="969.14,-169.16 965.43,-179.08 974.52,-173.64 969.14,-169.16"/>
</g>
<!-- Node28 -->
<g id="node28" class="node">
<title>Node28</title>
<g id="a_node28"><a xlink:href="hlll_8cpp.html" target="_top" xlink:title=" ">
<polygon fill="white" stroke="black" points="785.5,-123.5 785.5,-142.5 850.5,-142.5 850.5,-123.5 785.5,-123.5"/>
<text text-anchor="middle" x="818" y="-130.5" font-family="Helvetica,sans-Serif" font-size="10.00">fplll/hlll.cpp</text>
</a>
</g>
</g>
<!-- Node2&#45;&gt;Node28 -->
<g id="edge42" class="edge">
<title>Node2&#45;&gt;Node28</title>
<path fill="none" stroke="midnightblue" d="M926.3,-175.77C900,-165.63 863.28,-151.47 840.08,-142.52"/>
<polygon fill="midnightblue" stroke="midnightblue" points="925.23,-179.11 935.82,-179.44 927.75,-172.58 925.23,-179.11"/>
</g>
<!-- Node29 -->
<g id="node29" class="node">
<title>Node29</title>
<g id="a_node29"><a xlink:href="wrapper_8cpp.html" target="_top" xlink:title=" ">
<polygon fill="white" stroke="black" points="868.5,-123.5 868.5,-142.5 955.5,-142.5 955.5,-123.5 868.5,-123.5"/>
<text text-anchor="middle" x="912" y="-130.5" font-family="Helvetica,sans-Serif" font-size="10.00">fplll/wrapper.cpp</text>
</a>
</g>
</g>
<!-- Node2&#45;&gt;Node29 -->
<g id="edge43" class="edge">
<title>Node2&#45;&gt;Node29</title>
<path fill="none" stroke="midnightblue" d="M943.89,-171.43C935.82,-161.97 926.04,-150.48 919.45,-142.75"/>
<polygon fill="midnightblue" stroke="midnightblue" points="941.25,-173.74 950.4,-179.08 946.58,-169.2 941.25,-173.74"/>
</g>
<!-- Node4 -->
<g id="node4" class="node">
<title>Node4</title>
<g id="a_node4"><a xlink:href="fplll_8cpp.html" target="_top" xlink:title=" ">
<polygon fill="white" stroke="black" points="1601,-62 1601,-81 1669,-81 1669,-62 1601,-62"/>
<text text-anchor="middle" x="1635" y="-69" font-family="Helvetica,sans-Serif" font-size="10.00">fplll/fplll.cpp</text>
</a>
</g>
</g>
<!-- Node3&#45;&gt;Node4 -->
<g id="edge3" class="edge">
<title>Node3&#45;&gt;Node4</title>
<path fill="none" stroke="midnightblue" d="M1042.41,-131.89C1137.12,-131 1384.65,-124.9 1587,-87 1594.7,-85.56 1602.92,-83.34 1610.34,-81.06"/>
<polygon fill="midnightblue" stroke="midnightblue" points="1042.13,-128.39 1032.15,-131.97 1042.18,-135.39 1042.13,-128.39"/>
</g>
<!-- Node5 -->
<g id="node5" class="node">
<title>Node5</title>
<g id="a_node5"><a xlink:href="main_8h.html" target="_top" xlink:title=" ">
<polygon fill="white" stroke="black" points="5,-62 5,-81 69,-81 69,-62 5,-62"/>
<text text-anchor="middle" x="37" y="-69" font-family="Helvetica,sans-Serif" font-size="10.00">fplll/main.h</text>
</a>
</g>
</g>
<!-- Node3&#45;&gt;Node5 -->
<g id="edge4" class="edge">
<title>Node3&#45;&gt;Node5</title>
<path fill="none" stroke="midnightblue" d="M963.52,-123.27C571.54,-72.01 461.68,-160.9 78,-87 71.18,-85.69 63.97,-83.44 57.52,-81.11"/>
<polygon fill="midnightblue" stroke="midnightblue" points="963.35,-126.78 973.72,-124.63 964.27,-119.84 963.35,-126.78"/>
</g>
<!-- Node7 -->
<g id="node7" class="node">
<title>Node7</title>
<g id="a_node7"><a xlink:href="pruner_8cpp.html" target="_top" xlink:title=" ">
<polygon fill="white" stroke="black" points="408,-0.5 408,-19.5 518,-19.5 518,-0.5 408,-0.5"/>
<text text-anchor="middle" x="463" y="-7.5" font-family="Helvetica,sans-Serif" font-size="10.00">fplll/pruner/pruner.cpp</text>
</a>
</g>
</g>
<!-- Node3&#45;&gt;Node7 -->
<g id="edge6" class="edge">
<title>Node3&#45;&gt;Node7</title>
<path fill="none" stroke="midnightblue" d="M963.52,-123.17C830.41,-101.83 785.76,-137.95 666,-87 645.94,-78.47 647.38,-65.97 628,-56 592.62,-37.79 549.07,-26.32 515.6,-19.51"/>
<polygon fill="midnightblue" stroke="midnightblue" points="963.24,-126.67 973.68,-124.88 964.4,-119.77 963.24,-126.67"/>
</g>
<!-- Node8 -->
<g id="node8" class="node">
<title>Node8</title>
<g id="a_node8"><a xlink:href="pruner__cost_8cpp.html" target="_top" xlink:title=" ">
<polygon fill="white" stroke="black" points="675,-56.5 675,-86.5 767,-86.5 767,-56.5 675,-56.5"/>
<text text-anchor="start" x="683" y="-74.5" font-family="Helvetica,sans-Serif" font-size="10.00">fplll/pruner/pruner</text>
<text text-anchor="middle" x="721" y="-63.5" font-family="Helvetica,sans-Serif" font-size="10.00">_cost.cpp</text>
</a>
</g>
</g>
<!-- Node3&#45;&gt;Node8 -->
<g id="edge7" class="edge">
<title>Node3&#45;&gt;Node8</title>
<path fill="none" stroke="midnightblue" d="M963.82,-123.03C881.3,-105.59 858.97,-104.08 781,-87 776.5,-86.01 771.82,-84.95 767.14,-83.86"/>
<polygon fill="midnightblue" stroke="midnightblue" points="963.13,-126.46 973.64,-125.12 964.58,-119.61 963.13,-126.46"/>
</g>
<!-- Node9 -->
<g id="node9" class="node">
<title>Node9</title>
<g id="a_node9"><a xlink:href="pruner__optimize_8cpp.html" target="_top" xlink:title=" ">
<polygon fill="white" stroke="black" points="87,-56.5 87,-86.5 179,-86.5 179,-56.5 87,-56.5"/>
<text text-anchor="start" x="95" y="-74.5" font-family="Helvetica,sans-Serif" font-size="10.00">fplll/pruner/pruner</text>
<text text-anchor="middle" x="133" y="-63.5" font-family="Helvetica,sans-Serif" font-size="10.00">_optimize.cpp</text>
</a>
</g>
</g>
<!-- Node3&#45;&gt;Node9 -->
<g id="edge9" class="edge">
<title>Node3&#45;&gt;Node9</title>
<path fill="none" stroke="midnightblue" d="M963.74,-123.29C620.17,-77.19 526.03,-138.8 188,-87 185.07,-86.55 182.07,-86.01 179.06,-85.4"/>
<polygon fill="midnightblue" stroke="midnightblue" points="963.34,-126.76 973.72,-124.65 964.28,-119.83 963.34,-126.76"/>
</g>
<!-- Node10 -->
<g id="node10" class="node">
<title>Node10</title>
<g id="a_node10"><a xlink:href="pruner__optimize__tc_8cpp.html" target="_top" xlink:title=" ">
<polygon fill="white" stroke="black" points="197,-56.5 197,-86.5 289,-86.5 289,-56.5 197,-56.5"/>
<text text-anchor="start" x="205" y="-74.5" font-family="Helvetica,sans-Serif" font-size="10.00">fplll/pruner/pruner</text>
<text text-anchor="middle" x="243" y="-63.5" font-family="Helvetica,sans-Serif" font-size="10.00">_optimize_tc.cpp</text>
</a>
</g>
</g>
<!-- Node3&#45;&gt;Node10 -->
<g id="edge11" class="edge">
<title>Node3&#45;&gt;Node10</title>
<path fill="none" stroke="midnightblue" d="M963.58,-123.25C668.67,-82.66 587.55,-132.51 298,-87 295.07,-86.54 292.08,-85.99 289.07,-85.37"/>
<polygon fill="midnightblue" stroke="midnightblue" points="963.33,-126.75 973.71,-124.67 964.3,-119.82 963.33,-126.75"/>
</g>
<!-- Node11 -->
<g id="node11" class="node">
<title>Node11</title>
<g id="a_node11"><a xlink:href="pruner__optimize__tp_8cpp.html" target="_top" xlink:title=" ">
<polygon fill="white" stroke="black" points="307,-56.5 307,-86.5 399,-86.5 399,-56.5 307,-56.5"/>
<text text-anchor="start" x="315" y="-74.5" font-family="Helvetica,sans-Serif" font-size="10.00">fplll/pruner/pruner</text>
<text text-anchor="middle" x="353" y="-63.5" font-family="Helvetica,sans-Serif" font-size="10.00">_optimize_tp.cpp</text>
</a>
</g>
</g>
<!-- Node3&#45;&gt;Node11 -->
<g id="edge13" class="edge">
<title>Node3&#45;&gt;Node11</title>
<path fill="none" stroke="midnightblue" d="M963.73,-123.25C717.21,-88.07 649.2,-126.22 408,-87 405.08,-86.52 402.08,-85.96 399.07,-85.34"/>
<polygon fill="midnightblue" stroke="midnightblue" points="963.31,-126.73 973.71,-124.7 964.32,-119.8 963.31,-126.73"/>
</g>
<!-- Node12 -->
<g id="node12" class="node">
<title>Node12</title>
<g id="a_node12"><a xlink:href="pruner__prob_8cpp.html" target="_top" xlink:title=" ">
<polygon fill="white" stroke="black" points="417,-56.5 417,-86.5 509,-86.5 509,-56.5 417,-56.5"/>
<text text-anchor="start" x="425" y="-74.5" font-family="Helvetica,sans-Serif" font-size="10.00">fplll/pruner/pruner</text>
<text text-anchor="middle" x="463" y="-63.5" font-family="Helvetica,sans-Serif" font-size="10.00">_prob.cpp</text>
</a>
</g>
</g>
<!-- Node3&#45;&gt;Node12 -->
<g id="edge15" class="edge">
<title>Node3&#45;&gt;Node12</title>
<path fill="none" stroke="midnightblue" d="M963.56,-123.2C765.66,-93.47 710.77,-119.92 518,-87 515.08,-86.5 512.09,-85.92 509.08,-85.28"/>
<polygon fill="midnightblue" stroke="midnightblue" points="963.29,-126.7 973.7,-124.76 964.35,-119.78 963.29,-126.7"/>
</g>
<!-- Node13 -->
<g id="node13" class="node">
<title>Node13</title>
<g id="a_node13"><a xlink:href="pruner__util_8cpp.html" target="_top" xlink:title=" ">
<polygon fill="white" stroke="black" points="527,-56.5 527,-86.5 619,-86.5 619,-56.5 527,-56.5"/>
<text text-anchor="start" x="535" y="-74.5" font-family="Helvetica,sans-Serif" font-size="10.00">fplll/pruner/pruner</text>
<text text-anchor="middle" x="573" y="-63.5" font-family="Helvetica,sans-Serif" font-size="10.00">_util.cpp</text>
</a>
</g>
</g>
<!-- Node3&#45;&gt;Node13 -->
<g id="edge17" class="edge">
<title>Node3&#45;&gt;Node13</title>
<path fill="none" stroke="midnightblue" d="M963.82,-123.19C816.36,-98.91 775.64,-111.89 633,-87 628.46,-86.21 623.75,-85.27 619.06,-84.27"/>
<polygon fill="midnightblue" stroke="midnightblue" points="963.25,-126.64 973.69,-124.84 964.4,-119.74 963.25,-126.64"/>
</g>
<!-- Node14 -->
<g id="node14" class="node">
<title>Node14</title>
<g id="a_node14"><a xlink:href="test__bkz_8cpp.html" target="_top" xlink:title=" ">
<polygon fill="white" stroke="black" points="608,-0.5 608,-19.5 706,-19.5 706,-0.5 608,-0.5"/>
<text text-anchor="middle" x="657" y="-7.5" font-family="Helvetica,sans-Serif" font-size="10.00">tests/test_bkz.cpp</text>
</a>
</g>
</g>
<!-- Node3&#45;&gt;Node14 -->
<g id="edge19" class="edge">
<title>Node3&#45;&gt;Node14</title>
<path fill="none" stroke="midnightblue" d="M963.73,-122.77C909.89,-110.08 819.38,-88.62 816,-87 795.73,-77.26 795.62,-66.99 776,-56 747.28,-39.92 711.68,-27.32 686.94,-19.59"/>
<polygon fill="midnightblue" stroke="midnightblue" points="963.11,-126.22 973.65,-125.1 964.72,-119.4 963.11,-126.22"/>
</g>
<!-- Node15 -->
<g id="node15" class="node">
<title>Node15</title>
<g id="a_node15"><a xlink:href="test__bkz__gram_8cpp.html" target="_top" xlink:title=" ">
<polygon fill="white" stroke="black" points="724.5,-0.5 724.5,-19.5 849.5,-19.5 849.5,-0.5 724.5,-0.5"/>
<text text-anchor="middle" x="787" y="-7.5" font-family="Helvetica,sans-Serif" font-size="10.00">tests/test_bkz_gram.cpp</text>
</a>
</g>
</g>
<!-- Node3&#45;&gt;Node15 -->
<g id="edge20" class="edge">
<title>Node3&#45;&gt;Node15</title>
<path fill="none" stroke="midnightblue" d="M963.88,-121.58C922.39,-110.33 861.53,-93.2 852,-87 824.2,-68.93 801.7,-35.52 792.07,-19.72"/>
<polygon fill="midnightblue" stroke="midnightblue" points="963.14,-125 973.71,-124.23 964.96,-118.25 963.14,-125"/>
</g>
<!-- Node16 -->
<g id="node16" class="node">
<title>Node16</title>
<g id="a_node16"><a xlink:href="test__counter_8cpp.html" target="_top" xlink:title=" ">
<polygon fill="white" stroke="black" points="861.5,-62 861.5,-81 974.5,-81 974.5,-62 861.5,-62"/>
<text text-anchor="middle" x="918" y="-69" font-family="Helvetica,sans-Serif" font-size="10.00">tests/test_counter.cpp</text>
</a>
</g>
</g>
<!-- Node3&#45;&gt;Node16 -->
<g id="edge21" class="edge">
<title>Node3&#45;&gt;Node16</title>
<path fill="none" stroke="midnightblue" d="M982.45,-117.61C966.1,-106.17 943.78,-90.55 930.16,-81.01"/>
<polygon fill="midnightblue" stroke="midnightblue" points="980.62,-120.61 990.82,-123.48 984.64,-114.87 980.62,-120.61"/>
</g>
<!-- Node17 -->
<g id="node17" class="node">
<title>Node17</title>
<g id="a_node17"><a xlink:href="test__cvp_8cpp.html" target="_top" xlink:title=" ">
<polygon fill="white" stroke="black" points="868,-0.5 868,-19.5 966,-19.5 966,-0.5 868,-0.5"/>
<text text-anchor="middle" x="917" y="-7.5" font-family="Helvetica,sans-Serif" font-size="10.00">tests/test_cvp.cpp</text>
</a>
</g>
</g>
<!-- Node3&#45;&gt;Node17 -->
<g id="edge22" class="edge">
<title>Node3&#45;&gt;Node17</title>
<path fill="none" stroke="midnightblue" d="M1001.73,-113.19C999.82,-96.79 995.02,-73.02 983,-56 971.32,-39.46 951.5,-27.15 936.62,-19.62"/>
<polygon fill="midnightblue" stroke="midnightblue" points="998.25,-113.56 1002.65,-123.2 1005.22,-112.92 998.25,-113.56"/>
</g>
<!-- Node18 -->
<g id="node18" class="node">
<title>Node18</title>
<g id="a_node18"><a xlink:href="test__enum_8cpp.html" target="_top" xlink:title=" ">
<polygon fill="white" stroke="black" points="984,-0.5 984,-19.5 1090,-19.5 1090,-0.5 984,-0.5"/>
<text text-anchor="middle" x="1037" y="-7.5" font-family="Helvetica,sans-Serif" font-size="10.00">tests/test_enum.cpp</text>
</a>
</g>
</g>
<!-- Node3&#45;&gt;Node18 -->
<g id="edge23" class="edge">
<title>Node3&#45;&gt;Node18</title>
<path fill="none" stroke="midnightblue" d="M1008.86,-113.8C1011.44,-105.63 1014.46,-95.86 1017,-87 1023.92,-62.87 1031.23,-34.16 1034.79,-19.93"/>
<polygon fill="midnightblue" stroke="midnightblue" points="1005.5,-112.82 1005.8,-123.41 1012.17,-114.94 1005.5,-112.82"/>
</g>
<!-- Node19 -->
<g id="node19" class="node">
<title>Node19</title>
<g id="a_node19"><a xlink:href="test__hlll_8cpp.html" target="_top" xlink:title=" ">
<polygon fill="white" stroke="black" points="1108,-0.5 1108,-19.5 1202,-19.5 1202,-0.5 1108,-0.5"/>
<text text-anchor="middle" x="1155" y="-7.5" font-family="Helvetica,sans-Serif" font-size="10.00">tests/test_hlll.cpp</text>
</a>
</g>
</g>
<!-- Node3&#45;&gt;Node19 -->
<g id="edge24" class="edge">
<title>Node3&#45;&gt;Node19</title>
<path fill="none" stroke="midnightblue" d="M1021.74,-116.95C1040.88,-101.59 1071.47,-77.08 1098,-56 1113.99,-43.29 1132.57,-28.65 1144.06,-19.61"/>
<polygon fill="midnightblue" stroke="midnightblue" points="1019.42,-114.33 1013.81,-123.31 1023.8,-119.78 1019.42,-114.33"/>
</g>
<!-- Node20 -->
<g id="node20" class="node">
<title>Node20</title>
<g id="a_node20"><a xlink:href="test__lll_8cpp.html" target="_top" xlink:title=" ">
<polygon fill="white" stroke="black" points="1220.5,-0.5 1220.5,-19.5 1309.5,-19.5 1309.5,-0.5 1220.5,-0.5"/>
<text text-anchor="middle" x="1265" y="-7.5" font-family="Helvetica,sans-Serif" font-size="10.00">tests/test_lll.cpp</text>
</a>
</g>
</g>
<!-- Node3&#45;&gt;Node20 -->
<g id="edge25" class="edge">
<title>Node3&#45;&gt;Node20</title>
<path fill="none" stroke="midnightblue" d="M1042.11,-130.96C1085.09,-128.15 1154.69,-118.6 1205,-87 1232.33,-69.83 1252.42,-35.67 1260.75,-19.66"/>
<polygon fill="midnightblue" stroke="midnightblue" points="1041.84,-127.47 1032.05,-131.52 1042.23,-134.45 1041.84,-127.47"/>
</g>
<!-- Node21 -->
<g id="node21" class="node">
<title>Node21</title>
<g id="a_node21"><a xlink:href="test__lll__gram_8cpp.html" target="_top" xlink:title=" ">
<polygon fill="white" stroke="black" points="1327,-0.5 1327,-19.5 1443,-19.5 1443,-0.5 1327,-0.5"/>
<text text-anchor="middle" x="1385" y="-7.5" font-family="Helvetica,sans-Serif" font-size="10.00">tests/test_lll_gram.cpp</text>
</a>
</g>
</g>
<!-- Node3&#45;&gt;Node21 -->
<g id="edge26" class="edge">
<title>Node3&#45;&gt;Node21</title>
<path fill="none" stroke="midnightblue" d="M1042.52,-131.24C1151.29,-128.73 1448.9,-118.98 1478,-87 1487.27,-76.81 1485.32,-67.67 1478,-56 1466.18,-37.16 1444,-26.01 1424.25,-19.52"/>
<polygon fill="midnightblue" stroke="midnightblue" points="1042.22,-127.74 1032.3,-131.46 1042.38,-134.74 1042.22,-127.74"/>
</g>
<!-- Node22 -->
<g id="node22" class="node">
<title>Node22</title>
<g id="a_node22"><a xlink:href="test__nr_8cpp.html" target="_top" xlink:title=" ">
<polygon fill="white" stroke="black" points="1253.5,-62 1253.5,-81 1342.5,-81 1342.5,-62 1253.5,-62"/>
<text text-anchor="middle" x="1298" y="-69" font-family="Helvetica,sans-Serif" font-size="10.00">tests/test_nr.cpp</text>
</a>
</g>
</g>
<!-- Node3&#45;&gt;Node22 -->
<g id="edge27" class="edge">
<title>Node3&#45;&gt;Node22</title>
<path fill="none" stroke="midnightblue" d="M1042.21,-125.17C1089.14,-116.85 1170.05,-102.04 1239,-87 1247.35,-85.18 1256.32,-83.06 1264.68,-81.01"/>
<polygon fill="midnightblue" stroke="midnightblue" points="1041.41,-121.76 1032.17,-126.95 1042.62,-128.66 1041.41,-121.76"/>
</g>
<!-- Node23 -->
<g id="node23" class="node">
<title>Node23</title>
<g id="a_node23"><a xlink:href="test__pruner_8cpp.html" target="_top" xlink:title=" ">
<polygon fill="white" stroke="black" points="1361,-62 1361,-81 1469,-81 1469,-62 1361,-62"/>
<text text-anchor="middle" x="1415" y="-69" font-family="Helvetica,sans-Serif" font-size="10.00">tests/test_pruner.cpp</text>
</a>
</g>
</g>
<!-- Node3&#45;&gt;Node23 -->
<g id="edge28" class="edge">
<title>Node3&#45;&gt;Node23</title>
<path fill="none" stroke="midnightblue" d="M1042.15,-128.15C1106.76,-121.53 1239.64,-106.77 1351,-87 1360.53,-85.31 1370.79,-83.14 1380.24,-81"/>
<polygon fill="midnightblue" stroke="midnightblue" points="1041.61,-124.69 1032.01,-129.18 1042.32,-131.65 1041.61,-124.69"/>
</g>
<!-- Node24 -->
<g id="node24" class="node">
<title>Node24</title>
<g id="a_node24"><a xlink:href="test__svp_8cpp.html" target="_top" xlink:title=" ">
<polygon fill="white" stroke="black" points="1461,-0.5 1461,-19.5 1559,-19.5 1559,-0.5 1461,-0.5"/>
<text text-anchor="middle" x="1510" y="-7.5" font-family="Helvetica,sans-Serif" font-size="10.00">tests/test_svp.cpp</text>
</a>
</g>
</g>
<!-- Node3&#45;&gt;Node24 -->
<g id="edge29" class="edge">
<title>Node3&#45;&gt;Node24</title>
<path fill="none" stroke="midnightblue" d="M1042.22,-131.1C1153.06,-128.19 1462.72,-117.38 1496,-87 1515.03,-69.63 1513.39,-35.57 1511.38,-19.62"/>
<polygon fill="midnightblue" stroke="midnightblue" points="1042.04,-127.6 1032.14,-131.36 1042.22,-134.6 1042.04,-127.6"/>
</g>
<!-- Node25 -->
<g id="node25" class="node">
<title>Node25</title>
<g id="a_node25"><a xlink:href="test__svp__gram_8cpp.html" target="_top" xlink:title=" ">
<polygon fill="white" stroke="black" points="1577.5,-0.5 1577.5,-19.5 1702.5,-19.5 1702.5,-0.5 1577.5,-0.5"/>
<text text-anchor="middle" x="1640" y="-7.5" font-family="Helvetica,sans-Serif" font-size="10.00">tests/test_svp_gram.cpp</text>
</a>
</g>
</g>
<!-- Node3&#45;&gt;Node25 -->
<g id="edge30" class="edge">
<title>Node3&#45;&gt;Node25</title>
<path fill="none" stroke="midnightblue" d="M1042.12,-130.94C1146.52,-127.72 1429.73,-116.46 1518,-87 1563.92,-71.67 1610.31,-35.93 1630.08,-19.52"/>
<polygon fill="midnightblue" stroke="midnightblue" points="1041.91,-127.44 1032.02,-131.24 1042.12,-134.44 1041.91,-127.44"/>
</g>
<!-- Node26 -->
<g id="node26" class="node">
<title>Node26</title>
<g id="a_node26"><a xlink:href="test__utils_8h.html" target="_top" xlink:title=" ">
<polygon fill="white" stroke="black" points="1107.5,-62 1107.5,-81 1196.5,-81 1196.5,-62 1107.5,-62"/>
<text text-anchor="middle" x="1152" y="-69" font-family="Helvetica,sans-Serif" font-size="10.00">tests/test_utils.h</text>
</a>
</g>
</g>
<!-- Node3&#45;&gt;Node26 -->
<g id="edge31" class="edge">
<title>Node3&#45;&gt;Node26</title>
<path fill="none" stroke="midnightblue" d="M1033.97,-119.63C1062.92,-108.07 1105.37,-91.12 1130.69,-81.01"/>
<polygon fill="midnightblue" stroke="midnightblue" points="1032.34,-116.52 1024.35,-123.48 1034.93,-123.02 1032.34,-116.52"/>
</g>
<!-- Node6 -->
<g id="node6" class="node">
<title>Node6</title>
<g id="a_node6"><a xlink:href="main_8cpp.html" target="_top" xlink:title=" ">
<polygon fill="white" stroke="black" points="0,-0.5 0,-19.5 74,-19.5 74,-0.5 0,-0.5"/>
<text text-anchor="middle" x="37" y="-7.5" font-family="Helvetica,sans-Serif" font-size="10.00">fplll/main.cpp</text>
</a>
</g>
</g>
<!-- Node5&#45;&gt;Node6 -->
<g id="edge5" class="edge">
<title>Node5&#45;&gt;Node6</title>
<path fill="none" stroke="midnightblue" d="M37,-51.82C37,-41 37,-27.9 37,-19.51"/>
<polygon fill="midnightblue" stroke="midnightblue" points="33.5,-51.98 37,-61.98 40.5,-51.98 33.5,-51.98"/>
</g>
<!-- Node8&#45;&gt;Node7 -->
<g id="edge8" class="edge">
<title>Node8&#45;&gt;Node7</title>
<path fill="none" stroke="midnightblue" d="M664.83,-56.9C663.54,-56.6 662.26,-56.3 661,-56 605.57,-43 541.28,-28.5 501.36,-19.56"/>
<polygon fill="midnightblue" stroke="midnightblue" points="664.29,-60.37 674.83,-59.27 665.91,-53.56 664.29,-60.37"/>
</g>
<!-- Node9&#45;&gt;Node7 -->
<g id="edge10" class="edge">
<title>Node9&#45;&gt;Node7</title>
<path fill="none" stroke="midnightblue" d="M189.06,-55.89C270.57,-38.82 354.38,-26.01 407.93,-18.43"/>
<polygon fill="midnightblue" stroke="midnightblue" points="188.19,-52.5 179.14,-57.99 189.65,-59.35 188.19,-52.5"/>
</g>
<!-- Node10&#45;&gt;Node7 -->
<g id="edge12" class="edge">
<title>Node10&#45;&gt;Node7</title>
<path fill="none" stroke="midnightblue" d="M298.94,-55.37C340.95,-44.01 396.98,-28.86 431.49,-19.52"/>
<polygon fill="midnightblue" stroke="midnightblue" points="297.86,-52.04 289.12,-58.03 299.69,-58.79 297.86,-52.04"/>
</g>
<!-- Node11&#45;&gt;Node7 -->
<g id="edge14" class="edge">
<title>Node11&#45;&gt;Node7</title>
<path fill="none" stroke="midnightblue" d="M388.12,-51.51C407.89,-40.81 431.62,-27.97 446.99,-19.66"/>
<polygon fill="midnightblue" stroke="midnightblue" points="386.2,-48.56 379.07,-56.4 389.53,-54.72 386.2,-48.56"/>
</g>
<!-- Node12&#45;&gt;Node7 -->
<g id="edge16" class="edge">
<title>Node12&#45;&gt;Node7</title>
<path fill="none" stroke="midnightblue" d="M463,-46.29C463,-36.86 463,-26.65 463,-19.66"/>
<polygon fill="midnightblue" stroke="midnightblue" points="459.5,-46.4 463,-56.4 466.5,-46.4 459.5,-46.4"/>
</g>
<!-- Node13&#45;&gt;Node7 -->
<g id="edge18" class="edge">
<title>Node13&#45;&gt;Node7</title>
<path fill="none" stroke="midnightblue" d="M537.88,-51.51C518.11,-40.81 494.38,-27.97 479.01,-19.66"/>
<polygon fill="midnightblue" stroke="midnightblue" points="536.47,-54.72 546.93,-56.4 539.8,-48.56 536.47,-54.72"/>
</g>
<!-- Node26&#45;&gt;Node14 -->
<g id="edge32" class="edge">
<title>Node26&#45;&gt;Node14</title>
<path fill="none" stroke="midnightblue" d="M1097.07,-64.85C1014.16,-56.15 852.17,-38.56 715,-20 712.07,-19.6 709.06,-19.18 706.03,-18.74"/>
<polygon fill="midnightblue" stroke="midnightblue" points="1096.95,-68.35 1107.26,-65.91 1097.68,-61.39 1096.95,-68.35"/>
</g>
<!-- Node26&#45;&gt;Node15 -->
<g id="edge33" class="edge">
<title>Node26&#45;&gt;Node15</title>
<path fill="none" stroke="midnightblue" d="M1097.33,-61.59C1027.57,-50.22 907.75,-30.68 839.2,-19.51"/>
<polygon fill="midnightblue" stroke="midnightblue" points="1096.81,-65.05 1107.24,-63.2 1097.94,-58.14 1096.81,-65.05"/>
</g>
<!-- Node26&#45;&gt;Node17 -->
<g id="edge34" class="edge">
<title>Node26&#45;&gt;Node17</title>
<path fill="none" stroke="midnightblue" d="M1108.43,-59.47C1062.8,-47.91 992.11,-30.02 950.61,-19.51"/>
<polygon fill="midnightblue" stroke="midnightblue" points="1107.78,-62.91 1118.33,-61.98 1109.5,-56.13 1107.78,-62.91"/>
</g>
<!-- Node26&#45;&gt;Node18 -->
<g id="edge35" class="edge">
<title>Node26&#45;&gt;Node18</title>
<path fill="none" stroke="midnightblue" d="M1126.62,-57.37C1104.33,-45.83 1072.56,-29.4 1053.45,-19.51"/>
<polygon fill="midnightblue" stroke="midnightblue" points="1125.03,-60.49 1135.52,-61.98 1128.25,-54.27 1125.03,-60.49"/>
</g>
<!-- Node26&#45;&gt;Node19 -->
<g id="edge37" class="edge">
<title>Node26&#45;&gt;Node19</title>
<path fill="none" stroke="midnightblue" d="M1152.94,-51.82C1153.49,-41 1154.15,-27.9 1154.57,-19.51"/>
<polygon fill="midnightblue" stroke="midnightblue" points="1149.44,-51.81 1152.43,-61.98 1156.43,-52.16 1149.44,-51.81"/>
</g>
<!-- Node26&#45;&gt;Node20 -->
<g id="edge38" class="edge">
<title>Node26&#45;&gt;Node20</title>
<path fill="none" stroke="midnightblue" d="M1177.24,-57.21C1199.12,-45.69 1230.14,-29.36 1248.84,-19.51"/>
<polygon fill="midnightblue" stroke="midnightblue" points="1175.41,-54.22 1168.19,-61.98 1178.67,-60.41 1175.41,-54.22"/>
</g>
<!-- Node26&#45;&gt;Node21 -->
<g id="edge39" class="edge">
<title>Node26&#45;&gt;Node21</title>
<path fill="none" stroke="midnightblue" d="M1195.2,-59.47C1240.44,-47.91 1310.53,-30.02 1351.68,-19.51"/>
<polygon fill="midnightblue" stroke="midnightblue" points="1194.21,-56.11 1185.38,-61.98 1195.94,-62.89 1194.21,-56.11"/>
</g>
<!-- Node26&#45;&gt;Node24 -->
<g id="edge40" class="edge">
<title>Node26&#45;&gt;Node24</title>
<path fill="none" stroke="midnightblue" d="M1206.89,-61.38C1276.17,-49.86 1394.32,-30.23 1460.8,-19.18"/>
<polygon fill="midnightblue" stroke="midnightblue" points="1205.91,-57.99 1196.62,-63.08 1207.06,-64.9 1205.91,-57.99"/>
</g>
<!-- Node26&#45;&gt;Node25 -->
<g id="edge41" class="edge">
<title>Node26&#45;&gt;Node25</title>
<path fill="none" stroke="midnightblue" d="M1206.91,-61.42C1219.11,-59.53 1231.98,-57.61 1244,-56 1387.6,-36.72 1424.11,-36.99 1568,-20 1571,-19.65 1574.07,-19.28 1577.18,-18.9"/>
<polygon fill="midnightblue" stroke="midnightblue" points="1206.2,-57.99 1196.86,-63.01 1207.28,-64.91 1206.2,-57.99"/>
</g>
<!-- Node26&#45;&gt;Node27 -->
<g id="edge36" class="edge">
<title>Node26&#45;&gt;Node27</title>
<path fill="none" stroke="midnightblue" d="M1206.87,-61.12C1219.07,-59.24 1231.96,-57.41 1244,-56 1450.76,-31.78 1504.18,-43.71 1711,-20 1714.19,-19.63 1717.47,-19.22 1720.78,-18.79"/>
<polygon fill="midnightblue" stroke="midnightblue" points="1206.16,-57.69 1196.82,-62.7 1207.25,-64.61 1206.16,-57.69"/>
</g>
</g>
</svg>
