<?xml version="1.0" encoding="UTF-8" standalone="no"?>
<!DOCTYPE svg PUBLIC "-//W3C//DTD SVG 1.1//EN"
 "http://www.w3.org/Graphics/SVG/1.1/DTD/svg11.dtd">
<!-- Generated by graphviz version 2.40.1 (20161225.0304)
 -->
<!-- Title: fplll/householder.h Pages: 1 -->
<svg width="2021pt" height="263pt"
 viewBox="0.00 0.00 2021.00 263.00" xmlns="http://www.w3.org/2000/svg" xmlns:xlink="http://www.w3.org/1999/xlink">
<g id="graph0" class="graph" transform="scale(1 1) rotate(0) translate(4 259)">
<title>fplll/householder.h</title>
<polygon fill="#ffffff" stroke="transparent" points="-4,4 -4,-259 2017,-259 2017,4 -4,4"/>
<!-- Node0 -->
<g id="node1" class="node">
<title>Node0</title>
<polygon fill="#bfbfbf" stroke="#000000" points="1831.5,-235.5 1831.5,-254.5 1926.5,-254.5 1926.5,-235.5 1831.5,-235.5"/>
<text text-anchor="middle" x="1879" y="-242.5" font-family="Helvetica,sans-Serif" font-size="10.00" fill="#000000">fplll/householder.h</text>
</g>
<!-- Node1 -->
<g id="node2" class="node">
<title>Node1</title>
<g id="a_node2"><a xlink:href="hlll_8h.html" target="_top" xlink:title="fplll/hlll.h">
<polygon fill="#ffffff" stroke="#000000" points="987.5,-179.5 987.5,-198.5 1042.5,-198.5 1042.5,-179.5 987.5,-179.5"/>
<text text-anchor="middle" x="1015" y="-186.5" font-family="Helvetica,sans-Serif" font-size="10.00" fill="#000000">fplll/hlll.h</text>
</a>
</g>
</g>
<!-- Node0&#45;&gt;Node1 -->
<g id="edge1" class="edge">
<title>Node0&#45;&gt;Node1</title>
<path fill="none" stroke="#191970" d="M1821.1339,-241.2494C1652.2314,-230.302 1164.1584,-198.6677 1042.647,-190.7919"/>
<polygon fill="#191970" stroke="#191970" points="1821.1114,-244.7552 1831.3169,-241.9094 1821.5643,-237.7699 1821.1114,-244.7552"/>
</g>
<!-- Node27 -->
<g id="node28" class="node">
<title>Node27</title>
<g id="a_node28"><a xlink:href="test__gso_8cpp.html" target="_top" xlink:title="tests/test_gso.cpp">
<polygon fill="#ffffff" stroke="#000000" points="1871,-.5 1871,-19.5 1969,-19.5 1969,-.5 1871,-.5"/>
<text text-anchor="middle" x="1920" y="-7.5" font-family="Helvetica,sans-Serif" font-size="10.00" fill="#000000">tests/test_gso.cpp</text>
</a>
</g>
</g>
<!-- Node0&#45;&gt;Node27 -->
<g id="edge46" class="edge">
<title>Node0&#45;&gt;Node27</title>
<path fill="none" stroke="#191970" d="M1882.4088,-225.4619C1890.7907,-177.4192 1912.1707,-54.8751 1918.3213,-19.6216"/>
<polygon fill="#191970" stroke="#191970" points="1878.9289,-225.0439 1880.658,-235.4967 1885.8247,-226.2471 1878.9289,-225.0439"/>
</g>
<!-- Node30 -->
<g id="node31" class="node">
<title>Node30</title>
<g id="a_node31"><a xlink:href="householder_8cpp.html" target="_top" xlink:title="fplll/householder.cpp">
<polygon fill="#ffffff" stroke="#000000" points="1907,-179.5 1907,-198.5 2013,-198.5 2013,-179.5 1907,-179.5"/>
<text text-anchor="middle" x="1960" y="-186.5" font-family="Helvetica,sans-Serif" font-size="10.00" fill="#000000">fplll/householder.cpp</text>
</a>
</g>
</g>
<!-- Node0&#45;&gt;Node30 -->
<g id="edge45" class="edge">
<title>Node0&#45;&gt;Node30</title>
<path fill="none" stroke="#191970" d="M1901.434,-229.49C1915.7254,-219.6096 1933.7916,-207.1194 1946.0526,-198.6427"/>
<polygon fill="#191970" stroke="#191970" points="1899.3443,-226.6797 1893.1091,-235.2455 1903.3251,-232.4376 1899.3443,-226.6797"/>
</g>
<!-- Node2 -->
<g id="node3" class="node">
<title>Node2</title>
<g id="a_node3"><a xlink:href="fplll_8h.html" target="_top" xlink:title="fplll/fplll.h">
<polygon fill="#ffffff" stroke="#000000" points="1031,-123.5 1031,-142.5 1089,-142.5 1089,-123.5 1031,-123.5"/>
<text text-anchor="middle" x="1060" y="-130.5" font-family="Helvetica,sans-Serif" font-size="10.00" fill="#000000">fplll/fplll.h</text>
</a>
</g>
</g>
<!-- Node1&#45;&gt;Node2 -->
<g id="edge2" class="edge">
<title>Node1&#45;&gt;Node2</title>
<path fill="none" stroke="#191970" d="M1029.2946,-171.2112C1036.8996,-161.7472 1045.9538,-150.4797 1052.2514,-142.6427"/>
<polygon fill="#191970" stroke="#191970" points="1026.3741,-169.2581 1022.8384,-179.2455 1031.8306,-173.6428 1026.3741,-169.2581"/>
</g>
<!-- Node28 -->
<g id="node29" class="node">
<title>Node28</title>
<g id="a_node29"><a xlink:href="hlll_8cpp.html" target="_top" xlink:title="fplll/hlll.cpp">
<polygon fill="#ffffff" stroke="#000000" points="841.5,-123.5 841.5,-142.5 906.5,-142.5 906.5,-123.5 841.5,-123.5"/>
<text text-anchor="middle" x="874" y="-130.5" font-family="Helvetica,sans-Serif" font-size="10.00" fill="#000000">fplll/hlll.cpp</text>
</a>
</g>
</g>
<!-- Node1&#45;&gt;Node28 -->
<g id="edge43" class="edge">
<title>Node1&#45;&gt;Node28</title>
<path fill="none" stroke="#191970" d="M981.3968,-175.6541C955.6841,-165.4419 920.8539,-151.6086 897.9225,-142.5011"/>
<polygon fill="#191970" stroke="#191970" points="980.1755,-178.9349 990.7612,-179.3733 982.7593,-172.4292 980.1755,-178.9349"/>
</g>
<!-- Node29 -->
<g id="node30" class="node">
<title>Node29</title>
<g id="a_node30"><a xlink:href="wrapper_8cpp.html" target="_top" xlink:title="fplll/wrapper.cpp">
<polygon fill="#ffffff" stroke="#000000" points="925,-123.5 925,-142.5 1013,-142.5 1013,-123.5 925,-123.5"/>
<text text-anchor="middle" x="969" y="-130.5" font-family="Helvetica,sans-Serif" font-size="10.00" fill="#000000">fplll/wrapper.cpp</text>
</a>
</g>
</g>
<!-- Node1&#45;&gt;Node29 -->
<g id="edge44" class="edge">
<title>Node1&#45;&gt;Node29</title>
<path fill="none" stroke="#191970" d="M1000.6253,-171.5004C992.8029,-161.9775 983.424,-150.5596 976.9208,-142.6427"/>
<polygon fill="#191970" stroke="#191970" points="997.9354,-173.7399 1006.9874,-179.2455 1003.3445,-169.2967 997.9354,-173.7399"/>
</g>
<!-- Node3 -->
<g id="node4" class="node">
<title>Node3</title>
<g id="a_node4"><a xlink:href="fplll_8cpp.html" target="_top" xlink:title="fplll/fplll.cpp">
<polygon fill="#ffffff" stroke="#000000" points="1743,-62 1743,-81 1811,-81 1811,-62 1743,-62"/>
<text text-anchor="middle" x="1777" y="-69" font-family="Helvetica,sans-Serif" font-size="10.00" fill="#000000">fplll/fplll.cpp</text>
</a>
</g>
</g>
<!-- Node2&#45;&gt;Node3 -->
<g id="edge3" class="edge">
<title>Node2&#45;&gt;Node3</title>
<path fill="none" stroke="#191970" d="M1099.4812,-131.5487C1223.9501,-126.7747 1607.0934,-110.5081 1729,-87 1736.3948,-85.574 1744.2382,-83.3569 1751.3943,-81.0411"/>
<polygon fill="#191970" stroke="#191970" points="1099.1299,-128.0595 1089.2701,-131.9368 1099.3958,-135.0544 1099.1299,-128.0595"/>
</g>
<!-- Node4 -->
<g id="node5" class="node">
<title>Node4</title>
<g id="a_node5"><a xlink:href="main_8h.html" target="_top" xlink:title="fplll/main.h">
<polygon fill="#ffffff" stroke="#000000" points="5,-62 5,-81 69,-81 69,-62 5,-62"/>
<text text-anchor="middle" x="37" y="-69" font-family="Helvetica,sans-Serif" font-size="10.00" fill="#000000">fplll/main.h</text>
</a>
</g>
</g>
<!-- Node2&#45;&gt;Node4 -->
<g id="edge4" class="edge">
<title>Node2&#45;&gt;Node4</title>
<path fill="none" stroke="#191970" d="M1020.4862,-123.1043C604.8045,-62.9491 486.1943,-169.6512 78,-87 71.4366,-85.671 64.5408,-83.4242 58.3167,-81.0476"/>
<polygon fill="#191970" stroke="#191970" points="1020.2709,-126.6102 1030.6739,-124.6032 1021.29,-119.6848 1020.2709,-126.6102"/>
</g>
<!-- Node6 -->
<g id="node7" class="node">
<title>Node6</title>
<g id="a_node7"><a xlink:href="pruner_8cpp.html" target="_top" xlink:title="fplll/pruner/pruner.cpp">
<polygon fill="#ffffff" stroke="#000000" points="408,-.5 408,-19.5 518,-19.5 518,-.5 408,-.5"/>
<text text-anchor="middle" x="463" y="-7.5" font-family="Helvetica,sans-Serif" font-size="10.00" fill="#000000">fplll/pruner/pruner.cpp</text>
</a>
</g>
</g>
<!-- Node2&#45;&gt;Node6 -->
<g id="edge6" class="edge">
<title>Node2&#45;&gt;Node6</title>
<path fill="none" stroke="#191970" d="M1020.4994,-123.147C904.0694,-106.848 649.4663,-124.8016 556,-87 554.7915,-86.5112 499.2654,-40.2541 474.5988,-19.6794"/>
<polygon fill="#191970" stroke="#191970" points="1020.2379,-126.6481 1030.6556,-124.7189 1021.3086,-119.7305 1020.2379,-126.6481"/>
</g>
<!-- Node7 -->
<g id="node8" class="node">
<title>Node7</title>
<g id="a_node8"><a xlink:href="pruner__cost_8cpp.html" target="_top" xlink:title="fplll/pruner/pruner\l_cost.cpp">
<polygon fill="#ffffff" stroke="#000000" points="565,-56.5 565,-86.5 657,-86.5 657,-56.5 565,-56.5"/>
<text text-anchor="start" x="573" y="-74.5" font-family="Helvetica,sans-Serif" font-size="10.00" fill="#000000">fplll/pruner/pruner</text>
<text text-anchor="middle" x="611" y="-63.5" font-family="Helvetica,sans-Serif" font-size="10.00" fill="#000000">_cost.cpp</text>
</a>
</g>
</g>
<!-- Node2&#45;&gt;Node7 -->
<g id="edge7" class="edge">
<title>Node2&#45;&gt;Node7</title>
<path fill="none" stroke="#191970" d="M1020.6357,-123.0012C863.6907,-95.5581 819.0308,-116.072 666,-87 663.0761,-86.4445 660.0822,-85.8064 657.0749,-85.1126"/>
<polygon fill="#191970" stroke="#191970" points="1020.1836,-126.4758 1030.6433,-124.7889 1021.4146,-119.5849 1020.1836,-126.4758"/>
</g>
<!-- Node8 -->
<g id="node9" class="node">
<title>Node8</title>
<g id="a_node9"><a xlink:href="pruner__optimize_8cpp.html" target="_top" xlink:title="fplll/pruner/pruner\l_optimize.cpp">
<polygon fill="#ffffff" stroke="#000000" points="675,-56.5 675,-86.5 767,-86.5 767,-56.5 675,-56.5"/>
<text text-anchor="start" x="683" y="-74.5" font-family="Helvetica,sans-Serif" font-size="10.00" fill="#000000">fplll/pruner/pruner</text>
<text text-anchor="middle" x="721" y="-63.5" font-family="Helvetica,sans-Serif" font-size="10.00" fill="#000000">_optimize.cpp</text>
</a>
</g>
</g>
<!-- Node2&#45;&gt;Node8 -->
<g id="edge9" class="edge">
<title>Node2&#45;&gt;Node8</title>
<path fill="none" stroke="#191970" d="M1020.5654,-122.8932C911.9283,-101.4122 880.9042,-109.3597 776,-87 773.0892,-86.3796 770.1053,-85.6917 767.1055,-84.9607"/>
<polygon fill="#191970" stroke="#191970" points="1020.1235,-126.3745 1030.618,-124.9202 1021.5072,-119.5126 1020.1235,-126.3745"/>
</g>
<!-- Node9 -->
<g id="node10" class="node">
<title>Node9</title>
<g id="a_node10"><a xlink:href="pruner__optimize__tc_8cpp.html" target="_top" xlink:title="fplll/pruner/pruner\l_optimize_tc.cpp">
<polygon fill="#ffffff" stroke="#000000" points="87,-56.5 87,-86.5 179,-86.5 179,-56.5 87,-56.5"/>
<text text-anchor="start" x="95" y="-74.5" font-family="Helvetica,sans-Serif" font-size="10.00" fill="#000000">fplll/pruner/pruner</text>
<text text-anchor="middle" x="133" y="-63.5" font-family="Helvetica,sans-Serif" font-size="10.00" fill="#000000">_optimize_tc.cpp</text>
</a>
</g>
</g>
<!-- Node2&#45;&gt;Node9 -->
<g id="edge11" class="edge">
<title>Node2&#45;&gt;Node9</title>
<path fill="none" stroke="#191970" d="M1020.5625,-123.1024C653.3238,-68.8742 551.0276,-145.1816 188,-87 185.0613,-86.529 182.0561,-85.9556 179.0403,-85.3101"/>
<polygon fill="#191970" stroke="#191970" points="1020.2632,-126.5966 1030.6717,-124.6181 1021.3012,-119.674 1020.2632,-126.5966"/>
</g>
<!-- Node10 -->
<g id="node11" class="node">
<title>Node10</title>
<g id="a_node11"><a xlink:href="pruner__optimize__tp_8cpp.html" target="_top" xlink:title="fplll/pruner/pruner\l_optimize_tp.cpp">
<polygon fill="#ffffff" stroke="#000000" points="197,-56.5 197,-86.5 289,-86.5 289,-56.5 197,-56.5"/>
<text text-anchor="start" x="205" y="-74.5" font-family="Helvetica,sans-Serif" font-size="10.00" fill="#000000">fplll/pruner/pruner</text>
<text text-anchor="middle" x="243" y="-63.5" font-family="Helvetica,sans-Serif" font-size="10.00" fill="#000000">_optimize_tp.cpp</text>
</a>
</g>
</g>
<!-- Node2&#45;&gt;Node10 -->
<g id="edge13" class="edge">
<title>Node2&#45;&gt;Node10</title>
<path fill="none" stroke="#191970" d="M1020.6829,-123.1082C701.7909,-75.0655 612.687,-138.4909 298,-87 295.0629,-86.5194 292.0589,-85.9386 289.0439,-85.2877"/>
<polygon fill="#191970" stroke="#191970" points="1020.2541,-126.5833 1030.6687,-124.6376 1021.3138,-119.664 1020.2541,-126.5833"/>
</g>
<!-- Node11 -->
<g id="node12" class="node">
<title>Node11</title>
<g id="a_node12"><a xlink:href="pruner__prob_8cpp.html" target="_top" xlink:title="fplll/pruner/pruner\l_prob.cpp">
<polygon fill="#ffffff" stroke="#000000" points="307,-56.5 307,-86.5 399,-86.5 399,-56.5 307,-56.5"/>
<text text-anchor="start" x="315" y="-74.5" font-family="Helvetica,sans-Serif" font-size="10.00" fill="#000000">fplll/pruner/pruner</text>
<text text-anchor="middle" x="353" y="-63.5" font-family="Helvetica,sans-Serif" font-size="10.00" fill="#000000">_prob.cpp</text>
</a>
</g>
</g>
<!-- Node2&#45;&gt;Node11 -->
<g id="edge15" class="edge">
<title>Node2&#45;&gt;Node11</title>
<path fill="none" stroke="#191970" d="M1020.5518,-123.0714C750.1977,-81.2672 674.2807,-131.7855 408,-87 405.0651,-86.5064 402.0627,-85.9156 399.049,-85.2572"/>
<polygon fill="#191970" stroke="#191970" points="1020.2418,-126.5657 1030.6646,-124.6639 1021.3308,-119.6509 1020.2418,-126.5657"/>
</g>
<!-- Node12 -->
<g id="node13" class="node">
<title>Node12</title>
<g id="a_node13"><a xlink:href="pruner__util_8cpp.html" target="_top" xlink:title="fplll/pruner/pruner\l_util.cpp">
<polygon fill="#ffffff" stroke="#000000" points="417,-56.5 417,-86.5 509,-86.5 509,-56.5 417,-56.5"/>
<text text-anchor="start" x="425" y="-74.5" font-family="Helvetica,sans-Serif" font-size="10.00" fill="#000000">fplll/pruner/pruner</text>
<text text-anchor="middle" x="463" y="-63.5" font-family="Helvetica,sans-Serif" font-size="10.00" fill="#000000">_util.cpp</text>
</a>
</g>
</g>
<!-- Node2&#45;&gt;Node12 -->
<g id="edge17" class="edge">
<title>Node2&#45;&gt;Node12</title>
<path fill="none" stroke="#191970" d="M1020.7453,-123.0747C800.8552,-87.6009 739.2137,-122.428 523,-87 518.4347,-86.2519 513.7102,-85.3179 509.0088,-84.2814"/>
<polygon fill="#191970" stroke="#191970" points="1020.2228,-126.5357 1030.6581,-124.7038 1021.3581,-119.6283 1020.2228,-126.5357"/>
</g>
<!-- Node13 -->
<g id="node14" class="node">
<title>Node13</title>
<g id="a_node14"><a xlink:href="sieve__main_8cpp.html" target="_top" xlink:title="fplll/sieve/sieve_main.cpp">
<polygon fill="#ffffff" stroke="#000000" points="785.5,-62 785.5,-81 914.5,-81 914.5,-62 785.5,-62"/>
<text text-anchor="middle" x="850" y="-69" font-family="Helvetica,sans-Serif" font-size="10.00" fill="#000000">fplll/sieve/sieve_main.cpp</text>
</a>
</g>
</g>
<!-- Node2&#45;&gt;Node13 -->
<g id="edge19" class="edge">
<title>Node2&#45;&gt;Node13</title>
<path fill="none" stroke="#191970" d="M1021.1714,-121.6288C981.3751,-109.9741 920.1733,-92.0508 882.7476,-81.0904"/>
<polygon fill="#191970" stroke="#191970" points="1020.2198,-124.997 1030.8004,-124.4487 1022.1872,-118.2792 1020.2198,-124.997"/>
</g>
<!-- Node14 -->
<g id="node15" class="node">
<title>Node14</title>
<g id="a_node15"><a xlink:href="test__bkz_8cpp.html" target="_top" xlink:title="tests/test_bkz.cpp">
<polygon fill="#ffffff" stroke="#000000" points="758,-.5 758,-19.5 856,-19.5 856,-.5 758,-.5"/>
<text text-anchor="middle" x="807" y="-7.5" font-family="Helvetica,sans-Serif" font-size="10.00" fill="#000000">tests/test_bkz.cpp</text>
</a>
</g>
</g>
<!-- Node2&#45;&gt;Node14 -->
<g id="edge20" class="edge">
<title>Node2&#45;&gt;Node14</title>
<path fill="none" stroke="#191970" d="M1034.108,-118.1993C997.5792,-97.3564 934.1067,-61.2939 923,-56 893.2739,-41.8313 857.953,-28.2711 834.1608,-19.5919"/>
<polygon fill="#191970" stroke="#191970" points="1032.7791,-121.4708 1043.1988,-123.3895 1036.2499,-115.3918 1032.7791,-121.4708"/>
</g>
<!-- Node15 -->
<g id="node16" class="node">
<title>Node15</title>
<g id="a_node16"><a xlink:href="test__bkz__gram_8cpp.html" target="_top" xlink:title="tests/test_bkz_gram.cpp">
<polygon fill="#ffffff" stroke="#000000" points="874.5,-.5 874.5,-19.5 999.5,-19.5 999.5,-.5 874.5,-.5"/>
<text text-anchor="middle" x="937" y="-7.5" font-family="Helvetica,sans-Serif" font-size="10.00" fill="#000000">tests/test_bkz_gram.cpp</text>
</a>
</g>
</g>
<!-- Node2&#45;&gt;Node15 -->
<g id="edge21" class="edge">
<title>Node2&#45;&gt;Node15</title>
<path fill="none" stroke="#191970" d="M1043.0212,-116.0212C1016.824,-89.824 967.4031,-40.4031 946.6068,-19.6068"/>
<polygon fill="#191970" stroke="#191970" points="1040.8024,-118.7522 1050.3484,-123.3484 1045.7522,-113.8024 1040.8024,-118.7522"/>
</g>
<!-- Node16 -->
<g id="node17" class="node">
<title>Node16</title>
<g id="a_node17"><a xlink:href="test__cvp_8cpp.html" target="_top" xlink:title="tests/test_cvp.cpp">
<polygon fill="#ffffff" stroke="#000000" points="1018,-.5 1018,-19.5 1116,-19.5 1116,-.5 1018,-.5"/>
<text text-anchor="middle" x="1067" y="-7.5" font-family="Helvetica,sans-Serif" font-size="10.00" fill="#000000">tests/test_cvp.cpp</text>
</a>
</g>
</g>
<!-- Node2&#45;&gt;Node16 -->
<g id="edge22" class="edge">
<title>Node2&#45;&gt;Node16</title>
<path fill="none" stroke="#191970" d="M1048.7367,-114.3325C1044.478,-106.2328 1040.144,-96.452 1038,-87 1034.9522,-73.5635 1034.1759,-69.2364 1038,-56 1041.9829,-42.214 1051.4597,-28.5821 1058.5023,-19.7814"/>
<polygon fill="#191970" stroke="#191970" points="1045.7929,-116.2385 1053.7417,-123.2433 1051.8961,-112.8105 1045.7929,-116.2385"/>
</g>
<!-- Node17 -->
<g id="node18" class="node">
<title>Node17</title>
<g id="a_node18"><a xlink:href="test__enum_8cpp.html" target="_top" xlink:title="tests/test_enum.cpp">
<polygon fill="#ffffff" stroke="#000000" points="1047,-62 1047,-81 1153,-81 1153,-62 1047,-62"/>
<text text-anchor="middle" x="1100" y="-69" font-family="Helvetica,sans-Serif" font-size="10.00" fill="#000000">tests/test_enum.cpp</text>
</a>
</g>
</g>
<!-- Node2&#45;&gt;Node17 -->
<g id="edge23" class="edge">
<title>Node2&#45;&gt;Node17</title>
<path fill="none" stroke="#191970" d="M1071.7614,-114.9169C1078.924,-103.9043 1087.7951,-90.265 1093.6619,-81.2449"/>
<polygon fill="#191970" stroke="#191970" points="1068.7683,-113.0994 1066.25,-123.3906 1074.6363,-116.916 1068.7683,-113.0994"/>
</g>
<!-- Node18 -->
<g id="node19" class="node">
<title>Node18</title>
<g id="a_node19"><a xlink:href="test__hlll_8cpp.html" target="_top" xlink:title="tests/test_hlll.cpp">
<polygon fill="#ffffff" stroke="#000000" points="1134,-.5 1134,-19.5 1228,-19.5 1228,-.5 1134,-.5"/>
<text text-anchor="middle" x="1181" y="-7.5" font-family="Helvetica,sans-Serif" font-size="10.00" fill="#000000">tests/test_hlll.cpp</text>
</a>
</g>
</g>
<!-- Node2&#45;&gt;Node18 -->
<g id="edge24" class="edge">
<title>Node2&#45;&gt;Node18</title>
<path fill="none" stroke="#191970" d="M1099.1827,-124.292C1120.6792,-117.5631 1146.115,-106.0703 1162,-87 1178.3911,-67.3221 1180.9939,-35.5909 1181.1917,-19.7091"/>
<polygon fill="#191970" stroke="#191970" points="1097.9549,-121.0035 1089.3194,-127.1417 1099.8979,-127.7284 1097.9549,-121.0035"/>
</g>
<!-- Node19 -->
<g id="node20" class="node">
<title>Node19</title>
<g id="a_node20"><a xlink:href="test__lll_8cpp.html" target="_top" xlink:title="tests/test_lll.cpp">
<polygon fill="#ffffff" stroke="#000000" points="1246.5,-.5 1246.5,-19.5 1335.5,-19.5 1335.5,-.5 1246.5,-.5"/>
<text text-anchor="middle" x="1291" y="-7.5" font-family="Helvetica,sans-Serif" font-size="10.00" fill="#000000">tests/test_lll.cpp</text>
</a>
</g>
</g>
<!-- Node2&#45;&gt;Node19 -->
<g id="edge25" class="edge">
<title>Node2&#45;&gt;Node19</title>
<path fill="none" stroke="#191970" d="M1098.8779,-121.5581C1123.9128,-113.4762 1156.7492,-101.5179 1184,-87 1221.5697,-66.9847 1261.0305,-35.4064 1279.8016,-19.6335"/>
<polygon fill="#191970" stroke="#191970" points="1097.4913,-118.3256 1089.0094,-124.6745 1099.5993,-125.0007 1097.4913,-118.3256"/>
</g>
<!-- Node20 -->
<g id="node21" class="node">
<title>Node20</title>
<g id="a_node21"><a xlink:href="test__lll__gram_8cpp.html" target="_top" xlink:title="tests/test_lll_gram.cpp">
<polygon fill="#ffffff" stroke="#000000" points="1353,-.5 1353,-19.5 1469,-19.5 1469,-.5 1353,-.5"/>
<text text-anchor="middle" x="1411" y="-7.5" font-family="Helvetica,sans-Serif" font-size="10.00" fill="#000000">tests/test_lll_gram.cpp</text>
</a>
</g>
</g>
<!-- Node2&#45;&gt;Node20 -->
<g id="edge26" class="edge">
<title>Node2&#45;&gt;Node20</title>
<path fill="none" stroke="#191970" d="M1099.377,-132.5145C1215.1954,-130.6818 1548.63,-122.354 1581,-87 1590.3041,-76.8382 1589.3739,-66.941 1581,-56 1573.3344,-45.9845 1504.9288,-29.7703 1457.2652,-19.5085"/>
<polygon fill="#191970" stroke="#191970" points="1099.1282,-129.0178 1089.182,-132.6678 1099.2335,-136.017 1099.1282,-129.0178"/>
</g>
<!-- Node21 -->
<g id="node22" class="node">
<title>Node21</title>
<g id="a_node22"><a xlink:href="test__nr_8cpp.html" target="_top" xlink:title="tests/test_nr.cpp">
<polygon fill="#ffffff" stroke="#000000" points="1355,-62 1355,-81 1445,-81 1445,-62 1355,-62"/>
<text text-anchor="middle" x="1400" y="-69" font-family="Helvetica,sans-Serif" font-size="10.00" fill="#000000">tests/test_nr.cpp</text>
</a>
</g>
</g>
<!-- Node2&#45;&gt;Node21 -->
<g id="edge27" class="edge">
<title>Node2&#45;&gt;Node21</title>
<path fill="none" stroke="#191970" d="M1099.4022,-128.0954C1154.646,-120.8894 1258.1034,-106.1909 1345,-87 1352.6528,-85.3099 1360.8201,-83.1868 1368.4555,-81.059"/>
<polygon fill="#191970" stroke="#191970" points="1098.8087,-124.6428 1089.3391,-129.3944 1099.705,-131.5852 1098.8087,-124.6428"/>
</g>
<!-- Node22 -->
<g id="node23" class="node">
<title>Node22</title>
<g id="a_node23"><a xlink:href="test__pruner_8cpp.html" target="_top" xlink:title="tests/test_pruner.cpp">
<polygon fill="#ffffff" stroke="#000000" points="1463.5,-62 1463.5,-81 1572.5,-81 1572.5,-62 1463.5,-62"/>
<text text-anchor="middle" x="1518" y="-69" font-family="Helvetica,sans-Serif" font-size="10.00" fill="#000000">tests/test_pruner.cpp</text>
</a>
</g>
</g>
<!-- Node2&#45;&gt;Node22 -->
<g id="edge28" class="edge">
<title>Node2&#45;&gt;Node22</title>
<path fill="none" stroke="#191970" d="M1099.6485,-129.974C1170.9454,-124.177 1325.3579,-109.9997 1454,-87 1463.1156,-85.3702 1472.87,-83.2201 1481.9463,-81.0419"/>
<polygon fill="#191970" stroke="#191970" points="1099.0285,-126.5124 1089.3403,-130.8005 1099.5881,-133.49 1099.0285,-126.5124"/>
</g>
<!-- Node23 -->
<g id="node24" class="node">
<title>Node23</title>
<g id="a_node24"><a xlink:href="test__sieve_8cpp.html" target="_top" xlink:title="tests/test_sieve.cpp">
<polygon fill="#ffffff" stroke="#000000" points="1487.5,-.5 1487.5,-19.5 1592.5,-19.5 1592.5,-.5 1487.5,-.5"/>
<text text-anchor="middle" x="1540" y="-7.5" font-family="Helvetica,sans-Serif" font-size="10.00" fill="#000000">tests/test_sieve.cpp</text>
</a>
</g>
</g>
<!-- Node2&#45;&gt;Node23 -->
<g id="edge29" class="edge">
<title>Node2&#45;&gt;Node23</title>
<path fill="none" stroke="#191970" d="M1099.1455,-132.6417C1217.4621,-131.1562 1565.3173,-123.6798 1599,-87 1608.3189,-76.8519 1605.046,-68.3803 1599,-56 1590.9635,-39.5439 1573.8815,-27.2606 1560.1561,-19.5457"/>
<polygon fill="#191970" stroke="#191970" points="1099.033,-129.1427 1089.075,-132.7605 1099.1156,-136.1422 1099.033,-129.1427"/>
</g>
<!-- Node24 -->
<g id="node25" class="node">
<title>Node24</title>
<g id="a_node25"><a xlink:href="test__svp_8cpp.html" target="_top" xlink:title="tests/test_svp.cpp">
<polygon fill="#ffffff" stroke="#000000" points="1611,-.5 1611,-19.5 1709,-19.5 1709,-.5 1611,-.5"/>
<text text-anchor="middle" x="1660" y="-7.5" font-family="Helvetica,sans-Serif" font-size="10.00" fill="#000000">tests/test_svp.cpp</text>
</a>
</g>
</g>
<!-- Node2&#45;&gt;Node24 -->
<g id="edge30" class="edge">
<title>Node2&#45;&gt;Node24</title>
<path fill="none" stroke="#191970" d="M1099.2132,-131.8527C1218.6792,-128.069 1572.6315,-114.6206 1616,-87 1640.6744,-71.2853 1652.9598,-36.4823 1657.6544,-19.5814"/>
<polygon fill="#191970" stroke="#191970" points="1098.9384,-128.3594 1089.0522,-132.169 1099.1562,-135.356 1098.9384,-128.3594"/>
</g>
<!-- Node25 -->
<g id="node26" class="node">
<title>Node25</title>
<g id="a_node26"><a xlink:href="test__svp__gram_8cpp.html" target="_top" xlink:title="tests/test_svp_gram.cpp">
<polygon fill="#ffffff" stroke="#000000" points="1727.5,-.5 1727.5,-19.5 1852.5,-19.5 1852.5,-.5 1727.5,-.5"/>
<text text-anchor="middle" x="1790" y="-7.5" font-family="Helvetica,sans-Serif" font-size="10.00" fill="#000000">tests/test_svp_gram.cpp</text>
</a>
</g>
</g>
<!-- Node2&#45;&gt;Node25 -->
<g id="edge31" class="edge">
<title>Node2&#45;&gt;Node25</title>
<path fill="none" stroke="#191970" d="M1099.1557,-131.9765C1212.8143,-128.6809 1541.2186,-116.774 1644,-87 1696.297,-71.8505 1751.3886,-36.7737 1776.3192,-19.6941"/>
<polygon fill="#191970" stroke="#191970" points="1099.0489,-128.478 1089.1522,-132.2603 1099.2474,-135.4752 1099.0489,-128.478"/>
</g>
<!-- Node26 -->
<g id="node27" class="node">
<title>Node26</title>
<g id="a_node27"><a xlink:href="test__utils_8h.html" target="_top" xlink:title="tests/test_utils.h">
<polygon fill="#ffffff" stroke="#000000" points="1247.5,-62 1247.5,-81 1336.5,-81 1336.5,-62 1247.5,-62"/>
<text text-anchor="middle" x="1292" y="-69" font-family="Helvetica,sans-Serif" font-size="10.00" fill="#000000">tests/test_utils.h</text>
</a>
</g>
</g>
<!-- Node2&#45;&gt;Node26 -->
<g id="edge32" class="edge">
<title>Node2&#45;&gt;Node26</title>
<path fill="none" stroke="#191970" d="M1099.119,-122.6301C1142.9694,-111.0059 1213.4825,-92.3139 1256.0125,-81.0398"/>
<polygon fill="#191970" stroke="#191970" points="1098.1523,-119.2654 1089.383,-125.211 1099.946,-126.0317 1098.1523,-119.2654"/>
</g>
<!-- Node5 -->
<g id="node6" class="node">
<title>Node5</title>
<g id="a_node6"><a xlink:href="main_8cpp.html" target="_top" xlink:title="fplll/main.cpp">
<polygon fill="#ffffff" stroke="#000000" points="0,-.5 0,-19.5 74,-19.5 74,-.5 0,-.5"/>
<text text-anchor="middle" x="37" y="-7.5" font-family="Helvetica,sans-Serif" font-size="10.00" fill="#000000">fplll/main.cpp</text>
</a>
</g>
</g>
<!-- Node4&#45;&gt;Node5 -->
<g id="edge5" class="edge">
<title>Node4&#45;&gt;Node5</title>
<path fill="none" stroke="#191970" d="M37,-51.7462C37,-41.0519 37,-28.314 37,-19.7449"/>
<polygon fill="#191970" stroke="#191970" points="33.5001,-51.8906 37,-61.8906 40.5001,-51.8907 33.5001,-51.8906"/>
</g>
<!-- Node7&#45;&gt;Node6 -->
<g id="edge8" class="edge">
<title>Node7&#45;&gt;Node6</title>
<path fill="none" stroke="#191970" d="M565.3805,-52.5433C539.0499,-41.6018 507.0692,-28.3126 485.9347,-19.5303"/>
<polygon fill="#191970" stroke="#191970" points="564.2176,-55.8501 574.7951,-56.4554 566.9037,-49.386 564.2176,-55.8501"/>
</g>
<!-- Node8&#45;&gt;Node6 -->
<g id="edge10" class="edge">
<title>Node8&#45;&gt;Node6</title>
<path fill="none" stroke="#191970" d="M664.908,-55.7884C605.5296,-40.8502 547.3826,-27.9674 508.3116,-19.5631"/>
<polygon fill="#191970" stroke="#191970" points="664.28,-59.2398 674.8332,-58.3019 665.9985,-52.454 664.28,-59.2398"/>
</g>
<!-- Node9&#45;&gt;Node6 -->
<g id="edge12" class="edge">
<title>Node9&#45;&gt;Node6</title>
<path fill="none" stroke="#191970" d="M189.0346,-55.9032C270.446,-38.0172 354.2851,-25.033 407.8735,-17.4173"/>
<polygon fill="#191970" stroke="#191970" points="188.122,-52.5206 179.1206,-58.1087 189.6421,-59.3536 188.122,-52.5206"/>
</g>
<!-- Node10&#45;&gt;Node6 -->
<g id="edge14" class="edge">
<title>Node10&#45;&gt;Node6</title>
<path fill="none" stroke="#191970" d="M298.9754,-55.7302C349.3352,-41.622 397.1815,-28.2982 428.5457,-19.5751"/>
<polygon fill="#191970" stroke="#191970" points="297.8953,-52.398 289.2108,-58.4668 299.7844,-59.1383 297.8953,-52.398"/>
</g>
<!-- Node11&#45;&gt;Node6 -->
<g id="edge16" class="edge">
<title>Node11&#45;&gt;Node6</title>
<path fill="none" stroke="#191970" d="M388.7204,-51.5291C407.9284,-40.79 430.7281,-28.0429 445.9539,-19.5303"/>
<polygon fill="#191970" stroke="#191970" points="386.9295,-48.5204 379.909,-56.4554 390.3455,-54.6303 386.9295,-48.5204"/>
</g>
<!-- Node12&#45;&gt;Node6 -->
<g id="edge18" class="edge">
<title>Node12&#45;&gt;Node6</title>
<path fill="none" stroke="#191970" d="M463,-46.2849C463,-36.9858 463,-26.9883 463,-19.8469"/>
<polygon fill="#191970" stroke="#191970" points="459.5001,-46.2977 463,-56.2977 466.5001,-46.2978 459.5001,-46.2977"/>
</g>
<!-- Node26&#45;&gt;Node14 -->
<g id="edge33" class="edge">
<title>Node26&#45;&gt;Node14</title>
<path fill="none" stroke="#191970" d="M1237.4758,-64.9985C1126.4854,-51.7536 883.2023,-22.6651 865,-20 862.068,-19.5707 859.0561,-19.1104 856.0198,-18.6315"/>
<polygon fill="#191970" stroke="#191970" points="1237.1287,-68.4818 1247.473,-66.1913 1237.9581,-61.5311 1237.1287,-68.4818"/>
</g>
<!-- Node26&#45;&gt;Node15 -->
<g id="edge34" class="edge">
<title>Node26&#45;&gt;Node15</title>
<path fill="none" stroke="#191970" d="M1237.5075,-62.0597C1170.8657,-50.5148 1058.7107,-31.0851 991.889,-19.5089"/>
<polygon fill="#191970" stroke="#191970" points="1236.9478,-65.5148 1247.3985,-63.7733 1238.1427,-58.6176 1236.9478,-65.5148"/>
</g>
<!-- Node26&#45;&gt;Node16 -->
<g id="edge35" class="edge">
<title>Node26&#45;&gt;Node16</title>
<path fill="none" stroke="#191970" d="M1246.9886,-59.1969C1204.2644,-47.5189 1140.94,-30.2103 1101.9094,-19.5419"/>
<polygon fill="#191970" stroke="#191970" points="1246.2748,-62.6301 1256.8438,-61.8906 1248.1204,-55.8778 1246.2748,-62.6301"/>
</g>
<!-- Node26&#45;&gt;Node18 -->
<g id="edge37" class="edge">
<title>Node26&#45;&gt;Node18</title>
<path fill="none" stroke="#191970" d="M1265.6759,-56.915C1244.8107,-45.3546 1216.2584,-29.535 1198.222,-19.5419"/>
<polygon fill="#191970" stroke="#191970" points="1264.2128,-60.1057 1274.6563,-61.8906 1267.6053,-53.9827 1264.2128,-60.1057"/>
</g>
<!-- Node26&#45;&gt;Node19 -->
<g id="edge38" class="edge">
<title>Node26&#45;&gt;Node19</title>
<path fill="none" stroke="#191970" d="M1291.6788,-51.7462C1291.5049,-41.0519 1291.2978,-28.314 1291.1585,-19.7449"/>
<polygon fill="#191970" stroke="#191970" points="1288.1815,-51.9489 1291.8438,-61.8906 1295.1806,-51.835 1288.1815,-51.9489"/>
</g>
<!-- Node26&#45;&gt;Node20 -->
<g id="edge39" class="edge">
<title>Node26&#45;&gt;Node20</title>
<path fill="none" stroke="#191970" d="M1319.6188,-57.2264C1342.0379,-45.6401 1373.0263,-29.6251 1392.5368,-19.5419"/>
<polygon fill="#191970" stroke="#191970" points="1317.8706,-54.1901 1310.5938,-61.8906 1321.0844,-60.4087 1317.8706,-54.1901"/>
</g>
<!-- Node26&#45;&gt;Node23 -->
<g id="edge40" class="edge">
<title>Node26&#45;&gt;Node23</title>
<path fill="none" stroke="#191970" d="M1334.098,-59.2107C1338.114,-58.1003 1342.1301,-57.0136 1346,-56 1397.7341,-42.4497 1457.6844,-28.5004 1497.0905,-19.5691"/>
<polygon fill="#191970" stroke="#191970" points="1332.8797,-55.9174 1324.1987,-61.9912 1334.7727,-62.6566 1332.8797,-55.9174"/>
</g>
<!-- Node26&#45;&gt;Node24 -->
<g id="edge41" class="edge">
<title>Node26&#45;&gt;Node24</title>
<path fill="none" stroke="#191970" d="M1332.2933,-59.2721C1336.8931,-58.0737 1341.5328,-56.9516 1346,-56 1457.9454,-32.153 1487.8987,-37.565 1601,-20 1604.1825,-19.5057 1607.4594,-18.9846 1610.7611,-18.4502"/>
<polygon fill="#191970" stroke="#191970" points="1331.0956,-55.9709 1322.3703,-61.9809 1332.939,-62.7239 1331.0956,-55.9709"/>
</g>
<!-- Node26&#45;&gt;Node25 -->
<g id="edge42" class="edge">
<title>Node26&#45;&gt;Node25</title>
<path fill="none" stroke="#191970" d="M1331.3551,-59.304C1336.2547,-58.0524 1341.2211,-56.9092 1346,-56 1509.179,-24.9561 1553.0345,-39.4296 1718,-20 1721.008,-19.6457 1724.0848,-19.27 1727.1911,-18.8799"/>
<polygon fill="#191970" stroke="#191970" points="1330.2083,-55.9885 1321.4737,-61.9849 1332.0413,-62.7443 1330.2083,-55.9885"/>
</g>
<!-- Node26&#45;&gt;Node27 -->
<g id="edge36" class="edge">
<title>Node26&#45;&gt;Node27</title>
<path fill="none" stroke="#191970" d="M1331.1573,-59.2238C1336.1174,-57.9759 1341.1524,-56.8554 1346,-56 1571.9567,-16.1291 1633.171,-47.204 1861,-20 1864.1979,-19.6182 1867.4865,-19.1821 1870.7969,-18.7107"/>
<polygon fill="#191970" stroke="#191970" points="1329.9081,-55.9356 1321.1652,-61.92 1331.7318,-62.6939 1329.9081,-55.9356"/>
</g>
</g>
</svg>
