<?xml version="1.0" encoding="UTF-8" standalone="no"?>
<!DOCTYPE svg PUBLIC "-//W3C//DTD SVG 1.1//EN"
 "http://www.w3.org/Graphics/SVG/1.1/DTD/svg11.dtd">
<!-- Generated by graphviz version 2.40.1 (20161225.0304)
 -->
<!-- Title: fplll/householder.h Pages: 1 -->
<svg width="1927pt" height="263pt"
 viewBox="0.00 0.00 1927.00 263.00" xmlns="http://www.w3.org/2000/svg" xmlns:xlink="http://www.w3.org/1999/xlink">
<g id="graph0" class="graph" transform="scale(1 1) rotate(0) translate(4 259)">
<title>fplll/householder.h</title>
<polygon fill="#ffffff" stroke="transparent" points="-4,4 -4,-259 1923,-259 1923,4 -4,4"/>
<!-- Node0 -->
<g id="node1" class="node">
<title>Node0</title>
<polygon fill="#bfbfbf" stroke="#000000" points="1737.5,-235.5 1737.5,-254.5 1832.5,-254.5 1832.5,-235.5 1737.5,-235.5"/>
<text text-anchor="middle" x="1785" y="-242.5" font-family="Helvetica,sans-Serif" font-size="10.00" fill="#000000">fplll/householder.h</text>
</g>
<!-- Node1 -->
<g id="node2" class="node">
<title>Node1</title>
<g id="a_node2"><a xlink:href="hlll_8h.html" target="_top" xlink:title="fplll/hlll.h">
<polygon fill="#ffffff" stroke="#000000" points="930.5,-179.5 930.5,-198.5 985.5,-198.5 985.5,-179.5 930.5,-179.5"/>
<text text-anchor="middle" x="958" y="-186.5" font-family="Helvetica,sans-Serif" font-size="10.00" fill="#000000">fplll/hlll.h</text>
</a>
</g>
</g>
<!-- Node0&#45;&gt;Node1 -->
<g id="edge1" class="edge">
<title>Node0&#45;&gt;Node1</title>
<path fill="none" stroke="#191970" d="M1726.935,-241.0682C1563.5016,-230.0013 1103.8138,-198.8737 985.8606,-190.8866"/>
<polygon fill="#191970" stroke="#191970" points="1727.0513,-244.5839 1737.2649,-241.7676 1727.5242,-237.5999 1727.0513,-244.5839"/>
</g>
<!-- Node26 -->
<g id="node27" class="node">
<title>Node26</title>
<g id="a_node27"><a xlink:href="test__gso_8cpp.html" target="_top" xlink:title="tests/test_gso.cpp">
<polygon fill="#ffffff" stroke="#000000" points="1735,-.5 1735,-19.5 1833,-19.5 1833,-.5 1735,-.5"/>
<text text-anchor="middle" x="1784" y="-7.5" font-family="Helvetica,sans-Serif" font-size="10.00" fill="#000000">tests/test_gso.cpp</text>
</a>
</g>
</g>
<!-- Node0&#45;&gt;Node26 -->
<g id="edge44" class="edge">
<title>Node0&#45;&gt;Node26</title>
<path fill="none" stroke="#191970" d="M1784.9169,-225.4619C1784.7124,-177.4192 1784.191,-54.8751 1784.0409,-19.6216"/>
<polygon fill="#191970" stroke="#191970" points="1781.4169,-225.5117 1784.9596,-235.4967 1788.4169,-225.4818 1781.4169,-225.5117"/>
</g>
<!-- Node29 -->
<g id="node30" class="node">
<title>Node29</title>
<g id="a_node30"><a xlink:href="householder_8cpp.html" target="_top" xlink:title="fplll/householder.cpp">
<polygon fill="#ffffff" stroke="#000000" points="1813,-179.5 1813,-198.5 1919,-198.5 1919,-179.5 1813,-179.5"/>
<text text-anchor="middle" x="1866" y="-186.5" font-family="Helvetica,sans-Serif" font-size="10.00" fill="#000000">fplll/householder.cpp</text>
</a>
</g>
</g>
<!-- Node0&#45;&gt;Node29 -->
<g id="edge43" class="edge">
<title>Node0&#45;&gt;Node29</title>
<path fill="none" stroke="#191970" d="M1807.434,-229.49C1821.7254,-219.6096 1839.7916,-207.1194 1852.0526,-198.6427"/>
<polygon fill="#191970" stroke="#191970" points="1805.3443,-226.6797 1799.1091,-235.2455 1809.3251,-232.4376 1805.3443,-226.6797"/>
</g>
<!-- Node2 -->
<g id="node3" class="node">
<title>Node2</title>
<g id="a_node3"><a xlink:href="fplll_8h.html" target="_top" xlink:title="fplll/fplll.h">
<polygon fill="#ffffff" stroke="#000000" points="974,-123.5 974,-142.5 1032,-142.5 1032,-123.5 974,-123.5"/>
<text text-anchor="middle" x="1003" y="-130.5" font-family="Helvetica,sans-Serif" font-size="10.00" fill="#000000">fplll/fplll.h</text>
</a>
</g>
</g>
<!-- Node1&#45;&gt;Node2 -->
<g id="edge2" class="edge">
<title>Node1&#45;&gt;Node2</title>
<path fill="none" stroke="#191970" d="M972.2946,-171.2112C979.8996,-161.7472 988.9538,-150.4797 995.2514,-142.6427"/>
<polygon fill="#191970" stroke="#191970" points="969.3741,-169.2581 965.8384,-179.2455 974.8306,-173.6428 969.3741,-169.2581"/>
</g>
<!-- Node27 -->
<g id="node28" class="node">
<title>Node27</title>
<g id="a_node28"><a xlink:href="hlll_8cpp.html" target="_top" xlink:title="fplll/hlll.cpp">
<polygon fill="#ffffff" stroke="#000000" points="784.5,-123.5 784.5,-142.5 849.5,-142.5 849.5,-123.5 784.5,-123.5"/>
<text text-anchor="middle" x="817" y="-130.5" font-family="Helvetica,sans-Serif" font-size="10.00" fill="#000000">fplll/hlll.cpp</text>
</a>
</g>
</g>
<!-- Node1&#45;&gt;Node27 -->
<g id="edge41" class="edge">
<title>Node1&#45;&gt;Node27</title>
<path fill="none" stroke="#191970" d="M924.3968,-175.6541C898.6841,-165.4419 863.8539,-151.6086 840.9225,-142.5011"/>
<polygon fill="#191970" stroke="#191970" points="923.1755,-178.9349 933.7612,-179.3733 925.7593,-172.4292 923.1755,-178.9349"/>
</g>
<!-- Node28 -->
<g id="node29" class="node">
<title>Node28</title>
<g id="a_node29"><a xlink:href="wrapper_8cpp.html" target="_top" xlink:title="fplll/wrapper.cpp">
<polygon fill="#ffffff" stroke="#000000" points="868,-123.5 868,-142.5 956,-142.5 956,-123.5 868,-123.5"/>
<text text-anchor="middle" x="912" y="-130.5" font-family="Helvetica,sans-Serif" font-size="10.00" fill="#000000">fplll/wrapper.cpp</text>
</a>
</g>
</g>
<!-- Node1&#45;&gt;Node28 -->
<g id="edge42" class="edge">
<title>Node1&#45;&gt;Node28</title>
<path fill="none" stroke="#191970" d="M943.6253,-171.5004C935.8029,-161.9775 926.424,-150.5596 919.9208,-142.6427"/>
<polygon fill="#191970" stroke="#191970" points="940.9354,-173.7399 949.9874,-179.2455 946.3445,-169.2967 940.9354,-173.7399"/>
</g>
<!-- Node3 -->
<g id="node4" class="node">
<title>Node3</title>
<g id="a_node4"><a xlink:href="fplll_8cpp.html" target="_top" xlink:title="fplll/fplll.cpp">
<polygon fill="#ffffff" stroke="#000000" points="1689,-62 1689,-81 1757,-81 1757,-62 1689,-62"/>
<text text-anchor="middle" x="1723" y="-69" font-family="Helvetica,sans-Serif" font-size="10.00" fill="#000000">fplll/fplll.cpp</text>
</a>
</g>
</g>
<!-- Node2&#45;&gt;Node3 -->
<g id="edge3" class="edge">
<title>Node2&#45;&gt;Node3</title>
<path fill="none" stroke="#191970" d="M1042.232,-131.5721C1166.8079,-126.8404 1552.4062,-110.6212 1675,-87 1682.395,-85.5751 1690.2385,-83.3584 1697.3946,-81.0425"/>
<polygon fill="#191970" stroke="#191970" points="1041.8788,-128.0828 1032.0175,-131.9565 1042.1421,-135.0779 1041.8788,-128.0828"/>
</g>
<!-- Node4 -->
<g id="node5" class="node">
<title>Node4</title>
<g id="a_node5"><a xlink:href="main_8h.html" target="_top" xlink:title="fplll/main.h">
<polygon fill="#ffffff" stroke="#000000" points="5,-62 5,-81 69,-81 69,-62 5,-62"/>
<text text-anchor="middle" x="37" y="-69" font-family="Helvetica,sans-Serif" font-size="10.00" fill="#000000">fplll/main.h</text>
</a>
</g>
</g>
<!-- Node2&#45;&gt;Node4 -->
<g id="edge4" class="edge">
<title>Node2&#45;&gt;Node4</title>
<path fill="none" stroke="#191970" d="M963.5112,-123.1035C572.9177,-66.1701 461.2998,-165.0988 78,-87 71.4383,-85.663 64.543,-83.4137 58.3188,-81.0372"/>
<polygon fill="#191970" stroke="#191970" points="963.2675,-126.6056 973.6728,-124.6105 964.2945,-119.6813 963.2675,-126.6056"/>
</g>
<!-- Node6 -->
<g id="node7" class="node">
<title>Node6</title>
<g id="a_node7"><a xlink:href="pruner_8cpp.html" target="_top" xlink:title="fplll/pruner/pruner.cpp">
<polygon fill="#ffffff" stroke="#000000" points="408,-.5 408,-19.5 518,-19.5 518,-.5 408,-.5"/>
<text text-anchor="middle" x="463" y="-7.5" font-family="Helvetica,sans-Serif" font-size="10.00" fill="#000000">fplll/pruner/pruner.cpp</text>
</a>
</g>
</g>
<!-- Node2&#45;&gt;Node6 -->
<g id="edge6" class="edge">
<title>Node2&#45;&gt;Node6</title>
<path fill="none" stroke="#191970" d="M963.5397,-122.9922C831.3117,-99.8778 786.1679,-138.0982 666,-87 645.9422,-78.4709 647.3521,-66.0279 628,-56 593.543,-38.1449 551.3389,-26.54 518.2402,-19.4529"/>
<polygon fill="#191970" stroke="#191970" points="963.1652,-126.4819 973.6329,-124.8451 964.4292,-119.597 963.1652,-126.4819"/>
</g>
<!-- Node7 -->
<g id="node8" class="node">
<title>Node7</title>
<g id="a_node8"><a xlink:href="pruner__cost_8cpp.html" target="_top" xlink:title="fplll/pruner/pruner\l_cost.cpp">
<polygon fill="#ffffff" stroke="#000000" points="675,-56.5 675,-86.5 767,-86.5 767,-56.5 675,-56.5"/>
<text text-anchor="start" x="683" y="-74.5" font-family="Helvetica,sans-Serif" font-size="10.00" fill="#000000">fplll/pruner/pruner</text>
<text text-anchor="middle" x="721" y="-63.5" font-family="Helvetica,sans-Serif" font-size="10.00" fill="#000000">_cost.cpp</text>
</a>
</g>
</g>
<!-- Node2&#45;&gt;Node7 -->
<g id="edge7" class="edge">
<title>Node2&#45;&gt;Node7</title>
<path fill="none" stroke="#191970" d="M963.3679,-122.7351C882.0052,-104.4389 859.0904,-104.7094 781,-87 776.4883,-85.9768 771.7995,-84.8601 767.1203,-83.7101"/>
<polygon fill="#191970" stroke="#191970" points="963.0602,-126.2545 973.5876,-125.0608 964.6136,-119.429 963.0602,-126.2545"/>
</g>
<!-- Node8 -->
<g id="node9" class="node">
<title>Node8</title>
<g id="a_node9"><a xlink:href="pruner__optimize_8cpp.html" target="_top" xlink:title="fplll/pruner/pruner\l_optimize.cpp">
<polygon fill="#ffffff" stroke="#000000" points="87,-56.5 87,-86.5 179,-86.5 179,-56.5 87,-56.5"/>
<text text-anchor="start" x="95" y="-74.5" font-family="Helvetica,sans-Serif" font-size="10.00" fill="#000000">fplll/pruner/pruner</text>
<text text-anchor="middle" x="133" y="-63.5" font-family="Helvetica,sans-Serif" font-size="10.00" fill="#000000">_optimize.cpp</text>
</a>
</g>
</g>
<!-- Node2&#45;&gt;Node8 -->
<g id="edge9" class="edge">
<title>Node2&#45;&gt;Node8</title>
<path fill="none" stroke="#191970" d="M963.7306,-123.1216C621.4596,-72.0702 526.0115,-141.7203 188,-87 185.0621,-86.5244 182.0574,-85.9474 179.042,-85.2993"/>
<polygon fill="#191970" stroke="#191970" points="963.2588,-126.5899 973.6703,-124.6275 964.3074,-119.6689 963.2588,-126.5899"/>
</g>
<!-- Node9 -->
<g id="node10" class="node">
<title>Node9</title>
<g id="a_node10"><a xlink:href="pruner__optimize__tc_8cpp.html" target="_top" xlink:title="fplll/pruner/pruner\l_optimize_tc.cpp">
<polygon fill="#ffffff" stroke="#000000" points="197,-56.5 197,-86.5 289,-86.5 289,-56.5 197,-56.5"/>
<text text-anchor="start" x="205" y="-74.5" font-family="Helvetica,sans-Serif" font-size="10.00" fill="#000000">fplll/pruner/pruner</text>
<text text-anchor="middle" x="243" y="-63.5" font-family="Helvetica,sans-Serif" font-size="10.00" fill="#000000">_optimize_tc.cpp</text>
</a>
</g>
</g>
<!-- Node2&#45;&gt;Node9 -->
<g id="edge11" class="edge">
<title>Node2&#45;&gt;Node9</title>
<path fill="none" stroke="#191970" d="M963.5765,-123.0842C669.8694,-78.2879 587.5884,-135.0143 298,-87 295.0639,-86.5132 292.0607,-85.9276 289.0463,-85.2731"/>
<polygon fill="#191970" stroke="#191970" points="963.2483,-126.575 973.6667,-124.6501 964.3218,-119.6578 963.2483,-126.575"/>
</g>
<!-- Node10 -->
<g id="node11" class="node">
<title>Node10</title>
<g id="a_node11"><a xlink:href="pruner__optimize__tp_8cpp.html" target="_top" xlink:title="fplll/pruner/pruner\l_optimize_tp.cpp">
<polygon fill="#ffffff" stroke="#000000" points="307,-56.5 307,-86.5 399,-86.5 399,-56.5 307,-56.5"/>
<text text-anchor="start" x="315" y="-74.5" font-family="Helvetica,sans-Serif" font-size="10.00" fill="#000000">fplll/pruner/pruner</text>
<text text-anchor="middle" x="353" y="-63.5" font-family="Helvetica,sans-Serif" font-size="10.00" fill="#000000">_optimize_tp.cpp</text>
</a>
</g>
</g>
<!-- Node2&#45;&gt;Node10 -->
<g id="edge13" class="edge">
<title>Node2&#45;&gt;Node10</title>
<path fill="none" stroke="#191970" d="M963.7306,-123.088C718.3197,-84.437 649.2885,-128.324 408,-87 405.0665,-86.4976 402.0653,-85.9001 399.0525,-85.2367"/>
<polygon fill="#191970" stroke="#191970" points="963.2335,-126.5529 973.6617,-124.6816 964.3426,-119.6413 963.2335,-126.5529"/>
</g>
<!-- Node11 -->
<g id="node12" class="node">
<title>Node11</title>
<g id="a_node12"><a xlink:href="pruner__prob_8cpp.html" target="_top" xlink:title="fplll/pruner/pruner\l_prob.cpp">
<polygon fill="#ffffff" stroke="#000000" points="417,-56.5 417,-86.5 509,-86.5 509,-56.5 417,-56.5"/>
<text text-anchor="start" x="425" y="-74.5" font-family="Helvetica,sans-Serif" font-size="10.00" fill="#000000">fplll/pruner/pruner</text>
<text text-anchor="middle" x="463" y="-63.5" font-family="Helvetica,sans-Serif" font-size="10.00" fill="#000000">_prob.cpp</text>
</a>
</g>
</g>
<!-- Node2&#45;&gt;Node11 -->
<g id="edge15" class="edge">
<title>Node2&#45;&gt;Node11</title>
<path fill="none" stroke="#191970" d="M963.5608,-123.0299C766.6807,-90.5742 710.9205,-121.6133 518,-87 515.0706,-86.4744 512.0725,-85.8592 509.062,-85.1825"/>
<polygon fill="#191970" stroke="#191970" points="963.2117,-126.5203 973.6539,-124.7285 964.3735,-119.6173 963.2117,-126.5203"/>
</g>
<!-- Node12 -->
<g id="node13" class="node">
<title>Node12</title>
<g id="a_node13"><a xlink:href="pruner__util_8cpp.html" target="_top" xlink:title="fplll/pruner/pruner\l_util.cpp">
<polygon fill="#ffffff" stroke="#000000" points="527,-56.5 527,-86.5 619,-86.5 619,-56.5 527,-56.5"/>
<text text-anchor="start" x="535" y="-74.5" font-family="Helvetica,sans-Serif" font-size="10.00" fill="#000000">fplll/pruner/pruner</text>
<text text-anchor="middle" x="573" y="-63.5" font-family="Helvetica,sans-Serif" font-size="10.00" fill="#000000">_util.cpp</text>
</a>
</g>
</g>
<!-- Node2&#45;&gt;Node12 -->
<g id="edge17" class="edge">
<title>Node2&#45;&gt;Node12</title>
<path fill="none" stroke="#191970" d="M963.3935,-122.9407C817.1968,-96.8069 775.7321,-113.0332 633,-87 628.4489,-86.1699 623.7338,-85.1814 619.0383,-84.111"/>
<polygon fill="#191970" stroke="#191970" points="963.1735,-126.4583 973.6394,-124.8103 964.4301,-119.572 963.1735,-126.4583"/>
</g>
<!-- Node13 -->
<g id="node14" class="node">
<title>Node13</title>
<g id="a_node14"><a xlink:href="test__bkz_8cpp.html" target="_top" xlink:title="tests/test_bkz.cpp">
<polygon fill="#ffffff" stroke="#000000" points="743,-.5 743,-19.5 841,-19.5 841,-.5 743,-.5"/>
<text text-anchor="middle" x="792" y="-7.5" font-family="Helvetica,sans-Serif" font-size="10.00" fill="#000000">tests/test_bkz.cpp</text>
</a>
</g>
</g>
<!-- Node2&#45;&gt;Node13 -->
<g id="edge19" class="edge">
<title>Node2&#45;&gt;Node13</title>
<path fill="none" stroke="#191970" d="M963.8661,-122.477C918.1278,-110.0701 847.9969,-90.6653 843,-87 818.6934,-69.1705 802.5825,-36.0015 795.7386,-19.6384"/>
<polygon fill="#191970" stroke="#191970" points="963.2193,-125.9278 973.7864,-125.1621 965.0482,-119.1709 963.2193,-125.9278"/>
</g>
<!-- Node14 -->
<g id="node15" class="node">
<title>Node14</title>
<g id="a_node15"><a xlink:href="test__bkz__gram_8cpp.html" target="_top" xlink:title="tests/test_bkz_gram.cpp">
<polygon fill="#ffffff" stroke="#000000" points="859.5,-.5 859.5,-19.5 984.5,-19.5 984.5,-.5 859.5,-.5"/>
<text text-anchor="middle" x="922" y="-7.5" font-family="Helvetica,sans-Serif" font-size="10.00" fill="#000000">tests/test_bkz_gram.cpp</text>
</a>
</g>
</g>
<!-- Node2&#45;&gt;Node14 -->
<g id="edge20" class="edge">
<title>Node2&#45;&gt;Node14</title>
<path fill="none" stroke="#191970" d="M963.9695,-122.3514C920.3876,-110.2775 855.4523,-91.6606 852,-87 843.7991,-75.9287 845.4587,-68.1259 852,-56 861.3206,-38.7221 880.2773,-26.8748 896.115,-19.5353"/>
<polygon fill="#191970" stroke="#191970" points="963.1553,-125.7575 973.726,-125.0441 965.0176,-119.0097 963.1553,-125.7575"/>
</g>
<!-- Node15 -->
<g id="node16" class="node">
<title>Node15</title>
<g id="a_node16"><a xlink:href="test__counter_8cpp.html" target="_top" xlink:title="tests/test_counter.cpp">
<polygon fill="#ffffff" stroke="#000000" points="861,-62 861,-81 975,-81 975,-62 861,-62"/>
<text text-anchor="middle" x="918" y="-69" font-family="Helvetica,sans-Serif" font-size="10.00" fill="#000000">tests/test_counter.cpp</text>
</a>
</g>
</g>
<!-- Node2&#45;&gt;Node15 -->
<g id="edge21" class="edge">
<title>Node2&#45;&gt;Node15</title>
<path fill="none" stroke="#191970" d="M981.5338,-117.4685C965.6881,-106.0037 944.6264,-90.765 931.188,-81.0419"/>
<polygon fill="#191970" stroke="#191970" points="979.5653,-120.3643 989.7188,-123.3906 983.6686,-114.6931 979.5653,-120.3643"/>
</g>
<!-- Node16 -->
<g id="node17" class="node">
<title>Node16</title>
<g id="a_node17"><a xlink:href="test__cvp_8cpp.html" target="_top" xlink:title="tests/test_cvp.cpp">
<polygon fill="#ffffff" stroke="#000000" points="1003,-.5 1003,-19.5 1101,-19.5 1101,-.5 1003,-.5"/>
<text text-anchor="middle" x="1052" y="-7.5" font-family="Helvetica,sans-Serif" font-size="10.00" fill="#000000">tests/test_cvp.cpp</text>
</a>
</g>
</g>
<!-- Node2&#45;&gt;Node16 -->
<g id="edge22" class="edge">
<title>Node2&#45;&gt;Node16</title>
<path fill="none" stroke="#191970" d="M1006.0452,-112.9277C1008.9039,-97.0288 1013.9636,-74.4946 1022,-56 1027.8516,-42.5334 1037.5193,-28.6225 1044.2943,-19.675"/>
<polygon fill="#191970" stroke="#191970" points="1002.5283,-112.7407 1004.3415,-123.1792 1009.4336,-113.8883 1002.5283,-112.7407"/>
</g>
<!-- Node17 -->
<g id="node18" class="node">
<title>Node17</title>
<g id="a_node18"><a xlink:href="test__enum_8cpp.html" target="_top" xlink:title="tests/test_enum.cpp">
<polygon fill="#ffffff" stroke="#000000" points="1031,-62 1031,-81 1137,-81 1137,-62 1031,-62"/>
<text text-anchor="middle" x="1084" y="-69" font-family="Helvetica,sans-Serif" font-size="10.00" fill="#000000">tests/test_enum.cpp</text>
</a>
</g>
</g>
<!-- Node2&#45;&gt;Node17 -->
<g id="edge23" class="edge">
<title>Node2&#45;&gt;Node17</title>
<path fill="none" stroke="#191970" d="M1023.8768,-117.1491C1038.9271,-105.722 1058.7452,-90.6749 1071.4326,-81.0419"/>
<polygon fill="#191970" stroke="#191970" points="1021.5042,-114.5559 1015.6563,-123.3906 1025.7372,-120.1311 1021.5042,-114.5559"/>
</g>
<!-- Node18 -->
<g id="node19" class="node">
<title>Node18</title>
<g id="a_node19"><a xlink:href="test__hlll_8cpp.html" target="_top" xlink:title="tests/test_hlll.cpp">
<polygon fill="#ffffff" stroke="#000000" points="1119,-.5 1119,-19.5 1213,-19.5 1213,-.5 1119,-.5"/>
<text text-anchor="middle" x="1166" y="-7.5" font-family="Helvetica,sans-Serif" font-size="10.00" fill="#000000">tests/test_hlll.cpp</text>
</a>
</g>
</g>
<!-- Node2&#45;&gt;Node18 -->
<g id="edge24" class="edge">
<title>Node2&#45;&gt;Node18</title>
<path fill="none" stroke="#191970" d="M1042.2298,-124.838C1079.422,-116.3377 1131.678,-102.1641 1146,-87 1163.7342,-68.2231 1166.2315,-35.7921 1166.2894,-19.6738"/>
<polygon fill="#191970" stroke="#191970" points="1041.1801,-121.4861 1032.1831,-127.0812 1042.7055,-128.3179 1041.1801,-121.4861"/>
</g>
<!-- Node19 -->
<g id="node20" class="node">
<title>Node19</title>
<g id="a_node20"><a xlink:href="test__lll_8cpp.html" target="_top" xlink:title="tests/test_lll.cpp">
<polygon fill="#ffffff" stroke="#000000" points="1231.5,-.5 1231.5,-19.5 1320.5,-19.5 1320.5,-.5 1231.5,-.5"/>
<text text-anchor="middle" x="1276" y="-7.5" font-family="Helvetica,sans-Serif" font-size="10.00" fill="#000000">tests/test_lll.cpp</text>
</a>
</g>
</g>
<!-- Node2&#45;&gt;Node19 -->
<g id="edge25" class="edge">
<title>Node2&#45;&gt;Node19</title>
<path fill="none" stroke="#191970" d="M1042.2049,-126.0739C1076.5249,-119.0882 1127.1453,-106.5153 1168,-87 1206.8561,-68.4394 1246.573,-35.9087 1265.1601,-19.7209"/>
<polygon fill="#191970" stroke="#191970" points="1041.2407,-122.6965 1032.1061,-128.064 1042.5941,-129.5644 1041.2407,-122.6965"/>
</g>
<!-- Node20 -->
<g id="node21" class="node">
<title>Node20</title>
<g id="a_node21"><a xlink:href="test__lll__gram_8cpp.html" target="_top" xlink:title="tests/test_lll_gram.cpp">
<polygon fill="#ffffff" stroke="#000000" points="1340,-.5 1340,-19.5 1456,-19.5 1456,-.5 1340,-.5"/>
<text text-anchor="middle" x="1398" y="-7.5" font-family="Helvetica,sans-Serif" font-size="10.00" fill="#000000">tests/test_lll_gram.cpp</text>
</a>
</g>
</g>
<!-- Node2&#45;&gt;Node20 -->
<g id="edge26" class="edge">
<title>Node2&#45;&gt;Node20</title>
<path fill="none" stroke="#191970" d="M1042.3877,-131.2281C1167.2761,-125.4219 1547.2734,-106.2368 1565,-87 1574.3365,-76.868 1573.3492,-66.9599 1565,-56 1557.4827,-46.1321 1490.2804,-29.8752 1443.4537,-19.5644"/>
<polygon fill="#191970" stroke="#191970" points="1041.9612,-127.744 1032.1333,-131.7014 1042.284,-134.7365 1041.9612,-127.744"/>
</g>
<!-- Node21 -->
<g id="node22" class="node">
<title>Node21</title>
<g id="a_node22"><a xlink:href="test__nr_8cpp.html" target="_top" xlink:title="tests/test_nr.cpp">
<polygon fill="#ffffff" stroke="#000000" points="1339,-62 1339,-81 1429,-81 1429,-62 1339,-62"/>
<text text-anchor="middle" x="1384" y="-69" font-family="Helvetica,sans-Serif" font-size="10.00" fill="#000000">tests/test_nr.cpp</text>
</a>
</g>
</g>
<!-- Node2&#45;&gt;Node21 -->
<g id="edge27" class="edge">
<title>Node2&#45;&gt;Node21</title>
<path fill="none" stroke="#191970" d="M1042.0444,-129.2077C1103.5148,-122.8527 1226.425,-108.5883 1329,-87 1336.8634,-85.345 1345.2569,-83.1856 1353.0579,-81.0066"/>
<polygon fill="#191970" stroke="#191970" points="1041.602,-125.7346 1032.0087,-130.2311 1042.3122,-132.6984 1041.602,-125.7346"/>
</g>
<!-- Node22 -->
<g id="node23" class="node">
<title>Node22</title>
<g id="a_node23"><a xlink:href="test__pruner_8cpp.html" target="_top" xlink:title="tests/test_pruner.cpp">
<polygon fill="#ffffff" stroke="#000000" points="1447.5,-62 1447.5,-81 1556.5,-81 1556.5,-62 1447.5,-62"/>
<text text-anchor="middle" x="1502" y="-69" font-family="Helvetica,sans-Serif" font-size="10.00" fill="#000000">tests/test_pruner.cpp</text>
</a>
</g>
</g>
<!-- Node2&#45;&gt;Node22 -->
<g id="edge28" class="edge">
<title>Node2&#45;&gt;Node22</title>
<path fill="none" stroke="#191970" d="M1042.3478,-130.5896C1118.9493,-125.5115 1293.2801,-112.0633 1438,-87 1447.237,-85.4003 1457.123,-83.2351 1466.2944,-81.0308"/>
<polygon fill="#191970" stroke="#191970" points="1041.9521,-127.1079 1032.2009,-131.251 1042.4074,-134.0931 1041.9521,-127.1079"/>
</g>
<!-- Node23 -->
<g id="node24" class="node">
<title>Node23</title>
<g id="a_node24"><a xlink:href="test__svp_8cpp.html" target="_top" xlink:title="tests/test_svp.cpp">
<polygon fill="#ffffff" stroke="#000000" points="1475,-.5 1475,-19.5 1573,-19.5 1573,-.5 1475,-.5"/>
<text text-anchor="middle" x="1524" y="-7.5" font-family="Helvetica,sans-Serif" font-size="10.00" fill="#000000">tests/test_svp.cpp</text>
</a>
</g>
</g>
<!-- Node2&#45;&gt;Node23 -->
<g id="edge29" class="edge">
<title>Node2&#45;&gt;Node23</title>
<path fill="none" stroke="#191970" d="M1042.3878,-131.3315C1169.954,-125.7395 1564.6242,-106.8908 1583,-87 1592.3493,-76.8798 1589.046,-68.3803 1583,-56 1574.9635,-39.5439 1557.8815,-27.2606 1544.1561,-19.5457"/>
<polygon fill="#191970" stroke="#191970" points="1042.1152,-127.8399 1032.2768,-131.7714 1042.4195,-134.8333 1042.1152,-127.8399"/>
</g>
<!-- Node24 -->
<g id="node25" class="node">
<title>Node24</title>
<g id="a_node25"><a xlink:href="test__svp__gram_8cpp.html" target="_top" xlink:title="tests/test_svp_gram.cpp">
<polygon fill="#ffffff" stroke="#000000" points="1591.5,-.5 1591.5,-19.5 1716.5,-19.5 1716.5,-.5 1591.5,-.5"/>
<text text-anchor="middle" x="1654" y="-7.5" font-family="Helvetica,sans-Serif" font-size="10.00" fill="#000000">tests/test_svp_gram.cpp</text>
</a>
</g>
</g>
<!-- Node2&#45;&gt;Node24 -->
<g id="edge30" class="edge">
<title>Node2&#45;&gt;Node24</title>
<path fill="none" stroke="#191970" d="M1042.4377,-131.9035C1167.7956,-128.1515 1551.7346,-114.5101 1600,-87 1626.9521,-71.638 1643.6427,-36.6641 1650.4573,-19.6518"/>
<polygon fill="#191970" stroke="#191970" points="1042.0431,-128.4135 1032.1505,-132.2065 1042.2492,-135.4105 1042.0431,-128.4135"/>
</g>
<!-- Node25 -->
<g id="node26" class="node">
<title>Node25</title>
<g id="a_node26"><a xlink:href="test__utils_8h.html" target="_top" xlink:title="tests/test_utils.h">
<polygon fill="#ffffff" stroke="#000000" points="1231.5,-62 1231.5,-81 1320.5,-81 1320.5,-62 1231.5,-62"/>
<text text-anchor="middle" x="1276" y="-69" font-family="Helvetica,sans-Serif" font-size="10.00" fill="#000000">tests/test_utils.h</text>
</a>
</g>
</g>
<!-- Node2&#45;&gt;Node25 -->
<g id="edge31" class="edge">
<title>Node2&#45;&gt;Node25</title>
<path fill="none" stroke="#191970" d="M1042.2157,-125.1244C1085.2232,-116.3585 1156.2176,-101.509 1217,-87 1224.7259,-85.1558 1232.9889,-83.0618 1240.8112,-81.0227"/>
<polygon fill="#191970" stroke="#191970" points="1041.2728,-121.7444 1032.1697,-127.1651 1042.6663,-128.6043 1041.2728,-121.7444"/>
</g>
<!-- Node5 -->
<g id="node6" class="node">
<title>Node5</title>
<g id="a_node6"><a xlink:href="main_8cpp.html" target="_top" xlink:title="fplll/main.cpp">
<polygon fill="#ffffff" stroke="#000000" points="0,-.5 0,-19.5 74,-19.5 74,-.5 0,-.5"/>
<text text-anchor="middle" x="37" y="-7.5" font-family="Helvetica,sans-Serif" font-size="10.00" fill="#000000">fplll/main.cpp</text>
</a>
</g>
</g>
<!-- Node4&#45;&gt;Node5 -->
<g id="edge5" class="edge">
<title>Node4&#45;&gt;Node5</title>
<path fill="none" stroke="#191970" d="M37,-51.7462C37,-41.0519 37,-28.314 37,-19.7449"/>
<polygon fill="#191970" stroke="#191970" points="33.5001,-51.8906 37,-61.8906 40.5001,-51.8907 33.5001,-51.8906"/>
</g>
<!-- Node7&#45;&gt;Node6 -->
<g id="edge8" class="edge">
<title>Node7&#45;&gt;Node6</title>
<path fill="none" stroke="#191970" d="M664.8303,-56.9446C663.5418,-56.6252 662.2637,-56.31 661,-56 607.5318,-42.8848 545.7031,-28.6722 505.558,-19.5699"/>
<polygon fill="#191970" stroke="#191970" points="664.2901,-60.4174 674.841,-59.4539 665.9921,-53.6275 664.2901,-60.4174"/>
</g>
<!-- Node8&#45;&gt;Node6 -->
<g id="edge10" class="edge">
<title>Node8&#45;&gt;Node6</title>
<path fill="none" stroke="#191970" d="M189.0346,-55.9032C270.446,-38.0172 354.2851,-25.033 407.8735,-17.4173"/>
<polygon fill="#191970" stroke="#191970" points="188.122,-52.5206 179.1206,-58.1087 189.6421,-59.3536 188.122,-52.5206"/>
</g>
<!-- Node9&#45;&gt;Node6 -->
<g id="edge12" class="edge">
<title>Node9&#45;&gt;Node6</title>
<path fill="none" stroke="#191970" d="M298.9754,-55.7302C349.3352,-41.622 397.1815,-28.2982 428.5457,-19.5751"/>
<polygon fill="#191970" stroke="#191970" points="297.8953,-52.398 289.2108,-58.4668 299.7844,-59.1383 297.8953,-52.398"/>
</g>
<!-- Node10&#45;&gt;Node6 -->
<g id="edge14" class="edge">
<title>Node10&#45;&gt;Node6</title>
<path fill="none" stroke="#191970" d="M388.7204,-51.5291C407.9284,-40.79 430.7281,-28.0429 445.9539,-19.5303"/>
<polygon fill="#191970" stroke="#191970" points="386.9295,-48.5204 379.909,-56.4554 390.3455,-54.6303 386.9295,-48.5204"/>
</g>
<!-- Node11&#45;&gt;Node6 -->
<g id="edge16" class="edge">
<title>Node11&#45;&gt;Node6</title>
<path fill="none" stroke="#191970" d="M463,-46.2849C463,-36.9858 463,-26.9883 463,-19.8469"/>
<polygon fill="#191970" stroke="#191970" points="459.5001,-46.2977 463,-56.2977 466.5001,-46.2978 459.5001,-46.2977"/>
</g>
<!-- Node12&#45;&gt;Node6 -->
<g id="edge18" class="edge">
<title>Node12&#45;&gt;Node6</title>
<path fill="none" stroke="#191970" d="M537.2796,-51.5291C518.0716,-40.79 495.2719,-28.0429 480.0461,-19.5303"/>
<polygon fill="#191970" stroke="#191970" points="535.6545,-54.6303 546.091,-56.4554 539.0705,-48.5204 535.6545,-54.6303"/>
</g>
<!-- Node25&#45;&gt;Node13 -->
<g id="edge32" class="edge">
<title>Node25&#45;&gt;Node13</title>
<path fill="none" stroke="#191970" d="M1221.1943,-64.949C1110.2763,-51.6804 868.1375,-22.6582 850,-20 847.0681,-19.5703 844.0562,-19.1096 841.0199,-18.6305"/>
<polygon fill="#191970" stroke="#191970" points="1220.843,-68.4318 1231.1879,-66.1443 1221.6744,-61.4814 1220.843,-68.4318"/>
</g>
<!-- Node25&#45;&gt;Node14 -->
<g id="edge33" class="edge">
<title>Node25&#45;&gt;Node14</title>
<path fill="none" stroke="#191970" d="M1221.3017,-61.9973C1154.8636,-50.4551 1043.4463,-31.0987 976.912,-19.5398"/>
<polygon fill="#191970" stroke="#191970" points="1220.7141,-65.4476 1231.1657,-63.711 1221.9123,-58.5509 1220.7141,-65.4476"/>
</g>
<!-- Node25&#45;&gt;Node16 -->
<g id="edge34" class="edge">
<title>Node25&#45;&gt;Node16</title>
<path fill="none" stroke="#191970" d="M1231.1887,-59.1969C1188.6544,-47.5189 1125.6113,-30.2103 1086.7542,-19.5419"/>
<polygon fill="#191970" stroke="#191970" points="1230.4302,-62.6181 1241,-61.8906 1232.2835,-55.8679 1230.4302,-62.6181"/>
</g>
<!-- Node25&#45;&gt;Node18 -->
<g id="edge36" class="edge">
<title>Node25&#45;&gt;Node18</title>
<path fill="none" stroke="#191970" d="M1249.913,-56.915C1229.2358,-45.3546 1200.9407,-29.535 1183.0668,-19.5419"/>
<polygon fill="#191970" stroke="#191970" points="1248.376,-60.0655 1258.8125,-61.8906 1251.7921,-53.9556 1248.376,-60.0655"/>
</g>
<!-- Node25&#45;&gt;Node19 -->
<g id="edge37" class="edge">
<title>Node25&#45;&gt;Node19</title>
<path fill="none" stroke="#191970" d="M1276,-51.7462C1276,-41.0519 1276,-28.314 1276,-19.7449"/>
<polygon fill="#191970" stroke="#191970" points="1272.5001,-51.8906 1276,-61.8906 1279.5001,-51.8907 1272.5001,-51.8906"/>
</g>
<!-- Node25&#45;&gt;Node20 -->
<g id="edge38" class="edge">
<title>Node25&#45;&gt;Node20</title>
<path fill="none" stroke="#191970" d="M1304.0078,-57.3813C1327.0155,-45.7832 1358.9797,-29.6701 1379.0714,-19.5419"/>
<polygon fill="#191970" stroke="#191970" points="1302.4166,-54.2638 1295.0625,-61.8906 1305.5676,-60.5145 1302.4166,-54.2638"/>
</g>
<!-- Node25&#45;&gt;Node23 -->
<g id="edge39" class="edge">
<title>Node25&#45;&gt;Node23</title>
<path fill="none" stroke="#191970" d="M1318.098,-59.2107C1322.114,-58.1003 1326.1301,-57.0136 1330,-56 1381.7341,-42.4497 1441.6844,-28.5004 1481.0905,-19.5691"/>
<polygon fill="#191970" stroke="#191970" points="1316.8797,-55.9174 1308.1987,-61.9912 1318.7727,-62.6566 1316.8797,-55.9174"/>
</g>
<!-- Node25&#45;&gt;Node24 -->
<g id="edge40" class="edge">
<title>Node25&#45;&gt;Node24</title>
<path fill="none" stroke="#191970" d="M1316.2941,-59.2756C1320.8937,-58.0766 1325.5332,-56.9534 1330,-56 1336.3463,-54.6455 1498.7442,-31.783 1591.1594,-18.8104"/>
<polygon fill="#191970" stroke="#191970" points="1315.096,-55.9745 1306.3712,-61.9851 1316.94,-62.7273 1315.096,-55.9745"/>
</g>
<!-- Node25&#45;&gt;Node26 -->
<g id="edge35" class="edge">
<title>Node25&#45;&gt;Node26</title>
<path fill="none" stroke="#191970" d="M1315.3502,-59.278C1320.2506,-58.0309 1325.2186,-56.8958 1330,-56 1503.2685,-23.5378 1550.1905,-42.746 1725,-20 1728.1937,-19.5844 1731.4791,-19.1229 1734.7871,-18.6326"/>
<polygon fill="#191970" stroke="#191970" points="1314.2052,-55.962 1305.4679,-61.9545 1316.0352,-62.7185 1314.2052,-55.962"/>
</g>
</g>
</svg>
