<?xml version="1.0" encoding="UTF-8" standalone="no"?>
<!DOCTYPE svg PUBLIC "-//W3C//DTD SVG 1.1//EN"
 "http://www.w3.org/Graphics/SVG/1.1/DTD/svg11.dtd">
<!-- Generated by graphviz version 2.38.0 (20140413.2041)
 -->
<!-- Title: Graphical Class Hierarchy Pages: 1 -->
<svg width="468pt" height="66pt"
 viewBox="0.00 0.00 468.00 66.00" xmlns="http://www.w3.org/2000/svg" xmlns:xlink="http://www.w3.org/1999/xlink">
<g id="graph0" class="graph" transform="scale(1 1) rotate(0) translate(4 62)">
<title>Graphical Class Hierarchy</title>
<polygon fill="white" stroke="none" points="-4,4 -4,-62 464,-62 464,4 -4,4"/>
<!-- Node0 -->
<g id="node1" class="node"><title>Node0</title>
<g id="a_node1"><a xlink:href="classEvaluator.html" target="_top" xlink:title="Evaluator\&lt; FP_NR\&lt; mpfr\l_t \&gt; \&gt;">
<polygon fill="white" stroke="black" points="0,-14 0,-44 128,-44 128,-14 0,-14"/>
<text text-anchor="start" x="8" y="-32" font-family="Helvetica,sans-Serif" font-size="10.00">Evaluator&lt; FP_NR&lt; mpfr</text>
<text text-anchor="middle" x="64" y="-21" font-family="Helvetica,sans-Serif" font-size="10.00">_t &gt; &gt;</text>
</a>
</g>
</g>
<!-- Node1 -->
<g id="node2" class="node"><title>Node1</title>
<g id="a_node2"><a xlink:href="classErrorBoundedEvaluator.html" target="_top" xlink:title="ErrorBoundedEvaluator">
<polygon fill="white" stroke="black" points="164,-19.5 164,-38.5 281,-38.5 281,-19.5 164,-19.5"/>
<text text-anchor="middle" x="222.5" y="-26.5" font-family="Helvetica,sans-Serif" font-size="10.00">ErrorBoundedEvaluator</text>
</a>
</g>
</g>
<!-- Node0&#45;&gt;Node1 -->
<g id="edge1" class="edge"><title>Node0&#45;&gt;Node1</title>
<path fill="none" stroke="midnightblue" d="M138.24,-29C146.843,-29 155.527,-29 163.874,-29"/>
<polygon fill="midnightblue" stroke="midnightblue" points="138.203,-25.5001 128.203,-29 138.203,-32.5001 138.203,-25.5001"/>
</g>
<!-- Node2 -->
<g id="node3" class="node"><title>Node2</title>
<g id="a_node3"><a xlink:href="classExactErrorBoundedEvaluator.html" target="_top" xlink:title="ExactErrorBoundedEvaluator">
<polygon fill="white" stroke="black" points="317,-38.5 317,-57.5 460,-57.5 460,-38.5 317,-38.5"/>
<text text-anchor="middle" x="388.5" y="-45.5" font-family="Helvetica,sans-Serif" font-size="10.00">ExactErrorBoundedEvaluator</text>
</a>
</g>
</g>
<!-- Node1&#45;&gt;Node2 -->
<g id="edge2" class="edge"><title>Node1&#45;&gt;Node2</title>
<path fill="none" stroke="midnightblue" d="M291.467,-36.8743C299.889,-37.85 308.515,-38.8493 316.974,-39.8293"/>
<polygon fill="midnightblue" stroke="midnightblue" points="291.657,-33.3729 281.32,-35.6987 290.851,-40.3264 291.657,-33.3729"/>
</g>
<!-- Node3 -->
<g id="node4" class="node"><title>Node3</title>
<g id="a_node4"><a xlink:href="classFastErrorBoundedEvaluator.html" target="_top" xlink:title="FastErrorBoundedEvaluator">
<polygon fill="white" stroke="black" points="320,-0.5 320,-19.5 457,-19.5 457,-0.5 320,-0.5"/>
<text text-anchor="middle" x="388.5" y="-7.5" font-family="Helvetica,sans-Serif" font-size="10.00">FastErrorBoundedEvaluator</text>
</a>
</g>
</g>
<!-- Node1&#45;&gt;Node3 -->
<g id="edge3" class="edge"><title>Node1&#45;&gt;Node3</title>
<path fill="none" stroke="midnightblue" d="M291.39,-21.1347C300.784,-20.0464 310.433,-18.9285 319.823,-17.8406"/>
<polygon fill="midnightblue" stroke="midnightblue" points="290.851,-17.6736 281.32,-22.3013 291.657,-24.6271 290.851,-17.6736"/>
</g>
</g>
</svg>
