<?xml version="1.0" encoding="UTF-8" standalone="no"?>
<!DOCTYPE svg PUBLIC "-//W3C//DTD SVG 1.1//EN"
 "http://www.w3.org/Graphics/SVG/1.1/DTD/svg11.dtd">
<!-- Generated by graphviz version 2.40.1 (20161225.0304)
 -->
<!-- Title: Graphical Class Hierarchy Pages: 1 -->
<svg width="468pt" height="66pt"
 viewBox="0.00 0.00 468.00 66.00" xmlns="http://www.w3.org/2000/svg" xmlns:xlink="http://www.w3.org/1999/xlink">
<g id="graph0" class="graph" transform="scale(1 1) rotate(0) translate(4 62)">
<title>Graphical Class Hierarchy</title>
<polygon fill="#ffffff" stroke="transparent" points="-4,4 -4,-62 464,-62 464,4 -4,4"/>
<!-- Node0 -->
<g id="node1" class="node">
<title>Node0</title>
<g id="a_node1"><a xlink:href="classEvaluator.html" target="_top" xlink:title="Evaluator\&lt; FP_NR\&lt; mpfr\l_t \&gt; \&gt;">
<polygon fill="#ffffff" stroke="#000000" points="0,-14 0,-44 128,-44 128,-14 0,-14"/>
<text text-anchor="start" x="8" y="-32" font-family="Helvetica,sans-Serif" font-size="10.00" fill="#000000">Evaluator&lt; FP_NR&lt; mpfr</text>
<text text-anchor="middle" x="64" y="-21" font-family="Helvetica,sans-Serif" font-size="10.00" fill="#000000">_t &gt; &gt;</text>
</a>
</g>
</g>
<!-- Node1 -->
<g id="node2" class="node">
<title>Node1</title>
<g id="a_node2"><a xlink:href="classErrorBoundedEvaluator.html" target="_top" xlink:title="ErrorBoundedEvaluator">
<polygon fill="#ffffff" stroke="#000000" points="164,-19.5 164,-38.5 281,-38.5 281,-19.5 164,-19.5"/>
<text text-anchor="middle" x="222.5" y="-26.5" font-family="Helvetica,sans-Serif" font-size="10.00" fill="#000000">ErrorBoundedEvaluator</text>
</a>
</g>
</g>
<!-- Node0&#45;&gt;Node1 -->
<g id="edge1" class="edge">
<title>Node0&#45;&gt;Node1</title>
<path fill="none" stroke="#191970" d="M138.1025,-29C146.7522,-29 155.4839,-29 163.8833,-29"/>
<polygon fill="#191970" stroke="#191970" points="138.0112,-25.5001 128.0111,-29 138.0111,-32.5001 138.0112,-25.5001"/>
</g>
<!-- Node2 -->
<g id="node3" class="node">
<title>Node2</title>
<g id="a_node3"><a xlink:href="classExactErrorBoundedEvaluator.html" target="_top" xlink:title="ExactErrorBoundedEvaluator">
<polygon fill="#ffffff" stroke="#000000" points="317,-38.5 317,-57.5 460,-57.5 460,-38.5 317,-38.5"/>
<text text-anchor="middle" x="388.5" y="-45.5" font-family="Helvetica,sans-Serif" font-size="10.00" fill="#000000">ExactErrorBoundedEvaluator</text>
</a>
</g>
</g>
<!-- Node1&#45;&gt;Node2 -->
<g id="edge2" class="edge">
<title>Node1&#45;&gt;Node2</title>
<path fill="none" stroke="#191970" d="M291.2131,-36.8648C299.6682,-37.8325 308.3273,-38.8236 316.825,-39.7962"/>
<polygon fill="#191970" stroke="#191970" points="291.3586,-33.3586 281.0254,-35.6987 290.5625,-40.3132 291.3586,-33.3586"/>
</g>
<!-- Node3 -->
<g id="node4" class="node">
<title>Node3</title>
<g id="a_node4"><a xlink:href="classFastErrorBoundedEvaluator.html" target="_top" xlink:title="FastErrorBoundedEvaluator">
<polygon fill="#ffffff" stroke="#000000" points="320,-.5 320,-19.5 457,-19.5 457,-.5 320,-.5"/>
<text text-anchor="middle" x="388.5" y="-7.5" font-family="Helvetica,sans-Serif" font-size="10.00" fill="#000000">FastErrorBoundedEvaluator</text>
</a>
</g>
</g>
<!-- Node1&#45;&gt;Node3 -->
<g id="edge3" class="edge">
<title>Node1&#45;&gt;Node3</title>
<path fill="none" stroke="#191970" d="M291.2176,-21.1347C300.7263,-20.0464 310.4929,-18.9285 319.9978,-17.8406"/>
<polygon fill="#191970" stroke="#191970" points="290.5625,-17.6868 281.0254,-22.3013 291.3586,-24.6414 290.5625,-17.6868"/>
</g>
</g>
</svg>
