<?xml version="1.0" encoding="UTF-8" standalone="no"?>
<!DOCTYPE svg PUBLIC "-//W3C//DTD SVG 1.1//EN"
 "http://www.w3.org/Graphics/SVG/1.1/DTD/svg11.dtd">
<!-- Generated by graphviz version 2.40.1 (20161225.0304)
 -->
<!-- Title: Graphical Class Hierarchy Pages: 1 -->
<svg width="401pt" height="28pt"
 viewBox="0.00 0.00 401.00 28.00" xmlns="http://www.w3.org/2000/svg" xmlns:xlink="http://www.w3.org/1999/xlink">
<g id="graph0" class="graph" transform="scale(1 1) rotate(0) translate(4 24)">
<title>Graphical Class Hierarchy</title>
<polygon fill="#ffffff" stroke="transparent" points="-4,4 -4,-24 397,-24 397,4 -4,4"/>
<!-- Node0 -->
<g id="node1" class="node">
<title>Node0</title>
<g id="a_node1"><a xlink:href="classEvaluator.html" target="_top" xlink:title="Evaluator\&lt; FT \&gt;">
<polygon fill="#ffffff" stroke="#000000" points="0,-.5 0,-19.5 88,-19.5 88,-.5 0,-.5"/>
<text text-anchor="middle" x="44" y="-7.5" font-family="Helvetica,sans-Serif" font-size="10.00" fill="#000000">Evaluator&lt; FT &gt;</text>
</a>
</g>
</g>
<!-- Node1 -->
<g id="node2" class="node">
<title>Node1</title>
<g id="a_node2"><a xlink:href="classFastEvaluator.html" target="_top" xlink:title="FastEvaluator\&lt; FT \&gt;">
<polygon fill="#ffffff" stroke="#000000" points="124,-.5 124,-19.5 231,-19.5 231,-.5 124,-.5"/>
<text text-anchor="middle" x="177.5" y="-7.5" font-family="Helvetica,sans-Serif" font-size="10.00" fill="#000000">FastEvaluator&lt; FT &gt;</text>
</a>
</g>
</g>
<!-- Node0&#45;&gt;Node1 -->
<g id="edge1" class="edge">
<title>Node0&#45;&gt;Node1</title>
<path fill="none" stroke="#191970" d="M98.1749,-10C106.5921,-10 115.286,-10 123.6949,-10"/>
<polygon fill="#191970" stroke="#191970" points="98.0829,-6.5001 88.0829,-10 98.0828,-13.5001 98.0829,-6.5001"/>
</g>
<!-- Node2 -->
<g id="node3" class="node">
<title>Node2</title>
<g id="a_node3"><a xlink:href="classCallbackEvaluator.html" target="_top" xlink:title="CallbackEvaluator\&lt; FT \&gt;">
<polygon fill="#ffffff" stroke="#000000" points="267,-.5 267,-19.5 393,-19.5 393,-.5 267,-.5"/>
<text text-anchor="middle" x="330" y="-7.5" font-family="Helvetica,sans-Serif" font-size="10.00" fill="#000000">CallbackEvaluator&lt; FT &gt;</text>
</a>
</g>
</g>
<!-- Node1&#45;&gt;Node2 -->
<g id="edge2" class="edge">
<title>Node1&#45;&gt;Node2</title>
<path fill="none" stroke="#191970" d="M241.3897,-10C249.7965,-10 258.4093,-10 266.8044,-10"/>
<polygon fill="#191970" stroke="#191970" points="241.2658,-6.5001 231.2658,-10 241.2658,-13.5001 241.2658,-6.5001"/>
</g>
</g>
</svg>
