<?xml version="1.0" encoding="UTF-8" standalone="no"?>
<!DOCTYPE svg PUBLIC "-//W3C//DTD SVG 1.1//EN"
 "http://www.w3.org/Graphics/SVG/1.1/DTD/svg11.dtd">
<!-- Generated by graphviz version 2.40.1 (20161225.0304)
 -->
<!-- Title: Graphical Class Hierarchy Pages: 1 -->
<svg width="288pt" height="66pt"
 viewBox="0.00 0.00 288.00 66.00" xmlns="http://www.w3.org/2000/svg" xmlns:xlink="http://www.w3.org/1999/xlink">
<g id="graph0" class="graph" transform="scale(1 1) rotate(0) translate(4 62)">
<title>Graphical Class Hierarchy</title>
<polygon fill="#ffffff" stroke="transparent" points="-4,4 -4,-62 284,-62 284,4 -4,4"/>
<!-- Node0 -->
<g id="node1" class="node">
<title>Node0</title>
<g id="a_node1"><a xlink:href="classMatGSOInterface.html" target="_top" xlink:title="MatGSOInterface\&lt; ZT,\l FT \&gt;">
<polygon fill="#ffffff" stroke="#000000" points="0,-14 0,-44 117,-44 117,-14 0,-14"/>
<text text-anchor="start" x="8" y="-32" font-family="Helvetica,sans-Serif" font-size="10.00" fill="#000000">MatGSOInterface&lt; ZT,</text>
<text text-anchor="middle" x="58.5" y="-21" font-family="Helvetica,sans-Serif" font-size="10.00" fill="#000000"> FT &gt;</text>
</a>
</g>
</g>
<!-- Node1 -->
<g id="node2" class="node">
<title>Node1</title>
<g id="a_node2"><a xlink:href="classMatGSO.html" target="_top" xlink:title="MatGSO\&lt; ZT, FT \&gt;">
<polygon fill="#ffffff" stroke="#000000" points="165,-38.5 165,-57.5 268,-57.5 268,-38.5 165,-38.5"/>
<text text-anchor="middle" x="216.5" y="-45.5" font-family="Helvetica,sans-Serif" font-size="10.00" fill="#000000">MatGSO&lt; ZT, FT &gt;</text>
</a>
</g>
</g>
<!-- Node0&#45;&gt;Node1 -->
<g id="edge1" class="edge">
<title>Node0&#45;&gt;Node1</title>
<path fill="none" stroke="#191970" d="M127.3415,-37.2784C139.9459,-38.7941 152.901,-40.352 164.8947,-41.7943"/>
<polygon fill="#191970" stroke="#191970" points="127.6797,-33.794 117.3334,-36.0749 126.8439,-40.7439 127.6797,-33.794"/>
</g>
<!-- Node2 -->
<g id="node3" class="node">
<title>Node2</title>
<g id="a_node3"><a xlink:href="classMatGSOGram.html" target="_top" xlink:title="MatGSOGram\&lt; ZT, FT \&gt;">
<polygon fill="#ffffff" stroke="#000000" points="153,-.5 153,-19.5 280,-19.5 280,-.5 153,-.5"/>
<text text-anchor="middle" x="216.5" y="-7.5" font-family="Helvetica,sans-Serif" font-size="10.00" fill="#000000">MatGSOGram&lt; ZT, FT &gt;</text>
</a>
</g>
</g>
<!-- Node0&#45;&gt;Node2 -->
<g id="edge2" class="edge">
<title>Node0&#45;&gt;Node2</title>
<path fill="none" stroke="#191970" d="M127.5056,-20.7019C135.9292,-19.6889 144.5069,-18.6574 152.8472,-17.6544"/>
<polygon fill="#191970" stroke="#191970" points="126.8439,-17.2561 117.3334,-21.9251 127.6797,-24.2061 126.8439,-17.2561"/>
</g>
</g>
</svg>
