<?xml version="1.0" encoding="UTF-8" standalone="no"?>
<!DOCTYPE svg PUBLIC "-//W3C//DTD SVG 1.1//EN"
 "http://www.w3.org/Graphics/SVG/1.1/DTD/svg11.dtd">
<!-- Generated by graphviz version 2.38.0 (20140413.2041)
 -->
<!-- Title: Graphical Class Hierarchy Pages: 1 -->
<svg width="438pt" height="66pt"
 viewBox="0.00 0.00 438.00 66.00" xmlns="http://www.w3.org/2000/svg" xmlns:xlink="http://www.w3.org/1999/xlink">
<g id="graph0" class="graph" transform="scale(1 1) rotate(0) translate(4 62)">
<title>Graphical Class Hierarchy</title>
<polygon fill="white" stroke="none" points="-4,4 -4,-62 434,-62 434,4 -4,4"/>
<!-- Node0 -->
<g id="node1" class="node"><title>Node0</title>
<g id="a_node1"><a xlink:href="classEvaluator.html" target="_top" xlink:title="Evaluator\&lt; Float \&gt;">
<polygon fill="white" stroke="black" points="0,-19.5 0,-38.5 98,-38.5 98,-19.5 0,-19.5"/>
<text text-anchor="middle" x="49" y="-26.5" font-family="Helvetica,sans-Serif" font-size="10.00">Evaluator&lt; Float &gt;</text>
</a>
</g>
</g>
<!-- Node1 -->
<g id="node2" class="node"><title>Node1</title>
<g id="a_node2"><a xlink:href="classErrorBoundedEvaluator.html" target="_top" xlink:title="ErrorBoundedEvaluator">
<polygon fill="white" stroke="black" points="134,-19.5 134,-38.5 251,-38.5 251,-19.5 134,-19.5"/>
<text text-anchor="middle" x="192.5" y="-26.5" font-family="Helvetica,sans-Serif" font-size="10.00">ErrorBoundedEvaluator</text>
</a>
</g>
</g>
<!-- Node0&#45;&gt;Node1 -->
<g id="edge1" class="edge"><title>Node0&#45;&gt;Node1</title>
<path fill="none" stroke="midnightblue" d="M108.343,-29C116.7,-29 125.295,-29 133.642,-29"/>
<polygon fill="midnightblue" stroke="midnightblue" points="108.301,-25.5001 98.3005,-29 108.3,-32.5001 108.301,-25.5001"/>
</g>
<!-- Node2 -->
<g id="node3" class="node"><title>Node2</title>
<g id="a_node3"><a xlink:href="classExactErrorBoundedEvaluator.html" target="_top" xlink:title="ExactErrorBoundedEvaluator">
<polygon fill="white" stroke="black" points="287,-38.5 287,-57.5 430,-57.5 430,-38.5 287,-38.5"/>
<text text-anchor="middle" x="358.5" y="-45.5" font-family="Helvetica,sans-Serif" font-size="10.00">ExactErrorBoundedEvaluator</text>
</a>
</g>
</g>
<!-- Node1&#45;&gt;Node2 -->
<g id="edge2" class="edge"><title>Node1&#45;&gt;Node2</title>
<path fill="none" stroke="midnightblue" d="M261.467,-36.8743C269.889,-37.85 278.515,-38.8493 286.974,-39.8293"/>
<polygon fill="midnightblue" stroke="midnightblue" points="261.657,-33.3729 251.32,-35.6987 260.851,-40.3264 261.657,-33.3729"/>
</g>
<!-- Node3 -->
<g id="node4" class="node"><title>Node3</title>
<g id="a_node4"><a xlink:href="classFastErrorBoundedEvaluator.html" target="_top" xlink:title="FastErrorBoundedEvaluator">
<polygon fill="white" stroke="black" points="290,-0.5 290,-19.5 427,-19.5 427,-0.5 290,-0.5"/>
<text text-anchor="middle" x="358.5" y="-7.5" font-family="Helvetica,sans-Serif" font-size="10.00">FastErrorBoundedEvaluator</text>
</a>
</g>
</g>
<!-- Node1&#45;&gt;Node3 -->
<g id="edge3" class="edge"><title>Node1&#45;&gt;Node3</title>
<path fill="none" stroke="midnightblue" d="M261.39,-21.1347C270.784,-20.0464 280.433,-18.9285 289.823,-17.8406"/>
<polygon fill="midnightblue" stroke="midnightblue" points="260.851,-17.6736 251.32,-22.3013 261.657,-24.6271 260.851,-17.6736"/>
</g>
</g>
</svg>
