<?xml version="1.0" encoding="UTF-8" standalone="no"?>
<!DOCTYPE svg PUBLIC "-//W3C//DTD SVG 1.1//EN"
 "http://www.w3.org/Graphics/SVG/1.1/DTD/svg11.dtd">
<!-- Generated by graphviz version 2.38.0 (20140413.2041)
 -->
<!-- Title: Graphical Class Hierarchy Pages: 1 -->
<svg width="288pt" height="66pt"
 viewBox="0.00 0.00 288.00 66.00" xmlns="http://www.w3.org/2000/svg" xmlns:xlink="http://www.w3.org/1999/xlink">
<g id="graph0" class="graph" transform="scale(1 1) rotate(0) translate(4 62)">
<title>Graphical Class Hierarchy</title>
<polygon fill="white" stroke="none" points="-4,4 -4,-62 284,-62 284,4 -4,4"/>
<!-- Node0 -->
<g id="node1" class="node"><title>Node0</title>
<g id="a_node1"><a xlink:href="classMatGSOInterface.html" target="_top" xlink:title="MatGSOInterface\&lt; ZT,\l FT \&gt;">
<polygon fill="white" stroke="black" points="0,-14 0,-44 117,-44 117,-14 0,-14"/>
<text text-anchor="start" x="8" y="-32" font-family="Helvetica,sans-Serif" font-size="10.00">MatGSOInterface&lt; ZT,</text>
<text text-anchor="middle" x="58.5" y="-21" font-family="Helvetica,sans-Serif" font-size="10.00"> FT &gt;</text>
</a>
</g>
</g>
<!-- Node1 -->
<g id="node2" class="node"><title>Node1</title>
<g id="a_node2"><a xlink:href="classMatGSO.html" target="_top" xlink:title="MatGSO\&lt; ZT, FT \&gt;">
<polygon fill="white" stroke="black" points="165,-38.5 165,-57.5 268,-57.5 268,-38.5 165,-38.5"/>
<text text-anchor="middle" x="216.5" y="-45.5" font-family="Helvetica,sans-Serif" font-size="10.00">MatGSO&lt; ZT, FT &gt;</text>
</a>
</g>
</g>
<!-- Node0&#45;&gt;Node1 -->
<g id="edge1" class="edge"><title>Node0&#45;&gt;Node1</title>
<path fill="none" stroke="midnightblue" d="M127.162,-37.2409C139.783,-38.7781 152.771,-40.36 164.774,-41.8218"/>
<polygon fill="midnightblue" stroke="midnightblue" points="127.495,-33.7557 117.145,-36.0209 126.649,-40.7043 127.495,-33.7557"/>
</g>
<!-- Node2 -->
<g id="node3" class="node"><title>Node2</title>
<g id="a_node3"><a xlink:href="classMatGSOGram.html" target="_top" xlink:title="MatGSOGram\&lt; ZT, FT \&gt;">
<polygon fill="white" stroke="black" points="153,-0.5 153,-19.5 280,-19.5 280,-0.5 153,-0.5"/>
<text text-anchor="middle" x="216.5" y="-7.5" font-family="Helvetica,sans-Serif" font-size="10.00">MatGSOGram&lt; ZT, FT &gt;</text>
</a>
</g>
</g>
<!-- Node0&#45;&gt;Node2 -->
<g id="edge2" class="edge"><title>Node0&#45;&gt;Node2</title>
<path fill="none" stroke="midnightblue" d="M127.087,-20.7682C135.645,-19.726 144.372,-18.663 152.848,-17.6307"/>
<polygon fill="midnightblue" stroke="midnightblue" points="126.649,-17.2957 117.145,-21.9791 127.495,-24.2443 126.649,-17.2957"/>
</g>
</g>
</svg>
