<?xml version="1.0" encoding="UTF-8" standalone="no"?>
<!DOCTYPE svg PUBLIC "-//W3C//DTD SVG 1.1//EN"
 "http://www.w3.org/Graphics/SVG/1.1/DTD/svg11.dtd">
<!-- Generated by graphviz version 2.38.0 (20140413.2041)
 -->
<!-- Title: Graphical Class Hierarchy Pages: 1 -->
<svg width="259pt" height="66pt"
 viewBox="0.00 0.00 259.00 66.00" xmlns="http://www.w3.org/2000/svg" xmlns:xlink="http://www.w3.org/1999/xlink">
<g id="graph0" class="graph" transform="scale(1 1) rotate(0) translate(4 62)">
<title>Graphical Class Hierarchy</title>
<polygon fill="white" stroke="none" points="-4,4 -4,-62 255,-62 255,4 -4,4"/>
<!-- Node1 -->
<g id="node1" class="node"><title>Node1</title>
<g id="a_node1"><a xlink:href="classEvaluator_3_01Float_01_4.html" target="_top" xlink:title="Evaluator\&lt; Float \&gt;">
<polygon fill="white" stroke="black" points="0,-19.5 0,-38.5 98,-38.5 98,-19.5 0,-19.5"/>
<text text-anchor="middle" x="49" y="-26.5" font-family="Helvetica,sans-Serif" font-size="10.00">Evaluator&lt; Float &gt;</text>
</a>
</g>
</g>
<!-- Node2 -->
<g id="node2" class="node"><title>Node2</title>
<g id="a_node2"><a xlink:href="classExactEvaluator.html" target="_top" xlink:title="ExactEvaluator">
<polygon fill="white" stroke="black" points="151,-38.5 151,-57.5 234,-57.5 234,-38.5 151,-38.5"/>
<text text-anchor="middle" x="192.5" y="-45.5" font-family="Helvetica,sans-Serif" font-size="10.00">ExactEvaluator</text>
</a>
</g>
</g>
<!-- Node1&#45;&gt;Node2 -->
<g id="edge1" class="edge"><title>Node1&#45;&gt;Node2</title>
<path fill="none" stroke="midnightblue" d="M108.529,-36.859C122.79,-38.7739 137.734,-40.7805 150.947,-42.5548"/>
<polygon fill="midnightblue" stroke="midnightblue" points="108.677,-33.3476 98.3005,-35.4856 107.746,-40.2853 108.677,-33.3476"/>
</g>
<!-- Node3 -->
<g id="node3" class="node"><title>Node3</title>
<g id="a_node3"><a xlink:href="classFastEvaluator_3_01Float_01_4.html" target="_top" xlink:title="FastEvaluator\&lt; Float \&gt;">
<polygon fill="white" stroke="black" points="134,-0.5 134,-19.5 251,-19.5 251,-0.5 134,-0.5"/>
<text text-anchor="middle" x="192.5" y="-7.5" font-family="Helvetica,sans-Serif" font-size="10.00">FastEvaluator&lt; Float &gt;</text>
</a>
</g>
</g>
<!-- Node1&#45;&gt;Node3 -->
<g id="edge2" class="edge"><title>Node1&#45;&gt;Node3</title>
<path fill="none" stroke="midnightblue" d="M108.343,-21.166C116.7,-20.0439 125.295,-18.8898 133.642,-17.7689"/>
<polygon fill="midnightblue" stroke="midnightblue" points="107.746,-17.7147 98.3005,-22.5144 108.677,-24.6524 107.746,-17.7147"/>
</g>
</g>
</svg>
