<?xml version="1.0" encoding="UTF-8" standalone="no"?>
<!DOCTYPE svg PUBLIC "-//W3C//DTD SVG 1.1//EN"
 "http://www.w3.org/Graphics/SVG/1.1/DTD/svg11.dtd">
<!-- Generated by graphviz version 2.38.0 (20140413.2041)
 -->
<!-- Title: fplll/lll.h Pages: 1 -->
<svg width="1141pt" height="252pt"
 viewBox="0.00 0.00 1141.00 252.00" xmlns="http://www.w3.org/2000/svg" xmlns:xlink="http://www.w3.org/1999/xlink">
<g id="graph0" class="graph" transform="scale(1 1) rotate(0) translate(4 248)">
<title>fplll/lll.h</title>
<polygon fill="white" stroke="none" points="-4,4 -4,-248 1137,-248 1137,4 -4,4"/>
<!-- Node0 -->
<g id="node1" class="node"><title>Node0</title>
<polygon fill="#bfbfbf" stroke="black" points="943,-224.5 943,-243.5 993,-243.5 993,-224.5 943,-224.5"/>
<text text-anchor="middle" x="968" y="-231.5" font-family="Helvetica,sans-Serif" font-size="10.00">fplll/lll.h</text>
</g>
<!-- Node1 -->
<g id="node2" class="node"><title>Node1</title>
<g id="a_node2"><a xlink:href="bkz_8h.html" target="_top" xlink:title="fplll/bkz.h">
<polygon fill="white" stroke="black" points="701.5,-168.5 701.5,-187.5 760.5,-187.5 760.5,-168.5 701.5,-168.5"/>
<text text-anchor="middle" x="731" y="-175.5" font-family="Helvetica,sans-Serif" font-size="10.00">fplll/bkz.h</text>
</a>
</g>
</g>
<!-- Node0&#45;&gt;Node1 -->
<g id="edge1" class="edge"><title>Node0&#45;&gt;Node1</title>
<path fill="none" stroke="midnightblue" d="M932.656,-224.947C885.895,-214.293 804.301,-195.702 760.612,-185.747"/>
<polygon fill="midnightblue" stroke="midnightblue" points="932.109,-228.412 942.637,-227.221 933.664,-221.587 932.109,-228.412"/>
</g>
<!-- Node11 -->
<g id="node12" class="node"><title>Node11</title>
<g id="a_node12"><a xlink:href="test__lll__gram_8cpp.html" target="_top" xlink:title="tests/test_lll_gram.cpp">
<polygon fill="white" stroke="black" points="843,-0.5 843,-19.5 959,-19.5 959,-0.5 843,-0.5"/>
<text text-anchor="middle" x="901" y="-7.5" font-family="Helvetica,sans-Serif" font-size="10.00">tests/test_lll_gram.cpp</text>
</a>
</g>
</g>
<!-- Node0&#45;&gt;Node11 -->
<g id="edge26" class="edge"><title>Node0&#45;&gt;Node11</title>
<path fill="none" stroke="midnightblue" d="M962.442,-214.585C948.725,-169.135 913.653,-52.9236 903.681,-19.8837"/>
<polygon fill="midnightblue" stroke="midnightblue" points="959.133,-215.735 965.374,-224.297 965.835,-213.713 959.133,-215.735"/>
</g>
<!-- Node18 -->
<g id="node19" class="node"><title>Node18</title>
<g id="a_node19"><a xlink:href="lll_8cpp.html" target="_top" xlink:title="fplll/lll.cpp">
<polygon fill="white" stroke="black" points="967,-168.5 967,-187.5 1027,-187.5 1027,-168.5 967,-168.5"/>
<text text-anchor="middle" x="997" y="-175.5" font-family="Helvetica,sans-Serif" font-size="10.00">fplll/lll.cpp</text>
</a>
</g>
</g>
<!-- Node0&#45;&gt;Node18 -->
<g id="edge24" class="edge"><title>Node0&#45;&gt;Node18</title>
<path fill="none" stroke="midnightblue" d="M977.676,-214.983C982.598,-205.817 988.358,-195.092 992.3,-187.751"/>
<polygon fill="midnightblue" stroke="midnightblue" points="974.437,-213.617 972.789,-224.083 980.604,-216.929 974.437,-213.617"/>
</g>
<!-- Node19 -->
<g id="node20" class="node"><title>Node19</title>
<g id="a_node20"><a xlink:href="wrapper_8cpp.html" target="_top" xlink:title="fplll/wrapper.cpp">
<polygon fill="white" stroke="black" points="1045,-168.5 1045,-187.5 1133,-187.5 1133,-168.5 1045,-168.5"/>
<text text-anchor="middle" x="1089" y="-175.5" font-family="Helvetica,sans-Serif" font-size="10.00">fplll/wrapper.cpp</text>
</a>
</g>
</g>
<!-- Node0&#45;&gt;Node19 -->
<g id="edge25" class="edge"><title>Node0&#45;&gt;Node19</title>
<path fill="none" stroke="midnightblue" d="M996.306,-220.368C1018.97,-210.255 1050.13,-196.349 1069.92,-187.516"/>
<polygon fill="midnightblue" stroke="midnightblue" points="994.878,-217.172 987.173,-224.444 997.731,-223.564 994.878,-217.172"/>
</g>
<!-- Node2 -->
<g id="node3" class="node"><title>Node2</title>
<g id="a_node3"><a xlink:href="bkz_8cpp.html" target="_top" xlink:title="fplll/bkz.cpp">
<polygon fill="white" stroke="black" points="696.5,-112.5 696.5,-131.5 765.5,-131.5 765.5,-112.5 696.5,-112.5"/>
<text text-anchor="middle" x="731" y="-119.5" font-family="Helvetica,sans-Serif" font-size="10.00">fplll/bkz.cpp</text>
</a>
</g>
</g>
<!-- Node1&#45;&gt;Node2 -->
<g id="edge2" class="edge"><title>Node1&#45;&gt;Node2</title>
<path fill="none" stroke="midnightblue" d="M731,-157.805C731,-148.91 731,-138.78 731,-131.751"/>
<polygon fill="midnightblue" stroke="midnightblue" points="727.5,-158.083 731,-168.083 734.5,-158.083 727.5,-158.083"/>
</g>
<!-- Node3 -->
<g id="node4" class="node"><title>Node3</title>
<g id="a_node4"><a xlink:href="fplll_8h.html" target="_top" xlink:title="fplll/fplll.h">
<polygon fill="white" stroke="black" points="474,-112.5 474,-131.5 532,-131.5 532,-112.5 474,-112.5"/>
<text text-anchor="middle" x="503" y="-119.5" font-family="Helvetica,sans-Serif" font-size="10.00">fplll/fplll.h</text>
</a>
</g>
</g>
<!-- Node1&#45;&gt;Node3 -->
<g id="edge3" class="edge"><title>Node1&#45;&gt;Node3</title>
<path fill="none" stroke="midnightblue" d="M691.392,-167.619C645.964,-156.86 572.558,-139.474 532.093,-129.891"/>
<polygon fill="midnightblue" stroke="midnightblue" points="690.656,-171.041 701.193,-169.94 692.269,-164.23 690.656,-171.041"/>
</g>
<!-- Node4 -->
<g id="node5" class="node"><title>Node4</title>
<g id="a_node5"><a xlink:href="fplll_8cpp.html" target="_top" xlink:title="fplll/fplll.cpp">
<polygon fill="white" stroke="black" points="531,-56.5 531,-75.5 599,-75.5 599,-56.5 531,-56.5"/>
<text text-anchor="middle" x="565" y="-63.5" font-family="Helvetica,sans-Serif" font-size="10.00">fplll/fplll.cpp</text>
</a>
</g>
</g>
<!-- Node3&#45;&gt;Node4 -->
<g id="edge4" class="edge"><title>Node3&#45;&gt;Node4</title>
<path fill="none" stroke="midnightblue" d="M520.754,-105.537C531.808,-95.9087 545.631,-83.8694 554.857,-75.8339"/>
<polygon fill="midnightblue" stroke="midnightblue" points="518.203,-103.117 512.961,-112.324 522.801,-108.395 518.203,-103.117"/>
</g>
<!-- Node5 -->
<g id="node6" class="node"><title>Node5</title>
<g id="a_node6"><a xlink:href="main_8h.html" target="_top" xlink:title="fplll/main.h">
<polygon fill="white" stroke="black" points="17,-56.5 17,-75.5 81,-75.5 81,-56.5 17,-56.5"/>
<text text-anchor="middle" x="49" y="-63.5" font-family="Helvetica,sans-Serif" font-size="10.00">fplll/main.h</text>
</a>
</g>
</g>
<!-- Node3&#45;&gt;Node5 -->
<g id="edge5" class="edge"><title>Node3&#45;&gt;Node5</title>
<path fill="none" stroke="midnightblue" d="M463.521,-116.729C393.203,-109.055 241.658,-92.2196 114,-76 103.264,-74.6359 91.5444,-73.0448 81.0504,-71.5831"/>
<polygon fill="midnightblue" stroke="midnightblue" points="463.374,-120.233 473.694,-117.837 464.132,-113.275 463.374,-120.233"/>
</g>
<!-- Node7 -->
<g id="node8" class="node"><title>Node7</title>
<g id="a_node8"><a xlink:href="sieve__main_8cpp.html" target="_top" xlink:title="fplll/sieve/sieve_main.cpp">
<polygon fill="white" stroke="black" points="123.5,-56.5 123.5,-75.5 252.5,-75.5 252.5,-56.5 123.5,-56.5"/>
<text text-anchor="middle" x="188" y="-63.5" font-family="Helvetica,sans-Serif" font-size="10.00">fplll/sieve/sieve_main.cpp</text>
</a>
</g>
</g>
<!-- Node3&#45;&gt;Node7 -->
<g id="edge7" class="edge"><title>Node3&#45;&gt;Node7</title>
<path fill="none" stroke="midnightblue" d="M463.85,-114.289C406.689,-104.49 300.396,-86.2679 237.761,-75.5304"/>
<polygon fill="midnightblue" stroke="midnightblue" points="463.483,-117.777 473.93,-116.017 464.665,-110.877 463.483,-117.777"/>
</g>
<!-- Node8 -->
<g id="node9" class="node"><title>Node8</title>
<g id="a_node9"><a xlink:href="test__bkz_8cpp.html" target="_top" xlink:title="tests/test_bkz.cpp">
<polygon fill="white" stroke="black" points="92,-0.5 92,-19.5 190,-19.5 190,-0.5 92,-0.5"/>
<text text-anchor="middle" x="141" y="-7.5" font-family="Helvetica,sans-Serif" font-size="10.00">tests/test_bkz.cpp</text>
</a>
</g>
</g>
<!-- Node3&#45;&gt;Node8 -->
<g id="edge8" class="edge"><title>Node3&#45;&gt;Node8</title>
<path fill="none" stroke="midnightblue" d="M463.726,-112.259C427.262,-103.877 371.595,-90.3997 324,-76 265.106,-58.1817 197.179,-32.7345 163.029,-19.5911"/>
<polygon fill="midnightblue" stroke="midnightblue" points="463.408,-115.777 473.936,-114.589 464.965,-108.952 463.408,-115.777"/>
</g>
<!-- Node9 -->
<g id="node10" class="node"><title>Node9</title>
<g id="a_node10"><a xlink:href="test__cvp_8cpp.html" target="_top" xlink:title="tests/test_cvp.cpp">
<polygon fill="white" stroke="black" points="208,-0.5 208,-19.5 306,-19.5 306,-0.5 208,-0.5"/>
<text text-anchor="middle" x="257" y="-7.5" font-family="Helvetica,sans-Serif" font-size="10.00">tests/test_cvp.cpp</text>
</a>
</g>
</g>
<!-- Node3&#45;&gt;Node9 -->
<g id="edge9" class="edge"><title>Node3&#45;&gt;Node9</title>
<path fill="none" stroke="midnightblue" d="M463.836,-110.96C435.471,-103.06 396.554,-90.9102 364,-76 327.639,-59.3464 288.271,-33.0532 269.002,-19.5807"/>
<polygon fill="midnightblue" stroke="midnightblue" points="463.208,-114.416 473.777,-113.675 465.052,-107.664 463.208,-114.416"/>
</g>
<!-- Node10 -->
<g id="node11" class="node"><title>Node10</title>
<g id="a_node11"><a xlink:href="test__lll_8cpp.html" target="_top" xlink:title="tests/test_lll.cpp">
<polygon fill="white" stroke="black" points="324.5,-0.5 324.5,-19.5 413.5,-19.5 413.5,-0.5 324.5,-0.5"/>
<text text-anchor="middle" x="369" y="-7.5" font-family="Helvetica,sans-Serif" font-size="10.00">tests/test_lll.cpp</text>
</a>
</g>
</g>
<!-- Node3&#45;&gt;Node10 -->
<g id="edge10" class="edge"><title>Node3&#45;&gt;Node10</title>
<path fill="none" stroke="midnightblue" d="M463.773,-117.94C434.838,-113.473 396.99,-102.561 376,-76 363.051,-59.6148 365.1,-33.2042 367.277,-19.6444"/>
<polygon fill="midnightblue" stroke="midnightblue" points="463.606,-121.449 473.983,-119.311 464.538,-114.511 463.606,-121.449"/>
</g>
<!-- Node3&#45;&gt;Node11 -->
<g id="edge11" class="edge"><title>Node3&#45;&gt;Node11</title>
<path fill="none" stroke="midnightblue" d="M542.128,-118.78C633.741,-113.243 856.37,-97.689 882,-76 898.693,-61.8739 901.159,-33.9618 901.259,-19.7535"/>
<polygon fill="midnightblue" stroke="midnightblue" points="541.913,-115.287 532.139,-119.375 542.329,-122.274 541.913,-115.287"/>
</g>
<!-- Node12 -->
<g id="node13" class="node"><title>Node12</title>
<g id="a_node13"><a xlink:href="test__nr_8cpp.html" target="_top" xlink:title="tests/test_nr.cpp">
<polygon fill="white" stroke="black" points="655,-56.5 655,-75.5 745,-75.5 745,-56.5 655,-56.5"/>
<text text-anchor="middle" x="700" y="-63.5" font-family="Helvetica,sans-Serif" font-size="10.00">tests/test_nr.cpp</text>
</a>
</g>
</g>
<!-- Node3&#45;&gt;Node12 -->
<g id="edge12" class="edge"><title>Node3&#45;&gt;Node12</title>
<path fill="none" stroke="midnightblue" d="M542.049,-110.296C579.252,-100.099 634.531,-84.9458 668.86,-75.536"/>
<polygon fill="midnightblue" stroke="midnightblue" points="540.787,-107.013 532.068,-113.032 542.638,-113.764 540.787,-107.013"/>
</g>
<!-- Node13 -->
<g id="node14" class="node"><title>Node13</title>
<g id="a_node14"><a xlink:href="test__pruner_8cpp.html" target="_top" xlink:title="tests/test_pruner.cpp">
<polygon fill="white" stroke="black" points="763.5,-56.5 763.5,-75.5 872.5,-75.5 872.5,-56.5 763.5,-56.5"/>
<text text-anchor="middle" x="818" y="-63.5" font-family="Helvetica,sans-Serif" font-size="10.00">tests/test_pruner.cpp</text>
</a>
</g>
</g>
<!-- Node3&#45;&gt;Node13 -->
<g id="edge13" class="edge"><title>Node3&#45;&gt;Node13</title>
<path fill="none" stroke="midnightblue" d="M542.15,-114.289C599.311,-104.49 705.604,-86.2679 768.239,-75.5304"/>
<polygon fill="midnightblue" stroke="midnightblue" points="541.335,-110.877 532.07,-116.017 542.517,-117.777 541.335,-110.877"/>
</g>
<!-- Node14 -->
<g id="node15" class="node"><title>Node14</title>
<g id="a_node15"><a xlink:href="test__sieve_8cpp.html" target="_top" xlink:title="tests/test_sieve.cpp">
<polygon fill="white" stroke="black" points="547.5,-0.5 547.5,-19.5 652.5,-19.5 652.5,-0.5 547.5,-0.5"/>
<text text-anchor="middle" x="600" y="-7.5" font-family="Helvetica,sans-Serif" font-size="10.00">tests/test_sieve.cpp</text>
</a>
</g>
</g>
<!-- Node3&#45;&gt;Node14 -->
<g id="edge14" class="edge"><title>Node3&#45;&gt;Node14</title>
<path fill="none" stroke="midnightblue" d="M504.739,-102.092C506.862,-88.1124 511.569,-69.2764 522,-56 535.619,-38.6666 557.898,-26.7758 575.166,-19.5905"/>
<polygon fill="midnightblue" stroke="midnightblue" points="501.259,-101.716 503.531,-112.064 508.209,-102.558 501.259,-101.716"/>
</g>
<!-- Node15 -->
<g id="node16" class="node"><title>Node15</title>
<g id="a_node16"><a xlink:href="test__svp_8cpp.html" target="_top" xlink:title="tests/test_svp.cpp">
<polygon fill="white" stroke="black" points="671,-0.5 671,-19.5 769,-19.5 769,-0.5 671,-0.5"/>
<text text-anchor="middle" x="720" y="-7.5" font-family="Helvetica,sans-Serif" font-size="10.00">tests/test_svp.cpp</text>
</a>
</g>
</g>
<!-- Node3&#45;&gt;Node15 -->
<g id="edge15" class="edge"><title>Node3&#45;&gt;Node15</title>
<path fill="none" stroke="midnightblue" d="M534.511,-108.66C555.604,-100.118 583.825,-88.1395 608,-76 644.566,-57.6384 685.748,-32.5316 706.501,-19.551"/>
<polygon fill="midnightblue" stroke="midnightblue" points="533.048,-105.476 525.07,-112.448 535.654,-111.973 533.048,-105.476"/>
</g>
<!-- Node16 -->
<g id="node17" class="node"><title>Node16</title>
<g id="a_node17"><a xlink:href="test__utils_8h.html" target="_top" xlink:title="tests/test_utils.h">
<polygon fill="white" stroke="black" points="385.5,-56.5 385.5,-75.5 474.5,-75.5 474.5,-56.5 385.5,-56.5"/>
<text text-anchor="middle" x="430" y="-63.5" font-family="Helvetica,sans-Serif" font-size="10.00">tests/test_utils.h</text>
</a>
</g>
</g>
<!-- Node3&#45;&gt;Node16 -->
<g id="edge16" class="edge"><title>Node3&#45;&gt;Node16</title>
<path fill="none" stroke="midnightblue" d="M482.858,-106.101C469.721,-96.3824 453.018,-84.0269 441.942,-75.8339"/>
<polygon fill="midnightblue" stroke="midnightblue" points="481.15,-109.191 491.271,-112.324 485.313,-103.563 481.15,-109.191"/>
</g>
<!-- Node6 -->
<g id="node7" class="node"><title>Node6</title>
<g id="a_node7"><a xlink:href="main_8cpp.html" target="_top" xlink:title="fplll/main.cpp">
<polygon fill="white" stroke="black" points="0,-0.5 0,-19.5 74,-19.5 74,-0.5 0,-0.5"/>
<text text-anchor="middle" x="37" y="-7.5" font-family="Helvetica,sans-Serif" font-size="10.00">fplll/main.cpp</text>
</a>
</g>
</g>
<!-- Node5&#45;&gt;Node6 -->
<g id="edge6" class="edge"><title>Node5&#45;&gt;Node6</title>
<path fill="none" stroke="midnightblue" d="M44.8001,-46.1005C42.8079,-37.1357 40.524,-26.8579 38.9447,-19.7511"/>
<polygon fill="midnightblue" stroke="midnightblue" points="41.4324,-47.0804 47.0184,-56.083 48.2657,-45.5618 41.4324,-47.0804"/>
</g>
<!-- Node16&#45;&gt;Node8 -->
<g id="edge17" class="edge"><title>Node16&#45;&gt;Node8</title>
<path fill="none" stroke="midnightblue" d="M375.625,-54.8399C321.002,-44.6335 237.778,-29.0831 186.528,-19.5069"/>
<polygon fill="midnightblue" stroke="midnightblue" points="375.004,-58.2845 385.477,-56.6808 376.29,-51.4036 375.004,-58.2845"/>
</g>
<!-- Node16&#45;&gt;Node9 -->
<g id="edge18" class="edge"><title>Node16&#45;&gt;Node9</title>
<path fill="none" stroke="midnightblue" d="M392.953,-53.4363C360.336,-43.2551 313.59,-28.664 284.284,-19.5164"/>
<polygon fill="midnightblue" stroke="midnightblue" points="391.999,-56.8049 402.588,-56.4435 394.085,-50.1228 391.999,-56.8049"/>
</g>
<!-- Node16&#45;&gt;Node10 -->
<g id="edge20" class="edge"><title>Node16&#45;&gt;Node10</title>
<path fill="none" stroke="midnightblue" d="M412.533,-49.5372C401.656,-39.9087 388.056,-27.8694 378.979,-19.8339"/>
<polygon fill="midnightblue" stroke="midnightblue" points="410.392,-52.3162 420.199,-56.324 415.032,-47.0749 410.392,-52.3162"/>
</g>
<!-- Node16&#45;&gt;Node11 -->
<g id="edge21" class="edge"><title>Node16&#45;&gt;Node11</title>
<path fill="none" stroke="midnightblue" d="M484.68,-58.731C574.145,-48.4738 751.01,-28.1963 842.745,-17.6789"/>
<polygon fill="midnightblue" stroke="midnightblue" points="484.271,-55.2548 474.735,-59.8711 485.069,-62.2092 484.271,-55.2548"/>
</g>
<!-- Node16&#45;&gt;Node14 -->
<g id="edge22" class="edge"><title>Node16&#45;&gt;Node14</title>
<path fill="none" stroke="midnightblue" d="M466.819,-53.3044C498.852,-43.1294 544.515,-28.6246 573.189,-19.5164"/>
<polygon fill="midnightblue" stroke="midnightblue" points="465.408,-50.0803 456.937,-56.4435 467.527,-56.7518 465.408,-50.0803"/>
</g>
<!-- Node16&#45;&gt;Node15 -->
<g id="edge23" class="edge"><title>Node16&#45;&gt;Node15</title>
<path fill="none" stroke="midnightblue" d="M484.563,-54.8399C539.375,-44.6335 622.887,-29.0831 674.315,-19.5069"/>
<polygon fill="midnightblue" stroke="midnightblue" points="483.867,-51.4093 474.677,-56.6808 485.149,-58.291 483.867,-51.4093"/>
</g>
<!-- Node17 -->
<g id="node18" class="node"><title>Node17</title>
<g id="a_node18"><a xlink:href="test__gso_8cpp.html" target="_top" xlink:title="tests/test_gso.cpp">
<polygon fill="white" stroke="black" points="431,-0.5 431,-19.5 529,-19.5 529,-0.5 431,-0.5"/>
<text text-anchor="middle" x="480" y="-7.5" font-family="Helvetica,sans-Serif" font-size="10.00">tests/test_gso.cpp</text>
</a>
</g>
</g>
<!-- Node16&#45;&gt;Node17 -->
<g id="edge19" class="edge"><title>Node16&#45;&gt;Node17</title>
<path fill="none" stroke="midnightblue" d="M445.076,-48.7175C453.889,-39.1997 464.666,-27.5608 471.897,-19.7511"/>
<polygon fill="midnightblue" stroke="midnightblue" points="442.482,-46.3674 438.256,-56.083 447.619,-51.1233 442.482,-46.3674"/>
</g>
</g>
</svg>
