<?xml version="1.0" encoding="UTF-8" standalone="no"?>
<!DOCTYPE svg PUBLIC "-//W3C//DTD SVG 1.1//EN"
 "http://www.w3.org/Graphics/SVG/1.1/DTD/svg11.dtd">
<!-- Generated by graphviz version 2.38.0 (20140413.2041)
 -->
<!-- Title: fplll/lll.h Pages: 1 -->
<svg width="922pt" height="520pt"
 viewBox="0.00 0.00 922.00 520.00" xmlns="http://www.w3.org/2000/svg" xmlns:xlink="http://www.w3.org/1999/xlink">
<g id="graph0" class="graph" transform="scale(1 1) rotate(0) translate(4 516)">
<title>fplll/lll.h</title>
<polygon fill="white" stroke="none" points="-4,4 -4,-516 918,-516 918,4 -4,4"/>
<!-- Node1 -->
<g id="node1" class="node"><title>Node1</title>
<polygon fill="#bfbfbf" stroke="black" points="418,-492.5 418,-511.5 468,-511.5 468,-492.5 418,-492.5"/>
<text text-anchor="middle" x="443" y="-499.5" font-family="Helvetica,sans-Serif" font-size="10.00">fplll/lll.h</text>
</g>
<!-- Node2 -->
<g id="node2" class="node"><title>Node2</title>
<g id="a_node2"><a xlink:href="bkz_8h.html" target="_top" xlink:title="fplll/bkz.h">
<polygon fill="white" stroke="black" points="335.5,-436.5 335.5,-455.5 394.5,-455.5 394.5,-436.5 335.5,-436.5"/>
<text text-anchor="middle" x="365" y="-443.5" font-family="Helvetica,sans-Serif" font-size="10.00">fplll/bkz.h</text>
</a>
</g>
</g>
<!-- Node1&#45;&gt;Node2 -->
<g id="edge1" class="edge"><title>Node1&#45;&gt;Node2</title>
<path fill="none" stroke="midnightblue" d="M422.232,-486.622C407.983,-476.757 389.544,-463.992 377.501,-455.655"/>
<polygon fill="midnightblue" stroke="midnightblue" points="420.254,-489.51 430.468,-492.324 424.238,-483.754 420.254,-489.51"/>
</g>
<!-- Node25 -->
<g id="node25" class="node"><title>Node25</title>
<g id="a_node25"><a xlink:href="lll_8cpp.html" target="_top" xlink:title="fplll/lll.cpp">
<polygon fill="white" stroke="black" points="413,-436.5 413,-455.5 473,-455.5 473,-436.5 413,-436.5"/>
<text text-anchor="middle" x="443" y="-443.5" font-family="Helvetica,sans-Serif" font-size="10.00">fplll/lll.cpp</text>
</a>
</g>
</g>
<!-- Node1&#45;&gt;Node25 -->
<g id="edge30" class="edge"><title>Node1&#45;&gt;Node25</title>
<path fill="none" stroke="midnightblue" d="M443,-481.805C443,-472.91 443,-462.78 443,-455.751"/>
<polygon fill="midnightblue" stroke="midnightblue" points="439.5,-482.083 443,-492.083 446.5,-482.083 439.5,-482.083"/>
</g>
<!-- Node26 -->
<g id="node26" class="node"><title>Node26</title>
<g id="a_node26"><a xlink:href="wrapper_8cpp.html" target="_top" xlink:title="fplll/wrapper.cpp">
<polygon fill="white" stroke="black" points="491,-436.5 491,-455.5 579,-455.5 579,-436.5 491,-436.5"/>
<text text-anchor="middle" x="535" y="-443.5" font-family="Helvetica,sans-Serif" font-size="10.00">fplll/wrapper.cpp</text>
</a>
</g>
</g>
<!-- Node1&#45;&gt;Node26 -->
<g id="edge31" class="edge"><title>Node1&#45;&gt;Node26</title>
<path fill="none" stroke="midnightblue" d="M466.55,-487.177C483.479,-477.241 505.783,-464.149 520.255,-455.655"/>
<polygon fill="midnightblue" stroke="midnightblue" points="464.634,-484.243 457.781,-492.324 468.177,-490.28 464.634,-484.243"/>
</g>
<!-- Node3 -->
<g id="node3" class="node"><title>Node3</title>
<g id="a_node3"><a xlink:href="bkz_8cpp.html" target="_top" xlink:title="fplll/bkz.cpp">
<polygon fill="white" stroke="black" points="289.5,-380.5 289.5,-399.5 358.5,-399.5 358.5,-380.5 289.5,-380.5"/>
<text text-anchor="middle" x="324" y="-387.5" font-family="Helvetica,sans-Serif" font-size="10.00">fplll/bkz.cpp</text>
</a>
</g>
</g>
<!-- Node2&#45;&gt;Node3 -->
<g id="edge2" class="edge"><title>Node2&#45;&gt;Node3</title>
<path fill="none" stroke="midnightblue" d="M351.983,-427.855C344.883,-418.505 336.396,-407.327 330.644,-399.751"/>
<polygon fill="midnightblue" stroke="midnightblue" points="349.395,-430.235 358.23,-436.083 354.97,-426.002 349.395,-430.235"/>
</g>
<!-- Node4 -->
<g id="node4" class="node"><title>Node4</title>
<g id="a_node4"><a xlink:href="fplll_8h.html" target="_top" xlink:title="fplll/fplll.h">
<polygon fill="white" stroke="black" points="377,-380.5 377,-399.5 435,-399.5 435,-380.5 377,-380.5"/>
<text text-anchor="middle" x="406" y="-387.5" font-family="Helvetica,sans-Serif" font-size="10.00">fplll/fplll.h</text>
</a>
</g>
</g>
<!-- Node2&#45;&gt;Node4 -->
<g id="edge3" class="edge"><title>Node2&#45;&gt;Node4</title>
<path fill="none" stroke="midnightblue" d="M378.017,-427.855C385.117,-418.505 393.604,-407.327 399.356,-399.751"/>
<polygon fill="midnightblue" stroke="midnightblue" points="375.03,-426.002 371.77,-436.083 380.605,-430.235 375.03,-426.002"/>
</g>
<!-- Node5 -->
<g id="node5" class="node"><title>Node5</title>
<g id="a_node5"><a xlink:href="fplll_8cpp.html" target="_top" xlink:title="fplll/fplll.cpp">
<polygon fill="white" stroke="black" points="37,-319 37,-338 105,-338 105,-319 37,-319"/>
<text text-anchor="middle" x="71" y="-326" font-family="Helvetica,sans-Serif" font-size="10.00">fplll/fplll.cpp</text>
</a>
</g>
</g>
<!-- Node4&#45;&gt;Node5 -->
<g id="edge4" class="edge"><title>Node4&#45;&gt;Node5</title>
<path fill="none" stroke="midnightblue" d="M366.561,-379.889C254.142,-359.46 221.794,-369.582 114,-344 107.408,-342.435 100.392,-340.286 93.9812,-338.121"/>
<polygon fill="midnightblue" stroke="midnightblue" points="366.127,-383.369 376.599,-381.755 367.407,-376.486 366.127,-383.369"/>
</g>
<!-- Node6 -->
<g id="node6" class="node"><title>Node6</title>
<g id="a_node6"><a xlink:href="main_8h.html" target="_top" xlink:title="fplll/main.h">
<polygon fill="white" stroke="black" points="123,-319 123,-338 187,-338 187,-319 123,-319"/>
<text text-anchor="middle" x="155" y="-326" font-family="Helvetica,sans-Serif" font-size="10.00">fplll/main.h</text>
</a>
</g>
</g>
<!-- Node4&#45;&gt;Node6 -->
<g id="edge5" class="edge"><title>Node4&#45;&gt;Node6</title>
<path fill="none" stroke="midnightblue" d="M366.806,-379.802C289.993,-363.129 268.121,-364.203 196,-344 189.893,-342.289 183.379,-340.14 177.384,-338.024"/>
<polygon fill="midnightblue" stroke="midnightblue" points="366.453,-383.309 376.972,-382.042 367.959,-376.472 366.453,-383.309"/>
</g>
<!-- Node8 -->
<g id="node8" class="node"><title>Node8</title>
<g id="a_node8"><a xlink:href="sampler__basic_8h.html" target="_top" xlink:title="fplll/sieve/sampler\l_basic.h">
<polygon fill="white" stroke="black" points="205.5,-313.5 205.5,-343.5 300.5,-343.5 300.5,-313.5 205.5,-313.5"/>
<text text-anchor="start" x="213.5" y="-331.5" font-family="Helvetica,sans-Serif" font-size="10.00">fplll/sieve/sampler</text>
<text text-anchor="middle" x="253" y="-320.5" font-family="Helvetica,sans-Serif" font-size="10.00">_basic.h</text>
</a>
</g>
</g>
<!-- Node4&#45;&gt;Node8 -->
<g id="edge7" class="edge"><title>Node4&#45;&gt;Node8</title>
<path fill="none" stroke="midnightblue" d="M374.751,-376.847C349.896,-367.182 315.093,-353.647 289.059,-343.523"/>
<polygon fill="midnightblue" stroke="midnightblue" points="373.49,-380.113 384.079,-380.475 376.027,-373.589 373.49,-380.113"/>
</g>
<!-- Node11 -->
<g id="node11" class="node"><title>Node11</title>
<g id="a_node11"><a xlink:href="sieve__common_8h.html" target="_top" xlink:title="fplll/sieve/sieve_common.h">
<polygon fill="white" stroke="black" points="318.5,-252 318.5,-271 453.5,-271 453.5,-252 318.5,-252"/>
<text text-anchor="middle" x="386" y="-259" font-family="Helvetica,sans-Serif" font-size="10.00">fplll/sieve/sieve_common.h</text>
</a>
</g>
</g>
<!-- Node4&#45;&gt;Node11 -->
<g id="edge24" class="edge"><title>Node4&#45;&gt;Node11</title>
<path fill="none" stroke="midnightblue" d="M378.873,-375.324C367.096,-367.823 354.523,-357.316 348,-344 335.089,-317.642 361.635,-286.044 376.648,-271.117"/>
<polygon fill="midnightblue" stroke="midnightblue" points="377.218,-378.411 387.611,-380.471 380.771,-372.379 377.218,-378.411"/>
</g>
<!-- Node20 -->
<g id="node20" class="node"><title>Node20</title>
<g id="a_node20"><a xlink:href="test__bkz_8cpp.html" target="_top" xlink:title="tests/test_bkz.cpp">
<polygon fill="white" stroke="black" points="357,-319 357,-338 455,-338 455,-319 357,-319"/>
<text text-anchor="middle" x="406" y="-326" font-family="Helvetica,sans-Serif" font-size="10.00">tests/test_bkz.cpp</text>
</a>
</g>
</g>
<!-- Node4&#45;&gt;Node20 -->
<g id="edge25" class="edge"><title>Node4&#45;&gt;Node20</title>
<path fill="none" stroke="midnightblue" d="M406,-370.317C406,-359.496 406,-346.398 406,-338.009"/>
<polygon fill="midnightblue" stroke="midnightblue" points="402.5,-370.475 406,-380.475 409.5,-370.475 402.5,-370.475"/>
</g>
<!-- Node21 -->
<g id="node21" class="node"><title>Node21</title>
<g id="a_node21"><a xlink:href="test__lll_8cpp.html" target="_top" xlink:title="tests/test_lll.cpp">
<polygon fill="white" stroke="black" points="472.5,-319 472.5,-338 561.5,-338 561.5,-319 472.5,-319"/>
<text text-anchor="middle" x="517" y="-326" font-family="Helvetica,sans-Serif" font-size="10.00">tests/test_lll.cpp</text>
</a>
</g>
</g>
<!-- Node4&#45;&gt;Node21 -->
<g id="edge26" class="edge"><title>Node4&#45;&gt;Node21</title>
<path fill="none" stroke="midnightblue" d="M430.79,-375.712C452.288,-364.188 482.758,-347.855 501.126,-338.009"/>
<polygon fill="midnightblue" stroke="midnightblue" points="429.064,-372.666 421.904,-380.475 432.371,-378.835 429.064,-372.666"/>
</g>
<!-- Node22 -->
<g id="node22" class="node"><title>Node22</title>
<g id="a_node22"><a xlink:href="test__nr_8cpp.html" target="_top" xlink:title="tests/test_nr.cpp">
<polygon fill="white" stroke="black" points="580,-319 580,-338 670,-338 670,-319 580,-319"/>
<text text-anchor="middle" x="625" y="-326" font-family="Helvetica,sans-Serif" font-size="10.00">tests/test_nr.cpp</text>
</a>
</g>
</g>
<!-- Node4&#45;&gt;Node22 -->
<g id="edge27" class="edge"><title>Node4&#45;&gt;Node22</title>
<path fill="none" stroke="midnightblue" d="M444.784,-378.463C487.226,-366.932 554.437,-348.671 593.672,-338.012"/>
<polygon fill="midnightblue" stroke="midnightblue" points="443.814,-375.099 435.082,-381.099 445.649,-381.854 443.814,-375.099"/>
</g>
<!-- Node23 -->
<g id="node23" class="node"><title>Node23</title>
<g id="a_node23"><a xlink:href="test__pruner_8cpp.html" target="_top" xlink:title="tests/test_pruner.cpp">
<polygon fill="white" stroke="black" points="688.5,-319 688.5,-338 797.5,-338 797.5,-319 688.5,-319"/>
<text text-anchor="middle" x="743" y="-326" font-family="Helvetica,sans-Serif" font-size="10.00">tests/test_pruner.cpp</text>
</a>
</g>
</g>
<!-- Node4&#45;&gt;Node23 -->
<g id="edge28" class="edge"><title>Node4&#45;&gt;Node23</title>
<path fill="none" stroke="midnightblue" d="M445.208,-383.286C498.351,-375.371 596.132,-360.202 679,-344 688.168,-342.207 698.03,-340.075 707.199,-338.006"/>
<polygon fill="midnightblue" stroke="midnightblue" points="444.571,-379.842 435.192,-384.771 445.597,-386.767 444.571,-379.842"/>
</g>
<!-- Node24 -->
<g id="node24" class="node"><title>Node24</title>
<g id="a_node24"><a xlink:href="test__svp_8cpp.html" target="_top" xlink:title="tests/test_svp.cpp">
<polygon fill="white" stroke="black" points="816,-319 816,-338 914,-338 914,-319 816,-319"/>
<text text-anchor="middle" x="865" y="-326" font-family="Helvetica,sans-Serif" font-size="10.00">tests/test_svp.cpp</text>
</a>
</g>
</g>
<!-- Node4&#45;&gt;Node24 -->
<g id="edge29" class="edge"><title>Node4&#45;&gt;Node24</title>
<path fill="none" stroke="midnightblue" d="M445.384,-386.33C517.533,-381.052 675.576,-367.693 807,-344 815.887,-342.398 825.432,-340.21 834.162,-338.02"/>
<polygon fill="midnightblue" stroke="midnightblue" points="445.099,-382.842 435.376,-387.051 445.602,-389.824 445.099,-382.842"/>
</g>
<!-- Node7 -->
<g id="node7" class="node"><title>Node7</title>
<g id="a_node7"><a xlink:href="main_8cpp.html" target="_top" xlink:title="fplll/main.cpp">
<polygon fill="white" stroke="black" points="0,-252 0,-271 74,-271 74,-252 0,-252"/>
<text text-anchor="middle" x="37" y="-259" font-family="Helvetica,sans-Serif" font-size="10.00">fplll/main.cpp</text>
</a>
</g>
</g>
<!-- Node6&#45;&gt;Node7 -->
<g id="edge6" class="edge"><title>Node6&#45;&gt;Node7</title>
<path fill="none" stroke="midnightblue" d="M130.106,-313.787C106.719,-300.905 72.4441,-282.024 52.6619,-271.127"/>
<polygon fill="midnightblue" stroke="midnightblue" points="128.638,-316.975 139.086,-318.734 132.016,-310.843 128.638,-316.975"/>
</g>
<!-- Node9 -->
<g id="node9" class="node"><title>Node9</title>
<g id="a_node9"><a xlink:href="sampler__basic_8cpp.html" target="_top" xlink:title="fplll/sieve/sampler\l_basic.cpp">
<polygon fill="white" stroke="black" points="92.5,-246.5 92.5,-276.5 187.5,-276.5 187.5,-246.5 92.5,-246.5"/>
<text text-anchor="start" x="100.5" y="-264.5" font-family="Helvetica,sans-Serif" font-size="10.00">fplll/sieve/sampler</text>
<text text-anchor="middle" x="140" y="-253.5" font-family="Helvetica,sans-Serif" font-size="10.00">_basic.cpp</text>
</a>
</g>
</g>
<!-- Node8&#45;&gt;Node9 -->
<g id="edge8" class="edge"><title>Node8&#45;&gt;Node9</title>
<path fill="none" stroke="midnightblue" d="M219.614,-308.296C201.932,-298.125 180.602,-285.855 164.471,-276.577"/>
<polygon fill="midnightblue" stroke="midnightblue" points="218.067,-311.444 228.481,-313.396 221.558,-305.376 218.067,-311.444"/>
</g>
<!-- Node10 -->
<g id="node10" class="node"><title>Node10</title>
<g id="a_node10"><a xlink:href="sampler__main_8cpp.html" target="_top" xlink:title="fplll/sieve/sampler\l_main.cpp">
<polygon fill="white" stroke="black" points="205.5,-246.5 205.5,-276.5 300.5,-276.5 300.5,-246.5 205.5,-246.5"/>
<text text-anchor="start" x="213.5" y="-264.5" font-family="Helvetica,sans-Serif" font-size="10.00">fplll/sieve/sampler</text>
<text text-anchor="middle" x="253" y="-253.5" font-family="Helvetica,sans-Serif" font-size="10.00">_main.cpp</text>
</a>
</g>
</g>
<!-- Node8&#45;&gt;Node10 -->
<g id="edge9" class="edge"><title>Node8&#45;&gt;Node10</title>
<path fill="none" stroke="midnightblue" d="M253,-303.108C253,-294.154 253,-284.323 253,-276.577"/>
<polygon fill="midnightblue" stroke="midnightblue" points="249.5,-303.396 253,-313.396 256.5,-303.396 249.5,-303.396"/>
</g>
<!-- Node8&#45;&gt;Node11 -->
<g id="edge10" class="edge"><title>Node8&#45;&gt;Node11</title>
<path fill="none" stroke="midnightblue" d="M290.921,-308.967C316.47,-296.481 348.969,-280.598 368.593,-271.007"/>
<polygon fill="midnightblue" stroke="midnightblue" points="289.307,-305.86 281.859,-313.396 292.38,-312.15 289.307,-305.86"/>
</g>
<!-- Node12 -->
<g id="node12" class="node"><title>Node12</title>
<g id="a_node12"><a xlink:href="sieve__gauss__str_8h.html" target="_top" xlink:title="fplll/sieve/sieve_gauss\l_str.h">
<polygon fill="white" stroke="black" points="328,-179.5 328,-209.5 444,-209.5 444,-179.5 328,-179.5"/>
<text text-anchor="start" x="336" y="-197.5" font-family="Helvetica,sans-Serif" font-size="10.00">fplll/sieve/sieve_gauss</text>
<text text-anchor="middle" x="386" y="-186.5" font-family="Helvetica,sans-Serif" font-size="10.00">_str.h</text>
</a>
</g>
</g>
<!-- Node11&#45;&gt;Node12 -->
<g id="edge11" class="edge"><title>Node11&#45;&gt;Node12</title>
<path fill="none" stroke="midnightblue" d="M379.817,-241.739C378.919,-231.487 379.088,-219.001 380.324,-209.589"/>
<polygon fill="midnightblue" stroke="midnightblue" points="376.364,-242.313 381.211,-251.734 383.297,-241.346 376.364,-242.313"/>
</g>
<!-- Node13 -->
<g id="node13" class="node"><title>Node13</title>
<g id="a_node13"><a xlink:href="sieve__gauss_8h.html" target="_top" xlink:title="fplll/sieve/sieve_gauss.h">
<polygon fill="white" stroke="black" points="367,-123.5 367,-142.5 491,-142.5 491,-123.5 367,-123.5"/>
<text text-anchor="middle" x="429" y="-130.5" font-family="Helvetica,sans-Serif" font-size="10.00">fplll/sieve/sieve_gauss.h</text>
</a>
</g>
</g>
<!-- Node11&#45;&gt;Node13 -->
<g id="edge23" class="edge"><title>Node11&#45;&gt;Node13</title>
<path fill="none" stroke="midnightblue" d="M414.689,-246.933C429.005,-238.492 444.95,-226.147 453,-210 464.482,-186.967 446.61,-157.284 435.977,-142.773"/>
<polygon fill="midnightblue" stroke="midnightblue" points="412.695,-244.034 405.615,-251.917 416.065,-250.17 412.695,-244.034"/>
</g>
<!-- Node12&#45;&gt;Node11 -->
<g id="edge12" class="edge"><title>Node12&#45;&gt;Node11</title>
<path fill="none" stroke="midnightblue" d="M392.551,-219.714C393.1,-230.923 392.513,-243.541 390.789,-251.734"/>
<polygon fill="midnightblue" stroke="midnightblue" points="396.024,-219.251 391.676,-209.589 389.05,-219.853 396.024,-219.251"/>
</g>
<!-- Node12&#45;&gt;Node13 -->
<g id="edge13" class="edge"><title>Node12&#45;&gt;Node13</title>
<path fill="none" stroke="midnightblue" d="M402.185,-171.104C409.352,-161.187 417.36,-150.106 422.743,-142.658"/>
<polygon fill="midnightblue" stroke="midnightblue" points="399.211,-169.244 396.19,-179.399 404.885,-173.344 399.211,-169.244"/>
</g>
<!-- Node14 -->
<g id="node14" class="node"><title>Node14</title>
<g id="a_node14"><a xlink:href="sieve__gauss_8cpp.html" target="_top" xlink:title="fplll/sieve/sieve_gauss.cpp">
<polygon fill="white" stroke="black" points="295,-0.5 295,-19.5 429,-19.5 429,-0.5 295,-0.5"/>
<text text-anchor="middle" x="362" y="-7.5" font-family="Helvetica,sans-Serif" font-size="10.00">fplll/sieve/sieve_gauss.cpp</text>
</a>
</g>
</g>
<!-- Node13&#45;&gt;Node14 -->
<g id="edge14" class="edge"><title>Node13&#45;&gt;Node14</title>
<path fill="none" stroke="midnightblue" d="M356.884,-125.287C306.002,-118.884 244.137,-107.149 228,-87 200.08,-52.1379 265.611,-30.4179 314.55,-19.5294"/>
<polygon fill="midnightblue" stroke="midnightblue" points="356.55,-128.771 366.897,-126.497 357.39,-121.822 356.55,-128.771"/>
</g>
<!-- Node15 -->
<g id="node15" class="node"><title>Node15</title>
<g id="a_node15"><a xlink:href="sieve__gauss__2sieve_8cpp.html" target="_top" xlink:title="fplll/sieve/sieve_gauss\l_2sieve.cpp">
<polygon fill="white" stroke="black" points="237,-56.5 237,-86.5 353,-86.5 353,-56.5 237,-56.5"/>
<text text-anchor="start" x="245" y="-74.5" font-family="Helvetica,sans-Serif" font-size="10.00">fplll/sieve/sieve_gauss</text>
<text text-anchor="middle" x="295" y="-63.5" font-family="Helvetica,sans-Serif" font-size="10.00">_2sieve.cpp</text>
</a>
</g>
</g>
<!-- Node13&#45;&gt;Node15 -->
<g id="edge15" class="edge"><title>Node13&#45;&gt;Node15</title>
<path fill="none" stroke="midnightblue" d="M400.467,-119.331C378.787,-109.704 348.978,-96.468 326.581,-86.523"/>
<polygon fill="midnightblue" stroke="midnightblue" points="399.241,-122.616 409.801,-123.475 402.082,-116.218 399.241,-122.616"/>
</g>
<!-- Node16 -->
<g id="node16" class="node"><title>Node16</title>
<g id="a_node16"><a xlink:href="sieve__gauss__3sieve_8cpp.html" target="_top" xlink:title="fplll/sieve/sieve_gauss\l_3sieve.cpp">
<polygon fill="white" stroke="black" points="371,-56.5 371,-86.5 487,-86.5 487,-56.5 371,-56.5"/>
<text text-anchor="start" x="379" y="-74.5" font-family="Helvetica,sans-Serif" font-size="10.00">fplll/sieve/sieve_gauss</text>
<text text-anchor="middle" x="429" y="-63.5" font-family="Helvetica,sans-Serif" font-size="10.00">_3sieve.cpp</text>
</a>
</g>
</g>
<!-- Node13&#45;&gt;Node16 -->
<g id="edge17" class="edge"><title>Node13&#45;&gt;Node16</title>
<path fill="none" stroke="midnightblue" d="M429,-113.235C429,-104.586 429,-94.4969 429,-86.523"/>
<polygon fill="midnightblue" stroke="midnightblue" points="425.5,-113.475 429,-123.475 432.5,-113.475 425.5,-113.475"/>
</g>
<!-- Node17 -->
<g id="node17" class="node"><title>Node17</title>
<g id="a_node17"><a xlink:href="sieve__gauss__4sieve_8cpp.html" target="_top" xlink:title="fplll/sieve/sieve_gauss\l_4sieve.cpp">
<polygon fill="white" stroke="black" points="505,-56.5 505,-86.5 621,-86.5 621,-56.5 505,-56.5"/>
<text text-anchor="start" x="513" y="-74.5" font-family="Helvetica,sans-Serif" font-size="10.00">fplll/sieve/sieve_gauss</text>
<text text-anchor="middle" x="563" y="-63.5" font-family="Helvetica,sans-Serif" font-size="10.00">_4sieve.cpp</text>
</a>
</g>
</g>
<!-- Node13&#45;&gt;Node17 -->
<g id="edge19" class="edge"><title>Node13&#45;&gt;Node17</title>
<path fill="none" stroke="midnightblue" d="M457.533,-119.331C479.213,-109.704 509.022,-96.468 531.419,-86.523"/>
<polygon fill="midnightblue" stroke="midnightblue" points="455.918,-116.218 448.199,-123.475 458.759,-122.616 455.918,-116.218"/>
</g>
<!-- Node18 -->
<g id="node18" class="node"><title>Node18</title>
<g id="a_node18"><a xlink:href="sieve__main_8h.html" target="_top" xlink:title="fplll/sieve/sieve_main.h">
<polygon fill="white" stroke="black" points="639.5,-62 639.5,-81 758.5,-81 758.5,-62 639.5,-62"/>
<text text-anchor="middle" x="699" y="-69" font-family="Helvetica,sans-Serif" font-size="10.00">fplll/sieve/sieve_main.h</text>
</a>
</g>
</g>
<!-- Node13&#45;&gt;Node18 -->
<g id="edge21" class="edge"><title>Node13&#45;&gt;Node18</title>
<path fill="none" stroke="midnightblue" d="M477.743,-121.258C530.12,-109.716 612.302,-91.6056 660.387,-81.0091"/>
<polygon fill="midnightblue" stroke="midnightblue" points="476.697,-117.905 467.684,-123.475 478.203,-124.741 476.697,-117.905"/>
</g>
<!-- Node15&#45;&gt;Node14 -->
<g id="edge16" class="edge"><title>Node15&#45;&gt;Node14</title>
<path fill="none" stroke="midnightblue" d="M318.538,-49.5972C330.116,-39.3153 343.44,-27.4824 352.251,-19.6578"/>
<polygon fill="midnightblue" stroke="midnightblue" points="316.031,-47.1421 310.878,-56.3993 320.679,-52.3761 316.031,-47.1421"/>
</g>
<!-- Node16&#45;&gt;Node14 -->
<g id="edge18" class="edge"><title>Node16&#45;&gt;Node14</title>
<path fill="none" stroke="midnightblue" d="M405.462,-49.5972C393.884,-39.3153 380.56,-27.4824 371.749,-19.6578"/>
<polygon fill="midnightblue" stroke="midnightblue" points="403.321,-52.3761 413.122,-56.3993 407.969,-47.1421 403.321,-52.3761"/>
</g>
<!-- Node17&#45;&gt;Node14 -->
<g id="edge20" class="edge"><title>Node17&#45;&gt;Node14</title>
<path fill="none" stroke="midnightblue" d="M505.802,-53.5681C468.209,-42.44 420.622,-28.3534 390.736,-19.5064"/>
<polygon fill="midnightblue" stroke="midnightblue" points="505.038,-56.9922 515.62,-56.4747 507.025,-50.2801 505.038,-56.9922"/>
</g>
<!-- Node19 -->
<g id="node19" class="node"><title>Node19</title>
<g id="a_node19"><a xlink:href="sieve__main_8cpp.html" target="_top" xlink:title="fplll/sieve/sieve_main.cpp">
<polygon fill="white" stroke="black" points="634.5,-0.5 634.5,-19.5 763.5,-19.5 763.5,-0.5 634.5,-0.5"/>
<text text-anchor="middle" x="699" y="-7.5" font-family="Helvetica,sans-Serif" font-size="10.00">fplll/sieve/sieve_main.cpp</text>
</a>
</g>
</g>
<!-- Node18&#45;&gt;Node19 -->
<g id="edge22" class="edge"><title>Node18&#45;&gt;Node19</title>
<path fill="none" stroke="midnightblue" d="M699,-51.8165C699,-40.9962 699,-27.898 699,-19.5091"/>
<polygon fill="midnightblue" stroke="midnightblue" points="695.5,-51.9751 699,-61.9751 702.5,-51.9751 695.5,-51.9751"/>
</g>
</g>
</svg>
