<?xml version="1.0" encoding="UTF-8" standalone="no"?>
<!DOCTYPE svg PUBLIC "-//W3C//DTD SVG 1.1//EN"
 "http://www.w3.org/Graphics/SVG/1.1/DTD/svg11.dtd">
<!-- Generated by graphviz version 2.43.0 (0)
 -->
<!-- Title: fplll/lll.h Pages: 1 -->
<svg width="1922pt" height="375pt"
 viewBox="0.00 0.00 1922.21 375.00" xmlns="http://www.w3.org/2000/svg" xmlns:xlink="http://www.w3.org/1999/xlink">
<g id="graph0" class="graph" transform="scale(1 1) rotate(0) translate(4 371)">
<title>fplll/lll.h</title>
<polygon fill="white" stroke="transparent" points="-4,4 -4,-371 1918.21,-371 1918.21,4 -4,4"/>
<!-- Node1 -->
<g id="node1" class="node">
<title>Node1</title>
<g id="a_node1"><a xlink:title=" ">
<polygon fill="#bfbfbf" stroke="black" points="1695.71,-347.5 1695.71,-366.5 1745.71,-366.5 1745.71,-347.5 1695.71,-347.5"/>
<text text-anchor="middle" x="1720.71" y="-354.5" font-family="Helvetica,sans-Serif" font-size="10.00">fplll/lll.h</text>
</a>
</g>
</g>
<!-- Node2 -->
<g id="node2" class="node">
<title>Node2</title>
<g id="a_node2"><a xlink:href="bkz_8h.html" target="_top" xlink:title=" ">
<polygon fill="white" stroke="black" points="1095.21,-179.5 1095.21,-198.5 1154.21,-198.5 1154.21,-179.5 1095.21,-179.5"/>
<text text-anchor="middle" x="1124.71" y="-186.5" font-family="Helvetica,sans-Serif" font-size="10.00">fplll/bkz.h</text>
</a>
</g>
</g>
<!-- Node1&#45;&gt;Node2 -->
<g id="edge1" class="edge">
<title>Node1&#45;&gt;Node2</title>
<path fill="none" stroke="midnightblue" d="M1685.79,-346.27C1578.41,-316.37 1254.43,-226.13 1154.43,-198.28"/>
<polygon fill="midnightblue" stroke="midnightblue" points="1684.91,-349.66 1695.49,-348.97 1686.79,-342.92 1684.91,-349.66"/>
</g>
<!-- Node22 -->
<g id="node22" class="node">
<title>Node22</title>
<g id="a_node22"><a xlink:href="test__lll__gram_8cpp.html" target="_top" xlink:title=" ">
<polygon fill="white" stroke="black" points="1542.71,-0.5 1542.71,-19.5 1658.71,-19.5 1658.71,-0.5 1542.71,-0.5"/>
<text text-anchor="middle" x="1600.71" y="-7.5" font-family="Helvetica,sans-Serif" font-size="10.00">tests/test_lll_gram.cpp</text>
</a>
</g>
</g>
<!-- Node1&#45;&gt;Node22 -->
<g id="edge53" class="edge">
<title>Node1&#45;&gt;Node22</title>
<path fill="none" stroke="midnightblue" d="M1720.71,-337.25C1720.71,-315.36 1720.71,-278.05 1720.71,-246 1720.71,-246 1720.71,-246 1720.71,-132 1720.71,-97.18 1724.1,-82.67 1701.71,-56 1686.04,-37.33 1661.06,-26.11 1639.87,-19.54"/>
<polygon fill="midnightblue" stroke="midnightblue" points="1717.21,-337.44 1720.71,-347.44 1724.21,-337.44 1717.21,-337.44"/>
</g>
<!-- Node29 -->
<g id="node29" class="node">
<title>Node29</title>
<g id="a_node29"><a xlink:href="lll_8cpp.html" target="_top" xlink:title=" ">
<polygon fill="white" stroke="black" points="1748.71,-291.5 1748.71,-310.5 1808.71,-310.5 1808.71,-291.5 1748.71,-291.5"/>
<text text-anchor="middle" x="1778.71" y="-298.5" font-family="Helvetica,sans-Serif" font-size="10.00">fplll/lll.cpp</text>
</a>
</g>
</g>
<!-- Node1&#45;&gt;Node29 -->
<g id="edge43" class="edge">
<title>Node1&#45;&gt;Node29</title>
<path fill="none" stroke="midnightblue" d="M1737.63,-340.25C1747.92,-330.67 1760.68,-318.79 1769.23,-310.83"/>
<polygon fill="midnightblue" stroke="midnightblue" points="1734.97,-337.95 1730.03,-347.32 1739.74,-343.07 1734.97,-337.95"/>
</g>
<!-- Node30 -->
<g id="node30" class="node">
<title>Node30</title>
<g id="a_node30"><a xlink:href="pruner_8h.html" target="_top" xlink:title=" ">
<polygon fill="white" stroke="black" points="880.21,-291.5 880.21,-310.5 979.21,-310.5 979.21,-291.5 880.21,-291.5"/>
<text text-anchor="middle" x="929.71" y="-298.5" font-family="Helvetica,sans-Serif" font-size="10.00">fplll/pruner/pruner.h</text>
</a>
</g>
</g>
<!-- Node1&#45;&gt;Node30 -->
<g id="edge44" class="edge">
<title>Node1&#45;&gt;Node30</title>
<path fill="none" stroke="midnightblue" d="M1684.95,-353.56C1557.66,-344.87 1126.37,-315.43 979.31,-305.39"/>
<polygon fill="midnightblue" stroke="midnightblue" points="1685.08,-357.08 1695.29,-354.26 1685.55,-350.09 1685.08,-357.08"/>
</g>
<!-- Node33 -->
<g id="node33" class="node">
<title>Node33</title>
<g id="a_node33"><a xlink:href="wrapper_8cpp.html" target="_top" xlink:title=" ">
<polygon fill="white" stroke="black" points="1827.21,-291.5 1827.21,-310.5 1914.21,-310.5 1914.21,-291.5 1827.21,-291.5"/>
<text text-anchor="middle" x="1870.71" y="-298.5" font-family="Helvetica,sans-Serif" font-size="10.00">fplll/wrapper.cpp</text>
</a>
</g>
</g>
<!-- Node1&#45;&gt;Node33 -->
<g id="edge52" class="edge">
<title>Node1&#45;&gt;Node33</title>
<path fill="none" stroke="midnightblue" d="M1753.94,-344.04C1782.16,-333.88 1821.98,-319.55 1847.06,-310.52"/>
<polygon fill="midnightblue" stroke="midnightblue" points="1752.71,-340.76 1744.48,-347.44 1755.08,-347.35 1752.71,-340.76"/>
</g>
<!-- Node3 -->
<g id="node3" class="node">
<title>Node3</title>
<g id="a_node3"><a xlink:href="bkz_8cpp.html" target="_top" xlink:title=" ">
<polygon fill="white" stroke="black" points="1061.21,-123.5 1061.21,-142.5 1130.21,-142.5 1130.21,-123.5 1061.21,-123.5"/>
<text text-anchor="middle" x="1095.71" y="-130.5" font-family="Helvetica,sans-Serif" font-size="10.00">fplll/bkz.cpp</text>
</a>
</g>
</g>
<!-- Node2&#45;&gt;Node3 -->
<g id="edge2" class="edge">
<title>Node2&#45;&gt;Node3</title>
<path fill="none" stroke="midnightblue" d="M1115.04,-169.98C1110.12,-160.82 1104.36,-150.09 1100.41,-142.75"/>
<polygon fill="midnightblue" stroke="midnightblue" points="1112.11,-171.93 1119.93,-179.08 1118.28,-168.62 1112.11,-171.93"/>
</g>
<!-- Node4 -->
<g id="node4" class="node">
<title>Node4</title>
<g id="a_node4"><a xlink:href="fplll_8h.html" target="_top" xlink:title=" ">
<polygon fill="white" stroke="black" points="860.71,-123.5 860.71,-142.5 918.71,-142.5 918.71,-123.5 860.71,-123.5"/>
<text text-anchor="middle" x="889.71" y="-130.5" font-family="Helvetica,sans-Serif" font-size="10.00">fplll/fplll.h</text>
</a>
</g>
</g>
<!-- Node2&#45;&gt;Node4 -->
<g id="edge3" class="edge">
<title>Node2&#45;&gt;Node4</title>
<path fill="none" stroke="midnightblue" d="M1085.11,-178.9C1038.08,-168.09 960.75,-150.32 918.87,-140.7"/>
<polygon fill="midnightblue" stroke="midnightblue" points="1084.42,-182.33 1094.95,-181.16 1085.99,-175.51 1084.42,-182.33"/>
</g>
<!-- Node5 -->
<g id="node5" class="node">
<title>Node5</title>
<g id="a_node5"><a xlink:href="fplll_8cpp.html" target="_top" xlink:title=" ">
<polygon fill="white" stroke="black" points="1025.71,-62 1025.71,-81 1093.71,-81 1093.71,-62 1025.71,-62"/>
<text text-anchor="middle" x="1059.71" y="-69" font-family="Helvetica,sans-Serif" font-size="10.00">fplll/fplll.cpp</text>
</a>
</g>
</g>
<!-- Node4&#45;&gt;Node5 -->
<g id="edge4" class="edge">
<title>Node4&#45;&gt;Node5</title>
<path fill="none" stroke="midnightblue" d="M923.76,-120.08C956.81,-108.52 1006.14,-91.25 1035.4,-81.01"/>
<polygon fill="midnightblue" stroke="midnightblue" points="922.35,-116.87 914.07,-123.48 924.67,-123.48 922.35,-116.87"/>
</g>
<!-- Node6 -->
<g id="node6" class="node">
<title>Node6</title>
<g id="a_node6"><a xlink:href="main_8h.html" target="_top" xlink:title=" ">
<polygon fill="white" stroke="black" points="1628.71,-62 1628.71,-81 1692.71,-81 1692.71,-62 1628.71,-62"/>
<text text-anchor="middle" x="1660.71" y="-69" font-family="Helvetica,sans-Serif" font-size="10.00">fplll/main.h</text>
</a>
</g>
</g>
<!-- Node4&#45;&gt;Node6 -->
<g id="edge5" class="edge">
<title>Node4&#45;&gt;Node6</title>
<path fill="none" stroke="midnightblue" d="M929.09,-129.82C1075.37,-121.7 1580.81,-93.3 1614.71,-87 1622.12,-85.62 1630.01,-83.42 1637.12,-81.15"/>
<polygon fill="midnightblue" stroke="midnightblue" points="928.59,-126.34 918.8,-130.39 928.98,-133.33 928.59,-126.34"/>
</g>
<!-- Node8 -->
<g id="node8" class="node">
<title>Node8</title>
<g id="a_node8"><a xlink:href="pruner_8cpp.html" target="_top" xlink:title=" ">
<polygon fill="white" stroke="black" points="280.71,-0.5 280.71,-19.5 390.71,-19.5 390.71,-0.5 280.71,-0.5"/>
<text text-anchor="middle" x="335.71" y="-7.5" font-family="Helvetica,sans-Serif" font-size="10.00">fplll/pruner/pruner.cpp</text>
</a>
</g>
</g>
<!-- Node4&#45;&gt;Node8 -->
<g id="edge7" class="edge">
<title>Node4&#45;&gt;Node8</title>
<path fill="none" stroke="midnightblue" d="M850.74,-127.73C813.63,-122.39 757.17,-110.87 713.71,-87 696.08,-77.31 698.9,-64.61 680.71,-56 655.09,-43.87 481.48,-25.33 390.74,-16.3"/>
<polygon fill="midnightblue" stroke="midnightblue" points="850.28,-131.2 860.66,-129.08 851.22,-124.27 850.28,-131.2"/>
</g>
<!-- Node9 -->
<g id="node9" class="node">
<title>Node9</title>
<g id="a_node9"><a xlink:href="pruner__cost_8cpp.html" target="_top" xlink:title=" ">
<polygon fill="white" stroke="black" points="359.71,-56.5 359.71,-86.5 451.71,-86.5 451.71,-56.5 359.71,-56.5"/>
<text text-anchor="start" x="367.71" y="-74.5" font-family="Helvetica,sans-Serif" font-size="10.00">fplll/pruner/pruner</text>
<text text-anchor="middle" x="405.71" y="-63.5" font-family="Helvetica,sans-Serif" font-size="10.00">_cost.cpp</text>
</a>
</g>
</g>
<!-- Node4&#45;&gt;Node9 -->
<g id="edge8" class="edge">
<title>Node4&#45;&gt;Node9</title>
<path fill="none" stroke="midnightblue" d="M850.58,-129.91C774.81,-125.41 603,-113.06 460.71,-87 457.8,-86.47 454.81,-85.86 451.81,-85.2"/>
<polygon fill="midnightblue" stroke="midnightblue" points="850.44,-133.41 860.62,-130.49 850.84,-126.42 850.44,-133.41"/>
</g>
<!-- Node10 -->
<g id="node10" class="node">
<title>Node10</title>
<g id="a_node10"><a xlink:href="pruner__optimize_8cpp.html" target="_top" xlink:title=" ">
<polygon fill="white" stroke="black" points="469.71,-56.5 469.71,-86.5 561.71,-86.5 561.71,-56.5 469.71,-56.5"/>
<text text-anchor="start" x="477.71" y="-74.5" font-family="Helvetica,sans-Serif" font-size="10.00">fplll/pruner/pruner</text>
<text text-anchor="middle" x="515.71" y="-63.5" font-family="Helvetica,sans-Serif" font-size="10.00">_optimize.cpp</text>
</a>
</g>
</g>
<!-- Node4&#45;&gt;Node10 -->
<g id="edge10" class="edge">
<title>Node4&#45;&gt;Node10</title>
<path fill="none" stroke="midnightblue" d="M850.24,-127.94C789.72,-121.39 670.54,-107.13 570.71,-87 567.81,-86.41 564.83,-85.77 561.84,-85.08"/>
<polygon fill="midnightblue" stroke="midnightblue" points="850.17,-131.46 860.49,-129.04 850.92,-124.5 850.17,-131.46"/>
</g>
<!-- Node11 -->
<g id="node11" class="node">
<title>Node11</title>
<g id="a_node11"><a xlink:href="pruner__optimize__tc_8cpp.html" target="_top" xlink:title=" ">
<polygon fill="white" stroke="black" points="579.71,-56.5 579.71,-86.5 671.71,-86.5 671.71,-56.5 579.71,-56.5"/>
<text text-anchor="start" x="587.71" y="-74.5" font-family="Helvetica,sans-Serif" font-size="10.00">fplll/pruner/pruner</text>
<text text-anchor="middle" x="625.71" y="-63.5" font-family="Helvetica,sans-Serif" font-size="10.00">_optimize_tc.cpp</text>
</a>
</g>
</g>
<!-- Node4&#45;&gt;Node11 -->
<g id="edge12" class="edge">
<title>Node4&#45;&gt;Node11</title>
<path fill="none" stroke="midnightblue" d="M850.74,-123.65C809.65,-114.78 743.05,-100.25 685.71,-87 681.22,-85.96 676.55,-84.86 671.88,-83.76"/>
<polygon fill="midnightblue" stroke="midnightblue" points="850.11,-127.09 860.62,-125.77 851.58,-120.25 850.11,-127.09"/>
</g>
<!-- Node12 -->
<g id="node12" class="node">
<title>Node12</title>
<g id="a_node12"><a xlink:href="pruner__optimize__tp_8cpp.html" target="_top" xlink:title=" ">
<polygon fill="white" stroke="black" points="29.71,-56.5 29.71,-86.5 121.71,-86.5 121.71,-56.5 29.71,-56.5"/>
<text text-anchor="start" x="37.71" y="-74.5" font-family="Helvetica,sans-Serif" font-size="10.00">fplll/pruner/pruner</text>
<text text-anchor="middle" x="75.71" y="-63.5" font-family="Helvetica,sans-Serif" font-size="10.00">_optimize_tp.cpp</text>
</a>
</g>
</g>
<!-- Node4&#45;&gt;Node12 -->
<g id="edge14" class="edge">
<title>Node4&#45;&gt;Node12</title>
<path fill="none" stroke="midnightblue" d="M850.31,-132.41C737.43,-132.99 403.47,-130.6 130.71,-87 127.79,-86.53 124.79,-85.98 121.79,-85.36"/>
<polygon fill="midnightblue" stroke="midnightblue" points="850.56,-135.91 860.54,-132.34 850.51,-128.91 850.56,-135.91"/>
</g>
<!-- Node13 -->
<g id="node13" class="node">
<title>Node13</title>
<g id="a_node13"><a xlink:href="pruner__prob_8cpp.html" target="_top" xlink:title=" ">
<polygon fill="white" stroke="black" points="139.71,-56.5 139.71,-86.5 231.71,-86.5 231.71,-56.5 139.71,-56.5"/>
<text text-anchor="start" x="147.71" y="-74.5" font-family="Helvetica,sans-Serif" font-size="10.00">fplll/pruner/pruner</text>
<text text-anchor="middle" x="185.71" y="-63.5" font-family="Helvetica,sans-Serif" font-size="10.00">_prob.cpp</text>
</a>
</g>
</g>
<!-- Node4&#45;&gt;Node13 -->
<g id="edge16" class="edge">
<title>Node4&#45;&gt;Node13</title>
<path fill="none" stroke="midnightblue" d="M850.61,-131.85C749.21,-130.9 469.69,-124.78 240.71,-87 237.79,-86.52 234.8,-85.95 231.79,-85.32"/>
<polygon fill="midnightblue" stroke="midnightblue" points="850.67,-135.35 860.7,-131.93 850.73,-128.35 850.67,-135.35"/>
</g>
<!-- Node14 -->
<g id="node14" class="node">
<title>Node14</title>
<g id="a_node14"><a xlink:href="pruner__util_8cpp.html" target="_top" xlink:title=" ">
<polygon fill="white" stroke="black" points="249.71,-56.5 249.71,-86.5 341.71,-86.5 341.71,-56.5 249.71,-56.5"/>
<text text-anchor="start" x="257.71" y="-74.5" font-family="Helvetica,sans-Serif" font-size="10.00">fplll/pruner/pruner</text>
<text text-anchor="middle" x="295.71" y="-63.5" font-family="Helvetica,sans-Serif" font-size="10.00">_util.cpp</text>
</a>
</g>
</g>
<!-- Node4&#45;&gt;Node14 -->
<g id="edge18" class="edge">
<title>Node4&#45;&gt;Node14</title>
<path fill="none" stroke="midnightblue" d="M850.35,-131.06C760.92,-128.42 535.9,-118.89 350.71,-87 347.79,-86.5 344.8,-85.91 341.8,-85.27"/>
<polygon fill="midnightblue" stroke="midnightblue" points="850.47,-134.57 860.57,-131.35 850.67,-127.57 850.47,-134.57"/>
</g>
<!-- Node15 -->
<g id="node15" class="node">
<title>Node15</title>
<g id="a_node15"><a xlink:href="test__bkz_8cpp.html" target="_top" xlink:title=" ">
<polygon fill="white" stroke="black" points="447.71,-0.5 447.71,-19.5 545.71,-19.5 545.71,-0.5 447.71,-0.5"/>
<text text-anchor="middle" x="496.71" y="-7.5" font-family="Helvetica,sans-Serif" font-size="10.00">tests/test_bkz.cpp</text>
</a>
</g>
</g>
<!-- Node4&#45;&gt;Node15 -->
<g id="edge20" class="edge">
<title>Node4&#45;&gt;Node15</title>
<path fill="none" stroke="midnightblue" d="M850.71,-123.39C822.18,-116.13 783.13,-104.15 751.71,-87 732.58,-76.56 733.39,-65.37 713.71,-56 698.54,-48.77 602.97,-30.44 543.83,-19.54"/>
<polygon fill="midnightblue" stroke="midnightblue" points="850.16,-126.86 860.71,-125.85 851.84,-120.06 850.16,-126.86"/>
</g>
<!-- Node16 -->
<g id="node16" class="node">
<title>Node16</title>
<g id="a_node16"><a xlink:href="test__bkz__gram_8cpp.html" target="_top" xlink:title=" ">
<polygon fill="white" stroke="black" points="564.21,-0.5 564.21,-19.5 689.21,-19.5 689.21,-0.5 564.21,-0.5"/>
<text text-anchor="middle" x="626.71" y="-7.5" font-family="Helvetica,sans-Serif" font-size="10.00">tests/test_bkz_gram.cpp</text>
</a>
</g>
</g>
<!-- Node4&#45;&gt;Node16 -->
<g id="edge21" class="edge">
<title>Node4&#45;&gt;Node16</title>
<path fill="none" stroke="midnightblue" d="M863.39,-118.7C846.26,-109.94 823.51,-98.07 803.71,-87 780.23,-73.87 776.04,-67.5 751.71,-56 719.6,-40.82 680.89,-27.62 655.14,-19.51"/>
<polygon fill="midnightblue" stroke="midnightblue" points="862.26,-122.06 872.76,-123.48 865.44,-115.82 862.26,-122.06"/>
</g>
<!-- Node17 -->
<g id="node17" class="node">
<title>Node17</title>
<g id="a_node17"><a xlink:href="test__counter_8cpp.html" target="_top" xlink:title=" ">
<polygon fill="white" stroke="black" points="1150.21,-62 1150.21,-81 1263.21,-81 1263.21,-62 1150.21,-62"/>
<text text-anchor="middle" x="1206.71" y="-69" font-family="Helvetica,sans-Serif" font-size="10.00">tests/test_counter.cpp</text>
</a>
</g>
</g>
<!-- Node4&#45;&gt;Node17 -->
<g id="edge22" class="edge">
<title>Node4&#45;&gt;Node17</title>
<path fill="none" stroke="midnightblue" d="M929,-125.07C977.59,-116.44 1062.84,-101.1 1135.71,-87 1145.47,-85.11 1155.97,-83.01 1165.82,-81"/>
<polygon fill="midnightblue" stroke="midnightblue" points="928.14,-121.67 918.91,-126.86 929.37,-128.56 928.14,-121.67"/>
</g>
<!-- Node18 -->
<g id="node18" class="node">
<title>Node18</title>
<g id="a_node18"><a xlink:href="test__cvp_8cpp.html" target="_top" xlink:title=" ">
<polygon fill="white" stroke="black" points="707.71,-0.5 707.71,-19.5 805.71,-19.5 805.71,-0.5 707.71,-0.5"/>
<text text-anchor="middle" x="756.71" y="-7.5" font-family="Helvetica,sans-Serif" font-size="10.00">tests/test_cvp.cpp</text>
</a>
</g>
</g>
<!-- Node4&#45;&gt;Node18 -->
<g id="edge23" class="edge">
<title>Node4&#45;&gt;Node18</title>
<path fill="none" stroke="midnightblue" d="M872.61,-116.44C844.26,-90.65 788.44,-39.86 766.19,-19.62"/>
<polygon fill="midnightblue" stroke="midnightblue" points="870.4,-119.16 880.15,-123.3 875.11,-113.98 870.4,-119.16"/>
</g>
<!-- Node19 -->
<g id="node19" class="node">
<title>Node19</title>
<g id="a_node19"><a xlink:href="test__enum_8cpp.html" target="_top" xlink:title=" ">
<polygon fill="white" stroke="black" points="823.71,-0.5 823.71,-19.5 929.71,-19.5 929.71,-0.5 823.71,-0.5"/>
<text text-anchor="middle" x="876.71" y="-7.5" font-family="Helvetica,sans-Serif" font-size="10.00">tests/test_enum.cpp</text>
</a>
</g>
</g>
<!-- Node4&#45;&gt;Node19 -->
<g id="edge24" class="edge">
<title>Node4&#45;&gt;Node19</title>
<path fill="none" stroke="midnightblue" d="M882.66,-113.74C879.9,-105.67 877.08,-96 875.71,-87 872.07,-63 874.18,-34.24 875.66,-19.96"/>
<polygon fill="midnightblue" stroke="midnightblue" points="879.4,-115.02 886.11,-123.22 885.98,-112.63 879.4,-115.02"/>
</g>
<!-- Node20 -->
<g id="node20" class="node">
<title>Node20</title>
<g id="a_node20"><a xlink:href="test__hlll_8cpp.html" target="_top" xlink:title=" ">
<polygon fill="white" stroke="black" points="947.71,-0.5 947.71,-19.5 1041.71,-19.5 1041.71,-0.5 947.71,-0.5"/>
<text text-anchor="middle" x="994.71" y="-7.5" font-family="Helvetica,sans-Serif" font-size="10.00">tests/test_hlll.cpp</text>
</a>
</g>
</g>
<!-- Node4&#45;&gt;Node20 -->
<g id="edge25" class="edge">
<title>Node4&#45;&gt;Node20</title>
<path fill="none" stroke="midnightblue" d="M890.18,-113.38C891.49,-96.74 895.73,-72.5 908.71,-56 922.89,-37.99 946.27,-26.42 965.08,-19.52"/>
<polygon fill="midnightblue" stroke="midnightblue" points="886.68,-113.33 889.66,-123.5 893.67,-113.69 886.68,-113.33"/>
</g>
<!-- Node21 -->
<g id="node21" class="node">
<title>Node21</title>
<g id="a_node21"><a xlink:href="test__lll_8cpp.html" target="_top" xlink:title=" ">
<polygon fill="white" stroke="black" points="1176.21,-0.5 1176.21,-19.5 1265.21,-19.5 1265.21,-0.5 1176.21,-0.5"/>
<text text-anchor="middle" x="1220.71" y="-7.5" font-family="Helvetica,sans-Serif" font-size="10.00">tests/test_lll.cpp</text>
</a>
</g>
</g>
<!-- Node4&#45;&gt;Node21 -->
<g id="edge26" class="edge">
<title>Node4&#45;&gt;Node21</title>
<path fill="none" stroke="midnightblue" d="M929.05,-129.28C973.2,-124.98 1046.06,-114.11 1102.71,-87 1122.38,-77.59 1122.7,-68.28 1140.71,-56 1161.39,-41.91 1186.79,-28.18 1203.35,-19.66"/>
<polygon fill="midnightblue" stroke="midnightblue" points="928.66,-125.8 919.01,-130.19 929.29,-132.77 928.66,-125.8"/>
</g>
<!-- Node4&#45;&gt;Node22 -->
<g id="edge27" class="edge">
<title>Node4&#45;&gt;Node22</title>
<path fill="none" stroke="midnightblue" d="M929.18,-129.69C1067.85,-121.5 1525.11,-94.05 1538.71,-87 1568.05,-71.81 1588.53,-36 1596.73,-19.54"/>
<polygon fill="midnightblue" stroke="midnightblue" points="928.78,-126.2 919.01,-130.29 929.2,-133.19 928.78,-126.2"/>
</g>
<!-- Node23 -->
<g id="node23" class="node">
<title>Node23</title>
<g id="a_node23"><a xlink:href="test__nr_8cpp.html" target="_top" xlink:title=" ">
<polygon fill="white" stroke="black" points="1281.21,-62 1281.21,-81 1370.21,-81 1370.21,-62 1281.21,-62"/>
<text text-anchor="middle" x="1325.71" y="-69" font-family="Helvetica,sans-Serif" font-size="10.00">tests/test_nr.cpp</text>
</a>
</g>
</g>
<!-- Node4&#45;&gt;Node23 -->
<g id="edge28" class="edge">
<title>Node4&#45;&gt;Node23</title>
<path fill="none" stroke="midnightblue" d="M929.26,-129.24C998.93,-123.96 1147.9,-110.79 1271.71,-87 1280.01,-85.41 1288.9,-83.22 1297.03,-81.03"/>
<polygon fill="midnightblue" stroke="midnightblue" points="928.88,-125.76 919.17,-129.99 929.4,-132.74 928.88,-125.76"/>
</g>
<!-- Node24 -->
<g id="node24" class="node">
<title>Node24</title>
<g id="a_node24"><a xlink:href="test__pruner_8cpp.html" target="_top" xlink:title=" ">
<polygon fill="white" stroke="black" points="1388.71,-62 1388.71,-81 1496.71,-81 1496.71,-62 1388.71,-62"/>
<text text-anchor="middle" x="1442.71" y="-69" font-family="Helvetica,sans-Serif" font-size="10.00">tests/test_pruner.cpp</text>
</a>
</g>
</g>
<!-- Node4&#45;&gt;Node24 -->
<g id="edge29" class="edge">
<title>Node4&#45;&gt;Node24</title>
<path fill="none" stroke="midnightblue" d="M928.84,-130.14C1012.05,-125.81 1212.57,-113.35 1378.71,-87 1388.62,-85.43 1399.27,-83.23 1409,-81.01"/>
<polygon fill="midnightblue" stroke="midnightblue" points="928.62,-126.65 918.81,-130.66 928.98,-133.64 928.62,-126.65"/>
</g>
<!-- Node25 -->
<g id="node25" class="node">
<title>Node25</title>
<g id="a_node25"><a xlink:href="test__svp_8cpp.html" target="_top" xlink:title=" ">
<polygon fill="white" stroke="black" points="1282.71,-0.5 1282.71,-19.5 1380.71,-19.5 1380.71,-0.5 1282.71,-0.5"/>
<text text-anchor="middle" x="1331.71" y="-7.5" font-family="Helvetica,sans-Serif" font-size="10.00">tests/test_svp.cpp</text>
</a>
</g>
</g>
<!-- Node4&#45;&gt;Node25 -->
<g id="edge30" class="edge">
<title>Node4&#45;&gt;Node25</title>
<path fill="none" stroke="midnightblue" d="M929.14,-129.84C1063.51,-122.38 1495.85,-97.61 1505.71,-87 1515.09,-76.91 1514.15,-66.89 1505.71,-56 1497.67,-45.61 1424.83,-29.4 1375.98,-19.54"/>
<polygon fill="midnightblue" stroke="midnightblue" points="928.68,-126.36 918.89,-130.41 929.07,-133.35 928.68,-126.36"/>
</g>
<!-- Node26 -->
<g id="node26" class="node">
<title>Node26</title>
<g id="a_node26"><a xlink:href="test__svp__gram_8cpp.html" target="_top" xlink:title=" ">
<polygon fill="white" stroke="black" points="1399.21,-0.5 1399.21,-19.5 1524.21,-19.5 1524.21,-0.5 1399.21,-0.5"/>
<text text-anchor="middle" x="1461.71" y="-7.5" font-family="Helvetica,sans-Serif" font-size="10.00">tests/test_svp_gram.cpp</text>
</a>
</g>
</g>
<!-- Node4&#45;&gt;Node26 -->
<g id="edge31" class="edge">
<title>Node4&#45;&gt;Node26</title>
<path fill="none" stroke="midnightblue" d="M929.24,-129.55C1066.96,-120.96 1517.63,-92.46 1522.71,-87 1532.1,-76.92 1528.92,-68.3 1522.71,-56 1514.17,-39.08 1495.94,-26.96 1481.62,-19.59"/>
<polygon fill="midnightblue" stroke="midnightblue" points="928.89,-126.06 919.13,-130.18 929.33,-133.05 928.89,-126.06"/>
</g>
<!-- Node27 -->
<g id="node27" class="node">
<title>Node27</title>
<g id="a_node27"><a xlink:href="test__utils_8h.html" target="_top" xlink:title=" ">
<polygon fill="white" stroke="black" points="918.21,-62 918.21,-81 1007.21,-81 1007.21,-62 918.21,-62"/>
<text text-anchor="middle" x="962.71" y="-69" font-family="Helvetica,sans-Serif" font-size="10.00">tests/test_utils.h</text>
</a>
</g>
</g>
<!-- Node4&#45;&gt;Node27 -->
<g id="edge32" class="edge">
<title>Node4&#45;&gt;Node27</title>
<path fill="none" stroke="midnightblue" d="M908.15,-116.97C922.11,-105.59 940.79,-90.37 952.27,-81.01"/>
<polygon fill="midnightblue" stroke="midnightblue" points="905.71,-114.44 900.17,-123.48 910.14,-119.87 905.71,-114.44"/>
</g>
<!-- Node7 -->
<g id="node7" class="node">
<title>Node7</title>
<g id="a_node7"><a xlink:href="main_8cpp.html" target="_top" xlink:title=" ">
<polygon fill="white" stroke="black" points="1676.71,-0.5 1676.71,-19.5 1750.71,-19.5 1750.71,-0.5 1676.71,-0.5"/>
<text text-anchor="middle" x="1713.71" y="-7.5" font-family="Helvetica,sans-Serif" font-size="10.00">fplll/main.cpp</text>
</a>
</g>
</g>
<!-- Node6&#45;&gt;Node7 -->
<g id="edge6" class="edge">
<title>Node6&#45;&gt;Node7</title>
<path fill="none" stroke="midnightblue" d="M1674.97,-54.5C1685,-43.24 1698.03,-28.6 1706.13,-19.51"/>
<polygon fill="midnightblue" stroke="midnightblue" points="1672.35,-52.18 1668.31,-61.98 1677.57,-56.84 1672.35,-52.18"/>
</g>
<!-- Node9&#45;&gt;Node8 -->
<g id="edge9" class="edge">
<title>Node9&#45;&gt;Node8</title>
<path fill="none" stroke="midnightblue" d="M381.47,-49.89C369.29,-39.54 355.19,-27.56 345.9,-19.66"/>
<polygon fill="midnightblue" stroke="midnightblue" points="379.24,-52.59 389.12,-56.4 383.77,-47.26 379.24,-52.59"/>
</g>
<!-- Node10&#45;&gt;Node8 -->
<g id="edge11" class="edge">
<title>Node10&#45;&gt;Node8</title>
<path fill="none" stroke="midnightblue" d="M463.43,-53.22C430.02,-42.17 388.14,-28.33 361.64,-19.57"/>
<polygon fill="midnightblue" stroke="midnightblue" points="462.46,-56.58 473.06,-56.4 464.66,-49.94 462.46,-56.58"/>
</g>
<!-- Node11&#45;&gt;Node8 -->
<g id="edge13" class="edge">
<title>Node11&#45;&gt;Node8</title>
<path fill="none" stroke="midnightblue" d="M569.39,-55.79C500.47,-40.33 431.37,-27.59 385.89,-19.58"/>
<polygon fill="midnightblue" stroke="midnightblue" points="569.03,-59.29 579.56,-58.09 570.58,-52.47 569.03,-59.29"/>
</g>
<!-- Node12&#45;&gt;Node8 -->
<g id="edge15" class="edge">
<title>Node12&#45;&gt;Node8</title>
<path fill="none" stroke="midnightblue" d="M131.84,-55.78C193.82,-40.94 254.99,-27.81 294.37,-19.55"/>
<polygon fill="midnightblue" stroke="midnightblue" points="130.79,-52.43 121.89,-58.18 132.43,-59.24 130.79,-52.43"/>
</g>
<!-- Node13&#45;&gt;Node8 -->
<g id="edge17" class="edge">
<title>Node13&#45;&gt;Node8</title>
<path fill="none" stroke="midnightblue" d="M230.69,-52.66C258.2,-41.75 292.17,-28.27 313.89,-19.66"/>
<polygon fill="midnightblue" stroke="midnightblue" points="229.27,-49.46 221.26,-56.4 231.85,-55.97 229.27,-49.46"/>
</g>
<!-- Node14&#45;&gt;Node8 -->
<g id="edge19" class="edge">
<title>Node14&#45;&gt;Node8</title>
<path fill="none" stroke="midnightblue" d="M310.97,-47.8C317.59,-37.96 324.94,-27.03 329.89,-19.66"/>
<polygon fill="midnightblue" stroke="midnightblue" points="307.87,-46.15 305.19,-56.4 313.68,-50.05 307.87,-46.15"/>
</g>
<!-- Node27&#45;&gt;Node15 -->
<g id="edge33" class="edge">
<title>Node27&#45;&gt;Node15</title>
<path fill="none" stroke="midnightblue" d="M907.85,-64.25C829.45,-55.2 680.89,-37.59 554.71,-20 551.79,-19.59 548.78,-19.16 545.75,-18.72"/>
<polygon fill="midnightblue" stroke="midnightblue" points="907.64,-67.75 917.98,-65.42 908.44,-60.8 907.64,-67.75"/>
</g>
<!-- Node27&#45;&gt;Node16 -->
<g id="edge34" class="edge">
<title>Node27&#45;&gt;Node16</title>
<path fill="none" stroke="midnightblue" d="M908.08,-60.83C843.34,-49.36 736.5,-30.44 674.78,-19.51"/>
<polygon fill="midnightblue" stroke="midnightblue" points="907.64,-64.3 918.1,-62.6 908.86,-57.41 907.64,-64.3"/>
</g>
<!-- Node27&#45;&gt;Node18 -->
<g id="edge35" class="edge">
<title>Node27&#45;&gt;Node18</title>
<path fill="none" stroke="midnightblue" d="M923.51,-59.18C883.48,-47.61 822.25,-29.93 786.17,-19.51"/>
<polygon fill="midnightblue" stroke="midnightblue" points="922.62,-62.56 933.2,-61.98 924.56,-55.84 922.62,-62.56"/>
</g>
<!-- Node27&#45;&gt;Node19 -->
<g id="edge36" class="edge">
<title>Node27&#45;&gt;Node19</title>
<path fill="none" stroke="midnightblue" d="M941.92,-56.11C925.38,-44.67 902.8,-29.05 889.01,-19.51"/>
<polygon fill="midnightblue" stroke="midnightblue" points="940.18,-59.16 950.39,-61.98 944.16,-53.41 940.18,-59.16"/>
</g>
<!-- Node27&#45;&gt;Node20 -->
<g id="edge38" class="edge">
<title>Node27&#45;&gt;Node20</title>
<path fill="none" stroke="midnightblue" d="M972.21,-52.83C978.13,-41.83 985.48,-28.16 990.14,-19.51"/>
<polygon fill="midnightblue" stroke="midnightblue" points="968.95,-51.51 967.3,-61.98 975.12,-54.83 968.95,-51.51"/>
</g>
<!-- Node27&#45;&gt;Node21 -->
<g id="edge39" class="edge">
<title>Node27&#45;&gt;Node21</title>
<path fill="none" stroke="midnightblue" d="M1003.28,-59.4C1007.8,-58.22 1012.35,-57.07 1016.71,-56 1072.91,-42.27 1138.27,-28.18 1179.56,-19.51"/>
<polygon fill="midnightblue" stroke="midnightblue" points="1002.27,-56.04 993.49,-61.98 1004.05,-62.81 1002.27,-56.04"/>
</g>
<!-- Node27&#45;&gt;Node22 -->
<g id="edge40" class="edge">
<title>Node27&#45;&gt;Node22</title>
<path fill="none" stroke="midnightblue" d="M1000.2,-59.44C1005.7,-58.11 1011.33,-56.9 1016.71,-56 1243.88,-17.96 1304.57,-43.34 1533.71,-20 1536.63,-19.7 1539.62,-19.38 1542.64,-19.03"/>
<polygon fill="midnightblue" stroke="midnightblue" points="999.33,-56.05 990.52,-61.94 1001.07,-62.83 999.33,-56.05"/>
</g>
<!-- Node27&#45;&gt;Node25 -->
<g id="edge41" class="edge">
<title>Node27&#45;&gt;Node25</title>
<path fill="none" stroke="midnightblue" d="M1001.96,-59.36C1006.91,-58.13 1011.91,-56.98 1016.71,-56 1129.73,-33 1159.61,-36.84 1273.71,-20 1276.64,-19.57 1279.64,-19.12 1282.67,-18.66"/>
<polygon fill="midnightblue" stroke="midnightblue" points="1000.79,-56.05 991.98,-61.94 1002.54,-62.82 1000.79,-56.05"/>
</g>
<!-- Node27&#45;&gt;Node26 -->
<g id="edge42" class="edge">
<title>Node27&#45;&gt;Node26</title>
<path fill="none" stroke="midnightblue" d="M1001,-59.38C1006.25,-58.1 1011.59,-56.93 1016.71,-56 1180.59,-26.3 1224.18,-38.33 1389.71,-20 1392.72,-19.67 1395.79,-19.32 1398.9,-18.96"/>
<polygon fill="midnightblue" stroke="midnightblue" points="999.91,-56.05 991.1,-61.93 1001.66,-62.83 999.91,-56.05"/>
</g>
<!-- Node28 -->
<g id="node28" class="node">
<title>Node28</title>
<g id="a_node28"><a xlink:href="test__gso_8cpp.html" target="_top" xlink:title=" ">
<polygon fill="white" stroke="black" points="1059.71,-0.5 1059.71,-19.5 1157.71,-19.5 1157.71,-0.5 1059.71,-0.5"/>
<text text-anchor="middle" x="1108.71" y="-7.5" font-family="Helvetica,sans-Serif" font-size="10.00">tests/test_gso.cpp</text>
</a>
</g>
</g>
<!-- Node27&#45;&gt;Node28 -->
<g id="edge37" class="edge">
<title>Node27&#45;&gt;Node28</title>
<path fill="none" stroke="midnightblue" d="M993.06,-58.13C1021.43,-46.57 1063.02,-29.62 1087.83,-19.51"/>
<polygon fill="midnightblue" stroke="midnightblue" points="991.57,-54.96 983.63,-61.98 994.21,-61.44 991.57,-54.96"/>
</g>
<!-- Node30&#45;&gt;Node4 -->
<g id="edge50" class="edge">
<title>Node30&#45;&gt;Node4</title>
<path fill="none" stroke="midnightblue" d="M925.12,-280.93C916.44,-244.92 897.96,-168.23 891.78,-142.57"/>
<polygon fill="midnightblue" stroke="midnightblue" points="921.82,-282.17 927.56,-291.08 928.62,-280.53 921.82,-282.17"/>
</g>
<!-- Node30&#45;&gt;Node8 -->
<g id="edge51" class="edge">
<title>Node30&#45;&gt;Node8</title>
<path fill="none" stroke="midnightblue" d="M869.86,-299.22C664.59,-295.75 1.71,-277.76 1.71,-190 1.71,-190 1.71,-190 1.71,-132 1.71,-97.18 -5.14,-79.32 20.71,-56 57.94,-22.42 200.72,-13.84 280.67,-11.68"/>
<polygon fill="midnightblue" stroke="midnightblue" points="870.09,-302.72 880.15,-299.38 870.21,-295.72 870.09,-302.72"/>
</g>
<!-- Node31 -->
<g id="node31" class="node">
<title>Node31</title>
<g id="a_node31"><a xlink:href="bkz__param_8h.html" target="_top" xlink:title=" ">
<polygon fill="white" stroke="black" points="942.21,-235.5 942.21,-254.5 1033.21,-254.5 1033.21,-235.5 942.21,-235.5"/>
<text text-anchor="middle" x="987.71" y="-242.5" font-family="Helvetica,sans-Serif" font-size="10.00">fplll/bkz_param.h</text>
</a>
</g>
</g>
<!-- Node30&#45;&gt;Node31 -->
<g id="edge45" class="edge">
<title>Node30&#45;&gt;Node31</title>
<path fill="none" stroke="midnightblue" d="M946.63,-284.25C956.92,-274.67 969.68,-262.79 978.23,-254.83"/>
<polygon fill="midnightblue" stroke="midnightblue" points="943.97,-281.95 939.03,-291.32 948.74,-287.07 943.97,-281.95"/>
</g>
<!-- Node31&#45;&gt;Node2 -->
<g id="edge47" class="edge">
<title>Node31&#45;&gt;Node2</title>
<path fill="none" stroke="midnightblue" d="M1018.74,-231.77C1044.47,-221.63 1080.4,-207.47 1103.11,-198.52"/>
<polygon fill="midnightblue" stroke="midnightblue" points="1017.44,-228.52 1009.42,-235.44 1020.01,-235.03 1017.44,-228.52"/>
</g>
<!-- Node31&#45;&gt;Node3 -->
<g id="edge46" class="edge">
<title>Node31&#45;&gt;Node3</title>
<path fill="none" stroke="midnightblue" d="M1009.52,-229.54C1021.18,-221.29 1035.42,-210.36 1046.71,-199 1064.85,-180.76 1081.96,-155.6 1090.34,-142.58"/>
<polygon fill="midnightblue" stroke="midnightblue" points="1007.44,-226.73 1001.2,-235.29 1011.42,-232.49 1007.44,-226.73"/>
</g>
<!-- Node31&#45;&gt;Node4 -->
<g id="edge49" class="edge">
<title>Node31&#45;&gt;Node4</title>
<path fill="none" stroke="midnightblue" d="M964.51,-229.81C952.57,-221.76 938.35,-210.93 927.71,-199 911.88,-181.24 899.35,-155.88 893.43,-142.7"/>
<polygon fill="midnightblue" stroke="midnightblue" points="962.79,-232.87 973.08,-235.39 966.61,-227 962.79,-232.87"/>
</g>
<!-- Node32 -->
<g id="node32" class="node">
<title>Node32</title>
<g id="a_node32"><a xlink:href="bkz__param_8cpp.html" target="_top" xlink:title=" ">
<polygon fill="white" stroke="black" points="937.21,-179.5 937.21,-198.5 1038.21,-198.5 1038.21,-179.5 937.21,-179.5"/>
<text text-anchor="middle" x="987.71" y="-186.5" font-family="Helvetica,sans-Serif" font-size="10.00">fplll/bkz_param.cpp</text>
</a>
</g>
</g>
<!-- Node31&#45;&gt;Node32 -->
<g id="edge48" class="edge">
<title>Node31&#45;&gt;Node32</title>
<path fill="none" stroke="midnightblue" d="M987.71,-224.8C987.71,-215.91 987.71,-205.78 987.71,-198.75"/>
<polygon fill="midnightblue" stroke="midnightblue" points="984.21,-225.08 987.71,-235.08 991.21,-225.08 984.21,-225.08"/>
</g>
</g>
</svg>
