<?xml version="1.0" encoding="UTF-8" standalone="no"?>
<!DOCTYPE svg PUBLIC "-//W3C//DTD SVG 1.1//EN"
 "http://www.w3.org/Graphics/SVG/1.1/DTD/svg11.dtd">
<!-- Generated by graphviz version 2.40.1 (20161225.0304)
 -->
<!-- Title: fplll/lll.h Pages: 1 -->
<svg width="1141pt" height="252pt"
 viewBox="0.00 0.00 1141.00 252.00" xmlns="http://www.w3.org/2000/svg" xmlns:xlink="http://www.w3.org/1999/xlink">
<g id="graph0" class="graph" transform="scale(1 1) rotate(0) translate(4 248)">
<title>fplll/lll.h</title>
<polygon fill="#ffffff" stroke="transparent" points="-4,4 -4,-248 1137,-248 1137,4 -4,4"/>
<!-- Node0 -->
<g id="node1" class="node">
<title>Node0</title>
<polygon fill="#bfbfbf" stroke="#000000" points="943,-224.5 943,-243.5 993,-243.5 993,-224.5 943,-224.5"/>
<text text-anchor="middle" x="968" y="-231.5" font-family="Helvetica,sans-Serif" font-size="10.00" fill="#000000">fplll/lll.h</text>
</g>
<!-- Node1 -->
<g id="node2" class="node">
<title>Node1</title>
<g id="a_node2"><a xlink:href="bkz_8h.html" target="_top" xlink:title="fplll/bkz.h">
<polygon fill="#ffffff" stroke="#000000" points="701.5,-168.5 701.5,-187.5 760.5,-187.5 760.5,-168.5 701.5,-168.5"/>
<text text-anchor="middle" x="731" y="-175.5" font-family="Helvetica,sans-Serif" font-size="10.00" fill="#000000">fplll/bkz.h</text>
</a>
</g>
</g>
<!-- Node0&#45;&gt;Node1 -->
<g id="edge1" class="edge">
<title>Node0&#45;&gt;Node1</title>
<path fill="none" stroke="#191970" d="M932.6564,-225.6488C885.8952,-214.5997 804.3014,-195.3202 760.6117,-184.9969"/>
<polygon fill="#191970" stroke="#191970" points="932.1,-229.1136 942.6368,-228.007 933.7097,-222.3012 932.1,-229.1136"/>
</g>
<!-- Node11 -->
<g id="node12" class="node">
<title>Node11</title>
<g id="a_node12"><a xlink:href="test__lll__gram_8cpp.html" target="_top" xlink:title="tests/test_lll_gram.cpp">
<polygon fill="#ffffff" stroke="#000000" points="843,-.5 843,-19.5 959,-19.5 959,-.5 843,-.5"/>
<text text-anchor="middle" x="901" y="-7.5" font-family="Helvetica,sans-Serif" font-size="10.00" fill="#000000">tests/test_lll_gram.cpp</text>
</a>
</g>
</g>
<!-- Node0&#45;&gt;Node11 -->
<g id="edge26" class="edge">
<title>Node0&#45;&gt;Node11</title>
<path fill="none" stroke="#191970" d="M962.2286,-214.7044C948.4506,-168.6409 914.0308,-53.5657 903.8682,-19.5891"/>
<polygon fill="#191970" stroke="#191970" points="958.9022,-215.7974 965.1211,-224.375 965.6086,-213.7914 958.9022,-215.7974"/>
</g>
<!-- Node18 -->
<g id="node19" class="node">
<title>Node18</title>
<g id="a_node19"><a xlink:href="lll_8cpp.html" target="_top" xlink:title="fplll/lll.cpp">
<polygon fill="#ffffff" stroke="#000000" points="967,-168.5 967,-187.5 1027,-187.5 1027,-168.5 967,-168.5"/>
<text text-anchor="middle" x="997" y="-175.5" font-family="Helvetica,sans-Serif" font-size="10.00" fill="#000000">fplll/lll.cpp</text>
</a>
</g>
</g>
<!-- Node0&#45;&gt;Node18 -->
<g id="edge24" class="edge">
<title>Node0&#45;&gt;Node18</title>
<path fill="none" stroke="#191970" d="M977.6647,-215.3372C982.4687,-206.0605 988.0723,-195.2398 992.0065,-187.6427"/>
<polygon fill="#191970" stroke="#191970" points="974.542,-213.7561 973.0514,-224.2455 980.758,-216.9751 974.542,-213.7561"/>
</g>
<!-- Node19 -->
<g id="node20" class="node">
<title>Node19</title>
<g id="a_node20"><a xlink:href="wrapper_8cpp.html" target="_top" xlink:title="fplll/wrapper.cpp">
<polygon fill="#ffffff" stroke="#000000" points="1045,-168.5 1045,-187.5 1133,-187.5 1133,-168.5 1045,-168.5"/>
<text text-anchor="middle" x="1089" y="-175.5" font-family="Helvetica,sans-Serif" font-size="10.00" fill="#000000">fplll/wrapper.cpp</text>
</a>
</g>
</g>
<!-- Node0&#45;&gt;Node19 -->
<g id="edge25" class="edge">
<title>Node0&#45;&gt;Node19</title>
<path fill="none" stroke="#191970" d="M998.0104,-220.1109C1019.9525,-209.9559 1049.1388,-196.4482 1068.4708,-187.5011"/>
<polygon fill="#191970" stroke="#191970" points="996.4058,-216.9968 988.8006,-224.3733 999.3459,-223.3494 996.4058,-216.9968"/>
</g>
<!-- Node2 -->
<g id="node3" class="node">
<title>Node2</title>
<g id="a_node3"><a xlink:href="bkz_8cpp.html" target="_top" xlink:title="fplll/bkz.cpp">
<polygon fill="#ffffff" stroke="#000000" points="696.5,-112.5 696.5,-131.5 765.5,-131.5 765.5,-112.5 696.5,-112.5"/>
<text text-anchor="middle" x="731" y="-119.5" font-family="Helvetica,sans-Serif" font-size="10.00" fill="#000000">fplll/bkz.cpp</text>
</a>
</g>
</g>
<!-- Node1&#45;&gt;Node2 -->
<g id="edge2" class="edge">
<title>Node1&#45;&gt;Node2</title>
<path fill="none" stroke="#191970" d="M731,-158.1575C731,-149.155 731,-138.9199 731,-131.6427"/>
<polygon fill="#191970" stroke="#191970" points="727.5001,-158.2455 731,-168.2455 734.5001,-158.2456 727.5001,-158.2455"/>
</g>
<!-- Node3 -->
<g id="node4" class="node">
<title>Node3</title>
<g id="a_node4"><a xlink:href="fplll_8h.html" target="_top" xlink:title="fplll/fplll.h">
<polygon fill="#ffffff" stroke="#000000" points="474,-112.5 474,-131.5 532,-131.5 532,-112.5 474,-112.5"/>
<text text-anchor="middle" x="503" y="-119.5" font-family="Helvetica,sans-Serif" font-size="10.00" fill="#000000">fplll/fplll.h</text>
</a>
</g>
</g>
<!-- Node1&#45;&gt;Node3 -->
<g id="edge3" class="edge">
<title>Node1&#45;&gt;Node3</title>
<path fill="none" stroke="#191970" d="M691.3921,-168.2718C645.9638,-157.1139 572.5582,-139.0845 532.0934,-129.1458"/>
<polygon fill="#191970" stroke="#191970" points="690.6468,-171.6926 701.193,-170.679 692.3165,-164.8947 690.6468,-171.6926"/>
</g>
<!-- Node4 -->
<g id="node5" class="node">
<title>Node4</title>
<g id="a_node5"><a xlink:href="fplll_8cpp.html" target="_top" xlink:title="fplll/fplll.cpp">
<polygon fill="#ffffff" stroke="#000000" points="531,-56.5 531,-75.5 599,-75.5 599,-56.5 531,-56.5"/>
<text text-anchor="middle" x="565" y="-63.5" font-family="Helvetica,sans-Serif" font-size="10.00" fill="#000000">fplll/fplll.cpp</text>
</a>
</g>
</g>
<!-- Node3&#45;&gt;Node4 -->
<g id="edge4" class="edge">
<title>Node3&#45;&gt;Node4</title>
<path fill="none" stroke="#191970" d="M521.4221,-105.3607C532.1481,-95.6727 545.2934,-83.7995 554.3242,-75.6427"/>
<polygon fill="#191970" stroke="#191970" points="518.8746,-102.9453 513.7996,-112.2455 523.5666,-108.14 518.8746,-102.9453"/>
</g>
<!-- Node5 -->
<g id="node6" class="node">
<title>Node5</title>
<g id="a_node6"><a xlink:href="main_8h.html" target="_top" xlink:title="fplll/main.h">
<polygon fill="#ffffff" stroke="#000000" points="29,-56.5 29,-75.5 93,-75.5 93,-56.5 29,-56.5"/>
<text text-anchor="middle" x="61" y="-63.5" font-family="Helvetica,sans-Serif" font-size="10.00" fill="#000000">fplll/main.h</text>
</a>
</g>
</g>
<!-- Node3&#45;&gt;Node5 -->
<g id="edge5" class="edge">
<title>Node3&#45;&gt;Node5</title>
<path fill="none" stroke="#191970" d="M463.435,-118.2295C392.9828,-111.3133 241.2365,-95.5028 114,-76 107.2434,-74.9643 100.0305,-73.7062 93.171,-72.4367"/>
<polygon fill="#191970" stroke="#191970" points="463.3353,-121.7363 473.6279,-119.2236 464.0149,-114.7693 463.3353,-121.7363"/>
</g>
<!-- Node7 -->
<g id="node8" class="node">
<title>Node7</title>
<g id="a_node8"><a xlink:href="sieve__main_8cpp.html" target="_top" xlink:title="fplll/sieve/sieve_main.cpp">
<polygon fill="#ffffff" stroke="#000000" points="123.5,-56.5 123.5,-75.5 252.5,-75.5 252.5,-56.5 123.5,-56.5"/>
<text text-anchor="middle" x="188" y="-63.5" font-family="Helvetica,sans-Serif" font-size="10.00" fill="#000000">fplll/sieve/sieve_main.cpp</text>
</a>
</g>
</g>
<!-- Node3&#45;&gt;Node7 -->
<g id="edge7" class="edge">
<title>Node3&#45;&gt;Node7</title>
<path fill="none" stroke="#191970" d="M464.0464,-115.0749C408.0468,-105.1194 304.6031,-86.7294 241.48,-75.5076"/>
<polygon fill="#191970" stroke="#191970" points="463.4719,-118.5276 473.9302,-116.832 464.6972,-111.6356 463.4719,-118.5276"/>
</g>
<!-- Node8 -->
<g id="node9" class="node">
<title>Node8</title>
<g id="a_node9"><a xlink:href="test__bkz_8cpp.html" target="_top" xlink:title="tests/test_bkz.cpp">
<polygon fill="#ffffff" stroke="#000000" points="92,-.5 92,-19.5 190,-19.5 190,-.5 92,-.5"/>
<text text-anchor="middle" x="141" y="-7.5" font-family="Helvetica,sans-Serif" font-size="10.00" fill="#000000">tests/test_bkz.cpp</text>
</a>
</g>
</g>
<!-- Node3&#45;&gt;Node8 -->
<g id="edge8" class="edge">
<title>Node3&#45;&gt;Node8</title>
<path fill="none" stroke="#191970" d="M464.1895,-113.1472C427.7319,-104.5674 371.7892,-90.7221 324,-76 266.3855,-58.2511 200.1454,-33.1657 165.3193,-19.604"/>
<polygon fill="#191970" stroke="#191970" points="463.3986,-116.5566 473.9327,-115.4239 464.9914,-109.7402 463.3986,-116.5566"/>
</g>
<!-- Node9 -->
<g id="node10" class="node">
<title>Node9</title>
<g id="a_node10"><a xlink:href="test__cvp_8cpp.html" target="_top" xlink:title="tests/test_cvp.cpp">
<polygon fill="#ffffff" stroke="#000000" points="208,-.5 208,-19.5 306,-19.5 306,-.5 208,-.5"/>
<text text-anchor="middle" x="257" y="-7.5" font-family="Helvetica,sans-Serif" font-size="10.00" fill="#000000">tests/test_cvp.cpp</text>
</a>
</g>
</g>
<!-- Node3&#45;&gt;Node9 -->
<g id="edge9" class="edge">
<title>Node3&#45;&gt;Node9</title>
<path fill="none" stroke="#191970" d="M463.8171,-111.6863C435.4439,-103.5866 396.5235,-91.1585 364,-76 328.3909,-59.4034 289.9579,-33.5164 270.2767,-19.6087"/>
<polygon fill="#191970" stroke="#191970" points="463.1883,-115.1448 473.7618,-114.4716 465.0763,-108.4042 463.1883,-115.1448"/>
</g>
<!-- Node10 -->
<g id="node11" class="node">
<title>Node10</title>
<g id="a_node11"><a xlink:href="test__lll_8cpp.html" target="_top" xlink:title="tests/test_lll.cpp">
<polygon fill="#ffffff" stroke="#000000" points="324.5,-.5 324.5,-19.5 413.5,-19.5 413.5,-.5 324.5,-.5"/>
<text text-anchor="middle" x="369" y="-7.5" font-family="Helvetica,sans-Serif" font-size="10.00" fill="#000000">tests/test_lll.cpp</text>
</a>
</g>
</g>
<!-- Node3&#45;&gt;Node10 -->
<g id="edge10" class="edge">
<title>Node3&#45;&gt;Node10</title>
<path fill="none" stroke="#191970" d="M463.9248,-112.692C430.8669,-103.9851 387.1392,-90.2208 376,-76 363.2103,-59.6721 364.9454,-33.6759 367.1029,-19.6797"/>
<polygon fill="#191970" stroke="#191970" points="463.2373,-116.129 473.7937,-115.2267 464.9787,-109.349 463.2373,-116.129"/>
</g>
<!-- Node3&#45;&gt;Node11 -->
<g id="edge11" class="edge">
<title>Node3&#45;&gt;Node11</title>
<path fill="none" stroke="#191970" d="M542.1368,-119.68C633.7678,-113.9079 856.4342,-97.7814 882,-76 898.5188,-61.9264 901.1532,-34.5052 901.2959,-19.8282"/>
<polygon fill="#191970" stroke="#191970" points="541.9089,-116.1873 532.1452,-120.3009 542.3431,-123.1738 541.9089,-116.1873"/>
</g>
<!-- Node12 -->
<g id="node13" class="node">
<title>Node12</title>
<g id="a_node13"><a xlink:href="test__nr_8cpp.html" target="_top" xlink:title="tests/test_nr.cpp">
<polygon fill="#ffffff" stroke="#000000" points="655,-56.5 655,-75.5 745,-75.5 745,-56.5 655,-56.5"/>
<text text-anchor="middle" x="700" y="-63.5" font-family="Helvetica,sans-Serif" font-size="10.00" fill="#000000">tests/test_nr.cpp</text>
</a>
</g>
</g>
<!-- Node3&#45;&gt;Node12 -->
<g id="edge12" class="edge">
<title>Node3&#45;&gt;Node12</title>
<path fill="none" stroke="#191970" d="M541.8346,-110.9607C578.2073,-100.6213 631.9966,-85.3309 666.5224,-75.5165"/>
<polygon fill="#191970" stroke="#191970" points="540.7299,-107.636 532.068,-113.737 542.644,-114.3692 540.7299,-107.636"/>
</g>
<!-- Node13 -->
<g id="node14" class="node">
<title>Node13</title>
<g id="a_node14"><a xlink:href="test__pruner_8cpp.html" target="_top" xlink:title="tests/test_pruner.cpp">
<polygon fill="#ffffff" stroke="#000000" points="763.5,-56.5 763.5,-75.5 872.5,-75.5 872.5,-56.5 763.5,-56.5"/>
<text text-anchor="middle" x="818" y="-63.5" font-family="Helvetica,sans-Serif" font-size="10.00" fill="#000000">tests/test_pruner.cpp</text>
</a>
</g>
</g>
<!-- Node3&#45;&gt;Node13 -->
<g id="edge13" class="edge">
<title>Node3&#45;&gt;Node13</title>
<path fill="none" stroke="#191970" d="M541.9536,-115.0749C597.9532,-105.1194 701.3969,-86.7294 764.52,-75.5076"/>
<polygon fill="#191970" stroke="#191970" points="541.3028,-111.6356 532.0698,-116.832 542.5281,-118.5276 541.3028,-111.6356"/>
</g>
<!-- Node14 -->
<g id="node15" class="node">
<title>Node14</title>
<g id="a_node15"><a xlink:href="test__sieve_8cpp.html" target="_top" xlink:title="tests/test_sieve.cpp">
<polygon fill="#ffffff" stroke="#000000" points="547.5,-.5 547.5,-19.5 652.5,-19.5 652.5,-.5 547.5,-.5"/>
<text text-anchor="middle" x="600" y="-7.5" font-family="Helvetica,sans-Serif" font-size="10.00" fill="#000000">tests/test_sieve.cpp</text>
</a>
</g>
</g>
<!-- Node3&#45;&gt;Node14 -->
<g id="edge14" class="edge">
<title>Node3&#45;&gt;Node14</title>
<path fill="none" stroke="#191970" d="M504.7774,-102.3646C506.9168,-88.236 511.6283,-69.3879 522,-56 535.1904,-38.9736 556.6016,-26.9968 573.6571,-19.5411"/>
<polygon fill="#191970" stroke="#191970" points="501.2789,-102.1415 503.554,-112.4892 508.2284,-102.9813 501.2789,-102.1415"/>
</g>
<!-- Node15 -->
<g id="node16" class="node">
<title>Node15</title>
<g id="a_node16"><a xlink:href="test__svp_8cpp.html" target="_top" xlink:title="tests/test_svp.cpp">
<polygon fill="#ffffff" stroke="#000000" points="671,-.5 671,-19.5 769,-19.5 769,-.5 671,-.5"/>
<text text-anchor="middle" x="720" y="-7.5" font-family="Helvetica,sans-Serif" font-size="10.00" fill="#000000">tests/test_svp.cpp</text>
</a>
</g>
</g>
<!-- Node3&#45;&gt;Node15 -->
<g id="edge15" class="edge">
<title>Node3&#45;&gt;Node15</title>
<path fill="none" stroke="#191970" d="M536.5381,-108.5127C557.3914,-99.8318 584.596,-87.9683 608,-76 643.7681,-57.709 683.9437,-32.9456 705.1051,-19.5534"/>
<polygon fill="#191970" stroke="#191970" points="535.0587,-105.3368 527.1487,-112.3854 537.7278,-111.808 535.0587,-105.3368"/>
</g>
<!-- Node16 -->
<g id="node17" class="node">
<title>Node16</title>
<g id="a_node17"><a xlink:href="test__utils_8h.html" target="_top" xlink:title="tests/test_utils.h">
<polygon fill="#ffffff" stroke="#000000" points="385.5,-56.5 385.5,-75.5 474.5,-75.5 474.5,-56.5 385.5,-56.5"/>
<text text-anchor="middle" x="430" y="-63.5" font-family="Helvetica,sans-Serif" font-size="10.00" fill="#000000">tests/test_utils.h</text>
</a>
</g>
</g>
<!-- Node3&#45;&gt;Node16 -->
<g id="edge16" class="edge">
<title>Node3&#45;&gt;Node16</title>
<path fill="none" stroke="#191970" d="M482.049,-105.928C469.2893,-96.1397 453.4115,-83.9595 442.5699,-75.6427"/>
<polygon fill="#191970" stroke="#191970" points="480.2197,-108.9359 490.2844,-112.2455 484.4804,-103.3819 480.2197,-108.9359"/>
</g>
<!-- Node6 -->
<g id="node7" class="node">
<title>Node6</title>
<g id="a_node7"><a xlink:href="main_8cpp.html" target="_top" xlink:title="fplll/main.cpp">
<polygon fill="#ffffff" stroke="#000000" points="0,-.5 0,-19.5 74,-19.5 74,-.5 0,-.5"/>
<text text-anchor="middle" x="37" y="-7.5" font-family="Helvetica,sans-Serif" font-size="10.00" fill="#000000">fplll/main.cpp</text>
</a>
</g>
</g>
<!-- Node5&#45;&gt;Node6 -->
<g id="edge6" class="edge">
<title>Node5&#45;&gt;Node6</title>
<path fill="none" stroke="#191970" d="M52.8759,-47.0437C48.9285,-37.8331 44.3542,-27.1598 41.1326,-19.6427"/>
<polygon fill="#191970" stroke="#191970" points="49.6633,-48.4328 56.8195,-56.2455 56.0973,-45.6753 49.6633,-48.4328"/>
</g>
<!-- Node16&#45;&gt;Node8 -->
<g id="edge17" class="edge">
<title>Node16&#45;&gt;Node8</title>
<path fill="none" stroke="#191970" d="M375.532,-55.4456C322.2696,-45.1249 241.8784,-29.5474 190.4179,-19.5758"/>
<polygon fill="#191970" stroke="#191970" points="374.9939,-58.9064 385.4771,-57.3727 376.3256,-52.0342 374.9939,-58.9064"/>
</g>
<!-- Node16&#45;&gt;Node9 -->
<g id="edge18" class="edge">
<title>Node16&#45;&gt;Node9</title>
<path fill="none" stroke="#191970" d="M390.4277,-53.1905C358.7329,-42.9309 314.9832,-28.7691 286.3517,-19.5011"/>
<polygon fill="#191970" stroke="#191970" points="389.6684,-56.6234 400.2602,-56.3733 391.8242,-49.9636 389.6684,-56.6234"/>
</g>
<!-- Node16&#45;&gt;Node10 -->
<g id="edge20" class="edge">
<title>Node16&#45;&gt;Node10</title>
<path fill="none" stroke="#191970" d="M411.8751,-49.3607C401.322,-39.6727 388.3888,-27.7995 379.5036,-19.6427"/>
<polygon fill="#191970" stroke="#191970" points="409.6411,-52.0611 419.3746,-56.2455 414.375,-46.9045 409.6411,-52.0611"/>
</g>
<!-- Node16&#45;&gt;Node11 -->
<g id="edge21" class="edge">
<title>Node16&#45;&gt;Node11</title>
<path fill="none" stroke="#191970" d="M484.6797,-59.4988C574.1454,-48.8617 751.0102,-27.8332 842.7451,-16.9263"/>
<polygon fill="#191970" stroke="#191970" points="484.252,-56.0249 474.7352,-60.6812 485.0785,-62.976 484.252,-56.0249"/>
</g>
<!-- Node16&#45;&gt;Node14 -->
<g id="edge22" class="edge">
<title>Node16&#45;&gt;Node14</title>
<path fill="none" stroke="#191970" d="M468.886,-53.1905C500.0312,-42.9309 543.0223,-28.7691 571.1573,-19.5011"/>
<polygon fill="#191970" stroke="#191970" points="467.6269,-49.9202 459.224,-56.3733 469.8171,-56.5687 467.6269,-49.9202"/>
</g>
<!-- Node16&#45;&gt;Node15 -->
<g id="edge23" class="edge">
<title>Node16&#45;&gt;Node15</title>
<path fill="none" stroke="#191970" d="M484.6875,-55.4397C538.3053,-45.0859 619.2985,-29.4458 670.9055,-19.4803"/>
<polygon fill="#191970" stroke="#191970" points="483.8319,-52.0401 474.677,-57.3727 485.1592,-58.9132 483.8319,-52.0401"/>
</g>
<!-- Node17 -->
<g id="node18" class="node">
<title>Node17</title>
<g id="a_node18"><a xlink:href="test__gso_8cpp.html" target="_top" xlink:title="tests/test_gso.cpp">
<polygon fill="#ffffff" stroke="#000000" points="431,-.5 431,-19.5 529,-19.5 529,-.5 431,-.5"/>
<text text-anchor="middle" x="480" y="-7.5" font-family="Helvetica,sans-Serif" font-size="10.00" fill="#000000">tests/test_gso.cpp</text>
</a>
</g>
</g>
<!-- Node16&#45;&gt;Node17 -->
<g id="edge19" class="edge">
<title>Node16&#45;&gt;Node17</title>
<path fill="none" stroke="#191970" d="M445.6247,-48.5004C454.1273,-38.9775 464.3218,-27.5596 471.3905,-19.6427"/>
<polygon fill="#191970" stroke="#191970" points="442.7587,-46.4551 438.7093,-56.2455 447.9803,-51.1172 442.7587,-46.4551"/>
</g>
</g>
</svg>
