<?xml version="1.0" encoding="UTF-8" standalone="no"?>
<!DOCTYPE svg PUBLIC "-//W3C//DTD SVG 1.1//EN"
 "http://www.w3.org/Graphics/SVG/1.1/DTD/svg11.dtd">
<!-- Generated by graphviz version 2.43.0 (0)
 -->
<!-- Title: fplll/lll.h Pages: 1 -->
<svg width="2160pt" height="375pt"
 viewBox="0.00 0.00 2159.50 375.00" xmlns="http://www.w3.org/2000/svg" xmlns:xlink="http://www.w3.org/1999/xlink">
<g id="graph0" class="graph" transform="scale(1 1) rotate(0) translate(4 371)">
<title>fplll/lll.h</title>
<polygon fill="white" stroke="transparent" points="-4,4 -4,-371 2155.5,-371 2155.5,4 -4,4"/>
<!-- Node1 -->
<g id="node1" class="node">
<title>Node1</title>
<g id="a_node1"><a xlink:title=" ">
<polygon fill="#bfbfbf" stroke="black" points="1933,-347.5 1933,-366.5 1983,-366.5 1983,-347.5 1933,-347.5"/>
<text text-anchor="middle" x="1958" y="-354.5" font-family="Helvetica,sans-Serif" font-size="10.00">fplll/lll.h</text>
</a>
</g>
</g>
<!-- Node2 -->
<g id="node2" class="node">
<title>Node2</title>
<g id="a_node2"><a xlink:href="bkz_8h.html" target="_top" xlink:title=" ">
<polygon fill="white" stroke="black" points="1217.5,-179.5 1217.5,-198.5 1276.5,-198.5 1276.5,-179.5 1217.5,-179.5"/>
<text text-anchor="middle" x="1247" y="-186.5" font-family="Helvetica,sans-Serif" font-size="10.00">fplll/bkz.h</text>
</a>
</g>
</g>
<!-- Node1&#45;&gt;Node2 -->
<g id="edge1" class="edge">
<title>Node1&#45;&gt;Node2</title>
<path fill="none" stroke="midnightblue" d="M1922.67,-347.75C1799.5,-319 1390.41,-223.48 1276.61,-196.91"/>
<polygon fill="midnightblue" stroke="midnightblue" points="1922.16,-351.23 1932.7,-350.09 1923.75,-344.41 1922.16,-351.23"/>
</g>
<!-- Node24 -->
<g id="node24" class="node">
<title>Node24</title>
<g id="a_node24"><a xlink:href="test__lll__gram_8cpp.html" target="_top" xlink:title=" ">
<polygon fill="white" stroke="black" points="1753,-0.5 1753,-19.5 1869,-19.5 1869,-0.5 1753,-0.5"/>
<text text-anchor="middle" x="1811" y="-7.5" font-family="Helvetica,sans-Serif" font-size="10.00">tests/test_lll_gram.cpp</text>
</a>
</g>
</g>
<!-- Node1&#45;&gt;Node24 -->
<g id="edge55" class="edge">
<title>Node1&#45;&gt;Node24</title>
<path fill="none" stroke="midnightblue" d="M1958,-337.25C1958,-315.36 1958,-278.05 1958,-246 1958,-246 1958,-246 1958,-132 1958,-97.18 1962.45,-81.74 1939,-56 1921,-36.24 1893.79,-25.15 1869.09,-18.94"/>
<polygon fill="midnightblue" stroke="midnightblue" points="1954.5,-337.44 1958,-347.44 1961.5,-337.44 1954.5,-337.44"/>
</g>
<!-- Node31 -->
<g id="node31" class="node">
<title>Node31</title>
<g id="a_node31"><a xlink:href="lll_8cpp.html" target="_top" xlink:title=" ">
<polygon fill="white" stroke="black" points="1986,-291.5 1986,-310.5 2046,-310.5 2046,-291.5 1986,-291.5"/>
<text text-anchor="middle" x="2016" y="-298.5" font-family="Helvetica,sans-Serif" font-size="10.00">fplll/lll.cpp</text>
</a>
</g>
</g>
<!-- Node1&#45;&gt;Node31 -->
<g id="edge45" class="edge">
<title>Node1&#45;&gt;Node31</title>
<path fill="none" stroke="midnightblue" d="M1974.91,-340.25C1985.2,-330.67 1997.97,-318.79 2006.51,-310.83"/>
<polygon fill="midnightblue" stroke="midnightblue" points="1972.25,-337.95 1967.32,-347.32 1977.02,-343.07 1972.25,-337.95"/>
</g>
<!-- Node32 -->
<g id="node32" class="node">
<title>Node32</title>
<g id="a_node32"><a xlink:href="pruner_8h.html" target="_top" xlink:title=" ">
<polygon fill="white" stroke="black" points="1002.5,-291.5 1002.5,-310.5 1101.5,-310.5 1101.5,-291.5 1002.5,-291.5"/>
<text text-anchor="middle" x="1052" y="-298.5" font-family="Helvetica,sans-Serif" font-size="10.00">fplll/pruner/pruner.h</text>
</a>
</g>
</g>
<!-- Node1&#45;&gt;Node32 -->
<g id="edge46" class="edge">
<title>Node1&#45;&gt;Node32</title>
<path fill="none" stroke="midnightblue" d="M1922.64,-353.89C1782.37,-345.53 1264.8,-314.68 1101.62,-304.96"/>
<polygon fill="midnightblue" stroke="midnightblue" points="1922.63,-357.4 1932.82,-354.5 1923.05,-350.41 1922.63,-357.4"/>
</g>
<!-- Node35 -->
<g id="node35" class="node">
<title>Node35</title>
<g id="a_node35"><a xlink:href="wrapper_8cpp.html" target="_top" xlink:title=" ">
<polygon fill="white" stroke="black" points="2064.5,-291.5 2064.5,-310.5 2151.5,-310.5 2151.5,-291.5 2064.5,-291.5"/>
<text text-anchor="middle" x="2108" y="-298.5" font-family="Helvetica,sans-Serif" font-size="10.00">fplll/wrapper.cpp</text>
</a>
</g>
</g>
<!-- Node1&#45;&gt;Node35 -->
<g id="edge54" class="edge">
<title>Node1&#45;&gt;Node35</title>
<path fill="none" stroke="midnightblue" d="M1991.22,-344.04C2019.45,-333.88 2059.26,-319.55 2084.34,-310.52"/>
<polygon fill="midnightblue" stroke="midnightblue" points="1989.99,-340.76 1981.77,-347.44 1992.36,-347.35 1989.99,-340.76"/>
</g>
<!-- Node3 -->
<g id="node3" class="node">
<title>Node3</title>
<g id="a_node3"><a xlink:href="bkz_8cpp.html" target="_top" xlink:title=" ">
<polygon fill="white" stroke="black" points="1183.5,-123.5 1183.5,-142.5 1252.5,-142.5 1252.5,-123.5 1183.5,-123.5"/>
<text text-anchor="middle" x="1218" y="-130.5" font-family="Helvetica,sans-Serif" font-size="10.00">fplll/bkz.cpp</text>
</a>
</g>
</g>
<!-- Node2&#45;&gt;Node3 -->
<g id="edge2" class="edge">
<title>Node2&#45;&gt;Node3</title>
<path fill="none" stroke="midnightblue" d="M1237.32,-169.98C1232.4,-160.82 1226.64,-150.09 1222.7,-142.75"/>
<polygon fill="midnightblue" stroke="midnightblue" points="1234.4,-171.93 1242.21,-179.08 1240.56,-168.62 1234.4,-171.93"/>
</g>
<!-- Node4 -->
<g id="node4" class="node">
<title>Node4</title>
<g id="a_node4"><a xlink:href="fplll_8h.html" target="_top" xlink:title=" ">
<polygon fill="white" stroke="black" points="983,-123.5 983,-142.5 1041,-142.5 1041,-123.5 983,-123.5"/>
<text text-anchor="middle" x="1012" y="-130.5" font-family="Helvetica,sans-Serif" font-size="10.00">fplll/fplll.h</text>
</a>
</g>
</g>
<!-- Node2&#45;&gt;Node4 -->
<g id="edge3" class="edge">
<title>Node2&#45;&gt;Node4</title>
<path fill="none" stroke="midnightblue" d="M1207.4,-178.9C1160.37,-168.09 1083.04,-150.32 1041.15,-140.7"/>
<polygon fill="midnightblue" stroke="midnightblue" points="1206.71,-182.33 1217.24,-181.16 1208.27,-175.51 1206.71,-182.33"/>
</g>
<!-- Node5 -->
<g id="node5" class="node">
<title>Node5</title>
<g id="a_node5"><a xlink:href="fplll_8cpp.html" target="_top" xlink:title=" ">
<polygon fill="white" stroke="black" points="1148,-62 1148,-81 1216,-81 1216,-62 1148,-62"/>
<text text-anchor="middle" x="1182" y="-69" font-family="Helvetica,sans-Serif" font-size="10.00">fplll/fplll.cpp</text>
</a>
</g>
</g>
<!-- Node4&#45;&gt;Node5 -->
<g id="edge4" class="edge">
<title>Node4&#45;&gt;Node5</title>
<path fill="none" stroke="midnightblue" d="M1046.05,-120.08C1079.09,-108.52 1128.42,-91.25 1157.69,-81.01"/>
<polygon fill="midnightblue" stroke="midnightblue" points="1044.64,-116.87 1036.36,-123.48 1046.95,-123.48 1044.64,-116.87"/>
</g>
<!-- Node6 -->
<g id="node6" class="node">
<title>Node6</title>
<g id="a_node6"><a xlink:href="main_8h.html" target="_top" xlink:title=" ">
<polygon fill="white" stroke="black" points="1866,-62 1866,-81 1930,-81 1930,-62 1866,-62"/>
<text text-anchor="middle" x="1898" y="-69" font-family="Helvetica,sans-Serif" font-size="10.00">fplll/main.h</text>
</a>
</g>
</g>
<!-- Node4&#45;&gt;Node6 -->
<g id="edge5" class="edge">
<title>Node4&#45;&gt;Node6</title>
<path fill="none" stroke="midnightblue" d="M1051.36,-129.79C1084.16,-127.95 1132.12,-125.28 1174,-123 1475.31,-106.63 1555.07,-140.79 1852,-87 1859.58,-85.63 1867.65,-83.37 1874.89,-81.04"/>
<polygon fill="midnightblue" stroke="midnightblue" points="1051.05,-126.3 1041.26,-130.35 1051.44,-133.29 1051.05,-126.3"/>
</g>
<!-- Node8 -->
<g id="node8" class="node">
<title>Node8</title>
<g id="a_node8"><a xlink:href="pruner_8cpp.html" target="_top" xlink:title=" ">
<polygon fill="white" stroke="black" points="222,-0.5 222,-19.5 332,-19.5 332,-0.5 222,-0.5"/>
<text text-anchor="middle" x="277" y="-7.5" font-family="Helvetica,sans-Serif" font-size="10.00">fplll/pruner/pruner.cpp</text>
</a>
</g>
</g>
<!-- Node4&#45;&gt;Node8 -->
<g id="edge7" class="edge">
<title>Node4&#45;&gt;Node8</title>
<path fill="none" stroke="midnightblue" d="M972.87,-131.65C797.27,-129.87 89.1,-120.65 57,-87 5.82,-33.35 141.04,-17.56 221.74,-12.92"/>
<polygon fill="midnightblue" stroke="midnightblue" points="972.92,-135.15 982.96,-131.75 972.99,-128.15 972.92,-135.15"/>
</g>
<!-- Node9 -->
<g id="node9" class="node">
<title>Node9</title>
<g id="a_node9"><a xlink:href="pruner__cost_8cpp.html" target="_top" xlink:title=" ">
<polygon fill="white" stroke="black" points="396,-56.5 396,-86.5 488,-86.5 488,-56.5 396,-56.5"/>
<text text-anchor="start" x="404" y="-74.5" font-family="Helvetica,sans-Serif" font-size="10.00">fplll/pruner/pruner</text>
<text text-anchor="middle" x="442" y="-63.5" font-family="Helvetica,sans-Serif" font-size="10.00">_cost.cpp</text>
</a>
</g>
</g>
<!-- Node4&#45;&gt;Node9 -->
<g id="edge8" class="edge">
<title>Node4&#45;&gt;Node9</title>
<path fill="none" stroke="midnightblue" d="M972.57,-130.85C885.93,-127.81 672.7,-117.61 497,-87 494.08,-86.49 491.09,-85.9 488.09,-85.26"/>
<polygon fill="midnightblue" stroke="midnightblue" points="972.62,-134.35 982.74,-131.19 972.86,-127.35 972.62,-134.35"/>
</g>
<!-- Node10 -->
<g id="node10" class="node">
<title>Node10</title>
<g id="a_node10"><a xlink:href="pruner__optimize_8cpp.html" target="_top" xlink:title=" ">
<polygon fill="white" stroke="black" points="66,-56.5 66,-86.5 158,-86.5 158,-56.5 66,-56.5"/>
<text text-anchor="start" x="74" y="-74.5" font-family="Helvetica,sans-Serif" font-size="10.00">fplll/pruner/pruner</text>
<text text-anchor="middle" x="112" y="-63.5" font-family="Helvetica,sans-Serif" font-size="10.00">_optimize.cpp</text>
</a>
</g>
</g>
<!-- Node4&#45;&gt;Node10 -->
<g id="edge10" class="edge">
<title>Node4&#45;&gt;Node10</title>
<path fill="none" stroke="midnightblue" d="M972.7,-130.97C828.05,-127.03 325.41,-111.83 167,-87 164.07,-86.54 161.08,-85.99 158.07,-85.38"/>
<polygon fill="midnightblue" stroke="midnightblue" points="972.79,-134.48 982.88,-131.25 972.98,-127.48 972.79,-134.48"/>
</g>
<!-- Node11 -->
<g id="node11" class="node">
<title>Node11</title>
<g id="a_node11"><a xlink:href="pruner__optimize__tc_8cpp.html" target="_top" xlink:title=" ">
<polygon fill="white" stroke="black" points="176,-56.5 176,-86.5 268,-86.5 268,-56.5 176,-56.5"/>
<text text-anchor="start" x="184" y="-74.5" font-family="Helvetica,sans-Serif" font-size="10.00">fplll/pruner/pruner</text>
<text text-anchor="middle" x="222" y="-63.5" font-family="Helvetica,sans-Serif" font-size="10.00">_optimize_tc.cpp</text>
</a>
</g>
</g>
<!-- Node4&#45;&gt;Node11 -->
<g id="edge12" class="edge">
<title>Node4&#45;&gt;Node11</title>
<path fill="none" stroke="midnightblue" d="M972.7,-132.3C862.28,-132.56 540.2,-129.33 277,-87 274.08,-86.53 271.08,-85.97 268.07,-85.35"/>
<polygon fill="midnightblue" stroke="midnightblue" points="972.72,-135.8 982.71,-132.26 972.7,-128.8 972.72,-135.8"/>
</g>
<!-- Node12 -->
<g id="node12" class="node">
<title>Node12</title>
<g id="a_node12"><a xlink:href="pruner__optimize__tp_8cpp.html" target="_top" xlink:title=" ">
<polygon fill="white" stroke="black" points="286,-56.5 286,-86.5 378,-86.5 378,-56.5 286,-56.5"/>
<text text-anchor="start" x="294" y="-74.5" font-family="Helvetica,sans-Serif" font-size="10.00">fplll/pruner/pruner</text>
<text text-anchor="middle" x="332" y="-63.5" font-family="Helvetica,sans-Serif" font-size="10.00">_optimize_tp.cpp</text>
</a>
</g>
</g>
<!-- Node4&#45;&gt;Node12 -->
<g id="edge14" class="edge">
<title>Node4&#45;&gt;Node12</title>
<path fill="none" stroke="midnightblue" d="M972.66,-131.7C873.62,-130.39 606.25,-123.47 387,-87 384.08,-86.51 381.08,-85.94 378.08,-85.31"/>
<polygon fill="midnightblue" stroke="midnightblue" points="972.76,-135.2 982.8,-131.82 972.85,-128.2 972.76,-135.2"/>
</g>
<!-- Node13 -->
<g id="node13" class="node">
<title>Node13</title>
<g id="a_node13"><a xlink:href="pruner__prob_8cpp.html" target="_top" xlink:title=" ">
<polygon fill="white" stroke="black" points="630,-56.5 630,-86.5 722,-86.5 722,-56.5 630,-56.5"/>
<text text-anchor="start" x="638" y="-74.5" font-family="Helvetica,sans-Serif" font-size="10.00">fplll/pruner/pruner</text>
<text text-anchor="middle" x="676" y="-63.5" font-family="Helvetica,sans-Serif" font-size="10.00">_prob.cpp</text>
</a>
</g>
</g>
<!-- Node4&#45;&gt;Node13 -->
<g id="edge16" class="edge">
<title>Node4&#45;&gt;Node13</title>
<path fill="none" stroke="midnightblue" d="M972.76,-126.97C918.24,-119.69 816.6,-105.09 731,-87 728.1,-86.39 725.13,-85.72 722.13,-85.02"/>
<polygon fill="midnightblue" stroke="midnightblue" points="972.33,-130.44 982.7,-128.28 973.24,-123.5 972.33,-130.44"/>
</g>
<!-- Node14 -->
<g id="node14" class="node">
<title>Node14</title>
<g id="a_node14"><a xlink:href="pruner__util_8cpp.html" target="_top" xlink:title=" ">
<polygon fill="white" stroke="black" points="740,-56.5 740,-86.5 832,-86.5 832,-56.5 740,-56.5"/>
<text text-anchor="start" x="748" y="-74.5" font-family="Helvetica,sans-Serif" font-size="10.00">fplll/pruner/pruner</text>
<text text-anchor="middle" x="786" y="-63.5" font-family="Helvetica,sans-Serif" font-size="10.00">_util.cpp</text>
</a>
</g>
</g>
<!-- Node4&#45;&gt;Node14 -->
<g id="edge18" class="edge">
<title>Node4&#45;&gt;Node14</title>
<path fill="none" stroke="midnightblue" d="M973.22,-121.79C934.12,-111.5 873.77,-95.61 832.21,-84.67"/>
<polygon fill="midnightblue" stroke="midnightblue" points="972.36,-125.18 982.92,-124.34 974.14,-118.41 972.36,-125.18"/>
</g>
<!-- Node15 -->
<g id="node15" class="node">
<title>Node15</title>
<g id="a_node15"><a xlink:href="test__babai_8cpp.html" target="_top" xlink:title=" ">
<polygon fill="white" stroke="black" points="506.5,-62 506.5,-81 611.5,-81 611.5,-62 506.5,-62"/>
<text text-anchor="middle" x="559" y="-69" font-family="Helvetica,sans-Serif" font-size="10.00">tests/test_babai.cpp</text>
</a>
</g>
</g>
<!-- Node4&#45;&gt;Node15 -->
<g id="edge20" class="edge">
<title>Node4&#45;&gt;Node15</title>
<path fill="none" stroke="midnightblue" d="M972.67,-128.98C901.94,-123.22 748.75,-109.21 621,-87 611.63,-85.37 601.56,-83.2 592.32,-81.04"/>
<polygon fill="midnightblue" stroke="midnightblue" points="972.65,-132.49 982.9,-129.8 973.21,-125.51 972.65,-132.49"/>
</g>
<!-- Node16 -->
<g id="node16" class="node">
<title>Node16</title>
<g id="a_node16"><a xlink:href="test__bkz_8cpp.html" target="_top" xlink:title=" ">
<polygon fill="white" stroke="black" points="627,-0.5 627,-19.5 725,-19.5 725,-0.5 627,-0.5"/>
<text text-anchor="middle" x="676" y="-7.5" font-family="Helvetica,sans-Serif" font-size="10.00">tests/test_bkz.cpp</text>
</a>
</g>
</g>
<!-- Node4&#45;&gt;Node16 -->
<g id="edge21" class="edge">
<title>Node4&#45;&gt;Node16</title>
<path fill="none" stroke="midnightblue" d="M972.96,-122.24C946.16,-114.67 910.27,-102.8 881,-87 861.21,-76.31 861.13,-66.04 841,-56 804.2,-37.64 758.93,-25.98 725.12,-19.13"/>
<polygon fill="midnightblue" stroke="midnightblue" points="972.19,-125.65 982.76,-124.92 974.04,-118.9 972.19,-125.65"/>
</g>
<!-- Node17 -->
<g id="node17" class="node">
<title>Node17</title>
<g id="a_node17"><a xlink:href="test__bkz__gram_8cpp.html" target="_top" xlink:title=" ">
<polygon fill="white" stroke="black" points="743.5,-0.5 743.5,-19.5 868.5,-19.5 868.5,-0.5 743.5,-0.5"/>
<text text-anchor="middle" x="806" y="-7.5" font-family="Helvetica,sans-Serif" font-size="10.00">tests/test_bkz_gram.cpp</text>
</a>
</g>
</g>
<!-- Node4&#45;&gt;Node17 -->
<g id="edge22" class="edge">
<title>Node4&#45;&gt;Node17</title>
<path fill="none" stroke="midnightblue" d="M988.66,-118.29C945.89,-93.17 856.09,-40.42 820.75,-19.66"/>
<polygon fill="midnightblue" stroke="midnightblue" points="987.12,-121.44 997.51,-123.49 990.66,-115.41 987.12,-121.44"/>
</g>
<!-- Node18 -->
<g id="node18" class="node">
<title>Node18</title>
<g id="a_node18"><a xlink:href="test__ceil_8cpp.html" target="_top" xlink:title=" ">
<polygon fill="white" stroke="black" points="1272.5,-62 1272.5,-81 1369.5,-81 1369.5,-62 1272.5,-62"/>
<text text-anchor="middle" x="1321" y="-69" font-family="Helvetica,sans-Serif" font-size="10.00">tests/test_ceil.cpp</text>
</a>
</g>
</g>
<!-- Node4&#45;&gt;Node18 -->
<g id="edge23" class="edge">
<title>Node4&#45;&gt;Node18</title>
<path fill="none" stroke="midnightblue" d="M1051.34,-125.37C1100,-117.04 1185.31,-102.01 1258,-87 1266.79,-85.18 1276.24,-83.09 1285.08,-81.06"/>
<polygon fill="midnightblue" stroke="midnightblue" points="1050.51,-121.96 1041.24,-127.09 1051.69,-128.86 1050.51,-121.96"/>
</g>
<!-- Node19 -->
<g id="node19" class="node">
<title>Node19</title>
<g id="a_node19"><a xlink:href="test__counter_8cpp.html" target="_top" xlink:title=" ">
<polygon fill="white" stroke="black" points="1387.5,-62 1387.5,-81 1500.5,-81 1500.5,-62 1387.5,-62"/>
<text text-anchor="middle" x="1444" y="-69" font-family="Helvetica,sans-Serif" font-size="10.00">tests/test_counter.cpp</text>
</a>
</g>
</g>
<!-- Node4&#45;&gt;Node19 -->
<g id="edge24" class="edge">
<title>Node4&#45;&gt;Node19</title>
<path fill="none" stroke="midnightblue" d="M1051.21,-128.4C1118.39,-121.96 1259.7,-107.22 1378,-87 1387.83,-85.32 1398.41,-83.16 1408.15,-81.02"/>
<polygon fill="midnightblue" stroke="midnightblue" points="1050.7,-124.93 1041.08,-129.36 1051.36,-131.9 1050.7,-124.93"/>
</g>
<!-- Node20 -->
<g id="node20" class="node">
<title>Node20</title>
<g id="a_node20"><a xlink:href="test__cvp_8cpp.html" target="_top" xlink:title=" ">
<polygon fill="white" stroke="black" points="887,-0.5 887,-19.5 985,-19.5 985,-0.5 887,-0.5"/>
<text text-anchor="middle" x="936" y="-7.5" font-family="Helvetica,sans-Serif" font-size="10.00">tests/test_cvp.cpp</text>
</a>
</g>
</g>
<!-- Node4&#45;&gt;Node20 -->
<g id="edge25" class="edge">
<title>Node4&#45;&gt;Node20</title>
<path fill="none" stroke="midnightblue" d="M1001.16,-114.75C984.67,-88.48 953.86,-39.43 941.42,-19.62"/>
<polygon fill="midnightblue" stroke="midnightblue" points="998.25,-116.69 1006.53,-123.3 1004.18,-112.97 998.25,-116.69"/>
</g>
<!-- Node21 -->
<g id="node21" class="node">
<title>Node21</title>
<g id="a_node21"><a xlink:href="test__enum_8cpp.html" target="_top" xlink:title=" ">
<polygon fill="white" stroke="black" points="1003,-0.5 1003,-19.5 1109,-19.5 1109,-0.5 1003,-0.5"/>
<text text-anchor="middle" x="1056" y="-7.5" font-family="Helvetica,sans-Serif" font-size="10.00">tests/test_enum.cpp</text>
</a>
</g>
</g>
<!-- Node4&#45;&gt;Node21 -->
<g id="edge26" class="edge">
<title>Node4&#45;&gt;Node21</title>
<path fill="none" stroke="midnightblue" d="M1002.58,-113.81C995.7,-97.85 989,-74.38 998,-56 1006.19,-39.29 1023.9,-27 1037.61,-19.53"/>
<polygon fill="midnightblue" stroke="midnightblue" points="999.53,-115.54 1006.97,-123.09 1005.86,-112.55 999.53,-115.54"/>
</g>
<!-- Node22 -->
<g id="node22" class="node">
<title>Node22</title>
<g id="a_node22"><a xlink:href="test__hlll_8cpp.html" target="_top" xlink:title=" ">
<polygon fill="white" stroke="black" points="1127,-0.5 1127,-19.5 1221,-19.5 1221,-0.5 1127,-0.5"/>
<text text-anchor="middle" x="1174" y="-7.5" font-family="Helvetica,sans-Serif" font-size="10.00">tests/test_hlll.cpp</text>
</a>
</g>
</g>
<!-- Node4&#45;&gt;Node22 -->
<g id="edge27" class="edge">
<title>Node4&#45;&gt;Node22</title>
<path fill="none" stroke="midnightblue" d="M1011.8,-112.8C1012.66,-95.77 1016.6,-71.28 1031,-56 1044.87,-41.27 1094.65,-27.83 1131.6,-19.55"/>
<polygon fill="midnightblue" stroke="midnightblue" points="1008.29,-113.14 1011.6,-123.2 1015.29,-113.27 1008.29,-113.14"/>
</g>
<!-- Node23 -->
<g id="node23" class="node">
<title>Node23</title>
<g id="a_node23"><a xlink:href="test__lll_8cpp.html" target="_top" xlink:title=" ">
<polygon fill="white" stroke="black" points="1355.5,-0.5 1355.5,-19.5 1444.5,-19.5 1444.5,-0.5 1355.5,-0.5"/>
<text text-anchor="middle" x="1400" y="-7.5" font-family="Helvetica,sans-Serif" font-size="10.00">tests/test_lll.cpp</text>
</a>
</g>
</g>
<!-- Node4&#45;&gt;Node23 -->
<g id="edge28" class="edge">
<title>Node4&#45;&gt;Node23</title>
<path fill="none" stroke="midnightblue" d="M1051.34,-129.28C1095.49,-124.98 1168.34,-114.11 1225,-87 1244.66,-77.59 1243.88,-66.47 1263,-56 1294.4,-38.81 1333.47,-26.78 1361.84,-19.52"/>
<polygon fill="midnightblue" stroke="midnightblue" points="1050.94,-125.8 1041.3,-130.19 1051.57,-132.77 1050.94,-125.8"/>
</g>
<!-- Node4&#45;&gt;Node24 -->
<g id="edge29" class="edge">
<title>Node4&#45;&gt;Node24</title>
<path fill="none" stroke="midnightblue" d="M1051.45,-129.82C1207.49,-121.16 1773.23,-89.61 1777,-87 1799.84,-71.23 1807.54,-36.36 1809.97,-19.92"/>
<polygon fill="midnightblue" stroke="midnightblue" points="1051.15,-126.33 1041.36,-130.38 1051.54,-133.32 1051.15,-126.33"/>
</g>
<!-- Node25 -->
<g id="node25" class="node">
<title>Node25</title>
<g id="a_node25"><a xlink:href="test__nr_8cpp.html" target="_top" xlink:title=" ">
<polygon fill="white" stroke="black" points="1518.5,-62 1518.5,-81 1607.5,-81 1607.5,-62 1518.5,-62"/>
<text text-anchor="middle" x="1563" y="-69" font-family="Helvetica,sans-Serif" font-size="10.00">tests/test_nr.cpp</text>
</a>
</g>
</g>
<!-- Node4&#45;&gt;Node25 -->
<g id="edge30" class="edge">
<title>Node4&#45;&gt;Node25</title>
<path fill="none" stroke="midnightblue" d="M1051.12,-129.33C1152.34,-122.29 1421.06,-102.67 1509,-87 1517.51,-85.48 1526.62,-83.27 1534.9,-81.03"/>
<polygon fill="midnightblue" stroke="midnightblue" points="1050.75,-125.85 1041.02,-130.03 1051.24,-132.83 1050.75,-125.85"/>
</g>
<!-- Node26 -->
<g id="node26" class="node">
<title>Node26</title>
<g id="a_node26"><a xlink:href="test__pruner_8cpp.html" target="_top" xlink:title=" ">
<polygon fill="white" stroke="black" points="1626,-62 1626,-81 1734,-81 1734,-62 1626,-62"/>
<text text-anchor="middle" x="1680" y="-69" font-family="Helvetica,sans-Serif" font-size="10.00">tests/test_pruner.cpp</text>
</a>
</g>
</g>
<!-- Node4&#45;&gt;Node26 -->
<g id="edge31" class="edge">
<title>Node4&#45;&gt;Node26</title>
<path fill="none" stroke="midnightblue" d="M1051.46,-129.85C1167.65,-123.4 1507.18,-103.62 1617,-87 1626.88,-85.5 1637.5,-83.3 1647.16,-81.05"/>
<polygon fill="midnightblue" stroke="midnightblue" points="1051.04,-126.37 1041.25,-130.42 1051.43,-133.36 1051.04,-126.37"/>
</g>
<!-- Node27 -->
<g id="node27" class="node">
<title>Node27</title>
<g id="a_node27"><a xlink:href="test__svp_8cpp.html" target="_top" xlink:title=" ">
<polygon fill="white" stroke="black" points="1490,-0.5 1490,-19.5 1588,-19.5 1588,-0.5 1490,-0.5"/>
<text text-anchor="middle" x="1539" y="-7.5" font-family="Helvetica,sans-Serif" font-size="10.00">tests/test_svp.cpp</text>
</a>
</g>
</g>
<!-- Node4&#45;&gt;Node27 -->
<g id="edge32" class="edge">
<title>Node4&#45;&gt;Node27</title>
<path fill="none" stroke="midnightblue" d="M1051.69,-129.74C1203.63,-121.05 1740.01,-90.18 1743,-87 1752.44,-76.96 1751.63,-66.74 1743,-56 1733.27,-43.9 1645.27,-27.85 1588.07,-18.55"/>
<polygon fill="midnightblue" stroke="midnightblue" points="1051.21,-126.26 1041.43,-130.32 1051.61,-133.25 1051.21,-126.26"/>
</g>
<!-- Node28 -->
<g id="node28" class="node">
<title>Node28</title>
<g id="a_node28"><a xlink:href="test__svp__gram_8cpp.html" target="_top" xlink:title=" ">
<polygon fill="white" stroke="black" points="1608.5,-0.5 1608.5,-19.5 1733.5,-19.5 1733.5,-0.5 1608.5,-0.5"/>
<text text-anchor="middle" x="1671" y="-7.5" font-family="Helvetica,sans-Serif" font-size="10.00">tests/test_svp_gram.cpp</text>
</a>
</g>
</g>
<!-- Node4&#45;&gt;Node28 -->
<g id="edge33" class="edge">
<title>Node4&#45;&gt;Node28</title>
<path fill="none" stroke="midnightblue" d="M1051.58,-129.8C1205.65,-121.21 1756.93,-90.26 1760,-87 1769.45,-76.97 1767.22,-67.74 1760,-56 1748.57,-37.42 1726.83,-26.23 1707.7,-19.65"/>
<polygon fill="midnightblue" stroke="midnightblue" points="1050.98,-126.33 1041.19,-130.38 1051.37,-133.32 1050.98,-126.33"/>
</g>
<!-- Node29 -->
<g id="node29" class="node">
<title>Node29</title>
<g id="a_node29"><a xlink:href="test__utils_8h.html" target="_top" xlink:title=" ">
<polygon fill="white" stroke="black" points="1040.5,-62 1040.5,-81 1129.5,-81 1129.5,-62 1040.5,-62"/>
<text text-anchor="middle" x="1085" y="-69" font-family="Helvetica,sans-Serif" font-size="10.00">tests/test_utils.h</text>
</a>
</g>
</g>
<!-- Node4&#45;&gt;Node29 -->
<g id="edge34" class="edge">
<title>Node4&#45;&gt;Node29</title>
<path fill="none" stroke="midnightblue" d="M1030.44,-116.97C1044.4,-105.59 1063.08,-90.37 1074.56,-81.01"/>
<polygon fill="midnightblue" stroke="midnightblue" points="1028,-114.44 1022.46,-123.48 1032.42,-119.87 1028,-114.44"/>
</g>
<!-- Node7 -->
<g id="node7" class="node">
<title>Node7</title>
<g id="a_node7"><a xlink:href="main_8cpp.html" target="_top" xlink:title=" ">
<polygon fill="white" stroke="black" points="1887,-0.5 1887,-19.5 1961,-19.5 1961,-0.5 1887,-0.5"/>
<text text-anchor="middle" x="1924" y="-7.5" font-family="Helvetica,sans-Serif" font-size="10.00">fplll/main.cpp</text>
</a>
</g>
</g>
<!-- Node6&#45;&gt;Node7 -->
<g id="edge6" class="edge">
<title>Node6&#45;&gt;Node7</title>
<path fill="none" stroke="midnightblue" d="M1905.87,-52.5C1910.65,-41.55 1916.54,-28.07 1920.28,-19.51"/>
<polygon fill="midnightblue" stroke="midnightblue" points="1902.52,-51.41 1901.73,-61.98 1908.94,-54.21 1902.52,-51.41"/>
</g>
<!-- Node9&#45;&gt;Node8 -->
<g id="edge9" class="edge">
<title>Node9&#45;&gt;Node8</title>
<path fill="none" stroke="midnightblue" d="M393.31,-52.94C362.91,-41.98 325.11,-28.35 301.01,-19.66"/>
<polygon fill="midnightblue" stroke="midnightblue" points="392.3,-56.3 402.9,-56.4 394.68,-49.71 392.3,-56.3"/>
</g>
<!-- Node10&#45;&gt;Node8 -->
<g id="edge11" class="edge">
<title>Node10&#45;&gt;Node8</title>
<path fill="none" stroke="midnightblue" d="M160.69,-52.94C191.09,-41.98 228.89,-28.35 252.99,-19.66"/>
<polygon fill="midnightblue" stroke="midnightblue" points="159.32,-49.71 151.1,-56.4 161.7,-56.3 159.32,-49.71"/>
</g>
<!-- Node11&#45;&gt;Node8 -->
<g id="edge13" class="edge">
<title>Node11&#45;&gt;Node8</title>
<path fill="none" stroke="midnightblue" d="M241.87,-49C251.25,-38.86 261.9,-27.33 269,-19.66"/>
<polygon fill="midnightblue" stroke="midnightblue" points="239.25,-46.68 235.03,-56.4 244.39,-51.43 239.25,-46.68"/>
</g>
<!-- Node12&#45;&gt;Node8 -->
<g id="edge15" class="edge">
<title>Node12&#45;&gt;Node8</title>
<path fill="none" stroke="midnightblue" d="M312.13,-49C302.75,-38.86 292.1,-27.33 285,-19.66"/>
<polygon fill="midnightblue" stroke="midnightblue" points="309.61,-51.43 318.97,-56.4 314.75,-46.68 309.61,-51.43"/>
</g>
<!-- Node13&#45;&gt;Node8 -->
<g id="edge17" class="edge">
<title>Node13&#45;&gt;Node8</title>
<path fill="none" stroke="midnightblue" d="M620.31,-56.06C620.2,-56.04 620.1,-56.02 620,-56 519.33,-36.44 400.36,-22.95 332.29,-16.14"/>
<polygon fill="midnightblue" stroke="midnightblue" points="619.45,-59.46 629.96,-58.1 620.9,-52.61 619.45,-59.46"/>
</g>
<!-- Node14&#45;&gt;Node8 -->
<g id="edge19" class="edge">
<title>Node14&#45;&gt;Node8</title>
<path fill="none" stroke="midnightblue" d="M729.68,-55.95C580.93,-29.8 416.19,-18.27 332.25,-13.64"/>
<polygon fill="midnightblue" stroke="midnightblue" points="729.45,-59.47 739.91,-57.78 730.68,-52.58 729.45,-59.47"/>
</g>
<!-- Node29&#45;&gt;Node16 -->
<g id="edge35" class="edge">
<title>Node29&#45;&gt;Node16</title>
<path fill="none" stroke="midnightblue" d="M1030.16,-62.8C961.07,-53.06 838.68,-35.65 734,-20 731.08,-19.56 728.07,-19.11 725.04,-18.65"/>
<polygon fill="midnightblue" stroke="midnightblue" points="1029.98,-66.31 1040.37,-64.24 1030.96,-59.38 1029.98,-66.31"/>
</g>
<!-- Node29&#45;&gt;Node17 -->
<g id="edge36" class="edge">
<title>Node29&#45;&gt;Node17</title>
<path fill="none" stroke="midnightblue" d="M1034.97,-59.83C980.86,-48.29 895.69,-30.13 845.9,-19.51"/>
<polygon fill="midnightblue" stroke="midnightblue" points="1034.52,-63.31 1045.03,-61.98 1035.98,-56.47 1034.52,-63.31"/>
</g>
<!-- Node29&#45;&gt;Node20 -->
<g id="edge37" class="edge">
<title>Node29&#45;&gt;Node20</title>
<path fill="none" stroke="midnightblue" d="M1054.03,-58.13C1025.08,-46.57 982.63,-29.62 957.31,-19.51"/>
<polygon fill="midnightblue" stroke="midnightblue" points="1053.07,-61.52 1063.65,-61.98 1055.66,-55.02 1053.07,-61.52"/>
</g>
<!-- Node29&#45;&gt;Node21 -->
<g id="edge38" class="edge">
<title>Node29&#45;&gt;Node21</title>
<path fill="none" stroke="midnightblue" d="M1076.39,-52.83C1071.03,-41.83 1064.37,-28.16 1060.15,-19.51"/>
<polygon fill="midnightblue" stroke="midnightblue" points="1073.32,-54.52 1080.85,-61.98 1079.61,-51.45 1073.32,-54.52"/>
</g>
<!-- Node29&#45;&gt;Node22 -->
<g id="edge40" class="edge">
<title>Node29&#45;&gt;Node22</title>
<path fill="none" stroke="midnightblue" d="M1106.52,-56.11C1123.64,-44.67 1147.01,-29.05 1161.27,-19.51"/>
<polygon fill="midnightblue" stroke="midnightblue" points="1104.12,-53.51 1097.75,-61.98 1108.01,-59.33 1104.12,-53.51"/>
</g>
<!-- Node29&#45;&gt;Node23 -->
<g id="edge41" class="edge">
<title>Node29&#45;&gt;Node23</title>
<path fill="none" stroke="midnightblue" d="M1124.63,-59.42C1129.45,-58.2 1134.33,-57.03 1139,-56 1159.74,-51.44 1286.48,-30.02 1355.42,-18.46"/>
<polygon fill="midnightblue" stroke="midnightblue" points="1123.67,-56.05 1114.87,-61.96 1125.43,-62.82 1123.67,-56.05"/>
</g>
<!-- Node29&#45;&gt;Node24 -->
<g id="edge42" class="edge">
<title>Node29&#45;&gt;Node24</title>
<path fill="none" stroke="midnightblue" d="M1122.3,-59.43C1127.86,-58.09 1133.55,-56.88 1139,-56 1404.45,-12.91 1475.31,-45.66 1743,-20 1746.2,-19.69 1749.48,-19.35 1752.79,-18.98"/>
<polygon fill="midnightblue" stroke="midnightblue" points="1121.32,-56.07 1112.51,-61.96 1123.07,-62.85 1121.32,-56.07"/>
</g>
<!-- Node29&#45;&gt;Node27 -->
<g id="edge43" class="edge">
<title>Node29&#45;&gt;Node27</title>
<path fill="none" stroke="midnightblue" d="M1123.47,-59.41C1128.67,-58.14 1133.94,-56.96 1139,-56 1156.02,-52.78 1386.56,-27.56 1489.71,-16.34"/>
<polygon fill="midnightblue" stroke="midnightblue" points="1122.49,-56.05 1113.68,-61.94 1124.24,-62.83 1122.49,-56.05"/>
</g>
<!-- Node29&#45;&gt;Node28 -->
<g id="edge44" class="edge">
<title>Node29&#45;&gt;Node28</title>
<path fill="none" stroke="midnightblue" d="M1122.5,-59.48C1128,-58.14 1133.62,-56.93 1139,-56 1340.23,-21.38 1393.83,-40.33 1597,-20 1600.73,-19.63 1604.57,-19.22 1608.44,-18.8"/>
<polygon fill="midnightblue" stroke="midnightblue" points="1121.62,-56.1 1112.81,-61.98 1123.37,-62.87 1121.62,-56.1"/>
</g>
<!-- Node30 -->
<g id="node30" class="node">
<title>Node30</title>
<g id="a_node30"><a xlink:href="test__gso_8cpp.html" target="_top" xlink:title=" ">
<polygon fill="white" stroke="black" points="1239,-0.5 1239,-19.5 1337,-19.5 1337,-0.5 1239,-0.5"/>
<text text-anchor="middle" x="1288" y="-7.5" font-family="Helvetica,sans-Serif" font-size="10.00">tests/test_gso.cpp</text>
</a>
</g>
</g>
<!-- Node29&#45;&gt;Node30 -->
<g id="edge39" class="edge">
<title>Node29&#45;&gt;Node30</title>
<path fill="none" stroke="midnightblue" d="M1123.89,-59.1C1163.34,-47.54 1223.49,-29.91 1258.97,-19.51"/>
<polygon fill="midnightblue" stroke="midnightblue" points="1122.7,-55.8 1114.08,-61.98 1124.67,-62.52 1122.7,-55.8"/>
</g>
<!-- Node32&#45;&gt;Node4 -->
<g id="edge52" class="edge">
<title>Node32&#45;&gt;Node4</title>
<path fill="none" stroke="midnightblue" d="M1047.4,-280.93C1038.73,-244.92 1020.25,-168.23 1014.06,-142.57"/>
<polygon fill="midnightblue" stroke="midnightblue" points="1044.1,-282.17 1049.85,-291.08 1050.91,-280.53 1044.1,-282.17"/>
</g>
<!-- Node32&#45;&gt;Node8 -->
<g id="edge53" class="edge">
<title>Node32&#45;&gt;Node8</title>
<path fill="none" stroke="midnightblue" d="M992.12,-300.07C769.18,-299.56 0,-290.49 0,-190 0,-190 0,-190 0,-132 0,-93.41 10.76,-78.66 42,-56 70.12,-35.6 161.8,-22.65 221.99,-16.12"/>
<polygon fill="midnightblue" stroke="midnightblue" points="992.31,-303.57 1002.32,-300.09 992.33,-296.57 992.31,-303.57"/>
</g>
<!-- Node33 -->
<g id="node33" class="node">
<title>Node33</title>
<g id="a_node33"><a xlink:href="bkz__param_8h.html" target="_top" xlink:title=" ">
<polygon fill="white" stroke="black" points="1064.5,-235.5 1064.5,-254.5 1155.5,-254.5 1155.5,-235.5 1064.5,-235.5"/>
<text text-anchor="middle" x="1110" y="-242.5" font-family="Helvetica,sans-Serif" font-size="10.00">fplll/bkz_param.h</text>
</a>
</g>
</g>
<!-- Node32&#45;&gt;Node33 -->
<g id="edge47" class="edge">
<title>Node32&#45;&gt;Node33</title>
<path fill="none" stroke="midnightblue" d="M1068.91,-284.25C1079.2,-274.67 1091.97,-262.79 1100.51,-254.83"/>
<polygon fill="midnightblue" stroke="midnightblue" points="1066.25,-281.95 1061.32,-291.32 1071.02,-287.07 1066.25,-281.95"/>
</g>
<!-- Node33&#45;&gt;Node2 -->
<g id="edge49" class="edge">
<title>Node33&#45;&gt;Node2</title>
<path fill="none" stroke="midnightblue" d="M1141.02,-231.77C1166.76,-221.63 1202.69,-207.47 1225.39,-198.52"/>
<polygon fill="midnightblue" stroke="midnightblue" points="1139.73,-228.52 1131.71,-235.44 1142.29,-235.03 1139.73,-228.52"/>
</g>
<!-- Node33&#45;&gt;Node3 -->
<g id="edge48" class="edge">
<title>Node33&#45;&gt;Node3</title>
<path fill="none" stroke="midnightblue" d="M1131.81,-229.54C1143.47,-221.29 1157.71,-210.36 1169,-199 1187.14,-180.76 1204.25,-155.6 1212.63,-142.58"/>
<polygon fill="midnightblue" stroke="midnightblue" points="1129.73,-226.73 1123.49,-235.29 1133.71,-232.49 1129.73,-226.73"/>
</g>
<!-- Node33&#45;&gt;Node4 -->
<g id="edge51" class="edge">
<title>Node33&#45;&gt;Node4</title>
<path fill="none" stroke="midnightblue" d="M1086.79,-229.81C1074.86,-221.76 1060.63,-210.93 1050,-199 1034.17,-181.24 1021.64,-155.88 1015.72,-142.7"/>
<polygon fill="midnightblue" stroke="midnightblue" points="1085.08,-232.87 1095.37,-235.39 1088.9,-227 1085.08,-232.87"/>
</g>
<!-- Node34 -->
<g id="node34" class="node">
<title>Node34</title>
<g id="a_node34"><a xlink:href="bkz__param_8cpp.html" target="_top" xlink:title=" ">
<polygon fill="white" stroke="black" points="1059.5,-179.5 1059.5,-198.5 1160.5,-198.5 1160.5,-179.5 1059.5,-179.5"/>
<text text-anchor="middle" x="1110" y="-186.5" font-family="Helvetica,sans-Serif" font-size="10.00">fplll/bkz_param.cpp</text>
</a>
</g>
</g>
<!-- Node33&#45;&gt;Node34 -->
<g id="edge50" class="edge">
<title>Node33&#45;&gt;Node34</title>
<path fill="none" stroke="midnightblue" d="M1110,-224.8C1110,-215.91 1110,-205.78 1110,-198.75"/>
<polygon fill="midnightblue" stroke="midnightblue" points="1106.5,-225.08 1110,-235.08 1113.5,-225.08 1106.5,-225.08"/>
</g>
</g>
</svg>
