<?xml version="1.0" encoding="UTF-8" standalone="no"?>
<!DOCTYPE svg PUBLIC "-//W3C//DTD SVG 1.1//EN"
 "http://www.w3.org/Graphics/SVG/1.1/DTD/svg11.dtd">
<!-- Generated by graphviz version 2.40.1 (20161225.0304)
 -->
<!-- Title: fplll/lll.h Pages: 1 -->
<svg width="2066pt" height="375pt"
 viewBox="0.00 0.00 2065.79 375.00" xmlns="http://www.w3.org/2000/svg" xmlns:xlink="http://www.w3.org/1999/xlink">
<g id="graph0" class="graph" transform="scale(1 1) rotate(0) translate(4 371)">
<title>fplll/lll.h</title>
<polygon fill="#ffffff" stroke="transparent" points="-4,4 -4,-371 2061.7949,-371 2061.7949,4 -4,4"/>
<!-- Node0 -->
<g id="node1" class="node">
<title>Node0</title>
<polygon fill="#bfbfbf" stroke="#000000" points="1838.7949,-347.5 1838.7949,-366.5 1888.7949,-366.5 1888.7949,-347.5 1838.7949,-347.5"/>
<text text-anchor="middle" x="1863.7949" y="-354.5" font-family="Helvetica,sans-Serif" font-size="10.00" fill="#000000">fplll/lll.h</text>
</g>
<!-- Node1 -->
<g id="node2" class="node">
<title>Node1</title>
<g id="a_node2"><a xlink:href="pruner_8h.html" target="_top" xlink:title="fplll/pruner/pruner.h">
<polygon fill="#ffffff" stroke="#000000" points="1008.7949,-291.5 1008.7949,-310.5 1108.7949,-310.5 1108.7949,-291.5 1008.7949,-291.5"/>
<text text-anchor="middle" x="1058.7949" y="-298.5" font-family="Helvetica,sans-Serif" font-size="10.00" fill="#000000">fplll/pruner/pruner.h</text>
</a>
</g>
</g>
<!-- Node0&#45;&gt;Node1 -->
<g id="edge1" class="edge">
<title>Node0&#45;&gt;Node1</title>
<path fill="none" stroke="#191970" d="M1828.2874,-354.5299C1699.7458,-345.5879 1258.415,-314.8866 1108.834,-304.481"/>
<polygon fill="#191970" stroke="#191970" points="1828.1545,-358.029 1838.3733,-355.2315 1828.6403,-351.0459 1828.1545,-358.029"/>
</g>
<!-- Node3 -->
<g id="node4" class="node">
<title>Node3</title>
<g id="a_node4"><a xlink:href="bkz_8h.html" target="_top" xlink:title="fplll/bkz.h">
<polygon fill="#ffffff" stroke="#000000" points="1224.2949,-179.5 1224.2949,-198.5 1283.2949,-198.5 1283.2949,-179.5 1224.2949,-179.5"/>
<text text-anchor="middle" x="1253.7949" y="-186.5" font-family="Helvetica,sans-Serif" font-size="10.00" fill="#000000">fplll/bkz.h</text>
</a>
</g>
</g>
<!-- Node0&#45;&gt;Node3 -->
<g id="edge51" class="edge">
<title>Node0&#45;&gt;Node3</title>
<path fill="none" stroke="#191970" d="M1828.8904,-347.387C1719.6471,-317.3003 1385.513,-225.2765 1283.6116,-197.2118"/>
<polygon fill="#191970" stroke="#191970" points="1828.1745,-350.8201 1838.7449,-350.101 1830.0332,-344.0713 1828.1745,-350.8201"/>
</g>
<!-- Node23 -->
<g id="node24" class="node">
<title>Node23</title>
<g id="a_node24"><a xlink:href="test__lll__gram_8cpp.html" target="_top" xlink:title="tests/test_lll_gram.cpp">
<polygon fill="#ffffff" stroke="#000000" points="1685.7949,-.5 1685.7949,-19.5 1801.7949,-19.5 1801.7949,-.5 1685.7949,-.5"/>
<text text-anchor="middle" x="1743.7949" y="-7.5" font-family="Helvetica,sans-Serif" font-size="10.00" fill="#000000">tests/test_lll_gram.cpp</text>
</a>
</g>
</g>
<!-- Node0&#45;&gt;Node23 -->
<g id="edge54" class="edge">
<title>Node0&#45;&gt;Node23</title>
<path fill="none" stroke="#191970" d="M1863.7949,-337.1952C1863.7949,-314.8128 1863.7949,-277.2884 1863.7949,-245 1863.7949,-245 1863.7949,-245 1863.7949,-133 1863.7949,-97.7513 1867.3045,-83.1254 1844.7949,-56 1829.6606,-37.7624 1805.7536,-26.4309 1784.9976,-19.5793"/>
<polygon fill="#191970" stroke="#191970" points="1860.295,-337.4116 1863.7949,-347.4116 1867.295,-337.4117 1860.295,-337.4116"/>
</g>
<!-- Node32 -->
<g id="node33" class="node">
<title>Node32</title>
<g id="a_node33"><a xlink:href="lll_8cpp.html" target="_top" xlink:title="fplll/lll.cpp">
<polygon fill="#ffffff" stroke="#000000" points="1891.7949,-291.5 1891.7949,-310.5 1951.7949,-310.5 1951.7949,-291.5 1891.7949,-291.5"/>
<text text-anchor="middle" x="1921.7949" y="-298.5" font-family="Helvetica,sans-Serif" font-size="10.00" fill="#000000">fplll/lll.cpp</text>
</a>
</g>
</g>
<!-- Node0&#45;&gt;Node32 -->
<g id="edge52" class="edge">
<title>Node0&#45;&gt;Node32</title>
<path fill="none" stroke="#191970" d="M1881.3242,-340.0751C1891.3032,-330.4402 1903.4425,-318.7196 1911.8078,-310.6427"/>
<polygon fill="#191970" stroke="#191970" points="1878.6607,-337.7817 1873.8977,-347.2455 1883.5228,-342.8175 1878.6607,-337.7817"/>
</g>
<!-- Node33 -->
<g id="node34" class="node">
<title>Node33</title>
<g id="a_node34"><a xlink:href="wrapper_8cpp.html" target="_top" xlink:title="fplll/wrapper.cpp">
<polygon fill="#ffffff" stroke="#000000" points="1969.7949,-291.5 1969.7949,-310.5 2057.7949,-310.5 2057.7949,-291.5 1969.7949,-291.5"/>
<text text-anchor="middle" x="2013.7949" y="-298.5" font-family="Helvetica,sans-Serif" font-size="10.00" fill="#000000">fplll/wrapper.cpp</text>
</a>
</g>
</g>
<!-- Node0&#45;&gt;Node33 -->
<g id="edge53" class="edge">
<title>Node0&#45;&gt;Node33</title>
<path fill="none" stroke="#191970" d="M1898.4784,-344.0515C1925.8395,-333.8367 1963.3868,-319.819 1988.1036,-310.5914"/>
<polygon fill="#191970" stroke="#191970" points="1897.0458,-340.8503 1888.9015,-347.6269 1899.4941,-347.4082 1897.0458,-340.8503"/>
</g>
<!-- Node2 -->
<g id="node3" class="node">
<title>Node2</title>
<g id="a_node3"><a xlink:href="bkz__param_8h.html" target="_top" xlink:title="fplll/bkz_param.h">
<polygon fill="#ffffff" stroke="#000000" points="1071.2949,-235.5 1071.2949,-254.5 1162.2949,-254.5 1162.2949,-235.5 1071.2949,-235.5"/>
<text text-anchor="middle" x="1116.7949" y="-242.5" font-family="Helvetica,sans-Serif" font-size="10.00" fill="#000000">fplll/bkz_param.h</text>
</a>
</g>
</g>
<!-- Node1&#45;&gt;Node2 -->
<g id="edge2" class="edge">
<title>Node1&#45;&gt;Node2</title>
<path fill="none" stroke="#191970" d="M1076.3242,-284.0751C1086.3032,-274.4402 1098.4425,-262.7196 1106.8078,-254.6427"/>
<polygon fill="#191970" stroke="#191970" points="1073.6607,-281.7817 1068.8977,-291.2455 1078.5228,-286.8175 1073.6607,-281.7817"/>
</g>
<!-- Node5 -->
<g id="node6" class="node">
<title>Node5</title>
<g id="a_node6"><a xlink:href="fplll_8h.html" target="_top" xlink:title="fplll/fplll.h">
<polygon fill="#ffffff" stroke="#000000" points="989.7949,-123.5 989.7949,-142.5 1047.7949,-142.5 1047.7949,-123.5 989.7949,-123.5"/>
<text text-anchor="middle" x="1018.7949" y="-130.5" font-family="Helvetica,sans-Serif" font-size="10.00" fill="#000000">fplll/fplll.h</text>
</a>
</g>
</g>
<!-- Node1&#45;&gt;Node5 -->
<g id="edge49" class="edge">
<title>Node1&#45;&gt;Node5</title>
<path fill="none" stroke="#191970" d="M1054.206,-281.7267C1045.6569,-245.8207 1027.5764,-169.8822 1021.1349,-142.8279"/>
<polygon fill="#191970" stroke="#191970" points="1050.8086,-282.5689 1056.5297,-291.4862 1057.6182,-280.9475 1050.8086,-282.5689"/>
</g>
<!-- Node9 -->
<g id="node10" class="node">
<title>Node9</title>
<g id="a_node10"><a xlink:href="pruner_8cpp.html" target="_top" xlink:title="fplll/pruner/pruner.cpp">
<polygon fill="#ffffff" stroke="#000000" points="295.7949,-.5 295.7949,-19.5 405.7949,-19.5 405.7949,-.5 295.7949,-.5"/>
<text text-anchor="middle" x="350.7949" y="-7.5" font-family="Helvetica,sans-Serif" font-size="10.00" fill="#000000">fplll/pruner/pruner.cpp</text>
</a>
</g>
</g>
<!-- Node1&#45;&gt;Node9 -->
<g id="edge50" class="edge">
<title>Node1&#45;&gt;Node9</title>
<path fill="none" stroke="#191970" d="M998.2538,-297.7857C773.7637,-285.4733 1.7949,-239.4649 1.7949,-189 1.7949,-189 1.7949,-189 1.7949,-133 1.7949,-97.7513 -5.3846,-79.603 20.7949,-56 40.8261,-37.9402 206.8138,-21.7803 295.4635,-14.337"/>
<polygon fill="#191970" stroke="#191970" points="998.3487,-301.2961 1008.5247,-298.3465 998.7304,-294.3065 998.3487,-301.2961"/>
</g>
<!-- Node2&#45;&gt;Node3 -->
<g id="edge3" class="edge">
<title>Node2&#45;&gt;Node3</title>
<path fill="none" stroke="#191970" d="M1149.7755,-231.5189C1174.726,-221.3201 1208.3683,-207.5685 1230.5511,-198.5011"/>
<polygon fill="#191970" stroke="#191970" points="1148.2783,-228.3497 1140.346,-235.3733 1150.9269,-234.8293 1148.2783,-228.3497"/>
</g>
<!-- Node4 -->
<g id="node5" class="node">
<title>Node4</title>
<g id="a_node5"><a xlink:href="bkz_8cpp.html" target="_top" xlink:title="fplll/bkz.cpp">
<polygon fill="#ffffff" stroke="#000000" points="1190.2949,-123.5 1190.2949,-142.5 1259.2949,-142.5 1259.2949,-123.5 1190.2949,-123.5"/>
<text text-anchor="middle" x="1224.7949" y="-130.5" font-family="Helvetica,sans-Serif" font-size="10.00" fill="#000000">fplll/bkz.cpp</text>
</a>
</g>
</g>
<!-- Node2&#45;&gt;Node4 -->
<g id="edge46" class="edge">
<title>Node2&#45;&gt;Node4</title>
<path fill="none" stroke="#191970" d="M1139.5156,-229.5209C1151.004,-221.157 1164.8025,-210.2547 1175.7949,-199 1193.5441,-180.8273 1210.3003,-156.0177 1218.8634,-142.5864"/>
<polygon fill="#191970" stroke="#191970" points="1137.388,-226.7391 1131.2654,-235.3858 1141.4438,-232.4444 1137.388,-226.7391"/>
</g>
<!-- Node2&#45;&gt;Node5 -->
<g id="edge48" class="edge">
<title>Node2&#45;&gt;Node5</title>
<path fill="none" stroke="#191970" d="M1092.6371,-229.7805C1080.8999,-221.6092 1067.135,-210.7999 1056.7949,-199 1041.2842,-181.2995 1028.9716,-156.3054 1022.9085,-142.7179"/>
<polygon fill="#191970" stroke="#191970" points="1090.8753,-232.8134 1101.1271,-235.4876 1094.7805,-227.004 1090.8753,-232.8134"/>
</g>
<!-- Node31 -->
<g id="node32" class="node">
<title>Node31</title>
<g id="a_node32"><a xlink:href="bkz__param_8cpp.html" target="_top" xlink:title="fplll/bkz_param.cpp">
<polygon fill="#ffffff" stroke="#000000" points="1066.2949,-179.5 1066.2949,-198.5 1167.2949,-198.5 1167.2949,-179.5 1066.2949,-179.5"/>
<text text-anchor="middle" x="1116.7949" y="-186.5" font-family="Helvetica,sans-Serif" font-size="10.00" fill="#000000">fplll/bkz_param.cpp</text>
</a>
</g>
</g>
<!-- Node2&#45;&gt;Node31 -->
<g id="edge47" class="edge">
<title>Node2&#45;&gt;Node31</title>
<path fill="none" stroke="#191970" d="M1116.7949,-225.1575C1116.7949,-216.155 1116.7949,-205.9199 1116.7949,-198.6427"/>
<polygon fill="#191970" stroke="#191970" points="1113.295,-225.2455 1116.7949,-235.2455 1120.295,-225.2456 1113.295,-225.2455"/>
</g>
<!-- Node3&#45;&gt;Node4 -->
<g id="edge4" class="edge">
<title>Node3&#45;&gt;Node4</title>
<path fill="none" stroke="#191970" d="M1244.1302,-170.3372C1239.3262,-161.0605 1233.7226,-150.2398 1229.7884,-142.6427"/>
<polygon fill="#191970" stroke="#191970" points="1241.0369,-171.9751 1248.7435,-179.2455 1247.2529,-168.7561 1241.0369,-171.9751"/>
</g>
<!-- Node3&#45;&gt;Node5 -->
<g id="edge5" class="edge">
<title>Node3&#45;&gt;Node5</title>
<path fill="none" stroke="#191970" d="M1214.1951,-179.5634C1167.1659,-168.3565 1089.8348,-149.9287 1047.9477,-139.9471"/>
<polygon fill="#191970" stroke="#191970" points="1213.493,-182.9941 1224.032,-181.9076 1215.1157,-176.1847 1213.493,-182.9941"/>
</g>
<!-- Node6 -->
<g id="node7" class="node">
<title>Node6</title>
<g id="a_node7"><a xlink:href="fplll_8cpp.html" target="_top" xlink:title="fplll/fplll.cpp">
<polygon fill="#ffffff" stroke="#000000" points="1065.7949,-62 1065.7949,-81 1133.7949,-81 1133.7949,-62 1065.7949,-62"/>
<text text-anchor="middle" x="1099.7949" y="-69" font-family="Helvetica,sans-Serif" font-size="10.00" fill="#000000">fplll/fplll.cpp</text>
</a>
</g>
</g>
<!-- Node5&#45;&gt;Node6 -->
<g id="edge6" class="edge">
<title>Node5&#45;&gt;Node6</title>
<path fill="none" stroke="#191970" d="M1039.6717,-117.1491C1054.722,-105.722 1074.5401,-90.6749 1087.2275,-81.0419"/>
<polygon fill="#191970" stroke="#191970" points="1037.2991,-114.5559 1031.4511,-123.3906 1041.5321,-120.1311 1037.2991,-114.5559"/>
</g>
<!-- Node7 -->
<g id="node8" class="node">
<title>Node7</title>
<g id="a_node8"><a xlink:href="main_8h.html" target="_top" xlink:title="fplll/main.h">
<polygon fill="#ffffff" stroke="#000000" points="1771.7949,-62 1771.7949,-81 1835.7949,-81 1835.7949,-62 1771.7949,-62"/>
<text text-anchor="middle" x="1803.7949" y="-69" font-family="Helvetica,sans-Serif" font-size="10.00" fill="#000000">fplll/main.h</text>
</a>
</g>
</g>
<!-- Node5&#45;&gt;Node7 -->
<g id="edge7" class="edge">
<title>Node5&#45;&gt;Node7</title>
<path fill="none" stroke="#191970" d="M1058.4593,-130.5483C1211.5598,-121.0827 1755.627,-87.425 1757.7949,-87 1764.907,-85.6057 1772.4319,-83.399 1779.2897,-81.083"/>
<polygon fill="#191970" stroke="#191970" points="1057.8895,-127.0767 1048.1245,-131.1872 1058.3214,-134.0634 1057.8895,-127.0767"/>
</g>
<!-- Node5&#45;&gt;Node9 -->
<g id="edge9" class="edge">
<title>Node5&#45;&gt;Node9</title>
<path fill="none" stroke="#191970" d="M979.5136,-126.7826C946.4742,-120.3499 898.8356,-108.1878 861.7949,-87 844.3276,-77.0084 847.1274,-64.2981 828.7949,-56 791.0566,-38.9181 523.8033,-20.6335 406.1574,-13.3098"/>
<polygon fill="#191970" stroke="#191970" points="979.2248,-130.2887 989.6958,-128.674 980.5033,-123.4064 979.2248,-130.2887"/>
</g>
<!-- Node10 -->
<g id="node11" class="node">
<title>Node10</title>
<g id="a_node11"><a xlink:href="pruner__cost_8cpp.html" target="_top" xlink:title="fplll/pruner/pruner\l_cost.cpp">
<polygon fill="#ffffff" stroke="#000000" points="249.7949,-56.5 249.7949,-86.5 341.7949,-86.5 341.7949,-56.5 249.7949,-56.5"/>
<text text-anchor="start" x="257.7949" y="-74.5" font-family="Helvetica,sans-Serif" font-size="10.00" fill="#000000">fplll/pruner/pruner</text>
<text text-anchor="middle" x="295.7949" y="-63.5" font-family="Helvetica,sans-Serif" font-size="10.00" fill="#000000">_cost.cpp</text>
</a>
</g>
</g>
<!-- Node5&#45;&gt;Node10 -->
<g id="edge10" class="edge">
<title>Node5&#45;&gt;Node10</title>
<path fill="none" stroke="#191970" d="M979.4078,-131.3546C855.2301,-125.999 472.9393,-108.1838 350.7949,-87 347.8625,-86.4914 344.8621,-85.8892 341.8498,-85.2222"/>
<polygon fill="#191970" stroke="#191970" points="979.4543,-134.8597 989.5949,-131.7909 979.7539,-127.8661 979.4543,-134.8597"/>
</g>
<!-- Node11 -->
<g id="node12" class="node">
<title>Node11</title>
<g id="a_node12"><a xlink:href="pruner__optimize_8cpp.html" target="_top" xlink:title="fplll/pruner/pruner\l_optimize.cpp">
<polygon fill="#ffffff" stroke="#000000" points="359.7949,-56.5 359.7949,-86.5 451.7949,-86.5 451.7949,-56.5 359.7949,-56.5"/>
<text text-anchor="start" x="367.7949" y="-74.5" font-family="Helvetica,sans-Serif" font-size="10.00" fill="#000000">fplll/pruner/pruner</text>
<text text-anchor="middle" x="405.7949" y="-63.5" font-family="Helvetica,sans-Serif" font-size="10.00" fill="#000000">_optimize.cpp</text>
</a>
</g>
</g>
<!-- Node5&#45;&gt;Node11 -->
<g id="edge12" class="edge">
<title>Node5&#45;&gt;Node11</title>
<path fill="none" stroke="#191970" d="M979.6024,-132.3542C888.058,-130.2852 653.3391,-121.7334 460.7949,-87 457.866,-86.4717 454.8682,-85.8543 451.858,-85.176"/>
<polygon fill="#191970" stroke="#191970" points="979.7192,-135.8574 989.7914,-132.5707 979.868,-128.859 979.7192,-135.8574"/>
</g>
<!-- Node12 -->
<g id="node13" class="node">
<title>Node12</title>
<g id="a_node13"><a xlink:href="pruner__optimize__tc_8cpp.html" target="_top" xlink:title="fplll/pruner/pruner\l_optimize_tc.cpp">
<polygon fill="#ffffff" stroke="#000000" points="469.7949,-56.5 469.7949,-86.5 561.7949,-86.5 561.7949,-56.5 469.7949,-56.5"/>
<text text-anchor="start" x="477.7949" y="-74.5" font-family="Helvetica,sans-Serif" font-size="10.00" fill="#000000">fplll/pruner/pruner</text>
<text text-anchor="middle" x="515.7949" y="-63.5" font-family="Helvetica,sans-Serif" font-size="10.00" fill="#000000">_optimize_tc.cpp</text>
</a>
</g>
</g>
<!-- Node5&#45;&gt;Node12 -->
<g id="edge14" class="edge">
<title>Node5&#45;&gt;Node12</title>
<path fill="none" stroke="#191970" d="M979.3437,-131.2364C900.9086,-127.2282 720.0653,-115.4766 570.7949,-87 567.8714,-86.4423 564.8779,-85.8024 561.8708,-85.1073"/>
<polygon fill="#191970" stroke="#191970" points="979.5563,-134.7512 989.7177,-131.7515 979.9036,-127.7598 979.5563,-134.7512"/>
</g>
<!-- Node13 -->
<g id="node14" class="node">
<title>Node13</title>
<g id="a_node14"><a xlink:href="pruner__optimize__tp_8cpp.html" target="_top" xlink:title="fplll/pruner/pruner\l_optimize_tp.cpp">
<polygon fill="#ffffff" stroke="#000000" points="727.7949,-56.5 727.7949,-86.5 819.7949,-86.5 819.7949,-56.5 727.7949,-56.5"/>
<text text-anchor="start" x="735.7949" y="-74.5" font-family="Helvetica,sans-Serif" font-size="10.00" fill="#000000">fplll/pruner/pruner</text>
<text text-anchor="middle" x="773.7949" y="-63.5" font-family="Helvetica,sans-Serif" font-size="10.00" fill="#000000">_optimize_tp.cpp</text>
</a>
</g>
</g>
<!-- Node5&#45;&gt;Node13 -->
<g id="edge16" class="edge">
<title>Node5&#45;&gt;Node13</title>
<path fill="none" stroke="#191970" d="M979.6196,-123.3688C942.1557,-114.1324 884.0862,-99.7481 833.7949,-87 829.3105,-85.8633 824.6398,-84.6711 819.9718,-83.4742"/>
<polygon fill="#191970" stroke="#191970" points="979.0693,-126.8378 989.6163,-125.8318 980.744,-120.0411 979.0693,-126.8378"/>
</g>
<!-- Node14 -->
<g id="node15" class="node">
<title>Node14</title>
<g id="a_node15"><a xlink:href="pruner__prob_8cpp.html" target="_top" xlink:title="fplll/pruner/pruner\l_prob.cpp">
<polygon fill="#ffffff" stroke="#000000" points="29.7949,-56.5 29.7949,-86.5 121.7949,-86.5 121.7949,-56.5 29.7949,-56.5"/>
<text text-anchor="start" x="37.7949" y="-74.5" font-family="Helvetica,sans-Serif" font-size="10.00" fill="#000000">fplll/pruner/pruner</text>
<text text-anchor="middle" x="75.7949" y="-63.5" font-family="Helvetica,sans-Serif" font-size="10.00" fill="#000000">_prob.cpp</text>
</a>
</g>
</g>
<!-- Node5&#45;&gt;Node14 -->
<g id="edge18" class="edge">
<title>Node5&#45;&gt;Node14</title>
<path fill="none" stroke="#191970" d="M979.4489,-132.1279C830.0269,-128.635 297.7684,-114.4989 130.7949,-87 127.8583,-86.5164 124.8546,-85.9332 121.84,-85.2805"/>
<polygon fill="#191970" stroke="#191970" points="979.4572,-135.6289 989.5354,-132.361 979.619,-128.6308 979.4572,-135.6289"/>
</g>
<!-- Node15 -->
<g id="node16" class="node">
<title>Node15</title>
<g id="a_node16"><a xlink:href="pruner__util_8cpp.html" target="_top" xlink:title="fplll/pruner/pruner\l_util.cpp">
<polygon fill="#ffffff" stroke="#000000" points="139.7949,-56.5 139.7949,-86.5 231.7949,-86.5 231.7949,-56.5 139.7949,-56.5"/>
<text text-anchor="start" x="147.7949" y="-74.5" font-family="Helvetica,sans-Serif" font-size="10.00" fill="#000000">fplll/pruner/pruner</text>
<text text-anchor="middle" x="185.7949" y="-63.5" font-family="Helvetica,sans-Serif" font-size="10.00" fill="#000000">_util.cpp</text>
</a>
</g>
</g>
<!-- Node5&#45;&gt;Node15 -->
<g id="edge20" class="edge">
<title>Node5&#45;&gt;Node15</title>
<path fill="none" stroke="#191970" d="M979.4632,-131.7966C842.2535,-127.4234 385.2996,-111.3407 240.7949,-87 237.8601,-86.5057 234.8578,-85.9143 231.8441,-85.2555"/>
<polygon fill="#191970" stroke="#191970" points="979.4192,-135.2969 989.5248,-132.1145 979.6403,-128.3004 979.4192,-135.2969"/>
</g>
<!-- Node16 -->
<g id="node17" class="node">
<title>Node16</title>
<g id="a_node17"><a xlink:href="sieve__main_8cpp.html" target="_top" xlink:title="fplll/sieve/sieve_main.cpp">
<polygon fill="#ffffff" stroke="#000000" points="580.2949,-62 580.2949,-81 709.2949,-81 709.2949,-62 580.2949,-62"/>
<text text-anchor="middle" x="644.7949" y="-69" font-family="Helvetica,sans-Serif" font-size="10.00" fill="#000000">fplll/sieve/sieve_main.cpp</text>
</a>
</g>
</g>
<!-- Node5&#45;&gt;Node16 -->
<g id="edge22" class="edge">
<title>Node5&#45;&gt;Node16</title>
<path fill="none" stroke="#191970" d="M979.6651,-127.6919C922.2873,-119.7518 812.0206,-103.8979 718.7949,-87 708.979,-85.2208 698.4694,-83.1319 688.543,-81.074"/>
<polygon fill="#191970" stroke="#191970" points="979.3631,-131.1833 989.7473,-129.0809 980.3185,-124.2488 979.3631,-131.1833"/>
</g>
<!-- Node17 -->
<g id="node18" class="node">
<title>Node17</title>
<g id="a_node18"><a xlink:href="test__bkz_8cpp.html" target="_top" xlink:title="tests/test_bkz.cpp">
<polygon fill="#ffffff" stroke="#000000" points="590.7949,-.5 590.7949,-19.5 688.7949,-19.5 688.7949,-.5 590.7949,-.5"/>
<text text-anchor="middle" x="639.7949" y="-7.5" font-family="Helvetica,sans-Serif" font-size="10.00" fill="#000000">tests/test_bkz.cpp</text>
</a>
</g>
</g>
<!-- Node5&#45;&gt;Node17 -->
<g id="edge23" class="edge">
<title>Node5&#45;&gt;Node17</title>
<path fill="none" stroke="#191970" d="M979.9422,-121.4429C955.9785,-113.4872 925.0955,-101.708 899.7949,-87 880.9516,-76.0458 881.4746,-65.3686 861.7949,-56 846.3577,-48.6511 749.6113,-30.0879 689.0377,-18.9182"/>
<polygon fill="#191970" stroke="#191970" points="979.1605,-124.8685 989.7523,-124.6158 981.3147,-118.2082 979.1605,-124.8685"/>
</g>
<!-- Node18 -->
<g id="node19" class="node">
<title>Node18</title>
<g id="a_node19"><a xlink:href="test__bkz__gram_8cpp.html" target="_top" xlink:title="tests/test_bkz_gram.cpp">
<polygon fill="#ffffff" stroke="#000000" points="707.2949,-.5 707.2949,-19.5 832.2949,-19.5 832.2949,-.5 707.2949,-.5"/>
<text text-anchor="middle" x="769.7949" y="-7.5" font-family="Helvetica,sans-Serif" font-size="10.00" fill="#000000">tests/test_bkz_gram.cpp</text>
</a>
</g>
</g>
<!-- Node5&#45;&gt;Node18 -->
<g id="edge24" class="edge">
<title>Node5&#45;&gt;Node18</title>
<path fill="none" stroke="#191970" d="M992.8672,-118.3554C977.7466,-109.6071 958.435,-98.0735 941.7949,-87 922.4801,-74.1466 920.2878,-66.8772 899.7949,-56 869.4496,-39.8933 832.2766,-27.3899 805.4652,-19.5112"/>
<polygon fill="#191970" stroke="#191970" points="991.2638,-121.4707 1001.6789,-123.4136 994.7486,-115.3997 991.2638,-121.4707"/>
</g>
<!-- Node19 -->
<g id="node20" class="node">
<title>Node19</title>
<g id="a_node20"><a xlink:href="test__cvp_8cpp.html" target="_top" xlink:title="tests/test_cvp.cpp">
<polygon fill="#ffffff" stroke="#000000" points="850.7949,-.5 850.7949,-19.5 948.7949,-19.5 948.7949,-.5 850.7949,-.5"/>
<text text-anchor="middle" x="899.7949" y="-7.5" font-family="Helvetica,sans-Serif" font-size="10.00" fill="#000000">tests/test_cvp.cpp</text>
</a>
</g>
</g>
<!-- Node5&#45;&gt;Node19 -->
<g id="edge25" class="edge">
<title>Node5&#45;&gt;Node19</title>
<path fill="none" stroke="#191970" d="M1002.3683,-116.0212C977.023,-89.824 929.2093,-40.4031 909.0892,-19.6068"/>
<polygon fill="#191970" stroke="#191970" points="999.9884,-118.5951 1009.4572,-123.3484 1005.0193,-113.7278 999.9884,-118.5951"/>
</g>
<!-- Node20 -->
<g id="node21" class="node">
<title>Node20</title>
<g id="a_node21"><a xlink:href="test__enum_8cpp.html" target="_top" xlink:title="tests/test_enum.cpp">
<polygon fill="#ffffff" stroke="#000000" points="1335.7949,-62 1335.7949,-81 1441.7949,-81 1441.7949,-62 1335.7949,-62"/>
<text text-anchor="middle" x="1388.7949" y="-69" font-family="Helvetica,sans-Serif" font-size="10.00" fill="#000000">tests/test_enum.cpp</text>
</a>
</g>
</g>
<!-- Node5&#45;&gt;Node20 -->
<g id="edge26" class="edge">
<title>Node5&#45;&gt;Node20</title>
<path fill="none" stroke="#191970" d="M1058.3668,-127.978C1116.3814,-120.3927 1227.828,-104.9747 1321.7949,-87 1330.9416,-85.2504 1340.7344,-83.128 1349.9305,-81.0224"/>
<polygon fill="#191970" stroke="#191970" points="1057.6381,-124.5432 1048.1723,-129.3021 1058.5398,-131.4849 1057.6381,-124.5432"/>
</g>
<!-- Node21 -->
<g id="node22" class="node">
<title>Node21</title>
<g id="a_node22"><a xlink:href="test__hlll_8cpp.html" target="_top" xlink:title="tests/test_hlll.cpp">
<polygon fill="#ffffff" stroke="#000000" points="966.7949,-.5 966.7949,-19.5 1060.7949,-19.5 1060.7949,-.5 966.7949,-.5"/>
<text text-anchor="middle" x="1013.7949" y="-7.5" font-family="Helvetica,sans-Serif" font-size="10.00" fill="#000000">tests/test_hlll.cpp</text>
</a>
</g>
</g>
<!-- Node5&#45;&gt;Node21 -->
<g id="edge27" class="edge">
<title>Node5&#45;&gt;Node21</title>
<path fill="none" stroke="#191970" d="M1017.9912,-113.2305C1016.9026,-86.4497 1015.0016,-39.686 1014.1854,-19.6068"/>
<polygon fill="#191970" stroke="#191970" points="1014.4992,-113.4988 1018.4025,-123.3484 1021.4934,-113.2145 1014.4992,-113.4988"/>
</g>
<!-- Node22 -->
<g id="node23" class="node">
<title>Node22</title>
<g id="a_node23"><a xlink:href="test__lll_8cpp.html" target="_top" xlink:title="tests/test_lll.cpp">
<polygon fill="#ffffff" stroke="#000000" points="1079.2949,-.5 1079.2949,-19.5 1168.2949,-19.5 1168.2949,-.5 1079.2949,-.5"/>
<text text-anchor="middle" x="1123.7949" y="-7.5" font-family="Helvetica,sans-Serif" font-size="10.00" fill="#000000">tests/test_lll.cpp</text>
</a>
</g>
</g>
<!-- Node5&#45;&gt;Node22 -->
<g id="edge28" class="edge">
<title>Node5&#45;&gt;Node22</title>
<path fill="none" stroke="#191970" d="M1025.2988,-113.3319C1031.4935,-96.7275 1042.0636,-73.008 1056.7949,-56 1070.2818,-40.4288 1090.1774,-27.6567 1104.785,-19.5556"/>
<polygon fill="#191970" stroke="#191970" points="1021.8883,-112.479 1021.8601,-123.0738 1028.4892,-114.809 1021.8883,-112.479"/>
</g>
<!-- Node5&#45;&gt;Node23 -->
<g id="edge29" class="edge">
<title>Node5&#45;&gt;Node23</title>
<path fill="none" stroke="#191970" d="M1058.3026,-130.4754C1203.6403,-121.1723 1700.3892,-89.2282 1703.7949,-87 1727.746,-71.3296 1738.1784,-36.5051 1741.9656,-19.5903"/>
<polygon fill="#191970" stroke="#191970" points="1057.8209,-126.999 1048.0648,-131.1305 1058.268,-133.9847 1057.8209,-126.999"/>
</g>
<!-- Node24 -->
<g id="node25" class="node">
<title>Node24</title>
<g id="a_node25"><a xlink:href="test__nr_8cpp.html" target="_top" xlink:title="tests/test_nr.cpp">
<polygon fill="#ffffff" stroke="#000000" points="1459.7949,-62 1459.7949,-81 1549.7949,-81 1549.7949,-62 1459.7949,-62"/>
<text text-anchor="middle" x="1504.7949" y="-69" font-family="Helvetica,sans-Serif" font-size="10.00" fill="#000000">tests/test_nr.cpp</text>
</a>
</g>
</g>
<!-- Node5&#45;&gt;Node24 -->
<g id="edge30" class="edge">
<title>Node5&#45;&gt;Node24</title>
<path fill="none" stroke="#191970" d="M1057.9704,-131.1075C1134.2145,-126.9235 1307.6252,-114.9506 1450.7949,-87 1458.7403,-85.4488 1467.21,-83.2742 1475.0288,-81.0434"/>
<polygon fill="#191970" stroke="#191970" points="1057.6692,-127.6185 1047.8701,-131.6471 1058.0426,-134.6086 1057.6692,-127.6185"/>
</g>
<!-- Node25 -->
<g id="node26" class="node">
<title>Node25</title>
<g id="a_node26"><a xlink:href="test__pruner_8cpp.html" target="_top" xlink:title="tests/test_pruner.cpp">
<polygon fill="#ffffff" stroke="#000000" points="1568.2949,-62 1568.2949,-81 1677.2949,-81 1677.2949,-62 1568.2949,-62"/>
<text text-anchor="middle" x="1622.7949" y="-69" font-family="Helvetica,sans-Serif" font-size="10.00" fill="#000000">tests/test_pruner.cpp</text>
</a>
</g>
</g>
<!-- Node5&#45;&gt;Node25 -->
<g id="edge31" class="edge">
<title>Node5&#45;&gt;Node25</title>
<path fill="none" stroke="#191970" d="M1057.9573,-130.4445C1165.1996,-123.3222 1462.0665,-102.7386 1558.7949,-87 1568.2734,-85.4578 1578.4222,-83.2588 1587.781,-81.0001"/>
<polygon fill="#191970" stroke="#191970" points="1057.6362,-126.958 1047.8891,-131.1106 1058.0984,-133.9428 1057.6362,-126.958"/>
</g>
<!-- Node26 -->
<g id="node27" class="node">
<title>Node26</title>
<g id="a_node27"><a xlink:href="test__sieve_8cpp.html" target="_top" xlink:title="tests/test_sieve.cpp">
<polygon fill="#ffffff" stroke="#000000" points="1302.2949,-.5 1302.2949,-19.5 1407.2949,-19.5 1407.2949,-.5 1302.2949,-.5"/>
<text text-anchor="middle" x="1354.7949" y="-7.5" font-family="Helvetica,sans-Serif" font-size="10.00" fill="#000000">tests/test_sieve.cpp</text>
</a>
</g>
</g>
<!-- Node5&#45;&gt;Node26 -->
<g id="edge32" class="edge">
<title>Node5&#45;&gt;Node26</title>
<path fill="none" stroke="#191970" d="M1058.2237,-130.3706C1105.4973,-126.0583 1186.2946,-114.9514 1249.7949,-87 1254.9156,-84.746 1314.9268,-39.9168 1341.8565,-19.7193"/>
<polygon fill="#191970" stroke="#191970" points="1057.7604,-126.8974 1048.095,-131.2368 1058.3569,-133.8719 1057.7604,-126.8974"/>
</g>
<!-- Node27 -->
<g id="node28" class="node">
<title>Node27</title>
<g id="a_node28"><a xlink:href="test__svp_8cpp.html" target="_top" xlink:title="tests/test_svp.cpp">
<polygon fill="#ffffff" stroke="#000000" points="1425.7949,-.5 1425.7949,-19.5 1523.7949,-19.5 1523.7949,-.5 1425.7949,-.5"/>
<text text-anchor="middle" x="1474.7949" y="-7.5" font-family="Helvetica,sans-Serif" font-size="10.00" fill="#000000">tests/test_svp.cpp</text>
</a>
</g>
</g>
<!-- Node5&#45;&gt;Node27 -->
<g id="edge33" class="edge">
<title>Node5&#45;&gt;Node27</title>
<path fill="none" stroke="#191970" d="M1058.1336,-128.5404C1122.09,-120.9048 1245.5266,-104.454 1285.7949,-87 1306.7552,-77.9149 1306.4727,-66.4349 1326.7949,-56 1359.7067,-39.1006 1399.9601,-27.0845 1430.1739,-19.5812"/>
<polygon fill="#191970" stroke="#191970" points="1057.5509,-125.0848 1048.0298,-129.7323 1058.371,-132.0366 1057.5509,-125.0848"/>
</g>
<!-- Node28 -->
<g id="node29" class="node">
<title>Node28</title>
<g id="a_node29"><a xlink:href="test__svp__gram_8cpp.html" target="_top" xlink:title="tests/test_svp_gram.cpp">
<polygon fill="#ffffff" stroke="#000000" points="1542.2949,-.5 1542.2949,-19.5 1667.2949,-19.5 1667.2949,-.5 1542.2949,-.5"/>
<text text-anchor="middle" x="1604.7949" y="-7.5" font-family="Helvetica,sans-Serif" font-size="10.00" fill="#000000">tests/test_svp_gram.cpp</text>
</a>
</g>
</g>
<!-- Node5&#45;&gt;Node28 -->
<g id="edge34" class="edge">
<title>Node5&#45;&gt;Node28</title>
<path fill="none" stroke="#191970" d="M1057.8378,-130.488C1200.3139,-121.2992 1684.0893,-89.8983 1686.7949,-87 1696.1966,-76.9286 1693.7574,-67.8891 1686.7949,-56 1676.3189,-38.1114 1656.0561,-26.6506 1638.2951,-19.6426"/>
<polygon fill="#191970" stroke="#191970" points="1057.5496,-126.9992 1047.7955,-131.1353 1058,-133.9847 1057.5496,-126.9992"/>
</g>
<!-- Node29 -->
<g id="node30" class="node">
<title>Node29</title>
<g id="a_node30"><a xlink:href="test__utils_8h.html" target="_top" xlink:title="tests/test_utils.h">
<polygon fill="#ffffff" stroke="#000000" points="1152.2949,-62 1152.2949,-81 1241.2949,-81 1241.2949,-62 1152.2949,-62"/>
<text text-anchor="middle" x="1196.7949" y="-69" font-family="Helvetica,sans-Serif" font-size="10.00" fill="#000000">tests/test_utils.h</text>
</a>
</g>
</g>
<!-- Node5&#45;&gt;Node29 -->
<g id="edge35" class="edge">
<title>Node5&#45;&gt;Node29</title>
<path fill="none" stroke="#191970" d="M1056.129,-120.1009C1089.889,-108.4366 1138.8213,-91.5302 1169.1777,-81.0419"/>
<polygon fill="#191970" stroke="#191970" points="1054.9161,-116.8168 1046.6074,-123.3906 1057.2021,-123.433 1054.9161,-116.8168"/>
</g>
<!-- Node8 -->
<g id="node9" class="node">
<title>Node8</title>
<g id="a_node9"><a xlink:href="main_8cpp.html" target="_top" xlink:title="fplll/main.cpp">
<polygon fill="#ffffff" stroke="#000000" points="1819.7949,-.5 1819.7949,-19.5 1893.7949,-19.5 1893.7949,-.5 1819.7949,-.5"/>
<text text-anchor="middle" x="1856.7949" y="-7.5" font-family="Helvetica,sans-Serif" font-size="10.00" fill="#000000">fplll/main.cpp</text>
</a>
</g>
</g>
<!-- Node7&#45;&gt;Node8 -->
<g id="edge8" class="edge">
<title>Node7&#45;&gt;Node8</title>
<path fill="none" stroke="#191970" d="M1818.812,-54.0744C1828.3975,-42.9517 1840.4679,-28.9454 1848.3969,-19.7449"/>
<polygon fill="#191970" stroke="#191970" points="1815.953,-52.0306 1812.0761,-61.8906 1821.2557,-56.6003 1815.953,-52.0306"/>
</g>
<!-- Node10&#45;&gt;Node9 -->
<g id="edge11" class="edge">
<title>Node10&#45;&gt;Node9</title>
<path fill="none" stroke="#191970" d="M316.2147,-48.6669C325.1042,-38.7269 335.0527,-27.6026 341.9887,-19.8469"/>
<polygon fill="#191970" stroke="#191970" points="313.4477,-46.5106 309.3904,-56.2977 318.6655,-51.1769 313.4477,-46.5106"/>
</g>
<!-- Node11&#45;&gt;Node9 -->
<g id="edge13" class="edge">
<title>Node11&#45;&gt;Node9</title>
<path fill="none" stroke="#191970" d="M385.3751,-48.6669C376.4856,-38.7269 366.537,-27.6026 359.6011,-19.8469"/>
<polygon fill="#191970" stroke="#191970" points="382.9243,-51.1769 392.1994,-56.2977 388.1421,-46.5106 382.9243,-51.1769"/>
</g>
<!-- Node12&#45;&gt;Node9 -->
<g id="edge15" class="edge">
<title>Node12&#45;&gt;Node9</title>
<path fill="none" stroke="#191970" d="M465.7064,-52.8306C436.2066,-41.8353 400.1328,-28.3896 376.364,-19.5303"/>
<polygon fill="#191970" stroke="#191970" points="464.8386,-56.2424 475.4313,-56.4554 467.2835,-49.6832 464.8386,-56.2424"/>
</g>
<!-- Node13&#45;&gt;Node9 -->
<g id="edge17" class="edge">
<title>Node13&#45;&gt;Node9</title>
<path fill="none" stroke="#191970" d="M718.1012,-56.0615C717.999,-56.0409 717.8969,-56.0204 717.7949,-56 608.2318,-34.0917 478.0612,-20.7141 405.9118,-14.3919"/>
<polygon fill="#191970" stroke="#191970" points="717.2589,-59.4598 727.7776,-58.1922 718.7642,-52.6235 717.2589,-59.4598"/>
</g>
<!-- Node14&#45;&gt;Node9 -->
<g id="edge19" class="edge">
<title>Node14&#45;&gt;Node9</title>
<path fill="none" stroke="#191970" d="M131.7096,-55.8614C195.0803,-40.5141 257.7814,-27.7956 300.3319,-19.5294"/>
<polygon fill="#191970" stroke="#191970" points="130.8317,-52.4729 121.9476,-58.2455 132.4925,-59.273 130.8317,-52.4729"/>
</g>
<!-- Node15&#45;&gt;Node9 -->
<g id="edge21" class="edge">
<title>Node15&#45;&gt;Node9</title>
<path fill="none" stroke="#191970" d="M235.8834,-52.8306C265.3831,-41.8353 301.4569,-28.3896 325.2257,-19.5303"/>
<polygon fill="#191970" stroke="#191970" points="234.3063,-49.6832 226.1584,-56.4554 236.7511,-56.2424 234.3063,-49.6832"/>
</g>
<!-- Node29&#45;&gt;Node17 -->
<g id="edge36" class="edge">
<title>Node29&#45;&gt;Node17</title>
<path fill="none" stroke="#191970" d="M1157.6284,-59.275C1152.6699,-58.0184 1147.6377,-56.8819 1142.7949,-56 947.5811,-20.4523 894.6525,-44.882 697.7949,-20 694.855,-19.6284 691.837,-19.2127 688.7961,-18.7676"/>
<polygon fill="#191970" stroke="#191970" points="1157.0518,-62.7448 1167.6189,-61.9797 1158.8811,-55.9881 1157.0518,-62.7448"/>
</g>
<!-- Node29&#45;&gt;Node18 -->
<g id="edge37" class="edge">
<title>Node29&#45;&gt;Node18</title>
<path fill="none" stroke="#191970" d="M1157.0694,-59.3182C1152.2871,-58.0832 1147.4497,-56.9401 1142.7949,-56 1010.7301,-29.3283 975.4149,-37.2682 841.7949,-20 838.7911,-19.6118 835.7177,-19.2085 832.6141,-18.7964"/>
<polygon fill="#191970" stroke="#191970" points="1156.1639,-62.699 1166.7319,-61.9464 1158.0012,-55.9444 1156.1639,-62.699"/>
</g>
<!-- Node29&#45;&gt;Node19 -->
<g id="edge38" class="edge">
<title>Node29&#45;&gt;Node19</title>
<path fill="none" stroke="#191970" d="M1155.5855,-59.2477C1151.2808,-58.0949 1146.9583,-56.9894 1142.7949,-56 1106.7653,-47.4382 1008.9584,-29.5287 948.9878,-18.7565"/>
<polygon fill="#191970" stroke="#191970" points="1154.9435,-62.7014 1165.5144,-61.991 1156.8077,-55.9542 1154.9435,-62.7014"/>
</g>
<!-- Node29&#45;&gt;Node21 -->
<g id="edge40" class="edge">
<title>Node29&#45;&gt;Node21</title>
<path fill="none" stroke="#191970" d="M1158.4121,-58.6009C1123.7037,-46.9366 1073.3969,-30.0302 1042.1878,-19.5419"/>
<polygon fill="#191970" stroke="#191970" points="1157.6071,-62.0226 1168.2011,-61.8906 1159.8371,-55.3873 1157.6071,-62.0226"/>
</g>
<!-- Node29&#45;&gt;Node22 -->
<g id="edge41" class="edge">
<title>Node29&#45;&gt;Node22</title>
<path fill="none" stroke="#191970" d="M1177.6478,-55.3692C1164.221,-44.0576 1146.7112,-29.3062 1135.3619,-19.7449"/>
<polygon fill="#191970" stroke="#191970" points="1175.4858,-58.1243 1185.3886,-61.8906 1179.9959,-52.7709 1175.4858,-58.1243"/>
</g>
<!-- Node29&#45;&gt;Node23 -->
<g id="edge42" class="edge">
<title>Node29&#45;&gt;Node23</title>
<path fill="none" stroke="#191970" d="M1251.3223,-64.8033C1274.5704,-61.9988 1302.0005,-58.7567 1326.7949,-56 1481.774,-38.7688 1521.0658,-39.3483 1675.7949,-20 1678.9918,-19.6002 1682.2707,-19.1736 1685.5789,-18.7301"/>
<polygon fill="#191970" stroke="#191970" points="1250.8052,-61.3403 1241.2982,-66.0166 1251.6464,-68.2896 1250.8052,-61.3403"/>
</g>
<!-- Node29&#45;&gt;Node26 -->
<g id="edge43" class="edge">
<title>Node29&#45;&gt;Node26</title>
<path fill="none" stroke="#191970" d="M1231.0983,-58.1477C1261.0167,-46.5023 1303.6821,-29.8952 1330.2807,-19.5419"/>
<polygon fill="#191970" stroke="#191970" points="1229.5317,-55.0016 1221.4824,-61.8906 1232.0709,-61.5249 1229.5317,-55.0016"/>
</g>
<!-- Node29&#45;&gt;Node27 -->
<g id="edge44" class="edge">
<title>Node29&#45;&gt;Node27</title>
<path fill="none" stroke="#191970" d="M1249.772,-59.7802C1302.5252,-48.11 1382.5183,-30.4137 1431.5612,-19.5643"/>
<polygon fill="#191970" stroke="#191970" points="1248.9353,-56.3806 1239.9274,-61.9581 1250.4473,-63.2154 1248.9353,-56.3806"/>
</g>
<!-- Node29&#45;&gt;Node28 -->
<g id="edge45" class="edge">
<title>Node29&#45;&gt;Node28</title>
<path fill="none" stroke="#191970" d="M1251.8807,-63.1966C1327.4652,-51.8034 1462.9612,-31.3793 1542.2649,-19.4255"/>
<polygon fill="#191970" stroke="#191970" points="1250.9917,-59.791 1241.6251,-64.7425 1252.0351,-66.7128 1250.9917,-59.791"/>
</g>
<!-- Node30 -->
<g id="node31" class="node">
<title>Node30</title>
<g id="a_node31"><a xlink:href="test__gso_8cpp.html" target="_top" xlink:title="tests/test_gso.cpp">
<polygon fill="#ffffff" stroke="#000000" points="1185.7949,-.5 1185.7949,-19.5 1283.7949,-19.5 1283.7949,-.5 1185.7949,-.5"/>
<text text-anchor="middle" x="1234.7949" y="-7.5" font-family="Helvetica,sans-Serif" font-size="10.00" fill="#000000">tests/test_gso.cpp</text>
</a>
</g>
</g>
<!-- Node29&#45;&gt;Node30 -->
<g id="edge39" class="edge">
<title>Node29&#45;&gt;Node30</title>
<path fill="none" stroke="#191970" d="M1208.1728,-53.0857C1214.941,-42.132 1223.256,-28.6748 1228.7737,-19.7449"/>
<polygon fill="#191970" stroke="#191970" points="1205.0113,-51.5438 1202.7324,-61.8906 1210.9663,-55.2233 1205.0113,-51.5438"/>
</g>
</g>
</svg>
