<?xml version="1.0" encoding="UTF-8" standalone="no"?>
<!DOCTYPE svg PUBLIC "-//W3C//DTD SVG 1.1//EN"
 "http://www.w3.org/Graphics/SVG/1.1/DTD/svg11.dtd">
<!-- Generated by graphviz version 2.40.1 (20161225.0304)
 -->
<!-- Title: fplll/lll.h Pages: 1 -->
<svg width="2012pt" height="375pt"
 viewBox="0.00 0.00 2011.79 375.00" xmlns="http://www.w3.org/2000/svg" xmlns:xlink="http://www.w3.org/1999/xlink">
<g id="graph0" class="graph" transform="scale(1 1) rotate(0) translate(4 371)">
<title>fplll/lll.h</title>
<polygon fill="#ffffff" stroke="transparent" points="-4,4 -4,-371 2007.7949,-371 2007.7949,4 -4,4"/>
<!-- Node0 -->
<g id="node1" class="node">
<title>Node0</title>
<polygon fill="#bfbfbf" stroke="#000000" points="1784.7949,-347.5 1784.7949,-366.5 1834.7949,-366.5 1834.7949,-347.5 1784.7949,-347.5"/>
<text text-anchor="middle" x="1809.7949" y="-354.5" font-family="Helvetica,sans-Serif" font-size="10.00" fill="#000000">fplll/lll.h</text>
</g>
<!-- Node1 -->
<g id="node2" class="node">
<title>Node1</title>
<g id="a_node2"><a xlink:href="pruner_8h.html" target="_top" xlink:title="fplll/pruner/pruner.h">
<polygon fill="#ffffff" stroke="#000000" points="914.7949,-291.5 914.7949,-310.5 1014.7949,-310.5 1014.7949,-291.5 914.7949,-291.5"/>
<text text-anchor="middle" x="964.7949" y="-298.5" font-family="Helvetica,sans-Serif" font-size="10.00" fill="#000000">fplll/pruner/pruner.h</text>
</a>
</g>
</g>
<!-- Node0&#45;&gt;Node1 -->
<g id="edge1" class="edge">
<title>Node0&#45;&gt;Node1</title>
<path fill="none" stroke="#191970" d="M1774.4497,-354.6576C1641.3551,-345.8371 1170.0824,-314.6049 1014.8141,-304.3149"/>
<polygon fill="#191970" stroke="#191970" points="1774.2961,-358.155 1784.5057,-355.324 1774.7591,-351.1703 1774.2961,-358.155"/>
</g>
<!-- Node3 -->
<g id="node4" class="node">
<title>Node3</title>
<g id="a_node4"><a xlink:href="bkz_8h.html" target="_top" xlink:title="fplll/bkz.h">
<polygon fill="#ffffff" stroke="#000000" points="1130.2949,-179.5 1130.2949,-198.5 1189.2949,-198.5 1189.2949,-179.5 1130.2949,-179.5"/>
<text text-anchor="middle" x="1159.7949" y="-186.5" font-family="Helvetica,sans-Serif" font-size="10.00" fill="#000000">fplll/bkz.h</text>
</a>
</g>
</g>
<!-- Node0&#45;&gt;Node3 -->
<g id="edge49" class="edge">
<title>Node0&#45;&gt;Node3</title>
<path fill="none" stroke="#191970" d="M1774.6949,-347.928C1659.8069,-318.2339 1296.2647,-224.2722 1189.5309,-196.6856"/>
<polygon fill="#191970" stroke="#191970" points="1774.1547,-351.4033 1784.7124,-350.5171 1775.9064,-344.626 1774.1547,-351.4033"/>
</g>
<!-- Node23 -->
<g id="node24" class="node">
<title>Node23</title>
<g id="a_node24"><a xlink:href="test__lll__gram_8cpp.html" target="_top" xlink:title="tests/test_lll_gram.cpp">
<polygon fill="#ffffff" stroke="#000000" points="1604.7949,-.5 1604.7949,-19.5 1720.7949,-19.5 1720.7949,-.5 1604.7949,-.5"/>
<text text-anchor="middle" x="1662.7949" y="-7.5" font-family="Helvetica,sans-Serif" font-size="10.00" fill="#000000">tests/test_lll_gram.cpp</text>
</a>
</g>
</g>
<!-- Node0&#45;&gt;Node23 -->
<g id="edge52" class="edge">
<title>Node0&#45;&gt;Node23</title>
<path fill="none" stroke="#191970" d="M1809.7949,-337.1952C1809.7949,-314.8128 1809.7949,-277.2884 1809.7949,-245 1809.7949,-245 1809.7949,-245 1809.7949,-133 1809.7949,-97.7513 1814.4023,-82.1755 1790.7949,-56 1772.8449,-36.0973 1745.6508,-24.8006 1720.938,-18.391"/>
<polygon fill="#191970" stroke="#191970" points="1806.295,-337.4116 1809.7949,-347.4116 1813.295,-337.4117 1806.295,-337.4116"/>
</g>
<!-- Node31 -->
<g id="node32" class="node">
<title>Node31</title>
<g id="a_node32"><a xlink:href="lll_8cpp.html" target="_top" xlink:title="fplll/lll.cpp">
<polygon fill="#ffffff" stroke="#000000" points="1837.7949,-291.5 1837.7949,-310.5 1897.7949,-310.5 1897.7949,-291.5 1837.7949,-291.5"/>
<text text-anchor="middle" x="1867.7949" y="-298.5" font-family="Helvetica,sans-Serif" font-size="10.00" fill="#000000">fplll/lll.cpp</text>
</a>
</g>
</g>
<!-- Node0&#45;&gt;Node31 -->
<g id="edge50" class="edge">
<title>Node0&#45;&gt;Node31</title>
<path fill="none" stroke="#191970" d="M1827.3242,-340.0751C1837.3032,-330.4402 1849.4425,-318.7196 1857.8078,-310.6427"/>
<polygon fill="#191970" stroke="#191970" points="1824.6607,-337.7817 1819.8977,-347.2455 1829.5228,-342.8175 1824.6607,-337.7817"/>
</g>
<!-- Node32 -->
<g id="node33" class="node">
<title>Node32</title>
<g id="a_node33"><a xlink:href="wrapper_8cpp.html" target="_top" xlink:title="fplll/wrapper.cpp">
<polygon fill="#ffffff" stroke="#000000" points="1915.7949,-291.5 1915.7949,-310.5 2003.7949,-310.5 2003.7949,-291.5 1915.7949,-291.5"/>
<text text-anchor="middle" x="1959.7949" y="-298.5" font-family="Helvetica,sans-Serif" font-size="10.00" fill="#000000">fplll/wrapper.cpp</text>
</a>
</g>
</g>
<!-- Node0&#45;&gt;Node32 -->
<g id="edge51" class="edge">
<title>Node0&#45;&gt;Node32</title>
<path fill="none" stroke="#191970" d="M1844.4784,-344.0515C1871.8395,-333.8367 1909.3868,-319.819 1934.1036,-310.5914"/>
<polygon fill="#191970" stroke="#191970" points="1843.0458,-340.8503 1834.9015,-347.6269 1845.4941,-347.4082 1843.0458,-340.8503"/>
</g>
<!-- Node2 -->
<g id="node3" class="node">
<title>Node2</title>
<g id="a_node3"><a xlink:href="bkz__param_8h.html" target="_top" xlink:title="fplll/bkz_param.h">
<polygon fill="#ffffff" stroke="#000000" points="977.2949,-235.5 977.2949,-254.5 1068.2949,-254.5 1068.2949,-235.5 977.2949,-235.5"/>
<text text-anchor="middle" x="1022.7949" y="-242.5" font-family="Helvetica,sans-Serif" font-size="10.00" fill="#000000">fplll/bkz_param.h</text>
</a>
</g>
</g>
<!-- Node1&#45;&gt;Node2 -->
<g id="edge2" class="edge">
<title>Node1&#45;&gt;Node2</title>
<path fill="none" stroke="#191970" d="M982.3242,-284.0751C992.3032,-274.4402 1004.4425,-262.7196 1012.8078,-254.6427"/>
<polygon fill="#191970" stroke="#191970" points="979.6607,-281.7817 974.8977,-291.2455 984.5228,-286.8175 979.6607,-281.7817"/>
</g>
<!-- Node5 -->
<g id="node6" class="node">
<title>Node5</title>
<g id="a_node6"><a xlink:href="fplll_8h.html" target="_top" xlink:title="fplll/fplll.h">
<polygon fill="#ffffff" stroke="#000000" points="895.7949,-123.5 895.7949,-142.5 953.7949,-142.5 953.7949,-123.5 895.7949,-123.5"/>
<text text-anchor="middle" x="924.7949" y="-130.5" font-family="Helvetica,sans-Serif" font-size="10.00" fill="#000000">fplll/fplll.h</text>
</a>
</g>
</g>
<!-- Node1&#45;&gt;Node5 -->
<g id="edge47" class="edge">
<title>Node1&#45;&gt;Node5</title>
<path fill="none" stroke="#191970" d="M960.206,-281.7267C951.6569,-245.8207 933.5764,-169.8822 927.1349,-142.8279"/>
<polygon fill="#191970" stroke="#191970" points="956.8086,-282.5689 962.5297,-291.4862 963.6182,-280.9475 956.8086,-282.5689"/>
</g>
<!-- Node9 -->
<g id="node10" class="node">
<title>Node9</title>
<g id="a_node10"><a xlink:href="pruner_8cpp.html" target="_top" xlink:title="fplll/pruner/pruner.cpp">
<polygon fill="#ffffff" stroke="#000000" points="295.7949,-.5 295.7949,-19.5 405.7949,-19.5 405.7949,-.5 295.7949,-.5"/>
<text text-anchor="middle" x="350.7949" y="-7.5" font-family="Helvetica,sans-Serif" font-size="10.00" fill="#000000">fplll/pruner/pruner.cpp</text>
</a>
</g>
</g>
<!-- Node1&#45;&gt;Node9 -->
<g id="edge48" class="edge">
<title>Node1&#45;&gt;Node9</title>
<path fill="none" stroke="#191970" d="M904.4449,-300.3499C693.4902,-297.2896 1.7949,-280.2947 1.7949,-189 1.7949,-189 1.7949,-189 1.7949,-133 1.7949,-97.7513 -5.3846,-79.603 20.7949,-56 40.8261,-37.9402 206.8138,-21.7803 295.4635,-14.337"/>
<polygon fill="#191970" stroke="#191970" points="904.6642,-303.8532 914.7122,-300.4932 904.762,-296.8539 904.6642,-303.8532"/>
</g>
<!-- Node2&#45;&gt;Node3 -->
<g id="edge3" class="edge">
<title>Node2&#45;&gt;Node3</title>
<path fill="none" stroke="#191970" d="M1055.7755,-231.5189C1080.726,-221.3201 1114.3683,-207.5685 1136.5511,-198.5011"/>
<polygon fill="#191970" stroke="#191970" points="1054.2783,-228.3497 1046.346,-235.3733 1056.9269,-234.8293 1054.2783,-228.3497"/>
</g>
<!-- Node4 -->
<g id="node5" class="node">
<title>Node4</title>
<g id="a_node5"><a xlink:href="bkz_8cpp.html" target="_top" xlink:title="fplll/bkz.cpp">
<polygon fill="#ffffff" stroke="#000000" points="1096.2949,-123.5 1096.2949,-142.5 1165.2949,-142.5 1165.2949,-123.5 1096.2949,-123.5"/>
<text text-anchor="middle" x="1130.7949" y="-130.5" font-family="Helvetica,sans-Serif" font-size="10.00" fill="#000000">fplll/bkz.cpp</text>
</a>
</g>
</g>
<!-- Node2&#45;&gt;Node4 -->
<g id="edge44" class="edge">
<title>Node2&#45;&gt;Node4</title>
<path fill="none" stroke="#191970" d="M1045.5156,-229.5209C1057.004,-221.157 1070.8025,-210.2547 1081.7949,-199 1099.5441,-180.8273 1116.3003,-156.0177 1124.8634,-142.5864"/>
<polygon fill="#191970" stroke="#191970" points="1043.388,-226.7391 1037.2654,-235.3858 1047.4438,-232.4444 1043.388,-226.7391"/>
</g>
<!-- Node2&#45;&gt;Node5 -->
<g id="edge46" class="edge">
<title>Node2&#45;&gt;Node5</title>
<path fill="none" stroke="#191970" d="M998.6371,-229.7805C986.8999,-221.6092 973.135,-210.7999 962.7949,-199 947.2842,-181.2995 934.9716,-156.3054 928.9085,-142.7179"/>
<polygon fill="#191970" stroke="#191970" points="996.8753,-232.8134 1007.1271,-235.4876 1000.7805,-227.004 996.8753,-232.8134"/>
</g>
<!-- Node30 -->
<g id="node31" class="node">
<title>Node30</title>
<g id="a_node31"><a xlink:href="bkz__param_8cpp.html" target="_top" xlink:title="fplll/bkz_param.cpp">
<polygon fill="#ffffff" stroke="#000000" points="972.2949,-179.5 972.2949,-198.5 1073.2949,-198.5 1073.2949,-179.5 972.2949,-179.5"/>
<text text-anchor="middle" x="1022.7949" y="-186.5" font-family="Helvetica,sans-Serif" font-size="10.00" fill="#000000">fplll/bkz_param.cpp</text>
</a>
</g>
</g>
<!-- Node2&#45;&gt;Node30 -->
<g id="edge45" class="edge">
<title>Node2&#45;&gt;Node30</title>
<path fill="none" stroke="#191970" d="M1022.7949,-225.1575C1022.7949,-216.155 1022.7949,-205.9199 1022.7949,-198.6427"/>
<polygon fill="#191970" stroke="#191970" points="1019.295,-225.2455 1022.7949,-235.2455 1026.295,-225.2456 1019.295,-225.2455"/>
</g>
<!-- Node3&#45;&gt;Node4 -->
<g id="edge4" class="edge">
<title>Node3&#45;&gt;Node4</title>
<path fill="none" stroke="#191970" d="M1150.1302,-170.3372C1145.3262,-161.0605 1139.7226,-150.2398 1135.7884,-142.6427"/>
<polygon fill="#191970" stroke="#191970" points="1147.0369,-171.9751 1154.7435,-179.2455 1153.2529,-168.7561 1147.0369,-171.9751"/>
</g>
<!-- Node3&#45;&gt;Node5 -->
<g id="edge5" class="edge">
<title>Node3&#45;&gt;Node5</title>
<path fill="none" stroke="#191970" d="M1120.1951,-179.5634C1073.1659,-168.3565 995.8348,-149.9287 953.9477,-139.9471"/>
<polygon fill="#191970" stroke="#191970" points="1119.493,-182.9941 1130.032,-181.9076 1121.1157,-176.1847 1119.493,-182.9941"/>
</g>
<!-- Node6 -->
<g id="node7" class="node">
<title>Node6</title>
<g id="a_node7"><a xlink:href="fplll_8cpp.html" target="_top" xlink:title="fplll/fplll.cpp">
<polygon fill="#ffffff" stroke="#000000" points="987.7949,-62 987.7949,-81 1055.7949,-81 1055.7949,-62 987.7949,-62"/>
<text text-anchor="middle" x="1021.7949" y="-69" font-family="Helvetica,sans-Serif" font-size="10.00" fill="#000000">fplll/fplll.cpp</text>
</a>
</g>
</g>
<!-- Node5&#45;&gt;Node6 -->
<g id="edge6" class="edge">
<title>Node5&#45;&gt;Node6</title>
<path fill="none" stroke="#191970" d="M948.7909,-117.786C966.9285,-106.2864 991.2675,-90.855 1006.7451,-81.0419"/>
<polygon fill="#191970" stroke="#191970" points="946.5226,-115.08 939.9511,-123.3906 950.2709,-120.9919 946.5226,-115.08"/>
</g>
<!-- Node7 -->
<g id="node8" class="node">
<title>Node7</title>
<g id="a_node8"><a xlink:href="main_8h.html" target="_top" xlink:title="fplll/main.h">
<polygon fill="#ffffff" stroke="#000000" points="1717.7949,-62 1717.7949,-81 1781.7949,-81 1781.7949,-62 1717.7949,-62"/>
<text text-anchor="middle" x="1749.7949" y="-69" font-family="Helvetica,sans-Serif" font-size="10.00" fill="#000000">fplll/main.h</text>
</a>
</g>
</g>
<!-- Node5&#45;&gt;Node7 -->
<g id="edge7" class="edge">
<title>Node5&#45;&gt;Node7</title>
<path fill="none" stroke="#191970" d="M964.1499,-130.5335C996.9541,-128.4865 1044.9162,-125.5143 1086.7949,-123 1360.9898,-106.538 1434.1352,-139.3209 1703.7949,-87 1710.9097,-85.6195 1718.4355,-83.4174 1725.2933,-81.1013"/>
<polygon fill="#191970" stroke="#191970" points="963.8211,-127.0471 954.0588,-131.1638 964.2576,-134.0335 963.8211,-127.0471"/>
</g>
<!-- Node5&#45;&gt;Node9 -->
<g id="edge9" class="edge">
<title>Node5&#45;&gt;Node9</title>
<path fill="none" stroke="#191970" d="M885.4359,-129.9053C812.1344,-123.7116 657.7066,-108.5163 608.7949,-87 588.844,-78.2236 590.4662,-65.3863 570.7949,-56 518.1458,-30.8781 451.9609,-19.41 406.0049,-14.2161"/>
<polygon fill="#191970" stroke="#191970" points="885.3845,-133.413 895.6401,-130.7535 885.9644,-126.4371 885.3845,-133.413"/>
</g>
<!-- Node10 -->
<g id="node11" class="node">
<title>Node10</title>
<g id="a_node11"><a xlink:href="pruner__cost_8cpp.html" target="_top" xlink:title="fplll/pruner/pruner\l_cost.cpp">
<polygon fill="#ffffff" stroke="#000000" points="359.7949,-56.5 359.7949,-86.5 451.7949,-86.5 451.7949,-56.5 359.7949,-56.5"/>
<text text-anchor="start" x="367.7949" y="-74.5" font-family="Helvetica,sans-Serif" font-size="10.00" fill="#000000">fplll/pruner/pruner</text>
<text text-anchor="middle" x="405.7949" y="-63.5" font-family="Helvetica,sans-Serif" font-size="10.00" fill="#000000">_cost.cpp</text>
</a>
</g>
</g>
<!-- Node5&#45;&gt;Node10 -->
<g id="edge10" class="edge">
<title>Node5&#45;&gt;Node10</title>
<path fill="none" stroke="#191970" d="M885.6171,-131.4424C805.3091,-127.7401 616.4706,-116.4159 460.7949,-87 457.8705,-86.4474 454.8762,-85.8115 451.8685,-85.1193"/>
<polygon fill="#191970" stroke="#191970" points="885.6187,-134.9458 895.765,-131.8959 885.9312,-127.9528 885.6187,-134.9458"/>
</g>
<!-- Node11 -->
<g id="node12" class="node">
<title>Node11</title>
<g id="a_node12"><a xlink:href="pruner__optimize_8cpp.html" target="_top" xlink:title="fplll/pruner/pruner\l_optimize.cpp">
<polygon fill="#ffffff" stroke="#000000" points="469.7949,-56.5 469.7949,-86.5 561.7949,-86.5 561.7949,-56.5 469.7949,-56.5"/>
<text text-anchor="start" x="477.7949" y="-74.5" font-family="Helvetica,sans-Serif" font-size="10.00" fill="#000000">fplll/pruner/pruner</text>
<text text-anchor="middle" x="515.7949" y="-63.5" font-family="Helvetica,sans-Serif" font-size="10.00" fill="#000000">_optimize.cpp</text>
</a>
</g>
</g>
<!-- Node5&#45;&gt;Node11 -->
<g id="edge12" class="edge">
<title>Node5&#45;&gt;Node11</title>
<path fill="none" stroke="#191970" d="M885.4604,-129.3924C820.57,-123.0889 687.1788,-108.6441 575.7949,-87 571.2536,-86.1175 566.5451,-85.0942 561.8537,-84.0023"/>
<polygon fill="#191970" stroke="#191970" points="885.3568,-132.8984 895.6453,-130.3693 886.0252,-125.9304 885.3568,-132.8984"/>
</g>
<!-- Node12 -->
<g id="node13" class="node">
<title>Node12</title>
<g id="a_node13"><a xlink:href="pruner__optimize__tc_8cpp.html" target="_top" xlink:title="fplll/pruner/pruner\l_optimize_tc.cpp">
<polygon fill="#ffffff" stroke="#000000" points="617.7949,-56.5 617.7949,-86.5 709.7949,-86.5 709.7949,-56.5 617.7949,-56.5"/>
<text text-anchor="start" x="625.7949" y="-74.5" font-family="Helvetica,sans-Serif" font-size="10.00" fill="#000000">fplll/pruner/pruner</text>
<text text-anchor="middle" x="663.7949" y="-63.5" font-family="Helvetica,sans-Serif" font-size="10.00" fill="#000000">_optimize_tc.cpp</text>
</a>
</g>
</g>
<!-- Node5&#45;&gt;Node12 -->
<g id="edge14" class="edge">
<title>Node5&#45;&gt;Node12</title>
<path fill="none" stroke="#191970" d="M885.7704,-124.4066C845.2168,-115.3974 779.9481,-100.6758 723.7949,-87 719.3001,-85.9053 714.6224,-84.7411 709.9501,-83.5615"/>
<polygon fill="#191970" stroke="#191970" points="885.2562,-127.8775 895.7767,-126.625 886.7714,-121.0434 885.2562,-127.8775"/>
</g>
<!-- Node13 -->
<g id="node14" class="node">
<title>Node13</title>
<g id="a_node14"><a xlink:href="pruner__optimize__tp_8cpp.html" target="_top" xlink:title="fplll/pruner/pruner\l_optimize_tp.cpp">
<polygon fill="#ffffff" stroke="#000000" points="29.7949,-56.5 29.7949,-86.5 121.7949,-86.5 121.7949,-56.5 29.7949,-56.5"/>
<text text-anchor="start" x="37.7949" y="-74.5" font-family="Helvetica,sans-Serif" font-size="10.00" fill="#000000">fplll/pruner/pruner</text>
<text text-anchor="middle" x="75.7949" y="-63.5" font-family="Helvetica,sans-Serif" font-size="10.00" fill="#000000">_optimize_tp.cpp</text>
</a>
</g>
</g>
<!-- Node5&#45;&gt;Node13 -->
<g id="edge16" class="edge">
<title>Node5&#45;&gt;Node13</title>
<path fill="none" stroke="#191970" d="M885.5948,-131.8545C746.7242,-127.621 278.6077,-111.8076 130.7949,-87 127.8598,-86.5074 124.8573,-85.9174 121.8435,-85.2596"/>
<polygon fill="#191970" stroke="#191970" points="885.6654,-135.3582 895.7665,-132.1618 885.8768,-128.3613 885.6654,-135.3582"/>
</g>
<!-- Node14 -->
<g id="node15" class="node">
<title>Node14</title>
<g id="a_node15"><a xlink:href="pruner__prob_8cpp.html" target="_top" xlink:title="fplll/pruner/pruner\l_prob.cpp">
<polygon fill="#ffffff" stroke="#000000" points="139.7949,-56.5 139.7949,-86.5 231.7949,-86.5 231.7949,-56.5 139.7949,-56.5"/>
<text text-anchor="start" x="147.7949" y="-74.5" font-family="Helvetica,sans-Serif" font-size="10.00" fill="#000000">fplll/pruner/pruner</text>
<text text-anchor="middle" x="185.7949" y="-63.5" font-family="Helvetica,sans-Serif" font-size="10.00" fill="#000000">_prob.cpp</text>
</a>
</g>
</g>
<!-- Node5&#45;&gt;Node14 -->
<g id="edge18" class="edge">
<title>Node5&#45;&gt;Node14</title>
<path fill="none" stroke="#191970" d="M885.3295,-131.4241C759.0983,-126.214 366.1535,-108.6377 240.7949,-87 237.8621,-86.4938 234.8614,-85.8933 231.8489,-85.2277"/>
<polygon fill="#191970" stroke="#191970" points="885.5389,-134.9355 895.6739,-131.8479 885.8256,-127.9414 885.5389,-134.9355"/>
</g>
<!-- Node15 -->
<g id="node16" class="node">
<title>Node15</title>
<g id="a_node16"><a xlink:href="pruner__util_8cpp.html" target="_top" xlink:title="fplll/pruner/pruner\l_util.cpp">
<polygon fill="#ffffff" stroke="#000000" points="249.7949,-56.5 249.7949,-86.5 341.7949,-86.5 341.7949,-56.5 249.7949,-56.5"/>
<text text-anchor="start" x="257.7949" y="-74.5" font-family="Helvetica,sans-Serif" font-size="10.00" fill="#000000">fplll/pruner/pruner</text>
<text text-anchor="middle" x="295.7949" y="-63.5" font-family="Helvetica,sans-Serif" font-size="10.00" fill="#000000">_util.cpp</text>
</a>
</g>
</g>
<!-- Node5&#45;&gt;Node15 -->
<g id="edge20" class="edge">
<title>Node5&#45;&gt;Node15</title>
<path fill="none" stroke="#191970" d="M885.4366,-132.4775C791.9568,-130.6665 549.5388,-122.6176 350.7949,-87 347.8654,-86.475 344.8672,-85.8602 341.8566,-85.1838"/>
<polygon fill="#191970" stroke="#191970" points="885.5083,-135.9793 895.5699,-132.6603 885.6347,-128.9804 885.5083,-135.9793"/>
</g>
<!-- Node16 -->
<g id="node17" class="node">
<title>Node16</title>
<g id="a_node17"><a xlink:href="test__bkz_8cpp.html" target="_top" xlink:title="tests/test_bkz.cpp">
<polygon fill="#ffffff" stroke="#000000" points="504.7949,-.5 504.7949,-19.5 602.7949,-19.5 602.7949,-.5 504.7949,-.5"/>
<text text-anchor="middle" x="553.7949" y="-7.5" font-family="Helvetica,sans-Serif" font-size="10.00" fill="#000000">tests/test_bkz.cpp</text>
</a>
</g>
</g>
<!-- Node5&#45;&gt;Node16 -->
<g id="edge22" class="edge">
<title>Node5&#45;&gt;Node16</title>
<path fill="none" stroke="#191970" d="M885.8765,-124.0219C854.4034,-116.1208 809.3141,-103.3361 771.7949,-87 746.7746,-76.106 743.9237,-66.6411 718.7949,-56 680.0463,-39.5915 633.723,-27.2684 600.037,-19.5274"/>
<polygon fill="#191970" stroke="#191970" points="885.0429,-127.4211 895.5898,-126.4139 886.7168,-120.6242 885.0429,-127.4211"/>
</g>
<!-- Node17 -->
<g id="node18" class="node">
<title>Node17</title>
<g id="a_node18"><a xlink:href="test__bkz__gram_8cpp.html" target="_top" xlink:title="tests/test_bkz_gram.cpp">
<polygon fill="#ffffff" stroke="#000000" points="621.2949,-.5 621.2949,-19.5 746.2949,-19.5 746.2949,-.5 621.2949,-.5"/>
<text text-anchor="middle" x="683.7949" y="-7.5" font-family="Helvetica,sans-Serif" font-size="10.00" fill="#000000">tests/test_bkz_gram.cpp</text>
</a>
</g>
</g>
<!-- Node5&#45;&gt;Node17 -->
<g id="edge23" class="edge">
<title>Node5&#45;&gt;Node17</title>
<path fill="none" stroke="#191970" d="M896.671,-118.6463C846.9429,-93.2664 744.7703,-41.1202 702.6179,-19.6068"/>
<polygon fill="#191970" stroke="#191970" points="895.3859,-121.9199 905.884,-123.3484 898.5681,-115.685 895.3859,-121.9199"/>
</g>
<!-- Node18 -->
<g id="node19" class="node">
<title>Node18</title>
<g id="a_node19"><a xlink:href="test__counter_8cpp.html" target="_top" xlink:title="tests/test_counter.cpp">
<polygon fill="#ffffff" stroke="#000000" points="1111.7949,-62 1111.7949,-81 1225.7949,-81 1225.7949,-62 1111.7949,-62"/>
<text text-anchor="middle" x="1168.7949" y="-69" font-family="Helvetica,sans-Serif" font-size="10.00" fill="#000000">tests/test_counter.cpp</text>
</a>
</g>
</g>
<!-- Node5&#45;&gt;Node18 -->
<g id="edge24" class="edge">
<title>Node5&#45;&gt;Node18</title>
<path fill="none" stroke="#191970" d="M964.1164,-123.089C1010.0506,-111.5114 1085.5171,-92.4901 1130.8509,-81.0638"/>
<polygon fill="#191970" stroke="#191970" points="963.0683,-119.7437 954.227,-125.5817 964.7792,-126.5314 963.0683,-119.7437"/>
</g>
<!-- Node19 -->
<g id="node20" class="node">
<title>Node19</title>
<g id="a_node20"><a xlink:href="test__cvp_8cpp.html" target="_top" xlink:title="tests/test_cvp.cpp">
<polygon fill="#ffffff" stroke="#000000" points="764.7949,-.5 764.7949,-19.5 862.7949,-19.5 862.7949,-.5 764.7949,-.5"/>
<text text-anchor="middle" x="813.7949" y="-7.5" font-family="Helvetica,sans-Serif" font-size="10.00" fill="#000000">tests/test_cvp.cpp</text>
</a>
</g>
</g>
<!-- Node5&#45;&gt;Node19 -->
<g id="edge25" class="edge">
<title>Node5&#45;&gt;Node19</title>
<path fill="none" stroke="#191970" d="M900.3834,-117.9579C888.2291,-109.7427 873.8176,-98.8415 862.7949,-87 842.93,-65.6595 826.3074,-35.2176 818.5285,-19.7822"/>
<polygon fill="#191970" stroke="#191970" points="898.4708,-120.8891 908.7539,-123.4402 902.3061,-115.0333 898.4708,-120.8891"/>
</g>
<!-- Node20 -->
<g id="node21" class="node">
<title>Node20</title>
<g id="a_node21"><a xlink:href="test__enum_8cpp.html" target="_top" xlink:title="tests/test_enum.cpp">
<polygon fill="#ffffff" stroke="#000000" points="1243.7949,-62 1243.7949,-81 1349.7949,-81 1349.7949,-62 1243.7949,-62"/>
<text text-anchor="middle" x="1296.7949" y="-69" font-family="Helvetica,sans-Serif" font-size="10.00" fill="#000000">tests/test_enum.cpp</text>
</a>
</g>
</g>
<!-- Node5&#45;&gt;Node20 -->
<g id="edge26" class="edge">
<title>Node5&#45;&gt;Node20</title>
<path fill="none" stroke="#191970" d="M964.0332,-128.4256C1023.0726,-121.2616 1138.1367,-106.206 1234.7949,-87 1243.392,-85.2918 1252.5873,-83.1617 1261.193,-81.033"/>
<polygon fill="#191970" stroke="#191970" points="963.5313,-124.9606 954.0208,-129.6298 964.3672,-131.9106 963.5313,-124.9606"/>
</g>
<!-- Node21 -->
<g id="node22" class="node">
<title>Node21</title>
<g id="a_node22"><a xlink:href="test__hlll_8cpp.html" target="_top" xlink:title="tests/test_hlll.cpp">
<polygon fill="#ffffff" stroke="#000000" points="880.7949,-.5 880.7949,-19.5 974.7949,-19.5 974.7949,-.5 880.7949,-.5"/>
<text text-anchor="middle" x="927.7949" y="-7.5" font-family="Helvetica,sans-Serif" font-size="10.00" fill="#000000">tests/test_hlll.cpp</text>
</a>
</g>
</g>
<!-- Node5&#45;&gt;Node21 -->
<g id="edge27" class="edge">
<title>Node5&#45;&gt;Node21</title>
<path fill="none" stroke="#191970" d="M898.4854,-117.7686C887.8018,-110.0472 876.6208,-99.616 870.7949,-87 865.0186,-74.4915 864.853,-68.4307 870.7949,-56 878.5823,-39.7083 895.2682,-27.337 908.5849,-19.5495"/>
<polygon fill="#191970" stroke="#191970" points="896.5806,-120.7054 906.8349,-123.3701 900.4805,-114.8924 896.5806,-120.7054"/>
</g>
<!-- Node22 -->
<g id="node23" class="node">
<title>Node22</title>
<g id="a_node23"><a xlink:href="test__lll_8cpp.html" target="_top" xlink:title="tests/test_lll.cpp">
<polygon fill="#ffffff" stroke="#000000" points="1109.2949,-.5 1109.2949,-19.5 1198.2949,-19.5 1198.2949,-.5 1109.2949,-.5"/>
<text text-anchor="middle" x="1153.7949" y="-7.5" font-family="Helvetica,sans-Serif" font-size="10.00" fill="#000000">tests/test_lll.cpp</text>
</a>
</g>
</g>
<!-- Node5&#45;&gt;Node22 -->
<g id="edge28" class="edge">
<title>Node5&#45;&gt;Node22</title>
<path fill="none" stroke="#191970" d="M963.8631,-124.5827C992.9383,-117.2921 1032.9336,-105.0462 1064.7949,-87 1073.5505,-82.0408 1121.5346,-39.1164 1143.1871,-19.5943"/>
<polygon fill="#191970" stroke="#191970" points="962.9603,-121.2001 954.0655,-126.9562 964.6084,-128.0033 962.9603,-121.2001"/>
</g>
<!-- Node5&#45;&gt;Node23 -->
<g id="edge29" class="edge">
<title>Node5&#45;&gt;Node23</title>
<path fill="none" stroke="#191970" d="M964.4082,-130.5479C1112.5067,-121.3637 1625.3595,-89.4016 1628.7949,-87 1651.5507,-71.0916 1659.257,-36.3824 1661.718,-19.5428"/>
<polygon fill="#191970" stroke="#191970" points="963.7529,-127.0817 953.9886,-131.1938 964.1861,-134.0683 963.7529,-127.0817"/>
</g>
<!-- Node24 -->
<g id="node25" class="node">
<title>Node24</title>
<g id="a_node25"><a xlink:href="test__nr_8cpp.html" target="_top" xlink:title="tests/test_nr.cpp">
<polygon fill="#ffffff" stroke="#000000" points="1367.7949,-62 1367.7949,-81 1457.7949,-81 1457.7949,-62 1367.7949,-62"/>
<text text-anchor="middle" x="1412.7949" y="-69" font-family="Helvetica,sans-Serif" font-size="10.00" fill="#000000">tests/test_nr.cpp</text>
</a>
</g>
</g>
<!-- Node5&#45;&gt;Node24 -->
<g id="edge30" class="edge">
<title>Node5&#45;&gt;Node24</title>
<path fill="none" stroke="#191970" d="M964.1519,-131.1242C1040.7492,-126.969 1214.963,-115.0436 1358.7949,-87 1366.7407,-85.4508 1375.2105,-83.2768 1383.0293,-81.046"/>
<polygon fill="#191970" stroke="#191970" points="963.8064,-127.6375 954.0048,-131.6598 964.1755,-134.6277 963.8064,-127.6375"/>
</g>
<!-- Node25 -->
<g id="node26" class="node">
<title>Node25</title>
<g id="a_node26"><a xlink:href="test__pruner_8cpp.html" target="_top" xlink:title="tests/test_pruner.cpp">
<polygon fill="#ffffff" stroke="#000000" points="1476.2949,-62 1476.2949,-81 1585.2949,-81 1585.2949,-62 1476.2949,-62"/>
<text text-anchor="middle" x="1530.7949" y="-69" font-family="Helvetica,sans-Serif" font-size="10.00" fill="#000000">tests/test_pruner.cpp</text>
</a>
</g>
</g>
<!-- Node5&#45;&gt;Node25 -->
<g id="edge31" class="edge">
<title>Node5&#45;&gt;Node25</title>
<path fill="none" stroke="#191970" d="M964.1024,-130.449C1071.7418,-123.3381 1369.7083,-102.7814 1466.7949,-87 1476.2736,-85.4592 1486.4226,-83.2608 1495.7814,-81.0021"/>
<polygon fill="#191970" stroke="#191970" points="963.7455,-126.9648 953.9969,-131.114 964.2052,-133.9497 963.7455,-126.9648"/>
</g>
<!-- Node26 -->
<g id="node27" class="node">
<title>Node26</title>
<g id="a_node27"><a xlink:href="test__svp_8cpp.html" target="_top" xlink:title="tests/test_svp.cpp">
<polygon fill="#ffffff" stroke="#000000" points="1267.7949,-.5 1267.7949,-19.5 1365.7949,-19.5 1365.7949,-.5 1267.7949,-.5"/>
<text text-anchor="middle" x="1316.7949" y="-7.5" font-family="Helvetica,sans-Serif" font-size="10.00" fill="#000000">tests/test_svp.cpp</text>
</a>
</g>
</g>
<!-- Node5&#45;&gt;Node26 -->
<g id="edge32" class="edge">
<title>Node5&#45;&gt;Node26</title>
<path fill="none" stroke="#191970" d="M963.9547,-130.4885C1106.8573,-121.3017 1592.0809,-89.9067 1594.7949,-87 1604.1977,-76.9295 1603.7066,-66.5075 1594.7949,-56 1580.18,-38.7681 1441.8712,-22.4502 1366.0151,-14.7019"/>
<polygon fill="#191970" stroke="#191970" points="963.6373,-127.0016 953.8823,-131.1357 964.0862,-133.9872 963.6373,-127.0016"/>
</g>
<!-- Node27 -->
<g id="node28" class="node">
<title>Node27</title>
<g id="a_node28"><a xlink:href="test__svp__gram_8cpp.html" target="_top" xlink:title="tests/test_svp_gram.cpp">
<polygon fill="#ffffff" stroke="#000000" points="1435.2949,-.5 1435.2949,-19.5 1560.2949,-19.5 1560.2949,-.5 1435.2949,-.5"/>
<text text-anchor="middle" x="1497.7949" y="-7.5" font-family="Helvetica,sans-Serif" font-size="10.00" fill="#000000">tests/test_svp_gram.cpp</text>
</a>
</g>
</g>
<!-- Node5&#45;&gt;Node27 -->
<g id="edge33" class="edge">
<title>Node5&#45;&gt;Node27</title>
<path fill="none" stroke="#191970" d="M964.4583,-130.5238C1110.3637,-121.3927 1609.0068,-89.981 1611.7949,-87 1621.2062,-76.9375 1619.5019,-67.4206 1611.7949,-56 1599.1403,-37.2477 1577.4202,-26.1381 1556.3116,-19.5571"/>
<polygon fill="#191970" stroke="#191970" points="963.9424,-127.0491 954.1804,-131.1667 964.3795,-134.0355 963.9424,-127.0491"/>
</g>
<!-- Node28 -->
<g id="node29" class="node">
<title>Node28</title>
<g id="a_node29"><a xlink:href="test__utils_8h.html" target="_top" xlink:title="tests/test_utils.h">
<polygon fill="#ffffff" stroke="#000000" points="880.2949,-62 880.2949,-81 969.2949,-81 969.2949,-62 880.2949,-62"/>
<text text-anchor="middle" x="924.7949" y="-69" font-family="Helvetica,sans-Serif" font-size="10.00" fill="#000000">tests/test_utils.h</text>
</a>
</g>
</g>
<!-- Node5&#45;&gt;Node28 -->
<g id="edge34" class="edge">
<title>Node5&#45;&gt;Node28</title>
<path fill="none" stroke="#191970" d="M924.7949,-113.2462C924.7949,-102.5519 924.7949,-89.814 924.7949,-81.2449"/>
<polygon fill="#191970" stroke="#191970" points="921.295,-113.3906 924.7949,-123.3906 928.295,-113.3907 921.295,-113.3906"/>
</g>
<!-- Node8 -->
<g id="node9" class="node">
<title>Node8</title>
<g id="a_node9"><a xlink:href="main_8cpp.html" target="_top" xlink:title="fplll/main.cpp">
<polygon fill="#ffffff" stroke="#000000" points="1738.7949,-.5 1738.7949,-19.5 1812.7949,-19.5 1812.7949,-.5 1738.7949,-.5"/>
<text text-anchor="middle" x="1775.7949" y="-7.5" font-family="Helvetica,sans-Serif" font-size="10.00" fill="#000000">fplll/main.cpp</text>
</a>
</g>
</g>
<!-- Node7&#45;&gt;Node8 -->
<g id="edge8" class="edge">
<title>Node7&#45;&gt;Node8</title>
<path fill="none" stroke="#191970" d="M1757.8617,-52.4189C1762.4397,-41.5901 1767.9761,-28.4944 1771.6751,-19.7449"/>
<polygon fill="#191970" stroke="#191970" points="1754.5276,-51.317 1753.8574,-61.8906 1760.9751,-54.0428 1754.5276,-51.317"/>
</g>
<!-- Node10&#45;&gt;Node9 -->
<g id="edge11" class="edge">
<title>Node10&#45;&gt;Node9</title>
<path fill="none" stroke="#191970" d="M385.3751,-48.6669C376.4856,-38.7269 366.537,-27.6026 359.6011,-19.8469"/>
<polygon fill="#191970" stroke="#191970" points="382.9243,-51.1769 392.1994,-56.2977 388.1421,-46.5106 382.9243,-51.1769"/>
</g>
<!-- Node11&#45;&gt;Node9 -->
<g id="edge13" class="edge">
<title>Node11&#45;&gt;Node9</title>
<path fill="none" stroke="#191970" d="M465.7064,-52.8306C436.2066,-41.8353 400.1328,-28.3896 376.364,-19.5303"/>
<polygon fill="#191970" stroke="#191970" points="464.8386,-56.2424 475.4313,-56.4554 467.2835,-49.6832 464.8386,-56.2424"/>
</g>
<!-- Node12&#45;&gt;Node9 -->
<g id="edge15" class="edge">
<title>Node12&#45;&gt;Node9</title>
<path fill="none" stroke="#191970" d="M607.6446,-56.8611C606.3503,-56.5668 605.0657,-56.2793 603.7949,-56 535.992,-41.099 457.2118,-27.3282 405.8067,-18.8124"/>
<polygon fill="#191970" stroke="#191970" points="607.1524,-60.3408 617.6885,-59.2273 608.7576,-53.5274 607.1524,-60.3408"/>
</g>
<!-- Node13&#45;&gt;Node9 -->
<g id="edge17" class="edge">
<title>Node13&#45;&gt;Node9</title>
<path fill="none" stroke="#191970" d="M131.7096,-55.8614C195.0803,-40.5141 257.7814,-27.7956 300.3319,-19.5294"/>
<polygon fill="#191970" stroke="#191970" points="130.8317,-52.4729 121.9476,-58.2455 132.4925,-59.273 130.8317,-52.4729"/>
</g>
<!-- Node14&#45;&gt;Node9 -->
<g id="edge19" class="edge">
<title>Node14&#45;&gt;Node9</title>
<path fill="none" stroke="#191970" d="M235.8834,-52.8306C265.3831,-41.8353 301.4569,-28.3896 325.2257,-19.5303"/>
<polygon fill="#191970" stroke="#191970" points="234.3063,-49.6832 226.1584,-56.4554 236.7511,-56.2424 234.3063,-49.6832"/>
</g>
<!-- Node15&#45;&gt;Node9 -->
<g id="edge21" class="edge">
<title>Node15&#45;&gt;Node9</title>
<path fill="none" stroke="#191970" d="M316.2147,-48.6669C325.1042,-38.7269 335.0527,-27.6026 341.9887,-19.8469"/>
<polygon fill="#191970" stroke="#191970" points="313.4477,-46.5106 309.3904,-56.2977 318.6655,-51.1769 313.4477,-46.5106"/>
</g>
<!-- Node28&#45;&gt;Node16 -->
<g id="edge35" class="edge">
<title>Node28&#45;&gt;Node16</title>
<path fill="none" stroke="#191970" d="M870.1749,-62.643C807.6954,-52.4814 702.3326,-35.2531 611.7949,-20 608.8728,-19.5077 605.8685,-18.9986 602.8381,-18.4829"/>
<polygon fill="#191970" stroke="#191970" points="869.769,-66.1229 880.201,-64.2729 870.8922,-59.2136 869.769,-66.1229"/>
</g>
<!-- Node28&#45;&gt;Node17 -->
<g id="edge36" class="edge">
<title>Node28&#45;&gt;Node17</title>
<path fill="none" stroke="#191970" d="M877.4349,-59.4144C831.6977,-47.7428 763.3481,-30.3009 721.2744,-19.5643"/>
<polygon fill="#191970" stroke="#191970" points="876.8481,-62.8767 887.4031,-61.9581 878.579,-56.0941 876.8481,-62.8767"/>
</g>
<!-- Node28&#45;&gt;Node19 -->
<g id="edge37" class="edge">
<title>Node28&#45;&gt;Node19</title>
<path fill="none" stroke="#191970" d="M898.4707,-56.915C877.6056,-45.3546 849.0532,-29.535 831.0168,-19.5419"/>
<polygon fill="#191970" stroke="#191970" points="897.0077,-60.1057 907.4511,-61.8906 900.4002,-53.9827 897.0077,-60.1057"/>
</g>
<!-- Node28&#45;&gt;Node21 -->
<g id="edge39" class="edge">
<title>Node28&#45;&gt;Node21</title>
<path fill="none" stroke="#191970" d="M925.7585,-51.7462C926.2802,-41.0519 926.9015,-28.314 927.3195,-19.7449"/>
<polygon fill="#191970" stroke="#191970" points="922.2551,-51.7319 925.2636,-61.8906 929.2468,-52.0731 922.2551,-51.7319"/>
</g>
<!-- Node28&#45;&gt;Node22 -->
<g id="edge40" class="edge">
<title>Node28&#45;&gt;Node22</title>
<path fill="none" stroke="#191970" d="M967.2403,-59.2193C971.1436,-58.1193 975.0404,-57.0322 978.7949,-56 1026.1991,-42.9681 1081.0457,-28.6785 1116.5191,-19.5393"/>
<polygon fill="#191970" stroke="#191970" points="966.2655,-55.8576 957.6015,-61.9556 968.1773,-62.5915 966.2655,-55.8576"/>
</g>
<!-- Node28&#45;&gt;Node23 -->
<g id="edge41" class="edge">
<title>Node28&#45;&gt;Node23</title>
<path fill="none" stroke="#191970" d="M963.3739,-59.3258C968.5192,-58.0269 973.7573,-56.8659 978.7949,-56 1237.7075,-11.4941 1306.9995,-41.9011 1568.7949,-20 1580.4065,-19.0286 1592.8077,-17.8268 1604.6675,-16.5972"/>
<polygon fill="#191970" stroke="#191970" points="962.4086,-55.961 953.6705,-61.9524 964.2377,-62.7179 962.4086,-55.961"/>
</g>
<!-- Node28&#45;&gt;Node26 -->
<g id="edge42" class="edge">
<title>Node28&#45;&gt;Node26</title>
<path fill="none" stroke="#191970" d="M965.0835,-59.2498C969.6841,-58.0555 974.3253,-56.9405 978.7949,-56 1080.5014,-34.5991 1201.6101,-20.922 1267.7194,-14.4365"/>
<polygon fill="#191970" stroke="#191970" points="963.8875,-55.948 955.1594,-61.9538 965.7278,-62.7018 963.8875,-55.948"/>
</g>
<!-- Node28&#45;&gt;Node27 -->
<g id="edge43" class="edge">
<title>Node28&#45;&gt;Node27</title>
<path fill="none" stroke="#191970" d="M964.143,-59.2664C969.0437,-58.0213 974.0124,-56.8899 978.7949,-56 1000.9026,-51.8865 1301.8801,-26.403 1435.1023,-15.2348"/>
<polygon fill="#191970" stroke="#191970" points="962.9987,-55.9501 954.2603,-61.9409 964.8274,-62.7071 962.9987,-55.9501"/>
</g>
<!-- Node29 -->
<g id="node30" class="node">
<title>Node29</title>
<g id="a_node30"><a xlink:href="test__gso_8cpp.html" target="_top" xlink:title="tests/test_gso.cpp">
<polygon fill="#ffffff" stroke="#000000" points="992.7949,-.5 992.7949,-19.5 1090.7949,-19.5 1090.7949,-.5 992.7949,-.5"/>
<text text-anchor="middle" x="1041.7949" y="-7.5" font-family="Helvetica,sans-Serif" font-size="10.00" fill="#000000">tests/test_gso.cpp</text>
</a>
</g>
</g>
<!-- Node28&#45;&gt;Node29 -->
<g id="edge38" class="edge">
<title>Node28&#45;&gt;Node29</title>
<path fill="none" stroke="#191970" d="M951.9495,-57.2264C973.9918,-45.6401 1004.4594,-29.6251 1023.642,-19.5419"/>
<polygon fill="#191970" stroke="#191970" points="950.2993,-54.1397 943.0761,-61.8906 953.5563,-60.3359 950.2993,-54.1397"/>
</g>
</g>
</svg>
