<?xml version="1.0" encoding="UTF-8" standalone="no"?>
<!DOCTYPE svg PUBLIC "-//W3C//DTD SVG 1.1//EN"
 "http://www.w3.org/Graphics/SVG/1.1/DTD/svg11.dtd">
<!-- Generated by graphviz version 2.38.0 (20140413.2041)
 -->
<!-- Title: fplll/nr/matrix.cpp Pages: 1 -->
<svg width="1049pt" height="476pt"
 viewBox="0.00 0.00 1049.28 476.00" xmlns="http://www.w3.org/2000/svg" xmlns:xlink="http://www.w3.org/1999/xlink">
<g id="graph0" class="graph" transform="scale(1 1) rotate(0) translate(4 472)">
<title>fplll/nr/matrix.cpp</title>
<polygon fill="white" stroke="none" points="-4,4 -4,-472 1045.28,-472 1045.28,4 -4,4"/>
<!-- Node1 -->
<g id="node1" class="node"><title>Node1</title>
<polygon fill="#bfbfbf" stroke="black" points="182.277,-448.5 182.277,-467.5 274.277,-467.5 274.277,-448.5 182.277,-448.5"/>
<text text-anchor="middle" x="228.277" y="-455.5" font-family="Helvetica,sans-Serif" font-size="10.00">fplll/nr/matrix.cpp</text>
</g>
<!-- Node2 -->
<g id="node2" class="node"><title>Node2</title>
<g id="a_node2"><a xlink:href="matrix_8h.html" target="_top" xlink:title="fplll/nr/matrix.h">
<polygon fill="white" stroke="black" points="187.777,-392.5 187.777,-411.5 268.777,-411.5 268.777,-392.5 187.777,-392.5"/>
<text text-anchor="middle" x="228.277" y="-399.5" font-family="Helvetica,sans-Serif" font-size="10.00">fplll/nr/matrix.h</text>
</a>
</g>
</g>
<!-- Node1&#45;&gt;Node2 -->
<g id="edge1" class="edge"><title>Node1&#45;&gt;Node2</title>
<path fill="none" stroke="midnightblue" d="M221.804,-438.101C221.172,-429.136 221.619,-418.858 223.146,-411.751"/>
<polygon fill="midnightblue" stroke="midnightblue" points="218.342,-438.622 223.11,-448.083 225.283,-437.713 218.342,-438.622"/>
</g>
<!-- Node2&#45;&gt;Node1 -->
<g id="edge35" class="edge"><title>Node2&#45;&gt;Node1</title>
<path fill="none" stroke="midnightblue" d="M234.734,-421.691C235.383,-430.635 234.952,-440.927 233.443,-448.083"/>
<polygon fill="midnightblue" stroke="midnightblue" points="238.2,-421.2 233.408,-411.751 231.261,-422.126 238.2,-421.2"/>
</g>
<!-- Node3 -->
<g id="node3" class="node"><title>Node3</title>
<g id="a_node3"><a xlink:href="util_8h.html" target="_top" xlink:title="fplll/util.h">
<polygon fill="white" stroke="black" points="618.277,-336.5 618.277,-355.5 674.277,-355.5 674.277,-336.5 618.277,-336.5"/>
<text text-anchor="middle" x="646.277" y="-343.5" font-family="Helvetica,sans-Serif" font-size="10.00">fplll/util.h</text>
</a>
</g>
</g>
<!-- Node2&#45;&gt;Node3 -->
<g id="edge2" class="edge"><title>Node2&#45;&gt;Node3</title>
<path fill="none" stroke="midnightblue" d="M279.232,-394.417C368.123,-382.934 548.681,-359.608 618.157,-350.633"/>
<polygon fill="midnightblue" stroke="midnightblue" points="278.586,-390.971 269.117,-395.724 279.483,-397.914 278.586,-390.971"/>
</g>
<!-- Node29 -->
<g id="node29" class="node"><title>Node29</title>
<g id="a_node29"><a xlink:href="gso_8h.html" target="_top" xlink:title="fplll/gso.h">
<polygon fill="white" stroke="black" points="123.777,-280.5 123.777,-299.5 182.777,-299.5 182.777,-280.5 123.777,-280.5"/>
<text text-anchor="middle" x="153.277" y="-287.5" font-family="Helvetica,sans-Serif" font-size="10.00">fplll/gso.h</text>
</a>
</g>
</g>
<!-- Node2&#45;&gt;Node29 -->
<g id="edge36" class="edge"><title>Node2&#45;&gt;Node29</title>
<path fill="none" stroke="midnightblue" d="M216.656,-383.957C200.403,-360.118 171.487,-317.709 159.134,-299.591"/>
<polygon fill="midnightblue" stroke="midnightblue" points="213.866,-386.078 222.391,-392.368 219.65,-382.135 213.866,-386.078"/>
</g>
<!-- Node34 -->
<g id="node34" class="node"><title>Node34</title>
<g id="a_node34"><a xlink:href="wrapper_8h.html" target="_top" xlink:title="fplll/wrapper.h">
<polygon fill="white" stroke="black" points="189.777,-224.5 189.777,-243.5 266.777,-243.5 266.777,-224.5 189.777,-224.5"/>
<text text-anchor="middle" x="228.277" y="-231.5" font-family="Helvetica,sans-Serif" font-size="10.00">fplll/wrapper.h</text>
</a>
</g>
</g>
<!-- Node2&#45;&gt;Node34 -->
<g id="edge47" class="edge"><title>Node2&#45;&gt;Node34</title>
<path fill="none" stroke="midnightblue" d="M228.277,-381.93C228.277,-345.92 228.277,-269.231 228.277,-243.568"/>
<polygon fill="midnightblue" stroke="midnightblue" points="224.777,-382.075 228.277,-392.075 231.777,-382.075 224.777,-382.075"/>
</g>
<!-- Node4 -->
<g id="node4" class="node"><title>Node4</title>
<g id="a_node4"><a xlink:href="evaluator_8h.html" target="_top" xlink:title="fplll/enum/evaluator.h">
<polygon fill="white" stroke="black" points="323.277,-280.5 323.277,-299.5 433.277,-299.5 433.277,-280.5 323.277,-280.5"/>
<text text-anchor="middle" x="378.277" y="-287.5" font-family="Helvetica,sans-Serif" font-size="10.00">fplll/enum/evaluator.h</text>
</a>
</g>
</g>
<!-- Node3&#45;&gt;Node4 -->
<g id="edge3" class="edge"><title>Node3&#45;&gt;Node4</title>
<path fill="none" stroke="midnightblue" d="M608.095,-337.307C558.463,-327.306 472.058,-309.896 420.512,-299.51"/>
<polygon fill="midnightblue" stroke="midnightblue" points="607.608,-340.779 618.102,-339.323 608.991,-333.917 607.608,-340.779"/>
</g>
<!-- Node7 -->
<g id="node7" class="node"><title>Node7</title>
<g id="a_node7"><a xlink:href="fplll_8h.html" target="_top" xlink:title="fplll/fplll.h">
<polygon fill="white" stroke="black" points="506.277,-112.5 506.277,-131.5 564.277,-131.5 564.277,-112.5 506.277,-112.5"/>
<text text-anchor="middle" x="535.277" y="-119.5" font-family="Helvetica,sans-Serif" font-size="10.00">fplll/fplll.h</text>
</a>
</g>
</g>
<!-- Node3&#45;&gt;Node7 -->
<g id="edge26" class="edge"><title>Node3&#45;&gt;Node7</title>
<path fill="none" stroke="midnightblue" d="M684.619,-345.666C789.633,-346.066 1069.35,-336.816 996.277,-224 948.614,-150.42 658.494,-129.279 564.582,-124.322"/>
<polygon fill="midnightblue" stroke="midnightblue" points="684.463,-342.165 674.439,-345.594 684.414,-349.165 684.463,-342.165"/>
</g>
<!-- Node21 -->
<g id="node21" class="node"><title>Node21</title>
<g id="a_node21"><a xlink:href="topenum_8h.html" target="_top" xlink:title="fplll/enum/topenum.h">
<polygon fill="white" stroke="black" points="779.777,-280.5 779.777,-299.5 886.777,-299.5 886.777,-280.5 779.777,-280.5"/>
<text text-anchor="middle" x="833.277" y="-287.5" font-family="Helvetica,sans-Serif" font-size="10.00">fplll/enum/topenum.h</text>
</a>
</g>
</g>
<!-- Node3&#45;&gt;Node21 -->
<g id="edge23" class="edge"><title>Node3&#45;&gt;Node21</title>
<path fill="none" stroke="midnightblue" d="M684.614,-333.929C719.892,-323.742 771.48,-308.845 803.68,-299.547"/>
<polygon fill="midnightblue" stroke="midnightblue" points="683.314,-330.662 674.678,-336.799 685.256,-337.387 683.314,-330.662"/>
</g>
<!-- Node23 -->
<g id="node23" class="node"><title>Node23</title>
<g id="a_node23"><a xlink:href="svpcvp_8h.html" target="_top" xlink:title="fplll/svpcvp.h">
<polygon fill="white" stroke="black" points="913.277,-224.5 913.277,-243.5 987.277,-243.5 987.277,-224.5 913.277,-224.5"/>
<text text-anchor="middle" x="950.277" y="-231.5" font-family="Helvetica,sans-Serif" font-size="10.00">fplll/svpcvp.h</text>
</a>
</g>
</g>
<!-- Node3&#45;&gt;Node23 -->
<g id="edge27" class="edge"><title>Node3&#45;&gt;Node23</title>
<path fill="none" stroke="midnightblue" d="M684.515,-345.889C735.862,-345.425 828.366,-338.637 895.277,-300 919.087,-286.251 937.332,-258.168 945.53,-243.838"/>
<polygon fill="midnightblue" stroke="midnightblue" points="684.505,-342.389 674.51,-345.903 684.515,-349.389 684.505,-342.389"/>
</g>
<!-- Node24 -->
<g id="node24" class="node"><title>Node24</title>
<g id="a_node24"><a xlink:href="latticegen_8cpp.html" target="_top" xlink:title="fplll/latticegen.cpp">
<polygon fill="white" stroke="black" points="451.777,-280.5 451.777,-299.5 546.777,-299.5 546.777,-280.5 451.777,-280.5"/>
<text text-anchor="middle" x="499.277" y="-287.5" font-family="Helvetica,sans-Serif" font-size="10.00">fplll/latticegen.cpp</text>
</a>
</g>
</g>
<!-- Node3&#45;&gt;Node24 -->
<g id="edge30" class="edge"><title>Node3&#45;&gt;Node24</title>
<path fill="none" stroke="midnightblue" d="M613.354,-332.906C585.717,-322.754 546.933,-308.506 522.46,-299.516"/>
<polygon fill="midnightblue" stroke="midnightblue" points="612.39,-336.281 622.984,-336.444 614.804,-329.71 612.39,-336.281"/>
</g>
<!-- Node25 -->
<g id="node25" class="node"><title>Node25</title>
<g id="a_node25"><a xlink:href="lll_8cpp.html" target="_top" xlink:title="fplll/lll.cpp">
<polygon fill="white" stroke="black" points="501.277,-168.5 501.277,-187.5 561.277,-187.5 561.277,-168.5 501.277,-168.5"/>
<text text-anchor="middle" x="531.277" y="-175.5" font-family="Helvetica,sans-Serif" font-size="10.00">fplll/lll.cpp</text>
</a>
</g>
</g>
<!-- Node3&#45;&gt;Node25 -->
<g id="edge31" class="edge"><title>Node3&#45;&gt;Node25</title>
<path fill="none" stroke="midnightblue" d="M684.144,-335.15C702.04,-328.387 721.747,-317.393 732.277,-300 736.88,-292.396 734.989,-288.465 732.277,-280 722.942,-250.873 717.319,-241.561 692.277,-224 681.494,-216.439 605.073,-196.98 561.506,-186.294"/>
<polygon fill="midnightblue" stroke="midnightblue" points="682.774,-331.921 674.458,-338.486 685.053,-338.539 682.774,-331.921"/>
</g>
<!-- Node26 -->
<g id="node26" class="node"><title>Node26</title>
<g id="a_node26"><a xlink:href="llldiff_8cpp.html" target="_top" xlink:title="fplll/llldiff.cpp">
<polygon fill="white" stroke="black" points="565.277,-280.5 565.277,-299.5 639.277,-299.5 639.277,-280.5 565.277,-280.5"/>
<text text-anchor="middle" x="602.277" y="-287.5" font-family="Helvetica,sans-Serif" font-size="10.00">fplll/llldiff.cpp</text>
</a>
</g>
</g>
<!-- Node3&#45;&gt;Node26 -->
<g id="edge32" class="edge"><title>Node3&#45;&gt;Node26</title>
<path fill="none" stroke="midnightblue" d="M632.542,-328.144C624.876,-318.736 615.643,-307.405 609.407,-299.751"/>
<polygon fill="midnightblue" stroke="midnightblue" points="629.981,-330.541 639.011,-336.083 635.407,-326.12 629.981,-330.541"/>
</g>
<!-- Node27 -->
<g id="node27" class="node"><title>Node27</title>
<g id="a_node27"><a xlink:href="util_8cpp.html" target="_top" xlink:title="fplll/util.cpp">
<polygon fill="white" stroke="black" points="657.277,-280.5 657.277,-299.5 723.277,-299.5 723.277,-280.5 657.277,-280.5"/>
<text text-anchor="middle" x="690.277" y="-287.5" font-family="Helvetica,sans-Serif" font-size="10.00">fplll/util.cpp</text>
</a>
</g>
</g>
<!-- Node3&#45;&gt;Node27 -->
<g id="edge33" class="edge"><title>Node3&#45;&gt;Node27</title>
<path fill="none" stroke="midnightblue" d="M660.011,-328.144C667.677,-318.736 676.91,-307.405 683.146,-299.751"/>
<polygon fill="midnightblue" stroke="midnightblue" points="657.146,-326.12 653.542,-336.083 662.572,-330.541 657.146,-326.12"/>
</g>
<!-- Node28 -->
<g id="node28" class="node"><title>Node28</title>
<g id="a_node28"><a xlink:href="wrapper_8cpp.html" target="_top" xlink:title="fplll/wrapper.cpp">
<polygon fill="white" stroke="black" points="279.277,-168.5 279.277,-187.5 367.277,-187.5 367.277,-168.5 279.277,-168.5"/>
<text text-anchor="middle" x="323.277" y="-175.5" font-family="Helvetica,sans-Serif" font-size="10.00">fplll/wrapper.cpp</text>
</a>
</g>
</g>
<!-- Node3&#45;&gt;Node28 -->
<g id="edge34" class="edge"><title>Node3&#45;&gt;Node28</title>
<path fill="none" stroke="midnightblue" d="M608.262,-345.799C529.378,-346.558 352.09,-343.285 314.277,-300 285.866,-267.479 308.728,-209.451 318.965,-187.621"/>
<polygon fill="midnightblue" stroke="midnightblue" points="608.314,-349.299 618.27,-345.676 608.228,-342.3 608.314,-349.299"/>
</g>
<!-- Node5 -->
<g id="node5" class="node"><title>Node5</title>
<g id="a_node5"><a xlink:href="bkz_8h.html" target="_top" xlink:title="fplll/bkz.h">
<polygon fill="white" stroke="black" points="385.777,-168.5 385.777,-187.5 444.777,-187.5 444.777,-168.5 385.777,-168.5"/>
<text text-anchor="middle" x="415.277" y="-175.5" font-family="Helvetica,sans-Serif" font-size="10.00">fplll/bkz.h</text>
</a>
</g>
</g>
<!-- Node4&#45;&gt;Node5 -->
<g id="edge4" class="edge"><title>Node4&#45;&gt;Node5</title>
<path fill="none" stroke="midnightblue" d="M384.441,-270.674C392.53,-246.625 406.401,-205.388 412.387,-187.591"/>
<polygon fill="midnightblue" stroke="midnightblue" points="381.051,-269.774 381.18,-280.368 387.685,-272.006 381.051,-269.774"/>
</g>
<!-- Node17 -->
<g id="node17" class="node"><title>Node17</title>
<g id="a_node17"><a xlink:href="enumerate_8h.html" target="_top" xlink:title="fplll/enum/enumerate.h">
<polygon fill="white" stroke="black" points="429.277,-224.5 429.277,-243.5 545.277,-243.5 545.277,-224.5 429.277,-224.5"/>
<text text-anchor="middle" x="487.277" y="-231.5" font-family="Helvetica,sans-Serif" font-size="10.00">fplll/enum/enumerate.h</text>
</a>
</g>
</g>
<!-- Node4&#45;&gt;Node17 -->
<g id="edge16" class="edge"><title>Node4&#45;&gt;Node17</title>
<path fill="none" stroke="midnightblue" d="M404.795,-275.862C425.007,-265.849 452.264,-252.346 469.807,-243.655"/>
<polygon fill="midnightblue" stroke="midnightblue" points="403.196,-272.748 395.789,-280.324 406.304,-279.021 403.196,-272.748"/>
</g>
<!-- Node20 -->
<g id="node20" class="node"><title>Node20</title>
<g id="a_node20"><a xlink:href="evaluator_8cpp.html" target="_top" xlink:title="fplll/enum/evaluator.cpp">
<polygon fill="white" stroke="black" points="563.277,-224.5 563.277,-243.5 683.277,-243.5 683.277,-224.5 563.277,-224.5"/>
<text text-anchor="middle" x="623.277" y="-231.5" font-family="Helvetica,sans-Serif" font-size="10.00">fplll/enum/evaluator.cpp</text>
</a>
</g>
</g>
<!-- Node4&#45;&gt;Node20 -->
<g id="edge22" class="edge"><title>Node4&#45;&gt;Node20</title>
<path fill="none" stroke="midnightblue" d="M426.907,-278.281C473.205,-268.077 541.972,-252.92 584.637,-243.516"/>
<polygon fill="midnightblue" stroke="midnightblue" points="426.11,-274.873 417.098,-280.444 427.617,-281.709 426.11,-274.873"/>
</g>
<!-- Node6 -->
<g id="node6" class="node"><title>Node6</title>
<g id="a_node6"><a xlink:href="bkz_8cpp.html" target="_top" xlink:title="fplll/bkz.cpp">
<polygon fill="white" stroke="black" points="380.777,-112.5 380.777,-131.5 449.777,-131.5 449.777,-112.5 380.777,-112.5"/>
<text text-anchor="middle" x="415.277" y="-119.5" font-family="Helvetica,sans-Serif" font-size="10.00">fplll/bkz.cpp</text>
</a>
</g>
</g>
<!-- Node5&#45;&gt;Node6 -->
<g id="edge5" class="edge"><title>Node5&#45;&gt;Node6</title>
<path fill="none" stroke="midnightblue" d="M415.277,-157.805C415.277,-148.91 415.277,-138.78 415.277,-131.751"/>
<polygon fill="midnightblue" stroke="midnightblue" points="411.777,-158.083 415.277,-168.083 418.777,-158.083 411.777,-158.083"/>
</g>
<!-- Node5&#45;&gt;Node7 -->
<g id="edge6" class="edge"><title>Node5&#45;&gt;Node7</title>
<path fill="none" stroke="midnightblue" d="M443.65,-164.232C466.096,-154.131 496.812,-140.309 516.351,-131.516"/>
<polygon fill="midnightblue" stroke="midnightblue" points="441.974,-161.148 434.291,-168.444 444.846,-167.532 441.974,-161.148"/>
</g>
<!-- Node8 -->
<g id="node8" class="node"><title>Node8</title>
<g id="a_node8"><a xlink:href="fplll_8cpp.html" target="_top" xlink:title="fplll/fplll.cpp">
<polygon fill="white" stroke="black" points="193.277,-56.5 193.277,-75.5 261.277,-75.5 261.277,-56.5 193.277,-56.5"/>
<text text-anchor="middle" x="227.277" y="-63.5" font-family="Helvetica,sans-Serif" font-size="10.00">fplll/fplll.cpp</text>
</a>
</g>
</g>
<!-- Node7&#45;&gt;Node8 -->
<g id="edge7" class="edge"><title>Node7&#45;&gt;Node8</title>
<path fill="none" stroke="midnightblue" d="M496.125,-112.727C494.828,-112.478 493.542,-112.235 492.277,-112 394,-93.7567 368.553,-94.2433 270.277,-76 267.427,-75.471 264.476,-74.9008 261.516,-74.3132"/>
<polygon fill="midnightblue" stroke="midnightblue" points="495.678,-116.207 506.168,-114.72 497.041,-109.34 495.678,-116.207"/>
</g>
<!-- Node9 -->
<g id="node9" class="node"><title>Node9</title>
<g id="a_node9"><a xlink:href="main_8h.html" target="_top" xlink:title="fplll/main.h">
<polygon fill="white" stroke="black" points="279.277,-56.5 279.277,-75.5 343.277,-75.5 343.277,-56.5 279.277,-56.5"/>
<text text-anchor="middle" x="311.277" y="-63.5" font-family="Helvetica,sans-Serif" font-size="10.00">fplll/main.h</text>
</a>
</g>
</g>
<!-- Node7&#45;&gt;Node9 -->
<g id="edge8" class="edge"><title>Node7&#45;&gt;Node9</title>
<path fill="none" stroke="midnightblue" d="M496.094,-111.554C452.765,-101.109 383.769,-84.4759 343.467,-74.7602"/>
<polygon fill="midnightblue" stroke="midnightblue" points="495.451,-114.999 505.993,-113.94 497.091,-108.194 495.451,-114.999"/>
</g>
<!-- Node11 -->
<g id="node11" class="node"><title>Node11</title>
<g id="a_node11"><a xlink:href="test__bkz_8cpp.html" target="_top" xlink:title="tests/test_bkz.cpp">
<polygon fill="white" stroke="black" points="361.277,-56.5 361.277,-75.5 459.277,-75.5 459.277,-56.5 361.277,-56.5"/>
<text text-anchor="middle" x="410.277" y="-63.5" font-family="Helvetica,sans-Serif" font-size="10.00">tests/test_bkz.cpp</text>
</a>
</g>
</g>
<!-- Node7&#45;&gt;Node11 -->
<g id="edge10" class="edge"><title>Node7&#45;&gt;Node11</title>
<path fill="none" stroke="midnightblue" d="M506.035,-108.368C482.627,-98.2553 450.435,-84.3486 429.991,-75.5164"/>
<polygon fill="midnightblue" stroke="midnightblue" points="504.902,-111.691 515.47,-112.444 507.678,-105.265 504.902,-111.691"/>
</g>
<!-- Node12 -->
<g id="node12" class="node"><title>Node12</title>
<g id="a_node12"><a xlink:href="test__lll_8cpp.html" target="_top" xlink:title="tests/test_lll.cpp">
<polygon fill="white" stroke="black" points="476.777,-56.5 476.777,-75.5 565.777,-75.5 565.777,-56.5 476.777,-56.5"/>
<text text-anchor="middle" x="521.277" y="-63.5" font-family="Helvetica,sans-Serif" font-size="10.00">tests/test_lll.cpp</text>
</a>
</g>
</g>
<!-- Node7&#45;&gt;Node12 -->
<g id="edge11" class="edge"><title>Node7&#45;&gt;Node12</title>
<path fill="none" stroke="midnightblue" d="M530.453,-102.396C528.111,-93.362 525.408,-82.936 523.545,-75.7511"/>
<polygon fill="midnightblue" stroke="midnightblue" points="527.067,-103.281 532.965,-112.083 533.843,-101.525 527.067,-103.281"/>
</g>
<!-- Node13 -->
<g id="node13" class="node"><title>Node13</title>
<g id="a_node13"><a xlink:href="test__nr_8cpp.html" target="_top" xlink:title="tests/test_nr.cpp">
<polygon fill="white" stroke="black" points="584.277,-56.5 584.277,-75.5 674.277,-75.5 674.277,-56.5 584.277,-56.5"/>
<text text-anchor="middle" x="629.277" y="-63.5" font-family="Helvetica,sans-Serif" font-size="10.00">tests/test_nr.cpp</text>
</a>
</g>
</g>
<!-- Node7&#45;&gt;Node13 -->
<g id="edge12" class="edge"><title>Node7&#45;&gt;Node13</title>
<path fill="none" stroke="midnightblue" d="M559.338,-107.177C576.635,-97.2407 599.424,-84.1492 614.211,-75.6545"/>
<polygon fill="midnightblue" stroke="midnightblue" points="557.307,-104.308 550.379,-112.324 560.794,-110.378 557.307,-104.308"/>
</g>
<!-- Node14 -->
<g id="node14" class="node"><title>Node14</title>
<g id="a_node14"><a xlink:href="test__pruner_8cpp.html" target="_top" xlink:title="tests/test_pruner.cpp">
<polygon fill="white" stroke="black" points="692.777,-56.5 692.777,-75.5 801.777,-75.5 801.777,-56.5 692.777,-56.5"/>
<text text-anchor="middle" x="747.277" y="-63.5" font-family="Helvetica,sans-Serif" font-size="10.00">tests/test_pruner.cpp</text>
</a>
</g>
</g>
<!-- Node7&#45;&gt;Node14 -->
<g id="edge13" class="edge"><title>Node7&#45;&gt;Node14</title>
<path fill="none" stroke="midnightblue" d="M574.232,-111.077C614.221,-100.892 675.804,-85.2054 713.707,-75.5509"/>
<polygon fill="midnightblue" stroke="midnightblue" points="573.136,-107.745 564.31,-113.605 574.864,-114.528 573.136,-107.745"/>
</g>
<!-- Node15 -->
<g id="node15" class="node"><title>Node15</title>
<g id="a_node15"><a xlink:href="test__sieve_8cpp.html" target="_top" xlink:title="tests/test_sieve.cpp">
<polygon fill="white" stroke="black" points="819.777,-56.5 819.777,-75.5 924.777,-75.5 924.777,-56.5 819.777,-56.5"/>
<text text-anchor="middle" x="872.277" y="-63.5" font-family="Helvetica,sans-Serif" font-size="10.00">tests/test_sieve.cpp</text>
</a>
</g>
</g>
<!-- Node7&#45;&gt;Node15 -->
<g id="edge14" class="edge"><title>Node7&#45;&gt;Node15</title>
<path fill="none" stroke="midnightblue" d="M574.232,-114.758C634.831,-105.048 751.763,-86.3107 819.756,-75.4157"/>
<polygon fill="midnightblue" stroke="midnightblue" points="573.621,-111.311 564.301,-116.349 574.729,-118.223 573.621,-111.311"/>
</g>
<!-- Node16 -->
<g id="node16" class="node"><title>Node16</title>
<g id="a_node16"><a xlink:href="test__svp_8cpp.html" target="_top" xlink:title="tests/test_svp.cpp">
<polygon fill="white" stroke="black" points="943.277,-56.5 943.277,-75.5 1041.28,-75.5 1041.28,-56.5 943.277,-56.5"/>
<text text-anchor="middle" x="992.277" y="-63.5" font-family="Helvetica,sans-Serif" font-size="10.00">tests/test_svp.cpp</text>
</a>
</g>
</g>
<!-- Node7&#45;&gt;Node16 -->
<g id="edge15" class="edge"><title>Node7&#45;&gt;Node16</title>
<path fill="none" stroke="midnightblue" d="M574.721,-117.101C646.415,-109.893 802.838,-93.6021 934.277,-76 937.206,-75.6078 940.215,-75.1889 943.25,-74.7545"/>
<polygon fill="midnightblue" stroke="midnightblue" points="573.966,-113.659 564.365,-118.139 574.664,-120.625 573.966,-113.659"/>
</g>
<!-- Node10 -->
<g id="node10" class="node"><title>Node10</title>
<g id="a_node10"><a xlink:href="main_8cpp.html" target="_top" xlink:title="fplll/main.cpp">
<polygon fill="white" stroke="black" points="274.277,-0.5 274.277,-19.5 348.277,-19.5 348.277,-0.5 274.277,-0.5"/>
<text text-anchor="middle" x="311.277" y="-7.5" font-family="Helvetica,sans-Serif" font-size="10.00">fplll/main.cpp</text>
</a>
</g>
</g>
<!-- Node9&#45;&gt;Node10 -->
<g id="edge9" class="edge"><title>Node9&#45;&gt;Node10</title>
<path fill="none" stroke="midnightblue" d="M311.277,-45.8045C311.277,-36.9102 311.277,-26.7798 311.277,-19.7511"/>
<polygon fill="midnightblue" stroke="midnightblue" points="307.777,-46.083 311.277,-56.083 314.777,-46.083 307.777,-46.083"/>
</g>
<!-- Node17&#45;&gt;Node5 -->
<g id="edge17" class="edge"><title>Node17&#45;&gt;Node5</title>
<path fill="none" stroke="midnightblue" d="M467.411,-218.101C454.453,-208.382 437.979,-196.027 427.055,-187.834"/>
<polygon fill="midnightblue" stroke="midnightblue" points="465.609,-221.124 475.709,-224.324 469.809,-215.524 465.609,-221.124"/>
</g>
<!-- Node17&#45;&gt;Node6 -->
<g id="edge18" class="edge"><title>Node17&#45;&gt;Node6</title>
<path fill="none" stroke="midnightblue" d="M479.246,-215.145C472.909,-201.74 463.464,-183.163 453.277,-168 444.152,-154.42 431.59,-140.237 423.451,-131.509"/>
<polygon fill="midnightblue" stroke="midnightblue" points="476.078,-216.633 483.446,-224.246 482.433,-213.7 476.078,-216.633"/>
</g>
<!-- Node18 -->
<g id="node18" class="node"><title>Node18</title>
<g id="a_node18"><a xlink:href="enumerate_8cpp.html" target="_top" xlink:title="fplll/enum/enumerate.cpp">
<polygon fill="white" stroke="black" points="579.277,-168.5 579.277,-187.5 705.277,-187.5 705.277,-168.5 579.277,-168.5"/>
<text text-anchor="middle" x="642.277" y="-175.5" font-family="Helvetica,sans-Serif" font-size="10.00">fplll/enum/enumerate.cpp</text>
</a>
</g>
</g>
<!-- Node17&#45;&gt;Node18 -->
<g id="edge19" class="edge"><title>Node17&#45;&gt;Node18</title>
<path fill="none" stroke="midnightblue" d="M521.609,-221.039C550.773,-210.879 591.914,-196.546 617.831,-187.516"/>
<polygon fill="midnightblue" stroke="midnightblue" points="520.129,-217.848 511.837,-224.444 522.432,-224.459 520.129,-217.848"/>
</g>
<!-- Node19 -->
<g id="node19" class="node"><title>Node19</title>
<g id="a_node19"><a xlink:href="svpcvp_8cpp.html" target="_top" xlink:title="fplll/svpcvp.cpp">
<polygon fill="white" stroke="black" points="741.777,-168.5 741.777,-187.5 826.777,-187.5 826.777,-168.5 741.777,-168.5"/>
<text text-anchor="middle" x="784.277" y="-175.5" font-family="Helvetica,sans-Serif" font-size="10.00">fplll/svpcvp.cpp</text>
</a>
</g>
</g>
<!-- Node17&#45;&gt;Node19 -->
<g id="edge20" class="edge"><title>Node17&#45;&gt;Node19</title>
<path fill="none" stroke="midnightblue" d="M544.391,-222.615C602.098,-212.123 689.927,-196.154 741.767,-186.729"/>
<polygon fill="midnightblue" stroke="midnightblue" points="543.55,-219.211 534.337,-224.444 544.802,-226.098 543.55,-219.211"/>
</g>
<!-- Node19&#45;&gt;Node8 -->
<g id="edge21" class="edge"><title>Node19&#45;&gt;Node8</title>
<path fill="none" stroke="midnightblue" d="M731.763,-169.687C655.063,-158.867 519.107,-139.106 497.277,-132 478.754,-125.971 476.696,-118.34 458.277,-112 377.835,-84.3097 353.692,-92.7148 270.277,-76 267.435,-75.4306 264.489,-74.8319 261.533,-74.2252"/>
<polygon fill="midnightblue" stroke="midnightblue" points="731.33,-173.161 741.72,-171.089 732.305,-166.229 731.33,-173.161"/>
</g>
<!-- Node21&#45;&gt;Node19 -->
<g id="edge25" class="edge"><title>Node21&#45;&gt;Node19</title>
<path fill="none" stroke="midnightblue" d="M850.422,-273.324C862.873,-259.967 875.976,-240.387 866.277,-224 855.441,-205.694 834.223,-194.339 816.085,-187.615"/>
<polygon fill="midnightblue" stroke="midnightblue" points="847.942,-270.854 843.343,-280.398 852.89,-275.805 847.942,-270.854"/>
</g>
<!-- Node22 -->
<g id="node22" class="node"><title>Node22</title>
<g id="a_node22"><a xlink:href="topenum_8cpp.html" target="_top" xlink:title="fplll/enum/topenum.cpp">
<polygon fill="white" stroke="black" points="739.277,-224.5 739.277,-243.5 857.277,-243.5 857.277,-224.5 739.277,-224.5"/>
<text text-anchor="middle" x="798.277" y="-231.5" font-family="Helvetica,sans-Serif" font-size="10.00">fplll/enum/topenum.cpp</text>
</a>
</g>
</g>
<!-- Node21&#45;&gt;Node22 -->
<g id="edge24" class="edge"><title>Node21&#45;&gt;Node22</title>
<path fill="none" stroke="midnightblue" d="M821.977,-271.566C815.955,-262.275 808.808,-251.248 803.949,-243.751"/>
<polygon fill="midnightblue" stroke="midnightblue" points="819.121,-273.595 827.497,-280.083 824.995,-269.788 819.121,-273.595"/>
</g>
<!-- Node23&#45;&gt;Node7 -->
<g id="edge28" class="edge"><title>Node23&#45;&gt;Node7</title>
<path fill="none" stroke="midnightblue" d="M930.317,-218.693C908.194,-203.579 870.915,-180.274 835.277,-168 739.918,-135.159 619.352,-126.27 564.652,-123.876"/>
<polygon fill="midnightblue" stroke="midnightblue" points="928.346,-221.585 938.554,-224.423 932.344,-215.839 928.346,-221.585"/>
</g>
<!-- Node23&#45;&gt;Node19 -->
<g id="edge29" class="edge"><title>Node23&#45;&gt;Node19</title>
<path fill="none" stroke="midnightblue" d="M914.324,-221.304C883.045,-211.129 838.456,-196.625 810.457,-187.516"/>
<polygon fill="midnightblue" stroke="midnightblue" points="913.381,-224.678 923.973,-224.444 915.547,-218.022 913.381,-224.678"/>
</g>
<!-- Node29&#45;&gt;Node17 -->
<g id="edge37" class="edge"><title>Node29&#45;&gt;Node17</title>
<path fill="none" stroke="midnightblue" d="M193.162,-282.551C253.405,-272.812 367.668,-254.338 434.66,-243.507"/>
<polygon fill="midnightblue" stroke="midnightblue" points="192.23,-279.157 182.917,-284.208 193.347,-286.067 192.23,-279.157"/>
</g>
<!-- Node30 -->
<g id="node30" class="node"><title>Node30</title>
<g id="a_node30"><a xlink:href="lll_8h.html" target="_top" xlink:title="fplll/lll.h">
<polygon fill="white" stroke="black" points="323.277,-224.5 323.277,-243.5 373.277,-243.5 373.277,-224.5 323.277,-224.5"/>
<text text-anchor="middle" x="348.277" y="-231.5" font-family="Helvetica,sans-Serif" font-size="10.00">fplll/lll.h</text>
</a>
</g>
</g>
<!-- Node29&#45;&gt;Node30 -->
<g id="edge38" class="edge"><title>Node29&#45;&gt;Node30</title>
<path fill="none" stroke="midnightblue" d="M192.833,-278.046C231.756,-267.267 290.014,-251.134 323.044,-241.987"/>
<polygon fill="midnightblue" stroke="midnightblue" points="191.596,-274.757 182.893,-280.799 193.464,-281.503 191.596,-274.757"/>
</g>
<!-- Node31 -->
<g id="node31" class="node"><title>Node31</title>
<g id="a_node31"><a xlink:href="pruner_8h.html" target="_top" xlink:title="fplll/pruner.h">
<polygon fill="white" stroke="black" points="101.277,-224.5 101.277,-243.5 171.277,-243.5 171.277,-224.5 101.277,-224.5"/>
<text text-anchor="middle" x="136.277" y="-231.5" font-family="Helvetica,sans-Serif" font-size="10.00">fplll/pruner.h</text>
</a>
</g>
</g>
<!-- Node29&#45;&gt;Node31 -->
<g id="edge42" class="edge"><title>Node29&#45;&gt;Node31</title>
<path fill="none" stroke="midnightblue" d="M147.42,-270.396C144.576,-261.362 141.293,-250.936 139.032,-243.751"/>
<polygon fill="midnightblue" stroke="midnightblue" points="144.128,-271.596 150.469,-280.083 150.805,-269.493 144.128,-271.596"/>
</g>
<!-- Node32 -->
<g id="node32" class="node"><title>Node32</title>
<g id="a_node32"><a xlink:href="pruner_8cpp.html" target="_top" xlink:title="fplll/pruner.cpp">
<polygon fill="white" stroke="black" points="6.2766,-168.5 6.2766,-187.5 86.2766,-187.5 86.2766,-168.5 6.2766,-168.5"/>
<text text-anchor="middle" x="46.2766" y="-175.5" font-family="Helvetica,sans-Serif" font-size="10.00">fplll/pruner.cpp</text>
</a>
</g>
</g>
<!-- Node29&#45;&gt;Node32 -->
<g id="edge46" class="edge"><title>Node29&#45;&gt;Node32</title>
<path fill="none" stroke="midnightblue" d="M113.331,-289.195C78.2943,-286.971 29.1695,-277.521 4.2766,-244 -10.1416,-224.584 16.4799,-200.337 33.5572,-187.651"/>
<polygon fill="midnightblue" stroke="midnightblue" points="113.559,-292.709 123.709,-289.672 113.881,-285.717 113.559,-292.709"/>
</g>
<!-- Node33 -->
<g id="node33" class="node"><title>Node33</title>
<g id="a_node33"><a xlink:href="gso_8cpp.html" target="_top" xlink:title="fplll/gso.cpp">
<polygon fill="white" stroke="black" points="13.7766,-224.5 13.7766,-243.5 82.7766,-243.5 82.7766,-224.5 13.7766,-224.5"/>
<text text-anchor="middle" x="48.2766" y="-231.5" font-family="Helvetica,sans-Serif" font-size="10.00">fplll/gso.cpp</text>
</a>
</g>
</g>
<!-- Node29&#45;&gt;Node33 -->
<g id="edge45" class="edge"><title>Node29&#45;&gt;Node33</title>
<path fill="none" stroke="midnightblue" d="M127.466,-275.726C108.024,-265.727 81.9282,-252.307 65.1048,-243.655"/>
<polygon fill="midnightblue" stroke="midnightblue" points="125.913,-278.863 136.407,-280.324 129.114,-272.638 125.913,-278.863"/>
</g>
<!-- Node30&#45;&gt;Node5 -->
<g id="edge39" class="edge"><title>Node30&#45;&gt;Node5</title>
<path fill="none" stroke="midnightblue" d="M367.111,-217.82C379.115,-208.145 394.248,-195.948 404.316,-187.834"/>
<polygon fill="midnightblue" stroke="midnightblue" points="364.631,-215.324 359.041,-224.324 369.024,-220.774 364.631,-215.324"/>
</g>
<!-- Node30&#45;&gt;Node25 -->
<g id="edge40" class="edge"><title>Node30&#45;&gt;Node25</title>
<path fill="none" stroke="midnightblue" d="M383.009,-222.751C417.548,-212.559 469.928,-197.103 502.299,-187.551"/>
<polygon fill="midnightblue" stroke="midnightblue" points="381.939,-219.418 373.338,-225.605 383.92,-226.131 381.939,-219.418"/>
</g>
<!-- Node30&#45;&gt;Node28 -->
<g id="edge41" class="edge"><title>Node30&#45;&gt;Node28</title>
<path fill="none" stroke="midnightblue" d="M339.935,-214.983C335.692,-205.817 330.727,-195.092 327.328,-187.751"/>
<polygon fill="midnightblue" stroke="midnightblue" points="336.771,-216.479 344.148,-224.083 343.123,-213.538 336.771,-216.479"/>
</g>
<!-- Node31&#45;&gt;Node7 -->
<g id="edge43" class="edge"><title>Node31&#45;&gt;Node7</title>
<path fill="none" stroke="midnightblue" d="M155.76,-218.51C177.09,-203.407 212.857,-180.268 247.277,-168 271.439,-159.388 437.977,-136.191 506.214,-126.913"/>
<polygon fill="midnightblue" stroke="midnightblue" points="153.61,-215.745 147.548,-224.435 157.705,-221.422 153.61,-215.745"/>
</g>
<!-- Node31&#45;&gt;Node32 -->
<g id="edge44" class="edge"><title>Node31&#45;&gt;Node32</title>
<path fill="none" stroke="midnightblue" d="M113.239,-219.177C96.6777,-209.241 74.8586,-196.149 60.7008,-187.655"/>
<polygon fill="midnightblue" stroke="midnightblue" points="111.441,-222.18 121.817,-224.324 115.042,-216.178 111.441,-222.18"/>
</g>
<!-- Node34&#45;&gt;Node7 -->
<g id="edge48" class="edge"><title>Node34&#45;&gt;Node7</title>
<path fill="none" stroke="midnightblue" d="M235.111,-214.837C241.749,-199.806 253.322,-179.173 270.277,-168 289.808,-155.129 441.298,-134.816 506.065,-126.613"/>
<polygon fill="midnightblue" stroke="midnightblue" points="231.844,-213.582 231.3,-224.162 238.323,-216.23 231.844,-213.582"/>
</g>
<!-- Node34&#45;&gt;Node8 -->
<g id="edge49" class="edge"><title>Node34&#45;&gt;Node8</title>
<path fill="none" stroke="midnightblue" d="M228.162,-213.93C227.945,-177.92 227.483,-101.231 227.328,-75.5681"/>
<polygon fill="midnightblue" stroke="midnightblue" points="224.663,-214.096 228.223,-224.075 231.662,-214.054 224.663,-214.096"/>
</g>
<!-- Node34&#45;&gt;Node28 -->
<g id="edge50" class="edge"><title>Node34&#45;&gt;Node28</title>
<path fill="none" stroke="midnightblue" d="M252.594,-219.177C270.075,-209.241 293.107,-196.149 308.051,-187.655"/>
<polygon fill="midnightblue" stroke="midnightblue" points="250.504,-216.339 243.54,-224.324 253.963,-222.425 250.504,-216.339"/>
</g>
</g>
</svg>
