<?xml version="1.0" encoding="UTF-8" standalone="no"?>
<!DOCTYPE svg PUBLIC "-//W3C//DTD SVG 1.1//EN"
 "http://www.w3.org/Graphics/SVG/1.1/DTD/svg11.dtd">
<!-- Generated by graphviz version 2.38.0 (20140413.2041)
 -->
<!-- Title: fplll/nr/nr_rand.inl Pages: 1 -->
<svg width="1431pt" height="710pt"
 viewBox="0.00 0.00 1430.50 710.00" xmlns="http://www.w3.org/2000/svg" xmlns:xlink="http://www.w3.org/1999/xlink">
<g id="graph0" class="graph" transform="scale(1 1) rotate(0) translate(4 706)">
<title>fplll/nr/nr_rand.inl</title>
<polygon fill="white" stroke="none" points="-4,4 -4,-706 1426.5,-706 1426.5,4 -4,4"/>
<!-- Node1 -->
<g id="node1" class="node"><title>Node1</title>
<polygon fill="#bfbfbf" stroke="black" points="1061.5,-682.5 1061.5,-701.5 1152.5,-701.5 1152.5,-682.5 1061.5,-682.5"/>
<text text-anchor="middle" x="1107" y="-689.5" font-family="Helvetica,sans-Serif" font-size="10.00">fplll/nr/nr_rand.inl</text>
</g>
<!-- Node2 -->
<g id="node2" class="node"><title>Node2</title>
<g id="a_node2"><a xlink:href="nr_8h.html" target="_top" xlink:title="fplll/nr/nr.h">
<polygon fill="white" stroke="black" points="1076,-626.5 1076,-645.5 1138,-645.5 1138,-626.5 1076,-626.5"/>
<text text-anchor="middle" x="1107" y="-633.5" font-family="Helvetica,sans-Serif" font-size="10.00">fplll/nr/nr.h</text>
</a>
</g>
</g>
<!-- Node1&#45;&gt;Node2 -->
<g id="edge1" class="edge"><title>Node1&#45;&gt;Node2</title>
<path fill="none" stroke="midnightblue" d="M1107,-671.805C1107,-662.91 1107,-652.78 1107,-645.751"/>
<polygon fill="midnightblue" stroke="midnightblue" points="1103.5,-672.083 1107,-682.083 1110.5,-672.083 1103.5,-672.083"/>
</g>
<!-- Node3 -->
<g id="node3" class="node"><title>Node3</title>
<g id="a_node3"><a xlink:href="numvect_8h.html" target="_top" xlink:title="fplll/nr/numvect.h">
<polygon fill="white" stroke="black" points="879,-565 879,-584 971,-584 971,-565 879,-565"/>
<text text-anchor="middle" x="925" y="-572" font-family="Helvetica,sans-Serif" font-size="10.00">fplll/nr/numvect.h</text>
</a>
</g>
</g>
<!-- Node2&#45;&gt;Node3 -->
<g id="edge2" class="edge"><title>Node2&#45;&gt;Node3</title>
<path fill="none" stroke="midnightblue" d="M1071,-623.232C1035.63,-611.666 982.495,-594.297 951.028,-584.009"/>
<polygon fill="midnightblue" stroke="midnightblue" points="1070.33,-626.694 1080.92,-626.475 1072.51,-620.041 1070.33,-626.694"/>
</g>
<!-- Node49 -->
<g id="node49" class="node"><title>Node49</title>
<g id="a_node49"><a xlink:href="enumerate__base_8h.html" target="_top" xlink:title="fplll/enum/enumerate\l_base.h">
<polygon fill="white" stroke="black" points="1104.5,-559.5 1104.5,-589.5 1211.5,-589.5 1211.5,-559.5 1104.5,-559.5"/>
<text text-anchor="start" x="1112.5" y="-577.5" font-family="Helvetica,sans-Serif" font-size="10.00">fplll/enum/enumerate</text>
<text text-anchor="middle" x="1158" y="-566.5" font-family="Helvetica,sans-Serif" font-size="10.00">_base.h</text>
</a>
</g>
</g>
<!-- Node2&#45;&gt;Node49 -->
<g id="edge73" class="edge"><title>Node2&#45;&gt;Node49</title>
<path fill="none" stroke="midnightblue" d="M1120.88,-618.811C1128.73,-609.649 1138.45,-598.303 1145.98,-589.523"/>
<polygon fill="midnightblue" stroke="midnightblue" points="1118.16,-616.605 1114.31,-626.475 1123.47,-621.16 1118.16,-616.605"/>
</g>
<!-- Node4 -->
<g id="node4" class="node"><title>Node4</title>
<g id="a_node4"><a xlink:href="matrix_8h.html" target="_top" xlink:title="fplll/nr/matrix.h">
<polygon fill="white" stroke="black" points="793.5,-498 793.5,-517 874.5,-517 874.5,-498 793.5,-498"/>
<text text-anchor="middle" x="834" y="-505" font-family="Helvetica,sans-Serif" font-size="10.00">fplll/nr/matrix.h</text>
</a>
</g>
</g>
<!-- Node3&#45;&gt;Node4 -->
<g id="edge3" class="edge"><title>Node3&#45;&gt;Node4</title>
<path fill="none" stroke="midnightblue" d="M904.587,-558.92C886.597,-546.069 860.995,-527.782 846.078,-517.127"/>
<polygon fill="midnightblue" stroke="midnightblue" points="902.556,-561.769 912.727,-564.734 906.624,-556.073 902.556,-561.769"/>
</g>
<!-- Node5 -->
<g id="node5" class="node"><title>Node5</title>
<g id="a_node5"><a xlink:href="util_8h.html" target="_top" xlink:title="fplll/util.h">
<polygon fill="white" stroke="black" points="898,-436.5 898,-455.5 954,-455.5 954,-436.5 898,-436.5"/>
<text text-anchor="middle" x="926" y="-443.5" font-family="Helvetica,sans-Serif" font-size="10.00">fplll/util.h</text>
</a>
</g>
</g>
<!-- Node4&#45;&gt;Node5 -->
<g id="edge4" class="edge"><title>Node4&#45;&gt;Node5</title>
<path fill="none" stroke="midnightblue" d="M855.756,-492.43C873.492,-480.959 897.96,-465.134 912.843,-455.509"/>
<polygon fill="midnightblue" stroke="midnightblue" points="853.678,-489.606 847.181,-497.975 857.479,-495.483 853.678,-489.606"/>
</g>
<!-- Node32 -->
<g id="node32" class="node"><title>Node32</title>
<g id="a_node32"><a xlink:href="matrix_8cpp.html" target="_top" xlink:title="fplll/nr/matrix.cpp">
<polygon fill="white" stroke="black" points="788,-436.5 788,-455.5 880,-455.5 880,-436.5 788,-436.5"/>
<text text-anchor="middle" x="834" y="-443.5" font-family="Helvetica,sans-Serif" font-size="10.00">fplll/nr/matrix.cpp</text>
</a>
</g>
</g>
<!-- Node4&#45;&gt;Node32 -->
<g id="edge39" class="edge"><title>Node4&#45;&gt;Node32</title>
<path fill="none" stroke="midnightblue" d="M827.683,-487.817C826.797,-476.996 827.27,-463.898 829.103,-455.509"/>
<polygon fill="midnightblue" stroke="midnightblue" points="824.252,-488.554 829.099,-497.975 831.185,-487.588 824.252,-488.554"/>
</g>
<!-- Node33 -->
<g id="node33" class="node"><title>Node33</title>
<g id="a_node33"><a xlink:href="gso_8h.html" target="_top" xlink:title="fplll/gso.h">
<polygon fill="white" stroke="black" points="453.5,-380.5 453.5,-399.5 512.5,-399.5 512.5,-380.5 453.5,-380.5"/>
<text text-anchor="middle" x="483" y="-387.5" font-family="Helvetica,sans-Serif" font-size="10.00">fplll/gso.h</text>
</a>
</g>
</g>
<!-- Node4&#45;&gt;Node33 -->
<g id="edge41" class="edge"><title>Node4&#45;&gt;Node33</title>
<path fill="none" stroke="midnightblue" d="M783.38,-502.496C708.95,-495.863 574.328,-480.81 533,-456 510.296,-442.37 494.189,-414.233 487.078,-399.865"/>
<polygon fill="midnightblue" stroke="midnightblue" points="783.201,-505.993 793.467,-503.376 783.81,-499.02 783.201,-505.993"/>
</g>
<!-- Node39 -->
<g id="node39" class="node"><title>Node39</title>
<g id="a_node39"><a xlink:href="sampler__basic_8h.html" target="_top" xlink:title="fplll/sieve/sampler\l_basic.h">
<polygon fill="white" stroke="black" points="435.5,-313.5 435.5,-343.5 530.5,-343.5 530.5,-313.5 435.5,-313.5"/>
<text text-anchor="start" x="443.5" y="-331.5" font-family="Helvetica,sans-Serif" font-size="10.00">fplll/sieve/sampler</text>
<text text-anchor="middle" x="483" y="-320.5" font-family="Helvetica,sans-Serif" font-size="10.00">_basic.h</text>
</a>
</g>
</g>
<!-- Node4&#45;&gt;Node39 -->
<g id="edge72" class="edge"><title>Node4&#45;&gt;Node39</title>
<path fill="none" stroke="midnightblue" d="M796.524,-494.728C744.632,-477.644 648.835,-443.242 574,-400 545.448,-383.502 515.898,-358.984 498.498,-343.638"/>
<polygon fill="midnightblue" stroke="midnightblue" points="795.705,-498.143 806.298,-497.912 797.873,-491.487 795.705,-498.143"/>
</g>
<!-- Node48 -->
<g id="node48" class="node"><title>Node48</title>
<g id="a_node48"><a xlink:href="wrapper_8h.html" target="_top" xlink:title="fplll/wrapper.h">
<polygon fill="white" stroke="black" points="1345.5,-252 1345.5,-271 1422.5,-271 1422.5,-252 1345.5,-252"/>
<text text-anchor="middle" x="1384" y="-259" font-family="Helvetica,sans-Serif" font-size="10.00">fplll/wrapper.h</text>
</a>
</g>
</g>
<!-- Node4&#45;&gt;Node48 -->
<g id="edge66" class="edge"><title>Node4&#45;&gt;Node48</title>
<path fill="none" stroke="midnightblue" d="M884.686,-501.277C995.688,-488.937 1255.73,-454.828 1323,-400 1365.31,-365.517 1379.19,-295.692 1382.86,-271.215"/>
<polygon fill="midnightblue" stroke="midnightblue" points="884.295,-497.799 874.736,-502.369 885.058,-504.757 884.295,-497.799"/>
</g>
<!-- Node6 -->
<g id="node6" class="node"><title>Node6</title>
<g id="a_node6"><a xlink:href="evaluator_8h.html" target="_top" xlink:title="fplll/enum/evaluator.h">
<polygon fill="white" stroke="black" points="830,-380.5 830,-399.5 940,-399.5 940,-380.5 830,-380.5"/>
<text text-anchor="middle" x="885" y="-387.5" font-family="Helvetica,sans-Serif" font-size="10.00">fplll/enum/evaluator.h</text>
</a>
</g>
</g>
<!-- Node5&#45;&gt;Node6 -->
<g id="edge5" class="edge"><title>Node5&#45;&gt;Node6</title>
<path fill="none" stroke="midnightblue" d="M912.983,-427.855C905.883,-418.505 897.396,-407.327 891.644,-399.751"/>
<polygon fill="midnightblue" stroke="midnightblue" points="910.395,-430.235 919.23,-436.083 915.97,-426.002 910.395,-430.235"/>
</g>
<!-- Node8 -->
<g id="node8" class="node"><title>Node8</title>
<g id="a_node8"><a xlink:href="bkz_8cpp.html" target="_top" xlink:title="fplll/bkz.cpp">
<polygon fill="white" stroke="black" points="1061.5,-185 1061.5,-204 1130.5,-204 1130.5,-185 1061.5,-185"/>
<text text-anchor="middle" x="1096" y="-192" font-family="Helvetica,sans-Serif" font-size="10.00">fplll/bkz.cpp</text>
</a>
</g>
</g>
<!-- Node5&#45;&gt;Node8 -->
<g id="edge26" class="edge"><title>Node5&#45;&gt;Node8</title>
<path fill="none" stroke="midnightblue" d="M947.037,-430.472C971.22,-413.899 1009.56,-388.052 1025,-380 1063.2,-360.078 1090.85,-379.674 1115,-344 1145.45,-299.018 1113.52,-228.505 1100.77,-204.13"/>
<polygon fill="midnightblue" stroke="midnightblue" points="944.797,-427.764 938.539,-436.313 948.762,-433.533 944.797,-427.764"/>
</g>
<!-- Node9 -->
<g id="node9" class="node"><title>Node9</title>
<g id="a_node9"><a xlink:href="fplll_8h.html" target="_top" xlink:title="fplll/fplll.h">
<polygon fill="white" stroke="black" points="835,-185 835,-204 893,-204 893,-185 835,-185"/>
<text text-anchor="middle" x="864" y="-192" font-family="Helvetica,sans-Serif" font-size="10.00">fplll/fplll.h</text>
</a>
</g>
</g>
<!-- Node5&#45;&gt;Node9 -->
<g id="edge30" class="edge"><title>Node5&#45;&gt;Node9</title>
<path fill="none" stroke="midnightblue" d="M887.605,-436.214C811.149,-426.432 646.872,-445.286 607,-400 581.448,-370.979 593.192,-349.117 607,-313 621.275,-275.663 632.833,-266.747 667,-246 720.568,-213.473 794.56,-201.774 834.9,-197.658"/>
<polygon fill="midnightblue" stroke="midnightblue" points="887.37,-439.719 897.788,-437.794 888.443,-432.802 887.37,-439.719"/>
</g>
<!-- Node24 -->
<g id="node24" class="node"><title>Node24</title>
<g id="a_node24"><a xlink:href="topenum_8h.html" target="_top" xlink:title="fplll/enum/topenum.h">
<polygon fill="white" stroke="black" points="1186.5,-380.5 1186.5,-399.5 1293.5,-399.5 1293.5,-380.5 1186.5,-380.5"/>
<text text-anchor="middle" x="1240" y="-387.5" font-family="Helvetica,sans-Serif" font-size="10.00">fplll/enum/topenum.h</text>
</a>
</g>
</g>
<!-- Node5&#45;&gt;Node24 -->
<g id="edge27" class="edge"><title>Node5&#45;&gt;Node24</title>
<path fill="none" stroke="midnightblue" d="M964.135,-438.442C1020.88,-428.683 1127.59,-410.332 1190.36,-399.537"/>
<polygon fill="midnightblue" stroke="midnightblue" points="963.404,-435.016 954.142,-440.16 964.59,-441.915 963.404,-435.016"/>
</g>
<!-- Node26 -->
<g id="node26" class="node"><title>Node26</title>
<g id="a_node26"><a xlink:href="svpcvp_8h.html" target="_top" xlink:title="fplll/svpcvp.h">
<polygon fill="white" stroke="black" points="1032,-319 1032,-338 1106,-338 1106,-319 1032,-319"/>
<text text-anchor="middle" x="1069" y="-326" font-family="Helvetica,sans-Serif" font-size="10.00">fplll/svpcvp.h</text>
</a>
</g>
</g>
<!-- Node5&#45;&gt;Node26 -->
<g id="edge31" class="edge"><title>Node5&#45;&gt;Node26</title>
<path fill="none" stroke="midnightblue" d="M940.737,-428.787C953.61,-415.053 973.139,-395.225 992,-380 1012.28,-363.633 1037.95,-347.635 1053.93,-338.172"/>
<polygon fill="midnightblue" stroke="midnightblue" points="937.866,-426.736 933.647,-436.455 943.006,-431.488 937.866,-426.736"/>
</g>
<!-- Node27 -->
<g id="node27" class="node"><title>Node27</title>
<g id="a_node27"><a xlink:href="latticegen_8cpp.html" target="_top" xlink:title="fplll/latticegen.cpp">
<polygon fill="white" stroke="black" points="1034.5,-380.5 1034.5,-399.5 1129.5,-399.5 1129.5,-380.5 1034.5,-380.5"/>
<text text-anchor="middle" x="1082" y="-387.5" font-family="Helvetica,sans-Serif" font-size="10.00">fplll/latticegen.cpp</text>
</a>
</g>
</g>
<!-- Node5&#45;&gt;Node27 -->
<g id="edge34" class="edge"><title>Node5&#45;&gt;Node27</title>
<path fill="none" stroke="midnightblue" d="M960.17,-433.172C989.544,-423.004 1031.2,-408.585 1057.4,-399.516"/>
<polygon fill="midnightblue" stroke="midnightblue" points="959.024,-429.865 950.719,-436.444 961.313,-436.48 959.024,-429.865"/>
</g>
<!-- Node28 -->
<g id="node28" class="node"><title>Node28</title>
<g id="a_node28"><a xlink:href="lll_8cpp.html" target="_top" xlink:title="fplll/lll.cpp">
<polygon fill="white" stroke="black" points="712,-252 712,-271 772,-271 772,-252 712,-252"/>
<text text-anchor="middle" x="742" y="-259" font-family="Helvetica,sans-Serif" font-size="10.00">fplll/lll.cpp</text>
</a>
</g>
</g>
<!-- Node5&#45;&gt;Node28 -->
<g id="edge35" class="edge"><title>Node5&#45;&gt;Node28</title>
<path fill="none" stroke="midnightblue" d="M895.049,-432.496C873.983,-423.8 845.575,-411.711 821,-400 803.771,-391.79 799.931,-388.809 783,-380 751.965,-363.853 731.223,-373.863 713,-344 698.136,-319.642 721.31,-286.547 734.247,-271.101"/>
<polygon fill="midnightblue" stroke="midnightblue" points="893.88,-435.799 904.46,-436.357 896.537,-429.323 893.88,-435.799"/>
</g>
<!-- Node29 -->
<g id="node29" class="node"><title>Node29</title>
<g id="a_node29"><a xlink:href="llldiff_8cpp.html" target="_top" xlink:title="fplll/llldiff.cpp">
<polygon fill="white" stroke="black" points="616,-380.5 616,-399.5 690,-399.5 690,-380.5 616,-380.5"/>
<text text-anchor="middle" x="653" y="-387.5" font-family="Helvetica,sans-Serif" font-size="10.00">fplll/llldiff.cpp</text>
</a>
</g>
</g>
<!-- Node5&#45;&gt;Node29 -->
<g id="edge36" class="edge"><title>Node5&#45;&gt;Node29</title>
<path fill="none" stroke="midnightblue" d="M887.97,-435.86C803.351,-417.703 780.347,-415.664 699,-400 696.123,-399.446 693.146,-398.87 690.153,-398.289"/>
<polygon fill="midnightblue" stroke="midnightblue" points="887.239,-439.282 897.753,-437.971 888.716,-432.44 887.239,-439.282"/>
</g>
<!-- Node30 -->
<g id="node30" class="node"><title>Node30</title>
<g id="a_node30"><a xlink:href="util_8cpp.html" target="_top" xlink:title="fplll/util.cpp">
<polygon fill="white" stroke="black" points="708,-380.5 708,-399.5 774,-399.5 774,-380.5 708,-380.5"/>
<text text-anchor="middle" x="741" y="-387.5" font-family="Helvetica,sans-Serif" font-size="10.00">fplll/util.cpp</text>
</a>
</g>
</g>
<!-- Node5&#45;&gt;Node30 -->
<g id="edge37" class="edge"><title>Node5&#45;&gt;Node30</title>
<path fill="none" stroke="midnightblue" d="M888.073,-433.929C853.171,-423.742 802.136,-408.845 770.28,-399.547"/>
<polygon fill="midnightblue" stroke="midnightblue" points="887.322,-437.356 897.902,-436.799 889.284,-430.637 887.322,-437.356"/>
</g>
<!-- Node31 -->
<g id="node31" class="node"><title>Node31</title>
<g id="a_node31"><a xlink:href="wrapper_8cpp.html" target="_top" xlink:title="fplll/wrapper.cpp">
<polygon fill="white" stroke="black" points="1233,-185 1233,-204 1321,-204 1321,-185 1233,-185"/>
<text text-anchor="middle" x="1277" y="-192" font-family="Helvetica,sans-Serif" font-size="10.00">fplll/wrapper.cpp</text>
</a>
</g>
</g>
<!-- Node5&#45;&gt;Node31 -->
<g id="edge38" class="edge"><title>Node5&#45;&gt;Node31</title>
<path fill="none" stroke="midnightblue" d="M964.44,-443.132C1055.59,-438.324 1278.95,-424.174 1302,-400 1355.56,-343.821 1300.35,-235.945 1282.29,-204.381"/>
<polygon fill="midnightblue" stroke="midnightblue" points="964.061,-439.647 954.255,-443.659 964.423,-446.638 964.061,-439.647"/>
</g>
<!-- Node7 -->
<g id="node7" class="node"><title>Node7</title>
<g id="a_node7"><a xlink:href="bkz_8h.html" target="_top" xlink:title="fplll/bkz.h">
<polygon fill="white" stroke="black" points="821.5,-252 821.5,-271 880.5,-271 880.5,-252 821.5,-252"/>
<text text-anchor="middle" x="851" y="-259" font-family="Helvetica,sans-Serif" font-size="10.00">fplll/bkz.h</text>
</a>
</g>
</g>
<!-- Node6&#45;&gt;Node7 -->
<g id="edge6" class="edge"><title>Node6&#45;&gt;Node7</title>
<path fill="none" stroke="midnightblue" d="M879.976,-370.306C872.522,-342.576 858.829,-291.628 853.353,-271.256"/>
<polygon fill="midnightblue" stroke="midnightblue" points="876.687,-371.556 882.663,-380.305 883.447,-369.739 876.687,-371.556"/>
</g>
<!-- Node20 -->
<g id="node20" class="node"><title>Node20</title>
<g id="a_node20"><a xlink:href="enumerate_8h.html" target="_top" xlink:title="fplll/enum/enumerate.h">
<polygon fill="white" stroke="black" points="898,-319 898,-338 1014,-338 1014,-319 898,-319"/>
<text text-anchor="middle" x="956" y="-326" font-family="Helvetica,sans-Serif" font-size="10.00">fplll/enum/enumerate.h</text>
</a>
</g>
</g>
<!-- Node6&#45;&gt;Node20 -->
<g id="edge19" class="edge"><title>Node6&#45;&gt;Node20</title>
<path fill="none" stroke="midnightblue" d="M902.932,-373.973C916.511,-362.593 934.677,-347.369 945.846,-338.009"/>
<polygon fill="midnightblue" stroke="midnightblue" points="900.589,-371.369 895.173,-380.475 905.085,-376.735 900.589,-371.369"/>
</g>
<!-- Node23 -->
<g id="node23" class="node"><title>Node23</title>
<g id="a_node23"><a xlink:href="evaluator_8cpp.html" target="_top" xlink:title="fplll/enum/evaluator.cpp">
<polygon fill="white" stroke="black" points="722,-319 722,-338 842,-338 842,-319 722,-319"/>
<text text-anchor="middle" x="782" y="-326" font-family="Helvetica,sans-Serif" font-size="10.00">fplll/enum/evaluator.cpp</text>
</a>
</g>
</g>
<!-- Node6&#45;&gt;Node23 -->
<g id="edge25" class="edge"><title>Node6&#45;&gt;Node23</title>
<path fill="none" stroke="midnightblue" d="M861.458,-375.401C841.542,-363.896 813.621,-347.767 796.73,-338.009"/>
<polygon fill="midnightblue" stroke="midnightblue" points="859.833,-378.504 870.243,-380.475 863.334,-372.442 859.833,-378.504"/>
</g>
<!-- Node7&#45;&gt;Node8 -->
<g id="edge7" class="edge"><title>Node7&#45;&gt;Node8</title>
<path fill="none" stroke="midnightblue" d="M882.149,-248.556C884.792,-247.654 887.434,-246.789 890,-246 949.485,-227.718 1020.21,-211.566 1061.41,-202.699"/>
<polygon fill="midnightblue" stroke="midnightblue" points="880.955,-245.266 872.712,-251.922 883.307,-251.859 880.955,-245.266"/>
</g>
<!-- Node7&#45;&gt;Node9 -->
<g id="edge8" class="edge"><title>Node7&#45;&gt;Node9</title>
<path fill="none" stroke="midnightblue" d="M854.717,-241.915C857.202,-229.488 860.357,-213.717 862.275,-204.127"/>
<polygon fill="midnightblue" stroke="midnightblue" points="851.282,-241.242 852.753,-251.734 858.147,-242.614 851.282,-241.242"/>
</g>
<!-- Node10 -->
<g id="node10" class="node"><title>Node10</title>
<g id="a_node10"><a xlink:href="fplll_8cpp.html" target="_top" xlink:title="fplll/fplll.cpp">
<polygon fill="white" stroke="black" points="1284,-123.5 1284,-142.5 1352,-142.5 1352,-123.5 1284,-123.5"/>
<text text-anchor="middle" x="1318" y="-130.5" font-family="Helvetica,sans-Serif" font-size="10.00">fplll/fplll.cpp</text>
</a>
</g>
</g>
<!-- Node9&#45;&gt;Node10 -->
<g id="edge9" class="edge"><title>Node9&#45;&gt;Node10</title>
<path fill="none" stroke="midnightblue" d="M903.169,-189.795C976.443,-182.619 1139.13,-165.526 1275,-143 1277.86,-142.526 1280.82,-141.994 1283.78,-141.433"/>
<polygon fill="midnightblue" stroke="midnightblue" points="902.636,-186.33 893.021,-190.781 903.313,-193.297 902.636,-186.33"/>
</g>
<!-- Node11 -->
<g id="node11" class="node"><title>Node11</title>
<g id="a_node11"><a xlink:href="main_8h.html" target="_top" xlink:title="fplll/main.h">
<polygon fill="white" stroke="black" points="1202,-123.5 1202,-142.5 1266,-142.5 1266,-123.5 1202,-123.5"/>
<text text-anchor="middle" x="1234" y="-130.5" font-family="Helvetica,sans-Serif" font-size="10.00">fplll/main.h</text>
</a>
</g>
</g>
<!-- Node9&#45;&gt;Node11 -->
<g id="edge10" class="edge"><title>Node9&#45;&gt;Node11</title>
<path fill="none" stroke="midnightblue" d="M903.243,-188.301C965.063,-179.926 1088.82,-162.41 1193,-143 1195.87,-142.466 1198.84,-141.879 1201.81,-141.269"/>
<polygon fill="midnightblue" stroke="midnightblue" points="902.595,-184.857 893.152,-189.662 903.53,-191.794 902.595,-184.857"/>
</g>
<!-- Node13 -->
<g id="node13" class="node"><title>Node13</title>
<g id="a_node13"><a xlink:href="sieve__main_8cpp.html" target="_top" xlink:title="fplll/sieve/sieve_main.cpp">
<polygon fill="white" stroke="black" points="938.5,-123.5 938.5,-142.5 1067.5,-142.5 1067.5,-123.5 938.5,-123.5"/>
<text text-anchor="middle" x="1003" y="-130.5" font-family="Helvetica,sans-Serif" font-size="10.00">fplll/sieve/sieve_main.cpp</text>
</a>
</g>
</g>
<!-- Node9&#45;&gt;Node13 -->
<g id="edge12" class="edge"><title>Node9&#45;&gt;Node13</title>
<path fill="none" stroke="midnightblue" d="M893.25,-180.98C920.245,-169.424 959.604,-152.576 983.122,-142.509"/>
<polygon fill="midnightblue" stroke="midnightblue" points="891.731,-177.822 883.915,-184.975 894.486,-184.257 891.731,-177.822"/>
</g>
<!-- Node14 -->
<g id="node14" class="node"><title>Node14</title>
<g id="a_node14"><a xlink:href="test__bkz_8cpp.html" target="_top" xlink:title="tests/test_bkz.cpp">
<polygon fill="white" stroke="black" points="1086,-123.5 1086,-142.5 1184,-142.5 1184,-123.5 1086,-123.5"/>
<text text-anchor="middle" x="1135" y="-130.5" font-family="Helvetica,sans-Serif" font-size="10.00">tests/test_bkz.cpp</text>
</a>
</g>
</g>
<!-- Node9&#45;&gt;Node14 -->
<g id="edge13" class="edge"><title>Node9&#45;&gt;Node14</title>
<path fill="none" stroke="midnightblue" d="M903.081,-184.92C954.631,-173.601 1044.82,-153.801 1096.22,-142.515"/>
<polygon fill="midnightblue" stroke="midnightblue" points="902.019,-181.569 893.002,-187.132 903.52,-188.406 902.019,-181.569"/>
</g>
<!-- Node15 -->
<g id="node15" class="node"><title>Node15</title>
<g id="a_node15"><a xlink:href="test__lll_8cpp.html" target="_top" xlink:title="tests/test_lll.cpp">
<polygon fill="white" stroke="black" points="355.5,-123.5 355.5,-142.5 444.5,-142.5 444.5,-123.5 355.5,-123.5"/>
<text text-anchor="middle" x="400" y="-130.5" font-family="Helvetica,sans-Serif" font-size="10.00">tests/test_lll.cpp</text>
</a>
</g>
</g>
<!-- Node9&#45;&gt;Node15 -->
<g id="edge14" class="edge"><title>Node9&#45;&gt;Node15</title>
<path fill="none" stroke="midnightblue" d="M824.736,-189.227C751.647,-181.149 589.809,-162.672 454,-143 450.99,-142.564 447.889,-142.096 444.766,-141.612"/>
<polygon fill="midnightblue" stroke="midnightblue" points="824.539,-192.727 834.862,-190.343 825.306,-185.769 824.539,-192.727"/>
</g>
<!-- Node16 -->
<g id="node16" class="node"><title>Node16</title>
<g id="a_node16"><a xlink:href="test__nr_8cpp.html" target="_top" xlink:title="tests/test_nr.cpp">
<polygon fill="white" stroke="black" points="463,-123.5 463,-142.5 553,-142.5 553,-123.5 463,-123.5"/>
<text text-anchor="middle" x="508" y="-130.5" font-family="Helvetica,sans-Serif" font-size="10.00">tests/test_nr.cpp</text>
</a>
</g>
</g>
<!-- Node9&#45;&gt;Node16 -->
<g id="edge15" class="edge"><title>Node9&#45;&gt;Node16</title>
<path fill="none" stroke="midnightblue" d="M824.793,-186.947C758.252,-175.826 623.6,-153.321 553.199,-141.554"/>
<polygon fill="midnightblue" stroke="midnightblue" points="824.427,-190.434 834.867,-188.631 825.581,-183.53 824.427,-190.434"/>
</g>
<!-- Node17 -->
<g id="node17" class="node"><title>Node17</title>
<g id="a_node17"><a xlink:href="test__pruner_8cpp.html" target="_top" xlink:title="tests/test_pruner.cpp">
<polygon fill="white" stroke="black" points="571.5,-123.5 571.5,-142.5 680.5,-142.5 680.5,-123.5 571.5,-123.5"/>
<text text-anchor="middle" x="626" y="-130.5" font-family="Helvetica,sans-Serif" font-size="10.00">tests/test_pruner.cpp</text>
</a>
</g>
</g>
<!-- Node9&#45;&gt;Node17 -->
<g id="edge16" class="edge"><title>Node9&#45;&gt;Node17</title>
<path fill="none" stroke="midnightblue" d="M824.936,-183.734C779.04,-172.26 703.637,-153.409 660.036,-142.509"/>
<polygon fill="midnightblue" stroke="midnightblue" points="824.266,-187.174 834.817,-186.204 825.964,-180.383 824.266,-187.174"/>
</g>
<!-- Node18 -->
<g id="node18" class="node"><title>Node18</title>
<g id="a_node18"><a xlink:href="test__sieve_8cpp.html" target="_top" xlink:title="tests/test_sieve.cpp">
<polygon fill="white" stroke="black" points="698.5,-123.5 698.5,-142.5 803.5,-142.5 803.5,-123.5 698.5,-123.5"/>
<text text-anchor="middle" x="751" y="-130.5" font-family="Helvetica,sans-Serif" font-size="10.00">tests/test_sieve.cpp</text>
</a>
</g>
</g>
<!-- Node9&#45;&gt;Node18 -->
<g id="edge17" class="edge"><title>Node9&#45;&gt;Node18</title>
<path fill="none" stroke="midnightblue" d="M838.764,-180.212C816.878,-168.688 785.859,-152.355 767.16,-142.509"/>
<polygon fill="midnightblue" stroke="midnightblue" points="837.331,-183.413 847.81,-184.975 840.592,-177.219 837.331,-183.413"/>
</g>
<!-- Node19 -->
<g id="node19" class="node"><title>Node19</title>
<g id="a_node19"><a xlink:href="test__svp_8cpp.html" target="_top" xlink:title="tests/test_svp.cpp">
<polygon fill="white" stroke="black" points="822,-123.5 822,-142.5 920,-142.5 920,-123.5 822,-123.5"/>
<text text-anchor="middle" x="871" y="-130.5" font-family="Helvetica,sans-Serif" font-size="10.00">tests/test_svp.cpp</text>
</a>
</g>
</g>
<!-- Node9&#45;&gt;Node19 -->
<g id="edge18" class="edge"><title>Node9&#45;&gt;Node19</title>
<path fill="none" stroke="midnightblue" d="M866.198,-174.817C867.471,-163.996 869.012,-150.898 869.999,-142.509"/>
<polygon fill="midnightblue" stroke="midnightblue" points="862.695,-174.635 865.003,-184.975 869.647,-175.453 862.695,-174.635"/>
</g>
<!-- Node12 -->
<g id="node12" class="node"><title>Node12</title>
<g id="a_node12"><a xlink:href="main_8cpp.html" target="_top" xlink:title="fplll/main.cpp">
<polygon fill="white" stroke="black" points="1197,-62 1197,-81 1271,-81 1271,-62 1197,-62"/>
<text text-anchor="middle" x="1234" y="-69" font-family="Helvetica,sans-Serif" font-size="10.00">fplll/main.cpp</text>
</a>
</g>
</g>
<!-- Node11&#45;&gt;Node12 -->
<g id="edge11" class="edge"><title>Node11&#45;&gt;Node12</title>
<path fill="none" stroke="midnightblue" d="M1234,-113.317C1234,-102.496 1234,-89.398 1234,-81.0091"/>
<polygon fill="midnightblue" stroke="midnightblue" points="1230.5,-113.475 1234,-123.475 1237.5,-113.475 1230.5,-113.475"/>
</g>
<!-- Node20&#45;&gt;Node7 -->
<g id="edge20" class="edge"><title>Node20&#45;&gt;Node7</title>
<path fill="none" stroke="midnightblue" d="M933.291,-313.442C912.497,-300.57 882.383,-281.927 864.936,-271.127"/>
<polygon fill="midnightblue" stroke="midnightblue" points="931.494,-316.446 941.839,-318.734 935.179,-310.494 931.494,-316.446"/>
</g>
<!-- Node20&#45;&gt;Node8 -->
<g id="edge21" class="edge"><title>Node20&#45;&gt;Node8</title>
<path fill="none" stroke="midnightblue" d="M981.548,-313.985C997.596,-304.794 1018.18,-291.668 1034,-277 1058.9,-253.916 1081.16,-219.91 1090.85,-204.13"/>
<polygon fill="midnightblue" stroke="midnightblue" points="979.722,-310.996 972.694,-318.924 983.132,-317.109 979.722,-310.996"/>
</g>
<!-- Node21 -->
<g id="node21" class="node"><title>Node21</title>
<g id="a_node21"><a xlink:href="enumerate_8cpp.html" target="_top" xlink:title="fplll/enum/enumerate.cpp">
<polygon fill="white" stroke="black" points="899,-252 899,-271 1025,-271 1025,-252 899,-252"/>
<text text-anchor="middle" x="962" y="-259" font-family="Helvetica,sans-Serif" font-size="10.00">fplll/enum/enumerate.cpp</text>
</a>
</g>
</g>
<!-- Node20&#45;&gt;Node21 -->
<g id="edge22" class="edge"><title>Node20&#45;&gt;Node21</title>
<path fill="none" stroke="midnightblue" d="M957.75,-308.537C958.892,-296.17 960.327,-280.62 961.204,-271.127"/>
<polygon fill="midnightblue" stroke="midnightblue" points="954.243,-308.454 956.809,-318.734 961.214,-309.098 954.243,-308.454"/>
</g>
<!-- Node22 -->
<g id="node22" class="node"><title>Node22</title>
<g id="a_node22"><a xlink:href="svpcvp_8cpp.html" target="_top" xlink:title="fplll/svpcvp.cpp">
<polygon fill="white" stroke="black" points="1162.5,-252 1162.5,-271 1247.5,-271 1247.5,-252 1162.5,-252"/>
<text text-anchor="middle" x="1205" y="-259" font-family="Helvetica,sans-Serif" font-size="10.00">fplll/svpcvp.cpp</text>
</a>
</g>
</g>
<!-- Node20&#45;&gt;Node22 -->
<g id="edge23" class="edge"><title>Node20&#45;&gt;Node22</title>
<path fill="none" stroke="midnightblue" d="M998.507,-316.404C1047.65,-303.576 1127.48,-282.736 1172.12,-271.083"/>
<polygon fill="midnightblue" stroke="midnightblue" points="997.6,-313.023 988.808,-318.936 999.368,-319.796 997.6,-313.023"/>
</g>
<!-- Node22&#45;&gt;Node10 -->
<g id="edge24" class="edge"><title>Node22&#45;&gt;Node10</title>
<path fill="none" stroke="midnightblue" d="M1204.9,-241.767C1205.74,-223.833 1209.6,-196.926 1224,-179 1238.96,-160.38 1263.48,-148.997 1283.73,-142.339"/>
<polygon fill="midnightblue" stroke="midnightblue" points="1201.4,-241.775 1204.69,-251.844 1208.4,-241.916 1201.4,-241.775"/>
</g>
<!-- Node24&#45;&gt;Node22 -->
<g id="edge29" class="edge"><title>Node24&#45;&gt;Node22</title>
<path fill="none" stroke="midnightblue" d="M1263.1,-374.354C1273.04,-366.659 1283.61,-356.268 1289,-344 1294.54,-331.386 1295.78,-324.992 1289,-313 1277.1,-291.969 1252.56,-278.731 1233.06,-271.112"/>
<polygon fill="midnightblue" stroke="midnightblue" points="1260.75,-371.73 1254.66,-380.402 1264.83,-377.419 1260.75,-371.73"/>
</g>
<!-- Node25 -->
<g id="node25" class="node"><title>Node25</title>
<g id="a_node25"><a xlink:href="topenum_8cpp.html" target="_top" xlink:title="fplll/enum/topenum.cpp">
<polygon fill="white" stroke="black" points="1162,-319 1162,-338 1280,-338 1280,-319 1162,-319"/>
<text text-anchor="middle" x="1221" y="-326" font-family="Helvetica,sans-Serif" font-size="10.00">fplll/enum/topenum.cpp</text>
</a>
</g>
</g>
<!-- Node24&#45;&gt;Node25 -->
<g id="edge28" class="edge"><title>Node24&#45;&gt;Node25</title>
<path fill="none" stroke="midnightblue" d="M1234.14,-370.657C1230.67,-359.772 1226.42,-346.486 1223.72,-338.009"/>
<polygon fill="midnightblue" stroke="midnightblue" points="1230.9,-372.014 1237.28,-380.475 1237.57,-369.884 1230.9,-372.014"/>
</g>
<!-- Node26&#45;&gt;Node9 -->
<g id="edge32" class="edge"><title>Node26&#45;&gt;Node9</title>
<path fill="none" stroke="midnightblue" d="M1065.8,-309.109C1061.64,-290.608 1052.57,-262.519 1034,-246 994.086,-210.498 930.189,-199.922 893.151,-196.793"/>
<polygon fill="midnightblue" stroke="midnightblue" points="1062.38,-309.843 1067.76,-318.968 1069.25,-308.477 1062.38,-309.843"/>
</g>
<!-- Node26&#45;&gt;Node22 -->
<g id="edge33" class="edge"><title>Node26&#45;&gt;Node22</title>
<path fill="none" stroke="midnightblue" d="M1096.32,-314.444C1123.26,-301.569 1163.66,-282.257 1186.87,-271.167"/>
<polygon fill="midnightblue" stroke="midnightblue" points="1094.57,-311.398 1087.06,-318.869 1097.59,-317.714 1094.57,-311.398"/>
</g>
<!-- Node32&#45;&gt;Node4 -->
<g id="edge40" class="edge"><title>Node32&#45;&gt;Node4</title>
<path fill="none" stroke="midnightblue" d="M840.315,-465.663C841.203,-476.481 840.732,-489.58 838.901,-497.975"/>
<polygon fill="midnightblue" stroke="midnightblue" points="843.746,-464.929 838.897,-455.509 836.814,-465.897 843.746,-464.929"/>
</g>
<!-- Node33&#45;&gt;Node20 -->
<g id="edge42" class="edge"><title>Node33&#45;&gt;Node20</title>
<path fill="none" stroke="midnightblue" d="M522.783,-384.341C590.307,-376.386 731.647,-359.537 851,-344 866.237,-342.016 882.705,-339.784 897.98,-337.677"/>
<polygon fill="midnightblue" stroke="midnightblue" points="522.117,-380.895 512.594,-385.539 522.935,-387.847 522.117,-380.895"/>
</g>
<!-- Node34 -->
<g id="node34" class="node"><title>Node34</title>
<g id="a_node34"><a xlink:href="lll_8h.html" target="_top" xlink:title="fplll/lll.h">
<polygon fill="white" stroke="black" points="616,-319 616,-338 666,-338 666,-319 616,-319"/>
<text text-anchor="middle" x="641" y="-326" font-family="Helvetica,sans-Serif" font-size="10.00">fplll/lll.h</text>
</a>
</g>
</g>
<!-- Node33&#45;&gt;Node34 -->
<g id="edge43" class="edge"><title>Node33&#45;&gt;Node34</title>
<path fill="none" stroke="midnightblue" d="M515.044,-376.933C545.753,-365.368 591.321,-348.208 618.404,-338.009"/>
<polygon fill="midnightblue" stroke="midnightblue" points="513.762,-373.675 505.638,-380.475 516.229,-380.226 513.762,-373.675"/>
</g>
<!-- Node35 -->
<g id="node35" class="node"><title>Node35</title>
<g id="a_node35"><a xlink:href="pruner_8h.html" target="_top" xlink:title="fplll/pruner.h">
<polygon fill="white" stroke="black" points="346,-319 346,-338 416,-338 416,-319 346,-319"/>
<text text-anchor="middle" x="381" y="-326" font-family="Helvetica,sans-Serif" font-size="10.00">fplll/pruner.h</text>
</a>
</g>
</g>
<!-- Node33&#45;&gt;Node35 -->
<g id="edge47" class="edge"><title>Node33&#45;&gt;Node35</title>
<path fill="none" stroke="midnightblue" d="M459.687,-375.401C439.964,-363.896 412.314,-347.767 395.587,-338.009"/>
<polygon fill="midnightblue" stroke="midnightblue" points="457.985,-378.46 468.386,-380.475 461.512,-372.413 457.985,-378.46"/>
</g>
<!-- Node37 -->
<g id="node37" class="node"><title>Node37</title>
<g id="a_node37"><a xlink:href="pruner_8cpp.html" target="_top" xlink:title="fplll/pruner.cpp">
<polygon fill="white" stroke="black" points="0,-252 0,-271 80,-271 80,-252 0,-252"/>
<text text-anchor="middle" x="40" y="-259" font-family="Helvetica,sans-Serif" font-size="10.00">fplll/pruner.cpp</text>
</a>
</g>
</g>
<!-- Node33&#45;&gt;Node37 -->
<g id="edge52" class="edge"><title>Node33&#45;&gt;Node37</title>
<path fill="none" stroke="midnightblue" d="M443.706,-381.089C413.397,-374.01 371.042,-361.952 337,-344 317.414,-333.671 318.208,-322.051 298,-313 211.977,-274.472 180.793,-298.41 89,-277 81.7426,-275.307 73.9723,-273.164 66.807,-271.049"/>
<polygon fill="midnightblue" stroke="midnightblue" points="442.968,-384.51 453.493,-383.3 444.51,-377.682 442.968,-384.51"/>
</g>
<!-- Node38 -->
<g id="node38" class="node"><title>Node38</title>
<g id="a_node38"><a xlink:href="gso_8cpp.html" target="_top" xlink:title="fplll/gso.cpp">
<polygon fill="white" stroke="black" points="220.5,-319 220.5,-338 289.5,-338 289.5,-319 220.5,-319"/>
<text text-anchor="middle" x="255" y="-326" font-family="Helvetica,sans-Serif" font-size="10.00">fplll/gso.cpp</text>
</a>
</g>
</g>
<!-- Node33&#45;&gt;Node38 -->
<g id="edge51" class="edge"><title>Node33&#45;&gt;Node38</title>
<path fill="none" stroke="midnightblue" d="M443.723,-379.621C407.374,-370.825 351.887,-357.099 304,-344 297.24,-342.151 289.986,-340.062 283.186,-338.058"/>
<polygon fill="midnightblue" stroke="midnightblue" points="442.903,-383.024 453.445,-381.967 444.545,-376.219 442.903,-383.024"/>
</g>
<!-- Node33&#45;&gt;Node39 -->
<g id="edge53" class="edge"><title>Node33&#45;&gt;Node39</title>
<path fill="none" stroke="midnightblue" d="M483,-370.235C483,-361.586 483,-351.497 483,-343.523"/>
<polygon fill="midnightblue" stroke="midnightblue" points="479.5,-370.475 483,-380.475 486.5,-370.475 479.5,-370.475"/>
</g>
<!-- Node34&#45;&gt;Node7 -->
<g id="edge44" class="edge"><title>Node34&#45;&gt;Node7</title>
<path fill="none" stroke="midnightblue" d="M675.987,-316.671C717.346,-303.869 785.331,-282.826 823.245,-271.091"/>
<polygon fill="midnightblue" stroke="midnightblue" points="674.849,-313.359 666.331,-319.659 676.919,-320.046 674.849,-313.359"/>
</g>
<!-- Node34&#45;&gt;Node28 -->
<g id="edge45" class="edge"><title>Node34&#45;&gt;Node28</title>
<path fill="none" stroke="midnightblue" d="M663.113,-313.269C683.105,-300.403 711.888,-281.879 728.594,-271.127"/>
<polygon fill="midnightblue" stroke="midnightblue" points="661.136,-310.379 654.621,-318.734 664.925,-316.265 661.136,-310.379"/>
</g>
<!-- Node34&#45;&gt;Node31 -->
<g id="edge46" class="edge"><title>Node34&#45;&gt;Node31</title>
<path fill="none" stroke="midnightblue" d="M648.981,-309.672C658.704,-290.294 677.099,-260.198 703,-246 788.251,-199.27 1042.21,-219.08 1139,-210 1170.42,-207.053 1205.82,-203.325 1232.9,-200.387"/>
<polygon fill="midnightblue" stroke="midnightblue" points="645.713,-308.393 644.585,-318.928 652.037,-311.396 645.713,-308.393"/>
</g>
<!-- Node35&#45;&gt;Node9 -->
<g id="edge49" class="edge"><title>Node35&#45;&gt;Node9</title>
<path fill="none" stroke="midnightblue" d="M379.676,-308.714C379.476,-289.894 382.448,-261.553 400,-246 432.636,-217.081 738.428,-201.091 834.953,-196.733"/>
<polygon fill="midnightblue" stroke="midnightblue" points="376.182,-308.917 380.091,-318.764 383.176,-308.628 376.182,-308.917"/>
</g>
<!-- Node36 -->
<g id="node36" class="node"><title>Node36</title>
<g id="a_node36"><a xlink:href="bkz__param_8cpp.html" target="_top" xlink:title="fplll/bkz_param.cpp">
<polygon fill="white" stroke="black" points="98.5,-252 98.5,-271 199.5,-271 199.5,-252 98.5,-252"/>
<text text-anchor="middle" x="149" y="-259" font-family="Helvetica,sans-Serif" font-size="10.00">fplll/bkz_param.cpp</text>
</a>
</g>
</g>
<!-- Node35&#45;&gt;Node36 -->
<g id="edge48" class="edge"><title>Node35&#45;&gt;Node36</title>
<path fill="none" stroke="midnightblue" d="M342.885,-316.146C339.209,-315.074 335.535,-314.011 332,-313 279.08,-297.87 217.328,-280.989 180.787,-271.081"/>
<polygon fill="midnightblue" stroke="midnightblue" points="341.943,-319.518 352.524,-318.977 343.916,-312.801 341.943,-319.518"/>
</g>
<!-- Node35&#45;&gt;Node37 -->
<g id="edge50" class="edge"><title>Node35&#45;&gt;Node37</title>
<path fill="none" stroke="midnightblue" d="M344.857,-316.184C340.547,-315.019 336.191,-313.926 332,-313 225.391,-289.452 195.609,-300.548 89,-277 81.55,-275.354 73.5756,-273.178 66.27,-271.013"/>
<polygon fill="midnightblue" stroke="midnightblue" points="344.154,-319.623 354.73,-318.987 346.066,-312.889 344.154,-319.623"/>
</g>
<!-- Node40 -->
<g id="node40" class="node"><title>Node40</title>
<g id="a_node40"><a xlink:href="sampler__basic_8cpp.html" target="_top" xlink:title="fplll/sieve/sampler\l_basic.cpp">
<polygon fill="white" stroke="black" points="522.5,-246.5 522.5,-276.5 617.5,-276.5 617.5,-246.5 522.5,-246.5"/>
<text text-anchor="start" x="530.5" y="-264.5" font-family="Helvetica,sans-Serif" font-size="10.00">fplll/sieve/sampler</text>
<text text-anchor="middle" x="570" y="-253.5" font-family="Helvetica,sans-Serif" font-size="10.00">_basic.cpp</text>
</a>
</g>
</g>
<!-- Node39&#45;&gt;Node40 -->
<g id="edge54" class="edge"><title>Node39&#45;&gt;Node40</title>
<path fill="none" stroke="midnightblue" d="M510.214,-307.168C523.518,-297.228 539.196,-285.514 551.159,-276.577"/>
<polygon fill="midnightblue" stroke="midnightblue" points="507.794,-304.607 501.878,-313.396 511.984,-310.215 507.794,-304.607"/>
</g>
<!-- Node41 -->
<g id="node41" class="node"><title>Node41</title>
<g id="a_node41"><a xlink:href="sampler__main_8cpp.html" target="_top" xlink:title="fplll/sieve/sampler\l_main.cpp">
<polygon fill="white" stroke="black" points="409.5,-246.5 409.5,-276.5 504.5,-276.5 504.5,-246.5 409.5,-246.5"/>
<text text-anchor="start" x="417.5" y="-264.5" font-family="Helvetica,sans-Serif" font-size="10.00">fplll/sieve/sampler</text>
<text text-anchor="middle" x="457" y="-253.5" font-family="Helvetica,sans-Serif" font-size="10.00">_main.cpp</text>
</a>
</g>
</g>
<!-- Node39&#45;&gt;Node41 -->
<g id="edge55" class="edge"><title>Node39&#45;&gt;Node41</title>
<path fill="none" stroke="midnightblue" d="M473.596,-303.991C469.922,-294.804 465.831,-284.578 462.631,-276.577"/>
<polygon fill="midnightblue" stroke="midnightblue" points="470.395,-305.411 477.358,-313.396 476.894,-302.811 470.395,-305.411"/>
</g>
<!-- Node42 -->
<g id="node42" class="node"><title>Node42</title>
<g id="a_node42"><a xlink:href="sieve__common_8h.html" target="_top" xlink:title="fplll/sieve/sieve_common.h">
<polygon fill="white" stroke="black" points="217.5,-252 217.5,-271 352.5,-271 352.5,-252 217.5,-252"/>
<text text-anchor="middle" x="285" y="-259" font-family="Helvetica,sans-Serif" font-size="10.00">fplll/sieve/sieve_common.h</text>
</a>
</g>
</g>
<!-- Node39&#45;&gt;Node42 -->
<g id="edge56" class="edge"><title>Node39&#45;&gt;Node42</title>
<path fill="none" stroke="midnightblue" d="M430.511,-310.269C391.93,-297.603 341.154,-280.934 310.914,-271.007"/>
<polygon fill="midnightblue" stroke="midnightblue" points="429.444,-313.602 440.037,-313.396 431.628,-306.951 429.444,-313.602"/>
</g>
<!-- Node43 -->
<g id="node43" class="node"><title>Node43</title>
<g id="a_node43"><a xlink:href="sieve__gauss__str_8h.html" target="_top" xlink:title="fplll/sieve/sieve_gauss\l_str.h">
<polygon fill="white" stroke="black" points="227,-179.5 227,-209.5 343,-209.5 343,-179.5 227,-179.5"/>
<text text-anchor="start" x="235" y="-197.5" font-family="Helvetica,sans-Serif" font-size="10.00">fplll/sieve/sieve_gauss</text>
<text text-anchor="middle" x="285" y="-186.5" font-family="Helvetica,sans-Serif" font-size="10.00">_str.h</text>
</a>
</g>
</g>
<!-- Node42&#45;&gt;Node43 -->
<g id="edge57" class="edge"><title>Node42&#45;&gt;Node43</title>
<path fill="none" stroke="midnightblue" d="M278.817,-241.739C277.919,-231.487 278.088,-219.001 279.324,-209.589"/>
<polygon fill="midnightblue" stroke="midnightblue" points="275.364,-242.313 280.211,-251.734 282.297,-241.346 275.364,-242.313"/>
</g>
<!-- Node44 -->
<g id="node44" class="node"><title>Node44</title>
<g id="a_node44"><a xlink:href="sieve__gauss_8h.html" target="_top" xlink:title="fplll/sieve/sieve_gauss.h">
<polygon fill="white" stroke="red" points="214,-123.5 214,-142.5 338,-142.5 338,-123.5 214,-123.5"/>
<text text-anchor="middle" x="276" y="-130.5" font-family="Helvetica,sans-Serif" font-size="10.00">fplll/sieve/sieve_gauss.h</text>
</a>
</g>
</g>
<!-- Node42&#45;&gt;Node44 -->
<g id="edge65" class="edge"><title>Node42&#45;&gt;Node44</title>
<path fill="none" stroke="midnightblue" d="M256.311,-246.933C241.995,-238.492 226.05,-226.147 218,-210 211.853,-197.669 211.939,-191.373 218,-179 226.185,-162.29 243.899,-150.003 257.611,-142.529"/>
<polygon fill="midnightblue" stroke="midnightblue" points="254.935,-250.17 265.385,-251.917 258.305,-244.034 254.935,-250.17"/>
</g>
<!-- Node43&#45;&gt;Node42 -->
<g id="edge58" class="edge"><title>Node43&#45;&gt;Node42</title>
<path fill="none" stroke="midnightblue" d="M291.551,-219.714C292.1,-230.923 291.513,-243.541 289.789,-251.734"/>
<polygon fill="midnightblue" stroke="midnightblue" points="295.024,-219.251 290.676,-209.589 288.05,-219.853 295.024,-219.251"/>
</g>
<!-- Node43&#45;&gt;Node44 -->
<g id="edge59" class="edge"><title>Node43&#45;&gt;Node44</title>
<path fill="none" stroke="midnightblue" d="M281.338,-169.289C279.911,-159.857 278.368,-149.655 277.31,-142.658"/>
<polygon fill="midnightblue" stroke="midnightblue" points="277.911,-170.035 282.867,-179.399 284.832,-168.988 277.911,-170.035"/>
</g>
<!-- Node45 -->
<g id="node45" class="node"><title>Node45</title>
<g id="a_node45"><a xlink:href="sieve__gauss_8cpp.html" target="_top" xlink:title="fplll/sieve/sieve_gauss.cpp">
<polygon fill="white" stroke="black" points="295,-0.5 295,-19.5 429,-19.5 429,-0.5 295,-0.5"/>
<text text-anchor="middle" x="362" y="-7.5" font-family="Helvetica,sans-Serif" font-size="10.00">fplll/sieve/sieve_gauss.cpp</text>
</a>
</g>
</g>
<!-- Node44&#45;&gt;Node45 -->
<g id="edge60" class="edge"><title>Node44&#45;&gt;Node45</title>
<path fill="none" stroke="midnightblue" d="M288.017,-115.093C306.623,-88.914 341.732,-39.5162 355.871,-19.6232"/>
<polygon fill="midnightblue" stroke="midnightblue" points="285.125,-113.119 282.185,-123.298 290.831,-117.175 285.125,-113.119"/>
</g>
<!-- Node46 -->
<g id="node46" class="node"><title>Node46</title>
<g id="a_node46"><a xlink:href="sieve__gauss__2sieve_8cpp.html" target="_top" xlink:title="fplll/sieve/sieve_gauss\l_2sieve.cpp">
<polygon fill="white" stroke="black" points="347,-56.5 347,-86.5 463,-86.5 463,-56.5 347,-56.5"/>
<text text-anchor="start" x="355" y="-74.5" font-family="Helvetica,sans-Serif" font-size="10.00">fplll/sieve/sieve_gauss</text>
<text text-anchor="middle" x="405" y="-63.5" font-family="Helvetica,sans-Serif" font-size="10.00">_2sieve.cpp</text>
</a>
</g>
</g>
<!-- Node44&#45;&gt;Node46 -->
<g id="edge61" class="edge"><title>Node44&#45;&gt;Node46</title>
<path fill="none" stroke="midnightblue" d="M303.751,-119.2C324.598,-109.585 353.133,-96.4232 374.597,-86.523"/>
<polygon fill="midnightblue" stroke="midnightblue" points="302.097,-116.108 294.483,-123.475 305.029,-122.465 302.097,-116.108"/>
</g>
<!-- Node47 -->
<g id="node47" class="node"><title>Node47</title>
<g id="a_node47"><a xlink:href="sieve__gauss__3sieve_8cpp.html" target="_top" xlink:title="fplll/sieve/sieve_gauss\l_3sieve.cpp">
<polygon fill="white" stroke="black" points="175,-56.5 175,-86.5 291,-86.5 291,-56.5 175,-56.5"/>
<text text-anchor="start" x="183" y="-74.5" font-family="Helvetica,sans-Serif" font-size="10.00">fplll/sieve/sieve_gauss</text>
<text text-anchor="middle" x="233" y="-63.5" font-family="Helvetica,sans-Serif" font-size="10.00">_3sieve.cpp</text>
</a>
</g>
</g>
<!-- Node44&#45;&gt;Node47 -->
<g id="edge63" class="edge"><title>Node44&#45;&gt;Node47</title>
<path fill="none" stroke="midnightblue" d="M263.893,-115.247C257.345,-106.187 249.35,-95.124 243.134,-86.523"/>
<polygon fill="midnightblue" stroke="midnightblue" points="261.145,-117.42 269.839,-123.475 266.818,-113.32 261.145,-117.42"/>
</g>
<!-- Node46&#45;&gt;Node45 -->
<g id="edge62" class="edge"><title>Node46&#45;&gt;Node45</title>
<path fill="none" stroke="midnightblue" d="M388.815,-48.1041C381.648,-38.1868 373.64,-27.1062 368.257,-19.6578"/>
<polygon fill="midnightblue" stroke="midnightblue" points="386.115,-50.3444 394.81,-56.3993 391.789,-46.2442 386.115,-50.3444"/>
</g>
<!-- Node47&#45;&gt;Node45 -->
<g id="edge64" class="edge"><title>Node47&#45;&gt;Node45</title>
<path fill="none" stroke="midnightblue" d="M272.927,-52.0841C296.359,-41.2763 324.878,-28.1219 343.229,-19.6578"/>
<polygon fill="midnightblue" stroke="midnightblue" points="271.186,-49.0327 263.571,-56.3993 274.118,-55.3891 271.186,-49.0327"/>
</g>
<!-- Node48&#45;&gt;Node8 -->
<g id="edge67" class="edge"><title>Node48&#45;&gt;Node8</title>
<path fill="none" stroke="midnightblue" d="M1336.05,-249.679C1278.16,-236.612 1182.18,-214.95 1130.87,-203.371"/>
<polygon fill="midnightblue" stroke="midnightblue" points="1335.53,-253.148 1346.05,-251.936 1337.07,-246.32 1335.53,-253.148"/>
</g>
<!-- Node48&#45;&gt;Node9 -->
<g id="edge68" class="edge"><title>Node48&#45;&gt;Node9</title>
<path fill="none" stroke="midnightblue" d="M1335.2,-254.4C1228.82,-241.103 978.713,-209.839 893.238,-199.155"/>
<polygon fill="midnightblue" stroke="midnightblue" points="1334.98,-257.9 1345.34,-255.668 1335.85,-250.954 1334.98,-257.9"/>
</g>
<!-- Node48&#45;&gt;Node10 -->
<g id="edge69" class="edge"><title>Node48&#45;&gt;Node10</title>
<path fill="none" stroke="midnightblue" d="M1374.82,-242.903C1360.49,-215.44 1333.34,-163.399 1322.57,-142.756"/>
<polygon fill="midnightblue" stroke="midnightblue" points="1371.73,-244.558 1379.46,-251.805 1377.94,-241.32 1371.73,-244.558"/>
</g>
<!-- Node48&#45;&gt;Node31 -->
<g id="edge71" class="edge"><title>Node48&#45;&gt;Node31</title>
<path fill="none" stroke="midnightblue" d="M1360.86,-246.442C1339.67,-233.57 1308.98,-214.927 1291.2,-204.127"/>
<polygon fill="midnightblue" stroke="midnightblue" points="1359.21,-249.533 1369.57,-251.734 1362.84,-243.551 1359.21,-249.533"/>
</g>
<!-- Node48&#45;&gt;Node45 -->
<g id="edge70" class="edge"><title>Node48&#45;&gt;Node45</title>
<path fill="none" stroke="midnightblue" d="M1384.87,-241.437C1385.29,-213.537 1382.78,-160.8 1361,-123 1337.68,-82.5193 1323.56,-72.8959 1280,-56 1201.43,-25.5238 627.423,-14.7026 429.144,-11.8507"/>
<polygon fill="midnightblue" stroke="midnightblue" points="1381.36,-241.656 1384.56,-251.757 1388.36,-241.868 1381.36,-241.656"/>
</g>
<!-- Node49&#45;&gt;Node20 -->
<g id="edge74" class="edge"><title>Node49&#45;&gt;Node20</title>
<path fill="none" stroke="midnightblue" d="M1163.32,-549.334C1170.66,-509.138 1178.73,-428.206 1138,-380 1128.71,-369.011 1046.62,-349.355 995.916,-338.08"/>
<polygon fill="midnightblue" stroke="midnightblue" points="1159.86,-548.819 1161.36,-559.306 1166.73,-550.169 1159.86,-548.819"/>
</g>
<!-- Node50 -->
<g id="node50" class="node"><title>Node50</title>
<g id="a_node50"><a xlink:href="enumerate__base_8cpp.html" target="_top" xlink:title="fplll/enum/enumerate\l_base.cpp">
<polygon fill="white" stroke="black" points="1186.5,-492.5 1186.5,-522.5 1293.5,-522.5 1293.5,-492.5 1186.5,-492.5"/>
<text text-anchor="start" x="1194.5" y="-510.5" font-family="Helvetica,sans-Serif" font-size="10.00">fplll/enum/enumerate</text>
<text text-anchor="middle" x="1240" y="-499.5" font-family="Helvetica,sans-Serif" font-size="10.00">_base.cpp</text>
</a>
</g>
</g>
<!-- Node49&#45;&gt;Node50 -->
<g id="edge75" class="edge"><title>Node49&#45;&gt;Node50</title>
<path fill="none" stroke="midnightblue" d="M1183.65,-553.168C1196.19,-543.228 1210.97,-531.514 1222.24,-522.577"/>
<polygon fill="midnightblue" stroke="midnightblue" points="1181.46,-550.441 1175.79,-559.396 1185.8,-555.927 1181.46,-550.441"/>
</g>
</g>
</svg>
