<?xml version="1.0" encoding="UTF-8" standalone="no"?>
<!DOCTYPE svg PUBLIC "-//W3C//DTD SVG 1.1//EN"
 "http://www.w3.org/Graphics/SVG/1.1/DTD/svg11.dtd">
<!-- Generated by graphviz version 2.38.0 (20140413.2041)
 -->
<!-- Title: fplll/nr/nr_Z_d.inl Pages: 1 -->
<svg width="1138pt" height="610pt"
 viewBox="0.00 0.00 1137.50 610.00" xmlns="http://www.w3.org/2000/svg" xmlns:xlink="http://www.w3.org/1999/xlink">
<g id="graph0" class="graph" transform="scale(1 1) rotate(0) translate(4 606)">
<title>fplll/nr/nr_Z_d.inl</title>
<polygon fill="white" stroke="none" points="-4,4 -4,-606 1133.5,-606 1133.5,4 -4,4"/>
<!-- Node1 -->
<g id="node1" class="node"><title>Node1</title>
<polygon fill="#bfbfbf" stroke="black" points="773,-582.5 773,-601.5 862,-601.5 862,-582.5 773,-582.5"/>
<text text-anchor="middle" x="817.5" y="-589.5" font-family="Helvetica,sans-Serif" font-size="10.00">fplll/nr/nr_Z_d.inl</text>
</g>
<!-- Node2 -->
<g id="node2" class="node"><title>Node2</title>
<g id="a_node2"><a xlink:href="nr_8h.html" target="_top" xlink:title="fplll/nr/nr.h">
<polygon fill="white" stroke="black" points="786.5,-526.5 786.5,-545.5 848.5,-545.5 848.5,-526.5 786.5,-526.5"/>
<text text-anchor="middle" x="817.5" y="-533.5" font-family="Helvetica,sans-Serif" font-size="10.00">fplll/nr/nr.h</text>
</a>
</g>
</g>
<!-- Node1&#45;&gt;Node2 -->
<g id="edge1" class="edge"><title>Node1&#45;&gt;Node2</title>
<path fill="none" stroke="midnightblue" d="M817.5,-571.805C817.5,-562.91 817.5,-552.78 817.5,-545.751"/>
<polygon fill="midnightblue" stroke="midnightblue" points="814,-572.083 817.5,-582.083 821,-572.083 814,-572.083"/>
</g>
<!-- Node3 -->
<g id="node3" class="node"><title>Node3</title>
<g id="a_node3"><a xlink:href="numvect_8h.html" target="_top" xlink:title="fplll/nr/numvect.h">
<polygon fill="white" stroke="black" points="676.5,-465 676.5,-484 768.5,-484 768.5,-465 676.5,-465"/>
<text text-anchor="middle" x="722.5" y="-472" font-family="Helvetica,sans-Serif" font-size="10.00">fplll/nr/numvect.h</text>
</a>
</g>
</g>
<!-- Node2&#45;&gt;Node3 -->
<g id="edge2" class="edge"><title>Node2&#45;&gt;Node3</title>
<path fill="none" stroke="midnightblue" d="M795.286,-521.087C776.952,-509.604 751.524,-493.678 736.086,-484.009"/>
<polygon fill="midnightblue" stroke="midnightblue" points="793.556,-524.133 803.889,-526.475 797.272,-518.201 793.556,-524.133"/>
</g>
<!-- Node38 -->
<g id="node38" class="node"><title>Node38</title>
<g id="a_node38"><a xlink:href="enumerate__base_8h.html" target="_top" xlink:title="fplll/enum/enumerate\l_base.h">
<polygon fill="white" stroke="black" points="860,-459.5 860,-489.5 967,-489.5 967,-459.5 860,-459.5"/>
<text text-anchor="start" x="868" y="-477.5" font-family="Helvetica,sans-Serif" font-size="10.00">fplll/enum/enumerate</text>
<text text-anchor="middle" x="913.5" y="-466.5" font-family="Helvetica,sans-Serif" font-size="10.00">_base.h</text>
</a>
</g>
</g>
<!-- Node2&#45;&gt;Node38 -->
<g id="edge54" class="edge"><title>Node2&#45;&gt;Node38</title>
<path fill="none" stroke="midnightblue" d="M840.075,-521.008C855.387,-511.518 875.552,-499.02 890.875,-489.523"/>
<polygon fill="midnightblue" stroke="midnightblue" points="837.91,-518.232 831.254,-526.475 841.598,-524.182 837.91,-518.232"/>
</g>
<!-- Node4 -->
<g id="node4" class="node"><title>Node4</title>
<g id="a_node4"><a xlink:href="matrix_8h.html" target="_top" xlink:title="fplll/nr/matrix.h">
<polygon fill="white" stroke="black" points="535,-398 535,-417 616,-417 616,-398 535,-398"/>
<text text-anchor="middle" x="575.5" y="-405" font-family="Helvetica,sans-Serif" font-size="10.00">fplll/nr/matrix.h</text>
</a>
</g>
</g>
<!-- Node3&#45;&gt;Node4 -->
<g id="edge3" class="edge"><title>Node3&#45;&gt;Node4</title>
<path fill="none" stroke="midnightblue" d="M693.735,-460.781C664.624,-447.909 620.402,-428.355 595.101,-417.167"/>
<polygon fill="midnightblue" stroke="midnightblue" points="692.418,-464.025 702.98,-464.869 695.249,-457.623 692.418,-464.025"/>
</g>
<!-- Node5 -->
<g id="node5" class="node"><title>Node5</title>
<g id="a_node5"><a xlink:href="util_8h.html" target="_top" xlink:title="fplll/util.h">
<polygon fill="white" stroke="black" points="510.5,-336.5 510.5,-355.5 566.5,-355.5 566.5,-336.5 510.5,-336.5"/>
<text text-anchor="middle" x="538.5" y="-343.5" font-family="Helvetica,sans-Serif" font-size="10.00">fplll/util.h</text>
</a>
</g>
</g>
<!-- Node4&#45;&gt;Node5 -->
<g id="edge4" class="edge"><title>Node4&#45;&gt;Node5</title>
<path fill="none" stroke="midnightblue" d="M564.724,-389.171C557.844,-378.108 549.228,-364.251 543.791,-355.509"/>
<polygon fill="midnightblue" stroke="midnightblue" points="561.946,-391.331 570.199,-397.975 567.89,-387.635 561.946,-391.331"/>
</g>
<!-- Node31 -->
<g id="node31" class="node"><title>Node31</title>
<g id="a_node31"><a xlink:href="matrix_8cpp.html" target="_top" xlink:title="fplll/nr/matrix.cpp">
<polygon fill="white" stroke="black" points="584.5,-336.5 584.5,-355.5 676.5,-355.5 676.5,-336.5 584.5,-336.5"/>
<text text-anchor="middle" x="630.5" y="-343.5" font-family="Helvetica,sans-Serif" font-size="10.00">fplll/nr/matrix.cpp</text>
</a>
</g>
</g>
<!-- Node4&#45;&gt;Node31 -->
<g id="edge37" class="edge"><title>Node4&#45;&gt;Node31</title>
<path fill="none" stroke="midnightblue" d="M584.77,-389.838C593.968,-378.669 607.545,-364.428 617.737,-355.509"/>
<polygon fill="midnightblue" stroke="midnightblue" points="581.826,-387.923 578.48,-397.975 587.365,-392.204 581.826,-387.923"/>
</g>
<!-- Node32 -->
<g id="node32" class="node"><title>Node32</title>
<g id="a_node32"><a xlink:href="gso_8h.html" target="_top" xlink:title="fplll/gso.h">
<polygon fill="white" stroke="black" points="228,-280.5 228,-299.5 287,-299.5 287,-280.5 228,-280.5"/>
<text text-anchor="middle" x="257.5" y="-287.5" font-family="Helvetica,sans-Serif" font-size="10.00">fplll/gso.h</text>
</a>
</g>
</g>
<!-- Node4&#45;&gt;Node32 -->
<g id="edge39" class="edge"><title>Node4&#45;&gt;Node32</title>
<path fill="none" stroke="midnightblue" d="M542.188,-394.401C477.724,-370.987 337.336,-319.997 281.298,-299.643"/>
<polygon fill="midnightblue" stroke="midnightblue" points="541.264,-397.789 551.858,-397.913 543.654,-391.209 541.264,-397.789"/>
</g>
<!-- Node37 -->
<g id="node37" class="node"><title>Node37</title>
<g id="a_node37"><a xlink:href="wrapper_8h.html" target="_top" xlink:title="fplll/wrapper.h">
<polygon fill="white" stroke="black" points="0,-224.5 0,-243.5 77,-243.5 77,-224.5 0,-224.5"/>
<text text-anchor="middle" x="38.5" y="-231.5" font-family="Helvetica,sans-Serif" font-size="10.00">fplll/wrapper.h</text>
</a>
</g>
</g>
<!-- Node4&#45;&gt;Node37 -->
<g id="edge50" class="edge"><title>Node4&#45;&gt;Node37</title>
<path fill="none" stroke="midnightblue" d="M530.5,-395.506C491.644,-385.798 434.103,-370.906 384.5,-356 309.931,-333.592 292.01,-325.669 218.5,-300 162.038,-280.284 95.9865,-256.159 61.7446,-243.572"/>
<polygon fill="midnightblue" stroke="midnightblue" points="529.901,-398.964 540.45,-397.981 531.591,-392.171 529.901,-398.964"/>
</g>
<!-- Node6 -->
<g id="node6" class="node"><title>Node6</title>
<g id="a_node6"><a xlink:href="evaluator_8h.html" target="_top" xlink:title="fplll/enum/evaluator.h">
<polygon fill="white" stroke="black" points="876.5,-280.5 876.5,-299.5 986.5,-299.5 986.5,-280.5 876.5,-280.5"/>
<text text-anchor="middle" x="931.5" y="-287.5" font-family="Helvetica,sans-Serif" font-size="10.00">fplll/enum/evaluator.h</text>
</a>
</g>
</g>
<!-- Node5&#45;&gt;Node6 -->
<g id="edge5" class="edge"><title>Node5&#45;&gt;Node6</title>
<path fill="none" stroke="midnightblue" d="M576.817,-335.936C703.678,-312.937 738.222,-315.899 862.5,-300 866.934,-299.433 871.527,-298.842 876.142,-298.245"/>
<polygon fill="midnightblue" stroke="midnightblue" points="575.916,-332.543 566.711,-337.788 577.178,-339.429 575.916,-332.543"/>
</g>
<!-- Node9 -->
<g id="node9" class="node"><title>Node9</title>
<g id="a_node9"><a xlink:href="fplll_8h.html" target="_top" xlink:title="fplll/fplll.h">
<polygon fill="white" stroke="black" points="634.5,-112.5 634.5,-131.5 692.5,-131.5 692.5,-112.5 634.5,-112.5"/>
<text text-anchor="middle" x="663.5" y="-119.5" font-family="Helvetica,sans-Serif" font-size="10.00">fplll/fplll.h</text>
</a>
</g>
</g>
<!-- Node5&#45;&gt;Node9 -->
<g id="edge28" class="edge"><title>Node5&#45;&gt;Node9</title>
<path fill="none" stroke="midnightblue" d="M576.867,-336.198C646.879,-326.843 793.949,-340.945 829.5,-300 860.859,-263.883 793.65,-262.611 771.5,-244 727.737,-207.229 685.469,-152.69 669.843,-131.683"/>
<polygon fill="midnightblue" stroke="midnightblue" points="576.035,-332.787 566.72,-337.835 577.149,-339.698 576.035,-332.787"/>
</g>
<!-- Node23 -->
<g id="node23" class="node"><title>Node23</title>
<g id="a_node23"><a xlink:href="topenum_8h.html" target="_top" xlink:title="fplll/enum/topenum.h">
<polygon fill="white" stroke="black" points="347,-280.5 347,-299.5 454,-299.5 454,-280.5 347,-280.5"/>
<text text-anchor="middle" x="400.5" y="-287.5" font-family="Helvetica,sans-Serif" font-size="10.00">fplll/enum/topenum.h</text>
</a>
</g>
</g>
<!-- Node5&#45;&gt;Node23 -->
<g id="edge25" class="edge"><title>Node5&#45;&gt;Node23</title>
<path fill="none" stroke="midnightblue" d="M507.251,-332.772C481.329,-322.629 445.138,-308.467 422.264,-299.516"/>
<polygon fill="midnightblue" stroke="midnightblue" points="506.046,-336.059 516.633,-336.444 508.596,-329.54 506.046,-336.059"/>
</g>
<!-- Node25 -->
<g id="node25" class="node"><title>Node25</title>
<g id="a_node25"><a xlink:href="svpcvp_8h.html" target="_top" xlink:title="fplll/svpcvp.h">
<polygon fill="white" stroke="black" points="626.5,-224.5 626.5,-243.5 700.5,-243.5 700.5,-224.5 626.5,-224.5"/>
<text text-anchor="middle" x="663.5" y="-231.5" font-family="Helvetica,sans-Serif" font-size="10.00">fplll/svpcvp.h</text>
</a>
</g>
</g>
<!-- Node5&#45;&gt;Node25 -->
<g id="edge29" class="edge"><title>Node5&#45;&gt;Node25</title>
<path fill="none" stroke="midnightblue" d="M533.555,-326.508C530.947,-312.46 529.992,-293.345 539.5,-280 549.865,-265.451 593.644,-251.924 626.264,-243.575"/>
<polygon fill="midnightblue" stroke="midnightblue" points="530.194,-327.511 535.833,-336.481 537.019,-325.953 530.194,-327.511"/>
</g>
<!-- Node26 -->
<g id="node26" class="node"><title>Node26</title>
<g id="a_node26"><a xlink:href="latticegen_8cpp.html" target="_top" xlink:title="fplll/latticegen.cpp">
<polygon fill="white" stroke="black" points="549,-280.5 549,-299.5 644,-299.5 644,-280.5 549,-280.5"/>
<text text-anchor="middle" x="596.5" y="-287.5" font-family="Helvetica,sans-Serif" font-size="10.00">fplll/latticegen.cpp</text>
</a>
</g>
</g>
<!-- Node5&#45;&gt;Node26 -->
<g id="edge32" class="edge"><title>Node5&#45;&gt;Node26</title>
<path fill="none" stroke="midnightblue" d="M555.413,-329.253C565.703,-319.673 578.466,-307.791 587.012,-299.834"/>
<polygon fill="midnightblue" stroke="midnightblue" points="552.753,-326.948 547.819,-336.324 557.523,-332.071 552.753,-326.948"/>
</g>
<!-- Node27 -->
<g id="node27" class="node"><title>Node27</title>
<g id="a_node27"><a xlink:href="lll_8cpp.html" target="_top" xlink:title="fplll/lll.cpp">
<polygon fill="white" stroke="black" points="414.5,-168.5 414.5,-187.5 474.5,-187.5 474.5,-168.5 414.5,-168.5"/>
<text text-anchor="middle" x="444.5" y="-175.5" font-family="Helvetica,sans-Serif" font-size="10.00">fplll/lll.cpp</text>
</a>
</g>
</g>
<!-- Node5&#45;&gt;Node27 -->
<g id="edge33" class="edge"><title>Node5&#45;&gt;Node27</title>
<path fill="none" stroke="midnightblue" d="M530.198,-327.236C525.105,-313.608 520.882,-294.702 528.5,-280 541.264,-255.366 566.736,-268.634 579.5,-244 583.589,-236.108 584.697,-231.211 579.5,-224 567.077,-206.764 510.406,-192.375 474.554,-184.788"/>
<polygon fill="midnightblue" stroke="midnightblue" points="526.978,-328.609 534.08,-336.471 533.431,-325.896 526.978,-328.609"/>
</g>
<!-- Node28 -->
<g id="node28" class="node"><title>Node28</title>
<g id="a_node28"><a xlink:href="llldiff_8cpp.html" target="_top" xlink:title="fplll/llldiff.cpp">
<polygon fill="white" stroke="black" points="662.5,-280.5 662.5,-299.5 736.5,-299.5 736.5,-280.5 662.5,-280.5"/>
<text text-anchor="middle" x="699.5" y="-287.5" font-family="Helvetica,sans-Serif" font-size="10.00">fplll/llldiff.cpp</text>
</a>
</g>
</g>
<!-- Node5&#45;&gt;Node28 -->
<g id="edge34" class="edge"><title>Node5&#45;&gt;Node28</title>
<path fill="none" stroke="midnightblue" d="M573.765,-333.172C604.081,-323.004 647.07,-308.585 674.108,-299.516"/>
<polygon fill="midnightblue" stroke="midnightblue" points="572.379,-329.945 564.011,-336.444 574.605,-336.582 572.379,-329.945"/>
</g>
<!-- Node29 -->
<g id="node29" class="node"><title>Node29</title>
<g id="a_node29"><a xlink:href="util_8cpp.html" target="_top" xlink:title="fplll/util.cpp">
<polygon fill="white" stroke="black" points="754.5,-280.5 754.5,-299.5 820.5,-299.5 820.5,-280.5 754.5,-280.5"/>
<text text-anchor="middle" x="787.5" y="-287.5" font-family="Helvetica,sans-Serif" font-size="10.00">fplll/util.cpp</text>
</a>
</g>
</g>
<!-- Node5&#45;&gt;Node29 -->
<g id="edge35" class="edge"><title>Node5&#45;&gt;Node29</title>
<path fill="none" stroke="midnightblue" d="M576.784,-335.756C652.474,-318.621 673.062,-315.431 745.5,-300 748.417,-299.379 751.449,-298.732 754.487,-298.082"/>
<polygon fill="midnightblue" stroke="midnightblue" points="575.737,-332.405 566.761,-338.033 577.288,-339.231 575.737,-332.405"/>
</g>
<!-- Node30 -->
<g id="node30" class="node"><title>Node30</title>
<g id="a_node30"><a xlink:href="wrapper_8cpp.html" target="_top" xlink:title="fplll/wrapper.cpp">
<polygon fill="white" stroke="black" points="288.5,-168.5 288.5,-187.5 376.5,-187.5 376.5,-168.5 288.5,-168.5"/>
<text text-anchor="middle" x="332.5" y="-175.5" font-family="Helvetica,sans-Serif" font-size="10.00">fplll/wrapper.cpp</text>
</a>
</g>
</g>
<!-- Node5&#45;&gt;Node30 -->
<g id="edge36" class="edge"><title>Node5&#45;&gt;Node30</title>
<path fill="none" stroke="midnightblue" d="M500.182,-341.875C447.801,-336.734 357.983,-324.52 337.5,-300 309.868,-266.922 323.284,-209.229 329.726,-187.555"/>
<polygon fill="midnightblue" stroke="midnightblue" points="500.157,-345.388 510.44,-342.839 500.811,-338.419 500.157,-345.388"/>
</g>
<!-- Node7 -->
<g id="node7" class="node"><title>Node7</title>
<g id="a_node7"><a xlink:href="bkz_8h.html" target="_top" xlink:title="fplll/bkz.h">
<polygon fill="white" stroke="black" points="828,-168.5 828,-187.5 887,-187.5 887,-168.5 828,-168.5"/>
<text text-anchor="middle" x="857.5" y="-175.5" font-family="Helvetica,sans-Serif" font-size="10.00">fplll/bkz.h</text>
</a>
</g>
</g>
<!-- Node6&#45;&gt;Node7 -->
<g id="edge6" class="edge"><title>Node6&#45;&gt;Node7</title>
<path fill="none" stroke="midnightblue" d="M927.926,-270.217C924.69,-256.552 918.951,-238.058 909.5,-224 899.375,-208.94 882.941,-195.9 871.26,-187.79"/>
<polygon fill="midnightblue" stroke="midnightblue" points="924.578,-271.303 930.08,-280.357 931.425,-269.848 924.578,-271.303"/>
</g>
<!-- Node19 -->
<g id="node19" class="node"><title>Node19</title>
<g id="a_node19"><a xlink:href="enumerate_8h.html" target="_top" xlink:title="fplll/enum/enumerate.h">
<polygon fill="white" stroke="black" points="956.5,-224.5 956.5,-243.5 1072.5,-243.5 1072.5,-224.5 956.5,-224.5"/>
<text text-anchor="middle" x="1014.5" y="-231.5" font-family="Helvetica,sans-Serif" font-size="10.00">fplll/enum/enumerate.h</text>
</a>
</g>
</g>
<!-- Node6&#45;&gt;Node19 -->
<g id="edge18" class="edge"><title>Node6&#45;&gt;Node19</title>
<path fill="none" stroke="midnightblue" d="M953.599,-274.622C968.762,-264.757 988.383,-251.992 1001.2,-243.655"/>
<polygon fill="midnightblue" stroke="midnightblue" points="951.309,-271.937 944.835,-280.324 955.126,-277.804 951.309,-271.937"/>
</g>
<!-- Node22 -->
<g id="node22" class="node"><title>Node22</title>
<g id="a_node22"><a xlink:href="evaluator_8cpp.html" target="_top" xlink:title="fplll/enum/evaluator.cpp">
<polygon fill="white" stroke="black" points="780.5,-224.5 780.5,-243.5 900.5,-243.5 900.5,-224.5 780.5,-224.5"/>
<text text-anchor="middle" x="840.5" y="-231.5" font-family="Helvetica,sans-Serif" font-size="10.00">fplll/enum/evaluator.cpp</text>
</a>
</g>
</g>
<!-- Node6&#45;&gt;Node22 -->
<g id="edge24" class="edge"><title>Node6&#45;&gt;Node22</title>
<path fill="none" stroke="midnightblue" d="M908.206,-275.177C891.461,-265.241 869.4,-252.149 855.084,-243.655"/>
<polygon fill="midnightblue" stroke="midnightblue" points="906.493,-278.231 916.879,-280.324 910.066,-272.211 906.493,-278.231"/>
</g>
<!-- Node8 -->
<g id="node8" class="node"><title>Node8</title>
<g id="a_node8"><a xlink:href="bkz_8cpp.html" target="_top" xlink:title="fplll/bkz.cpp">
<polygon fill="white" stroke="black" points="924,-112.5 924,-131.5 993,-131.5 993,-112.5 924,-112.5"/>
<text text-anchor="middle" x="958.5" y="-119.5" font-family="Helvetica,sans-Serif" font-size="10.00">fplll/bkz.cpp</text>
</a>
</g>
</g>
<!-- Node7&#45;&gt;Node8 -->
<g id="edge7" class="edge"><title>Node7&#45;&gt;Node8</title>
<path fill="none" stroke="midnightblue" d="M882.583,-163.59C901.257,-153.605 926.204,-140.267 942.313,-131.655"/>
<polygon fill="midnightblue" stroke="midnightblue" points="880.896,-160.522 873.727,-168.324 884.196,-166.696 880.896,-160.522"/>
</g>
<!-- Node7&#45;&gt;Node9 -->
<g id="edge8" class="edge"><title>Node7&#45;&gt;Node9</title>
<path fill="none" stroke="midnightblue" d="M817.635,-165.904C780.515,-155.571 726.05,-140.411 692.786,-131.152"/>
<polygon fill="midnightblue" stroke="midnightblue" points="817.04,-169.371 827.613,-168.681 818.917,-162.627 817.04,-169.371"/>
</g>
<!-- Node10 -->
<g id="node10" class="node"><title>Node10</title>
<g id="a_node10"><a xlink:href="fplll_8cpp.html" target="_top" xlink:title="fplll/fplll.cpp">
<polygon fill="white" stroke="black" points="281.5,-56.5 281.5,-75.5 349.5,-75.5 349.5,-56.5 281.5,-56.5"/>
<text text-anchor="middle" x="315.5" y="-63.5" font-family="Helvetica,sans-Serif" font-size="10.00">fplll/fplll.cpp</text>
</a>
</g>
</g>
<!-- Node9&#45;&gt;Node10 -->
<g id="edge9" class="edge"><title>Node9&#45;&gt;Node10</title>
<path fill="none" stroke="midnightblue" d="M624.167,-115.963C565.952,-108.334 453.496,-92.9338 358.5,-76 355.647,-75.4914 352.693,-74.9355 349.732,-74.3575"/>
<polygon fill="midnightblue" stroke="midnightblue" points="624.02,-119.473 634.389,-117.295 624.925,-112.532 624.02,-119.473"/>
</g>
<!-- Node11 -->
<g id="node11" class="node"><title>Node11</title>
<g id="a_node11"><a xlink:href="main_8h.html" target="_top" xlink:title="fplll/main.h">
<polygon fill="white" stroke="black" points="367.5,-56.5 367.5,-75.5 431.5,-75.5 431.5,-56.5 367.5,-56.5"/>
<text text-anchor="middle" x="399.5" y="-63.5" font-family="Helvetica,sans-Serif" font-size="10.00">fplll/main.h</text>
</a>
</g>
</g>
<!-- Node9&#45;&gt;Node11 -->
<g id="edge10" class="edge"><title>Node9&#45;&gt;Node11</title>
<path fill="none" stroke="midnightblue" d="M624.407,-113.32C579.85,-104.518 504.859,-89.5564 440.5,-76 437.648,-75.3992 434.686,-74.7664 431.718,-74.1263"/>
<polygon fill="midnightblue" stroke="midnightblue" points="623.757,-116.759 634.245,-115.261 625.112,-109.891 623.757,-116.759"/>
</g>
<!-- Node13 -->
<g id="node13" class="node"><title>Node13</title>
<g id="a_node13"><a xlink:href="test__bkz_8cpp.html" target="_top" xlink:title="tests/test_bkz.cpp">
<polygon fill="white" stroke="black" points="449.5,-56.5 449.5,-75.5 547.5,-75.5 547.5,-56.5 449.5,-56.5"/>
<text text-anchor="middle" x="498.5" y="-63.5" font-family="Helvetica,sans-Serif" font-size="10.00">tests/test_bkz.cpp</text>
</a>
</g>
</g>
<!-- Node9&#45;&gt;Node13 -->
<g id="edge12" class="edge"><title>Node9&#45;&gt;Node13</title>
<path fill="none" stroke="midnightblue" d="M627.764,-109.304C596.673,-99.1294 552.353,-84.6246 524.522,-75.5164"/>
<polygon fill="midnightblue" stroke="midnightblue" points="626.763,-112.659 637.355,-112.444 628.94,-106.007 626.763,-112.659"/>
</g>
<!-- Node14 -->
<g id="node14" class="node"><title>Node14</title>
<g id="a_node14"><a xlink:href="test__lll_8cpp.html" target="_top" xlink:title="tests/test_lll.cpp">
<polygon fill="white" stroke="black" points="565,-56.5 565,-75.5 654,-75.5 654,-56.5 565,-56.5"/>
<text text-anchor="middle" x="609.5" y="-63.5" font-family="Helvetica,sans-Serif" font-size="10.00">tests/test_lll.cpp</text>
</a>
</g>
</g>
<!-- Node9&#45;&gt;Node14 -->
<g id="edge13" class="edge"><title>Node9&#45;&gt;Node14</title>
<path fill="none" stroke="midnightblue" d="M647.502,-105.002C637.933,-95.4329 626.139,-83.6389 618.251,-75.7511"/>
<polygon fill="midnightblue" stroke="midnightblue" points="645.037,-107.487 654.583,-112.083 649.987,-102.537 645.037,-107.487"/>
</g>
<!-- Node15 -->
<g id="node15" class="node"><title>Node15</title>
<g id="a_node15"><a xlink:href="test__nr_8cpp.html" target="_top" xlink:title="tests/test_nr.cpp">
<polygon fill="white" stroke="black" points="672.5,-56.5 672.5,-75.5 762.5,-75.5 762.5,-56.5 672.5,-56.5"/>
<text text-anchor="middle" x="717.5" y="-63.5" font-family="Helvetica,sans-Serif" font-size="10.00">tests/test_nr.cpp</text>
</a>
</g>
</g>
<!-- Node9&#45;&gt;Node15 -->
<g id="edge14" class="edge"><title>Node9&#45;&gt;Node15</title>
<path fill="none" stroke="midnightblue" d="M679.498,-105.002C689.067,-95.4329 700.861,-83.6389 708.749,-75.7511"/>
<polygon fill="midnightblue" stroke="midnightblue" points="677.013,-102.537 672.417,-112.083 681.963,-107.487 677.013,-102.537"/>
</g>
<!-- Node16 -->
<g id="node16" class="node"><title>Node16</title>
<g id="a_node16"><a xlink:href="test__pruner_8cpp.html" target="_top" xlink:title="tests/test_pruner.cpp">
<polygon fill="white" stroke="black" points="781,-56.5 781,-75.5 890,-75.5 890,-56.5 781,-56.5"/>
<text text-anchor="middle" x="835.5" y="-63.5" font-family="Helvetica,sans-Serif" font-size="10.00">tests/test_pruner.cpp</text>
</a>
</g>
</g>
<!-- Node9&#45;&gt;Node16 -->
<g id="edge15" class="edge"><title>Node9&#45;&gt;Node16</title>
<path fill="none" stroke="midnightblue" d="M700.332,-109.436C732.762,-99.2551 779.237,-84.664 808.374,-75.5164"/>
<polygon fill="midnightblue" stroke="midnightblue" points="699.246,-106.109 690.754,-112.444 701.343,-112.787 699.246,-106.109"/>
</g>
<!-- Node17 -->
<g id="node17" class="node"><title>Node17</title>
<g id="a_node17"><a xlink:href="test__sieve_8cpp.html" target="_top" xlink:title="tests/test_sieve.cpp">
<polygon fill="white" stroke="black" points="908,-56.5 908,-75.5 1013,-75.5 1013,-56.5 908,-56.5"/>
<text text-anchor="middle" x="960.5" y="-63.5" font-family="Helvetica,sans-Serif" font-size="10.00">tests/test_sieve.cpp</text>
</a>
</g>
</g>
<!-- Node9&#45;&gt;Node17 -->
<g id="edge16" class="edge"><title>Node9&#45;&gt;Node17</title>
<path fill="none" stroke="midnightblue" d="M702.459,-113.916C756.836,-104.03 855.356,-86.117 913.663,-75.5158"/>
<polygon fill="midnightblue" stroke="midnightblue" points="701.731,-110.491 692.518,-115.724 702.983,-117.379 701.731,-110.491"/>
</g>
<!-- Node18 -->
<g id="node18" class="node"><title>Node18</title>
<g id="a_node18"><a xlink:href="test__svp_8cpp.html" target="_top" xlink:title="tests/test_svp.cpp">
<polygon fill="white" stroke="black" points="1031.5,-56.5 1031.5,-75.5 1129.5,-75.5 1129.5,-56.5 1031.5,-56.5"/>
<text text-anchor="middle" x="1080.5" y="-63.5" font-family="Helvetica,sans-Serif" font-size="10.00">tests/test_svp.cpp</text>
</a>
</g>
</g>
<!-- Node9&#45;&gt;Node18 -->
<g id="edge17" class="edge"><title>Node9&#45;&gt;Node18</title>
<path fill="none" stroke="midnightblue" d="M702.723,-116.412C768.637,-108.626 905.774,-92.097 1021.5,-76 1024.68,-75.5575 1027.96,-75.0901 1031.26,-74.6105"/>
<polygon fill="midnightblue" stroke="midnightblue" points="702.291,-112.939 692.77,-117.586 703.111,-119.891 702.291,-112.939"/>
</g>
<!-- Node12 -->
<g id="node12" class="node"><title>Node12</title>
<g id="a_node12"><a xlink:href="main_8cpp.html" target="_top" xlink:title="fplll/main.cpp">
<polygon fill="white" stroke="black" points="362.5,-0.5 362.5,-19.5 436.5,-19.5 436.5,-0.5 362.5,-0.5"/>
<text text-anchor="middle" x="399.5" y="-7.5" font-family="Helvetica,sans-Serif" font-size="10.00">fplll/main.cpp</text>
</a>
</g>
</g>
<!-- Node11&#45;&gt;Node12 -->
<g id="edge11" class="edge"><title>Node11&#45;&gt;Node12</title>
<path fill="none" stroke="midnightblue" d="M399.5,-45.8045C399.5,-36.9102 399.5,-26.7798 399.5,-19.7511"/>
<polygon fill="midnightblue" stroke="midnightblue" points="396,-46.083 399.5,-56.083 403,-46.083 396,-46.083"/>
</g>
<!-- Node19&#45;&gt;Node7 -->
<g id="edge19" class="edge"><title>Node19&#45;&gt;Node7</title>
<path fill="none" stroke="midnightblue" d="M980.111,-221.172C950.548,-211.004 908.627,-196.585 882.261,-187.516"/>
<polygon fill="midnightblue" stroke="midnightblue" points="979.028,-224.501 989.623,-224.444 981.305,-217.881 979.028,-224.501"/>
</g>
<!-- Node19&#45;&gt;Node8 -->
<g id="edge20" class="edge"><title>Node19&#45;&gt;Node8</title>
<path fill="none" stroke="midnightblue" d="M1029.44,-216.226C1039.59,-202.696 1049.64,-183.444 1040.5,-168 1029.66,-149.694 1008.45,-138.339 990.309,-131.615"/>
<polygon fill="midnightblue" stroke="midnightblue" points="1026.56,-214.227 1022.96,-224.193 1031.99,-218.644 1026.56,-214.227"/>
</g>
<!-- Node20 -->
<g id="node20" class="node"><title>Node20</title>
<g id="a_node20"><a xlink:href="enumerate_8cpp.html" target="_top" xlink:title="fplll/enum/enumerate.cpp">
<polygon fill="white" stroke="black" points="905.5,-168.5 905.5,-187.5 1031.5,-187.5 1031.5,-168.5 905.5,-168.5"/>
<text text-anchor="middle" x="968.5" y="-175.5" font-family="Helvetica,sans-Serif" font-size="10.00">fplll/enum/enumerate.cpp</text>
</a>
</g>
</g>
<!-- Node19&#45;&gt;Node20 -->
<g id="edge21" class="edge"><title>Node19&#45;&gt;Node20</title>
<path fill="none" stroke="midnightblue" d="M1000.39,-216.431C992.324,-206.967 982.541,-195.483 975.955,-187.751"/>
<polygon fill="midnightblue" stroke="midnightblue" points="997.755,-218.74 1006.9,-224.083 1003.08,-214.201 997.755,-218.74"/>
</g>
<!-- Node21 -->
<g id="node21" class="node"><title>Node21</title>
<g id="a_node21"><a xlink:href="svpcvp_8cpp.html" target="_top" xlink:title="fplll/svpcvp.cpp">
<polygon fill="white" stroke="black" points="531,-168.5 531,-187.5 616,-187.5 616,-168.5 531,-168.5"/>
<text text-anchor="middle" x="573.5" y="-175.5" font-family="Helvetica,sans-Serif" font-size="10.00">fplll/svpcvp.cpp</text>
</a>
</g>
</g>
<!-- Node19&#45;&gt;Node21 -->
<g id="edge22" class="edge"><title>Node19&#45;&gt;Node21</title>
<path fill="none" stroke="midnightblue" d="M946.337,-224.653C854.24,-213.376 692.793,-193.607 616.177,-184.226"/>
<polygon fill="midnightblue" stroke="midnightblue" points="946.042,-228.143 956.393,-225.885 946.893,-221.195 946.042,-228.143"/>
</g>
<!-- Node21&#45;&gt;Node10 -->
<g id="edge23" class="edge"><title>Node21&#45;&gt;Node10</title>
<path fill="none" stroke="midnightblue" d="M544.055,-164.446C491.069,-141.855 380.965,-94.9113 335.651,-75.5914"/>
<polygon fill="midnightblue" stroke="midnightblue" points="542.684,-167.666 553.255,-168.368 545.429,-161.227 542.684,-167.666"/>
</g>
<!-- Node23&#45;&gt;Node21 -->
<g id="edge27" class="edge"><title>Node23&#45;&gt;Node21</title>
<path fill="none" stroke="midnightblue" d="M408.545,-270.627C415.768,-256.098 427.671,-236.28 443.5,-224 468.975,-204.237 503.734,-192.803 530.901,-186.411"/>
<polygon fill="midnightblue" stroke="midnightblue" points="405.186,-269.547 404.123,-280.089 411.528,-272.511 405.186,-269.547"/>
</g>
<!-- Node24 -->
<g id="node24" class="node"><title>Node24</title>
<g id="a_node24"><a xlink:href="topenum_8cpp.html" target="_top" xlink:title="fplll/enum/topenum.cpp">
<polygon fill="white" stroke="black" points="452.5,-224.5 452.5,-243.5 570.5,-243.5 570.5,-224.5 452.5,-224.5"/>
<text text-anchor="middle" x="511.5" y="-231.5" font-family="Helvetica,sans-Serif" font-size="10.00">fplll/enum/topenum.cpp</text>
</a>
</g>
</g>
<!-- Node23&#45;&gt;Node24 -->
<g id="edge26" class="edge"><title>Node23&#45;&gt;Node24</title>
<path fill="none" stroke="midnightblue" d="M427.505,-275.862C448.088,-265.849 475.845,-252.346 493.71,-243.655"/>
<polygon fill="midnightblue" stroke="midnightblue" points="425.795,-272.802 418.334,-280.324 428.858,-279.097 425.795,-272.802"/>
</g>
<!-- Node25&#45;&gt;Node9 -->
<g id="edge30" class="edge"><title>Node25&#45;&gt;Node9</title>
<path fill="none" stroke="midnightblue" d="M663.5,-214.348C663.5,-190.254 663.5,-149.308 663.5,-131.591"/>
<polygon fill="midnightblue" stroke="midnightblue" points="660,-214.368 663.5,-224.368 667,-214.369 660,-214.368"/>
</g>
<!-- Node25&#45;&gt;Node21 -->
<g id="edge31" class="edge"><title>Node25&#45;&gt;Node21</title>
<path fill="none" stroke="midnightblue" d="M640.462,-219.177C623.901,-209.241 602.082,-196.149 587.924,-187.655"/>
<polygon fill="midnightblue" stroke="midnightblue" points="638.664,-222.18 649.04,-224.324 642.266,-216.178 638.664,-222.18"/>
</g>
<!-- Node31&#45;&gt;Node4 -->
<g id="edge38" class="edge"><title>Node31&#45;&gt;Node4</title>
<path fill="none" stroke="midnightblue" d="M621.246,-363.643C612.053,-374.807 598.477,-389.05 588.281,-397.975"/>
<polygon fill="midnightblue" stroke="midnightblue" points="624.186,-365.562 627.532,-355.509 618.647,-361.282 624.186,-365.562"/>
</g>
<!-- Node32&#45;&gt;Node19 -->
<g id="edge40" class="edge"><title>Node32&#45;&gt;Node19</title>
<path fill="none" stroke="midnightblue" d="M297.059,-284.16C309.941,-282.688 324.317,-281.156 337.5,-280 591.252,-257.755 655.475,-262.878 909.5,-244 924.735,-242.868 941.203,-241.517 956.477,-240.21"/>
<polygon fill="midnightblue" stroke="midnightblue" points="296.627,-280.686 287.099,-285.319 297.437,-287.639 296.627,-280.686"/>
</g>
<!-- Node33 -->
<g id="node33" class="node"><title>Node33</title>
<g id="a_node33"><a xlink:href="lll_8h.html" target="_top" xlink:title="fplll/lll.h">
<polygon fill="white" stroke="black" points="346.5,-224.5 346.5,-243.5 396.5,-243.5 396.5,-224.5 346.5,-224.5"/>
<text text-anchor="middle" x="371.5" y="-231.5" font-family="Helvetica,sans-Serif" font-size="10.00">fplll/lll.h</text>
</a>
</g>
</g>
<!-- Node32&#45;&gt;Node33 -->
<g id="edge41" class="edge"><title>Node32&#45;&gt;Node33</title>
<path fill="none" stroke="midnightblue" d="M284.742,-276.096C306.04,-266.007 335.042,-252.27 353.521,-243.516"/>
<polygon fill="midnightblue" stroke="midnightblue" points="283.103,-273 275.564,-280.444 286.099,-279.326 283.103,-273"/>
</g>
<!-- Node34 -->
<g id="node34" class="node"><title>Node34</title>
<g id="a_node34"><a xlink:href="pruner_8h.html" target="_top" xlink:title="fplll/pruner.h">
<polygon fill="white" stroke="black" points="220.5,-224.5 220.5,-243.5 290.5,-243.5 290.5,-224.5 220.5,-224.5"/>
<text text-anchor="middle" x="255.5" y="-231.5" font-family="Helvetica,sans-Serif" font-size="10.00">fplll/pruner.h</text>
</a>
</g>
</g>
<!-- Node32&#45;&gt;Node34 -->
<g id="edge45" class="edge"><title>Node32&#45;&gt;Node34</title>
<path fill="none" stroke="midnightblue" d="M256.789,-269.805C256.46,-260.91 256.084,-250.78 255.824,-243.751"/>
<polygon fill="midnightblue" stroke="midnightblue" points="253.302,-270.219 257.17,-280.083 260.297,-269.96 253.302,-270.219"/>
</g>
<!-- Node35 -->
<g id="node35" class="node"><title>Node35</title>
<g id="a_node35"><a xlink:href="pruner_8cpp.html" target="_top" xlink:title="fplll/pruner.cpp">
<polygon fill="white" stroke="black" points="152.5,-168.5 152.5,-187.5 232.5,-187.5 232.5,-168.5 152.5,-168.5"/>
<text text-anchor="middle" x="192.5" y="-175.5" font-family="Helvetica,sans-Serif" font-size="10.00">fplll/pruner.cpp</text>
</a>
</g>
</g>
<!-- Node32&#45;&gt;Node35 -->
<g id="edge49" class="edge"><title>Node32&#45;&gt;Node35</title>
<path fill="none" stroke="midnightblue" d="M237.701,-273.705C228.569,-265.732 218.277,-255.296 211.5,-244 200.492,-225.651 195.533,-200.539 193.585,-187.554"/>
<polygon fill="midnightblue" stroke="midnightblue" points="235.698,-276.591 245.627,-280.288 240.17,-271.206 235.698,-276.591"/>
</g>
<!-- Node36 -->
<g id="node36" class="node"><title>Node36</title>
<g id="a_node36"><a xlink:href="gso_8cpp.html" target="_top" xlink:title="fplll/gso.cpp">
<polygon fill="white" stroke="black" points="95,-224.5 95,-243.5 164,-243.5 164,-224.5 95,-224.5"/>
<text text-anchor="middle" x="129.5" y="-231.5" font-family="Helvetica,sans-Serif" font-size="10.00">fplll/gso.cpp</text>
</a>
</g>
</g>
<!-- Node32&#45;&gt;Node36 -->
<g id="edge48" class="edge"><title>Node32&#45;&gt;Node36</title>
<path fill="none" stroke="midnightblue" d="M227.877,-276.503C203.881,-266.38 170.716,-252.388 149.687,-243.516"/>
<polygon fill="midnightblue" stroke="midnightblue" points="226.644,-279.781 237.218,-280.444 229.365,-273.332 226.644,-279.781"/>
</g>
<!-- Node33&#45;&gt;Node7 -->
<g id="edge42" class="edge"><title>Node33&#45;&gt;Node7</title>
<path fill="none" stroke="midnightblue" d="M407.032,-228.443C418.651,-226.984 431.621,-225.388 443.5,-224 587.479,-207.177 759.879,-189.103 827.863,-182.056"/>
<polygon fill="midnightblue" stroke="midnightblue" points="406.294,-225.009 396.812,-229.735 407.172,-231.953 406.294,-225.009"/>
</g>
<!-- Node33&#45;&gt;Node27 -->
<g id="edge43" class="edge"><title>Node33&#45;&gt;Node27</title>
<path fill="none" stroke="midnightblue" d="M391.642,-218.101C404.779,-208.382 421.482,-196.027 432.558,-187.834"/>
<polygon fill="midnightblue" stroke="midnightblue" points="389.187,-215.563 383.229,-224.324 393.35,-221.191 389.187,-215.563"/>
</g>
<!-- Node33&#45;&gt;Node30 -->
<g id="edge44" class="edge"><title>Node33&#45;&gt;Node30</title>
<path fill="none" stroke="midnightblue" d="M359.118,-215.855C352.365,-206.505 344.291,-195.327 338.82,-187.751"/>
<polygon fill="midnightblue" stroke="midnightblue" points="356.368,-218.025 365.06,-224.083 362.042,-213.927 356.368,-218.025"/>
</g>
<!-- Node34&#45;&gt;Node9 -->
<g id="edge46" class="edge"><title>Node34&#45;&gt;Node9</title>
<path fill="none" stroke="midnightblue" d="M257.23,-214.001C259.658,-199.075 265.49,-179.028 279.5,-168 334.484,-124.718 554.624,-122.088 634.424,-122.603"/>
<polygon fill="midnightblue" stroke="midnightblue" points="253.725,-213.825 255.958,-224.182 260.671,-214.693 253.725,-213.825"/>
</g>
<!-- Node34&#45;&gt;Node35 -->
<g id="edge47" class="edge"><title>Node34&#45;&gt;Node35</title>
<path fill="none" stroke="midnightblue" d="M237.46,-217.537C226.227,-207.909 212.181,-195.869 202.806,-187.834"/>
<polygon fill="midnightblue" stroke="midnightblue" points="235.508,-220.473 245.378,-224.324 240.063,-215.159 235.508,-220.473"/>
</g>
<!-- Node37&#45;&gt;Node9 -->
<g id="edge51" class="edge"><title>Node37&#45;&gt;Node9</title>
<path fill="none" stroke="midnightblue" d="M56.5909,-218.072C76.518,-202.566 110.175,-179.055 143.5,-168 235.742,-137.4 538.478,-126.486 634.207,-123.752"/>
<polygon fill="midnightblue" stroke="midnightblue" points="54.3332,-215.396 48.692,-224.364 58.6945,-220.871 54.3332,-215.396"/>
</g>
<!-- Node37&#45;&gt;Node10 -->
<g id="edge52" class="edge"><title>Node37&#45;&gt;Node10</title>
<path fill="none" stroke="midnightblue" d="M50.7896,-216.026C61.776,-201.777 78.9644,-181.623 97.5,-168 159.512,-122.424 245.371,-90.0809 288.495,-75.5694"/>
<polygon fill="midnightblue" stroke="midnightblue" points="47.7053,-214.306 44.5137,-224.408 53.3088,-218.501 47.7053,-214.306"/>
</g>
<!-- Node37&#45;&gt;Node30 -->
<g id="edge53" class="edge"><title>Node37&#45;&gt;Node30</title>
<path fill="none" stroke="midnightblue" d="M87.4464,-223.648C163.436,-209.48 240.992,-195.443 288.306,-186.928"/>
<polygon fill="midnightblue" stroke="midnightblue" points="86.4112,-220.28 77.2234,-225.556 87.696,-227.162 86.4112,-220.28"/>
</g>
<!-- Node38&#45;&gt;Node19 -->
<g id="edge55" class="edge"><title>Node38&#45;&gt;Node19</title>
<path fill="none" stroke="midnightblue" d="M946.091,-453.608C956.989,-445.414 968.206,-435.008 975.5,-423 1012.54,-362.034 1014.91,-271.623 1014.69,-243.597"/>
<polygon fill="midnightblue" stroke="midnightblue" points="944.016,-450.789 937.89,-459.433 948.07,-456.496 944.016,-450.789"/>
</g>
<!-- Node39 -->
<g id="node39" class="node"><title>Node39</title>
<g id="a_node39"><a xlink:href="enumerate__base_8cpp.html" target="_top" xlink:title="fplll/enum/enumerate\l_base.cpp">
<polygon fill="white" stroke="black" points="860,-392.5 860,-422.5 967,-422.5 967,-392.5 860,-392.5"/>
<text text-anchor="start" x="868" y="-410.5" font-family="Helvetica,sans-Serif" font-size="10.00">fplll/enum/enumerate</text>
<text text-anchor="middle" x="913.5" y="-399.5" font-family="Helvetica,sans-Serif" font-size="10.00">_base.cpp</text>
</a>
</g>
</g>
<!-- Node38&#45;&gt;Node39 -->
<g id="edge56" class="edge"><title>Node38&#45;&gt;Node39</title>
<path fill="none" stroke="midnightblue" d="M913.5,-449.108C913.5,-440.154 913.5,-430.323 913.5,-422.577"/>
<polygon fill="midnightblue" stroke="midnightblue" points="910,-449.396 913.5,-459.396 917,-449.396 910,-449.396"/>
</g>
</g>
</svg>
