<?xml version="1.0" encoding="UTF-8" standalone="no"?>
<!DOCTYPE svg PUBLIC "-//W3C//DTD SVG 1.1//EN"
 "http://www.w3.org/Graphics/SVG/1.1/DTD/svg11.dtd">
<!-- Generated by graphviz version 2.38.0 (20140413.2041)
 -->
<!-- Title: fplll/nr/nr_FP.inl Pages: 1 -->
<svg width="1686pt" height="643pt"
 viewBox="0.00 0.00 1686.00 643.00" xmlns="http://www.w3.org/2000/svg" xmlns:xlink="http://www.w3.org/1999/xlink">
<g id="graph0" class="graph" transform="scale(1 1) rotate(0) translate(4 639)">
<title>fplll/nr/nr_FP.inl</title>
<polygon fill="white" stroke="none" points="-4,4 -4,-639 1682,-639 1682,4 -4,4"/>
<!-- Node1 -->
<g id="node1" class="node"><title>Node1</title>
<polygon fill="#bfbfbf" stroke="black" points="1276.5,-615.5 1276.5,-634.5 1361.5,-634.5 1361.5,-615.5 1276.5,-615.5"/>
<text text-anchor="middle" x="1319" y="-622.5" font-family="Helvetica,sans-Serif" font-size="10.00">fplll/nr/nr_FP.inl</text>
</g>
<!-- Node2 -->
<g id="node2" class="node"><title>Node2</title>
<g id="a_node2"><a xlink:href="nr_8h.html" target="_top" xlink:title="fplll/nr/nr.h">
<polygon fill="white" stroke="black" points="1212,-503.5 1212,-522.5 1274,-522.5 1274,-503.5 1212,-503.5"/>
<text text-anchor="middle" x="1243" y="-510.5" font-family="Helvetica,sans-Serif" font-size="10.00">fplll/nr/nr.h</text>
</a>
</g>
</g>
<!-- Node1&#45;&gt;Node2 -->
<g id="edge1" class="edge"><title>Node1&#45;&gt;Node2</title>
<path fill="none" stroke="midnightblue" d="M1294.75,-609.847C1283.33,-602.063 1270.4,-591.454 1262,-579 1250.03,-561.261 1245.48,-535.892 1243.85,-522.707"/>
<polygon fill="midnightblue" stroke="midnightblue" points="1293.17,-612.992 1303.47,-615.465 1296.96,-607.107 1293.17,-612.992"/>
</g>
<!-- Node47 -->
<g id="node47" class="node"><title>Node47</title>
<g id="a_node47"><a xlink:href="nr__FP__d_8inl.html" target="_top" xlink:title="fplll/nr/nr_FP_d.inl">
<polygon fill="white" stroke="black" points="1271.5,-559.5 1271.5,-578.5 1366.5,-578.5 1366.5,-559.5 1271.5,-559.5"/>
<text text-anchor="middle" x="1319" y="-566.5" font-family="Helvetica,sans-Serif" font-size="10.00">fplll/nr/nr_FP_d.inl</text>
</a>
</g>
</g>
<!-- Node1&#45;&gt;Node47 -->
<g id="edge68" class="edge"><title>Node1&#45;&gt;Node47</title>
<path fill="none" stroke="midnightblue" d="M1319,-604.805C1319,-595.91 1319,-585.78 1319,-578.751"/>
<polygon fill="midnightblue" stroke="midnightblue" points="1315.5,-605.083 1319,-615.083 1322.5,-605.083 1315.5,-605.083"/>
</g>
<!-- Node48 -->
<g id="node48" class="node"><title>Node48</title>
<g id="a_node48"><a xlink:href="nr__FP__ld_8inl.html" target="_top" xlink:title="fplll/nr/nr_FP_ld.inl">
<polygon fill="white" stroke="black" points="1117,-559.5 1117,-578.5 1215,-578.5 1215,-559.5 1117,-559.5"/>
<text text-anchor="middle" x="1166" y="-566.5" font-family="Helvetica,sans-Serif" font-size="10.00">fplll/nr/nr_FP_ld.inl</text>
</a>
</g>
</g>
<!-- Node1&#45;&gt;Node48 -->
<g id="edge70" class="edge"><title>Node1&#45;&gt;Node48</title>
<path fill="none" stroke="midnightblue" d="M1285.11,-612.039C1256.32,-601.879 1215.71,-587.546 1190.13,-578.516"/>
<polygon fill="midnightblue" stroke="midnightblue" points="1284.16,-615.416 1294.76,-615.444 1286.49,-608.815 1284.16,-615.416"/>
</g>
<!-- Node49 -->
<g id="node49" class="node"><title>Node49</title>
<g id="a_node49"><a xlink:href="nr__FP__dd_8inl.html" target="_top" xlink:title="fplll/nr/nr_FP_dd.inl">
<polygon fill="white" stroke="black" points="1384.5,-559.5 1384.5,-578.5 1485.5,-578.5 1485.5,-559.5 1384.5,-559.5"/>
<text text-anchor="middle" x="1435" y="-566.5" font-family="Helvetica,sans-Serif" font-size="10.00">fplll/nr/nr_FP_dd.inl</text>
</a>
</g>
</g>
<!-- Node1&#45;&gt;Node49 -->
<g id="edge72" class="edge"><title>Node1&#45;&gt;Node49</title>
<path fill="none" stroke="midnightblue" d="M1346.72,-611.096C1368.39,-601.007 1397.9,-587.27 1416.71,-578.516"/>
<polygon fill="midnightblue" stroke="midnightblue" points="1344.97,-608.05 1337.38,-615.444 1347.92,-614.396 1344.97,-608.05"/>
</g>
<!-- Node50 -->
<g id="node50" class="node"><title>Node50</title>
<g id="a_node50"><a xlink:href="nr__FP__qd_8inl.html" target="_top" xlink:title="fplll/nr/nr_FP_qd.inl">
<polygon fill="white" stroke="black" points="1503.5,-559.5 1503.5,-578.5 1604.5,-578.5 1604.5,-559.5 1503.5,-559.5"/>
<text text-anchor="middle" x="1554" y="-566.5" font-family="Helvetica,sans-Serif" font-size="10.00">fplll/nr/nr_FP_qd.inl</text>
</a>
</g>
</g>
<!-- Node1&#45;&gt;Node50 -->
<g id="edge73" class="edge"><title>Node1&#45;&gt;Node50</title>
<path fill="none" stroke="midnightblue" d="M1366.21,-613.153C1410.61,-602.95 1476.19,-587.881 1516.94,-578.516"/>
<polygon fill="midnightblue" stroke="midnightblue" points="1365.2,-609.793 1356.24,-615.444 1366.77,-616.615 1365.2,-609.793"/>
</g>
<!-- Node3 -->
<g id="node3" class="node"><title>Node3</title>
<g id="a_node3"><a xlink:href="numvect_8h.html" target="_top" xlink:title="fplll/nr/numvect.h">
<polygon fill="white" stroke="black" points="853,-442 853,-461 945,-461 945,-442 853,-442"/>
<text text-anchor="middle" x="899" y="-449" font-family="Helvetica,sans-Serif" font-size="10.00">fplll/nr/numvect.h</text>
</a>
</g>
</g>
<!-- Node2&#45;&gt;Node3 -->
<g id="edge2" class="edge"><title>Node2&#45;&gt;Node3</title>
<path fill="none" stroke="midnightblue" d="M1201.65,-504.848C1137.05,-493.675 1012.62,-472.152 945.171,-460.486"/>
<polygon fill="midnightblue" stroke="midnightblue" points="1201.42,-508.359 1211.87,-506.615 1202.61,-501.462 1201.42,-508.359"/>
</g>
<!-- Node45 -->
<g id="node45" class="node"><title>Node45</title>
<g id="a_node45"><a xlink:href="enumerate__base_8h.html" target="_top" xlink:title="fplll/enum/enumerate\l_base.h">
<polygon fill="white" stroke="black" points="1276.5,-436.5 1276.5,-466.5 1383.5,-466.5 1383.5,-436.5 1276.5,-436.5"/>
<text text-anchor="start" x="1284.5" y="-454.5" font-family="Helvetica,sans-Serif" font-size="10.00">fplll/enum/enumerate</text>
<text text-anchor="middle" x="1330" y="-443.5" font-family="Helvetica,sans-Serif" font-size="10.00">_base.h</text>
</a>
</g>
</g>
<!-- Node2&#45;&gt;Node45 -->
<g id="edge65" class="edge"><title>Node2&#45;&gt;Node45</title>
<path fill="none" stroke="midnightblue" d="M1263.85,-497.739C1277.68,-488.282 1295.74,-475.93 1309.5,-466.523"/>
<polygon fill="midnightblue" stroke="midnightblue" points="1261.74,-494.941 1255.46,-503.475 1265.7,-500.719 1261.74,-494.941"/>
</g>
<!-- Node4 -->
<g id="node4" class="node"><title>Node4</title>
<g id="a_node4"><a xlink:href="matrix_8h.html" target="_top" xlink:title="fplll/nr/matrix.h">
<polygon fill="white" stroke="black" points="686.5,-375 686.5,-394 767.5,-394 767.5,-375 686.5,-375"/>
<text text-anchor="middle" x="727" y="-382" font-family="Helvetica,sans-Serif" font-size="10.00">fplll/nr/matrix.h</text>
</a>
</g>
</g>
<!-- Node3&#45;&gt;Node4 -->
<g id="edge3" class="edge"><title>Node3&#45;&gt;Node4</title>
<path fill="none" stroke="midnightblue" d="M866.639,-438.271C832.502,-425.37 779.594,-405.376 749.661,-394.064"/>
<polygon fill="midnightblue" stroke="midnightblue" points="865.568,-441.607 876.16,-441.869 868.043,-435.059 865.568,-441.607"/>
</g>
<!-- Node5 -->
<g id="node5" class="node"><title>Node5</title>
<g id="a_node5"><a xlink:href="util_8h.html" target="_top" xlink:title="fplll/util.h">
<polygon fill="white" stroke="black" points="1177,-313.5 1177,-332.5 1233,-332.5 1233,-313.5 1177,-313.5"/>
<text text-anchor="middle" x="1205" y="-320.5" font-family="Helvetica,sans-Serif" font-size="10.00">fplll/util.h</text>
</a>
</g>
</g>
<!-- Node4&#45;&gt;Node5 -->
<g id="edge4" class="edge"><title>Node4&#45;&gt;Node5</title>
<path fill="none" stroke="midnightblue" d="M777.951,-377.158C878.359,-364.659 1098.82,-337.217 1176.91,-327.497"/>
<polygon fill="midnightblue" stroke="midnightblue" points="777.245,-373.719 767.754,-378.427 778.11,-380.665 777.245,-373.719"/>
</g>
<!-- Node31 -->
<g id="node31" class="node"><title>Node31</title>
<g id="a_node31"><a xlink:href="matrix_8cpp.html" target="_top" xlink:title="fplll/nr/matrix.cpp">
<polygon fill="white" stroke="black" points="569,-313.5 569,-332.5 661,-332.5 661,-313.5 569,-313.5"/>
<text text-anchor="middle" x="615" y="-320.5" font-family="Helvetica,sans-Serif" font-size="10.00">fplll/nr/matrix.cpp</text>
</a>
</g>
</g>
<!-- Node4&#45;&gt;Node31 -->
<g id="edge38" class="edge"><title>Node4&#45;&gt;Node31</title>
<path fill="none" stroke="midnightblue" d="M696.88,-370.521C673.517,-358.982 642.649,-342.443 626.12,-332.509"/>
<polygon fill="midnightblue" stroke="midnightblue" points="695.528,-373.755 706.053,-374.975 698.586,-367.458 695.528,-373.755"/>
</g>
<!-- Node32 -->
<g id="node32" class="node"><title>Node32</title>
<g id="a_node32"><a xlink:href="gso_8h.html" target="_top" xlink:title="fplll/gso.h">
<polygon fill="white" stroke="black" points="496.5,-257.5 496.5,-276.5 555.5,-276.5 555.5,-257.5 496.5,-257.5"/>
<text text-anchor="middle" x="526" y="-264.5" font-family="Helvetica,sans-Serif" font-size="10.00">fplll/gso.h</text>
</a>
</g>
</g>
<!-- Node4&#45;&gt;Node32 -->
<g id="edge40" class="edge"><title>Node4&#45;&gt;Node32</title>
<path fill="none" stroke="midnightblue" d="M716.939,-365.853C706.965,-349.869 690.267,-326.773 670,-313 634.797,-289.077 586.264,-277.393 555.508,-272.05"/>
<polygon fill="midnightblue" stroke="midnightblue" points="714.116,-367.953 722.252,-374.74 720.124,-364.361 714.116,-367.953"/>
</g>
<!-- Node38 -->
<g id="node38" class="node"><title>Node38</title>
<g id="a_node38"><a xlink:href="sampler__basic_8h.html" target="_top" xlink:title="fplll/sieve/sampler\l_basic.h">
<polygon fill="white" stroke="black" points="478.5,-190.5 478.5,-220.5 573.5,-220.5 573.5,-190.5 478.5,-190.5"/>
<text text-anchor="start" x="486.5" y="-208.5" font-family="Helvetica,sans-Serif" font-size="10.00">fplll/sieve/sampler</text>
<text text-anchor="middle" x="526" y="-197.5" font-family="Helvetica,sans-Serif" font-size="10.00">_basic.h</text>
</a>
</g>
</g>
<!-- Node4&#45;&gt;Node38 -->
<g id="edge64" class="edge"><title>Node4&#45;&gt;Node38</title>
<path fill="none" stroke="midnightblue" d="M722.171,-364.953C717.466,-349.676 709.086,-328.141 696,-313 658.197,-269.259 597.94,-237.464 560.244,-220.515"/>
<polygon fill="midnightblue" stroke="midnightblue" points="718.865,-366.125 724.962,-374.79 725.6,-364.214 718.865,-366.125"/>
</g>
<!-- Node43 -->
<g id="node43" class="node"><title>Node43</title>
<g id="a_node43"><a xlink:href="wrapper_8h.html" target="_top" xlink:title="fplll/wrapper.h">
<polygon fill="white" stroke="black" points="726.5,-196 726.5,-215 803.5,-215 803.5,-196 726.5,-196"/>
<text text-anchor="middle" x="765" y="-203" font-family="Helvetica,sans-Serif" font-size="10.00">fplll/wrapper.h</text>
</a>
</g>
</g>
<!-- Node4&#45;&gt;Node43 -->
<g id="edge58" class="edge"><title>Node4&#45;&gt;Node43</title>
<path fill="none" stroke="midnightblue" d="M732.417,-365.376C735.18,-355.798 738.479,-343.815 741,-333 751.249,-289.024 760.267,-235.686 763.615,-215.141"/>
<polygon fill="midnightblue" stroke="midnightblue" points="729.057,-364.396 729.596,-374.978 735.773,-366.37 729.057,-364.396"/>
</g>
<!-- Node6 -->
<g id="node6" class="node"><title>Node6</title>
<g id="a_node6"><a xlink:href="evaluator_8h.html" target="_top" xlink:title="fplll/enum/evaluator.h">
<polygon fill="white" stroke="black" points="1150,-257.5 1150,-276.5 1260,-276.5 1260,-257.5 1150,-257.5"/>
<text text-anchor="middle" x="1205" y="-264.5" font-family="Helvetica,sans-Serif" font-size="10.00">fplll/enum/evaluator.h</text>
</a>
</g>
</g>
<!-- Node5&#45;&gt;Node6 -->
<g id="edge5" class="edge"><title>Node5&#45;&gt;Node6</title>
<path fill="none" stroke="midnightblue" d="M1205,-302.805C1205,-293.91 1205,-283.78 1205,-276.751"/>
<polygon fill="midnightblue" stroke="midnightblue" points="1201.5,-303.083 1205,-313.083 1208.5,-303.083 1201.5,-303.083"/>
</g>
<!-- Node8 -->
<g id="node8" class="node"><title>Node8</title>
<g id="a_node8"><a xlink:href="bkz_8cpp.html" target="_top" xlink:title="fplll/bkz.cpp">
<polygon fill="white" stroke="black" points="1003.5,-62 1003.5,-81 1072.5,-81 1072.5,-62 1003.5,-62"/>
<text text-anchor="middle" x="1038" y="-69" font-family="Helvetica,sans-Serif" font-size="10.00">fplll/bkz.cpp</text>
</a>
</g>
</g>
<!-- Node5&#45;&gt;Node8 -->
<g id="edge25" class="edge"><title>Node5&#45;&gt;Node8</title>
<path fill="none" stroke="midnightblue" d="M1243.5,-318.814C1297.66,-313.523 1392.37,-301.043 1416,-277 1464.55,-227.593 1486.16,-174.647 1440,-123 1392.31,-69.6461 1190.82,-97.2353 1120,-87 1104.4,-84.7461 1087.22,-81.7828 1072.63,-79.1229"/>
<polygon fill="midnightblue" stroke="midnightblue" points="1242.87,-315.357 1233.24,-319.777 1243.53,-322.327 1242.87,-315.357"/>
</g>
<!-- Node9 -->
<g id="node9" class="node"><title>Node9</title>
<g id="a_node9"><a xlink:href="fplll_8h.html" target="_top" xlink:title="fplll/fplll.h">
<polygon fill="white" stroke="black" points="1129,-62 1129,-81 1187,-81 1187,-62 1129,-62"/>
<text text-anchor="middle" x="1158" y="-69" font-family="Helvetica,sans-Serif" font-size="10.00">fplll/fplll.h</text>
</a>
</g>
</g>
<!-- Node5&#45;&gt;Node9 -->
<g id="edge29" class="edge"><title>Node5&#45;&gt;Node9</title>
<path fill="none" stroke="midnightblue" d="M1243.15,-322.202C1300.88,-321.201 1412.83,-314.092 1499,-277 1545.1,-257.156 1590.38,-236.299 1571,-190 1554.62,-150.862 1540.99,-141.899 1503,-123 1447.45,-95.3615 1259.63,-79.6046 1187.01,-74.4234"/>
<polygon fill="midnightblue" stroke="midnightblue" points="1242.98,-318.704 1233.02,-322.324 1243.06,-325.704 1242.98,-318.704"/>
</g>
<!-- Node23 -->
<g id="node23" class="node"><title>Node23</title>
<g id="a_node23"><a xlink:href="topenum_8h.html" target="_top" xlink:title="fplll/enum/topenum.h">
<polygon fill="white" stroke="black" points="1278.5,-257.5 1278.5,-276.5 1385.5,-276.5 1385.5,-257.5 1278.5,-257.5"/>
<text text-anchor="middle" x="1332" y="-264.5" font-family="Helvetica,sans-Serif" font-size="10.00">fplll/enum/topenum.h</text>
</a>
</g>
</g>
<!-- Node5&#45;&gt;Node23 -->
<g id="edge26" class="edge"><title>Node5&#45;&gt;Node23</title>
<path fill="none" stroke="midnightblue" d="M1234.39,-309.503C1258.2,-299.38 1291.11,-285.388 1311.97,-276.516"/>
<polygon fill="midnightblue" stroke="midnightblue" points="1232.96,-306.31 1225.12,-313.444 1235.7,-312.751 1232.96,-306.31"/>
</g>
<!-- Node25 -->
<g id="node25" class="node"><title>Node25</title>
<g id="a_node25"><a xlink:href="svpcvp_8h.html" target="_top" xlink:title="fplll/svpcvp.h">
<polygon fill="white" stroke="black" points="1488,-196 1488,-215 1562,-215 1562,-196 1488,-196"/>
<text text-anchor="middle" x="1525" y="-203" font-family="Helvetica,sans-Serif" font-size="10.00">fplll/svpcvp.h</text>
</a>
</g>
</g>
<!-- Node5&#45;&gt;Node25 -->
<g id="edge30" class="edge"><title>Node5&#45;&gt;Node25</title>
<path fill="none" stroke="midnightblue" d="M1243.33,-319.171C1308.15,-313.803 1436.07,-300.522 1474,-277 1498.39,-261.872 1514.67,-230.365 1521.44,-215.125"/>
<polygon fill="midnightblue" stroke="midnightblue" points="1242.8,-315.702 1233.11,-319.994 1243.36,-322.679 1242.8,-315.702"/>
</g>
<!-- Node26 -->
<g id="node26" class="node"><title>Node26</title>
<g id="a_node26"><a xlink:href="latticegen_8cpp.html" target="_top" xlink:title="fplll/latticegen.cpp">
<polygon fill="white" stroke="black" points="860.5,-257.5 860.5,-276.5 955.5,-276.5 955.5,-257.5 860.5,-257.5"/>
<text text-anchor="middle" x="908" y="-264.5" font-family="Helvetica,sans-Serif" font-size="10.00">fplll/latticegen.cpp</text>
</a>
</g>
</g>
<!-- Node5&#45;&gt;Node26 -->
<g id="edge33" class="edge"><title>Node5&#45;&gt;Node26</title>
<path fill="none" stroke="midnightblue" d="M1166.9,-315.073C1112.72,-305.222 1013.5,-287.181 954.878,-276.523"/>
<polygon fill="midnightblue" stroke="midnightblue" points="1166.33,-318.526 1176.79,-316.871 1167.58,-311.639 1166.33,-318.526"/>
</g>
<!-- Node27 -->
<g id="node27" class="node"><title>Node27</title>
<g id="a_node27"><a xlink:href="lll_8cpp.html" target="_top" xlink:title="fplll/lll.cpp">
<polygon fill="white" stroke="black" points="1086,-129 1086,-148 1146,-148 1146,-129 1086,-129"/>
<text text-anchor="middle" x="1116" y="-136" font-family="Helvetica,sans-Serif" font-size="10.00">fplll/lll.cpp</text>
</a>
</g>
</g>
<!-- Node5&#45;&gt;Node27 -->
<g id="edge34" class="edge"><title>Node5&#45;&gt;Node27</title>
<path fill="none" stroke="midnightblue" d="M1243.33,-317.886C1292.5,-311.794 1373.86,-298.695 1394,-277 1420.45,-248.509 1428.06,-219.719 1403,-190 1372.48,-153.802 1239.6,-162.381 1193,-154 1177.6,-151.231 1160.5,-148.024 1146.33,-145.331"/>
<polygon fill="midnightblue" stroke="midnightblue" points="1242.87,-314.416 1233.36,-319.08 1243.7,-321.366 1242.87,-314.416"/>
</g>
<!-- Node28 -->
<g id="node28" class="node"><title>Node28</title>
<g id="a_node28"><a xlink:href="llldiff_8cpp.html" target="_top" xlink:title="fplll/llldiff.cpp">
<polygon fill="white" stroke="black" points="974,-257.5 974,-276.5 1048,-276.5 1048,-257.5 974,-257.5"/>
<text text-anchor="middle" x="1011" y="-264.5" font-family="Helvetica,sans-Serif" font-size="10.00">fplll/llldiff.cpp</text>
</a>
</g>
</g>
<!-- Node5&#45;&gt;Node28 -->
<g id="edge35" class="edge"><title>Node5&#45;&gt;Node28</title>
<path fill="none" stroke="midnightblue" d="M1166.98,-311.418C1130.39,-301.233 1075.76,-286.026 1041.81,-276.576"/>
<polygon fill="midnightblue" stroke="midnightblue" points="1166.22,-314.838 1176.79,-314.148 1168.1,-308.094 1166.22,-314.838"/>
</g>
<!-- Node29 -->
<g id="node29" class="node"><title>Node29</title>
<g id="a_node29"><a xlink:href="util_8cpp.html" target="_top" xlink:title="fplll/util.cpp">
<polygon fill="white" stroke="black" points="1066,-257.5 1066,-276.5 1132,-276.5 1132,-257.5 1066,-257.5"/>
<text text-anchor="middle" x="1099" y="-264.5" font-family="Helvetica,sans-Serif" font-size="10.00">fplll/util.cpp</text>
</a>
</g>
</g>
<!-- Node5&#45;&gt;Node29 -->
<g id="edge36" class="edge"><title>Node5&#45;&gt;Node29</title>
<path fill="none" stroke="midnightblue" d="M1178.94,-308.726C1159.32,-298.727 1132.97,-285.307 1115.99,-276.655"/>
<polygon fill="midnightblue" stroke="midnightblue" points="1177.47,-311.903 1187.97,-313.324 1180.65,-305.666 1177.47,-311.903"/>
</g>
<!-- Node30 -->
<g id="node30" class="node"><title>Node30</title>
<g id="a_node30"><a xlink:href="wrapper_8cpp.html" target="_top" xlink:title="fplll/wrapper.cpp">
<polygon fill="white" stroke="black" points="902,-129 902,-148 990,-148 990,-129 902,-129"/>
<text text-anchor="middle" x="946" y="-136" font-family="Helvetica,sans-Serif" font-size="10.00">fplll/wrapper.cpp</text>
</a>
</g>
</g>
<!-- Node5&#45;&gt;Node30 -->
<g id="edge37" class="edge"><title>Node5&#45;&gt;Node30</title>
<path fill="none" stroke="midnightblue" d="M1166.89,-319.956C1079.71,-314.893 871.66,-300.453 851,-277 825.441,-247.986 831.084,-223.143 851,-190 864.085,-168.226 890.078,-155.335 911.572,-148.033"/>
<polygon fill="midnightblue" stroke="midnightblue" points="1166.72,-323.452 1176.9,-320.527 1167.12,-316.464 1166.72,-323.452"/>
</g>
<!-- Node7 -->
<g id="node7" class="node"><title>Node7</title>
<g id="a_node7"><a xlink:href="bkz_8h.html" target="_top" xlink:title="fplll/bkz.h">
<polygon fill="white" stroke="black" points="1008.5,-129 1008.5,-148 1067.5,-148 1067.5,-129 1008.5,-129"/>
<text text-anchor="middle" x="1038" y="-136" font-family="Helvetica,sans-Serif" font-size="10.00">fplll/bkz.h</text>
</a>
</g>
</g>
<!-- Node6&#45;&gt;Node7 -->
<g id="edge6" class="edge"><title>Node6&#45;&gt;Node7</title>
<path fill="none" stroke="midnightblue" d="M1161.05,-254.425C1139.58,-247.256 1114.29,-236.419 1095,-221 1069.11,-200.299 1049.99,-164.806 1042.05,-148.353"/>
<polygon fill="midnightblue" stroke="midnightblue" points="1160.02,-257.77 1170.61,-257.464 1162.14,-251.099 1160.02,-257.77"/>
</g>
<!-- Node19 -->
<g id="node19" class="node"><title>Node19</title>
<g id="a_node19"><a xlink:href="enumerate_8h.html" target="_top" xlink:title="fplll/enum/enumerate.h">
<polygon fill="white" stroke="black" points="1104,-196 1104,-215 1220,-215 1220,-196 1104,-196"/>
<text text-anchor="middle" x="1162" y="-203" font-family="Helvetica,sans-Serif" font-size="10.00">fplll/enum/enumerate.h</text>
</a>
</g>
</g>
<!-- Node6&#45;&gt;Node19 -->
<g id="edge18" class="edge"><title>Node6&#45;&gt;Node19</title>
<path fill="none" stroke="midnightblue" d="M1192.96,-249.338C1184.89,-238.169 1174.59,-223.928 1168.15,-215.009"/>
<polygon fill="midnightblue" stroke="midnightblue" points="1190.14,-251.42 1198.84,-257.475 1195.82,-247.32 1190.14,-251.42"/>
</g>
<!-- Node22 -->
<g id="node22" class="node"><title>Node22</title>
<g id="a_node22"><a xlink:href="evaluator_8cpp.html" target="_top" xlink:title="fplll/enum/evaluator.cpp">
<polygon fill="white" stroke="black" points="928,-196 928,-215 1048,-215 1048,-196 928,-196"/>
<text text-anchor="middle" x="988" y="-203" font-family="Helvetica,sans-Serif" font-size="10.00">fplll/enum/evaluator.cpp</text>
</a>
</g>
</g>
<!-- Node6&#45;&gt;Node22 -->
<g id="edge24" class="edge"><title>Node6&#45;&gt;Node22</title>
<path fill="none" stroke="midnightblue" d="M1164.23,-254.822C1122.08,-243.264 1057.2,-225.473 1019.03,-215.009"/>
<polygon fill="midnightblue" stroke="midnightblue" points="1163.34,-258.206 1173.91,-257.475 1165.19,-251.455 1163.34,-258.206"/>
</g>
<!-- Node7&#45;&gt;Node8 -->
<g id="edge7" class="edge"><title>Node7&#45;&gt;Node8</title>
<path fill="none" stroke="midnightblue" d="M1038,-118.537C1038,-106.17 1038,-90.6198 1038,-81.1273"/>
<polygon fill="midnightblue" stroke="midnightblue" points="1034.5,-118.734 1038,-128.734 1041.5,-118.734 1034.5,-118.734"/>
</g>
<!-- Node7&#45;&gt;Node9 -->
<g id="edge8" class="edge"><title>Node7&#45;&gt;Node9</title>
<path fill="none" stroke="midnightblue" d="M1063,-123.959C1086.79,-111.073 1121.87,-92.0727 1142.07,-81.1273"/>
<polygon fill="midnightblue" stroke="midnightblue" points="1061.31,-120.893 1054.18,-128.734 1064.64,-127.048 1061.31,-120.893"/>
</g>
<!-- Node10 -->
<g id="node10" class="node"><title>Node10</title>
<g id="a_node10"><a xlink:href="fplll_8cpp.html" target="_top" xlink:title="fplll/fplll.cpp">
<polygon fill="white" stroke="black" points="682,-0.5 682,-19.5 750,-19.5 750,-0.5 682,-0.5"/>
<text text-anchor="middle" x="716" y="-7.5" font-family="Helvetica,sans-Serif" font-size="10.00">fplll/fplll.cpp</text>
</a>
</g>
</g>
<!-- Node9&#45;&gt;Node10 -->
<g id="edge9" class="edge"><title>Node9&#45;&gt;Node10</title>
<path fill="none" stroke="midnightblue" d="M1125.67,-58.7398C1122.1,-57.6991 1118.49,-56.7557 1115,-56 959.565,-22.3811 916.158,-44.3235 759,-20 756.136,-19.5567 753.175,-19.0467 750.208,-18.4996"/>
<polygon fill="midnightblue" stroke="midnightblue" points="1124.91,-62.1721 1135.5,-61.8558 1127.03,-55.499 1124.91,-62.1721"/>
</g>
<!-- Node11 -->
<g id="node11" class="node"><title>Node11</title>
<g id="a_node11"><a xlink:href="main_8h.html" target="_top" xlink:title="fplll/main.h">
<polygon fill="white" stroke="red" points="768,-0.5 768,-19.5 832,-19.5 832,-0.5 768,-0.5"/>
<text text-anchor="middle" x="800" y="-7.5" font-family="Helvetica,sans-Serif" font-size="10.00">fplll/main.h</text>
</a>
</g>
</g>
<!-- Node9&#45;&gt;Node11 -->
<g id="edge10" class="edge"><title>Node9&#45;&gt;Node11</title>
<path fill="none" stroke="midnightblue" d="M1125.65,-58.8455C1122.08,-57.7848 1118.48,-56.8078 1115,-56 995.353,-28.2456 961.983,-41.1866 841,-20 838.129,-19.4972 835.154,-18.9318 832.177,-18.3356"/>
<polygon fill="midnightblue" stroke="midnightblue" points="1124.88,-62.2767 1135.48,-61.9862 1127.02,-55.6087 1124.88,-62.2767"/>
</g>
<!-- Node12 -->
<g id="node12" class="node"><title>Node12</title>
<g id="a_node12"><a xlink:href="sieve__main_8cpp.html" target="_top" xlink:title="fplll/sieve/sieve_main.cpp">
<polygon fill="white" stroke="black" points="850.5,-0.5 850.5,-19.5 979.5,-19.5 979.5,-0.5 850.5,-0.5"/>
<text text-anchor="middle" x="915" y="-7.5" font-family="Helvetica,sans-Serif" font-size="10.00">fplll/sieve/sieve_main.cpp</text>
</a>
</g>
</g>
<!-- Node9&#45;&gt;Node12 -->
<g id="edge11" class="edge"><title>Node9&#45;&gt;Node12</title>
<path fill="none" stroke="midnightblue" d="M1124.24,-58.7472C1121.13,-57.776 1118.01,-56.8445 1115,-56 1061.88,-41.1118 999.768,-27.7556 959.024,-19.5342"/>
<polygon fill="midnightblue" stroke="midnightblue" points="1123.44,-62.1679 1134.03,-61.9264 1125.6,-55.5099 1123.44,-62.1679"/>
</g>
<!-- Node13 -->
<g id="node13" class="node"><title>Node13</title>
<g id="a_node13"><a xlink:href="test__bkz_8cpp.html" target="_top" xlink:title="tests/test_bkz.cpp">
<polygon fill="white" stroke="black" points="998,-0.5 998,-19.5 1096,-19.5 1096,-0.5 998,-0.5"/>
<text text-anchor="middle" x="1047" y="-7.5" font-family="Helvetica,sans-Serif" font-size="10.00">tests/test_bkz.cpp</text>
</a>
</g>
</g>
<!-- Node9&#45;&gt;Node13 -->
<g id="edge12" class="edge"><title>Node9&#45;&gt;Node13</title>
<path fill="none" stroke="midnightblue" d="M1133.21,-57.2118C1111.71,-45.6881 1081.24,-29.355 1062.87,-19.5091"/>
<polygon fill="midnightblue" stroke="midnightblue" points="1131.63,-60.3354 1142.1,-61.9751 1134.94,-54.1659 1131.63,-60.3354"/>
</g>
<!-- Node14 -->
<g id="node14" class="node"><title>Node14</title>
<g id="a_node14"><a xlink:href="test__lll_8cpp.html" target="_top" xlink:title="tests/test_lll.cpp">
<polygon fill="white" stroke="black" points="1113.5,-0.5 1113.5,-19.5 1202.5,-19.5 1202.5,-0.5 1113.5,-0.5"/>
<text text-anchor="middle" x="1158" y="-7.5" font-family="Helvetica,sans-Serif" font-size="10.00">tests/test_lll.cpp</text>
</a>
</g>
</g>
<!-- Node9&#45;&gt;Node14 -->
<g id="edge13" class="edge"><title>Node9&#45;&gt;Node14</title>
<path fill="none" stroke="midnightblue" d="M1158,-51.8165C1158,-40.9962 1158,-27.898 1158,-19.5091"/>
<polygon fill="midnightblue" stroke="midnightblue" points="1154.5,-51.9751 1158,-61.9751 1161.5,-51.9751 1154.5,-51.9751"/>
</g>
<!-- Node15 -->
<g id="node15" class="node"><title>Node15</title>
<g id="a_node15"><a xlink:href="test__nr_8cpp.html" target="_top" xlink:title="tests/test_nr.cpp">
<polygon fill="white" stroke="black" points="1221,-0.5 1221,-19.5 1311,-19.5 1311,-0.5 1221,-0.5"/>
<text text-anchor="middle" x="1266" y="-7.5" font-family="Helvetica,sans-Serif" font-size="10.00">tests/test_nr.cpp</text>
</a>
</g>
</g>
<!-- Node9&#45;&gt;Node15 -->
<g id="edge14" class="edge"><title>Node9&#45;&gt;Node15</title>
<path fill="none" stroke="midnightblue" d="M1182.4,-57.0565C1203.3,-45.5417 1232.76,-29.3109 1250.55,-19.5091"/>
<polygon fill="midnightblue" stroke="midnightblue" points="1180.54,-54.0841 1173.47,-61.9751 1183.92,-60.2152 1180.54,-54.0841"/>
</g>
<!-- Node16 -->
<g id="node16" class="node"><title>Node16</title>
<g id="a_node16"><a xlink:href="test__pruner_8cpp.html" target="_top" xlink:title="tests/test_pruner.cpp">
<polygon fill="white" stroke="black" points="1329.5,-0.5 1329.5,-19.5 1438.5,-19.5 1438.5,-0.5 1329.5,-0.5"/>
<text text-anchor="middle" x="1384" y="-7.5" font-family="Helvetica,sans-Serif" font-size="10.00">tests/test_pruner.cpp</text>
</a>
</g>
</g>
<!-- Node9&#45;&gt;Node16 -->
<g id="edge15" class="edge"><title>Node9&#45;&gt;Node16</title>
<path fill="none" stroke="midnightblue" d="M1196.77,-60.2938C1240.38,-48.8117 1310.45,-30.3632 1351.37,-19.5898"/>
<polygon fill="midnightblue" stroke="midnightblue" points="1195.86,-56.9125 1187.08,-62.8432 1197.64,-63.6818 1195.86,-56.9125"/>
</g>
<!-- Node17 -->
<g id="node17" class="node"><title>Node17</title>
<g id="a_node17"><a xlink:href="test__sieve_8cpp.html" target="_top" xlink:title="tests/test_sieve.cpp">
<polygon fill="white" stroke="black" points="1456.5,-0.5 1456.5,-19.5 1561.5,-19.5 1561.5,-0.5 1456.5,-0.5"/>
<text text-anchor="middle" x="1509" y="-7.5" font-family="Helvetica,sans-Serif" font-size="10.00">tests/test_sieve.cpp</text>
</a>
</g>
</g>
<!-- Node9&#45;&gt;Node17 -->
<g id="edge16" class="edge"><title>Node9&#45;&gt;Node17</title>
<path fill="none" stroke="midnightblue" d="M1197.11,-63.8705C1261.14,-53.0166 1388.25,-31.4685 1458.83,-19.5046"/>
<polygon fill="midnightblue" stroke="midnightblue" points="1196.3,-60.4581 1187.02,-65.5802 1197.47,-67.3596 1196.3,-60.4581"/>
</g>
<!-- Node18 -->
<g id="node18" class="node"><title>Node18</title>
<g id="a_node18"><a xlink:href="test__svp_8cpp.html" target="_top" xlink:title="tests/test_svp.cpp">
<polygon fill="white" stroke="black" points="1580,-0.5 1580,-19.5 1678,-19.5 1678,-0.5 1580,-0.5"/>
<text text-anchor="middle" x="1629" y="-7.5" font-family="Helvetica,sans-Serif" font-size="10.00">tests/test_svp.cpp</text>
</a>
</g>
</g>
<!-- Node9&#45;&gt;Node18 -->
<g id="edge17" class="edge"><title>Node9&#45;&gt;Node18</title>
<path fill="none" stroke="midnightblue" d="M1197.16,-66.089C1270.43,-57.7483 1433.23,-38.8096 1570,-20 1573.18,-19.5624 1576.46,-19.0988 1579.76,-18.6219"/>
<polygon fill="midnightblue" stroke="midnightblue" points="1196.55,-62.6353 1187.01,-67.2414 1197.34,-69.5906 1196.55,-62.6353"/>
</g>
<!-- Node19&#45;&gt;Node7 -->
<g id="edge19" class="edge"><title>Node19&#45;&gt;Node7</title>
<path fill="none" stroke="midnightblue" d="M1136.44,-191.103C1111.89,-178.231 1075.51,-159.16 1054.53,-148.167"/>
<polygon fill="midnightblue" stroke="midnightblue" points="1135.05,-194.326 1145.53,-195.869 1138.3,-188.126 1135.05,-194.326"/>
</g>
<!-- Node19&#45;&gt;Node8 -->
<g id="edge20" class="edge"><title>Node19&#45;&gt;Node8</title>
<path fill="none" stroke="midnightblue" d="M1165.47,-185.901C1167.71,-168.067 1168.14,-141.232 1155,-123 1144.17,-107.969 1097.42,-90.9879 1066.4,-81.0438"/>
<polygon fill="midnightblue" stroke="midnightblue" points="1161.99,-185.492 1163.9,-195.913 1168.9,-186.576 1161.99,-185.492"/>
</g>
<!-- Node20 -->
<g id="node20" class="node"><title>Node20</title>
<g id="a_node20"><a xlink:href="enumerate_8cpp.html" target="_top" xlink:title="fplll/enum/enumerate.cpp">
<polygon fill="white" stroke="black" points="1202,-129 1202,-148 1328,-148 1328,-129 1202,-129"/>
<text text-anchor="middle" x="1265" y="-136" font-family="Helvetica,sans-Serif" font-size="10.00">fplll/enum/enumerate.cpp</text>
</a>
</g>
</g>
<!-- Node19&#45;&gt;Node20 -->
<g id="edge21" class="edge"><title>Node19&#45;&gt;Node20</title>
<path fill="none" stroke="midnightblue" d="M1184.55,-190.269C1204.94,-177.403 1234.29,-158.879 1251.33,-148.127"/>
<polygon fill="midnightblue" stroke="midnightblue" points="1182.48,-187.437 1175.89,-195.734 1186.22,-193.357 1182.48,-187.437"/>
</g>
<!-- Node21 -->
<g id="node21" class="node"><title>Node21</title>
<g id="a_node21"><a xlink:href="svpcvp_8cpp.html" target="_top" xlink:title="fplll/svpcvp.cpp">
<polygon fill="white" stroke="black" points="1346.5,-129 1346.5,-148 1431.5,-148 1431.5,-129 1346.5,-129"/>
<text text-anchor="middle" x="1389" y="-136" font-family="Helvetica,sans-Serif" font-size="10.00">fplll/svpcvp.cpp</text>
</a>
</g>
</g>
<!-- Node19&#45;&gt;Node21 -->
<g id="edge22" class="edge"><title>Node19&#45;&gt;Node21</title>
<path fill="none" stroke="midnightblue" d="M1201.84,-193.091C1246.75,-180.232 1318.74,-159.618 1359.09,-148.064"/>
<polygon fill="midnightblue" stroke="midnightblue" points="1200.79,-189.751 1192.14,-195.869 1202.72,-196.48 1200.79,-189.751"/>
</g>
<!-- Node21&#45;&gt;Node10 -->
<g id="edge23" class="edge"><title>Node21&#45;&gt;Node10</title>
<path fill="none" stroke="midnightblue" d="M1350.66,-126.308C1346.07,-125.118 1341.44,-123.985 1337,-123 1241.55,-101.84 1209.35,-126.685 1120,-87 1099.76,-78.0117 1101.47,-64.4483 1081,-56 947.891,-1.05576 901.19,-42.7761 759,-20 756.138,-19.5416 753.179,-19.021 750.213,-18.4667"/>
<polygon fill="midnightblue" stroke="midnightblue" points="1349.96,-129.746 1360.53,-128.967 1351.78,-122.987 1349.96,-129.746"/>
</g>
<!-- Node23&#45;&gt;Node21 -->
<g id="edge28" class="edge"><title>Node23&#45;&gt;Node21</title>
<path fill="none" stroke="midnightblue" d="M1300.98,-252.667C1288.01,-245.348 1274.28,-234.892 1267,-221 1260.61,-208.796 1259.34,-201.455 1267,-190 1277.54,-174.229 1325.44,-157.743 1357.99,-148.058"/>
<polygon fill="midnightblue" stroke="midnightblue" points="1299.7,-255.947 1310.19,-257.447 1302.93,-249.734 1299.7,-255.947"/>
</g>
<!-- Node24 -->
<g id="node24" class="node"><title>Node24</title>
<g id="a_node24"><a xlink:href="topenum_8cpp.html" target="_top" xlink:title="fplll/enum/topenum.cpp">
<polygon fill="white" stroke="black" points="1276,-196 1276,-215 1394,-215 1394,-196 1276,-196"/>
<text text-anchor="middle" x="1335" y="-203" font-family="Helvetica,sans-Serif" font-size="10.00">fplll/enum/topenum.cpp</text>
</a>
</g>
</g>
<!-- Node23&#45;&gt;Node24 -->
<g id="edge27" class="edge"><title>Node23&#45;&gt;Node24</title>
<path fill="none" stroke="midnightblue" d="M1332.94,-247.317C1333.49,-236.496 1334.15,-223.398 1334.57,-215.009"/>
<polygon fill="midnightblue" stroke="midnightblue" points="1329.44,-247.312 1332.43,-257.475 1336.43,-247.664 1329.44,-247.312"/>
</g>
<!-- Node25&#45;&gt;Node9 -->
<g id="edge31" class="edge"><title>Node25&#45;&gt;Node9</title>
<path fill="none" stroke="midnightblue" d="M1518.78,-186.265C1511.29,-167.231 1496.79,-138.096 1474,-123 1427.05,-91.8968 1256.25,-78.3844 1187.23,-74.1087"/>
<polygon fill="midnightblue" stroke="midnightblue" points="1515.58,-187.703 1522.31,-195.885 1522.16,-185.291 1515.58,-187.703"/>
</g>
<!-- Node25&#45;&gt;Node21 -->
<g id="edge32" class="edge"><title>Node25&#45;&gt;Node21</title>
<path fill="none" stroke="midnightblue" d="M1497.68,-191.444C1470.74,-178.569 1430.34,-159.257 1407.13,-148.167"/>
<polygon fill="midnightblue" stroke="midnightblue" points="1496.41,-194.714 1506.94,-195.869 1499.43,-188.398 1496.41,-194.714"/>
</g>
<!-- Node31&#45;&gt;Node4 -->
<g id="edge39" class="edge"><title>Node31&#45;&gt;Node4</title>
<path fill="none" stroke="midnightblue" d="M645.083,-336.961C668.438,-348.495 699.309,-365.034 715.854,-374.975"/>
<polygon fill="midnightblue" stroke="midnightblue" points="646.439,-333.729 635.914,-332.509 643.381,-340.026 646.439,-333.729"/>
</g>
<!-- Node32&#45;&gt;Node19 -->
<g id="edge41" class="edge"><title>Node32&#45;&gt;Node19</title>
<path fill="none" stroke="midnightblue" d="M565.831,-263.345C654.313,-257.289 873.878,-241.389 1057,-221 1072.36,-219.289 1088.95,-217.14 1104.3,-215.025"/>
<polygon fill="midnightblue" stroke="midnightblue" points="565.441,-259.863 555.702,-264.034 565.917,-266.847 565.441,-259.863"/>
</g>
<!-- Node33 -->
<g id="node33" class="node"><title>Node33</title>
<g id="a_node33"><a xlink:href="lll_8h.html" target="_top" xlink:title="fplll/lll.h">
<polygon fill="white" stroke="black" points="860,-196 860,-215 910,-215 910,-196 860,-196"/>
<text text-anchor="middle" x="885" y="-203" font-family="Helvetica,sans-Serif" font-size="10.00">fplll/lll.h</text>
</a>
</g>
</g>
<!-- Node32&#45;&gt;Node33 -->
<g id="edge42" class="edge"><title>Node32&#45;&gt;Node33</title>
<path fill="none" stroke="midnightblue" d="M565.792,-260.253C621.118,-252.145 724.366,-236.591 812,-221 827.902,-218.171 845.679,-214.647 859.709,-211.782"/>
<polygon fill="midnightblue" stroke="midnightblue" points="565.099,-256.817 555.709,-261.726 566.11,-263.743 565.099,-256.817"/>
</g>
<!-- Node34 -->
<g id="node34" class="node"><title>Node34</title>
<g id="a_node34"><a xlink:href="pruner_8h.html" target="_top" xlink:title="fplll/pruner.h">
<polygon fill="white" stroke="black" points="346,-196 346,-215 416,-215 416,-196 346,-196"/>
<text text-anchor="middle" x="381" y="-203" font-family="Helvetica,sans-Serif" font-size="10.00">fplll/pruner.h</text>
</a>
</g>
</g>
<!-- Node32&#45;&gt;Node34 -->
<g id="edge46" class="edge"><title>Node32&#45;&gt;Node34</title>
<path fill="none" stroke="midnightblue" d="M495.858,-253.631C467.687,-242.072 426.376,-225.12 401.736,-215.009"/>
<polygon fill="midnightblue" stroke="midnightblue" points="494.645,-256.917 505.225,-257.475 497.302,-250.441 494.645,-256.917"/>
</g>
<!-- Node36 -->
<g id="node36" class="node"><title>Node36</title>
<g id="a_node36"><a xlink:href="pruner_8cpp.html" target="_top" xlink:title="fplll/pruner.cpp">
<polygon fill="white" stroke="black" points="0,-129 0,-148 80,-148 80,-129 0,-129"/>
<text text-anchor="middle" x="40" y="-136" font-family="Helvetica,sans-Serif" font-size="10.00">fplll/pruner.cpp</text>
</a>
</g>
</g>
<!-- Node32&#45;&gt;Node36 -->
<g id="edge51" class="edge"><title>Node32&#45;&gt;Node36</title>
<path fill="none" stroke="midnightblue" d="M486.221,-262.202C431.912,-256.416 331.841,-243.609 249,-221 176.111,-201.107 93.6698,-164.561 58.0128,-148.025"/>
<polygon fill="midnightblue" stroke="midnightblue" points="486.146,-265.713 496.454,-263.266 486.87,-258.75 486.146,-265.713"/>
</g>
<!-- Node37 -->
<g id="node37" class="node"><title>Node37</title>
<g id="a_node37"><a xlink:href="gso_8cpp.html" target="_top" xlink:title="fplll/gso.cpp">
<polygon fill="white" stroke="black" points="258.5,-196 258.5,-215 327.5,-215 327.5,-196 258.5,-196"/>
<text text-anchor="middle" x="293" y="-203" font-family="Helvetica,sans-Serif" font-size="10.00">fplll/gso.cpp</text>
</a>
</g>
</g>
<!-- Node32&#45;&gt;Node37 -->
<g id="edge50" class="edge"><title>Node32&#45;&gt;Node37</title>
<path fill="none" stroke="midnightblue" d="M486.086,-257.526C447.659,-249.126 388.022,-235.453 337,-221 330.809,-219.246 324.191,-217.173 318.017,-215.15"/>
<polygon fill="midnightblue" stroke="midnightblue" points="485.822,-261.05 496.337,-259.752 487.307,-254.21 485.822,-261.05"/>
</g>
<!-- Node32&#45;&gt;Node38 -->
<g id="edge52" class="edge"><title>Node32&#45;&gt;Node38</title>
<path fill="none" stroke="midnightblue" d="M526,-247.235C526,-238.586 526,-228.497 526,-220.523"/>
<polygon fill="midnightblue" stroke="midnightblue" points="522.5,-247.475 526,-257.475 529.5,-247.475 522.5,-247.475"/>
</g>
<!-- Node33&#45;&gt;Node7 -->
<g id="edge43" class="edge"><title>Node33&#45;&gt;Node7</title>
<path fill="none" stroke="midnightblue" d="M914.714,-191.824C916.163,-191.207 917.598,-190.597 919,-190 953.695,-175.24 994.102,-158.104 1017.78,-148.067"/>
<polygon fill="midnightblue" stroke="midnightblue" points="912.961,-188.767 905.133,-195.907 915.705,-195.206 912.961,-188.767"/>
</g>
<!-- Node33&#45;&gt;Node27 -->
<g id="edge44" class="edge"><title>Node33&#45;&gt;Node27</title>
<path fill="none" stroke="midnightblue" d="M913.147,-192.046C915.113,-191.315 917.078,-190.625 919,-190 987.083,-167.871 1007.33,-174.237 1076,-154 1081.81,-152.288 1088,-150.185 1093.74,-148.117"/>
<polygon fill="midnightblue" stroke="midnightblue" points="911.462,-188.951 903.478,-195.915 914.063,-195.45 911.462,-188.951"/>
</g>
<!-- Node33&#45;&gt;Node30 -->
<g id="edge45" class="edge"><title>Node33&#45;&gt;Node30</title>
<path fill="none" stroke="midnightblue" d="M900.358,-188.135C912.288,-175.423 928.359,-158.298 937.904,-148.127"/>
<polygon fill="midnightblue" stroke="midnightblue" points="897.518,-186.047 893.227,-195.734 902.622,-190.837 897.518,-186.047"/>
</g>
<!-- Node34&#45;&gt;Node9 -->
<g id="edge48" class="edge"><title>Node34&#45;&gt;Node9</title>
<path fill="none" stroke="midnightblue" d="M379.508,-185.804C379.133,-166.823 381.93,-138.137 400,-123 458.086,-74.3436 1005.77,-96.0312 1081,-87 1096.94,-85.0868 1114.54,-81.8566 1128.89,-78.93"/>
<polygon fill="midnightblue" stroke="midnightblue" points="376.019,-186.113 380.023,-195.922 383.01,-185.757 376.019,-186.113"/>
</g>
<!-- Node35 -->
<g id="node35" class="node"><title>Node35</title>
<g id="a_node35"><a xlink:href="bkz__param_8cpp.html" target="_top" xlink:title="fplll/bkz_param.cpp">
<polygon fill="white" stroke="black" points="98.5,-129 98.5,-148 199.5,-148 199.5,-129 98.5,-129"/>
<text text-anchor="middle" x="149" y="-136" font-family="Helvetica,sans-Serif" font-size="10.00">fplll/bkz_param.cpp</text>
</a>
</g>
</g>
<!-- Node34&#45;&gt;Node35 -->
<g id="edge47" class="edge"><title>Node34&#45;&gt;Node35</title>
<path fill="none" stroke="midnightblue" d="M345.133,-192.773C342.05,-191.816 338.974,-190.88 336,-190 282.633,-174.206 220.113,-157.727 182.578,-148.05"/>
<polygon fill="midnightblue" stroke="midnightblue" points="344.301,-196.18 354.891,-195.853 346.409,-189.505 344.301,-196.18"/>
</g>
<!-- Node34&#45;&gt;Node36 -->
<g id="edge49" class="edge"><title>Node34&#45;&gt;Node36</title>
<path fill="none" stroke="midnightblue" d="M347.184,-192.939C343.435,-191.856 339.653,-190.848 336,-190 227.939,-164.901 197.355,-177.8 89,-154 81.5481,-152.363 73.5731,-150.19 66.2674,-148.025"/>
<polygon fill="midnightblue" stroke="midnightblue" points="346.333,-196.338 356.92,-195.923 348.384,-189.646 346.333,-196.338"/>
</g>
<!-- Node39 -->
<g id="node39" class="node"><title>Node39</title>
<g id="a_node39"><a xlink:href="sampler__basic_8cpp.html" target="_top" xlink:title="fplll/sieve/sampler\l_basic.cpp">
<polygon fill="white" stroke="black" points="409.5,-123.5 409.5,-153.5 504.5,-153.5 504.5,-123.5 409.5,-123.5"/>
<text text-anchor="start" x="417.5" y="-141.5" font-family="Helvetica,sans-Serif" font-size="10.00">fplll/sieve/sampler</text>
<text text-anchor="middle" x="457" y="-130.5" font-family="Helvetica,sans-Serif" font-size="10.00">_basic.cpp</text>
</a>
</g>
</g>
<!-- Node38&#45;&gt;Node39 -->
<g id="edge53" class="edge"><title>Node38&#45;&gt;Node39</title>
<path fill="none" stroke="midnightblue" d="M503.508,-183.311C493.157,-173.561 481.16,-162.259 471.943,-153.577"/>
<polygon fill="midnightblue" stroke="midnightblue" points="501.349,-186.087 511.028,-190.396 506.149,-180.991 501.349,-186.087"/>
</g>
<!-- Node40 -->
<g id="node40" class="node"><title>Node40</title>
<g id="a_node40"><a xlink:href="sampler__main_8cpp.html" target="_top" xlink:title="fplll/sieve/sampler\l_main.cpp">
<polygon fill="white" stroke="black" points="522.5,-123.5 522.5,-153.5 617.5,-153.5 617.5,-123.5 522.5,-123.5"/>
<text text-anchor="start" x="530.5" y="-141.5" font-family="Helvetica,sans-Serif" font-size="10.00">fplll/sieve/sampler</text>
<text text-anchor="middle" x="570" y="-130.5" font-family="Helvetica,sans-Serif" font-size="10.00">_main.cpp</text>
</a>
</g>
</g>
<!-- Node38&#45;&gt;Node40 -->
<g id="edge54" class="edge"><title>Node38&#45;&gt;Node40</title>
<path fill="none" stroke="midnightblue" d="M541.321,-181.867C547.689,-172.459 554.882,-161.833 560.471,-153.577"/>
<polygon fill="midnightblue" stroke="midnightblue" points="538.255,-180.153 535.547,-190.396 544.051,-184.077 538.255,-180.153"/>
</g>
<!-- Node41 -->
<g id="node41" class="node"><title>Node41</title>
<g id="a_node41"><a xlink:href="sieve__common_8h.html" target="_top" xlink:title="fplll/sieve/sieve_common.h">
<polygon fill="white" stroke="red" points="217.5,-129 217.5,-148 352.5,-148 352.5,-129 217.5,-129"/>
<text text-anchor="middle" x="285" y="-136" font-family="Helvetica,sans-Serif" font-size="10.00">fplll/sieve/sieve_common.h</text>
</a>
</g>
</g>
<!-- Node38&#45;&gt;Node41 -->
<g id="edge55" class="edge"><title>Node38&#45;&gt;Node41</title>
<path fill="none" stroke="midnightblue" d="M468.54,-189.002C421.025,-176.187 355.308,-158.463 316.764,-148.067"/>
<polygon fill="midnightblue" stroke="midnightblue" points="467.82,-192.433 478.386,-191.658 469.643,-185.675 467.82,-192.433"/>
</g>
<!-- Node42 -->
<g id="node42" class="node"><title>Node42</title>
<g id="a_node42"><a xlink:href="sieve__gauss__str_8h.html" target="_top" xlink:title="fplll/sieve/sieve_gauss\l_str.h">
<polygon fill="white" stroke="red" points="227,-56.5 227,-86.5 343,-86.5 343,-56.5 227,-56.5"/>
<text text-anchor="start" x="235" y="-74.5" font-family="Helvetica,sans-Serif" font-size="10.00">fplll/sieve/sieve_gauss</text>
<text text-anchor="middle" x="285" y="-63.5" font-family="Helvetica,sans-Serif" font-size="10.00">_str.h</text>
</a>
</g>
</g>
<!-- Node41&#45;&gt;Node42 -->
<g id="edge56" class="edge"><title>Node41&#45;&gt;Node42</title>
<path fill="none" stroke="midnightblue" d="M278.817,-118.739C277.919,-108.487 278.088,-96.0011 279.324,-86.589"/>
<polygon fill="midnightblue" stroke="midnightblue" points="275.364,-119.313 280.211,-128.734 282.297,-118.346 275.364,-119.313"/>
</g>
<!-- Node42&#45;&gt;Node41 -->
<g id="edge57" class="edge"><title>Node42&#45;&gt;Node41</title>
<path fill="none" stroke="midnightblue" d="M291.551,-96.7136C292.1,-107.923 291.513,-120.541 289.789,-128.734"/>
<polygon fill="midnightblue" stroke="midnightblue" points="295.024,-96.2506 290.676,-86.589 288.05,-96.8532 295.024,-96.2506"/>
</g>
<!-- Node43&#45;&gt;Node8 -->
<g id="edge59" class="edge"><title>Node43&#45;&gt;Node8</title>
<path fill="none" stroke="midnightblue" d="M741.298,-190.352C716.436,-173.773 683.48,-145.683 703,-123 741.509,-78.2509 925.626,-72.6301 1003.3,-72.2883"/>
<polygon fill="midnightblue" stroke="midnightblue" points="739.669,-193.466 749.979,-195.908 743.443,-187.57 739.669,-193.466"/>
</g>
<!-- Node43&#45;&gt;Node9 -->
<g id="edge60" class="edge"><title>Node43&#45;&gt;Node9</title>
<path fill="none" stroke="midnightblue" d="M791.392,-191.24C809.72,-181.662 834.444,-167.997 855,-154 873.016,-141.732 873.246,-132.211 893,-123 894.346,-122.372 1060.19,-90.9857 1128.8,-78.0166"/>
<polygon fill="midnightblue" stroke="midnightblue" points="789.727,-188.16 782.446,-195.856 792.937,-194.381 789.727,-188.16"/>
</g>
<!-- Node43&#45;&gt;Node10 -->
<g id="edge61" class="edge"><title>Node43&#45;&gt;Node10</title>
<path fill="none" stroke="midnightblue" d="M734.472,-191.239C719.36,-182.917 702.557,-170.587 694,-154 670.162,-107.791 699.259,-42.8139 711.271,-19.6327"/>
<polygon fill="midnightblue" stroke="midnightblue" points="733.078,-194.458 743.573,-195.906 736.272,-188.229 733.078,-194.458"/>
</g>
<!-- Node43&#45;&gt;Node30 -->
<g id="edge63" class="edge"><title>Node43&#45;&gt;Node30</title>
<path fill="none" stroke="midnightblue" d="M798.593,-192.436C834.499,-179.542 890.519,-159.424 922.153,-148.064"/>
<polygon fill="midnightblue" stroke="midnightblue" points="797.264,-189.195 789.035,-195.869 799.63,-195.783 797.264,-189.195"/>
</g>
<!-- Node44 -->
<g id="node44" class="node"><title>Node44</title>
<g id="a_node44"><a xlink:href="sieve__gauss_8cpp.html" target="_top" xlink:title="fplll/sieve/sieve_gauss.cpp">
<polygon fill="white" stroke="black" points="712,-129 712,-148 846,-148 846,-129 712,-129"/>
<text text-anchor="middle" x="779" y="-136" font-family="Helvetica,sans-Serif" font-size="10.00">fplll/sieve/sieve_gauss.cpp</text>
</a>
</g>
</g>
<!-- Node43&#45;&gt;Node44 -->
<g id="edge62" class="edge"><title>Node43&#45;&gt;Node44</title>
<path fill="none" stroke="midnightblue" d="M769.003,-185.915C771.679,-173.488 775.076,-157.717 777.142,-148.127"/>
<polygon fill="midnightblue" stroke="midnightblue" points="765.572,-185.221 766.888,-195.734 772.415,-186.695 765.572,-185.221"/>
</g>
<!-- Node45&#45;&gt;Node19 -->
<g id="edge66" class="edge"><title>Node45&#45;&gt;Node19</title>
<path fill="none" stroke="midnightblue" d="M1364.96,-430.485C1375.62,-422.477 1386.07,-412.221 1392,-400 1419.75,-342.815 1433.88,-306.494 1394,-257 1382.96,-243.298 1283.44,-225.408 1218.37,-215.012"/>
<polygon fill="midnightblue" stroke="midnightblue" points="1362.66,-427.827 1356.46,-436.42 1366.66,-433.567 1362.66,-427.827"/>
</g>
<!-- Node46 -->
<g id="node46" class="node"><title>Node46</title>
<g id="a_node46"><a xlink:href="enumerate__base_8cpp.html" target="_top" xlink:title="fplll/enum/enumerate\l_base.cpp">
<polygon fill="white" stroke="black" points="1276.5,-369.5 1276.5,-399.5 1383.5,-399.5 1383.5,-369.5 1276.5,-369.5"/>
<text text-anchor="start" x="1284.5" y="-387.5" font-family="Helvetica,sans-Serif" font-size="10.00">fplll/enum/enumerate</text>
<text text-anchor="middle" x="1330" y="-376.5" font-family="Helvetica,sans-Serif" font-size="10.00">_base.cpp</text>
</a>
</g>
</g>
<!-- Node45&#45;&gt;Node46 -->
<g id="edge67" class="edge"><title>Node45&#45;&gt;Node46</title>
<path fill="none" stroke="midnightblue" d="M1330,-426.108C1330,-417.154 1330,-407.323 1330,-399.577"/>
<polygon fill="midnightblue" stroke="midnightblue" points="1326.5,-426.396 1330,-436.396 1333.5,-426.396 1326.5,-426.396"/>
</g>
<!-- Node47&#45;&gt;Node2 -->
<g id="edge69" class="edge"><title>Node47&#45;&gt;Node2</title>
<path fill="none" stroke="midnightblue" d="M1298.42,-553.38C1284.69,-543.62 1267.07,-531.106 1255.43,-522.834"/>
<polygon fill="midnightblue" stroke="midnightblue" points="1296.61,-556.385 1306.79,-559.324 1300.66,-550.679 1296.61,-556.385"/>
</g>
<!-- Node48&#45;&gt;Node2 -->
<g id="edge71" class="edge"><title>Node48&#45;&gt;Node2</title>
<path fill="none" stroke="midnightblue" d="M1186.9,-553.342C1200.91,-543.517 1218.88,-530.913 1230.66,-522.655"/>
<polygon fill="midnightblue" stroke="midnightblue" points="1184.55,-550.717 1178.37,-559.324 1188.57,-556.448 1184.55,-550.717"/>
</g>
</g>
</svg>
