<?xml version="1.0" encoding="UTF-8" standalone="no"?>
<!DOCTYPE svg PUBLIC "-//W3C//DTD SVG 1.1//EN"
 "http://www.w3.org/Graphics/SVG/1.1/DTD/svg11.dtd">
<!-- Generated by graphviz version 2.38.0 (20140413.2041)
 -->
<!-- Title: fplll/nr/nr_FP.inl Pages: 1 -->
<svg width="1383pt" height="934pt"
 viewBox="0.00 0.00 1383.00 934.00" xmlns="http://www.w3.org/2000/svg" xmlns:xlink="http://www.w3.org/1999/xlink">
<g id="graph0" class="graph" transform="scale(1 1) rotate(0) translate(4 930)">
<title>fplll/nr/nr_FP.inl</title>
<polygon fill="white" stroke="none" points="-4,4 -4,-930 1379,-930 1379,4 -4,4"/>
<!-- Node1 -->
<g id="node1" class="node"><title>Node1</title>
<polygon fill="#bfbfbf" stroke="black" points="1047,-906.5 1047,-925.5 1132,-925.5 1132,-906.5 1047,-906.5"/>
<text text-anchor="middle" x="1089.5" y="-913.5" font-family="Helvetica,sans-Serif" font-size="10.00">fplll/nr/nr_FP.inl</text>
</g>
<!-- Node2 -->
<g id="node2" class="node"><title>Node2</title>
<g id="a_node2"><a xlink:href="nr_8h.html" target="_top" xlink:title="fplll/nr/nr.h">
<polygon fill="white" stroke="black" points="982.5,-794.5 982.5,-813.5 1044.5,-813.5 1044.5,-794.5 982.5,-794.5"/>
<text text-anchor="middle" x="1013.5" y="-801.5" font-family="Helvetica,sans-Serif" font-size="10.00">fplll/nr/nr.h</text>
</a>
</g>
</g>
<!-- Node1&#45;&gt;Node2 -->
<g id="edge1" class="edge"><title>Node1&#45;&gt;Node2</title>
<path fill="none" stroke="midnightblue" d="M1065.25,-900.847C1053.83,-893.063 1040.9,-882.454 1032.5,-870 1020.53,-852.261 1015.98,-826.892 1014.35,-813.707"/>
<polygon fill="midnightblue" stroke="midnightblue" points="1063.67,-903.992 1073.97,-906.465 1067.46,-898.107 1063.67,-903.992"/>
</g>
<!-- Node47 -->
<g id="node47" class="node"><title>Node47</title>
<g id="a_node47"><a xlink:href="nr__FP__d_8inl.html" target="_top" xlink:title="fplll/nr/nr_FP_d.inl">
<polygon fill="white" stroke="black" points="1042,-850.5 1042,-869.5 1137,-869.5 1137,-850.5 1042,-850.5"/>
<text text-anchor="middle" x="1089.5" y="-857.5" font-family="Helvetica,sans-Serif" font-size="10.00">fplll/nr/nr_FP_d.inl</text>
</a>
</g>
</g>
<!-- Node1&#45;&gt;Node47 -->
<g id="edge69" class="edge"><title>Node1&#45;&gt;Node47</title>
<path fill="none" stroke="midnightblue" d="M1089.5,-895.805C1089.5,-886.91 1089.5,-876.78 1089.5,-869.751"/>
<polygon fill="midnightblue" stroke="midnightblue" points="1086,-896.083 1089.5,-906.083 1093,-896.083 1086,-896.083"/>
</g>
<!-- Node48 -->
<g id="node48" class="node"><title>Node48</title>
<g id="a_node48"><a xlink:href="nr__FP__ld_8inl.html" target="_top" xlink:title="fplll/nr/nr_FP_ld.inl">
<polygon fill="white" stroke="black" points="887.5,-850.5 887.5,-869.5 985.5,-869.5 985.5,-850.5 887.5,-850.5"/>
<text text-anchor="middle" x="936.5" y="-857.5" font-family="Helvetica,sans-Serif" font-size="10.00">fplll/nr/nr_FP_ld.inl</text>
</a>
</g>
</g>
<!-- Node1&#45;&gt;Node48 -->
<g id="edge71" class="edge"><title>Node1&#45;&gt;Node48</title>
<path fill="none" stroke="midnightblue" d="M1055.61,-903.039C1026.82,-892.879 986.213,-878.546 960.63,-869.516"/>
<polygon fill="midnightblue" stroke="midnightblue" points="1054.66,-906.416 1065.26,-906.444 1056.99,-899.815 1054.66,-906.416"/>
</g>
<!-- Node49 -->
<g id="node49" class="node"><title>Node49</title>
<g id="a_node49"><a xlink:href="nr__FP__dd_8inl.html" target="_top" xlink:title="fplll/nr/nr_FP_dd.inl">
<polygon fill="white" stroke="black" points="1155,-850.5 1155,-869.5 1256,-869.5 1256,-850.5 1155,-850.5"/>
<text text-anchor="middle" x="1205.5" y="-857.5" font-family="Helvetica,sans-Serif" font-size="10.00">fplll/nr/nr_FP_dd.inl</text>
</a>
</g>
</g>
<!-- Node1&#45;&gt;Node49 -->
<g id="edge73" class="edge"><title>Node1&#45;&gt;Node49</title>
<path fill="none" stroke="midnightblue" d="M1117.22,-902.096C1138.89,-892.007 1168.4,-878.27 1187.21,-869.516"/>
<polygon fill="midnightblue" stroke="midnightblue" points="1115.47,-899.05 1107.88,-906.444 1118.42,-905.396 1115.47,-899.05"/>
</g>
<!-- Node50 -->
<g id="node50" class="node"><title>Node50</title>
<g id="a_node50"><a xlink:href="nr__FP__qd_8inl.html" target="_top" xlink:title="fplll/nr/nr_FP_qd.inl">
<polygon fill="white" stroke="black" points="1274,-850.5 1274,-869.5 1375,-869.5 1375,-850.5 1274,-850.5"/>
<text text-anchor="middle" x="1324.5" y="-857.5" font-family="Helvetica,sans-Serif" font-size="10.00">fplll/nr/nr_FP_qd.inl</text>
</a>
</g>
</g>
<!-- Node1&#45;&gt;Node50 -->
<g id="edge74" class="edge"><title>Node1&#45;&gt;Node50</title>
<path fill="none" stroke="midnightblue" d="M1136.71,-904.153C1181.11,-893.95 1246.69,-878.881 1287.44,-869.516"/>
<polygon fill="midnightblue" stroke="midnightblue" points="1135.7,-900.793 1126.74,-906.444 1137.27,-907.615 1135.7,-900.793"/>
</g>
<!-- Node3 -->
<g id="node3" class="node"><title>Node3</title>
<g id="a_node3"><a xlink:href="numvect_8h.html" target="_top" xlink:title="fplll/nr/numvect.h">
<polygon fill="white" stroke="black" points="780.5,-733 780.5,-752 872.5,-752 872.5,-733 780.5,-733"/>
<text text-anchor="middle" x="826.5" y="-740" font-family="Helvetica,sans-Serif" font-size="10.00">fplll/nr/numvect.h</text>
</a>
</g>
</g>
<!-- Node2&#45;&gt;Node3 -->
<g id="edge2" class="edge"><title>Node2&#45;&gt;Node3</title>
<path fill="none" stroke="midnightblue" d="M976.982,-791.381C940.634,-779.815 885.714,-762.341 853.243,-752.009"/>
<polygon fill="midnightblue" stroke="midnightblue" points="976.117,-794.778 986.707,-794.475 978.239,-788.108 976.117,-794.778"/>
</g>
<!-- Node45 -->
<g id="node45" class="node"><title>Node45</title>
<g id="a_node45"><a xlink:href="enumerate__base_8h.html" target="_top" xlink:title="fplll/enum/enumerate\l_base.h">
<polygon fill="white" stroke="black" points="972,-727.5 972,-757.5 1079,-757.5 1079,-727.5 972,-727.5"/>
<text text-anchor="start" x="980" y="-745.5" font-family="Helvetica,sans-Serif" font-size="10.00">fplll/enum/enumerate</text>
<text text-anchor="middle" x="1025.5" y="-734.5" font-family="Helvetica,sans-Serif" font-size="10.00">_base.h</text>
</a>
</g>
</g>
<!-- Node2&#45;&gt;Node45 -->
<g id="edge66" class="edge"><title>Node2&#45;&gt;Node45</title>
<path fill="none" stroke="midnightblue" d="M1017.23,-784.526C1018.98,-775.813 1021.05,-765.586 1022.67,-757.523"/>
<polygon fill="midnightblue" stroke="midnightblue" points="1013.77,-783.98 1015.22,-794.475 1020.63,-785.364 1013.77,-783.98"/>
</g>
<!-- Node4 -->
<g id="node4" class="node"><title>Node4</title>
<g id="a_node4"><a xlink:href="matrix_8h.html" target="_top" xlink:title="fplll/nr/matrix.h">
<polygon fill="white" stroke="black" points="693,-666 693,-685 774,-685 774,-666 693,-666"/>
<text text-anchor="middle" x="733.5" y="-673" font-family="Helvetica,sans-Serif" font-size="10.00">fplll/nr/matrix.h</text>
</a>
</g>
</g>
<!-- Node3&#45;&gt;Node4 -->
<g id="edge3" class="edge"><title>Node3&#45;&gt;Node4</title>
<path fill="none" stroke="midnightblue" d="M805.639,-726.92C787.253,-714.069 761.088,-695.782 745.844,-685.127"/>
<polygon fill="midnightblue" stroke="midnightblue" points="803.756,-729.874 813.958,-732.734 807.766,-724.136 803.756,-729.874"/>
</g>
<!-- Node5 -->
<g id="node5" class="node"><title>Node5</title>
<g id="a_node5"><a xlink:href="util_8h.html" target="_top" xlink:title="fplll/util.h">
<polygon fill="white" stroke="black" points="682.5,-604.5 682.5,-623.5 738.5,-623.5 738.5,-604.5 682.5,-604.5"/>
<text text-anchor="middle" x="710.5" y="-611.5" font-family="Helvetica,sans-Serif" font-size="10.00">fplll/util.h</text>
</a>
</g>
</g>
<!-- Node4&#45;&gt;Node5 -->
<g id="edge4" class="edge"><title>Node4&#45;&gt;Node5</title>
<path fill="none" stroke="midnightblue" d="M726.541,-656.497C722.309,-645.55 717.1,-632.075 713.789,-623.509"/>
<polygon fill="midnightblue" stroke="midnightblue" points="723.334,-657.91 730.205,-665.975 729.864,-655.386 723.334,-657.91"/>
</g>
<!-- Node38 -->
<g id="node38" class="node"><title>Node38</title>
<g id="a_node38"><a xlink:href="matrix_8cpp.html" target="_top" xlink:title="fplll/nr/matrix.cpp">
<polygon fill="white" stroke="black" points="756.5,-604.5 756.5,-623.5 848.5,-623.5 848.5,-604.5 756.5,-604.5"/>
<text text-anchor="middle" x="802.5" y="-611.5" font-family="Helvetica,sans-Serif" font-size="10.00">fplll/nr/matrix.cpp</text>
</a>
</g>
</g>
<!-- Node4&#45;&gt;Node38 -->
<g id="edge48" class="edge"><title>Node4&#45;&gt;Node38</title>
<path fill="none" stroke="midnightblue" d="M745.65,-658.825C757.507,-647.52 775.079,-632.693 787.735,-623.509"/>
<polygon fill="midnightblue" stroke="midnightblue" points="743.091,-656.434 738.485,-665.975 748.036,-661.388 743.091,-656.434"/>
</g>
<!-- Node39 -->
<g id="node39" class="node"><title>Node39</title>
<g id="a_node39"><a xlink:href="gso_8h.html" target="_top" xlink:title="fplll/gso.h">
<polygon fill="white" stroke="black" points="398,-548.5 398,-567.5 457,-567.5 457,-548.5 398,-548.5"/>
<text text-anchor="middle" x="427.5" y="-555.5" font-family="Helvetica,sans-Serif" font-size="10.00">fplll/gso.h</text>
</a>
</g>
</g>
<!-- Node4&#45;&gt;Node39 -->
<g id="edge50" class="edge"><title>Node4&#45;&gt;Node39</title>
<path fill="none" stroke="midnightblue" d="M686.094,-663.566C649.984,-654.619 599.352,-640.736 556.5,-624 513.518,-607.213 465.681,-580.978 442.173,-567.549"/>
<polygon fill="midnightblue" stroke="midnightblue" points="685.329,-666.982 695.875,-665.956 686.992,-660.182 685.329,-666.982"/>
</g>
<!-- Node44 -->
<g id="node44" class="node"><title>Node44</title>
<g id="a_node44"><a xlink:href="wrapper_8h.html" target="_top" xlink:title="fplll/wrapper.h">
<polygon fill="white" stroke="black" points="517,-492.5 517,-511.5 594,-511.5 594,-492.5 517,-492.5"/>
<text text-anchor="middle" x="555.5" y="-499.5" font-family="Helvetica,sans-Serif" font-size="10.00">fplll/wrapper.h</text>
</a>
</g>
</g>
<!-- Node4&#45;&gt;Node44 -->
<g id="edge62" class="edge"><title>Node4&#45;&gt;Node44</title>
<path fill="none" stroke="midnightblue" d="M714.6,-659.393C702.577,-649.591 686.822,-636.381 673.5,-624 630.298,-583.85 582.193,-532.155 563.517,-511.796"/>
<polygon fill="midnightblue" stroke="midnightblue" points="712.629,-662.301 722.606,-665.869 717.031,-656.859 712.629,-662.301"/>
</g>
<!-- Node6 -->
<g id="node6" class="node"><title>Node6</title>
<g id="a_node6"><a xlink:href="evaluator_8h.html" target="_top" xlink:title="fplll/enum/evaluator.h">
<polygon fill="white" stroke="black" points="1016.5,-548.5 1016.5,-567.5 1126.5,-567.5 1126.5,-548.5 1016.5,-548.5"/>
<text text-anchor="middle" x="1071.5" y="-555.5" font-family="Helvetica,sans-Serif" font-size="10.00">fplll/enum/evaluator.h</text>
</a>
</g>
</g>
<!-- Node5&#45;&gt;Node6 -->
<g id="edge5" class="edge"><title>Node5&#45;&gt;Node6</title>
<path fill="none" stroke="midnightblue" d="M748.633,-603.943C863.797,-582.278 895.121,-583.682 1007.5,-568 1010.39,-567.597 1013.35,-567.183 1016.34,-566.764"/>
<polygon fill="midnightblue" stroke="midnightblue" points="747.889,-600.521 738.718,-605.825 749.195,-607.398 747.889,-600.521"/>
</g>
<!-- Node9 -->
<g id="node9" class="node"><title>Node9</title>
<g id="a_node9"><a xlink:href="fplll_8h.html" target="_top" xlink:title="fplll/fplll.h">
<polygon fill="white" stroke="black" points="478.5,-380.5 478.5,-399.5 536.5,-399.5 536.5,-380.5 478.5,-380.5"/>
<text text-anchor="middle" x="507.5" y="-387.5" font-family="Helvetica,sans-Serif" font-size="10.00">fplll/fplll.h</text>
</a>
</g>
</g>
<!-- Node5&#45;&gt;Node9 -->
<g id="edge39" class="edge"><title>Node5&#45;&gt;Node9</title>
<path fill="none" stroke="midnightblue" d="M672.254,-606.428C624.155,-595.889 543.515,-570.145 507.5,-512 485.045,-475.747 498.202,-420.904 504.613,-399.75"/>
<polygon fill="midnightblue" stroke="midnightblue" points="671.783,-609.905 682.286,-608.51 673.205,-603.051 671.783,-609.905"/>
</g>
<!-- Node30 -->
<g id="node30" class="node"><title>Node30</title>
<g id="a_node30"><a xlink:href="topenum_8h.html" target="_top" xlink:title="fplll/enum/topenum.h">
<polygon fill="white" stroke="black" points="1183,-548.5 1183,-567.5 1290,-567.5 1290,-548.5 1183,-548.5"/>
<text text-anchor="middle" x="1236.5" y="-555.5" font-family="Helvetica,sans-Serif" font-size="10.00">fplll/enum/topenum.h</text>
</a>
</g>
</g>
<!-- Node5&#45;&gt;Node30 -->
<g id="edge36" class="edge"><title>Node5&#45;&gt;Node30</title>
<path fill="none" stroke="midnightblue" d="M748.888,-604.382C806.148,-597.882 1068.16,-574.178 1182.75,-563.842"/>
<polygon fill="midnightblue" stroke="midnightblue" points="748.167,-600.946 738.694,-605.69 749.058,-607.889 748.167,-600.946"/>
</g>
<!-- Node32 -->
<g id="node32" class="node"><title>Node32</title>
<g id="a_node32"><a xlink:href="svpcvp_8h.html" target="_top" xlink:title="fplll/svpcvp.h">
<polygon fill="white" stroke="black" points="756.5,-492.5 756.5,-511.5 830.5,-511.5 830.5,-492.5 756.5,-492.5"/>
<text text-anchor="middle" x="793.5" y="-499.5" font-family="Helvetica,sans-Serif" font-size="10.00">fplll/svpcvp.h</text>
</a>
</g>
</g>
<!-- Node5&#45;&gt;Node32 -->
<g id="edge40" class="edge"><title>Node5&#45;&gt;Node32</title>
<path fill="none" stroke="midnightblue" d="M708.243,-593.929C707.576,-580.119 708.768,-561.572 717.5,-548 728.95,-530.205 750.14,-518.518 767.242,-511.526"/>
<polygon fill="midnightblue" stroke="midnightblue" points="704.781,-594.533 709.115,-604.201 711.756,-593.941 704.781,-594.533"/>
</g>
<!-- Node33 -->
<g id="node33" class="node"><title>Node33</title>
<g id="a_node33"><a xlink:href="latticegen_8cpp.html" target="_top" xlink:title="fplll/latticegen.cpp">
<polygon fill="white" stroke="black" points="727,-548.5 727,-567.5 822,-567.5 822,-548.5 727,-548.5"/>
<text text-anchor="middle" x="774.5" y="-555.5" font-family="Helvetica,sans-Serif" font-size="10.00">fplll/latticegen.cpp</text>
</a>
</g>
</g>
<!-- Node5&#45;&gt;Node33 -->
<g id="edge43" class="edge"><title>Node5&#45;&gt;Node33</title>
<path fill="none" stroke="midnightblue" d="M728.491,-597.82C739.958,-588.145 754.413,-575.948 764.03,-567.834"/>
<polygon fill="midnightblue" stroke="midnightblue" points="726.169,-595.2 720.783,-604.324 730.683,-600.55 726.169,-595.2"/>
</g>
<!-- Node34 -->
<g id="node34" class="node"><title>Node34</title>
<g id="a_node34"><a xlink:href="lll_8cpp.html" target="_top" xlink:title="fplll/lll.cpp">
<polygon fill="white" stroke="black" points="698.5,-436.5 698.5,-455.5 758.5,-455.5 758.5,-436.5 698.5,-436.5"/>
<text text-anchor="middle" x="728.5" y="-443.5" font-family="Helvetica,sans-Serif" font-size="10.00">fplll/lll.cpp</text>
</a>
</g>
</g>
<!-- Node5&#45;&gt;Node34 -->
<g id="edge44" class="edge"><title>Node5&#45;&gt;Node34</title>
<path fill="none" stroke="midnightblue" d="M708.456,-594.22C707.676,-586.159 706.883,-576.628 706.5,-568 706.106,-559.12 705.549,-556.838 706.5,-548 710.245,-513.207 721.05,-472.817 725.986,-455.544"/>
<polygon fill="midnightblue" stroke="midnightblue" points="704.998,-594.801 709.506,-604.388 711.961,-594.082 704.998,-594.801"/>
</g>
<!-- Node35 -->
<g id="node35" class="node"><title>Node35</title>
<g id="a_node35"><a xlink:href="llldiff_8cpp.html" target="_top" xlink:title="fplll/llldiff.cpp">
<polygon fill="white" stroke="black" points="840.5,-548.5 840.5,-567.5 914.5,-567.5 914.5,-548.5 840.5,-548.5"/>
<text text-anchor="middle" x="877.5" y="-555.5" font-family="Helvetica,sans-Serif" font-size="10.00">fplll/llldiff.cpp</text>
</a>
</g>
</g>
<!-- Node5&#45;&gt;Node35 -->
<g id="edge45" class="edge"><title>Node5&#45;&gt;Node35</title>
<path fill="none" stroke="midnightblue" d="M746.67,-601.304C778.137,-591.129 822.994,-576.625 851.162,-567.516"/>
<polygon fill="midnightblue" stroke="midnightblue" points="745.4,-598.037 736.962,-604.444 747.553,-604.697 745.4,-598.037"/>
</g>
<!-- Node36 -->
<g id="node36" class="node"><title>Node36</title>
<g id="a_node36"><a xlink:href="util_8cpp.html" target="_top" xlink:title="fplll/util.cpp">
<polygon fill="white" stroke="black" points="932.5,-548.5 932.5,-567.5 998.5,-567.5 998.5,-548.5 932.5,-548.5"/>
<text text-anchor="middle" x="965.5" y="-555.5" font-family="Helvetica,sans-Serif" font-size="10.00">fplll/util.cpp</text>
</a>
</g>
</g>
<!-- Node5&#45;&gt;Node36 -->
<g id="edge46" class="edge"><title>Node5&#45;&gt;Node36</title>
<path fill="none" stroke="midnightblue" d="M748.614,-603.811C827.061,-586.368 848.406,-583.726 923.5,-568 926.42,-567.389 929.452,-566.749 932.491,-566.104"/>
<polygon fill="midnightblue" stroke="midnightblue" points="747.753,-600.417 738.757,-606.013 749.279,-607.248 747.753,-600.417"/>
</g>
<!-- Node37 -->
<g id="node37" class="node"><title>Node37</title>
<g id="a_node37"><a xlink:href="wrapper_8cpp.html" target="_top" xlink:title="fplll/wrapper.cpp">
<polygon fill="white" stroke="black" points="592.5,-436.5 592.5,-455.5 680.5,-455.5 680.5,-436.5 592.5,-436.5"/>
<text text-anchor="middle" x="636.5" y="-443.5" font-family="Helvetica,sans-Serif" font-size="10.00">fplll/wrapper.cpp</text>
</a>
</g>
</g>
<!-- Node5&#45;&gt;Node37 -->
<g id="edge47" class="edge"><title>Node5&#45;&gt;Node37</title>
<path fill="none" stroke="midnightblue" d="M695.396,-596.828C678.887,-578.047 653.227,-545.357 641.5,-512 634.743,-492.781 635.016,-468.453 635.774,-455.703"/>
<polygon fill="midnightblue" stroke="midnightblue" points="692.957,-599.35 702.254,-604.431 698.155,-594.661 692.957,-599.35"/>
</g>
<!-- Node7 -->
<g id="node7" class="node"><title>Node7</title>
<g id="a_node7"><a xlink:href="bkz_8h.html" target="_top" xlink:title="fplll/bkz.h">
<polygon fill="white" stroke="black" points="815,-436.5 815,-455.5 874,-455.5 874,-436.5 815,-436.5"/>
<text text-anchor="middle" x="844.5" y="-443.5" font-family="Helvetica,sans-Serif" font-size="10.00">fplll/bkz.h</text>
</a>
</g>
</g>
<!-- Node6&#45;&gt;Node7 -->
<g id="edge6" class="edge"><title>Node6&#45;&gt;Node7</title>
<path fill="none" stroke="midnightblue" d="M1015.36,-546.485C962.038,-536.099 888.431,-520.563 877.5,-512 858.969,-497.484 849.945,-469.749 846.396,-455.666"/>
<polygon fill="midnightblue" stroke="midnightblue" points="1014.91,-549.963 1025.39,-548.426 1016.24,-543.09 1014.91,-549.963"/>
</g>
<!-- Node26 -->
<g id="node26" class="node"><title>Node26</title>
<g id="a_node26"><a xlink:href="enumerate_8h.html" target="_top" xlink:title="fplll/enum/enumerate.h">
<polygon fill="white" stroke="black" points="886.5,-492.5 886.5,-511.5 1002.5,-511.5 1002.5,-492.5 886.5,-492.5"/>
<text text-anchor="middle" x="944.5" y="-499.5" font-family="Helvetica,sans-Serif" font-size="10.00">fplll/enum/enumerate.h</text>
</a>
</g>
</g>
<!-- Node6&#45;&gt;Node26 -->
<g id="edge29" class="edge"><title>Node6&#45;&gt;Node26</title>
<path fill="none" stroke="midnightblue" d="M1042.11,-544.503C1018.3,-534.38 985.394,-520.388 964.529,-511.516"/>
<polygon fill="midnightblue" stroke="midnightblue" points="1040.8,-547.751 1051.38,-548.444 1043.54,-541.31 1040.8,-547.751"/>
</g>
<!-- Node29 -->
<g id="node29" class="node"><title>Node29</title>
<g id="a_node29"><a xlink:href="evaluator_8cpp.html" target="_top" xlink:title="fplll/enum/evaluator.cpp">
<polygon fill="white" stroke="black" points="1020.5,-492.5 1020.5,-511.5 1140.5,-511.5 1140.5,-492.5 1020.5,-492.5"/>
<text text-anchor="middle" x="1080.5" y="-499.5" font-family="Helvetica,sans-Serif" font-size="10.00">fplll/enum/evaluator.cpp</text>
</a>
</g>
</g>
<!-- Node6&#45;&gt;Node29 -->
<g id="edge35" class="edge"><title>Node6&#45;&gt;Node29</title>
<path fill="none" stroke="midnightblue" d="M1074.65,-538.101C1076.14,-529.136 1077.86,-518.858 1079.04,-511.751"/>
<polygon fill="midnightblue" stroke="midnightblue" points="1071.18,-537.644 1072.99,-548.083 1078.08,-538.794 1071.18,-537.644"/>
</g>
<!-- Node8 -->
<g id="node8" class="node"><title>Node8</title>
<g id="a_node8"><a xlink:href="bkz_8cpp.html" target="_top" xlink:title="fplll/bkz.cpp">
<polygon fill="white" stroke="black" points="839,-380.5 839,-399.5 908,-399.5 908,-380.5 839,-380.5"/>
<text text-anchor="middle" x="873.5" y="-387.5" font-family="Helvetica,sans-Serif" font-size="10.00">fplll/bkz.cpp</text>
</a>
</g>
</g>
<!-- Node7&#45;&gt;Node8 -->
<g id="edge7" class="edge"><title>Node7&#45;&gt;Node8</title>
<path fill="none" stroke="midnightblue" d="M854.176,-426.983C859.098,-417.817 864.858,-407.092 868.8,-399.751"/>
<polygon fill="midnightblue" stroke="midnightblue" points="850.937,-425.617 849.289,-436.083 857.104,-428.929 850.937,-425.617"/>
</g>
<!-- Node7&#45;&gt;Node9 -->
<g id="edge8" class="edge"><title>Node7&#45;&gt;Node9</title>
<path fill="none" stroke="midnightblue" d="M804.882,-436.801C803.403,-436.526 801.939,-436.258 800.5,-436 704.247,-418.775 589.473,-402.331 536.69,-394.996"/>
<polygon fill="midnightblue" stroke="midnightblue" points="804.234,-440.241 814.716,-438.701 805.561,-433.368 804.234,-440.241"/>
</g>
<!-- Node10 -->
<g id="node10" class="node"><title>Node10</title>
<g id="a_node10"><a xlink:href="fplll_8cpp.html" target="_top" xlink:title="fplll/fplll.cpp">
<polygon fill="white" stroke="black" points="978.5,-319 978.5,-338 1046.5,-338 1046.5,-319 978.5,-319"/>
<text text-anchor="middle" x="1012.5" y="-326" font-family="Helvetica,sans-Serif" font-size="10.00">fplll/fplll.cpp</text>
</a>
</g>
</g>
<!-- Node9&#45;&gt;Node10 -->
<g id="edge9" class="edge"><title>Node9&#45;&gt;Node10</title>
<path fill="none" stroke="midnightblue" d="M546.631,-380.602C547.934,-380.389 549.227,-380.187 550.5,-380 735.419,-352.805 786.523,-382.135 969.5,-344 976.441,-342.553 983.817,-340.332 990.463,-338.059"/>
<polygon fill="midnightblue" stroke="midnightblue" points="545.777,-377.2 536.559,-382.422 547.022,-384.088 545.777,-377.2"/>
</g>
<!-- Node11 -->
<g id="node11" class="node"><title>Node11</title>
<g id="a_node11"><a xlink:href="main_8h.html" target="_top" xlink:title="fplll/main.h">
<polygon fill="white" stroke="black" points="321.5,-319 321.5,-338 385.5,-338 385.5,-319 321.5,-319"/>
<text text-anchor="middle" x="353.5" y="-326" font-family="Helvetica,sans-Serif" font-size="10.00">fplll/main.h</text>
</a>
</g>
</g>
<!-- Node9&#45;&gt;Node11 -->
<g id="edge10" class="edge"><title>Node9&#45;&gt;Node11</title>
<path fill="none" stroke="midnightblue" d="M475.878,-376.782C445.951,-365.22 401.807,-348.164 375.524,-338.009"/>
<polygon fill="midnightblue" stroke="midnightblue" points="474.846,-380.136 485.436,-380.475 477.369,-373.606 474.846,-380.136"/>
</g>
<!-- Node13 -->
<g id="node13" class="node"><title>Node13</title>
<g id="a_node13"><a xlink:href="sampler__basic_8h.html" target="_top" xlink:title="fplll/sieve/sampler\l_basic.h">
<polygon fill="white" stroke="black" points="170,-313.5 170,-343.5 265,-343.5 265,-313.5 170,-313.5"/>
<text text-anchor="start" x="178" y="-331.5" font-family="Helvetica,sans-Serif" font-size="10.00">fplll/sieve/sampler</text>
<text text-anchor="middle" x="217.5" y="-320.5" font-family="Helvetica,sans-Serif" font-size="10.00">_basic.h</text>
</a>
</g>
</g>
<!-- Node9&#45;&gt;Node13 -->
<g id="edge12" class="edge"><title>Node9&#45;&gt;Node13</title>
<path fill="none" stroke="midnightblue" d="M468.245,-381.683C422.744,-373.103 345.546,-358.236 279.5,-344 274.853,-342.998 270.018,-341.924 265.19,-340.83"/>
<polygon fill="midnightblue" stroke="midnightblue" points="467.805,-385.162 478.28,-383.571 469.099,-378.283 467.805,-385.162"/>
</g>
<!-- Node16 -->
<g id="node16" class="node"><title>Node16</title>
<g id="a_node16"><a xlink:href="sieve__common_8h.html" target="_top" xlink:title="fplll/sieve/sieve_common.h">
<polygon fill="white" stroke="black" points="226,-252 226,-271 361,-271 361,-252 226,-252"/>
<text text-anchor="middle" x="293.5" y="-259" font-family="Helvetica,sans-Serif" font-size="10.00">fplll/sieve/sieve_common.h</text>
</a>
</g>
</g>
<!-- Node9&#45;&gt;Node16 -->
<g id="edge23" class="edge"><title>Node9&#45;&gt;Node16</title>
<path fill="none" stroke="midnightblue" d="M468.197,-384.839C417.733,-378.694 334.084,-365.536 312.5,-344 292.547,-324.092 291.924,-287.553 292.793,-271.023"/>
<polygon fill="midnightblue" stroke="midnightblue" points="468.086,-388.35 478.427,-386.044 468.906,-381.398 468.086,-388.35"/>
</g>
<!-- Node21 -->
<g id="node21" class="node"><title>Node21</title>
<g id="a_node21"><a xlink:href="test__bkz_8cpp.html" target="_top" xlink:title="tests/test_bkz.cpp">
<polygon fill="white" stroke="black" points="403.5,-319 403.5,-338 501.5,-338 501.5,-319 403.5,-319"/>
<text text-anchor="middle" x="452.5" y="-326" font-family="Helvetica,sans-Serif" font-size="10.00">tests/test_bkz.cpp</text>
</a>
</g>
</g>
<!-- Node9&#45;&gt;Node21 -->
<g id="edge24" class="edge"><title>Node9&#45;&gt;Node21</title>
<path fill="none" stroke="midnightblue" d="M492.708,-372.997C482.298,-361.736 468.773,-347.104 460.366,-338.009"/>
<polygon fill="midnightblue" stroke="midnightblue" points="490.262,-375.508 499.62,-380.475 495.402,-370.756 490.262,-375.508"/>
</g>
<!-- Node22 -->
<g id="node22" class="node"><title>Node22</title>
<g id="a_node22"><a xlink:href="test__lll_8cpp.html" target="_top" xlink:title="tests/test_lll.cpp">
<polygon fill="white" stroke="black" points="519,-319 519,-338 608,-338 608,-319 519,-319"/>
<text text-anchor="middle" x="563.5" y="-326" font-family="Helvetica,sans-Serif" font-size="10.00">tests/test_lll.cpp</text>
</a>
</g>
</g>
<!-- Node9&#45;&gt;Node22 -->
<g id="edge25" class="edge"><title>Node9&#45;&gt;Node22</title>
<path fill="none" stroke="midnightblue" d="M522.561,-372.997C533.161,-361.736 546.931,-347.104 555.491,-338.009"/>
<polygon fill="midnightblue" stroke="midnightblue" points="519.828,-370.794 515.523,-380.475 524.926,-375.592 519.828,-370.794"/>
</g>
<!-- Node23 -->
<g id="node23" class="node"><title>Node23</title>
<g id="a_node23"><a xlink:href="test__nr_8cpp.html" target="_top" xlink:title="tests/test_nr.cpp">
<polygon fill="white" stroke="black" points="626.5,-319 626.5,-338 716.5,-338 716.5,-319 626.5,-319"/>
<text text-anchor="middle" x="671.5" y="-326" font-family="Helvetica,sans-Serif" font-size="10.00">tests/test_nr.cpp</text>
</a>
</g>
</g>
<!-- Node9&#45;&gt;Node23 -->
<g id="edge26" class="edge"><title>Node9&#45;&gt;Node23</title>
<path fill="none" stroke="midnightblue" d="M540.761,-376.933C572.636,-365.368 619.934,-348.208 648.046,-338.009"/>
<polygon fill="midnightblue" stroke="midnightblue" points="539.204,-373.774 530.997,-380.475 541.591,-380.355 539.204,-373.774"/>
</g>
<!-- Node24 -->
<g id="node24" class="node"><title>Node24</title>
<g id="a_node24"><a xlink:href="test__pruner_8cpp.html" target="_top" xlink:title="tests/test_pruner.cpp">
<polygon fill="white" stroke="black" points="735,-319 735,-338 844,-338 844,-319 735,-319"/>
<text text-anchor="middle" x="789.5" y="-326" font-family="Helvetica,sans-Serif" font-size="10.00">tests/test_pruner.cpp</text>
</a>
</g>
</g>
<!-- Node9&#45;&gt;Node24 -->
<g id="edge27" class="edge"><title>Node9&#45;&gt;Node24</title>
<path fill="none" stroke="midnightblue" d="M546.665,-380.797C547.959,-380.528 549.24,-380.262 550.5,-380 628.25,-363.866 647.885,-360.774 725.5,-344 734.186,-342.123 743.52,-340.044 752.301,-338.059"/>
<polygon fill="midnightblue" stroke="midnightblue" points="545.717,-377.419 536.641,-382.886 547.145,-384.272 545.717,-377.419"/>
</g>
<!-- Node25 -->
<g id="node25" class="node"><title>Node25</title>
<g id="a_node25"><a xlink:href="test__svp_8cpp.html" target="_top" xlink:title="tests/test_svp.cpp">
<polygon fill="white" stroke="black" points="862.5,-319 862.5,-338 960.5,-338 960.5,-319 862.5,-319"/>
<text text-anchor="middle" x="911.5" y="-326" font-family="Helvetica,sans-Serif" font-size="10.00">tests/test_svp.cpp</text>
</a>
</g>
</g>
<!-- Node9&#45;&gt;Node25 -->
<g id="edge28" class="edge"><title>Node9&#45;&gt;Node25</title>
<path fill="none" stroke="midnightblue" d="M546.64,-380.657C547.94,-380.428 549.23,-380.208 550.5,-380 683.892,-358.133 719.507,-368.175 852.5,-344 861.425,-342.378 871.012,-340.209 879.809,-338.044"/>
<polygon fill="midnightblue" stroke="midnightblue" points="545.758,-377.262 536.58,-382.553 547.055,-384.14 545.758,-377.262"/>
</g>
<!-- Node12 -->
<g id="node12" class="node"><title>Node12</title>
<g id="a_node12"><a xlink:href="main_8cpp.html" target="_top" xlink:title="fplll/main.cpp">
<polygon fill="white" stroke="black" points="379.5,-252 379.5,-271 453.5,-271 453.5,-252 379.5,-252"/>
<text text-anchor="middle" x="416.5" y="-259" font-family="Helvetica,sans-Serif" font-size="10.00">fplll/main.cpp</text>
</a>
</g>
</g>
<!-- Node11&#45;&gt;Node12 -->
<g id="edge11" class="edge"><title>Node11&#45;&gt;Node12</title>
<path fill="none" stroke="midnightblue" d="M369.011,-311.497C381.366,-298.75 398.187,-281.395 408.138,-271.127"/>
<polygon fill="midnightblue" stroke="midnightblue" points="366.443,-309.117 361.996,-318.734 371.469,-313.989 366.443,-309.117"/>
</g>
<!-- Node14 -->
<g id="node14" class="node"><title>Node14</title>
<g id="a_node14"><a xlink:href="sampler__basic_8cpp.html" target="_top" xlink:title="fplll/sieve/sampler\l_basic.cpp">
<polygon fill="white" stroke="black" points="113,-246.5 113,-276.5 208,-276.5 208,-246.5 113,-246.5"/>
<text text-anchor="start" x="121" y="-264.5" font-family="Helvetica,sans-Serif" font-size="10.00">fplll/sieve/sampler</text>
<text text-anchor="middle" x="160.5" y="-253.5" font-family="Helvetica,sans-Serif" font-size="10.00">_basic.cpp</text>
</a>
</g>
</g>
<!-- Node13&#45;&gt;Node14 -->
<g id="edge13" class="edge"><title>Node13&#45;&gt;Node14</title>
<path fill="none" stroke="midnightblue" d="M198.415,-305.736C189.981,-296.119 180.309,-285.089 172.844,-276.577"/>
<polygon fill="midnightblue" stroke="midnightblue" points="195.907,-308.185 205.132,-313.396 201.17,-303.57 195.907,-308.185"/>
</g>
<!-- Node15 -->
<g id="node15" class="node"><title>Node15</title>
<g id="a_node15"><a xlink:href="sampler__main_8cpp.html" target="_top" xlink:title="fplll/sieve/sampler\l_main.cpp">
<polygon fill="white" stroke="black" points="0,-246.5 0,-276.5 95,-276.5 95,-246.5 0,-246.5"/>
<text text-anchor="start" x="8" y="-264.5" font-family="Helvetica,sans-Serif" font-size="10.00">fplll/sieve/sampler</text>
<text text-anchor="middle" x="47.5" y="-253.5" font-family="Helvetica,sans-Serif" font-size="10.00">_main.cpp</text>
</a>
</g>
</g>
<!-- Node13&#45;&gt;Node15 -->
<g id="edge14" class="edge"><title>Node13&#45;&gt;Node15</title>
<path fill="none" stroke="midnightblue" d="M171.256,-309.819C143.931,-299.371 109.807,-286.323 84.3155,-276.577"/>
<polygon fill="midnightblue" stroke="midnightblue" points="170.022,-313.094 180.613,-313.396 172.522,-306.555 170.022,-313.094"/>
</g>
<!-- Node13&#45;&gt;Node16 -->
<g id="edge15" class="edge"><title>Node13&#45;&gt;Node16</title>
<path fill="none" stroke="midnightblue" d="M241.853,-306.672C255.885,-294.671 272.781,-280.22 283.334,-271.195"/>
<polygon fill="midnightblue" stroke="midnightblue" points="239.316,-304.236 233.991,-313.396 243.865,-309.556 239.316,-304.236"/>
</g>
<!-- Node17 -->
<g id="node17" class="node"><title>Node17</title>
<g id="a_node17"><a xlink:href="sieve__gauss__str_8h.html" target="_top" xlink:title="fplll/sieve/sieve_gauss\l_str.h">
<polygon fill="white" stroke="black" points="235.5,-179.5 235.5,-209.5 351.5,-209.5 351.5,-179.5 235.5,-179.5"/>
<text text-anchor="start" x="243.5" y="-197.5" font-family="Helvetica,sans-Serif" font-size="10.00">fplll/sieve/sieve_gauss</text>
<text text-anchor="middle" x="293.5" y="-186.5" font-family="Helvetica,sans-Serif" font-size="10.00">_str.h</text>
</a>
</g>
</g>
<!-- Node16&#45;&gt;Node17 -->
<g id="edge16" class="edge"><title>Node16&#45;&gt;Node17</title>
<path fill="none" stroke="midnightblue" d="M287.317,-241.739C286.419,-231.487 286.588,-219.001 287.824,-209.589"/>
<polygon fill="midnightblue" stroke="midnightblue" points="283.864,-242.313 288.711,-251.734 290.797,-241.346 283.864,-242.313"/>
</g>
<!-- Node18 -->
<g id="node18" class="node"><title>Node18</title>
<g id="a_node18"><a xlink:href="sieve__gauss_8h.html" target="_top" xlink:title="fplll/sieve/sieve_gauss.h">
<polygon fill="white" stroke="red" points="188.5,-123.5 188.5,-142.5 312.5,-142.5 312.5,-123.5 188.5,-123.5"/>
<text text-anchor="middle" x="250.5" y="-130.5" font-family="Helvetica,sans-Serif" font-size="10.00">fplll/sieve/sieve_gauss.h</text>
</a>
</g>
</g>
<!-- Node16&#45;&gt;Node18 -->
<g id="edge22" class="edge"><title>Node16&#45;&gt;Node18</title>
<path fill="none" stroke="midnightblue" d="M264.811,-246.933C250.495,-238.492 234.55,-226.147 226.5,-210 215.018,-186.967 232.89,-157.284 243.523,-142.773"/>
<polygon fill="midnightblue" stroke="midnightblue" points="263.435,-250.17 273.885,-251.917 266.805,-244.034 263.435,-250.17"/>
</g>
<!-- Node17&#45;&gt;Node16 -->
<g id="edge17" class="edge"><title>Node17&#45;&gt;Node16</title>
<path fill="none" stroke="midnightblue" d="M300.051,-219.714C300.6,-230.923 300.013,-243.541 298.289,-251.734"/>
<polygon fill="midnightblue" stroke="midnightblue" points="303.524,-219.251 299.176,-209.589 296.55,-219.853 303.524,-219.251"/>
</g>
<!-- Node17&#45;&gt;Node18 -->
<g id="edge18" class="edge"><title>Node17&#45;&gt;Node18</title>
<path fill="none" stroke="midnightblue" d="M277.315,-171.104C270.148,-161.187 262.14,-150.106 256.757,-142.658"/>
<polygon fill="midnightblue" stroke="midnightblue" points="274.615,-173.344 283.31,-179.399 280.289,-169.244 274.615,-173.344"/>
</g>
<!-- Node19 -->
<g id="node19" class="node"><title>Node19</title>
<g id="a_node19"><a xlink:href="sieve__gauss_8cpp.html" target="_top" xlink:title="fplll/sieve/sieve_gauss.cpp">
<polygon fill="white" stroke="black" points="183.5,-0.5 183.5,-19.5 317.5,-19.5 317.5,-0.5 183.5,-0.5"/>
<text text-anchor="middle" x="250.5" y="-7.5" font-family="Helvetica,sans-Serif" font-size="10.00">fplll/sieve/sieve_gauss.cpp</text>
</a>
</g>
</g>
<!-- Node18&#45;&gt;Node19 -->
<g id="edge19" class="edge"><title>Node18&#45;&gt;Node19</title>
<path fill="none" stroke="midnightblue" d="M238.743,-114.769C233.937,-106.71 228.939,-96.7548 226.5,-87 223.158,-73.6336 223.158,-69.3664 226.5,-56 229.893,-42.4281 238.24,-28.4676 244.133,-19.768"/>
<polygon fill="midnightblue" stroke="midnightblue" points="235.809,-116.678 244.133,-123.232 241.713,-112.917 235.809,-116.678"/>
</g>
<!-- Node20 -->
<g id="node20" class="node"><title>Node20</title>
<g id="a_node20"><a xlink:href="sieve__gauss__2sieve_8cpp.html" target="_top" xlink:title="fplll/sieve/sieve_gauss\l_2sieve.cpp">
<polygon fill="white" stroke="black" points="235.5,-56.5 235.5,-86.5 351.5,-86.5 351.5,-56.5 235.5,-56.5"/>
<text text-anchor="start" x="243.5" y="-74.5" font-family="Helvetica,sans-Serif" font-size="10.00">fplll/sieve/sieve_gauss</text>
<text text-anchor="middle" x="293.5" y="-63.5" font-family="Helvetica,sans-Serif" font-size="10.00">_2sieve.cpp</text>
</a>
</g>
</g>
<!-- Node18&#45;&gt;Node20 -->
<g id="edge20" class="edge"><title>Node18&#45;&gt;Node20</title>
<path fill="none" stroke="midnightblue" d="M262.607,-115.247C269.155,-106.187 277.15,-95.124 283.366,-86.523"/>
<polygon fill="midnightblue" stroke="midnightblue" points="259.682,-113.32 256.661,-123.475 265.355,-117.42 259.682,-113.32"/>
</g>
<!-- Node20&#45;&gt;Node19 -->
<g id="edge21" class="edge"><title>Node20&#45;&gt;Node19</title>
<path fill="none" stroke="midnightblue" d="M277.315,-48.1041C270.148,-38.1868 262.14,-27.1062 256.757,-19.6578"/>
<polygon fill="midnightblue" stroke="midnightblue" points="274.615,-50.3444 283.31,-56.3993 280.289,-46.2442 274.615,-50.3444"/>
</g>
<!-- Node26&#45;&gt;Node7 -->
<g id="edge30" class="edge"><title>Node26&#45;&gt;Node7</title>
<path fill="none" stroke="midnightblue" d="M919.412,-487.453C900.951,-477.483 876.403,-464.228 860.527,-455.655"/>
<polygon fill="midnightblue" stroke="midnightblue" points="917.971,-490.652 928.433,-492.324 921.297,-484.493 917.971,-490.652"/>
</g>
<!-- Node26&#45;&gt;Node8 -->
<g id="edge31" class="edge"><title>Node26&#45;&gt;Node8</title>
<path fill="none" stroke="midnightblue" d="M933.5,-483.957C918.113,-460.118 890.739,-417.709 879.045,-399.591"/>
<polygon fill="midnightblue" stroke="midnightblue" points="930.565,-485.865 938.929,-492.368 936.446,-482.069 930.565,-485.865"/>
</g>
<!-- Node27 -->
<g id="node27" class="node"><title>Node27</title>
<g id="a_node27"><a xlink:href="enumerate_8cpp.html" target="_top" xlink:title="fplll/enum/enumerate.cpp">
<polygon fill="white" stroke="black" points="930.5,-436.5 930.5,-455.5 1056.5,-455.5 1056.5,-436.5 930.5,-436.5"/>
<text text-anchor="middle" x="993.5" y="-443.5" font-family="Helvetica,sans-Serif" font-size="10.00">fplll/enum/enumerate.cpp</text>
</a>
</g>
</g>
<!-- Node26&#45;&gt;Node27 -->
<g id="edge32" class="edge"><title>Node26&#45;&gt;Node27</title>
<path fill="none" stroke="midnightblue" d="M959.534,-484.431C968.122,-474.967 978.543,-463.483 985.559,-455.751"/>
<polygon fill="midnightblue" stroke="midnightblue" points="956.719,-482.325 952.591,-492.083 961.903,-487.029 956.719,-482.325"/>
</g>
<!-- Node28 -->
<g id="node28" class="node"><title>Node28</title>
<g id="a_node28"><a xlink:href="svpcvp_8cpp.html" target="_top" xlink:title="fplll/svpcvp.cpp">
<polygon fill="white" stroke="black" points="1075,-436.5 1075,-455.5 1160,-455.5 1160,-436.5 1075,-436.5"/>
<text text-anchor="middle" x="1117.5" y="-443.5" font-family="Helvetica,sans-Serif" font-size="10.00">fplll/svpcvp.cpp</text>
</a>
</g>
</g>
<!-- Node26&#45;&gt;Node28 -->
<g id="edge33" class="edge"><title>Node26&#45;&gt;Node28</title>
<path fill="none" stroke="midnightblue" d="M981.547,-489.436C1014.16,-479.255 1060.91,-464.664 1090.22,-455.516"/>
<polygon fill="midnightblue" stroke="midnightblue" points="980.415,-486.123 971.912,-492.444 982.501,-492.805 980.415,-486.123"/>
</g>
<!-- Node28&#45;&gt;Node10 -->
<g id="edge34" class="edge"><title>Node28&#45;&gt;Node10</title>
<path fill="none" stroke="midnightblue" d="M1102.79,-428.824C1080.29,-404.064 1038.05,-357.607 1020.48,-338.282"/>
<polygon fill="midnightblue" stroke="midnightblue" points="1100.29,-431.274 1109.61,-436.319 1105.47,-426.565 1100.29,-431.274"/>
</g>
<!-- Node30&#45;&gt;Node28 -->
<g id="edge38" class="edge"><title>Node30&#45;&gt;Node28</title>
<path fill="none" stroke="midnightblue" d="M1259.76,-542.624C1278.19,-529.417 1298.79,-509.325 1285.5,-492 1270.33,-472.238 1204.93,-459.256 1160.34,-452.524"/>
<polygon fill="midnightblue" stroke="midnightblue" points="1257.63,-539.838 1251.31,-548.343 1261.56,-545.635 1257.63,-539.838"/>
</g>
<!-- Node31 -->
<g id="node31" class="node"><title>Node31</title>
<g id="a_node31"><a xlink:href="topenum_8cpp.html" target="_top" xlink:title="fplll/enum/topenum.cpp">
<polygon fill="white" stroke="black" points="1158.5,-492.5 1158.5,-511.5 1276.5,-511.5 1276.5,-492.5 1158.5,-492.5"/>
<text text-anchor="middle" x="1217.5" y="-499.5" font-family="Helvetica,sans-Serif" font-size="10.00">fplll/enum/topenum.cpp</text>
</a>
</g>
</g>
<!-- Node30&#45;&gt;Node31 -->
<g id="edge37" class="edge"><title>Node30&#45;&gt;Node31</title>
<path fill="none" stroke="midnightblue" d="M1229.95,-538.396C1226.78,-529.362 1223.11,-518.936 1220.58,-511.751"/>
<polygon fill="midnightblue" stroke="midnightblue" points="1226.74,-539.812 1233.36,-548.083 1233.35,-537.488 1226.74,-539.812"/>
</g>
<!-- Node32&#45;&gt;Node9 -->
<g id="edge41" class="edge"><title>Node32&#45;&gt;Node9</title>
<path fill="none" stroke="midnightblue" d="M790.998,-482.166C788.003,-467.337 781.498,-447.339 767.5,-436 732.348,-407.526 596.686,-396.203 536.519,-392.515"/>
<polygon fill="midnightblue" stroke="midnightblue" points="787.585,-482.976 792.671,-492.27 794.491,-481.832 787.585,-482.976"/>
</g>
<!-- Node32&#45;&gt;Node28 -->
<g id="edge42" class="edge"><title>Node32&#45;&gt;Node28</title>
<path fill="none" stroke="midnightblue" d="M840.931,-493.262C895.222,-484.38 986.804,-469.32 1065.5,-456 1068.57,-455.48 1071.74,-454.94 1074.94,-454.393"/>
<polygon fill="midnightblue" stroke="midnightblue" points="840.217,-489.833 830.913,-494.901 841.346,-496.741 840.217,-489.833"/>
</g>
<!-- Node38&#45;&gt;Node4 -->
<g id="edge49" class="edge"><title>Node38&#45;&gt;Node4</title>
<path fill="none" stroke="midnightblue" d="M790.37,-630.656C778.52,-641.956 760.949,-656.785 748.287,-665.975"/>
<polygon fill="midnightblue" stroke="midnightblue" points="792.925,-633.051 797.529,-623.509 787.979,-628.097 792.925,-633.051"/>
</g>
<!-- Node39&#45;&gt;Node26 -->
<g id="edge51" class="edge"><title>Node39&#45;&gt;Node26</title>
<path fill="none" stroke="midnightblue" d="M467.291,-552.844C557.978,-543.372 780.33,-520.147 886.387,-509.07"/>
<polygon fill="midnightblue" stroke="midnightblue" points="466.735,-549.383 457.153,-553.903 467.463,-556.345 466.735,-549.383"/>
</g>
<!-- Node40 -->
<g id="node40" class="node"><title>Node40</title>
<g id="a_node40"><a xlink:href="lll_8h.html" target="_top" xlink:title="fplll/lll.h">
<polygon fill="white" stroke="black" points="650.5,-492.5 650.5,-511.5 700.5,-511.5 700.5,-492.5 650.5,-492.5"/>
<text text-anchor="middle" x="675.5" y="-499.5" font-family="Helvetica,sans-Serif" font-size="10.00">fplll/lll.h</text>
</a>
</g>
</g>
<!-- Node39&#45;&gt;Node40 -->
<g id="edge52" class="edge"><title>Node39&#45;&gt;Node40</title>
<path fill="none" stroke="midnightblue" d="M467.207,-548.354C518.749,-537.131 607.19,-517.874 650.34,-508.478"/>
<polygon fill="midnightblue" stroke="midnightblue" points="466.441,-544.939 457.415,-550.486 467.93,-551.779 466.441,-544.939"/>
</g>
<!-- Node41 -->
<g id="node41" class="node"><title>Node41</title>
<g id="a_node41"><a xlink:href="pruner_8h.html" target="_top" xlink:title="fplll/pruner.h">
<polygon fill="white" stroke="black" points="390.5,-492.5 390.5,-511.5 460.5,-511.5 460.5,-492.5 390.5,-492.5"/>
<text text-anchor="middle" x="425.5" y="-499.5" font-family="Helvetica,sans-Serif" font-size="10.00">fplll/pruner.h</text>
</a>
</g>
</g>
<!-- Node39&#45;&gt;Node41 -->
<g id="edge56" class="edge"><title>Node39&#45;&gt;Node41</title>
<path fill="none" stroke="midnightblue" d="M426.789,-537.805C426.46,-528.91 426.084,-518.78 425.824,-511.751"/>
<polygon fill="midnightblue" stroke="midnightblue" points="423.302,-538.219 427.17,-548.083 430.297,-537.96 423.302,-538.219"/>
</g>
<!-- Node42 -->
<g id="node42" class="node"><title>Node42</title>
<g id="a_node42"><a xlink:href="pruner_8cpp.html" target="_top" xlink:title="fplll/pruner.cpp">
<polygon fill="white" stroke="black" points="327.5,-436.5 327.5,-455.5 407.5,-455.5 407.5,-436.5 327.5,-436.5"/>
<text text-anchor="middle" x="367.5" y="-443.5" font-family="Helvetica,sans-Serif" font-size="10.00">fplll/pruner.cpp</text>
</a>
</g>
</g>
<!-- Node39&#45;&gt;Node42 -->
<g id="edge61" class="edge"><title>Node39&#45;&gt;Node42</title>
<path fill="none" stroke="midnightblue" d="M407.341,-541.912C398.124,-533.988 387.864,-523.533 381.5,-512 371.349,-493.606 368.555,-468.513 367.789,-455.543"/>
<polygon fill="midnightblue" stroke="midnightblue" points="405.402,-544.846 415.37,-548.435 409.816,-539.413 405.402,-544.846"/>
</g>
<!-- Node43 -->
<g id="node43" class="node"><title>Node43</title>
<g id="a_node43"><a xlink:href="gso_8cpp.html" target="_top" xlink:title="fplll/gso.cpp">
<polygon fill="white" stroke="black" points="217,-380.5 217,-399.5 286,-399.5 286,-380.5 217,-380.5"/>
<text text-anchor="middle" x="251.5" y="-387.5" font-family="Helvetica,sans-Serif" font-size="10.00">fplll/gso.cpp</text>
</a>
</g>
</g>
<!-- Node39&#45;&gt;Node43 -->
<g id="edge59" class="edge"><title>Node39&#45;&gt;Node43</title>
<path fill="none" stroke="midnightblue" d="M407.548,-542.228C396.376,-533.717 382.351,-522.627 370.5,-512 326.19,-472.265 277.715,-419.9 259.236,-399.576"/>
<polygon fill="midnightblue" stroke="midnightblue" points="405.707,-545.223 415.801,-548.443 409.918,-539.632 405.707,-545.223"/>
</g>
<!-- Node40&#45;&gt;Node7 -->
<g id="edge53" class="edge"><title>Node40&#45;&gt;Node7</title>
<path fill="none" stroke="midnightblue" d="M710.587,-489.789C742.412,-479.62 788.652,-464.845 817.627,-455.587"/>
<polygon fill="midnightblue" stroke="midnightblue" points="709.261,-486.538 700.801,-492.916 711.392,-493.206 709.261,-486.538"/>
</g>
<!-- Node40&#45;&gt;Node34 -->
<g id="edge54" class="edge"><title>Node40&#45;&gt;Node34</title>
<path fill="none" stroke="midnightblue" d="M691.481,-484.718C700.822,-475.2 712.246,-463.561 719.911,-455.751"/>
<polygon fill="midnightblue" stroke="midnightblue" points="688.759,-482.494 684.252,-492.083 693.754,-487.398 688.759,-482.494"/>
</g>
<!-- Node40&#45;&gt;Node37 -->
<g id="edge55" class="edge"><title>Node40&#45;&gt;Node37</title>
<path fill="none" stroke="midnightblue" d="M663.118,-483.855C656.365,-474.505 648.291,-463.327 642.82,-455.751"/>
<polygon fill="midnightblue" stroke="midnightblue" points="660.368,-486.025 669.06,-492.083 666.042,-481.927 660.368,-486.025"/>
</g>
<!-- Node41&#45;&gt;Node9 -->
<g id="edge57" class="edge"><title>Node41&#45;&gt;Node9</title>
<path fill="none" stroke="midnightblue" d="M437.97,-484.272C455.695,-460.494 487.53,-417.789 501.095,-399.591"/>
<polygon fill="midnightblue" stroke="midnightblue" points="435.105,-482.259 431.934,-492.368 440.717,-486.443 435.105,-482.259"/>
</g>
<!-- Node41&#45;&gt;Node42 -->
<g id="edge58" class="edge"><title>Node41&#45;&gt;Node42</title>
<path fill="none" stroke="midnightblue" d="M408.587,-485.253C398.297,-475.673 385.534,-463.791 376.988,-455.834"/>
<polygon fill="midnightblue" stroke="midnightblue" points="406.477,-488.071 416.181,-492.324 411.247,-482.948 406.477,-488.071"/>
</g>
<!-- Node43&#45;&gt;Node13 -->
<g id="edge60" class="edge"><title>Node43&#45;&gt;Node13</title>
<path fill="none" stroke="midnightblue" d="M241.602,-371.678C236.487,-362.727 230.326,-351.945 225.513,-343.523"/>
<polygon fill="midnightblue" stroke="midnightblue" points="238.628,-373.529 246.629,-380.475 244.706,-370.056 238.628,-373.529"/>
</g>
<!-- Node44&#45;&gt;Node9 -->
<g id="edge63" class="edge"><title>Node44&#45;&gt;Node9</title>
<path fill="none" stroke="midnightblue" d="M547.645,-482.998C537.171,-458.997 519.05,-417.468 511.249,-399.591"/>
<polygon fill="midnightblue" stroke="midnightblue" points="544.526,-484.603 551.734,-492.368 550.942,-481.803 544.526,-484.603"/>
</g>
<!-- Node44&#45;&gt;Node10 -->
<g id="edge64" class="edge"><title>Node44&#45;&gt;Node10</title>
<path fill="none" stroke="midnightblue" d="M558.797,-482.368C562.375,-467.657 569.559,-447.719 583.5,-436 718.5,-322.518 799.988,-392.672 969.5,-344 975.709,-342.217 982.353,-340.089 988.515,-338.019"/>
<polygon fill="midnightblue" stroke="midnightblue" points="555.325,-481.873 556.712,-492.377 562.178,-483.301 555.325,-481.873"/>
</g>
<!-- Node44&#45;&gt;Node37 -->
<g id="edge65" class="edge"><title>Node44&#45;&gt;Node37</title>
<path fill="none" stroke="midnightblue" d="M577.067,-486.622C591.864,-476.757 611.012,-463.992 623.518,-455.655"/>
<polygon fill="midnightblue" stroke="midnightblue" points="574.893,-483.865 568.514,-492.324 578.776,-489.689 574.893,-483.865"/>
</g>
<!-- Node45&#45;&gt;Node26 -->
<g id="edge67" class="edge"><title>Node45&#45;&gt;Node26</title>
<path fill="none" stroke="midnightblue" d="M1056.25,-721.475C1067.26,-713.109 1079.03,-702.624 1087.5,-691 1126.98,-636.816 1177.12,-600.56 1135.5,-548 1126.7,-536.882 1048.55,-521.191 994.985,-511.578"/>
<polygon fill="midnightblue" stroke="midnightblue" points="1054.08,-718.73 1048.05,-727.442 1058.2,-724.39 1054.08,-718.73"/>
</g>
<!-- Node46 -->
<g id="node46" class="node"><title>Node46</title>
<g id="a_node46"><a xlink:href="enumerate__base_8cpp.html" target="_top" xlink:title="fplll/enum/enumerate\l_base.cpp">
<polygon fill="white" stroke="black" points="972,-660.5 972,-690.5 1079,-690.5 1079,-660.5 972,-660.5"/>
<text text-anchor="start" x="980" y="-678.5" font-family="Helvetica,sans-Serif" font-size="10.00">fplll/enum/enumerate</text>
<text text-anchor="middle" x="1025.5" y="-667.5" font-family="Helvetica,sans-Serif" font-size="10.00">_base.cpp</text>
</a>
</g>
</g>
<!-- Node45&#45;&gt;Node46 -->
<g id="edge68" class="edge"><title>Node45&#45;&gt;Node46</title>
<path fill="none" stroke="midnightblue" d="M1025.5,-717.108C1025.5,-708.154 1025.5,-698.323 1025.5,-690.577"/>
<polygon fill="midnightblue" stroke="midnightblue" points="1022,-717.396 1025.5,-727.396 1029,-717.396 1022,-717.396"/>
</g>
<!-- Node47&#45;&gt;Node2 -->
<g id="edge70" class="edge"><title>Node47&#45;&gt;Node2</title>
<path fill="none" stroke="midnightblue" d="M1068.92,-844.38C1055.19,-834.62 1037.57,-822.106 1025.93,-813.834"/>
<polygon fill="midnightblue" stroke="midnightblue" points="1067.11,-847.385 1077.29,-850.324 1071.16,-841.679 1067.11,-847.385"/>
</g>
<!-- Node48&#45;&gt;Node2 -->
<g id="edge72" class="edge"><title>Node48&#45;&gt;Node2</title>
<path fill="none" stroke="midnightblue" d="M957.401,-844.342C971.411,-834.517 989.383,-821.913 1001.16,-813.655"/>
<polygon fill="midnightblue" stroke="midnightblue" points="955.049,-841.717 948.871,-850.324 959.068,-847.448 955.049,-841.717"/>
</g>
</g>
</svg>
