<?xml version="1.0" encoding="UTF-8" standalone="no"?>
<!DOCTYPE svg PUBLIC "-//W3C//DTD SVG 1.1//EN"
 "http://www.w3.org/Graphics/SVG/1.1/DTD/svg11.dtd">
<!-- Generated by graphviz version 2.38.0 (20140413.2041)
 -->
<!-- Title: fplll/nr/nr_Z.inl Pages: 1 -->
<svg width="1374pt" height="878pt"
 viewBox="0.00 0.00 1373.53 878.00" xmlns="http://www.w3.org/2000/svg" xmlns:xlink="http://www.w3.org/1999/xlink">
<g id="graph0" class="graph" transform="scale(1 1) rotate(0) translate(4 874)">
<title>fplll/nr/nr_Z.inl</title>
<polygon fill="white" stroke="none" points="-4,4 -4,-874 1369.53,-874 1369.53,4 -4,4"/>
<!-- Node1 -->
<g id="node1" class="node"><title>Node1</title>
<polygon fill="#bfbfbf" stroke="black" points="1002,-850.5 1002,-869.5 1080,-869.5 1080,-850.5 1002,-850.5"/>
<text text-anchor="middle" x="1041" y="-857.5" font-family="Helvetica,sans-Serif" font-size="10.00">fplll/nr/nr_Z.inl</text>
</g>
<!-- Node2 -->
<g id="node2" class="node"><title>Node2</title>
<g id="a_node2"><a xlink:href="nr_8h.html" target="_top" xlink:title="fplll/nr/nr.h">
<polygon fill="white" stroke="black" points="1010,-794.5 1010,-813.5 1072,-813.5 1072,-794.5 1010,-794.5"/>
<text text-anchor="middle" x="1041" y="-801.5" font-family="Helvetica,sans-Serif" font-size="10.00">fplll/nr/nr.h</text>
</a>
</g>
</g>
<!-- Node1&#45;&gt;Node2 -->
<g id="edge1" class="edge"><title>Node1&#45;&gt;Node2</title>
<path fill="none" stroke="midnightblue" d="M1041,-839.805C1041,-830.91 1041,-820.78 1041,-813.751"/>
<polygon fill="midnightblue" stroke="midnightblue" points="1037.5,-840.083 1041,-850.083 1044.5,-840.083 1037.5,-840.083"/>
</g>
<!-- Node3 -->
<g id="node3" class="node"><title>Node3</title>
<g id="a_node3"><a xlink:href="numvect_8h.html" target="_top" xlink:title="fplll/nr/numvect.h">
<polygon fill="white" stroke="black" points="904,-733 904,-752 996,-752 996,-733 904,-733"/>
<text text-anchor="middle" x="950" y="-740" font-family="Helvetica,sans-Serif" font-size="10.00">fplll/nr/numvect.h</text>
</a>
</g>
</g>
<!-- Node2&#45;&gt;Node3 -->
<g id="edge2" class="edge"><title>Node2&#45;&gt;Node3</title>
<path fill="none" stroke="midnightblue" d="M1019.48,-788.93C1001.94,-777.459 977.735,-761.634 963.014,-752.009"/>
<polygon fill="midnightblue" stroke="midnightblue" points="1017.68,-791.932 1027.96,-794.475 1021.51,-786.073 1017.68,-791.932"/>
</g>
<!-- Node49 -->
<g id="node49" class="node"><title>Node49</title>
<g id="a_node49"><a xlink:href="enumerate__base_8h.html" target="_top" xlink:title="fplll/enum/enumerate\l_base.h">
<polygon fill="white" stroke="black" points="1078.5,-727.5 1078.5,-757.5 1185.5,-757.5 1185.5,-727.5 1078.5,-727.5"/>
<text text-anchor="start" x="1086.5" y="-745.5" font-family="Helvetica,sans-Serif" font-size="10.00">fplll/enum/enumerate</text>
<text text-anchor="middle" x="1132" y="-734.5" font-family="Helvetica,sans-Serif" font-size="10.00">_base.h</text>
</a>
</g>
</g>
<!-- Node2&#45;&gt;Node49 -->
<g id="edge72" class="edge"><title>Node2&#45;&gt;Node49</title>
<path fill="none" stroke="midnightblue" d="M1062.81,-788.739C1077.27,-779.282 1096.17,-766.93 1110.55,-757.523"/>
<polygon fill="midnightblue" stroke="midnightblue" points="1060.49,-786.073 1054.04,-794.475 1064.32,-791.932 1060.49,-786.073"/>
</g>
<!-- Node4 -->
<g id="node4" class="node"><title>Node4</title>
<g id="a_node4"><a xlink:href="matrix_8h.html" target="_top" xlink:title="fplll/nr/matrix.h">
<polygon fill="white" stroke="black" points="781.5,-666 781.5,-685 862.5,-685 862.5,-666 781.5,-666"/>
<text text-anchor="middle" x="822" y="-673" font-family="Helvetica,sans-Serif" font-size="10.00">fplll/nr/matrix.h</text>
</a>
</g>
</g>
<!-- Node3&#45;&gt;Node4 -->
<g id="edge3" class="edge"><title>Node3&#45;&gt;Node4</title>
<path fill="none" stroke="midnightblue" d="M923.955,-728.274C898.603,-715.4 860.811,-696.209 839.068,-685.167"/>
<polygon fill="midnightblue" stroke="midnightblue" points="922.502,-731.461 933.003,-732.869 925.671,-725.22 922.502,-731.461"/>
</g>
<!-- Node5 -->
<g id="node5" class="node"><title>Node5</title>
<g id="a_node5"><a xlink:href="util_8h.html" target="_top" xlink:title="fplll/util.h">
<polygon fill="white" stroke="black" points="762,-604.5 762,-623.5 818,-623.5 818,-604.5 762,-604.5"/>
<text text-anchor="middle" x="790" y="-611.5" font-family="Helvetica,sans-Serif" font-size="10.00">fplll/util.h</text>
</a>
</g>
</g>
<!-- Node4&#45;&gt;Node5 -->
<g id="edge4" class="edge"><title>Node4&#45;&gt;Node5</title>
<path fill="none" stroke="midnightblue" d="M812.499,-656.835C806.58,-645.828 799.23,-632.163 794.576,-623.509"/>
<polygon fill="midnightblue" stroke="midnightblue" points="809.596,-658.826 817.415,-665.975 815.761,-655.51 809.596,-658.826"/>
</g>
<!-- Node42 -->
<g id="node42" class="node"><title>Node42</title>
<g id="a_node42"><a xlink:href="matrix_8cpp.html" target="_top" xlink:title="fplll/nr/matrix.cpp">
<polygon fill="white" stroke="black" points="836,-604.5 836,-623.5 928,-623.5 928,-604.5 836,-604.5"/>
<text text-anchor="middle" x="882" y="-611.5" font-family="Helvetica,sans-Serif" font-size="10.00">fplll/nr/matrix.cpp</text>
</a>
</g>
</g>
<!-- Node4&#45;&gt;Node42 -->
<g id="edge54" class="edge"><title>Node4&#45;&gt;Node42</title>
<path fill="none" stroke="midnightblue" d="M832.37,-658.169C842.514,-646.952 857.472,-632.516 868.522,-623.509"/>
<polygon fill="midnightblue" stroke="midnightblue" points="829.534,-656.1 825.696,-665.975 834.855,-660.649 829.534,-656.1"/>
</g>
<!-- Node43 -->
<g id="node43" class="node"><title>Node43</title>
<g id="a_node43"><a xlink:href="gso_8h.html" target="_top" xlink:title="fplll/gso.h">
<polygon fill="white" stroke="black" points="473.5,-548.5 473.5,-567.5 532.5,-567.5 532.5,-548.5 473.5,-548.5"/>
<text text-anchor="middle" x="503" y="-555.5" font-family="Helvetica,sans-Serif" font-size="10.00">fplll/gso.h</text>
</a>
</g>
</g>
<!-- Node4&#45;&gt;Node43 -->
<g id="edge56" class="edge"><title>Node4&#45;&gt;Node43</title>
<path fill="none" stroke="midnightblue" d="M771.198,-664.01C732.408,-655.283 677.98,-641.479 632,-624 588.867,-607.604 541.096,-581.198 517.637,-567.642"/>
<polygon fill="midnightblue" stroke="midnightblue" points="770.685,-667.481 781.206,-666.227 772.199,-660.647 770.685,-667.481"/>
</g>
<!-- Node48 -->
<g id="node48" class="node"><title>Node48</title>
<g id="a_node48"><a xlink:href="wrapper_8h.html" target="_top" xlink:title="fplll/wrapper.h">
<polygon fill="white" stroke="black" points="592.5,-492.5 592.5,-511.5 669.5,-511.5 669.5,-492.5 592.5,-492.5"/>
<text text-anchor="middle" x="631" y="-499.5" font-family="Helvetica,sans-Serif" font-size="10.00">fplll/wrapper.h</text>
</a>
</g>
</g>
<!-- Node4&#45;&gt;Node48 -->
<g id="edge68" class="edge"><title>Node4&#45;&gt;Node48</title>
<path fill="none" stroke="midnightblue" d="M800.652,-660.115C786.693,-650.412 768.283,-637.044 753,-624 707.166,-584.879 657.704,-532.159 638.877,-511.658"/>
<polygon fill="midnightblue" stroke="midnightblue" points="798.88,-663.144 809.105,-665.921 802.844,-657.374 798.88,-663.144"/>
</g>
<!-- Node6 -->
<g id="node6" class="node"><title>Node6</title>
<g id="a_node6"><a xlink:href="evaluator_8h.html" target="_top" xlink:title="fplll/enum/evaluator.h">
<polygon fill="white" stroke="black" points="1092,-548.5 1092,-567.5 1202,-567.5 1202,-548.5 1092,-548.5"/>
<text text-anchor="middle" x="1147" y="-555.5" font-family="Helvetica,sans-Serif" font-size="10.00">fplll/enum/evaluator.h</text>
</a>
</g>
</g>
<!-- Node5&#45;&gt;Node6 -->
<g id="edge5" class="edge"><title>Node5&#45;&gt;Node6</title>
<path fill="none" stroke="midnightblue" d="M828.26,-604.225C867.893,-598.24 1011.23,-578.088 1091.67,-566.779"/>
<polygon fill="midnightblue" stroke="midnightblue" points="827.54,-600.795 818.219,-605.831 828.646,-607.707 827.54,-600.795"/>
</g>
<!-- Node9 -->
<g id="node9" class="node"><title>Node9</title>
<g id="a_node9"><a xlink:href="fplll_8h.html" target="_top" xlink:title="fplll/fplll.h">
<polygon fill="white" stroke="black" points="554,-380.5 554,-399.5 612,-399.5 612,-380.5 554,-380.5"/>
<text text-anchor="middle" x="583" y="-387.5" font-family="Helvetica,sans-Serif" font-size="10.00">fplll/fplll.h</text>
</a>
</g>
</g>
<!-- Node5&#45;&gt;Node9 -->
<g id="edge45" class="edge"><title>Node5&#45;&gt;Node9</title>
<path fill="none" stroke="midnightblue" d="M751.729,-606.816C702.798,-596.631 619.989,-571.205 583,-512 560.405,-475.834 573.644,-420.94 580.095,-399.761"/>
<polygon fill="midnightblue" stroke="midnightblue" points="751.14,-610.267 761.627,-608.764 752.492,-603.399 751.14,-610.267"/>
</g>
<!-- Node34 -->
<g id="node34" class="node"><title>Node34</title>
<g id="a_node34"><a xlink:href="topenum_8h.html" target="_top" xlink:title="fplll/enum/topenum.h">
<polygon fill="white" stroke="black" points="1258.5,-548.5 1258.5,-567.5 1365.5,-567.5 1365.5,-548.5 1258.5,-548.5"/>
<text text-anchor="middle" x="1312" y="-555.5" font-family="Helvetica,sans-Serif" font-size="10.00">fplll/enum/topenum.h</text>
</a>
</g>
</g>
<!-- Node5&#45;&gt;Node34 -->
<g id="edge42" class="edge"><title>Node5&#45;&gt;Node34</title>
<path fill="none" stroke="midnightblue" d="M828.304,-604.388C885.044,-597.904 1144.32,-574.247 1258.23,-563.885"/>
<polygon fill="midnightblue" stroke="midnightblue" points="827.664,-600.941 818.194,-605.693 828.56,-607.884 827.664,-600.941"/>
</g>
<!-- Node36 -->
<g id="node36" class="node"><title>Node36</title>
<g id="a_node36"><a xlink:href="svpcvp_8h.html" target="_top" xlink:title="fplll/svpcvp.h">
<polygon fill="white" stroke="black" points="832,-492.5 832,-511.5 906,-511.5 906,-492.5 832,-492.5"/>
<text text-anchor="middle" x="869" y="-499.5" font-family="Helvetica,sans-Serif" font-size="10.00">fplll/svpcvp.h</text>
</a>
</g>
</g>
<!-- Node5&#45;&gt;Node36 -->
<g id="edge46" class="edge"><title>Node5&#45;&gt;Node36</title>
<path fill="none" stroke="midnightblue" d="M786.345,-594.045C784.717,-580.293 784.726,-561.767 793,-548 803.743,-530.126 824.52,-518.543 841.639,-511.611"/>
<polygon fill="midnightblue" stroke="midnightblue" points="782.941,-594.929 787.952,-604.264 789.856,-593.841 782.941,-594.929"/>
</g>
<!-- Node37 -->
<g id="node37" class="node"><title>Node37</title>
<g id="a_node37"><a xlink:href="latticegen_8cpp.html" target="_top" xlink:title="fplll/latticegen.cpp">
<polygon fill="white" stroke="black" points="802.5,-548.5 802.5,-567.5 897.5,-567.5 897.5,-548.5 802.5,-548.5"/>
<text text-anchor="middle" x="850" y="-555.5" font-family="Helvetica,sans-Serif" font-size="10.00">fplll/latticegen.cpp</text>
</a>
</g>
</g>
<!-- Node5&#45;&gt;Node37 -->
<g id="edge49" class="edge"><title>Node5&#45;&gt;Node37</title>
<path fill="none" stroke="midnightblue" d="M807.181,-597.537C817.879,-587.909 831.256,-575.869 840.185,-567.834"/>
<polygon fill="midnightblue" stroke="midnightblue" points="804.732,-595.033 799.64,-604.324 809.414,-600.236 804.732,-595.033"/>
</g>
<!-- Node38 -->
<g id="node38" class="node"><title>Node38</title>
<g id="a_node38"><a xlink:href="lll_8cpp.html" target="_top" xlink:title="fplll/lll.cpp">
<polygon fill="white" stroke="black" points="774,-436.5 774,-455.5 834,-455.5 834,-436.5 774,-436.5"/>
<text text-anchor="middle" x="804" y="-443.5" font-family="Helvetica,sans-Serif" font-size="10.00">fplll/lll.cpp</text>
</a>
</g>
</g>
<!-- Node5&#45;&gt;Node38 -->
<g id="edge50" class="edge"><title>Node5&#45;&gt;Node38</title>
<path fill="none" stroke="midnightblue" d="M786.472,-594.547C785.092,-586.437 783.679,-576.78 783,-568 779.713,-525.485 794.379,-475.547 800.953,-455.734"/>
<polygon fill="midnightblue" stroke="midnightblue" points="783.034,-595.204 788.261,-604.419 789.922,-593.955 783.034,-595.204"/>
</g>
<!-- Node39 -->
<g id="node39" class="node"><title>Node39</title>
<g id="a_node39"><a xlink:href="llldiff_8cpp.html" target="_top" xlink:title="fplll/llldiff.cpp">
<polygon fill="white" stroke="black" points="916,-548.5 916,-567.5 990,-567.5 990,-548.5 916,-548.5"/>
<text text-anchor="middle" x="953" y="-555.5" font-family="Helvetica,sans-Serif" font-size="10.00">fplll/llldiff.cpp</text>
</a>
</g>
</g>
<!-- Node5&#45;&gt;Node39 -->
<g id="edge51" class="edge"><title>Node5&#45;&gt;Node39</title>
<path fill="none" stroke="midnightblue" d="M825.703,-601.172C856.396,-591.004 899.919,-576.585 927.293,-567.516"/>
<polygon fill="midnightblue" stroke="midnightblue" points="824.22,-597.976 815.828,-604.444 826.421,-604.621 824.22,-597.976"/>
</g>
<!-- Node40 -->
<g id="node40" class="node"><title>Node40</title>
<g id="a_node40"><a xlink:href="util_8cpp.html" target="_top" xlink:title="fplll/util.cpp">
<polygon fill="white" stroke="black" points="1008,-548.5 1008,-567.5 1074,-567.5 1074,-548.5 1008,-548.5"/>
<text text-anchor="middle" x="1041" y="-555.5" font-family="Helvetica,sans-Serif" font-size="10.00">fplll/util.cpp</text>
</a>
</g>
</g>
<!-- Node5&#45;&gt;Node40 -->
<g id="edge52" class="edge"><title>Node5&#45;&gt;Node40</title>
<path fill="none" stroke="midnightblue" d="M828.386,-603.739C904.865,-586.533 925.728,-583.519 999,-568 1001.92,-567.382 1004.95,-566.737 1007.99,-566.09"/>
<polygon fill="midnightblue" stroke="midnightblue" points="827.243,-600.409 818.26,-606.027 828.785,-607.237 827.243,-600.409"/>
</g>
<!-- Node41 -->
<g id="node41" class="node"><title>Node41</title>
<g id="a_node41"><a xlink:href="wrapper_8cpp.html" target="_top" xlink:title="fplll/wrapper.cpp">
<polygon fill="white" stroke="black" points="668,-436.5 668,-455.5 756,-455.5 756,-436.5 668,-436.5"/>
<text text-anchor="middle" x="712" y="-443.5" font-family="Helvetica,sans-Serif" font-size="10.00">fplll/wrapper.cpp</text>
</a>
</g>
</g>
<!-- Node5&#45;&gt;Node41 -->
<g id="edge53" class="edge"><title>Node5&#45;&gt;Node41</title>
<path fill="none" stroke="midnightblue" d="M773.979,-596.959C756.508,-578.326 729.387,-545.798 717,-512 709.989,-492.872 710.365,-468.508 711.207,-455.727"/>
<polygon fill="midnightblue" stroke="midnightblue" points="771.565,-599.498 781.022,-604.277 776.609,-594.644 771.565,-599.498"/>
</g>
<!-- Node7 -->
<g id="node7" class="node"><title>Node7</title>
<g id="a_node7"><a xlink:href="bkz_8h.html" target="_top" xlink:title="fplll/bkz.h">
<polygon fill="white" stroke="black" points="890.5,-436.5 890.5,-455.5 949.5,-455.5 949.5,-436.5 890.5,-436.5"/>
<text text-anchor="middle" x="920" y="-443.5" font-family="Helvetica,sans-Serif" font-size="10.00">fplll/bkz.h</text>
</a>
</g>
</g>
<!-- Node6&#45;&gt;Node7 -->
<g id="edge6" class="edge"><title>Node6&#45;&gt;Node7</title>
<path fill="none" stroke="midnightblue" d="M1090.86,-546.485C1037.54,-536.099 963.931,-520.563 953,-512 934.469,-497.484 925.445,-469.749 921.896,-455.666"/>
<polygon fill="midnightblue" stroke="midnightblue" points="1090.41,-549.963 1100.89,-548.426 1091.74,-543.09 1090.41,-549.963"/>
</g>
<!-- Node30 -->
<g id="node30" class="node"><title>Node30</title>
<g id="a_node30"><a xlink:href="enumerate_8h.html" target="_top" xlink:title="fplll/enum/enumerate.h">
<polygon fill="white" stroke="black" points="962,-492.5 962,-511.5 1078,-511.5 1078,-492.5 962,-492.5"/>
<text text-anchor="middle" x="1020" y="-499.5" font-family="Helvetica,sans-Serif" font-size="10.00">fplll/enum/enumerate.h</text>
</a>
</g>
</g>
<!-- Node6&#45;&gt;Node30 -->
<g id="edge35" class="edge"><title>Node6&#45;&gt;Node30</title>
<path fill="none" stroke="midnightblue" d="M1117.61,-544.503C1093.8,-534.38 1060.89,-520.388 1040.03,-511.516"/>
<polygon fill="midnightblue" stroke="midnightblue" points="1116.3,-547.751 1126.88,-548.444 1119.04,-541.31 1116.3,-547.751"/>
</g>
<!-- Node33 -->
<g id="node33" class="node"><title>Node33</title>
<g id="a_node33"><a xlink:href="evaluator_8cpp.html" target="_top" xlink:title="fplll/enum/evaluator.cpp">
<polygon fill="white" stroke="black" points="1096,-492.5 1096,-511.5 1216,-511.5 1216,-492.5 1096,-492.5"/>
<text text-anchor="middle" x="1156" y="-499.5" font-family="Helvetica,sans-Serif" font-size="10.00">fplll/enum/evaluator.cpp</text>
</a>
</g>
</g>
<!-- Node6&#45;&gt;Node33 -->
<g id="edge41" class="edge"><title>Node6&#45;&gt;Node33</title>
<path fill="none" stroke="midnightblue" d="M1150.15,-538.101C1151.64,-529.136 1153.36,-518.858 1154.54,-511.751"/>
<polygon fill="midnightblue" stroke="midnightblue" points="1146.68,-537.644 1148.49,-548.083 1153.58,-538.794 1146.68,-537.644"/>
</g>
<!-- Node8 -->
<g id="node8" class="node"><title>Node8</title>
<g id="a_node8"><a xlink:href="bkz_8cpp.html" target="_top" xlink:title="fplll/bkz.cpp">
<polygon fill="white" stroke="black" points="914.5,-380.5 914.5,-399.5 983.5,-399.5 983.5,-380.5 914.5,-380.5"/>
<text text-anchor="middle" x="949" y="-387.5" font-family="Helvetica,sans-Serif" font-size="10.00">fplll/bkz.cpp</text>
</a>
</g>
</g>
<!-- Node7&#45;&gt;Node8 -->
<g id="edge7" class="edge"><title>Node7&#45;&gt;Node8</title>
<path fill="none" stroke="midnightblue" d="M929.676,-426.983C934.598,-417.817 940.358,-407.092 944.3,-399.751"/>
<polygon fill="midnightblue" stroke="midnightblue" points="926.437,-425.617 924.789,-436.083 932.604,-428.929 926.437,-425.617"/>
</g>
<!-- Node7&#45;&gt;Node9 -->
<g id="edge8" class="edge"><title>Node7&#45;&gt;Node9</title>
<path fill="none" stroke="midnightblue" d="M880.382,-436.801C878.903,-436.526 877.439,-436.258 876,-436 779.747,-418.775 664.973,-402.331 612.19,-394.996"/>
<polygon fill="midnightblue" stroke="midnightblue" points="879.734,-440.241 890.216,-438.701 881.061,-433.368 879.734,-440.241"/>
</g>
<!-- Node10 -->
<g id="node10" class="node"><title>Node10</title>
<g id="a_node10"><a xlink:href="fplll_8cpp.html" target="_top" xlink:title="fplll/fplll.cpp">
<polygon fill="white" stroke="black" points="1054,-319 1054,-338 1122,-338 1122,-319 1054,-319"/>
<text text-anchor="middle" x="1088" y="-326" font-family="Helvetica,sans-Serif" font-size="10.00">fplll/fplll.cpp</text>
</a>
</g>
</g>
<!-- Node9&#45;&gt;Node10 -->
<g id="edge9" class="edge"><title>Node9&#45;&gt;Node10</title>
<path fill="none" stroke="midnightblue" d="M622.131,-380.602C623.434,-380.389 624.727,-380.187 626,-380 810.919,-352.805 862.023,-382.135 1045,-344 1051.94,-342.553 1059.32,-340.332 1065.96,-338.059"/>
<polygon fill="midnightblue" stroke="midnightblue" points="621.277,-377.2 612.059,-382.422 622.522,-384.088 621.277,-377.2"/>
</g>
<!-- Node11 -->
<g id="node11" class="node"><title>Node11</title>
<g id="a_node11"><a xlink:href="main_8h.html" target="_top" xlink:title="fplll/main.h">
<polygon fill="white" stroke="black" points="397,-319 397,-338 461,-338 461,-319 397,-319"/>
<text text-anchor="middle" x="429" y="-326" font-family="Helvetica,sans-Serif" font-size="10.00">fplll/main.h</text>
</a>
</g>
</g>
<!-- Node9&#45;&gt;Node11 -->
<g id="edge10" class="edge"><title>Node9&#45;&gt;Node11</title>
<path fill="none" stroke="midnightblue" d="M551.378,-376.782C521.451,-365.22 477.307,-348.164 451.024,-338.009"/>
<polygon fill="midnightblue" stroke="midnightblue" points="550.346,-380.136 560.936,-380.475 552.869,-373.606 550.346,-380.136"/>
</g>
<!-- Node13 -->
<g id="node13" class="node"><title>Node13</title>
<g id="a_node13"><a xlink:href="sampler__basic_8h.html" target="_top" xlink:title="fplll/sieve/sampler\l_basic.h">
<polygon fill="white" stroke="black" points="245.5,-313.5 245.5,-343.5 340.5,-343.5 340.5,-313.5 245.5,-313.5"/>
<text text-anchor="start" x="253.5" y="-331.5" font-family="Helvetica,sans-Serif" font-size="10.00">fplll/sieve/sampler</text>
<text text-anchor="middle" x="293" y="-320.5" font-family="Helvetica,sans-Serif" font-size="10.00">_basic.h</text>
</a>
</g>
</g>
<!-- Node9&#45;&gt;Node13 -->
<g id="edge12" class="edge"><title>Node9&#45;&gt;Node13</title>
<path fill="none" stroke="midnightblue" d="M543.745,-381.683C498.244,-373.103 421.046,-358.236 355,-344 350.353,-342.998 345.518,-341.924 340.69,-340.83"/>
<polygon fill="midnightblue" stroke="midnightblue" points="543.305,-385.162 553.78,-383.571 544.599,-378.283 543.305,-385.162"/>
</g>
<!-- Node16 -->
<g id="node16" class="node"><title>Node16</title>
<g id="a_node16"><a xlink:href="sieve__common_8h.html" target="_top" xlink:title="fplll/sieve/sieve_common.h">
<polygon fill="white" stroke="black" points="301.5,-252 301.5,-271 436.5,-271 436.5,-252 301.5,-252"/>
<text text-anchor="middle" x="369" y="-259" font-family="Helvetica,sans-Serif" font-size="10.00">fplll/sieve/sieve_common.h</text>
</a>
</g>
</g>
<!-- Node9&#45;&gt;Node16 -->
<g id="edge29" class="edge"><title>Node9&#45;&gt;Node16</title>
<path fill="none" stroke="midnightblue" d="M543.697,-384.839C493.233,-378.694 409.584,-365.536 388,-344 368.047,-324.092 367.424,-287.553 368.293,-271.023"/>
<polygon fill="midnightblue" stroke="midnightblue" points="543.586,-388.35 553.927,-386.044 544.406,-381.398 543.586,-388.35"/>
</g>
<!-- Node25 -->
<g id="node25" class="node"><title>Node25</title>
<g id="a_node25"><a xlink:href="test__bkz_8cpp.html" target="_top" xlink:title="tests/test_bkz.cpp">
<polygon fill="white" stroke="black" points="479,-319 479,-338 577,-338 577,-319 479,-319"/>
<text text-anchor="middle" x="528" y="-326" font-family="Helvetica,sans-Serif" font-size="10.00">tests/test_bkz.cpp</text>
</a>
</g>
</g>
<!-- Node9&#45;&gt;Node25 -->
<g id="edge30" class="edge"><title>Node9&#45;&gt;Node25</title>
<path fill="none" stroke="midnightblue" d="M568.208,-372.997C557.798,-361.736 544.273,-347.104 535.866,-338.009"/>
<polygon fill="midnightblue" stroke="midnightblue" points="565.762,-375.508 575.12,-380.475 570.902,-370.756 565.762,-375.508"/>
</g>
<!-- Node26 -->
<g id="node26" class="node"><title>Node26</title>
<g id="a_node26"><a xlink:href="test__lll_8cpp.html" target="_top" xlink:title="tests/test_lll.cpp">
<polygon fill="white" stroke="black" points="594.5,-319 594.5,-338 683.5,-338 683.5,-319 594.5,-319"/>
<text text-anchor="middle" x="639" y="-326" font-family="Helvetica,sans-Serif" font-size="10.00">tests/test_lll.cpp</text>
</a>
</g>
</g>
<!-- Node9&#45;&gt;Node26 -->
<g id="edge31" class="edge"><title>Node9&#45;&gt;Node26</title>
<path fill="none" stroke="midnightblue" d="M598.061,-372.997C608.661,-361.736 622.431,-347.104 630.991,-338.009"/>
<polygon fill="midnightblue" stroke="midnightblue" points="595.328,-370.794 591.023,-380.475 600.426,-375.592 595.328,-370.794"/>
</g>
<!-- Node27 -->
<g id="node27" class="node"><title>Node27</title>
<g id="a_node27"><a xlink:href="test__nr_8cpp.html" target="_top" xlink:title="tests/test_nr.cpp">
<polygon fill="white" stroke="black" points="702,-319 702,-338 792,-338 792,-319 702,-319"/>
<text text-anchor="middle" x="747" y="-326" font-family="Helvetica,sans-Serif" font-size="10.00">tests/test_nr.cpp</text>
</a>
</g>
</g>
<!-- Node9&#45;&gt;Node27 -->
<g id="edge32" class="edge"><title>Node9&#45;&gt;Node27</title>
<path fill="none" stroke="midnightblue" d="M616.261,-376.933C648.136,-365.368 695.434,-348.208 723.546,-338.009"/>
<polygon fill="midnightblue" stroke="midnightblue" points="614.704,-373.774 606.497,-380.475 617.091,-380.355 614.704,-373.774"/>
</g>
<!-- Node28 -->
<g id="node28" class="node"><title>Node28</title>
<g id="a_node28"><a xlink:href="test__pruner_8cpp.html" target="_top" xlink:title="tests/test_pruner.cpp">
<polygon fill="white" stroke="black" points="810.5,-319 810.5,-338 919.5,-338 919.5,-319 810.5,-319"/>
<text text-anchor="middle" x="865" y="-326" font-family="Helvetica,sans-Serif" font-size="10.00">tests/test_pruner.cpp</text>
</a>
</g>
</g>
<!-- Node9&#45;&gt;Node28 -->
<g id="edge33" class="edge"><title>Node9&#45;&gt;Node28</title>
<path fill="none" stroke="midnightblue" d="M622.165,-380.797C623.459,-380.528 624.74,-380.262 626,-380 703.75,-363.866 723.385,-360.774 801,-344 809.686,-342.123 819.02,-340.044 827.801,-338.059"/>
<polygon fill="midnightblue" stroke="midnightblue" points="621.217,-377.419 612.141,-382.886 622.645,-384.272 621.217,-377.419"/>
</g>
<!-- Node29 -->
<g id="node29" class="node"><title>Node29</title>
<g id="a_node29"><a xlink:href="test__svp_8cpp.html" target="_top" xlink:title="tests/test_svp.cpp">
<polygon fill="white" stroke="black" points="938,-319 938,-338 1036,-338 1036,-319 938,-319"/>
<text text-anchor="middle" x="987" y="-326" font-family="Helvetica,sans-Serif" font-size="10.00">tests/test_svp.cpp</text>
</a>
</g>
</g>
<!-- Node9&#45;&gt;Node29 -->
<g id="edge34" class="edge"><title>Node9&#45;&gt;Node29</title>
<path fill="none" stroke="midnightblue" d="M622.14,-380.657C623.44,-380.428 624.73,-380.208 626,-380 759.392,-358.133 795.007,-368.175 928,-344 936.925,-342.378 946.512,-340.209 955.309,-338.044"/>
<polygon fill="midnightblue" stroke="midnightblue" points="621.258,-377.262 612.08,-382.553 622.555,-384.14 621.258,-377.262"/>
</g>
<!-- Node12 -->
<g id="node12" class="node"><title>Node12</title>
<g id="a_node12"><a xlink:href="main_8cpp.html" target="_top" xlink:title="fplll/main.cpp">
<polygon fill="white" stroke="black" points="455,-252 455,-271 529,-271 529,-252 455,-252"/>
<text text-anchor="middle" x="492" y="-259" font-family="Helvetica,sans-Serif" font-size="10.00">fplll/main.cpp</text>
</a>
</g>
</g>
<!-- Node11&#45;&gt;Node12 -->
<g id="edge11" class="edge"><title>Node11&#45;&gt;Node12</title>
<path fill="none" stroke="midnightblue" d="M444.511,-311.497C456.866,-298.75 473.687,-281.395 483.638,-271.127"/>
<polygon fill="midnightblue" stroke="midnightblue" points="441.943,-309.117 437.496,-318.734 446.969,-313.989 441.943,-309.117"/>
</g>
<!-- Node14 -->
<g id="node14" class="node"><title>Node14</title>
<g id="a_node14"><a xlink:href="sampler__basic_8cpp.html" target="_top" xlink:title="fplll/sieve/sampler\l_basic.cpp">
<polygon fill="white" stroke="black" points="188.5,-246.5 188.5,-276.5 283.5,-276.5 283.5,-246.5 188.5,-246.5"/>
<text text-anchor="start" x="196.5" y="-264.5" font-family="Helvetica,sans-Serif" font-size="10.00">fplll/sieve/sampler</text>
<text text-anchor="middle" x="236" y="-253.5" font-family="Helvetica,sans-Serif" font-size="10.00">_basic.cpp</text>
</a>
</g>
</g>
<!-- Node13&#45;&gt;Node14 -->
<g id="edge13" class="edge"><title>Node13&#45;&gt;Node14</title>
<path fill="none" stroke="midnightblue" d="M273.915,-305.736C265.481,-296.119 255.809,-285.089 248.344,-276.577"/>
<polygon fill="midnightblue" stroke="midnightblue" points="271.407,-308.185 280.632,-313.396 276.67,-303.57 271.407,-308.185"/>
</g>
<!-- Node15 -->
<g id="node15" class="node"><title>Node15</title>
<g id="a_node15"><a xlink:href="sampler__main_8cpp.html" target="_top" xlink:title="fplll/sieve/sampler\l_main.cpp">
<polygon fill="white" stroke="black" points="75.5,-246.5 75.5,-276.5 170.5,-276.5 170.5,-246.5 75.5,-246.5"/>
<text text-anchor="start" x="83.5" y="-264.5" font-family="Helvetica,sans-Serif" font-size="10.00">fplll/sieve/sampler</text>
<text text-anchor="middle" x="123" y="-253.5" font-family="Helvetica,sans-Serif" font-size="10.00">_main.cpp</text>
</a>
</g>
</g>
<!-- Node13&#45;&gt;Node15 -->
<g id="edge14" class="edge"><title>Node13&#45;&gt;Node15</title>
<path fill="none" stroke="midnightblue" d="M246.756,-309.819C219.431,-299.371 185.307,-286.323 159.815,-276.577"/>
<polygon fill="midnightblue" stroke="midnightblue" points="245.522,-313.094 256.113,-313.396 248.022,-306.555 245.522,-313.094"/>
</g>
<!-- Node13&#45;&gt;Node16 -->
<g id="edge15" class="edge"><title>Node13&#45;&gt;Node16</title>
<path fill="none" stroke="midnightblue" d="M317.353,-306.672C331.385,-294.671 348.281,-280.22 358.834,-271.195"/>
<polygon fill="midnightblue" stroke="midnightblue" points="314.816,-304.236 309.491,-313.396 319.365,-309.556 314.816,-304.236"/>
</g>
<!-- Node17 -->
<g id="node17" class="node"><title>Node17</title>
<g id="a_node17"><a xlink:href="sieve__gauss__str_8h.html" target="_top" xlink:title="fplll/sieve/sieve_gauss\l_str.h">
<polygon fill="white" stroke="black" points="311,-179.5 311,-209.5 427,-209.5 427,-179.5 311,-179.5"/>
<text text-anchor="start" x="319" y="-197.5" font-family="Helvetica,sans-Serif" font-size="10.00">fplll/sieve/sieve_gauss</text>
<text text-anchor="middle" x="369" y="-186.5" font-family="Helvetica,sans-Serif" font-size="10.00">_str.h</text>
</a>
</g>
</g>
<!-- Node16&#45;&gt;Node17 -->
<g id="edge16" class="edge"><title>Node16&#45;&gt;Node17</title>
<path fill="none" stroke="midnightblue" d="M362.817,-241.739C361.919,-231.487 362.088,-219.001 363.324,-209.589"/>
<polygon fill="midnightblue" stroke="midnightblue" points="359.364,-242.313 364.211,-251.734 366.297,-241.346 359.364,-242.313"/>
</g>
<!-- Node18 -->
<g id="node18" class="node"><title>Node18</title>
<g id="a_node18"><a xlink:href="sieve__gauss_8h.html" target="_top" xlink:title="fplll/sieve/sieve_gauss.h">
<polygon fill="white" stroke="black" points="264,-123.5 264,-142.5 388,-142.5 388,-123.5 264,-123.5"/>
<text text-anchor="middle" x="326" y="-130.5" font-family="Helvetica,sans-Serif" font-size="10.00">fplll/sieve/sieve_gauss.h</text>
</a>
</g>
</g>
<!-- Node16&#45;&gt;Node18 -->
<g id="edge28" class="edge"><title>Node16&#45;&gt;Node18</title>
<path fill="none" stroke="midnightblue" d="M340.311,-246.933C325.995,-238.492 310.05,-226.147 302,-210 290.518,-186.967 308.39,-157.284 319.023,-142.773"/>
<polygon fill="midnightblue" stroke="midnightblue" points="338.935,-250.17 349.385,-251.917 342.305,-244.034 338.935,-250.17"/>
</g>
<!-- Node17&#45;&gt;Node16 -->
<g id="edge17" class="edge"><title>Node17&#45;&gt;Node16</title>
<path fill="none" stroke="midnightblue" d="M375.551,-219.714C376.1,-230.923 375.513,-243.541 373.789,-251.734"/>
<polygon fill="midnightblue" stroke="midnightblue" points="379.024,-219.251 374.676,-209.589 372.05,-219.853 379.024,-219.251"/>
</g>
<!-- Node17&#45;&gt;Node18 -->
<g id="edge18" class="edge"><title>Node17&#45;&gt;Node18</title>
<path fill="none" stroke="midnightblue" d="M352.815,-171.104C345.648,-161.187 337.64,-150.106 332.257,-142.658"/>
<polygon fill="midnightblue" stroke="midnightblue" points="350.115,-173.344 358.81,-179.399 355.789,-169.244 350.115,-173.344"/>
</g>
<!-- Node19 -->
<g id="node19" class="node"><title>Node19</title>
<g id="a_node19"><a xlink:href="sieve__gauss_8cpp.html" target="_top" xlink:title="fplll/sieve/sieve_gauss.cpp">
<polygon fill="white" stroke="black" points="192,-0.5 192,-19.5 326,-19.5 326,-0.5 192,-0.5"/>
<text text-anchor="middle" x="259" y="-7.5" font-family="Helvetica,sans-Serif" font-size="10.00">fplll/sieve/sieve_gauss.cpp</text>
</a>
</g>
</g>
<!-- Node18&#45;&gt;Node19 -->
<g id="edge19" class="edge"><title>Node18&#45;&gt;Node19</title>
<path fill="none" stroke="midnightblue" d="M357.842,-118.942C371.239,-111.665 385.45,-101.166 393,-87 399.48,-74.8413 401.044,-67.1861 393,-56 377.527,-34.4816 351.26,-23.1103 326.061,-17.1543"/>
<polygon fill="midnightblue" stroke="midnightblue" points="356.166,-115.867 348.788,-123.471 359.298,-122.128 356.166,-115.867"/>
</g>
<!-- Node20 -->
<g id="node20" class="node"><title>Node20</title>
<g id="a_node20"><a xlink:href="sieve__gauss__2sieve_8cpp.html" target="_top" xlink:title="fplll/sieve/sieve_gauss\l_2sieve.cpp">
<polygon fill="white" stroke="black" points="0,-56.5 0,-86.5 116,-86.5 116,-56.5 0,-56.5"/>
<text text-anchor="start" x="8" y="-74.5" font-family="Helvetica,sans-Serif" font-size="10.00">fplll/sieve/sieve_gauss</text>
<text text-anchor="middle" x="58" y="-63.5" font-family="Helvetica,sans-Serif" font-size="10.00">_2sieve.cpp</text>
</a>
</g>
</g>
<!-- Node18&#45;&gt;Node20 -->
<g id="edge20" class="edge"><title>Node18&#45;&gt;Node20</title>
<path fill="none" stroke="midnightblue" d="M277.714,-121.28C232.341,-111.206 164.374,-96.1167 116.064,-85.3911"/>
<polygon fill="midnightblue" stroke="midnightblue" points="277.081,-124.724 287.602,-123.475 278.598,-117.891 277.081,-124.724"/>
</g>
<!-- Node21 -->
<g id="node21" class="node"><title>Node21</title>
<g id="a_node21"><a xlink:href="sieve__gauss__3sieve_8cpp.html" target="_top" xlink:title="fplll/sieve/sieve_gauss\l_3sieve.cpp">
<polygon fill="white" stroke="black" points="134,-56.5 134,-86.5 250,-86.5 250,-56.5 134,-56.5"/>
<text text-anchor="start" x="142" y="-74.5" font-family="Helvetica,sans-Serif" font-size="10.00">fplll/sieve/sieve_gauss</text>
<text text-anchor="middle" x="192" y="-63.5" font-family="Helvetica,sans-Serif" font-size="10.00">_3sieve.cpp</text>
</a>
</g>
</g>
<!-- Node18&#45;&gt;Node21 -->
<g id="edge22" class="edge"><title>Node18&#45;&gt;Node21</title>
<path fill="none" stroke="midnightblue" d="M297.467,-119.331C275.787,-109.704 245.978,-96.468 223.581,-86.523"/>
<polygon fill="midnightblue" stroke="midnightblue" points="296.241,-122.616 306.801,-123.475 299.082,-116.218 296.241,-122.616"/>
</g>
<!-- Node22 -->
<g id="node22" class="node"><title>Node22</title>
<g id="a_node22"><a xlink:href="sieve__gauss__4sieve_8cpp.html" target="_top" xlink:title="fplll/sieve/sieve_gauss\l_4sieve.cpp">
<polygon fill="white" stroke="black" points="268,-56.5 268,-86.5 384,-86.5 384,-56.5 268,-56.5"/>
<text text-anchor="start" x="276" y="-74.5" font-family="Helvetica,sans-Serif" font-size="10.00">fplll/sieve/sieve_gauss</text>
<text text-anchor="middle" x="326" y="-63.5" font-family="Helvetica,sans-Serif" font-size="10.00">_4sieve.cpp</text>
</a>
</g>
</g>
<!-- Node18&#45;&gt;Node22 -->
<g id="edge24" class="edge"><title>Node18&#45;&gt;Node22</title>
<path fill="none" stroke="midnightblue" d="M326,-113.235C326,-104.586 326,-94.4969 326,-86.523"/>
<polygon fill="midnightblue" stroke="midnightblue" points="322.5,-113.475 326,-123.475 329.5,-113.475 322.5,-113.475"/>
</g>
<!-- Node23 -->
<g id="node23" class="node"><title>Node23</title>
<g id="a_node23"><a xlink:href="sieve__main_8h.html" target="_top" xlink:title="fplll/sieve/sieve_main.h">
<polygon fill="white" stroke="black" points="440.5,-62 440.5,-81 559.5,-81 559.5,-62 440.5,-62"/>
<text text-anchor="middle" x="500" y="-69" font-family="Helvetica,sans-Serif" font-size="10.00">fplll/sieve/sieve_main.h</text>
</a>
</g>
</g>
<!-- Node18&#45;&gt;Node23 -->
<g id="edge26" class="edge"><title>Node18&#45;&gt;Node23</title>
<path fill="none" stroke="midnightblue" d="M360.414,-120.232C394.237,-108.666 445.032,-91.2966 475.116,-81.0091"/>
<polygon fill="midnightblue" stroke="midnightblue" points="359.26,-116.928 350.93,-123.475 361.525,-123.551 359.26,-116.928"/>
</g>
<!-- Node20&#45;&gt;Node19 -->
<g id="edge21" class="edge"><title>Node20&#45;&gt;Node19</title>
<path fill="none" stroke="midnightblue" d="M115.198,-53.5681C152.791,-42.44 200.378,-28.3534 230.264,-19.5064"/>
<polygon fill="midnightblue" stroke="midnightblue" points="113.975,-50.2801 105.38,-56.4747 115.962,-56.9922 113.975,-50.2801"/>
</g>
<!-- Node21&#45;&gt;Node19 -->
<g id="edge23" class="edge"><title>Node21&#45;&gt;Node19</title>
<path fill="none" stroke="midnightblue" d="M215.538,-49.5972C227.116,-39.3153 240.44,-27.4824 249.251,-19.6578"/>
<polygon fill="midnightblue" stroke="midnightblue" points="213.031,-47.1421 207.878,-56.3993 217.679,-52.3761 213.031,-47.1421"/>
</g>
<!-- Node22&#45;&gt;Node19 -->
<g id="edge25" class="edge"><title>Node22&#45;&gt;Node19</title>
<path fill="none" stroke="midnightblue" d="M302.462,-49.5972C290.884,-39.3153 277.56,-27.4824 268.749,-19.6578"/>
<polygon fill="midnightblue" stroke="midnightblue" points="300.321,-52.3761 310.122,-56.3993 304.969,-47.1421 300.321,-52.3761"/>
</g>
<!-- Node24 -->
<g id="node24" class="node"><title>Node24</title>
<g id="a_node24"><a xlink:href="sieve__main_8cpp.html" target="_top" xlink:title="fplll/sieve/sieve_main.cpp">
<polygon fill="white" stroke="black" points="435.5,-0.5 435.5,-19.5 564.5,-19.5 564.5,-0.5 435.5,-0.5"/>
<text text-anchor="middle" x="500" y="-7.5" font-family="Helvetica,sans-Serif" font-size="10.00">fplll/sieve/sieve_main.cpp</text>
</a>
</g>
</g>
<!-- Node23&#45;&gt;Node24 -->
<g id="edge27" class="edge"><title>Node23&#45;&gt;Node24</title>
<path fill="none" stroke="midnightblue" d="M500,-51.8165C500,-40.9962 500,-27.898 500,-19.5091"/>
<polygon fill="midnightblue" stroke="midnightblue" points="496.5,-51.9751 500,-61.9751 503.5,-51.9751 496.5,-51.9751"/>
</g>
<!-- Node30&#45;&gt;Node7 -->
<g id="edge36" class="edge"><title>Node30&#45;&gt;Node7</title>
<path fill="none" stroke="midnightblue" d="M994.912,-487.453C976.451,-477.483 951.903,-464.228 936.027,-455.655"/>
<polygon fill="midnightblue" stroke="midnightblue" points="993.471,-490.652 1003.93,-492.324 996.797,-484.493 993.471,-490.652"/>
</g>
<!-- Node30&#45;&gt;Node8 -->
<g id="edge37" class="edge"><title>Node30&#45;&gt;Node8</title>
<path fill="none" stroke="midnightblue" d="M1009,-483.957C993.613,-460.118 966.239,-417.709 954.545,-399.591"/>
<polygon fill="midnightblue" stroke="midnightblue" points="1006.07,-485.865 1014.43,-492.368 1011.95,-482.069 1006.07,-485.865"/>
</g>
<!-- Node31 -->
<g id="node31" class="node"><title>Node31</title>
<g id="a_node31"><a xlink:href="enumerate_8cpp.html" target="_top" xlink:title="fplll/enum/enumerate.cpp">
<polygon fill="white" stroke="black" points="1006,-436.5 1006,-455.5 1132,-455.5 1132,-436.5 1006,-436.5"/>
<text text-anchor="middle" x="1069" y="-443.5" font-family="Helvetica,sans-Serif" font-size="10.00">fplll/enum/enumerate.cpp</text>
</a>
</g>
</g>
<!-- Node30&#45;&gt;Node31 -->
<g id="edge38" class="edge"><title>Node30&#45;&gt;Node31</title>
<path fill="none" stroke="midnightblue" d="M1035.03,-484.431C1043.62,-474.967 1054.04,-463.483 1061.06,-455.751"/>
<polygon fill="midnightblue" stroke="midnightblue" points="1032.22,-482.325 1028.09,-492.083 1037.4,-487.029 1032.22,-482.325"/>
</g>
<!-- Node32 -->
<g id="node32" class="node"><title>Node32</title>
<g id="a_node32"><a xlink:href="svpcvp_8cpp.html" target="_top" xlink:title="fplll/svpcvp.cpp">
<polygon fill="white" stroke="black" points="1150.5,-436.5 1150.5,-455.5 1235.5,-455.5 1235.5,-436.5 1150.5,-436.5"/>
<text text-anchor="middle" x="1193" y="-443.5" font-family="Helvetica,sans-Serif" font-size="10.00">fplll/svpcvp.cpp</text>
</a>
</g>
</g>
<!-- Node30&#45;&gt;Node32 -->
<g id="edge39" class="edge"><title>Node30&#45;&gt;Node32</title>
<path fill="none" stroke="midnightblue" d="M1057.05,-489.436C1089.66,-479.255 1136.41,-464.664 1165.72,-455.516"/>
<polygon fill="midnightblue" stroke="midnightblue" points="1055.92,-486.123 1047.41,-492.444 1058,-492.805 1055.92,-486.123"/>
</g>
<!-- Node32&#45;&gt;Node10 -->
<g id="edge40" class="edge"><title>Node32&#45;&gt;Node10</title>
<path fill="none" stroke="midnightblue" d="M1178.29,-428.824C1155.79,-404.064 1113.55,-357.607 1095.98,-338.282"/>
<polygon fill="midnightblue" stroke="midnightblue" points="1175.79,-431.274 1185.11,-436.319 1180.97,-426.565 1175.79,-431.274"/>
</g>
<!-- Node34&#45;&gt;Node32 -->
<g id="edge44" class="edge"><title>Node34&#45;&gt;Node32</title>
<path fill="none" stroke="midnightblue" d="M1335.26,-542.624C1353.69,-529.417 1374.29,-509.325 1361,-492 1345.83,-472.238 1280.43,-459.256 1235.84,-452.524"/>
<polygon fill="midnightblue" stroke="midnightblue" points="1333.13,-539.838 1326.81,-548.343 1337.06,-545.635 1333.13,-539.838"/>
</g>
<!-- Node35 -->
<g id="node35" class="node"><title>Node35</title>
<g id="a_node35"><a xlink:href="topenum_8cpp.html" target="_top" xlink:title="fplll/enum/topenum.cpp">
<polygon fill="white" stroke="black" points="1234,-492.5 1234,-511.5 1352,-511.5 1352,-492.5 1234,-492.5"/>
<text text-anchor="middle" x="1293" y="-499.5" font-family="Helvetica,sans-Serif" font-size="10.00">fplll/enum/topenum.cpp</text>
</a>
</g>
</g>
<!-- Node34&#45;&gt;Node35 -->
<g id="edge43" class="edge"><title>Node34&#45;&gt;Node35</title>
<path fill="none" stroke="midnightblue" d="M1305.45,-538.396C1302.28,-529.362 1298.61,-518.936 1296.08,-511.751"/>
<polygon fill="midnightblue" stroke="midnightblue" points="1302.24,-539.812 1308.86,-548.083 1308.85,-537.488 1302.24,-539.812"/>
</g>
<!-- Node36&#45;&gt;Node9 -->
<g id="edge47" class="edge"><title>Node36&#45;&gt;Node9</title>
<path fill="none" stroke="midnightblue" d="M866.498,-482.166C863.503,-467.337 856.998,-447.339 843,-436 807.848,-407.526 672.186,-396.203 612.019,-392.515"/>
<polygon fill="midnightblue" stroke="midnightblue" points="863.085,-482.976 868.171,-492.27 869.991,-481.832 863.085,-482.976"/>
</g>
<!-- Node36&#45;&gt;Node32 -->
<g id="edge48" class="edge"><title>Node36&#45;&gt;Node32</title>
<path fill="none" stroke="midnightblue" d="M916.431,-493.262C970.722,-484.38 1062.3,-469.32 1141,-456 1144.07,-455.48 1147.24,-454.94 1150.44,-454.393"/>
<polygon fill="midnightblue" stroke="midnightblue" points="915.717,-489.833 906.413,-494.901 916.846,-496.741 915.717,-489.833"/>
</g>
<!-- Node42&#45;&gt;Node4 -->
<g id="edge55" class="edge"><title>Node42&#45;&gt;Node4</title>
<path fill="none" stroke="midnightblue" d="M871.647,-631.312C861.509,-642.525 846.552,-656.962 835.497,-665.975"/>
<polygon fill="midnightblue" stroke="midnightblue" points="874.48,-633.385 878.317,-623.509 869.159,-628.837 874.48,-633.385"/>
</g>
<!-- Node43&#45;&gt;Node30 -->
<g id="edge57" class="edge"><title>Node43&#45;&gt;Node30</title>
<path fill="none" stroke="midnightblue" d="M542.791,-552.844C633.478,-543.372 855.83,-520.147 961.887,-509.07"/>
<polygon fill="midnightblue" stroke="midnightblue" points="542.235,-549.383 532.653,-553.903 542.963,-556.345 542.235,-549.383"/>
</g>
<!-- Node44 -->
<g id="node44" class="node"><title>Node44</title>
<g id="a_node44"><a xlink:href="lll_8h.html" target="_top" xlink:title="fplll/lll.h">
<polygon fill="white" stroke="black" points="726,-492.5 726,-511.5 776,-511.5 776,-492.5 726,-492.5"/>
<text text-anchor="middle" x="751" y="-499.5" font-family="Helvetica,sans-Serif" font-size="10.00">fplll/lll.h</text>
</a>
</g>
</g>
<!-- Node43&#45;&gt;Node44 -->
<g id="edge58" class="edge"><title>Node43&#45;&gt;Node44</title>
<path fill="none" stroke="midnightblue" d="M542.707,-548.354C594.249,-537.131 682.69,-517.874 725.84,-508.478"/>
<polygon fill="midnightblue" stroke="midnightblue" points="541.941,-544.939 532.915,-550.486 543.43,-551.779 541.941,-544.939"/>
</g>
<!-- Node45 -->
<g id="node45" class="node"><title>Node45</title>
<g id="a_node45"><a xlink:href="pruner_8h.html" target="_top" xlink:title="fplll/pruner.h">
<polygon fill="white" stroke="black" points="466,-492.5 466,-511.5 536,-511.5 536,-492.5 466,-492.5"/>
<text text-anchor="middle" x="501" y="-499.5" font-family="Helvetica,sans-Serif" font-size="10.00">fplll/pruner.h</text>
</a>
</g>
</g>
<!-- Node43&#45;&gt;Node45 -->
<g id="edge62" class="edge"><title>Node43&#45;&gt;Node45</title>
<path fill="none" stroke="midnightblue" d="M502.289,-537.805C501.96,-528.91 501.584,-518.78 501.324,-511.751"/>
<polygon fill="midnightblue" stroke="midnightblue" points="498.802,-538.219 502.67,-548.083 505.797,-537.96 498.802,-538.219"/>
</g>
<!-- Node46 -->
<g id="node46" class="node"><title>Node46</title>
<g id="a_node46"><a xlink:href="pruner_8cpp.html" target="_top" xlink:title="fplll/pruner.cpp">
<polygon fill="white" stroke="black" points="403,-436.5 403,-455.5 483,-455.5 483,-436.5 403,-436.5"/>
<text text-anchor="middle" x="443" y="-443.5" font-family="Helvetica,sans-Serif" font-size="10.00">fplll/pruner.cpp</text>
</a>
</g>
</g>
<!-- Node43&#45;&gt;Node46 -->
<g id="edge67" class="edge"><title>Node43&#45;&gt;Node46</title>
<path fill="none" stroke="midnightblue" d="M482.841,-541.912C473.624,-533.988 463.364,-523.533 457,-512 446.849,-493.606 444.055,-468.513 443.289,-455.543"/>
<polygon fill="midnightblue" stroke="midnightblue" points="480.902,-544.846 490.87,-548.435 485.316,-539.413 480.902,-544.846"/>
</g>
<!-- Node47 -->
<g id="node47" class="node"><title>Node47</title>
<g id="a_node47"><a xlink:href="gso_8cpp.html" target="_top" xlink:title="fplll/gso.cpp">
<polygon fill="white" stroke="black" points="292.5,-380.5 292.5,-399.5 361.5,-399.5 361.5,-380.5 292.5,-380.5"/>
<text text-anchor="middle" x="327" y="-387.5" font-family="Helvetica,sans-Serif" font-size="10.00">fplll/gso.cpp</text>
</a>
</g>
</g>
<!-- Node43&#45;&gt;Node47 -->
<g id="edge65" class="edge"><title>Node43&#45;&gt;Node47</title>
<path fill="none" stroke="midnightblue" d="M483.048,-542.228C471.876,-533.717 457.851,-522.627 446,-512 401.69,-472.265 353.215,-419.9 334.736,-399.576"/>
<polygon fill="midnightblue" stroke="midnightblue" points="481.207,-545.223 491.301,-548.443 485.418,-539.632 481.207,-545.223"/>
</g>
<!-- Node44&#45;&gt;Node7 -->
<g id="edge59" class="edge"><title>Node44&#45;&gt;Node7</title>
<path fill="none" stroke="midnightblue" d="M786.087,-489.789C817.912,-479.62 864.152,-464.845 893.127,-455.587"/>
<polygon fill="midnightblue" stroke="midnightblue" points="784.761,-486.538 776.301,-492.916 786.892,-493.206 784.761,-486.538"/>
</g>
<!-- Node44&#45;&gt;Node38 -->
<g id="edge60" class="edge"><title>Node44&#45;&gt;Node38</title>
<path fill="none" stroke="midnightblue" d="M766.981,-484.718C776.322,-475.2 787.746,-463.561 795.411,-455.751"/>
<polygon fill="midnightblue" stroke="midnightblue" points="764.259,-482.494 759.752,-492.083 769.254,-487.398 764.259,-482.494"/>
</g>
<!-- Node44&#45;&gt;Node41 -->
<g id="edge61" class="edge"><title>Node44&#45;&gt;Node41</title>
<path fill="none" stroke="midnightblue" d="M738.618,-483.855C731.865,-474.505 723.791,-463.327 718.32,-455.751"/>
<polygon fill="midnightblue" stroke="midnightblue" points="735.868,-486.025 744.56,-492.083 741.542,-481.927 735.868,-486.025"/>
</g>
<!-- Node45&#45;&gt;Node9 -->
<g id="edge63" class="edge"><title>Node45&#45;&gt;Node9</title>
<path fill="none" stroke="midnightblue" d="M513.47,-484.272C531.195,-460.494 563.03,-417.789 576.595,-399.591"/>
<polygon fill="midnightblue" stroke="midnightblue" points="510.605,-482.259 507.434,-492.368 516.217,-486.443 510.605,-482.259"/>
</g>
<!-- Node45&#45;&gt;Node46 -->
<g id="edge64" class="edge"><title>Node45&#45;&gt;Node46</title>
<path fill="none" stroke="midnightblue" d="M484.087,-485.253C473.797,-475.673 461.034,-463.791 452.488,-455.834"/>
<polygon fill="midnightblue" stroke="midnightblue" points="481.977,-488.071 491.681,-492.324 486.747,-482.948 481.977,-488.071"/>
</g>
<!-- Node47&#45;&gt;Node13 -->
<g id="edge66" class="edge"><title>Node47&#45;&gt;Node13</title>
<path fill="none" stroke="midnightblue" d="M317.102,-371.678C311.987,-362.727 305.826,-351.945 301.013,-343.523"/>
<polygon fill="midnightblue" stroke="midnightblue" points="314.128,-373.529 322.129,-380.475 320.206,-370.056 314.128,-373.529"/>
</g>
<!-- Node48&#45;&gt;Node9 -->
<g id="edge69" class="edge"><title>Node48&#45;&gt;Node9</title>
<path fill="none" stroke="midnightblue" d="M623.145,-482.998C612.671,-458.997 594.55,-417.468 586.749,-399.591"/>
<polygon fill="midnightblue" stroke="midnightblue" points="620.026,-484.603 627.234,-492.368 626.442,-481.803 620.026,-484.603"/>
</g>
<!-- Node48&#45;&gt;Node10 -->
<g id="edge70" class="edge"><title>Node48&#45;&gt;Node10</title>
<path fill="none" stroke="midnightblue" d="M634.297,-482.368C637.875,-467.657 645.059,-447.719 659,-436 794,-322.518 875.488,-392.672 1045,-344 1051.21,-342.217 1057.85,-340.089 1064.01,-338.019"/>
<polygon fill="midnightblue" stroke="midnightblue" points="630.825,-481.873 632.212,-492.377 637.678,-483.301 630.825,-481.873"/>
</g>
<!-- Node48&#45;&gt;Node41 -->
<g id="edge71" class="edge"><title>Node48&#45;&gt;Node41</title>
<path fill="none" stroke="midnightblue" d="M652.567,-486.622C667.364,-476.757 686.512,-463.992 699.018,-455.655"/>
<polygon fill="midnightblue" stroke="midnightblue" points="650.393,-483.865 644.014,-492.324 654.276,-489.689 650.393,-483.865"/>
</g>
<!-- Node49&#45;&gt;Node30 -->
<g id="edge73" class="edge"><title>Node49&#45;&gt;Node30</title>
<path fill="none" stroke="midnightblue" d="M1165.3,-721.676C1176.16,-713.537 1187.17,-703.15 1194,-691 1225.37,-635.214 1250.73,-598.179 1211,-548 1202.2,-536.882 1124.05,-521.191 1070.48,-511.578"/>
<polygon fill="midnightblue" stroke="midnightblue" points="1163.25,-718.834 1157.09,-727.453 1167.28,-724.557 1163.25,-718.834"/>
</g>
<!-- Node50 -->
<g id="node50" class="node"><title>Node50</title>
<g id="a_node50"><a xlink:href="enumerate__base_8cpp.html" target="_top" xlink:title="fplll/enum/enumerate\l_base.cpp">
<polygon fill="white" stroke="black" points="1078.5,-660.5 1078.5,-690.5 1185.5,-690.5 1185.5,-660.5 1078.5,-660.5"/>
<text text-anchor="start" x="1086.5" y="-678.5" font-family="Helvetica,sans-Serif" font-size="10.00">fplll/enum/enumerate</text>
<text text-anchor="middle" x="1132" y="-667.5" font-family="Helvetica,sans-Serif" font-size="10.00">_base.cpp</text>
</a>
</g>
</g>
<!-- Node49&#45;&gt;Node50 -->
<g id="edge74" class="edge"><title>Node49&#45;&gt;Node50</title>
<path fill="none" stroke="midnightblue" d="M1132,-717.108C1132,-708.154 1132,-698.323 1132,-690.577"/>
<polygon fill="midnightblue" stroke="midnightblue" points="1128.5,-717.396 1132,-727.396 1135.5,-717.396 1128.5,-717.396"/>
</g>
</g>
</svg>
