<?xml version="1.0" encoding="UTF-8" standalone="no"?>
<!DOCTYPE svg PUBLIC "-//W3C//DTD SVG 1.1//EN"
 "http://www.w3.org/Graphics/SVG/1.1/DTD/svg11.dtd">
<!-- Generated by graphviz version 2.38.0 (20140413.2041)
 -->
<!-- Title: fplll/nr/nr_FP.inl Pages: 1 -->
<svg width="2003pt" height="677pt"
 viewBox="0.00 0.00 2002.50 677.00" xmlns="http://www.w3.org/2000/svg" xmlns:xlink="http://www.w3.org/1999/xlink">
<g id="graph0" class="graph" transform="scale(1 1) rotate(0) translate(4 673)">
<title>fplll/nr/nr_FP.inl</title>
<polygon fill="white" stroke="none" points="-4,4 -4,-673 1998.5,-673 1998.5,4 -4,4"/>
<!-- Node0 -->
<g id="node1" class="node"><title>Node0</title>
<polygon fill="#bfbfbf" stroke="black" points="535,-649.5 535,-668.5 620,-668.5 620,-649.5 535,-649.5"/>
<text text-anchor="middle" x="577.5" y="-656.5" font-family="Helvetica,sans-Serif" font-size="10.00">fplll/nr/nr_FP.inl</text>
</g>
<!-- Node1 -->
<g id="node2" class="node"><title>Node1</title>
<g id="a_node2"><a xlink:href="nr_8h.html" target="_top" xlink:title="fplll/nr/nr.h">
<polygon fill="white" stroke="black" points="431.5,-537.5 431.5,-556.5 493.5,-556.5 493.5,-537.5 431.5,-537.5"/>
<text text-anchor="middle" x="462.5" y="-544.5" font-family="Helvetica,sans-Serif" font-size="10.00">fplll/nr/nr.h</text>
</a>
</g>
</g>
<!-- Node0&#45;&gt;Node1 -->
<g id="edge1" class="edge"><title>Node0&#45;&gt;Node1</title>
<path fill="none" stroke="midnightblue" d="M524.953,-651.328C479.929,-644.404 420.099,-631.91 405.5,-613 389.174,-591.853 423.108,-568.689 445.303,-556.536"/>
<polygon fill="midnightblue" stroke="midnightblue" points="524.483,-654.796 534.889,-652.803 525.511,-647.872 524.483,-654.796"/>
</g>
<!-- Node55 -->
<g id="node47" class="node"><title>Node55</title>
<g id="a_node47"><a xlink:href="nr__FP__d_8inl.html" target="_top" xlink:title="fplll/nr/nr_FP_d.inl">
<polygon fill="white" stroke="black" points="415,-593.5 415,-612.5 510,-612.5 510,-593.5 415,-593.5"/>
<text text-anchor="middle" x="462.5" y="-600.5" font-family="Helvetica,sans-Serif" font-size="10.00">fplll/nr/nr_FP_d.inl</text>
</a>
</g>
</g>
<!-- Node0&#45;&gt;Node55 -->
<g id="edge70" class="edge"><title>Node0&#45;&gt;Node55</title>
<path fill="none" stroke="midnightblue" d="M550.019,-645.096C528.534,-635.007 499.278,-621.27 480.637,-612.516"/>
<polygon fill="midnightblue" stroke="midnightblue" points="548.738,-648.361 559.278,-649.444 551.714,-642.025 548.738,-648.361"/>
</g>
<!-- Node56 -->
<g id="node48" class="node"><title>Node56</title>
<g id="a_node48"><a xlink:href="nr__FP__ld_8inl.html" target="_top" xlink:title="fplll/nr/nr_FP_ld.inl">
<polygon fill="white" stroke="black" points="528.5,-593.5 528.5,-612.5 626.5,-612.5 626.5,-593.5 528.5,-593.5"/>
<text text-anchor="middle" x="577.5" y="-600.5" font-family="Helvetica,sans-Serif" font-size="10.00">fplll/nr/nr_FP_ld.inl</text>
</a>
</g>
</g>
<!-- Node0&#45;&gt;Node56 -->
<g id="edge72" class="edge"><title>Node0&#45;&gt;Node56</title>
<path fill="none" stroke="midnightblue" d="M577.5,-638.805C577.5,-629.91 577.5,-619.78 577.5,-612.751"/>
<polygon fill="midnightblue" stroke="midnightblue" points="574,-639.083 577.5,-649.083 581,-639.083 574,-639.083"/>
</g>
<!-- Node57 -->
<g id="node49" class="node"><title>Node57</title>
<g id="a_node49"><a xlink:href="nr__FP__dd_8inl.html" target="_top" xlink:title="fplll/nr/nr_FP_dd.inl">
<polygon fill="white" stroke="black" points="645,-593.5 645,-612.5 746,-612.5 746,-593.5 645,-593.5"/>
<text text-anchor="middle" x="695.5" y="-600.5" font-family="Helvetica,sans-Serif" font-size="10.00">fplll/nr/nr_FP_dd.inl</text>
</a>
</g>
</g>
<!-- Node0&#45;&gt;Node57 -->
<g id="edge74" class="edge"><title>Node0&#45;&gt;Node57</title>
<path fill="none" stroke="midnightblue" d="M605.4,-645.232C627.473,-635.131 657.676,-621.309 676.89,-612.516"/>
<polygon fill="midnightblue" stroke="midnightblue" points="603.834,-642.1 596.197,-649.444 606.747,-648.465 603.834,-642.1"/>
</g>
<!-- Node58 -->
<g id="node50" class="node"><title>Node58</title>
<g id="a_node50"><a xlink:href="nr__FP__qd_8inl.html" target="_top" xlink:title="fplll/nr/nr_FP_qd.inl">
<polygon fill="white" stroke="black" points="764,-593.5 764,-612.5 865,-612.5 865,-593.5 764,-593.5"/>
<text text-anchor="middle" x="814.5" y="-600.5" font-family="Helvetica,sans-Serif" font-size="10.00">fplll/nr/nr_FP_qd.inl</text>
</a>
</g>
</g>
<!-- Node0&#45;&gt;Node58 -->
<g id="edge75" class="edge"><title>Node0&#45;&gt;Node58</title>
<path fill="none" stroke="midnightblue" d="M624.824,-647.217C669.608,-637.013 735.936,-621.901 777.122,-612.516"/>
<polygon fill="midnightblue" stroke="midnightblue" points="624.026,-643.809 615.053,-649.444 625.581,-650.634 624.026,-643.809"/>
</g>
<!-- Node2 -->
<g id="node3" class="node"><title>Node2</title>
<g id="a_node3"><a xlink:href="enumerate__base_8h.html" target="_top" xlink:title="fplll/enum/enumerate\l_base.h">
<polygon fill="white" stroke="black" points="120,-302.5 120,-332.5 227,-332.5 227,-302.5 120,-302.5"/>
<text text-anchor="start" x="128" y="-320.5" font-family="Helvetica,sans-Serif" font-size="10.00">fplll/enum/enumerate</text>
<text text-anchor="middle" x="173.5" y="-309.5" font-family="Helvetica,sans-Serif" font-size="10.00">_base.h</text>
</a>
</g>
</g>
<!-- Node1&#45;&gt;Node2 -->
<g id="edge2" class="edge"><title>Node1&#45;&gt;Node2</title>
<path fill="none" stroke="midnightblue" d="M443.654,-531.165C391.023,-489.734 242.962,-373.18 191.442,-332.624"/>
<polygon fill="midnightblue" stroke="midnightblue" points="441.501,-533.924 451.524,-537.36 445.831,-528.424 441.501,-533.924"/>
</g>
<!-- Node23 -->
<g id="node23" class="node"><title>Node23</title>
<g id="a_node23"><a xlink:href="numvect_8h.html" target="_top" xlink:title="fplll/nr/numvect.h">
<polygon fill="white" stroke="black" points="770.5,-481.5 770.5,-500.5 862.5,-500.5 862.5,-481.5 770.5,-481.5"/>
<text text-anchor="middle" x="816.5" y="-488.5" font-family="Helvetica,sans-Serif" font-size="10.00">fplll/nr/numvect.h</text>
</a>
</g>
</g>
<!-- Node1&#45;&gt;Node23 -->
<g id="edge25" class="edge"><title>Node1&#45;&gt;Node23</title>
<path fill="none" stroke="midnightblue" d="M503.717,-539.713C570.272,-529.56 700.957,-509.625 770.468,-499.022"/>
<polygon fill="midnightblue" stroke="midnightblue" points="502.963,-536.287 493.605,-541.255 504.018,-543.207 502.963,-536.287"/>
</g>
<!-- Node3 -->
<g id="node4" class="node"><title>Node3</title>
<g id="a_node4"><a xlink:href="enumerate_8h.html" target="_top" xlink:title="fplll/enum/enumerate.h">
<polygon fill="white" stroke="black" points="241.5,-174 241.5,-193 357.5,-193 357.5,-174 241.5,-174"/>
<text text-anchor="middle" x="299.5" y="-181" font-family="Helvetica,sans-Serif" font-size="10.00">fplll/enum/enumerate.h</text>
</a>
</g>
</g>
<!-- Node2&#45;&gt;Node3 -->
<g id="edge3" class="edge"><title>Node2&#45;&gt;Node3</title>
<path fill="none" stroke="midnightblue" d="M158.865,-293.246C149.937,-275.802 142.357,-252.087 154.5,-235 166.892,-217.563 220.741,-202.14 259.192,-193.06"/>
<polygon fill="midnightblue" stroke="midnightblue" points="155.93,-295.169 163.847,-302.21 162.049,-291.769 155.93,-295.169"/>
</g>
<!-- Node20 -->
<g id="node20" class="node"><title>Node20</title>
<g id="a_node20"><a xlink:href="enumerate__ext_8h.html" target="_top" xlink:title="fplll/enum/enumerate\l_ext.h">
<polygon fill="white" stroke="black" points="164,-235.5 164,-265.5 271,-265.5 271,-235.5 164,-235.5"/>
<text text-anchor="start" x="172" y="-253.5" font-family="Helvetica,sans-Serif" font-size="10.00">fplll/enum/enumerate</text>
<text text-anchor="middle" x="217.5" y="-242.5" font-family="Helvetica,sans-Serif" font-size="10.00">_ext.h</text>
</a>
</g>
</g>
<!-- Node2&#45;&gt;Node20 -->
<g id="edge21" class="edge"><title>Node2&#45;&gt;Node20</title>
<path fill="none" stroke="midnightblue" d="M188.821,-293.867C195.189,-284.459 202.382,-273.833 207.971,-265.577"/>
<polygon fill="midnightblue" stroke="midnightblue" points="185.755,-292.153 183.047,-302.396 191.551,-296.077 185.755,-292.153"/>
</g>
<!-- Node22 -->
<g id="node22" class="node"><title>Node22</title>
<g id="a_node22"><a xlink:href="enumerate__base_8cpp.html" target="_top" xlink:title="fplll/enum/enumerate\l_base.cpp">
<polygon fill="white" stroke="black" points="0,-235.5 0,-265.5 107,-265.5 107,-235.5 0,-235.5"/>
<text text-anchor="start" x="8" y="-253.5" font-family="Helvetica,sans-Serif" font-size="10.00">fplll/enum/enumerate</text>
<text text-anchor="middle" x="53.5" y="-242.5" font-family="Helvetica,sans-Serif" font-size="10.00">_base.cpp</text>
</a>
</g>
</g>
<!-- Node2&#45;&gt;Node22 -->
<g id="edge24" class="edge"><title>Node2&#45;&gt;Node22</title>
<path fill="none" stroke="midnightblue" d="M138.562,-297.575C119.685,-287.35 96.7739,-274.94 79.4874,-265.577"/>
<polygon fill="midnightblue" stroke="midnightblue" points="137.002,-300.711 147.462,-302.396 140.336,-294.556 137.002,-300.711"/>
</g>
<!-- Node4 -->
<g id="node5" class="node"><title>Node4</title>
<g id="a_node5"><a xlink:href="bkz_8h.html" target="_top" xlink:title="fplll/bkz.h">
<polygon fill="white" stroke="black" points="558,-112.5 558,-131.5 617,-131.5 617,-112.5 558,-112.5"/>
<text text-anchor="middle" x="587.5" y="-119.5" font-family="Helvetica,sans-Serif" font-size="10.00">fplll/bkz.h</text>
</a>
</g>
</g>
<!-- Node3&#45;&gt;Node4 -->
<g id="edge4" class="edge"><title>Node3&#45;&gt;Node4</title>
<path fill="none" stroke="midnightblue" d="M350.82,-171.897C411.037,-159.457 508.851,-139.249 557.726,-129.151"/>
<polygon fill="midnightblue" stroke="midnightblue" points="349.848,-168.524 340.763,-173.975 351.265,-175.379 349.848,-168.524"/>
</g>
<!-- Node5 -->
<g id="node6" class="node"><title>Node5</title>
<g id="a_node6"><a xlink:href="bkz_8cpp.html" target="_top" xlink:title="fplll/bkz.cpp">
<polygon fill="white" stroke="black" points="630,-56.5 630,-75.5 699,-75.5 699,-56.5 630,-56.5"/>
<text text-anchor="middle" x="664.5" y="-63.5" font-family="Helvetica,sans-Serif" font-size="10.00">fplll/bkz.cpp</text>
</a>
</g>
</g>
<!-- Node3&#45;&gt;Node5 -->
<g id="edge17" class="edge"><title>Node3&#45;&gt;Node5</title>
<path fill="none" stroke="midnightblue" d="M299.19,-163.097C300.054,-146.946 304.063,-124.622 318.5,-112 364.331,-71.9293 551.492,-67.041 629.797,-66.7901"/>
<polygon fill="midnightblue" stroke="midnightblue" points="295.683,-163.482 299.012,-173.54 302.682,-163.601 295.683,-163.482"/>
</g>
<!-- Node18 -->
<g id="node18" class="node"><title>Node18</title>
<g id="a_node18"><a xlink:href="enumerate_8cpp.html" target="_top" xlink:title="fplll/enum/enumerate.cpp">
<polygon fill="white" stroke="black" points="327.5,-112.5 327.5,-131.5 453.5,-131.5 453.5,-112.5 327.5,-112.5"/>
<text text-anchor="middle" x="390.5" y="-119.5" font-family="Helvetica,sans-Serif" font-size="10.00">fplll/enum/enumerate.cpp</text>
</a>
</g>
</g>
<!-- Node3&#45;&gt;Node18 -->
<g id="edge18" class="edge"><title>Node3&#45;&gt;Node18</title>
<path fill="none" stroke="midnightblue" d="M321.02,-168.43C338.563,-156.959 362.765,-141.134 377.486,-131.509"/>
<polygon fill="midnightblue" stroke="midnightblue" points="318.992,-165.573 312.538,-173.975 322.823,-171.432 318.992,-165.573"/>
</g>
<!-- Node19 -->
<g id="node19" class="node"><title>Node19</title>
<g id="a_node19"><a xlink:href="svpcvp_8cpp.html" target="_top" xlink:title="fplll/svpcvp.cpp">
<polygon fill="white" stroke="black" points="1598,-112.5 1598,-131.5 1683,-131.5 1683,-112.5 1598,-112.5"/>
<text text-anchor="middle" x="1640.5" y="-119.5" font-family="Helvetica,sans-Serif" font-size="10.00">fplll/svpcvp.cpp</text>
</a>
</g>
</g>
<!-- Node3&#45;&gt;Node19 -->
<g id="edge19" class="edge"><title>Node3&#45;&gt;Node19</title>
<path fill="none" stroke="midnightblue" d="M367.966,-175.967C399.211,-173.173 436.702,-170.082 470.5,-168 910.773,-140.881 1445.32,-127.404 1597.97,-123.927"/>
<polygon fill="midnightblue" stroke="midnightblue" points="367.269,-172.516 357.624,-176.901 367.898,-179.487 367.269,-172.516"/>
</g>
<!-- Node4&#45;&gt;Node5 -->
<g id="edge5" class="edge"><title>Node4&#45;&gt;Node5</title>
<path fill="none" stroke="midnightblue" d="M608.401,-106.342C622.411,-96.5169 640.383,-83.9132 652.159,-75.6545"/>
<polygon fill="midnightblue" stroke="midnightblue" points="606.049,-103.717 599.871,-112.324 610.068,-109.448 606.049,-103.717"/>
</g>
<!-- Node6 -->
<g id="node7" class="node"><title>Node6</title>
<g id="a_node7"><a xlink:href="fplll_8h.html" target="_top" xlink:title="fplll/fplll.h">
<polygon fill="white" stroke="black" points="1027.5,-56.5 1027.5,-75.5 1085.5,-75.5 1085.5,-56.5 1027.5,-56.5"/>
<text text-anchor="middle" x="1056.5" y="-63.5" font-family="Helvetica,sans-Serif" font-size="10.00">fplll/fplll.h</text>
</a>
</g>
</g>
<!-- Node4&#45;&gt;Node6 -->
<g id="edge6" class="edge"><title>Node4&#45;&gt;Node6</title>
<path fill="none" stroke="midnightblue" d="M627.241,-116.424C719.467,-105.806 946.32,-79.686 1027.24,-70.3693"/>
<polygon fill="midnightblue" stroke="midnightblue" points="626.728,-112.96 617.194,-117.581 627.529,-119.914 626.728,-112.96"/>
</g>
<!-- Node7 -->
<g id="node8" class="node"><title>Node7</title>
<g id="a_node8"><a xlink:href="fplll_8cpp.html" target="_top" xlink:title="fplll/fplll.cpp">
<polygon fill="white" stroke="black" points="1489.5,-0.5 1489.5,-19.5 1557.5,-19.5 1557.5,-0.5 1489.5,-0.5"/>
<text text-anchor="middle" x="1523.5" y="-7.5" font-family="Helvetica,sans-Serif" font-size="10.00">fplll/fplll.cpp</text>
</a>
</g>
</g>
<!-- Node6&#45;&gt;Node7 -->
<g id="edge7" class="edge"><title>Node6&#45;&gt;Node7</title>
<path fill="none" stroke="midnightblue" d="M1095.63,-56.6165C1096.94,-56.3991 1098.23,-56.1927 1099.5,-56 1267.67,-30.5377 1312.33,-45.4623 1480.5,-20 1483.37,-19.5661 1486.33,-19.0628 1489.3,-18.5201"/>
<polygon fill="midnightblue" stroke="midnightblue" points="1094.77,-53.2158 1085.56,-58.4561 1096.03,-60.1018 1094.77,-53.2158"/>
</g>
<!-- Node8 -->
<g id="node9" class="node"><title>Node8</title>
<g id="a_node9"><a xlink:href="main_8h.html" target="_top" xlink:title="fplll/main.h">
<polygon fill="white" stroke="red" points="1407.5,-0.5 1407.5,-19.5 1471.5,-19.5 1471.5,-0.5 1407.5,-0.5"/>
<text text-anchor="middle" x="1439.5" y="-7.5" font-family="Helvetica,sans-Serif" font-size="10.00">fplll/main.h</text>
</a>
</g>
</g>
<!-- Node6&#45;&gt;Node8 -->
<g id="edge8" class="edge"><title>Node6&#45;&gt;Node8</title>
<path fill="none" stroke="midnightblue" d="M1095.64,-56.6591C1096.94,-56.4295 1098.23,-56.209 1099.5,-56 1231.57,-34.2694 1266.53,-42.375 1398.5,-20 1401.37,-19.5127 1404.35,-18.958 1407.33,-18.3688"/>
<polygon fill="midnightblue" stroke="midnightblue" points="1094.76,-53.2638 1085.58,-58.5579 1096.06,-60.1423 1094.76,-53.2638"/>
</g>
<!-- Node10 -->
<g id="node10" class="node"><title>Node10</title>
<g id="a_node10"><a xlink:href="sieve__main_8cpp.html" target="_top" xlink:title="fplll/sieve/sieve_main.cpp">
<polygon fill="white" stroke="black" points="445,-0.5 445,-19.5 574,-19.5 574,-0.5 445,-0.5"/>
<text text-anchor="middle" x="509.5" y="-7.5" font-family="Helvetica,sans-Serif" font-size="10.00">fplll/sieve/sieve_main.cpp</text>
</a>
</g>
</g>
<!-- Node6&#45;&gt;Node10 -->
<g id="edge9" class="edge"><title>Node6&#45;&gt;Node10</title>
<path fill="none" stroke="midnightblue" d="M1017.16,-61.6081C936.016,-54.5343 744.198,-37.4134 583.5,-20 580.412,-19.6654 577.253,-19.3144 574.062,-18.9531"/>
<polygon fill="midnightblue" stroke="midnightblue" points="1017.14,-65.1196 1027.41,-62.4992 1017.75,-58.146 1017.14,-65.1196"/>
</g>
<!-- Node11 -->
<g id="node11" class="node"><title>Node11</title>
<g id="a_node11"><a xlink:href="test__bkz_8cpp.html" target="_top" xlink:title="tests/test_bkz.cpp">
<polygon fill="white" stroke="black" points="592.5,-0.5 592.5,-19.5 690.5,-19.5 690.5,-0.5 592.5,-0.5"/>
<text text-anchor="middle" x="641.5" y="-7.5" font-family="Helvetica,sans-Serif" font-size="10.00">tests/test_bkz.cpp</text>
</a>
</g>
</g>
<!-- Node6&#45;&gt;Node11 -->
<g id="edge10" class="edge"><title>Node6&#45;&gt;Node11</title>
<path fill="none" stroke="midnightblue" d="M1016.98,-60.3918C951.084,-52.6256 814.647,-36.1876 699.5,-20 696.574,-19.5886 693.566,-19.1549 690.533,-18.7093"/>
<polygon fill="midnightblue" stroke="midnightblue" points="1016.97,-63.915 1027.31,-61.6067 1017.79,-56.9629 1016.97,-63.915"/>
</g>
<!-- Node12 -->
<g id="node12" class="node"><title>Node12</title>
<g id="a_node12"><a xlink:href="test__cvp_8cpp.html" target="_top" xlink:title="tests/test_cvp.cpp">
<polygon fill="white" stroke="black" points="708.5,-0.5 708.5,-19.5 806.5,-19.5 806.5,-0.5 708.5,-0.5"/>
<text text-anchor="middle" x="757.5" y="-7.5" font-family="Helvetica,sans-Serif" font-size="10.00">tests/test_cvp.cpp</text>
</a>
</g>
</g>
<!-- Node6&#45;&gt;Node12 -->
<g id="edge11" class="edge"><title>Node6&#45;&gt;Node12</title>
<path fill="none" stroke="midnightblue" d="M1017.28,-57.9165C962.535,-48.0298 863.352,-30.117 804.653,-19.5158"/>
<polygon fill="midnightblue" stroke="midnightblue" points="1016.82,-61.3909 1027.29,-59.7239 1018.07,-54.5023 1016.82,-61.3909"/>
</g>
<!-- Node13 -->
<g id="node13" class="node"><title>Node13</title>
<g id="a_node13"><a xlink:href="test__lll_8cpp.html" target="_top" xlink:title="tests/test_lll.cpp">
<polygon fill="white" stroke="black" points="825,-0.5 825,-19.5 914,-19.5 914,-0.5 825,-0.5"/>
<text text-anchor="middle" x="869.5" y="-7.5" font-family="Helvetica,sans-Serif" font-size="10.00">tests/test_lll.cpp</text>
</a>
</g>
</g>
<!-- Node6&#45;&gt;Node13 -->
<g id="edge12" class="edge"><title>Node6&#45;&gt;Node13</title>
<path fill="none" stroke="midnightblue" d="M1017.34,-53.6917C982.098,-43.515 931.083,-28.7834 899.131,-19.5565"/>
<polygon fill="midnightblue" stroke="midnightblue" points="1016.7,-57.1507 1027.28,-56.5625 1018.64,-50.4255 1016.7,-57.1507"/>
</g>
<!-- Node14 -->
<g id="node14" class="node"><title>Node14</title>
<g id="a_node14"><a xlink:href="test__nr_8cpp.html" target="_top" xlink:title="tests/test_nr.cpp">
<polygon fill="white" stroke="black" points="932.5,-0.5 932.5,-19.5 1022.5,-19.5 1022.5,-0.5 932.5,-0.5"/>
<text text-anchor="middle" x="977.5" y="-7.5" font-family="Helvetica,sans-Serif" font-size="10.00">tests/test_nr.cpp</text>
</a>
</g>
</g>
<!-- Node6&#45;&gt;Node14 -->
<g id="edge13" class="edge"><title>Node6&#45;&gt;Node14</title>
<path fill="none" stroke="midnightblue" d="M1035.47,-50.6221C1021.03,-40.7574 1002.36,-27.9919 990.161,-19.6545"/>
<polygon fill="midnightblue" stroke="midnightblue" points="1033.58,-53.5703 1043.81,-56.324 1037.53,-47.7914 1033.58,-53.5703"/>
</g>
<!-- Node15 -->
<g id="node15" class="node"><title>Node15</title>
<g id="a_node15"><a xlink:href="test__pruner_8cpp.html" target="_top" xlink:title="tests/test_pruner.cpp">
<polygon fill="white" stroke="black" points="1041,-0.5 1041,-19.5 1150,-19.5 1150,-0.5 1041,-0.5"/>
<text text-anchor="middle" x="1095.5" y="-7.5" font-family="Helvetica,sans-Serif" font-size="10.00">tests/test_pruner.cpp</text>
</a>
</g>
</g>
<!-- Node6&#45;&gt;Node15 -->
<g id="edge14" class="edge"><title>Node6&#45;&gt;Node15</title>
<path fill="none" stroke="midnightblue" d="M1068.88,-47.8554C1075.64,-38.5048 1083.71,-27.3265 1089.18,-19.7511"/>
<polygon fill="midnightblue" stroke="midnightblue" points="1065.96,-45.927 1062.94,-56.083 1071.63,-50.0254 1065.96,-45.927"/>
</g>
<!-- Node16 -->
<g id="node16" class="node"><title>Node16</title>
<g id="a_node16"><a xlink:href="test__sieve_8cpp.html" target="_top" xlink:title="tests/test_sieve.cpp">
<polygon fill="white" stroke="black" points="1168,-0.5 1168,-19.5 1273,-19.5 1273,-0.5 1168,-0.5"/>
<text text-anchor="middle" x="1220.5" y="-7.5" font-family="Helvetica,sans-Serif" font-size="10.00">tests/test_sieve.cpp</text>
</a>
</g>
</g>
<!-- Node6&#45;&gt;Node16 -->
<g id="edge15" class="edge"><title>Node6&#45;&gt;Node16</title>
<path fill="none" stroke="midnightblue" d="M1092.02,-53.3044C1122.92,-43.1294 1166.97,-28.6246 1194.64,-19.5164"/>
<polygon fill="midnightblue" stroke="midnightblue" points="1090.89,-49.9915 1082.49,-56.4435 1093.08,-56.6404 1090.89,-49.9915"/>
</g>
<!-- Node17 -->
<g id="node17" class="node"><title>Node17</title>
<g id="a_node17"><a xlink:href="test__svp_8cpp.html" target="_top" xlink:title="tests/test_svp.cpp">
<polygon fill="white" stroke="black" points="1291.5,-0.5 1291.5,-19.5 1389.5,-19.5 1389.5,-0.5 1291.5,-0.5"/>
<text text-anchor="middle" x="1340.5" y="-7.5" font-family="Helvetica,sans-Serif" font-size="10.00">tests/test_svp.cpp</text>
</a>
</g>
</g>
<!-- Node6&#45;&gt;Node17 -->
<g id="edge16" class="edge"><title>Node6&#45;&gt;Node17</title>
<path fill="none" stroke="midnightblue" d="M1095.66,-56.7665C1096.95,-56.5061 1098.24,-56.25 1099.5,-56 1166.51,-42.7321 1244.23,-28.4128 1292.88,-19.5756"/>
<polygon fill="midnightblue" stroke="midnightblue" points="1094.72,-53.385 1085.63,-58.8144 1096.12,-60.2436 1094.72,-53.385"/>
</g>
<!-- Node19&#45;&gt;Node7 -->
<g id="edge20" class="edge"><title>Node19&#45;&gt;Node7</title>
<path fill="none" stroke="midnightblue" d="M1624.03,-105.512C1599.03,-82.0068 1552.33,-38.1096 1532.64,-19.5914"/>
<polygon fill="midnightblue" stroke="midnightblue" points="1621.64,-108.069 1631.32,-112.368 1626.43,-102.969 1621.64,-108.069"/>
</g>
<!-- Node20&#45;&gt;Node3 -->
<g id="edge22" class="edge"><title>Node20&#45;&gt;Node3</title>
<path fill="none" stroke="midnightblue" d="M243.351,-229.008C258.574,-216.941 277.039,-202.305 288.532,-193.195"/>
<polygon fill="midnightblue" stroke="midnightblue" points="240.955,-226.441 235.293,-235.396 245.304,-231.927 240.955,-226.441"/>
</g>
<!-- Node21 -->
<g id="node21" class="node"><title>Node21</title>
<g id="a_node21"><a xlink:href="enumerate__ext_8cpp.html" target="_top" xlink:title="fplll/enum/enumerate\l_ext.cpp">
<polygon fill="white" stroke="black" points="116,-168.5 116,-198.5 223,-198.5 223,-168.5 116,-168.5"/>
<text text-anchor="start" x="124" y="-186.5" font-family="Helvetica,sans-Serif" font-size="10.00">fplll/enum/enumerate</text>
<text text-anchor="middle" x="169.5" y="-175.5" font-family="Helvetica,sans-Serif" font-size="10.00">_ext.cpp</text>
</a>
</g>
</g>
<!-- Node20&#45;&gt;Node21 -->
<g id="edge23" class="edge"><title>Node20&#45;&gt;Node21</title>
<path fill="none" stroke="midnightblue" d="M201.001,-227.157C194.001,-217.679 186.055,-206.919 179.895,-198.577"/>
<polygon fill="midnightblue" stroke="midnightblue" points="198.329,-229.431 207.085,-235.396 203.96,-225.272 198.329,-229.431"/>
</g>
<!-- Node24 -->
<g id="node24" class="node"><title>Node24</title>
<g id="a_node24"><a xlink:href="matrix_8h.html" target="_top" xlink:title="fplll/nr/matrix.h">
<polygon fill="white" stroke="black" points="795,-425.5 795,-444.5 876,-444.5 876,-425.5 795,-425.5"/>
<text text-anchor="middle" x="835.5" y="-432.5" font-family="Helvetica,sans-Serif" font-size="10.00">fplll/nr/matrix.h</text>
</a>
</g>
</g>
<!-- Node23&#45;&gt;Node24 -->
<g id="edge26" class="edge"><title>Node23&#45;&gt;Node24</title>
<path fill="none" stroke="midnightblue" d="M823.046,-471.396C826.224,-462.362 829.893,-451.936 832.421,-444.751"/>
<polygon fill="midnightblue" stroke="midnightblue" points="819.655,-470.488 819.637,-481.083 826.258,-472.812 819.655,-470.488"/>
</g>
<!-- Node25 -->
<g id="node25" class="node"><title>Node25</title>
<g id="a_node25"><a xlink:href="util_8h.html" target="_top" xlink:title="fplll/util.h">
<polygon fill="white" stroke="black" points="1503.5,-369.5 1503.5,-388.5 1559.5,-388.5 1559.5,-369.5 1503.5,-369.5"/>
<text text-anchor="middle" x="1531.5" y="-376.5" font-family="Helvetica,sans-Serif" font-size="10.00">fplll/util.h</text>
</a>
</g>
</g>
<!-- Node24&#45;&gt;Node25 -->
<g id="edge27" class="edge"><title>Node24&#45;&gt;Node25</title>
<path fill="none" stroke="midnightblue" d="M886.418,-430.049C1023.66,-419.401 1397.99,-390.358 1503.49,-382.173"/>
<polygon fill="midnightblue" stroke="midnightblue" points="885.883,-426.58 876.184,-430.844 886.424,-433.559 885.883,-426.58"/>
</g>
<!-- Node36 -->
<g id="node35" class="node"><title>Node36</title>
<g id="a_node35"><a xlink:href="matrix_8cpp.html" target="_top" xlink:title="fplll/nr/matrix.cpp">
<polygon fill="white" stroke="black" points="789.5,-369.5 789.5,-388.5 881.5,-388.5 881.5,-369.5 789.5,-369.5"/>
<text text-anchor="middle" x="835.5" y="-376.5" font-family="Helvetica,sans-Serif" font-size="10.00">fplll/nr/matrix.cpp</text>
</a>
</g>
</g>
<!-- Node24&#45;&gt;Node36 -->
<g id="edge45" class="edge"><title>Node24&#45;&gt;Node36</title>
<path fill="none" stroke="midnightblue" d="M829.028,-415.101C828.396,-406.136 828.843,-395.858 830.369,-388.751"/>
<polygon fill="midnightblue" stroke="midnightblue" points="825.566,-415.622 830.334,-425.083 832.507,-414.713 825.566,-415.622"/>
</g>
<!-- Node37 -->
<g id="node36" class="node"><title>Node37</title>
<g id="a_node36"><a xlink:href="gso_8h.html" target="_top" xlink:title="fplll/gso.h">
<polygon fill="white" stroke="black" points="640,-308 640,-327 699,-327 699,-308 640,-308"/>
<text text-anchor="middle" x="669.5" y="-315" font-family="Helvetica,sans-Serif" font-size="10.00">fplll/gso.h</text>
</a>
</g>
</g>
<!-- Node24&#45;&gt;Node37 -->
<g id="edge47" class="edge"><title>Node24&#45;&gt;Node37</title>
<path fill="none" stroke="midnightblue" d="M814.527,-419.408C779.587,-395.097 710.501,-347.028 682.122,-327.282"/>
<polygon fill="midnightblue" stroke="midnightblue" points="812.815,-422.48 823.023,-425.319 816.813,-416.734 812.815,-422.48"/>
</g>
<!-- Node43 -->
<g id="node41" class="node"><title>Node43</title>
<g id="a_node41"><a xlink:href="sampler__basic_8h.html" target="_top" xlink:title="fplll/sieve/sampler\l_basic.h">
<polygon fill="white" stroke="black" points="1162,-235.5 1162,-265.5 1257,-265.5 1257,-235.5 1162,-235.5"/>
<text text-anchor="start" x="1170" y="-253.5" font-family="Helvetica,sans-Serif" font-size="10.00">fplll/sieve/sampler</text>
<text text-anchor="middle" x="1209.5" y="-242.5" font-family="Helvetica,sans-Serif" font-size="10.00">_basic.h</text>
</a>
</g>
</g>
<!-- Node24&#45;&gt;Node43 -->
<g id="edge69" class="edge"><title>Node24&#45;&gt;Node43</title>
<path fill="none" stroke="midnightblue" d="M862.256,-420.944C930.403,-387.69 1110.09,-300.009 1180.56,-265.623"/>
<polygon fill="midnightblue" stroke="midnightblue" points="860.489,-417.911 853.037,-425.442 863.559,-424.202 860.489,-417.911"/>
</g>
<!-- Node54 -->
<g id="node45" class="node"><title>Node54</title>
<g id="a_node45"><a xlink:href="wrapper_8h.html" target="_top" xlink:title="fplll/wrapper.h">
<polygon fill="white" stroke="black" points="976,-241 976,-260 1053,-260 1053,-241 976,-241"/>
<text text-anchor="middle" x="1014.5" y="-248" font-family="Helvetica,sans-Serif" font-size="10.00">fplll/wrapper.h</text>
</a>
</g>
</g>
<!-- Node24&#45;&gt;Node54 -->
<g id="edge63" class="edge"><title>Node24&#45;&gt;Node54</title>
<path fill="none" stroke="midnightblue" d="M855.281,-419.001C866.032,-410.56 879.365,-399.612 890.5,-389 938.203,-343.537 989.022,-282.714 1007.38,-260.284"/>
<polygon fill="midnightblue" stroke="midnightblue" points="853.069,-416.287 847.305,-425.178 857.355,-421.822 853.069,-416.287"/>
</g>
<!-- Node25&#45;&gt;Node5 -->
<g id="edge33" class="edge"><title>Node25&#45;&gt;Node5</title>
<path fill="none" stroke="midnightblue" d="M1493.13,-377.309C1414.81,-375.212 1231.27,-366.784 1081.5,-333 995.379,-313.574 975.683,-300.692 894.5,-266 833.271,-239.835 811.306,-242.039 760.5,-199 715.96,-161.269 680.94,-98.7885 668.959,-75.8213"/>
<polygon fill="midnightblue" stroke="midnightblue" points="1493.39,-380.816 1503.47,-377.565 1493.56,-373.818 1493.39,-380.816"/>
</g>
<!-- Node25&#45;&gt;Node6 -->
<g id="edge39" class="edge"><title>Node25&#45;&gt;Node6</title>
<path fill="none" stroke="midnightblue" d="M1531.5,-359.303C1531.5,-334.617 1531.5,-289.798 1531.5,-251.5 1531.5,-251.5 1531.5,-251.5 1531.5,-182.5 1531.5,-90.3119 1189.42,-71.411 1085.85,-67.8012"/>
<polygon fill="midnightblue" stroke="midnightblue" points="1528,-359.411 1531.5,-369.411 1535,-359.411 1528,-359.411"/>
</g>
<!-- Node26 -->
<g id="node26" class="node"><title>Node26</title>
<g id="a_node26"><a xlink:href="evaluator_8h.html" target="_top" xlink:title="fplll/enum/evaluator.h">
<polygon fill="white" stroke="black" points="282.5,-308 282.5,-327 392.5,-327 392.5,-308 282.5,-308"/>
<text text-anchor="middle" x="337.5" y="-315" font-family="Helvetica,sans-Serif" font-size="10.00">fplll/enum/evaluator.h</text>
</a>
</g>
</g>
<!-- Node25&#45;&gt;Node26 -->
<g id="edge28" class="edge"><title>Node25&#45;&gt;Node26</title>
<path fill="none" stroke="midnightblue" d="M1493.22,-376.093C1318.79,-367.4 598.794,-331.521 392.792,-321.255"/>
<polygon fill="midnightblue" stroke="midnightblue" points="1493.29,-379.6 1503.45,-376.602 1493.64,-372.609 1493.29,-379.6"/>
</g>
<!-- Node28 -->
<g id="node28" class="node"><title>Node28</title>
<g id="a_node28"><a xlink:href="topenum_8h.html" target="_top" xlink:title="fplll/enum/topenum.h">
<polygon fill="white" stroke="red" points="1598,-308 1598,-327 1705,-327 1705,-308 1598,-308"/>
<text text-anchor="middle" x="1651.5" y="-315" font-family="Helvetica,sans-Serif" font-size="10.00">fplll/enum/topenum.h</text>
</a>
</g>
</g>
<!-- Node25&#45;&gt;Node28 -->
<g id="edge34" class="edge"><title>Node25&#45;&gt;Node28</title>
<path fill="none" stroke="midnightblue" d="M1557.68,-365.021C1580.95,-353.482 1614.3,-336.943 1634.34,-327.009"/>
<polygon fill="midnightblue" stroke="midnightblue" points="1556.1,-361.897 1548.69,-369.475 1559.21,-368.169 1556.1,-361.897"/>
</g>
<!-- Node30 -->
<g id="node29" class="node"><title>Node30</title>
<g id="a_node29"><a xlink:href="svpcvp_8h.html" target="_top" xlink:title="fplll/svpcvp.h">
<polygon fill="white" stroke="black" points="1559.5,-174 1559.5,-193 1633.5,-193 1633.5,-174 1559.5,-174"/>
<text text-anchor="middle" x="1596.5" y="-181" font-family="Helvetica,sans-Serif" font-size="10.00">fplll/svpcvp.h</text>
</a>
</g>
</g>
<!-- Node25&#45;&gt;Node30 -->
<g id="edge36" class="edge"><title>Node25&#45;&gt;Node30</title>
<path fill="none" stroke="midnightblue" d="M1537.61,-359.807C1551.2,-319.346 1583.52,-223.135 1593.51,-193.407"/>
<polygon fill="midnightblue" stroke="midnightblue" points="1534.24,-358.842 1534.38,-369.436 1540.88,-361.071 1534.24,-358.842"/>
</g>
<!-- Node31 -->
<g id="node30" class="node"><title>Node31</title>
<g id="a_node30"><a xlink:href="latticegen_8cpp.html" target="_top" xlink:title="fplll/latticegen.cpp">
<polygon fill="white" stroke="black" points="1723,-308 1723,-327 1818,-327 1818,-308 1723,-308"/>
<text text-anchor="middle" x="1770.5" y="-315" font-family="Helvetica,sans-Serif" font-size="10.00">fplll/latticegen.cpp</text>
</a>
</g>
</g>
<!-- Node25&#45;&gt;Node31 -->
<g id="edge40" class="edge"><title>Node25&#45;&gt;Node31</title>
<path fill="none" stroke="midnightblue" d="M1569.61,-368.772C1606.66,-359.769 1664.48,-345.625 1714.5,-333 1722.1,-331.083 1730.26,-328.988 1737.94,-327.002"/>
<polygon fill="midnightblue" stroke="midnightblue" points="1568.63,-365.408 1559.74,-371.169 1570.29,-372.21 1568.63,-365.408"/>
</g>
<!-- Node32 -->
<g id="node31" class="node"><title>Node32</title>
<g id="a_node31"><a xlink:href="lll_8cpp.html" target="_top" xlink:title="fplll/lll.cpp">
<polygon fill="white" stroke="black" points="653.5,-174 653.5,-193 713.5,-193 713.5,-174 653.5,-174"/>
<text text-anchor="middle" x="683.5" y="-181" font-family="Helvetica,sans-Serif" font-size="10.00">fplll/lll.cpp</text>
</a>
</g>
</g>
<!-- Node25&#45;&gt;Node32 -->
<g id="edge41" class="edge"><title>Node25&#45;&gt;Node32</title>
<path fill="none" stroke="midnightblue" d="M1493.5,-371.614C1402.15,-356.015 1163.24,-313.737 966.5,-266 871.349,-242.912 760.194,-208.761 710.222,-193.017"/>
<polygon fill="midnightblue" stroke="midnightblue" points="1492.95,-375.07 1503.39,-373.298 1494.12,-368.17 1492.95,-375.07"/>
</g>
<!-- Node33 -->
<g id="node32" class="node"><title>Node33</title>
<g id="a_node32"><a xlink:href="llldiff_8cpp.html" target="_top" xlink:title="fplll/llldiff.cpp">
<polygon fill="white" stroke="black" points="1836.5,-308 1836.5,-327 1910.5,-327 1910.5,-308 1836.5,-308"/>
<text text-anchor="middle" x="1873.5" y="-315" font-family="Helvetica,sans-Serif" font-size="10.00">fplll/llldiff.cpp</text>
</a>
</g>
</g>
<!-- Node25&#45;&gt;Node33 -->
<g id="edge42" class="edge"><title>Node25&#45;&gt;Node33</title>
<path fill="none" stroke="midnightblue" d="M1569.47,-374.129C1626.14,-367.924 1735.98,-354.247 1827.5,-333 1834.51,-331.372 1842.01,-329.201 1848.87,-327.036"/>
<polygon fill="midnightblue" stroke="midnightblue" points="1569.09,-370.649 1559.52,-375.2 1569.84,-377.609 1569.09,-370.649"/>
</g>
<!-- Node34 -->
<g id="node33" class="node"><title>Node34</title>
<g id="a_node33"><a xlink:href="util_8cpp.html" target="_top" xlink:title="fplll/util.cpp">
<polygon fill="white" stroke="black" points="1928.5,-308 1928.5,-327 1994.5,-327 1994.5,-308 1928.5,-308"/>
<text text-anchor="middle" x="1961.5" y="-315" font-family="Helvetica,sans-Serif" font-size="10.00">fplll/util.cpp</text>
</a>
</g>
</g>
<!-- Node25&#45;&gt;Node34 -->
<g id="edge43" class="edge"><title>Node25&#45;&gt;Node34</title>
<path fill="none" stroke="midnightblue" d="M1569.73,-376.316C1639.85,-372.623 1793.4,-361.72 1919.5,-333 1926.12,-331.492 1933.15,-329.308 1939.53,-327.09"/>
<polygon fill="midnightblue" stroke="midnightblue" points="1569.42,-372.828 1559.61,-376.829 1569.77,-379.819 1569.42,-372.828"/>
</g>
<!-- Node35 -->
<g id="node34" class="node"><title>Node35</title>
<g id="a_node34"><a xlink:href="wrapper_8cpp.html" target="_top" xlink:title="fplll/wrapper.cpp">
<polygon fill="white" stroke="black" points="769.5,-174 769.5,-193 857.5,-193 857.5,-174 769.5,-174"/>
<text text-anchor="middle" x="813.5" y="-181" font-family="Helvetica,sans-Serif" font-size="10.00">fplll/wrapper.cpp</text>
</a>
</g>
</g>
<!-- Node25&#45;&gt;Node35 -->
<g id="edge44" class="edge"><title>Node25&#45;&gt;Node35</title>
<path fill="none" stroke="midnightblue" d="M1493.37,-374.344C1400.77,-364.639 1157.64,-334.165 966.5,-266 911.506,-246.388 851.998,-209.696 826.399,-193.075"/>
<polygon fill="midnightblue" stroke="midnightblue" points="1493.08,-377.833 1503.39,-375.375 1493.8,-370.87 1493.08,-377.833"/>
</g>
<!-- Node26&#45;&gt;Node3 -->
<g id="edge30" class="edge"><title>Node26&#45;&gt;Node3</title>
<path fill="none" stroke="midnightblue" d="M332.22,-298.159C323.892,-269.231 308.03,-214.131 301.953,-193.021"/>
<polygon fill="midnightblue" stroke="midnightblue" points="328.877,-299.198 335.007,-307.839 335.604,-297.261 328.877,-299.198"/>
</g>
<!-- Node26&#45;&gt;Node4 -->
<g id="edge31" class="edge"><title>Node26&#45;&gt;Node4</title>
<path fill="none" stroke="midnightblue" d="M337.752,-297.774C338.874,-280.033 342.94,-253.432 356.5,-235 406.152,-167.505 507.457,-138.741 557.773,-128.222"/>
<polygon fill="midnightblue" stroke="midnightblue" points="334.246,-297.855 337.369,-307.979 341.241,-298.117 334.246,-297.855"/>
</g>
<!-- Node26&#45;&gt;Node20 -->
<g id="edge29" class="edge"><title>Node26&#45;&gt;Node20</title>
<path fill="none" stroke="midnightblue" d="M312.395,-302.902C292.206,-291.966 263.937,-276.653 243.51,-265.589"/>
<polygon fill="midnightblue" stroke="midnightblue" points="310.856,-306.048 321.316,-307.734 314.19,-299.893 310.856,-306.048"/>
</g>
<!-- Node27 -->
<g id="node27" class="node"><title>Node27</title>
<g id="a_node27"><a xlink:href="evaluator_8cpp.html" target="_top" xlink:title="fplll/enum/evaluator.cpp">
<polygon fill="white" stroke="black" points="365.5,-241 365.5,-260 485.5,-260 485.5,-241 365.5,-241"/>
<text text-anchor="middle" x="425.5" y="-248" font-family="Helvetica,sans-Serif" font-size="10.00">fplll/enum/evaluator.cpp</text>
</a>
</g>
</g>
<!-- Node26&#45;&gt;Node27 -->
<g id="edge32" class="edge"><title>Node26&#45;&gt;Node27</title>
<path fill="none" stroke="midnightblue" d="M357.716,-301.568C375.086,-288.738 399.526,-270.685 413.82,-260.127"/>
<polygon fill="midnightblue" stroke="midnightblue" points="355.332,-298.977 349.368,-307.734 359.491,-304.608 355.332,-298.977"/>
</g>
<!-- Node28&#45;&gt;Node19 -->
<g id="edge35" class="edge"><title>Node28&#45;&gt;Node19</title>
<path fill="none" stroke="midnightblue" d="M1650.44,-297.786C1648.12,-257.026 1642.69,-161.508 1641.01,-131.907"/>
<polygon fill="midnightblue" stroke="midnightblue" points="1646.95,-298.151 1651.01,-307.936 1653.94,-297.753 1646.95,-298.151"/>
</g>
<!-- Node30&#45;&gt;Node6 -->
<g id="edge37" class="edge"><title>Node30&#45;&gt;Node6</title>
<path fill="none" stroke="midnightblue" d="M1588.82,-164.404C1580.68,-147.706 1566.15,-123.772 1545.5,-112 1466.34,-66.8727 1178.46,-65.7323 1085.59,-66.585"/>
<polygon fill="midnightblue" stroke="midnightblue" points="1585.72,-166.046 1593.05,-173.693 1592.09,-163.142 1585.72,-166.046"/>
</g>
<!-- Node30&#45;&gt;Node19 -->
<g id="edge38" class="edge"><title>Node30&#45;&gt;Node19</title>
<path fill="none" stroke="midnightblue" d="M1608.82,-165.838C1617.08,-154.669 1627.61,-140.428 1634.21,-131.509"/>
<polygon fill="midnightblue" stroke="midnightblue" points="1605.94,-163.854 1602.8,-173.975 1611.56,-168.016 1605.94,-163.854"/>
</g>
<!-- Node36&#45;&gt;Node24 -->
<g id="edge46" class="edge"><title>Node36&#45;&gt;Node24</title>
<path fill="none" stroke="midnightblue" d="M841.958,-398.691C842.606,-407.635 842.176,-417.927 840.666,-425.083"/>
<polygon fill="midnightblue" stroke="midnightblue" points="845.423,-398.2 840.631,-388.751 838.485,-399.126 845.423,-398.2"/>
</g>
<!-- Node37&#45;&gt;Node3 -->
<g id="edge49" class="edge"><title>Node37&#45;&gt;Node3</title>
<path fill="none" stroke="midnightblue" d="M630.022,-305.76C601.795,-297.186 563.479,-283.685 532.5,-266 513.571,-255.194 513.944,-244.849 494.5,-235 451.292,-213.114 397.76,-200.128 357.722,-192.818"/>
<polygon fill="midnightblue" stroke="midnightblue" points="629.351,-309.211 639.933,-308.694 631.338,-302.499 629.351,-309.211"/>
</g>
<!-- Node37&#45;&gt;Node20 -->
<g id="edge48" class="edge"><title>Node37&#45;&gt;Node20</title>
<path fill="none" stroke="midnightblue" d="M629.522,-310.751C548.109,-299.043 363.041,-272.429 271.223,-259.226"/>
<polygon fill="midnightblue" stroke="midnightblue" points="629.447,-314.276 639.843,-312.235 630.443,-307.347 629.447,-314.276"/>
</g>
<!-- Node38 -->
<g id="node37" class="node"><title>Node38</title>
<g id="a_node37"><a xlink:href="lll_8h.html" target="_top" xlink:title="fplll/lll.h">
<polygon fill="white" stroke="black" points="755.5,-241 755.5,-260 805.5,-260 805.5,-241 755.5,-241"/>
<text text-anchor="middle" x="780.5" y="-248" font-family="Helvetica,sans-Serif" font-size="10.00">fplll/lll.h</text>
</a>
</g>
</g>
<!-- Node37&#45;&gt;Node38 -->
<g id="edge50" class="edge"><title>Node37&#45;&gt;Node38</title>
<path fill="none" stroke="midnightblue" d="M693.211,-302.615C715.203,-289.737 747.241,-270.976 765.767,-260.127"/>
<polygon fill="midnightblue" stroke="midnightblue" points="691.331,-299.66 684.47,-307.734 694.868,-305.701 691.331,-299.66"/>
</g>
<!-- Node39 -->
<g id="node38" class="node"><title>Node39</title>
<g id="a_node38"><a xlink:href="pruner_8h.html" target="_top" xlink:title="fplll/pruner.h">
<polygon fill="white" stroke="red" points="667.5,-241 667.5,-260 737.5,-260 737.5,-241 667.5,-241"/>
<text text-anchor="middle" x="702.5" y="-248" font-family="Helvetica,sans-Serif" font-size="10.00">fplll/pruner.h</text>
</a>
</g>
</g>
<!-- Node37&#45;&gt;Node39 -->
<g id="edge54" class="edge"><title>Node37&#45;&gt;Node39</title>
<path fill="none" stroke="midnightblue" d="M678.555,-298.663C684.92,-286.128 693.153,-269.91 698.12,-260.127"/>
<polygon fill="midnightblue" stroke="midnightblue" points="675.357,-297.233 673.951,-307.734 681.598,-300.402 675.357,-297.233"/>
</g>
<!-- Node41 -->
<g id="node39" class="node"><title>Node41</title>
<g id="a_node39"><a xlink:href="pruner_8cpp.html" target="_top" xlink:title="fplll/pruner.cpp">
<polygon fill="white" stroke="black" points="479.5,-174 479.5,-193 559.5,-193 559.5,-174 479.5,-174"/>
<text text-anchor="middle" x="519.5" y="-181" font-family="Helvetica,sans-Serif" font-size="10.00">fplll/pruner.cpp</text>
</a>
</g>
</g>
<!-- Node37&#45;&gt;Node41 -->
<g id="edge58" class="edge"><title>Node37&#45;&gt;Node41</title>
<path fill="none" stroke="midnightblue" d="M662,-298.47C653.778,-280.498 639.101,-253.045 619.5,-235 598.036,-215.241 567.393,-201.299 545.697,-193.141"/>
<polygon fill="midnightblue" stroke="midnightblue" points="658.872,-300.052 666.084,-307.813 665.286,-297.248 658.872,-300.052"/>
</g>
<!-- Node42 -->
<g id="node40" class="node"><title>Node42</title>
<g id="a_node40"><a xlink:href="gso_8cpp.html" target="_top" xlink:title="fplll/gso.cpp">
<polygon fill="white" stroke="black" points="542,-241 542,-260 611,-260 611,-241 542,-241"/>
<text text-anchor="middle" x="576.5" y="-248" font-family="Helvetica,sans-Serif" font-size="10.00">fplll/gso.cpp</text>
</a>
</g>
</g>
<!-- Node37&#45;&gt;Node42 -->
<g id="edge57" class="edge"><title>Node37&#45;&gt;Node42</title>
<path fill="none" stroke="midnightblue" d="M648.639,-301.92C630.253,-289.069 604.088,-270.782 588.844,-260.127"/>
<polygon fill="midnightblue" stroke="midnightblue" points="646.756,-304.874 656.958,-307.734 650.766,-299.136 646.756,-304.874"/>
</g>
<!-- Node37&#45;&gt;Node43 -->
<g id="edge59" class="edge"><title>Node37&#45;&gt;Node43</title>
<path fill="none" stroke="midnightblue" d="M709.324,-311.706C806.693,-299.986 1056.51,-269.916 1161.69,-257.256"/>
<polygon fill="midnightblue" stroke="midnightblue" points="708.812,-308.243 699.302,-312.913 709.649,-315.192 708.812,-308.243"/>
</g>
<!-- Node38&#45;&gt;Node4 -->
<g id="edge51" class="edge"><title>Node38&#45;&gt;Node4</title>
<path fill="none" stroke="midnightblue" d="M751.396,-236.945C749.744,-236.277 748.103,-235.624 746.5,-235 701.7,-217.562 683.252,-227.45 644.5,-199 619.107,-180.357 599.876,-147.227 591.747,-131.605"/>
<polygon fill="midnightblue" stroke="midnightblue" points="750.233,-240.251 760.811,-240.851 752.916,-233.786 750.233,-240.251"/>
</g>
<!-- Node38&#45;&gt;Node32 -->
<g id="edge52" class="edge"><title>Node38&#45;&gt;Node32</title>
<path fill="none" stroke="midnightblue" d="M759.003,-235.095C739.814,-222.236 712.347,-203.831 696.375,-193.127"/>
<polygon fill="midnightblue" stroke="midnightblue" points="757.162,-238.075 767.418,-240.734 761.059,-232.259 757.162,-238.075"/>
</g>
<!-- Node38&#45;&gt;Node35 -->
<g id="edge53" class="edge"><title>Node38&#45;&gt;Node35</title>
<path fill="none" stroke="midnightblue" d="M789.555,-231.663C795.92,-219.128 804.153,-202.91 809.12,-193.127"/>
<polygon fill="midnightblue" stroke="midnightblue" points="786.357,-230.233 784.951,-240.734 792.598,-233.402 786.357,-230.233"/>
</g>
<!-- Node39&#45;&gt;Node6 -->
<g id="edge55" class="edge"><title>Node39&#45;&gt;Node6</title>
<path fill="none" stroke="midnightblue" d="M680.098,-235.246C656.949,-218.745 626.536,-190.899 644.5,-168 692.455,-106.869 941.246,-77.8956 1027.23,-69.5986"/>
<polygon fill="midnightblue" stroke="midnightblue" points="678.266,-238.233 688.498,-240.981 682.213,-232.452 678.266,-238.233"/>
</g>
<!-- Node39&#45;&gt;Node41 -->
<g id="edge56" class="edge"><title>Node39&#45;&gt;Node41</title>
<path fill="none" stroke="midnightblue" d="M668.536,-237.436C632.233,-224.542 575.594,-204.424 543.61,-193.064"/>
<polygon fill="midnightblue" stroke="midnightblue" points="667.604,-240.82 678.199,-240.869 669.947,-234.223 667.604,-240.82"/>
</g>
<!-- Node44 -->
<g id="node42" class="node"><title>Node44</title>
<g id="a_node42"><a xlink:href="sampler__basic_8cpp.html" target="_top" xlink:title="fplll/sieve/sampler\l_basic.cpp">
<polygon fill="white" stroke="black" points="1295,-168.5 1295,-198.5 1390,-198.5 1390,-168.5 1295,-168.5"/>
<text text-anchor="start" x="1303" y="-186.5" font-family="Helvetica,sans-Serif" font-size="10.00">fplll/sieve/sampler</text>
<text text-anchor="middle" x="1342.5" y="-175.5" font-family="Helvetica,sans-Serif" font-size="10.00">_basic.cpp</text>
</a>
</g>
</g>
<!-- Node43&#45;&gt;Node44 -->
<g id="edge60" class="edge"><title>Node43&#45;&gt;Node44</title>
<path fill="none" stroke="midnightblue" d="M1247.37,-230.992C1268.45,-220.689 1294.28,-208.068 1313.7,-198.577"/>
<polygon fill="midnightblue" stroke="midnightblue" points="1245.81,-227.86 1238.36,-235.396 1248.88,-234.15 1245.81,-227.86"/>
</g>
<!-- Node45 -->
<g id="node43" class="node"><title>Node45</title>
<g id="a_node43"><a xlink:href="sampler__main_8cpp.html" target="_top" xlink:title="fplll/sieve/sampler\l_main.cpp">
<polygon fill="white" stroke="black" points="1408,-168.5 1408,-198.5 1503,-198.5 1503,-168.5 1408,-168.5"/>
<text text-anchor="start" x="1416" y="-186.5" font-family="Helvetica,sans-Serif" font-size="10.00">fplll/sieve/sampler</text>
<text text-anchor="middle" x="1455.5" y="-175.5" font-family="Helvetica,sans-Serif" font-size="10.00">_main.cpp</text>
</a>
</g>
</g>
<!-- Node43&#45;&gt;Node45 -->
<g id="edge61" class="edge"><title>Node43&#45;&gt;Node45</title>
<path fill="none" stroke="midnightblue" d="M1266.95,-234.321C1309.79,-222.999 1367.63,-207.716 1407.91,-197.075"/>
<polygon fill="midnightblue" stroke="midnightblue" points="1266,-230.952 1257.22,-236.89 1267.79,-237.719 1266,-230.952"/>
</g>
<!-- Node46 -->
<g id="node44" class="node"><title>Node46</title>
<g id="a_node44"><a xlink:href="sieve__common_8h.html" target="_top" xlink:title="fplll/sieve/sieve_common.h">
<polygon fill="white" stroke="red" points="1142,-174 1142,-193 1277,-193 1277,-174 1142,-174"/>
<text text-anchor="middle" x="1209.5" y="-181" font-family="Helvetica,sans-Serif" font-size="10.00">fplll/sieve/sieve_common.h</text>
</a>
</g>
</g>
<!-- Node43&#45;&gt;Node46 -->
<g id="edge62" class="edge"><title>Node43&#45;&gt;Node46</title>
<path fill="none" stroke="midnightblue" d="M1209.5,-225.25C1209.5,-214.017 1209.5,-201.377 1209.5,-193.195"/>
<polygon fill="midnightblue" stroke="midnightblue" points="1206,-225.396 1209.5,-235.396 1213,-225.396 1206,-225.396"/>
</g>
<!-- Node54&#45;&gt;Node5 -->
<g id="edge64" class="edge"><title>Node54&#45;&gt;Node5</title>
<path fill="none" stroke="midnightblue" d="M981.864,-237.08C959.372,-227.913 929.2,-214.394 904.5,-199 886.003,-187.471 884.782,-179.867 866.5,-168 820.153,-137.914 804.933,-136.691 755.5,-112 729.957,-99.2414 700.301,-84.6101 681.966,-75.5854"/>
<polygon fill="midnightblue" stroke="midnightblue" points="980.718,-240.391 991.303,-240.855 983.318,-233.891 980.718,-240.391"/>
</g>
<!-- Node54&#45;&gt;Node6 -->
<g id="edge65" class="edge"><title>Node54&#45;&gt;Node6</title>
<path fill="none" stroke="midnightblue" d="M1032.7,-233.618C1041.73,-224.512 1051.7,-212.271 1056.5,-199 1072.39,-155.035 1062.96,-97.3177 1058.47,-75.6843"/>
<polygon fill="midnightblue" stroke="midnightblue" points="1030.02,-231.34 1025.17,-240.76 1034.84,-236.419 1030.02,-231.34"/>
</g>
<!-- Node54&#45;&gt;Node7 -->
<g id="edge66" class="edge"><title>Node54&#45;&gt;Node7</title>
<path fill="none" stroke="midnightblue" d="M1033.43,-234.442C1056.06,-216.925 1095.52,-187.874 1132.5,-168 1262.98,-97.8775 1431.69,-40.4552 1496.5,-19.517"/>
<polygon fill="midnightblue" stroke="midnightblue" points="1031.08,-231.841 1025.36,-240.759 1035.39,-237.355 1031.08,-231.841"/>
</g>
<!-- Node54&#45;&gt;Node35 -->
<g id="edge68" class="edge"><title>Node54&#45;&gt;Node35</title>
<path fill="none" stroke="midnightblue" d="M978.213,-237.765C938.387,-224.886 875.412,-204.521 839.982,-193.064"/>
<polygon fill="midnightblue" stroke="midnightblue" points="977.217,-241.122 987.809,-240.869 979.371,-234.461 977.217,-241.122"/>
</g>
<!-- Node49 -->
<g id="node46" class="node"><title>Node49</title>
<g id="a_node46"><a xlink:href="sieve__gauss_8cpp.html" target="_top" xlink:title="fplll/sieve/sieve_gauss.cpp">
<polygon fill="white" stroke="black" points="913.5,-174 913.5,-193 1047.5,-193 1047.5,-174 913.5,-174"/>
<text text-anchor="middle" x="980.5" y="-181" font-family="Helvetica,sans-Serif" font-size="10.00">fplll/sieve/sieve_gauss.cpp</text>
</a>
</g>
</g>
<!-- Node54&#45;&gt;Node49 -->
<g id="edge67" class="edge"><title>Node54&#45;&gt;Node49</title>
<path fill="none" stroke="midnightblue" d="M1005.17,-231.663C998.613,-219.128 990.13,-202.91 985.013,-193.127"/>
<polygon fill="midnightblue" stroke="midnightblue" points="1002.18,-233.495 1009.91,-240.734 1008.38,-230.251 1002.18,-233.495"/>
</g>
<!-- Node55&#45;&gt;Node1 -->
<g id="edge71" class="edge"><title>Node55&#45;&gt;Node1</title>
<path fill="none" stroke="midnightblue" d="M462.5,-582.805C462.5,-573.91 462.5,-563.78 462.5,-556.751"/>
<polygon fill="midnightblue" stroke="midnightblue" points="459,-583.083 462.5,-593.083 466,-583.083 459,-583.083"/>
</g>
<!-- Node56&#45;&gt;Node1 -->
<g id="edge73" class="edge"><title>Node56&#45;&gt;Node1</title>
<path fill="none" stroke="midnightblue" d="M550.019,-589.096C528.534,-579.007 499.278,-565.27 480.637,-556.516"/>
<polygon fill="midnightblue" stroke="midnightblue" points="548.738,-592.361 559.278,-593.444 551.714,-586.025 548.738,-592.361"/>
</g>
</g>
</svg>
