<?xml version="1.0" encoding="UTF-8" standalone="no"?>
<!DOCTYPE svg PUBLIC "-//W3C//DTD SVG 1.1//EN"
 "http://www.w3.org/Graphics/SVG/1.1/DTD/svg11.dtd">
<!-- Generated by graphviz version 2.38.0 (20140413.2041)
 -->
<!-- Title: fplll/nr/numvect.h Pages: 1 -->
<svg width="1264pt" height="744pt"
 viewBox="0.00 0.00 1264.09 744.00" xmlns="http://www.w3.org/2000/svg" xmlns:xlink="http://www.w3.org/1999/xlink">
<g id="graph0" class="graph" transform="scale(1 1) rotate(0) translate(4 740)">
<title>fplll/nr/numvect.h</title>
<polygon fill="white" stroke="none" points="-4,4 -4,-740 1260.09,-740 1260.09,4 -4,4"/>
<!-- Node1 -->
<g id="node1" class="node"><title>Node1</title>
<polygon fill="#bfbfbf" stroke="black" points="619.586,-716.5 619.586,-735.5 711.586,-735.5 711.586,-716.5 619.586,-716.5"/>
<text text-anchor="middle" x="665.586" y="-723.5" font-family="Helvetica,sans-Serif" font-size="10.00">fplll/nr/numvect.h</text>
</g>
<!-- Node2 -->
<g id="node2" class="node"><title>Node2</title>
<g id="a_node2"><a xlink:href="matrix_8h.html" target="_top" xlink:title="fplll/nr/matrix.h">
<polygon fill="white" stroke="black" points="625.086,-660.5 625.086,-679.5 706.086,-679.5 706.086,-660.5 625.086,-660.5"/>
<text text-anchor="middle" x="665.586" y="-667.5" font-family="Helvetica,sans-Serif" font-size="10.00">fplll/nr/matrix.h</text>
</a>
</g>
</g>
<!-- Node1&#45;&gt;Node2 -->
<g id="edge1" class="edge"><title>Node1&#45;&gt;Node2</title>
<path fill="none" stroke="midnightblue" d="M665.586,-705.805C665.586,-696.91 665.586,-686.78 665.586,-679.751"/>
<polygon fill="midnightblue" stroke="midnightblue" points="662.086,-706.083 665.586,-716.083 669.086,-706.083 662.086,-706.083"/>
</g>
<!-- Node3 -->
<g id="node3" class="node"><title>Node3</title>
<g id="a_node3"><a xlink:href="util_8h.html" target="_top" xlink:title="fplll/util.h">
<polygon fill="white" stroke="black" points="501.586,-604.5 501.586,-623.5 557.586,-623.5 557.586,-604.5 501.586,-604.5"/>
<text text-anchor="middle" x="529.586" y="-611.5" font-family="Helvetica,sans-Serif" font-size="10.00">fplll/util.h</text>
</a>
</g>
</g>
<!-- Node2&#45;&gt;Node3 -->
<g id="edge2" class="edge"><title>Node2&#45;&gt;Node3</title>
<path fill="none" stroke="midnightblue" d="M634.452,-656.638C608.93,-646.504 573.477,-632.427 551.035,-623.516"/>
<polygon fill="midnightblue" stroke="midnightblue" points="633.451,-660.006 644.037,-660.444 636.034,-653.5 633.451,-660.006"/>
</g>
<!-- Node40 -->
<g id="node40" class="node"><title>Node40</title>
<g id="a_node40"><a xlink:href="matrix_8cpp.html" target="_top" xlink:title="fplll/nr/matrix.cpp">
<polygon fill="white" stroke="black" points="619.586,-604.5 619.586,-623.5 711.586,-623.5 711.586,-604.5 619.586,-604.5"/>
<text text-anchor="middle" x="665.586" y="-611.5" font-family="Helvetica,sans-Serif" font-size="10.00">fplll/nr/matrix.cpp</text>
</a>
</g>
</g>
<!-- Node2&#45;&gt;Node40 -->
<g id="edge52" class="edge"><title>Node2&#45;&gt;Node40</title>
<path fill="none" stroke="midnightblue" d="M659.114,-650.101C658.482,-641.136 658.929,-630.858 660.455,-623.751"/>
<polygon fill="midnightblue" stroke="midnightblue" points="655.652,-650.622 660.42,-660.083 662.593,-649.713 655.652,-650.622"/>
</g>
<!-- Node41 -->
<g id="node41" class="node"><title>Node41</title>
<g id="a_node41"><a xlink:href="gso_8h.html" target="_top" xlink:title="fplll/gso.h">
<polygon fill="white" stroke="black" points="835.086,-548.5 835.086,-567.5 894.086,-567.5 894.086,-548.5 835.086,-548.5"/>
<text text-anchor="middle" x="864.586" y="-555.5" font-family="Helvetica,sans-Serif" font-size="10.00">fplll/gso.h</text>
</a>
</g>
</g>
<!-- Node2&#45;&gt;Node41 -->
<g id="edge54" class="edge"><title>Node2&#45;&gt;Node41</title>
<path fill="none" stroke="midnightblue" d="M692.036,-655.968C709.617,-647.185 733.143,-635.2 753.586,-624 788.839,-604.685 829.394,-580.397 850.367,-567.678"/>
<polygon fill="midnightblue" stroke="midnightblue" points="690.333,-652.906 682.938,-660.493 693.45,-659.174 690.333,-652.906"/>
</g>
<!-- Node46 -->
<g id="node46" class="node"><title>Node46</title>
<g id="a_node46"><a xlink:href="wrapper_8h.html" target="_top" xlink:title="fplll/wrapper.h">
<polygon fill="white" stroke="black" points="701.086,-492.5 701.086,-511.5 778.086,-511.5 778.086,-492.5 701.086,-492.5"/>
<text text-anchor="middle" x="739.586" y="-499.5" font-family="Helvetica,sans-Serif" font-size="10.00">fplll/wrapper.h</text>
</a>
</g>
</g>
<!-- Node2&#45;&gt;Node46 -->
<g id="edge66" class="edge"><title>Node2&#45;&gt;Node46</title>
<path fill="none" stroke="midnightblue" d="M690.113,-654.796C701.185,-647.102 713.374,-636.585 720.586,-624 742.05,-586.548 741.421,-532.408 740.24,-511.596"/>
<polygon fill="midnightblue" stroke="midnightblue" points="688.059,-651.956 681.589,-660.346 691.879,-657.822 688.059,-651.956"/>
</g>
<!-- Node4 -->
<g id="node4" class="node"><title>Node4</title>
<g id="a_node4"><a xlink:href="evaluator_8h.html" target="_top" xlink:title="fplll/enum/evaluator.h">
<polygon fill="white" stroke="black" points="168.586,-548.5 168.586,-567.5 278.586,-567.5 278.586,-548.5 168.586,-548.5"/>
<text text-anchor="middle" x="223.586" y="-555.5" font-family="Helvetica,sans-Serif" font-size="10.00">fplll/enum/evaluator.h</text>
</a>
</g>
</g>
<!-- Node3&#45;&gt;Node4 -->
<g id="edge3" class="edge"><title>Node3&#45;&gt;Node4</title>
<path fill="none" stroke="midnightblue" d="M491.209,-606.228C435.599,-596.414 332.645,-578.246 271.925,-567.53"/>
<polygon fill="midnightblue" stroke="midnightblue" points="490.891,-609.725 501.347,-608.017 492.107,-602.832 490.891,-609.725"/>
</g>
<!-- Node7 -->
<g id="node7" class="node"><title>Node7</title>
<g id="a_node7"><a xlink:href="fplll_8h.html" target="_top" xlink:title="fplll/fplll.h">
<polygon fill="white" stroke="black" points="758.586,-380.5 758.586,-399.5 816.586,-399.5 816.586,-380.5 758.586,-380.5"/>
<text text-anchor="middle" x="787.586" y="-387.5" font-family="Helvetica,sans-Serif" font-size="10.00">fplll/fplll.h</text>
</a>
</g>
</g>
<!-- Node3&#45;&gt;Node7 -->
<g id="edge43" class="edge"><title>Node3&#45;&gt;Node7</title>
<path fill="none" stroke="midnightblue" d="M567.609,-603.692C632.781,-586.879 761.271,-549.677 786.586,-512 810.486,-476.428 796.931,-420.713 790.437,-399.546"/>
<polygon fill="midnightblue" stroke="midnightblue" points="566.545,-600.352 557.719,-606.213 568.273,-607.135 566.545,-600.352"/>
</g>
<!-- Node32 -->
<g id="node32" class="node"><title>Node32</title>
<g id="a_node32"><a xlink:href="topenum_8h.html" target="_top" xlink:title="fplll/enum/topenum.h">
<polygon fill="white" stroke="black" points="19.0861,-548.5 19.0861,-567.5 126.086,-567.5 126.086,-548.5 19.0861,-548.5"/>
<text text-anchor="middle" x="72.5861" y="-555.5" font-family="Helvetica,sans-Serif" font-size="10.00">fplll/enum/topenum.h</text>
</a>
</g>
</g>
<!-- Node3&#45;&gt;Node32 -->
<g id="edge40" class="edge"><title>Node3&#45;&gt;Node32</title>
<path fill="none" stroke="midnightblue" d="M491.043,-608.446C409.565,-598.818 219.674,-576.38 126.33,-565.35"/>
<polygon fill="midnightblue" stroke="midnightblue" points="491.002,-611.965 501.344,-609.663 491.823,-605.013 491.002,-611.965"/>
</g>
<!-- Node34 -->
<g id="node34" class="node"><title>Node34</title>
<g id="a_node34"><a xlink:href="svpcvp_8h.html" target="_top" xlink:title="fplll/svpcvp.h">
<polygon fill="white" stroke="black" points="459.586,-492.5 459.586,-511.5 533.586,-511.5 533.586,-492.5 459.586,-492.5"/>
<text text-anchor="middle" x="496.586" y="-499.5" font-family="Helvetica,sans-Serif" font-size="10.00">fplll/svpcvp.h</text>
</a>
</g>
</g>
<!-- Node3&#45;&gt;Node34 -->
<g id="edge44" class="edge"><title>Node3&#45;&gt;Node34</title>
<path fill="none" stroke="midnightblue" d="M491.713,-604.195C472.56,-597.619 451.005,-586.475 439.586,-568 425.777,-545.657 457.484,-523.486 478.931,-511.694"/>
<polygon fill="midnightblue" stroke="midnightblue" points="490.854,-607.594 501.443,-607.232 492.94,-600.912 490.854,-607.594"/>
</g>
<!-- Node35 -->
<g id="node35" class="node"><title>Node35</title>
<g id="a_node35"><a xlink:href="latticegen_8cpp.html" target="_top" xlink:title="fplll/latticegen.cpp">
<polygon fill="white" stroke="black" points="297.086,-548.5 297.086,-567.5 392.086,-567.5 392.086,-548.5 297.086,-548.5"/>
<text text-anchor="middle" x="344.586" y="-555.5" font-family="Helvetica,sans-Serif" font-size="10.00">fplll/latticegen.cpp</text>
</a>
</g>
</g>
<!-- Node3&#45;&gt;Node35 -->
<g id="edge47" class="edge"><title>Node3&#45;&gt;Node35</title>
<path fill="none" stroke="midnightblue" d="M491.659,-601.929C456.758,-591.742 405.722,-576.845 373.866,-567.547"/>
<polygon fill="midnightblue" stroke="midnightblue" points="490.908,-605.356 501.489,-604.799 492.87,-598.637 490.908,-605.356"/>
</g>
<!-- Node36 -->
<g id="node36" class="node"><title>Node36</title>
<g id="a_node36"><a xlink:href="lll_8cpp.html" target="_top" xlink:title="fplll/lll.cpp">
<polygon fill="white" stroke="black" points="536.586,-436.5 536.586,-455.5 596.586,-455.5 596.586,-436.5 536.586,-436.5"/>
<text text-anchor="middle" x="566.586" y="-443.5" font-family="Helvetica,sans-Serif" font-size="10.00">fplll/lll.cpp</text>
</a>
</g>
</g>
<!-- Node3&#45;&gt;Node36 -->
<g id="edge48" class="edge"><title>Node3&#45;&gt;Node36</title>
<path fill="none" stroke="midnightblue" d="M567.454,-603.15C585.349,-596.387 605.057,-585.393 615.586,-568 630.208,-543.846 598.864,-536.919 585.586,-512 575.635,-493.323 570.284,-468.776 567.984,-455.847"/>
<polygon fill="midnightblue" stroke="midnightblue" points="566.083,-599.921 557.768,-606.486 568.363,-606.539 566.083,-599.921"/>
</g>
<!-- Node37 -->
<g id="node37" class="node"><title>Node37</title>
<g id="a_node37"><a xlink:href="llldiff_8cpp.html" target="_top" xlink:title="fplll/llldiff.cpp">
<polygon fill="white" stroke="black" points="448.586,-548.5 448.586,-567.5 522.586,-567.5 522.586,-548.5 448.586,-548.5"/>
<text text-anchor="middle" x="485.586" y="-555.5" font-family="Helvetica,sans-Serif" font-size="10.00">fplll/llldiff.cpp</text>
</a>
</g>
</g>
<!-- Node3&#45;&gt;Node37 -->
<g id="edge49" class="edge"><title>Node3&#45;&gt;Node37</title>
<path fill="none" stroke="midnightblue" d="M515.852,-596.144C508.186,-586.736 498.953,-575.405 492.717,-567.751"/>
<polygon fill="midnightblue" stroke="midnightblue" points="513.29,-598.541 522.32,-604.083 518.717,-594.12 513.29,-598.541"/>
</g>
<!-- Node38 -->
<g id="node38" class="node"><title>Node38</title>
<g id="a_node38"><a xlink:href="util_8cpp.html" target="_top" xlink:title="fplll/util.cpp">
<polygon fill="white" stroke="black" points="540.586,-548.5 540.586,-567.5 606.586,-567.5 606.586,-548.5 540.586,-548.5"/>
<text text-anchor="middle" x="573.586" y="-555.5" font-family="Helvetica,sans-Serif" font-size="10.00">fplll/util.cpp</text>
</a>
</g>
</g>
<!-- Node3&#45;&gt;Node38 -->
<g id="edge50" class="edge"><title>Node3&#45;&gt;Node38</title>
<path fill="none" stroke="midnightblue" d="M543.321,-596.144C550.987,-586.736 560.219,-575.405 566.456,-567.751"/>
<polygon fill="midnightblue" stroke="midnightblue" points="540.455,-594.12 536.852,-604.083 545.882,-598.541 540.455,-594.12"/>
</g>
<!-- Node39 -->
<g id="node39" class="node"><title>Node39</title>
<g id="a_node39"><a xlink:href="wrapper_8cpp.html" target="_top" xlink:title="fplll/wrapper.cpp">
<polygon fill="white" stroke="black" points="614.586,-436.5 614.586,-455.5 702.586,-455.5 702.586,-436.5 614.586,-436.5"/>
<text text-anchor="middle" x="658.586" y="-443.5" font-family="Helvetica,sans-Serif" font-size="10.00">fplll/wrapper.cpp</text>
</a>
</g>
</g>
<!-- Node3&#45;&gt;Node39 -->
<g id="edge51" class="edge"><title>Node3&#45;&gt;Node39</title>
<path fill="none" stroke="midnightblue" d="M567.408,-604.006C588.681,-597.235 614.348,-585.963 631.586,-568 662.137,-536.165 661.073,-477.724 659.436,-455.703"/>
<polygon fill="midnightblue" stroke="midnightblue" points="566.273,-600.692 557.683,-606.893 568.265,-607.402 566.273,-600.692"/>
</g>
<!-- Node5 -->
<g id="node5" class="node"><title>Node5</title>
<g id="a_node5"><a xlink:href="bkz_8h.html" target="_top" xlink:title="fplll/bkz.h">
<polygon fill="white" stroke="black" points="421.086,-436.5 421.086,-455.5 480.086,-455.5 480.086,-436.5 421.086,-436.5"/>
<text text-anchor="middle" x="450.586" y="-443.5" font-family="Helvetica,sans-Serif" font-size="10.00">fplll/bkz.h</text>
</a>
</g>
</g>
<!-- Node4&#45;&gt;Node5 -->
<g id="edge4" class="edge"><title>Node4&#45;&gt;Node5</title>
<path fill="none" stroke="midnightblue" d="M288.865,-547.068C335.39,-538.96 393.02,-526.5 412.586,-512 432.12,-497.524 443.329,-469.77 447.998,-455.675"/>
<polygon fill="midnightblue" stroke="midnightblue" points="288.091,-543.649 278.822,-548.781 289.268,-550.549 288.091,-543.649"/>
</g>
<!-- Node28 -->
<g id="node28" class="node"><title>Node28</title>
<g id="a_node28"><a xlink:href="enumerate_8h.html" target="_top" xlink:title="fplll/enum/enumerate.h">
<polygon fill="white" stroke="black" points="287.586,-492.5 287.586,-511.5 403.586,-511.5 403.586,-492.5 287.586,-492.5"/>
<text text-anchor="middle" x="345.586" y="-499.5" font-family="Helvetica,sans-Serif" font-size="10.00">fplll/enum/enumerate.h</text>
</a>
</g>
</g>
<!-- Node4&#45;&gt;Node28 -->
<g id="edge33" class="edge"><title>Node4&#45;&gt;Node28</title>
<path fill="none" stroke="midnightblue" d="M252.126,-544.368C274.972,-534.255 306.391,-520.349 326.345,-511.516"/>
<polygon fill="midnightblue" stroke="midnightblue" points="250.645,-541.196 242.917,-548.444 253.478,-547.597 250.645,-541.196"/>
</g>
<!-- Node31 -->
<g id="node31" class="node"><title>Node31</title>
<g id="a_node31"><a xlink:href="evaluator_8cpp.html" target="_top" xlink:title="fplll/enum/evaluator.cpp">
<polygon fill="white" stroke="black" points="149.586,-492.5 149.586,-511.5 269.586,-511.5 269.586,-492.5 149.586,-492.5"/>
<text text-anchor="middle" x="209.586" y="-499.5" font-family="Helvetica,sans-Serif" font-size="10.00">fplll/enum/evaluator.cpp</text>
</a>
</g>
</g>
<!-- Node4&#45;&gt;Node31 -->
<g id="edge39" class="edge"><title>Node4&#45;&gt;Node31</title>
<path fill="none" stroke="midnightblue" d="M218.763,-538.396C216.421,-529.362 213.718,-518.936 211.855,-511.751"/>
<polygon fill="midnightblue" stroke="midnightblue" points="215.377,-539.281 221.274,-548.083 222.153,-537.525 215.377,-539.281"/>
</g>
<!-- Node6 -->
<g id="node6" class="node"><title>Node6</title>
<g id="a_node6"><a xlink:href="bkz_8cpp.html" target="_top" xlink:title="fplll/bkz.cpp">
<polygon fill="white" stroke="black" points="316.086,-380.5 316.086,-399.5 385.086,-399.5 385.086,-380.5 316.086,-380.5"/>
<text text-anchor="middle" x="350.586" y="-387.5" font-family="Helvetica,sans-Serif" font-size="10.00">fplll/bkz.cpp</text>
</a>
</g>
</g>
<!-- Node5&#45;&gt;Node6 -->
<g id="edge5" class="edge"><title>Node5&#45;&gt;Node6</title>
<path fill="none" stroke="midnightblue" d="M425.498,-431.453C407.037,-421.483 382.49,-408.228 366.613,-399.655"/>
<polygon fill="midnightblue" stroke="midnightblue" points="424.057,-434.652 434.519,-436.324 427.383,-428.493 424.057,-434.652"/>
</g>
<!-- Node5&#45;&gt;Node7 -->
<g id="edge6" class="edge"><title>Node5&#45;&gt;Node7</title>
<path fill="none" stroke="midnightblue" d="M490.205,-436.801C491.683,-436.526 493.147,-436.258 494.586,-436 590.84,-418.775 705.614,-402.331 758.396,-394.996"/>
<polygon fill="midnightblue" stroke="midnightblue" points="489.525,-433.368 480.37,-438.701 490.852,-440.241 489.525,-433.368"/>
</g>
<!-- Node8 -->
<g id="node8" class="node"><title>Node8</title>
<g id="a_node8"><a xlink:href="fplll_8cpp.html" target="_top" xlink:title="fplll/fplll.cpp">
<polygon fill="white" stroke="black" points="323.586,-319 323.586,-338 391.586,-338 391.586,-319 323.586,-319"/>
<text text-anchor="middle" x="357.586" y="-326" font-family="Helvetica,sans-Serif" font-size="10.00">fplll/fplll.cpp</text>
</a>
</g>
</g>
<!-- Node7&#45;&gt;Node8 -->
<g id="edge7" class="edge"><title>Node7&#45;&gt;Node8</title>
<path fill="none" stroke="midnightblue" d="M748.45,-380.633C747.148,-380.411 745.858,-380.199 744.586,-380 592.712,-356.223 550.779,-376.76 400.586,-344 393.813,-342.523 386.615,-340.347 380.085,-338.129"/>
<polygon fill="midnightblue" stroke="midnightblue" points="748.046,-384.118 758.516,-382.496 749.32,-377.235 748.046,-384.118"/>
</g>
<!-- Node9 -->
<g id="node9" class="node"><title>Node9</title>
<g id="a_node9"><a xlink:href="main_8h.html" target="_top" xlink:title="fplll/main.h">
<polygon fill="white" stroke="black" points="409.586,-319 409.586,-338 473.586,-338 473.586,-319 409.586,-319"/>
<text text-anchor="middle" x="441.586" y="-326" font-family="Helvetica,sans-Serif" font-size="10.00">fplll/main.h</text>
</a>
</g>
</g>
<!-- Node7&#45;&gt;Node9 -->
<g id="edge8" class="edge"><title>Node7&#45;&gt;Node9</title>
<path fill="none" stroke="midnightblue" d="M748.441,-380.691C747.142,-380.452 745.854,-380.221 744.586,-380 630.965,-360.175 600.086,-369.425 487.586,-344 480.562,-342.413 473.066,-340.255 466.208,-338.09"/>
<polygon fill="midnightblue" stroke="midnightblue" points="748.01,-384.173 758.493,-382.635 749.339,-377.3 748.01,-384.173"/>
</g>
<!-- Node11 -->
<g id="node11" class="node"><title>Node11</title>
<g id="a_node11"><a xlink:href="sampler__basic_8h.html" target="_top" xlink:title="fplll/sieve/sampler\l_basic.h">
<polygon fill="white" stroke="black" points="1105.09,-313.5 1105.09,-343.5 1200.09,-343.5 1200.09,-313.5 1105.09,-313.5"/>
<text text-anchor="start" x="1113.09" y="-331.5" font-family="Helvetica,sans-Serif" font-size="10.00">fplll/sieve/sampler</text>
<text text-anchor="middle" x="1152.59" y="-320.5" font-family="Helvetica,sans-Serif" font-size="10.00">_basic.h</text>
</a>
</g>
</g>
<!-- Node7&#45;&gt;Node11 -->
<g id="edge10" class="edge"><title>Node7&#45;&gt;Node11</title>
<path fill="none" stroke="midnightblue" d="M826.584,-384.622C885.259,-377.738 999.601,-363.166 1095.59,-344 1098.69,-343.38 1101.88,-342.698 1105.08,-341.977"/>
<polygon fill="midnightblue" stroke="midnightblue" points="826.163,-381.147 816.633,-385.778 826.971,-388.101 826.163,-381.147"/>
</g>
<!-- Node14 -->
<g id="node14" class="node"><title>Node14</title>
<g id="a_node14"><a xlink:href="sieve__common_8h.html" target="_top" xlink:title="fplll/sieve/sieve_common.h">
<polygon fill="white" stroke="black" points="724.086,-252 724.086,-271 859.086,-271 859.086,-252 724.086,-252"/>
<text text-anchor="middle" x="791.586" y="-259" font-family="Helvetica,sans-Serif" font-size="10.00">fplll/sieve/sieve_common.h</text>
</a>
</g>
</g>
<!-- Node7&#45;&gt;Node14 -->
<g id="edge27" class="edge"><title>Node7&#45;&gt;Node14</title>
<path fill="none" stroke="midnightblue" d="M748.435,-380.725C747.137,-380.476 745.852,-380.234 744.586,-380 642.405,-361.106 454.179,-392.925 520.586,-313 545.971,-282.447 652.383,-270.284 724.066,-265.508"/>
<polygon fill="midnightblue" stroke="midnightblue" points="747.989,-384.204 758.478,-382.715 749.349,-377.338 747.989,-384.204"/>
</g>
<!-- Node23 -->
<g id="node23" class="node"><title>Node23</title>
<g id="a_node23"><a xlink:href="test__bkz_8cpp.html" target="_top" xlink:title="tests/test_bkz.cpp">
<polygon fill="white" stroke="black" points="529.586,-319 529.586,-338 627.586,-338 627.586,-319 529.586,-319"/>
<text text-anchor="middle" x="578.586" y="-326" font-family="Helvetica,sans-Serif" font-size="10.00">tests/test_bkz.cpp</text>
</a>
</g>
</g>
<!-- Node7&#45;&gt;Node23 -->
<g id="edge28" class="edge"><title>Node7&#45;&gt;Node23</title>
<path fill="none" stroke="midnightblue" d="M748.738,-377.94C708.253,-366.415 645.672,-348.598 608.753,-338.088"/>
<polygon fill="midnightblue" stroke="midnightblue" points="747.949,-381.355 758.526,-380.727 749.866,-374.622 747.949,-381.355"/>
</g>
<!-- Node24 -->
<g id="node24" class="node"><title>Node24</title>
<g id="a_node24"><a xlink:href="test__lll_8cpp.html" target="_top" xlink:title="tests/test_lll.cpp">
<polygon fill="white" stroke="black" points="645.086,-319 645.086,-338 734.086,-338 734.086,-319 645.086,-319"/>
<text text-anchor="middle" x="689.586" y="-326" font-family="Helvetica,sans-Serif" font-size="10.00">tests/test_lll.cpp</text>
</a>
</g>
</g>
<!-- Node7&#45;&gt;Node24 -->
<g id="edge29" class="edge"><title>Node7&#45;&gt;Node24</title>
<path fill="none" stroke="midnightblue" d="M764.929,-375.244C745.998,-363.75 719.6,-347.723 703.601,-338.009"/>
<polygon fill="midnightblue" stroke="midnightblue" points="763.181,-378.277 773.545,-380.475 766.814,-372.294 763.181,-378.277"/>
</g>
<!-- Node25 -->
<g id="node25" class="node"><title>Node25</title>
<g id="a_node25"><a xlink:href="test__nr_8cpp.html" target="_top" xlink:title="tests/test_nr.cpp">
<polygon fill="white" stroke="black" points="752.586,-319 752.586,-338 842.586,-338 842.586,-319 752.586,-319"/>
<text text-anchor="middle" x="797.586" y="-326" font-family="Helvetica,sans-Serif" font-size="10.00">tests/test_nr.cpp</text>
</a>
</g>
</g>
<!-- Node7&#45;&gt;Node25 -->
<g id="edge30" class="edge"><title>Node7&#45;&gt;Node25</title>
<path fill="none" stroke="midnightblue" d="M790.726,-370.317C792.545,-359.496 794.746,-346.398 796.156,-338.009"/>
<polygon fill="midnightblue" stroke="midnightblue" points="787.225,-370.033 789.019,-380.475 794.128,-371.194 787.225,-370.033"/>
</g>
<!-- Node26 -->
<g id="node26" class="node"><title>Node26</title>
<g id="a_node26"><a xlink:href="test__pruner_8cpp.html" target="_top" xlink:title="tests/test_pruner.cpp">
<polygon fill="white" stroke="black" points="861.086,-319 861.086,-338 970.086,-338 970.086,-319 861.086,-319"/>
<text text-anchor="middle" x="915.586" y="-326" font-family="Helvetica,sans-Serif" font-size="10.00">tests/test_pruner.cpp</text>
</a>
</g>
</g>
<!-- Node7&#45;&gt;Node26 -->
<g id="edge31" class="edge"><title>Node7&#45;&gt;Node26</title>
<path fill="none" stroke="midnightblue" d="M815.178,-376.174C840.015,-364.629 875.815,-347.987 897.281,-338.009"/>
<polygon fill="midnightblue" stroke="midnightblue" points="813.518,-373.086 805.925,-380.475 816.469,-379.434 813.518,-373.086"/>
</g>
<!-- Node27 -->
<g id="node27" class="node"><title>Node27</title>
<g id="a_node27"><a xlink:href="test__svp_8cpp.html" target="_top" xlink:title="tests/test_svp.cpp">
<polygon fill="white" stroke="black" points="988.586,-319 988.586,-338 1086.59,-338 1086.59,-319 988.586,-319"/>
<text text-anchor="middle" x="1037.59" y="-326" font-family="Helvetica,sans-Serif" font-size="10.00">tests/test_svp.cpp</text>
</a>
</g>
</g>
<!-- Node7&#45;&gt;Node27 -->
<g id="edge32" class="edge"><title>Node7&#45;&gt;Node27</title>
<path fill="none" stroke="midnightblue" d="M826.746,-380C865.575,-371.034 926.743,-356.797 979.586,-344 987.455,-342.094 995.913,-340.004 1003.87,-338.018"/>
<polygon fill="midnightblue" stroke="midnightblue" points="825.851,-376.615 816.893,-382.273 827.424,-383.435 825.851,-376.615"/>
</g>
<!-- Node10 -->
<g id="node10" class="node"><title>Node10</title>
<g id="a_node10"><a xlink:href="main_8cpp.html" target="_top" xlink:title="fplll/main.cpp">
<polygon fill="white" stroke="black" points="404.586,-252 404.586,-271 478.586,-271 478.586,-252 404.586,-252"/>
<text text-anchor="middle" x="441.586" y="-259" font-family="Helvetica,sans-Serif" font-size="10.00">fplll/main.cpp</text>
</a>
</g>
</g>
<!-- Node9&#45;&gt;Node10 -->
<g id="edge9" class="edge"><title>Node9&#45;&gt;Node10</title>
<path fill="none" stroke="midnightblue" d="M441.586,-308.537C441.586,-296.17 441.586,-280.62 441.586,-271.127"/>
<polygon fill="midnightblue" stroke="midnightblue" points="438.086,-308.734 441.586,-318.734 445.086,-308.734 438.086,-308.734"/>
</g>
<!-- Node12 -->
<g id="node12" class="node"><title>Node12</title>
<g id="a_node12"><a xlink:href="sampler__basic_8cpp.html" target="_top" xlink:title="fplll/sieve/sampler\l_basic.cpp">
<polygon fill="white" stroke="black" points="1048.09,-246.5 1048.09,-276.5 1143.09,-276.5 1143.09,-246.5 1048.09,-246.5"/>
<text text-anchor="start" x="1056.09" y="-264.5" font-family="Helvetica,sans-Serif" font-size="10.00">fplll/sieve/sampler</text>
<text text-anchor="middle" x="1095.59" y="-253.5" font-family="Helvetica,sans-Serif" font-size="10.00">_basic.cpp</text>
</a>
</g>
</g>
<!-- Node11&#45;&gt;Node12 -->
<g id="edge11" class="edge"><title>Node11&#45;&gt;Node12</title>
<path fill="none" stroke="midnightblue" d="M1133.5,-305.736C1125.07,-296.119 1115.39,-285.089 1107.93,-276.577"/>
<polygon fill="midnightblue" stroke="midnightblue" points="1130.99,-308.185 1140.22,-313.396 1136.26,-303.57 1130.99,-308.185"/>
</g>
<!-- Node13 -->
<g id="node13" class="node"><title>Node13</title>
<g id="a_node13"><a xlink:href="sampler__main_8cpp.html" target="_top" xlink:title="fplll/sieve/sampler\l_main.cpp">
<polygon fill="white" stroke="black" points="1161.09,-246.5 1161.09,-276.5 1256.09,-276.5 1256.09,-246.5 1161.09,-246.5"/>
<text text-anchor="start" x="1169.09" y="-264.5" font-family="Helvetica,sans-Serif" font-size="10.00">fplll/sieve/sampler</text>
<text text-anchor="middle" x="1208.59" y="-253.5" font-family="Helvetica,sans-Serif" font-size="10.00">_main.cpp</text>
</a>
</g>
</g>
<!-- Node11&#45;&gt;Node13 -->
<g id="edge12" class="edge"><title>Node11&#45;&gt;Node13</title>
<path fill="none" stroke="midnightblue" d="M1171.34,-305.736C1179.62,-296.119 1189.13,-285.089 1196.46,-276.577"/>
<polygon fill="midnightblue" stroke="midnightblue" points="1168.61,-303.535 1164.74,-313.396 1173.92,-308.104 1168.61,-303.535"/>
</g>
<!-- Node11&#45;&gt;Node14 -->
<g id="edge13" class="edge"><title>Node11&#45;&gt;Node14</title>
<path fill="none" stroke="midnightblue" d="M1095.21,-313.031C1004.83,-294.32 911.534,-279.722 852.142,-271.019"/>
<polygon fill="midnightblue" stroke="midnightblue" points="1094.57,-316.473 1105.07,-315.093 1096,-309.621 1094.57,-316.473"/>
</g>
<!-- Node15 -->
<g id="node15" class="node"><title>Node15</title>
<g id="a_node15"><a xlink:href="sieve__gauss__str_8h.html" target="_top" xlink:title="fplll/sieve/sieve_gauss\l_str.h">
<polygon fill="white" stroke="black" points="733.586,-179.5 733.586,-209.5 849.586,-209.5 849.586,-179.5 733.586,-179.5"/>
<text text-anchor="start" x="741.586" y="-197.5" font-family="Helvetica,sans-Serif" font-size="10.00">fplll/sieve/sieve_gauss</text>
<text text-anchor="middle" x="791.586" y="-186.5" font-family="Helvetica,sans-Serif" font-size="10.00">_str.h</text>
</a>
</g>
</g>
<!-- Node14&#45;&gt;Node15 -->
<g id="edge14" class="edge"><title>Node14&#45;&gt;Node15</title>
<path fill="none" stroke="midnightblue" d="M785.404,-241.739C784.505,-231.487 784.674,-219.001 785.91,-209.589"/>
<polygon fill="midnightblue" stroke="midnightblue" points="781.95,-242.313 786.798,-251.734 788.883,-241.346 781.95,-242.313"/>
</g>
<!-- Node16 -->
<g id="node16" class="node"><title>Node16</title>
<g id="a_node16"><a xlink:href="sieve__gauss_8h.html" target="_top" xlink:title="fplll/sieve/sieve_gauss.h">
<polygon fill="white" stroke="black" points="772.586,-123.5 772.586,-142.5 896.586,-142.5 896.586,-123.5 772.586,-123.5"/>
<text text-anchor="middle" x="834.586" y="-130.5" font-family="Helvetica,sans-Serif" font-size="10.00">fplll/sieve/sieve_gauss.h</text>
</a>
</g>
</g>
<!-- Node14&#45;&gt;Node16 -->
<g id="edge26" class="edge"><title>Node14&#45;&gt;Node16</title>
<path fill="none" stroke="midnightblue" d="M820.275,-246.933C834.591,-238.492 850.537,-226.147 858.586,-210 870.068,-186.967 852.196,-157.284 841.564,-142.773"/>
<polygon fill="midnightblue" stroke="midnightblue" points="818.281,-244.034 811.202,-251.917 821.651,-250.17 818.281,-244.034"/>
</g>
<!-- Node15&#45;&gt;Node14 -->
<g id="edge15" class="edge"><title>Node15&#45;&gt;Node14</title>
<path fill="none" stroke="midnightblue" d="M798.137,-219.714C798.686,-230.923 798.099,-243.541 796.375,-251.734"/>
<polygon fill="midnightblue" stroke="midnightblue" points="801.61,-219.251 797.263,-209.589 794.636,-219.853 801.61,-219.251"/>
</g>
<!-- Node15&#45;&gt;Node16 -->
<g id="edge16" class="edge"><title>Node15&#45;&gt;Node16</title>
<path fill="none" stroke="midnightblue" d="M807.771,-171.104C814.939,-161.187 822.946,-150.106 828.329,-142.658"/>
<polygon fill="midnightblue" stroke="midnightblue" points="804.797,-169.244 801.777,-179.399 810.471,-173.344 804.797,-169.244"/>
</g>
<!-- Node17 -->
<g id="node17" class="node"><title>Node17</title>
<g id="a_node17"><a xlink:href="sieve__gauss_8cpp.html" target="_top" xlink:title="fplll/sieve/sieve_gauss.cpp">
<polygon fill="white" stroke="black" points="700.586,-0.5 700.586,-19.5 834.586,-19.5 834.586,-0.5 700.586,-0.5"/>
<text text-anchor="middle" x="767.586" y="-7.5" font-family="Helvetica,sans-Serif" font-size="10.00">fplll/sieve/sieve_gauss.cpp</text>
</a>
</g>
</g>
<!-- Node16&#45;&gt;Node17 -->
<g id="edge17" class="edge"><title>Node16&#45;&gt;Node17</title>
<path fill="none" stroke="midnightblue" d="M866.428,-118.942C879.826,-111.665 894.036,-101.166 901.586,-87 908.066,-74.8413 909.63,-67.1861 901.586,-56 886.113,-34.4816 859.846,-23.1103 834.647,-17.1543"/>
<polygon fill="midnightblue" stroke="midnightblue" points="864.752,-115.867 857.375,-123.471 867.884,-122.128 864.752,-115.867"/>
</g>
<!-- Node18 -->
<g id="node18" class="node"><title>Node18</title>
<g id="a_node18"><a xlink:href="sieve__gauss__2sieve_8cpp.html" target="_top" xlink:title="fplll/sieve/sieve_gauss\l_2sieve.cpp">
<polygon fill="white" stroke="black" points="508.586,-56.5 508.586,-86.5 624.586,-86.5 624.586,-56.5 508.586,-56.5"/>
<text text-anchor="start" x="516.586" y="-74.5" font-family="Helvetica,sans-Serif" font-size="10.00">fplll/sieve/sieve_gauss</text>
<text text-anchor="middle" x="566.586" y="-63.5" font-family="Helvetica,sans-Serif" font-size="10.00">_2sieve.cpp</text>
</a>
</g>
</g>
<!-- Node16&#45;&gt;Node18 -->
<g id="edge18" class="edge"><title>Node16&#45;&gt;Node18</title>
<path fill="none" stroke="midnightblue" d="M786.3,-121.28C740.927,-111.206 672.961,-96.1167 624.65,-85.3911"/>
<polygon fill="midnightblue" stroke="midnightblue" points="785.667,-124.724 796.188,-123.475 787.185,-117.891 785.667,-124.724"/>
</g>
<!-- Node19 -->
<g id="node19" class="node"><title>Node19</title>
<g id="a_node19"><a xlink:href="sieve__gauss__3sieve_8cpp.html" target="_top" xlink:title="fplll/sieve/sieve_gauss\l_3sieve.cpp">
<polygon fill="white" stroke="black" points="642.586,-56.5 642.586,-86.5 758.586,-86.5 758.586,-56.5 642.586,-56.5"/>
<text text-anchor="start" x="650.586" y="-74.5" font-family="Helvetica,sans-Serif" font-size="10.00">fplll/sieve/sieve_gauss</text>
<text text-anchor="middle" x="700.586" y="-63.5" font-family="Helvetica,sans-Serif" font-size="10.00">_3sieve.cpp</text>
</a>
</g>
</g>
<!-- Node16&#45;&gt;Node19 -->
<g id="edge20" class="edge"><title>Node16&#45;&gt;Node19</title>
<path fill="none" stroke="midnightblue" d="M806.053,-119.331C784.373,-109.704 754.564,-96.468 732.167,-86.523"/>
<polygon fill="midnightblue" stroke="midnightblue" points="804.827,-122.616 815.387,-123.475 807.668,-116.218 804.827,-122.616"/>
</g>
<!-- Node20 -->
<g id="node20" class="node"><title>Node20</title>
<g id="a_node20"><a xlink:href="sieve__gauss__4sieve_8cpp.html" target="_top" xlink:title="fplll/sieve/sieve_gauss\l_4sieve.cpp">
<polygon fill="white" stroke="black" points="776.586,-56.5 776.586,-86.5 892.586,-86.5 892.586,-56.5 776.586,-56.5"/>
<text text-anchor="start" x="784.586" y="-74.5" font-family="Helvetica,sans-Serif" font-size="10.00">fplll/sieve/sieve_gauss</text>
<text text-anchor="middle" x="834.586" y="-63.5" font-family="Helvetica,sans-Serif" font-size="10.00">_4sieve.cpp</text>
</a>
</g>
</g>
<!-- Node16&#45;&gt;Node20 -->
<g id="edge22" class="edge"><title>Node16&#45;&gt;Node20</title>
<path fill="none" stroke="midnightblue" d="M834.586,-113.235C834.586,-104.586 834.586,-94.4969 834.586,-86.523"/>
<polygon fill="midnightblue" stroke="midnightblue" points="831.086,-113.475 834.586,-123.475 838.086,-113.475 831.086,-113.475"/>
</g>
<!-- Node21 -->
<g id="node21" class="node"><title>Node21</title>
<g id="a_node21"><a xlink:href="sieve__main_8h.html" target="_top" xlink:title="fplll/sieve/sieve_main.h">
<polygon fill="white" stroke="black" points="949.086,-62 949.086,-81 1068.09,-81 1068.09,-62 949.086,-62"/>
<text text-anchor="middle" x="1008.59" y="-69" font-family="Helvetica,sans-Serif" font-size="10.00">fplll/sieve/sieve_main.h</text>
</a>
</g>
</g>
<!-- Node16&#45;&gt;Node21 -->
<g id="edge24" class="edge"><title>Node16&#45;&gt;Node21</title>
<path fill="none" stroke="midnightblue" d="M869,-120.232C902.823,-108.666 953.618,-91.2966 983.702,-81.0091"/>
<polygon fill="midnightblue" stroke="midnightblue" points="867.846,-116.928 859.516,-123.475 870.111,-123.551 867.846,-116.928"/>
</g>
<!-- Node18&#45;&gt;Node17 -->
<g id="edge19" class="edge"><title>Node18&#45;&gt;Node17</title>
<path fill="none" stroke="midnightblue" d="M623.785,-53.5681C661.377,-42.44 708.964,-28.3534 738.85,-19.5064"/>
<polygon fill="midnightblue" stroke="midnightblue" points="622.561,-50.2801 613.966,-56.4747 624.548,-56.9922 622.561,-50.2801"/>
</g>
<!-- Node19&#45;&gt;Node17 -->
<g id="edge21" class="edge"><title>Node19&#45;&gt;Node17</title>
<path fill="none" stroke="midnightblue" d="M724.124,-49.5972C735.702,-39.3153 749.026,-27.4824 757.837,-19.6578"/>
<polygon fill="midnightblue" stroke="midnightblue" points="721.617,-47.1421 716.464,-56.3993 726.265,-52.3761 721.617,-47.1421"/>
</g>
<!-- Node20&#45;&gt;Node17 -->
<g id="edge23" class="edge"><title>Node20&#45;&gt;Node17</title>
<path fill="none" stroke="midnightblue" d="M811.049,-49.5972C799.471,-39.3153 786.146,-27.4824 777.335,-19.6578"/>
<polygon fill="midnightblue" stroke="midnightblue" points="808.907,-52.3761 818.708,-56.3993 813.555,-47.1421 808.907,-52.3761"/>
</g>
<!-- Node22 -->
<g id="node22" class="node"><title>Node22</title>
<g id="a_node22"><a xlink:href="sieve__main_8cpp.html" target="_top" xlink:title="fplll/sieve/sieve_main.cpp">
<polygon fill="white" stroke="black" points="944.086,-0.5 944.086,-19.5 1073.09,-19.5 1073.09,-0.5 944.086,-0.5"/>
<text text-anchor="middle" x="1008.59" y="-7.5" font-family="Helvetica,sans-Serif" font-size="10.00">fplll/sieve/sieve_main.cpp</text>
</a>
</g>
</g>
<!-- Node21&#45;&gt;Node22 -->
<g id="edge25" class="edge"><title>Node21&#45;&gt;Node22</title>
<path fill="none" stroke="midnightblue" d="M1008.59,-51.8165C1008.59,-40.9962 1008.59,-27.898 1008.59,-19.5091"/>
<polygon fill="midnightblue" stroke="midnightblue" points="1005.09,-51.9751 1008.59,-61.9751 1012.09,-51.9751 1005.09,-51.9751"/>
</g>
<!-- Node28&#45;&gt;Node5 -->
<g id="edge34" class="edge"><title>Node28&#45;&gt;Node5</title>
<path fill="none" stroke="midnightblue" d="M371.396,-487.726C390.839,-477.727 416.935,-464.307 433.758,-455.655"/>
<polygon fill="midnightblue" stroke="midnightblue" points="369.748,-484.638 362.456,-492.324 372.95,-490.863 369.748,-484.638"/>
</g>
<!-- Node28&#45;&gt;Node6 -->
<g id="edge35" class="edge"><title>Node28&#45;&gt;Node6</title>
<path fill="none" stroke="midnightblue" d="M309.857,-488.599C283.365,-477.257 254.014,-458.798 267.586,-436 278.571,-417.55 300.047,-406.199 318.402,-399.512"/>
<polygon fill="midnightblue" stroke="midnightblue" points="308.82,-491.954 319.403,-492.45 311.439,-485.463 308.82,-491.954"/>
</g>
<!-- Node29 -->
<g id="node29" class="node"><title>Node29</title>
<g id="a_node29"><a xlink:href="enumerate_8cpp.html" target="_top" xlink:title="fplll/enum/enumerate.cpp">
<polygon fill="white" stroke="black" points="276.586,-436.5 276.586,-455.5 402.586,-455.5 402.586,-436.5 276.586,-436.5"/>
<text text-anchor="middle" x="339.586" y="-443.5" font-family="Helvetica,sans-Serif" font-size="10.00">fplll/enum/enumerate.cpp</text>
</a>
</g>
</g>
<!-- Node28&#45;&gt;Node29 -->
<g id="edge36" class="edge"><title>Node28&#45;&gt;Node29</title>
<path fill="none" stroke="midnightblue" d="M343.486,-482.101C342.49,-473.136 341.348,-462.858 340.558,-455.751"/>
<polygon fill="midnightblue" stroke="midnightblue" points="340.012,-482.531 344.595,-492.083 346.97,-481.758 340.012,-482.531"/>
</g>
<!-- Node30 -->
<g id="node30" class="node"><title>Node30</title>
<g id="a_node30"><a xlink:href="svpcvp_8cpp.html" target="_top" xlink:title="fplll/svpcvp.cpp">
<polygon fill="white" stroke="black" points="135.086,-436.5 135.086,-455.5 220.086,-455.5 220.086,-436.5 135.086,-436.5"/>
<text text-anchor="middle" x="177.586" y="-443.5" font-family="Helvetica,sans-Serif" font-size="10.00">fplll/svpcvp.cpp</text>
</a>
</g>
</g>
<!-- Node28&#45;&gt;Node30 -->
<g id="edge37" class="edge"><title>Node28&#45;&gt;Node30</title>
<path fill="none" stroke="midnightblue" d="M309.2,-489.304C277.544,-479.129 232.418,-464.625 204.082,-455.516"/>
<polygon fill="midnightblue" stroke="midnightblue" points="308.375,-492.715 318.966,-492.444 310.517,-486.051 308.375,-492.715"/>
</g>
<!-- Node30&#45;&gt;Node8 -->
<g id="edge38" class="edge"><title>Node30&#45;&gt;Node8</title>
<path fill="none" stroke="midnightblue" d="M199.846,-430.717C237.576,-406.506 312.997,-358.112 343.9,-338.282"/>
<polygon fill="midnightblue" stroke="midnightblue" points="197.642,-427.972 191.115,-436.319 201.422,-433.864 197.642,-427.972"/>
</g>
<!-- Node32&#45;&gt;Node30 -->
<g id="edge42" class="edge"><title>Node32&#45;&gt;Node30</title>
<path fill="none" stroke="midnightblue" d="M42.038,-544.024C17.361,-531.675 -10.9149,-512.049 4.58615,-492 20.389,-471.561 88.8162,-458.673 134.73,-452.16"/>
<polygon fill="midnightblue" stroke="midnightblue" points="40.6863,-547.257 51.2208,-548.387 43.6901,-540.934 40.6863,-547.257"/>
</g>
<!-- Node33 -->
<g id="node33" class="node"><title>Node33</title>
<g id="a_node33"><a xlink:href="topenum_8cpp.html" target="_top" xlink:title="fplll/enum/topenum.cpp">
<polygon fill="white" stroke="black" points="13.5861,-492.5 13.5861,-511.5 131.586,-511.5 131.586,-492.5 13.5861,-492.5"/>
<text text-anchor="middle" x="72.5861" y="-499.5" font-family="Helvetica,sans-Serif" font-size="10.00">fplll/enum/topenum.cpp</text>
</a>
</g>
</g>
<!-- Node32&#45;&gt;Node33 -->
<g id="edge41" class="edge"><title>Node32&#45;&gt;Node33</title>
<path fill="none" stroke="midnightblue" d="M72.5861,-537.805C72.5861,-528.91 72.5861,-518.78 72.5861,-511.751"/>
<polygon fill="midnightblue" stroke="midnightblue" points="69.0862,-538.083 72.5861,-548.083 76.0862,-538.083 69.0862,-538.083"/>
</g>
<!-- Node34&#45;&gt;Node7 -->
<g id="edge45" class="edge"><title>Node34&#45;&gt;Node7</title>
<path fill="none" stroke="midnightblue" d="M500.591,-482.089C504.759,-467.215 512.818,-447.194 527.586,-436 563.546,-408.743 698.128,-396.788 758.252,-392.726"/>
<polygon fill="midnightblue" stroke="midnightblue" points="497.087,-481.684 498.115,-492.229 503.887,-483.344 497.087,-481.684"/>
</g>
<!-- Node34&#45;&gt;Node30 -->
<g id="edge46" class="edge"><title>Node34&#45;&gt;Node30</title>
<path fill="none" stroke="midnightblue" d="M449.47,-493.024C387.549,-482.542 279.688,-464.284 220.131,-454.202"/>
<polygon fill="midnightblue" stroke="midnightblue" points="448.925,-496.482 459.368,-494.7 450.093,-489.58 448.925,-496.482"/>
</g>
<!-- Node40&#45;&gt;Node2 -->
<g id="edge53" class="edge"><title>Node40&#45;&gt;Node2</title>
<path fill="none" stroke="midnightblue" d="M672.044,-633.691C672.692,-642.635 672.262,-652.927 670.752,-660.083"/>
<polygon fill="midnightblue" stroke="midnightblue" points="675.509,-633.2 670.717,-623.751 668.571,-634.126 675.509,-633.2"/>
</g>
<!-- Node41&#45;&gt;Node28 -->
<g id="edge55" class="edge"><title>Node41&#45;&gt;Node28</title>
<path fill="none" stroke="midnightblue" d="M824.642,-552.844C733.603,-543.372 510.392,-520.147 403.924,-509.07"/>
<polygon fill="midnightblue" stroke="midnightblue" points="824.51,-556.349 834.818,-553.903 825.234,-549.387 824.51,-556.349"/>
</g>
<!-- Node42 -->
<g id="node42" class="node"><title>Node42</title>
<g id="a_node42"><a xlink:href="lll_8h.html" target="_top" xlink:title="fplll/lll.h">
<polygon fill="white" stroke="black" points="594.586,-492.5 594.586,-511.5 644.586,-511.5 644.586,-492.5 594.586,-492.5"/>
<text text-anchor="middle" x="619.586" y="-499.5" font-family="Helvetica,sans-Serif" font-size="10.00">fplll/lll.h</text>
</a>
</g>
</g>
<!-- Node41&#45;&gt;Node42 -->
<g id="edge56" class="edge"><title>Node41&#45;&gt;Node42</title>
<path fill="none" stroke="midnightblue" d="M825.068,-548.29C774.25,-537.089 687.475,-517.963 644.799,-508.557"/>
<polygon fill="midnightblue" stroke="midnightblue" points="824.514,-551.752 835.033,-550.486 826.021,-544.916 824.514,-551.752"/>
</g>
<!-- Node43 -->
<g id="node43" class="node"><title>Node43</title>
<g id="a_node43"><a xlink:href="pruner_8h.html" target="_top" xlink:title="fplll/pruner.h">
<polygon fill="white" stroke="black" points="892.586,-492.5 892.586,-511.5 962.586,-511.5 962.586,-492.5 892.586,-492.5"/>
<text text-anchor="middle" x="927.586" y="-499.5" font-family="Helvetica,sans-Serif" font-size="10.00">fplll/pruner.h</text>
</a>
</g>
</g>
<!-- Node41&#45;&gt;Node43 -->
<g id="edge60" class="edge"><title>Node41&#45;&gt;Node43</title>
<path fill="none" stroke="midnightblue" d="M882.626,-541.537C893.859,-531.909 907.905,-519.869 917.28,-511.834"/>
<polygon fill="midnightblue" stroke="midnightblue" points="880.023,-539.159 874.708,-548.324 884.579,-544.473 880.023,-539.159"/>
</g>
<!-- Node44 -->
<g id="node44" class="node"><title>Node44</title>
<g id="a_node44"><a xlink:href="pruner_8cpp.html" target="_top" xlink:title="fplll/pruner.cpp">
<polygon fill="white" stroke="black" points="834.586,-436.5 834.586,-455.5 914.586,-455.5 914.586,-436.5 834.586,-436.5"/>
<text text-anchor="middle" x="874.586" y="-443.5" font-family="Helvetica,sans-Serif" font-size="10.00">fplll/pruner.cpp</text>
</a>
</g>
</g>
<!-- Node41&#45;&gt;Node44 -->
<g id="edge65" class="edge"><title>Node41&#45;&gt;Node44</title>
<path fill="none" stroke="midnightblue" d="M866.282,-538.348C868.472,-514.254 872.195,-473.308 873.805,-455.591"/>
<polygon fill="midnightblue" stroke="midnightblue" points="862.791,-538.093 865.371,-548.368 869.762,-538.726 862.791,-538.093"/>
</g>
<!-- Node45 -->
<g id="node45" class="node"><title>Node45</title>
<g id="a_node45"><a xlink:href="gso_8cpp.html" target="_top" xlink:title="fplll/gso.cpp">
<polygon fill="white" stroke="black" points="1070.09,-380.5 1070.09,-399.5 1139.09,-399.5 1139.09,-380.5 1070.09,-380.5"/>
<text text-anchor="middle" x="1104.59" y="-387.5" font-family="Helvetica,sans-Serif" font-size="10.00">fplll/gso.cpp</text>
</a>
</g>
</g>
<!-- Node41&#45;&gt;Node45 -->
<g id="edge63" class="edge"><title>Node41&#45;&gt;Node45</title>
<path fill="none" stroke="midnightblue" d="M901.465,-545.024C922.831,-537.24 949.737,-525.948 971.586,-512 1025.26,-477.735 1077.85,-421.244 1097,-399.708"/>
<polygon fill="midnightblue" stroke="midnightblue" points="900.032,-541.818 891.774,-548.455 902.368,-548.417 900.032,-541.818"/>
</g>
<!-- Node42&#45;&gt;Node5 -->
<g id="edge57" class="edge"><title>Node42&#45;&gt;Node5</title>
<path fill="none" stroke="midnightblue" d="M584.499,-489.789C552.675,-479.62 506.434,-464.845 477.459,-455.587"/>
<polygon fill="midnightblue" stroke="midnightblue" points="583.694,-493.206 594.285,-492.916 585.825,-486.538 583.694,-493.206"/>
</g>
<!-- Node42&#45;&gt;Node36 -->
<g id="edge58" class="edge"><title>Node42&#45;&gt;Node36</title>
<path fill="none" stroke="midnightblue" d="M603.605,-484.718C594.264,-475.2 582.84,-463.561 575.175,-455.751"/>
<polygon fill="midnightblue" stroke="midnightblue" points="601.332,-487.398 610.834,-492.083 606.327,-482.494 601.332,-487.398"/>
</g>
<!-- Node42&#45;&gt;Node39 -->
<g id="edge59" class="edge"><title>Node42&#45;&gt;Node39</title>
<path fill="none" stroke="midnightblue" d="M631.968,-483.855C638.722,-474.505 646.795,-463.327 652.266,-455.751"/>
<polygon fill="midnightblue" stroke="midnightblue" points="629.044,-481.927 626.026,-492.083 634.719,-486.025 629.044,-481.927"/>
</g>
<!-- Node43&#45;&gt;Node7 -->
<g id="edge61" class="edge"><title>Node43&#45;&gt;Node7</title>
<path fill="none" stroke="midnightblue" d="M931.617,-482.316C933.545,-468.165 933.603,-449.004 923.586,-436 898.393,-403.294 848.688,-394.082 816.853,-391.648"/>
<polygon fill="midnightblue" stroke="midnightblue" points="928.133,-481.92 929.827,-492.378 935.025,-483.146 928.133,-481.92"/>
</g>
<!-- Node43&#45;&gt;Node44 -->
<g id="edge62" class="edge"><title>Node43&#45;&gt;Node44</title>
<path fill="none" stroke="midnightblue" d="M911.605,-484.718C902.264,-475.2 890.84,-463.561 883.175,-455.751"/>
<polygon fill="midnightblue" stroke="midnightblue" points="909.332,-487.398 918.834,-492.083 914.327,-482.494 909.332,-487.398"/>
</g>
<!-- Node45&#45;&gt;Node11 -->
<g id="edge64" class="edge"><title>Node45&#45;&gt;Node11</title>
<path fill="none" stroke="midnightblue" d="M1117.87,-372.53C1125.22,-363.417 1134.26,-352.214 1141.27,-343.523"/>
<polygon fill="midnightblue" stroke="midnightblue" points="1115.02,-370.494 1111.46,-380.475 1120.47,-374.89 1115.02,-370.494"/>
</g>
<!-- Node46&#45;&gt;Node7 -->
<g id="edge67" class="edge"><title>Node46&#45;&gt;Node7</title>
<path fill="none" stroke="midnightblue" d="M747.442,-482.998C757.915,-458.997 776.036,-417.468 783.837,-399.591"/>
<polygon fill="midnightblue" stroke="midnightblue" points="744.144,-481.803 743.353,-492.368 750.56,-484.603 744.144,-481.803"/>
</g>
<!-- Node46&#45;&gt;Node8 -->
<g id="edge68" class="edge"><title>Node46&#45;&gt;Node8</title>
<path fill="none" stroke="midnightblue" d="M736.119,-482.565C732.442,-467.968 725.208,-448.088 711.586,-436 603.775,-340.324 538.015,-387.481 400.586,-344 394.727,-342.146 388.447,-340.076 382.546,-338.093"/>
<polygon fill="midnightblue" stroke="midnightblue" points="732.732,-483.458 738.285,-492.481 739.571,-481.964 732.732,-483.458"/>
</g>
<!-- Node46&#45;&gt;Node39 -->
<g id="edge69" class="edge"><title>Node46&#45;&gt;Node39</title>
<path fill="none" stroke="midnightblue" d="M718.019,-486.622C703.222,-476.757 684.074,-463.992 671.568,-455.655"/>
<polygon fill="midnightblue" stroke="midnightblue" points="716.31,-489.689 726.572,-492.324 720.193,-483.865 716.31,-489.689"/>
</g>
</g>
</svg>
