<?xml version="1.0" encoding="UTF-8" standalone="no"?>
<!DOCTYPE svg PUBLIC "-//W3C//DTD SVG 1.1//EN"
 "http://www.w3.org/Graphics/SVG/1.1/DTD/svg11.dtd">
<!-- Generated by graphviz version 2.38.0 (20140413.2041)
 -->
<!-- Title: fplll/nr/numvect.h Pages: 1 -->
<svg width="1493pt" height="520pt"
 viewBox="0.00 0.00 1492.94 520.00" xmlns="http://www.w3.org/2000/svg" xmlns:xlink="http://www.w3.org/1999/xlink">
<g id="graph0" class="graph" transform="scale(1 1) rotate(0) translate(4 516)">
<title>fplll/nr/numvect.h</title>
<polygon fill="white" stroke="none" points="-4,4 -4,-516 1488.94,-516 1488.94,4 -4,4"/>
<!-- Node1 -->
<g id="node1" class="node"><title>Node1</title>
<polygon fill="#bfbfbf" stroke="black" points="724.939,-492.5 724.939,-511.5 816.939,-511.5 816.939,-492.5 724.939,-492.5"/>
<text text-anchor="middle" x="770.939" y="-499.5" font-family="Helvetica,sans-Serif" font-size="10.00">fplll/nr/numvect.h</text>
</g>
<!-- Node2 -->
<g id="node2" class="node"><title>Node2</title>
<g id="a_node2"><a xlink:href="matrix_8h.html" target="_top" xlink:title="fplll/nr/matrix.h">
<polygon fill="white" stroke="black" points="730.439,-436.5 730.439,-455.5 811.439,-455.5 811.439,-436.5 730.439,-436.5"/>
<text text-anchor="middle" x="770.939" y="-443.5" font-family="Helvetica,sans-Serif" font-size="10.00">fplll/nr/matrix.h</text>
</a>
</g>
</g>
<!-- Node1&#45;&gt;Node2 -->
<g id="edge1" class="edge"><title>Node1&#45;&gt;Node2</title>
<path fill="none" stroke="midnightblue" d="M770.939,-481.805C770.939,-472.91 770.939,-462.78 770.939,-455.751"/>
<polygon fill="midnightblue" stroke="midnightblue" points="767.439,-482.083 770.939,-492.083 774.439,-482.083 767.439,-482.083"/>
</g>
<!-- Node3 -->
<g id="node3" class="node"><title>Node3</title>
<g id="a_node3"><a xlink:href="util_8h.html" target="_top" xlink:title="fplll/util.h">
<polygon fill="white" stroke="black" points="450.939,-380.5 450.939,-399.5 506.939,-399.5 506.939,-380.5 450.939,-380.5"/>
<text text-anchor="middle" x="478.939" y="-387.5" font-family="Helvetica,sans-Serif" font-size="10.00">fplll/util.h</text>
</a>
</g>
</g>
<!-- Node2&#45;&gt;Node3 -->
<g id="edge2" class="edge"><title>Node2&#45;&gt;Node3</title>
<path fill="none" stroke="midnightblue" d="M720.434,-435.66C658.786,-424.259 556.672,-405.375 507.344,-396.253"/>
<polygon fill="midnightblue" stroke="midnightblue" points="719.868,-439.115 730.338,-437.492 721.141,-432.231 719.868,-439.115"/>
</g>
<!-- Node30 -->
<g id="node30" class="node"><title>Node30</title>
<g id="a_node30"><a xlink:href="matrix_8cpp.html" target="_top" xlink:title="fplll/nr/matrix.cpp">
<polygon fill="white" stroke="black" points="687.939,-380.5 687.939,-399.5 779.939,-399.5 779.939,-380.5 687.939,-380.5"/>
<text text-anchor="middle" x="733.939" y="-387.5" font-family="Helvetica,sans-Serif" font-size="10.00">fplll/nr/matrix.cpp</text>
</a>
</g>
</g>
<!-- Node2&#45;&gt;Node30 -->
<g id="edge37" class="edge"><title>Node2&#45;&gt;Node30</title>
<path fill="none" stroke="midnightblue" d="M753.082,-428.144C745.776,-418.736 738.405,-407.405 734.804,-399.751"/>
<polygon fill="midnightblue" stroke="midnightblue" points="750.587,-430.618 759.663,-436.083 755.976,-426.15 750.587,-430.618"/>
</g>
<!-- Node31 -->
<g id="node31" class="node"><title>Node31</title>
<g id="a_node31"><a xlink:href="gso_8h.html" target="_top" xlink:title="fplll/gso.h">
<polygon fill="white" stroke="black" points="879.439,-380.5 879.439,-399.5 938.439,-399.5 938.439,-380.5 879.439,-380.5"/>
<text text-anchor="middle" x="908.939" y="-387.5" font-family="Helvetica,sans-Serif" font-size="10.00">fplll/gso.h</text>
</a>
</g>
</g>
<!-- Node2&#45;&gt;Node31 -->
<g id="edge39" class="edge"><title>Node2&#45;&gt;Node31</title>
<path fill="none" stroke="midnightblue" d="M802.189,-432.772C828.11,-422.629 864.302,-408.467 887.175,-399.516"/>
<polygon fill="midnightblue" stroke="midnightblue" points="800.843,-429.54 792.806,-436.444 803.394,-436.059 800.843,-429.54"/>
</g>
<!-- Node37 -->
<g id="node37" class="node"><title>Node37</title>
<g id="a_node37"><a xlink:href="sampler__basic_8h.html" target="_top" xlink:title="fplll/sieve/sampler\l_basic.h">
<polygon fill="white" stroke="black" points="1122.44,-313.5 1122.44,-343.5 1217.44,-343.5 1217.44,-313.5 1122.44,-313.5"/>
<text text-anchor="start" x="1130.44" y="-331.5" font-family="Helvetica,sans-Serif" font-size="10.00">fplll/sieve/sampler</text>
<text text-anchor="middle" x="1169.94" y="-320.5" font-family="Helvetica,sans-Serif" font-size="10.00">_basic.h</text>
</a>
</g>
</g>
<!-- Node2&#45;&gt;Node37 -->
<g id="edge75" class="edge"><title>Node2&#45;&gt;Node37</title>
<path fill="none" stroke="midnightblue" d="M816.921,-433.989C852.543,-425.28 903.054,-412.537 946.939,-400 1010.38,-381.876 1083.14,-358.355 1127.82,-343.591"/>
<polygon fill="midnightblue" stroke="midnightblue" points="815.716,-430.68 806.828,-436.447 817.372,-437.482 815.716,-430.68"/>
</g>
<!-- Node48 -->
<g id="node48" class="node"><title>Node48</title>
<g id="a_node48"><a xlink:href="wrapper_8h.html" target="_top" xlink:title="fplll/wrapper.h">
<polygon fill="white" stroke="black" points="616.439,-185 616.439,-204 693.439,-204 693.439,-185 616.439,-185"/>
<text text-anchor="middle" x="654.939" y="-192" font-family="Helvetica,sans-Serif" font-size="10.00">fplll/wrapper.h</text>
</a>
</g>
</g>
<!-- Node2&#45;&gt;Node48 -->
<g id="edge69" class="edge"><title>Node2&#45;&gt;Node48</title>
<path fill="none" stroke="midnightblue" d="M781.546,-427.175C787.989,-414.043 794.07,-395.797 788.939,-380 763.5,-301.685 690.939,-228.833 664.622,-204.267"/>
<polygon fill="midnightblue" stroke="midnightblue" points="778.401,-425.633 776.727,-436.095 784.56,-428.96 778.401,-425.633"/>
</g>
<!-- Node4 -->
<g id="node4" class="node"><title>Node4</title>
<g id="a_node4"><a xlink:href="evaluator_8h.html" target="_top" xlink:title="fplll/enum/evaluator.h">
<polygon fill="white" stroke="black" points="317.939,-319 317.939,-338 427.939,-338 427.939,-319 317.939,-319"/>
<text text-anchor="middle" x="372.939" y="-326" font-family="Helvetica,sans-Serif" font-size="10.00">fplll/enum/evaluator.h</text>
</a>
</g>
</g>
<!-- Node3&#45;&gt;Node4 -->
<g id="edge3" class="edge"><title>Node3&#45;&gt;Node4</title>
<path fill="none" stroke="midnightblue" d="M454.989,-375.556C434.476,-364.042 405.56,-347.811 388.098,-338.009"/>
<polygon fill="midnightblue" stroke="midnightblue" points="453.319,-378.632 463.752,-380.475 456.745,-372.528 453.319,-378.632"/>
</g>
<!-- Node6 -->
<g id="node6" class="node"><title>Node6</title>
<g id="a_node6"><a xlink:href="bkz_8cpp.html" target="_top" xlink:title="fplll/bkz.cpp">
<polygon fill="white" stroke="black" points="285.439,-123.5 285.439,-142.5 354.439,-142.5 354.439,-123.5 285.439,-123.5"/>
<text text-anchor="middle" x="319.939" y="-130.5" font-family="Helvetica,sans-Serif" font-size="10.00">fplll/bkz.cpp</text>
</a>
</g>
</g>
<!-- Node3&#45;&gt;Node6 -->
<g id="edge24" class="edge"><title>Node3&#45;&gt;Node6</title>
<path fill="none" stroke="midnightblue" d="M440.764,-389.173C367.689,-388.605 212.31,-382.75 178.939,-344 150.517,-310.996 160.003,-285.224 178.939,-246 204.355,-193.354 267.875,-157.859 300.27,-142.55"/>
<polygon fill="midnightblue" stroke="midnightblue" points="440.908,-392.674 450.924,-389.222 440.941,-385.674 440.908,-392.674"/>
</g>
<!-- Node7 -->
<g id="node7" class="node"><title>Node7</title>
<g id="a_node7"><a xlink:href="fplll_8h.html" target="_top" xlink:title="fplll/fplll.h">
<polygon fill="white" stroke="black" points="501.939,-123.5 501.939,-142.5 559.939,-142.5 559.939,-123.5 501.939,-123.5"/>
<text text-anchor="middle" x="530.939" y="-130.5" font-family="Helvetica,sans-Serif" font-size="10.00">fplll/fplll.h</text>
</a>
</g>
</g>
<!-- Node3&#45;&gt;Node7 -->
<g id="edge28" class="edge"><title>Node3&#45;&gt;Node7</title>
<path fill="none" stroke="midnightblue" d="M517.125,-383.231C558.313,-376.136 619.901,-362.693 633.939,-344 668.066,-298.557 638.288,-288.056 567.939,-179 559.167,-165.401 546.907,-151.223 538.945,-142.501"/>
<polygon fill="midnightblue" stroke="midnightblue" points="516.422,-379.8 507.134,-384.897 517.574,-386.704 516.422,-379.8"/>
</g>
<!-- Node22 -->
<g id="node22" class="node"><title>Node22</title>
<g id="a_node22"><a xlink:href="topenum_8h.html" target="_top" xlink:title="fplll/enum/topenum.h">
<polygon fill="white" stroke="black" points="19.4392,-319 19.4392,-338 126.439,-338 126.439,-319 19.4392,-319"/>
<text text-anchor="middle" x="72.9392" y="-326" font-family="Helvetica,sans-Serif" font-size="10.00">fplll/enum/topenum.h</text>
</a>
</g>
</g>
<!-- Node3&#45;&gt;Node22 -->
<g id="edge25" class="edge"><title>Node3&#45;&gt;Node22</title>
<path fill="none" stroke="midnightblue" d="M440.677,-384.609C378.631,-377.313 252.285,-361.73 145.939,-344 135.488,-342.258 124.242,-340.144 113.783,-338.075"/>
<polygon fill="midnightblue" stroke="midnightblue" points="440.445,-388.105 450.784,-385.791 441.258,-381.153 440.445,-388.105"/>
</g>
<!-- Node24 -->
<g id="node24" class="node"><title>Node24</title>
<g id="a_node24"><a xlink:href="svpcvp_8h.html" target="_top" xlink:title="fplll/svpcvp.h">
<polygon fill="white" stroke="black" points="187.939,-252 187.939,-271 261.939,-271 261.939,-252 187.939,-252"/>
<text text-anchor="middle" x="224.939" y="-259" font-family="Helvetica,sans-Serif" font-size="10.00">fplll/svpcvp.h</text>
</a>
</g>
</g>
<!-- Node3&#45;&gt;Node24 -->
<g id="edge29" class="edge"><title>Node3&#45;&gt;Node24</title>
<path fill="none" stroke="midnightblue" d="M440.741,-384.552C404.837,-379.103 350.545,-367.521 308.939,-344 291.251,-334 249.931,-289.881 232.7,-271.058"/>
<polygon fill="midnightblue" stroke="midnightblue" points="440.411,-388.04 450.806,-385.992 441.403,-381.111 440.411,-388.04"/>
</g>
<!-- Node25 -->
<g id="node25" class="node"><title>Node25</title>
<g id="a_node25"><a xlink:href="latticegen_8cpp.html" target="_top" xlink:title="fplll/latticegen.cpp">
<polygon fill="white" stroke="black" points="530.439,-319 530.439,-338 625.439,-338 625.439,-319 530.439,-319"/>
<text text-anchor="middle" x="577.939" y="-326" font-family="Helvetica,sans-Serif" font-size="10.00">fplll/latticegen.cpp</text>
</a>
</g>
</g>
<!-- Node3&#45;&gt;Node25 -->
<g id="edge32" class="edge"><title>Node3&#45;&gt;Node25</title>
<path fill="none" stroke="midnightblue" d="M501.827,-375.244C520.952,-363.75 547.619,-347.723 563.781,-338.009"/>
<polygon fill="midnightblue" stroke="midnightblue" points="499.892,-372.324 493.123,-380.475 503.498,-378.324 499.892,-372.324"/>
</g>
<!-- Node26 -->
<g id="node26" class="node"><title>Node26</title>
<g id="a_node26"><a xlink:href="lll_8cpp.html" target="_top" xlink:title="fplll/lll.cpp">
<polygon fill="white" stroke="black" points="711.939,-185 711.939,-204 771.939,-204 771.939,-185 711.939,-185"/>
<text text-anchor="middle" x="741.939" y="-192" font-family="Helvetica,sans-Serif" font-size="10.00">fplll/lll.cpp</text>
</a>
</g>
</g>
<!-- Node3&#45;&gt;Node26 -->
<g id="edge33" class="edge"><title>Node3&#45;&gt;Node26</title>
<path fill="none" stroke="midnightblue" d="M517.216,-386.324C574.69,-381.518 679.388,-369.455 705.939,-344 746.344,-305.263 744.6,-229.5 742.739,-204.062"/>
<polygon fill="midnightblue" stroke="midnightblue" points="516.752,-382.85 507.064,-387.138 517.312,-389.827 516.752,-382.85"/>
</g>
<!-- Node27 -->
<g id="node27" class="node"><title>Node27</title>
<g id="a_node27"><a xlink:href="llldiff_8cpp.html" target="_top" xlink:title="fplll/llldiff.cpp">
<polygon fill="white" stroke="black" points="187.939,-319 187.939,-338 261.939,-338 261.939,-319 187.939,-319"/>
<text text-anchor="middle" x="224.939" y="-326" font-family="Helvetica,sans-Serif" font-size="10.00">fplll/llldiff.cpp</text>
</a>
</g>
</g>
<!-- Node3&#45;&gt;Node27 -->
<g id="edge34" class="edge"><title>Node3&#45;&gt;Node27</title>
<path fill="none" stroke="midnightblue" d="M441.094,-381.306C400.204,-372.831 333.207,-358.475 275.939,-344 268.71,-342.173 260.95,-340.05 253.719,-338.002"/>
<polygon fill="midnightblue" stroke="midnightblue" points="440.405,-384.737 450.906,-383.33 441.819,-377.882 440.405,-384.737"/>
</g>
<!-- Node28 -->
<g id="node28" class="node"><title>Node28</title>
<g id="a_node28"><a xlink:href="util_8cpp.html" target="_top" xlink:title="fplll/util.cpp">
<polygon fill="white" stroke="black" points="445.939,-319 445.939,-338 511.939,-338 511.939,-319 445.939,-319"/>
<text text-anchor="middle" x="478.939" y="-326" font-family="Helvetica,sans-Serif" font-size="10.00">fplll/util.cpp</text>
</a>
</g>
</g>
<!-- Node3&#45;&gt;Node28 -->
<g id="edge35" class="edge"><title>Node3&#45;&gt;Node28</title>
<path fill="none" stroke="midnightblue" d="M478.939,-370.317C478.939,-359.496 478.939,-346.398 478.939,-338.009"/>
<polygon fill="midnightblue" stroke="midnightblue" points="475.439,-370.475 478.939,-380.475 482.439,-370.475 475.439,-370.475"/>
</g>
<!-- Node29 -->
<g id="node29" class="node"><title>Node29</title>
<g id="a_node29"><a xlink:href="wrapper_8cpp.html" target="_top" xlink:title="fplll/wrapper.cpp">
<polygon fill="white" stroke="black" points="940.939,-123.5 940.939,-142.5 1028.94,-142.5 1028.94,-123.5 940.939,-123.5"/>
<text text-anchor="middle" x="984.939" y="-130.5" font-family="Helvetica,sans-Serif" font-size="10.00">fplll/wrapper.cpp</text>
</a>
</g>
</g>
<!-- Node3&#45;&gt;Node29 -->
<g id="edge36" class="edge"><title>Node3&#45;&gt;Node29</title>
<path fill="none" stroke="midnightblue" d="M517.229,-387.729C568.065,-384.82 659.707,-375.275 730.939,-344 845.672,-293.625 949.988,-175.755 977.745,-142.735"/>
<polygon fill="midnightblue" stroke="midnightblue" points="516.83,-384.244 507.023,-388.254 517.19,-391.235 516.83,-384.244"/>
</g>
<!-- Node5 -->
<g id="node5" class="node"><title>Node5</title>
<g id="a_node5"><a xlink:href="bkz_8h.html" target="_top" xlink:title="fplll/bkz.h">
<polygon fill="white" stroke="black" points="500.439,-185 500.439,-204 559.439,-204 559.439,-185 500.439,-185"/>
<text text-anchor="middle" x="529.939" y="-192" font-family="Helvetica,sans-Serif" font-size="10.00">fplll/bkz.h</text>
</a>
</g>
</g>
<!-- Node4&#45;&gt;Node5 -->
<g id="edge4" class="edge"><title>Node4&#45;&gt;Node5</title>
<path fill="none" stroke="midnightblue" d="M419.828,-316.607C467.487,-305.065 535.376,-287.137 542.939,-277 559.391,-254.951 543.852,-220.132 535.055,-204.1"/>
<polygon fill="midnightblue" stroke="midnightblue" points="418.901,-313.23 409.994,-318.968 420.535,-320.037 418.901,-313.23"/>
</g>
<!-- Node18 -->
<g id="node18" class="node"><title>Node18</title>
<g id="a_node18"><a xlink:href="enumerate_8h.html" target="_top" xlink:title="fplll/enum/enumerate.h">
<polygon fill="white" stroke="black" points="417.939,-252 417.939,-271 533.939,-271 533.939,-252 417.939,-252"/>
<text text-anchor="middle" x="475.939" y="-259" font-family="Helvetica,sans-Serif" font-size="10.00">fplll/enum/enumerate.h</text>
</a>
</g>
</g>
<!-- Node4&#45;&gt;Node18 -->
<g id="edge17" class="edge"><title>Node4&#45;&gt;Node18</title>
<path fill="none" stroke="midnightblue" d="M395.49,-313.269C415.878,-300.403 445.231,-281.879 462.268,-271.127"/>
<polygon fill="midnightblue" stroke="midnightblue" points="393.419,-310.437 386.83,-318.734 397.155,-316.357 393.419,-310.437"/>
</g>
<!-- Node21 -->
<g id="node21" class="node"><title>Node21</title>
<g id="a_node21"><a xlink:href="evaluator_8cpp.html" target="_top" xlink:title="fplll/enum/evaluator.cpp">
<polygon fill="white" stroke="black" points="279.939,-252 279.939,-271 399.939,-271 399.939,-252 279.939,-252"/>
<text text-anchor="middle" x="339.939" y="-259" font-family="Helvetica,sans-Serif" font-size="10.00">fplll/enum/evaluator.cpp</text>
</a>
</g>
</g>
<!-- Node4&#45;&gt;Node21 -->
<g id="edge23" class="edge"><title>Node4&#45;&gt;Node21</title>
<path fill="none" stroke="midnightblue" d="M363.884,-309.663C357.52,-297.128 349.286,-280.91 344.319,-271.127"/>
<polygon fill="midnightblue" stroke="midnightblue" points="360.841,-311.402 368.489,-318.734 367.083,-308.233 360.841,-311.402"/>
</g>
<!-- Node5&#45;&gt;Node6 -->
<g id="edge5" class="edge"><title>Node5&#45;&gt;Node6</title>
<path fill="none" stroke="midnightblue" d="M498.775,-181.604C496.136,-180.691 493.498,-179.81 490.939,-179 444.259,-164.22 389.367,-150.389 354.616,-142.062"/>
<polygon fill="midnightblue" stroke="midnightblue" points="497.612,-184.905 508.206,-184.988 499.976,-178.316 497.612,-184.905"/>
</g>
<!-- Node5&#45;&gt;Node7 -->
<g id="edge6" class="edge"><title>Node5&#45;&gt;Node7</title>
<path fill="none" stroke="midnightblue" d="M530.253,-174.817C530.435,-163.996 530.655,-150.898 530.796,-142.509"/>
<polygon fill="midnightblue" stroke="midnightblue" points="526.751,-174.918 530.082,-184.975 533.75,-175.035 526.751,-174.918"/>
</g>
<!-- Node8 -->
<g id="node8" class="node"><title>Node8</title>
<g id="a_node8"><a xlink:href="fplll_8cpp.html" target="_top" xlink:title="fplll/fplll.cpp">
<polygon fill="white" stroke="black" points="54.9392,-62 54.9392,-81 122.939,-81 122.939,-62 54.9392,-62"/>
<text text-anchor="middle" x="88.9392" y="-69" font-family="Helvetica,sans-Serif" font-size="10.00">fplll/fplll.cpp</text>
</a>
</g>
</g>
<!-- Node7&#45;&gt;Node8 -->
<g id="edge7" class="edge"><title>Node7&#45;&gt;Node8</title>
<path fill="none" stroke="midnightblue" d="M491.668,-128.644C405.06,-121.068 199.958,-102.123 131.939,-87 125.172,-85.4954 117.976,-83.3118 111.446,-81.0938"/>
<polygon fill="midnightblue" stroke="midnightblue" points="491.602,-132.151 501.868,-129.531 492.209,-125.178 491.602,-132.151"/>
</g>
<!-- Node9 -->
<g id="node9" class="node"><title>Node9</title>
<g id="a_node9"><a xlink:href="main_8h.html" target="_top" xlink:title="fplll/main.h">
<polygon fill="white" stroke="black" points="356.939,-62 356.939,-81 420.939,-81 420.939,-62 356.939,-62"/>
<text text-anchor="middle" x="388.939" y="-69" font-family="Helvetica,sans-Serif" font-size="10.00">fplll/main.h</text>
</a>
</g>
</g>
<!-- Node7&#45;&gt;Node9 -->
<g id="edge8" class="edge"><title>Node7&#45;&gt;Node9</title>
<path fill="none" stroke="midnightblue" d="M501.058,-119.48C473.48,-107.924 433.271,-91.0758 409.247,-81.0091"/>
<polygon fill="midnightblue" stroke="midnightblue" points="500.018,-122.839 510.594,-123.475 502.724,-116.382 500.018,-122.839"/>
</g>
<!-- Node11 -->
<g id="node11" class="node"><title>Node11</title>
<g id="a_node11"><a xlink:href="sieve__main_8cpp.html" target="_top" xlink:title="fplll/sieve/sieve_main.cpp">
<polygon fill="white" stroke="black" points="876.439,-0.5 876.439,-19.5 1005.44,-19.5 1005.44,-0.5 876.439,-0.5"/>
<text text-anchor="middle" x="940.939" y="-7.5" font-family="Helvetica,sans-Serif" font-size="10.00">fplll/sieve/sieve_main.cpp</text>
</a>
</g>
</g>
<!-- Node7&#45;&gt;Node11 -->
<g id="edge10" class="edge"><title>Node7&#45;&gt;Node11</title>
<path fill="none" stroke="midnightblue" d="M570.131,-130.87C671.943,-127.532 938.728,-116.07 964.939,-87 982.544,-67.4753 960.797,-35.0685 948.413,-19.6566"/>
<polygon fill="midnightblue" stroke="midnightblue" points="569.843,-127.377 559.96,-131.194 570.066,-134.374 569.843,-127.377"/>
</g>
<!-- Node12 -->
<g id="node12" class="node"><title>Node12</title>
<g id="a_node12"><a xlink:href="test__bkz_8cpp.html" target="_top" xlink:title="tests/test_bkz.cpp">
<polygon fill="white" stroke="black" points="720.939,-62 720.939,-81 818.939,-81 818.939,-62 720.939,-62"/>
<text text-anchor="middle" x="769.939" y="-69" font-family="Helvetica,sans-Serif" font-size="10.00">tests/test_bkz.cpp</text>
</a>
</g>
</g>
<!-- Node7&#45;&gt;Node12 -->
<g id="edge11" class="edge"><title>Node7&#45;&gt;Node12</title>
<path fill="none" stroke="midnightblue" d="M569.889,-122.332C606.546,-113.229 662.974,-99.2074 711.939,-87 719.694,-85.0667 728.031,-82.9846 735.898,-81.0181"/>
<polygon fill="midnightblue" stroke="midnightblue" points="568.958,-118.957 560.096,-124.763 570.645,-125.75 568.958,-118.957"/>
</g>
<!-- Node13 -->
<g id="node13" class="node"><title>Node13</title>
<g id="a_node13"><a xlink:href="test__lll_8cpp.html" target="_top" xlink:title="tests/test_lll.cpp">
<polygon fill="white" stroke="black" points="141.439,-62 141.439,-81 230.439,-81 230.439,-62 141.439,-62"/>
<text text-anchor="middle" x="185.939" y="-69" font-family="Helvetica,sans-Serif" font-size="10.00">tests/test_lll.cpp</text>
</a>
</g>
</g>
<!-- Node7&#45;&gt;Node13 -->
<g id="edge12" class="edge"><title>Node7&#45;&gt;Node13</title>
<path fill="none" stroke="midnightblue" d="M491.623,-127.302C435.473,-120.28 329.224,-105.832 239.939,-87 231.961,-85.3172 223.404,-83.1775 215.508,-81.0621"/>
<polygon fill="midnightblue" stroke="midnightblue" points="491.483,-130.811 501.838,-128.566 492.343,-123.864 491.483,-130.811"/>
</g>
<!-- Node14 -->
<g id="node14" class="node"><title>Node14</title>
<g id="a_node14"><a xlink:href="test__nr_8cpp.html" target="_top" xlink:title="tests/test_nr.cpp">
<polygon fill="white" stroke="black" points="248.939,-62 248.939,-81 338.939,-81 338.939,-62 248.939,-62"/>
<text text-anchor="middle" x="293.939" y="-69" font-family="Helvetica,sans-Serif" font-size="10.00">tests/test_nr.cpp</text>
</a>
</g>
</g>
<!-- Node7&#45;&gt;Node14 -->
<g id="edge13" class="edge"><title>Node7&#45;&gt;Node14</title>
<path fill="none" stroke="midnightblue" d="M491.828,-122.637C454.735,-113.696 397.466,-99.7373 347.939,-87 340.606,-85.1141 332.729,-83.0314 325.319,-81.0468"/>
<polygon fill="midnightblue" stroke="midnightblue" points="491.191,-126.083 501.732,-125.02 492.829,-119.277 491.191,-126.083"/>
</g>
<!-- Node15 -->
<g id="node15" class="node"><title>Node15</title>
<g id="a_node15"><a xlink:href="test__pruner_8cpp.html" target="_top" xlink:title="tests/test_pruner.cpp">
<polygon fill="white" stroke="black" points="477.439,-62 477.439,-81 586.439,-81 586.439,-62 477.439,-62"/>
<text text-anchor="middle" x="531.939" y="-69" font-family="Helvetica,sans-Serif" font-size="10.00">tests/test_pruner.cpp</text>
</a>
</g>
</g>
<!-- Node7&#45;&gt;Node15 -->
<g id="edge14" class="edge"><title>Node7&#45;&gt;Node15</title>
<path fill="none" stroke="midnightblue" d="M531.253,-113.317C531.435,-102.496 531.655,-89.398 531.796,-81.0091"/>
<polygon fill="midnightblue" stroke="midnightblue" points="527.751,-113.418 531.082,-123.475 534.75,-113.535 527.751,-113.418"/>
</g>
<!-- Node16 -->
<g id="node16" class="node"><title>Node16</title>
<g id="a_node16"><a xlink:href="test__sieve_8cpp.html" target="_top" xlink:title="tests/test_sieve.cpp">
<polygon fill="white" stroke="black" points="621.439,-0.5 621.439,-19.5 726.439,-19.5 726.439,-0.5 621.439,-0.5"/>
<text text-anchor="middle" x="673.939" y="-7.5" font-family="Helvetica,sans-Serif" font-size="10.00">tests/test_sieve.cpp</text>
</a>
</g>
</g>
<!-- Node7&#45;&gt;Node16 -->
<g id="edge15" class="edge"><title>Node7&#45;&gt;Node16</title>
<path fill="none" stroke="midnightblue" d="M501.117,-118.606C488.46,-111.234 475.016,-100.753 467.939,-87 461.635,-74.7492 459.299,-66.7317 467.939,-56 486.822,-32.5473 566.496,-20.6542 621.038,-15.1486"/>
<polygon fill="midnightblue" stroke="midnightblue" points="499.626,-121.778 510.092,-123.427 502.939,-115.611 499.626,-121.778"/>
</g>
<!-- Node17 -->
<g id="node17" class="node"><title>Node17</title>
<g id="a_node17"><a xlink:href="test__svp_8cpp.html" target="_top" xlink:title="tests/test_svp.cpp">
<polygon fill="white" stroke="black" points="604.939,-62 604.939,-81 702.939,-81 702.939,-62 604.939,-62"/>
<text text-anchor="middle" x="653.939" y="-69" font-family="Helvetica,sans-Serif" font-size="10.00">tests/test_svp.cpp</text>
</a>
</g>
</g>
<!-- Node7&#45;&gt;Node17 -->
<g id="edge16" class="edge"><title>Node7&#45;&gt;Node17</title>
<path fill="none" stroke="midnightblue" d="M557.77,-119.021C581.624,-107.482 615.813,-90.9433 636.349,-81.0091"/>
<polygon fill="midnightblue" stroke="midnightblue" points="556.04,-115.97 548.562,-123.475 559.088,-122.271 556.04,-115.97"/>
</g>
<!-- Node10 -->
<g id="node10" class="node"><title>Node10</title>
<g id="a_node10"><a xlink:href="main_8cpp.html" target="_top" xlink:title="fplll/main.cpp">
<polygon fill="white" stroke="black" points="351.939,-0.5 351.939,-19.5 425.939,-19.5 425.939,-0.5 351.939,-0.5"/>
<text text-anchor="middle" x="388.939" y="-7.5" font-family="Helvetica,sans-Serif" font-size="10.00">fplll/main.cpp</text>
</a>
</g>
</g>
<!-- Node9&#45;&gt;Node10 -->
<g id="edge9" class="edge"><title>Node9&#45;&gt;Node10</title>
<path fill="none" stroke="midnightblue" d="M388.939,-51.8165C388.939,-40.9962 388.939,-27.898 388.939,-19.5091"/>
<polygon fill="midnightblue" stroke="midnightblue" points="385.439,-51.9751 388.939,-61.9751 392.439,-51.9751 385.439,-51.9751"/>
</g>
<!-- Node18&#45;&gt;Node5 -->
<g id="edge18" class="edge"><title>Node18&#45;&gt;Node5</title>
<path fill="none" stroke="midnightblue" d="M489.838,-243.77C500.366,-231.097 514.403,-214.201 522.772,-204.127"/>
<polygon fill="midnightblue" stroke="midnightblue" points="486.92,-241.805 483.222,-251.734 492.304,-246.278 486.92,-241.805"/>
</g>
<!-- Node18&#45;&gt;Node6 -->
<g id="edge19" class="edge"><title>Node18&#45;&gt;Node6</title>
<path fill="none" stroke="midnightblue" d="M436.12,-248.911C403.149,-238.612 359.716,-223.189 346.939,-210 328.428,-190.891 322.522,-158.283 320.707,-142.74"/>
<polygon fill="midnightblue" stroke="midnightblue" points="435.384,-252.346 445.971,-251.935 437.438,-245.654 435.384,-252.346"/>
</g>
<!-- Node19 -->
<g id="node19" class="node"><title>Node19</title>
<g id="a_node19"><a xlink:href="enumerate_8cpp.html" target="_top" xlink:title="fplll/enum/enumerate.cpp">
<polygon fill="white" stroke="black" points="355.939,-185 355.939,-204 481.939,-204 481.939,-185 355.939,-185"/>
<text text-anchor="middle" x="418.939" y="-192" font-family="Helvetica,sans-Serif" font-size="10.00">fplll/enum/enumerate.cpp</text>
</a>
</g>
</g>
<!-- Node18&#45;&gt;Node19 -->
<g id="edge20" class="edge"><title>Node18&#45;&gt;Node19</title>
<path fill="none" stroke="midnightblue" d="M461.588,-244.135C450.441,-231.423 435.423,-214.298 426.505,-204.127"/>
<polygon fill="midnightblue" stroke="midnightblue" points="459.027,-246.523 468.252,-251.734 464.29,-241.908 459.027,-246.523"/>
</g>
<!-- Node20 -->
<g id="node20" class="node"><title>Node20</title>
<g id="a_node20"><a xlink:href="svpcvp_8cpp.html" target="_top" xlink:title="fplll/svpcvp.cpp">
<polygon fill="white" stroke="black" points="46.4392,-185 46.4392,-204 131.439,-204 131.439,-185 46.4392,-185"/>
<text text-anchor="middle" x="88.9392" y="-192" font-family="Helvetica,sans-Serif" font-size="10.00">fplll/svpcvp.cpp</text>
</a>
</g>
</g>
<!-- Node18&#45;&gt;Node20 -->
<g id="edge21" class="edge"><title>Node18&#45;&gt;Node20</title>
<path fill="none" stroke="midnightblue" d="M428.357,-249.855C421.844,-248.5 415.234,-247.177 408.939,-246 309.979,-227.498 192.958,-210.18 131.516,-201.436"/>
<polygon fill="midnightblue" stroke="midnightblue" points="427.944,-253.346 438.453,-251.996 429.396,-246.498 427.944,-253.346"/>
</g>
<!-- Node20&#45;&gt;Node8 -->
<g id="edge22" class="edge"><title>Node20&#45;&gt;Node8</title>
<path fill="none" stroke="midnightblue" d="M88.9392,-174.488C88.9392,-147.846 88.9392,-100.495 88.9392,-81.1232"/>
<polygon fill="midnightblue" stroke="midnightblue" points="85.4393,-174.798 88.9392,-184.798 92.4393,-174.798 85.4393,-174.798"/>
</g>
<!-- Node22&#45;&gt;Node20 -->
<g id="edge27" class="edge"><title>Node22&#45;&gt;Node20</title>
<path fill="none" stroke="midnightblue" d="M43.8341,-314.033C29.3077,-305.621 13.1235,-293.272 4.9392,-277 -1.25149,-264.691 -1.84385,-257.992 4.9392,-246 16.8349,-224.969 41.3787,-211.731 60.8792,-204.112"/>
<polygon fill="midnightblue" stroke="midnightblue" points="42.5764,-317.331 53.0399,-318.994 45.8973,-311.169 42.5764,-317.331"/>
</g>
<!-- Node23 -->
<g id="node23" class="node"><title>Node23</title>
<g id="a_node23"><a xlink:href="topenum_8cpp.html" target="_top" xlink:title="fplll/enum/topenum.cpp">
<polygon fill="white" stroke="black" points="13.9392,-252 13.9392,-271 131.939,-271 131.939,-252 13.9392,-252"/>
<text text-anchor="middle" x="72.9392" y="-259" font-family="Helvetica,sans-Serif" font-size="10.00">fplll/enum/topenum.cpp</text>
</a>
</g>
</g>
<!-- Node22&#45;&gt;Node23 -->
<g id="edge26" class="edge"><title>Node22&#45;&gt;Node23</title>
<path fill="none" stroke="midnightblue" d="M72.9392,-308.537C72.9392,-296.17 72.9392,-280.62 72.9392,-271.127"/>
<polygon fill="midnightblue" stroke="midnightblue" points="69.4393,-308.734 72.9392,-318.734 76.4393,-308.734 69.4393,-308.734"/>
</g>
<!-- Node24&#45;&gt;Node7 -->
<g id="edge30" class="edge"><title>Node24&#45;&gt;Node7</title>
<path fill="none" stroke="midnightblue" d="M242.762,-245.639C265.537,-227.375 306.83,-196.643 346.939,-179 399.016,-156.093 464.737,-143.595 501.879,-137.9"/>
<polygon fill="midnightblue" stroke="midnightblue" points="240.526,-242.947 234.981,-251.976 244.946,-248.375 240.526,-242.947"/>
</g>
<!-- Node24&#45;&gt;Node20 -->
<g id="edge31" class="edge"><title>Node24&#45;&gt;Node20</title>
<path fill="none" stroke="midnightblue" d="M197.621,-247.444C170.684,-234.569 130.277,-215.257 107.074,-204.167"/>
<polygon fill="midnightblue" stroke="midnightblue" points="196.348,-250.714 206.879,-251.869 199.366,-244.398 196.348,-250.714"/>
</g>
<!-- Node30&#45;&gt;Node2 -->
<g id="edge38" class="edge"><title>Node30&#45;&gt;Node2</title>
<path fill="none" stroke="midnightblue" d="M751.638,-407.653C758.943,-417.033 766.341,-428.377 769.996,-436.083"/>
<polygon fill="midnightblue" stroke="midnightblue" points="754.152,-405.202 745.066,-399.751 748.77,-409.678 754.152,-405.202"/>
</g>
<!-- Node31&#45;&gt;Node18 -->
<g id="edge40" class="edge"><title>Node31&#45;&gt;Node18</title>
<path fill="none" stroke="midnightblue" d="M869.898,-377.594C784.137,-352.539 580.919,-293.17 505.116,-271.024"/>
<polygon fill="midnightblue" stroke="midnightblue" points="868.937,-380.96 879.518,-380.405 870.901,-374.241 868.937,-380.96"/>
</g>
<!-- Node32 -->
<g id="node32" class="node"><title>Node32</title>
<g id="a_node32"><a xlink:href="lll_8h.html" target="_top" xlink:title="fplll/lll.h">
<polygon fill="white" stroke="black" points="759.939,-252 759.939,-271 809.939,-271 809.939,-252 759.939,-252"/>
<text text-anchor="middle" x="784.939" y="-259" font-family="Helvetica,sans-Serif" font-size="10.00">fplll/lll.h</text>
</a>
</g>
</g>
<!-- Node31&#45;&gt;Node32 -->
<g id="edge41" class="edge"><title>Node31&#45;&gt;Node32</title>
<path fill="none" stroke="midnightblue" d="M893.084,-372.825C866.569,-345.776 814.113,-292.262 793.522,-271.256"/>
<polygon fill="midnightblue" stroke="midnightblue" points="890.917,-375.614 900.416,-380.305 895.915,-370.714 890.917,-375.614"/>
</g>
<!-- Node33 -->
<g id="node33" class="node"><title>Node33</title>
<g id="a_node33"><a xlink:href="pruner_8h.html" target="_top" xlink:title="fplll/pruner.h">
<polygon fill="white" stroke="black" points="961.939,-319 961.939,-338 1031.94,-338 1031.94,-319 961.939,-319"/>
<text text-anchor="middle" x="996.939" y="-326" font-family="Helvetica,sans-Serif" font-size="10.00">fplll/pruner.h</text>
</a>
</g>
</g>
<!-- Node31&#45;&gt;Node33 -->
<g id="edge45" class="edge"><title>Node31&#45;&gt;Node33</title>
<path fill="none" stroke="midnightblue" d="M930.218,-374.613C947.143,-363.169 970.249,-347.546 984.354,-338.009"/>
<polygon fill="midnightblue" stroke="midnightblue" points="927.871,-371.974 921.547,-380.475 931.792,-377.773 927.871,-371.974"/>
</g>
<!-- Node35 -->
<g id="node35" class="node"><title>Node35</title>
<g id="a_node35"><a xlink:href="pruner_8cpp.html" target="_top" xlink:title="fplll/pruner.cpp">
<polygon fill="white" stroke="black" points="1023.94,-252 1023.94,-271 1103.94,-271 1103.94,-252 1023.94,-252"/>
<text text-anchor="middle" x="1063.94" y="-259" font-family="Helvetica,sans-Serif" font-size="10.00">fplll/pruner.cpp</text>
</a>
</g>
</g>
<!-- Node31&#45;&gt;Node35 -->
<g id="edge50" class="edge"><title>Node31&#45;&gt;Node35</title>
<path fill="none" stroke="midnightblue" d="M948.571,-385.274C977.935,-380.451 1016.88,-369.386 1040.94,-344 1060.36,-323.513 1063.59,-287.913 1063.99,-271.393"/>
<polygon fill="midnightblue" stroke="midnightblue" points="948.01,-381.818 938.624,-386.732 949.026,-388.744 948.01,-381.818"/>
</g>
<!-- Node36 -->
<g id="node36" class="node"><title>Node36</title>
<g id="a_node36"><a xlink:href="gso_8cpp.html" target="_top" xlink:title="fplll/gso.cpp">
<polygon fill="white" stroke="black" points="874.439,-319 874.439,-338 943.439,-338 943.439,-319 874.439,-319"/>
<text text-anchor="middle" x="908.939" y="-326" font-family="Helvetica,sans-Serif" font-size="10.00">fplll/gso.cpp</text>
</a>
</g>
</g>
<!-- Node31&#45;&gt;Node36 -->
<g id="edge49" class="edge"><title>Node31&#45;&gt;Node36</title>
<path fill="none" stroke="midnightblue" d="M908.939,-370.317C908.939,-359.496 908.939,-346.398 908.939,-338.009"/>
<polygon fill="midnightblue" stroke="midnightblue" points="905.439,-370.475 908.939,-380.475 912.439,-370.475 905.439,-370.475"/>
</g>
<!-- Node31&#45;&gt;Node37 -->
<g id="edge51" class="edge"><title>Node31&#45;&gt;Node37</title>
<path fill="none" stroke="midnightblue" d="M948.641,-379.949C995.211,-369.333 1072.36,-351.744 1122.17,-340.391"/>
<polygon fill="midnightblue" stroke="midnightblue" points="947.597,-376.597 938.625,-382.233 949.153,-383.422 947.597,-376.597"/>
</g>
<!-- Node32&#45;&gt;Node5 -->
<g id="edge42" class="edge"><title>Node32&#45;&gt;Node5</title>
<path fill="none" stroke="midnightblue" d="M749.722,-251.523C699.124,-238.625 606.762,-215.082 559.506,-203.037"/>
<polygon fill="midnightblue" stroke="midnightblue" points="749.002,-254.951 759.557,-254.03 750.731,-248.168 749.002,-254.951"/>
</g>
<!-- Node32&#45;&gt;Node26 -->
<g id="edge43" class="edge"><title>Node32&#45;&gt;Node26</title>
<path fill="none" stroke="midnightblue" d="M773.385,-243.035C765.06,-230.45 754.182,-214.007 747.646,-204.127"/>
<polygon fill="midnightblue" stroke="midnightblue" points="770.704,-245.325 779.14,-251.734 776.542,-241.463 770.704,-245.325"/>
</g>
<!-- Node32&#45;&gt;Node29 -->
<g id="edge44" class="edge"><title>Node32&#45;&gt;Node29</title>
<path fill="none" stroke="midnightblue" d="M797.422,-243.123C811.321,-224.892 835.357,-196.501 861.939,-179 888.528,-161.494 922.821,-149.677 948.44,-142.562"/>
<polygon fill="midnightblue" stroke="midnightblue" points="794.266,-241.503 791.118,-251.619 799.887,-245.674 794.266,-241.503"/>
</g>
<!-- Node33&#45;&gt;Node7 -->
<g id="edge47" class="edge"><title>Node33&#45;&gt;Node7</title>
<path fill="none" stroke="midnightblue" d="M966.452,-314.824C945.589,-305.578 917.696,-292.069 894.939,-277 839.231,-240.111 841.273,-207.705 780.939,-179 706.869,-143.759 608.459,-135.972 560.179,-134.349"/>
<polygon fill="midnightblue" stroke="midnightblue" points="965.22,-318.105 975.787,-318.885 968.013,-311.686 965.22,-318.105"/>
</g>
<!-- Node34 -->
<g id="node34" class="node"><title>Node34</title>
<g id="a_node34"><a xlink:href="bkz__param_8cpp.html" target="_top" xlink:title="fplll/bkz_param.cpp">
<polygon fill="white" stroke="black" points="904.439,-252 904.439,-271 1005.44,-271 1005.44,-252 904.439,-252"/>
<text text-anchor="middle" x="954.939" y="-259" font-family="Helvetica,sans-Serif" font-size="10.00">fplll/bkz_param.cpp</text>
</a>
</g>
</g>
<!-- Node33&#45;&gt;Node34 -->
<g id="edge46" class="edge"><title>Node33&#45;&gt;Node34</title>
<path fill="none" stroke="midnightblue" d="M985.654,-310.035C977.522,-297.45 966.898,-281.007 960.514,-271.127"/>
<polygon fill="midnightblue" stroke="midnightblue" points="982.908,-312.234 991.275,-318.734 988.787,-308.435 982.908,-312.234"/>
</g>
<!-- Node33&#45;&gt;Node35 -->
<g id="edge48" class="edge"><title>Node33&#45;&gt;Node35</title>
<path fill="none" stroke="midnightblue" d="M1013.43,-311.497C1026.57,-298.75 1044.46,-281.395 1055.05,-271.127"/>
<polygon fill="midnightblue" stroke="midnightblue" points="1010.72,-309.259 1005.98,-318.734 1015.59,-314.283 1010.72,-309.259"/>
</g>
<!-- Node38 -->
<g id="node38" class="node"><title>Node38</title>
<g id="a_node38"><a xlink:href="sampler__basic_8cpp.html" target="_top" xlink:title="fplll/sieve/sampler\l_basic.cpp">
<polygon fill="white" stroke="black" points="1235.44,-246.5 1235.44,-276.5 1330.44,-276.5 1330.44,-246.5 1235.44,-246.5"/>
<text text-anchor="start" x="1243.44" y="-264.5" font-family="Helvetica,sans-Serif" font-size="10.00">fplll/sieve/sampler</text>
<text text-anchor="middle" x="1282.94" y="-253.5" font-family="Helvetica,sans-Serif" font-size="10.00">_basic.cpp</text>
</a>
</g>
</g>
<!-- Node37&#45;&gt;Node38 -->
<g id="edge52" class="edge"><title>Node37&#45;&gt;Node38</title>
<path fill="none" stroke="midnightblue" d="M1203.33,-308.296C1221.01,-298.125 1242.34,-285.855 1258.47,-276.577"/>
<polygon fill="midnightblue" stroke="midnightblue" points="1201.38,-305.376 1194.46,-313.396 1204.87,-311.444 1201.38,-305.376"/>
</g>
<!-- Node39 -->
<g id="node39" class="node"><title>Node39</title>
<g id="a_node39"><a xlink:href="sampler__main_8cpp.html" target="_top" xlink:title="fplll/sieve/sampler\l_main.cpp">
<polygon fill="white" stroke="black" points="1122.44,-246.5 1122.44,-276.5 1217.44,-276.5 1217.44,-246.5 1122.44,-246.5"/>
<text text-anchor="start" x="1130.44" y="-264.5" font-family="Helvetica,sans-Serif" font-size="10.00">fplll/sieve/sampler</text>
<text text-anchor="middle" x="1169.94" y="-253.5" font-family="Helvetica,sans-Serif" font-size="10.00">_main.cpp</text>
</a>
</g>
</g>
<!-- Node37&#45;&gt;Node39 -->
<g id="edge53" class="edge"><title>Node37&#45;&gt;Node39</title>
<path fill="none" stroke="midnightblue" d="M1169.94,-303.108C1169.94,-294.154 1169.94,-284.323 1169.94,-276.577"/>
<polygon fill="midnightblue" stroke="midnightblue" points="1166.44,-303.396 1169.94,-313.396 1173.44,-303.396 1166.44,-303.396"/>
</g>
<!-- Node40 -->
<g id="node40" class="node"><title>Node40</title>
<g id="a_node40"><a xlink:href="sieve__common_8h.html" target="_top" xlink:title="fplll/sieve/sieve_common.h">
<polygon fill="white" stroke="black" points="1348.44,-252 1348.44,-271 1483.44,-271 1483.44,-252 1348.44,-252"/>
<text text-anchor="middle" x="1415.94" y="-259" font-family="Helvetica,sans-Serif" font-size="10.00">fplll/sieve/sieve_common.h</text>
</a>
</g>
</g>
<!-- Node37&#45;&gt;Node40 -->
<g id="edge54" class="edge"><title>Node37&#45;&gt;Node40</title>
<path fill="none" stroke="midnightblue" d="M1227.42,-312.311C1276.06,-299.46 1343.99,-281.51 1383.64,-271.035"/>
<polygon fill="midnightblue" stroke="midnightblue" points="1226.44,-308.952 1217.66,-314.89 1228.22,-315.719 1226.44,-308.952"/>
</g>
<!-- Node41 -->
<g id="node41" class="node"><title>Node41</title>
<g id="a_node41"><a xlink:href="sieve__gauss__str_8h.html" target="_top" xlink:title="fplll/sieve/sieve_gauss\l_str.h">
<polygon fill="white" stroke="black" points="1357.94,-179.5 1357.94,-209.5 1473.94,-209.5 1473.94,-179.5 1357.94,-179.5"/>
<text text-anchor="start" x="1365.94" y="-197.5" font-family="Helvetica,sans-Serif" font-size="10.00">fplll/sieve/sieve_gauss</text>
<text text-anchor="middle" x="1415.94" y="-186.5" font-family="Helvetica,sans-Serif" font-size="10.00">_str.h</text>
</a>
</g>
</g>
<!-- Node40&#45;&gt;Node41 -->
<g id="edge55" class="edge"><title>Node40&#45;&gt;Node41</title>
<path fill="none" stroke="midnightblue" d="M1409.76,-241.739C1408.86,-231.487 1409.03,-219.001 1410.26,-209.589"/>
<polygon fill="midnightblue" stroke="midnightblue" points="1406.3,-242.313 1411.15,-251.734 1413.24,-241.346 1406.3,-242.313"/>
</g>
<!-- Node42 -->
<g id="node42" class="node"><title>Node42</title>
<g id="a_node42"><a xlink:href="sieve__gauss_8h.html" target="_top" xlink:title="fplll/sieve/sieve_gauss.h">
<polygon fill="white" stroke="black" points="1230.94,-123.5 1230.94,-142.5 1354.94,-142.5 1354.94,-123.5 1230.94,-123.5"/>
<text text-anchor="middle" x="1292.94" y="-130.5" font-family="Helvetica,sans-Serif" font-size="10.00">fplll/sieve/sieve_gauss.h</text>
</a>
</g>
</g>
<!-- Node40&#45;&gt;Node42 -->
<g id="edge68" class="edge"><title>Node40&#45;&gt;Node42</title>
<path fill="none" stroke="midnightblue" d="M1393.8,-246.244C1380.09,-236.844 1362.55,-223.761 1348.94,-210 1327.27,-188.095 1307.23,-157.375 1298.11,-142.601"/>
<polygon fill="midnightblue" stroke="midnightblue" points="1391.93,-249.202 1402.19,-251.859 1395.83,-243.386 1391.93,-249.202"/>
</g>
<!-- Node41&#45;&gt;Node40 -->
<g id="edge56" class="edge"><title>Node41&#45;&gt;Node40</title>
<path fill="none" stroke="midnightblue" d="M1422.49,-219.714C1423.04,-230.923 1422.45,-243.541 1420.73,-251.734"/>
<polygon fill="midnightblue" stroke="midnightblue" points="1425.96,-219.251 1421.62,-209.589 1418.99,-219.853 1425.96,-219.251"/>
</g>
<!-- Node41&#45;&gt;Node42 -->
<g id="edge57" class="edge"><title>Node41&#45;&gt;Node42</title>
<path fill="none" stroke="midnightblue" d="M1377.57,-174.94C1355.29,-164.159 1328.26,-151.084 1310.84,-142.658"/>
<polygon fill="midnightblue" stroke="midnightblue" points="1376.26,-178.195 1386.79,-179.399 1379.31,-171.894 1376.26,-178.195"/>
</g>
<!-- Node43 -->
<g id="node43" class="node"><title>Node43</title>
<g id="a_node43"><a xlink:href="sieve__gauss_8cpp.html" target="_top" xlink:title="fplll/sieve/sieve_gauss.cpp">
<polygon fill="white" stroke="black" points="1091.94,-0.5 1091.94,-19.5 1225.94,-19.5 1225.94,-0.5 1091.94,-0.5"/>
<text text-anchor="middle" x="1158.94" y="-7.5" font-family="Helvetica,sans-Serif" font-size="10.00">fplll/sieve/sieve_gauss.cpp</text>
</a>
</g>
</g>
<!-- Node42&#45;&gt;Node43 -->
<g id="edge58" class="edge"><title>Node42&#45;&gt;Node43</title>
<path fill="none" stroke="midnightblue" d="M1220.82,-125.287C1169.94,-118.884 1108.08,-107.149 1091.94,-87 1083.33,-76.246 1085.46,-68.1587 1091.94,-56 1101.23,-38.5648 1120.61,-26.6843 1136.15,-19.5289"/>
<polygon fill="midnightblue" stroke="midnightblue" points="1220.49,-128.771 1230.84,-126.497 1221.33,-121.822 1220.49,-128.771"/>
</g>
<!-- Node44 -->
<g id="node44" class="node"><title>Node44</title>
<g id="a_node44"><a xlink:href="sieve__gauss__2sieve_8cpp.html" target="_top" xlink:title="fplll/sieve/sieve_gauss\l_2sieve.cpp">
<polygon fill="white" stroke="black" points="1100.94,-56.5 1100.94,-86.5 1216.94,-86.5 1216.94,-56.5 1100.94,-56.5"/>
<text text-anchor="start" x="1108.94" y="-74.5" font-family="Helvetica,sans-Serif" font-size="10.00">fplll/sieve/sieve_gauss</text>
<text text-anchor="middle" x="1158.94" y="-63.5" font-family="Helvetica,sans-Serif" font-size="10.00">_2sieve.cpp</text>
</a>
</g>
</g>
<!-- Node42&#45;&gt;Node44 -->
<g id="edge59" class="edge"><title>Node42&#45;&gt;Node44</title>
<path fill="none" stroke="midnightblue" d="M1264.41,-119.331C1242.73,-109.704 1212.92,-96.468 1190.52,-86.523"/>
<polygon fill="midnightblue" stroke="midnightblue" points="1263.18,-122.616 1273.74,-123.475 1266.02,-116.218 1263.18,-122.616"/>
</g>
<!-- Node45 -->
<g id="node45" class="node"><title>Node45</title>
<g id="a_node45"><a xlink:href="sieve__gauss__3sieve_8cpp.html" target="_top" xlink:title="fplll/sieve/sieve_gauss\l_3sieve.cpp">
<polygon fill="white" stroke="black" points="1234.94,-56.5 1234.94,-86.5 1350.94,-86.5 1350.94,-56.5 1234.94,-56.5"/>
<text text-anchor="start" x="1242.94" y="-74.5" font-family="Helvetica,sans-Serif" font-size="10.00">fplll/sieve/sieve_gauss</text>
<text text-anchor="middle" x="1292.94" y="-63.5" font-family="Helvetica,sans-Serif" font-size="10.00">_3sieve.cpp</text>
</a>
</g>
</g>
<!-- Node42&#45;&gt;Node45 -->
<g id="edge61" class="edge"><title>Node42&#45;&gt;Node45</title>
<path fill="none" stroke="midnightblue" d="M1292.94,-113.235C1292.94,-104.586 1292.94,-94.4969 1292.94,-86.523"/>
<polygon fill="midnightblue" stroke="midnightblue" points="1289.44,-113.475 1292.94,-123.475 1296.44,-113.475 1289.44,-113.475"/>
</g>
<!-- Node46 -->
<g id="node46" class="node"><title>Node46</title>
<g id="a_node46"><a xlink:href="sieve__gauss__4sieve_8cpp.html" target="_top" xlink:title="fplll/sieve/sieve_gauss\l_4sieve.cpp">
<polygon fill="white" stroke="black" points="1368.94,-56.5 1368.94,-86.5 1484.94,-86.5 1484.94,-56.5 1368.94,-56.5"/>
<text text-anchor="start" x="1376.94" y="-74.5" font-family="Helvetica,sans-Serif" font-size="10.00">fplll/sieve/sieve_gauss</text>
<text text-anchor="middle" x="1426.94" y="-63.5" font-family="Helvetica,sans-Serif" font-size="10.00">_4sieve.cpp</text>
</a>
</g>
</g>
<!-- Node42&#45;&gt;Node46 -->
<g id="edge63" class="edge"><title>Node42&#45;&gt;Node46</title>
<path fill="none" stroke="midnightblue" d="M1321.47,-119.331C1343.15,-109.704 1372.96,-96.468 1395.36,-86.523"/>
<polygon fill="midnightblue" stroke="midnightblue" points="1319.86,-116.218 1312.14,-123.475 1322.7,-122.616 1319.86,-116.218"/>
</g>
<!-- Node47 -->
<g id="node47" class="node"><title>Node47</title>
<g id="a_node47"><a xlink:href="sieve__main_8h.html" target="_top" xlink:title="fplll/sieve/sieve_main.h">
<polygon fill="white" stroke="black" points="837.439,-62 837.439,-81 956.439,-81 956.439,-62 837.439,-62"/>
<text text-anchor="middle" x="896.939" y="-69" font-family="Helvetica,sans-Serif" font-size="10.00">fplll/sieve/sieve_main.h</text>
</a>
</g>
</g>
<!-- Node42&#45;&gt;Node47 -->
<g id="edge65" class="edge"><title>Node42&#45;&gt;Node47</title>
<path fill="none" stroke="midnightblue" d="M1226.19,-121.971C1149.67,-110.474 1025.57,-91.8264 953.571,-81.0091"/>
<polygon fill="midnightblue" stroke="midnightblue" points="1225.79,-125.45 1236.2,-123.475 1226.83,-118.528 1225.79,-125.45"/>
</g>
<!-- Node44&#45;&gt;Node43 -->
<g id="edge60" class="edge"><title>Node44&#45;&gt;Node43</title>
<path fill="none" stroke="midnightblue" d="M1158.94,-46.2892C1158.94,-36.857 1158.94,-26.6548 1158.94,-19.6578"/>
<polygon fill="midnightblue" stroke="midnightblue" points="1155.44,-46.3993 1158.94,-56.3993 1162.44,-46.3994 1155.44,-46.3993"/>
</g>
<!-- Node45&#45;&gt;Node43 -->
<g id="edge62" class="edge"><title>Node45&#45;&gt;Node43</title>
<path fill="none" stroke="midnightblue" d="M1251.79,-52.2281C1227.39,-41.3933 1197.58,-28.1596 1178.44,-19.6578"/>
<polygon fill="midnightblue" stroke="midnightblue" points="1250.62,-55.5399 1261.18,-56.3993 1253.46,-49.1422 1250.62,-55.5399"/>
</g>
<!-- Node46&#45;&gt;Node43 -->
<g id="edge64" class="edge"><title>Node46&#45;&gt;Node43</title>
<path fill="none" stroke="midnightblue" d="M1358.81,-55.3737C1307.71,-44.0295 1239.61,-28.9091 1197.54,-19.5709"/>
<polygon fill="midnightblue" stroke="midnightblue" points="1358.27,-58.8387 1368.79,-57.5894 1359.78,-52.0051 1358.27,-58.8387"/>
</g>
<!-- Node47&#45;&gt;Node11 -->
<g id="edge66" class="edge"><title>Node47&#45;&gt;Node11</title>
<path fill="none" stroke="midnightblue" d="M909.261,-53.8377C917.52,-42.6694 928.051,-28.4278 934.647,-19.5091"/>
<polygon fill="midnightblue" stroke="midnightblue" points="906.375,-51.8537 903.243,-61.9751 912.003,-56.0158 906.375,-51.8537"/>
</g>
<!-- Node47&#45;&gt;Node16 -->
<g id="edge67" class="edge"><title>Node47&#45;&gt;Node16</title>
<path fill="none" stroke="midnightblue" d="M855.321,-59.3956C812.01,-47.8396 745.131,-29.9952 705.83,-19.5091"/>
<polygon fill="midnightblue" stroke="midnightblue" points="854.424,-62.7787 864.989,-61.9751 856.229,-56.0154 854.424,-62.7787"/>
</g>
<!-- Node48&#45;&gt;Node6 -->
<g id="edge70" class="edge"><title>Node48&#45;&gt;Node6</title>
<path fill="none" stroke="midnightblue" d="M606.084,-184.823C537.615,-172.662 414.788,-150.846 354.811,-140.194"/>
<polygon fill="midnightblue" stroke="midnightblue" points="605.725,-188.314 616.183,-186.616 606.949,-181.422 605.725,-188.314"/>
</g>
<!-- Node48&#45;&gt;Node7 -->
<g id="edge71" class="edge"><title>Node48&#45;&gt;Node7</title>
<path fill="none" stroke="midnightblue" d="M627.89,-180.521C603.842,-168.982 569.376,-152.443 548.672,-142.509"/>
<polygon fill="midnightblue" stroke="midnightblue" points="626.643,-183.804 637.173,-184.975 629.671,-177.493 626.643,-183.804"/>
</g>
<!-- Node48&#45;&gt;Node8 -->
<g id="edge72" class="edge"><title>Node48&#45;&gt;Node8</title>
<path fill="none" stroke="midnightblue" d="M613.18,-182.27C556.719,-167.351 452.753,-140.809 362.939,-123 261.018,-102.79 232.869,-111.69 131.939,-87 125.358,-85.39 118.346,-83.2254 111.935,-81.0604"/>
<polygon fill="midnightblue" stroke="midnightblue" points="612.592,-185.735 623.155,-184.916 614.387,-178.969 612.592,-185.735"/>
</g>
<!-- Node48&#45;&gt;Node29 -->
<g id="edge74" class="edge"><title>Node48&#45;&gt;Node29</title>
<path fill="none" stroke="midnightblue" d="M690.841,-182.081C694.901,-180.961 698.995,-179.906 702.939,-179 714.415,-176.364 864.194,-152.853 940.661,-140.905"/>
<polygon fill="midnightblue" stroke="midnightblue" points="689.557,-178.809 680.925,-184.952 691.504,-185.533 689.557,-178.809"/>
</g>
<!-- Node48&#45;&gt;Node43 -->
<g id="edge73" class="edge"><title>Node48&#45;&gt;Node43</title>
<path fill="none" stroke="midnightblue" d="M692.275,-181.863C766.08,-158.778 928.236,-107.64 982.939,-87 1041.48,-64.9112 1108.96,-34.278 1140.67,-19.5627"/>
<polygon fill="midnightblue" stroke="midnightblue" points="690.968,-178.604 682.467,-184.928 693.056,-185.285 690.968,-178.604"/>
</g>
</g>
</svg>
