<?xml version="1.0" encoding="UTF-8" standalone="no"?>
<!DOCTYPE svg PUBLIC "-//W3C//DTD SVG 1.1//EN"
 "http://www.w3.org/Graphics/SVG/1.1/DTD/svg11.dtd">
<!-- Generated by graphviz version 2.38.0 (20140413.2041)
 -->
<!-- Title: fplll/nr/numvect.h Pages: 1 -->
<svg width="1049pt" height="476pt"
 viewBox="0.00 0.00 1049.34 476.00" xmlns="http://www.w3.org/2000/svg" xmlns:xlink="http://www.w3.org/1999/xlink">
<g id="graph0" class="graph" transform="scale(1 1) rotate(0) translate(4 472)">
<title>fplll/nr/numvect.h</title>
<polygon fill="white" stroke="none" points="-4,4 -4,-472 1045.34,-472 1045.34,4 -4,4"/>
<!-- Node1 -->
<g id="node1" class="node"><title>Node1</title>
<polygon fill="#bfbfbf" stroke="black" points="556.34,-448.5 556.34,-467.5 648.34,-467.5 648.34,-448.5 556.34,-448.5"/>
<text text-anchor="middle" x="602.34" y="-455.5" font-family="Helvetica,sans-Serif" font-size="10.00">fplll/nr/numvect.h</text>
</g>
<!-- Node2 -->
<g id="node2" class="node"><title>Node2</title>
<g id="a_node2"><a xlink:href="matrix_8h.html" target="_top" xlink:title="fplll/nr/matrix.h">
<polygon fill="white" stroke="black" points="561.84,-392.5 561.84,-411.5 642.84,-411.5 642.84,-392.5 561.84,-392.5"/>
<text text-anchor="middle" x="602.34" y="-399.5" font-family="Helvetica,sans-Serif" font-size="10.00">fplll/nr/matrix.h</text>
</a>
</g>
</g>
<!-- Node1&#45;&gt;Node2 -->
<g id="edge1" class="edge"><title>Node1&#45;&gt;Node2</title>
<path fill="none" stroke="midnightblue" d="M602.34,-437.805C602.34,-428.91 602.34,-418.78 602.34,-411.751"/>
<polygon fill="midnightblue" stroke="midnightblue" points="598.84,-438.083 602.34,-448.083 605.84,-438.083 598.84,-438.083"/>
</g>
<!-- Node3 -->
<g id="node3" class="node"><title>Node3</title>
<g id="a_node3"><a xlink:href="util_8h.html" target="_top" xlink:title="fplll/util.h">
<polygon fill="white" stroke="black" points="574.34,-336.5 574.34,-355.5 630.34,-355.5 630.34,-336.5 574.34,-336.5"/>
<text text-anchor="middle" x="602.34" y="-343.5" font-family="Helvetica,sans-Serif" font-size="10.00">fplll/util.h</text>
</a>
</g>
</g>
<!-- Node2&#45;&gt;Node3 -->
<g id="edge2" class="edge"><title>Node2&#45;&gt;Node3</title>
<path fill="none" stroke="midnightblue" d="M602.34,-381.805C602.34,-372.91 602.34,-362.78 602.34,-355.751"/>
<polygon fill="midnightblue" stroke="midnightblue" points="598.84,-382.083 602.34,-392.083 605.84,-382.083 598.84,-382.083"/>
</g>
<!-- Node29 -->
<g id="node29" class="node"><title>Node29</title>
<g id="a_node29"><a xlink:href="matrix_8cpp.html" target="_top" xlink:title="fplll/nr/matrix.cpp">
<polygon fill="white" stroke="black" points="648.34,-336.5 648.34,-355.5 740.34,-355.5 740.34,-336.5 648.34,-336.5"/>
<text text-anchor="middle" x="694.34" y="-343.5" font-family="Helvetica,sans-Serif" font-size="10.00">fplll/nr/matrix.cpp</text>
</a>
</g>
</g>
<!-- Node2&#45;&gt;Node29 -->
<g id="edge35" class="edge"><title>Node2&#45;&gt;Node29</title>
<path fill="none" stroke="midnightblue" d="M620.789,-386.622C636.41,-376.757 658.471,-363.992 674.485,-355.655"/>
<polygon fill="midnightblue" stroke="midnightblue" points="618.488,-383.943 612.006,-392.324 622.3,-389.814 618.488,-383.943"/>
</g>
<!-- Node30 -->
<g id="node30" class="node"><title>Node30</title>
<g id="a_node30"><a xlink:href="gso_8h.html" target="_top" xlink:title="fplll/gso.h">
<polygon fill="white" stroke="black" points="131.84,-280.5 131.84,-299.5 190.84,-299.5 190.84,-280.5 131.84,-280.5"/>
<text text-anchor="middle" x="161.34" y="-287.5" font-family="Helvetica,sans-Serif" font-size="10.00">fplll/gso.h</text>
</a>
</g>
</g>
<!-- Node2&#45;&gt;Node30 -->
<g id="edge37" class="edge"><title>Node2&#45;&gt;Node30</title>
<path fill="none" stroke="midnightblue" d="M551.552,-398.83C463.199,-394.406 285.287,-382.438 229.34,-356 201.58,-342.882 177.92,-313.976 167.309,-299.545"/>
<polygon fill="midnightblue" stroke="midnightblue" points="551.453,-402.329 561.612,-399.32 551.794,-395.338 551.453,-402.329"/>
</g>
<!-- Node35 -->
<g id="node35" class="node"><title>Node35</title>
<g id="a_node35"><a xlink:href="wrapper_8h.html" target="_top" xlink:title="fplll/wrapper.h">
<polygon fill="white" stroke="black" points="189.84,-224.5 189.84,-243.5 266.84,-243.5 266.84,-224.5 189.84,-224.5"/>
<text text-anchor="middle" x="228.34" y="-231.5" font-family="Helvetica,sans-Serif" font-size="10.00">fplll/wrapper.h</text>
</a>
</g>
</g>
<!-- Node2&#45;&gt;Node35 -->
<g id="edge48" class="edge"><title>Node2&#45;&gt;Node35</title>
<path fill="none" stroke="midnightblue" d="M551.547,-390.753C489.276,-376.716 381.968,-347.668 300.34,-300 273.582,-284.374 248.093,-257.631 235.872,-243.825"/>
<polygon fill="midnightblue" stroke="midnightblue" points="550.996,-394.215 561.516,-392.958 552.508,-387.38 550.996,-394.215"/>
</g>
<!-- Node4 -->
<g id="node4" class="node"><title>Node4</title>
<g id="a_node4"><a xlink:href="evaluator_8h.html" target="_top" xlink:title="fplll/enum/evaluator.h">
<polygon fill="white" stroke="black" points="323.34,-280.5 323.34,-299.5 433.34,-299.5 433.34,-280.5 323.34,-280.5"/>
<text text-anchor="middle" x="378.34" y="-287.5" font-family="Helvetica,sans-Serif" font-size="10.00">fplll/enum/evaluator.h</text>
</a>
</g>
</g>
<!-- Node3&#45;&gt;Node4 -->
<g id="edge3" class="edge"><title>Node3&#45;&gt;Node4</title>
<path fill="none" stroke="midnightblue" d="M564.094,-335.78C521.986,-325.629 454.838,-309.441 413.853,-299.561"/>
<polygon fill="midnightblue" stroke="midnightblue" points="563.428,-339.22 573.97,-338.161 565.069,-332.415 563.428,-339.22"/>
</g>
<!-- Node7 -->
<g id="node7" class="node"><title>Node7</title>
<g id="a_node7"><a xlink:href="fplll_8h.html" target="_top" xlink:title="fplll/fplll.h">
<polygon fill="white" stroke="black" points="506.34,-112.5 506.34,-131.5 564.34,-131.5 564.34,-112.5 506.34,-112.5"/>
<text text-anchor="middle" x="535.34" y="-119.5" font-family="Helvetica,sans-Serif" font-size="10.00">fplll/fplll.h</text>
</a>
</g>
</g>
<!-- Node3&#45;&gt;Node7 -->
<g id="edge26" class="edge"><title>Node3&#45;&gt;Node7</title>
<path fill="none" stroke="midnightblue" d="M640.509,-336.02C765.697,-314.723 807.173,-346.152 921.34,-300 965.337,-282.214 1022.14,-263.83 996.34,-224 948.677,-150.42 658.558,-129.279 564.645,-124.322"/>
<polygon fill="midnightblue" stroke="midnightblue" points="639.783,-332.594 630.552,-337.794 641.011,-339.486 639.783,-332.594"/>
</g>
<!-- Node21 -->
<g id="node21" class="node"><title>Node21</title>
<g id="a_node21"><a xlink:href="topenum_8h.html" target="_top" xlink:title="fplll/enum/topenum.h">
<polygon fill="white" stroke="black" points="779.84,-280.5 779.84,-299.5 886.84,-299.5 886.84,-280.5 779.84,-280.5"/>
<text text-anchor="middle" x="833.34" y="-287.5" font-family="Helvetica,sans-Serif" font-size="10.00">fplll/enum/topenum.h</text>
</a>
</g>
</g>
<!-- Node3&#45;&gt;Node21 -->
<g id="edge23" class="edge"><title>Node3&#45;&gt;Node21</title>
<path fill="none" stroke="midnightblue" d="M640.612,-335.715C700.434,-321.53 759.107,-307.999 796.121,-299.509"/>
<polygon fill="midnightblue" stroke="midnightblue" points="639.535,-332.374 630.614,-338.09 641.152,-339.184 639.535,-332.374"/>
</g>
<!-- Node23 -->
<g id="node23" class="node"><title>Node23</title>
<g id="a_node23"><a xlink:href="svpcvp_8h.html" target="_top" xlink:title="fplll/svpcvp.h">
<polygon fill="white" stroke="black" points="913.34,-224.5 913.34,-243.5 987.34,-243.5 987.34,-224.5 913.34,-224.5"/>
<text text-anchor="middle" x="950.34" y="-231.5" font-family="Helvetica,sans-Serif" font-size="10.00">fplll/svpcvp.h</text>
</a>
</g>
</g>
<!-- Node3&#45;&gt;Node23 -->
<g id="edge27" class="edge"><title>Node3&#45;&gt;Node23</title>
<path fill="none" stroke="midnightblue" d="M640.705,-335.992C754.644,-316.646 797.585,-353.928 895.34,-300 919.415,-286.719 937.54,-258.424 945.652,-243.943"/>
<polygon fill="midnightblue" stroke="midnightblue" points="639.774,-332.604 630.559,-337.831 641.023,-339.491 639.774,-332.604"/>
</g>
<!-- Node24 -->
<g id="node24" class="node"><title>Node24</title>
<g id="a_node24"><a xlink:href="latticegen_8cpp.html" target="_top" xlink:title="fplll/latticegen.cpp">
<polygon fill="white" stroke="black" points="451.84,-280.5 451.84,-299.5 546.84,-299.5 546.84,-280.5 451.84,-280.5"/>
<text text-anchor="middle" x="499.34" y="-287.5" font-family="Helvetica,sans-Serif" font-size="10.00">fplll/latticegen.cpp</text>
</a>
</g>
</g>
<!-- Node3&#45;&gt;Node24 -->
<g id="edge30" class="edge"><title>Node3&#45;&gt;Node24</title>
<path fill="none" stroke="midnightblue" d="M576.761,-331.59C557.716,-321.605 532.275,-308.267 515.847,-299.655"/>
<polygon fill="midnightblue" stroke="midnightblue" points="575.309,-334.78 585.791,-336.324 578.56,-328.581 575.309,-334.78"/>
</g>
<!-- Node25 -->
<g id="node25" class="node"><title>Node25</title>
<g id="a_node25"><a xlink:href="lll_8cpp.html" target="_top" xlink:title="fplll/lll.cpp">
<polygon fill="white" stroke="black" points="501.34,-168.5 501.34,-187.5 561.34,-187.5 561.34,-168.5 501.34,-168.5"/>
<text text-anchor="middle" x="531.34" y="-175.5" font-family="Helvetica,sans-Serif" font-size="10.00">fplll/lll.cpp</text>
</a>
</g>
</g>
<!-- Node3&#45;&gt;Node25 -->
<g id="edge31" class="edge"><title>Node3&#45;&gt;Node25</title>
<path fill="none" stroke="midnightblue" d="M640.232,-334.309C676.577,-323.675 726.752,-307.847 732.34,-300 737.496,-292.759 735.052,-288.465 732.34,-280 723.006,-250.873 717.382,-241.561 692.34,-224 681.558,-216.439 605.136,-196.98 561.57,-186.294"/>
<polygon fill="midnightblue" stroke="midnightblue" points="639.026,-331.014 630.396,-337.16 640.975,-337.738 639.026,-331.014"/>
</g>
<!-- Node26 -->
<g id="node26" class="node"><title>Node26</title>
<g id="a_node26"><a xlink:href="llldiff_8cpp.html" target="_top" xlink:title="fplll/llldiff.cpp">
<polygon fill="white" stroke="black" points="565.34,-280.5 565.34,-299.5 639.34,-299.5 639.34,-280.5 565.34,-280.5"/>
<text text-anchor="middle" x="602.34" y="-287.5" font-family="Helvetica,sans-Serif" font-size="10.00">fplll/llldiff.cpp</text>
</a>
</g>
</g>
<!-- Node3&#45;&gt;Node26 -->
<g id="edge32" class="edge"><title>Node3&#45;&gt;Node26</title>
<path fill="none" stroke="midnightblue" d="M602.34,-325.805C602.34,-316.91 602.34,-306.78 602.34,-299.751"/>
<polygon fill="midnightblue" stroke="midnightblue" points="598.84,-326.083 602.34,-336.083 605.84,-326.083 598.84,-326.083"/>
</g>
<!-- Node27 -->
<g id="node27" class="node"><title>Node27</title>
<g id="a_node27"><a xlink:href="util_8cpp.html" target="_top" xlink:title="fplll/util.cpp">
<polygon fill="white" stroke="black" points="657.34,-280.5 657.34,-299.5 723.34,-299.5 723.34,-280.5 657.34,-280.5"/>
<text text-anchor="middle" x="690.34" y="-287.5" font-family="Helvetica,sans-Serif" font-size="10.00">fplll/util.cpp</text>
</a>
</g>
</g>
<!-- Node3&#45;&gt;Node27 -->
<g id="edge33" class="edge"><title>Node3&#45;&gt;Node27</title>
<path fill="none" stroke="midnightblue" d="M625.317,-330.901C641.453,-320.999 662.521,-308.071 676.236,-299.655"/>
<polygon fill="midnightblue" stroke="midnightblue" points="623.171,-328.111 616.479,-336.324 626.832,-334.077 623.171,-328.111"/>
</g>
<!-- Node28 -->
<g id="node28" class="node"><title>Node28</title>
<g id="a_node28"><a xlink:href="wrapper_8cpp.html" target="_top" xlink:title="fplll/wrapper.cpp">
<polygon fill="white" stroke="black" points="279.34,-168.5 279.34,-187.5 367.34,-187.5 367.34,-168.5 279.34,-168.5"/>
<text text-anchor="middle" x="323.34" y="-175.5" font-family="Helvetica,sans-Serif" font-size="10.00">fplll/wrapper.cpp</text>
</a>
</g>
</g>
<!-- Node3&#45;&gt;Node28 -->
<g id="edge34" class="edge"><title>Node3&#45;&gt;Node28</title>
<path fill="none" stroke="midnightblue" d="M563.941,-344.9C493.069,-343.811 346.031,-337.027 314.34,-300 286.26,-267.192 308.923,-209.337 319.067,-187.587"/>
<polygon fill="midnightblue" stroke="midnightblue" points="564.186,-348.403 574.228,-345.026 564.271,-341.404 564.186,-348.403"/>
</g>
<!-- Node5 -->
<g id="node5" class="node"><title>Node5</title>
<g id="a_node5"><a xlink:href="bkz_8h.html" target="_top" xlink:title="fplll/bkz.h">
<polygon fill="white" stroke="black" points="385.84,-168.5 385.84,-187.5 444.84,-187.5 444.84,-168.5 385.84,-168.5"/>
<text text-anchor="middle" x="415.34" y="-175.5" font-family="Helvetica,sans-Serif" font-size="10.00">fplll/bkz.h</text>
</a>
</g>
</g>
<!-- Node4&#45;&gt;Node5 -->
<g id="edge4" class="edge"><title>Node4&#45;&gt;Node5</title>
<path fill="none" stroke="midnightblue" d="M384.504,-270.674C392.593,-246.625 406.464,-205.388 412.45,-187.591"/>
<polygon fill="midnightblue" stroke="midnightblue" points="381.114,-269.774 381.243,-280.368 387.749,-272.006 381.114,-269.774"/>
</g>
<!-- Node17 -->
<g id="node17" class="node"><title>Node17</title>
<g id="a_node17"><a xlink:href="enumerate_8h.html" target="_top" xlink:title="fplll/enum/enumerate.h">
<polygon fill="white" stroke="black" points="429.34,-224.5 429.34,-243.5 545.34,-243.5 545.34,-224.5 429.34,-224.5"/>
<text text-anchor="middle" x="487.34" y="-231.5" font-family="Helvetica,sans-Serif" font-size="10.00">fplll/enum/enumerate.h</text>
</a>
</g>
</g>
<!-- Node4&#45;&gt;Node17 -->
<g id="edge16" class="edge"><title>Node4&#45;&gt;Node17</title>
<path fill="none" stroke="midnightblue" d="M404.859,-275.862C425.07,-265.849 452.327,-252.346 469.871,-243.655"/>
<polygon fill="midnightblue" stroke="midnightblue" points="403.259,-272.748 395.853,-280.324 406.367,-279.021 403.259,-272.748"/>
</g>
<!-- Node20 -->
<g id="node20" class="node"><title>Node20</title>
<g id="a_node20"><a xlink:href="evaluator_8cpp.html" target="_top" xlink:title="fplll/enum/evaluator.cpp">
<polygon fill="white" stroke="black" points="563.34,-224.5 563.34,-243.5 683.34,-243.5 683.34,-224.5 563.34,-224.5"/>
<text text-anchor="middle" x="623.34" y="-231.5" font-family="Helvetica,sans-Serif" font-size="10.00">fplll/enum/evaluator.cpp</text>
</a>
</g>
</g>
<!-- Node4&#45;&gt;Node20 -->
<g id="edge22" class="edge"><title>Node4&#45;&gt;Node20</title>
<path fill="none" stroke="midnightblue" d="M426.97,-278.281C473.268,-268.077 542.035,-252.92 584.7,-243.516"/>
<polygon fill="midnightblue" stroke="midnightblue" points="426.173,-274.873 417.161,-280.444 427.68,-281.709 426.173,-274.873"/>
</g>
<!-- Node6 -->
<g id="node6" class="node"><title>Node6</title>
<g id="a_node6"><a xlink:href="bkz_8cpp.html" target="_top" xlink:title="fplll/bkz.cpp">
<polygon fill="white" stroke="black" points="380.84,-112.5 380.84,-131.5 449.84,-131.5 449.84,-112.5 380.84,-112.5"/>
<text text-anchor="middle" x="415.34" y="-119.5" font-family="Helvetica,sans-Serif" font-size="10.00">fplll/bkz.cpp</text>
</a>
</g>
</g>
<!-- Node5&#45;&gt;Node6 -->
<g id="edge5" class="edge"><title>Node5&#45;&gt;Node6</title>
<path fill="none" stroke="midnightblue" d="M415.34,-157.805C415.34,-148.91 415.34,-138.78 415.34,-131.751"/>
<polygon fill="midnightblue" stroke="midnightblue" points="411.84,-158.083 415.34,-168.083 418.84,-158.083 411.84,-158.083"/>
</g>
<!-- Node5&#45;&gt;Node7 -->
<g id="edge6" class="edge"><title>Node5&#45;&gt;Node7</title>
<path fill="none" stroke="midnightblue" d="M443.713,-164.232C466.159,-154.131 496.875,-140.309 516.414,-131.516"/>
<polygon fill="midnightblue" stroke="midnightblue" points="442.037,-161.148 434.354,-168.444 444.91,-167.532 442.037,-161.148"/>
</g>
<!-- Node8 -->
<g id="node8" class="node"><title>Node8</title>
<g id="a_node8"><a xlink:href="fplll_8cpp.html" target="_top" xlink:title="fplll/fplll.cpp">
<polygon fill="white" stroke="black" points="193.34,-56.5 193.34,-75.5 261.34,-75.5 261.34,-56.5 193.34,-56.5"/>
<text text-anchor="middle" x="227.34" y="-63.5" font-family="Helvetica,sans-Serif" font-size="10.00">fplll/fplll.cpp</text>
</a>
</g>
</g>
<!-- Node7&#45;&gt;Node8 -->
<g id="edge7" class="edge"><title>Node7&#45;&gt;Node8</title>
<path fill="none" stroke="midnightblue" d="M496.188,-112.727C494.891,-112.478 493.605,-112.235 492.34,-112 394.063,-93.7567 368.616,-94.2433 270.34,-76 267.49,-75.471 264.539,-74.9008 261.579,-74.3132"/>
<polygon fill="midnightblue" stroke="midnightblue" points="495.741,-116.207 506.231,-114.72 497.104,-109.34 495.741,-116.207"/>
</g>
<!-- Node9 -->
<g id="node9" class="node"><title>Node9</title>
<g id="a_node9"><a xlink:href="main_8h.html" target="_top" xlink:title="fplll/main.h">
<polygon fill="white" stroke="black" points="279.34,-56.5 279.34,-75.5 343.34,-75.5 343.34,-56.5 279.34,-56.5"/>
<text text-anchor="middle" x="311.34" y="-63.5" font-family="Helvetica,sans-Serif" font-size="10.00">fplll/main.h</text>
</a>
</g>
</g>
<!-- Node7&#45;&gt;Node9 -->
<g id="edge8" class="edge"><title>Node7&#45;&gt;Node9</title>
<path fill="none" stroke="midnightblue" d="M496.158,-111.554C452.828,-101.109 383.832,-84.4759 343.53,-74.7602"/>
<polygon fill="midnightblue" stroke="midnightblue" points="495.514,-114.999 506.056,-113.94 497.154,-108.194 495.514,-114.999"/>
</g>
<!-- Node11 -->
<g id="node11" class="node"><title>Node11</title>
<g id="a_node11"><a xlink:href="test__bkz_8cpp.html" target="_top" xlink:title="tests/test_bkz.cpp">
<polygon fill="white" stroke="black" points="361.34,-56.5 361.34,-75.5 459.34,-75.5 459.34,-56.5 361.34,-56.5"/>
<text text-anchor="middle" x="410.34" y="-63.5" font-family="Helvetica,sans-Serif" font-size="10.00">tests/test_bkz.cpp</text>
</a>
</g>
</g>
<!-- Node7&#45;&gt;Node11 -->
<g id="edge10" class="edge"><title>Node7&#45;&gt;Node11</title>
<path fill="none" stroke="midnightblue" d="M506.099,-108.368C482.69,-98.2553 450.499,-84.3486 430.054,-75.5164"/>
<polygon fill="midnightblue" stroke="midnightblue" points="504.965,-111.691 515.533,-112.444 507.741,-105.265 504.965,-111.691"/>
</g>
<!-- Node12 -->
<g id="node12" class="node"><title>Node12</title>
<g id="a_node12"><a xlink:href="test__lll_8cpp.html" target="_top" xlink:title="tests/test_lll.cpp">
<polygon fill="white" stroke="black" points="476.84,-56.5 476.84,-75.5 565.84,-75.5 565.84,-56.5 476.84,-56.5"/>
<text text-anchor="middle" x="521.34" y="-63.5" font-family="Helvetica,sans-Serif" font-size="10.00">tests/test_lll.cpp</text>
</a>
</g>
</g>
<!-- Node7&#45;&gt;Node12 -->
<g id="edge11" class="edge"><title>Node7&#45;&gt;Node12</title>
<path fill="none" stroke="midnightblue" d="M530.516,-102.396C528.174,-93.362 525.471,-82.936 523.609,-75.7511"/>
<polygon fill="midnightblue" stroke="midnightblue" points="527.13,-103.281 533.028,-112.083 533.906,-101.525 527.13,-103.281"/>
</g>
<!-- Node13 -->
<g id="node13" class="node"><title>Node13</title>
<g id="a_node13"><a xlink:href="test__nr_8cpp.html" target="_top" xlink:title="tests/test_nr.cpp">
<polygon fill="white" stroke="black" points="584.34,-56.5 584.34,-75.5 674.34,-75.5 674.34,-56.5 584.34,-56.5"/>
<text text-anchor="middle" x="629.34" y="-63.5" font-family="Helvetica,sans-Serif" font-size="10.00">tests/test_nr.cpp</text>
</a>
</g>
</g>
<!-- Node7&#45;&gt;Node13 -->
<g id="edge12" class="edge"><title>Node7&#45;&gt;Node13</title>
<path fill="none" stroke="midnightblue" d="M559.401,-107.177C576.699,-97.2407 599.487,-84.1492 614.275,-75.6545"/>
<polygon fill="midnightblue" stroke="midnightblue" points="557.37,-104.308 550.443,-112.324 560.857,-110.378 557.37,-104.308"/>
</g>
<!-- Node14 -->
<g id="node14" class="node"><title>Node14</title>
<g id="a_node14"><a xlink:href="test__pruner_8cpp.html" target="_top" xlink:title="tests/test_pruner.cpp">
<polygon fill="white" stroke="black" points="692.84,-56.5 692.84,-75.5 801.84,-75.5 801.84,-56.5 692.84,-56.5"/>
<text text-anchor="middle" x="747.34" y="-63.5" font-family="Helvetica,sans-Serif" font-size="10.00">tests/test_pruner.cpp</text>
</a>
</g>
</g>
<!-- Node7&#45;&gt;Node14 -->
<g id="edge13" class="edge"><title>Node7&#45;&gt;Node14</title>
<path fill="none" stroke="midnightblue" d="M574.295,-111.077C614.284,-100.892 675.867,-85.2054 713.77,-75.5509"/>
<polygon fill="midnightblue" stroke="midnightblue" points="573.2,-107.745 564.373,-113.605 574.927,-114.528 573.2,-107.745"/>
</g>
<!-- Node15 -->
<g id="node15" class="node"><title>Node15</title>
<g id="a_node15"><a xlink:href="test__sieve_8cpp.html" target="_top" xlink:title="tests/test_sieve.cpp">
<polygon fill="white" stroke="black" points="819.84,-56.5 819.84,-75.5 924.84,-75.5 924.84,-56.5 819.84,-56.5"/>
<text text-anchor="middle" x="872.34" y="-63.5" font-family="Helvetica,sans-Serif" font-size="10.00">tests/test_sieve.cpp</text>
</a>
</g>
</g>
<!-- Node7&#45;&gt;Node15 -->
<g id="edge14" class="edge"><title>Node7&#45;&gt;Node15</title>
<path fill="none" stroke="midnightblue" d="M574.295,-114.758C634.895,-105.048 751.827,-86.3107 819.819,-75.4157"/>
<polygon fill="midnightblue" stroke="midnightblue" points="573.684,-111.311 564.364,-116.349 574.792,-118.223 573.684,-111.311"/>
</g>
<!-- Node16 -->
<g id="node16" class="node"><title>Node16</title>
<g id="a_node16"><a xlink:href="test__svp_8cpp.html" target="_top" xlink:title="tests/test_svp.cpp">
<polygon fill="white" stroke="black" points="943.34,-56.5 943.34,-75.5 1041.34,-75.5 1041.34,-56.5 943.34,-56.5"/>
<text text-anchor="middle" x="992.34" y="-63.5" font-family="Helvetica,sans-Serif" font-size="10.00">tests/test_svp.cpp</text>
</a>
</g>
</g>
<!-- Node7&#45;&gt;Node16 -->
<g id="edge15" class="edge"><title>Node7&#45;&gt;Node16</title>
<path fill="none" stroke="midnightblue" d="M574.784,-117.101C646.479,-109.893 802.901,-93.6021 934.34,-76 937.269,-75.6078 940.278,-75.1889 943.313,-74.7545"/>
<polygon fill="midnightblue" stroke="midnightblue" points="574.029,-113.659 564.428,-118.139 574.727,-120.625 574.029,-113.659"/>
</g>
<!-- Node10 -->
<g id="node10" class="node"><title>Node10</title>
<g id="a_node10"><a xlink:href="main_8cpp.html" target="_top" xlink:title="fplll/main.cpp">
<polygon fill="white" stroke="black" points="274.34,-0.5 274.34,-19.5 348.34,-19.5 348.34,-0.5 274.34,-0.5"/>
<text text-anchor="middle" x="311.34" y="-7.5" font-family="Helvetica,sans-Serif" font-size="10.00">fplll/main.cpp</text>
</a>
</g>
</g>
<!-- Node9&#45;&gt;Node10 -->
<g id="edge9" class="edge"><title>Node9&#45;&gt;Node10</title>
<path fill="none" stroke="midnightblue" d="M311.34,-45.8045C311.34,-36.9102 311.34,-26.7798 311.34,-19.7511"/>
<polygon fill="midnightblue" stroke="midnightblue" points="307.84,-46.083 311.34,-56.083 314.84,-46.083 307.84,-46.083"/>
</g>
<!-- Node17&#45;&gt;Node5 -->
<g id="edge17" class="edge"><title>Node17&#45;&gt;Node5</title>
<path fill="none" stroke="midnightblue" d="M467.474,-218.101C454.516,-208.382 438.042,-196.027 427.118,-187.834"/>
<polygon fill="midnightblue" stroke="midnightblue" points="465.672,-221.124 475.772,-224.324 469.872,-215.524 465.672,-221.124"/>
</g>
<!-- Node17&#45;&gt;Node6 -->
<g id="edge18" class="edge"><title>Node17&#45;&gt;Node6</title>
<path fill="none" stroke="midnightblue" d="M479.309,-215.145C472.972,-201.74 463.527,-183.163 453.34,-168 444.216,-154.42 431.653,-140.237 423.514,-131.509"/>
<polygon fill="midnightblue" stroke="midnightblue" points="476.141,-216.633 483.509,-224.246 482.497,-213.7 476.141,-216.633"/>
</g>
<!-- Node18 -->
<g id="node18" class="node"><title>Node18</title>
<g id="a_node18"><a xlink:href="enumerate_8cpp.html" target="_top" xlink:title="fplll/enum/enumerate.cpp">
<polygon fill="white" stroke="black" points="579.34,-168.5 579.34,-187.5 705.34,-187.5 705.34,-168.5 579.34,-168.5"/>
<text text-anchor="middle" x="642.34" y="-175.5" font-family="Helvetica,sans-Serif" font-size="10.00">fplll/enum/enumerate.cpp</text>
</a>
</g>
</g>
<!-- Node17&#45;&gt;Node18 -->
<g id="edge19" class="edge"><title>Node17&#45;&gt;Node18</title>
<path fill="none" stroke="midnightblue" d="M521.672,-221.039C550.836,-210.879 591.977,-196.546 617.894,-187.516"/>
<polygon fill="midnightblue" stroke="midnightblue" points="520.192,-217.848 511.9,-224.444 522.495,-224.459 520.192,-217.848"/>
</g>
<!-- Node19 -->
<g id="node19" class="node"><title>Node19</title>
<g id="a_node19"><a xlink:href="svpcvp_8cpp.html" target="_top" xlink:title="fplll/svpcvp.cpp">
<polygon fill="white" stroke="black" points="741.84,-168.5 741.84,-187.5 826.84,-187.5 826.84,-168.5 741.84,-168.5"/>
<text text-anchor="middle" x="784.34" y="-175.5" font-family="Helvetica,sans-Serif" font-size="10.00">fplll/svpcvp.cpp</text>
</a>
</g>
</g>
<!-- Node17&#45;&gt;Node19 -->
<g id="edge20" class="edge"><title>Node17&#45;&gt;Node19</title>
<path fill="none" stroke="midnightblue" d="M544.455,-222.615C602.161,-212.123 689.99,-196.154 741.83,-186.729"/>
<polygon fill="midnightblue" stroke="midnightblue" points="543.613,-219.211 534.4,-224.444 544.865,-226.098 543.613,-219.211"/>
</g>
<!-- Node19&#45;&gt;Node8 -->
<g id="edge21" class="edge"><title>Node19&#45;&gt;Node8</title>
<path fill="none" stroke="midnightblue" d="M731.826,-169.687C655.126,-158.867 519.17,-139.106 497.34,-132 478.817,-125.971 476.759,-118.34 458.34,-112 377.899,-84.3097 353.755,-92.7148 270.34,-76 267.498,-75.4306 264.552,-74.8319 261.596,-74.2252"/>
<polygon fill="midnightblue" stroke="midnightblue" points="731.393,-173.161 741.783,-171.089 732.368,-166.229 731.393,-173.161"/>
</g>
<!-- Node21&#45;&gt;Node19 -->
<g id="edge25" class="edge"><title>Node21&#45;&gt;Node19</title>
<path fill="none" stroke="midnightblue" d="M850.485,-273.324C862.936,-259.967 876.04,-240.387 866.34,-224 855.504,-205.694 834.286,-194.339 816.148,-187.615"/>
<polygon fill="midnightblue" stroke="midnightblue" points="848.005,-270.854 843.406,-280.398 852.954,-275.805 848.005,-270.854"/>
</g>
<!-- Node22 -->
<g id="node22" class="node"><title>Node22</title>
<g id="a_node22"><a xlink:href="topenum_8cpp.html" target="_top" xlink:title="fplll/enum/topenum.cpp">
<polygon fill="white" stroke="black" points="739.34,-224.5 739.34,-243.5 857.34,-243.5 857.34,-224.5 739.34,-224.5"/>
<text text-anchor="middle" x="798.34" y="-231.5" font-family="Helvetica,sans-Serif" font-size="10.00">fplll/enum/topenum.cpp</text>
</a>
</g>
</g>
<!-- Node21&#45;&gt;Node22 -->
<g id="edge24" class="edge"><title>Node21&#45;&gt;Node22</title>
<path fill="none" stroke="midnightblue" d="M822.04,-271.566C816.018,-262.275 808.871,-251.248 804.012,-243.751"/>
<polygon fill="midnightblue" stroke="midnightblue" points="819.184,-273.595 827.56,-280.083 825.058,-269.788 819.184,-273.595"/>
</g>
<!-- Node23&#45;&gt;Node7 -->
<g id="edge28" class="edge"><title>Node23&#45;&gt;Node7</title>
<path fill="none" stroke="midnightblue" d="M930.38,-218.693C908.257,-203.579 870.978,-180.274 835.34,-168 739.981,-135.159 619.416,-126.27 564.715,-123.876"/>
<polygon fill="midnightblue" stroke="midnightblue" points="928.409,-221.585 938.617,-224.423 932.407,-215.839 928.409,-221.585"/>
</g>
<!-- Node23&#45;&gt;Node19 -->
<g id="edge29" class="edge"><title>Node23&#45;&gt;Node19</title>
<path fill="none" stroke="midnightblue" d="M914.387,-221.304C883.108,-211.129 838.519,-196.625 810.52,-187.516"/>
<polygon fill="midnightblue" stroke="midnightblue" points="913.444,-224.678 924.037,-224.444 915.61,-218.022 913.444,-224.678"/>
</g>
<!-- Node29&#45;&gt;Node2 -->
<g id="edge36" class="edge"><title>Node29&#45;&gt;Node2</title>
<path fill="none" stroke="midnightblue" d="M675.931,-361.352C660.32,-371.212 638.26,-383.979 622.236,-392.324"/>
<polygon fill="midnightblue" stroke="midnightblue" points="678.225,-364.036 684.705,-355.655 674.412,-358.165 678.225,-364.036"/>
</g>
<!-- Node30&#45;&gt;Node17 -->
<g id="edge38" class="edge"><title>Node30&#45;&gt;Node17</title>
<path fill="none" stroke="midnightblue" d="M200.878,-282.451C259.814,-272.688 370.739,-254.314 435.912,-243.519"/>
<polygon fill="midnightblue" stroke="midnightblue" points="200.139,-279.025 190.845,-284.113 201.283,-285.931 200.139,-279.025"/>
</g>
<!-- Node31 -->
<g id="node31" class="node"><title>Node31</title>
<g id="a_node31"><a xlink:href="lll_8h.html" target="_top" xlink:title="fplll/lll.h">
<polygon fill="white" stroke="black" points="323.34,-224.5 323.34,-243.5 373.34,-243.5 373.34,-224.5 323.34,-224.5"/>
<text text-anchor="middle" x="348.34" y="-231.5" font-family="Helvetica,sans-Serif" font-size="10.00">fplll/lll.h</text>
</a>
</g>
</g>
<!-- Node30&#45;&gt;Node31 -->
<g id="edge39" class="edge"><title>Node30&#45;&gt;Node31</title>
<path fill="none" stroke="midnightblue" d="M200.916,-277.572C237.903,-266.891 291.994,-251.271 323.336,-242.22"/>
<polygon fill="midnightblue" stroke="midnightblue" points="199.607,-274.307 190.97,-280.444 201.549,-281.032 199.607,-274.307"/>
</g>
<!-- Node32 -->
<g id="node32" class="node"><title>Node32</title>
<g id="a_node32"><a xlink:href="pruner_8h.html" target="_top" xlink:title="fplll/pruner.h">
<polygon fill="white" stroke="black" points="101.34,-224.5 101.34,-243.5 171.34,-243.5 171.34,-224.5 101.34,-224.5"/>
<text text-anchor="middle" x="136.34" y="-231.5" font-family="Helvetica,sans-Serif" font-size="10.00">fplll/pruner.h</text>
</a>
</g>
</g>
<!-- Node30&#45;&gt;Node32 -->
<g id="edge43" class="edge"><title>Node30&#45;&gt;Node32</title>
<path fill="none" stroke="midnightblue" d="M152.998,-270.983C148.755,-261.817 143.79,-251.092 140.391,-243.751"/>
<polygon fill="midnightblue" stroke="midnightblue" points="149.834,-272.479 157.212,-280.083 156.186,-269.538 149.834,-272.479"/>
</g>
<!-- Node33 -->
<g id="node33" class="node"><title>Node33</title>
<g id="a_node33"><a xlink:href="pruner_8cpp.html" target="_top" xlink:title="fplll/pruner.cpp">
<polygon fill="white" stroke="black" points="6.33979,-168.5 6.33979,-187.5 86.3398,-187.5 86.3398,-168.5 6.33979,-168.5"/>
<text text-anchor="middle" x="46.3398" y="-175.5" font-family="Helvetica,sans-Serif" font-size="10.00">fplll/pruner.cpp</text>
</a>
</g>
</g>
<!-- Node30&#45;&gt;Node33 -->
<g id="edge47" class="edge"><title>Node30&#45;&gt;Node33</title>
<path fill="none" stroke="midnightblue" d="M121.891,-283.172C80.1844,-276.108 18.4893,-262.775 4.33979,-244 -10.2156,-224.687 16.4617,-200.398 33.5842,-187.678"/>
<polygon fill="midnightblue" stroke="midnightblue" points="121.328,-286.626 131.762,-284.791 122.461,-279.718 121.328,-286.626"/>
</g>
<!-- Node34 -->
<g id="node34" class="node"><title>Node34</title>
<g id="a_node34"><a xlink:href="gso_8cpp.html" target="_top" xlink:title="fplll/gso.cpp">
<polygon fill="white" stroke="black" points="13.8398,-224.5 13.8398,-243.5 82.8398,-243.5 82.8398,-224.5 13.8398,-224.5"/>
<text text-anchor="middle" x="48.3398" y="-231.5" font-family="Helvetica,sans-Serif" font-size="10.00">fplll/gso.cpp</text>
</a>
</g>
</g>
<!-- Node30&#45;&gt;Node34 -->
<g id="edge46" class="edge"><title>Node30&#45;&gt;Node34</title>
<path fill="none" stroke="midnightblue" d="M134.337,-276.096C113.226,-266.007 84.4783,-252.27 66.1612,-243.516"/>
<polygon fill="midnightblue" stroke="midnightblue" points="132.903,-279.29 143.435,-280.444 135.921,-272.974 132.903,-279.29"/>
</g>
<!-- Node31&#45;&gt;Node5 -->
<g id="edge40" class="edge"><title>Node31&#45;&gt;Node5</title>
<path fill="none" stroke="midnightblue" d="M367.175,-217.82C379.178,-208.145 394.312,-195.948 404.379,-187.834"/>
<polygon fill="midnightblue" stroke="midnightblue" points="364.694,-215.324 359.104,-224.324 369.087,-220.774 364.694,-215.324"/>
</g>
<!-- Node31&#45;&gt;Node25 -->
<g id="edge41" class="edge"><title>Node31&#45;&gt;Node25</title>
<path fill="none" stroke="midnightblue" d="M383.072,-222.751C417.611,-212.559 469.991,-197.103 502.362,-187.551"/>
<polygon fill="midnightblue" stroke="midnightblue" points="382.002,-219.418 373.401,-225.605 383.983,-226.131 382.002,-219.418"/>
</g>
<!-- Node31&#45;&gt;Node28 -->
<g id="edge42" class="edge"><title>Node31&#45;&gt;Node28</title>
<path fill="none" stroke="midnightblue" d="M339.998,-214.983C335.755,-205.817 330.79,-195.092 327.391,-187.751"/>
<polygon fill="midnightblue" stroke="midnightblue" points="336.834,-216.479 344.212,-224.083 343.186,-213.538 336.834,-216.479"/>
</g>
<!-- Node32&#45;&gt;Node7 -->
<g id="edge44" class="edge"><title>Node32&#45;&gt;Node7</title>
<path fill="none" stroke="midnightblue" d="M155.823,-218.51C177.153,-203.407 212.92,-180.268 247.34,-168 271.502,-159.388 438.04,-136.191 506.277,-126.913"/>
<polygon fill="midnightblue" stroke="midnightblue" points="153.673,-215.745 147.611,-224.435 157.769,-221.422 153.673,-215.745"/>
</g>
<!-- Node32&#45;&gt;Node33 -->
<g id="edge45" class="edge"><title>Node32&#45;&gt;Node33</title>
<path fill="none" stroke="midnightblue" d="M113.302,-219.177C96.7409,-209.241 74.9218,-196.149 60.764,-187.655"/>
<polygon fill="midnightblue" stroke="midnightblue" points="111.504,-222.18 121.88,-224.324 115.106,-216.178 111.504,-222.18"/>
</g>
<!-- Node35&#45;&gt;Node7 -->
<g id="edge49" class="edge"><title>Node35&#45;&gt;Node7</title>
<path fill="none" stroke="midnightblue" d="M235.175,-214.837C241.812,-199.806 253.386,-179.173 270.34,-168 289.871,-155.129 441.361,-134.816 506.129,-126.613"/>
<polygon fill="midnightblue" stroke="midnightblue" points="231.907,-213.582 231.363,-224.162 238.386,-216.23 231.907,-213.582"/>
</g>
<!-- Node35&#45;&gt;Node8 -->
<g id="edge50" class="edge"><title>Node35&#45;&gt;Node8</title>
<path fill="none" stroke="midnightblue" d="M228.225,-213.93C228.008,-177.92 227.546,-101.231 227.391,-75.5681"/>
<polygon fill="midnightblue" stroke="midnightblue" points="224.726,-214.096 228.286,-224.075 231.726,-214.054 224.726,-214.096"/>
</g>
<!-- Node35&#45;&gt;Node28 -->
<g id="edge51" class="edge"><title>Node35&#45;&gt;Node28</title>
<path fill="none" stroke="midnightblue" d="M252.657,-219.177C270.139,-209.241 293.17,-196.149 308.114,-187.655"/>
<polygon fill="midnightblue" stroke="midnightblue" points="250.567,-216.339 243.603,-224.324 254.026,-222.425 250.567,-216.339"/>
</g>
</g>
</svg>
