<?xml version="1.0" encoding="UTF-8" standalone="no"?>
<!DOCTYPE svg PUBLIC "-//W3C//DTD SVG 1.1//EN"
 "http://www.w3.org/Graphics/SVG/1.1/DTD/svg11.dtd">
<!-- Generated by graphviz version 2.38.0 (20140413.2041)
 -->
<!-- Title: fplll/pruner.h Pages: 1 -->
<svg width="856pt" height="196pt"
 viewBox="0.00 0.00 856.00 196.00" xmlns="http://www.w3.org/2000/svg" xmlns:xlink="http://www.w3.org/1999/xlink">
<g id="graph0" class="graph" transform="scale(1 1) rotate(0) translate(4 192)">
<title>fplll/pruner.h</title>
<polygon fill="white" stroke="none" points="-4,4 -4,-192 852,-192 852,4 -4,4"/>
<!-- Node1 -->
<g id="node1" class="node"><title>Node1</title>
<polygon fill="#bfbfbf" stroke="black" points="390,-168.5 390,-187.5 460,-187.5 460,-168.5 390,-168.5"/>
<text text-anchor="middle" x="425" y="-175.5" font-family="Helvetica,sans-Serif" font-size="10.00">fplll/pruner.h</text>
</g>
<!-- Node2 -->
<g id="node2" class="node"><title>Node2</title>
<g id="a_node2"><a xlink:href="fplll_8h.html" target="_top" xlink:title="fplll/fplll.h">
<polygon fill="white" stroke="black" points="353,-112.5 353,-131.5 411,-131.5 411,-112.5 353,-112.5"/>
<text text-anchor="middle" x="382" y="-119.5" font-family="Helvetica,sans-Serif" font-size="10.00">fplll/fplll.h</text>
</a>
</g>
</g>
<!-- Node1&#45;&gt;Node2 -->
<g id="edge1" class="edge"><title>Node1&#45;&gt;Node2</title>
<path fill="none" stroke="midnightblue" d="M411.578,-160.144C404.086,-150.736 395.063,-139.405 388.968,-131.751"/>
<polygon fill="midnightblue" stroke="midnightblue" points="408.932,-162.44 417.899,-168.083 414.408,-158.08 408.932,-162.44"/>
</g>
<!-- Node12 -->
<g id="node12" class="node"><title>Node12</title>
<g id="a_node12"><a xlink:href="pruner_8cpp.html" target="_top" xlink:title="fplll/pruner.cpp">
<polygon fill="white" stroke="black" points="429,-112.5 429,-131.5 509,-131.5 509,-112.5 429,-112.5"/>
<text text-anchor="middle" x="469" y="-119.5" font-family="Helvetica,sans-Serif" font-size="10.00">fplll/pruner.cpp</text>
</a>
</g>
</g>
<!-- Node1&#45;&gt;Node12 -->
<g id="edge11" class="edge"><title>Node1&#45;&gt;Node12</title>
<path fill="none" stroke="midnightblue" d="M438.735,-160.144C446.401,-150.736 455.633,-139.405 461.869,-131.751"/>
<polygon fill="midnightblue" stroke="midnightblue" points="435.869,-158.12 432.266,-168.083 441.296,-162.541 435.869,-158.12"/>
</g>
<!-- Node3 -->
<g id="node3" class="node"><title>Node3</title>
<g id="a_node3"><a xlink:href="fplll_8cpp.html" target="_top" xlink:title="fplll/fplll.cpp">
<polygon fill="white" stroke="black" points="0,-56.5 0,-75.5 68,-75.5 68,-56.5 0,-56.5"/>
<text text-anchor="middle" x="34" y="-63.5" font-family="Helvetica,sans-Serif" font-size="10.00">fplll/fplll.cpp</text>
</a>
</g>
</g>
<!-- Node2&#45;&gt;Node3 -->
<g id="edge2" class="edge"><title>Node2&#45;&gt;Node3</title>
<path fill="none" stroke="midnightblue" d="M342.667,-115.963C284.452,-108.334 171.996,-92.9338 77,-76 74.1467,-75.4914 71.193,-74.9355 68.2316,-74.3575"/>
<polygon fill="midnightblue" stroke="midnightblue" points="342.52,-119.473 352.889,-117.295 343.425,-112.532 342.52,-119.473"/>
</g>
<!-- Node4 -->
<g id="node4" class="node"><title>Node4</title>
<g id="a_node4"><a xlink:href="main_8h.html" target="_top" xlink:title="fplll/main.h">
<polygon fill="white" stroke="black" points="86,-56.5 86,-75.5 150,-75.5 150,-56.5 86,-56.5"/>
<text text-anchor="middle" x="118" y="-63.5" font-family="Helvetica,sans-Serif" font-size="10.00">fplll/main.h</text>
</a>
</g>
</g>
<!-- Node2&#45;&gt;Node4 -->
<g id="edge3" class="edge"><title>Node2&#45;&gt;Node4</title>
<path fill="none" stroke="midnightblue" d="M342.907,-113.32C298.35,-104.518 223.359,-89.5564 159,-76 156.148,-75.3992 153.186,-74.7664 150.218,-74.1263"/>
<polygon fill="midnightblue" stroke="midnightblue" points="342.257,-116.759 352.745,-115.261 343.612,-109.891 342.257,-116.759"/>
</g>
<!-- Node6 -->
<g id="node6" class="node"><title>Node6</title>
<g id="a_node6"><a xlink:href="test__bkz_8cpp.html" target="_top" xlink:title="tests/test_bkz.cpp">
<polygon fill="white" stroke="black" points="168,-56.5 168,-75.5 266,-75.5 266,-56.5 168,-56.5"/>
<text text-anchor="middle" x="217" y="-63.5" font-family="Helvetica,sans-Serif" font-size="10.00">tests/test_bkz.cpp</text>
</a>
</g>
</g>
<!-- Node2&#45;&gt;Node6 -->
<g id="edge5" class="edge"><title>Node2&#45;&gt;Node6</title>
<path fill="none" stroke="midnightblue" d="M346.264,-109.304C315.173,-99.1294 270.853,-84.6246 243.022,-75.5164"/>
<polygon fill="midnightblue" stroke="midnightblue" points="345.263,-112.659 355.855,-112.444 347.44,-106.007 345.263,-112.659"/>
</g>
<!-- Node7 -->
<g id="node7" class="node"><title>Node7</title>
<g id="a_node7"><a xlink:href="test__lll_8cpp.html" target="_top" xlink:title="tests/test_lll.cpp">
<polygon fill="white" stroke="black" points="283.5,-56.5 283.5,-75.5 372.5,-75.5 372.5,-56.5 283.5,-56.5"/>
<text text-anchor="middle" x="328" y="-63.5" font-family="Helvetica,sans-Serif" font-size="10.00">tests/test_lll.cpp</text>
</a>
</g>
</g>
<!-- Node2&#45;&gt;Node7 -->
<g id="edge6" class="edge"><title>Node2&#45;&gt;Node7</title>
<path fill="none" stroke="midnightblue" d="M366.002,-105.002C356.433,-95.4329 344.639,-83.6389 336.751,-75.7511"/>
<polygon fill="midnightblue" stroke="midnightblue" points="363.537,-107.487 373.083,-112.083 368.487,-102.537 363.537,-107.487"/>
</g>
<!-- Node8 -->
<g id="node8" class="node"><title>Node8</title>
<g id="a_node8"><a xlink:href="test__nr_8cpp.html" target="_top" xlink:title="tests/test_nr.cpp">
<polygon fill="white" stroke="black" points="391,-56.5 391,-75.5 481,-75.5 481,-56.5 391,-56.5"/>
<text text-anchor="middle" x="436" y="-63.5" font-family="Helvetica,sans-Serif" font-size="10.00">tests/test_nr.cpp</text>
</a>
</g>
</g>
<!-- Node2&#45;&gt;Node8 -->
<g id="edge7" class="edge"><title>Node2&#45;&gt;Node8</title>
<path fill="none" stroke="midnightblue" d="M397.998,-105.002C407.567,-95.4329 419.361,-83.6389 427.249,-75.7511"/>
<polygon fill="midnightblue" stroke="midnightblue" points="395.513,-102.537 390.917,-112.083 400.463,-107.487 395.513,-102.537"/>
</g>
<!-- Node9 -->
<g id="node9" class="node"><title>Node9</title>
<g id="a_node9"><a xlink:href="test__pruner_8cpp.html" target="_top" xlink:title="tests/test_pruner.cpp">
<polygon fill="white" stroke="black" points="499.5,-56.5 499.5,-75.5 608.5,-75.5 608.5,-56.5 499.5,-56.5"/>
<text text-anchor="middle" x="554" y="-63.5" font-family="Helvetica,sans-Serif" font-size="10.00">tests/test_pruner.cpp</text>
</a>
</g>
</g>
<!-- Node2&#45;&gt;Node9 -->
<g id="edge8" class="edge"><title>Node2&#45;&gt;Node9</title>
<path fill="none" stroke="midnightblue" d="M418.832,-109.436C451.262,-99.2551 497.737,-84.664 526.874,-75.5164"/>
<polygon fill="midnightblue" stroke="midnightblue" points="417.746,-106.109 409.254,-112.444 419.843,-112.787 417.746,-106.109"/>
</g>
<!-- Node10 -->
<g id="node10" class="node"><title>Node10</title>
<g id="a_node10"><a xlink:href="test__sieve_8cpp.html" target="_top" xlink:title="tests/test_sieve.cpp">
<polygon fill="white" stroke="black" points="626.5,-56.5 626.5,-75.5 731.5,-75.5 731.5,-56.5 626.5,-56.5"/>
<text text-anchor="middle" x="679" y="-63.5" font-family="Helvetica,sans-Serif" font-size="10.00">tests/test_sieve.cpp</text>
</a>
</g>
</g>
<!-- Node2&#45;&gt;Node10 -->
<g id="edge9" class="edge"><title>Node2&#45;&gt;Node10</title>
<path fill="none" stroke="midnightblue" d="M420.871,-111.92C497.819,-96.2952 575.933,-83.2483 626.243,-75.2064"/>
<polygon fill="midnightblue" stroke="midnightblue" points="420.101,-108.505 411.006,-113.939 421.505,-115.363 420.101,-108.505"/>
</g>
<!-- Node11 -->
<g id="node11" class="node"><title>Node11</title>
<g id="a_node11"><a xlink:href="test__svp_8cpp.html" target="_top" xlink:title="tests/test_svp.cpp">
<polygon fill="white" stroke="black" points="750,-56.5 750,-75.5 848,-75.5 848,-56.5 750,-56.5"/>
<text text-anchor="middle" x="799" y="-63.5" font-family="Helvetica,sans-Serif" font-size="10.00">tests/test_svp.cpp</text>
</a>
</g>
</g>
<!-- Node2&#45;&gt;Node11 -->
<g id="edge10" class="edge"><title>Node2&#45;&gt;Node11</title>
<path fill="none" stroke="midnightblue" d="M421.329,-111.951C563.167,-87.74 601.899,-94.5839 741,-76 743.929,-75.6087 746.939,-75.1905 749.973,-74.7566"/>
<polygon fill="midnightblue" stroke="midnightblue" points="420.644,-108.517 411.386,-113.67 421.836,-115.415 420.644,-108.517"/>
</g>
<!-- Node5 -->
<g id="node5" class="node"><title>Node5</title>
<g id="a_node5"><a xlink:href="main_8cpp.html" target="_top" xlink:title="fplll/main.cpp">
<polygon fill="white" stroke="black" points="81,-0.5 81,-19.5 155,-19.5 155,-0.5 81,-0.5"/>
<text text-anchor="middle" x="118" y="-7.5" font-family="Helvetica,sans-Serif" font-size="10.00">fplll/main.cpp</text>
</a>
</g>
</g>
<!-- Node4&#45;&gt;Node5 -->
<g id="edge4" class="edge"><title>Node4&#45;&gt;Node5</title>
<path fill="none" stroke="midnightblue" d="M118,-45.8045C118,-36.9102 118,-26.7798 118,-19.7511"/>
<polygon fill="midnightblue" stroke="midnightblue" points="114.5,-46.083 118,-56.083 121.5,-46.083 114.5,-46.083"/>
</g>
</g>
</svg>
