<?xml version="1.0" encoding="UTF-8" standalone="no"?>
<!DOCTYPE svg PUBLIC "-//W3C//DTD SVG 1.1//EN"
 "http://www.w3.org/Graphics/SVG/1.1/DTD/svg11.dtd">
<!-- Generated by graphviz version 2.43.0 (0)
 -->
<!-- Title: fplll/pruner/pruner.h Pages: 1 -->
<svg width="2020pt" height="319pt"
 viewBox="0.00 0.00 2019.81 319.00" xmlns="http://www.w3.org/2000/svg" xmlns:xlink="http://www.w3.org/1999/xlink">
<g id="graph0" class="graph" transform="scale(1 1) rotate(0) translate(4 315)">
<title>fplll/pruner/pruner.h</title>
<polygon fill="white" stroke="transparent" points="-4,4 -4,-315 2015.81,-315 2015.81,4 -4,4"/>
<!-- Node1 -->
<g id="node1" class="node">
<title>Node1</title>
<g id="a_node1"><a xlink:title=" ">
<polygon fill="#bfbfbf" stroke="black" points="888.31,-291.5 888.31,-310.5 987.31,-310.5 987.31,-291.5 888.31,-291.5"/>
<text text-anchor="middle" x="937.81" y="-298.5" font-family="Helvetica,sans-Serif" font-size="10.00">fplll/pruner/pruner.h</text>
</a>
</g>
</g>
<!-- Node2 -->
<g id="node2" class="node">
<title>Node2</title>
<g id="a_node2"><a xlink:href="bkz__param_8h.html" target="_top" xlink:title=" ">
<polygon fill="white" stroke="black" points="1009.31,-235.5 1009.31,-254.5 1100.31,-254.5 1100.31,-235.5 1009.31,-235.5"/>
<text text-anchor="middle" x="1054.81" y="-242.5" font-family="Helvetica,sans-Serif" font-size="10.00">fplll/bkz_param.h</text>
</a>
</g>
</g>
<!-- Node1&#45;&gt;Node2 -->
<g id="edge1" class="edge">
<title>Node1&#45;&gt;Node2</title>
<path fill="none" stroke="midnightblue" d="M965.48,-287.23C987.36,-277.13 1017.31,-263.31 1036.36,-254.52"/>
<polygon fill="midnightblue" stroke="midnightblue" points="963.96,-284.08 956.35,-291.44 966.9,-290.43 963.96,-284.08"/>
</g>
<!-- Node5 -->
<g id="node5" class="node">
<title>Node5</title>
<g id="a_node5"><a xlink:href="fplll_8h.html" target="_top" xlink:title=" ">
<polygon fill="white" stroke="black" points="994.81,-123.5 994.81,-142.5 1052.81,-142.5 1052.81,-123.5 994.81,-123.5"/>
<text text-anchor="middle" x="1023.81" y="-130.5" font-family="Helvetica,sans-Serif" font-size="10.00">fplll/fplll.h</text>
</a>
</g>
</g>
<!-- Node1&#45;&gt;Node5 -->
<g id="edge49" class="edge">
<title>Node1&#45;&gt;Node5</title>
<path fill="none" stroke="midnightblue" d="M943.82,-281.73C952.19,-257.41 968.63,-213.46 988.81,-179 996.72,-165.51 1008.2,-151.53 1015.83,-142.8"/>
<polygon fill="midnightblue" stroke="midnightblue" points="940.43,-280.83 940.56,-291.42 947.06,-283.06 940.43,-280.83"/>
</g>
<!-- Node9 -->
<g id="node9" class="node">
<title>Node9</title>
<g id="a_node9"><a xlink:href="pruner_8cpp.html" target="_top" xlink:title=" ">
<polygon fill="white" stroke="black" points="381.81,-0.5 381.81,-19.5 491.81,-19.5 491.81,-0.5 381.81,-0.5"/>
<text text-anchor="middle" x="436.81" y="-7.5" font-family="Helvetica,sans-Serif" font-size="10.00">fplll/pruner/pruner.cpp</text>
</a>
</g>
</g>
<!-- Node1&#45;&gt;Node9 -->
<g id="edge50" class="edge">
<title>Node1&#45;&gt;Node9</title>
<path fill="none" stroke="midnightblue" d="M878.1,-299.28C671.83,-296.02 1.81,-278.6 1.81,-190 1.81,-190 1.81,-190 1.81,-132 1.81,-97.18 -5.44,-78.87 20.81,-56 47.51,-32.73 274.91,-18.8 381.76,-13.48"/>
<polygon fill="midnightblue" stroke="midnightblue" points="878.1,-302.78 888.15,-299.43 878.2,-295.78 878.1,-302.78"/>
</g>
<!-- Node3 -->
<g id="node3" class="node">
<title>Node3</title>
<g id="a_node3"><a xlink:href="bkz_8cpp.html" target="_top" xlink:title=" ">
<polygon fill="white" stroke="black" points="1147.31,-123.5 1147.31,-142.5 1216.31,-142.5 1216.31,-123.5 1147.31,-123.5"/>
<text text-anchor="middle" x="1181.81" y="-130.5" font-family="Helvetica,sans-Serif" font-size="10.00">fplll/bkz.cpp</text>
</a>
</g>
</g>
<!-- Node2&#45;&gt;Node3 -->
<g id="edge2" class="edge">
<title>Node2&#45;&gt;Node3</title>
<path fill="none" stroke="midnightblue" d="M1110.52,-240.75C1139.77,-235.87 1173.29,-224.58 1191.81,-199 1204,-182.17 1193.8,-156.42 1186.89,-142.93"/>
<polygon fill="midnightblue" stroke="midnightblue" points="1109.77,-237.32 1100.38,-242.22 1110.78,-244.25 1109.77,-237.32"/>
</g>
<!-- Node4 -->
<g id="node4" class="node">
<title>Node4</title>
<g id="a_node4"><a xlink:href="bkz_8h.html" target="_top" xlink:title=" ">
<polygon fill="white" stroke="black" points="1123.31,-179.5 1123.31,-198.5 1182.31,-198.5 1182.31,-179.5 1123.31,-179.5"/>
<text text-anchor="middle" x="1152.81" y="-186.5" font-family="Helvetica,sans-Serif" font-size="10.00">fplll/bkz.h</text>
</a>
</g>
</g>
<!-- Node2&#45;&gt;Node4 -->
<g id="edge3" class="edge">
<title>Node2&#45;&gt;Node4</title>
<path fill="none" stroke="midnightblue" d="M1079.4,-230.45C1097.49,-220.48 1121.55,-207.23 1137.11,-198.65"/>
<polygon fill="midnightblue" stroke="midnightblue" points="1077.63,-227.43 1070.56,-235.32 1081.01,-233.56 1077.63,-227.43"/>
</g>
<!-- Node2&#45;&gt;Node5 -->
<g id="edge48" class="edge">
<title>Node2&#45;&gt;Node5</title>
<path fill="none" stroke="midnightblue" d="M1026.98,-230.27C1015.08,-222.81 1002.42,-212.34 995.81,-199 986,-179.18 1003.83,-155.1 1015.28,-142.54"/>
<polygon fill="midnightblue" stroke="midnightblue" points="1025.42,-233.41 1035.83,-235.4 1028.93,-227.36 1025.42,-233.41"/>
</g>
<!-- Node32 -->
<g id="node32" class="node">
<title>Node32</title>
<g id="a_node32"><a xlink:href="bkz__param_8cpp.html" target="_top" xlink:title=" ">
<polygon fill="white" stroke="black" points="1004.31,-179.5 1004.31,-198.5 1105.31,-198.5 1105.31,-179.5 1004.31,-179.5"/>
<text text-anchor="middle" x="1054.81" y="-186.5" font-family="Helvetica,sans-Serif" font-size="10.00">fplll/bkz_param.cpp</text>
</a>
</g>
</g>
<!-- Node2&#45;&gt;Node32 -->
<g id="edge47" class="edge">
<title>Node2&#45;&gt;Node32</title>
<path fill="none" stroke="midnightblue" d="M1054.81,-224.8C1054.81,-215.91 1054.81,-205.78 1054.81,-198.75"/>
<polygon fill="midnightblue" stroke="midnightblue" points="1051.31,-225.08 1054.81,-235.08 1058.31,-225.08 1051.31,-225.08"/>
</g>
<!-- Node4&#45;&gt;Node3 -->
<g id="edge4" class="edge">
<title>Node4&#45;&gt;Node3</title>
<path fill="none" stroke="midnightblue" d="M1162.49,-169.98C1167.41,-160.82 1173.17,-150.09 1177.11,-142.75"/>
<polygon fill="midnightblue" stroke="midnightblue" points="1159.25,-168.62 1157.6,-179.08 1165.42,-171.93 1159.25,-168.62"/>
</g>
<!-- Node4&#45;&gt;Node5 -->
<g id="edge5" class="edge">
<title>Node4&#45;&gt;Node5</title>
<path fill="none" stroke="midnightblue" d="M1122.96,-175.5C1098.77,-165.38 1065.35,-151.39 1044.16,-142.52"/>
<polygon fill="midnightblue" stroke="midnightblue" points="1121.8,-178.81 1132.37,-179.44 1124.5,-172.35 1121.8,-178.81"/>
</g>
<!-- Node6 -->
<g id="node6" class="node">
<title>Node6</title>
<g id="a_node6"><a xlink:href="fplll_8cpp.html" target="_top" xlink:title=" ">
<polygon fill="white" stroke="black" points="139.81,-62 139.81,-81 207.81,-81 207.81,-62 139.81,-62"/>
<text text-anchor="middle" x="173.81" y="-69" font-family="Helvetica,sans-Serif" font-size="10.00">fplll/fplll.cpp</text>
</a>
</g>
</g>
<!-- Node5&#45;&gt;Node6 -->
<g id="edge6" class="edge">
<title>Node5&#45;&gt;Node6</title>
<path fill="none" stroke="midnightblue" d="M984.4,-131.21C843.69,-128.15 366.54,-115.87 216.81,-87 209.7,-85.63 202.14,-83.37 195.38,-81.04"/>
<polygon fill="midnightblue" stroke="midnightblue" points="984.63,-134.71 994.7,-131.43 984.78,-127.71 984.63,-134.71"/>
</g>
<!-- Node7 -->
<g id="node7" class="node">
<title>Node7</title>
<g id="a_node7"><a xlink:href="main_8h.html" target="_top" xlink:title=" ">
<polygon fill="white" stroke="black" points="1913.81,-62 1913.81,-81 1977.81,-81 1977.81,-62 1913.81,-62"/>
<text text-anchor="middle" x="1945.81" y="-69" font-family="Helvetica,sans-Serif" font-size="10.00">fplll/main.h</text>
</a>
</g>
</g>
<!-- Node5&#45;&gt;Node7 -->
<g id="edge7" class="edge">
<title>Node5&#45;&gt;Node7</title>
<path fill="none" stroke="midnightblue" d="M1063.16,-128.64C1085.36,-126.82 1113.62,-124.61 1138.81,-123 1461.22,-102.39 1543.82,-123.54 1864.81,-87 1880.99,-85.16 1898.83,-82.08 1913.63,-79.23"/>
<polygon fill="midnightblue" stroke="midnightblue" points="1062.78,-125.16 1053.1,-129.48 1063.36,-132.14 1062.78,-125.16"/>
</g>
<!-- Node5&#45;&gt;Node9 -->
<g id="edge9" class="edge">
<title>Node5&#45;&gt;Node9</title>
<path fill="none" stroke="midnightblue" d="M989.91,-119.86C969.87,-111.94 944.46,-100.56 923.81,-87 906.72,-75.78 908.49,-64.32 889.81,-56 819.97,-24.88 596.9,-15.1 492.14,-12.17"/>
<polygon fill="midnightblue" stroke="midnightblue" points="988.68,-123.13 999.27,-123.46 991.2,-116.6 988.68,-123.13"/>
</g>
<!-- Node10 -->
<g id="node10" class="node">
<title>Node10</title>
<g id="a_node10"><a xlink:href="pruner__cost_8cpp.html" target="_top" xlink:title=" ">
<polygon fill="white" stroke="black" points="29.81,-56.5 29.81,-86.5 121.81,-86.5 121.81,-56.5 29.81,-56.5"/>
<text text-anchor="start" x="37.81" y="-74.5" font-family="Helvetica,sans-Serif" font-size="10.00">fplll/pruner/pruner</text>
<text text-anchor="middle" x="75.81" y="-63.5" font-family="Helvetica,sans-Serif" font-size="10.00">_cost.cpp</text>
</a>
</g>
</g>
<!-- Node5&#45;&gt;Node10 -->
<g id="edge10" class="edge">
<title>Node5&#45;&gt;Node10</title>
<path fill="none" stroke="midnightblue" d="M984.26,-131.1C834.05,-127.5 298.96,-113.11 130.81,-87 127.89,-86.55 124.89,-86 121.88,-85.39"/>
<polygon fill="midnightblue" stroke="midnightblue" points="984.32,-134.6 994.4,-131.34 984.48,-127.6 984.32,-134.6"/>
</g>
<!-- Node11 -->
<g id="node11" class="node">
<title>Node11</title>
<g id="a_node11"><a xlink:href="pruner__optimize_8cpp.html" target="_top" xlink:title=" ">
<polygon fill="white" stroke="black" points="225.81,-56.5 225.81,-86.5 317.81,-86.5 317.81,-56.5 225.81,-56.5"/>
<text text-anchor="start" x="233.81" y="-74.5" font-family="Helvetica,sans-Serif" font-size="10.00">fplll/pruner/pruner</text>
<text text-anchor="middle" x="271.81" y="-63.5" font-family="Helvetica,sans-Serif" font-size="10.00">_optimize.cpp</text>
</a>
</g>
</g>
<!-- Node5&#45;&gt;Node11 -->
<g id="edge12" class="edge">
<title>Node5&#45;&gt;Node11</title>
<path fill="none" stroke="midnightblue" d="M984.42,-132.11C877.77,-131.84 574.73,-127.29 326.81,-87 323.89,-86.52 320.89,-85.96 317.89,-85.34"/>
<polygon fill="midnightblue" stroke="midnightblue" points="984.7,-135.61 994.71,-132.13 984.71,-128.61 984.7,-135.61"/>
</g>
<!-- Node12 -->
<g id="node12" class="node">
<title>Node12</title>
<g id="a_node12"><a xlink:href="pruner__optimize__tc_8cpp.html" target="_top" xlink:title=" ">
<polygon fill="white" stroke="black" points="335.81,-56.5 335.81,-86.5 427.81,-86.5 427.81,-56.5 335.81,-56.5"/>
<text text-anchor="start" x="343.81" y="-74.5" font-family="Helvetica,sans-Serif" font-size="10.00">fplll/pruner/pruner</text>
<text text-anchor="middle" x="381.81" y="-63.5" font-family="Helvetica,sans-Serif" font-size="10.00">_optimize_tc.cpp</text>
</a>
</g>
</g>
<!-- Node5&#45;&gt;Node12 -->
<g id="edge14" class="edge">
<title>Node5&#45;&gt;Node12</title>
<path fill="none" stroke="midnightblue" d="M984.57,-131.44C889.78,-129.56 641.06,-121.46 436.81,-87 433.89,-86.51 430.9,-85.93 427.89,-85.3"/>
<polygon fill="midnightblue" stroke="midnightblue" points="984.51,-134.94 994.57,-131.63 984.64,-127.94 984.51,-134.94"/>
</g>
<!-- Node13 -->
<g id="node13" class="node">
<title>Node13</title>
<g id="a_node13"><a xlink:href="pruner__optimize__tp_8cpp.html" target="_top" xlink:title=" ">
<polygon fill="white" stroke="black" points="445.81,-56.5 445.81,-86.5 537.81,-86.5 537.81,-56.5 445.81,-56.5"/>
<text text-anchor="start" x="453.81" y="-74.5" font-family="Helvetica,sans-Serif" font-size="10.00">fplll/pruner/pruner</text>
<text text-anchor="middle" x="491.81" y="-63.5" font-family="Helvetica,sans-Serif" font-size="10.00">_optimize_tp.cpp</text>
</a>
</g>
</g>
<!-- Node5&#45;&gt;Node13 -->
<g id="edge16" class="edge">
<title>Node5&#45;&gt;Node13</title>
<path fill="none" stroke="midnightblue" d="M984.43,-130.47C902.44,-126.8 707.65,-115.59 546.81,-87 543.9,-86.48 540.91,-85.89 537.9,-85.24"/>
<polygon fill="midnightblue" stroke="midnightblue" points="984.41,-133.97 994.55,-130.91 984.71,-126.98 984.41,-133.97"/>
</g>
<!-- Node14 -->
<g id="node14" class="node">
<title>Node14</title>
<g id="a_node14"><a xlink:href="pruner__prob_8cpp.html" target="_top" xlink:title=" ">
<polygon fill="white" stroke="black" points="555.81,-56.5 555.81,-86.5 647.81,-86.5 647.81,-56.5 555.81,-56.5"/>
<text text-anchor="start" x="563.81" y="-74.5" font-family="Helvetica,sans-Serif" font-size="10.00">fplll/pruner/pruner</text>
<text text-anchor="middle" x="601.81" y="-63.5" font-family="Helvetica,sans-Serif" font-size="10.00">_prob.cpp</text>
</a>
</g>
</g>
<!-- Node5&#45;&gt;Node14 -->
<g id="edge18" class="edge">
<title>Node5&#45;&gt;Node14</title>
<path fill="none" stroke="midnightblue" d="M984.4,-128.94C916.9,-123.29 774.99,-109.71 656.81,-87 653.9,-86.44 650.92,-85.81 647.92,-85.14"/>
<polygon fill="midnightblue" stroke="midnightblue" points="984.33,-132.44 994.58,-129.77 984.9,-125.46 984.33,-132.44"/>
</g>
<!-- Node15 -->
<g id="node15" class="node">
<title>Node15</title>
<g id="a_node15"><a xlink:href="pruner__util_8cpp.html" target="_top" xlink:title=" ">
<polygon fill="white" stroke="black" points="665.81,-56.5 665.81,-86.5 757.81,-86.5 757.81,-56.5 665.81,-56.5"/>
<text text-anchor="start" x="673.81" y="-74.5" font-family="Helvetica,sans-Serif" font-size="10.00">fplll/pruner/pruner</text>
<text text-anchor="middle" x="711.81" y="-63.5" font-family="Helvetica,sans-Serif" font-size="10.00">_util.cpp</text>
</a>
</g>
</g>
<!-- Node5&#45;&gt;Node15 -->
<g id="edge20" class="edge">
<title>Node5&#45;&gt;Node15</title>
<path fill="none" stroke="midnightblue" d="M984.58,-126.19C934.01,-118.45 843.44,-103.78 766.81,-87 763.92,-86.37 760.95,-85.68 757.96,-84.97"/>
<polygon fill="midnightblue" stroke="midnightblue" points="984.34,-129.69 994.75,-127.73 985.39,-122.77 984.34,-129.69"/>
</g>
<!-- Node16 -->
<g id="node16" class="node">
<title>Node16</title>
<g id="a_node16"><a xlink:href="test__babai_8cpp.html" target="_top" xlink:title=" ">
<polygon fill="white" stroke="black" points="776.31,-62 776.31,-81 881.31,-81 881.31,-62 776.31,-62"/>
<text text-anchor="middle" x="828.81" y="-69" font-family="Helvetica,sans-Serif" font-size="10.00">tests/test_babai.cpp</text>
</a>
</g>
</g>
<!-- Node5&#45;&gt;Node16 -->
<g id="edge22" class="edge">
<title>Node5&#45;&gt;Node16</title>
<path fill="none" stroke="midnightblue" d="M986.22,-120.53C948.32,-108.96 890.7,-91.38 856.7,-81.01"/>
<polygon fill="midnightblue" stroke="midnightblue" points="985.29,-123.9 995.87,-123.48 987.33,-117.21 985.29,-123.9"/>
</g>
<!-- Node17 -->
<g id="node17" class="node">
<title>Node17</title>
<g id="a_node17"><a xlink:href="test__bkz_8cpp.html" target="_top" xlink:title=" ">
<polygon fill="white" stroke="black" points="708.81,-0.5 708.81,-19.5 806.81,-19.5 806.81,-0.5 708.81,-0.5"/>
<text text-anchor="middle" x="757.81" y="-7.5" font-family="Helvetica,sans-Serif" font-size="10.00">tests/test_bkz.cpp</text>
</a>
</g>
</g>
<!-- Node5&#45;&gt;Node17 -->
<g id="edge23" class="edge">
<title>Node5&#45;&gt;Node17</title>
<path fill="none" stroke="midnightblue" d="M1003.14,-117.44C990.98,-108.77 975.38,-97.45 961.81,-87 944.54,-73.7 943.2,-65.96 923.81,-56 886.89,-37.04 841.13,-25.4 807,-18.72"/>
<polygon fill="midnightblue" stroke="midnightblue" points="1001.13,-120.3 1011.31,-123.24 1005.18,-114.6 1001.13,-120.3"/>
</g>
<!-- Node18 -->
<g id="node18" class="node">
<title>Node18</title>
<g id="a_node18"><a xlink:href="test__bkz__gram_8cpp.html" target="_top" xlink:title=" ">
<polygon fill="white" stroke="black" points="825.31,-0.5 825.31,-19.5 950.31,-19.5 950.31,-0.5 825.31,-0.5"/>
<text text-anchor="middle" x="887.81" y="-7.5" font-family="Helvetica,sans-Serif" font-size="10.00">tests/test_bkz_gram.cpp</text>
</a>
</g>
</g>
<!-- Node5&#45;&gt;Node18 -->
<g id="edge24" class="edge">
<title>Node5&#45;&gt;Node18</title>
<path fill="none" stroke="midnightblue" d="M1012.25,-114.62C1000.76,-98.21 981.99,-73.57 961.81,-56 944.46,-40.89 921.42,-27.77 905.68,-19.66"/>
<polygon fill="midnightblue" stroke="midnightblue" points="1009.59,-116.93 1018.12,-123.21 1015.37,-112.98 1009.59,-116.93"/>
</g>
<!-- Node19 -->
<g id="node19" class="node">
<title>Node19</title>
<g id="a_node19"><a xlink:href="test__ceil_8cpp.html" target="_top" xlink:title=" ">
<polygon fill="white" stroke="black" points="1235.31,-62 1235.31,-81 1332.31,-81 1332.31,-62 1235.31,-62"/>
<text text-anchor="middle" x="1283.81" y="-69" font-family="Helvetica,sans-Serif" font-size="10.00">tests/test_ceil.cpp</text>
</a>
</g>
</g>
<!-- Node5&#45;&gt;Node19 -->
<g id="edge25" class="edge">
<title>Node5&#45;&gt;Node19</title>
<path fill="none" stroke="midnightblue" d="M1062.97,-123.7C1103.91,-114.93 1170,-100.52 1226.81,-87 1234.66,-85.13 1243.09,-83.04 1251,-81.03"/>
<polygon fill="midnightblue" stroke="midnightblue" points="1062.17,-120.29 1053.12,-125.8 1063.63,-127.13 1062.17,-120.29"/>
</g>
<!-- Node20 -->
<g id="node20" class="node">
<title>Node20</title>
<g id="a_node20"><a xlink:href="test__counter_8cpp.html" target="_top" xlink:title=" ">
<polygon fill="white" stroke="black" points="1350.31,-62 1350.31,-81 1463.31,-81 1463.31,-62 1350.31,-62"/>
<text text-anchor="middle" x="1406.81" y="-69" font-family="Helvetica,sans-Serif" font-size="10.00">tests/test_counter.cpp</text>
</a>
</g>
</g>
<!-- Node5&#45;&gt;Node20 -->
<g id="edge26" class="edge">
<title>Node5&#45;&gt;Node20</title>
<path fill="none" stroke="midnightblue" d="M1063.07,-127.46C1123.28,-120.26 1241.93,-105.18 1341.81,-87 1351.25,-85.28 1361.41,-83.15 1370.81,-81.06"/>
<polygon fill="midnightblue" stroke="midnightblue" points="1062.39,-124.01 1052.87,-128.67 1063.22,-130.96 1062.39,-124.01"/>
</g>
<!-- Node21 -->
<g id="node21" class="node">
<title>Node21</title>
<g id="a_node21"><a xlink:href="test__cvp_8cpp.html" target="_top" xlink:title=" ">
<polygon fill="white" stroke="black" points="968.81,-0.5 968.81,-19.5 1066.81,-19.5 1066.81,-0.5 968.81,-0.5"/>
<text text-anchor="middle" x="1017.81" y="-7.5" font-family="Helvetica,sans-Serif" font-size="10.00">tests/test_cvp.cpp</text>
</a>
</g>
</g>
<!-- Node5&#45;&gt;Node21 -->
<g id="edge27" class="edge">
<title>Node5&#45;&gt;Node21</title>
<path fill="none" stroke="midnightblue" d="M1022.87,-112.99C1021.55,-86.35 1019.2,-39 1018.24,-19.62"/>
<polygon fill="midnightblue" stroke="midnightblue" points="1019.39,-113.48 1023.38,-123.3 1026.38,-113.14 1019.39,-113.48"/>
</g>
<!-- Node22 -->
<g id="node22" class="node">
<title>Node22</title>
<g id="a_node22"><a xlink:href="test__enum_8cpp.html" target="_top" xlink:title=" ">
<polygon fill="white" stroke="black" points="1084.81,-0.5 1084.81,-19.5 1190.81,-19.5 1190.81,-0.5 1084.81,-0.5"/>
<text text-anchor="middle" x="1137.81" y="-7.5" font-family="Helvetica,sans-Serif" font-size="10.00">tests/test_enum.cpp</text>
</a>
</g>
</g>
<!-- Node5&#45;&gt;Node22 -->
<g id="edge28" class="edge">
<title>Node5&#45;&gt;Node22</title>
<path fill="none" stroke="midnightblue" d="M1036.45,-114.83C1048.46,-98.95 1067.37,-74.99 1085.81,-56 1098.96,-42.47 1115.68,-28.5 1126.56,-19.79"/>
<polygon fill="midnightblue" stroke="midnightblue" points="1033.41,-113.05 1030.23,-123.16 1039.02,-117.24 1033.41,-113.05"/>
</g>
<!-- Node23 -->
<g id="node23" class="node">
<title>Node23</title>
<g id="a_node23"><a xlink:href="test__hlll_8cpp.html" target="_top" xlink:title=" ">
<polygon fill="white" stroke="black" points="1208.81,-0.5 1208.81,-19.5 1302.81,-19.5 1302.81,-0.5 1208.81,-0.5"/>
<text text-anchor="middle" x="1255.81" y="-7.5" font-family="Helvetica,sans-Serif" font-size="10.00">tests/test_hlll.cpp</text>
</a>
</g>
</g>
<!-- Node5&#45;&gt;Node23 -->
<g id="edge29" class="edge">
<title>Node5&#45;&gt;Node23</title>
<path fill="none" stroke="midnightblue" d="M1044.7,-117.71C1056.93,-109.13 1072.54,-97.81 1085.81,-87 1101.67,-74.09 1102.16,-66.33 1119.81,-56 1149.86,-38.42 1187.72,-26.61 1215.86,-19.51"/>
<polygon fill="midnightblue" stroke="midnightblue" points="1042.68,-114.85 1036.47,-123.43 1046.68,-120.6 1042.68,-114.85"/>
</g>
<!-- Node24 -->
<g id="node24" class="node">
<title>Node24</title>
<g id="a_node24"><a xlink:href="test__lll_8cpp.html" target="_top" xlink:title=" ">
<polygon fill="white" stroke="black" points="1437.31,-0.5 1437.31,-19.5 1526.31,-19.5 1526.31,-0.5 1437.31,-0.5"/>
<text text-anchor="middle" x="1481.81" y="-7.5" font-family="Helvetica,sans-Serif" font-size="10.00">tests/test_lll.cpp</text>
</a>
</g>
</g>
<!-- Node5&#45;&gt;Node24 -->
<g id="edge30" class="edge">
<title>Node5&#45;&gt;Node24</title>
<path fill="none" stroke="midnightblue" d="M1063.17,-128.78C1085.37,-126.99 1113.63,-124.78 1138.81,-123 1201.78,-118.54 1662.61,-133.03 1705.81,-87 1715.24,-76.95 1714.54,-66.66 1705.81,-56 1702.95,-52.51 1590.94,-31.24 1526.43,-19.23"/>
<polygon fill="midnightblue" stroke="midnightblue" points="1062.8,-125.29 1053.11,-129.59 1063.36,-132.27 1062.8,-125.29"/>
</g>
<!-- Node25 -->
<g id="node25" class="node">
<title>Node25</title>
<g id="a_node25"><a xlink:href="test__lll__gram_8cpp.html" target="_top" xlink:title=" ">
<polygon fill="white" stroke="black" points="1543.81,-0.5 1543.81,-19.5 1659.81,-19.5 1659.81,-0.5 1543.81,-0.5"/>
<text text-anchor="middle" x="1601.81" y="-7.5" font-family="Helvetica,sans-Serif" font-size="10.00">tests/test_lll_gram.cpp</text>
</a>
</g>
</g>
<!-- Node5&#45;&gt;Node25 -->
<g id="edge31" class="edge">
<title>Node5&#45;&gt;Node25</title>
<path fill="none" stroke="midnightblue" d="M1063.17,-128.76C1085.37,-126.97 1113.63,-124.76 1138.81,-123 1203.67,-118.46 1678.28,-134.36 1722.81,-87 1732.25,-76.96 1730.68,-67.31 1722.81,-56 1708.49,-35.39 1683.54,-24.2 1660,-18.13"/>
<polygon fill="midnightblue" stroke="midnightblue" points="1062.79,-125.28 1053.11,-129.57 1063.36,-132.25 1062.79,-125.28"/>
</g>
<!-- Node26 -->
<g id="node26" class="node">
<title>Node26</title>
<g id="a_node26"><a xlink:href="test__nr_8cpp.html" target="_top" xlink:title=" ">
<polygon fill="white" stroke="black" points="1481.31,-62 1481.31,-81 1570.31,-81 1570.31,-62 1481.31,-62"/>
<text text-anchor="middle" x="1525.81" y="-69" font-family="Helvetica,sans-Serif" font-size="10.00">tests/test_nr.cpp</text>
</a>
</g>
</g>
<!-- Node5&#45;&gt;Node26 -->
<g id="edge32" class="edge">
<title>Node5&#45;&gt;Node26</title>
<path fill="none" stroke="midnightblue" d="M1063,-128.92C1157.23,-121.38 1394.49,-101.53 1472.81,-87 1481.07,-85.47 1489.91,-83.28 1497.96,-81.06"/>
<polygon fill="midnightblue" stroke="midnightblue" points="1062.71,-125.43 1053.02,-129.72 1063.27,-132.41 1062.71,-125.43"/>
</g>
<!-- Node27 -->
<g id="node27" class="node">
<title>Node27</title>
<g id="a_node27"><a xlink:href="test__pruner_8cpp.html" target="_top" xlink:title=" ">
<polygon fill="white" stroke="black" points="1588.81,-62 1588.81,-81 1696.81,-81 1696.81,-62 1588.81,-62"/>
<text text-anchor="middle" x="1642.81" y="-69" font-family="Helvetica,sans-Serif" font-size="10.00">tests/test_pruner.cpp</text>
</a>
</g>
</g>
<!-- Node5&#45;&gt;Node27 -->
<g id="edge33" class="edge">
<title>Node5&#45;&gt;Node27</title>
<path fill="none" stroke="midnightblue" d="M1063.17,-128.89C1187.9,-119.03 1567.03,-88.98 1579.81,-87 1589.68,-85.47 1600.31,-83.25 1609.96,-81.01"/>
<polygon fill="midnightblue" stroke="midnightblue" points="1062.62,-125.42 1052.92,-129.7 1063.17,-132.4 1062.62,-125.42"/>
</g>
<!-- Node28 -->
<g id="node28" class="node">
<title>Node28</title>
<g id="a_node28"><a xlink:href="test__svp_8cpp.html" target="_top" xlink:title=" ">
<polygon fill="white" stroke="black" points="1677.81,-0.5 1677.81,-19.5 1775.81,-19.5 1775.81,-0.5 1677.81,-0.5"/>
<text text-anchor="middle" x="1726.81" y="-7.5" font-family="Helvetica,sans-Serif" font-size="10.00">tests/test_svp.cpp</text>
</a>
</g>
</g>
<!-- Node5&#45;&gt;Node28 -->
<g id="edge34" class="edge">
<title>Node5&#45;&gt;Node28</title>
<path fill="none" stroke="midnightblue" d="M1063.16,-128.74C1085.37,-126.95 1113.63,-124.74 1138.81,-123 1205.55,-118.39 1693.94,-135.7 1739.81,-87 1757.34,-68.39 1741.48,-35.24 1732.29,-19.61"/>
<polygon fill="midnightblue" stroke="midnightblue" points="1062.79,-125.26 1053.11,-129.56 1063.36,-132.24 1062.79,-125.26"/>
</g>
<!-- Node29 -->
<g id="node29" class="node">
<title>Node29</title>
<g id="a_node29"><a xlink:href="test__svp__gram_8cpp.html" target="_top" xlink:title=" ">
<polygon fill="white" stroke="black" points="1794.31,-0.5 1794.31,-19.5 1919.31,-19.5 1919.31,-0.5 1794.31,-0.5"/>
<text text-anchor="middle" x="1856.81" y="-7.5" font-family="Helvetica,sans-Serif" font-size="10.00">tests/test_svp_gram.cpp</text>
</a>
</g>
</g>
<!-- Node5&#45;&gt;Node29 -->
<g id="edge35" class="edge">
<title>Node5&#45;&gt;Node29</title>
<path fill="none" stroke="midnightblue" d="M1063.16,-128.73C1085.37,-126.93 1113.63,-124.72 1138.81,-123 1276.06,-113.63 1627.78,-134.69 1756.81,-87 1796.49,-72.33 1833.46,-36.25 1849.04,-19.63"/>
<polygon fill="midnightblue" stroke="midnightblue" points="1062.79,-125.24 1053.11,-129.55 1063.36,-132.22 1062.79,-125.24"/>
</g>
<!-- Node30 -->
<g id="node30" class="node">
<title>Node30</title>
<g id="a_node30"><a xlink:href="test__utils_8h.html" target="_top" xlink:title=" ">
<polygon fill="white" stroke="black" points="1128.31,-62 1128.31,-81 1217.31,-81 1217.31,-62 1128.31,-62"/>
<text text-anchor="middle" x="1172.81" y="-69" font-family="Helvetica,sans-Serif" font-size="10.00">tests/test_utils.h</text>
</a>
</g>
</g>
<!-- Node5&#45;&gt;Node30 -->
<g id="edge36" class="edge">
<title>Node5&#45;&gt;Node30</title>
<path fill="none" stroke="midnightblue" d="M1054.79,-119.63C1083.73,-108.07 1126.18,-91.12 1151.5,-81.01"/>
<polygon fill="midnightblue" stroke="midnightblue" points="1053.15,-116.52 1045.16,-123.48 1055.75,-123.02 1053.15,-116.52"/>
</g>
<!-- Node8 -->
<g id="node8" class="node">
<title>Node8</title>
<g id="a_node8"><a xlink:href="main_8cpp.html" target="_top" xlink:title=" ">
<polygon fill="white" stroke="black" points="1937.81,-0.5 1937.81,-19.5 2011.81,-19.5 2011.81,-0.5 1937.81,-0.5"/>
<text text-anchor="middle" x="1974.81" y="-7.5" font-family="Helvetica,sans-Serif" font-size="10.00">fplll/main.cpp</text>
</a>
</g>
</g>
<!-- Node7&#45;&gt;Node8 -->
<g id="edge8" class="edge">
<title>Node7&#45;&gt;Node8</title>
<path fill="none" stroke="midnightblue" d="M1954.42,-52.83C1959.79,-41.83 1966.45,-28.16 1970.67,-19.51"/>
<polygon fill="midnightblue" stroke="midnightblue" points="1951.2,-51.45 1949.97,-61.98 1957.49,-54.52 1951.2,-51.45"/>
</g>
<!-- Node10&#45;&gt;Node9 -->
<g id="edge11" class="edge">
<title>Node10&#45;&gt;Node9</title>
<path fill="none" stroke="midnightblue" d="M131.8,-55.94C224.83,-37.26 322.36,-24.34 381.77,-17.21"/>
<polygon fill="midnightblue" stroke="midnightblue" points="131.04,-52.52 121.94,-57.94 132.43,-59.38 131.04,-52.52"/>
</g>
<!-- Node11&#45;&gt;Node9 -->
<g id="edge13" class="edge">
<title>Node11&#45;&gt;Node9</title>
<path fill="none" stroke="midnightblue" d="M320.5,-52.94C350.9,-41.98 388.71,-28.35 412.8,-19.66"/>
<polygon fill="midnightblue" stroke="midnightblue" points="319.13,-49.71 310.92,-56.4 321.51,-56.3 319.13,-49.71"/>
</g>
<!-- Node12&#45;&gt;Node9 -->
<g id="edge15" class="edge">
<title>Node12&#45;&gt;Node9</title>
<path fill="none" stroke="midnightblue" d="M401.68,-49C411.06,-38.86 421.72,-27.33 428.81,-19.66"/>
<polygon fill="midnightblue" stroke="midnightblue" points="399.06,-46.68 394.85,-56.4 404.2,-51.43 399.06,-46.68"/>
</g>
<!-- Node13&#45;&gt;Node9 -->
<g id="edge17" class="edge">
<title>Node13&#45;&gt;Node9</title>
<path fill="none" stroke="midnightblue" d="M471.94,-49C462.57,-38.86 451.91,-27.33 444.82,-19.66"/>
<polygon fill="midnightblue" stroke="midnightblue" points="469.42,-51.43 478.78,-56.4 474.56,-46.68 469.42,-51.43"/>
</g>
<!-- Node14&#45;&gt;Node9 -->
<g id="edge19" class="edge">
<title>Node14&#45;&gt;Node9</title>
<path fill="none" stroke="midnightblue" d="M553.13,-52.94C522.73,-41.98 484.92,-28.35 460.82,-19.66"/>
<polygon fill="midnightblue" stroke="midnightblue" points="552.12,-56.3 562.71,-56.4 554.49,-49.71 552.12,-56.3"/>
</g>
<!-- Node15&#45;&gt;Node9 -->
<g id="edge21" class="edge">
<title>Node15&#45;&gt;Node9</title>
<path fill="none" stroke="midnightblue" d="M655.56,-55.78C590.08,-40.63 524.91,-27.7 482.48,-19.57"/>
<polygon fill="midnightblue" stroke="midnightblue" points="655.11,-59.27 665.65,-58.13 656.7,-52.45 655.11,-59.27"/>
</g>
<!-- Node30&#45;&gt;Node17 -->
<g id="edge37" class="edge">
<title>Node30&#45;&gt;Node17</title>
<path fill="none" stroke="midnightblue" d="M1118.34,-63.03C1048.3,-53.36 922.93,-35.89 815.81,-20 812.89,-19.57 809.88,-19.12 806.85,-18.66"/>
<polygon fill="midnightblue" stroke="midnightblue" points="1117.88,-66.49 1128.26,-64.39 1118.83,-59.56 1117.88,-66.49"/>
</g>
<!-- Node30&#45;&gt;Node18 -->
<g id="edge38" class="edge">
<title>Node30&#45;&gt;Node18</title>
<path fill="none" stroke="midnightblue" d="M1122.05,-59.9C1066.8,-48.37 979.54,-30.15 928.57,-19.51"/>
<polygon fill="midnightblue" stroke="midnightblue" points="1121.47,-63.36 1131.98,-61.98 1122.91,-56.51 1121.47,-63.36"/>
</g>
<!-- Node30&#45;&gt;Node21 -->
<g id="edge39" class="edge">
<title>Node30&#45;&gt;Node21</title>
<path fill="none" stroke="midnightblue" d="M1140.99,-58.28C1110.86,-46.72 1066.43,-29.66 1039.98,-19.51"/>
<polygon fill="midnightblue" stroke="midnightblue" points="1140.01,-61.66 1150.6,-61.98 1142.52,-55.12 1140.01,-61.66"/>
</g>
<!-- Node30&#45;&gt;Node22 -->
<g id="edge40" class="edge">
<title>Node30&#45;&gt;Node22</title>
<path fill="none" stroke="midnightblue" d="M1162.62,-53.17C1156.11,-42.11 1147.96,-28.25 1142.82,-19.51"/>
<polygon fill="midnightblue" stroke="midnightblue" points="1159.71,-55.13 1167.8,-61.98 1165.74,-51.58 1159.71,-55.13"/>
</g>
<!-- Node30&#45;&gt;Node23 -->
<g id="edge42" class="edge">
<title>Node30&#45;&gt;Node23</title>
<path fill="none" stroke="midnightblue" d="M1192.88,-56.11C1208.85,-44.67 1230.64,-29.05 1243.94,-19.51"/>
<polygon fill="midnightblue" stroke="midnightblue" points="1190.79,-53.3 1184.7,-61.98 1194.87,-58.99 1190.79,-53.3"/>
</g>
<!-- Node30&#45;&gt;Node24 -->
<g id="edge43" class="edge">
<title>Node30&#45;&gt;Node24</title>
<path fill="none" stroke="midnightblue" d="M1212.44,-59.43C1217.27,-58.21 1222.14,-57.04 1226.81,-56 1246.97,-51.52 1369.57,-30.29 1437.16,-18.66"/>
<polygon fill="midnightblue" stroke="midnightblue" points="1211.48,-56.07 1202.69,-61.98 1213.25,-62.84 1211.48,-56.07"/>
</g>
<!-- Node30&#45;&gt;Node25 -->
<g id="edge44" class="edge">
<title>Node30&#45;&gt;Node25</title>
<path fill="none" stroke="midnightblue" d="M1211.29,-59.43C1216.48,-58.16 1221.76,-56.97 1226.81,-56 1362.61,-30 1398.64,-37.34 1535.81,-20 1538.34,-19.68 1540.91,-19.35 1543.52,-19.01"/>
<polygon fill="midnightblue" stroke="midnightblue" points="1210.3,-56.07 1201.5,-61.96 1212.05,-62.85 1210.3,-56.07"/>
</g>
<!-- Node30&#45;&gt;Node28 -->
<g id="edge45" class="edge">
<title>Node30&#45;&gt;Node28</title>
<path fill="none" stroke="midnightblue" d="M1210.9,-59.35C1216.21,-58.07 1221.63,-56.9 1226.81,-56 1421.01,-22.31 1473.08,-43.13 1668.81,-20 1671.75,-19.65 1674.76,-19.27 1677.8,-18.86"/>
<polygon fill="midnightblue" stroke="midnightblue" points="1209.72,-56.04 1200.9,-61.92 1211.46,-62.82 1209.72,-56.04"/>
</g>
<!-- Node30&#45;&gt;Node29 -->
<g id="edge46" class="edge">
<title>Node30&#45;&gt;Node29</title>
<path fill="none" stroke="midnightblue" d="M1210.11,-59.46C1215.67,-58.11 1221.36,-56.9 1226.81,-56 1472.02,-15.58 1537.4,-43.42 1784.81,-20 1787.82,-19.72 1790.9,-19.4 1794.01,-19.08"/>
<polygon fill="midnightblue" stroke="midnightblue" points="1209.14,-56.1 1200.33,-61.98 1210.89,-62.87 1209.14,-56.1"/>
</g>
<!-- Node31 -->
<g id="node31" class="node">
<title>Node31</title>
<g id="a_node31"><a xlink:href="test__gso_8cpp.html" target="_top" xlink:title=" ">
<polygon fill="white" stroke="black" points="1320.81,-0.5 1320.81,-19.5 1418.81,-19.5 1418.81,-0.5 1320.81,-0.5"/>
<text text-anchor="middle" x="1369.81" y="-7.5" font-family="Helvetica,sans-Serif" font-size="10.00">tests/test_gso.cpp</text>
</a>
</g>
</g>
<!-- Node30&#45;&gt;Node31 -->
<g id="edge41" class="edge">
<title>Node30&#45;&gt;Node31</title>
<path fill="none" stroke="midnightblue" d="M1210.79,-59.03C1249.08,-47.46 1307.29,-29.88 1341.64,-19.51"/>
<polygon fill="midnightblue" stroke="midnightblue" points="1209.6,-55.73 1201.04,-61.98 1211.62,-62.43 1209.6,-55.73"/>
</g>
</g>
</svg>
