<?xml version="1.0" encoding="UTF-8" standalone="no"?>
<!DOCTYPE svg PUBLIC "-//W3C//DTD SVG 1.1//EN"
 "http://www.w3.org/Graphics/SVG/1.1/DTD/svg11.dtd">
<!-- Generated by graphviz version 2.40.1 (20161225.0304)
 -->
<!-- Title: fplll/pruner/pruner.h Pages: 1 -->
<svg width="1888pt" height="319pt"
 viewBox="0.00 0.00 1887.77 319.00" xmlns="http://www.w3.org/2000/svg" xmlns:xlink="http://www.w3.org/1999/xlink">
<g id="graph0" class="graph" transform="scale(1 1) rotate(0) translate(4 315)">
<title>fplll/pruner/pruner.h</title>
<polygon fill="#ffffff" stroke="transparent" points="-4,4 -4,-315 1883.7716,-315 1883.7716,4 -4,4"/>
<!-- Node0 -->
<g id="node1" class="node">
<title>Node0</title>
<polygon fill="#bfbfbf" stroke="#000000" points="844.7716,-291.5 844.7716,-310.5 944.7716,-310.5 944.7716,-291.5 844.7716,-291.5"/>
<text text-anchor="middle" x="894.7716" y="-298.5" font-family="Helvetica,sans-Serif" font-size="10.00" fill="#000000">fplll/pruner/pruner.h</text>
</g>
<!-- Node1 -->
<g id="node2" class="node">
<title>Node1</title>
<g id="a_node2"><a xlink:href="bkz__param_8h.html" target="_top" xlink:title="fplll/bkz_param.h">
<polygon fill="#ffffff" stroke="#000000" points="966.2716,-235.5 966.2716,-254.5 1057.2716,-254.5 1057.2716,-235.5 966.2716,-235.5"/>
<text text-anchor="middle" x="1011.7716" y="-242.5" font-family="Helvetica,sans-Serif" font-size="10.00" fill="#000000">fplll/bkz_param.h</text>
</a>
</g>
</g>
<!-- Node0&#45;&gt;Node1 -->
<g id="edge1" class="edge">
<title>Node0&#45;&gt;Node1</title>
<path fill="none" stroke="#191970" d="M924.0758,-286.9741C945.2596,-276.8348 973.3119,-263.408 991.921,-254.5011"/>
<polygon fill="#191970" stroke="#191970" points="922.3936,-283.8989 914.8846,-291.3733 925.4157,-290.2129 922.3936,-283.8989"/>
</g>
<!-- Node4 -->
<g id="node5" class="node">
<title>Node4</title>
<g id="a_node5"><a xlink:href="fplll_8h.html" target="_top" xlink:title="fplll/fplll.h">
<polygon fill="#ffffff" stroke="#000000" points="951.7716,-123.5 951.7716,-142.5 1009.7716,-142.5 1009.7716,-123.5 951.7716,-123.5"/>
<text text-anchor="middle" x="980.7716" y="-130.5" font-family="Helvetica,sans-Serif" font-size="10.00" fill="#000000">fplll/fplll.h</text>
</a>
</g>
</g>
<!-- Node0&#45;&gt;Node4 -->
<g id="edge48" class="edge">
<title>Node0&#45;&gt;Node4</title>
<path fill="none" stroke="#191970" d="M901.0695,-281.8401C909.5481,-257.1982 925.8883,-213.4716 945.7716,-179 953.493,-165.6134 964.5903,-151.6862 972.2077,-142.7131"/>
<polygon fill="#191970" stroke="#191970" points="897.7132,-280.8401 897.836,-291.4342 904.3466,-283.0758 897.7132,-280.8401"/>
</g>
<!-- Node8 -->
<g id="node9" class="node">
<title>Node8</title>
<g id="a_node9"><a xlink:href="pruner_8cpp.html" target="_top" xlink:title="fplll/pruner/pruner.cpp">
<polygon fill="#ffffff" stroke="#000000" points="277.7716,-.5 277.7716,-19.5 387.7716,-19.5 387.7716,-.5 277.7716,-.5"/>
<text text-anchor="middle" x="332.7716" y="-7.5" font-family="Helvetica,sans-Serif" font-size="10.00" fill="#000000">fplll/pruner/pruner.cpp</text>
</a>
</g>
</g>
<!-- Node0&#45;&gt;Node8 -->
<g id="edge49" class="edge">
<title>Node0&#45;&gt;Node8</title>
<path fill="none" stroke="#191970" d="M834.4583,-299.79C633.8676,-294.9762 1.7716,-273.1325 1.7716,-189 1.7716,-189 1.7716,-189 1.7716,-133 1.7716,-97.7513 -5.3147,-79.706 20.7716,-56 39.4615,-39.0155 193.2685,-22.6196 277.7262,-14.7858"/>
<polygon fill="#191970" stroke="#191970" points="834.4451,-303.2906 844.5244,-300.0259 834.6092,-296.2925 834.4451,-303.2906"/>
</g>
<!-- Node2 -->
<g id="node3" class="node">
<title>Node2</title>
<g id="a_node3"><a xlink:href="bkz_8h.html" target="_top" xlink:title="fplll/bkz.h">
<polygon fill="#ffffff" stroke="#000000" points="1080.2716,-179.5 1080.2716,-198.5 1139.2716,-198.5 1139.2716,-179.5 1080.2716,-179.5"/>
<text text-anchor="middle" x="1109.7716" y="-186.5" font-family="Helvetica,sans-Serif" font-size="10.00" fill="#000000">fplll/bkz.h</text>
</a>
</g>
</g>
<!-- Node1&#45;&gt;Node2 -->
<g id="edge2" class="edge">
<title>Node1&#45;&gt;Node2</title>
<path fill="none" stroke="#191970" d="M1037.9402,-230.0465C1055.3774,-220.0824 1077.7827,-207.2794 1092.8969,-198.6427"/>
<polygon fill="#191970" stroke="#191970" points="1035.7878,-227.2453 1028.8419,-235.2455 1039.2608,-233.323 1035.7878,-227.2453"/>
</g>
<!-- Node3 -->
<g id="node4" class="node">
<title>Node3</title>
<g id="a_node4"><a xlink:href="bkz_8cpp.html" target="_top" xlink:title="fplll/bkz.cpp">
<polygon fill="#ffffff" stroke="#000000" points="1104.2716,-123.5 1104.2716,-142.5 1173.2716,-142.5 1173.2716,-123.5 1104.2716,-123.5"/>
<text text-anchor="middle" x="1138.7716" y="-130.5" font-family="Helvetica,sans-Serif" font-size="10.00" fill="#000000">fplll/bkz.cpp</text>
</a>
</g>
</g>
<!-- Node1&#45;&gt;Node3 -->
<g id="edge45" class="edge">
<title>Node1&#45;&gt;Node3</title>
<path fill="none" stroke="#191970" d="M1067.2418,-233.2966C1100.7303,-224.9804 1138.806,-212.8584 1148.7716,-199 1160.9503,-182.0638 1151.0589,-156.3148 1144.1124,-142.5189"/>
<polygon fill="#191970" stroke="#191970" points="1066.3921,-229.9011 1057.4901,-235.6461 1068.0318,-236.7063 1066.3921,-229.9011"/>
</g>
<!-- Node1&#45;&gt;Node4 -->
<g id="edge47" class="edge">
<title>Node1&#45;&gt;Node4</title>
<path fill="none" stroke="#191970" d="M982.94,-230.1908C971.3237,-222.5771 959.1756,-212.1135 952.7716,-199 943.1585,-179.3155 959.9978,-155.5019 971.4611,-142.5407"/>
<polygon fill="#191970" stroke="#191970" points="981.2505,-233.2595 991.6155,-235.4543 984.8814,-227.2748 981.2505,-233.2595"/>
</g>
<!-- Node30 -->
<g id="node31" class="node">
<title>Node30</title>
<g id="a_node31"><a xlink:href="bkz__param_8cpp.html" target="_top" xlink:title="fplll/bkz_param.cpp">
<polygon fill="#ffffff" stroke="#000000" points="961.2716,-179.5 961.2716,-198.5 1062.2716,-198.5 1062.2716,-179.5 961.2716,-179.5"/>
<text text-anchor="middle" x="1011.7716" y="-186.5" font-family="Helvetica,sans-Serif" font-size="10.00" fill="#000000">fplll/bkz_param.cpp</text>
</a>
</g>
</g>
<!-- Node1&#45;&gt;Node30 -->
<g id="edge46" class="edge">
<title>Node1&#45;&gt;Node30</title>
<path fill="none" stroke="#191970" d="M1011.7716,-225.1575C1011.7716,-216.155 1011.7716,-205.9199 1011.7716,-198.6427"/>
<polygon fill="#191970" stroke="#191970" points="1008.2717,-225.2455 1011.7716,-235.2455 1015.2717,-225.2456 1008.2717,-225.2455"/>
</g>
<!-- Node2&#45;&gt;Node3 -->
<g id="edge3" class="edge">
<title>Node2&#45;&gt;Node3</title>
<path fill="none" stroke="#191970" d="M1119.4363,-170.3372C1124.2402,-161.0605 1129.8439,-150.2398 1133.7781,-142.6427"/>
<polygon fill="#191970" stroke="#191970" points="1116.3136,-168.7561 1114.823,-179.2455 1122.5296,-171.9751 1116.3136,-168.7561"/>
</g>
<!-- Node2&#45;&gt;Node4 -->
<g id="edge4" class="edge">
<title>Node2&#45;&gt;Node4</title>
<path fill="none" stroke="#191970" d="M1078.4045,-175.3833C1054.9432,-165.1985 1023.4531,-151.5284 1002.6581,-142.5011"/>
<polygon fill="#191970" stroke="#191970" points="1077.029,-178.6017 1087.5957,-179.3733 1079.8165,-172.1806 1077.029,-178.6017"/>
</g>
<!-- Node5 -->
<g id="node6" class="node">
<title>Node5</title>
<g id="a_node6"><a xlink:href="fplll_8cpp.html" target="_top" xlink:title="fplll/fplll.cpp">
<polygon fill="#ffffff" stroke="#000000" points="1767.7716,-62 1767.7716,-81 1835.7716,-81 1835.7716,-62 1767.7716,-62"/>
<text text-anchor="middle" x="1801.7716" y="-69" font-family="Helvetica,sans-Serif" font-size="10.00" fill="#000000">fplll/fplll.cpp</text>
</a>
</g>
</g>
<!-- Node4&#45;&gt;Node5 -->
<g id="edge5" class="edge">
<title>Node4&#45;&gt;Node5</title>
<path fill="none" stroke="#191970" d="M1020.1122,-129.2606C1042.3134,-127.2303 1070.5753,-124.7791 1095.7716,-123 1390.1394,-102.215 1469.5594,-145.6582 1758.7716,-87 1765.4599,-85.6435 1772.5072,-83.4491 1778.9176,-81.133"/>
<polygon fill="#191970" stroke="#191970" points="1019.6921,-125.7844 1010.0563,-130.1892 1020.3358,-132.7548 1019.6921,-125.7844"/>
</g>
<!-- Node6 -->
<g id="node7" class="node">
<title>Node6</title>
<g id="a_node7"><a xlink:href="main_8h.html" target="_top" xlink:title="fplll/main.h">
<polygon fill="#ffffff" stroke="#000000" points="1685.7716,-62 1685.7716,-81 1749.7716,-81 1749.7716,-62 1685.7716,-62"/>
<text text-anchor="middle" x="1717.7716" y="-69" font-family="Helvetica,sans-Serif" font-size="10.00" fill="#000000">fplll/main.h</text>
</a>
</g>
</g>
<!-- Node4&#45;&gt;Node6 -->
<g id="edge6" class="edge">
<title>Node4&#45;&gt;Node6</title>
<path fill="none" stroke="#191970" d="M1020.118,-129.3402C1042.321,-127.3349 1070.5828,-124.882 1095.7716,-123 1351.5581,-103.8884 1420.0696,-136.3772 1671.7716,-87 1678.8835,-85.6048 1686.4084,-83.3978 1693.2662,-81.0818"/>
<polygon fill="#191970" stroke="#191970" points="1019.7028,-125.8634 1010.0611,-130.2553 1020.3372,-132.8346 1019.7028,-125.8634"/>
</g>
<!-- Node4&#45;&gt;Node8 -->
<g id="edge8" class="edge">
<title>Node4&#45;&gt;Node8</title>
<path fill="none" stroke="#191970" d="M941.2581,-131.839C816.5665,-127.913 436.8047,-113.8534 388.7716,-87 361.3585,-71.6744 343.7896,-36.6829 336.5526,-19.659"/>
<polygon fill="#191970" stroke="#191970" points="941.3925,-135.3448 951.4962,-132.1566 941.6096,-128.3482 941.3925,-135.3448"/>
</g>
<!-- Node9 -->
<g id="node10" class="node">
<title>Node9</title>
<g id="a_node10"><a xlink:href="pruner__cost_8cpp.html" target="_top" xlink:title="fplll/pruner/pruner\l_cost.cpp">
<polygon fill="#ffffff" stroke="#000000" points="397.7716,-56.5 397.7716,-86.5 489.7716,-86.5 489.7716,-56.5 397.7716,-56.5"/>
<text text-anchor="start" x="405.7716" y="-74.5" font-family="Helvetica,sans-Serif" font-size="10.00" fill="#000000">fplll/pruner/pruner</text>
<text text-anchor="middle" x="443.7716" y="-63.5" font-family="Helvetica,sans-Serif" font-size="10.00" fill="#000000">_cost.cpp</text>
</a>
</g>
</g>
<!-- Node4&#45;&gt;Node9 -->
<g id="edge9" class="edge">
<title>Node4&#45;&gt;Node9</title>
<path fill="none" stroke="#191970" d="M941.5423,-131.6415C858.9716,-128.2609 661.441,-117.4286 498.7716,-87 495.8462,-86.4528 492.8511,-85.8209 489.8428,-85.1319"/>
<polygon fill="#191970" stroke="#191970" points="941.5944,-135.1462 951.7249,-132.0441 941.8711,-128.1517 941.5944,-135.1462"/>
</g>
<!-- Node10 -->
<g id="node11" class="node">
<title>Node10</title>
<g id="a_node11"><a xlink:href="pruner__optimize_8cpp.html" target="_top" xlink:title="fplll/pruner/pruner\l_optimize.cpp">
<polygon fill="#ffffff" stroke="#000000" points="655.7716,-56.5 655.7716,-86.5 747.7716,-86.5 747.7716,-56.5 655.7716,-56.5"/>
<text text-anchor="start" x="663.7716" y="-74.5" font-family="Helvetica,sans-Serif" font-size="10.00" fill="#000000">fplll/pruner/pruner</text>
<text text-anchor="middle" x="701.7716" y="-63.5" font-family="Helvetica,sans-Serif" font-size="10.00" fill="#000000">_optimize.cpp</text>
</a>
</g>
</g>
<!-- Node4&#45;&gt;Node10 -->
<g id="edge11" class="edge">
<title>Node4&#45;&gt;Node10</title>
<path fill="none" stroke="#191970" d="M941.7276,-125.8673C896.8811,-117.47 821.1897,-102.6698 756.7716,-87 753.8797,-86.2966 750.9104,-85.5451 747.9213,-84.7666"/>
<polygon fill="#191970" stroke="#191970" points="941.1544,-129.3207 951.6261,-127.7105 942.4358,-122.439 941.1544,-129.3207"/>
</g>
<!-- Node11 -->
<g id="node12" class="node">
<title>Node11</title>
<g id="a_node12"><a xlink:href="pruner__optimize__tc_8cpp.html" target="_top" xlink:title="fplll/pruner/pruner\l_optimize_tc.cpp">
<polygon fill="#ffffff" stroke="#000000" points="765.7716,-56.5 765.7716,-86.5 857.7716,-86.5 857.7716,-56.5 765.7716,-56.5"/>
<text text-anchor="start" x="773.7716" y="-74.5" font-family="Helvetica,sans-Serif" font-size="10.00" fill="#000000">fplll/pruner/pruner</text>
<text text-anchor="middle" x="811.7716" y="-63.5" font-family="Helvetica,sans-Serif" font-size="10.00" fill="#000000">_optimize_tc.cpp</text>
</a>
</g>
</g>
<!-- Node4&#45;&gt;Node11 -->
<g id="edge13" class="edge">
<title>Node4&#45;&gt;Node11</title>
<path fill="none" stroke="#191970" d="M944.9504,-119.9645C918.0775,-110.1853 881.2365,-96.7786 853.1136,-86.5446"/>
<polygon fill="#191970" stroke="#191970" points="943.7713,-123.2599 954.3653,-123.3906 946.1651,-116.6819 943.7713,-123.2599"/>
</g>
<!-- Node12 -->
<g id="node13" class="node">
<title>Node12</title>
<g id="a_node13"><a xlink:href="pruner__optimize__tp_8cpp.html" target="_top" xlink:title="fplll/pruner/pruner\l_optimize_tp.cpp">
<polygon fill="#ffffff" stroke="#000000" points="29.7716,-56.5 29.7716,-86.5 121.7716,-86.5 121.7716,-56.5 29.7716,-56.5"/>
<text text-anchor="start" x="37.7716" y="-74.5" font-family="Helvetica,sans-Serif" font-size="10.00" fill="#000000">fplll/pruner/pruner</text>
<text text-anchor="middle" x="75.7716" y="-63.5" font-family="Helvetica,sans-Serif" font-size="10.00" fill="#000000">_optimize_tp.cpp</text>
</a>
</g>
</g>
<!-- Node4&#45;&gt;Node12 -->
<g id="edge15" class="edge">
<title>Node4&#45;&gt;Node12</title>
<path fill="none" stroke="#191970" d="M941.2269,-132.0177C795.6652,-128.222 289.8957,-113.3949 130.7716,-87 127.8355,-86.513 124.8323,-85.9272 121.818,-85.2726"/>
<polygon fill="#191970" stroke="#191970" points="941.3801,-135.5228 951.4671,-132.282 941.5608,-128.5251 941.3801,-135.5228"/>
</g>
<!-- Node13 -->
<g id="node14" class="node">
<title>Node13</title>
<g id="a_node14"><a xlink:href="pruner__prob_8cpp.html" target="_top" xlink:title="fplll/pruner/pruner\l_prob.cpp">
<polygon fill="#ffffff" stroke="#000000" points="139.7716,-56.5 139.7716,-86.5 231.7716,-86.5 231.7716,-56.5 139.7716,-56.5"/>
<text text-anchor="start" x="147.7716" y="-74.5" font-family="Helvetica,sans-Serif" font-size="10.00" fill="#000000">fplll/pruner/pruner</text>
<text text-anchor="middle" x="185.7716" y="-63.5" font-family="Helvetica,sans-Serif" font-size="10.00" fill="#000000">_prob.cpp</text>
</a>
</g>
</g>
<!-- Node4&#45;&gt;Node13 -->
<g id="edge17" class="edge">
<title>Node4&#45;&gt;Node13</title>
<path fill="none" stroke="#191970" d="M941.6307,-131.6661C809.0541,-126.9761 377.6072,-110.2618 240.7716,-87 237.8375,-86.5012 234.8358,-85.9065 231.8226,-85.2451"/>
<polygon fill="#191970" stroke="#191970" points="941.6157,-135.1677 951.7323,-132.0206 941.8612,-128.172 941.6157,-135.1677"/>
</g>
<!-- Node14 -->
<g id="node15" class="node">
<title>Node14</title>
<g id="a_node15"><a xlink:href="pruner__util_8cpp.html" target="_top" xlink:title="fplll/pruner/pruner\l_util.cpp">
<polygon fill="#ffffff" stroke="#000000" points="249.7716,-56.5 249.7716,-86.5 341.7716,-86.5 341.7716,-56.5 249.7716,-56.5"/>
<text text-anchor="start" x="257.7716" y="-74.5" font-family="Helvetica,sans-Serif" font-size="10.00" fill="#000000">fplll/pruner/pruner</text>
<text text-anchor="middle" x="295.7716" y="-63.5" font-family="Helvetica,sans-Serif" font-size="10.00" fill="#000000">_util.cpp</text>
</a>
</g>
</g>
<!-- Node4&#45;&gt;Node14 -->
<g id="edge19" class="edge">
<title>Node4&#45;&gt;Node14</title>
<path fill="none" stroke="#191970" d="M941.4396,-132.5468C842.4236,-130.8784 575.1057,-123.1023 355.7716,-87 351.2068,-86.2486 346.4827,-85.3124 341.7815,-84.2745"/>
<polygon fill="#191970" stroke="#191970" points="941.5287,-136.0485 951.5824,-132.7059 941.6385,-129.0494 941.5287,-136.0485"/>
</g>
<!-- Node15 -->
<g id="node16" class="node">
<title>Node15</title>
<g id="a_node16"><a xlink:href="sieve__main_8cpp.html" target="_top" xlink:title="fplll/sieve/sieve_main.cpp">
<polygon fill="#ffffff" stroke="#000000" points="508.2716,-62 508.2716,-81 637.2716,-81 637.2716,-62 508.2716,-62"/>
<text text-anchor="middle" x="572.7716" y="-69" font-family="Helvetica,sans-Serif" font-size="10.00" fill="#000000">fplll/sieve/sieve_main.cpp</text>
</a>
</g>
</g>
<!-- Node4&#45;&gt;Node15 -->
<g id="edge21" class="edge">
<title>Node4&#45;&gt;Node15</title>
<path fill="none" stroke="#191970" d="M941.4159,-128.4803C878.8207,-121.0894 752.8112,-105.3847 646.7716,-87 636.6838,-85.251 625.8735,-83.1289 615.7174,-81.0234"/>
<polygon fill="#191970" stroke="#191970" points="941.2869,-131.9891 951.6267,-129.6784 942.1028,-125.0368 941.2869,-131.9891"/>
</g>
<!-- Node16 -->
<g id="node17" class="node">
<title>Node16</title>
<g id="a_node17"><a xlink:href="test__bkz_8cpp.html" target="_top" xlink:title="tests/test_bkz.cpp">
<polygon fill="#ffffff" stroke="#000000" points="576.7716,-.5 576.7716,-19.5 674.7716,-19.5 674.7716,-.5 576.7716,-.5"/>
<text text-anchor="middle" x="625.7716" y="-7.5" font-family="Helvetica,sans-Serif" font-size="10.00" fill="#000000">tests/test_bkz.cpp</text>
</a>
</g>
</g>
<!-- Node4&#45;&gt;Node16 -->
<g id="edge22" class="edge">
<title>Node4&#45;&gt;Node16</title>
<path fill="none" stroke="#191970" d="M952.0965,-118.861C936.1223,-110.4654 916.2019,-99.114 899.7716,-87 883.5749,-75.0582 884.7001,-65.1382 866.7716,-56 858.2446,-51.6538 742.8761,-30.7324 674.9071,-18.655"/>
<polygon fill="#191970" stroke="#191970" points="950.4975,-121.9744 960.9896,-123.4461 953.7053,-115.7526 950.4975,-121.9744"/>
</g>
<!-- Node17 -->
<g id="node18" class="node">
<title>Node17</title>
<g id="a_node18"><a xlink:href="test__bkz__gram_8cpp.html" target="_top" xlink:title="tests/test_bkz_gram.cpp">
<polygon fill="#ffffff" stroke="#000000" points="693.2716,-.5 693.2716,-19.5 818.2716,-19.5 818.2716,-.5 693.2716,-.5"/>
<text text-anchor="middle" x="755.7716" y="-7.5" font-family="Helvetica,sans-Serif" font-size="10.00" fill="#000000">tests/test_bkz_gram.cpp</text>
</a>
</g>
</g>
<!-- Node4&#45;&gt;Node17 -->
<g id="edge23" class="edge">
<title>Node4&#45;&gt;Node17</title>
<path fill="none" stroke="#191970" d="M964.7226,-116.0593C945.4887,-96.0672 914.0679,-64.4659 899.7716,-56 870.076,-38.4152 832.8924,-26.7585 803.7489,-19.5796"/>
<polygon fill="#191970" stroke="#191970" points="962.2292,-118.5161 971.6693,-123.3258 967.289,-113.6789 962.2292,-118.5161"/>
</g>
<!-- Node18 -->
<g id="node19" class="node">
<title>Node18</title>
<g id="a_node19"><a xlink:href="test__cvp_8cpp.html" target="_top" xlink:title="tests/test_cvp.cpp">
<polygon fill="#ffffff" stroke="#000000" points="836.7716,-.5 836.7716,-19.5 934.7716,-19.5 934.7716,-.5 836.7716,-.5"/>
<text text-anchor="middle" x="885.7716" y="-7.5" font-family="Helvetica,sans-Serif" font-size="10.00" fill="#000000">tests/test_cvp.cpp</text>
</a>
</g>
</g>
<!-- Node4&#45;&gt;Node18 -->
<g id="edge24" class="edge">
<title>Node4&#45;&gt;Node18</title>
<path fill="none" stroke="#191970" d="M972.3127,-113.8332C964.6166,-97.5419 952.2659,-74.0002 937.7716,-56 926.2812,-41.7304 910.1036,-28.1891 898.8557,-19.5419"/>
<polygon fill="#191970" stroke="#191970" points="969.3292,-115.7248 976.6738,-123.3608 975.6941,-112.8114 969.3292,-115.7248"/>
</g>
<!-- Node19 -->
<g id="node20" class="node">
<title>Node19</title>
<g id="a_node20"><a xlink:href="test__enum_8cpp.html" target="_top" xlink:title="tests/test_enum.cpp">
<polygon fill="#ffffff" stroke="#000000" points="1211.7716,-62 1211.7716,-81 1317.7716,-81 1317.7716,-62 1211.7716,-62"/>
<text text-anchor="middle" x="1264.7716" y="-69" font-family="Helvetica,sans-Serif" font-size="10.00" fill="#000000">tests/test_enum.cpp</text>
</a>
</g>
</g>
<!-- Node4&#45;&gt;Node19 -->
<g id="edge25" class="edge">
<title>Node4&#45;&gt;Node19</title>
<path fill="none" stroke="#191970" d="M1019.8212,-124.9485C1063.3002,-115.931 1135.6396,-100.7711 1197.7716,-87 1206.2807,-85.114 1215.385,-83.0433 1224.0531,-81.0465"/>
<polygon fill="#191970" stroke="#191970" points="1019.0231,-121.5394 1009.9408,-126.9949 1020.4429,-128.3939 1019.0231,-121.5394"/>
</g>
<!-- Node20 -->
<g id="node21" class="node">
<title>Node20</title>
<g id="a_node21"><a xlink:href="test__hlll_8cpp.html" target="_top" xlink:title="tests/test_hlll.cpp">
<polygon fill="#ffffff" stroke="#000000" points="952.7716,-.5 952.7716,-19.5 1046.7716,-19.5 1046.7716,-.5 952.7716,-.5"/>
<text text-anchor="middle" x="999.7716" y="-7.5" font-family="Helvetica,sans-Serif" font-size="10.00" fill="#000000">tests/test_hlll.cpp</text>
</a>
</g>
</g>
<!-- Node4&#45;&gt;Node20 -->
<g id="edge26" class="edge">
<title>Node4&#45;&gt;Node20</title>
<path fill="none" stroke="#191970" d="M983.8254,-113.2305C987.9623,-86.4497 995.1859,-39.686 998.2876,-19.6068"/>
<polygon fill="#191970" stroke="#191970" points="980.3302,-112.9313 982.2625,-123.3484 987.2481,-114 980.3302,-112.9313"/>
</g>
<!-- Node21 -->
<g id="node22" class="node">
<title>Node21</title>
<g id="a_node22"><a xlink:href="test__lll_8cpp.html" target="_top" xlink:title="tests/test_lll.cpp">
<polygon fill="#ffffff" stroke="#000000" points="1065.2716,-.5 1065.2716,-19.5 1154.2716,-19.5 1154.2716,-.5 1065.2716,-.5"/>
<text text-anchor="middle" x="1109.7716" y="-7.5" font-family="Helvetica,sans-Serif" font-size="10.00" fill="#000000">tests/test_lll.cpp</text>
</a>
</g>
</g>
<!-- Node4&#45;&gt;Node21 -->
<g id="edge27" class="edge">
<title>Node4&#45;&gt;Node21</title>
<path fill="none" stroke="#191970" d="M997.3083,-115.8716C1012.7068,-100.0651 1036.4295,-76.0754 1057.7716,-56 1071.4675,-43.117 1087.7811,-28.8536 1098.4362,-19.6761"/>
<polygon fill="#191970" stroke="#191970" points="994.5249,-113.7141 990.0713,-123.3274 999.5478,-118.5896 994.5249,-113.7141"/>
</g>
<!-- Node22 -->
<g id="node23" class="node">
<title>Node22</title>
<g id="a_node23"><a xlink:href="test__lll__gram_8cpp.html" target="_top" xlink:title="tests/test_lll_gram.cpp">
<polygon fill="#ffffff" stroke="#000000" points="1287.7716,-.5 1287.7716,-19.5 1403.7716,-19.5 1403.7716,-.5 1287.7716,-.5"/>
<text text-anchor="middle" x="1345.7716" y="-7.5" font-family="Helvetica,sans-Serif" font-size="10.00" fill="#000000">tests/test_lll_gram.cpp</text>
</a>
</g>
</g>
<!-- Node4&#45;&gt;Node22 -->
<g id="edge28" class="edge">
<title>Node4&#45;&gt;Node22</title>
<path fill="none" stroke="#191970" d="M1020.1422,-128.2518C1058.6309,-122.4609 1118.0879,-110.3996 1164.7716,-87 1184.2568,-77.2333 1183.6205,-66.4066 1202.7716,-56 1234.1647,-38.9411 1272.9114,-26.9665 1302.1504,-19.52"/>
<polygon fill="#191970" stroke="#191970" points="1019.2732,-124.8405 1009.8705,-129.7231 1020.2658,-131.7697 1019.2732,-124.8405"/>
</g>
<!-- Node23 -->
<g id="node24" class="node">
<title>Node23</title>
<g id="a_node24"><a xlink:href="test__nr_8cpp.html" target="_top" xlink:title="tests/test_nr.cpp">
<polygon fill="#ffffff" stroke="#000000" points="1335.7716,-62 1335.7716,-81 1425.7716,-81 1425.7716,-62 1335.7716,-62"/>
<text text-anchor="middle" x="1380.7716" y="-69" font-family="Helvetica,sans-Serif" font-size="10.00" fill="#000000">tests/test_nr.cpp</text>
</a>
</g>
</g>
<!-- Node4&#45;&gt;Node23 -->
<g id="edge29" class="edge">
<title>Node4&#45;&gt;Node23</title>
<path fill="none" stroke="#191970" d="M1020.3287,-129.6536C1084.9368,-123.7613 1216.9191,-109.9378 1326.7716,-87 1334.5052,-85.3852 1342.751,-83.2405 1350.4106,-81.0629"/>
<polygon fill="#191970" stroke="#191970" points="1019.8275,-126.1844 1010.1803,-130.5641 1020.4531,-133.1564 1019.8275,-126.1844"/>
</g>
<!-- Node24 -->
<g id="node25" class="node">
<title>Node24</title>
<g id="a_node25"><a xlink:href="test__pruner_8cpp.html" target="_top" xlink:title="tests/test_pruner.cpp">
<polygon fill="#ffffff" stroke="#000000" points="1444.2716,-62 1444.2716,-81 1553.2716,-81 1553.2716,-62 1444.2716,-62"/>
<text text-anchor="middle" x="1498.7716" y="-69" font-family="Helvetica,sans-Serif" font-size="10.00" fill="#000000">tests/test_pruner.cpp</text>
</a>
</g>
</g>
<!-- Node4&#45;&gt;Node24 -->
<g id="edge30" class="edge">
<title>Node4&#45;&gt;Node24</title>
<path fill="none" stroke="#191970" d="M1020.0184,-129.3338C1122.7424,-119.6939 1394.3804,-93.9041 1434.7716,-87 1444.0121,-85.4205 1453.8993,-83.2626 1463.0708,-81.0588"/>
<polygon fill="#191970" stroke="#191970" points="1019.6782,-125.8503 1010.0486,-130.2684 1020.3316,-132.8197 1019.6782,-125.8503"/>
</g>
<!-- Node25 -->
<g id="node26" class="node">
<title>Node25</title>
<g id="a_node26"><a xlink:href="test__sieve_8cpp.html" target="_top" xlink:title="tests/test_sieve.cpp">
<polygon fill="#ffffff" stroke="#000000" points="1422.2716,-.5 1422.2716,-19.5 1527.2716,-19.5 1527.2716,-.5 1422.2716,-.5"/>
<text text-anchor="middle" x="1474.7716" y="-7.5" font-family="Helvetica,sans-Serif" font-size="10.00" fill="#000000">tests/test_sieve.cpp</text>
</a>
</g>
</g>
<!-- Node4&#45;&gt;Node25 -->
<g id="edge31" class="edge">
<title>Node4&#45;&gt;Node25</title>
<path fill="none" stroke="#191970" d="M1020.129,-129.4815C1042.3356,-127.5204 1070.5971,-125.0648 1095.7716,-123 1147.6402,-118.7457 1527.4142,-125.1879 1562.7716,-87 1572.1321,-76.8902 1569.9091,-67.7849 1562.7716,-56 1551.7868,-37.863 1531.0429,-26.5354 1512.4536,-19.6607"/>
<polygon fill="#191970" stroke="#191970" points="1019.7225,-126.0038 1010.0703,-130.3726 1020.3402,-132.9764 1019.7225,-126.0038"/>
</g>
<!-- Node26 -->
<g id="node27" class="node">
<title>Node26</title>
<g id="a_node27"><a xlink:href="test__svp_8cpp.html" target="_top" xlink:title="tests/test_svp.cpp">
<polygon fill="#ffffff" stroke="#000000" points="1545.7716,-.5 1545.7716,-19.5 1643.7716,-19.5 1643.7716,-.5 1545.7716,-.5"/>
<text text-anchor="middle" x="1594.7716" y="-7.5" font-family="Helvetica,sans-Serif" font-size="10.00" fill="#000000">tests/test_svp.cpp</text>
</a>
</g>
</g>
<!-- Node4&#45;&gt;Node26 -->
<g id="edge32" class="edge">
<title>Node4&#45;&gt;Node26</title>
<path fill="none" stroke="#191970" d="M1020.1269,-129.4553C1042.3328,-127.486 1070.5944,-125.0309 1095.7716,-123 1149.5233,-118.6641 1539.4551,-122.8138 1579.7716,-87 1599.0158,-69.9051 1598.0206,-36.0823 1596.1815,-19.5492"/>
<polygon fill="#191970" stroke="#191970" points="1019.7187,-125.9777 1010.0685,-130.3508 1020.3396,-132.9502 1019.7187,-125.9777"/>
</g>
<!-- Node27 -->
<g id="node28" class="node">
<title>Node27</title>
<g id="a_node28"><a xlink:href="test__svp__gram_8cpp.html" target="_top" xlink:title="tests/test_svp_gram.cpp">
<polygon fill="#ffffff" stroke="#000000" points="1662.2716,-.5 1662.2716,-19.5 1787.2716,-19.5 1787.2716,-.5 1662.2716,-.5"/>
<text text-anchor="middle" x="1724.7716" y="-7.5" font-family="Helvetica,sans-Serif" font-size="10.00" fill="#000000">tests/test_svp_gram.cpp</text>
</a>
</g>
</g>
<!-- Node4&#45;&gt;Node27 -->
<g id="edge33" class="edge">
<title>Node4&#45;&gt;Node27</title>
<path fill="none" stroke="#191970" d="M1020.1245,-129.4254C1042.3296,-127.4467 1070.5913,-124.9922 1095.7716,-123 1207.9281,-114.1265 1493.7458,-121.6886 1600.7716,-87 1646.5732,-72.155 1692.6925,-36.9307 1713.4284,-19.7549"/>
<polygon fill="#191970" stroke="#191970" points="1019.7145,-125.948 1010.0666,-130.326 1020.3389,-132.9201 1019.7145,-125.948"/>
</g>
<!-- Node28 -->
<g id="node29" class="node">
<title>Node28</title>
<g id="a_node29"><a xlink:href="test__utils_8h.html" target="_top" xlink:title="tests/test_utils.h">
<polygon fill="#ffffff" stroke="#000000" points="1066.2716,-62 1066.2716,-81 1155.2716,-81 1155.2716,-62 1066.2716,-62"/>
<text text-anchor="middle" x="1110.7716" y="-69" font-family="Helvetica,sans-Serif" font-size="10.00" fill="#000000">tests/test_utils.h</text>
</a>
</g>
</g>
<!-- Node4&#45;&gt;Node28 -->
<g id="edge34" class="edge">
<title>Node4&#45;&gt;Node28</title>
<path fill="none" stroke="#191970" d="M1010.2896,-119.0357C1034.8293,-107.4265 1069.0974,-91.2151 1090.6017,-81.0419"/>
<polygon fill="#191970" stroke="#191970" points="1008.6268,-115.9504 1001.0841,-123.3906 1011.6203,-122.278 1008.6268,-115.9504"/>
</g>
<!-- Node7 -->
<g id="node8" class="node">
<title>Node7</title>
<g id="a_node8"><a xlink:href="main_8cpp.html" target="_top" xlink:title="fplll/main.cpp">
<polygon fill="#ffffff" stroke="#000000" points="1805.7716,-.5 1805.7716,-19.5 1879.7716,-19.5 1879.7716,-.5 1805.7716,-.5"/>
<text text-anchor="middle" x="1842.7716" y="-7.5" font-family="Helvetica,sans-Serif" font-size="10.00" fill="#000000">fplll/main.cpp</text>
</a>
</g>
</g>
<!-- Node6&#45;&gt;Node7 -->
<g id="edge7" class="edge">
<title>Node6&#45;&gt;Node7</title>
<path fill="none" stroke="#191970" d="M1746.4681,-57.3813C1770.0415,-45.7832 1802.7917,-29.6701 1823.3775,-19.5419"/>
<polygon fill="#191970" stroke="#191970" points="1744.7305,-54.3355 1737.3028,-61.8906 1747.8208,-60.6164 1744.7305,-54.3355"/>
</g>
<!-- Node9&#45;&gt;Node8 -->
<g id="edge10" class="edge">
<title>Node9&#45;&gt;Node8</title>
<path fill="none" stroke="#191970" d="M407.7265,-51.5291C388.3439,-40.79 365.3369,-28.0429 349.9726,-19.5303"/>
<polygon fill="#191970" stroke="#191970" points="406.1745,-54.6705 416.6179,-56.4554 409.567,-48.5475 406.1745,-54.6705"/>
</g>
<!-- Node10&#45;&gt;Node8 -->
<g id="edge12" class="edge">
<title>Node10&#45;&gt;Node8</title>
<path fill="none" stroke="#191970" d="M646.0772,-56.0647C645.9752,-56.043 645.8734,-56.0215 645.7716,-56 556.2937,-37.118 450.8055,-23.339 387.9827,-16.0123"/>
<polygon fill="#191970" stroke="#191970" points="645.2098,-59.4566 655.7381,-58.271 646.7684,-52.6323 645.2098,-59.4566"/>
</g>
<!-- Node11&#45;&gt;Node8 -->
<g id="edge14" class="edge">
<title>Node11&#45;&gt;Node8</title>
<path fill="none" stroke="#191970" d="M755.8384,-56.0197C618.6344,-30.0694 467.5566,-18.0852 388.0953,-13.0524"/>
<polygon fill="#191970" stroke="#191970" points="755.2112,-59.4631 765.6919,-57.9123 756.5317,-52.5887 755.2112,-59.4631"/>
</g>
<!-- Node12&#45;&gt;Node8 -->
<g id="edge16" class="edge">
<title>Node12&#45;&gt;Node8</title>
<path fill="none" stroke="#191970" d="M131.8228,-55.7967C190.9497,-40.885 248.8092,-27.9951 287.686,-19.58"/>
<polygon fill="#191970" stroke="#191970" points="130.7708,-52.4527 121.9393,-58.3055 132.4931,-59.2375 130.7708,-52.4527"/>
</g>
<!-- Node13&#45;&gt;Node8 -->
<g id="edge18" class="edge">
<title>Node13&#45;&gt;Node8</title>
<path fill="none" stroke="#191970" d="M231.0828,-52.5433C257.2356,-41.6018 289.0001,-28.3126 309.9918,-19.5303"/>
<polygon fill="#191970" stroke="#191970" points="229.6062,-49.367 221.7318,-56.4554 232.3079,-55.8246 229.6062,-49.367"/>
</g>
<!-- Node14&#45;&gt;Node8 -->
<g id="edge20" class="edge">
<title>Node14&#45;&gt;Node8</title>
<path fill="none" stroke="#191970" d="M310.2223,-47.4806C316.0157,-37.8511 322.3662,-27.2954 326.8474,-19.8469"/>
<polygon fill="#191970" stroke="#191970" points="307.0738,-45.9246 304.9177,-56.2977 313.072,-49.5333 307.0738,-45.9246"/>
</g>
<!-- Node28&#45;&gt;Node16 -->
<g id="edge35" class="edge">
<title>Node28&#45;&gt;Node16</title>
<path fill="none" stroke="#191970" d="M1056.0948,-65.8029C974.7578,-57.125 817.1489,-39.5285 683.7716,-20 680.8396,-19.5707 677.8276,-19.1104 674.7914,-18.6315"/>
<polygon fill="#191970" stroke="#191970" points="1055.7908,-69.2903 1066.1047,-66.8669 1056.5307,-62.3295 1055.7908,-69.2903"/>
</g>
<!-- Node28&#45;&gt;Node17 -->
<g id="edge36" class="edge">
<title>Node28&#45;&gt;Node17</title>
<path fill="none" stroke="#191970" d="M1056.2791,-62.0597C989.6373,-50.5148 877.4823,-31.0851 810.6606,-19.5089"/>
<polygon fill="#191970" stroke="#191970" points="1055.7193,-65.5148 1066.17,-63.7733 1056.9143,-58.6176 1055.7193,-65.5148"/>
</g>
<!-- Node28&#45;&gt;Node18 -->
<g id="edge37" class="edge">
<title>Node28&#45;&gt;Node18</title>
<path fill="none" stroke="#191970" d="M1065.7602,-59.1969C1023.036,-47.5189 959.7115,-30.2103 920.681,-19.5419"/>
<polygon fill="#191970" stroke="#191970" points="1065.0463,-62.6301 1075.6153,-61.8906 1066.892,-55.8778 1065.0463,-62.6301"/>
</g>
<!-- Node28&#45;&gt;Node20 -->
<g id="edge39" class="edge">
<title>Node28&#45;&gt;Node20</title>
<path fill="none" stroke="#191970" d="M1084.4474,-56.915C1063.5823,-45.3546 1035.0299,-29.535 1016.9935,-19.5419"/>
<polygon fill="#191970" stroke="#191970" points="1082.9844,-60.1057 1093.4278,-61.8906 1086.3769,-53.9827 1082.9844,-60.1057"/>
</g>
<!-- Node28&#45;&gt;Node21 -->
<g id="edge40" class="edge">
<title>Node28&#45;&gt;Node21</title>
<path fill="none" stroke="#191970" d="M1110.4504,-51.7462C1110.2765,-41.0519 1110.0694,-28.314 1109.93,-19.7449"/>
<polygon fill="#191970" stroke="#191970" points="1106.9531,-51.9489 1110.6153,-61.8906 1113.9522,-51.835 1106.9531,-51.9489"/>
</g>
<!-- Node28&#45;&gt;Node22 -->
<g id="edge41" class="edge">
<title>Node28&#45;&gt;Node22</title>
<path fill="none" stroke="#191970" d="M1156.9883,-59.3524C1161.3095,-58.2184 1165.6225,-57.0872 1169.7716,-56 1218.0414,-43.3515 1273.7701,-28.7936 1309.3638,-19.5014"/>
<polygon fill="#191970" stroke="#191970" points="1155.7475,-56.0594 1146.9641,-61.9841 1157.5251,-62.83 1155.7475,-56.0594"/>
</g>
<!-- Node28&#45;&gt;Node25 -->
<g id="edge42" class="edge">
<title>Node28&#45;&gt;Node25</title>
<path fill="none" stroke="#191970" d="M1165.2664,-62.2928C1234.6269,-50.5739 1353.6383,-30.4662 1422.1102,-18.8975"/>
<polygon fill="#191970" stroke="#191970" points="1164.6823,-58.8418 1155.4051,-63.9589 1165.8485,-65.7439 1164.6823,-58.8418"/>
</g>
<!-- Node28&#45;&gt;Node26 -->
<g id="edge43" class="edge">
<title>Node28&#45;&gt;Node26</title>
<path fill="none" stroke="#191970" d="M1165.6621,-61.7022C1177.8584,-59.6788 1190.7376,-57.6608 1202.7716,-56 1350.674,-35.5885 1388.9085,-40.6943 1536.7716,-20 1539.7062,-19.5893 1542.7202,-19.1433 1545.7581,-18.6753"/>
<polygon fill="#191970" stroke="#191970" points="1164.8909,-58.2827 1155.6113,-63.3954 1166.0538,-65.1855 1164.8909,-58.2827"/>
</g>
<!-- Node28&#45;&gt;Node27 -->
<g id="edge44" class="edge">
<title>Node28&#45;&gt;Node27</title>
<path fill="none" stroke="#191970" d="M1165.6295,-61.4535C1177.8277,-59.4443 1190.7159,-57.4949 1202.7716,-56 1401.8856,-31.3098 1453.3215,-41.81 1652.7716,-20 1655.7824,-19.6708 1658.8616,-19.3154 1661.9697,-18.9416"/>
<polygon fill="#191970" stroke="#191970" points="1164.8583,-58.034 1155.5787,-63.1467 1166.0212,-64.9367 1164.8583,-58.034"/>
</g>
<!-- Node29 -->
<g id="node30" class="node">
<title>Node29</title>
<g id="a_node30"><a xlink:href="test__gso_8cpp.html" target="_top" xlink:title="tests/test_gso.cpp">
<polygon fill="#ffffff" stroke="#000000" points="1171.7716,-.5 1171.7716,-19.5 1269.7716,-19.5 1269.7716,-.5 1171.7716,-.5"/>
<text text-anchor="middle" x="1220.7716" y="-7.5" font-family="Helvetica,sans-Serif" font-size="10.00" fill="#000000">tests/test_gso.cpp</text>
</a>
</g>
</g>
<!-- Node28&#45;&gt;Node29 -->
<g id="edge38" class="edge">
<title>Node28&#45;&gt;Node29</title>
<path fill="none" stroke="#191970" d="M1136.8586,-56.915C1157.5358,-45.3546 1185.8309,-29.535 1203.7048,-19.5419"/>
<polygon fill="#191970" stroke="#191970" points="1134.9795,-53.9556 1127.9591,-61.8906 1138.3956,-60.0655 1134.9795,-53.9556"/>
</g>
</g>
</svg>
