<?xml version="1.0" encoding="UTF-8" standalone="no"?>
<!DOCTYPE svg PUBLIC "-//W3C//DTD SVG 1.1//EN"
 "http://www.w3.org/Graphics/SVG/1.1/DTD/svg11.dtd">
<!-- Generated by graphviz version 2.43.0 (0)
 -->
<!-- Title: fplll/pruner/pruner.h Pages: 1 -->
<svg width="1751pt" height="319pt"
 viewBox="0.00 0.00 1750.72 319.00" xmlns="http://www.w3.org/2000/svg" xmlns:xlink="http://www.w3.org/1999/xlink">
<g id="graph0" class="graph" transform="scale(1 1) rotate(0) translate(4 315)">
<title>fplll/pruner/pruner.h</title>
<polygon fill="white" stroke="transparent" points="-4,4 -4,-315 1746.72,-315 1746.72,4 -4,4"/>
<!-- Node1 -->
<g id="node1" class="node">
<title>Node1</title>
<g id="a_node1"><a xlink:title=" ">
<polygon fill="#bfbfbf" stroke="black" points="755.22,-291.5 755.22,-310.5 854.22,-310.5 854.22,-291.5 755.22,-291.5"/>
<text text-anchor="middle" x="804.72" y="-298.5" font-family="Helvetica,sans-Serif" font-size="10.00">fplll/pruner/pruner.h</text>
</a>
</g>
</g>
<!-- Node2 -->
<g id="node2" class="node">
<title>Node2</title>
<g id="a_node2"><a xlink:href="bkz__param_8h.html" target="_top" xlink:title=" ">
<polygon fill="white" stroke="black" points="855.22,-235.5 855.22,-254.5 946.22,-254.5 946.22,-235.5 855.22,-235.5"/>
<text text-anchor="middle" x="900.72" y="-242.5" font-family="Helvetica,sans-Serif" font-size="10.00">fplll/bkz_param.h</text>
</a>
</g>
</g>
<!-- Node1&#45;&gt;Node2 -->
<g id="edge1" class="edge">
<title>Node1&#45;&gt;Node2</title>
<path fill="none" stroke="midnightblue" d="M829.29,-286.18C846.96,-276.24 870.23,-263.15 885.33,-254.65"/>
<polygon fill="midnightblue" stroke="midnightblue" points="827.14,-283.37 820.14,-291.32 830.57,-289.47 827.14,-283.37"/>
</g>
<!-- Node5 -->
<g id="node5" class="node">
<title>Node5</title>
<g id="a_node5"><a xlink:href="fplll_8h.html" target="_top" xlink:title=" ">
<polygon fill="white" stroke="black" points="822.72,-123.5 822.72,-142.5 880.72,-142.5 880.72,-123.5 822.72,-123.5"/>
<text text-anchor="middle" x="851.72" y="-130.5" font-family="Helvetica,sans-Serif" font-size="10.00">fplll/fplll.h</text>
</a>
</g>
</g>
<!-- Node1&#45;&gt;Node5 -->
<g id="edge47" class="edge">
<title>Node1&#45;&gt;Node5</title>
<path fill="none" stroke="midnightblue" d="M809.99,-281.39C820.13,-245.59 842,-168.34 849.29,-142.57"/>
<polygon fill="midnightblue" stroke="midnightblue" points="806.6,-280.5 807.25,-291.08 813.34,-282.41 806.6,-280.5"/>
</g>
<!-- Node9 -->
<g id="node9" class="node">
<title>Node9</title>
<g id="a_node9"><a xlink:href="pruner_8cpp.html" target="_top" xlink:title=" ">
<polygon fill="white" stroke="black" points="284.72,-0.5 284.72,-19.5 394.72,-19.5 394.72,-0.5 284.72,-0.5"/>
<text text-anchor="middle" x="339.72" y="-7.5" font-family="Helvetica,sans-Serif" font-size="10.00">fplll/pruner/pruner.cpp</text>
</a>
</g>
</g>
<!-- Node1&#45;&gt;Node9 -->
<g id="edge48" class="edge">
<title>Node1&#45;&gt;Node9</title>
<path fill="none" stroke="midnightblue" d="M744.94,-298.09C558.76,-291.38 1.72,-265.01 1.72,-190 1.72,-190 1.72,-190 1.72,-132 1.72,-97.18 -5.16,-79.3 20.72,-56 58.54,-21.95 203.82,-13.57 284.65,-11.57"/>
<polygon fill="midnightblue" stroke="midnightblue" points="744.98,-301.6 755.09,-298.46 745.22,-294.6 744.98,-301.6"/>
</g>
<!-- Node3 -->
<g id="node3" class="node">
<title>Node3</title>
<g id="a_node3"><a xlink:href="bkz_8cpp.html" target="_top" xlink:title=" ">
<polygon fill="white" stroke="black" points="916.22,-123.5 916.22,-142.5 985.22,-142.5 985.22,-123.5 916.22,-123.5"/>
<text text-anchor="middle" x="950.72" y="-130.5" font-family="Helvetica,sans-Serif" font-size="10.00">fplll/bkz.cpp</text>
</a>
</g>
</g>
<!-- Node2&#45;&gt;Node3 -->
<g id="edge2" class="edge">
<title>Node2&#45;&gt;Node3</title>
<path fill="none" stroke="midnightblue" d="M918.16,-228.28C925.97,-220.28 934.56,-209.94 939.72,-199 948.51,-180.37 950.38,-155.8 950.71,-142.86"/>
<polygon fill="midnightblue" stroke="midnightblue" points="915.52,-225.97 910.77,-235.44 920.39,-231 915.52,-225.97"/>
</g>
<!-- Node4 -->
<g id="node4" class="node">
<title>Node4</title>
<g id="a_node4"><a xlink:href="bkz_8h.html" target="_top" xlink:title=" ">
<polygon fill="white" stroke="black" points="871.22,-179.5 871.22,-198.5 930.22,-198.5 930.22,-179.5 871.22,-179.5"/>
<text text-anchor="middle" x="900.72" y="-186.5" font-family="Helvetica,sans-Serif" font-size="10.00">fplll/bkz.h</text>
</a>
</g>
</g>
<!-- Node2&#45;&gt;Node4 -->
<g id="edge3" class="edge">
<title>Node2&#45;&gt;Node4</title>
<path fill="none" stroke="midnightblue" d="M900.72,-224.8C900.72,-215.91 900.72,-205.78 900.72,-198.75"/>
<polygon fill="midnightblue" stroke="midnightblue" points="897.22,-225.08 900.72,-235.08 904.22,-225.08 897.22,-225.08"/>
</g>
<!-- Node2&#45;&gt;Node5 -->
<g id="edge46" class="edge">
<title>Node2&#45;&gt;Node5</title>
<path fill="none" stroke="midnightblue" d="M883.73,-228.21C876.12,-220.18 867.75,-209.85 862.72,-199 854.05,-180.31 852.13,-155.77 851.76,-142.84"/>
<polygon fill="midnightblue" stroke="midnightblue" points="881.38,-230.8 890.93,-235.39 886.32,-225.85 881.38,-230.8"/>
</g>
<!-- Node30 -->
<g id="node30" class="node">
<title>Node30</title>
<g id="a_node30"><a xlink:href="bkz__param_8cpp.html" target="_top" xlink:title=" ">
<polygon fill="white" stroke="black" points="987.22,-179.5 987.22,-198.5 1088.22,-198.5 1088.22,-179.5 987.22,-179.5"/>
<text text-anchor="middle" x="1037.72" y="-186.5" font-family="Helvetica,sans-Serif" font-size="10.00">fplll/bkz_param.cpp</text>
</a>
</g>
</g>
<!-- Node2&#45;&gt;Node30 -->
<g id="edge45" class="edge">
<title>Node2&#45;&gt;Node30</title>
<path fill="none" stroke="midnightblue" d="M931.74,-231.77C957.48,-221.63 993.4,-207.47 1016.11,-198.52"/>
<polygon fill="midnightblue" stroke="midnightblue" points="930.45,-228.52 922.43,-235.44 933.01,-235.03 930.45,-228.52"/>
</g>
<!-- Node4&#45;&gt;Node3 -->
<g id="edge4" class="edge">
<title>Node4&#45;&gt;Node3</title>
<path fill="none" stroke="midnightblue" d="M915.8,-171.72C924.61,-162.2 935.38,-150.56 942.62,-142.75"/>
<polygon fill="midnightblue" stroke="midnightblue" points="913.2,-169.37 908.98,-179.08 918.34,-174.12 913.2,-169.37"/>
</g>
<!-- Node4&#45;&gt;Node5 -->
<g id="edge5" class="edge">
<title>Node4&#45;&gt;Node5</title>
<path fill="none" stroke="midnightblue" d="M885.68,-171.43C877.1,-161.97 866.68,-150.48 859.66,-142.75"/>
<polygon fill="midnightblue" stroke="midnightblue" points="883.32,-174.03 892.63,-179.08 888.5,-169.33 883.32,-174.03"/>
</g>
<!-- Node6 -->
<g id="node6" class="node">
<title>Node6</title>
<g id="a_node6"><a xlink:href="fplll_8cpp.html" target="_top" xlink:title=" ">
<polygon fill="white" stroke="black" points="1623.72,-62 1623.72,-81 1691.72,-81 1691.72,-62 1623.72,-62"/>
<text text-anchor="middle" x="1657.72" y="-69" font-family="Helvetica,sans-Serif" font-size="10.00">fplll/fplll.cpp</text>
</a>
</g>
</g>
<!-- Node5&#45;&gt;Node6 -->
<g id="edge6" class="edge">
<title>Node5&#45;&gt;Node6</title>
<path fill="none" stroke="midnightblue" d="M890.92,-125.15C896.55,-124.32 902.27,-123.57 907.72,-123 1220.61,-89.99 1305.64,-145.82 1614.72,-87 1621.84,-85.64 1629.4,-83.39 1636.15,-81.06"/>
<polygon fill="midnightblue" stroke="midnightblue" points="890.34,-121.69 880.99,-126.68 891.41,-128.61 890.34,-121.69"/>
</g>
<!-- Node7 -->
<g id="node7" class="node">
<title>Node7</title>
<g id="a_node7"><a xlink:href="main_8h.html" target="_top" xlink:title=" ">
<polygon fill="white" stroke="black" points="1541.72,-62 1541.72,-81 1605.72,-81 1605.72,-62 1541.72,-62"/>
<text text-anchor="middle" x="1573.72" y="-69" font-family="Helvetica,sans-Serif" font-size="10.00">fplll/main.h</text>
</a>
</g>
</g>
<!-- Node5&#45;&gt;Node7 -->
<g id="edge7" class="edge">
<title>Node5&#45;&gt;Node7</title>
<path fill="none" stroke="midnightblue" d="M890.93,-125.18C896.55,-124.35 902.27,-123.59 907.72,-123 1182.11,-93.06 1256.24,-136.87 1527.72,-87 1535.3,-85.61 1543.37,-83.34 1550.6,-81.01"/>
<polygon fill="midnightblue" stroke="midnightblue" points="890.34,-121.73 881,-126.72 891.42,-128.65 890.34,-121.73"/>
</g>
<!-- Node5&#45;&gt;Node9 -->
<g id="edge9" class="edge">
<title>Node5&#45;&gt;Node9</title>
<path fill="none" stroke="midnightblue" d="M812.65,-130.7C763.08,-127.74 675.96,-118.14 608.72,-87 588.94,-77.84 590.45,-65.25 570.72,-56 540.2,-41.69 453.06,-27.13 394.96,-18.59"/>
<polygon fill="midnightblue" stroke="midnightblue" points="812.46,-134.19 822.63,-131.23 812.83,-127.2 812.46,-134.19"/>
</g>
<!-- Node10 -->
<g id="node10" class="node">
<title>Node10</title>
<g id="a_node10"><a xlink:href="pruner__cost_8cpp.html" target="_top" xlink:title=" ">
<polygon fill="white" stroke="black" points="617.72,-56.5 617.72,-86.5 709.72,-86.5 709.72,-56.5 617.72,-56.5"/>
<text text-anchor="start" x="625.72" y="-74.5" font-family="Helvetica,sans-Serif" font-size="10.00">fplll/pruner/pruner</text>
<text text-anchor="middle" x="663.72" y="-63.5" font-family="Helvetica,sans-Serif" font-size="10.00">_cost.cpp</text>
</a>
</g>
</g>
<!-- Node5&#45;&gt;Node10 -->
<g id="edge10" class="edge">
<title>Node5&#45;&gt;Node10</title>
<path fill="none" stroke="midnightblue" d="M814.93,-120.36C784.3,-110.66 740.58,-96.83 708.03,-86.52"/>
<polygon fill="midnightblue" stroke="midnightblue" points="814.19,-123.79 824.78,-123.48 816.31,-117.12 814.19,-123.79"/>
</g>
<!-- Node11 -->
<g id="node11" class="node">
<title>Node11</title>
<g id="a_node11"><a xlink:href="pruner__optimize_8cpp.html" target="_top" xlink:title=" ">
<polygon fill="white" stroke="black" points="29.72,-56.5 29.72,-86.5 121.72,-86.5 121.72,-56.5 29.72,-56.5"/>
<text text-anchor="start" x="37.72" y="-74.5" font-family="Helvetica,sans-Serif" font-size="10.00">fplll/pruner/pruner</text>
<text text-anchor="middle" x="75.72" y="-63.5" font-family="Helvetica,sans-Serif" font-size="10.00">_optimize.cpp</text>
</a>
</g>
</g>
<!-- Node5&#45;&gt;Node11 -->
<g id="edge12" class="edge">
<title>Node5&#45;&gt;Node11</title>
<path fill="none" stroke="midnightblue" d="M812.46,-132.23C703.48,-132.3 388.34,-128.59 130.72,-87 127.79,-86.53 124.8,-85.97 121.79,-85.35"/>
<polygon fill="midnightblue" stroke="midnightblue" points="812.65,-135.73 822.65,-132.21 812.64,-128.73 812.65,-135.73"/>
</g>
<!-- Node12 -->
<g id="node12" class="node">
<title>Node12</title>
<g id="a_node12"><a xlink:href="pruner__optimize__tc_8cpp.html" target="_top" xlink:title=" ">
<polygon fill="white" stroke="black" points="139.72,-56.5 139.72,-86.5 231.72,-86.5 231.72,-56.5 139.72,-56.5"/>
<text text-anchor="start" x="147.72" y="-74.5" font-family="Helvetica,sans-Serif" font-size="10.00">fplll/pruner/pruner</text>
<text text-anchor="middle" x="185.72" y="-63.5" font-family="Helvetica,sans-Serif" font-size="10.00">_optimize_tc.cpp</text>
</a>
</g>
</g>
<!-- Node5&#45;&gt;Node12 -->
<g id="edge14" class="edge">
<title>Node5&#45;&gt;Node12</title>
<path fill="none" stroke="midnightblue" d="M812.27,-131.6C714.67,-130.08 454.33,-122.71 240.72,-87 237.8,-86.51 234.8,-85.94 231.8,-85.31"/>
<polygon fill="midnightblue" stroke="midnightblue" points="812.5,-135.11 822.55,-131.75 812.6,-128.11 812.5,-135.11"/>
</g>
<!-- Node13 -->
<g id="node13" class="node">
<title>Node13</title>
<g id="a_node13"><a xlink:href="pruner__optimize__tp_8cpp.html" target="_top" xlink:title=" ">
<polygon fill="white" stroke="black" points="249.72,-56.5 249.72,-86.5 341.72,-86.5 341.72,-56.5 249.72,-56.5"/>
<text text-anchor="start" x="257.72" y="-74.5" font-family="Helvetica,sans-Serif" font-size="10.00">fplll/pruner/pruner</text>
<text text-anchor="middle" x="295.72" y="-63.5" font-family="Helvetica,sans-Serif" font-size="10.00">_optimize_tp.cpp</text>
</a>
</g>
</g>
<!-- Node5&#45;&gt;Node13 -->
<g id="edge16" class="edge">
<title>Node5&#45;&gt;Node13</title>
<path fill="none" stroke="midnightblue" d="M812.49,-130.72C727.66,-127.46 521.06,-116.88 350.72,-87 347.8,-86.49 344.81,-85.9 341.81,-85.25"/>
<polygon fill="midnightblue" stroke="midnightblue" points="812.57,-134.23 822.69,-131.1 812.83,-127.23 812.57,-134.23"/>
</g>
<!-- Node14 -->
<g id="node14" class="node">
<title>Node14</title>
<g id="a_node14"><a xlink:href="pruner__prob_8cpp.html" target="_top" xlink:title=" ">
<polygon fill="white" stroke="black" points="359.72,-56.5 359.72,-86.5 451.72,-86.5 451.72,-56.5 359.72,-56.5"/>
<text text-anchor="start" x="367.72" y="-74.5" font-family="Helvetica,sans-Serif" font-size="10.00">fplll/pruner/pruner</text>
<text text-anchor="middle" x="405.72" y="-63.5" font-family="Helvetica,sans-Serif" font-size="10.00">_prob.cpp</text>
</a>
</g>
</g>
<!-- Node5&#45;&gt;Node14 -->
<g id="edge18" class="edge">
<title>Node5&#45;&gt;Node14</title>
<path fill="none" stroke="midnightblue" d="M812.32,-129.34C741.49,-124.15 588.14,-111 460.72,-87 457.81,-86.45 454.82,-85.83 451.82,-85.17"/>
<polygon fill="midnightblue" stroke="midnightblue" points="812.34,-132.85 822.56,-130.08 812.84,-125.87 812.34,-132.85"/>
</g>
<!-- Node15 -->
<g id="node15" class="node">
<title>Node15</title>
<g id="a_node15"><a xlink:href="pruner__util_8cpp.html" target="_top" xlink:title=" ">
<polygon fill="white" stroke="black" points="469.72,-56.5 469.72,-86.5 561.72,-86.5 561.72,-56.5 469.72,-56.5"/>
<text text-anchor="start" x="477.72" y="-74.5" font-family="Helvetica,sans-Serif" font-size="10.00">fplll/pruner/pruner</text>
<text text-anchor="middle" x="515.72" y="-63.5" font-family="Helvetica,sans-Serif" font-size="10.00">_util.cpp</text>
</a>
</g>
</g>
<!-- Node5&#45;&gt;Node15 -->
<g id="edge20" class="edge">
<title>Node5&#45;&gt;Node15</title>
<path fill="none" stroke="midnightblue" d="M812.47,-126.55C758.8,-118.89 659.59,-103.95 575.72,-87 571.2,-86.09 566.51,-85.07 561.83,-84.01"/>
<polygon fill="midnightblue" stroke="midnightblue" points="812.19,-130.05 822.58,-127.99 813.17,-123.12 812.19,-130.05"/>
</g>
<!-- Node16 -->
<g id="node16" class="node">
<title>Node16</title>
<g id="a_node16"><a xlink:href="test__bkz_8cpp.html" target="_top" xlink:title=" ">
<polygon fill="white" stroke="black" points="439.72,-0.5 439.72,-19.5 537.72,-19.5 537.72,-0.5 439.72,-0.5"/>
<text text-anchor="middle" x="488.72" y="-7.5" font-family="Helvetica,sans-Serif" font-size="10.00">tests/test_bkz.cpp</text>
</a>
</g>
</g>
<!-- Node5&#45;&gt;Node16 -->
<g id="edge22" class="edge">
<title>Node5&#45;&gt;Node16</title>
<path fill="none" stroke="midnightblue" d="M817.34,-119.81C797.34,-111.94 772.13,-100.62 751.72,-87 734.98,-75.83 736.63,-65.18 718.72,-56 702.83,-47.86 600.63,-29.73 537.93,-19.13"/>
<polygon fill="midnightblue" stroke="midnightblue" points="816.11,-123.09 826.7,-123.4 818.61,-116.55 816.11,-123.09"/>
</g>
<!-- Node17 -->
<g id="node17" class="node">
<title>Node17</title>
<g id="a_node17"><a xlink:href="test__bkz__gram_8cpp.html" target="_top" xlink:title=" ">
<polygon fill="white" stroke="black" points="556.22,-0.5 556.22,-19.5 681.22,-19.5 681.22,-0.5 556.22,-0.5"/>
<text text-anchor="middle" x="618.72" y="-7.5" font-family="Helvetica,sans-Serif" font-size="10.00">tests/test_bkz_gram.cpp</text>
</a>
</g>
</g>
<!-- Node5&#45;&gt;Node17 -->
<g id="edge23" class="edge">
<title>Node5&#45;&gt;Node17</title>
<path fill="none" stroke="midnightblue" d="M831.05,-117.44C818.89,-108.77 803.29,-97.45 789.72,-87 772.45,-73.7 770.79,-66.55 751.72,-56 721,-39.01 682.76,-26.89 655.18,-19.55"/>
<polygon fill="midnightblue" stroke="midnightblue" points="829.04,-120.3 839.22,-123.24 833.09,-114.6 829.04,-120.3"/>
</g>
<!-- Node18 -->
<g id="node18" class="node">
<title>Node18</title>
<g id="a_node18"><a xlink:href="test__counter_8cpp.html" target="_top" xlink:title=" ">
<polygon fill="white" stroke="black" points="1025.22,-62 1025.22,-81 1138.22,-81 1138.22,-62 1025.22,-62"/>
<text text-anchor="middle" x="1081.72" y="-69" font-family="Helvetica,sans-Serif" font-size="10.00">tests/test_counter.cpp</text>
</a>
</g>
</g>
<!-- Node5&#45;&gt;Node18 -->
<g id="edge24" class="edge">
<title>Node5&#45;&gt;Node18</title>
<path fill="none" stroke="midnightblue" d="M890.71,-121.91C935.14,-110.42 1006.99,-91.83 1048.74,-81.03"/>
<polygon fill="midnightblue" stroke="midnightblue" points="889.65,-118.57 880.85,-124.46 891.41,-125.35 889.65,-118.57"/>
</g>
<!-- Node19 -->
<g id="node19" class="node">
<title>Node19</title>
<g id="a_node19"><a xlink:href="test__cvp_8cpp.html" target="_top" xlink:title=" ">
<polygon fill="white" stroke="black" points="699.72,-0.5 699.72,-19.5 797.72,-19.5 797.72,-0.5 699.72,-0.5"/>
<text text-anchor="middle" x="748.72" y="-7.5" font-family="Helvetica,sans-Serif" font-size="10.00">tests/test_cvp.cpp</text>
</a>
</g>
</g>
<!-- Node5&#45;&gt;Node19 -->
<g id="edge25" class="edge">
<title>Node5&#45;&gt;Node19</title>
<path fill="none" stroke="midnightblue" d="M838.55,-115.32C826.17,-99.78 807.01,-76.05 789.72,-56 778.54,-43.03 765.09,-28.46 756.72,-19.5"/>
<polygon fill="midnightblue" stroke="midnightblue" points="836.03,-117.78 844.99,-123.44 841.51,-113.43 836.03,-117.78"/>
</g>
<!-- Node20 -->
<g id="node20" class="node">
<title>Node20</title>
<g id="a_node20"><a xlink:href="test__enum_8cpp.html" target="_top" xlink:title=" ">
<polygon fill="white" stroke="black" points="815.72,-0.5 815.72,-19.5 921.72,-19.5 921.72,-0.5 815.72,-0.5"/>
<text text-anchor="middle" x="868.72" y="-7.5" font-family="Helvetica,sans-Serif" font-size="10.00">tests/test_enum.cpp</text>
</a>
</g>
</g>
<!-- Node5&#45;&gt;Node20 -->
<g id="edge26" class="edge">
<title>Node5&#45;&gt;Node20</title>
<path fill="none" stroke="midnightblue" d="M854.34,-113.35C858.07,-86.77 864.77,-39.08 867.51,-19.62"/>
<polygon fill="midnightblue" stroke="midnightblue" points="850.87,-112.91 852.94,-123.3 857.8,-113.88 850.87,-112.91"/>
</g>
<!-- Node21 -->
<g id="node21" class="node">
<title>Node21</title>
<g id="a_node21"><a xlink:href="test__hlll_8cpp.html" target="_top" xlink:title=" ">
<polygon fill="white" stroke="black" points="939.72,-0.5 939.72,-19.5 1033.72,-19.5 1033.72,-0.5 939.72,-0.5"/>
<text text-anchor="middle" x="986.72" y="-7.5" font-family="Helvetica,sans-Serif" font-size="10.00">tests/test_hlll.cpp</text>
</a>
</g>
</g>
<!-- Node5&#45;&gt;Node21 -->
<g id="edge27" class="edge">
<title>Node5&#45;&gt;Node21</title>
<path fill="none" stroke="midnightblue" d="M862.24,-114.49C872.77,-97.98 890.18,-73.28 909.72,-56 927.35,-40.41 951.19,-27.47 967.65,-19.53"/>
<polygon fill="midnightblue" stroke="midnightblue" points="859.17,-112.79 856.87,-123.14 865.12,-116.48 859.17,-112.79"/>
</g>
<!-- Node22 -->
<g id="node22" class="node">
<title>Node22</title>
<g id="a_node22"><a xlink:href="test__lll_8cpp.html" target="_top" xlink:title=" ">
<polygon fill="white" stroke="black" points="1168.22,-0.5 1168.22,-19.5 1257.22,-19.5 1257.22,-0.5 1168.22,-0.5"/>
<text text-anchor="middle" x="1212.72" y="-7.5" font-family="Helvetica,sans-Serif" font-size="10.00">tests/test_lll.cpp</text>
</a>
</g>
</g>
<!-- Node5&#45;&gt;Node22 -->
<g id="edge28" class="edge">
<title>Node5&#45;&gt;Node22</title>
<path fill="none" stroke="midnightblue" d="M890.75,-125.3C896.43,-124.45 902.22,-123.65 907.72,-123 960.06,-116.81 1344.89,-125.66 1380.72,-87 1390.08,-76.89 1389.11,-66.93 1380.72,-56 1372.95,-45.88 1302.22,-29.51 1255.05,-19.55"/>
<polygon fill="midnightblue" stroke="midnightblue" points="890.06,-121.87 880.72,-126.87 891.14,-128.78 890.06,-121.87"/>
</g>
<!-- Node23 -->
<g id="node23" class="node">
<title>Node23</title>
<g id="a_node23"><a xlink:href="test__lll__gram_8cpp.html" target="_top" xlink:title=" ">
<polygon fill="white" stroke="black" points="1274.72,-0.5 1274.72,-19.5 1390.72,-19.5 1390.72,-0.5 1274.72,-0.5"/>
<text text-anchor="middle" x="1332.72" y="-7.5" font-family="Helvetica,sans-Serif" font-size="10.00">tests/test_lll_gram.cpp</text>
</a>
</g>
</g>
<!-- Node5&#45;&gt;Node23 -->
<g id="edge29" class="edge">
<title>Node5&#45;&gt;Node23</title>
<path fill="none" stroke="midnightblue" d="M890.94,-125.26C896.56,-124.42 902.28,-123.64 907.72,-123 961.94,-116.66 1360.56,-126.99 1397.72,-87 1407.1,-76.91 1404.11,-68.2 1397.72,-56 1388.67,-38.74 1369.66,-26.78 1354.53,-19.55"/>
<polygon fill="midnightblue" stroke="midnightblue" points="890.35,-121.81 881.01,-126.81 891.43,-128.72 890.35,-121.81"/>
</g>
<!-- Node24 -->
<g id="node24" class="node">
<title>Node24</title>
<g id="a_node24"><a xlink:href="test__nr_8cpp.html" target="_top" xlink:title=" ">
<polygon fill="white" stroke="black" points="1156.22,-62 1156.22,-81 1245.22,-81 1245.22,-62 1156.22,-62"/>
<text text-anchor="middle" x="1200.72" y="-69" font-family="Helvetica,sans-Serif" font-size="10.00">tests/test_nr.cpp</text>
</a>
</g>
</g>
<!-- Node5&#45;&gt;Node24 -->
<g id="edge30" class="edge">
<title>Node5&#45;&gt;Node24</title>
<path fill="none" stroke="midnightblue" d="M890.8,-125.67C896.47,-124.76 902.25,-123.85 907.72,-123 1014.3,-106.44 1042.18,-109.27 1147.72,-87 1155.65,-85.33 1164.16,-83.16 1171.99,-81.02"/>
<polygon fill="midnightblue" stroke="midnightblue" points="890.1,-122.23 880.77,-127.27 891.2,-129.15 890.1,-122.23"/>
</g>
<!-- Node25 -->
<g id="node25" class="node">
<title>Node25</title>
<g id="a_node25"><a xlink:href="test__pruner_8cpp.html" target="_top" xlink:title=" ">
<polygon fill="white" stroke="black" points="1263.72,-62 1263.72,-81 1371.72,-81 1371.72,-62 1263.72,-62"/>
<text text-anchor="middle" x="1317.72" y="-69" font-family="Helvetica,sans-Serif" font-size="10.00">tests/test_pruner.cpp</text>
</a>
</g>
</g>
<!-- Node5&#45;&gt;Node25 -->
<g id="edge31" class="edge">
<title>Node5&#45;&gt;Node25</title>
<path fill="none" stroke="midnightblue" d="M890.77,-125.44C896.45,-124.57 902.23,-123.73 907.72,-123 1061.43,-102.69 1101.77,-112.44 1254.72,-87 1264.35,-85.4 1274.71,-83.21 1284.19,-81.02"/>
<polygon fill="midnightblue" stroke="midnightblue" points="890.07,-122 880.74,-127.02 891.16,-128.92 890.07,-122"/>
</g>
<!-- Node26 -->
<g id="node26" class="node">
<title>Node26</title>
<g id="a_node26"><a xlink:href="test__svp_8cpp.html" target="_top" xlink:title=" ">
<polygon fill="white" stroke="black" points="1408.72,-0.5 1408.72,-19.5 1506.72,-19.5 1506.72,-0.5 1408.72,-0.5"/>
<text text-anchor="middle" x="1457.72" y="-7.5" font-family="Helvetica,sans-Serif" font-size="10.00">tests/test_svp.cpp</text>
</a>
</g>
</g>
<!-- Node5&#45;&gt;Node26 -->
<g id="edge32" class="edge">
<title>Node5&#45;&gt;Node26</title>
<path fill="none" stroke="midnightblue" d="M890.94,-125.25C896.56,-124.41 902.28,-123.63 907.72,-123 1019.7,-110.04 1318.12,-146.74 1413.72,-87 1438.54,-71.49 1450.88,-36.49 1455.5,-19.97"/>
<polygon fill="midnightblue" stroke="midnightblue" points="890.35,-121.8 881.01,-126.79 891.42,-128.71 890.35,-121.8"/>
</g>
<!-- Node27 -->
<g id="node27" class="node">
<title>Node27</title>
<g id="a_node27"><a xlink:href="test__svp__gram_8cpp.html" target="_top" xlink:title=" ">
<polygon fill="white" stroke="black" points="1525.22,-0.5 1525.22,-19.5 1650.22,-19.5 1650.22,-0.5 1525.22,-0.5"/>
<text text-anchor="middle" x="1587.72" y="-7.5" font-family="Helvetica,sans-Serif" font-size="10.00">tests/test_svp_gram.cpp</text>
</a>
</g>
</g>
<!-- Node5&#45;&gt;Node27 -->
<g id="edge33" class="edge">
<title>Node5&#45;&gt;Node27</title>
<path fill="none" stroke="midnightblue" d="M890.93,-125.23C896.56,-124.4 902.28,-123.62 907.72,-123 1143.62,-96.13 1212.04,-150.86 1440.72,-87 1494.4,-72.01 1551.14,-36.09 1575.47,-19.58"/>
<polygon fill="midnightblue" stroke="midnightblue" points="890.35,-121.78 881,-126.77 891.42,-128.7 890.35,-121.78"/>
</g>
<!-- Node28 -->
<g id="node28" class="node">
<title>Node28</title>
<g id="a_node28"><a xlink:href="test__utils_8h.html" target="_top" xlink:title=" ">
<polygon fill="white" stroke="black" points="918.22,-62 918.22,-81 1007.22,-81 1007.22,-62 918.22,-62"/>
<text text-anchor="middle" x="962.72" y="-69" font-family="Helvetica,sans-Serif" font-size="10.00">tests/test_utils.h</text>
</a>
</g>
</g>
<!-- Node5&#45;&gt;Node28 -->
<g id="edge34" class="edge">
<title>Node5&#45;&gt;Node28</title>
<path fill="none" stroke="midnightblue" d="M876.51,-118.71C898.01,-107.19 928.48,-90.86 946.84,-81.01"/>
<polygon fill="midnightblue" stroke="midnightblue" points="874.78,-115.67 867.62,-123.48 878.09,-121.84 874.78,-115.67"/>
</g>
<!-- Node8 -->
<g id="node8" class="node">
<title>Node8</title>
<g id="a_node8"><a xlink:href="main_8cpp.html" target="_top" xlink:title=" ">
<polygon fill="white" stroke="black" points="1668.72,-0.5 1668.72,-19.5 1742.72,-19.5 1742.72,-0.5 1668.72,-0.5"/>
<text text-anchor="middle" x="1705.72" y="-7.5" font-family="Helvetica,sans-Serif" font-size="10.00">fplll/main.cpp</text>
</a>
</g>
</g>
<!-- Node7&#45;&gt;Node8 -->
<g id="edge8" class="edge">
<title>Node7&#45;&gt;Node8</title>
<path fill="none" stroke="midnightblue" d="M1601.83,-57.83C1627.46,-46.28 1664.61,-29.53 1686.84,-19.51"/>
<polygon fill="midnightblue" stroke="midnightblue" points="1600.31,-54.67 1592.63,-61.98 1603.19,-61.06 1600.31,-54.67"/>
</g>
<!-- Node10&#45;&gt;Node9 -->
<g id="edge11" class="edge">
<title>Node10&#45;&gt;Node9</title>
<path fill="none" stroke="midnightblue" d="M607.56,-56.81C606.27,-56.53 604.99,-56.26 603.72,-56 531.88,-41.21 448.33,-27.56 394.78,-19.26"/>
<polygon fill="midnightblue" stroke="midnightblue" points="607.08,-60.28 617.6,-59.02 608.59,-53.45 607.08,-60.28"/>
</g>
<!-- Node11&#45;&gt;Node9 -->
<g id="edge13" class="edge">
<title>Node11&#45;&gt;Node9</title>
<path fill="none" stroke="midnightblue" d="M131.98,-55.76C194.83,-40.85 256.99,-27.79 297.16,-19.57"/>
<polygon fill="midnightblue" stroke="midnightblue" points="130.81,-52.44 121.89,-58.16 132.43,-59.25 130.81,-52.44"/>
</g>
<!-- Node12&#45;&gt;Node9 -->
<g id="edge15" class="edge">
<title>Node12&#45;&gt;Node9</title>
<path fill="none" stroke="midnightblue" d="M231.9,-52.66C260.14,-41.75 295.01,-28.27 317.31,-19.66"/>
<polygon fill="midnightblue" stroke="midnightblue" points="230.28,-49.53 222.21,-56.4 232.8,-56.06 230.28,-49.53"/>
</g>
<!-- Node13&#45;&gt;Node9 -->
<g id="edge17" class="edge">
<title>Node13&#45;&gt;Node9</title>
<path fill="none" stroke="midnightblue" d="M312.28,-48.1C319.61,-38.19 327.81,-27.11 333.32,-19.66"/>
<polygon fill="midnightblue" stroke="midnightblue" points="309.28,-46.28 306.15,-56.4 314.91,-50.44 309.28,-46.28"/>
</g>
<!-- Node14&#45;&gt;Node9 -->
<g id="edge19" class="edge">
<title>Node14&#45;&gt;Node9</title>
<path fill="none" stroke="midnightblue" d="M382.53,-49.6C371.13,-39.32 358,-27.48 349.32,-19.66"/>
<polygon fill="midnightblue" stroke="midnightblue" points="380.31,-52.3 390.08,-56.4 384.99,-47.1 380.31,-52.3"/>
</g>
<!-- Node15&#45;&gt;Node9 -->
<g id="edge21" class="edge">
<title>Node15&#45;&gt;Node9</title>
<path fill="none" stroke="midnightblue" d="M464.18,-53.08C431.58,-42.05 390.87,-28.29 365.07,-19.57"/>
<polygon fill="midnightblue" stroke="midnightblue" points="463.42,-56.51 474.01,-56.4 465.66,-49.88 463.42,-56.51"/>
</g>
<!-- Node28&#45;&gt;Node16 -->
<g id="edge35" class="edge">
<title>Node28&#45;&gt;Node16</title>
<path fill="none" stroke="midnightblue" d="M907.74,-64.41C828.05,-55.46 675.87,-37.85 546.72,-20 543.79,-19.6 540.78,-19.17 537.75,-18.73"/>
<polygon fill="midnightblue" stroke="midnightblue" points="907.7,-67.93 918.02,-65.57 908.48,-60.97 907.7,-67.93"/>
</g>
<!-- Node28&#45;&gt;Node17 -->
<g id="edge36" class="edge">
<title>Node28&#45;&gt;Node17</title>
<path fill="none" stroke="midnightblue" d="M907.88,-61.01C841.73,-49.57 731.53,-30.51 667.98,-19.52"/>
<polygon fill="midnightblue" stroke="midnightblue" points="907.65,-64.53 918.1,-62.78 908.84,-57.63 907.65,-64.53"/>
</g>
<!-- Node28&#45;&gt;Node19 -->
<g id="edge37" class="edge">
<title>Node28&#45;&gt;Node19</title>
<path fill="none" stroke="midnightblue" d="M922.25,-59.25C880.68,-47.69 816.88,-29.95 779.32,-19.51"/>
<polygon fill="midnightblue" stroke="midnightblue" points="921.49,-62.67 932.06,-61.98 923.36,-55.92 921.49,-62.67"/>
</g>
<!-- Node28&#45;&gt;Node20 -->
<g id="edge38" class="edge">
<title>Node28&#45;&gt;Node20</title>
<path fill="none" stroke="midnightblue" d="M940.49,-56.43C922.37,-44.96 897.37,-29.13 882.16,-19.51"/>
<polygon fill="midnightblue" stroke="midnightblue" points="938.93,-59.58 949.25,-61.98 942.67,-53.67 938.93,-59.58"/>
</g>
<!-- Node28&#45;&gt;Node21 -->
<g id="edge40" class="edge">
<title>Node28&#45;&gt;Node21</title>
<path fill="none" stroke="midnightblue" d="M969.98,-52.5C974.4,-41.55 979.83,-28.07 983.29,-19.51"/>
<polygon fill="midnightblue" stroke="midnightblue" points="966.65,-51.39 966.16,-61.98 973.14,-54.01 966.65,-51.39"/>
</g>
<!-- Node28&#45;&gt;Node22 -->
<g id="edge41" class="edge">
<title>Node28&#45;&gt;Node22</title>
<path fill="none" stroke="midnightblue" d="M1003.46,-59.39C1007.93,-58.22 1012.42,-57.07 1016.72,-56 1070.93,-42.5 1133.94,-28.3 1173.57,-19.54"/>
<polygon fill="midnightblue" stroke="midnightblue" points="1002.57,-56.01 993.79,-61.95 1004.36,-62.77 1002.57,-56.01"/>
</g>
<!-- Node28&#45;&gt;Node23 -->
<g id="edge42" class="edge">
<title>Node28&#45;&gt;Node23</title>
<path fill="none" stroke="midnightblue" d="M1001.97,-59.37C1006.91,-58.14 1011.92,-56.98 1016.72,-56 1029.19,-53.45 1186.56,-31.38 1274.4,-19.12"/>
<polygon fill="midnightblue" stroke="midnightblue" points="1000.8,-56.06 991.99,-61.95 1002.55,-62.83 1000.8,-56.06"/>
</g>
<!-- Node28&#45;&gt;Node26 -->
<g id="edge43" class="edge">
<title>Node28&#45;&gt;Node26</title>
<path fill="none" stroke="midnightblue" d="M1000.82,-59.41C1006.13,-58.12 1011.54,-56.93 1016.72,-56 1184.99,-25.72 1230.06,-41.12 1399.72,-20 1402.65,-19.64 1405.66,-19.24 1408.7,-18.82"/>
<polygon fill="midnightblue" stroke="midnightblue" points="999.63,-56.11 990.82,-61.99 1001.38,-62.88 999.63,-56.11"/>
</g>
<!-- Node28&#45;&gt;Node27 -->
<g id="edge44" class="edge">
<title>Node28&#45;&gt;Node27</title>
<path fill="none" stroke="midnightblue" d="M1000.21,-59.45C1005.71,-58.12 1011.33,-56.91 1016.72,-56 1235.97,-19 1294.44,-41.8 1515.72,-20 1518.73,-19.7 1521.81,-19.38 1524.91,-19.05"/>
<polygon fill="midnightblue" stroke="midnightblue" points="999.33,-56.06 990.52,-61.95 1001.08,-62.84 999.33,-56.06"/>
</g>
<!-- Node29 -->
<g id="node29" class="node">
<title>Node29</title>
<g id="a_node29"><a xlink:href="test__gso_8cpp.html" target="_top" xlink:title=" ">
<polygon fill="white" stroke="black" points="1051.72,-0.5 1051.72,-19.5 1149.72,-19.5 1149.72,-0.5 1051.72,-0.5"/>
<text text-anchor="middle" x="1100.72" y="-7.5" font-family="Helvetica,sans-Serif" font-size="10.00">tests/test_gso.cpp</text>
</a>
</g>
</g>
<!-- Node28&#45;&gt;Node29 -->
<g id="edge39" class="edge">
<title>Node28&#45;&gt;Node29</title>
<path fill="none" stroke="midnightblue" d="M991.76,-57.98C1018.56,-46.42 1057.64,-29.58 1080.98,-19.51"/>
<polygon fill="midnightblue" stroke="midnightblue" points="990.29,-54.8 982.49,-61.98 993.06,-61.23 990.29,-54.8"/>
</g>
</g>
</svg>
