<?xml version="1.0" encoding="UTF-8" standalone="no"?>
<!DOCTYPE svg PUBLIC "-//W3C//DTD SVG 1.1//EN"
 "http://www.w3.org/Graphics/SVG/1.1/DTD/svg11.dtd">
<!-- Generated by graphviz version 2.40.1 (20161225.0304)
 -->
<!-- Title: fplll/pruner/pruner_simplex.h Pages: 1 -->
<svg width="1790pt" height="386pt"
 viewBox="0.00 0.00 1789.79 386.00" xmlns="http://www.w3.org/2000/svg" xmlns:xlink="http://www.w3.org/1999/xlink">
<g id="graph0" class="graph" transform="scale(1 1) rotate(0) translate(4 382)">
<title>fplll/pruner/pruner_simplex.h</title>
<polygon fill="#ffffff" stroke="transparent" points="-4,4 -4,-382 1785.7949,-382 1785.7949,4 -4,4"/>
<!-- Node0 -->
<g id="node1" class="node">
<title>Node0</title>
<polygon fill="#bfbfbf" stroke="#000000" points="758.7949,-347.5 758.7949,-377.5 850.7949,-377.5 850.7949,-347.5 758.7949,-347.5"/>
<text text-anchor="start" x="766.7949" y="-365.5" font-family="Helvetica,sans-Serif" font-size="10.00" fill="#000000">fplll/pruner/pruner</text>
<text text-anchor="middle" x="804.7949" y="-354.5" font-family="Helvetica,sans-Serif" font-size="10.00" fill="#000000">_simplex.h</text>
</g>
<!-- Node1 -->
<g id="node2" class="node">
<title>Node1</title>
<g id="a_node2"><a xlink:href="pruner_8h.html" target="_top" xlink:title="fplll/pruner/pruner.h">
<polygon fill="#ffffff" stroke="#000000" points="754.7949,-291.5 754.7949,-310.5 854.7949,-310.5 854.7949,-291.5 754.7949,-291.5"/>
<text text-anchor="middle" x="804.7949" y="-298.5" font-family="Helvetica,sans-Serif" font-size="10.00" fill="#000000">fplll/pruner/pruner.h</text>
</a>
</g>
</g>
<!-- Node0&#45;&gt;Node1 -->
<g id="edge1" class="edge">
<title>Node0&#45;&gt;Node1</title>
<path fill="none" stroke="#191970" d="M804.7949,-337.2849C804.7949,-327.9858 804.7949,-317.9883 804.7949,-310.8469"/>
<polygon fill="#191970" stroke="#191970" points="801.295,-337.2977 804.7949,-347.2977 808.295,-337.2978 801.295,-337.2977"/>
</g>
<!-- Node2 -->
<g id="node3" class="node">
<title>Node2</title>
<g id="a_node3"><a xlink:href="bkz__param_8h.html" target="_top" xlink:title="fplll/bkz_param.h">
<polygon fill="#ffffff" stroke="#000000" points="855.2949,-235.5 855.2949,-254.5 946.2949,-254.5 946.2949,-235.5 855.2949,-235.5"/>
<text text-anchor="middle" x="900.7949" y="-242.5" font-family="Helvetica,sans-Serif" font-size="10.00" fill="#000000">fplll/bkz_param.h</text>
</a>
</g>
</g>
<!-- Node1&#45;&gt;Node2 -->
<g id="edge2" class="edge">
<title>Node1&#45;&gt;Node2</title>
<path fill="none" stroke="#191970" d="M830.4295,-286.0465C847.5108,-276.0824 869.4589,-263.2794 884.2646,-254.6427"/>
<polygon fill="#191970" stroke="#191970" points="828.391,-283.1836 821.5168,-291.2455 831.9182,-289.23 828.391,-283.1836"/>
</g>
<!-- Node5 -->
<g id="node6" class="node">
<title>Node5</title>
<g id="a_node6"><a xlink:href="fplll_8h.html" target="_top" xlink:title="fplll/fplll.h">
<polygon fill="#ffffff" stroke="#000000" points="822.7949,-123.5 822.7949,-142.5 880.7949,-142.5 880.7949,-123.5 822.7949,-123.5"/>
<text text-anchor="middle" x="851.7949" y="-130.5" font-family="Helvetica,sans-Serif" font-size="10.00" fill="#000000">fplll/fplll.h</text>
</a>
</g>
</g>
<!-- Node1&#45;&gt;Node5 -->
<g id="edge47" class="edge">
<title>Node1&#45;&gt;Node5</title>
<path fill="none" stroke="#191970" d="M810.1868,-281.7267C820.232,-245.8207 841.4767,-169.8822 849.0454,-142.8279"/>
<polygon fill="#191970" stroke="#191970" points="806.7801,-280.913 807.4565,-291.4862 813.5213,-282.799 806.7801,-280.913"/>
</g>
<!-- Node9 -->
<g id="node10" class="node">
<title>Node9</title>
<g id="a_node10"><a xlink:href="pruner_8cpp.html" target="_top" xlink:title="fplll/pruner/pruner.cpp">
<polygon fill="#ffffff" stroke="#000000" points="295.7949,-.5 295.7949,-19.5 405.7949,-19.5 405.7949,-.5 295.7949,-.5"/>
<text text-anchor="middle" x="350.7949" y="-7.5" font-family="Helvetica,sans-Serif" font-size="10.00" fill="#000000">fplll/pruner/pruner.cpp</text>
</a>
</g>
</g>
<!-- Node1&#45;&gt;Node9 -->
<g id="edge48" class="edge">
<title>Node1&#45;&gt;Node9</title>
<path fill="none" stroke="#191970" d="M744.37,-298.9233C557.5549,-291.708 1.7949,-263.945 1.7949,-189 1.7949,-189 1.7949,-189 1.7949,-133 1.7949,-97.7513 -5.3846,-79.603 20.7949,-56 40.8261,-37.9402 206.8138,-21.7803 295.4635,-14.337"/>
<polygon fill="#191970" stroke="#191970" points="744.4379,-302.4283 754.5636,-299.3107 744.7038,-295.4333 744.4379,-302.4283"/>
</g>
<!-- Node3 -->
<g id="node4" class="node">
<title>Node3</title>
<g id="a_node4"><a xlink:href="bkz_8h.html" target="_top" xlink:title="fplll/bkz.h">
<polygon fill="#ffffff" stroke="#000000" points="871.2949,-179.5 871.2949,-198.5 930.2949,-198.5 930.2949,-179.5 871.2949,-179.5"/>
<text text-anchor="middle" x="900.7949" y="-186.5" font-family="Helvetica,sans-Serif" font-size="10.00" fill="#000000">fplll/bkz.h</text>
</a>
</g>
</g>
<!-- Node2&#45;&gt;Node3 -->
<g id="edge3" class="edge">
<title>Node2&#45;&gt;Node3</title>
<path fill="none" stroke="#191970" d="M900.7949,-225.1575C900.7949,-216.155 900.7949,-205.9199 900.7949,-198.6427"/>
<polygon fill="#191970" stroke="#191970" points="897.295,-225.2455 900.7949,-235.2455 904.295,-225.2456 897.295,-225.2455"/>
</g>
<!-- Node4 -->
<g id="node5" class="node">
<title>Node4</title>
<g id="a_node5"><a xlink:href="bkz_8cpp.html" target="_top" xlink:title="fplll/bkz.cpp">
<polygon fill="#ffffff" stroke="#000000" points="916.2949,-123.5 916.2949,-142.5 985.2949,-142.5 985.2949,-123.5 916.2949,-123.5"/>
<text text-anchor="middle" x="950.7949" y="-130.5" font-family="Helvetica,sans-Serif" font-size="10.00" fill="#000000">fplll/bkz.cpp</text>
</a>
</g>
</g>
<!-- Node2&#45;&gt;Node4 -->
<g id="edge44" class="edge">
<title>Node2&#45;&gt;Node4</title>
<path fill="none" stroke="#191970" d="M919.1487,-227.9156C926.7082,-219.8633 934.8398,-209.6859 939.7949,-199 948.3955,-180.4522 950.3695,-156.2123 950.7633,-142.8737"/>
<polygon fill="#191970" stroke="#191970" points="916.4795,-225.6365 911.9189,-235.1996 921.4477,-230.5678 916.4795,-225.6365"/>
</g>
<!-- Node2&#45;&gt;Node5 -->
<g id="edge46" class="edge">
<title>Node2&#45;&gt;Node5</title>
<path fill="none" stroke="#191970" d="M883.2122,-228.1593C875.7654,-220.0418 867.694,-209.7447 862.7949,-199 854.313,-180.3976 852.2945,-156.1782 851.8612,-142.8577"/>
<polygon fill="#191970" stroke="#191970" points="880.8383,-230.7391 890.3102,-235.4861 885.8659,-225.8684 880.8383,-230.7391"/>
</g>
<!-- Node30 -->
<g id="node31" class="node">
<title>Node30</title>
<g id="a_node31"><a xlink:href="bkz__param_8cpp.html" target="_top" xlink:title="fplll/bkz_param.cpp">
<polygon fill="#ffffff" stroke="#000000" points="987.2949,-179.5 987.2949,-198.5 1088.2949,-198.5 1088.2949,-179.5 987.2949,-179.5"/>
<text text-anchor="middle" x="1037.7949" y="-186.5" font-family="Helvetica,sans-Serif" font-size="10.00" fill="#000000">fplll/bkz_param.cpp</text>
</a>
</g>
</g>
<!-- Node2&#45;&gt;Node30 -->
<g id="edge45" class="edge">
<title>Node2&#45;&gt;Node30</title>
<path fill="none" stroke="#191970" d="M933.7755,-231.5189C958.726,-221.3201 992.3683,-207.5685 1014.5511,-198.5011"/>
<polygon fill="#191970" stroke="#191970" points="932.2783,-228.3497 924.346,-235.3733 934.9269,-234.8293 932.2783,-228.3497"/>
</g>
<!-- Node3&#45;&gt;Node4 -->
<g id="edge4" class="edge">
<title>Node3&#45;&gt;Node4</title>
<path fill="none" stroke="#191970" d="M916.4196,-171.5004C924.9221,-161.9775 935.1166,-150.5596 942.1854,-142.6427"/>
<polygon fill="#191970" stroke="#191970" points="913.5536,-169.4551 909.5042,-179.2455 918.7752,-174.1172 913.5536,-169.4551"/>
</g>
<!-- Node3&#45;&gt;Node5 -->
<g id="edge5" class="edge">
<title>Node3&#45;&gt;Node5</title>
<path fill="none" stroke="#191970" d="M885.4827,-171.5004C877.1502,-161.9775 867.1596,-150.5596 860.2322,-142.6427"/>
<polygon fill="#191970" stroke="#191970" points="883.0406,-174.0245 892.2597,-179.2455 888.3087,-169.415 883.0406,-174.0245"/>
</g>
<!-- Node6 -->
<g id="node7" class="node">
<title>Node6</title>
<g id="a_node7"><a xlink:href="fplll_8cpp.html" target="_top" xlink:title="fplll/fplll.cpp">
<polygon fill="#ffffff" stroke="#000000" points="1713.7949,-62 1713.7949,-81 1781.7949,-81 1781.7949,-62 1713.7949,-62"/>
<text text-anchor="middle" x="1747.7949" y="-69" font-family="Helvetica,sans-Serif" font-size="10.00" fill="#000000">fplll/fplll.cpp</text>
</a>
</g>
</g>
<!-- Node5&#45;&gt;Node6 -->
<g id="edge6" class="edge">
<title>Node5&#45;&gt;Node6</title>
<path fill="none" stroke="#191970" d="M890.9774,-125.3289C896.6041,-124.4241 902.3351,-123.6081 907.7949,-123 1260.1991,-83.7489 1356.9697,-155.8987 1704.7949,-87 1711.645,-85.6431 1718.8667,-83.3875 1725.3951,-81.0115"/>
<polygon fill="#191970" stroke="#191970" points="890.3103,-121.8921 881.0433,-127.0277 891.4903,-128.7919 890.3103,-121.8921"/>
</g>
<!-- Node7 -->
<g id="node8" class="node">
<title>Node7</title>
<g id="a_node8"><a xlink:href="main_8h.html" target="_top" xlink:title="fplll/main.h">
<polygon fill="#ffffff" stroke="#000000" points="1631.7949,-62 1631.7949,-81 1695.7949,-81 1695.7949,-62 1631.7949,-62"/>
<text text-anchor="middle" x="1663.7949" y="-69" font-family="Helvetica,sans-Serif" font-size="10.00" fill="#000000">fplll/main.h</text>
</a>
</g>
</g>
<!-- Node5&#45;&gt;Node7 -->
<g id="edge7" class="edge">
<title>Node5&#45;&gt;Node7</title>
<path fill="none" stroke="#191970" d="M890.9806,-125.3566C896.6067,-124.4477 902.3368,-123.6232 907.7949,-123 1221.7162,-87.1574 1307.3914,-145.9999 1617.7949,-87 1624.9149,-85.6467 1632.4424,-83.4534 1639.3001,-81.1372"/>
<polygon fill="#191970" stroke="#191970" points="890.3121,-121.92 881.0468,-127.0585 891.4943,-128.8195 890.3121,-121.92"/>
</g>
<!-- Node5&#45;&gt;Node9 -->
<g id="edge9" class="edge">
<title>Node5&#45;&gt;Node9</title>
<path fill="none" stroke="#191970" d="M812.6938,-124.7651C783.9576,-117.6035 744.6994,-105.4392 713.7949,-87 696.514,-76.6893 698.9467,-64.6863 680.7949,-56 633.3773,-33.309 486.9543,-19.6514 406.0064,-13.6377"/>
<polygon fill="#191970" stroke="#191970" points="812.2294,-128.2529 822.7698,-127.1797 813.8607,-121.4456 812.2294,-128.2529"/>
</g>
<!-- Node10 -->
<g id="node11" class="node">
<title>Node10</title>
<g id="a_node11"><a xlink:href="pruner__cost_8cpp.html" target="_top" xlink:title="fplll/pruner/pruner\l_cost.cpp">
<polygon fill="#ffffff" stroke="#000000" points="579.7949,-56.5 579.7949,-86.5 671.7949,-86.5 671.7949,-56.5 579.7949,-56.5"/>
<text text-anchor="start" x="587.7949" y="-74.5" font-family="Helvetica,sans-Serif" font-size="10.00" fill="#000000">fplll/pruner/pruner</text>
<text text-anchor="middle" x="625.7949" y="-63.5" font-family="Helvetica,sans-Serif" font-size="10.00" fill="#000000">_cost.cpp</text>
</a>
</g>
</g>
<!-- Node5&#45;&gt;Node10 -->
<g id="edge10" class="edge">
<title>Node5&#45;&gt;Node10</title>
<path fill="none" stroke="#191970" d="M813.0112,-122.446C773.9132,-111.8065 713.5619,-95.3835 672.0064,-84.0753"/>
<polygon fill="#191970" stroke="#191970" points="812.1438,-125.8372 822.712,-125.0859 813.9819,-119.0828 812.1438,-125.8372"/>
</g>
<!-- Node11 -->
<g id="node12" class="node">
<title>Node11</title>
<g id="a_node12"><a xlink:href="pruner__optimize_8cpp.html" target="_top" xlink:title="fplll/pruner/pruner\l_optimize.cpp">
<polygon fill="#ffffff" stroke="#000000" points="29.7949,-56.5 29.7949,-86.5 121.7949,-86.5 121.7949,-56.5 29.7949,-56.5"/>
<text text-anchor="start" x="37.7949" y="-74.5" font-family="Helvetica,sans-Serif" font-size="10.00" fill="#000000">fplll/pruner/pruner</text>
<text text-anchor="middle" x="75.7949" y="-63.5" font-family="Helvetica,sans-Serif" font-size="10.00" fill="#000000">_optimize.cpp</text>
</a>
</g>
</g>
<!-- Node5&#45;&gt;Node11 -->
<g id="edge12" class="edge">
<title>Node5&#45;&gt;Node11</title>
<path fill="none" stroke="#191970" d="M812.3867,-131.5825C681.7487,-126.7117 263.678,-109.7014 130.7949,-87 127.8612,-86.4988 124.8598,-85.9022 121.8469,-85.2395"/>
<polygon fill="#191970" stroke="#191970" points="812.5876,-135.0923 822.7102,-131.9644 812.8464,-128.0971 812.5876,-135.0923"/>
</g>
<!-- Node12 -->
<g id="node13" class="node">
<title>Node12</title>
<g id="a_node13"><a xlink:href="pruner__optimize__tc_8cpp.html" target="_top" xlink:title="fplll/pruner/pruner\l_optimize_tc.cpp">
<polygon fill="#ffffff" stroke="#000000" points="139.7949,-56.5 139.7949,-86.5 231.7949,-86.5 231.7949,-56.5 139.7949,-56.5"/>
<text text-anchor="start" x="147.7949" y="-74.5" font-family="Helvetica,sans-Serif" font-size="10.00" fill="#000000">fplll/pruner/pruner</text>
<text text-anchor="middle" x="185.7949" y="-63.5" font-family="Helvetica,sans-Serif" font-size="10.00" fill="#000000">_optimize_tc.cpp</text>
</a>
</g>
</g>
<!-- Node5&#45;&gt;Node12 -->
<g id="edge14" class="edge">
<title>Node5&#45;&gt;Node12</title>
<path fill="none" stroke="#191970" d="M812.3017,-131.0594C695.2367,-125.1436 351.3924,-106.5454 240.7949,-87 237.8641,-86.4821 234.865,-85.8727 231.8537,-85.2003"/>
<polygon fill="#191970" stroke="#191970" points="812.4254,-134.5699 822.5884,-131.576 812.7766,-127.5787 812.4254,-134.5699"/>
</g>
<!-- Node13 -->
<g id="node14" class="node">
<title>Node13</title>
<g id="a_node14"><a xlink:href="pruner__optimize__tp_8cpp.html" target="_top" xlink:title="fplll/pruner/pruner\l_optimize_tp.cpp">
<polygon fill="#ffffff" stroke="#000000" points="249.7949,-56.5 249.7949,-86.5 341.7949,-86.5 341.7949,-56.5 249.7949,-56.5"/>
<text text-anchor="start" x="257.7949" y="-74.5" font-family="Helvetica,sans-Serif" font-size="10.00" fill="#000000">fplll/pruner/pruner</text>
<text text-anchor="middle" x="295.7949" y="-63.5" font-family="Helvetica,sans-Serif" font-size="10.00" fill="#000000">_optimize_tp.cpp</text>
</a>
</g>
</g>
<!-- Node5&#45;&gt;Node13 -->
<g id="edge16" class="edge">
<title>Node5&#45;&gt;Node13</title>
<path fill="none" stroke="#191970" d="M812.5233,-131.8375C727.6136,-128.7912 520.8723,-118.4986 350.7949,-87 347.8685,-86.458 344.8726,-85.8302 341.8638,-85.1441"/>
<polygon fill="#191970" stroke="#191970" points="812.6224,-135.3429 822.7371,-132.1897 812.8637,-128.347 812.6224,-135.3429"/>
</g>
<!-- Node14 -->
<g id="node15" class="node">
<title>Node14</title>
<g id="a_node15"><a xlink:href="pruner__prob_8cpp.html" target="_top" xlink:title="fplll/pruner/pruner\l_prob.cpp">
<polygon fill="#ffffff" stroke="#000000" points="359.7949,-56.5 359.7949,-86.5 451.7949,-86.5 451.7949,-56.5 359.7949,-56.5"/>
<text text-anchor="start" x="367.7949" y="-74.5" font-family="Helvetica,sans-Serif" font-size="10.00" fill="#000000">fplll/pruner/pruner</text>
<text text-anchor="middle" x="405.7949" y="-63.5" font-family="Helvetica,sans-Serif" font-size="10.00" fill="#000000">_prob.cpp</text>
</a>
</g>
</g>
<!-- Node5&#45;&gt;Node14 -->
<g id="edge18" class="edge">
<title>Node5&#45;&gt;Node14</title>
<path fill="none" stroke="#191970" d="M812.3593,-130.4252C741.465,-125.3396 588.0144,-112.2463 460.7949,-87 457.8756,-86.4207 454.8853,-85.7643 451.8806,-85.0568"/>
<polygon fill="#191970" stroke="#191970" points="812.3891,-133.9359 822.6099,-131.1457 812.8799,-126.9531 812.3891,-133.9359"/>
</g>
<!-- Node15 -->
<g id="node16" class="node">
<title>Node15</title>
<g id="a_node16"><a xlink:href="pruner__util_8cpp.html" target="_top" xlink:title="fplll/pruner/pruner\l_util.cpp">
<polygon fill="#ffffff" stroke="#000000" points="469.7949,-56.5 469.7949,-86.5 561.7949,-86.5 561.7949,-56.5 469.7949,-56.5"/>
<text text-anchor="start" x="477.7949" y="-74.5" font-family="Helvetica,sans-Serif" font-size="10.00" fill="#000000">fplll/pruner/pruner</text>
<text text-anchor="middle" x="515.7949" y="-63.5" font-family="Helvetica,sans-Serif" font-size="10.00" fill="#000000">_util.cpp</text>
</a>
</g>
</g>
<!-- Node5&#45;&gt;Node15 -->
<g id="edge20" class="edge">
<title>Node5&#45;&gt;Node15</title>
<path fill="none" stroke="#191970" d="M812.5152,-127.9907C757.9438,-120.7092 656.2552,-105.974 570.7949,-87 567.8895,-86.3549 564.9097,-85.6482 561.9129,-84.9031"/>
<polygon fill="#191970" stroke="#191970" points="812.0901,-131.4648 822.4623,-129.3048 813.0069,-124.5251 812.0901,-131.4648"/>
</g>
<!-- Node16 -->
<g id="node17" class="node">
<title>Node16</title>
<g id="a_node17"><a xlink:href="test__bkz_8cpp.html" target="_top" xlink:title="tests/test_bkz.cpp">
<polygon fill="#ffffff" stroke="#000000" points="550.7949,-.5 550.7949,-19.5 648.7949,-19.5 648.7949,-.5 550.7949,-.5"/>
<text text-anchor="middle" x="599.7949" y="-7.5" font-family="Helvetica,sans-Serif" font-size="10.00" fill="#000000">tests/test_bkz.cpp</text>
</a>
</g>
</g>
<!-- Node5&#45;&gt;Node16 -->
<g id="edge22" class="edge">
<title>Node5&#45;&gt;Node16</title>
<path fill="none" stroke="#191970" d="M826.4049,-118.3296C792.9021,-99.0597 735.6252,-66.4441 713.7949,-56 684.3389,-41.9077 649.372,-28.2292 626.0029,-19.5036"/>
<polygon fill="#191970" stroke="#191970" points="824.7626,-121.4227 835.1748,-123.3813 828.2566,-115.357 824.7626,-121.4227"/>
</g>
<!-- Node17 -->
<g id="node18" class="node">
<title>Node17</title>
<g id="a_node18"><a xlink:href="test__bkz__gram_8cpp.html" target="_top" xlink:title="tests/test_bkz_gram.cpp">
<polygon fill="#ffffff" stroke="#000000" points="667.2949,-.5 667.2949,-19.5 792.2949,-19.5 792.2949,-.5 667.2949,-.5"/>
<text text-anchor="middle" x="729.7949" y="-7.5" font-family="Helvetica,sans-Serif" font-size="10.00" fill="#000000">tests/test_bkz_gram.cpp</text>
</a>
</g>
</g>
<!-- Node5&#45;&gt;Node17 -->
<g id="edge23" class="edge">
<title>Node5&#45;&gt;Node17</title>
<path fill="none" stroke="#191970" d="M834.9541,-116.0212C808.9699,-89.824 759.9508,-40.4031 739.3235,-19.6068"/>
<polygon fill="#191970" stroke="#191970" points="832.6946,-118.7133 842.2217,-123.3484 837.6645,-113.7837 832.6946,-118.7133"/>
</g>
<!-- Node18 -->
<g id="node19" class="node">
<title>Node18</title>
<g id="a_node19"><a xlink:href="test__counter_8cpp.html" target="_top" xlink:title="tests/test_counter.cpp">
<polygon fill="#ffffff" stroke="#000000" points="987.7949,-62 987.7949,-81 1101.7949,-81 1101.7949,-62 987.7949,-62"/>
<text text-anchor="middle" x="1044.7949" y="-69" font-family="Helvetica,sans-Serif" font-size="10.00" fill="#000000">tests/test_counter.cpp</text>
</a>
</g>
</g>
<!-- Node5&#45;&gt;Node18 -->
<g id="edge24" class="edge">
<title>Node5&#45;&gt;Node18</title>
<path fill="none" stroke="#191970" d="M890.9548,-120.5216C927.6083,-108.8419 981.579,-91.6439 1014.8884,-81.0298"/>
<polygon fill="#191970" stroke="#191970" points="889.5727,-117.2885 881.1074,-123.6595 891.6981,-123.9581 889.5727,-117.2885"/>
</g>
<!-- Node19 -->
<g id="node20" class="node">
<title>Node19</title>
<g id="a_node20"><a xlink:href="test__cvp_8cpp.html" target="_top" xlink:title="tests/test_cvp.cpp">
<polygon fill="#ffffff" stroke="#000000" points="810.7949,-.5 810.7949,-19.5 908.7949,-19.5 908.7949,-.5 810.7949,-.5"/>
<text text-anchor="middle" x="859.7949" y="-7.5" font-family="Helvetica,sans-Serif" font-size="10.00" fill="#000000">tests/test_cvp.cpp</text>
</a>
</g>
</g>
<!-- Node5&#45;&gt;Node19 -->
<g id="edge25" class="edge">
<title>Node5&#45;&gt;Node19</title>
<path fill="none" stroke="#191970" d="M844.0336,-113.8813C838.7118,-98.244 833.3504,-75.5944 837.7949,-56 840.8106,-42.7049 848.1593,-28.7591 853.5366,-19.7567"/>
<polygon fill="#191970" stroke="#191970" points="840.8291,-115.3063 847.5906,-123.4631 847.3915,-112.8702 840.8291,-115.3063"/>
</g>
<!-- Node20 -->
<g id="node21" class="node">
<title>Node20</title>
<g id="a_node21"><a xlink:href="test__enum_8cpp.html" target="_top" xlink:title="tests/test_enum.cpp">
<polygon fill="#ffffff" stroke="#000000" points="1119.7949,-62 1119.7949,-81 1225.7949,-81 1225.7949,-62 1119.7949,-62"/>
<text text-anchor="middle" x="1172.7949" y="-69" font-family="Helvetica,sans-Serif" font-size="10.00" fill="#000000">tests/test_enum.cpp</text>
</a>
</g>
</g>
<!-- Node5&#45;&gt;Node20 -->
<g id="edge26" class="edge">
<title>Node5&#45;&gt;Node20</title>
<path fill="none" stroke="#191970" d="M890.8824,-126.0139C896.5561,-125.0017 902.3255,-123.9733 907.7949,-123 998.0075,-106.9462 1021.1827,-106.1233 1110.7949,-87 1119.15,-85.217 1128.0881,-83.1043 1136.5026,-81.0216"/>
<polygon fill="#191970" stroke="#191970" points="890.0881,-122.6003 880.8588,-127.8032 891.3182,-129.4914 890.0881,-122.6003"/>
</g>
<!-- Node21 -->
<g id="node22" class="node">
<title>Node21</title>
<g id="a_node22"><a xlink:href="test__hlll_8cpp.html" target="_top" xlink:title="tests/test_hlll.cpp">
<polygon fill="#ffffff" stroke="#000000" points="926.7949,-.5 926.7949,-19.5 1020.7949,-19.5 1020.7949,-.5 926.7949,-.5"/>
<text text-anchor="middle" x="973.7949" y="-7.5" font-family="Helvetica,sans-Serif" font-size="10.00" fill="#000000">tests/test_hlll.cpp</text>
</a>
</g>
</g>
<!-- Node5&#45;&gt;Node21 -->
<g id="edge27" class="edge">
<title>Node5&#45;&gt;Node21</title>
<path fill="none" stroke="#191970" d="M852.3392,-112.8534C853.7995,-95.9072 858.3382,-71.956 871.7949,-56 887.1991,-37.7347 911.3476,-26.4021 932.2815,-19.5568"/>
<polygon fill="#191970" stroke="#191970" points="848.8197,-113.0999 851.7483,-123.2819 855.8085,-113.496 848.8197,-113.0999"/>
</g>
<!-- Node22 -->
<g id="node23" class="node">
<title>Node22</title>
<g id="a_node23"><a xlink:href="test__lll_8cpp.html" target="_top" xlink:title="tests/test_lll.cpp">
<polygon fill="#ffffff" stroke="#000000" points="1155.2949,-.5 1155.2949,-19.5 1244.2949,-19.5 1244.2949,-.5 1155.2949,-.5"/>
<text text-anchor="middle" x="1199.7949" y="-7.5" font-family="Helvetica,sans-Serif" font-size="10.00" fill="#000000">tests/test_lll.cpp</text>
</a>
</g>
</g>
<!-- Node5&#45;&gt;Node22 -->
<g id="edge28" class="edge">
<title>Node5&#45;&gt;Node22</title>
<path fill="none" stroke="#191970" d="M890.9883,-125.4227C896.6134,-124.504 902.341,-123.6592 907.7949,-123 970.0253,-115.4785 1427.9086,-132.7161 1470.7949,-87 1583.4663,33.1061 1751.5998,-108.2309 1252.7949,-20 1250.0287,-19.5107 1247.183,-18.9988 1244.3144,-18.4762"/>
<polygon fill="#191970" stroke="#191970" points="890.317,-121.9867 881.0555,-127.132 891.5042,-128.8853 890.317,-121.9867"/>
</g>
<!-- Node23 -->
<g id="node24" class="node">
<title>Node23</title>
<g id="a_node24"><a xlink:href="test__lll__gram_8cpp.html" target="_top" xlink:title="tests/test_lll_gram.cpp">
<polygon fill="#ffffff" stroke="#000000" points="1261.7949,-.5 1261.7949,-19.5 1377.7949,-19.5 1377.7949,-.5 1261.7949,-.5"/>
<text text-anchor="middle" x="1319.7949" y="-7.5" font-family="Helvetica,sans-Serif" font-size="10.00" fill="#000000">tests/test_lll_gram.cpp</text>
</a>
</g>
</g>
<!-- Node5&#45;&gt;Node23 -->
<g id="edge29" class="edge">
<title>Node5&#45;&gt;Node23</title>
<path fill="none" stroke="#191970" d="M890.9863,-125.4061C896.6117,-124.4898 902.34,-123.6501 907.7949,-123 973.4513,-115.1751 1456.4765,-135.1481 1501.7949,-87 1511.238,-76.9673 1510.2599,-66.8707 1501.7949,-56 1493.6102,-45.4893 1421.6421,-29.6409 1370.7024,-19.5602"/>
<polygon fill="#191970" stroke="#191970" points="890.3157,-121.9699 881.0532,-127.1135 891.5017,-128.8688 890.3157,-121.9699"/>
</g>
<!-- Node24 -->
<g id="node25" class="node">
<title>Node24</title>
<g id="a_node25"><a xlink:href="test__nr_8cpp.html" target="_top" xlink:title="tests/test_nr.cpp">
<polygon fill="#ffffff" stroke="#000000" points="1243.7949,-62 1243.7949,-81 1333.7949,-81 1333.7949,-62 1243.7949,-62"/>
<text text-anchor="middle" x="1288.7949" y="-69" font-family="Helvetica,sans-Serif" font-size="10.00" fill="#000000">tests/test_nr.cpp</text>
</a>
</g>
</g>
<!-- Node5&#45;&gt;Node24 -->
<g id="edge30" class="edge">
<title>Node5&#45;&gt;Node24</title>
<path fill="none" stroke="#191970" d="M890.8293,-125.684C896.5107,-124.7198 902.2965,-123.7927 907.7949,-123 1052.5102,-102.137 1091.3428,-115.2715 1234.7949,-87 1242.7376,-85.4347 1251.2063,-83.255 1259.025,-81.024"/>
<polygon fill="#191970" stroke="#191970" points="890.0473,-122.2676 880.8001,-127.4387 891.2537,-129.1629 890.0473,-122.2676"/>
</g>
<!-- Node25 -->
<g id="node26" class="node">
<title>Node25</title>
<g id="a_node26"><a xlink:href="test__pruner_8cpp.html" target="_top" xlink:title="tests/test_pruner.cpp">
<polygon fill="#ffffff" stroke="#000000" points="1352.2949,-62 1352.2949,-81 1461.2949,-81 1461.2949,-62 1352.2949,-62"/>
<text text-anchor="middle" x="1406.7949" y="-69" font-family="Helvetica,sans-Serif" font-size="10.00" fill="#000000">tests/test_pruner.cpp</text>
</a>
</g>
</g>
<!-- Node5&#45;&gt;Node25 -->
<g id="edge31" class="edge">
<title>Node5&#45;&gt;Node25</title>
<path fill="none" stroke="#191970" d="M891.0001,-125.5165C896.6234,-124.5839 902.3474,-123.7102 907.7949,-123 1100.1613,-97.921 1151.2813,-117.9243 1342.7949,-87 1352.2752,-85.4692 1362.4247,-83.2741 1371.7835,-81.0156"/>
<polygon fill="#191970" stroke="#191970" points="890.3247,-122.0813 881.0685,-127.2362 891.5191,-128.9786 890.3247,-122.0813"/>
</g>
<!-- Node26 -->
<g id="node27" class="node">
<title>Node26</title>
<g id="a_node27"><a xlink:href="test__svp_8cpp.html" target="_top" xlink:title="tests/test_svp.cpp">
<polygon fill="#ffffff" stroke="#000000" points="1395.7949,-.5 1395.7949,-19.5 1493.7949,-19.5 1493.7949,-.5 1395.7949,-.5"/>
<text text-anchor="middle" x="1444.7949" y="-7.5" font-family="Helvetica,sans-Serif" font-size="10.00" fill="#000000">tests/test_svp.cpp</text>
</a>
</g>
</g>
<!-- Node5&#45;&gt;Node26 -->
<g id="edge32" class="edge">
<title>Node5&#45;&gt;Node26</title>
<path fill="none" stroke="#191970" d="M890.9853,-125.3977C896.6108,-124.4827 902.3394,-123.6455 907.7949,-123 975.3304,-115.0087 1472.1426,-136.482 1518.7949,-87 1528.2464,-76.9752 1525.4886,-68.0425 1518.7949,-56 1509.0939,-38.5471 1489.7227,-26.8626 1473.233,-19.6379"/>
<polygon fill="#191970" stroke="#191970" points="890.3151,-121.9614 881.0521,-127.1042 891.5004,-128.8604 890.3151,-121.9614"/>
</g>
<!-- Node27 -->
<g id="node28" class="node">
<title>Node27</title>
<g id="a_node28"><a xlink:href="test__svp__gram_8cpp.html" target="_top" xlink:title="tests/test_svp_gram.cpp">
<polygon fill="#ffffff" stroke="#000000" points="1512.2949,-.5 1512.2949,-19.5 1637.2949,-19.5 1637.2949,-.5 1512.2949,-.5"/>
<text text-anchor="middle" x="1574.7949" y="-7.5" font-family="Helvetica,sans-Serif" font-size="10.00" fill="#000000">tests/test_svp_gram.cpp</text>
</a>
</g>
</g>
<!-- Node5&#45;&gt;Node27 -->
<g id="edge33" class="edge">
<title>Node5&#45;&gt;Node27</title>
<path fill="none" stroke="#191970" d="M890.9844,-125.3897C896.61,-124.4759 902.3389,-123.6412 907.7949,-123 977.2095,-114.8422 1477.3178,-125.2801 1535.7949,-87 1559.6162,-71.4062 1569.5606,-36.5446 1573.1048,-19.6055"/>
<polygon fill="#191970" stroke="#191970" points="890.3145,-121.9534 881.0511,-127.0953 891.4992,-128.8524 890.3145,-121.9534"/>
</g>
<!-- Node28 -->
<g id="node29" class="node">
<title>Node28</title>
<g id="a_node29"><a xlink:href="test__utils_8h.html" target="_top" xlink:title="tests/test_utils.h">
<polygon fill="#ffffff" stroke="#000000" points="880.2949,-62 880.2949,-81 969.2949,-81 969.2949,-62 880.2949,-62"/>
<text text-anchor="middle" x="924.7949" y="-69" font-family="Helvetica,sans-Serif" font-size="10.00" fill="#000000">tests/test_utils.h</text>
</a>
</g>
</g>
<!-- Node5&#45;&gt;Node28 -->
<g id="edge34" class="edge">
<title>Node5&#45;&gt;Node28</title>
<path fill="none" stroke="#191970" d="M870.942,-116.8692C884.3688,-105.5576 901.8786,-90.8062 913.2278,-81.2449"/>
<polygon fill="#191970" stroke="#191970" points="868.5939,-114.2709 863.2011,-123.3906 873.104,-119.6243 868.5939,-114.2709"/>
</g>
<!-- Node8 -->
<g id="node9" class="node">
<title>Node8</title>
<g id="a_node9"><a xlink:href="main_8cpp.html" target="_top" xlink:title="fplll/main.cpp">
<polygon fill="#ffffff" stroke="#000000" points="1655.7949,-.5 1655.7949,-19.5 1729.7949,-19.5 1729.7949,-.5 1655.7949,-.5"/>
<text text-anchor="middle" x="1692.7949" y="-7.5" font-family="Helvetica,sans-Serif" font-size="10.00" fill="#000000">fplll/main.cpp</text>
</a>
</g>
</g>
<!-- Node7&#45;&gt;Node8 -->
<g id="edge8" class="edge">
<title>Node7&#45;&gt;Node8</title>
<path fill="none" stroke="#191970" d="M1672.6349,-52.753C1677.7712,-41.8606 1684.0314,-28.5846 1688.1997,-19.7449"/>
<polygon fill="#191970" stroke="#191970" points="1669.4255,-51.353 1668.3261,-61.8906 1675.7569,-54.3386 1669.4255,-51.353"/>
</g>
<!-- Node10&#45;&gt;Node9 -->
<g id="edge11" class="edge">
<title>Node10&#45;&gt;Node9</title>
<path fill="none" stroke="#191970" d="M569.8802,-55.8614C506.5095,-40.5141 443.8084,-27.7956 401.2578,-19.5294"/>
<polygon fill="#191970" stroke="#191970" points="569.0973,-59.273 579.6422,-58.2455 570.7581,-52.4729 569.0973,-59.273"/>
</g>
<!-- Node11&#45;&gt;Node9 -->
<g id="edge13" class="edge">
<title>Node11&#45;&gt;Node9</title>
<path fill="none" stroke="#191970" d="M131.7096,-55.8614C195.0803,-40.5141 257.7814,-27.7956 300.3319,-19.5294"/>
<polygon fill="#191970" stroke="#191970" points="130.8317,-52.4729 121.9476,-58.2455 132.4925,-59.273 130.8317,-52.4729"/>
</g>
<!-- Node12&#45;&gt;Node9 -->
<g id="edge15" class="edge">
<title>Node12&#45;&gt;Node9</title>
<path fill="none" stroke="#191970" d="M235.8834,-52.8306C265.3831,-41.8353 301.4569,-28.3896 325.2257,-19.5303"/>
<polygon fill="#191970" stroke="#191970" points="234.3063,-49.6832 226.1584,-56.4554 236.7511,-56.2424 234.3063,-49.6832"/>
</g>
<!-- Node13&#45;&gt;Node9 -->
<g id="edge17" class="edge">
<title>Node13&#45;&gt;Node9</title>
<path fill="none" stroke="#191970" d="M316.2147,-48.6669C325.1042,-38.7269 335.0527,-27.6026 341.9887,-19.8469"/>
<polygon fill="#191970" stroke="#191970" points="313.4477,-46.5106 309.3904,-56.2977 318.6655,-51.1769 313.4477,-46.5106"/>
</g>
<!-- Node14&#45;&gt;Node9 -->
<g id="edge19" class="edge">
<title>Node14&#45;&gt;Node9</title>
<path fill="none" stroke="#191970" d="M385.3751,-48.6669C376.4856,-38.7269 366.537,-27.6026 359.6011,-19.8469"/>
<polygon fill="#191970" stroke="#191970" points="382.9243,-51.1769 392.1994,-56.2977 388.1421,-46.5106 382.9243,-51.1769"/>
</g>
<!-- Node15&#45;&gt;Node9 -->
<g id="edge21" class="edge">
<title>Node15&#45;&gt;Node9</title>
<path fill="none" stroke="#191970" d="M465.7064,-52.8306C436.2066,-41.8353 400.1328,-28.3896 376.364,-19.5303"/>
<polygon fill="#191970" stroke="#191970" points="464.8386,-56.2424 475.4313,-56.4554 467.2835,-49.6832 464.8386,-56.2424"/>
</g>
<!-- Node28&#45;&gt;Node16 -->
<g id="edge35" class="edge">
<title>Node28&#45;&gt;Node16</title>
<path fill="none" stroke="#191970" d="M870.3192,-61.1915C808.4297,-49.4801 708.3258,-30.5374 648.8019,-19.2736"/>
<polygon fill="#191970" stroke="#191970" points="869.8101,-64.6572 880.2865,-63.0776 871.1116,-57.7793 869.8101,-64.6572"/>
</g>
<!-- Node28&#45;&gt;Node17 -->
<g id="edge36" class="edge">
<title>Node28&#45;&gt;Node17</title>
<path fill="none" stroke="#191970" d="M884.3704,-58.7507C847.3714,-47.0818 793.448,-30.0752 760.0497,-19.5419"/>
<polygon fill="#191970" stroke="#191970" points="883.7364,-62.2207 894.3261,-61.8906 885.8419,-55.5448 883.7364,-62.2207"/>
</g>
<!-- Node28&#45;&gt;Node19 -->
<g id="edge37" class="edge">
<title>Node28&#45;&gt;Node19</title>
<path fill="none" stroke="#191970" d="M907.0656,-54.7253C895.2044,-43.5028 880.0092,-29.1258 870.0943,-19.7449"/>
<polygon fill="#191970" stroke="#191970" points="904.9692,-57.5602 914.6386,-61.8906 909.7802,-52.4754 904.9692,-57.5602"/>
</g>
<!-- Node28&#45;&gt;Node21 -->
<g id="edge39" class="edge">
<title>Node28&#45;&gt;Node21</title>
<path fill="none" stroke="#191970" d="M938.94,-53.7465C947.7591,-42.6775 958.772,-28.8552 966.0307,-19.7449"/>
<polygon fill="#191970" stroke="#191970" points="935.9452,-51.8885 932.4511,-61.8906 941.42,-56.2505 935.9452,-51.8885"/>
</g>
<!-- Node28&#45;&gt;Node22 -->
<g id="edge40" class="edge">
<title>Node28&#45;&gt;Node22</title>
<path fill="none" stroke="#191970" d="M966.3539,-59.2356C970.5454,-58.0995 974.7471,-57.0007 978.7949,-56 1039.4765,-40.9978 1110.3326,-26.8331 1155.1289,-18.286"/>
<polygon fill="#191970" stroke="#191970" points="965.3683,-55.8768 956.67,-61.9258 967.242,-62.6213 965.3683,-55.8768"/>
</g>
<!-- Node28&#45;&gt;Node23 -->
<g id="edge41" class="edge">
<title>Node28&#45;&gt;Node23</title>
<path fill="none" stroke="#191970" d="M965.0787,-59.227C969.6802,-58.0369 974.323,-56.9291 978.7949,-56 1099.4828,-30.9259 1131.7405,-37.2338 1253.7949,-20 1256.3194,-19.6435 1258.8975,-19.2745 1261.5013,-18.8977"/>
<polygon fill="#191970" stroke="#191970" points="963.8846,-55.9245 955.1536,-61.9262 965.7217,-62.6792 963.8846,-55.9245"/>
</g>
<!-- Node28&#45;&gt;Node26 -->
<g id="edge42" class="edge">
<title>Node28&#45;&gt;Node26</title>
<path fill="none" stroke="#191970" d="M964.1426,-59.2646C969.0434,-58.0198 974.0122,-56.8889 978.7949,-56 1157.7677,-22.7358 1206.2783,-43.4848 1386.7949,-20 1389.7333,-19.6177 1392.7504,-19.1937 1395.7904,-18.7424"/>
<polygon fill="#191970" stroke="#191970" points="962.9985,-55.9482 954.2599,-61.9388 964.8269,-62.7052 962.9985,-55.9482"/>
</g>
<!-- Node28&#45;&gt;Node27 -->
<g id="edge43" class="edge">
<title>Node28&#45;&gt;Node27</title>
<path fill="none" stroke="#191970" d="M963.3803,-59.3624C968.5246,-58.0576 973.7606,-56.8852 978.7949,-56 1208.7055,-15.5731 1270.6014,-44.0713 1502.7949,-20 1505.8075,-19.6877 1508.8881,-19.346 1511.9974,-18.9833"/>
<polygon fill="#191970" stroke="#191970" points="962.4127,-55.9983 953.6778,-61.9942 964.2454,-62.7541 962.4127,-55.9983"/>
</g>
<!-- Node29 -->
<g id="node30" class="node">
<title>Node29</title>
<g id="a_node30"><a xlink:href="test__gso_8cpp.html" target="_top" xlink:title="tests/test_gso.cpp">
<polygon fill="#ffffff" stroke="#000000" points="1038.7949,-.5 1038.7949,-19.5 1136.7949,-19.5 1136.7949,-.5 1038.7949,-.5"/>
<text text-anchor="middle" x="1087.7949" y="-7.5" font-family="Helvetica,sans-Serif" font-size="10.00" fill="#000000">tests/test_gso.cpp</text>
</a>
</g>
</g>
<!-- Node28&#45;&gt;Node29 -->
<g id="edge38" class="edge">
<title>Node28&#45;&gt;Node29</title>
<path fill="none" stroke="#191970" d="M959.782,-58.2993C990.6659,-46.6468 1034.9453,-29.9402 1062.505,-19.5419"/>
<polygon fill="#191970" stroke="#191970" points="958.3843,-55.0858 950.2636,-61.8906 960.8554,-61.6351 958.3843,-55.0858"/>
</g>
</g>
</svg>
