<?xml version="1.0" encoding="UTF-8" standalone="no"?>
<!DOCTYPE svg PUBLIC "-//W3C//DTD SVG 1.1//EN"
 "http://www.w3.org/Graphics/SVG/1.1/DTD/svg11.dtd">
<!-- Generated by graphviz version 2.40.1 (20161225.0304)
 -->
<!-- Title: fplll/sieve/sampler_basic.h Pages: 1 -->
<svg width="704pt" height="352pt"
 viewBox="0.00 0.00 704.00 352.00" xmlns="http://www.w3.org/2000/svg" xmlns:xlink="http://www.w3.org/1999/xlink">
<g id="graph0" class="graph" transform="scale(1 1) rotate(0) translate(4 348)">
<title>fplll/sieve/sampler_basic.h</title>
<polygon fill="#ffffff" stroke="transparent" points="-4,4 -4,-348 700,-348 700,4 -4,4"/>
<!-- Node0 -->
<g id="node1" class="node">
<title>Node0</title>
<polygon fill="#bfbfbf" stroke="#000000" points="113,-313.5 113,-343.5 208,-343.5 208,-313.5 113,-313.5"/>
<text text-anchor="start" x="121" y="-331.5" font-family="Helvetica,sans-Serif" font-size="10.00" fill="#000000">fplll/sieve/sampler</text>
<text text-anchor="middle" x="160.5" y="-320.5" font-family="Helvetica,sans-Serif" font-size="10.00" fill="#000000">_basic.h</text>
</g>
<!-- Node1 -->
<g id="node2" class="node">
<title>Node1</title>
<g id="a_node2"><a xlink:href="sampler__basic_8cpp.html" target="_top" xlink:title="fplll/sieve/sampler\l_basic.cpp">
<polygon fill="#ffffff" stroke="#000000" points="0,-246.5 0,-276.5 95,-276.5 95,-246.5 0,-246.5"/>
<text text-anchor="start" x="8" y="-264.5" font-family="Helvetica,sans-Serif" font-size="10.00" fill="#000000">fplll/sieve/sampler</text>
<text text-anchor="middle" x="47.5" y="-253.5" font-family="Helvetica,sans-Serif" font-size="10.00" fill="#000000">_basic.cpp</text>
</a>
</g>
</g>
<!-- Node0&#45;&gt;Node1 -->
<g id="edge1" class="edge">
<title>Node0&#45;&gt;Node1</title>
<path fill="none" stroke="#191970" d="M126.526,-308.3561C109.3962,-298.1995 88.963,-286.0843 73.1657,-276.7177"/>
<polygon fill="#191970" stroke="#191970" points="124.7538,-311.3743 135.1406,-313.4639 128.324,-305.3531 124.7538,-311.3743"/>
</g>
<!-- Node2 -->
<g id="node3" class="node">
<title>Node2</title>
<g id="a_node3"><a xlink:href="sampler__main_8cpp.html" target="_top" xlink:title="fplll/sieve/sampler\l_main.cpp">
<polygon fill="#ffffff" stroke="#000000" points="113,-246.5 113,-276.5 208,-276.5 208,-246.5 113,-246.5"/>
<text text-anchor="start" x="121" y="-264.5" font-family="Helvetica,sans-Serif" font-size="10.00" fill="#000000">fplll/sieve/sampler</text>
<text text-anchor="middle" x="160.5" y="-253.5" font-family="Helvetica,sans-Serif" font-size="10.00" fill="#000000">_main.cpp</text>
</a>
</g>
</g>
<!-- Node0&#45;&gt;Node2 -->
<g id="edge2" class="edge">
<title>Node0&#45;&gt;Node2</title>
<path fill="none" stroke="#191970" d="M160.5,-303.0249C160.5,-294.128 160.5,-284.4287 160.5,-276.6432"/>
<polygon fill="#191970" stroke="#191970" points="157.0001,-303.2966 160.5,-313.2967 164.0001,-303.2967 157.0001,-303.2966"/>
</g>
<!-- Node3 -->
<g id="node4" class="node">
<title>Node3</title>
<g id="a_node4"><a xlink:href="sieve__common_8h.html" target="_top" xlink:title="fplll/sieve/sieve_common.h">
<polygon fill="#ffffff" stroke="#000000" points="226,-252 226,-271 361,-271 361,-252 226,-252"/>
<text text-anchor="middle" x="293.5" y="-259" font-family="Helvetica,sans-Serif" font-size="10.00" fill="#000000">fplll/sieve/sieve_common.h</text>
</a>
</g>
</g>
<!-- Node0&#45;&gt;Node3 -->
<g id="edge3" class="edge">
<title>Node0&#45;&gt;Node3</title>
<path fill="none" stroke="#191970" d="M199.4667,-308.8702C224.1391,-296.4412 254.9525,-280.9187 274.4355,-271.1039"/>
<polygon fill="#191970" stroke="#191970" points="197.7039,-305.8391 190.3478,-313.4639 200.8533,-312.0906 197.7039,-305.8391"/>
</g>
<!-- Node4 -->
<g id="node5" class="node">
<title>Node4</title>
<g id="a_node5"><a xlink:href="sieve__gauss__str_8h.html" target="_top" xlink:title="fplll/sieve/sieve_gauss\l_str.h">
<polygon fill="#ffffff" stroke="#000000" points="235.5,-179.5 235.5,-209.5 351.5,-209.5 351.5,-179.5 235.5,-179.5"/>
<text text-anchor="start" x="243.5" y="-197.5" font-family="Helvetica,sans-Serif" font-size="10.00" fill="#000000">fplll/sieve/sieve_gauss</text>
<text text-anchor="middle" x="293.5" y="-186.5" font-family="Helvetica,sans-Serif" font-size="10.00" fill="#000000">_str.h</text>
</a>
</g>
</g>
<!-- Node3&#45;&gt;Node4 -->
<g id="edge4" class="edge">
<title>Node3&#45;&gt;Node4</title>
<path fill="none" stroke="#191970" d="M287.2852,-241.7758C286.438,-231.4641 286.5966,-219.0437 287.7612,-209.5218"/>
<polygon fill="#191970" stroke="#191970" points="283.8412,-242.4343 288.5994,-251.9005 290.783,-241.5332 283.8412,-242.4343"/>
</g>
<!-- Node5 -->
<g id="node6" class="node">
<title>Node5</title>
<g id="a_node6"><a xlink:href="sieve__gauss_8h.html" target="_top" xlink:title="fplll/sieve/sieve_gauss.h">
<polygon fill="#ffffff" stroke="#000000" points="274.5,-123.5 274.5,-142.5 398.5,-142.5 398.5,-123.5 274.5,-123.5"/>
<text text-anchor="middle" x="336.5" y="-130.5" font-family="Helvetica,sans-Serif" font-size="10.00" fill="#000000">fplll/sieve/sieve_gauss.h</text>
</a>
</g>
</g>
<!-- Node3&#45;&gt;Node5 -->
<g id="edge17" class="edge">
<title>Node3&#45;&gt;Node5</title>
<path fill="none" stroke="#191970" d="M323.3449,-246.8367C337.3633,-238.2161 352.6819,-225.8702 360.5,-210 371.8237,-187.0135 354.694,-157.5434 344.004,-142.6053"/>
<polygon fill="#191970" stroke="#191970" points="321.3433,-243.9499 314.4124,-251.9632 324.8277,-250.0211 321.3433,-243.9499"/>
</g>
<!-- Node4&#45;&gt;Node3 -->
<g id="edge5" class="edge">
<title>Node4&#45;&gt;Node3</title>
<path fill="none" stroke="#191970" d="M300.0628,-219.7085C300.5799,-230.9451 300.0258,-243.5099 298.4006,-251.9005"/>
<polygon fill="#191970" stroke="#191970" points="303.5337,-219.207 299.2388,-209.5218 296.5565,-219.7714 303.5337,-219.207"/>
</g>
<!-- Node4&#45;&gt;Node5 -->
<g id="edge6" class="edge">
<title>Node4&#45;&gt;Node5</title>
<path fill="none" stroke="#191970" d="M309.8784,-171.0751C316.7216,-161.2877 324.2999,-150.449 329.6152,-142.8469"/>
<polygon fill="#191970" stroke="#191970" points="306.991,-169.0967 304.1292,-179.2977 312.7278,-173.1079 306.991,-169.0967"/>
</g>
<!-- Node6 -->
<g id="node7" class="node">
<title>Node6</title>
<g id="a_node7"><a xlink:href="sieve__gauss_8cpp.html" target="_top" xlink:title="fplll/sieve/sieve_gauss.cpp">
<polygon fill="#ffffff" stroke="#000000" points="232.5,-.5 232.5,-19.5 366.5,-19.5 366.5,-.5 232.5,-.5"/>
<text text-anchor="middle" x="299.5" y="-7.5" font-family="Helvetica,sans-Serif" font-size="10.00" fill="#000000">fplll/sieve/sieve_gauss.cpp</text>
</a>
</g>
</g>
<!-- Node5&#45;&gt;Node6 -->
<g id="edge7" class="edge">
<title>Node5&#45;&gt;Node6</title>
<path fill="none" stroke="#191970" d="M264.3668,-125.916C213.475,-119.2539 151.6061,-107.2085 135.5,-87 104.4762,-48.0742 174.4768,-27.8497 232.4575,-18.0801"/>
<polygon fill="#191970" stroke="#191970" points="264.023,-129.4003 274.382,-127.1775 264.8978,-122.4552 264.023,-129.4003"/>
</g>
<!-- Node7 -->
<g id="node8" class="node">
<title>Node7</title>
<g id="a_node8"><a xlink:href="sieve__gauss__2sieve_8cpp.html" target="_top" xlink:title="fplll/sieve/sieve_gauss\l_2sieve.cpp">
<polygon fill="#ffffff" stroke="#000000" points="144.5,-56.5 144.5,-86.5 260.5,-86.5 260.5,-56.5 144.5,-56.5"/>
<text text-anchor="start" x="152.5" y="-74.5" font-family="Helvetica,sans-Serif" font-size="10.00" fill="#000000">fplll/sieve/sieve_gauss</text>
<text text-anchor="middle" x="202.5" y="-63.5" font-family="Helvetica,sans-Serif" font-size="10.00" fill="#000000">_2sieve.cpp</text>
</a>
</g>
</g>
<!-- Node5&#45;&gt;Node7 -->
<g id="edge8" class="edge">
<title>Node5&#45;&gt;Node7</title>
<path fill="none" stroke="#191970" d="M306.3991,-119.185C285.2573,-109.4819 256.9919,-96.5093 235.2801,-86.5446"/>
<polygon fill="#191970" stroke="#191970" points="305.014,-122.4003 315.5625,-123.3906 307.9339,-116.0384 305.014,-122.4003"/>
</g>
<!-- Node8 -->
<g id="node9" class="node">
<title>Node8</title>
<g id="a_node9"><a xlink:href="sieve__gauss__3sieve_8cpp.html" target="_top" xlink:title="fplll/sieve/sieve_gauss\l_3sieve.cpp">
<polygon fill="#ffffff" stroke="#000000" points="278.5,-56.5 278.5,-86.5 394.5,-86.5 394.5,-56.5 278.5,-56.5"/>
<text text-anchor="start" x="286.5" y="-74.5" font-family="Helvetica,sans-Serif" font-size="10.00" fill="#000000">fplll/sieve/sieve_gauss</text>
<text text-anchor="middle" x="336.5" y="-63.5" font-family="Helvetica,sans-Serif" font-size="10.00" fill="#000000">_3sieve.cpp</text>
</a>
</g>
</g>
<!-- Node5&#45;&gt;Node8 -->
<g id="edge10" class="edge">
<title>Node5&#45;&gt;Node8</title>
<path fill="none" stroke="#191970" d="M336.5,-113.3693C336.5,-104.681 336.5,-94.6241 336.5,-86.5446"/>
<polygon fill="#191970" stroke="#191970" points="333.0001,-113.3906 336.5,-123.3906 340.0001,-113.3907 333.0001,-113.3906"/>
</g>
<!-- Node9 -->
<g id="node10" class="node">
<title>Node9</title>
<g id="a_node10"><a xlink:href="sieve__gauss__4sieve_8cpp.html" target="_top" xlink:title="fplll/sieve/sieve_gauss\l_4sieve.cpp">
<polygon fill="#ffffff" stroke="#000000" points="412.5,-56.5 412.5,-86.5 528.5,-86.5 528.5,-56.5 412.5,-56.5"/>
<text text-anchor="start" x="420.5" y="-74.5" font-family="Helvetica,sans-Serif" font-size="10.00" fill="#000000">fplll/sieve/sieve_gauss</text>
<text text-anchor="middle" x="470.5" y="-63.5" font-family="Helvetica,sans-Serif" font-size="10.00" fill="#000000">_4sieve.cpp</text>
</a>
</g>
</g>
<!-- Node5&#45;&gt;Node9 -->
<g id="edge12" class="edge">
<title>Node5&#45;&gt;Node9</title>
<path fill="none" stroke="#191970" d="M366.6009,-119.185C387.7427,-109.4819 416.0081,-96.5093 437.7199,-86.5446"/>
<polygon fill="#191970" stroke="#191970" points="365.0661,-116.0384 357.4375,-123.3906 367.986,-122.4003 365.0661,-116.0384"/>
</g>
<!-- Node10 -->
<g id="node11" class="node">
<title>Node10</title>
<g id="a_node11"><a xlink:href="sieve__main_8h.html" target="_top" xlink:title="fplll/sieve/sieve_main.h">
<polygon fill="#ffffff" stroke="#000000" points="547,-62 547,-81 666,-81 666,-62 547,-62"/>
<text text-anchor="middle" x="606.5" y="-69" font-family="Helvetica,sans-Serif" font-size="10.00" fill="#000000">fplll/sieve/sieve_main.h</text>
</a>
</g>
</g>
<!-- Node5&#45;&gt;Node10 -->
<g id="edge14" class="edge">
<title>Node5&#45;&gt;Node10</title>
<path fill="none" stroke="#191970" d="M388.2725,-121.2074C439.5107,-109.5365 516.9778,-91.8912 564.5105,-81.0643"/>
<polygon fill="#191970" stroke="#191970" points="387.3642,-117.8245 378.3913,-123.4581 388.9189,-124.6497 387.3642,-117.8245"/>
</g>
<!-- Node7&#45;&gt;Node6 -->
<g id="edge9" class="edge">
<title>Node7&#45;&gt;Node6</title>
<path fill="none" stroke="#191970" d="M235.3398,-50.6789C251.8995,-40.1797 271.1878,-27.9505 284.2587,-19.6633"/>
<polygon fill="#191970" stroke="#191970" points="233.049,-47.9871 226.4775,-56.2977 236.7973,-53.899 233.049,-47.9871"/>
</g>
<!-- Node8&#45;&gt;Node6 -->
<g id="edge11" class="edge">
<title>Node8&#45;&gt;Node6</title>
<path fill="none" stroke="#191970" d="M322.0493,-47.4806C316.2559,-37.8511 309.9054,-27.2954 305.4242,-19.8469"/>
<polygon fill="#191970" stroke="#191970" points="319.1996,-49.5333 327.3539,-56.2977 325.1978,-45.9246 319.1996,-49.5333"/>
</g>
<!-- Node9&#45;&gt;Node6 -->
<g id="edge13" class="edge">
<title>Node9&#45;&gt;Node6</title>
<path fill="none" stroke="#191970" d="M418.9885,-52.9739C388.343,-41.9523 350.7391,-28.4281 325.9989,-19.5303"/>
<polygon fill="#191970" stroke="#191970" points="418.0742,-56.3645 428.6687,-56.4554 420.4433,-49.7776 418.0742,-56.3645"/>
</g>
<!-- Node11 -->
<g id="node12" class="node">
<title>Node11</title>
<g id="a_node12"><a xlink:href="sieve__main_8cpp.html" target="_top" xlink:title="fplll/sieve/sieve_main.cpp">
<polygon fill="#ffffff" stroke="#000000" points="444,-.5 444,-19.5 573,-19.5 573,-.5 444,-.5"/>
<text text-anchor="middle" x="508.5" y="-7.5" font-family="Helvetica,sans-Serif" font-size="10.00" fill="#000000">fplll/sieve/sieve_main.cpp</text>
</a>
</g>
</g>
<!-- Node10&#45;&gt;Node11 -->
<g id="edge15" class="edge">
<title>Node10&#45;&gt;Node11</title>
<path fill="none" stroke="#191970" d="M582.5084,-56.444C564.1578,-44.9281 539.4138,-29.4 523.705,-19.5419"/>
<polygon fill="#191970" stroke="#191970" points="580.8568,-59.5397 591.1875,-61.8906 584.5777,-53.6105 580.8568,-59.5397"/>
</g>
<!-- Node12 -->
<g id="node13" class="node">
<title>Node12</title>
<g id="a_node13"><a xlink:href="test__sieve_8cpp.html" target="_top" xlink:title="tests/test_sieve.cpp">
<polygon fill="#ffffff" stroke="#000000" points="591,-.5 591,-19.5 696,-19.5 696,-.5 591,-.5"/>
<text text-anchor="middle" x="643.5" y="-7.5" font-family="Helvetica,sans-Serif" font-size="10.00" fill="#000000">tests/test_sieve.cpp</text>
</a>
</g>
</g>
<!-- Node10&#45;&gt;Node12 -->
<g id="edge16" class="edge">
<title>Node10&#45;&gt;Node12</title>
<path fill="none" stroke="#191970" d="M617.5785,-53.0857C624.1686,-42.132 632.2647,-28.6748 637.6372,-19.7449"/>
<polygon fill="#191970" stroke="#191970" points="614.4374,-51.5175 612.2813,-61.8906 620.4356,-55.1262 614.4374,-51.5175"/>
</g>
</g>
</svg>
