<?xml version="1.0" encoding="UTF-8" standalone="no"?>
<!DOCTYPE svg PUBLIC "-//W3C//DTD SVG 1.1//EN"
 "http://www.w3.org/Graphics/SVG/1.1/DTD/svg11.dtd">
<!-- Generated by graphviz version 2.38.0 (20140413.2041)
 -->
<!-- Title: fplll/sieve/sampler_basic.h Pages: 1 -->
<svg width="679pt" height="352pt"
 viewBox="0.00 0.00 679.00 352.00" xmlns="http://www.w3.org/2000/svg" xmlns:xlink="http://www.w3.org/1999/xlink">
<g id="graph0" class="graph" transform="scale(1 1) rotate(0) translate(4 348)">
<title>fplll/sieve/sampler_basic.h</title>
<polygon fill="white" stroke="none" points="-4,4 -4,-348 675,-348 675,4 -4,4"/>
<!-- Node1 -->
<g id="node1" class="node"><title>Node1</title>
<polygon fill="#bfbfbf" stroke="black" points="113,-313.5 113,-343.5 208,-343.5 208,-313.5 113,-313.5"/>
<text text-anchor="start" x="121" y="-331.5" font-family="Helvetica,sans-Serif" font-size="10.00">fplll/sieve/sampler</text>
<text text-anchor="middle" x="160.5" y="-320.5" font-family="Helvetica,sans-Serif" font-size="10.00">_basic.h</text>
</g>
<!-- Node2 -->
<g id="node2" class="node"><title>Node2</title>
<g id="a_node2"><a xlink:href="sampler__basic_8cpp.html" target="_top" xlink:title="fplll/sieve/sampler\l_basic.cpp">
<polygon fill="white" stroke="black" points="0,-246.5 0,-276.5 95,-276.5 95,-246.5 0,-246.5"/>
<text text-anchor="start" x="8" y="-264.5" font-family="Helvetica,sans-Serif" font-size="10.00">fplll/sieve/sampler</text>
<text text-anchor="middle" x="47.5" y="-253.5" font-family="Helvetica,sans-Serif" font-size="10.00">_basic.cpp</text>
</a>
</g>
</g>
<!-- Node1&#45;&gt;Node2 -->
<g id="edge1" class="edge"><title>Node1&#45;&gt;Node2</title>
<path fill="none" stroke="midnightblue" d="M127.114,-308.296C109.432,-298.125 88.1016,-285.855 71.9715,-276.577"/>
<polygon fill="midnightblue" stroke="midnightblue" points="125.567,-311.444 135.981,-313.396 129.058,-305.376 125.567,-311.444"/>
</g>
<!-- Node3 -->
<g id="node3" class="node"><title>Node3</title>
<g id="a_node3"><a xlink:href="sampler__main_8cpp.html" target="_top" xlink:title="fplll/sieve/sampler\l_main.cpp">
<polygon fill="white" stroke="black" points="113,-246.5 113,-276.5 208,-276.5 208,-246.5 113,-246.5"/>
<text text-anchor="start" x="121" y="-264.5" font-family="Helvetica,sans-Serif" font-size="10.00">fplll/sieve/sampler</text>
<text text-anchor="middle" x="160.5" y="-253.5" font-family="Helvetica,sans-Serif" font-size="10.00">_main.cpp</text>
</a>
</g>
</g>
<!-- Node1&#45;&gt;Node3 -->
<g id="edge2" class="edge"><title>Node1&#45;&gt;Node3</title>
<path fill="none" stroke="midnightblue" d="M160.5,-303.108C160.5,-294.154 160.5,-284.323 160.5,-276.577"/>
<polygon fill="midnightblue" stroke="midnightblue" points="157,-303.396 160.5,-313.396 164,-303.396 157,-303.396"/>
</g>
<!-- Node4 -->
<g id="node4" class="node"><title>Node4</title>
<g id="a_node4"><a xlink:href="sieve__common_8h.html" target="_top" xlink:title="fplll/sieve/sieve_common.h">
<polygon fill="white" stroke="black" points="226,-252 226,-271 361,-271 361,-252 226,-252"/>
<text text-anchor="middle" x="293.5" y="-259" font-family="Helvetica,sans-Serif" font-size="10.00">fplll/sieve/sieve_common.h</text>
</a>
</g>
</g>
<!-- Node1&#45;&gt;Node4 -->
<g id="edge3" class="edge"><title>Node1&#45;&gt;Node4</title>
<path fill="none" stroke="midnightblue" d="M198.421,-308.967C223.97,-296.481 256.469,-280.598 276.093,-271.007"/>
<polygon fill="midnightblue" stroke="midnightblue" points="196.807,-305.86 189.359,-313.396 199.88,-312.15 196.807,-305.86"/>
</g>
<!-- Node5 -->
<g id="node5" class="node"><title>Node5</title>
<g id="a_node5"><a xlink:href="sieve__gauss__str_8h.html" target="_top" xlink:title="fplll/sieve/sieve_gauss\l_str.h">
<polygon fill="white" stroke="black" points="235.5,-179.5 235.5,-209.5 351.5,-209.5 351.5,-179.5 235.5,-179.5"/>
<text text-anchor="start" x="243.5" y="-197.5" font-family="Helvetica,sans-Serif" font-size="10.00">fplll/sieve/sieve_gauss</text>
<text text-anchor="middle" x="293.5" y="-186.5" font-family="Helvetica,sans-Serif" font-size="10.00">_str.h</text>
</a>
</g>
</g>
<!-- Node4&#45;&gt;Node5 -->
<g id="edge4" class="edge"><title>Node4&#45;&gt;Node5</title>
<path fill="none" stroke="midnightblue" d="M287.317,-241.739C286.419,-231.487 286.588,-219.001 287.824,-209.589"/>
<polygon fill="midnightblue" stroke="midnightblue" points="283.864,-242.313 288.711,-251.734 290.797,-241.346 283.864,-242.313"/>
</g>
<!-- Node6 -->
<g id="node6" class="node"><title>Node6</title>
<g id="a_node6"><a xlink:href="sieve__gauss_8h.html" target="_top" xlink:title="fplll/sieve/sieve_gauss.h">
<polygon fill="white" stroke="black" points="274.5,-123.5 274.5,-142.5 398.5,-142.5 398.5,-123.5 274.5,-123.5"/>
<text text-anchor="middle" x="336.5" y="-130.5" font-family="Helvetica,sans-Serif" font-size="10.00">fplll/sieve/sieve_gauss.h</text>
</a>
</g>
</g>
<!-- Node4&#45;&gt;Node6 -->
<g id="edge16" class="edge"><title>Node4&#45;&gt;Node6</title>
<path fill="none" stroke="midnightblue" d="M322.189,-246.933C336.505,-238.492 352.45,-226.147 360.5,-210 371.982,-186.967 354.11,-157.284 343.477,-142.773"/>
<polygon fill="midnightblue" stroke="midnightblue" points="320.195,-244.034 313.115,-251.917 323.565,-250.17 320.195,-244.034"/>
</g>
<!-- Node5&#45;&gt;Node4 -->
<g id="edge5" class="edge"><title>Node5&#45;&gt;Node4</title>
<path fill="none" stroke="midnightblue" d="M300.051,-219.714C300.6,-230.923 300.013,-243.541 298.289,-251.734"/>
<polygon fill="midnightblue" stroke="midnightblue" points="303.524,-219.251 299.176,-209.589 296.55,-219.853 303.524,-219.251"/>
</g>
<!-- Node5&#45;&gt;Node6 -->
<g id="edge6" class="edge"><title>Node5&#45;&gt;Node6</title>
<path fill="none" stroke="midnightblue" d="M309.685,-171.104C316.852,-161.187 324.86,-150.106 330.243,-142.658"/>
<polygon fill="midnightblue" stroke="midnightblue" points="306.711,-169.244 303.69,-179.399 312.385,-173.344 306.711,-169.244"/>
</g>
<!-- Node7 -->
<g id="node7" class="node"><title>Node7</title>
<g id="a_node7"><a xlink:href="sieve__gauss_8cpp.html" target="_top" xlink:title="fplll/sieve/sieve_gauss.cpp">
<polygon fill="white" stroke="black" points="202.5,-0.5 202.5,-19.5 336.5,-19.5 336.5,-0.5 202.5,-0.5"/>
<text text-anchor="middle" x="269.5" y="-7.5" font-family="Helvetica,sans-Serif" font-size="10.00">fplll/sieve/sieve_gauss.cpp</text>
</a>
</g>
</g>
<!-- Node6&#45;&gt;Node7 -->
<g id="edge7" class="edge"><title>Node6&#45;&gt;Node7</title>
<path fill="none" stroke="midnightblue" d="M264.384,-125.287C213.502,-118.884 151.637,-107.149 135.5,-87 107.58,-52.1379 173.111,-30.4179 222.05,-19.5294"/>
<polygon fill="midnightblue" stroke="midnightblue" points="264.05,-128.771 274.397,-126.497 264.89,-121.822 264.05,-128.771"/>
</g>
<!-- Node8 -->
<g id="node8" class="node"><title>Node8</title>
<g id="a_node8"><a xlink:href="sieve__gauss__2sieve_8cpp.html" target="_top" xlink:title="fplll/sieve/sieve_gauss\l_2sieve.cpp">
<polygon fill="white" stroke="black" points="144.5,-56.5 144.5,-86.5 260.5,-86.5 260.5,-56.5 144.5,-56.5"/>
<text text-anchor="start" x="152.5" y="-74.5" font-family="Helvetica,sans-Serif" font-size="10.00">fplll/sieve/sieve_gauss</text>
<text text-anchor="middle" x="202.5" y="-63.5" font-family="Helvetica,sans-Serif" font-size="10.00">_2sieve.cpp</text>
</a>
</g>
</g>
<!-- Node6&#45;&gt;Node8 -->
<g id="edge8" class="edge"><title>Node6&#45;&gt;Node8</title>
<path fill="none" stroke="midnightblue" d="M307.967,-119.331C286.287,-109.704 256.478,-96.468 234.081,-86.523"/>
<polygon fill="midnightblue" stroke="midnightblue" points="306.741,-122.616 317.301,-123.475 309.582,-116.218 306.741,-122.616"/>
</g>
<!-- Node9 -->
<g id="node9" class="node"><title>Node9</title>
<g id="a_node9"><a xlink:href="sieve__gauss__3sieve_8cpp.html" target="_top" xlink:title="fplll/sieve/sieve_gauss\l_3sieve.cpp">
<polygon fill="white" stroke="black" points="278.5,-56.5 278.5,-86.5 394.5,-86.5 394.5,-56.5 278.5,-56.5"/>
<text text-anchor="start" x="286.5" y="-74.5" font-family="Helvetica,sans-Serif" font-size="10.00">fplll/sieve/sieve_gauss</text>
<text text-anchor="middle" x="336.5" y="-63.5" font-family="Helvetica,sans-Serif" font-size="10.00">_3sieve.cpp</text>
</a>
</g>
</g>
<!-- Node6&#45;&gt;Node9 -->
<g id="edge10" class="edge"><title>Node6&#45;&gt;Node9</title>
<path fill="none" stroke="midnightblue" d="M336.5,-113.235C336.5,-104.586 336.5,-94.4969 336.5,-86.523"/>
<polygon fill="midnightblue" stroke="midnightblue" points="333,-113.475 336.5,-123.475 340,-113.475 333,-113.475"/>
</g>
<!-- Node10 -->
<g id="node10" class="node"><title>Node10</title>
<g id="a_node10"><a xlink:href="sieve__gauss__4sieve_8cpp.html" target="_top" xlink:title="fplll/sieve/sieve_gauss\l_4sieve.cpp">
<polygon fill="white" stroke="black" points="412.5,-56.5 412.5,-86.5 528.5,-86.5 528.5,-56.5 412.5,-56.5"/>
<text text-anchor="start" x="420.5" y="-74.5" font-family="Helvetica,sans-Serif" font-size="10.00">fplll/sieve/sieve_gauss</text>
<text text-anchor="middle" x="470.5" y="-63.5" font-family="Helvetica,sans-Serif" font-size="10.00">_4sieve.cpp</text>
</a>
</g>
</g>
<!-- Node6&#45;&gt;Node10 -->
<g id="edge12" class="edge"><title>Node6&#45;&gt;Node10</title>
<path fill="none" stroke="midnightblue" d="M365.033,-119.331C386.713,-109.704 416.522,-96.468 438.919,-86.523"/>
<polygon fill="midnightblue" stroke="midnightblue" points="363.418,-116.218 355.699,-123.475 366.259,-122.616 363.418,-116.218"/>
</g>
<!-- Node11 -->
<g id="node11" class="node"><title>Node11</title>
<g id="a_node11"><a xlink:href="sieve__main_8h.html" target="_top" xlink:title="fplll/sieve/sieve_main.h">
<polygon fill="white" stroke="black" points="547,-62 547,-81 666,-81 666,-62 547,-62"/>
<text text-anchor="middle" x="606.5" y="-69" font-family="Helvetica,sans-Serif" font-size="10.00">fplll/sieve/sieve_main.h</text>
</a>
</g>
</g>
<!-- Node6&#45;&gt;Node11 -->
<g id="edge14" class="edge"><title>Node6&#45;&gt;Node11</title>
<path fill="none" stroke="midnightblue" d="M385.243,-121.258C437.62,-109.716 519.802,-91.6056 567.887,-81.0091"/>
<polygon fill="midnightblue" stroke="midnightblue" points="384.197,-117.905 375.184,-123.475 385.703,-124.741 384.197,-117.905"/>
</g>
<!-- Node8&#45;&gt;Node7 -->
<g id="edge9" class="edge"><title>Node8&#45;&gt;Node7</title>
<path fill="none" stroke="midnightblue" d="M226.038,-49.5972C237.616,-39.3153 250.94,-27.4824 259.751,-19.6578"/>
<polygon fill="midnightblue" stroke="midnightblue" points="223.531,-47.1421 218.378,-56.3993 228.179,-52.3761 223.531,-47.1421"/>
</g>
<!-- Node9&#45;&gt;Node7 -->
<g id="edge11" class="edge"><title>Node9&#45;&gt;Node7</title>
<path fill="none" stroke="midnightblue" d="M312.962,-49.5972C301.384,-39.3153 288.06,-27.4824 279.249,-19.6578"/>
<polygon fill="midnightblue" stroke="midnightblue" points="310.821,-52.3761 320.622,-56.3993 315.469,-47.1421 310.821,-52.3761"/>
</g>
<!-- Node10&#45;&gt;Node7 -->
<g id="edge13" class="edge"><title>Node10&#45;&gt;Node7</title>
<path fill="none" stroke="midnightblue" d="M413.302,-53.5681C375.709,-42.44 328.122,-28.3534 298.236,-19.5064"/>
<polygon fill="midnightblue" stroke="midnightblue" points="412.538,-56.9922 423.12,-56.4747 414.525,-50.2801 412.538,-56.9922"/>
</g>
<!-- Node12 -->
<g id="node12" class="node"><title>Node12</title>
<g id="a_node12"><a xlink:href="sieve__main_8cpp.html" target="_top" xlink:title="fplll/sieve/sieve_main.cpp">
<polygon fill="white" stroke="black" points="542,-0.5 542,-19.5 671,-19.5 671,-0.5 542,-0.5"/>
<text text-anchor="middle" x="606.5" y="-7.5" font-family="Helvetica,sans-Serif" font-size="10.00">fplll/sieve/sieve_main.cpp</text>
</a>
</g>
</g>
<!-- Node11&#45;&gt;Node12 -->
<g id="edge15" class="edge"><title>Node11&#45;&gt;Node12</title>
<path fill="none" stroke="midnightblue" d="M606.5,-51.8165C606.5,-40.9962 606.5,-27.898 606.5,-19.5091"/>
<polygon fill="midnightblue" stroke="midnightblue" points="603,-51.9751 606.5,-61.9751 610,-51.9751 603,-51.9751"/>
</g>
</g>
</svg>
