<?xml version="1.0" encoding="UTF-8" standalone="no"?>
<!DOCTYPE svg PUBLIC "-//W3C//DTD SVG 1.1//EN"
 "http://www.w3.org/Graphics/SVG/1.1/DTD/svg11.dtd">
<!-- Generated by graphviz version 2.38.0 (20140413.2041)
 -->
<!-- Title: fplll/sieve/sieve_gauss_str.h Pages: 1 -->
<svg width="606pt" height="274pt"
 viewBox="0.00 0.00 605.59 274.00" xmlns="http://www.w3.org/2000/svg" xmlns:xlink="http://www.w3.org/1999/xlink">
<g id="graph0" class="graph" transform="scale(1 1) rotate(0) translate(4 270)">
<title>fplll/sieve/sieve_gauss_str.h</title>
<polygon fill="white" stroke="none" points="-4,4 -4,-270 601.589,-270 601.589,4 -4,4"/>
<!-- Node0 -->
<g id="node1" class="node"><title>Node0</title>
<polygon fill="#bfbfbf" stroke="black" points="102.089,-235.5 102.089,-265.5 218.089,-265.5 218.089,-235.5 102.089,-235.5"/>
<text text-anchor="start" x="110.089" y="-253.5" font-family="Helvetica,sans-Serif" font-size="10.00">fplll/sieve/sieve_gauss</text>
<text text-anchor="middle" x="160.089" y="-242.5" font-family="Helvetica,sans-Serif" font-size="10.00">_str.h</text>
</g>
<!-- Node1 -->
<g id="node2" class="node"><title>Node1</title>
<g id="a_node2"><a xlink:href="sieve__common_8h.html" target="_top" xlink:title="fplll/sieve/sieve_common.h">
<polygon fill="white" stroke="black" points="92.5891,-179.5 92.5891,-198.5 227.589,-198.5 227.589,-179.5 92.5891,-179.5"/>
<text text-anchor="middle" x="160.089" y="-186.5" font-family="Helvetica,sans-Serif" font-size="10.00">fplll/sieve/sieve_common.h</text>
</a>
</g>
</g>
<!-- Node0&#45;&gt;Node1 -->
<g id="edge1" class="edge"><title>Node0&#45;&gt;Node1</title>
<path fill="none" stroke="midnightblue" d="M153.444,-225.289C153.083,-215.857 153.654,-205.655 155.16,-198.658"/>
<polygon fill="midnightblue" stroke="midnightblue" points="149.966,-225.709 154.249,-235.399 156.944,-225.153 149.966,-225.709"/>
</g>
<!-- Node2 -->
<g id="node3" class="node"><title>Node2</title>
<g id="a_node3"><a xlink:href="sieve__gauss_8h.html" target="_top" xlink:title="fplll/sieve/sieve_gauss.h">
<polygon fill="white" stroke="black" points="146.089,-123.5 146.089,-142.5 270.089,-142.5 270.089,-123.5 146.089,-123.5"/>
<text text-anchor="middle" x="208.089" y="-130.5" font-family="Helvetica,sans-Serif" font-size="10.00">fplll/sieve/sieve_gauss.h</text>
</a>
</g>
</g>
<!-- Node0&#45;&gt;Node2 -->
<g id="edge14" class="edge"><title>Node0&#45;&gt;Node2</title>
<path fill="none" stroke="midnightblue" d="M203.996,-230.455C216.662,-222.651 228.973,-212.272 236.089,-199 246.54,-179.508 228.452,-155.292 216.79,-142.631"/>
<polygon fill="midnightblue" stroke="midnightblue" points="202.185,-227.459 195.229,-235.451 205.651,-233.54 202.185,-227.459"/>
</g>
<!-- Node1&#45;&gt;Node0 -->
<g id="edge2" class="edge"><title>Node1&#45;&gt;Node0</title>
<path fill="none" stroke="midnightblue" d="M166.396,-208.569C167.115,-217.233 166.959,-227.377 165.929,-235.399"/>
<polygon fill="midnightblue" stroke="midnightblue" points="169.862,-208.081 165.018,-198.658 162.929,-209.044 169.862,-208.081"/>
</g>
<!-- Node1&#45;&gt;Node2 -->
<g id="edge3" class="edge"><title>Node1&#45;&gt;Node2</title>
<path fill="none" stroke="midnightblue" d="M174.817,-171.431C183.229,-161.967 193.438,-150.483 200.31,-142.751"/>
<polygon fill="midnightblue" stroke="midnightblue" points="172.043,-169.284 168.015,-179.083 177.275,-173.934 172.043,-169.284"/>
</g>
<!-- Node3 -->
<g id="node4" class="node"><title>Node3</title>
<g id="a_node4"><a xlink:href="sieve__gauss_8cpp.html" target="_top" xlink:title="fplll/sieve/sieve_gauss.cpp">
<polygon fill="white" stroke="black" points="74.0891,-0.5 74.0891,-19.5 208.089,-19.5 208.089,-0.5 74.0891,-0.5"/>
<text text-anchor="middle" x="141.089" y="-7.5" font-family="Helvetica,sans-Serif" font-size="10.00">fplll/sieve/sieve_gauss.cpp</text>
</a>
</g>
</g>
<!-- Node2&#45;&gt;Node3 -->
<g id="edge4" class="edge"><title>Node2&#45;&gt;Node3</title>
<path fill="none" stroke="midnightblue" d="M135.973,-125.287C85.0907,-118.884 23.2257,-107.149 7.08908,-87 -20.8311,-52.1379 44.6998,-30.4179 93.6389,-19.5294"/>
<polygon fill="midnightblue" stroke="midnightblue" points="135.639,-128.771 145.987,-126.497 136.479,-121.822 135.639,-128.771"/>
</g>
<!-- Node4 -->
<g id="node5" class="node"><title>Node4</title>
<g id="a_node5"><a xlink:href="sieve__gauss__2sieve_8cpp.html" target="_top" xlink:title="fplll/sieve/sieve_gauss\l_2sieve.cpp">
<polygon fill="white" stroke="black" points="16.0891,-56.5 16.0891,-86.5 132.089,-86.5 132.089,-56.5 16.0891,-56.5"/>
<text text-anchor="start" x="24.0891" y="-74.5" font-family="Helvetica,sans-Serif" font-size="10.00">fplll/sieve/sieve_gauss</text>
<text text-anchor="middle" x="74.0891" y="-63.5" font-family="Helvetica,sans-Serif" font-size="10.00">_2sieve.cpp</text>
</a>
</g>
</g>
<!-- Node2&#45;&gt;Node4 -->
<g id="edge5" class="edge"><title>Node2&#45;&gt;Node4</title>
<path fill="none" stroke="midnightblue" d="M179.556,-119.331C157.876,-109.704 128.067,-96.468 105.67,-86.523"/>
<polygon fill="midnightblue" stroke="midnightblue" points="178.33,-122.616 188.89,-123.475 181.171,-116.218 178.33,-122.616"/>
</g>
<!-- Node5 -->
<g id="node6" class="node"><title>Node5</title>
<g id="a_node6"><a xlink:href="sieve__gauss__3sieve_8cpp.html" target="_top" xlink:title="fplll/sieve/sieve_gauss\l_3sieve.cpp">
<polygon fill="white" stroke="black" points="150.089,-56.5 150.089,-86.5 266.089,-86.5 266.089,-56.5 150.089,-56.5"/>
<text text-anchor="start" x="158.089" y="-74.5" font-family="Helvetica,sans-Serif" font-size="10.00">fplll/sieve/sieve_gauss</text>
<text text-anchor="middle" x="208.089" y="-63.5" font-family="Helvetica,sans-Serif" font-size="10.00">_3sieve.cpp</text>
</a>
</g>
</g>
<!-- Node2&#45;&gt;Node5 -->
<g id="edge7" class="edge"><title>Node2&#45;&gt;Node5</title>
<path fill="none" stroke="midnightblue" d="M208.089,-113.235C208.089,-104.586 208.089,-94.4969 208.089,-86.523"/>
<polygon fill="midnightblue" stroke="midnightblue" points="204.589,-113.475 208.089,-123.475 211.589,-113.475 204.589,-113.475"/>
</g>
<!-- Node6 -->
<g id="node7" class="node"><title>Node6</title>
<g id="a_node7"><a xlink:href="sieve__gauss__4sieve_8cpp.html" target="_top" xlink:title="fplll/sieve/sieve_gauss\l_4sieve.cpp">
<polygon fill="white" stroke="black" points="284.089,-56.5 284.089,-86.5 400.089,-86.5 400.089,-56.5 284.089,-56.5"/>
<text text-anchor="start" x="292.089" y="-74.5" font-family="Helvetica,sans-Serif" font-size="10.00">fplll/sieve/sieve_gauss</text>
<text text-anchor="middle" x="342.089" y="-63.5" font-family="Helvetica,sans-Serif" font-size="10.00">_4sieve.cpp</text>
</a>
</g>
</g>
<!-- Node2&#45;&gt;Node6 -->
<g id="edge9" class="edge"><title>Node2&#45;&gt;Node6</title>
<path fill="none" stroke="midnightblue" d="M236.622,-119.331C258.303,-109.704 288.111,-96.468 310.508,-86.523"/>
<polygon fill="midnightblue" stroke="midnightblue" points="235.007,-116.218 227.288,-123.475 237.848,-122.616 235.007,-116.218"/>
</g>
<!-- Node7 -->
<g id="node8" class="node"><title>Node7</title>
<g id="a_node8"><a xlink:href="sieve__main_8h.html" target="_top" xlink:title="fplll/sieve/sieve_main.h">
<polygon fill="white" stroke="black" points="418.589,-62 418.589,-81 537.589,-81 537.589,-62 418.589,-62"/>
<text text-anchor="middle" x="478.089" y="-69" font-family="Helvetica,sans-Serif" font-size="10.00">fplll/sieve/sieve_main.h</text>
</a>
</g>
</g>
<!-- Node2&#45;&gt;Node7 -->
<g id="edge11" class="edge"><title>Node2&#45;&gt;Node7</title>
<path fill="none" stroke="midnightblue" d="M256.833,-121.258C309.21,-109.716 391.391,-91.6056 439.476,-81.0091"/>
<polygon fill="midnightblue" stroke="midnightblue" points="255.786,-117.905 246.773,-123.475 257.292,-124.741 255.786,-117.905"/>
</g>
<!-- Node4&#45;&gt;Node3 -->
<g id="edge6" class="edge"><title>Node4&#45;&gt;Node3</title>
<path fill="none" stroke="midnightblue" d="M97.6267,-49.5972C109.205,-39.3153 122.529,-27.4824 131.34,-19.6578"/>
<polygon fill="midnightblue" stroke="midnightblue" points="95.1203,-47.1421 89.9671,-56.3993 99.7684,-52.3761 95.1203,-47.1421"/>
</g>
<!-- Node5&#45;&gt;Node3 -->
<g id="edge8" class="edge"><title>Node5&#45;&gt;Node3</title>
<path fill="none" stroke="midnightblue" d="M184.551,-49.5972C172.974,-39.3153 159.649,-27.4824 150.838,-19.6578"/>
<polygon fill="midnightblue" stroke="midnightblue" points="182.41,-52.3761 192.211,-56.3993 187.058,-47.1421 182.41,-52.3761"/>
</g>
<!-- Node6&#45;&gt;Node3 -->
<g id="edge10" class="edge"><title>Node6&#45;&gt;Node3</title>
<path fill="none" stroke="midnightblue" d="M284.891,-53.5681C247.298,-42.44 199.711,-28.3534 169.825,-19.5064"/>
<polygon fill="midnightblue" stroke="midnightblue" points="284.127,-56.9922 294.709,-56.4747 286.114,-50.2801 284.127,-56.9922"/>
</g>
<!-- Node8 -->
<g id="node9" class="node"><title>Node8</title>
<g id="a_node9"><a xlink:href="sieve__main_8cpp.html" target="_top" xlink:title="fplll/sieve/sieve_main.cpp">
<polygon fill="white" stroke="black" points="345.589,-0.5 345.589,-19.5 474.589,-19.5 474.589,-0.5 345.589,-0.5"/>
<text text-anchor="middle" x="410.089" y="-7.5" font-family="Helvetica,sans-Serif" font-size="10.00">fplll/sieve/sieve_main.cpp</text>
</a>
</g>
</g>
<!-- Node7&#45;&gt;Node8 -->
<g id="edge12" class="edge"><title>Node7&#45;&gt;Node8</title>
<path fill="none" stroke="midnightblue" d="M460.546,-55.1496C447.581,-43.8058 430.41,-28.7811 419.814,-19.5091"/>
<polygon fill="midnightblue" stroke="midnightblue" points="458.516,-58.024 468.346,-61.9751 463.125,-52.756 458.516,-58.024"/>
</g>
<!-- Node9 -->
<g id="node10" class="node"><title>Node9</title>
<g id="a_node10"><a xlink:href="test__sieve_8cpp.html" target="_top" xlink:title="tests/test_sieve.cpp">
<polygon fill="white" stroke="black" points="492.589,-0.5 492.589,-19.5 597.589,-19.5 597.589,-0.5 492.589,-0.5"/>
<text text-anchor="middle" x="545.089" y="-7.5" font-family="Helvetica,sans-Serif" font-size="10.00">tests/test_sieve.cpp</text>
</a>
</g>
</g>
<!-- Node7&#45;&gt;Node9 -->
<g id="edge13" class="edge"><title>Node7&#45;&gt;Node9</title>
<path fill="none" stroke="midnightblue" d="M495.374,-55.1496C508.148,-43.8058 525.067,-28.7811 535.507,-19.5091"/>
<polygon fill="midnightblue" stroke="midnightblue" points="492.842,-52.7179 487.689,-61.9751 497.49,-57.9519 492.842,-52.7179"/>
</g>
</g>
</svg>
