<?xml version="1.0" encoding="UTF-8" standalone="no"?>
<!DOCTYPE svg PUBLIC "-//W3C//DTD SVG 1.1//EN"
 "http://www.w3.org/Graphics/SVG/1.1/DTD/svg11.dtd">
<!-- Generated by graphviz version 2.40.1 (20161225.0304)
 -->
<!-- Title: fplll/sieve/sieve_common.h Pages: 1 -->
<svg width="577pt" height="274pt"
 viewBox="0.00 0.00 576.56 274.00" xmlns="http://www.w3.org/2000/svg" xmlns:xlink="http://www.w3.org/1999/xlink">
<g id="graph0" class="graph" transform="scale(1 1) rotate(0) translate(4 270)">
<title>fplll/sieve/sieve_common.h</title>
<polygon fill="#ffffff" stroke="transparent" points="-4,4 -4,-270 572.5609,-270 572.5609,4 -4,4"/>
<!-- Node0 -->
<g id="node1" class="node">
<title>Node0</title>
<polygon fill="#bfbfbf" stroke="#000000" points="98.5609,-246.5 98.5609,-265.5 233.5609,-265.5 233.5609,-246.5 98.5609,-246.5"/>
<text text-anchor="middle" x="166.0609" y="-253.5" font-family="Helvetica,sans-Serif" font-size="10.00" fill="#000000">fplll/sieve/sieve_common.h</text>
</g>
<!-- Node1 -->
<g id="node2" class="node">
<title>Node1</title>
<g id="a_node2"><a xlink:href="sieve__gauss__str_8h.html" target="_top" xlink:title="fplll/sieve/sieve_gauss\l_str.h">
<polygon fill="#ffffff" stroke="#000000" points="108.0609,-179.5 108.0609,-209.5 224.0609,-209.5 224.0609,-179.5 108.0609,-179.5"/>
<text text-anchor="start" x="116.0609" y="-197.5" font-family="Helvetica,sans-Serif" font-size="10.00" fill="#000000">fplll/sieve/sieve_gauss</text>
<text text-anchor="middle" x="166.0609" y="-186.5" font-family="Helvetica,sans-Serif" font-size="10.00" fill="#000000">_str.h</text>
</a>
</g>
</g>
<!-- Node0&#45;&gt;Node1 -->
<g id="edge1" class="edge">
<title>Node0&#45;&gt;Node1</title>
<path fill="none" stroke="#191970" d="M159.7195,-236.3693C159.0536,-227.681 159.2017,-217.6241 160.1639,-209.5446"/>
<polygon fill="#191970" stroke="#191970" points="156.2606,-236.9142 160.9984,-246.3906 163.2043,-236.028 156.2606,-236.9142"/>
</g>
<!-- Node2 -->
<g id="node3" class="node">
<title>Node2</title>
<g id="a_node3"><a xlink:href="sieve__gauss_8h.html" target="_top" xlink:title="fplll/sieve/sieve_gauss.h">
<polygon fill="#ffffff" stroke="#000000" points="147.0609,-123.5 147.0609,-142.5 271.0609,-142.5 271.0609,-123.5 147.0609,-123.5"/>
<text text-anchor="middle" x="209.0609" y="-130.5" font-family="Helvetica,sans-Serif" font-size="10.00" fill="#000000">fplll/sieve/sieve_gauss.h</text>
</a>
</g>
</g>
<!-- Node0&#45;&gt;Node2 -->
<g id="edge14" class="edge">
<title>Node0&#45;&gt;Node2</title>
<path fill="none" stroke="#191970" d="M199.7242,-241.4672C212.5808,-234.0514 225.868,-223.6635 233.0609,-210 244.9975,-187.3257 227.6045,-157.7214 216.7144,-142.6815"/>
<polygon fill="#191970" stroke="#191970" points="197.7241,-238.5664 190.5321,-246.3462 201.0059,-244.7494 197.7241,-238.5664"/>
</g>
<!-- Node1&#45;&gt;Node0 -->
<g id="edge2" class="edge">
<title>Node1&#45;&gt;Node0</title>
<path fill="none" stroke="#191970" d="M172.7112,-219.671C173.0512,-229.0862 172.5219,-239.2234 171.1234,-246.3906"/>
<polygon fill="#191970" stroke="#191970" points="176.1902,-219.2574 171.958,-209.5446 169.2095,-219.7767 176.1902,-219.2574"/>
</g>
<!-- Node1&#45;&gt;Node2 -->
<g id="edge3" class="edge">
<title>Node1&#45;&gt;Node2</title>
<path fill="none" stroke="#191970" d="M182.4393,-171.0751C189.2826,-161.2877 196.8608,-150.449 202.1761,-142.8469"/>
<polygon fill="#191970" stroke="#191970" points="179.5519,-169.0967 176.6901,-179.2977 185.2888,-173.1079 179.5519,-169.0967"/>
</g>
<!-- Node3 -->
<g id="node4" class="node">
<title>Node3</title>
<g id="a_node4"><a xlink:href="sieve__gauss_8cpp.html" target="_top" xlink:title="fplll/sieve/sieve_gauss.cpp">
<polygon fill="#ffffff" stroke="#000000" points="105.0609,-.5 105.0609,-19.5 239.0609,-19.5 239.0609,-.5 105.0609,-.5"/>
<text text-anchor="middle" x="172.0609" y="-7.5" font-family="Helvetica,sans-Serif" font-size="10.00" fill="#000000">fplll/sieve/sieve_gauss.cpp</text>
</a>
</g>
</g>
<!-- Node2&#45;&gt;Node3 -->
<g id="edge4" class="edge">
<title>Node2&#45;&gt;Node3</title>
<path fill="none" stroke="#191970" d="M136.9277,-125.916C86.036,-119.2539 24.1671,-107.2085 8.0609,-87 -22.9628,-48.0742 47.0378,-27.8497 105.0185,-18.0801"/>
<polygon fill="#191970" stroke="#191970" points="136.5839,-129.4003 146.9429,-127.1775 137.4588,-122.4552 136.5839,-129.4003"/>
</g>
<!-- Node4 -->
<g id="node5" class="node">
<title>Node4</title>
<g id="a_node5"><a xlink:href="sieve__gauss__2sieve_8cpp.html" target="_top" xlink:title="fplll/sieve/sieve_gauss\l_2sieve.cpp">
<polygon fill="#ffffff" stroke="#000000" points="17.0609,-56.5 17.0609,-86.5 133.0609,-86.5 133.0609,-56.5 17.0609,-56.5"/>
<text text-anchor="start" x="25.0609" y="-74.5" font-family="Helvetica,sans-Serif" font-size="10.00" fill="#000000">fplll/sieve/sieve_gauss</text>
<text text-anchor="middle" x="75.0609" y="-63.5" font-family="Helvetica,sans-Serif" font-size="10.00" fill="#000000">_2sieve.cpp</text>
</a>
</g>
</g>
<!-- Node2&#45;&gt;Node4 -->
<g id="edge5" class="edge">
<title>Node2&#45;&gt;Node4</title>
<path fill="none" stroke="#191970" d="M178.96,-119.185C157.8182,-109.4819 129.5528,-96.5093 107.841,-86.5446"/>
<polygon fill="#191970" stroke="#191970" points="177.575,-122.4003 188.1234,-123.3906 180.4949,-116.0384 177.575,-122.4003"/>
</g>
<!-- Node5 -->
<g id="node6" class="node">
<title>Node5</title>
<g id="a_node6"><a xlink:href="sieve__gauss__3sieve_8cpp.html" target="_top" xlink:title="fplll/sieve/sieve_gauss\l_3sieve.cpp">
<polygon fill="#ffffff" stroke="#000000" points="151.0609,-56.5 151.0609,-86.5 267.0609,-86.5 267.0609,-56.5 151.0609,-56.5"/>
<text text-anchor="start" x="159.0609" y="-74.5" font-family="Helvetica,sans-Serif" font-size="10.00" fill="#000000">fplll/sieve/sieve_gauss</text>
<text text-anchor="middle" x="209.0609" y="-63.5" font-family="Helvetica,sans-Serif" font-size="10.00" fill="#000000">_3sieve.cpp</text>
</a>
</g>
</g>
<!-- Node2&#45;&gt;Node5 -->
<g id="edge7" class="edge">
<title>Node2&#45;&gt;Node5</title>
<path fill="none" stroke="#191970" d="M209.0609,-113.3693C209.0609,-104.681 209.0609,-94.6241 209.0609,-86.5446"/>
<polygon fill="#191970" stroke="#191970" points="205.561,-113.3906 209.0609,-123.3906 212.561,-113.3907 205.561,-113.3906"/>
</g>
<!-- Node6 -->
<g id="node7" class="node">
<title>Node6</title>
<g id="a_node7"><a xlink:href="sieve__gauss__4sieve_8cpp.html" target="_top" xlink:title="fplll/sieve/sieve_gauss\l_4sieve.cpp">
<polygon fill="#ffffff" stroke="#000000" points="285.0609,-56.5 285.0609,-86.5 401.0609,-86.5 401.0609,-56.5 285.0609,-56.5"/>
<text text-anchor="start" x="293.0609" y="-74.5" font-family="Helvetica,sans-Serif" font-size="10.00" fill="#000000">fplll/sieve/sieve_gauss</text>
<text text-anchor="middle" x="343.0609" y="-63.5" font-family="Helvetica,sans-Serif" font-size="10.00" fill="#000000">_4sieve.cpp</text>
</a>
</g>
</g>
<!-- Node2&#45;&gt;Node6 -->
<g id="edge9" class="edge">
<title>Node2&#45;&gt;Node6</title>
<path fill="none" stroke="#191970" d="M239.1618,-119.185C260.3037,-109.4819 288.5691,-96.5093 310.2808,-86.5446"/>
<polygon fill="#191970" stroke="#191970" points="237.627,-116.0384 229.9984,-123.3906 240.5469,-122.4003 237.627,-116.0384"/>
</g>
<!-- Node7 -->
<g id="node8" class="node">
<title>Node7</title>
<g id="a_node8"><a xlink:href="sieve__main_8h.html" target="_top" xlink:title="fplll/sieve/sieve_main.h">
<polygon fill="#ffffff" stroke="#000000" points="419.5609,-62 419.5609,-81 538.5609,-81 538.5609,-62 419.5609,-62"/>
<text text-anchor="middle" x="479.0609" y="-69" font-family="Helvetica,sans-Serif" font-size="10.00" fill="#000000">fplll/sieve/sieve_main.h</text>
</a>
</g>
</g>
<!-- Node2&#45;&gt;Node7 -->
<g id="edge11" class="edge">
<title>Node2&#45;&gt;Node7</title>
<path fill="none" stroke="#191970" d="M260.8335,-121.2074C312.0716,-109.5365 389.5388,-91.8912 437.0714,-81.0643"/>
<polygon fill="#191970" stroke="#191970" points="259.9251,-117.8245 250.9522,-123.4581 261.4798,-124.6497 259.9251,-117.8245"/>
</g>
<!-- Node4&#45;&gt;Node3 -->
<g id="edge6" class="edge">
<title>Node4&#45;&gt;Node3</title>
<path fill="none" stroke="#191970" d="M107.9008,-50.6789C124.4605,-40.1797 143.7487,-27.9505 156.8197,-19.6633"/>
<polygon fill="#191970" stroke="#191970" points="105.6099,-47.9871 99.0385,-56.2977 109.3582,-53.899 105.6099,-47.9871"/>
</g>
<!-- Node5&#45;&gt;Node3 -->
<g id="edge8" class="edge">
<title>Node5&#45;&gt;Node3</title>
<path fill="none" stroke="#191970" d="M194.6103,-47.4806C188.8168,-37.8511 182.4663,-27.2954 177.9851,-19.8469"/>
<polygon fill="#191970" stroke="#191970" points="191.7605,-49.5333 199.9149,-56.2977 197.7587,-45.9246 191.7605,-49.5333"/>
</g>
<!-- Node6&#45;&gt;Node3 -->
<g id="edge10" class="edge">
<title>Node6&#45;&gt;Node3</title>
<path fill="none" stroke="#191970" d="M291.5494,-52.9739C260.9039,-41.9523 223.3001,-28.4281 198.5599,-19.5303"/>
<polygon fill="#191970" stroke="#191970" points="290.6352,-56.3645 301.2296,-56.4554 293.0042,-49.7776 290.6352,-56.3645"/>
</g>
<!-- Node8 -->
<g id="node9" class="node">
<title>Node8</title>
<g id="a_node9"><a xlink:href="sieve__main_8cpp.html" target="_top" xlink:title="fplll/sieve/sieve_main.cpp">
<polygon fill="#ffffff" stroke="#000000" points="316.5609,-.5 316.5609,-19.5 445.5609,-19.5 445.5609,-.5 316.5609,-.5"/>
<text text-anchor="middle" x="381.0609" y="-7.5" font-family="Helvetica,sans-Serif" font-size="10.00" fill="#000000">fplll/sieve/sieve_main.cpp</text>
</a>
</g>
</g>
<!-- Node7&#45;&gt;Node8 -->
<g id="edge12" class="edge">
<title>Node7&#45;&gt;Node8</title>
<path fill="none" stroke="#191970" d="M455.0693,-56.444C436.7187,-44.9281 411.9748,-29.4 396.2659,-19.5419"/>
<polygon fill="#191970" stroke="#191970" points="453.4177,-59.5397 463.7484,-61.8906 457.1386,-53.6105 453.4177,-59.5397"/>
</g>
<!-- Node9 -->
<g id="node10" class="node">
<title>Node9</title>
<g id="a_node10"><a xlink:href="test__sieve_8cpp.html" target="_top" xlink:title="tests/test_sieve.cpp">
<polygon fill="#ffffff" stroke="#000000" points="463.5609,-.5 463.5609,-19.5 568.5609,-19.5 568.5609,-.5 463.5609,-.5"/>
<text text-anchor="middle" x="516.0609" y="-7.5" font-family="Helvetica,sans-Serif" font-size="10.00" fill="#000000">tests/test_sieve.cpp</text>
</a>
</g>
</g>
<!-- Node7&#45;&gt;Node9 -->
<g id="edge13" class="edge">
<title>Node7&#45;&gt;Node9</title>
<path fill="none" stroke="#191970" d="M490.1394,-53.0857C496.7295,-42.132 504.8257,-28.6748 510.1982,-19.7449"/>
<polygon fill="#191970" stroke="#191970" points="486.9984,-51.5175 484.8422,-61.8906 492.9965,-55.1262 486.9984,-51.5175"/>
</g>
</g>
</svg>
