<?xml version="1.0" encoding="UTF-8" standalone="no"?>
<!DOCTYPE svg PUBLIC "-//W3C//DTD SVG 1.1//EN"
 "http://www.w3.org/Graphics/SVG/1.1/DTD/svg11.dtd">
<!-- Generated by graphviz version 2.40.1 (20161225.0304)
 -->
<!-- Title: fplll/sieve/sieve_main.h Pages: 1 -->
<svg width="260pt" height="84pt"
 viewBox="0.00 0.00 260.00 84.00" xmlns="http://www.w3.org/2000/svg" xmlns:xlink="http://www.w3.org/1999/xlink">
<g id="graph0" class="graph" transform="scale(1 1) rotate(0) translate(4 80)">
<title>fplll/sieve/sieve_main.h</title>
<polygon fill="#ffffff" stroke="transparent" points="-4,4 -4,-80 256,-80 256,4 -4,4"/>
<!-- Node0 -->
<g id="node1" class="node">
<title>Node0</title>
<polygon fill="#bfbfbf" stroke="#000000" points="72,-56.5 72,-75.5 191,-75.5 191,-56.5 72,-56.5"/>
<text text-anchor="middle" x="131.5" y="-63.5" font-family="Helvetica,sans-Serif" font-size="10.00" fill="#000000">fplll/sieve/sieve_main.h</text>
</g>
<!-- Node1 -->
<g id="node2" class="node">
<title>Node1</title>
<g id="a_node2"><a xlink:href="sieve__main_8cpp.html" target="_top" xlink:title="fplll/sieve/sieve_main.cpp">
<polygon fill="#ffffff" stroke="#000000" points="0,-.5 0,-19.5 129,-19.5 129,-.5 0,-.5"/>
<text text-anchor="middle" x="64.5" y="-7.5" font-family="Helvetica,sans-Serif" font-size="10.00" fill="#000000">fplll/sieve/sieve_main.cpp</text>
</a>
</g>
</g>
<!-- Node0&#45;&gt;Node1 -->
<g id="edge1" class="edge">
<title>Node0&#45;&gt;Node1</title>
<path fill="none" stroke="#191970" d="M111.9324,-49.645C100.2802,-39.9058 85.8916,-27.8795 76.0368,-19.6427"/>
<polygon fill="#191970" stroke="#191970" points="109.9121,-52.5179 119.8295,-56.2455 114.4012,-47.1469 109.9121,-52.5179"/>
</g>
<!-- Node2 -->
<g id="node3" class="node">
<title>Node2</title>
<g id="a_node3"><a xlink:href="test__sieve_8cpp.html" target="_top" xlink:title="tests/test_sieve.cpp">
<polygon fill="#ffffff" stroke="#000000" points="147,-.5 147,-19.5 252,-19.5 252,-.5 147,-.5"/>
<text text-anchor="middle" x="199.5" y="-7.5" font-family="Helvetica,sans-Serif" font-size="10.00" fill="#000000">tests/test_sieve.cpp</text>
</a>
</g>
</g>
<!-- Node0&#45;&gt;Node2 -->
<g id="edge2" class="edge">
<title>Node0&#45;&gt;Node2</title>
<path fill="none" stroke="#191970" d="M151.3596,-49.645C163.1858,-39.9058 177.7892,-27.8795 187.791,-19.6427"/>
<polygon fill="#191970" stroke="#191970" points="148.839,-47.1867 143.3447,-56.2455 153.289,-52.5902 148.839,-47.1867"/>
</g>
</g>
</svg>
