<?xml version="1.0" encoding="UTF-8" standalone="no"?>
<!DOCTYPE svg PUBLIC "-//W3C//DTD SVG 1.1//EN"
 "http://www.w3.org/Graphics/SVG/1.1/DTD/svg11.dtd">
<!-- Generated by graphviz version 2.40.1 (20161225.0304)
 -->
<!-- Title: fplll/svpcvp.h Pages: 1 -->
<svg width="1765pt" height="207pt"
 viewBox="0.00 0.00 1765.00 207.00" xmlns="http://www.w3.org/2000/svg" xmlns:xlink="http://www.w3.org/1999/xlink">
<g id="graph0" class="graph" transform="scale(1 1) rotate(0) translate(4 203)">
<title>fplll/svpcvp.h</title>
<polygon fill="#ffffff" stroke="transparent" points="-4,4 -4,-203 1761,-203 1761,4 -4,4"/>
<!-- Node0 -->
<g id="node1" class="node">
<title>Node0</title>
<polygon fill="#bfbfbf" stroke="#000000" points="415,-179.5 415,-198.5 489,-198.5 489,-179.5 415,-179.5"/>
<text text-anchor="middle" x="452" y="-186.5" font-family="Helvetica,sans-Serif" font-size="10.00" fill="#000000">fplll/svpcvp.h</text>
</g>
<!-- Node1 -->
<g id="node2" class="node">
<title>Node1</title>
<g id="a_node2"><a xlink:href="fplll_8h.html" target="_top" xlink:title="fplll/fplll.h">
<polygon fill="#ffffff" stroke="#000000" points="841,-123.5 841,-142.5 899,-142.5 899,-123.5 841,-123.5"/>
<text text-anchor="middle" x="870" y="-130.5" font-family="Helvetica,sans-Serif" font-size="10.00" fill="#000000">fplll/fplll.h</text>
</a>
</g>
</g>
<!-- Node0&#45;&gt;Node1 -->
<g id="edge1" class="edge">
<title>Node0&#45;&gt;Node1</title>
<path fill="none" stroke="#191970" d="M499.2242,-182.6733C586.3202,-171.005 769.8339,-146.4194 840.9674,-136.8895"/>
<polygon fill="#191970" stroke="#191970" points="498.5414,-179.2334 489.0947,-184.0304 499.4709,-186.1714 498.5414,-179.2334"/>
</g>
<!-- Node26 -->
<g id="node27" class="node">
<title>Node26</title>
<g id="a_node27"><a xlink:href="svpcvp_8cpp.html" target="_top" xlink:title="fplll/svpcvp.cpp">
<polygon fill="#ffffff" stroke="#000000" points="364.5,-123.5 364.5,-142.5 449.5,-142.5 449.5,-123.5 364.5,-123.5"/>
<text text-anchor="middle" x="407" y="-130.5" font-family="Helvetica,sans-Serif" font-size="10.00" fill="#000000">fplll/svpcvp.cpp</text>
</a>
</g>
</g>
<!-- Node0&#45;&gt;Node26 -->
<g id="edge40" class="edge">
<title>Node0&#45;&gt;Node26</title>
<path fill="none" stroke="#191970" d="M437.7054,-171.2112C430.1004,-161.7472 421.0462,-150.4797 414.7486,-142.6427"/>
<polygon fill="#191970" stroke="#191970" points="435.1694,-173.6428 444.1616,-179.2455 440.6259,-169.2581 435.1694,-173.6428"/>
</g>
<!-- Node2 -->
<g id="node3" class="node">
<title>Node2</title>
<g id="a_node3"><a xlink:href="fplll_8cpp.html" target="_top" xlink:title="fplll/fplll.cpp">
<polygon fill="#ffffff" stroke="#000000" points="0,-62 0,-81 68,-81 68,-62 0,-62"/>
<text text-anchor="middle" x="34" y="-69" font-family="Helvetica,sans-Serif" font-size="10.00" fill="#000000">fplll/fplll.cpp</text>
</a>
</g>
</g>
<!-- Node1&#45;&gt;Node2 -->
<g id="edge2" class="edge">
<title>Node1&#45;&gt;Node2</title>
<path fill="none" stroke="#191970" d="M830.5964,-132.0226C692.0822,-128.3806 228.04,-114.3795 82,-87 74.5118,-85.5961 66.5696,-83.3563 59.3467,-81.0108"/>
<polygon fill="#191970" stroke="#191970" points="830.6604,-135.5254 840.7479,-132.2862 830.8422,-128.5277 830.6604,-135.5254"/>
</g>
<!-- Node3 -->
<g id="node4" class="node">
<title>Node3</title>
<g id="a_node4"><a xlink:href="main_8h.html" target="_top" xlink:title="fplll/main.h">
<polygon fill="#ffffff" stroke="#000000" points="1688,-62 1688,-81 1752,-81 1752,-62 1688,-62"/>
<text text-anchor="middle" x="1720" y="-69" font-family="Helvetica,sans-Serif" font-size="10.00" fill="#000000">fplll/main.h</text>
</a>
</g>
</g>
<!-- Node1&#45;&gt;Node3 -->
<g id="edge3" class="edge">
<title>Node1&#45;&gt;Node3</title>
<path fill="none" stroke="#191970" d="M909.2678,-132.1437C1049.4531,-128.8705 1524.8334,-115.8548 1674,-87 1681.1156,-85.6236 1688.6416,-83.4227 1695.4994,-81.1066"/>
<polygon fill="#191970" stroke="#191970" points="908.9225,-128.6507 899.0057,-132.3798 909.0836,-135.6488 908.9225,-128.6507"/>
</g>
<!-- Node5 -->
<g id="node6" class="node">
<title>Node5</title>
<g id="a_node6"><a xlink:href="pruner_8cpp.html" target="_top" xlink:title="fplll/pruner/pruner.cpp">
<polygon fill="#ffffff" stroke="#000000" points="335,-.5 335,-19.5 445,-19.5 445,-.5 335,-.5"/>
<text text-anchor="middle" x="390" y="-7.5" font-family="Helvetica,sans-Serif" font-size="10.00" fill="#000000">fplll/pruner/pruner.cpp</text>
</a>
</g>
</g>
<!-- Node1&#45;&gt;Node5 -->
<g id="edge5" class="edge">
<title>Node1&#45;&gt;Node5</title>
<path fill="none" stroke="#191970" d="M830.31,-132.0732C678.2057,-128.3318 139.7162,-113.268 115,-87 105.5585,-76.9658 106.0975,-66.5153 115,-56 129.0359,-39.4213 258.5902,-23.4761 334.7657,-15.4268"/>
<polygon fill="#191970" stroke="#191970" points="830.4992,-135.5788 840.5814,-132.3231 830.6695,-128.5809 830.4992,-135.5788"/>
</g>
<!-- Node6 -->
<g id="node7" class="node">
<title>Node6</title>
<g id="a_node7"><a xlink:href="pruner__cost_8cpp.html" target="_top" xlink:title="fplll/pruner/pruner\l_cost.cpp">
<polygon fill="#ffffff" stroke="#000000" points="674,-56.5 674,-86.5 766,-86.5 766,-56.5 674,-56.5"/>
<text text-anchor="start" x="682" y="-74.5" font-family="Helvetica,sans-Serif" font-size="10.00" fill="#000000">fplll/pruner/pruner</text>
<text text-anchor="middle" x="720" y="-63.5" font-family="Helvetica,sans-Serif" font-size="10.00" fill="#000000">_cost.cpp</text>
</a>
</g>
</g>
<!-- Node1&#45;&gt;Node6 -->
<g id="edge6" class="edge">
<title>Node1&#45;&gt;Node6</title>
<path fill="none" stroke="#191970" d="M837.26,-119.5766C813.4952,-109.833 781.3268,-96.644 756.6941,-86.5446"/>
<polygon fill="#191970" stroke="#191970" points="835.9822,-122.8354 846.5625,-123.3906 838.6377,-116.3586 835.9822,-122.8354"/>
</g>
<!-- Node7 -->
<g id="node8" class="node">
<title>Node7</title>
<g id="a_node8"><a xlink:href="pruner__optimize_8cpp.html" target="_top" xlink:title="fplll/pruner/pruner\l_optimize.cpp">
<polygon fill="#ffffff" stroke="#000000" points="124,-56.5 124,-86.5 216,-86.5 216,-56.5 124,-56.5"/>
<text text-anchor="start" x="132" y="-74.5" font-family="Helvetica,sans-Serif" font-size="10.00" fill="#000000">fplll/pruner/pruner</text>
<text text-anchor="middle" x="170" y="-63.5" font-family="Helvetica,sans-Serif" font-size="10.00" fill="#000000">_optimize.cpp</text>
</a>
</g>
</g>
<!-- Node1&#45;&gt;Node7 -->
<g id="edge8" class="edge">
<title>Node1&#45;&gt;Node7</title>
<path fill="none" stroke="#191970" d="M830.3647,-131.2323C708.8082,-125.644 342.4129,-107.5109 225,-87 222.0682,-86.4878 219.0683,-85.8829 216.0564,-85.2139"/>
<polygon fill="#191970" stroke="#191970" points="830.5389,-134.7438 840.6882,-131.7037 830.8583,-127.7511 830.5389,-134.7438"/>
</g>
<!-- Node8 -->
<g id="node9" class="node">
<title>Node8</title>
<g id="a_node9"><a xlink:href="pruner__optimize__tc_8cpp.html" target="_top" xlink:title="fplll/pruner/pruner\l_optimize_tc.cpp">
<polygon fill="#ffffff" stroke="#000000" points="234,-56.5 234,-86.5 326,-86.5 326,-56.5 234,-56.5"/>
<text text-anchor="start" x="242" y="-74.5" font-family="Helvetica,sans-Serif" font-size="10.00" fill="#000000">fplll/pruner/pruner</text>
<text text-anchor="middle" x="280" y="-63.5" font-family="Helvetica,sans-Serif" font-size="10.00" fill="#000000">_optimize_tc.cpp</text>
</a>
</g>
</g>
<!-- Node1&#45;&gt;Node8 -->
<g id="edge10" class="edge">
<title>Node1&#45;&gt;Node8</title>
<path fill="none" stroke="#191970" d="M830.5637,-132.1528C741.5092,-129.6869 518.3146,-120.4016 335,-87 332.072,-86.4665 329.075,-85.8452 326.0653,-85.1639"/>
<polygon fill="#191970" stroke="#191970" points="830.6587,-135.6565 840.7473,-132.4209 830.8429,-128.6589 830.6587,-135.6565"/>
</g>
<!-- Node9 -->
<g id="node10" class="node">
<title>Node9</title>
<g id="a_node10"><a xlink:href="pruner__optimize__tp_8cpp.html" target="_top" xlink:title="fplll/pruner/pruner\l_optimize_tp.cpp">
<polygon fill="#ffffff" stroke="#000000" points="344,-56.5 344,-86.5 436,-86.5 436,-56.5 344,-56.5"/>
<text text-anchor="start" x="352" y="-74.5" font-family="Helvetica,sans-Serif" font-size="10.00" fill="#000000">fplll/pruner/pruner</text>
<text text-anchor="middle" x="390" y="-63.5" font-family="Helvetica,sans-Serif" font-size="10.00" fill="#000000">_optimize_tp.cpp</text>
</a>
</g>
</g>
<!-- Node1&#45;&gt;Node9 -->
<g id="edge12" class="edge">
<title>Node1&#45;&gt;Node9</title>
<path fill="none" stroke="#191970" d="M830.4514,-130.9282C754.9465,-126.4865 585.283,-114.1618 445,-87 442.0781,-86.4343 439.0857,-85.7883 436.0795,-85.0886"/>
<polygon fill="#191970" stroke="#191970" points="830.7095,-134.4487 840.8935,-131.5272 831.1104,-127.4602 830.7095,-134.4487"/>
</g>
<!-- Node10 -->
<g id="node11" class="node">
<title>Node10</title>
<g id="a_node11"><a xlink:href="pruner__prob_8cpp.html" target="_top" xlink:title="fplll/pruner/pruner\l_prob.cpp">
<polygon fill="#ffffff" stroke="#000000" points="454,-56.5 454,-86.5 546,-86.5 546,-56.5 454,-56.5"/>
<text text-anchor="start" x="462" y="-74.5" font-family="Helvetica,sans-Serif" font-size="10.00" fill="#000000">fplll/pruner/pruner</text>
<text text-anchor="middle" x="500" y="-63.5" font-family="Helvetica,sans-Serif" font-size="10.00" fill="#000000">_prob.cpp</text>
</a>
</g>
</g>
<!-- Node1&#45;&gt;Node10 -->
<g id="edge14" class="edge">
<title>Node1&#45;&gt;Node10</title>
<path fill="none" stroke="#191970" d="M830.5176,-128.8998C770.5656,-122.2998 653.1622,-107.9072 555,-87 552.0891,-86.38 549.1052,-85.6925 546.1053,-84.9618"/>
<polygon fill="#191970" stroke="#191970" points="830.3588,-132.4031 840.6784,-130.0041 831.1151,-125.4441 830.3588,-132.4031"/>
</g>
<!-- Node11 -->
<g id="node12" class="node">
<title>Node11</title>
<g id="a_node12"><a xlink:href="pruner__util_8cpp.html" target="_top" xlink:title="fplll/pruner/pruner\l_util.cpp">
<polygon fill="#ffffff" stroke="#000000" points="564,-56.5 564,-86.5 656,-86.5 656,-56.5 564,-56.5"/>
<text text-anchor="start" x="572" y="-74.5" font-family="Helvetica,sans-Serif" font-size="10.00" fill="#000000">fplll/pruner/pruner</text>
<text text-anchor="middle" x="610" y="-63.5" font-family="Helvetica,sans-Serif" font-size="10.00" fill="#000000">_util.cpp</text>
</a>
</g>
</g>
<!-- Node1&#45;&gt;Node11 -->
<g id="edge16" class="edge">
<title>Node1&#45;&gt;Node11</title>
<path fill="none" stroke="#191970" d="M830.7419,-124.8492C789.3686,-116.1055 722.3747,-101.5105 665,-87 662.1147,-86.2703 659.1503,-85.4987 656.165,-84.7052"/>
<polygon fill="#191970" stroke="#191970" points="830.1806,-128.3076 840.6871,-126.9425 831.6224,-121.4577 830.1806,-128.3076"/>
</g>
<!-- Node12 -->
<g id="node13" class="node">
<title>Node12</title>
<g id="a_node13"><a xlink:href="test__bkz_8cpp.html" target="_top" xlink:title="tests/test_bkz.cpp">
<polygon fill="#ffffff" stroke="#000000" points="558,-.5 558,-19.5 656,-19.5 656,-.5 558,-.5"/>
<text text-anchor="middle" x="607" y="-7.5" font-family="Helvetica,sans-Serif" font-size="10.00" fill="#000000">tests/test_bkz.cpp</text>
</a>
</g>
</g>
<!-- Node1&#45;&gt;Node12 -->
<g id="edge18" class="edge">
<title>Node1&#45;&gt;Node12</title>
<path fill="none" stroke="#191970" d="M847.6954,-117.4074C835.6776,-108.7704 820.7436,-97.6521 808,-87 792.5604,-74.0943 792.5553,-65.8361 775,-56 753.8948,-44.175 693.5461,-29.1625 651.2525,-19.566"/>
<polygon fill="#191970" stroke="#191970" points="845.6808,-120.2695 855.8577,-123.2159 849.7394,-114.5662 845.6808,-120.2695"/>
</g>
<!-- Node13 -->
<g id="node14" class="node">
<title>Node13</title>
<g id="a_node14"><a xlink:href="test__bkz__gram_8cpp.html" target="_top" xlink:title="tests/test_bkz_gram.cpp">
<polygon fill="#ffffff" stroke="#000000" points="674.5,-.5 674.5,-19.5 799.5,-19.5 799.5,-.5 674.5,-.5"/>
<text text-anchor="middle" x="737" y="-7.5" font-family="Helvetica,sans-Serif" font-size="10.00" fill="#000000">tests/test_bkz_gram.cpp</text>
</a>
</g>
</g>
<!-- Node1&#45;&gt;Node13 -->
<g id="edge19" class="edge">
<title>Node1&#45;&gt;Node13</title>
<path fill="none" stroke="#191970" d="M857.9436,-114.901C846.376,-98.3656 827.7862,-73.8462 808,-56 791.6404,-41.2444 770.0763,-27.9877 755.0233,-19.5393"/>
<polygon fill="#191970" stroke="#191970" points="855.0714,-116.9013 863.6106,-123.1729 860.8462,-112.945 855.0714,-116.9013"/>
</g>
<!-- Node14 -->
<g id="node15" class="node">
<title>Node14</title>
<g id="a_node15"><a xlink:href="test__counter_8cpp.html" target="_top" xlink:title="tests/test_counter.cpp">
<polygon fill="#ffffff" stroke="#000000" points="1120,-62 1120,-81 1234,-81 1234,-62 1120,-62"/>
<text text-anchor="middle" x="1177" y="-69" font-family="Helvetica,sans-Serif" font-size="10.00" fill="#000000">tests/test_counter.cpp</text>
</a>
</g>
</g>
<!-- Node1&#45;&gt;Node14 -->
<g id="edge20" class="edge">
<title>Node1&#45;&gt;Node14</title>
<path fill="none" stroke="#191970" d="M909.1373,-125.6499C955.9979,-116.7851 1036.8297,-101.2896 1106,-87 1115.0197,-85.1367 1124.6687,-83.0756 1133.8546,-81.0812"/>
<polygon fill="#191970" stroke="#191970" points="908.2845,-122.249 899.1077,-127.5441 909.5836,-129.1274 908.2845,-122.249"/>
</g>
<!-- Node15 -->
<g id="node16" class="node">
<title>Node15</title>
<g id="a_node16"><a xlink:href="test__cvp_8cpp.html" target="_top" xlink:title="tests/test_cvp.cpp">
<polygon fill="#ffffff" stroke="#000000" points="818,-.5 818,-19.5 916,-19.5 916,-.5 818,-.5"/>
<text text-anchor="middle" x="867" y="-7.5" font-family="Helvetica,sans-Serif" font-size="10.00" fill="#000000">tests/test_cvp.cpp</text>
</a>
</g>
</g>
<!-- Node1&#45;&gt;Node15 -->
<g id="edge21" class="edge">
<title>Node1&#45;&gt;Node15</title>
<path fill="none" stroke="#191970" d="M869.5178,-113.2305C868.8646,-86.4497 867.724,-39.686 867.2343,-19.6068"/>
<polygon fill="#191970" stroke="#191970" points="866.0217,-113.4367 869.7646,-123.3484 873.0196,-113.266 866.0217,-113.4367"/>
</g>
<!-- Node16 -->
<g id="node17" class="node">
<title>Node16</title>
<g id="a_node17"><a xlink:href="test__enum_8cpp.html" target="_top" xlink:title="tests/test_enum.cpp">
<polygon fill="#ffffff" stroke="#000000" points="1252,-62 1252,-81 1358,-81 1358,-62 1252,-62"/>
<text text-anchor="middle" x="1305" y="-69" font-family="Helvetica,sans-Serif" font-size="10.00" fill="#000000">tests/test_enum.cpp</text>
</a>
</g>
</g>
<!-- Node1&#45;&gt;Node16 -->
<g id="edge22" class="edge">
<title>Node1&#45;&gt;Node16</title>
<path fill="none" stroke="#191970" d="M909.5043,-129.7287C977.8549,-123.7126 1122.4368,-109.4177 1243,-87 1251.8356,-85.3571 1261.287,-83.2021 1270.0798,-81.0235"/>
<polygon fill="#191970" stroke="#191970" points="908.864,-126.271 899.2043,-130.6231 909.4696,-133.2448 908.864,-126.271"/>
</g>
<!-- Node17 -->
<g id="node18" class="node">
<title>Node17</title>
<g id="a_node18"><a xlink:href="test__hlll_8cpp.html" target="_top" xlink:title="tests/test_hlll.cpp">
<polygon fill="#ffffff" stroke="#000000" points="934,-.5 934,-19.5 1028,-19.5 1028,-.5 934,-.5"/>
<text text-anchor="middle" x="981" y="-7.5" font-family="Helvetica,sans-Serif" font-size="10.00" fill="#000000">tests/test_hlll.cpp</text>
</a>
</g>
</g>
<!-- Node1&#45;&gt;Node17 -->
<g id="edge23" class="edge">
<title>Node1&#45;&gt;Node17</title>
<path fill="none" stroke="#191970" d="M881.6493,-114.9253C892.4833,-98.7232 909.5389,-74.6969 927,-56 939.7767,-42.319 956.4182,-28.6674 967.8307,-19.8333"/>
<polygon fill="#191970" stroke="#191970" points="878.6058,-113.1835 876.0333,-123.4613 884.4536,-117.0309 878.6058,-113.1835"/>
</g>
<!-- Node18 -->
<g id="node19" class="node">
<title>Node18</title>
<g id="a_node19"><a xlink:href="test__lll_8cpp.html" target="_top" xlink:title="tests/test_lll.cpp">
<polygon fill="#ffffff" stroke="#000000" points="1162.5,-.5 1162.5,-19.5 1251.5,-19.5 1251.5,-.5 1162.5,-.5"/>
<text text-anchor="middle" x="1207" y="-7.5" font-family="Helvetica,sans-Serif" font-size="10.00" fill="#000000">tests/test_lll.cpp</text>
</a>
</g>
</g>
<!-- Node1&#45;&gt;Node18 -->
<g id="edge24" class="edge">
<title>Node1&#45;&gt;Node18</title>
<path fill="none" stroke="#191970" d="M909.2441,-125.9164C943.3325,-118.8579 993.457,-106.2662 1034,-87 1055.6062,-76.7326 1056.7612,-67.0073 1078,-56 1108.5046,-40.1906 1145.6727,-27.5726 1172.2629,-19.5802"/>
<polygon fill="#191970" stroke="#191970" points="908.3239,-122.5313 899.2082,-127.9307 909.7014,-129.3944 908.3239,-122.5313"/>
</g>
<!-- Node19 -->
<g id="node20" class="node">
<title>Node19</title>
<g id="a_node20"><a xlink:href="test__lll__gram_8cpp.html" target="_top" xlink:title="tests/test_lll_gram.cpp">
<polygon fill="#ffffff" stroke="#000000" points="1269,-.5 1269,-19.5 1385,-19.5 1385,-.5 1269,-.5"/>
<text text-anchor="middle" x="1327" y="-7.5" font-family="Helvetica,sans-Serif" font-size="10.00" fill="#000000">tests/test_lll_gram.cpp</text>
</a>
</g>
</g>
<!-- Node1&#45;&gt;Node19 -->
<g id="edge25" class="edge">
<title>Node1&#45;&gt;Node19</title>
<path fill="none" stroke="#191970" d="M909.0405,-128.9412C950.5426,-123.5217 1017.3205,-111.5904 1070,-87 1090.7004,-77.3372 1090.2218,-65.4944 1111,-56 1138.6367,-43.3717 1214.8518,-28.7474 1268.8974,-19.4395"/>
<polygon fill="#191970" stroke="#191970" points="908.5493,-125.4752 899.0577,-130.1825 909.4131,-132.4217 908.5493,-125.4752"/>
</g>
<!-- Node20 -->
<g id="node21" class="node">
<title>Node20</title>
<g id="a_node21"><a xlink:href="test__nr_8cpp.html" target="_top" xlink:title="tests/test_nr.cpp">
<polygon fill="#ffffff" stroke="#000000" points="1376,-62 1376,-81 1466,-81 1466,-62 1376,-62"/>
<text text-anchor="middle" x="1421" y="-69" font-family="Helvetica,sans-Serif" font-size="10.00" fill="#000000">tests/test_nr.cpp</text>
</a>
</g>
</g>
<!-- Node1&#45;&gt;Node20 -->
<g id="edge26" class="edge">
<title>Node1&#45;&gt;Node20</title>
<path fill="none" stroke="#191970" d="M909.2763,-131.8604C993.7209,-128.8661 1198.5608,-118.6799 1367,-87 1375.0518,-85.4856 1383.6336,-83.2962 1391.5306,-81.0379"/>
<polygon fill="#191970" stroke="#191970" points="908.9893,-128.3681 899.1142,-132.2063 909.2275,-135.364 908.9893,-128.3681"/>
</g>
<!-- Node21 -->
<g id="node22" class="node">
<title>Node21</title>
<g id="a_node22"><a xlink:href="test__pruner_8cpp.html" target="_top" xlink:title="tests/test_pruner.cpp">
<polygon fill="#ffffff" stroke="#000000" points="1484.5,-62 1484.5,-81 1593.5,-81 1593.5,-62 1484.5,-62"/>
<text text-anchor="middle" x="1539" y="-69" font-family="Helvetica,sans-Serif" font-size="10.00" fill="#000000">tests/test_pruner.cpp</text>
</a>
</g>
</g>
<!-- Node1&#45;&gt;Node21 -->
<g id="edge27" class="edge">
<title>Node1&#45;&gt;Node21</title>
<path fill="none" stroke="#191970" d="M909.3595,-132.2074C1006.1695,-129.7815 1263.3945,-120.4434 1475,-87 1484.4854,-85.5009 1494.6367,-83.3167 1503.9955,-81.0585"/>
<polygon fill="#191970" stroke="#191970" points="909.0723,-128.7131 899.1591,-132.452 909.2402,-135.7111 909.0723,-128.7131"/>
</g>
<!-- Node22 -->
<g id="node23" class="node">
<title>Node22</title>
<g id="a_node23"><a xlink:href="test__svp_8cpp.html" target="_top" xlink:title="tests/test_svp.cpp">
<polygon fill="#ffffff" stroke="#000000" points="1408,-.5 1408,-19.5 1506,-19.5 1506,-.5 1408,-.5"/>
<text text-anchor="middle" x="1457" y="-7.5" font-family="Helvetica,sans-Serif" font-size="10.00" fill="#000000">tests/test_svp.cpp</text>
</a>
</g>
</g>
<!-- Node1&#45;&gt;Node22 -->
<g id="edge28" class="edge">
<title>Node1&#45;&gt;Node22</title>
<path fill="none" stroke="#191970" d="M909.0283,-132.0156C1057.3726,-128.0872 1579.0511,-112.4989 1603,-87 1636.4492,-51.3859 1560.5808,-29.0555 1506.172,-18.1121"/>
<polygon fill="#191970" stroke="#191970" points="908.9096,-128.5174 899.0047,-132.2782 909.093,-135.515 908.9096,-128.5174"/>
</g>
<!-- Node23 -->
<g id="node24" class="node">
<title>Node23</title>
<g id="a_node24"><a xlink:href="test__svp__gram_8cpp.html" target="_top" xlink:title="tests/test_svp_gram.cpp">
<polygon fill="#ffffff" stroke="#000000" points="1534.5,-.5 1534.5,-19.5 1659.5,-19.5 1659.5,-.5 1534.5,-.5"/>
<text text-anchor="middle" x="1597" y="-7.5" font-family="Helvetica,sans-Serif" font-size="10.00" fill="#000000">tests/test_svp_gram.cpp</text>
</a>
</g>
</g>
<!-- Node1&#45;&gt;Node23 -->
<g id="edge29" class="edge">
<title>Node1&#45;&gt;Node23</title>
<path fill="none" stroke="#191970" d="M909.4799,-132.0651C1060.7792,-128.2936 1596.4184,-113.1333 1621,-87 1638.9403,-67.9272 1617.8649,-35.6326 1605.2006,-19.6093"/>
<polygon fill="#191970" stroke="#191970" points="909.1736,-128.5715 899.2629,-132.317 909.3462,-135.5694 909.1736,-128.5715"/>
</g>
<!-- Node24 -->
<g id="node25" class="node">
<title>Node24</title>
<g id="a_node25"><a xlink:href="test__utils_8h.html" target="_top" xlink:title="tests/test_utils.h">
<polygon fill="#ffffff" stroke="#000000" points="936.5,-62 936.5,-81 1025.5,-81 1025.5,-62 936.5,-62"/>
<text text-anchor="middle" x="981" y="-69" font-family="Helvetica,sans-Serif" font-size="10.00" fill="#000000">tests/test_utils.h</text>
</a>
</g>
</g>
<!-- Node1&#45;&gt;Node24 -->
<g id="edge30" class="edge">
<title>Node1&#45;&gt;Node24</title>
<path fill="none" stroke="#191970" d="M896.3241,-118.415C917.1893,-106.8546 945.7416,-91.035 963.778,-81.0419"/>
<polygon fill="#191970" stroke="#191970" points="894.3947,-115.4827 887.3438,-123.3906 897.7872,-121.6057 894.3947,-115.4827"/>
</g>
<!-- Node4 -->
<g id="node5" class="node">
<title>Node4</title>
<g id="a_node5"><a xlink:href="main_8cpp.html" target="_top" xlink:title="fplll/main.cpp">
<polygon fill="#ffffff" stroke="#000000" points="1683,-.5 1683,-19.5 1757,-19.5 1757,-.5 1683,-.5"/>
<text text-anchor="middle" x="1720" y="-7.5" font-family="Helvetica,sans-Serif" font-size="10.00" fill="#000000">fplll/main.cpp</text>
</a>
</g>
</g>
<!-- Node3&#45;&gt;Node4 -->
<g id="edge4" class="edge">
<title>Node3&#45;&gt;Node4</title>
<path fill="none" stroke="#191970" d="M1720,-51.7462C1720,-41.0519 1720,-28.314 1720,-19.7449"/>
<polygon fill="#191970" stroke="#191970" points="1716.5001,-51.8906 1720,-61.8906 1723.5001,-51.8907 1716.5001,-51.8906"/>
</g>
<!-- Node6&#45;&gt;Node5 -->
<g id="edge7" class="edge">
<title>Node6&#45;&gt;Node5</title>
<path fill="none" stroke="#191970" d="M663.9654,-55.9032C582.554,-38.0172 498.7149,-25.033 445.1265,-17.4173"/>
<polygon fill="#191970" stroke="#191970" points="663.3579,-59.3536 673.8794,-58.1087 664.878,-52.5206 663.3579,-59.3536"/>
</g>
<!-- Node7&#45;&gt;Node5 -->
<g id="edge9" class="edge">
<title>Node7&#45;&gt;Node5</title>
<path fill="none" stroke="#191970" d="M225.9754,-55.7302C276.3352,-41.622 324.1815,-28.2982 355.5457,-19.5751"/>
<polygon fill="#191970" stroke="#191970" points="224.8953,-52.398 216.2108,-58.4668 226.7844,-59.1383 224.8953,-52.398"/>
</g>
<!-- Node8&#45;&gt;Node5 -->
<g id="edge11" class="edge">
<title>Node8&#45;&gt;Node5</title>
<path fill="none" stroke="#191970" d="M315.7204,-51.5291C334.9284,-40.79 357.7281,-28.0429 372.9539,-19.5303"/>
<polygon fill="#191970" stroke="#191970" points="313.9295,-48.5204 306.909,-56.4554 317.3455,-54.6303 313.9295,-48.5204"/>
</g>
<!-- Node9&#45;&gt;Node5 -->
<g id="edge13" class="edge">
<title>Node9&#45;&gt;Node5</title>
<path fill="none" stroke="#191970" d="M390,-46.2849C390,-36.9858 390,-26.9883 390,-19.8469"/>
<polygon fill="#191970" stroke="#191970" points="386.5001,-46.2977 390,-56.2977 393.5001,-46.2978 386.5001,-46.2977"/>
</g>
<!-- Node10&#45;&gt;Node5 -->
<g id="edge15" class="edge">
<title>Node10&#45;&gt;Node5</title>
<path fill="none" stroke="#191970" d="M464.2796,-51.5291C445.0716,-40.79 422.2719,-28.0429 407.0461,-19.5303"/>
<polygon fill="#191970" stroke="#191970" points="462.6545,-54.6303 473.091,-56.4554 466.0705,-48.5204 462.6545,-54.6303"/>
</g>
<!-- Node11&#45;&gt;Node5 -->
<g id="edge17" class="edge">
<title>Node11&#45;&gt;Node5</title>
<path fill="none" stroke="#191970" d="M554.0246,-55.7302C503.6648,-41.622 455.8185,-28.2982 424.4543,-19.5751"/>
<polygon fill="#191970" stroke="#191970" points="553.2156,-59.1383 563.7892,-58.4668 555.1047,-52.398 553.2156,-59.1383"/>
</g>
<!-- Node24&#45;&gt;Node12 -->
<g id="edge31" class="edge">
<title>Node24&#45;&gt;Node12</title>
<path fill="none" stroke="#191970" d="M926.3891,-62.7559C863.375,-52.63 756.654,-35.3695 665,-20 662.0776,-19.5099 659.073,-19.0026 656.0423,-18.4881"/>
<polygon fill="#191970" stroke="#191970" points="926.0681,-66.2491 936.4966,-64.3791 927.1781,-59.3376 926.0681,-66.2491"/>
</g>
<!-- Node24&#45;&gt;Node13 -->
<g id="edge32" class="edge">
<title>Node24&#45;&gt;Node13</title>
<path fill="none" stroke="#191970" d="M933.342,-59.4878C887.0349,-47.8162 817.633,-30.3235 774.9461,-19.5643"/>
<polygon fill="#191970" stroke="#191970" points="932.5905,-62.9078 943.1427,-61.9581 934.3014,-56.1201 932.5905,-62.9078"/>
</g>
<!-- Node24&#45;&gt;Node15 -->
<g id="edge33" class="edge">
<title>Node24&#45;&gt;Node15</title>
<path fill="none" stroke="#191970" d="M954.2535,-57.071C932.7997,-45.4972 903.2947,-29.5801 884.6874,-19.5419"/>
<polygon fill="#191970" stroke="#191970" points="952.7247,-60.223 963.1875,-61.8906 956.0483,-54.0623 952.7247,-60.223"/>
</g>
<!-- Node24&#45;&gt;Node17 -->
<g id="edge35" class="edge">
<title>Node24&#45;&gt;Node17</title>
<path fill="none" stroke="#191970" d="M981,-51.7462C981,-41.0519 981,-28.314 981,-19.7449"/>
<polygon fill="#191970" stroke="#191970" points="977.5001,-51.8906 981,-61.8906 984.5001,-51.8907 977.5001,-51.8906"/>
</g>
<!-- Node24&#45;&gt;Node18 -->
<g id="edge36" class="edge">
<title>Node24&#45;&gt;Node18</title>
<path fill="none" stroke="#191970" d="M1026.2114,-59.1969C1069.1255,-47.5189 1132.7314,-30.2103 1171.9355,-19.5419"/>
<polygon fill="#191970" stroke="#191970" points="1025.0426,-55.8876 1016.3125,-61.8906 1026.8807,-62.642 1025.0426,-55.8876"/>
</g>
<!-- Node24&#45;&gt;Node19 -->
<g id="edge37" class="edge">
<title>Node24&#45;&gt;Node19</title>
<path fill="none" stroke="#191970" d="M1035.5826,-61.7982C1100.6281,-50.2366 1208.6139,-31.0426 1273.2779,-19.5489"/>
<polygon fill="#191970" stroke="#191970" points="1034.7583,-58.3898 1025.5251,-63.5859 1035.9833,-65.2817 1034.7583,-58.3898"/>
</g>
<!-- Node24&#45;&gt;Node22 -->
<g id="edge38" class="edge">
<title>Node24&#45;&gt;Node22</title>
<path fill="none" stroke="#191970" d="M1035.899,-64.8853C1131.7995,-53.2916 1326.0946,-29.6204 1394,-20 1398.4956,-19.3631 1403.1672,-18.6737 1407.843,-17.9649"/>
<polygon fill="#191970" stroke="#191970" points="1035.3267,-61.4289 1025.8188,-66.1032 1036.1664,-68.3783 1035.3267,-61.4289"/>
</g>
<!-- Node24&#45;&gt;Node23 -->
<g id="edge39" class="edge">
<title>Node24&#45;&gt;Node23</title>
<path fill="none" stroke="#191970" d="M1035.7861,-64.6007C1058.9719,-61.7761 1086.2855,-58.5739 1111,-56 1290.2973,-37.3268 1335.7279,-38.9135 1515,-20 1521.2755,-19.3379 1527.8161,-18.608 1534.3454,-17.8532"/>
<polygon fill="#191970" stroke="#191970" points="1035.2857,-61.1357 1025.7859,-65.8265 1036.1375,-68.0837 1035.2857,-61.1357"/>
</g>
<!-- Node25 -->
<g id="node26" class="node">
<title>Node25</title>
<g id="a_node26"><a xlink:href="test__gso_8cpp.html" target="_top" xlink:title="tests/test_gso.cpp">
<polygon fill="#ffffff" stroke="#000000" points="1046,-.5 1046,-19.5 1144,-19.5 1144,-.5 1046,-.5"/>
<text text-anchor="middle" x="1095" y="-7.5" font-family="Helvetica,sans-Serif" font-size="10.00" fill="#000000">tests/test_gso.cpp</text>
</a>
</g>
</g>
<!-- Node24&#45;&gt;Node25 -->
<g id="edge34" class="edge">
<title>Node24&#45;&gt;Node25</title>
<path fill="none" stroke="#191970" d="M1007.7465,-57.071C1029.2003,-45.4972 1058.7053,-29.5801 1077.3126,-19.5419"/>
<polygon fill="#191970" stroke="#191970" points="1005.9517,-54.0623 998.8125,-61.8906 1009.2753,-60.223 1005.9517,-54.0623"/>
</g>
<!-- Node26&#45;&gt;Node2 -->
<g id="edge41" class="edge">
<title>Node26&#45;&gt;Node2</title>
<path fill="none" stroke="#191970" d="M354.2808,-128.3485C289.5672,-121.9964 176.7478,-108.8326 82,-87 75.0026,-85.3876 67.5631,-83.2178 60.6827,-81.0132"/>
<polygon fill="#191970" stroke="#191970" points="353.9539,-131.8331 364.2438,-129.3098 354.6262,-124.8655 353.9539,-131.8331"/>
</g>
</g>
</svg>
