<?xml version="1.0" encoding="UTF-8" standalone="no"?>
<!DOCTYPE svg PUBLIC "-//W3C//DTD SVG 1.1//EN"
 "http://www.w3.org/Graphics/SVG/1.1/DTD/svg11.dtd">
<!-- Generated by graphviz version 2.38.0 (20140413.2041)
 -->
<!-- Title: fplll/svpcvp.h Pages: 1 -->
<svg width="1015pt" height="196pt"
 viewBox="0.00 0.00 1015.00 196.00" xmlns="http://www.w3.org/2000/svg" xmlns:xlink="http://www.w3.org/1999/xlink">
<g id="graph0" class="graph" transform="scale(1 1) rotate(0) translate(4 192)">
<title>fplll/svpcvp.h</title>
<polygon fill="white" stroke="none" points="-4,4 -4,-192 1011,-192 1011,4 -4,4"/>
<!-- Node0 -->
<g id="node1" class="node"><title>Node0</title>
<polygon fill="#bfbfbf" stroke="black" points="319,-168.5 319,-187.5 393,-187.5 393,-168.5 319,-168.5"/>
<text text-anchor="middle" x="356" y="-175.5" font-family="Helvetica,sans-Serif" font-size="10.00">fplll/svpcvp.h</text>
</g>
<!-- Node1 -->
<g id="node2" class="node"><title>Node1</title>
<g id="a_node2"><a xlink:href="fplll_8h.html" target="_top" xlink:title="fplll/fplll.h">
<polygon fill="white" stroke="black" points="421,-112.5 421,-131.5 479,-131.5 479,-112.5 421,-112.5"/>
<text text-anchor="middle" x="450" y="-119.5" font-family="Helvetica,sans-Serif" font-size="10.00">fplll/fplll.h</text>
</a>
</g>
</g>
<!-- Node0&#45;&gt;Node1 -->
<g id="edge1" class="edge"><title>Node0&#45;&gt;Node1</title>
<path fill="none" stroke="midnightblue" d="M380.062,-163.177C397.359,-153.241 420.148,-140.149 434.935,-131.655"/>
<polygon fill="midnightblue" stroke="midnightblue" points="378.03,-160.308 371.103,-168.324 381.517,-166.378 378.03,-160.308"/>
</g>
<!-- Node16 -->
<g id="node17" class="node"><title>Node16</title>
<g id="a_node17"><a xlink:href="svpcvp_8cpp.html" target="_top" xlink:title="fplll/svpcvp.cpp">
<polygon fill="white" stroke="black" points="220.5,-112.5 220.5,-131.5 305.5,-131.5 305.5,-112.5 220.5,-112.5"/>
<text text-anchor="middle" x="263" y="-119.5" font-family="Helvetica,sans-Serif" font-size="10.00">fplll/svpcvp.cpp</text>
</a>
</g>
</g>
<!-- Node0&#45;&gt;Node16 -->
<g id="edge22" class="edge"><title>Node0&#45;&gt;Node16</title>
<path fill="none" stroke="midnightblue" d="M332.194,-163.177C315.081,-153.241 292.535,-140.149 277.905,-131.655"/>
<polygon fill="midnightblue" stroke="midnightblue" points="330.653,-166.329 341.058,-168.324 334.168,-160.276 330.653,-166.329"/>
</g>
<!-- Node2 -->
<g id="node3" class="node"><title>Node2</title>
<g id="a_node3"><a xlink:href="fplll_8cpp.html" target="_top" xlink:title="fplll/fplll.cpp">
<polygon fill="white" stroke="black" points="132,-56.5 132,-75.5 200,-75.5 200,-56.5 132,-56.5"/>
<text text-anchor="middle" x="166" y="-63.5" font-family="Helvetica,sans-Serif" font-size="10.00">fplll/fplll.cpp</text>
</a>
</g>
</g>
<!-- Node1&#45;&gt;Node2 -->
<g id="edge2" class="edge"><title>Node1&#45;&gt;Node2</title>
<path fill="none" stroke="midnightblue" d="M411.065,-113.597C355.173,-102.97 253.105,-83.5622 200.055,-73.4753"/>
<polygon fill="midnightblue" stroke="midnightblue" points="410.464,-117.045 420.942,-115.475 411.771,-110.168 410.464,-117.045"/>
</g>
<!-- Node3 -->
<g id="node4" class="node"><title>Node3</title>
<g id="a_node4"><a xlink:href="main_8h.html" target="_top" xlink:title="fplll/main.h">
<polygon fill="white" stroke="black" points="938,-56.5 938,-75.5 1002,-75.5 1002,-56.5 938,-56.5"/>
<text text-anchor="middle" x="970" y="-63.5" font-family="Helvetica,sans-Serif" font-size="10.00">fplll/main.h</text>
</a>
</g>
</g>
<!-- Node1&#45;&gt;Node3 -->
<g id="edge3" class="edge"><title>Node1&#45;&gt;Node3</title>
<path fill="none" stroke="midnightblue" d="M489.362,-118.861C571.336,-114.063 766.201,-100.864 928,-76 931.243,-75.5016 934.612,-74.9087 937.968,-74.2684"/>
<polygon fill="midnightblue" stroke="midnightblue" points="489.027,-115.374 479.245,-119.444 489.43,-122.363 489.027,-115.374"/>
</g>
<!-- Node5 -->
<g id="node6" class="node"><title>Node5</title>
<g id="a_node6"><a xlink:href="sieve__main_8cpp.html" target="_top" xlink:title="fplll/sieve/sieve_main.cpp">
<polygon fill="white" stroke="black" points="790.5,-56.5 790.5,-75.5 919.5,-75.5 919.5,-56.5 790.5,-56.5"/>
<text text-anchor="middle" x="855" y="-63.5" font-family="Helvetica,sans-Serif" font-size="10.00">fplll/sieve/sieve_main.cpp</text>
</a>
</g>
</g>
<!-- Node1&#45;&gt;Node5 -->
<g id="edge5" class="edge"><title>Node1&#45;&gt;Node5</title>
<path fill="none" stroke="midnightblue" d="M489.284,-115.762C559.314,-106.425 706.305,-86.826 791.064,-75.5248"/>
<polygon fill="midnightblue" stroke="midnightblue" points="488.576,-112.325 479.127,-117.116 489.501,-119.264 488.576,-112.325"/>
</g>
<!-- Node6 -->
<g id="node7" class="node"><title>Node6</title>
<g id="a_node7"><a xlink:href="test__bkz_8cpp.html" target="_top" xlink:title="tests/test_bkz.cpp">
<polygon fill="white" stroke="black" points="713,-0.5 713,-19.5 811,-19.5 811,-0.5 713,-0.5"/>
<text text-anchor="middle" x="762" y="-7.5" font-family="Helvetica,sans-Serif" font-size="10.00">tests/test_bkz.cpp</text>
</a>
</g>
</g>
<!-- Node1&#45;&gt;Node6 -->
<g id="edge6" class="edge"><title>Node1&#45;&gt;Node6</title>
<path fill="none" stroke="midnightblue" d="M489.54,-119.972C560.354,-117.331 704.899,-108.058 742,-76 758.617,-61.642 761.645,-33.8349 762.059,-19.7014"/>
<polygon fill="midnightblue" stroke="midnightblue" points="489.115,-116.484 479.242,-120.328 489.357,-123.48 489.115,-116.484"/>
</g>
<!-- Node7 -->
<g id="node8" class="node"><title>Node7</title>
<g id="a_node8"><a xlink:href="test__cvp_8cpp.html" target="_top" xlink:title="tests/test_cvp.cpp">
<polygon fill="white" stroke="black" points="0,-0.5 0,-19.5 98,-19.5 98,-0.5 0,-0.5"/>
<text text-anchor="middle" x="49" y="-7.5" font-family="Helvetica,sans-Serif" font-size="10.00">tests/test_cvp.cpp</text>
</a>
</g>
</g>
<!-- Node1&#45;&gt;Node7 -->
<g id="edge7" class="edge"><title>Node1&#45;&gt;Node7</title>
<path fill="none" stroke="midnightblue" d="M410.726,-114.777C370.063,-107.722 305.037,-94.7147 251,-76 231.463,-69.2338 228.355,-63.2696 209,-56 167.805,-40.5274 118.912,-27.5202 86.1112,-19.5317"/>
<polygon fill="midnightblue" stroke="midnightblue" points="410.323,-118.259 420.768,-116.484 411.496,-111.358 410.323,-118.259"/>
</g>
<!-- Node8 -->
<g id="node9" class="node"><title>Node8</title>
<g id="a_node9"><a xlink:href="test__lll_8cpp.html" target="_top" xlink:title="tests/test_lll.cpp">
<polygon fill="white" stroke="black" points="116.5,-0.5 116.5,-19.5 205.5,-19.5 205.5,-0.5 116.5,-0.5"/>
<text text-anchor="middle" x="161" y="-7.5" font-family="Helvetica,sans-Serif" font-size="10.00">tests/test_lll.cpp</text>
</a>
</g>
</g>
<!-- Node1&#45;&gt;Node8 -->
<g id="edge8" class="edge"><title>Node1&#45;&gt;Node8</title>
<path fill="none" stroke="midnightblue" d="M411.244,-110.783C381.1,-102.462 338.42,-89.8571 302,-76 255.897,-58.4586 203.655,-32.7808 177.61,-19.5628"/>
<polygon fill="midnightblue" stroke="midnightblue" points="410.39,-114.178 420.959,-113.436 412.234,-107.425 410.39,-114.178"/>
</g>
<!-- Node9 -->
<g id="node10" class="node"><title>Node9</title>
<g id="a_node10"><a xlink:href="test__lll__gram_8cpp.html" target="_top" xlink:title="tests/test_lll_gram.cpp">
<polygon fill="white" stroke="black" points="223,-0.5 223,-19.5 339,-19.5 339,-0.5 223,-0.5"/>
<text text-anchor="middle" x="281" y="-7.5" font-family="Helvetica,sans-Serif" font-size="10.00">tests/test_lll_gram.cpp</text>
</a>
</g>
</g>
<!-- Node1&#45;&gt;Node9 -->
<g id="edge9" class="edge"><title>Node1&#45;&gt;Node9</title>
<path fill="none" stroke="midnightblue" d="M411.032,-114.117C384.093,-107.804 348.63,-96.2567 323,-76 303.605,-60.6711 290.393,-33.7984 284.495,-19.895"/>
<polygon fill="midnightblue" stroke="midnightblue" points="410.383,-117.557 420.901,-116.287 411.886,-110.721 410.383,-117.557"/>
</g>
<!-- Node10 -->
<g id="node11" class="node"><title>Node10</title>
<g id="a_node11"><a xlink:href="test__nr_8cpp.html" target="_top" xlink:title="tests/test_nr.cpp">
<polygon fill="white" stroke="black" points="516,-56.5 516,-75.5 606,-75.5 606,-56.5 516,-56.5"/>
<text text-anchor="middle" x="561" y="-63.5" font-family="Helvetica,sans-Serif" font-size="10.00">tests/test_nr.cpp</text>
</a>
</g>
</g>
<!-- Node1&#45;&gt;Node10 -->
<g id="edge10" class="edge"><title>Node1&#45;&gt;Node10</title>
<path fill="none" stroke="midnightblue" d="M477.005,-107.862C497.588,-97.8492 525.345,-84.3458 543.21,-75.6545"/>
<polygon fill="midnightblue" stroke="midnightblue" points="475.295,-104.802 467.834,-112.324 478.358,-111.097 475.295,-104.802"/>
</g>
<!-- Node11 -->
<g id="node12" class="node"><title>Node11</title>
<g id="a_node12"><a xlink:href="test__pruner_8cpp.html" target="_top" xlink:title="tests/test_pruner.cpp">
<polygon fill="white" stroke="black" points="624.5,-56.5 624.5,-75.5 733.5,-75.5 733.5,-56.5 624.5,-56.5"/>
<text text-anchor="middle" x="679" y="-63.5" font-family="Helvetica,sans-Serif" font-size="10.00">tests/test_pruner.cpp</text>
</a>
</g>
</g>
<!-- Node1&#45;&gt;Node11 -->
<g id="edge11" class="edge"><title>Node1&#45;&gt;Node11</title>
<path fill="none" stroke="midnightblue" d="M488.827,-111.844C531.857,-101.698 600.706,-85.4623 642.695,-75.5611"/>
<polygon fill="midnightblue" stroke="midnightblue" points="487.933,-108.459 479.003,-114.161 489.539,-115.272 487.933,-108.459"/>
</g>
<!-- Node12 -->
<g id="node13" class="node"><title>Node12</title>
<g id="a_node13"><a xlink:href="test__sieve_8cpp.html" target="_top" xlink:title="tests/test_sieve.cpp">
<polygon fill="white" stroke="black" points="473.5,-0.5 473.5,-19.5 578.5,-19.5 578.5,-0.5 473.5,-0.5"/>
<text text-anchor="middle" x="526" y="-7.5" font-family="Helvetica,sans-Serif" font-size="10.00">tests/test_sieve.cpp</text>
</a>
</g>
</g>
<!-- Node1&#45;&gt;Node12 -->
<g id="edge12" class="edge"><title>Node1&#45;&gt;Node12</title>
<path fill="none" stroke="midnightblue" d="M454.13,-102.628C457.813,-88.9263 464.166,-70.2034 474,-56 484.466,-40.8836 501.158,-27.6696 512.797,-19.5395"/>
<polygon fill="midnightblue" stroke="midnightblue" points="450.726,-101.812 451.733,-112.358 457.523,-103.486 450.726,-101.812"/>
</g>
<!-- Node13 -->
<g id="node14" class="node"><title>Node13</title>
<g id="a_node14"><a xlink:href="test__svp_8cpp.html" target="_top" xlink:title="tests/test_svp.cpp">
<polygon fill="white" stroke="black" points="597,-0.5 597,-19.5 695,-19.5 695,-0.5 597,-0.5"/>
<text text-anchor="middle" x="646" y="-7.5" font-family="Helvetica,sans-Serif" font-size="10.00">tests/test_svp.cpp</text>
</a>
</g>
</g>
<!-- Node1&#45;&gt;Node13 -->
<g id="edge13" class="edge"><title>Node1&#45;&gt;Node13</title>
<path fill="none" stroke="midnightblue" d="M461.359,-103.435C471.652,-88.817 488.075,-68.4527 507,-56 534.864,-37.6653 570.778,-26.293 599.121,-19.5681"/>
<polygon fill="midnightblue" stroke="midnightblue" points="458.221,-101.826 455.515,-112.07 464.019,-105.749 458.221,-101.826"/>
</g>
<!-- Node14 -->
<g id="node15" class="node"><title>Node14</title>
<g id="a_node15"><a xlink:href="test__utils_8h.html" target="_top" xlink:title="tests/test_utils.h">
<polygon fill="white" stroke="black" points="332.5,-56.5 332.5,-75.5 421.5,-75.5 421.5,-56.5 332.5,-56.5"/>
<text text-anchor="middle" x="377" y="-63.5" font-family="Helvetica,sans-Serif" font-size="10.00">tests/test_utils.h</text>
</a>
</g>
</g>
<!-- Node1&#45;&gt;Node14 -->
<g id="edge14" class="edge"><title>Node1&#45;&gt;Node14</title>
<path fill="none" stroke="midnightblue" d="M429.858,-106.101C416.721,-96.3824 400.018,-84.0269 388.942,-75.8339"/>
<polygon fill="midnightblue" stroke="midnightblue" points="428.15,-109.191 438.271,-112.324 432.313,-103.563 428.15,-109.191"/>
</g>
<!-- Node4 -->
<g id="node5" class="node"><title>Node4</title>
<g id="a_node5"><a xlink:href="main_8cpp.html" target="_top" xlink:title="fplll/main.cpp">
<polygon fill="white" stroke="black" points="933,-0.5 933,-19.5 1007,-19.5 1007,-0.5 933,-0.5"/>
<text text-anchor="middle" x="970" y="-7.5" font-family="Helvetica,sans-Serif" font-size="10.00">fplll/main.cpp</text>
</a>
</g>
</g>
<!-- Node3&#45;&gt;Node4 -->
<g id="edge4" class="edge"><title>Node3&#45;&gt;Node4</title>
<path fill="none" stroke="midnightblue" d="M970,-45.8045C970,-36.9102 970,-26.7798 970,-19.7511"/>
<polygon fill="midnightblue" stroke="midnightblue" points="966.5,-46.083 970,-56.083 973.5,-46.083 966.5,-46.083"/>
</g>
<!-- Node14&#45;&gt;Node6 -->
<g id="edge15" class="edge"><title>Node14&#45;&gt;Node6</title>
<path fill="none" stroke="midnightblue" d="M431.747,-57.7585C496.725,-49.096 608.331,-34.0043 704,-20 706.924,-19.572 709.93,-19.1255 712.961,-18.6701"/>
<polygon fill="midnightblue" stroke="midnightblue" points="431.179,-54.3031 421.728,-59.0924 432.103,-61.2419 431.179,-54.3031"/>
</g>
<!-- Node14&#45;&gt;Node7 -->
<g id="edge16" class="edge"><title>Node14&#45;&gt;Node7</title>
<path fill="none" stroke="midnightblue" d="M322.348,-56.0023C259.763,-45.6988 158.151,-28.97 98.027,-19.0715"/>
<polygon fill="midnightblue" stroke="midnightblue" points="321.987,-59.4901 332.423,-57.6611 323.125,-52.5831 321.987,-59.4901"/>
</g>
<!-- Node14&#45;&gt;Node8 -->
<g id="edge18" class="edge"><title>Node14&#45;&gt;Node8</title>
<path fill="none" stroke="midnightblue" d="M332.836,-53.959C292.039,-43.7598 232.287,-28.8217 195.066,-19.5164"/>
<polygon fill="midnightblue" stroke="midnightblue" points="332.224,-57.4136 342.774,-56.4435 333.922,-50.6226 332.224,-57.4136"/>
</g>
<!-- Node14&#45;&gt;Node9 -->
<g id="edge19" class="edge"><title>Node14&#45;&gt;Node9</title>
<path fill="none" stroke="midnightblue" d="M352.426,-51.1774C334.761,-41.2407 311.487,-28.1492 296.386,-19.6545"/>
<polygon fill="midnightblue" stroke="midnightblue" points="351.144,-54.4718 361.576,-56.324 354.576,-48.3708 351.144,-54.4718"/>
</g>
<!-- Node14&#45;&gt;Node12 -->
<g id="edge20" class="edge"><title>Node14&#45;&gt;Node12</title>
<path fill="none" stroke="midnightblue" d="M410.371,-52.9058C438.384,-42.7536 477.696,-28.5063 502.501,-19.5164"/>
<polygon fill="midnightblue" stroke="midnightblue" points="408.819,-49.7456 400.609,-56.4435 411.204,-56.3267 408.819,-49.7456"/>
</g>
<!-- Node14&#45;&gt;Node13 -->
<g id="edge21" class="edge"><title>Node14&#45;&gt;Node13</title>
<path fill="none" stroke="midnightblue" d="M429.438,-54.4734C480.277,-44.2678 556.436,-28.9794 603.576,-19.5164"/>
<polygon fill="midnightblue" stroke="midnightblue" points="428.739,-51.0437 419.624,-56.4435 430.117,-57.9068 428.739,-51.0437"/>
</g>
<!-- Node15 -->
<g id="node16" class="node"><title>Node15</title>
<g id="a_node16"><a xlink:href="test__gso_8cpp.html" target="_top" xlink:title="tests/test_gso.cpp">
<polygon fill="white" stroke="black" points="357,-0.5 357,-19.5 455,-19.5 455,-0.5 357,-0.5"/>
<text text-anchor="middle" x="406" y="-7.5" font-family="Helvetica,sans-Serif" font-size="10.00">tests/test_gso.cpp</text>
</a>
</g>
</g>
<!-- Node14&#45;&gt;Node15 -->
<g id="edge17" class="edge"><title>Node14&#45;&gt;Node15</title>
<path fill="none" stroke="midnightblue" d="M386.676,-46.9827C391.598,-37.8168 397.358,-27.0922 401.3,-19.7511"/>
<polygon fill="midnightblue" stroke="midnightblue" points="383.437,-45.6171 381.789,-56.083 389.604,-48.929 383.437,-45.6171"/>
</g>
<!-- Node16&#45;&gt;Node2 -->
<g id="edge23" class="edge"><title>Node16&#45;&gt;Node2</title>
<path fill="none" stroke="midnightblue" d="M238.665,-107.453C220.757,-97.4835 196.946,-84.2279 181.546,-75.6545"/>
<polygon fill="midnightblue" stroke="midnightblue" points="236.975,-110.518 247.415,-112.324 240.38,-104.402 236.975,-110.518"/>
</g>
</g>
</svg>
