<?xml version="1.0" encoding="UTF-8" standalone="no"?>
<!DOCTYPE svg PUBLIC "-//W3C//DTD SVG 1.1//EN"
 "http://www.w3.org/Graphics/SVG/1.1/DTD/svg11.dtd">
<!-- Generated by graphviz version 2.38.0 (20140413.2041)
 -->
<!-- Title: fplll/svpcvp.h Pages: 1 -->
<svg width="922pt" height="464pt"
 viewBox="0.00 0.00 922.00 464.00" xmlns="http://www.w3.org/2000/svg" xmlns:xlink="http://www.w3.org/1999/xlink">
<g id="graph0" class="graph" transform="scale(1 1) rotate(0) translate(4 460)">
<title>fplll/svpcvp.h</title>
<polygon fill="white" stroke="none" points="-4,4 -4,-460 918,-460 918,4 -4,4"/>
<!-- Node1 -->
<g id="node1" class="node"><title>Node1</title>
<polygon fill="#bfbfbf" stroke="black" points="243,-436.5 243,-455.5 317,-455.5 317,-436.5 243,-436.5"/>
<text text-anchor="middle" x="280" y="-443.5" font-family="Helvetica,sans-Serif" font-size="10.00">fplll/svpcvp.h</text>
</g>
<!-- Node2 -->
<g id="node2" class="node"><title>Node2</title>
<g id="a_node2"><a xlink:href="fplll_8h.html" target="_top" xlink:title="fplll/fplll.h">
<polygon fill="white" stroke="black" points="338,-380.5 338,-399.5 396,-399.5 396,-380.5 338,-380.5"/>
<text text-anchor="middle" x="367" y="-387.5" font-family="Helvetica,sans-Serif" font-size="10.00">fplll/fplll.h</text>
</a>
</g>
</g>
<!-- Node1&#45;&gt;Node2 -->
<g id="edge1" class="edge"><title>Node1&#45;&gt;Node2</title>
<path fill="none" stroke="midnightblue" d="M302.716,-430.901C318.669,-420.999 339.497,-408.071 353.057,-399.655"/>
<polygon fill="midnightblue" stroke="midnightblue" points="300.629,-428.077 293.978,-436.324 304.32,-434.024 300.629,-428.077"/>
</g>
<!-- Node23 -->
<g id="node23" class="node"><title>Node23</title>
<g id="a_node23"><a xlink:href="svpcvp_8cpp.html" target="_top" xlink:title="fplll/svpcvp.cpp">
<polygon fill="white" stroke="black" points="150.5,-380.5 150.5,-399.5 235.5,-399.5 235.5,-380.5 150.5,-380.5"/>
<text text-anchor="middle" x="193" y="-387.5" font-family="Helvetica,sans-Serif" font-size="10.00">fplll/svpcvp.cpp</text>
</a>
</g>
</g>
<!-- Node1&#45;&gt;Node23 -->
<g id="edge28" class="edge"><title>Node1&#45;&gt;Node23</title>
<path fill="none" stroke="midnightblue" d="M257.284,-430.901C241.331,-420.999 220.503,-408.071 206.943,-399.655"/>
<polygon fill="midnightblue" stroke="midnightblue" points="255.68,-434.024 266.022,-436.324 259.371,-428.077 255.68,-434.024"/>
</g>
<!-- Node3 -->
<g id="node3" class="node"><title>Node3</title>
<g id="a_node3"><a xlink:href="fplll_8cpp.html" target="_top" xlink:title="fplll/fplll.cpp">
<polygon fill="white" stroke="black" points="37,-319 37,-338 105,-338 105,-319 37,-319"/>
<text text-anchor="middle" x="71" y="-326" font-family="Helvetica,sans-Serif" font-size="10.00">fplll/fplll.cpp</text>
</a>
</g>
</g>
<!-- Node2&#45;&gt;Node3 -->
<g id="edge2" class="edge"><title>Node2&#45;&gt;Node3</title>
<path fill="none" stroke="midnightblue" d="M327.792,-383.878C277.729,-376.917 188.646,-363.11 114,-344 107.589,-342.359 100.756,-340.233 94.4672,-338.118"/>
<polygon fill="midnightblue" stroke="midnightblue" points="327.48,-387.368 337.863,-385.259 328.431,-380.433 327.48,-387.368"/>
</g>
<!-- Node4 -->
<g id="node4" class="node"><title>Node4</title>
<g id="a_node4"><a xlink:href="main_8h.html" target="_top" xlink:title="fplll/main.h">
<polygon fill="white" stroke="black" points="123,-319 123,-338 187,-338 187,-319 123,-319"/>
<text text-anchor="middle" x="155" y="-326" font-family="Helvetica,sans-Serif" font-size="10.00">fplll/main.h</text>
</a>
</g>
</g>
<!-- Node2&#45;&gt;Node4 -->
<g id="edge3" class="edge"><title>Node2&#45;&gt;Node4</title>
<path fill="none" stroke="midnightblue" d="M327.967,-379.703C293.138,-371.177 240.862,-357.81 196,-344 190.227,-342.223 184.059,-340.141 178.305,-338.117"/>
<polygon fill="midnightblue" stroke="midnightblue" points="327.203,-383.119 337.747,-382.082 328.857,-376.318 327.203,-383.119"/>
</g>
<!-- Node6 -->
<g id="node6" class="node"><title>Node6</title>
<g id="a_node6"><a xlink:href="sampler__basic_8h.html" target="_top" xlink:title="fplll/sieve/sampler\l_basic.h">
<polygon fill="white" stroke="black" points="205.5,-313.5 205.5,-343.5 300.5,-343.5 300.5,-313.5 205.5,-313.5"/>
<text text-anchor="start" x="213.5" y="-331.5" font-family="Helvetica,sans-Serif" font-size="10.00">fplll/sieve/sampler</text>
<text text-anchor="middle" x="253" y="-320.5" font-family="Helvetica,sans-Serif" font-size="10.00">_basic.h</text>
</a>
</g>
</g>
<!-- Node2&#45;&gt;Node6 -->
<g id="edge5" class="edge"><title>Node2&#45;&gt;Node6</title>
<path fill="none" stroke="midnightblue" d="M341.722,-375.807C323.369,-366.228 298.578,-353.289 279.868,-343.523"/>
<polygon fill="midnightblue" stroke="midnightblue" points="340.182,-378.951 350.667,-380.475 343.421,-372.745 340.182,-378.951"/>
</g>
<!-- Node9 -->
<g id="node9" class="node"><title>Node9</title>
<g id="a_node9"><a xlink:href="sieve__common_8h.html" target="_top" xlink:title="fplll/sieve/sieve_common.h">
<polygon fill="white" stroke="black" points="318.5,-252 318.5,-271 453.5,-271 453.5,-252 318.5,-252"/>
<text text-anchor="middle" x="386" y="-259" font-family="Helvetica,sans-Serif" font-size="10.00">fplll/sieve/sieve_common.h</text>
</a>
</g>
</g>
<!-- Node2&#45;&gt;Node9 -->
<g id="edge22" class="edge"><title>Node2&#45;&gt;Node9</title>
<path fill="none" stroke="midnightblue" d="M356.982,-371.447C349.435,-355.899 341.422,-332.681 348,-313 353.634,-296.142 367.355,-280.397 376.671,-271.107"/>
<polygon fill="midnightblue" stroke="midnightblue" points="353.962,-373.223 361.717,-380.442 360.156,-369.963 353.962,-373.223"/>
</g>
<!-- Node18 -->
<g id="node18" class="node"><title>Node18</title>
<g id="a_node18"><a xlink:href="test__bkz_8cpp.html" target="_top" xlink:title="tests/test_bkz.cpp">
<polygon fill="white" stroke="black" points="357,-319 357,-338 455,-338 455,-319 357,-319"/>
<text text-anchor="middle" x="406" y="-326" font-family="Helvetica,sans-Serif" font-size="10.00">tests/test_bkz.cpp</text>
</a>
</g>
</g>
<!-- Node2&#45;&gt;Node18 -->
<g id="edge23" class="edge"><title>Node2&#45;&gt;Node18</title>
<path fill="none" stroke="midnightblue" d="M378.14,-372.005C385.426,-360.888 394.635,-346.84 400.423,-338.009"/>
<polygon fill="midnightblue" stroke="midnightblue" points="375.143,-370.193 372.588,-380.475 380.997,-374.03 375.143,-370.193"/>
</g>
<!-- Node19 -->
<g id="node19" class="node"><title>Node19</title>
<g id="a_node19"><a xlink:href="test__lll_8cpp.html" target="_top" xlink:title="tests/test_lll.cpp">
<polygon fill="white" stroke="black" points="472.5,-319 472.5,-338 561.5,-338 561.5,-319 472.5,-319"/>
<text text-anchor="middle" x="517" y="-326" font-family="Helvetica,sans-Serif" font-size="10.00">tests/test_lll.cpp</text>
</a>
</g>
</g>
<!-- Node2&#45;&gt;Node19 -->
<g id="edge24" class="edge"><title>Node2&#45;&gt;Node19</title>
<path fill="none" stroke="midnightblue" d="M397.801,-376.782C426.95,-365.22 469.948,-348.164 495.549,-338.009"/>
<polygon fill="midnightblue" stroke="midnightblue" points="396.496,-373.534 388.491,-380.475 399.077,-380.041 396.496,-373.534"/>
</g>
<!-- Node20 -->
<g id="node20" class="node"><title>Node20</title>
<g id="a_node20"><a xlink:href="test__nr_8cpp.html" target="_top" xlink:title="tests/test_nr.cpp">
<polygon fill="white" stroke="black" points="580,-319 580,-338 670,-338 670,-319 580,-319"/>
<text text-anchor="middle" x="625" y="-326" font-family="Helvetica,sans-Serif" font-size="10.00">tests/test_nr.cpp</text>
</a>
</g>
</g>
<!-- Node2&#45;&gt;Node20 -->
<g id="edge25" class="edge"><title>Node2&#45;&gt;Node20</title>
<path fill="none" stroke="midnightblue" d="M406.039,-380.936C447.189,-372.309 513.838,-357.972 571,-344 578.544,-342.156 586.646,-340.049 594.221,-338.022"/>
<polygon fill="midnightblue" stroke="midnightblue" points="405.221,-377.532 396.148,-383.003 406.653,-384.384 405.221,-377.532"/>
</g>
<!-- Node21 -->
<g id="node21" class="node"><title>Node21</title>
<g id="a_node21"><a xlink:href="test__pruner_8cpp.html" target="_top" xlink:title="tests/test_pruner.cpp">
<polygon fill="white" stroke="black" points="688.5,-319 688.5,-338 797.5,-338 797.5,-319 688.5,-319"/>
<text text-anchor="middle" x="743" y="-326" font-family="Helvetica,sans-Serif" font-size="10.00">tests/test_pruner.cpp</text>
</a>
</g>
</g>
<!-- Node2&#45;&gt;Node21 -->
<g id="edge26" class="edge"><title>Node2&#45;&gt;Node21</title>
<path fill="none" stroke="midnightblue" d="M406.443,-384.333C465.802,-377.079 581.531,-362.041 679,-344 688.298,-342.279 698.294,-340.15 707.559,-338.058"/>
<polygon fill="midnightblue" stroke="midnightblue" points="405.883,-380.875 396.377,-385.555 406.726,-387.824 405.883,-380.875"/>
</g>
<!-- Node22 -->
<g id="node22" class="node"><title>Node22</title>
<g id="a_node22"><a xlink:href="test__svp_8cpp.html" target="_top" xlink:title="tests/test_svp.cpp">
<polygon fill="white" stroke="black" points="816,-319 816,-338 914,-338 914,-319 816,-319"/>
<text text-anchor="middle" x="865" y="-326" font-family="Helvetica,sans-Serif" font-size="10.00">tests/test_svp.cpp</text>
</a>
</g>
</g>
<!-- Node2&#45;&gt;Node22 -->
<g id="edge27" class="edge"><title>Node2&#45;&gt;Node22</title>
<path fill="none" stroke="midnightblue" d="M406.246,-386.875C483.461,-382.28 660.358,-369.693 807,-344 815.997,-342.424 825.662,-340.218 834.473,-338.001"/>
<polygon fill="midnightblue" stroke="midnightblue" points="405.805,-383.395 396.026,-387.471 406.213,-390.383 405.805,-383.395"/>
</g>
<!-- Node5 -->
<g id="node5" class="node"><title>Node5</title>
<g id="a_node5"><a xlink:href="main_8cpp.html" target="_top" xlink:title="fplll/main.cpp">
<polygon fill="white" stroke="black" points="0,-252 0,-271 74,-271 74,-252 0,-252"/>
<text text-anchor="middle" x="37" y="-259" font-family="Helvetica,sans-Serif" font-size="10.00">fplll/main.cpp</text>
</a>
</g>
</g>
<!-- Node4&#45;&gt;Node5 -->
<g id="edge4" class="edge"><title>Node4&#45;&gt;Node5</title>
<path fill="none" stroke="midnightblue" d="M130.106,-313.787C106.719,-300.905 72.4441,-282.024 52.6619,-271.127"/>
<polygon fill="midnightblue" stroke="midnightblue" points="128.638,-316.975 139.086,-318.734 132.016,-310.843 128.638,-316.975"/>
</g>
<!-- Node7 -->
<g id="node7" class="node"><title>Node7</title>
<g id="a_node7"><a xlink:href="sampler__basic_8cpp.html" target="_top" xlink:title="fplll/sieve/sampler\l_basic.cpp">
<polygon fill="white" stroke="black" points="92.5,-246.5 92.5,-276.5 187.5,-276.5 187.5,-246.5 92.5,-246.5"/>
<text text-anchor="start" x="100.5" y="-264.5" font-family="Helvetica,sans-Serif" font-size="10.00">fplll/sieve/sampler</text>
<text text-anchor="middle" x="140" y="-253.5" font-family="Helvetica,sans-Serif" font-size="10.00">_basic.cpp</text>
</a>
</g>
</g>
<!-- Node6&#45;&gt;Node7 -->
<g id="edge6" class="edge"><title>Node6&#45;&gt;Node7</title>
<path fill="none" stroke="midnightblue" d="M219.614,-308.296C201.932,-298.125 180.602,-285.855 164.471,-276.577"/>
<polygon fill="midnightblue" stroke="midnightblue" points="218.067,-311.444 228.481,-313.396 221.558,-305.376 218.067,-311.444"/>
</g>
<!-- Node8 -->
<g id="node8" class="node"><title>Node8</title>
<g id="a_node8"><a xlink:href="sampler__main_8cpp.html" target="_top" xlink:title="fplll/sieve/sampler\l_main.cpp">
<polygon fill="white" stroke="black" points="205.5,-246.5 205.5,-276.5 300.5,-276.5 300.5,-246.5 205.5,-246.5"/>
<text text-anchor="start" x="213.5" y="-264.5" font-family="Helvetica,sans-Serif" font-size="10.00">fplll/sieve/sampler</text>
<text text-anchor="middle" x="253" y="-253.5" font-family="Helvetica,sans-Serif" font-size="10.00">_main.cpp</text>
</a>
</g>
</g>
<!-- Node6&#45;&gt;Node8 -->
<g id="edge7" class="edge"><title>Node6&#45;&gt;Node8</title>
<path fill="none" stroke="midnightblue" d="M253,-303.108C253,-294.154 253,-284.323 253,-276.577"/>
<polygon fill="midnightblue" stroke="midnightblue" points="249.5,-303.396 253,-313.396 256.5,-303.396 249.5,-303.396"/>
</g>
<!-- Node6&#45;&gt;Node9 -->
<g id="edge8" class="edge"><title>Node6&#45;&gt;Node9</title>
<path fill="none" stroke="midnightblue" d="M290.921,-308.967C316.47,-296.481 348.969,-280.598 368.593,-271.007"/>
<polygon fill="midnightblue" stroke="midnightblue" points="289.307,-305.86 281.859,-313.396 292.38,-312.15 289.307,-305.86"/>
</g>
<!-- Node10 -->
<g id="node10" class="node"><title>Node10</title>
<g id="a_node10"><a xlink:href="sieve__gauss__str_8h.html" target="_top" xlink:title="fplll/sieve/sieve_gauss\l_str.h">
<polygon fill="white" stroke="black" points="328,-179.5 328,-209.5 444,-209.5 444,-179.5 328,-179.5"/>
<text text-anchor="start" x="336" y="-197.5" font-family="Helvetica,sans-Serif" font-size="10.00">fplll/sieve/sieve_gauss</text>
<text text-anchor="middle" x="386" y="-186.5" font-family="Helvetica,sans-Serif" font-size="10.00">_str.h</text>
</a>
</g>
</g>
<!-- Node9&#45;&gt;Node10 -->
<g id="edge9" class="edge"><title>Node9&#45;&gt;Node10</title>
<path fill="none" stroke="midnightblue" d="M379.817,-241.739C378.919,-231.487 379.088,-219.001 380.324,-209.589"/>
<polygon fill="midnightblue" stroke="midnightblue" points="376.364,-242.313 381.211,-251.734 383.297,-241.346 376.364,-242.313"/>
</g>
<!-- Node11 -->
<g id="node11" class="node"><title>Node11</title>
<g id="a_node11"><a xlink:href="sieve__gauss_8h.html" target="_top" xlink:title="fplll/sieve/sieve_gauss.h">
<polygon fill="white" stroke="black" points="367,-123.5 367,-142.5 491,-142.5 491,-123.5 367,-123.5"/>
<text text-anchor="middle" x="429" y="-130.5" font-family="Helvetica,sans-Serif" font-size="10.00">fplll/sieve/sieve_gauss.h</text>
</a>
</g>
</g>
<!-- Node9&#45;&gt;Node11 -->
<g id="edge21" class="edge"><title>Node9&#45;&gt;Node11</title>
<path fill="none" stroke="midnightblue" d="M414.689,-246.933C429.005,-238.492 444.95,-226.147 453,-210 464.482,-186.967 446.61,-157.284 435.977,-142.773"/>
<polygon fill="midnightblue" stroke="midnightblue" points="412.695,-244.034 405.615,-251.917 416.065,-250.17 412.695,-244.034"/>
</g>
<!-- Node10&#45;&gt;Node9 -->
<g id="edge10" class="edge"><title>Node10&#45;&gt;Node9</title>
<path fill="none" stroke="midnightblue" d="M392.551,-219.714C393.1,-230.923 392.513,-243.541 390.789,-251.734"/>
<polygon fill="midnightblue" stroke="midnightblue" points="396.024,-219.251 391.676,-209.589 389.05,-219.853 396.024,-219.251"/>
</g>
<!-- Node10&#45;&gt;Node11 -->
<g id="edge11" class="edge"><title>Node10&#45;&gt;Node11</title>
<path fill="none" stroke="midnightblue" d="M402.185,-171.104C409.352,-161.187 417.36,-150.106 422.743,-142.658"/>
<polygon fill="midnightblue" stroke="midnightblue" points="399.211,-169.244 396.19,-179.399 404.885,-173.344 399.211,-169.244"/>
</g>
<!-- Node12 -->
<g id="node12" class="node"><title>Node12</title>
<g id="a_node12"><a xlink:href="sieve__gauss_8cpp.html" target="_top" xlink:title="fplll/sieve/sieve_gauss.cpp">
<polygon fill="white" stroke="black" points="295,-0.5 295,-19.5 429,-19.5 429,-0.5 295,-0.5"/>
<text text-anchor="middle" x="362" y="-7.5" font-family="Helvetica,sans-Serif" font-size="10.00">fplll/sieve/sieve_gauss.cpp</text>
</a>
</g>
</g>
<!-- Node11&#45;&gt;Node12 -->
<g id="edge12" class="edge"><title>Node11&#45;&gt;Node12</title>
<path fill="none" stroke="midnightblue" d="M356.884,-125.287C306.002,-118.884 244.137,-107.149 228,-87 200.08,-52.1379 265.611,-30.4179 314.55,-19.5294"/>
<polygon fill="midnightblue" stroke="midnightblue" points="356.55,-128.771 366.897,-126.497 357.39,-121.822 356.55,-128.771"/>
</g>
<!-- Node13 -->
<g id="node13" class="node"><title>Node13</title>
<g id="a_node13"><a xlink:href="sieve__gauss__2sieve_8cpp.html" target="_top" xlink:title="fplll/sieve/sieve_gauss\l_2sieve.cpp">
<polygon fill="white" stroke="black" points="237,-56.5 237,-86.5 353,-86.5 353,-56.5 237,-56.5"/>
<text text-anchor="start" x="245" y="-74.5" font-family="Helvetica,sans-Serif" font-size="10.00">fplll/sieve/sieve_gauss</text>
<text text-anchor="middle" x="295" y="-63.5" font-family="Helvetica,sans-Serif" font-size="10.00">_2sieve.cpp</text>
</a>
</g>
</g>
<!-- Node11&#45;&gt;Node13 -->
<g id="edge13" class="edge"><title>Node11&#45;&gt;Node13</title>
<path fill="none" stroke="midnightblue" d="M400.467,-119.331C378.787,-109.704 348.978,-96.468 326.581,-86.523"/>
<polygon fill="midnightblue" stroke="midnightblue" points="399.241,-122.616 409.801,-123.475 402.082,-116.218 399.241,-122.616"/>
</g>
<!-- Node14 -->
<g id="node14" class="node"><title>Node14</title>
<g id="a_node14"><a xlink:href="sieve__gauss__3sieve_8cpp.html" target="_top" xlink:title="fplll/sieve/sieve_gauss\l_3sieve.cpp">
<polygon fill="white" stroke="black" points="371,-56.5 371,-86.5 487,-86.5 487,-56.5 371,-56.5"/>
<text text-anchor="start" x="379" y="-74.5" font-family="Helvetica,sans-Serif" font-size="10.00">fplll/sieve/sieve_gauss</text>
<text text-anchor="middle" x="429" y="-63.5" font-family="Helvetica,sans-Serif" font-size="10.00">_3sieve.cpp</text>
</a>
</g>
</g>
<!-- Node11&#45;&gt;Node14 -->
<g id="edge15" class="edge"><title>Node11&#45;&gt;Node14</title>
<path fill="none" stroke="midnightblue" d="M429,-113.235C429,-104.586 429,-94.4969 429,-86.523"/>
<polygon fill="midnightblue" stroke="midnightblue" points="425.5,-113.475 429,-123.475 432.5,-113.475 425.5,-113.475"/>
</g>
<!-- Node15 -->
<g id="node15" class="node"><title>Node15</title>
<g id="a_node15"><a xlink:href="sieve__gauss__4sieve_8cpp.html" target="_top" xlink:title="fplll/sieve/sieve_gauss\l_4sieve.cpp">
<polygon fill="white" stroke="black" points="505,-56.5 505,-86.5 621,-86.5 621,-56.5 505,-56.5"/>
<text text-anchor="start" x="513" y="-74.5" font-family="Helvetica,sans-Serif" font-size="10.00">fplll/sieve/sieve_gauss</text>
<text text-anchor="middle" x="563" y="-63.5" font-family="Helvetica,sans-Serif" font-size="10.00">_4sieve.cpp</text>
</a>
</g>
</g>
<!-- Node11&#45;&gt;Node15 -->
<g id="edge17" class="edge"><title>Node11&#45;&gt;Node15</title>
<path fill="none" stroke="midnightblue" d="M457.533,-119.331C479.213,-109.704 509.022,-96.468 531.419,-86.523"/>
<polygon fill="midnightblue" stroke="midnightblue" points="455.918,-116.218 448.199,-123.475 458.759,-122.616 455.918,-116.218"/>
</g>
<!-- Node16 -->
<g id="node16" class="node"><title>Node16</title>
<g id="a_node16"><a xlink:href="sieve__main_8h.html" target="_top" xlink:title="fplll/sieve/sieve_main.h">
<polygon fill="white" stroke="black" points="639.5,-62 639.5,-81 758.5,-81 758.5,-62 639.5,-62"/>
<text text-anchor="middle" x="699" y="-69" font-family="Helvetica,sans-Serif" font-size="10.00">fplll/sieve/sieve_main.h</text>
</a>
</g>
</g>
<!-- Node11&#45;&gt;Node16 -->
<g id="edge19" class="edge"><title>Node11&#45;&gt;Node16</title>
<path fill="none" stroke="midnightblue" d="M477.743,-121.258C530.12,-109.716 612.302,-91.6056 660.387,-81.0091"/>
<polygon fill="midnightblue" stroke="midnightblue" points="476.697,-117.905 467.684,-123.475 478.203,-124.741 476.697,-117.905"/>
</g>
<!-- Node13&#45;&gt;Node12 -->
<g id="edge14" class="edge"><title>Node13&#45;&gt;Node12</title>
<path fill="none" stroke="midnightblue" d="M318.538,-49.5972C330.116,-39.3153 343.44,-27.4824 352.251,-19.6578"/>
<polygon fill="midnightblue" stroke="midnightblue" points="316.031,-47.1421 310.878,-56.3993 320.679,-52.3761 316.031,-47.1421"/>
</g>
<!-- Node14&#45;&gt;Node12 -->
<g id="edge16" class="edge"><title>Node14&#45;&gt;Node12</title>
<path fill="none" stroke="midnightblue" d="M405.462,-49.5972C393.884,-39.3153 380.56,-27.4824 371.749,-19.6578"/>
<polygon fill="midnightblue" stroke="midnightblue" points="403.321,-52.3761 413.122,-56.3993 407.969,-47.1421 403.321,-52.3761"/>
</g>
<!-- Node15&#45;&gt;Node12 -->
<g id="edge18" class="edge"><title>Node15&#45;&gt;Node12</title>
<path fill="none" stroke="midnightblue" d="M505.802,-53.5681C468.209,-42.44 420.622,-28.3534 390.736,-19.5064"/>
<polygon fill="midnightblue" stroke="midnightblue" points="505.038,-56.9922 515.62,-56.4747 507.025,-50.2801 505.038,-56.9922"/>
</g>
<!-- Node17 -->
<g id="node17" class="node"><title>Node17</title>
<g id="a_node17"><a xlink:href="sieve__main_8cpp.html" target="_top" xlink:title="fplll/sieve/sieve_main.cpp">
<polygon fill="white" stroke="black" points="634.5,-0.5 634.5,-19.5 763.5,-19.5 763.5,-0.5 634.5,-0.5"/>
<text text-anchor="middle" x="699" y="-7.5" font-family="Helvetica,sans-Serif" font-size="10.00">fplll/sieve/sieve_main.cpp</text>
</a>
</g>
</g>
<!-- Node16&#45;&gt;Node17 -->
<g id="edge20" class="edge"><title>Node16&#45;&gt;Node17</title>
<path fill="none" stroke="midnightblue" d="M699,-51.8165C699,-40.9962 699,-27.898 699,-19.5091"/>
<polygon fill="midnightblue" stroke="midnightblue" points="695.5,-51.9751 699,-61.9751 702.5,-51.9751 695.5,-51.9751"/>
</g>
<!-- Node23&#45;&gt;Node3 -->
<g id="edge29" class="edge"><title>Node23&#45;&gt;Node3</title>
<path fill="none" stroke="midnightblue" d="M166.387,-376.021C142.727,-364.482 108.817,-347.943 88.4472,-338.009"/>
<polygon fill="midnightblue" stroke="midnightblue" points="164.998,-379.237 175.52,-380.475 168.067,-372.946 164.998,-379.237"/>
</g>
</g>
</svg>
