<?xml version="1.0" encoding="UTF-8" standalone="no"?>
<!DOCTYPE svg PUBLIC "-//W3C//DTD SVG 1.1//EN"
 "http://www.w3.org/Graphics/SVG/1.1/DTD/svg11.dtd">
<!-- Generated by graphviz version 2.40.1 (20161225.0304)
 -->
<!-- Title: fplll/svpcvp.h Pages: 1 -->
<svg width="1927pt" height="207pt"
 viewBox="0.00 0.00 1927.00 207.00" xmlns="http://www.w3.org/2000/svg" xmlns:xlink="http://www.w3.org/1999/xlink">
<g id="graph0" class="graph" transform="scale(1 1) rotate(0) translate(4 203)">
<title>fplll/svpcvp.h</title>
<polygon fill="#ffffff" stroke="transparent" points="-4,4 -4,-203 1923,-203 1923,4 -4,4"/>
<!-- Node0 -->
<g id="node1" class="node">
<title>Node0</title>
<polygon fill="#bfbfbf" stroke="#000000" points="489,-179.5 489,-198.5 563,-198.5 563,-179.5 489,-179.5"/>
<text text-anchor="middle" x="526" y="-186.5" font-family="Helvetica,sans-Serif" font-size="10.00" fill="#000000">fplll/svpcvp.h</text>
</g>
<!-- Node1 -->
<g id="node2" class="node">
<title>Node1</title>
<g id="a_node2"><a xlink:href="fplll_8h.html" target="_top" xlink:title="fplll/fplll.h">
<polygon fill="#ffffff" stroke="#000000" points="970,-123.5 970,-142.5 1028,-142.5 1028,-123.5 970,-123.5"/>
<text text-anchor="middle" x="999" y="-130.5" font-family="Helvetica,sans-Serif" font-size="10.00" fill="#000000">fplll/fplll.h</text>
</a>
</g>
</g>
<!-- Node0&#45;&gt;Node1 -->
<g id="edge1" class="edge">
<title>Node0&#45;&gt;Node1</title>
<path fill="none" stroke="#191970" d="M573.2428,-183.4068C670.4798,-171.8946 890.5144,-145.844 969.8187,-136.4549"/>
<polygon fill="#191970" stroke="#191970" points="572.6346,-179.9542 563.1155,-184.6058 573.4577,-186.9057 572.6346,-179.9542"/>
</g>
<!-- Node27 -->
<g id="node28" class="node">
<title>Node27</title>
<g id="a_node28"><a xlink:href="svpcvp_8cpp.html" target="_top" xlink:title="fplll/svpcvp.cpp">
<polygon fill="#ffffff" stroke="#000000" points="438.5,-123.5 438.5,-142.5 523.5,-142.5 523.5,-123.5 438.5,-123.5"/>
<text text-anchor="middle" x="481" y="-130.5" font-family="Helvetica,sans-Serif" font-size="10.00" fill="#000000">fplll/svpcvp.cpp</text>
</a>
</g>
</g>
<!-- Node0&#45;&gt;Node27 -->
<g id="edge42" class="edge">
<title>Node0&#45;&gt;Node27</title>
<path fill="none" stroke="#191970" d="M511.7054,-171.2112C504.1004,-161.7472 495.0462,-150.4797 488.7486,-142.6427"/>
<polygon fill="#191970" stroke="#191970" points="509.1694,-173.6428 518.1616,-179.2455 514.6259,-169.2581 509.1694,-173.6428"/>
</g>
<!-- Node2 -->
<g id="node3" class="node">
<title>Node2</title>
<g id="a_node3"><a xlink:href="fplll_8cpp.html" target="_top" xlink:title="fplll/fplll.cpp">
<polygon fill="#ffffff" stroke="#000000" points="0,-62 0,-81 68,-81 68,-62 0,-62"/>
<text text-anchor="middle" x="34" y="-69" font-family="Helvetica,sans-Serif" font-size="10.00" fill="#000000">fplll/fplll.cpp</text>
</a>
</g>
</g>
<!-- Node1&#45;&gt;Node2 -->
<g id="edge2" class="edge">
<title>Node1&#45;&gt;Node2</title>
<path fill="none" stroke="#191970" d="M959.6228,-132.5825C806.3874,-130.7187 249.8311,-121.6585 77,-87 70.3087,-85.6582 63.2604,-83.4686 56.8501,-81.1524"/>
<polygon fill="#191970" stroke="#191970" points="959.9073,-136.086 969.948,-132.7045 959.9901,-129.0865 959.9073,-136.086"/>
</g>
<!-- Node3 -->
<g id="node4" class="node">
<title>Node3</title>
<g id="a_node4"><a xlink:href="main_8h.html" target="_top" xlink:title="fplll/main.h">
<polygon fill="#ffffff" stroke="#000000" points="1813,-62 1813,-81 1877,-81 1877,-62 1813,-62"/>
<text text-anchor="middle" x="1845" y="-69" font-family="Helvetica,sans-Serif" font-size="10.00" fill="#000000">fplll/main.h</text>
</a>
</g>
</g>
<!-- Node1&#45;&gt;Node3 -->
<g id="edge3" class="edge">
<title>Node1&#45;&gt;Node3</title>
<path fill="none" stroke="#191970" d="M1038.4132,-132.3177C1151.3535,-129.9978 1485.7163,-120.5798 1761,-87 1778.2229,-84.8991 1797.2487,-81.481 1812.832,-78.3884"/>
<polygon fill="#191970" stroke="#191970" points="1038.1127,-128.8229 1028.1842,-132.5206 1038.2517,-135.8215 1038.1127,-128.8229"/>
</g>
<!-- Node5 -->
<g id="node6" class="node">
<title>Node5</title>
<g id="a_node6"><a xlink:href="pruner_8cpp.html" target="_top" xlink:title="fplll/pruner/pruner.cpp">
<polygon fill="#ffffff" stroke="#000000" points="371,-.5 371,-19.5 481,-19.5 481,-.5 371,-.5"/>
<text text-anchor="middle" x="426" y="-7.5" font-family="Helvetica,sans-Serif" font-size="10.00" fill="#000000">fplll/pruner/pruner.cpp</text>
</a>
</g>
</g>
<!-- Node1&#45;&gt;Node5 -->
<g id="edge5" class="edge">
<title>Node1&#45;&gt;Node5</title>
<path fill="none" stroke="#191970" d="M959.5595,-132.3425C839.4519,-129.9838 483.9915,-120.2345 445,-87 425.1947,-70.1189 424.2771,-36.1942 425.1533,-19.5931"/>
<polygon fill="#191970" stroke="#191970" points="959.7115,-135.8459 969.7761,-132.5363 959.8444,-128.8472 959.7115,-135.8459"/>
</g>
<!-- Node6 -->
<g id="node7" class="node">
<title>Node6</title>
<g id="a_node7"><a xlink:href="pruner__cost_8cpp.html" target="_top" xlink:title="fplll/pruner/pruner\l_cost.cpp">
<polygon fill="#ffffff" stroke="#000000" points="454,-56.5 454,-86.5 546,-86.5 546,-56.5 454,-56.5"/>
<text text-anchor="start" x="462" y="-74.5" font-family="Helvetica,sans-Serif" font-size="10.00" fill="#000000">fplll/pruner/pruner</text>
<text text-anchor="middle" x="500" y="-63.5" font-family="Helvetica,sans-Serif" font-size="10.00" fill="#000000">_cost.cpp</text>
</a>
</g>
</g>
<!-- Node1&#45;&gt;Node6 -->
<g id="edge6" class="edge">
<title>Node1&#45;&gt;Node6</title>
<path fill="none" stroke="#191970" d="M959.6143,-131.1894C881.7265,-127.1105 702.7569,-115.258 555,-87 552.0768,-86.441 549.0834,-85.8001 546.0765,-85.1042"/>
<polygon fill="#191970" stroke="#191970" points="959.7549,-134.701 969.92,-131.7143 960.111,-127.7101 959.7549,-134.701"/>
</g>
<!-- Node7 -->
<g id="node8" class="node">
<title>Node7</title>
<g id="a_node8"><a xlink:href="pruner__optimize_8cpp.html" target="_top" xlink:title="fplll/pruner/pruner\l_optimize.cpp">
<polygon fill="#ffffff" stroke="#000000" points="822,-56.5 822,-86.5 914,-86.5 914,-56.5 822,-56.5"/>
<text text-anchor="start" x="830" y="-74.5" font-family="Helvetica,sans-Serif" font-size="10.00" fill="#000000">fplll/pruner/pruner</text>
<text text-anchor="middle" x="868" y="-63.5" font-family="Helvetica,sans-Serif" font-size="10.00" fill="#000000">_optimize.cpp</text>
</a>
</g>
</g>
<!-- Node1&#45;&gt;Node7 -->
<g id="edge8" class="edge">
<title>Node1&#45;&gt;Node7</title>
<path fill="none" stroke="#191970" d="M969.2933,-119.0537C948.6557,-109.3651 921.1763,-96.4644 900.0462,-86.5446"/>
<polygon fill="#191970" stroke="#191970" points="967.9917,-122.3092 978.5313,-123.3906 970.9665,-115.9727 967.9917,-122.3092"/>
</g>
<!-- Node8 -->
<g id="node9" class="node">
<title>Node8</title>
<g id="a_node9"><a xlink:href="pruner__optimize__tc_8cpp.html" target="_top" xlink:title="fplll/pruner/pruner\l_optimize_tc.cpp">
<polygon fill="#ffffff" stroke="#000000" points="712,-56.5 712,-86.5 804,-86.5 804,-56.5 712,-56.5"/>
<text text-anchor="start" x="720" y="-74.5" font-family="Helvetica,sans-Serif" font-size="10.00" fill="#000000">fplll/pruner/pruner</text>
<text text-anchor="middle" x="758" y="-63.5" font-family="Helvetica,sans-Serif" font-size="10.00" fill="#000000">_optimize_tc.cpp</text>
</a>
</g>
</g>
<!-- Node1&#45;&gt;Node8 -->
<g id="edge10" class="edge">
<title>Node1&#45;&gt;Node8</title>
<path fill="none" stroke="#191970" d="M959.8744,-123.7117C922.1705,-114.6695 863.5595,-100.3726 813,-87 810.1228,-86.239 807.1646,-85.4435 804.1839,-84.632"/>
<polygon fill="#191970" stroke="#191970" points="959.3904,-127.1947 969.9303,-126.1177 961.0192,-120.3868 959.3904,-127.1947"/>
</g>
<!-- Node9 -->
<g id="node10" class="node">
<title>Node9</title>
<g id="a_node10"><a xlink:href="pruner__optimize__tp_8cpp.html" target="_top" xlink:title="fplll/pruner/pruner\l_optimize_tp.cpp">
<polygon fill="#ffffff" stroke="#000000" points="86,-56.5 86,-86.5 178,-86.5 178,-56.5 86,-56.5"/>
<text text-anchor="start" x="94" y="-74.5" font-family="Helvetica,sans-Serif" font-size="10.00" fill="#000000">fplll/pruner/pruner</text>
<text text-anchor="middle" x="132" y="-63.5" font-family="Helvetica,sans-Serif" font-size="10.00" fill="#000000">_optimize_tp.cpp</text>
</a>
</g>
</g>
<!-- Node1&#45;&gt;Node9 -->
<g id="edge12" class="edge">
<title>Node1&#45;&gt;Node9</title>
<path fill="none" stroke="#191970" d="M959.3885,-131.9005C817.969,-127.7967 338.3385,-112.2998 187,-87 184.0646,-86.5093 181.0618,-85.9207 178.0478,-85.264"/>
<polygon fill="#191970" stroke="#191970" points="959.6444,-135.4092 969.7409,-132.198 959.8456,-128.4121 959.6444,-135.4092"/>
</g>
<!-- Node10 -->
<g id="node11" class="node">
<title>Node10</title>
<g id="a_node11"><a xlink:href="pruner__prob_8cpp.html" target="_top" xlink:title="fplll/pruner/pruner\l_prob.cpp">
<polygon fill="#ffffff" stroke="#000000" points="196,-56.5 196,-86.5 288,-86.5 288,-56.5 196,-56.5"/>
<text text-anchor="start" x="204" y="-74.5" font-family="Helvetica,sans-Serif" font-size="10.00" fill="#000000">fplll/pruner/pruner</text>
<text text-anchor="middle" x="242" y="-63.5" font-family="Helvetica,sans-Serif" font-size="10.00" fill="#000000">_prob.cpp</text>
</a>
</g>
</g>
<!-- Node1&#45;&gt;Node10 -->
<g id="edge14" class="edge">
<title>Node1&#45;&gt;Node10</title>
<path fill="none" stroke="#191970" d="M959.7624,-131.5111C831.593,-126.4779 426.0839,-109.1666 297,-87 294.0668,-86.4963 291.0657,-85.8978 288.053,-85.2336"/>
<polygon fill="#191970" stroke="#191970" points="959.7732,-135.0141 969.902,-131.9063 960.0459,-128.0194 959.7732,-135.0141"/>
</g>
<!-- Node11 -->
<g id="node12" class="node">
<title>Node11</title>
<g id="a_node12"><a xlink:href="pruner__util_8cpp.html" target="_top" xlink:title="fplll/pruner/pruner\l_util.cpp">
<polygon fill="#ffffff" stroke="#000000" points="306,-56.5 306,-86.5 398,-86.5 398,-56.5 306,-56.5"/>
<text text-anchor="start" x="314" y="-74.5" font-family="Helvetica,sans-Serif" font-size="10.00" fill="#000000">fplll/pruner/pruner</text>
<text text-anchor="middle" x="352" y="-63.5" font-family="Helvetica,sans-Serif" font-size="10.00" fill="#000000">_util.cpp</text>
</a>
</g>
</g>
<!-- Node1&#45;&gt;Node11 -->
<g id="edge16" class="edge">
<title>Node1&#45;&gt;Node11</title>
<path fill="none" stroke="#191970" d="M959.7709,-132.2861C865.0021,-130.0501 616.3256,-121.1292 412,-87 407.437,-86.2378 402.7141,-85.2944 398.0137,-84.2521"/>
<polygon fill="#191970" stroke="#191970" points="959.6935,-135.7851 969.7695,-132.5103 959.8505,-128.7869 959.6935,-135.7851"/>
</g>
<!-- Node12 -->
<g id="node13" class="node">
<title>Node12</title>
<g id="a_node13"><a xlink:href="sieve__main_8cpp.html" target="_top" xlink:title="fplll/sieve/sieve_main.cpp">
<polygon fill="#ffffff" stroke="#000000" points="564.5,-62 564.5,-81 693.5,-81 693.5,-62 564.5,-62"/>
<text text-anchor="middle" x="629" y="-69" font-family="Helvetica,sans-Serif" font-size="10.00" fill="#000000">fplll/sieve/sieve_main.cpp</text>
</a>
</g>
</g>
<!-- Node1&#45;&gt;Node12 -->
<g id="edge18" class="edge">
<title>Node1&#45;&gt;Node12</title>
<path fill="none" stroke="#191970" d="M959.9494,-127.5953C903.2167,-119.5929 794.7537,-103.727 703,-87 693.186,-85.2109 682.6771,-83.1179 672.7508,-81.0593"/>
<polygon fill="#191970" stroke="#191970" points="959.5353,-131.0714 969.925,-128.9964 960.509,-124.1395 959.5353,-131.0714"/>
</g>
<!-- Node13 -->
<g id="node14" class="node">
<title>Node13</title>
<g id="a_node14"><a xlink:href="test__bkz_8cpp.html" target="_top" xlink:title="tests/test_bkz.cpp">
<polygon fill="#ffffff" stroke="#000000" points="616,-.5 616,-19.5 714,-19.5 714,-.5 616,-.5"/>
<text text-anchor="middle" x="665" y="-7.5" font-family="Helvetica,sans-Serif" font-size="10.00" fill="#000000">tests/test_bkz.cpp</text>
</a>
</g>
</g>
<!-- Node1&#45;&gt;Node13 -->
<g id="edge19" class="edge">
<title>Node1&#45;&gt;Node13</title>
<path fill="none" stroke="#191970" d="M983.0645,-115.7842C962.9986,-94.2778 930.2598,-59.8183 923,-56 920.6846,-54.7822 788.4144,-31.5513 714.1955,-18.5803"/>
<polygon fill="#191970" stroke="#191970" points="980.6821,-118.3619 990.0549,-123.3016 985.8083,-113.5951 980.6821,-118.3619"/>
</g>
<!-- Node14 -->
<g id="node15" class="node">
<title>Node14</title>
<g id="a_node15"><a xlink:href="test__bkz__gram_8cpp.html" target="_top" xlink:title="tests/test_bkz_gram.cpp">
<polygon fill="#ffffff" stroke="#000000" points="732.5,-.5 732.5,-19.5 857.5,-19.5 857.5,-.5 732.5,-.5"/>
<text text-anchor="middle" x="795" y="-7.5" font-family="Helvetica,sans-Serif" font-size="10.00" fill="#000000">tests/test_bkz_gram.cpp</text>
</a>
</g>
</g>
<!-- Node1&#45;&gt;Node14 -->
<g id="edge20" class="edge">
<title>Node1&#45;&gt;Node14</title>
<path fill="none" stroke="#191970" d="M992.9745,-113.6148C986.5477,-96.078 974.6861,-70.801 956,-56 938.5106,-42.1469 884.1103,-28.3682 843.3513,-19.5554"/>
<polygon fill="#191970" stroke="#191970" points="989.7575,-115.0265 996.2862,-123.3708 996.386,-112.7764 989.7575,-115.0265"/>
</g>
<!-- Node15 -->
<g id="node16" class="node">
<title>Node15</title>
<g id="a_node16"><a xlink:href="test__cvp_8cpp.html" target="_top" xlink:title="tests/test_cvp.cpp">
<polygon fill="#ffffff" stroke="#000000" points="876,-.5 876,-19.5 974,-19.5 974,-.5 876,-.5"/>
<text text-anchor="middle" x="925" y="-7.5" font-family="Helvetica,sans-Serif" font-size="10.00" fill="#000000">tests/test_cvp.cpp</text>
</a>
</g>
</g>
<!-- Node1&#45;&gt;Node15 -->
<g id="edge21" class="edge">
<title>Node1&#45;&gt;Node15</title>
<path fill="none" stroke="#191970" d="M1002.3251,-113.113C1004.04,-96.689 1004.0175,-73.342 994,-56 984.1342,-38.9206 965.0668,-26.9474 949.4719,-19.5067"/>
<polygon fill="#191970" stroke="#191970" points="998.8303,-112.8404 1000.9617,-123.2186 1005.7674,-113.7764 998.8303,-112.8404"/>
</g>
<!-- Node16 -->
<g id="node17" class="node">
<title>Node16</title>
<g id="a_node17"><a xlink:href="test__enum_8cpp.html" target="_top" xlink:title="tests/test_enum.cpp">
<polygon fill="#ffffff" stroke="#000000" points="1306,-62 1306,-81 1412,-81 1412,-62 1306,-62"/>
<text text-anchor="middle" x="1359" y="-69" font-family="Helvetica,sans-Serif" font-size="10.00" fill="#000000">tests/test_enum.cpp</text>
</a>
</g>
</g>
<!-- Node1&#45;&gt;Node16 -->
<g id="edge22" class="edge">
<title>Node1&#45;&gt;Node16</title>
<path fill="none" stroke="#191970" d="M1038.144,-127.7635C1094.4778,-120.0216 1201.5835,-104.5328 1292,-87 1301.025,-85.2499 1310.6824,-83.1504 1319.7752,-81.0699"/>
<polygon fill="#191970" stroke="#191970" points="1037.6658,-124.2963 1028.2316,-129.1177 1038.6134,-131.2318 1037.6658,-124.2963"/>
</g>
<!-- Node17 -->
<g id="node18" class="node">
<title>Node17</title>
<g id="a_node18"><a xlink:href="test__hlll_8cpp.html" target="_top" xlink:title="tests/test_hlll.cpp">
<polygon fill="#ffffff" stroke="#000000" points="992,-.5 992,-19.5 1086,-19.5 1086,-.5 992,-.5"/>
<text text-anchor="middle" x="1039" y="-7.5" font-family="Helvetica,sans-Serif" font-size="10.00" fill="#000000">tests/test_hlll.cpp</text>
</a>
</g>
</g>
<!-- Node1&#45;&gt;Node17 -->
<g id="edge23" class="edge">
<title>Node1&#45;&gt;Node17</title>
<path fill="none" stroke="#191970" d="M1014.7913,-115.6779C1021.2631,-107.5566 1028.1306,-97.3908 1032,-87 1040.5256,-64.1057 1040.4669,-34.846 1039.7206,-19.8432"/>
<polygon fill="#191970" stroke="#191970" points="1012.1113,-113.4267 1008.3324,-123.3247 1017.459,-117.9436 1012.1113,-113.4267"/>
</g>
<!-- Node18 -->
<g id="node19" class="node">
<title>Node18</title>
<g id="a_node19"><a xlink:href="test__lll_8cpp.html" target="_top" xlink:title="tests/test_lll.cpp">
<polygon fill="#ffffff" stroke="#000000" points="1104.5,-.5 1104.5,-19.5 1193.5,-19.5 1193.5,-.5 1104.5,-.5"/>
<text text-anchor="middle" x="1149" y="-7.5" font-family="Helvetica,sans-Serif" font-size="10.00" fill="#000000">tests/test_lll.cpp</text>
</a>
</g>
</g>
<!-- Node1&#45;&gt;Node18 -->
<g id="edge24" class="edge">
<title>Node1&#45;&gt;Node18</title>
<path fill="none" stroke="#191970" d="M1018.8859,-116.6935C1050.6119,-90.6783 1111.7044,-40.5824 1137.2844,-19.6068"/>
<polygon fill="#191970" stroke="#191970" points="1016.2837,-114.3011 1010.7702,-123.3484 1020.7222,-119.714 1016.2837,-114.3011"/>
</g>
<!-- Node19 -->
<g id="node20" class="node">
<title>Node19</title>
<g id="a_node20"><a xlink:href="test__lll__gram_8cpp.html" target="_top" xlink:title="tests/test_lll_gram.cpp">
<polygon fill="#ffffff" stroke="#000000" points="1327,-.5 1327,-19.5 1443,-19.5 1443,-.5 1327,-.5"/>
<text text-anchor="middle" x="1385" y="-7.5" font-family="Helvetica,sans-Serif" font-size="10.00" fill="#000000">tests/test_lll_gram.cpp</text>
</a>
</g>
</g>
<!-- Node1&#45;&gt;Node19 -->
<g id="edge25" class="edge">
<title>Node1&#45;&gt;Node19</title>
<path fill="none" stroke="#191970" d="M1038.044,-129.7159C1083.3735,-124.8214 1159.6324,-113.2012 1220,-87 1241.9439,-77.4757 1242.8766,-67.2271 1264,-56 1293.0727,-40.5478 1328.4968,-27.7167 1353.482,-19.5671"/>
<polygon fill="#191970" stroke="#191970" points="1037.6277,-126.2401 1028.0364,-130.7409 1038.341,-133.2037 1037.6277,-126.2401"/>
</g>
<!-- Node20 -->
<g id="node21" class="node">
<title>Node20</title>
<g id="a_node21"><a xlink:href="test__nr_8cpp.html" target="_top" xlink:title="tests/test_nr.cpp">
<polygon fill="#ffffff" stroke="#000000" points="1430,-62 1430,-81 1520,-81 1520,-62 1430,-62"/>
<text text-anchor="middle" x="1475" y="-69" font-family="Helvetica,sans-Serif" font-size="10.00" fill="#000000">tests/test_nr.cpp</text>
</a>
</g>
</g>
<!-- Node1&#45;&gt;Node20 -->
<g id="edge26" class="edge">
<title>Node1&#45;&gt;Node20</title>
<path fill="none" stroke="#191970" d="M1038.5602,-130.9487C1113.6903,-126.5553 1281.944,-114.3276 1421,-87 1428.9435,-85.4389 1437.4125,-83.2608 1445.2313,-81.0298"/>
<polygon fill="#191970" stroke="#191970" points="1037.9504,-127.4777 1028.1657,-131.541 1038.3486,-134.4664 1037.9504,-127.4777"/>
</g>
<!-- Node21 -->
<g id="node22" class="node">
<title>Node21</title>
<g id="a_node22"><a xlink:href="test__pruner_8cpp.html" target="_top" xlink:title="tests/test_pruner.cpp">
<polygon fill="#ffffff" stroke="#000000" points="1538.5,-62 1538.5,-81 1647.5,-81 1647.5,-62 1538.5,-62"/>
<text text-anchor="middle" x="1593" y="-69" font-family="Helvetica,sans-Serif" font-size="10.00" fill="#000000">tests/test_pruner.cpp</text>
</a>
</g>
</g>
<!-- Node1&#45;&gt;Node21 -->
<g id="edge27" class="edge">
<title>Node1&#45;&gt;Node21</title>
<path fill="none" stroke="#191970" d="M1038.3017,-131.6196C1126.565,-128.0771 1347.0347,-116.7565 1529,-87 1538.3644,-85.4686 1548.3842,-83.301 1557.6499,-81.0705"/>
<polygon fill="#191970" stroke="#191970" points="1038.0606,-128.1263 1028.2048,-132.0138 1038.3337,-135.121 1038.0606,-128.1263"/>
</g>
<!-- Node22 -->
<g id="node23" class="node">
<title>Node22</title>
<g id="a_node23"><a xlink:href="test__sieve_8cpp.html" target="_top" xlink:title="tests/test_sieve.cpp">
<polygon fill="#ffffff" stroke="#000000" points="1461.5,-.5 1461.5,-19.5 1566.5,-19.5 1566.5,-.5 1461.5,-.5"/>
<text text-anchor="middle" x="1514" y="-7.5" font-family="Helvetica,sans-Serif" font-size="10.00" fill="#000000">tests/test_sieve.cpp</text>
</a>
</g>
</g>
<!-- Node1&#45;&gt;Node22 -->
<g id="edge28" class="edge">
<title>Node1&#45;&gt;Node22</title>
<path fill="none" stroke="#191970" d="M1038.1928,-128.2602C1100.1218,-120.3913 1217.5267,-103.8248 1256,-87 1276.9307,-77.8468 1276.2174,-65.4846 1297,-56 1325.7285,-42.8891 1406.7055,-27.6981 1461.1974,-18.4729"/>
<polygon fill="#191970" stroke="#191970" points="1037.5136,-124.8179 1028.0278,-129.5369 1038.386,-131.7634 1037.5136,-124.8179"/>
</g>
<!-- Node23 -->
<g id="node24" class="node">
<title>Node23</title>
<g id="a_node24"><a xlink:href="test__svp_8cpp.html" target="_top" xlink:title="tests/test_svp.cpp">
<polygon fill="#ffffff" stroke="#000000" points="1585,-.5 1585,-19.5 1683,-19.5 1683,-.5 1585,-.5"/>
<text text-anchor="middle" x="1634" y="-7.5" font-family="Helvetica,sans-Serif" font-size="10.00" fill="#000000">tests/test_svp.cpp</text>
</a>
</g>
</g>
<!-- Node1&#45;&gt;Node23 -->
<g id="edge29" class="edge">
<title>Node1&#45;&gt;Node23</title>
<path fill="none" stroke="#191970" d="M1038.5048,-131.7104C1177.3605,-126.9886 1635.8062,-109.7271 1657,-87 1674.7933,-67.9194 1654.3192,-35.6284 1641.9898,-19.6076"/>
<polygon fill="#191970" stroke="#191970" points="1038.1929,-128.2188 1028.3165,-132.0537 1038.4288,-135.2148 1038.1929,-128.2188"/>
</g>
<!-- Node24 -->
<g id="node25" class="node">
<title>Node24</title>
<g id="a_node25"><a xlink:href="test__svp__gram_8cpp.html" target="_top" xlink:title="tests/test_svp_gram.cpp">
<polygon fill="#ffffff" stroke="#000000" points="1701.5,-.5 1701.5,-19.5 1826.5,-19.5 1826.5,-.5 1701.5,-.5"/>
<text text-anchor="middle" x="1764" y="-7.5" font-family="Helvetica,sans-Serif" font-size="10.00" fill="#000000">tests/test_svp_gram.cpp</text>
</a>
</g>
</g>
<!-- Node1&#45;&gt;Node24 -->
<g id="edge30" class="edge">
<title>Node1&#45;&gt;Node24</title>
<path fill="none" stroke="#191970" d="M1038.7116,-131.748C1174.512,-127.267 1615.244,-111.0063 1674,-87 1710.1677,-72.2228 1742.2248,-36.9656 1756.3502,-19.7684"/>
<polygon fill="#191970" stroke="#191970" points="1038.2436,-128.2613 1028.3632,-132.0861 1038.4722,-135.2576 1038.2436,-128.2613"/>
</g>
<!-- Node25 -->
<g id="node26" class="node">
<title>Node25</title>
<g id="a_node26"><a xlink:href="test__utils_8h.html" target="_top" xlink:title="tests/test_utils.h">
<polygon fill="#ffffff" stroke="#000000" points="1122.5,-62 1122.5,-81 1211.5,-81 1211.5,-62 1122.5,-62"/>
<text text-anchor="middle" x="1167" y="-69" font-family="Helvetica,sans-Serif" font-size="10.00" fill="#000000">tests/test_utils.h</text>
</a>
</g>
</g>
<!-- Node1&#45;&gt;Node25 -->
<g id="edge31" class="edge">
<title>Node1&#45;&gt;Node25</title>
<path fill="none" stroke="#191970" d="M1034.6477,-119.9504C1066.4962,-108.2916 1112.4063,-91.4852 1140.9343,-81.0419"/>
<polygon fill="#191970" stroke="#191970" points="1033.4374,-116.6662 1025.25,-123.3906 1035.8438,-123.2396 1033.4374,-116.6662"/>
</g>
<!-- Node4 -->
<g id="node5" class="node">
<title>Node4</title>
<g id="a_node5"><a xlink:href="main_8cpp.html" target="_top" xlink:title="fplll/main.cpp">
<polygon fill="#ffffff" stroke="#000000" points="1845,-.5 1845,-19.5 1919,-19.5 1919,-.5 1845,-.5"/>
<text text-anchor="middle" x="1882" y="-7.5" font-family="Helvetica,sans-Serif" font-size="10.00" fill="#000000">fplll/main.cpp</text>
</a>
</g>
</g>
<!-- Node3&#45;&gt;Node4 -->
<g id="edge4" class="edge">
<title>Node3&#45;&gt;Node4</title>
<path fill="none" stroke="#191970" d="M1856.0785,-53.0857C1862.6686,-42.132 1870.7647,-28.6748 1876.1372,-19.7449"/>
<polygon fill="#191970" stroke="#191970" points="1852.9374,-51.5175 1850.7813,-61.8906 1858.9356,-55.1262 1852.9374,-51.5175"/>
</g>
<!-- Node6&#45;&gt;Node5 -->
<g id="edge7" class="edge">
<title>Node6&#45;&gt;Node5</title>
<path fill="none" stroke="#191970" d="M473.94,-49.8421C461.6323,-39.6133 447.5499,-27.9097 437.8483,-19.8469"/>
<polygon fill="#191970" stroke="#191970" points="471.78,-52.5979 481.7079,-56.2977 476.2542,-47.2143 471.78,-52.5979"/>
</g>
<!-- Node7&#45;&gt;Node5 -->
<g id="edge9" class="edge">
<title>Node7&#45;&gt;Node5</title>
<path fill="none" stroke="#191970" d="M811.9303,-55.9769C688.7392,-32.0355 554.7026,-19.5355 481.2207,-13.8326"/>
<polygon fill="#191970" stroke="#191970" points="811.425,-59.4446 821.9135,-57.9473 812.7805,-52.5771 811.425,-59.4446"/>
</g>
<!-- Node8&#45;&gt;Node5 -->
<g id="edge11" class="edge">
<title>Node8&#45;&gt;Node5</title>
<path fill="none" stroke="#191970" d="M702.305,-56.0676C702.2032,-56.045 702.1016,-56.0225 702,-56 625.9899,-39.1951 536.9912,-25.4042 481.0493,-17.4389"/>
<polygon fill="#191970" stroke="#191970" points="701.4147,-59.4536 711.9511,-58.3422 703.0214,-52.6404 701.4147,-59.4536"/>
</g>
<!-- Node9&#45;&gt;Node5 -->
<g id="edge13" class="edge">
<title>Node9&#45;&gt;Node5</title>
<path fill="none" stroke="#191970" d="M188.1799,-55.8264C256.248,-39.9571 324.3173,-27.3659 370.6604,-19.2825"/>
<polygon fill="#191970" stroke="#191970" points="187.0708,-52.4918 178.1397,-58.1915 188.6758,-59.3054 187.0708,-52.4918"/>
</g>
<!-- Node10&#45;&gt;Node5 -->
<g id="edge15" class="edge">
<title>Node10&#45;&gt;Node5</title>
<path fill="none" stroke="#191970" d="M296.5728,-53.2596C329.7012,-42.1868 370.635,-28.5052 397.4865,-19.5303"/>
<polygon fill="#191970" stroke="#191970" points="295.3862,-49.9658 287.0115,-56.4554 297.6052,-56.6048 295.3862,-49.9658"/>
</g>
<!-- Node11&#45;&gt;Node5 -->
<g id="edge17" class="edge">
<title>Node11&#45;&gt;Node5</title>
<path fill="none" stroke="#191970" d="M378.06,-49.8421C390.3677,-39.6133 404.4501,-27.9097 414.1517,-19.8469"/>
<polygon fill="#191970" stroke="#191970" points="375.7458,-47.2143 370.2921,-56.2977 380.22,-52.5979 375.7458,-47.2143"/>
</g>
<!-- Node25&#45;&gt;Node13 -->
<g id="edge32" class="edge">
<title>Node25&#45;&gt;Node13</title>
<path fill="none" stroke="#191970" d="M1112.402,-66.1485C1028.5046,-57.7038 862.9058,-40.159 723,-20 720.0671,-19.5774 717.0543,-19.1222 714.0175,-18.6472"/>
<polygon fill="#191970" stroke="#191970" points="1112.1664,-69.6423 1122.4656,-67.1572 1112.8646,-62.6772 1112.1664,-69.6423"/>
</g>
<!-- Node25&#45;&gt;Node14 -->
<g id="edge33" class="edge">
<title>Node25&#45;&gt;Node14</title>
<path fill="none" stroke="#191970" d="M1112.2042,-62.441C1042.7245,-50.9545 923.4749,-31.2398 852.6591,-19.5324"/>
<polygon fill="#191970" stroke="#191970" points="1112.0606,-65.9647 1122.4976,-64.1427 1113.2024,-59.0585 1112.0606,-65.9647"/>
</g>
<!-- Node25&#45;&gt;Node15 -->
<g id="edge34" class="edge">
<title>Node25&#45;&gt;Node15</title>
<path fill="none" stroke="#191970" d="M1119.7327,-59.4878C1073.8051,-47.8162 1004.9721,-30.3235 962.6351,-19.5643"/>
<polygon fill="#191970" stroke="#191970" points="1118.899,-62.8872 1129.453,-61.9581 1120.6232,-56.1028 1118.899,-62.8872"/>
</g>
<!-- Node25&#45;&gt;Node17 -->
<g id="edge36" class="edge">
<title>Node25&#45;&gt;Node17</title>
<path fill="none" stroke="#191970" d="M1137.9361,-57.5357C1113.7739,-45.9265 1080.033,-29.7151 1058.8596,-19.5419"/>
<polygon fill="#191970" stroke="#191970" points="1136.4706,-60.7146 1147,-61.8906 1139.5022,-54.4051 1136.4706,-60.7146"/>
</g>
<!-- Node25&#45;&gt;Node18 -->
<g id="edge37" class="edge">
<title>Node25&#45;&gt;Node18</title>
<path fill="none" stroke="#191970" d="M1161.317,-52.0832C1158.167,-41.3205 1154.3866,-28.4042 1151.8522,-19.7449"/>
<polygon fill="#191970" stroke="#191970" points="1158.0194,-53.2764 1164.1875,-61.8906 1164.7375,-51.3101 1158.0194,-53.2764"/>
</g>
<!-- Node25&#45;&gt;Node19 -->
<g id="edge38" class="edge">
<title>Node25&#45;&gt;Node19</title>
<path fill="none" stroke="#191970" d="M1210.8733,-59.1229C1252.2648,-47.4459 1313.4402,-30.1877 1351.1767,-19.5419"/>
<polygon fill="#191970" stroke="#191970" points="1209.7365,-55.8069 1201.0625,-61.8906 1211.6372,-62.544 1209.7365,-55.8069"/>
</g>
<!-- Node25&#45;&gt;Node22 -->
<g id="edge39" class="edge">
<title>Node25&#45;&gt;Node22</title>
<path fill="none" stroke="#191970" d="M1221.8006,-61.7875C1287.4362,-50.1547 1396.6065,-30.8061 1461.2974,-19.3407"/>
<polygon fill="#191970" stroke="#191970" points="1220.8895,-58.3943 1211.6538,-63.5859 1222.1112,-65.2869 1220.8895,-58.3943"/>
</g>
<!-- Node25&#45;&gt;Node23 -->
<g id="edge40" class="edge">
<title>Node25&#45;&gt;Node23</title>
<path fill="none" stroke="#191970" d="M1221.6052,-64.8989C1316.485,-53.3803 1508.0473,-29.895 1575,-20 1578.186,-19.5291 1581.4656,-19.0257 1584.7693,-18.5044"/>
<polygon fill="#191970" stroke="#191970" points="1221.1351,-61.4302 1211.6295,-66.1091 1221.9782,-68.3792 1221.1351,-61.4302"/>
</g>
<!-- Node25&#45;&gt;Node24 -->
<g id="edge41" class="edge">
<title>Node25&#45;&gt;Node24</title>
<path fill="none" stroke="#191970" d="M1221.7887,-64.6252C1244.9749,-61.8047 1272.2881,-58.5988 1297,-56 1472.3164,-37.5629 1516.8701,-40.1311 1692,-20 1695.009,-19.6541 1698.0866,-19.2852 1701.1935,-18.9006"/>
<polygon fill="#191970" stroke="#191970" points="1221.2891,-61.1601 1211.7882,-65.8488 1222.1393,-68.1083 1221.2891,-61.1601"/>
</g>
<!-- Node26 -->
<g id="node27" class="node">
<title>Node26</title>
<g id="a_node27"><a xlink:href="test__gso_8cpp.html" target="_top" xlink:title="tests/test_gso.cpp">
<polygon fill="#ffffff" stroke="#000000" points="1211,-.5 1211,-19.5 1309,-19.5 1309,-.5 1211,-.5"/>
<text text-anchor="middle" x="1260" y="-7.5" font-family="Helvetica,sans-Serif" font-size="10.00" fill="#000000">tests/test_gso.cpp</text>
</a>
</g>
</g>
<!-- Node25&#45;&gt;Node26 -->
<g id="edge35" class="edge">
<title>Node25&#45;&gt;Node26</title>
<path fill="none" stroke="#191970" d="M1190.0065,-56.286C1207.3962,-44.7864 1230.7315,-29.355 1245.5708,-19.5419"/>
<polygon fill="#191970" stroke="#191970" points="1187.9418,-53.4553 1181.5313,-61.8906 1191.803,-59.2941 1187.9418,-53.4553"/>
</g>
<!-- Node27&#45;&gt;Node2 -->
<g id="edge43" class="edge">
<title>Node27&#45;&gt;Node2</title>
<path fill="none" stroke="#191970" d="M428.2454,-130.9038C350.4633,-126.937 200.84,-115.9532 77,-87 70.5092,-85.4825 63.6484,-83.292 57.3592,-81.0336"/>
<polygon fill="#191970" stroke="#191970" points="428.1192,-134.4017 438.2789,-131.3966 428.4627,-127.4101 428.1192,-134.4017"/>
</g>
</g>
</svg>
