<?xml version="1.0" encoding="UTF-8" standalone="no"?>
<!DOCTYPE svg PUBLIC "-//W3C//DTD SVG 1.1//EN"
 "http://www.w3.org/Graphics/SVG/1.1/DTD/svg11.dtd">
<!-- Generated by graphviz version 2.38.0 (20140413.2041)
 -->
<!-- Title: fplll/svpcvp.h Pages: 1 -->
<svg width="1004pt" height="196pt"
 viewBox="0.00 0.00 1004.00 196.00" xmlns="http://www.w3.org/2000/svg" xmlns:xlink="http://www.w3.org/1999/xlink">
<g id="graph0" class="graph" transform="scale(1 1) rotate(0) translate(4 192)">
<title>fplll/svpcvp.h</title>
<polygon fill="white" stroke="none" points="-4,4 -4,-192 1000,-192 1000,4 -4,4"/>
<!-- Node1 -->
<g id="node1" class="node"><title>Node1</title>
<polygon fill="#bfbfbf" stroke="black" points="278,-168.5 278,-187.5 352,-187.5 352,-168.5 278,-168.5"/>
<text text-anchor="middle" x="315" y="-175.5" font-family="Helvetica,sans-Serif" font-size="10.00">fplll/svpcvp.h</text>
</g>
<!-- Node2 -->
<g id="node2" class="node"><title>Node2</title>
<g id="a_node2"><a xlink:href="fplll_8h.html" target="_top" xlink:title="fplll/fplll.h">
<polygon fill="white" stroke="black" points="391,-112.5 391,-131.5 449,-131.5 449,-112.5 391,-112.5"/>
<text text-anchor="middle" x="420" y="-119.5" font-family="Helvetica,sans-Serif" font-size="10.00">fplll/fplll.h</text>
</a>
</g>
</g>
<!-- Node1&#45;&gt;Node2 -->
<g id="edge1" class="edge"><title>Node1&#45;&gt;Node2</title>
<path fill="none" stroke="midnightblue" d="M340.81,-163.726C360.253,-153.727 386.348,-140.307 403.172,-131.655"/>
<polygon fill="midnightblue" stroke="midnightblue" points="339.162,-160.638 331.87,-168.324 342.364,-166.863 339.162,-160.638"/>
</g>
<!-- Node13 -->
<g id="node13" class="node"><title>Node13</title>
<g id="a_node13"><a xlink:href="svpcvp_8cpp.html" target="_top" xlink:title="fplll/svpcvp.cpp">
<polygon fill="white" stroke="black" points="167.5,-112.5 167.5,-131.5 252.5,-131.5 252.5,-112.5 167.5,-112.5"/>
<text text-anchor="middle" x="210" y="-119.5" font-family="Helvetica,sans-Serif" font-size="10.00">fplll/svpcvp.cpp</text>
</a>
</g>
</g>
<!-- Node1&#45;&gt;Node13 -->
<g id="edge12" class="edge"><title>Node1&#45;&gt;Node13</title>
<path fill="none" stroke="midnightblue" d="M289.19,-163.726C269.747,-153.727 243.652,-140.307 226.828,-131.655"/>
<polygon fill="midnightblue" stroke="midnightblue" points="287.636,-166.863 298.13,-168.324 290.838,-160.638 287.636,-166.863"/>
</g>
<!-- Node3 -->
<g id="node3" class="node"><title>Node3</title>
<g id="a_node3"><a xlink:href="fplll_8cpp.html" target="_top" xlink:title="fplll/fplll.cpp">
<polygon fill="white" stroke="black" points="0,-56.5 0,-75.5 68,-75.5 68,-56.5 0,-56.5"/>
<text text-anchor="middle" x="34" y="-63.5" font-family="Helvetica,sans-Serif" font-size="10.00">fplll/fplll.cpp</text>
</a>
</g>
</g>
<!-- Node2&#45;&gt;Node3 -->
<g id="edge2" class="edge"><title>Node2&#45;&gt;Node3</title>
<path fill="none" stroke="midnightblue" d="M380.958,-116.854C317.153,-109.861 186.65,-94.6402 77,-76 74.1427,-75.5143 71.1862,-74.9744 68.223,-74.4073"/>
<polygon fill="midnightblue" stroke="midnightblue" points="380.659,-120.342 390.979,-117.945 381.416,-113.384 380.659,-120.342"/>
</g>
<!-- Node4 -->
<g id="node4" class="node"><title>Node4</title>
<g id="a_node4"><a xlink:href="main_8h.html" target="_top" xlink:title="fplll/main.h">
<polygon fill="white" stroke="black" points="86,-56.5 86,-75.5 150,-75.5 150,-56.5 86,-56.5"/>
<text text-anchor="middle" x="118" y="-63.5" font-family="Helvetica,sans-Serif" font-size="10.00">fplll/main.h</text>
</a>
</g>
</g>
<!-- Node2&#45;&gt;Node4 -->
<g id="edge3" class="edge"><title>Node2&#45;&gt;Node4</title>
<path fill="none" stroke="midnightblue" d="M380.747,-114.705C329.764,-106.414 238.051,-91.1109 160,-76 156.779,-75.3763 153.424,-74.7012 150.077,-74.0107"/>
<polygon fill="midnightblue" stroke="midnightblue" points="380.256,-118.171 390.687,-116.316 381.376,-111.261 380.256,-118.171"/>
</g>
<!-- Node6 -->
<g id="node6" class="node"><title>Node6</title>
<g id="a_node6"><a xlink:href="sieve__main_8cpp.html" target="_top" xlink:title="fplll/sieve/sieve_main.cpp">
<polygon fill="white" stroke="black" points="168.5,-56.5 168.5,-75.5 297.5,-75.5 297.5,-56.5 168.5,-56.5"/>
<text text-anchor="middle" x="233" y="-63.5" font-family="Helvetica,sans-Serif" font-size="10.00">fplll/sieve/sieve_main.cpp</text>
</a>
</g>
</g>
<!-- Node2&#45;&gt;Node6 -->
<g id="edge5" class="edge"><title>Node2&#45;&gt;Node6</title>
<path fill="none" stroke="midnightblue" d="M380.84,-109.692C345.598,-99.515 294.583,-84.7834 262.631,-75.5565"/>
<polygon fill="midnightblue" stroke="midnightblue" points="380.203,-113.151 390.781,-112.562 382.145,-106.425 380.203,-113.151"/>
</g>
<!-- Node7 -->
<g id="node7" class="node"><title>Node7</title>
<g id="a_node7"><a xlink:href="test__bkz_8cpp.html" target="_top" xlink:title="tests/test_bkz.cpp">
<polygon fill="white" stroke="black" points="316,-56.5 316,-75.5 414,-75.5 414,-56.5 316,-56.5"/>
<text text-anchor="middle" x="365" y="-63.5" font-family="Helvetica,sans-Serif" font-size="10.00">tests/test_bkz.cpp</text>
</a>
</g>
</g>
<!-- Node2&#45;&gt;Node7 -->
<g id="edge6" class="edge"><title>Node2&#45;&gt;Node7</title>
<path fill="none" stroke="midnightblue" d="M403.706,-105.002C393.959,-95.4329 381.947,-83.6389 373.913,-75.7511"/>
<polygon fill="midnightblue" stroke="midnightblue" points="401.33,-107.575 410.918,-112.083 406.234,-102.58 401.33,-107.575"/>
</g>
<!-- Node8 -->
<g id="node8" class="node"><title>Node8</title>
<g id="a_node8"><a xlink:href="test__lll_8cpp.html" target="_top" xlink:title="tests/test_lll.cpp">
<polygon fill="white" stroke="black" points="431.5,-56.5 431.5,-75.5 520.5,-75.5 520.5,-56.5 431.5,-56.5"/>
<text text-anchor="middle" x="476" y="-63.5" font-family="Helvetica,sans-Serif" font-size="10.00">tests/test_lll.cpp</text>
</a>
</g>
</g>
<!-- Node2&#45;&gt;Node8 -->
<g id="edge7" class="edge"><title>Node2&#45;&gt;Node8</title>
<path fill="none" stroke="midnightblue" d="M436.33,-105.253C446.265,-95.6731 458.588,-83.7906 466.839,-75.8339"/>
<polygon fill="midnightblue" stroke="midnightblue" points="433.766,-102.863 428.997,-112.324 438.625,-107.902 433.766,-102.863"/>
</g>
<!-- Node9 -->
<g id="node9" class="node"><title>Node9</title>
<g id="a_node9"><a xlink:href="test__nr_8cpp.html" target="_top" xlink:title="tests/test_nr.cpp">
<polygon fill="white" stroke="black" points="539,-56.5 539,-75.5 629,-75.5 629,-56.5 539,-56.5"/>
<text text-anchor="middle" x="584" y="-63.5" font-family="Helvetica,sans-Serif" font-size="10.00">tests/test_nr.cpp</text>
</a>
</g>
</g>
<!-- Node2&#45;&gt;Node9 -->
<g id="edge8" class="edge"><title>Node2&#45;&gt;Node9</title>
<path fill="none" stroke="midnightblue" d="M455.52,-109.304C486.422,-99.1294 530.473,-84.6246 558.135,-75.5164"/>
<polygon fill="midnightblue" stroke="midnightblue" points="454.39,-105.992 445.986,-112.444 456.579,-112.64 454.39,-105.992"/>
</g>
<!-- Node10 -->
<g id="node10" class="node"><title>Node10</title>
<g id="a_node10"><a xlink:href="test__pruner_8cpp.html" target="_top" xlink:title="tests/test_pruner.cpp">
<polygon fill="white" stroke="black" points="647.5,-56.5 647.5,-75.5 756.5,-75.5 756.5,-56.5 647.5,-56.5"/>
<text text-anchor="middle" x="702" y="-63.5" font-family="Helvetica,sans-Serif" font-size="10.00">tests/test_pruner.cpp</text>
</a>
</g>
</g>
<!-- Node2&#45;&gt;Node10 -->
<g id="edge9" class="edge"><title>Node2&#45;&gt;Node10</title>
<path fill="none" stroke="midnightblue" d="M458.955,-113.541C510.911,-103.592 602.675,-86.0196 657.362,-75.5476"/>
<polygon fill="midnightblue" stroke="midnightblue" points="458.28,-110.106 449.117,-115.424 459.597,-116.981 458.28,-110.106"/>
</g>
<!-- Node11 -->
<g id="node11" class="node"><title>Node11</title>
<g id="a_node11"><a xlink:href="test__sieve_8cpp.html" target="_top" xlink:title="tests/test_sieve.cpp">
<polygon fill="white" stroke="black" points="774.5,-56.5 774.5,-75.5 879.5,-75.5 879.5,-56.5 774.5,-56.5"/>
<text text-anchor="middle" x="827" y="-63.5" font-family="Helvetica,sans-Serif" font-size="10.00">tests/test_sieve.cpp</text>
</a>
</g>
</g>
<!-- Node2&#45;&gt;Node11 -->
<g id="edge10" class="edge"><title>Node2&#45;&gt;Node11</title>
<path fill="none" stroke="midnightblue" d="M459.267,-116.116C523.467,-108.08 654.885,-91.4215 766,-76 768.757,-75.6174 771.583,-75.2196 774.436,-74.8138"/>
<polygon fill="midnightblue" stroke="midnightblue" points="458.674,-112.662 449.185,-117.376 459.542,-119.608 458.674,-112.662"/>
</g>
<!-- Node12 -->
<g id="node12" class="node"><title>Node12</title>
<g id="a_node12"><a xlink:href="test__svp_8cpp.html" target="_top" xlink:title="tests/test_svp.cpp">
<polygon fill="white" stroke="black" points="898,-56.5 898,-75.5 996,-75.5 996,-56.5 898,-56.5"/>
<text text-anchor="middle" x="947" y="-63.5" font-family="Helvetica,sans-Serif" font-size="10.00">tests/test_svp.cpp</text>
</a>
</g>
</g>
<!-- Node2&#45;&gt;Node12 -->
<g id="edge11" class="edge"><title>Node2&#45;&gt;Node12</title>
<path fill="none" stroke="midnightblue" d="M459.352,-118.004C540.072,-111.687 730.157,-95.9273 889,-76 891.932,-75.6322 894.944,-75.2322 897.981,-74.812"/>
<polygon fill="midnightblue" stroke="midnightblue" points="458.852,-114.532 449.154,-118.797 459.395,-121.511 458.852,-114.532"/>
</g>
<!-- Node5 -->
<g id="node5" class="node"><title>Node5</title>
<g id="a_node5"><a xlink:href="main_8cpp.html" target="_top" xlink:title="fplll/main.cpp">
<polygon fill="white" stroke="black" points="81,-0.5 81,-19.5 155,-19.5 155,-0.5 81,-0.5"/>
<text text-anchor="middle" x="118" y="-7.5" font-family="Helvetica,sans-Serif" font-size="10.00">fplll/main.cpp</text>
</a>
</g>
</g>
<!-- Node4&#45;&gt;Node5 -->
<g id="edge4" class="edge"><title>Node4&#45;&gt;Node5</title>
<path fill="none" stroke="midnightblue" d="M118,-45.8045C118,-36.9102 118,-26.7798 118,-19.7511"/>
<polygon fill="midnightblue" stroke="midnightblue" points="114.5,-46.083 118,-56.083 121.5,-46.083 114.5,-46.083"/>
</g>
<!-- Node13&#45;&gt;Node3 -->
<g id="edge13" class="edge"><title>Node13&#45;&gt;Node3</title>
<path fill="none" stroke="midnightblue" d="M172.311,-109.436C139.128,-99.2551 91.5716,-84.664 61.7572,-75.5164"/>
<polygon fill="midnightblue" stroke="midnightblue" points="171.525,-112.856 182.112,-112.444 173.579,-106.164 171.525,-112.856"/>
</g>
</g>
</svg>
