<?xml version="1.0" encoding="UTF-8" standalone="no"?>
<!DOCTYPE svg PUBLIC "-//W3C//DTD SVG 1.1//EN"
 "http://www.w3.org/Graphics/SVG/1.1/DTD/svg11.dtd">
<!-- Generated by graphviz version 2.43.0 (0)
 -->
<!-- Title: fplll/threadpool.h Pages: 1 -->
<svg width="1807pt" height="218pt"
 viewBox="0.00 0.00 1807.00 218.00" xmlns="http://www.w3.org/2000/svg" xmlns:xlink="http://www.w3.org/1999/xlink">
<g id="graph0" class="graph" transform="scale(1 1) rotate(0) translate(4 214)">
<title>fplll/threadpool.h</title>
<polygon fill="white" stroke="transparent" points="-4,4 -4,-214 1803,-214 1803,4 -4,4"/>
<!-- Node1 -->
<g id="node1" class="node">
<title>Node1</title>
<g id="a_node1"><a xlink:title=" ">
<polygon fill="#bfbfbf" stroke="black" points="888,-190.5 888,-209.5 976,-209.5 976,-190.5 888,-190.5"/>
<text text-anchor="middle" x="932" y="-197.5" font-family="Helvetica,sans-Serif" font-size="10.00">fplll/threadpool.h</text>
</a>
</g>
</g>
<!-- Node2 -->
<g id="node2" class="node">
<title>Node2</title>
<g id="a_node2"><a xlink:href="enumeration_8h.html" target="_top" xlink:title=" ">
<polygon fill="white" stroke="black" points="397,-123.5 397,-153.5 489,-153.5 489,-123.5 397,-123.5"/>
<text text-anchor="start" x="405" y="-141.5" font-family="Helvetica,sans-Serif" font-size="10.00">fplll/enum&#45;parallel</text>
<text text-anchor="middle" x="443" y="-130.5" font-family="Helvetica,sans-Serif" font-size="10.00">/enumeration.h</text>
</a>
</g>
</g>
<!-- Node1&#45;&gt;Node2 -->
<g id="edge1" class="edge">
<title>Node1&#45;&gt;Node2</title>
<path fill="none" stroke="midnightblue" d="M877.58,-192.38C780.69,-180.59 580,-156.17 489.29,-145.13"/>
<polygon fill="midnightblue" stroke="midnightblue" points="877.39,-195.88 887.74,-193.61 878.24,-188.93 877.39,-195.88"/>
</g>
<!-- Node4 -->
<g id="node4" class="node">
<title>Node4</title>
<g id="a_node4"><a xlink:href="fplll_8h.html" target="_top" xlink:title=" ">
<polygon fill="white" stroke="black" points="903,-129 903,-148 961,-148 961,-129 903,-129"/>
<text text-anchor="middle" x="932" y="-136" font-family="Helvetica,sans-Serif" font-size="10.00">fplll/fplll.h</text>
</a>
</g>
</g>
<!-- Node1&#45;&gt;Node4 -->
<g id="edge3" class="edge">
<title>Node1&#45;&gt;Node4</title>
<path fill="none" stroke="midnightblue" d="M932,-180.32C932,-169.5 932,-156.4 932,-148.01"/>
<polygon fill="midnightblue" stroke="midnightblue" points="928.5,-180.48 932,-190.48 935.5,-180.48 928.5,-180.48"/>
</g>
<!-- Node29 -->
<g id="node29" class="node">
<title>Node29</title>
<g id="a_node29"><a xlink:href="threadpool_8cpp.html" target="_top" xlink:title=" ">
<polygon fill="white" stroke="black" points="979,-129 979,-148 1077,-148 1077,-129 979,-129"/>
<text text-anchor="middle" x="1028" y="-136" font-family="Helvetica,sans-Serif" font-size="10.00">fplll/threadpool.cpp</text>
</a>
</g>
</g>
<!-- Node1&#45;&gt;Node29 -->
<g id="edge43" class="edge">
<title>Node1&#45;&gt;Node29</title>
<path fill="none" stroke="midnightblue" d="M954.45,-185.09C972.97,-173.6 998.67,-157.68 1014.27,-148.01"/>
<polygon fill="midnightblue" stroke="midnightblue" points="952.41,-182.23 945.75,-190.48 956.1,-188.18 952.41,-182.23"/>
</g>
<!-- Node3 -->
<g id="node3" class="node">
<title>Node3</title>
<g id="a_node3"><a xlink:href="enumlib_8cpp.html" target="_top" xlink:title=" ">
<polygon fill="white" stroke="black" points="0,-56.5 0,-86.5 92,-86.5 92,-56.5 0,-56.5"/>
<text text-anchor="start" x="8" y="-74.5" font-family="Helvetica,sans-Serif" font-size="10.00">fplll/enum&#45;parallel</text>
<text text-anchor="middle" x="46" y="-63.5" font-family="Helvetica,sans-Serif" font-size="10.00">/enumlib.cpp</text>
</a>
</g>
</g>
<!-- Node2&#45;&gt;Node3 -->
<g id="edge2" class="edge">
<title>Node2&#45;&gt;Node3</title>
<path fill="none" stroke="midnightblue" d="M386.72,-131.14C318.67,-123 200.83,-107.46 101,-87 98.1,-86.41 95.12,-85.75 92.13,-85.06"/>
<polygon fill="midnightblue" stroke="midnightblue" points="386.46,-134.63 396.8,-132.33 387.28,-127.68 386.46,-134.63"/>
</g>
<!-- Node5 -->
<g id="node5" class="node">
<title>Node5</title>
<g id="a_node5"><a xlink:href="fplll_8cpp.html" target="_top" xlink:title=" ">
<polygon fill="white" stroke="black" points="1585,-62 1585,-81 1653,-81 1653,-62 1585,-62"/>
<text text-anchor="middle" x="1619" y="-69" font-family="Helvetica,sans-Serif" font-size="10.00">fplll/fplll.cpp</text>
</a>
</g>
</g>
<!-- Node4&#45;&gt;Node5 -->
<g id="edge4" class="edge">
<title>Node4&#45;&gt;Node5</title>
<path fill="none" stroke="midnightblue" d="M960.65,-125.52C963.77,-124.53 966.92,-123.66 970,-123 1233.77,-66.25 1311.16,-138.56 1576,-87 1583.11,-85.61 1590.67,-83.35 1597.43,-81.02"/>
<polygon fill="midnightblue" stroke="midnightblue" points="959.24,-122.31 950.98,-128.95 961.58,-128.9 959.24,-122.31"/>
</g>
<!-- Node6 -->
<g id="node6" class="node">
<title>Node6</title>
<g id="a_node6"><a xlink:href="main_8h.html" target="_top" xlink:title=" ">
<polygon fill="white" stroke="black" points="1720,-62 1720,-81 1784,-81 1784,-62 1720,-62"/>
<text text-anchor="middle" x="1752" y="-69" font-family="Helvetica,sans-Serif" font-size="10.00">fplll/main.h</text>
</a>
</g>
</g>
<!-- Node4&#45;&gt;Node6 -->
<g id="edge5" class="edge">
<title>Node4&#45;&gt;Node6</title>
<path fill="none" stroke="midnightblue" d="M960.64,-125.49C963.76,-124.51 966.92,-123.65 970,-123 1285.73,-56.67 1375.97,-135.01 1695,-87 1704.29,-85.6 1714.26,-83.34 1723.23,-81.01"/>
<polygon fill="midnightblue" stroke="midnightblue" points="959.23,-122.28 950.98,-128.92 961.57,-128.87 959.23,-122.28"/>
</g>
<!-- Node8 -->
<g id="node8" class="node">
<title>Node8</title>
<g id="a_node8"><a xlink:href="pruner_8cpp.html" target="_top" xlink:title=" ">
<polygon fill="white" stroke="black" points="368,-0.5 368,-19.5 478,-19.5 478,-0.5 368,-0.5"/>
<text text-anchor="middle" x="423" y="-7.5" font-family="Helvetica,sans-Serif" font-size="10.00">fplll/pruner/pruner.cpp</text>
</a>
</g>
</g>
<!-- Node4&#45;&gt;Node8 -->
<g id="edge7" class="edge">
<title>Node4&#45;&gt;Node8</title>
<path fill="none" stroke="midnightblue" d="M892.91,-135.11C843.32,-130.81 756.19,-119.01 689,-87 669.32,-77.63 670.72,-65.28 651,-56 620.97,-41.88 535.39,-27.32 478.05,-18.72"/>
<polygon fill="midnightblue" stroke="midnightblue" points="892.65,-138.6 902.9,-135.91 893.21,-131.62 892.65,-138.6"/>
</g>
<!-- Node9 -->
<g id="node9" class="node">
<title>Node9</title>
<g id="a_node9"><a xlink:href="pruner__cost_8cpp.html" target="_top" xlink:title=" ">
<polygon fill="white" stroke="black" points="698,-56.5 698,-86.5 790,-86.5 790,-56.5 698,-56.5"/>
<text text-anchor="start" x="706" y="-74.5" font-family="Helvetica,sans-Serif" font-size="10.00">fplll/pruner/pruner</text>
<text text-anchor="middle" x="744" y="-63.5" font-family="Helvetica,sans-Serif" font-size="10.00">_cost.cpp</text>
</a>
</g>
</g>
<!-- Node4&#45;&gt;Node9 -->
<g id="edge8" class="edge">
<title>Node4&#45;&gt;Node9</title>
<path fill="none" stroke="midnightblue" d="M897.26,-125.49C865.39,-114.47 818.17,-98.14 784.57,-86.53"/>
<polygon fill="midnightblue" stroke="midnightblue" points="896.44,-128.91 907.04,-128.87 898.73,-122.29 896.44,-128.91"/>
</g>
<!-- Node10 -->
<g id="node10" class="node">
<title>Node10</title>
<g id="a_node10"><a xlink:href="pruner__optimize_8cpp.html" target="_top" xlink:title=" ">
<polygon fill="white" stroke="black" points="220,-56.5 220,-86.5 312,-86.5 312,-56.5 220,-56.5"/>
<text text-anchor="start" x="228" y="-74.5" font-family="Helvetica,sans-Serif" font-size="10.00">fplll/pruner/pruner</text>
<text text-anchor="middle" x="266" y="-63.5" font-family="Helvetica,sans-Serif" font-size="10.00">_optimize.cpp</text>
</a>
</g>
</g>
<!-- Node4&#45;&gt;Node10 -->
<g id="edge10" class="edge">
<title>Node4&#45;&gt;Node10</title>
<path fill="none" stroke="midnightblue" d="M892.55,-136.63C794.95,-133.96 534.6,-123.69 321,-87 318.08,-86.5 315.09,-85.92 312.08,-85.28"/>
<polygon fill="midnightblue" stroke="midnightblue" points="892.74,-140.14 902.83,-136.9 892.93,-133.14 892.74,-140.14"/>
</g>
<!-- Node11 -->
<g id="node11" class="node">
<title>Node11</title>
<g id="a_node11"><a xlink:href="pruner__optimize__tc_8cpp.html" target="_top" xlink:title=" ">
<polygon fill="white" stroke="black" points="330,-56.5 330,-86.5 422,-86.5 422,-56.5 330,-56.5"/>
<text text-anchor="start" x="338" y="-74.5" font-family="Helvetica,sans-Serif" font-size="10.00">fplll/pruner/pruner</text>
<text text-anchor="middle" x="376" y="-63.5" font-family="Helvetica,sans-Serif" font-size="10.00">_optimize_tc.cpp</text>
</a>
</g>
</g>
<!-- Node4&#45;&gt;Node11 -->
<g id="edge12" class="edge">
<title>Node4&#45;&gt;Node11</title>
<path fill="none" stroke="midnightblue" d="M892.77,-135.65C807.94,-131.19 601.35,-117.84 431,-87 428.08,-86.47 425.1,-85.87 422.1,-85.22"/>
<polygon fill="midnightblue" stroke="midnightblue" points="892.81,-139.16 902.97,-136.17 893.17,-132.16 892.81,-139.16"/>
</g>
<!-- Node12 -->
<g id="node12" class="node">
<title>Node12</title>
<g id="a_node12"><a xlink:href="pruner__optimize__tp_8cpp.html" target="_top" xlink:title=" ">
<polygon fill="white" stroke="black" points="110,-56.5 110,-86.5 202,-86.5 202,-56.5 110,-56.5"/>
<text text-anchor="start" x="118" y="-74.5" font-family="Helvetica,sans-Serif" font-size="10.00">fplll/pruner/pruner</text>
<text text-anchor="middle" x="156" y="-63.5" font-family="Helvetica,sans-Serif" font-size="10.00">_optimize_tp.cpp</text>
</a>
</g>
</g>
<!-- Node4&#45;&gt;Node12 -->
<g id="edge14" class="edge">
<title>Node4&#45;&gt;Node12</title>
<path fill="none" stroke="midnightblue" d="M892.73,-137.33C783.75,-136.31 468.59,-129.59 211,-87 208.08,-86.52 205.08,-85.95 202.08,-85.32"/>
<polygon fill="midnightblue" stroke="midnightblue" points="892.9,-140.83 902.92,-137.42 892.95,-133.83 892.9,-140.83"/>
</g>
<!-- Node13 -->
<g id="node13" class="node">
<title>Node13</title>
<g id="a_node13"><a xlink:href="pruner__prob_8cpp.html" target="_top" xlink:title=" ">
<polygon fill="white" stroke="black" points="440,-56.5 440,-86.5 532,-86.5 532,-56.5 440,-56.5"/>
<text text-anchor="start" x="448" y="-74.5" font-family="Helvetica,sans-Serif" font-size="10.00">fplll/pruner/pruner</text>
<text text-anchor="middle" x="486" y="-63.5" font-family="Helvetica,sans-Serif" font-size="10.00">_prob.cpp</text>
</a>
</g>
</g>
<!-- Node4&#45;&gt;Node13 -->
<g id="edge16" class="edge">
<title>Node4&#45;&gt;Node13</title>
<path fill="none" stroke="midnightblue" d="M892.61,-134.11C821.8,-127.65 668.47,-111.93 541,-87 538.09,-86.43 535.11,-85.8 532.11,-85.12"/>
<polygon fill="midnightblue" stroke="midnightblue" points="892.58,-137.62 902.85,-135.04 893.21,-130.65 892.58,-137.62"/>
</g>
<!-- Node14 -->
<g id="node14" class="node">
<title>Node14</title>
<g id="a_node14"><a xlink:href="pruner__util_8cpp.html" target="_top" xlink:title=" ">
<polygon fill="white" stroke="black" points="550,-56.5 550,-86.5 642,-86.5 642,-56.5 550,-56.5"/>
<text text-anchor="start" x="558" y="-74.5" font-family="Helvetica,sans-Serif" font-size="10.00">fplll/pruner/pruner</text>
<text text-anchor="middle" x="596" y="-63.5" font-family="Helvetica,sans-Serif" font-size="10.00">_util.cpp</text>
</a>
</g>
</g>
<!-- Node4&#45;&gt;Node14 -->
<g id="edge18" class="edge">
<title>Node4&#45;&gt;Node14</title>
<path fill="none" stroke="midnightblue" d="M892.79,-131.04C839.15,-122.04 739.99,-104.82 656,-87 651.49,-86.04 646.81,-85 642.13,-83.92"/>
<polygon fill="midnightblue" stroke="midnightblue" points="892.45,-134.53 902.89,-132.73 893.6,-127.63 892.45,-134.53"/>
</g>
<!-- Node15 -->
<g id="node15" class="node">
<title>Node15</title>
<g id="a_node15"><a xlink:href="test__bkz_8cpp.html" target="_top" xlink:title=" ">
<polygon fill="white" stroke="black" points="496,-0.5 496,-19.5 594,-19.5 594,-0.5 496,-0.5"/>
<text text-anchor="middle" x="545" y="-7.5" font-family="Helvetica,sans-Serif" font-size="10.00">tests/test_bkz.cpp</text>
</a>
</g>
</g>
<!-- Node4&#45;&gt;Node15 -->
<g id="edge20" class="edge">
<title>Node4&#45;&gt;Node15</title>
<path fill="none" stroke="midnightblue" d="M901.53,-124.87C881.03,-115.72 853.87,-102.31 832,-87 815.52,-75.46 816.99,-65.02 799,-56 789.89,-51.43 665.35,-30.62 594.12,-18.96"/>
<polygon fill="midnightblue" stroke="midnightblue" points="900.15,-128.09 910.72,-128.88 902.96,-121.67 900.15,-128.09"/>
</g>
<!-- Node16 -->
<g id="node16" class="node">
<title>Node16</title>
<g id="a_node16"><a xlink:href="test__bkz__gram_8cpp.html" target="_top" xlink:title=" ">
<polygon fill="white" stroke="black" points="612.5,-0.5 612.5,-19.5 737.5,-19.5 737.5,-0.5 612.5,-0.5"/>
<text text-anchor="middle" x="675" y="-7.5" font-family="Helvetica,sans-Serif" font-size="10.00">tests/test_bkz_gram.cpp</text>
</a>
</g>
</g>
<!-- Node4&#45;&gt;Node16 -->
<g id="edge21" class="edge">
<title>Node4&#45;&gt;Node16</title>
<path fill="none" stroke="midnightblue" d="M913.68,-122.59C901.34,-112.54 884.69,-98.97 870,-87 853.11,-73.23 851.32,-66.1 832,-56 797.7,-38.07 755.34,-26.47 723.27,-19.54"/>
<polygon fill="midnightblue" stroke="midnightblue" points="911.5,-125.32 921.47,-128.92 915.92,-119.9 911.5,-125.32"/>
</g>
<!-- Node17 -->
<g id="node17" class="node">
<title>Node17</title>
<g id="a_node17"><a xlink:href="test__counter_8cpp.html" target="_top" xlink:title=" ">
<polygon fill="white" stroke="black" points="1220.5,-62 1220.5,-81 1333.5,-81 1333.5,-62 1220.5,-62"/>
<text text-anchor="middle" x="1277" y="-69" font-family="Helvetica,sans-Serif" font-size="10.00">tests/test_counter.cpp</text>
</a>
</g>
</g>
<!-- Node4&#45;&gt;Node17 -->
<g id="edge22" class="edge">
<title>Node4&#45;&gt;Node17</title>
<path fill="none" stroke="midnightblue" d="M961.89,-125.42C964.61,-124.53 967.34,-123.7 970,-123 1072.59,-95.93 1101.54,-105.62 1206,-87 1216.03,-85.21 1226.82,-83.1 1236.89,-81.06"/>
<polygon fill="midnightblue" stroke="midnightblue" points="960.49,-122.2 952.25,-128.86 962.84,-128.8 960.49,-122.2"/>
</g>
<!-- Node18 -->
<g id="node18" class="node">
<title>Node18</title>
<g id="a_node18"><a xlink:href="test__cvp_8cpp.html" target="_top" xlink:title=" ">
<polygon fill="white" stroke="black" points="756,-0.5 756,-19.5 854,-19.5 854,-0.5 756,-0.5"/>
<text text-anchor="middle" x="805" y="-7.5" font-family="Helvetica,sans-Serif" font-size="10.00">tests/test_cvp.cpp</text>
</a>
</g>
</g>
<!-- Node4&#45;&gt;Node18 -->
<g id="edge23" class="edge">
<title>Node4&#45;&gt;Node18</title>
<path fill="none" stroke="midnightblue" d="M921.3,-120.38C909.91,-102.97 890.71,-75.8 870,-56 854.62,-41.3 834.04,-27.9 820.19,-19.62"/>
<polygon fill="midnightblue" stroke="midnightblue" points="918.44,-122.41 926.79,-128.94 924.34,-118.64 918.44,-122.41"/>
</g>
<!-- Node19 -->
<g id="node19" class="node">
<title>Node19</title>
<g id="a_node19"><a xlink:href="test__enum_8cpp.html" target="_top" xlink:title=" ">
<polygon fill="white" stroke="black" points="872,-0.5 872,-19.5 978,-19.5 978,-0.5 872,-0.5"/>
<text text-anchor="middle" x="925" y="-7.5" font-family="Helvetica,sans-Serif" font-size="10.00">tests/test_enum.cpp</text>
</a>
</g>
</g>
<!-- Node4&#45;&gt;Node19 -->
<g id="edge24" class="edge">
<title>Node4&#45;&gt;Node19</title>
<path fill="none" stroke="midnightblue" d="M930.97,-118.81C929.43,-91.08 926.61,-40.13 925.48,-19.76"/>
<polygon fill="midnightblue" stroke="midnightblue" points="927.47,-119.01 931.52,-128.81 934.46,-118.63 927.47,-119.01"/>
</g>
<!-- Node20 -->
<g id="node20" class="node">
<title>Node20</title>
<g id="a_node20"><a xlink:href="test__hlll_8cpp.html" target="_top" xlink:title=" ">
<polygon fill="white" stroke="black" points="996,-0.5 996,-19.5 1090,-19.5 1090,-0.5 996,-0.5"/>
<text text-anchor="middle" x="1043" y="-7.5" font-family="Helvetica,sans-Serif" font-size="10.00">tests/test_hlll.cpp</text>
</a>
</g>
</g>
<!-- Node4&#45;&gt;Node20 -->
<g id="edge25" class="edge">
<title>Node4&#45;&gt;Node20</title>
<path fill="none" stroke="midnightblue" d="M942.38,-119.92C952.97,-102.7 970.44,-76.19 989,-56 1001.88,-41.98 1019.12,-28.34 1030.61,-19.82"/>
<polygon fill="midnightblue" stroke="midnightblue" points="939.16,-118.49 936.99,-128.86 945.15,-122.1 939.16,-118.49"/>
</g>
<!-- Node21 -->
<g id="node21" class="node">
<title>Node21</title>
<g id="a_node21"><a xlink:href="test__lll_8cpp.html" target="_top" xlink:title=" ">
<polygon fill="white" stroke="black" points="1224.5,-0.5 1224.5,-19.5 1313.5,-19.5 1313.5,-0.5 1224.5,-0.5"/>
<text text-anchor="middle" x="1269" y="-7.5" font-family="Helvetica,sans-Serif" font-size="10.00">tests/test_lll.cpp</text>
</a>
</g>
</g>
<!-- Node4&#45;&gt;Node21 -->
<g id="edge26" class="edge">
<title>Node4&#45;&gt;Node21</title>
<path fill="none" stroke="midnightblue" d="M963.08,-125.39C965.41,-124.56 967.74,-123.75 970,-123 1025.26,-104.6 1043.46,-112.12 1096,-87 1117.58,-76.68 1118.72,-66.93 1140,-56 1171.43,-39.85 1209.98,-27.25 1236.71,-19.55"/>
<polygon fill="midnightblue" stroke="midnightblue" points="961.76,-122.15 953.59,-128.89 964.18,-128.72 961.76,-122.15"/>
</g>
<!-- Node22 -->
<g id="node22" class="node">
<title>Node22</title>
<g id="a_node22"><a xlink:href="test__lll__gram_8cpp.html" target="_top" xlink:title=" ">
<polygon fill="white" stroke="black" points="1331,-0.5 1331,-19.5 1447,-19.5 1447,-0.5 1331,-0.5"/>
<text text-anchor="middle" x="1389" y="-7.5" font-family="Helvetica,sans-Serif" font-size="10.00">tests/test_lll_gram.cpp</text>
</a>
</g>
</g>
<!-- Node4&#45;&gt;Node22 -->
<g id="edge27" class="edge">
<title>Node4&#45;&gt;Node22</title>
<path fill="none" stroke="midnightblue" d="M962.13,-125.55C964.78,-124.64 967.43,-123.77 970,-123 1040.64,-101.8 1064.23,-116.12 1132,-87 1154.65,-77.27 1155.31,-65.64 1178,-56 1206.36,-43.96 1285.39,-28.81 1338.27,-19.52"/>
<polygon fill="midnightblue" stroke="midnightblue" points="960.92,-122.26 952.72,-128.97 963.31,-128.84 960.92,-122.26"/>
</g>
<!-- Node23 -->
<g id="node23" class="node">
<title>Node23</title>
<g id="a_node23"><a xlink:href="test__nr_8cpp.html" target="_top" xlink:title=" ">
<polygon fill="white" stroke="black" points="1351.5,-62 1351.5,-81 1440.5,-81 1440.5,-62 1351.5,-62"/>
<text text-anchor="middle" x="1396" y="-69" font-family="Helvetica,sans-Serif" font-size="10.00">tests/test_nr.cpp</text>
</a>
</g>
</g>
<!-- Node4&#45;&gt;Node23 -->
<g id="edge28" class="edge">
<title>Node4&#45;&gt;Node23</title>
<path fill="none" stroke="midnightblue" d="M960.88,-125.57C963.93,-124.59 967,-123.7 970,-123 1131.71,-85.05 1178.56,-116.64 1342,-87 1350.41,-85.48 1359.41,-83.29 1367.62,-81.07"/>
<polygon fill="midnightblue" stroke="midnightblue" points="959.65,-122.29 951.41,-128.95 962,-128.89 959.65,-122.29"/>
</g>
<!-- Node24 -->
<g id="node24" class="node">
<title>Node24</title>
<g id="a_node24"><a xlink:href="test__pruner_8cpp.html" target="_top" xlink:title=" ">
<polygon fill="white" stroke="black" points="1459,-62 1459,-81 1567,-81 1567,-62 1459,-62"/>
<text text-anchor="middle" x="1513" y="-69" font-family="Helvetica,sans-Serif" font-size="10.00">tests/test_pruner.cpp</text>
</a>
</g>
</g>
<!-- Node4&#45;&gt;Node24 -->
<g id="edge29" class="edge">
<title>Node4&#45;&gt;Node24</title>
<path fill="none" stroke="midnightblue" d="M960.87,-125.5C963.91,-124.53 967,-123.67 970,-123 1178.35,-76.46 1237.87,-118.67 1449,-87 1459.03,-85.5 1469.82,-83.28 1479.63,-81.04"/>
<polygon fill="midnightblue" stroke="midnightblue" points="959.64,-122.22 951.39,-128.86 961.98,-128.82 959.64,-122.22"/>
</g>
<!-- Node25 -->
<g id="node25" class="node">
<title>Node25</title>
<g id="a_node25"><a xlink:href="test__svp_8cpp.html" target="_top" xlink:title=" ">
<polygon fill="white" stroke="black" points="1465,-0.5 1465,-19.5 1563,-19.5 1563,-0.5 1465,-0.5"/>
<text text-anchor="middle" x="1514" y="-7.5" font-family="Helvetica,sans-Serif" font-size="10.00">tests/test_svp.cpp</text>
</a>
</g>
</g>
<!-- Node4&#45;&gt;Node25 -->
<g id="edge30" class="edge">
<title>Node4&#45;&gt;Node25</title>
<path fill="none" stroke="midnightblue" d="M961.91,-125.5C964.63,-124.59 967.35,-123.74 970,-123 1056.58,-98.87 1086.48,-122.61 1169,-87 1190.3,-77.81 1189.55,-64.84 1211,-56 1312.76,-14.07 1347.18,-36.44 1456,-20 1458.92,-19.56 1461.93,-19.1 1464.96,-18.64"/>
<polygon fill="midnightblue" stroke="midnightblue" points="960.5,-122.29 952.28,-128.97 962.87,-128.87 960.5,-122.29"/>
</g>
<!-- Node26 -->
<g id="node26" class="node">
<title>Node26</title>
<g id="a_node26"><a xlink:href="test__svp__gram_8cpp.html" target="_top" xlink:title=" ">
<polygon fill="white" stroke="black" points="1581.5,-0.5 1581.5,-19.5 1706.5,-19.5 1706.5,-0.5 1581.5,-0.5"/>
<text text-anchor="middle" x="1644" y="-7.5" font-family="Helvetica,sans-Serif" font-size="10.00">tests/test_svp_gram.cpp</text>
</a>
</g>
</g>
<!-- Node4&#45;&gt;Node26 -->
<g id="edge31" class="edge">
<title>Node4&#45;&gt;Node26</title>
<path fill="none" stroke="midnightblue" d="M960.65,-125.5C963.76,-124.51 966.92,-123.65 970,-123 1045.33,-107.08 1608.99,-142.84 1662,-87 1679.83,-68.22 1661.04,-35.16 1650.34,-19.58"/>
<polygon fill="midnightblue" stroke="midnightblue" points="959.23,-122.28 950.98,-128.93 961.57,-128.88 959.23,-122.28"/>
</g>
<!-- Node27 -->
<g id="node27" class="node">
<title>Node27</title>
<g id="a_node27"><a xlink:href="test__utils_8h.html" target="_top" xlink:title=" ">
<polygon fill="white" stroke="black" points="998.5,-62 998.5,-81 1087.5,-81 1087.5,-62 998.5,-62"/>
<text text-anchor="middle" x="1043" y="-69" font-family="Helvetica,sans-Serif" font-size="10.00">tests/test_utils.h</text>
</a>
</g>
</g>
<!-- Node4&#45;&gt;Node27 -->
<g id="edge32" class="edge">
<title>Node4&#45;&gt;Node27</title>
<path fill="none" stroke="midnightblue" d="M955.71,-123.62C977.7,-110.74 1009.74,-91.98 1028.27,-81.13"/>
<polygon fill="midnightblue" stroke="midnightblue" points="953.83,-120.66 946.97,-128.73 957.37,-126.7 953.83,-120.66"/>
</g>
<!-- Node7 -->
<g id="node7" class="node">
<title>Node7</title>
<g id="a_node7"><a xlink:href="main_8cpp.html" target="_top" xlink:title=" ">
<polygon fill="white" stroke="black" points="1725,-0.5 1725,-19.5 1799,-19.5 1799,-0.5 1725,-0.5"/>
<text text-anchor="middle" x="1762" y="-7.5" font-family="Helvetica,sans-Serif" font-size="10.00">fplll/main.cpp</text>
</a>
</g>
</g>
<!-- Node6&#45;&gt;Node7 -->
<g id="edge6" class="edge">
<title>Node6&#45;&gt;Node7</title>
<path fill="none" stroke="midnightblue" d="M1755.14,-51.82C1756.96,-41 1759.16,-27.9 1760.57,-19.51"/>
<polygon fill="midnightblue" stroke="midnightblue" points="1751.64,-51.53 1753.43,-61.98 1758.54,-52.69 1751.64,-51.53"/>
</g>
<!-- Node9&#45;&gt;Node8 -->
<g id="edge9" class="edge">
<title>Node9&#45;&gt;Node8</title>
<path fill="none" stroke="midnightblue" d="M687.85,-56.81C686.55,-56.53 685.27,-56.26 684,-56 613.31,-41.38 531.16,-27.77 478.19,-19.43"/>
<polygon fill="midnightblue" stroke="midnightblue" points="687.36,-60.29 697.88,-59.03 688.87,-53.45 687.36,-60.29"/>
</g>
<!-- Node10&#45;&gt;Node8 -->
<g id="edge11" class="edge">
<title>Node10&#45;&gt;Node8</title>
<path fill="none" stroke="midnightblue" d="M312.7,-52.8C341.56,-41.86 377.32,-28.31 400.16,-19.66"/>
<polygon fill="midnightblue" stroke="midnightblue" points="311.32,-49.58 303.21,-56.4 313.8,-56.13 311.32,-49.58"/>
</g>
<!-- Node11&#45;&gt;Node8 -->
<g id="edge13" class="edge">
<title>Node11&#45;&gt;Node8</title>
<path fill="none" stroke="midnightblue" d="M393.45,-48.4C401.35,-38.41 410.22,-27.18 416.16,-19.66"/>
<polygon fill="midnightblue" stroke="midnightblue" points="390.59,-46.38 387.14,-56.4 396.08,-50.72 390.59,-46.38"/>
</g>
<!-- Node12&#45;&gt;Node8 -->
<g id="edge15" class="edge">
<title>Node12&#45;&gt;Node8</title>
<path fill="none" stroke="midnightblue" d="M211.99,-55.82C275.75,-40.8 338.98,-27.73 379.82,-19.52"/>
<polygon fill="midnightblue" stroke="midnightblue" points="211.1,-52.44 202.17,-58.15 212.71,-59.25 211.1,-52.44"/>
</g>
<!-- Node13&#45;&gt;Node8 -->
<g id="edge17" class="edge">
<title>Node13&#45;&gt;Node8</title>
<path fill="none" stroke="midnightblue" d="M463.55,-49.3C452.74,-39.09 440.37,-27.41 432.17,-19.66"/>
<polygon fill="midnightblue" stroke="midnightblue" points="461.4,-52.08 471.07,-56.4 466.2,-46.99 461.4,-52.08"/>
</g>
<!-- Node14&#45;&gt;Node8 -->
<g id="edge19" class="edge">
<title>Node14&#45;&gt;Node8</title>
<path fill="none" stroke="midnightblue" d="M545.34,-53.08C513.29,-42.05 473.28,-28.29 447.92,-19.57"/>
<polygon fill="midnightblue" stroke="midnightblue" points="544.41,-56.46 555,-56.4 546.68,-49.84 544.41,-56.46"/>
</g>
<!-- Node27&#45;&gt;Node15 -->
<g id="edge33" class="edge">
<title>Node27&#45;&gt;Node15</title>
<path fill="none" stroke="midnightblue" d="M988.27,-64.92C904.98,-56.28 741.43,-38.68 603,-20 600.07,-19.6 597.06,-19.18 594.03,-18.75"/>
<polygon fill="midnightblue" stroke="midnightblue" points="987.96,-68.41 998.27,-65.96 988.68,-61.45 987.96,-68.41"/>
</g>
<!-- Node27&#45;&gt;Node16 -->
<g id="edge34" class="edge">
<title>Node27&#45;&gt;Node16</title>
<path fill="none" stroke="midnightblue" d="M988.26,-61.65C918.02,-50.29 797.01,-30.73 727.75,-19.53"/>
<polygon fill="midnightblue" stroke="midnightblue" points="987.81,-65.12 998.24,-63.26 988.93,-58.21 987.81,-65.12"/>
</g>
<!-- Node27&#45;&gt;Node18 -->
<g id="edge35" class="edge">
<title>Node27&#45;&gt;Node18</title>
<path fill="none" stroke="midnightblue" d="M999.16,-59.54C952.96,-47.99 881.16,-30.04 839.04,-19.51"/>
<polygon fill="midnightblue" stroke="midnightblue" points="998.35,-62.95 1008.9,-61.98 1000.05,-56.15 998.35,-62.95"/>
</g>
<!-- Node27&#45;&gt;Node19 -->
<g id="edge36" class="edge">
<title>Node27&#45;&gt;Node19</title>
<path fill="none" stroke="midnightblue" d="M1016.95,-57.37C994.08,-45.83 961.49,-29.4 941.88,-19.51"/>
<polygon fill="midnightblue" stroke="midnightblue" points="1015.59,-60.6 1026.09,-61.98 1018.74,-54.35 1015.59,-60.6"/>
</g>
<!-- Node27&#45;&gt;Node20 -->
<g id="edge38" class="edge">
<title>Node27&#45;&gt;Node20</title>
<path fill="none" stroke="midnightblue" d="M1043,-51.82C1043,-41 1043,-27.9 1043,-19.51"/>
<polygon fill="midnightblue" stroke="midnightblue" points="1039.5,-51.98 1043,-61.98 1046.5,-51.98 1039.5,-51.98"/>
</g>
<!-- Node27&#45;&gt;Node21 -->
<g id="edge39" class="edge">
<title>Node27&#45;&gt;Node21</title>
<path fill="none" stroke="midnightblue" d="M1085.18,-59.4C1129.07,-47.84 1196.85,-30 1236.68,-19.51"/>
<polygon fill="midnightblue" stroke="midnightblue" points="1084.16,-56.04 1075.38,-61.98 1085.94,-62.81 1084.16,-56.04"/>
</g>
<!-- Node27&#45;&gt;Node22 -->
<g id="edge40" class="edge">
<title>Node27&#45;&gt;Node22</title>
<path fill="none" stroke="midnightblue" d="M1097.38,-61.15C1163.79,-49.73 1275.15,-30.58 1339.34,-19.54"/>
<polygon fill="midnightblue" stroke="midnightblue" points="1096.79,-57.7 1087.53,-62.84 1097.97,-64.6 1096.79,-57.7"/>
</g>
<!-- Node27&#45;&gt;Node25 -->
<g id="edge41" class="edge">
<title>Node27&#45;&gt;Node25</title>
<path fill="none" stroke="midnightblue" d="M1097.9,-64.36C1177.1,-55.37 1327.95,-37.76 1456,-20 1458.93,-19.59 1461.94,-19.16 1464.97,-18.72"/>
<polygon fill="midnightblue" stroke="midnightblue" points="1097.22,-60.91 1087.68,-65.52 1098.01,-67.87 1097.22,-60.91"/>
</g>
<!-- Node27&#45;&gt;Node26 -->
<g id="edge42" class="edge">
<title>Node27&#45;&gt;Node26</title>
<path fill="none" stroke="midnightblue" d="M1097.69,-65.81C1193.75,-57.45 1399.02,-39.06 1572,-20 1575.01,-19.67 1578.08,-19.32 1581.18,-18.96"/>
<polygon fill="midnightblue" stroke="midnightblue" points="1097.29,-62.33 1087.63,-66.68 1097.9,-69.3 1097.29,-62.33"/>
</g>
<!-- Node28 -->
<g id="node28" class="node">
<title>Node28</title>
<g id="a_node28"><a xlink:href="test__gso_8cpp.html" target="_top" xlink:title=" ">
<polygon fill="white" stroke="black" points="1108,-0.5 1108,-19.5 1206,-19.5 1206,-0.5 1108,-0.5"/>
<text text-anchor="middle" x="1157" y="-7.5" font-family="Helvetica,sans-Serif" font-size="10.00">tests/test_gso.cpp</text>
</a>
</g>
</g>
<!-- Node27&#45;&gt;Node28 -->
<g id="edge37" class="edge">
<title>Node27&#45;&gt;Node28</title>
<path fill="none" stroke="midnightblue" d="M1068.46,-57.21C1090.54,-45.69 1121.83,-29.36 1140.7,-19.51"/>
<polygon fill="midnightblue" stroke="midnightblue" points="1066.58,-54.25 1059.33,-61.98 1069.82,-60.45 1066.58,-54.25"/>
</g>
</g>
</svg>
