<?xml version="1.0" encoding="UTF-8" standalone="no"?>
<!DOCTYPE svg PUBLIC "-//W3C//DTD SVG 1.1//EN"
 "http://www.w3.org/Graphics/SVG/1.1/DTD/svg11.dtd">
<!-- Generated by graphviz version 2.40.1 (20161225.0304)
 -->
<!-- Title: fplll/io/thread_pool.hpp Pages: 1 -->
<svg width="1958pt" height="274pt"
 viewBox="0.00 0.00 1958.00 274.00" xmlns="http://www.w3.org/2000/svg" xmlns:xlink="http://www.w3.org/1999/xlink">
<g id="graph0" class="graph" transform="scale(1 1) rotate(0) translate(4 270)">
<title>fplll/io/thread_pool.hpp</title>
<polygon fill="#ffffff" stroke="transparent" points="-4,4 -4,-270 1954,-270 1954,4 -4,4"/>
<!-- Node0 -->
<g id="node1" class="node">
<title>Node0</title>
<polygon fill="#bfbfbf" stroke="#000000" points="1004,-246.5 1004,-265.5 1118,-265.5 1118,-246.5 1004,-246.5"/>
<text text-anchor="middle" x="1061" y="-253.5" font-family="Helvetica,sans-Serif" font-size="10.00" fill="#000000">fplll/io/thread_pool.hpp</text>
</g>
<!-- Node1 -->
<g id="node2" class="node">
<title>Node1</title>
<g id="a_node2"><a xlink:href="threadpool_8h.html" target="_top" xlink:title="fplll/threadpool.h">
<polygon fill="#ffffff" stroke="#000000" points="1017,-190.5 1017,-209.5 1105,-209.5 1105,-190.5 1017,-190.5"/>
<text text-anchor="middle" x="1061" y="-197.5" font-family="Helvetica,sans-Serif" font-size="10.00" fill="#000000">fplll/threadpool.h</text>
</a>
</g>
</g>
<!-- Node0&#45;&gt;Node1 -->
<g id="edge1" class="edge">
<title>Node0&#45;&gt;Node1</title>
<path fill="none" stroke="#191970" d="M1061,-236.1575C1061,-227.155 1061,-216.9199 1061,-209.6427"/>
<polygon fill="#191970" stroke="#191970" points="1057.5001,-236.2455 1061,-246.2455 1064.5001,-236.2456 1057.5001,-236.2455"/>
</g>
<!-- Node2 -->
<g id="node3" class="node">
<title>Node2</title>
<g id="a_node3"><a xlink:href="enumeration_8h.html" target="_top" xlink:title="fplll/enum&#45;parallel\l/enumeration.h">
<polygon fill="#ffffff" stroke="#000000" points="471,-123.5 471,-153.5 563,-153.5 563,-123.5 471,-123.5"/>
<text text-anchor="start" x="479" y="-141.5" font-family="Helvetica,sans-Serif" font-size="10.00" fill="#000000">fplll/enum&#45;parallel</text>
<text text-anchor="middle" x="517" y="-130.5" font-family="Helvetica,sans-Serif" font-size="10.00" fill="#000000">/enumeration.h</text>
</a>
</g>
</g>
<!-- Node1&#45;&gt;Node2 -->
<g id="edge2" class="edge">
<title>Node1&#45;&gt;Node2</title>
<path fill="none" stroke="#191970" d="M1006.6861,-193.8597C899.6009,-181.7536 662.9659,-155.0017 563.0028,-143.7007"/>
<polygon fill="#191970" stroke="#191970" points="1006.6131,-197.3737 1016.943,-195.0193 1007.3995,-190.418 1006.6131,-197.3737"/>
</g>
<!-- Node4 -->
<g id="node5" class="node">
<title>Node4</title>
<g id="a_node5"><a xlink:href="fplll_8h.html" target="_top" xlink:title="fplll/fplll.h">
<polygon fill="#ffffff" stroke="#000000" points="1032,-129 1032,-148 1090,-148 1090,-129 1032,-129"/>
<text text-anchor="middle" x="1061" y="-136" font-family="Helvetica,sans-Serif" font-size="10.00" fill="#000000">fplll/fplll.h</text>
</a>
</g>
</g>
<!-- Node1&#45;&gt;Node4 -->
<g id="edge4" class="edge">
<title>Node1&#45;&gt;Node4</title>
<path fill="none" stroke="#191970" d="M1061,-180.2462C1061,-169.5519 1061,-156.814 1061,-148.2449"/>
<polygon fill="#191970" stroke="#191970" points="1057.5001,-180.3906 1061,-190.3906 1064.5001,-180.3907 1057.5001,-180.3906"/>
</g>
<!-- Node30 -->
<g id="node31" class="node">
<title>Node30</title>
<g id="a_node31"><a xlink:href="threadpool_8cpp.html" target="_top" xlink:title="fplll/threadpool.cpp">
<polygon fill="#ffffff" stroke="#000000" points="1108,-129 1108,-148 1206,-148 1206,-129 1108,-129"/>
<text text-anchor="middle" x="1157" y="-136" font-family="Helvetica,sans-Serif" font-size="10.00" fill="#000000">fplll/threadpool.cpp</text>
</a>
</g>
</g>
<!-- Node1&#45;&gt;Node30 -->
<g id="edge45" class="edge">
<title>Node1&#45;&gt;Node30</title>
<path fill="none" stroke="#191970" d="M1084.7486,-184.786C1102.6993,-173.2864 1126.7873,-157.855 1142.1053,-148.0419"/>
<polygon fill="#191970" stroke="#191970" points="1082.5323,-182.0492 1076,-190.3906 1086.3083,-187.9434 1082.5323,-182.0492"/>
</g>
<!-- Node3 -->
<g id="node4" class="node">
<title>Node3</title>
<g id="a_node4"><a xlink:href="enumlib_8cpp.html" target="_top" xlink:title="fplll/enum&#45;parallel\l/enumlib.cpp">
<polygon fill="#ffffff" stroke="#000000" points="0,-56.5 0,-86.5 92,-86.5 92,-56.5 0,-56.5"/>
<text text-anchor="start" x="8" y="-74.5" font-family="Helvetica,sans-Serif" font-size="10.00" fill="#000000">fplll/enum&#45;parallel</text>
<text text-anchor="middle" x="46" y="-63.5" font-family="Helvetica,sans-Serif" font-size="10.00" fill="#000000">/enumlib.cpp</text>
</a>
</g>
</g>
<!-- Node2&#45;&gt;Node3 -->
<g id="edge3" class="edge">
<title>Node2&#45;&gt;Node3</title>
<path fill="none" stroke="#191970" d="M460.3761,-134.2279C379.9196,-127.5392 228.1585,-112.635 101,-87 98.0825,-86.4118 95.0935,-85.7487 92.0898,-85.0361"/>
<polygon fill="#191970" stroke="#191970" points="460.5208,-137.7514 470.7732,-135.0794 461.0922,-130.7747 460.5208,-137.7514"/>
</g>
<!-- Node5 -->
<g id="node6" class="node">
<title>Node5</title>
<g id="a_node6"><a xlink:href="fplll_8cpp.html" target="_top" xlink:title="fplll/fplll.cpp">
<polygon fill="#ffffff" stroke="#000000" points="1728,-62 1728,-81 1796,-81 1796,-62 1728,-62"/>
<text text-anchor="middle" x="1762" y="-69" font-family="Helvetica,sans-Serif" font-size="10.00" fill="#000000">fplll/fplll.cpp</text>
</a>
</g>
</g>
<!-- Node4&#45;&gt;Node5 -->
<g id="edge5" class="edge">
<title>Node4&#45;&gt;Node5</title>
<path fill="none" stroke="#191970" d="M1090.5043,-125.3826C1093.3373,-124.4531 1096.1987,-123.6342 1099,-123 1368.2065,-62.0517 1448.5916,-142.3731 1719,-87 1725.6858,-85.6309 1732.7323,-83.4325 1739.1426,-81.1163"/>
<polygon fill="#191970" stroke="#191970" points="1089.2715,-122.1068 1081.1098,-128.8624 1091.7029,-128.671 1089.2715,-122.1068"/>
</g>
<!-- Node6 -->
<g id="node7" class="node">
<title>Node6</title>
<g id="a_node7"><a xlink:href="main_8h.html" target="_top" xlink:title="fplll/main.h">
<polygon fill="#ffffff" stroke="#000000" points="1871,-62 1871,-81 1935,-81 1935,-62 1871,-62"/>
<text text-anchor="middle" x="1903" y="-69" font-family="Helvetica,sans-Serif" font-size="10.00" fill="#000000">fplll/main.h</text>
</a>
</g>
</g>
<!-- Node4&#45;&gt;Node6 -->
<g id="edge6" class="edge">
<title>Node4&#45;&gt;Node6</title>
<path fill="none" stroke="#191970" d="M1090.3003,-125.4194C1093.1991,-124.4688 1096.1305,-123.6356 1099,-123 1420.0522,-51.8855 1512.4472,-133.3368 1838,-87 1848.7963,-85.4633 1860.4277,-82.9654 1870.8255,-80.4192"/>
<polygon fill="#191970" stroke="#191970" points="1088.86,-122.2208 1080.7073,-128.9873 1091.3002,-128.7818 1088.86,-122.2208"/>
</g>
<!-- Node8 -->
<g id="node9" class="node">
<title>Node8</title>
<g id="a_node9"><a xlink:href="pruner_8cpp.html" target="_top" xlink:title="fplll/pruner/pruner.cpp">
<polygon fill="#ffffff" stroke="#000000" points="359,-.5 359,-19.5 469,-19.5 469,-.5 359,-.5"/>
<text text-anchor="middle" x="414" y="-7.5" font-family="Helvetica,sans-Serif" font-size="10.00" fill="#000000">fplll/pruner/pruner.cpp</text>
</a>
</g>
</g>
<!-- Node4&#45;&gt;Node8 -->
<g id="edge8" class="edge">
<title>Node4&#45;&gt;Node8</title>
<path fill="none" stroke="#191970" d="M1021.7479,-137.0847C877.1975,-131.6857 381.7243,-111.4524 359,-87 338.4226,-64.8577 375.8383,-34.7667 398.5123,-19.5919"/>
<polygon fill="#191970" stroke="#191970" points="1021.805,-140.5891 1031.9278,-137.462 1022.0643,-133.5939 1021.805,-140.5891"/>
</g>
<!-- Node9 -->
<g id="node10" class="node">
<title>Node9</title>
<g id="a_node10"><a xlink:href="pruner__cost_8cpp.html" target="_top" xlink:title="fplll/pruner/pruner\l_cost.cpp">
<polygon fill="#ffffff" stroke="#000000" points="368,-56.5 368,-86.5 460,-86.5 460,-56.5 368,-56.5"/>
<text text-anchor="start" x="376" y="-74.5" font-family="Helvetica,sans-Serif" font-size="10.00" fill="#000000">fplll/pruner/pruner</text>
<text text-anchor="middle" x="414" y="-63.5" font-family="Helvetica,sans-Serif" font-size="10.00" fill="#000000">_cost.cpp</text>
</a>
</g>
</g>
<!-- Node4&#45;&gt;Node9 -->
<g id="edge9" class="edge">
<title>Node4&#45;&gt;Node9</title>
<path fill="none" stroke="#191970" d="M1021.725,-137.6283C926.2901,-134.9597 674.9082,-124.6253 469,-87 466.0723,-86.465 463.0755,-85.8426 460.0659,-85.1605"/>
<polygon fill="#191970" stroke="#191970" points="1021.6999,-141.1287 1031.7898,-137.8971 1021.8868,-134.1312 1021.6999,-141.1287"/>
</g>
<!-- Node10 -->
<g id="node11" class="node">
<title>Node10</title>
<g id="a_node11"><a xlink:href="pruner__optimize_8cpp.html" target="_top" xlink:title="fplll/pruner/pruner\l_optimize.cpp">
<polygon fill="#ffffff" stroke="#000000" points="478,-56.5 478,-86.5 570,-86.5 570,-56.5 478,-56.5"/>
<text text-anchor="start" x="486" y="-74.5" font-family="Helvetica,sans-Serif" font-size="10.00" fill="#000000">fplll/pruner/pruner</text>
<text text-anchor="middle" x="524" y="-63.5" font-family="Helvetica,sans-Serif" font-size="10.00" fill="#000000">_optimize.cpp</text>
</a>
</g>
</g>
<!-- Node4&#45;&gt;Node10 -->
<g id="edge11" class="edge">
<title>Node4&#45;&gt;Node10</title>
<path fill="none" stroke="#191970" d="M1021.7725,-136.5495C939.2052,-131.9543 741.6808,-118.3826 579,-87 576.0777,-86.4363 573.085,-85.7918 570.0786,-85.0933"/>
<polygon fill="#191970" stroke="#191970" points="1021.7795,-140.0549 1031.9547,-137.1027 1022.1594,-133.0652 1021.7795,-140.0549"/>
</g>
<!-- Node11 -->
<g id="node12" class="node">
<title>Node11</title>
<g id="a_node12"><a xlink:href="pruner__optimize__tc_8cpp.html" target="_top" xlink:title="fplll/pruner/pruner\l_optimize_tc.cpp">
<polygon fill="#ffffff" stroke="#000000" points="588,-56.5 588,-86.5 680,-86.5 680,-56.5 588,-56.5"/>
<text text-anchor="start" x="596" y="-74.5" font-family="Helvetica,sans-Serif" font-size="10.00" fill="#000000">fplll/pruner/pruner</text>
<text text-anchor="middle" x="634" y="-63.5" font-family="Helvetica,sans-Serif" font-size="10.00" fill="#000000">_optimize_tc.cpp</text>
</a>
</g>
</g>
<!-- Node4&#45;&gt;Node11 -->
<g id="edge13" class="edge">
<title>Node4&#45;&gt;Node11</title>
<path fill="none" stroke="#191970" d="M1021.5391,-134.8338C953.2773,-128.0929 808.9449,-112.0805 689,-87 686.0868,-86.3909 683.1011,-85.7116 680.0999,-84.9871"/>
<polygon fill="#191970" stroke="#191970" points="1021.5339,-138.3498 1031.8262,-135.8361 1022.2127,-131.3828 1021.5339,-138.3498"/>
</g>
<!-- Node12 -->
<g id="node13" class="node">
<title>Node12</title>
<g id="a_node13"><a xlink:href="pruner__optimize__tp_8cpp.html" target="_top" xlink:title="fplll/pruner/pruner\l_optimize_tp.cpp">
<polygon fill="#ffffff" stroke="#000000" points="110,-56.5 110,-86.5 202,-86.5 202,-56.5 110,-56.5"/>
<text text-anchor="start" x="118" y="-74.5" font-family="Helvetica,sans-Serif" font-size="10.00" fill="#000000">fplll/pruner/pruner</text>
<text text-anchor="middle" x="156" y="-63.5" font-family="Helvetica,sans-Serif" font-size="10.00" fill="#000000">_optimize_tp.cpp</text>
</a>
</g>
</g>
<!-- Node4&#45;&gt;Node12 -->
<g id="edge15" class="edge">
<title>Node4&#45;&gt;Node12</title>
<path fill="none" stroke="#191970" d="M1021.4535,-137.2289C875.8857,-132.375 370.097,-113.9178 211,-87 208.0655,-86.5035 205.0635,-85.9105 202.0501,-85.2505"/>
<polygon fill="#191970" stroke="#191970" points="1021.5839,-140.735 1031.6942,-137.5676 1021.8154,-133.7388 1021.5839,-140.735"/>
</g>
<!-- Node13 -->
<g id="node14" class="node">
<title>Node13</title>
<g id="a_node14"><a xlink:href="pruner__prob_8cpp.html" target="_top" xlink:title="fplll/pruner/pruner\l_prob.cpp">
<polygon fill="#ffffff" stroke="#000000" points="220,-56.5 220,-86.5 312,-86.5 312,-56.5 220,-56.5"/>
<text text-anchor="start" x="228" y="-74.5" font-family="Helvetica,sans-Serif" font-size="10.00" fill="#000000">fplll/pruner/pruner</text>
<text text-anchor="middle" x="266" y="-63.5" font-family="Helvetica,sans-Serif" font-size="10.00" fill="#000000">_prob.cpp</text>
</a>
</g>
</g>
<!-- Node4&#45;&gt;Node13 -->
<g id="edge17" class="edge">
<title>Node4&#45;&gt;Node13</title>
<path fill="none" stroke="#191970" d="M1021.6938,-136.6966C889.5485,-130.4848 461.9868,-109.1381 326,-87 321.4339,-86.2567 316.7089,-85.3257 312.0072,-84.2912"/>
<polygon fill="#191970" stroke="#191970" points="1021.6156,-140.1967 1031.7682,-137.1677 1021.9426,-133.2043 1021.6156,-140.1967"/>
</g>
<!-- Node14 -->
<g id="node15" class="node">
<title>Node14</title>
<g id="a_node15"><a xlink:href="pruner__util_8cpp.html" target="_top" xlink:title="fplll/pruner/pruner\l_util.cpp">
<polygon fill="#ffffff" stroke="#000000" points="846,-56.5 846,-86.5 938,-86.5 938,-56.5 846,-56.5"/>
<text text-anchor="start" x="854" y="-74.5" font-family="Helvetica,sans-Serif" font-size="10.00" fill="#000000">fplll/pruner/pruner</text>
<text text-anchor="middle" x="892" y="-63.5" font-family="Helvetica,sans-Serif" font-size="10.00" fill="#000000">_util.cpp</text>
</a>
</g>
</g>
<!-- Node4&#45;&gt;Node14 -->
<g id="edge19" class="edge">
<title>Node4&#45;&gt;Node14</title>
<path fill="none" stroke="#191970" d="M1027.3753,-125.1695C999.2504,-114.0194 959.1466,-98.1203 929.8907,-86.5218"/>
<polygon fill="#191970" stroke="#191970" points="1026.2004,-128.4687 1036.7864,-128.9005 1028.7802,-121.9614 1026.2004,-128.4687"/>
</g>
<!-- Node15 -->
<g id="node16" class="node">
<title>Node15</title>
<g id="a_node16"><a xlink:href="sieve__main_8cpp.html" target="_top" xlink:title="fplll/sieve/sieve_main.cpp">
<polygon fill="#ffffff" stroke="#000000" points="698.5,-62 698.5,-81 827.5,-81 827.5,-62 698.5,-62"/>
<text text-anchor="middle" x="763" y="-69" font-family="Helvetica,sans-Serif" font-size="10.00" fill="#000000">fplll/sieve/sieve_main.cpp</text>
</a>
</g>
</g>
<!-- Node4&#45;&gt;Node15 -->
<g id="edge21" class="edge">
<title>Node4&#45;&gt;Node15</title>
<path fill="none" stroke="#191970" d="M1021.9891,-129.7291C965.964,-117.1328 863.1192,-94.01 805.3161,-81.014"/>
<polygon fill="#191970" stroke="#191970" points="1021.3597,-133.1749 1031.8839,-131.9538 1022.8952,-126.3454 1021.3597,-133.1749"/>
</g>
<!-- Node16 -->
<g id="node17" class="node">
<title>Node16</title>
<g id="a_node17"><a xlink:href="test__bkz_8cpp.html" target="_top" xlink:title="tests/test_bkz.cpp">
<polygon fill="#ffffff" stroke="#000000" points="647,-.5 647,-19.5 745,-19.5 745,-.5 647,-.5"/>
<text text-anchor="middle" x="696" y="-7.5" font-family="Helvetica,sans-Serif" font-size="10.00" fill="#000000">tests/test_bkz.cpp</text>
</a>
</g>
</g>
<!-- Node4&#45;&gt;Node16 -->
<g id="edge22" class="edge">
<title>Node4&#45;&gt;Node16</title>
<path fill="none" stroke="#191970" d="M1034.9637,-123.653C1018.6573,-113.9453 997.4943,-100.5842 980,-87 964.1059,-74.6583 964.9619,-65.0723 947,-56 942.4895,-53.7218 816.8485,-31.314 745.0749,-18.6348"/>
<polygon fill="#191970" stroke="#191970" points="1033.543,-126.8775 1043.939,-128.9208 1037.0863,-120.8405 1033.543,-126.8775"/>
</g>
<!-- Node17 -->
<g id="node18" class="node">
<title>Node17</title>
<g id="a_node18"><a xlink:href="test__bkz__gram_8cpp.html" target="_top" xlink:title="tests/test_bkz_gram.cpp">
<polygon fill="#ffffff" stroke="#000000" points="763.5,-.5 763.5,-19.5 888.5,-19.5 888.5,-.5 763.5,-.5"/>
<text text-anchor="middle" x="826" y="-7.5" font-family="Helvetica,sans-Serif" font-size="10.00" fill="#000000">tests/test_bkz_gram.cpp</text>
</a>
</g>
</g>
<!-- Node4&#45;&gt;Node17 -->
<g id="edge23" class="edge">
<title>Node4&#45;&gt;Node17</title>
<path fill="none" stroke="#191970" d="M1045.6773,-120.9448C1026.6451,-99.5004 994.8731,-64.9643 980,-56 950.0078,-37.923 912.4112,-26.5148 881.8741,-19.5812"/>
<polygon fill="#191970" stroke="#191970" points="1043.2761,-123.5138 1052.5137,-128.7021 1048.5278,-118.8856 1043.2761,-123.5138"/>
</g>
<!-- Node18 -->
<g id="node19" class="node">
<title>Node18</title>
<g id="a_node19"><a xlink:href="test__cvp_8cpp.html" target="_top" xlink:title="tests/test_cvp.cpp">
<polygon fill="#ffffff" stroke="#000000" points="907,-.5 907,-19.5 1005,-19.5 1005,-.5 907,-.5"/>
<text text-anchor="middle" x="956" y="-7.5" font-family="Helvetica,sans-Serif" font-size="10.00" fill="#000000">tests/test_cvp.cpp</text>
</a>
</g>
</g>
<!-- Node4&#45;&gt;Node18 -->
<g id="edge24" class="edge">
<title>Node4&#45;&gt;Node18</title>
<path fill="none" stroke="#191970" d="M1053.7712,-118.9523C1046.5647,-101.2225 1034.2369,-75.0258 1018,-56 1005.1231,-40.9114 986.4129,-27.8944 972.9181,-19.5969"/>
<polygon fill="#191970" stroke="#191970" points="1050.6982,-120.707 1057.5856,-128.7578 1057.222,-118.1692 1050.6982,-120.707"/>
</g>
<!-- Node19 -->
<g id="node20" class="node">
<title>Node19</title>
<g id="a_node20"><a xlink:href="test__enum_8cpp.html" target="_top" xlink:title="tests/test_enum.cpp">
<polygon fill="#ffffff" stroke="#000000" points="1368,-62 1368,-81 1474,-81 1474,-62 1368,-62"/>
<text text-anchor="middle" x="1421" y="-69" font-family="Helvetica,sans-Serif" font-size="10.00" fill="#000000">tests/test_enum.cpp</text>
</a>
</g>
</g>
<!-- Node4&#45;&gt;Node19 -->
<g id="edge25" class="edge">
<title>Node4&#45;&gt;Node19</title>
<path fill="none" stroke="#191970" d="M1091.4969,-125.3061C1094.01,-124.4505 1096.5323,-123.6664 1099,-123 1209.4985,-93.1583 1241.4706,-107.9186 1354,-87 1363.2731,-85.2762 1373.2033,-83.1402 1382.5021,-81.0106"/>
<polygon fill="#191970" stroke="#191970" points="1090.1248,-122.0824 1081.9841,-128.8632 1092.5766,-128.639 1090.1248,-122.0824"/>
</g>
<!-- Node20 -->
<g id="node21" class="node">
<title>Node20</title>
<g id="a_node21"><a xlink:href="test__hlll_8cpp.html" target="_top" xlink:title="tests/test_hlll.cpp">
<polygon fill="#ffffff" stroke="#000000" points="1023,-.5 1023,-19.5 1117,-19.5 1117,-.5 1023,-.5"/>
<text text-anchor="middle" x="1070" y="-7.5" font-family="Helvetica,sans-Serif" font-size="10.00" fill="#000000">tests/test_hlll.cpp</text>
</a>
</g>
</g>
<!-- Node4&#45;&gt;Node20 -->
<g id="edge26" class="edge">
<title>Node4&#45;&gt;Node20</title>
<path fill="none" stroke="#191970" d="M1062.3886,-118.6733C1064.3462,-90.7236 1067.8425,-40.8037 1069.3157,-19.7705"/>
<polygon fill="#191970" stroke="#191970" points="1058.8838,-118.6215 1061.6765,-128.8416 1065.8667,-119.1106 1058.8838,-118.6215"/>
</g>
<!-- Node21 -->
<g id="node22" class="node">
<title>Node21</title>
<g id="a_node22"><a xlink:href="test__lll_8cpp.html" target="_top" xlink:title="tests/test_lll.cpp">
<polygon fill="#ffffff" stroke="#000000" points="1135.5,-.5 1135.5,-19.5 1224.5,-19.5 1224.5,-.5 1135.5,-.5"/>
<text text-anchor="middle" x="1180" y="-7.5" font-family="Helvetica,sans-Serif" font-size="10.00" fill="#000000">tests/test_lll.cpp</text>
</a>
</g>
</g>
<!-- Node4&#45;&gt;Node21 -->
<g id="edge27" class="edge">
<title>Node4&#45;&gt;Node21</title>
<path fill="none" stroke="#191970" d="M1076.6474,-121.4416C1091.9878,-104.7352 1116.0539,-78.5719 1137,-56 1148.6003,-43.4993 1162.0303,-29.1523 1170.7524,-19.8511"/>
<polygon fill="#191970" stroke="#191970" points="1074.0531,-119.0922 1069.8696,-128.8261 1079.2101,-123.8256 1074.0531,-119.0922"/>
</g>
<!-- Node22 -->
<g id="node23" class="node">
<title>Node22</title>
<g id="a_node23"><a xlink:href="test__lll__gram_8cpp.html" target="_top" xlink:title="tests/test_lll_gram.cpp">
<polygon fill="#ffffff" stroke="#000000" points="1358,-.5 1358,-19.5 1474,-19.5 1474,-.5 1358,-.5"/>
<text text-anchor="middle" x="1416" y="-7.5" font-family="Helvetica,sans-Serif" font-size="10.00" fill="#000000">tests/test_lll_gram.cpp</text>
</a>
</g>
</g>
<!-- Node4&#45;&gt;Node22 -->
<g id="edge28" class="edge">
<title>Node4&#45;&gt;Node22</title>
<path fill="none" stroke="#191970" d="M1092.4537,-125.2664C1094.6564,-124.4645 1096.8536,-123.7002 1099,-123 1162.1271,-102.4074 1183.6041,-114.5938 1244,-87 1265.7583,-77.059 1266.7748,-67.0335 1288,-56 1318.3802,-40.2074 1355.4098,-27.5473 1381.8098,-19.5377"/>
<polygon fill="#191970" stroke="#191970" points="1090.9805,-122.083 1082.9036,-128.9397 1093.4935,-128.6164 1090.9805,-122.083"/>
</g>
<!-- Node23 -->
<g id="node24" class="node">
<title>Node23</title>
<g id="a_node24"><a xlink:href="test__nr_8cpp.html" target="_top" xlink:title="tests/test_nr.cpp">
<polygon fill="#ffffff" stroke="#000000" points="1492,-62 1492,-81 1582,-81 1582,-62 1492,-62"/>
<text text-anchor="middle" x="1537" y="-69" font-family="Helvetica,sans-Serif" font-size="10.00" fill="#000000">tests/test_nr.cpp</text>
</a>
</g>
</g>
<!-- Node4&#45;&gt;Node23 -->
<g id="edge29" class="edge">
<title>Node4&#45;&gt;Node23</title>
<path fill="none" stroke="#191970" d="M1091.0029,-125.3298C1093.6753,-124.4419 1096.3661,-123.6456 1099,-123 1265.4862,-82.1901 1314.5574,-118.7838 1483,-87 1491.0509,-85.4809 1499.6324,-83.2898 1507.5294,-81.0314"/>
<polygon fill="#191970" stroke="#191970" points="1089.6971,-122.0811 1081.5389,-128.8409 1092.132,-128.644 1089.6971,-122.0811"/>
</g>
<!-- Node24 -->
<g id="node25" class="node">
<title>Node24</title>
<g id="a_node25"><a xlink:href="test__pruner_8cpp.html" target="_top" xlink:title="tests/test_pruner.cpp">
<polygon fill="#ffffff" stroke="#000000" points="1600.5,-62 1600.5,-81 1709.5,-81 1709.5,-62 1600.5,-62"/>
<text text-anchor="middle" x="1655" y="-69" font-family="Helvetica,sans-Serif" font-size="10.00" fill="#000000">tests/test_pruner.cpp</text>
</a>
</g>
</g>
<!-- Node4&#45;&gt;Node24 -->
<g id="edge30" class="edge">
<title>Node4&#45;&gt;Node24</title>
<path fill="none" stroke="#191970" d="M1090.5146,-125.4275C1093.3455,-124.4885 1096.2035,-123.6553 1099,-123 1312.4692,-72.98 1374.3883,-120.9187 1591,-87 1600.4875,-85.5144 1610.6395,-83.3349 1619.9984,-81.0768"/>
<polygon fill="#191970" stroke="#191970" points="1089.2751,-122.1541 1081.1235,-128.9218 1091.7163,-128.7147 1089.2751,-122.1541"/>
</g>
<!-- Node25 -->
<g id="node26" class="node">
<title>Node25</title>
<g id="a_node26"><a xlink:href="test__sieve_8cpp.html" target="_top" xlink:title="tests/test_sieve.cpp">
<polygon fill="#ffffff" stroke="#000000" points="1492.5,-.5 1492.5,-19.5 1597.5,-19.5 1597.5,-.5 1492.5,-.5"/>
<text text-anchor="middle" x="1545" y="-7.5" font-family="Helvetica,sans-Serif" font-size="10.00" fill="#000000">tests/test_sieve.cpp</text>
</a>
</g>
</g>
<!-- Node4&#45;&gt;Node25 -->
<g id="edge31" class="edge">
<title>Node4&#45;&gt;Node25</title>
<path fill="none" stroke="#191970" d="M1091.9854,-125.3014C1094.3408,-124.4706 1096.697,-123.6918 1099,-123 1177.5527,-99.4037 1204.2852,-118.5369 1280,-87 1302.7584,-77.5206 1303.2927,-65.601 1326,-56 1355.4318,-43.5557 1437.4657,-28.1106 1492.3472,-18.6595"/>
<polygon fill="#191970" stroke="#191970" points="1090.5543,-122.1008 1082.4459,-128.9202 1093.0372,-128.6457 1090.5543,-122.1008"/>
</g>
<!-- Node26 -->
<g id="node27" class="node">
<title>Node26</title>
<g id="a_node27"><a xlink:href="test__svp_8cpp.html" target="_top" xlink:title="tests/test_svp.cpp">
<polygon fill="#ffffff" stroke="#000000" points="1616,-.5 1616,-19.5 1714,-19.5 1714,-.5 1616,-.5"/>
<text text-anchor="middle" x="1665" y="-7.5" font-family="Helvetica,sans-Serif" font-size="10.00" fill="#000000">tests/test_svp.cpp</text>
</a>
</g>
</g>
<!-- Node4&#45;&gt;Node26 -->
<g id="edge32" class="edge">
<title>Node4&#45;&gt;Node26</title>
<path fill="none" stroke="#191970" d="M1091.5146,-125.37C1094.0237,-124.5001 1096.5403,-123.6953 1099,-123 1193.4985,-96.2887 1226.5412,-125.2187 1317,-87 1338.3715,-77.9706 1337.544,-64.8267 1359,-56 1461.5952,-13.7936 1496.4149,-37.2705 1606,-20 1609.1814,-19.4986 1612.4574,-18.972 1615.7585,-18.4337"/>
<polygon fill="#191970" stroke="#191970" points="1090.1311,-122.1511 1082.0094,-128.9546 1092.6012,-128.7008 1090.1311,-122.1511"/>
</g>
<!-- Node27 -->
<g id="node28" class="node">
<title>Node27</title>
<g id="a_node28"><a xlink:href="test__svp__gram_8cpp.html" target="_top" xlink:title="tests/test_svp_gram.cpp">
<polygon fill="#ffffff" stroke="#000000" points="1732.5,-.5 1732.5,-19.5 1857.5,-19.5 1857.5,-.5 1732.5,-.5"/>
<text text-anchor="middle" x="1795" y="-7.5" font-family="Helvetica,sans-Serif" font-size="10.00" fill="#000000">tests/test_svp_gram.cpp</text>
</a>
</g>
</g>
<!-- Node4&#45;&gt;Node27 -->
<g id="edge33" class="edge">
<title>Node4&#45;&gt;Node27</title>
<path fill="none" stroke="#191970" d="M1090.3019,-125.4263C1093.2004,-124.4743 1096.1312,-123.6389 1099,-123 1175.6682,-105.9263 1750.892,-143.9373 1805,-87 1822.4579,-68.6292 1808.8815,-35.7139 1800.4372,-19.5238"/>
<polygon fill="#191970" stroke="#191970" points="1088.8605,-122.2281 1080.7093,-128.9963 1091.3021,-128.7885 1088.8605,-122.2281"/>
</g>
<!-- Node28 -->
<g id="node29" class="node">
<title>Node28</title>
<g id="a_node29"><a xlink:href="test__utils_8h.html" target="_top" xlink:title="tests/test_utils.h">
<polygon fill="#ffffff" stroke="#000000" points="1146.5,-62 1146.5,-81 1235.5,-81 1235.5,-62 1146.5,-62"/>
<text text-anchor="middle" x="1191" y="-69" font-family="Helvetica,sans-Serif" font-size="10.00" fill="#000000">tests/test_utils.h</text>
</a>
</g>
</g>
<!-- Node4&#45;&gt;Node28 -->
<g id="edge34" class="edge">
<title>Node4&#45;&gt;Node28</title>
<path fill="none" stroke="#191970" d="M1088.6885,-124.2298C1113.9261,-111.2227 1150.5107,-92.3676 1172.4087,-81.0817"/>
<polygon fill="#191970" stroke="#191970" points="1086.9113,-121.2082 1079.6258,-128.9005 1090.1182,-127.4304 1086.9113,-121.2082"/>
</g>
<!-- Node7 -->
<g id="node8" class="node">
<title>Node7</title>
<g id="a_node8"><a xlink:href="main_8cpp.html" target="_top" xlink:title="fplll/main.cpp">
<polygon fill="#ffffff" stroke="#000000" points="1876,-.5 1876,-19.5 1950,-19.5 1950,-.5 1876,-.5"/>
<text text-anchor="middle" x="1913" y="-7.5" font-family="Helvetica,sans-Serif" font-size="10.00" fill="#000000">fplll/main.cpp</text>
</a>
</g>
</g>
<!-- Node6&#45;&gt;Node7 -->
<g id="edge7" class="edge">
<title>Node6&#45;&gt;Node7</title>
<path fill="none" stroke="#191970" d="M1906.212,-51.7462C1907.9509,-41.0519 1910.0221,-28.314 1911.4155,-19.7449"/>
<polygon fill="#191970" stroke="#191970" points="1902.7129,-51.4585 1904.5625,-61.8906 1909.6221,-52.582 1902.7129,-51.4585"/>
</g>
<!-- Node9&#45;&gt;Node8 -->
<g id="edge10" class="edge">
<title>Node9&#45;&gt;Node8</title>
<path fill="none" stroke="#191970" d="M414,-46.2849C414,-36.9858 414,-26.9883 414,-19.8469"/>
<polygon fill="#191970" stroke="#191970" points="410.5001,-46.2977 414,-56.2977 417.5001,-46.2978 410.5001,-46.2977"/>
</g>
<!-- Node10&#45;&gt;Node8 -->
<g id="edge12" class="edge">
<title>Node10&#45;&gt;Node8</title>
<path fill="none" stroke="#191970" d="M488.2796,-51.5291C469.0716,-40.79 446.2719,-28.0429 431.0461,-19.5303"/>
<polygon fill="#191970" stroke="#191970" points="486.6545,-54.6303 497.091,-56.4554 490.0705,-48.5204 486.6545,-54.6303"/>
</g>
<!-- Node11&#45;&gt;Node8 -->
<g id="edge14" class="edge">
<title>Node11&#45;&gt;Node8</title>
<path fill="none" stroke="#191970" d="M578.0246,-55.7302C527.6648,-41.622 479.8185,-28.2982 448.4543,-19.5751"/>
<polygon fill="#191970" stroke="#191970" points="577.2156,-59.1383 587.7892,-58.4668 579.1047,-52.398 577.2156,-59.1383"/>
</g>
<!-- Node12&#45;&gt;Node8 -->
<g id="edge16" class="edge">
<title>Node12&#45;&gt;Node8</title>
<path fill="none" stroke="#191970" d="M212.092,-55.7884C271.4704,-40.8502 329.6174,-27.9674 368.6884,-19.5631"/>
<polygon fill="#191970" stroke="#191970" points="211.0015,-52.454 202.1668,-58.3019 212.72,-59.2398 211.0015,-52.454"/>
</g>
<!-- Node13&#45;&gt;Node8 -->
<g id="edge18" class="edge">
<title>Node13&#45;&gt;Node8</title>
<path fill="none" stroke="#191970" d="M311.6195,-52.5433C337.9501,-41.6018 369.9308,-28.3126 391.0653,-19.5303"/>
<polygon fill="#191970" stroke="#191970" points="310.0963,-49.386 302.2049,-56.4554 312.7824,-55.8501 310.0963,-49.386"/>
</g>
<!-- Node14&#45;&gt;Node8 -->
<g id="edge20" class="edge">
<title>Node14&#45;&gt;Node8</title>
<path fill="none" stroke="#191970" d="M836.3068,-56.059C836.2044,-56.0392 836.1022,-56.0196 836,-56 705.7136,-31.0378 550.0121,-18.437 469.0471,-13.1553"/>
<polygon fill="#191970" stroke="#191970" points="835.4834,-59.462 845.9944,-58.1323 836.9483,-52.617 835.4834,-59.462"/>
</g>
<!-- Node28&#45;&gt;Node16 -->
<g id="edge35" class="edge">
<title>Node28&#45;&gt;Node16</title>
<path fill="none" stroke="#191970" d="M1136.2827,-66.0004C1053.4065,-57.4564 891.167,-39.8927 754,-20 751.0675,-19.5747 748.055,-19.1174 745.0184,-18.6409"/>
<polygon fill="#191970" stroke="#191970" points="1135.9258,-69.4821 1146.231,-67.022 1136.6409,-62.5187 1135.9258,-69.4821"/>
</g>
<!-- Node28&#45;&gt;Node17 -->
<g id="edge36" class="edge">
<title>Node28&#45;&gt;Node17</title>
<path fill="none" stroke="#191970" d="M1136.1083,-62.2511C1067.7575,-50.7345 951.5994,-31.1626 882.5058,-19.5208"/>
<polygon fill="#191970" stroke="#191970" points="1135.8013,-65.7487 1146.2438,-63.9589 1136.9644,-58.8459 1135.8013,-65.7487"/>
</g>
<!-- Node28&#45;&gt;Node18 -->
<g id="edge37" class="edge">
<title>Node28&#45;&gt;Node18</title>
<path fill="none" stroke="#191970" d="M1144.8191,-59.4144C1100.2206,-47.7428 1033.5727,-30.3009 992.5464,-19.5643"/>
<polygon fill="#191970" stroke="#191970" points="1143.9787,-62.8122 1154.5391,-61.9581 1145.751,-56.0403 1143.9787,-62.8122"/>
</g>
<!-- Node28&#45;&gt;Node20 -->
<g id="edge39" class="edge">
<title>Node28&#45;&gt;Node20</title>
<path fill="none" stroke="#191970" d="M1162.917,-57.2264C1140.1211,-45.6401 1108.6119,-29.6251 1088.7735,-19.5419"/>
<polygon fill="#191970" stroke="#191970" points="1161.5933,-60.4797 1172.0938,-61.8906 1164.765,-54.2395 1161.5933,-60.4797"/>
</g>
<!-- Node28&#45;&gt;Node21 -->
<g id="edge40" class="edge">
<title>Node28&#45;&gt;Node21</title>
<path fill="none" stroke="#191970" d="M1187.4668,-51.7462C1185.554,-41.0519 1183.2757,-28.314 1181.743,-19.7449"/>
<polygon fill="#191970" stroke="#191970" points="1184.0752,-52.6631 1189.2813,-61.8906 1190.9658,-51.4306 1184.0752,-52.6631"/>
</g>
<!-- Node28&#45;&gt;Node22 -->
<g id="edge41" class="edge">
<title>Node28&#45;&gt;Node22</title>
<path fill="none" stroke="#191970" d="M1236.0114,-59.1969C1278.7356,-47.5189 1342.06,-30.2103 1381.0906,-19.5419"/>
<polygon fill="#191970" stroke="#191970" points="1234.8796,-55.8778 1226.1563,-61.8906 1236.7252,-62.6301 1234.8796,-55.8778"/>
</g>
<!-- Node28&#45;&gt;Node25 -->
<g id="edge42" class="edge">
<title>Node28&#45;&gt;Node25</title>
<path fill="none" stroke="#191970" d="M1245.816,-61.9769C1313.0714,-50.2927 1426.2917,-30.6231 1492.4803,-19.1242"/>
<polygon fill="#191970" stroke="#191970" points="1245.0877,-58.5509 1235.8343,-63.711 1246.2859,-65.4476 1245.0877,-58.5509"/>
</g>
<!-- Node28&#45;&gt;Node26 -->
<g id="edge43" class="edge">
<title>Node28&#45;&gt;Node26</title>
<path fill="none" stroke="#191970" d="M1245.8087,-65.0057C1342.0611,-53.5493 1537.7327,-30.0162 1606,-20 1609.1865,-19.5325 1612.4665,-19.0315 1615.7705,-18.5121"/>
<polygon fill="#191970" stroke="#191970" points="1245.2108,-61.5521 1235.6942,-66.2087 1246.0376,-68.5031 1245.2108,-61.5521"/>
</g>
<!-- Node28&#45;&gt;Node27 -->
<g id="edge44" class="edge">
<title>Node28&#45;&gt;Node27</title>
<path fill="none" stroke="#191970" d="M1246.0298,-66.4655C1362.6925,-55.7443 1631.6432,-30.7614 1723,-20 1726.008,-19.6457 1729.0848,-19.2699 1732.1911,-18.8798"/>
<polygon fill="#191970" stroke="#191970" points="1245.53,-62.9965 1235.892,-67.3964 1246.1702,-69.9672 1245.53,-62.9965"/>
</g>
<!-- Node29 -->
<g id="node30" class="node">
<title>Node29</title>
<g id="a_node30"><a xlink:href="test__gso_8cpp.html" target="_top" xlink:title="tests/test_gso.cpp">
<polygon fill="#ffffff" stroke="#000000" points="1242,-.5 1242,-19.5 1340,-19.5 1340,-.5 1242,-.5"/>
<text text-anchor="middle" x="1291" y="-7.5" font-family="Helvetica,sans-Serif" font-size="10.00" fill="#000000">tests/test_gso.cpp</text>
</a>
</g>
</g>
<!-- Node28&#45;&gt;Node29 -->
<g id="edge38" class="edge">
<title>Node28&#45;&gt;Node29</title>
<path fill="none" stroke="#191970" d="M1215.2252,-56.6015C1233.9756,-45.07 1259.3821,-29.445 1275.4847,-19.5419"/>
<polygon fill="#191970" stroke="#191970" points="1213.3095,-53.6707 1206.625,-61.8906 1216.9766,-59.6333 1213.3095,-53.6707"/>
</g>
</g>
</svg>
