<?xml version="1.0" encoding="UTF-8" standalone="no"?>
<!DOCTYPE svg PUBLIC "-//W3C//DTD SVG 1.1//EN"
 "http://www.w3.org/Graphics/SVG/1.1/DTD/svg11.dtd">
<!-- Generated by graphviz version 2.40.1 (20161225.0304)
 -->
<!-- Title: fplll/threadpool.h Pages: 1 -->
<svg width="1875pt" height="218pt"
 viewBox="0.00 0.00 1875.00 218.00" xmlns="http://www.w3.org/2000/svg" xmlns:xlink="http://www.w3.org/1999/xlink">
<g id="graph0" class="graph" transform="scale(1 1) rotate(0) translate(4 214)">
<title>fplll/threadpool.h</title>
<polygon fill="#ffffff" stroke="transparent" points="-4,4 -4,-214 1871,-214 1871,4 -4,4"/>
<!-- Node0 -->
<g id="node1" class="node">
<title>Node0</title>
<polygon fill="#bfbfbf" stroke="#000000" points="888,-190.5 888,-209.5 976,-209.5 976,-190.5 888,-190.5"/>
<text text-anchor="middle" x="932" y="-197.5" font-family="Helvetica,sans-Serif" font-size="10.00" fill="#000000">fplll/threadpool.h</text>
</g>
<!-- Node1 -->
<g id="node2" class="node">
<title>Node1</title>
<g id="a_node2"><a xlink:href="enumeration_8h.html" target="_top" xlink:title="fplll/enum&#45;parallel\l/enumeration.h">
<polygon fill="#ffffff" stroke="#000000" points="397,-123.5 397,-153.5 489,-153.5 489,-123.5 397,-123.5"/>
<text text-anchor="start" x="405" y="-141.5" font-family="Helvetica,sans-Serif" font-size="10.00" fill="#000000">fplll/enum&#45;parallel</text>
<text text-anchor="middle" x="443" y="-130.5" font-family="Helvetica,sans-Serif" font-size="10.00" fill="#000000">/enumeration.h</text>
</a>
</g>
</g>
<!-- Node0&#45;&gt;Node1 -->
<g id="edge1" class="edge">
<title>Node0&#45;&gt;Node1</title>
<path fill="none" stroke="#191970" d="M877.5755,-193.1552C780.6932,-180.9706 579.9972,-155.7297 489.2922,-144.322"/>
<polygon fill="#191970" stroke="#191970" points="877.3834,-196.6585 887.7421,-194.4338 878.257,-189.7132 877.3834,-196.6585"/>
</g>
<!-- Node3 -->
<g id="node4" class="node">
<title>Node3</title>
<g id="a_node4"><a xlink:href="fplll_8h.html" target="_top" xlink:title="fplll/fplll.h">
<polygon fill="#ffffff" stroke="#000000" points="903,-129 903,-148 961,-148 961,-129 903,-129"/>
<text text-anchor="middle" x="932" y="-136" font-family="Helvetica,sans-Serif" font-size="10.00" fill="#000000">fplll/fplll.h</text>
</a>
</g>
</g>
<!-- Node0&#45;&gt;Node3 -->
<g id="edge3" class="edge">
<title>Node0&#45;&gt;Node3</title>
<path fill="none" stroke="#191970" d="M932,-180.2462C932,-169.5519 932,-156.814 932,-148.2449"/>
<polygon fill="#191970" stroke="#191970" points="928.5001,-180.3906 932,-190.3906 935.5001,-180.3907 928.5001,-180.3906"/>
</g>
<!-- Node28 -->
<g id="node29" class="node">
<title>Node28</title>
<g id="a_node29"><a xlink:href="threadpool_8cpp.html" target="_top" xlink:title="fplll/threadpool.cpp">
<polygon fill="#ffffff" stroke="#000000" points="979,-129 979,-148 1077,-148 1077,-129 979,-129"/>
<text text-anchor="middle" x="1028" y="-136" font-family="Helvetica,sans-Serif" font-size="10.00" fill="#000000">fplll/threadpool.cpp</text>
</a>
</g>
</g>
<!-- Node0&#45;&gt;Node28 -->
<g id="edge42" class="edge">
<title>Node0&#45;&gt;Node28</title>
<path fill="none" stroke="#191970" d="M955.7486,-184.786C973.6993,-173.2864 997.7873,-157.855 1013.1053,-148.0419"/>
<polygon fill="#191970" stroke="#191970" points="953.5323,-182.0492 947,-190.3906 957.3083,-187.9434 953.5323,-182.0492"/>
</g>
<!-- Node2 -->
<g id="node3" class="node">
<title>Node2</title>
<g id="a_node3"><a xlink:href="enumlib_8cpp.html" target="_top" xlink:title="fplll/enum&#45;parallel\l/enumlib.cpp">
<polygon fill="#ffffff" stroke="#000000" points="0,-56.5 0,-86.5 92,-86.5 92,-56.5 0,-56.5"/>
<text text-anchor="start" x="8" y="-74.5" font-family="Helvetica,sans-Serif" font-size="10.00" fill="#000000">fplll/enum&#45;parallel</text>
<text text-anchor="middle" x="46" y="-63.5" font-family="Helvetica,sans-Serif" font-size="10.00" fill="#000000">/enumlib.cpp</text>
</a>
</g>
</g>
<!-- Node1&#45;&gt;Node2 -->
<g id="edge2" class="edge">
<title>Node1&#45;&gt;Node2</title>
<path fill="none" stroke="#191970" d="M386.6687,-132.2125C318.5605,-124.1066 200.6619,-108.4588 101,-87 98.0905,-86.3735 95.1076,-85.6811 92.1085,-84.9466"/>
<polygon fill="#191970" stroke="#191970" points="386.4139,-135.7066 396.7548,-133.4009 387.2331,-128.7547 386.4139,-135.7066"/>
</g>
<!-- Node4 -->
<g id="node5" class="node">
<title>Node4</title>
<g id="a_node5"><a xlink:href="fplll_8cpp.html" target="_top" xlink:title="fplll/fplll.cpp">
<polygon fill="#ffffff" stroke="#000000" points="1674,-62 1674,-81 1742,-81 1742,-62 1674,-62"/>
<text text-anchor="middle" x="1708" y="-69" font-family="Helvetica,sans-Serif" font-size="10.00" fill="#000000">fplll/fplll.cpp</text>
</a>
</g>
</g>
<!-- Node3&#45;&gt;Node4 -->
<g id="edge4" class="edge">
<title>Node3&#45;&gt;Node4</title>
<path fill="none" stroke="#191970" d="M961.3024,-125.4288C964.2008,-124.4762 967.1315,-123.64 970,-123 1271.8802,-55.6449 1361.7926,-148.1033 1665,-87 1671.69,-85.6518 1678.7379,-83.4602 1685.1482,-81.144"/>
<polygon fill="#191970" stroke="#191970" points="959.8607,-122.2307 951.71,-128.9995 962.3028,-128.7909 959.8607,-122.2307"/>
</g>
<!-- Node5 -->
<g id="node6" class="node">
<title>Node5</title>
<g id="a_node6"><a xlink:href="main_8h.html" target="_top" xlink:title="fplll/main.h">
<polygon fill="#ffffff" stroke="#000000" points="1798,-62 1798,-81 1862,-81 1862,-62 1798,-62"/>
<text text-anchor="middle" x="1830" y="-69" font-family="Helvetica,sans-Serif" font-size="10.00" fill="#000000">fplll/main.h</text>
</a>
</g>
</g>
<!-- Node3&#45;&gt;Node5 -->
<g id="edge5" class="edge">
<title>Node3&#45;&gt;Node5</title>
<path fill="none" stroke="#191970" d="M961.2973,-125.4059C964.1968,-124.458 967.1291,-123.6292 970,-123 1323.7362,-45.4765 1428.0215,-153.4713 1784,-87 1791.29,-85.6387 1799.0037,-83.3818 1805.9883,-81.0058"/>
<polygon fill="#191970" stroke="#191970" points="959.8588,-122.2065 951.7034,-128.9696 962.2963,-128.7684 959.8588,-122.2065"/>
</g>
<!-- Node7 -->
<g id="node8" class="node">
<title>Node7</title>
<g id="a_node8"><a xlink:href="pruner_8cpp.html" target="_top" xlink:title="fplll/pruner/pruner.cpp">
<polygon fill="#ffffff" stroke="#000000" points="406,-.5 406,-19.5 516,-19.5 516,-.5 406,-.5"/>
<text text-anchor="middle" x="461" y="-7.5" font-family="Helvetica,sans-Serif" font-size="10.00" fill="#000000">fplll/pruner/pruner.cpp</text>
</a>
</g>
</g>
<!-- Node3&#45;&gt;Node7 -->
<g id="edge7" class="edge">
<title>Node3&#45;&gt;Node7</title>
<path fill="none" stroke="#191970" d="M892.9071,-135.908C843.3184,-131.3715 756.1783,-119.167 689,-87 669.3415,-77.5869 670.5214,-65.6941 651,-56 626.7581,-43.9617 558.9682,-29.0677 511.3057,-19.5495"/>
<polygon fill="#191970" stroke="#191970" points="892.6359,-139.3975 902.8982,-136.7641 893.2335,-132.423 892.6359,-139.3975"/>
</g>
<!-- Node8 -->
<g id="node9" class="node">
<title>Node8</title>
<g id="a_node9"><a xlink:href="pruner__cost_8cpp.html" target="_top" xlink:title="fplll/pruner/pruner\l_cost.cpp">
<polygon fill="#ffffff" stroke="#000000" points="110,-56.5 110,-86.5 202,-86.5 202,-56.5 110,-56.5"/>
<text text-anchor="start" x="118" y="-74.5" font-family="Helvetica,sans-Serif" font-size="10.00" fill="#000000">fplll/pruner/pruner</text>
<text text-anchor="middle" x="156" y="-63.5" font-family="Helvetica,sans-Serif" font-size="10.00" fill="#000000">_cost.cpp</text>
</a>
</g>
</g>
<!-- Node3&#45;&gt;Node8 -->
<g id="edge8" class="edge">
<title>Node3&#45;&gt;Node8</title>
<path fill="none" stroke="#191970" d="M892.5904,-136.7436C761.9478,-130.7551 343.8641,-110.2177 211,-87 208.0683,-86.4877 205.0683,-85.8826 202.0565,-85.2135"/>
<polygon fill="#191970" stroke="#191970" points="892.7653,-140.2551 902.9142,-137.2139 893.0839,-133.2623 892.7653,-140.2551"/>
</g>
<!-- Node9 -->
<g id="node10" class="node">
<title>Node9</title>
<g id="a_node10"><a xlink:href="pruner__optimize_8cpp.html" target="_top" xlink:title="fplll/pruner/pruner\l_optimize.cpp">
<polygon fill="#ffffff" stroke="#000000" points="220,-56.5 220,-86.5 312,-86.5 312,-56.5 220,-56.5"/>
<text text-anchor="start" x="228" y="-74.5" font-family="Helvetica,sans-Serif" font-size="10.00" fill="#000000">fplll/pruner/pruner</text>
<text text-anchor="middle" x="266" y="-63.5" font-family="Helvetica,sans-Serif" font-size="10.00" fill="#000000">_optimize.cpp</text>
</a>
</g>
</g>
<!-- Node3&#45;&gt;Node9 -->
<g id="edge10" class="edge">
<title>Node3&#45;&gt;Node9</title>
<path fill="none" stroke="#191970" d="M892.5116,-137.7716C794.8173,-135.4081 534.277,-125.6759 321,-87 318.0716,-86.469 315.0742,-85.8495 312.0643,-85.1697"/>
<polygon fill="#191970" stroke="#191970" points="892.7233,-141.2773 902.8009,-138.0075 892.8838,-134.2791 892.7233,-141.2773"/>
</g>
<!-- Node10 -->
<g id="node11" class="node">
<title>Node10</title>
<g id="a_node11"><a xlink:href="pruner__optimize__tc_8cpp.html" target="_top" xlink:title="fplll/pruner/pruner\l_optimize_tc.cpp">
<polygon fill="#ffffff" stroke="#000000" points="330,-56.5 330,-86.5 422,-86.5 422,-56.5 330,-56.5"/>
<text text-anchor="start" x="338" y="-74.5" font-family="Helvetica,sans-Serif" font-size="10.00" fill="#000000">fplll/pruner/pruner</text>
<text text-anchor="middle" x="376" y="-63.5" font-family="Helvetica,sans-Serif" font-size="10.00" fill="#000000">_optimize_tc.cpp</text>
</a>
</g>
</g>
<!-- Node3&#45;&gt;Node10 -->
<g id="edge12" class="edge">
<title>Node3&#45;&gt;Node10</title>
<path fill="none" stroke="#191970" d="M892.7294,-136.7666C807.8215,-132.5165 601.0835,-119.4573 431,-87 428.0766,-86.4421 425.083,-85.8021 422.0759,-85.1069"/>
<polygon fill="#191970" stroke="#191970" points="892.7843,-140.2734 902.9429,-137.2644 893.1252,-133.2817 892.7843,-140.2734"/>
</g>
<!-- Node11 -->
<g id="node12" class="node">
<title>Node11</title>
<g id="a_node12"><a xlink:href="pruner__optimize__tp_8cpp.html" target="_top" xlink:title="fplll/pruner/pruner\l_optimize_tp.cpp">
<polygon fill="#ffffff" stroke="#000000" points="698,-56.5 698,-86.5 790,-86.5 790,-56.5 698,-56.5"/>
<text text-anchor="start" x="706" y="-74.5" font-family="Helvetica,sans-Serif" font-size="10.00" fill="#000000">fplll/pruner/pruner</text>
<text text-anchor="middle" x="744" y="-63.5" font-family="Helvetica,sans-Serif" font-size="10.00" fill="#000000">_optimize_tp.cpp</text>
</a>
</g>
</g>
<!-- Node3&#45;&gt;Node11 -->
<g id="edge14" class="edge">
<title>Node3&#45;&gt;Node11</title>
<path fill="none" stroke="#191970" d="M895.4117,-125.4605C864.0883,-114.2974 818.9799,-98.2216 786.1506,-86.5218"/>
<polygon fill="#191970" stroke="#191970" points="894.4695,-128.8403 905.0642,-128.9005 896.8195,-122.2466 894.4695,-128.8403"/>
</g>
<!-- Node12 -->
<g id="node13" class="node">
<title>Node12</title>
<g id="a_node13"><a xlink:href="pruner__prob_8cpp.html" target="_top" xlink:title="fplll/pruner/pruner\l_prob.cpp">
<polygon fill="#ffffff" stroke="#000000" points="440,-56.5 440,-86.5 532,-86.5 532,-56.5 440,-56.5"/>
<text text-anchor="start" x="448" y="-74.5" font-family="Helvetica,sans-Serif" font-size="10.00" fill="#000000">fplll/pruner/pruner</text>
<text text-anchor="middle" x="486" y="-63.5" font-family="Helvetica,sans-Serif" font-size="10.00" fill="#000000">_prob.cpp</text>
</a>
</g>
</g>
<!-- Node3&#45;&gt;Node12 -->
<g id="edge16" class="edge">
<title>Node3&#45;&gt;Node12</title>
<path fill="none" stroke="#191970" d="M892.5728,-135.197C821.6917,-128.8406 668.2612,-113.1719 541,-87 538.0848,-86.4005 535.0976,-85.7286 532.0952,-85.0096"/>
<polygon fill="#191970" stroke="#191970" points="892.5522,-138.7087 902.8214,-136.1024 893.1683,-131.7359 892.5522,-138.7087"/>
</g>
<!-- Node13 -->
<g id="node14" class="node">
<title>Node13</title>
<g id="a_node14"><a xlink:href="pruner__util_8cpp.html" target="_top" xlink:title="fplll/pruner/pruner\l_util.cpp">
<polygon fill="#ffffff" stroke="#000000" points="550,-56.5 550,-86.5 642,-86.5 642,-56.5 550,-56.5"/>
<text text-anchor="start" x="558" y="-74.5" font-family="Helvetica,sans-Serif" font-size="10.00" fill="#000000">fplll/pruner/pruner</text>
<text text-anchor="middle" x="596" y="-63.5" font-family="Helvetica,sans-Serif" font-size="10.00" fill="#000000">_util.cpp</text>
</a>
</g>
</g>
<!-- Node3&#45;&gt;Node13 -->
<g id="edge18" class="edge">
<title>Node3&#45;&gt;Node13</title>
<path fill="none" stroke="#191970" d="M892.7501,-132.0454C839.0761,-123.021 739.8655,-105.6342 656,-87 651.4839,-85.9966 646.7922,-84.8929 642.1111,-83.751"/>
<polygon fill="#191970" stroke="#191970" points="892.4193,-135.5386 902.8597,-133.7366 893.5743,-128.6345 892.4193,-135.5386"/>
</g>
<!-- Node14 -->
<g id="node15" class="node">
<title>Node14</title>
<g id="a_node15"><a xlink:href="test__bkz_8cpp.html" target="_top" xlink:title="tests/test_bkz.cpp">
<polygon fill="#ffffff" stroke="#000000" points="534,-.5 534,-19.5 632,-19.5 632,-.5 534,-.5"/>
<text text-anchor="middle" x="583" y="-7.5" font-family="Helvetica,sans-Serif" font-size="10.00" fill="#000000">tests/test_bkz.cpp</text>
</a>
</g>
</g>
<!-- Node3&#45;&gt;Node14 -->
<g id="edge20" class="edge">
<title>Node3&#45;&gt;Node14</title>
<path fill="none" stroke="#191970" d="M899.9896,-124.8038C879.6964,-115.4593 853.3446,-102.0733 832,-87 815.5625,-75.392 816.8305,-65.328 799,-56 784.328,-48.3244 691.0994,-30.0612 632.016,-18.9948"/>
<polygon fill="#191970" stroke="#191970" points="898.5769,-128.0061 909.1314,-128.93 901.4567,-121.6259 898.5769,-128.0061"/>
</g>
<!-- Node15 -->
<g id="node16" class="node">
<title>Node15</title>
<g id="a_node16"><a xlink:href="test__bkz__gram_8cpp.html" target="_top" xlink:title="tests/test_bkz_gram.cpp">
<polygon fill="#ffffff" stroke="#000000" points="650.5,-.5 650.5,-19.5 775.5,-19.5 775.5,-.5 650.5,-.5"/>
<text text-anchor="middle" x="713" y="-7.5" font-family="Helvetica,sans-Serif" font-size="10.00" fill="#000000">tests/test_bkz_gram.cpp</text>
</a>
</g>
</g>
<!-- Node3&#45;&gt;Node15 -->
<g id="edge21" class="edge">
<title>Node3&#45;&gt;Node15</title>
<path fill="none" stroke="#191970" d="M913.541,-122.0538C889.6387,-100.9761 849.0301,-65.963 832,-56 804.5653,-39.9502 770.4961,-27.4399 745.8507,-19.5441"/>
<polygon fill="#191970" stroke="#191970" points="911.4256,-124.8555 921.2328,-128.8642 916.0659,-119.6146 911.4256,-124.8555"/>
</g>
<!-- Node16 -->
<g id="node17" class="node">
<title>Node16</title>
<g id="a_node17"><a xlink:href="test__counter_8cpp.html" target="_top" xlink:title="tests/test_counter.cpp">
<polygon fill="#ffffff" stroke="#000000" points="1182,-62 1182,-81 1296,-81 1296,-62 1182,-62"/>
<text text-anchor="middle" x="1239" y="-69" font-family="Helvetica,sans-Serif" font-size="10.00" fill="#000000">tests/test_counter.cpp</text>
</a>
</g>
</g>
<!-- Node3&#45;&gt;Node16 -->
<g id="edge22" class="edge">
<title>Node3&#45;&gt;Node16</title>
<path fill="none" stroke="#191970" d="M962.9726,-125.2584C965.331,-124.4376 967.6914,-123.6728 970,-123 1055.8705,-97.975 1080.2942,-104.5412 1168,-87 1177.2788,-85.1442 1187.2147,-83.0455 1196.6264,-81.0054"/>
<polygon fill="#191970" stroke="#191970" points="961.5499,-122.0543 953.427,-128.8563 964.0188,-128.6044 961.5499,-122.0543"/>
</g>
<!-- Node17 -->
<g id="node18" class="node">
<title>Node17</title>
<g id="a_node18"><a xlink:href="test__cvp_8cpp.html" target="_top" xlink:title="tests/test_cvp.cpp">
<polygon fill="#ffffff" stroke="#000000" points="794,-.5 794,-19.5 892,-19.5 892,-.5 794,-.5"/>
<text text-anchor="middle" x="843" y="-7.5" font-family="Helvetica,sans-Serif" font-size="10.00" fill="#000000">tests/test_cvp.cpp</text>
</a>
</g>
</g>
<!-- Node3&#45;&gt;Node17 -->
<g id="edge23" class="edge">
<title>Node3&#45;&gt;Node17</title>
<path fill="none" stroke="#191970" d="M919.5355,-120.5035C900.4563,-92.9566 864.6586,-41.2711 849.7671,-19.7705"/>
<polygon fill="#191970" stroke="#191970" points="916.7395,-122.6137 925.3105,-128.8416 922.494,-118.628 916.7395,-122.6137"/>
</g>
<!-- Node18 -->
<g id="node19" class="node">
<title>Node18</title>
<g id="a_node19"><a xlink:href="test__enum_8cpp.html" target="_top" xlink:title="tests/test_enum.cpp">
<polygon fill="#ffffff" stroke="#000000" points="1314,-62 1314,-81 1420,-81 1420,-62 1314,-62"/>
<text text-anchor="middle" x="1367" y="-69" font-family="Helvetica,sans-Serif" font-size="10.00" fill="#000000">tests/test_enum.cpp</text>
</a>
</g>
</g>
<!-- Node3&#45;&gt;Node18 -->
<g id="edge24" class="edge">
<title>Node3&#45;&gt;Node18</title>
<path fill="none" stroke="#191970" d="M962.0125,-125.3687C964.6829,-124.4724 967.3705,-123.6635 970,-123 1115.195,-86.3626 1157.5676,-113.2217 1305,-87 1313.9575,-85.4069 1323.5378,-83.244 1332.4228,-81.0399"/>
<polygon fill="#191970" stroke="#191970" points="960.7004,-122.1225 952.5522,-128.8943 963.1449,-128.6818 960.7004,-122.1225"/>
</g>
<!-- Node19 -->
<g id="node20" class="node">
<title>Node19</title>
<g id="a_node20"><a xlink:href="test__hlll_8cpp.html" target="_top" xlink:title="tests/test_hlll.cpp">
<polygon fill="#ffffff" stroke="#000000" points="910,-.5 910,-19.5 1004,-19.5 1004,-.5 910,-.5"/>
<text text-anchor="middle" x="957" y="-7.5" font-family="Helvetica,sans-Serif" font-size="10.00" fill="#000000">tests/test_hlll.cpp</text>
</a>
</g>
</g>
<!-- Node3&#45;&gt;Node19 -->
<g id="edge25" class="edge">
<title>Node3&#45;&gt;Node19</title>
<path fill="none" stroke="#191970" d="M935.8573,-118.6733C941.295,-90.7236 951.0071,-40.8037 955.0991,-19.7705"/>
<polygon fill="#191970" stroke="#191970" points="932.3533,-118.3572 933.8791,-128.8416 939.2244,-119.6941 932.3533,-118.3572"/>
</g>
<!-- Node20 -->
<g id="node21" class="node">
<title>Node20</title>
<g id="a_node21"><a xlink:href="test__lll_8cpp.html" target="_top" xlink:title="tests/test_lll.cpp">
<polygon fill="#ffffff" stroke="#000000" points="1138.5,-.5 1138.5,-19.5 1227.5,-19.5 1227.5,-.5 1138.5,-.5"/>
<text text-anchor="middle" x="1183" y="-7.5" font-family="Helvetica,sans-Serif" font-size="10.00" fill="#000000">tests/test_lll.cpp</text>
</a>
</g>
</g>
<!-- Node3&#45;&gt;Node20 -->
<g id="edge26" class="edge">
<title>Node3&#45;&gt;Node20</title>
<path fill="none" stroke="#191970" d="M965.0339,-125.024C1002.1812,-109.8662 1057.45,-87.3011 1058,-87 1078.983,-75.5127 1081.7976,-68.8106 1102,-56 1123.1692,-42.5763 1148.3978,-28.5446 1165.0097,-19.5622"/>
<polygon fill="#191970" stroke="#191970" points="963.4981,-121.8704 955.5614,-128.8889 966.1426,-128.3517 963.4981,-121.8704"/>
</g>
<!-- Node21 -->
<g id="node22" class="node">
<title>Node21</title>
<g id="a_node22"><a xlink:href="test__lll__gram_8cpp.html" target="_top" xlink:title="tests/test_lll_gram.cpp">
<polygon fill="#ffffff" stroke="#000000" points="1245,-.5 1245,-19.5 1361,-19.5 1361,-.5 1245,-.5"/>
<text text-anchor="middle" x="1303" y="-7.5" font-family="Helvetica,sans-Serif" font-size="10.00" fill="#000000">tests/test_lll_gram.cpp</text>
</a>
</g>
</g>
<!-- Node3&#45;&gt;Node21 -->
<g id="edge27" class="edge">
<title>Node3&#45;&gt;Node21</title>
<path fill="none" stroke="#191970" d="M964.1483,-125.1149C966.1205,-124.3784 968.0822,-123.6675 970,-123 1024.198,-104.1371 1042.0251,-111.3279 1094,-87 1116.3287,-76.5486 1117.6323,-66.3676 1140,-56 1176.6816,-38.9978 1220.9824,-26.9893 1254.1356,-19.5151"/>
<polygon fill="#191970" stroke="#191970" points="962.4052,-122.0376 954.3562,-128.927 964.9447,-128.5607 962.4052,-122.0376"/>
</g>
<!-- Node22 -->
<g id="node23" class="node">
<title>Node22</title>
<g id="a_node23"><a xlink:href="test__nr_8cpp.html" target="_top" xlink:title="tests/test_nr.cpp">
<polygon fill="#ffffff" stroke="#000000" points="1438,-62 1438,-81 1528,-81 1528,-62 1438,-62"/>
<text text-anchor="middle" x="1483" y="-69" font-family="Helvetica,sans-Serif" font-size="10.00" fill="#000000">tests/test_nr.cpp</text>
</a>
</g>
</g>
<!-- Node3&#45;&gt;Node22 -->
<g id="edge28" class="edge">
<title>Node3&#45;&gt;Node22</title>
<path fill="none" stroke="#191970" d="M961.5183,-125.443C964.3484,-124.5008 967.2052,-123.6626 970,-123 1169.1074,-75.7956 1227.6392,-123.412 1429,-87 1437.1582,-85.5248 1445.8521,-83.3204 1453.8265,-81.0337"/>
<polygon fill="#191970" stroke="#191970" points="960.2765,-122.1706 952.1284,-128.9424 962.7211,-128.7299 960.2765,-122.1706"/>
</g>
<!-- Node23 -->
<g id="node24" class="node">
<title>Node23</title>
<g id="a_node24"><a xlink:href="test__pruner_8cpp.html" target="_top" xlink:title="tests/test_pruner.cpp">
<polygon fill="#ffffff" stroke="#000000" points="1546.5,-62 1546.5,-81 1655.5,-81 1655.5,-62 1546.5,-62"/>
<text text-anchor="middle" x="1601" y="-69" font-family="Helvetica,sans-Serif" font-size="10.00" fill="#000000">tests/test_pruner.cpp</text>
</a>
</g>
</g>
<!-- Node3&#45;&gt;Node23 -->
<g id="edge29" class="edge">
<title>Node3&#45;&gt;Node23</title>
<path fill="none" stroke="#191970" d="M961.5079,-125.3988C964.3402,-124.4658 967.2004,-123.6418 970,-123 1216.123,-66.5778 1287.3472,-124.8615 1537,-87 1546.6076,-85.5429 1556.8908,-83.3447 1566.3418,-81.058"/>
<polygon fill="#191970" stroke="#191970" points="960.2727,-122.1238 952.1147,-128.8838 962.7077,-128.6867 960.2727,-122.1238"/>
</g>
<!-- Node24 -->
<g id="node25" class="node">
<title>Node24</title>
<g id="a_node25"><a xlink:href="test__svp_8cpp.html" target="_top" xlink:title="tests/test_svp.cpp">
<polygon fill="#ffffff" stroke="#000000" points="1379,-.5 1379,-19.5 1477,-19.5 1477,-.5 1379,-.5"/>
<text text-anchor="middle" x="1428" y="-7.5" font-family="Helvetica,sans-Serif" font-size="10.00" fill="#000000">tests/test_svp.cpp</text>
</a>
</g>
</g>
<!-- Node3&#45;&gt;Node24 -->
<g id="edge30" class="edge">
<title>Node3&#45;&gt;Node24</title>
<path fill="none" stroke="#191970" d="M963.4352,-125.2085C965.6423,-124.4205 967.8456,-123.675 970,-123 1039.9684,-101.077 1064.2886,-117.4267 1131,-87 1152.1088,-77.3724 1151.696,-65.1874 1173,-56 1177.7246,-53.9625 1305.9999,-31.3319 1378.7727,-18.5911"/>
<polygon fill="#191970" stroke="#191970" points="961.9741,-122.0196 953.8749,-128.85 964.4658,-128.5612 961.9741,-122.0196"/>
</g>
<!-- Node25 -->
<g id="node26" class="node">
<title>Node25</title>
<g id="a_node26"><a xlink:href="test__svp__gram_8cpp.html" target="_top" xlink:title="tests/test_svp_gram.cpp">
<polygon fill="#ffffff" stroke="#000000" points="1560.5,-.5 1560.5,-19.5 1685.5,-19.5 1685.5,-.5 1560.5,-.5"/>
<text text-anchor="middle" x="1623" y="-7.5" font-family="Helvetica,sans-Serif" font-size="10.00" fill="#000000">tests/test_svp_gram.cpp</text>
</a>
</g>
</g>
<!-- Node3&#45;&gt;Node25 -->
<g id="edge31" class="edge">
<title>Node3&#45;&gt;Node25</title>
<path fill="none" stroke="#191970" d="M961.2986,-125.4115C964.1978,-124.4625 967.1297,-123.6319 970,-123 1054.8386,-104.3242 1691.0046,-149.8246 1751,-87 1781.3581,-55.2103 1715.4017,-31.7612 1667.3636,-19.5441"/>
<polygon fill="#191970" stroke="#191970" points="959.8593,-122.2125 951.705,-128.977 962.2979,-128.774 959.8593,-122.2125"/>
</g>
<!-- Node26 -->
<g id="node27" class="node">
<title>Node26</title>
<g id="a_node27"><a xlink:href="test__utils_8h.html" target="_top" xlink:title="tests/test_utils.h">
<polygon fill="#ffffff" stroke="#000000" points="960.5,-62 960.5,-81 1049.5,-81 1049.5,-62 960.5,-62"/>
<text text-anchor="middle" x="1005" y="-69" font-family="Helvetica,sans-Serif" font-size="10.00" fill="#000000">tests/test_utils.h</text>
</a>
</g>
</g>
<!-- Node3&#45;&gt;Node26 -->
<g id="edge32" class="edge">
<title>Node3&#45;&gt;Node26</title>
<path fill="none" stroke="#191970" d="M950.0429,-121.94C964.046,-109.0879 982.9679,-91.7212 994.5603,-81.0817"/>
<polygon fill="#191970" stroke="#191970" points="947.4599,-119.5601 942.4591,-128.9005 952.1931,-124.7173 947.4599,-119.5601"/>
</g>
<!-- Node6 -->
<g id="node7" class="node">
<title>Node6</title>
<g id="a_node7"><a xlink:href="main_8cpp.html" target="_top" xlink:title="fplll/main.cpp">
<polygon fill="#ffffff" stroke="#000000" points="1793,-.5 1793,-19.5 1867,-19.5 1867,-.5 1793,-.5"/>
<text text-anchor="middle" x="1830" y="-7.5" font-family="Helvetica,sans-Serif" font-size="10.00" fill="#000000">fplll/main.cpp</text>
</a>
</g>
</g>
<!-- Node5&#45;&gt;Node6 -->
<g id="edge6" class="edge">
<title>Node5&#45;&gt;Node6</title>
<path fill="none" stroke="#191970" d="M1830,-51.7462C1830,-41.0519 1830,-28.314 1830,-19.7449"/>
<polygon fill="#191970" stroke="#191970" points="1826.5001,-51.8906 1830,-61.8906 1833.5001,-51.8907 1826.5001,-51.8906"/>
</g>
<!-- Node8&#45;&gt;Node7 -->
<g id="edge9" class="edge">
<title>Node8&#45;&gt;Node7</title>
<path fill="none" stroke="#191970" d="M212.2881,-55.8168C284.3056,-39.3591 357.0063,-26.6333 405.5843,-18.6812"/>
<polygon fill="#191970" stroke="#191970" points="211.0882,-52.5018 202.1332,-58.1637 212.6645,-59.322 211.0882,-52.5018"/>
</g>
<!-- Node9&#45;&gt;Node7 -->
<g id="edge11" class="edge">
<title>Node9&#45;&gt;Node7</title>
<path fill="none" stroke="#191970" d="M321.9275,-53.8613C357.2881,-42.7091 401.6249,-28.726 430.6032,-19.5867"/>
<polygon fill="#191970" stroke="#191970" points="320.6965,-50.5796 312.2123,-56.9254 322.802,-57.2554 320.6965,-50.5796"/>
</g>
<!-- Node10&#45;&gt;Node7 -->
<g id="edge13" class="edge">
<title>Node10&#45;&gt;Node7</title>
<path fill="none" stroke="#191970" d="M405.1282,-50.4249C419.453,-40.0605 436.0345,-28.0633 447.3904,-19.8469"/>
<polygon fill="#191970" stroke="#191970" points="403.0614,-47.6002 397.0112,-56.2977 407.1647,-53.2715 403.0614,-47.6002"/>
</g>
<!-- Node11&#45;&gt;Node7 -->
<g id="edge15" class="edge">
<title>Node11&#45;&gt;Node7</title>
<path fill="none" stroke="#191970" d="M687.8405,-56.9018C686.549,-56.5953 685.2674,-56.2942 684,-56 624.7003,-42.2332 556.0469,-28.3832 510.7527,-19.532"/>
<polygon fill="#191970" stroke="#191970" points="687.3251,-60.3783 697.8687,-59.3378 688.9775,-53.5761 687.3251,-60.3783"/>
</g>
<!-- Node12&#45;&gt;Node7 -->
<g id="edge17" class="edge">
<title>Node12&#45;&gt;Node7</title>
<path fill="none" stroke="#191970" d="M475.9934,-46.8839C472.1452,-37.4171 467.9682,-27.1418 465.0028,-19.8469"/>
<polygon fill="#191970" stroke="#191970" points="472.812,-48.3519 479.8202,-56.2977 479.2967,-45.7158 472.812,-48.3519"/>
</g>
<!-- Node13&#45;&gt;Node7 -->
<g id="edge19" class="edge">
<title>Node13&#45;&gt;Node7</title>
<path fill="none" stroke="#191970" d="M553.7544,-52.2548C529.8588,-41.369 501.0292,-28.2355 481.9202,-19.5303"/>
<polygon fill="#191970" stroke="#191970" points="552.4241,-55.4948 562.9753,-56.4554 555.3261,-49.1246 552.4241,-55.4948"/>
</g>
<!-- Node26&#45;&gt;Node14 -->
<g id="edge33" class="edge">
<title>Node26&#45;&gt;Node14</title>
<path fill="none" stroke="#191970" d="M950.2946,-64.2839C879.0091,-54.7608 750.5263,-37.186 641,-20 638.0726,-19.5407 635.0641,-19.0571 632.0306,-18.5606"/>
<polygon fill="#191970" stroke="#191970" points="950.0132,-67.7773 960.3881,-65.6296 950.9383,-60.8387 950.0132,-67.7773"/>
</g>
<!-- Node26&#45;&gt;Node15 -->
<g id="edge34" class="edge">
<title>Node26&#45;&gt;Node15</title>
<path fill="none" stroke="#191970" d="M950.3291,-59.9854C894.838,-48.2981 809.9326,-30.4156 758.1416,-19.5076"/>
<polygon fill="#191970" stroke="#191970" points="949.8269,-63.4564 960.3336,-62.0925 951.2697,-56.6066 949.8269,-63.4564"/>
</g>
<!-- Node26&#45;&gt;Node17 -->
<g id="edge35" class="edge">
<title>Node26&#45;&gt;Node17</title>
<path fill="none" stroke="#191970" d="M970.2275,-58.2993C939.5331,-46.6468 895.5253,-29.9402 868.1348,-19.5419"/>
<polygon fill="#191970" stroke="#191970" points="969.0963,-61.6136 979.6875,-61.8906 971.5807,-55.0693 969.0963,-61.6136"/>
</g>
<!-- Node26&#45;&gt;Node19 -->
<g id="edge37" class="edge">
<title>Node26&#45;&gt;Node19</title>
<path fill="none" stroke="#191970" d="M991.1436,-53.7465C982.5044,-42.6775 971.7163,-28.8552 964.6057,-19.7449"/>
<polygon fill="#191970" stroke="#191970" points="988.5881,-56.1609 997.5,-61.8906 994.1064,-51.854 988.5881,-56.1609"/>
</g>
<!-- Node26&#45;&gt;Node20 -->
<g id="edge38" class="edge">
<title>Node26&#45;&gt;Node20</title>
<path fill="none" stroke="#191970" d="M1042.3341,-58.6009C1076.0941,-46.9366 1125.0264,-30.0302 1155.3828,-19.5419"/>
<polygon fill="#191970" stroke="#191970" points="1041.1213,-55.3168 1032.8125,-61.8906 1043.4073,-61.933 1041.1213,-55.3168"/>
</g>
<!-- Node26&#45;&gt;Node21 -->
<g id="edge39" class="edge">
<title>Node26&#45;&gt;Node21</title>
<path fill="none" stroke="#191970" d="M1059.4391,-60.2651C1115.9209,-48.6086 1203.2984,-30.576 1256.6075,-19.5743"/>
<polygon fill="#191970" stroke="#191970" points="1058.6998,-56.8438 1049.6136,-62.2928 1060.1147,-63.6993 1058.6998,-56.8438"/>
</g>
<!-- Node26&#45;&gt;Node24 -->
<g id="edge40" class="edge">
<title>Node26&#45;&gt;Node24</title>
<path fill="none" stroke="#191970" d="M1059.8565,-64.2918C1131.3387,-54.7771 1260.1754,-37.2114 1370,-20 1372.9275,-19.5412 1375.936,-19.058 1378.9696,-18.5619"/>
<polygon fill="#191970" stroke="#191970" points="1059.1872,-60.8499 1049.7352,-65.6362 1060.109,-67.7889 1059.1872,-60.8499"/>
</g>
<!-- Node26&#45;&gt;Node25 -->
<g id="edge41" class="edge">
<title>Node26&#45;&gt;Node25</title>
<path fill="none" stroke="#191970" d="M1059.6483,-66.0617C1174.213,-54.6608 1438.9439,-28.3163 1560.2394,-16.2456"/>
<polygon fill="#191970" stroke="#191970" points="1059.2979,-62.5792 1049.6936,-67.0523 1059.9911,-69.5448 1059.2979,-62.5792"/>
</g>
<!-- Node27 -->
<g id="node28" class="node">
<title>Node27</title>
<g id="a_node28"><a xlink:href="test__gso_8cpp.html" target="_top" xlink:title="tests/test_gso.cpp">
<polygon fill="#ffffff" stroke="#000000" points="1022,-.5 1022,-19.5 1120,-19.5 1120,-.5 1022,-.5"/>
<text text-anchor="middle" x="1071" y="-7.5" font-family="Helvetica,sans-Serif" font-size="10.00" fill="#000000">tests/test_gso.cpp</text>
</a>
</g>
</g>
<!-- Node26&#45;&gt;Node27 -->
<g id="edge36" class="edge">
<title>Node26&#45;&gt;Node27</title>
<path fill="none" stroke="#191970" d="M1022.6556,-55.0482C1034.7485,-43.7798 1050.3779,-29.216 1060.5421,-19.7449"/>
<polygon fill="#191970" stroke="#191970" points="1020.2426,-52.5127 1015.3125,-61.8906 1025.0147,-57.634 1020.2426,-52.5127"/>
</g>
</g>
</svg>
