<?xml version="1.0" encoding="UTF-8" standalone="no"?>
<!DOCTYPE svg PUBLIC "-//W3C//DTD SVG 1.1//EN"
 "http://www.w3.org/Graphics/SVG/1.1/DTD/svg11.dtd">
<!-- Generated by graphviz version 2.43.0 (0)
 -->
<!-- Title: fplll/threadpool.h Pages: 1 -->
<svg width="2025pt" height="218pt"
 viewBox="0.00 0.00 2025.00 218.00" xmlns="http://www.w3.org/2000/svg" xmlns:xlink="http://www.w3.org/1999/xlink">
<g id="graph0" class="graph" transform="scale(1 1) rotate(0) translate(4 214)">
<title>fplll/threadpool.h</title>
<polygon fill="white" stroke="transparent" points="-4,4 -4,-214 2021,-214 2021,4 -4,4"/>
<!-- Node1 -->
<g id="node1" class="node">
<title>Node1</title>
<g id="a_node1"><a xlink:title=" ">
<polygon fill="#bfbfbf" stroke="black" points="1012,-190.5 1012,-209.5 1100,-209.5 1100,-190.5 1012,-190.5"/>
<text text-anchor="middle" x="1056" y="-197.5" font-family="Helvetica,sans-Serif" font-size="10.00">fplll/threadpool.h</text>
</a>
</g>
</g>
<!-- Node2 -->
<g id="node2" class="node">
<title>Node2</title>
<g id="a_node2"><a xlink:href="enumeration_8h.html" target="_top" xlink:title=" ">
<polygon fill="white" stroke="black" points="459,-123.5 459,-153.5 551,-153.5 551,-123.5 459,-123.5"/>
<text text-anchor="start" x="467" y="-141.5" font-family="Helvetica,sans-Serif" font-size="10.00">fplll/enum&#45;parallel</text>
<text text-anchor="middle" x="505" y="-130.5" font-family="Helvetica,sans-Serif" font-size="10.00">/enumeration.h</text>
</a>
</g>
</g>
<!-- Node1&#45;&gt;Node2 -->
<g id="edge1" class="edge">
<title>Node1&#45;&gt;Node2</title>
<path fill="none" stroke="midnightblue" d="M1001.8,-193.15C893.62,-181.46 652.64,-155.44 551.31,-144.5"/>
<polygon fill="midnightblue" stroke="midnightblue" points="1001.52,-196.64 1011.84,-194.23 1002.27,-189.68 1001.52,-196.64"/>
</g>
<!-- Node4 -->
<g id="node4" class="node">
<title>Node4</title>
<g id="a_node4"><a xlink:href="fplll_8h.html" target="_top" xlink:title=" ">
<polygon fill="white" stroke="black" points="1027,-129 1027,-148 1085,-148 1085,-129 1027,-129"/>
<text text-anchor="middle" x="1056" y="-136" font-family="Helvetica,sans-Serif" font-size="10.00">fplll/fplll.h</text>
</a>
</g>
</g>
<!-- Node1&#45;&gt;Node4 -->
<g id="edge3" class="edge">
<title>Node1&#45;&gt;Node4</title>
<path fill="none" stroke="midnightblue" d="M1056,-180.32C1056,-169.5 1056,-156.4 1056,-148.01"/>
<polygon fill="midnightblue" stroke="midnightblue" points="1052.5,-180.48 1056,-190.48 1059.5,-180.48 1052.5,-180.48"/>
</g>
<!-- Node31 -->
<g id="node31" class="node">
<title>Node31</title>
<g id="a_node31"><a xlink:href="threadpool_8cpp.html" target="_top" xlink:title=" ">
<polygon fill="white" stroke="black" points="1103,-129 1103,-148 1201,-148 1201,-129 1103,-129"/>
<text text-anchor="middle" x="1152" y="-136" font-family="Helvetica,sans-Serif" font-size="10.00">fplll/threadpool.cpp</text>
</a>
</g>
</g>
<!-- Node1&#45;&gt;Node31 -->
<g id="edge45" class="edge">
<title>Node1&#45;&gt;Node31</title>
<path fill="none" stroke="midnightblue" d="M1078.45,-185.09C1096.97,-173.6 1122.67,-157.68 1138.27,-148.01"/>
<polygon fill="midnightblue" stroke="midnightblue" points="1076.41,-182.23 1069.75,-190.48 1080.1,-188.18 1076.41,-182.23"/>
</g>
<!-- Node3 -->
<g id="node3" class="node">
<title>Node3</title>
<g id="a_node3"><a xlink:href="enumlib_8cpp.html" target="_top" xlink:title=" ">
<polygon fill="white" stroke="black" points="0,-56.5 0,-86.5 92,-86.5 92,-56.5 0,-56.5"/>
<text text-anchor="start" x="8" y="-74.5" font-family="Helvetica,sans-Serif" font-size="10.00">fplll/enum&#45;parallel</text>
<text text-anchor="middle" x="46" y="-63.5" font-family="Helvetica,sans-Serif" font-size="10.00">/enumlib.cpp</text>
</a>
</g>
</g>
<!-- Node2&#45;&gt;Node3 -->
<g id="edge2" class="edge">
<title>Node2&#45;&gt;Node3</title>
<path fill="none" stroke="midnightblue" d="M448.94,-132.39C371.46,-124.88 227.43,-109.29 106,-87 101.47,-86.17 96.76,-85.21 92.08,-84.18"/>
<polygon fill="midnightblue" stroke="midnightblue" points="448.68,-135.88 458.97,-133.35 449.35,-128.91 448.68,-135.88"/>
</g>
<!-- Node5 -->
<g id="node5" class="node">
<title>Node5</title>
<g id="a_node5"><a xlink:href="fplll_8cpp.html" target="_top" xlink:title=" ">
<polygon fill="white" stroke="black" points="1824,-62 1824,-81 1892,-81 1892,-62 1824,-62"/>
<text text-anchor="middle" x="1858" y="-69" font-family="Helvetica,sans-Serif" font-size="10.00">fplll/fplll.cpp</text>
</a>
</g>
</g>
<!-- Node4&#45;&gt;Node5 -->
<g id="edge4" class="edge">
<title>Node4&#45;&gt;Node5</title>
<path fill="none" stroke="midnightblue" d="M1084.64,-125.49C1087.76,-124.51 1090.92,-123.65 1094,-123 1407.98,-56.99 1499.78,-146.83 1815,-87 1822.12,-85.65 1829.68,-83.4 1836.44,-81.06"/>
<polygon fill="midnightblue" stroke="midnightblue" points="1083.23,-122.28 1074.98,-128.92 1085.57,-128.87 1083.23,-122.28"/>
</g>
<!-- Node6 -->
<g id="node6" class="node">
<title>Node6</title>
<g id="a_node6"><a xlink:href="main_8h.html" target="_top" xlink:title=" ">
<polygon fill="white" stroke="black" points="1948,-62 1948,-81 2012,-81 2012,-62 1948,-62"/>
<text text-anchor="middle" x="1980" y="-69" font-family="Helvetica,sans-Serif" font-size="10.00">fplll/main.h</text>
</a>
</g>
</g>
<!-- Node4&#45;&gt;Node6 -->
<g id="edge5" class="edge">
<title>Node4&#45;&gt;Node6</title>
<path fill="none" stroke="midnightblue" d="M1084.64,-125.47C1087.76,-124.49 1090.92,-123.64 1094,-123 1459.95,-47.42 1565.97,-151.73 1934,-87 1941.59,-85.67 1949.66,-83.42 1956.89,-81.09"/>
<polygon fill="midnightblue" stroke="midnightblue" points="1083.23,-122.25 1074.97,-128.89 1085.57,-128.85 1083.23,-122.25"/>
</g>
<!-- Node8 -->
<g id="node8" class="node">
<title>Node8</title>
<g id="a_node8"><a xlink:href="pruner_8cpp.html" target="_top" xlink:title=" ">
<polygon fill="white" stroke="black" points="359,-0.5 359,-19.5 469,-19.5 469,-0.5 359,-0.5"/>
<text text-anchor="middle" x="414" y="-7.5" font-family="Helvetica,sans-Serif" font-size="10.00">fplll/pruner/pruner.cpp</text>
</a>
</g>
</g>
<!-- Node4&#45;&gt;Node8 -->
<g id="edge7" class="edge">
<title>Node4&#45;&gt;Node8</title>
<path fill="none" stroke="midnightblue" d="M1016.6,-136.06C843.01,-129.64 154.32,-103.19 139,-87 129.53,-76.99 130.08,-66.5 139,-56 166.64,-23.46 286.89,-14.4 358.91,-11.91"/>
<polygon fill="midnightblue" stroke="midnightblue" points="1016.69,-139.57 1026.82,-136.44 1016.95,-132.57 1016.69,-139.57"/>
</g>
<!-- Node9 -->
<g id="node9" class="node">
<title>Node9</title>
<g id="a_node9"><a xlink:href="pruner__cost_8cpp.html" target="_top" xlink:title=" ">
<polygon fill="white" stroke="black" points="588,-56.5 588,-86.5 680,-86.5 680,-56.5 588,-56.5"/>
<text text-anchor="start" x="596" y="-74.5" font-family="Helvetica,sans-Serif" font-size="10.00">fplll/pruner/pruner</text>
<text text-anchor="middle" x="634" y="-63.5" font-family="Helvetica,sans-Serif" font-size="10.00">_cost.cpp</text>
</a>
</g>
</g>
<!-- Node4&#45;&gt;Node9 -->
<g id="edge8" class="edge">
<title>Node4&#45;&gt;Node9</title>
<path fill="none" stroke="midnightblue" d="M1016.6,-133.66C949.11,-126.73 807.23,-110.63 689,-87 686.09,-86.42 683.12,-85.78 680.12,-85.09"/>
<polygon fill="midnightblue" stroke="midnightblue" points="1016.48,-137.17 1026.78,-134.69 1017.18,-130.2 1016.48,-137.17"/>
</g>
<!-- Node10 -->
<g id="node10" class="node">
<title>Node10</title>
<g id="a_node10"><a xlink:href="pruner__optimize_8cpp.html" target="_top" xlink:title=" ">
<polygon fill="white" stroke="black" points="148,-56.5 148,-86.5 240,-86.5 240,-56.5 148,-56.5"/>
<text text-anchor="start" x="156" y="-74.5" font-family="Helvetica,sans-Serif" font-size="10.00">fplll/pruner/pruner</text>
<text text-anchor="middle" x="194" y="-63.5" font-family="Helvetica,sans-Serif" font-size="10.00">_optimize.cpp</text>
</a>
</g>
</g>
<!-- Node4&#45;&gt;Node10 -->
<g id="edge10" class="edge">
<title>Node4&#45;&gt;Node10</title>
<path fill="none" stroke="midnightblue" d="M1016.52,-137.75C898.91,-137.9 540.96,-134.16 249,-87 246.08,-86.53 243.08,-85.97 240.07,-85.34"/>
<polygon fill="midnightblue" stroke="midnightblue" points="1016.83,-141.25 1026.82,-137.72 1016.81,-134.25 1016.83,-141.25"/>
</g>
<!-- Node11 -->
<g id="node11" class="node">
<title>Node11</title>
<g id="a_node11"><a xlink:href="pruner__optimize__tc_8cpp.html" target="_top" xlink:title=" ">
<polygon fill="white" stroke="black" points="258,-56.5 258,-86.5 350,-86.5 350,-56.5 258,-56.5"/>
<text text-anchor="start" x="266" y="-74.5" font-family="Helvetica,sans-Serif" font-size="10.00">fplll/pruner/pruner</text>
<text text-anchor="middle" x="304" y="-63.5" font-family="Helvetica,sans-Serif" font-size="10.00">_optimize_tc.cpp</text>
</a>
</g>
</g>
<!-- Node4&#45;&gt;Node11 -->
<g id="edge12" class="edge">
<title>Node4&#45;&gt;Node11</title>
<path fill="none" stroke="midnightblue" d="M1016.61,-137.2C909.95,-135.82 606.89,-128.29 359,-87 356.08,-86.51 353.09,-85.94 350.08,-85.31"/>
<polygon fill="midnightblue" stroke="midnightblue" points="1016.85,-140.7 1026.89,-137.32 1016.93,-133.7 1016.85,-140.7"/>
</g>
<!-- Node12 -->
<g id="node12" class="node">
<title>Node12</title>
<g id="a_node12"><a xlink:href="pruner__optimize__tp_8cpp.html" target="_top" xlink:title=" ">
<polygon fill="white" stroke="black" points="368,-56.5 368,-86.5 460,-86.5 460,-56.5 368,-56.5"/>
<text text-anchor="start" x="376" y="-74.5" font-family="Helvetica,sans-Serif" font-size="10.00">fplll/pruner/pruner</text>
<text text-anchor="middle" x="414" y="-63.5" font-family="Helvetica,sans-Serif" font-size="10.00">_optimize_tp.cpp</text>
</a>
</g>
</g>
<!-- Node4&#45;&gt;Node12 -->
<g id="edge14" class="edge">
<title>Node4&#45;&gt;Node12</title>
<path fill="none" stroke="midnightblue" d="M1016.76,-136.45C921.96,-133.41 673.23,-122.44 469,-87 466.08,-86.49 463.09,-85.91 460.09,-85.27"/>
<polygon fill="midnightblue" stroke="midnightblue" points="1016.66,-139.95 1026.76,-136.76 1016.87,-132.95 1016.66,-139.95"/>
</g>
<!-- Node13 -->
<g id="node13" class="node">
<title>Node13</title>
<g id="a_node13"><a xlink:href="pruner__prob_8cpp.html" target="_top" xlink:title=" ">
<polygon fill="white" stroke="black" points="478,-56.5 478,-86.5 570,-86.5 570,-56.5 478,-56.5"/>
<text text-anchor="start" x="486" y="-74.5" font-family="Helvetica,sans-Serif" font-size="10.00">fplll/pruner/pruner</text>
<text text-anchor="middle" x="524" y="-63.5" font-family="Helvetica,sans-Serif" font-size="10.00">_prob.cpp</text>
</a>
</g>
</g>
<!-- Node4&#45;&gt;Node13 -->
<g id="edge16" class="edge">
<title>Node4&#45;&gt;Node13</title>
<path fill="none" stroke="midnightblue" d="M1016.62,-135.37C934.64,-130.48 739.86,-116.54 579,-87 576.09,-86.46 573.1,-85.86 570.1,-85.2"/>
<polygon fill="midnightblue" stroke="midnightblue" points="1016.55,-138.87 1026.74,-135.96 1016.96,-131.88 1016.55,-138.87"/>
</g>
<!-- Node14 -->
<g id="node14" class="node">
<title>Node14</title>
<g id="a_node14"><a xlink:href="pruner__util_8cpp.html" target="_top" xlink:title=" ">
<polygon fill="white" stroke="black" points="822,-56.5 822,-86.5 914,-86.5 914,-56.5 822,-56.5"/>
<text text-anchor="start" x="830" y="-74.5" font-family="Helvetica,sans-Serif" font-size="10.00">fplll/pruner/pruner</text>
<text text-anchor="middle" x="868" y="-63.5" font-family="Helvetica,sans-Serif" font-size="10.00">_util.cpp</text>
</a>
</g>
</g>
<!-- Node4&#45;&gt;Node14 -->
<g id="edge18" class="edge">
<title>Node4&#45;&gt;Node14</title>
<path fill="none" stroke="midnightblue" d="M1021.26,-125.49C989.39,-114.47 942.17,-98.14 908.57,-86.53"/>
<polygon fill="midnightblue" stroke="midnightblue" points="1020.44,-128.91 1031.04,-128.87 1022.73,-122.29 1020.44,-128.91"/>
</g>
<!-- Node15 -->
<g id="node15" class="node">
<title>Node15</title>
<g id="a_node15"><a xlink:href="test__babai_8cpp.html" target="_top" xlink:title=" ">
<polygon fill="white" stroke="black" points="698.5,-62 698.5,-81 803.5,-81 803.5,-62 698.5,-62"/>
<text text-anchor="middle" x="751" y="-69" font-family="Helvetica,sans-Serif" font-size="10.00">tests/test_babai.cpp</text>
</a>
</g>
</g>
<!-- Node4&#45;&gt;Node15 -->
<g id="edge20" class="edge">
<title>Node4&#45;&gt;Node15</title>
<path fill="none" stroke="midnightblue" d="M1016.79,-129.66C968.7,-119.98 884.73,-102.84 813,-87 804.47,-85.12 795.3,-83.02 786.7,-81.01"/>
<polygon fill="midnightblue" stroke="midnightblue" points="1016.28,-133.13 1026.77,-131.67 1017.66,-126.27 1016.28,-133.13"/>
</g>
<!-- Node16 -->
<g id="node16" class="node">
<title>Node16</title>
<g id="a_node16"><a xlink:href="test__bkz_8cpp.html" target="_top" xlink:title=" ">
<polygon fill="white" stroke="black" points="620,-0.5 620,-19.5 718,-19.5 718,-0.5 620,-0.5"/>
<text text-anchor="middle" x="669" y="-7.5" font-family="Helvetica,sans-Serif" font-size="10.00">tests/test_bkz.cpp</text>
</a>
</g>
</g>
<!-- Node4&#45;&gt;Node16 -->
<g id="edge21" class="edge">
<title>Node4&#45;&gt;Node16</title>
<path fill="none" stroke="midnightblue" d="M1025.53,-124.87C1005.03,-115.72 977.87,-102.31 956,-87 939.52,-75.46 940.99,-65.02 923,-56 913.89,-51.43 789.35,-30.62 718.12,-18.96"/>
<polygon fill="midnightblue" stroke="midnightblue" points="1024.15,-128.09 1034.72,-128.88 1026.96,-121.67 1024.15,-128.09"/>
</g>
<!-- Node17 -->
<g id="node17" class="node">
<title>Node17</title>
<g id="a_node17"><a xlink:href="test__bkz__gram_8cpp.html" target="_top" xlink:title=" ">
<polygon fill="white" stroke="black" points="736.5,-0.5 736.5,-19.5 861.5,-19.5 861.5,-0.5 736.5,-0.5"/>
<text text-anchor="middle" x="799" y="-7.5" font-family="Helvetica,sans-Serif" font-size="10.00">tests/test_bkz_gram.cpp</text>
</a>
</g>
</g>
<!-- Node4&#45;&gt;Node17 -->
<g id="edge22" class="edge">
<title>Node4&#45;&gt;Node17</title>
<path fill="none" stroke="midnightblue" d="M1037.68,-122.59C1025.34,-112.54 1008.69,-98.97 994,-87 977.11,-73.23 975.32,-66.1 956,-56 921.7,-38.07 879.34,-26.47 847.27,-19.54"/>
<polygon fill="midnightblue" stroke="midnightblue" points="1035.5,-125.32 1045.47,-128.92 1039.92,-119.9 1035.5,-125.32"/>
</g>
<!-- Node18 -->
<g id="node18" class="node">
<title>Node18</title>
<g id="a_node18"><a xlink:href="test__ceil_8cpp.html" target="_top" xlink:title=" ">
<polygon fill="white" stroke="black" points="1344.5,-62 1344.5,-81 1441.5,-81 1441.5,-62 1344.5,-62"/>
<text text-anchor="middle" x="1393" y="-69" font-family="Helvetica,sans-Serif" font-size="10.00">tests/test_ceil.cpp</text>
</a>
</g>
</g>
<!-- Node4&#45;&gt;Node18 -->
<g id="edge23" class="edge">
<title>Node4&#45;&gt;Node18</title>
<path fill="none" stroke="midnightblue" d="M1085.89,-125.42C1088.61,-124.53 1091.34,-123.7 1094,-123 1196.59,-95.93 1225.78,-106.91 1330,-87 1339.15,-85.25 1348.99,-83.11 1358.11,-81.02"/>
<polygon fill="midnightblue" stroke="midnightblue" points="1084.49,-122.2 1076.25,-128.86 1086.84,-128.8 1084.49,-122.2"/>
</g>
<!-- Node19 -->
<g id="node19" class="node">
<title>Node19</title>
<g id="a_node19"><a xlink:href="test__counter_8cpp.html" target="_top" xlink:title=" ">
<polygon fill="white" stroke="black" points="1459.5,-62 1459.5,-81 1572.5,-81 1572.5,-62 1459.5,-62"/>
<text text-anchor="middle" x="1516" y="-69" font-family="Helvetica,sans-Serif" font-size="10.00">tests/test_counter.cpp</text>
</a>
</g>
</g>
<!-- Node4&#45;&gt;Node19 -->
<g id="edge24" class="edge">
<title>Node4&#45;&gt;Node19</title>
<path fill="none" stroke="midnightblue" d="M1084.88,-125.58C1087.93,-124.6 1091,-123.71 1094,-123 1248.74,-86.33 1292.96,-112.1 1450,-87 1460.08,-85.39 1470.93,-83.2 1480.86,-81.01"/>
<polygon fill="midnightblue" stroke="midnightblue" points="1083.65,-122.31 1075.41,-128.96 1086.01,-128.9 1083.65,-122.31"/>
</g>
<!-- Node20 -->
<g id="node20" class="node">
<title>Node20</title>
<g id="a_node20"><a xlink:href="test__cvp_8cpp.html" target="_top" xlink:title=" ">
<polygon fill="white" stroke="black" points="880,-0.5 880,-19.5 978,-19.5 978,-0.5 880,-0.5"/>
<text text-anchor="middle" x="929" y="-7.5" font-family="Helvetica,sans-Serif" font-size="10.00">tests/test_cvp.cpp</text>
</a>
</g>
</g>
<!-- Node4&#45;&gt;Node20 -->
<g id="edge25" class="edge">
<title>Node4&#45;&gt;Node20</title>
<path fill="none" stroke="midnightblue" d="M1045.3,-120.38C1033.91,-102.97 1014.71,-75.8 994,-56 978.62,-41.3 958.04,-27.9 944.19,-19.62"/>
<polygon fill="midnightblue" stroke="midnightblue" points="1042.44,-122.41 1050.79,-128.94 1048.34,-118.64 1042.44,-122.41"/>
</g>
<!-- Node21 -->
<g id="node21" class="node">
<title>Node21</title>
<g id="a_node21"><a xlink:href="test__enum_8cpp.html" target="_top" xlink:title=" ">
<polygon fill="white" stroke="black" points="996,-0.5 996,-19.5 1102,-19.5 1102,-0.5 996,-0.5"/>
<text text-anchor="middle" x="1049" y="-7.5" font-family="Helvetica,sans-Serif" font-size="10.00">tests/test_enum.cpp</text>
</a>
</g>
</g>
<!-- Node4&#45;&gt;Node21 -->
<g id="edge26" class="edge">
<title>Node4&#45;&gt;Node21</title>
<path fill="none" stroke="midnightblue" d="M1054.97,-118.81C1053.43,-91.08 1050.61,-40.13 1049.48,-19.76"/>
<polygon fill="midnightblue" stroke="midnightblue" points="1051.47,-119.01 1055.52,-128.81 1058.46,-118.63 1051.47,-119.01"/>
</g>
<!-- Node22 -->
<g id="node22" class="node">
<title>Node22</title>
<g id="a_node22"><a xlink:href="test__hlll_8cpp.html" target="_top" xlink:title=" ">
<polygon fill="white" stroke="black" points="1120,-0.5 1120,-19.5 1214,-19.5 1214,-0.5 1120,-0.5"/>
<text text-anchor="middle" x="1167" y="-7.5" font-family="Helvetica,sans-Serif" font-size="10.00">tests/test_hlll.cpp</text>
</a>
</g>
</g>
<!-- Node4&#45;&gt;Node22 -->
<g id="edge27" class="edge">
<title>Node4&#45;&gt;Node22</title>
<path fill="none" stroke="midnightblue" d="M1066.38,-119.92C1076.97,-102.7 1094.44,-76.19 1113,-56 1125.88,-41.98 1143.12,-28.34 1154.61,-19.82"/>
<polygon fill="midnightblue" stroke="midnightblue" points="1063.16,-118.49 1060.99,-128.86 1069.15,-122.1 1063.16,-118.49"/>
</g>
<!-- Node23 -->
<g id="node23" class="node">
<title>Node23</title>
<g id="a_node23"><a xlink:href="test__lll_8cpp.html" target="_top" xlink:title=" ">
<polygon fill="white" stroke="black" points="1348.5,-0.5 1348.5,-19.5 1437.5,-19.5 1437.5,-0.5 1348.5,-0.5"/>
<text text-anchor="middle" x="1393" y="-7.5" font-family="Helvetica,sans-Serif" font-size="10.00">tests/test_lll.cpp</text>
</a>
</g>
</g>
<!-- Node4&#45;&gt;Node23 -->
<g id="edge28" class="edge">
<title>Node4&#45;&gt;Node23</title>
<path fill="none" stroke="midnightblue" d="M1087.08,-125.39C1089.41,-124.56 1091.74,-123.75 1094,-123 1149.26,-104.6 1167.46,-112.12 1220,-87 1241.58,-76.68 1242.72,-66.93 1264,-56 1295.43,-39.85 1333.98,-27.25 1360.71,-19.55"/>
<polygon fill="midnightblue" stroke="midnightblue" points="1085.76,-122.15 1077.59,-128.89 1088.18,-128.72 1085.76,-122.15"/>
</g>
<!-- Node24 -->
<g id="node24" class="node">
<title>Node24</title>
<g id="a_node24"><a xlink:href="test__lll__gram_8cpp.html" target="_top" xlink:title=" ">
<polygon fill="white" stroke="black" points="1455,-0.5 1455,-19.5 1571,-19.5 1571,-0.5 1455,-0.5"/>
<text text-anchor="middle" x="1513" y="-7.5" font-family="Helvetica,sans-Serif" font-size="10.00">tests/test_lll_gram.cpp</text>
</a>
</g>
</g>
<!-- Node4&#45;&gt;Node24 -->
<g id="edge29" class="edge">
<title>Node4&#45;&gt;Node24</title>
<path fill="none" stroke="midnightblue" d="M1086.13,-125.55C1088.78,-124.64 1091.43,-123.77 1094,-123 1164.64,-101.8 1188.23,-116.12 1256,-87 1278.65,-77.27 1279.31,-65.64 1302,-56 1330.36,-43.96 1409.39,-28.81 1462.27,-19.52"/>
<polygon fill="midnightblue" stroke="midnightblue" points="1084.92,-122.26 1076.72,-128.97 1087.31,-128.84 1084.92,-122.26"/>
</g>
<!-- Node25 -->
<g id="node25" class="node">
<title>Node25</title>
<g id="a_node25"><a xlink:href="test__nr_8cpp.html" target="_top" xlink:title=" ">
<polygon fill="white" stroke="black" points="1590.5,-62 1590.5,-81 1679.5,-81 1679.5,-62 1590.5,-62"/>
<text text-anchor="middle" x="1635" y="-69" font-family="Helvetica,sans-Serif" font-size="10.00">tests/test_nr.cpp</text>
</a>
</g>
</g>
<!-- Node4&#45;&gt;Node25 -->
<g id="edge30" class="edge">
<title>Node4&#45;&gt;Node25</title>
<path fill="none" stroke="midnightblue" d="M1084.86,-125.5C1087.91,-124.53 1091,-123.67 1094,-123 1305.84,-75.82 1367.02,-123.3 1581,-87 1589.61,-85.54 1598.84,-83.31 1607.19,-81.04"/>
<polygon fill="midnightblue" stroke="midnightblue" points="1083.64,-122.22 1075.39,-128.86 1085.98,-128.82 1083.64,-122.22"/>
</g>
<!-- Node26 -->
<g id="node26" class="node">
<title>Node26</title>
<g id="a_node26"><a xlink:href="test__pruner_8cpp.html" target="_top" xlink:title=" ">
<polygon fill="white" stroke="black" points="1698,-62 1698,-81 1806,-81 1806,-62 1698,-62"/>
<text text-anchor="middle" x="1752" y="-69" font-family="Helvetica,sans-Serif" font-size="10.00">tests/test_pruner.cpp</text>
</a>
</g>
</g>
<!-- Node4&#45;&gt;Node26 -->
<g id="edge31" class="edge">
<title>Node4&#45;&gt;Node26</title>
<path fill="none" stroke="midnightblue" d="M1084.65,-125.52C1087.77,-124.54 1090.92,-123.66 1094,-123 1352.53,-67.21 1426.17,-124.34 1688,-87 1698.15,-85.55 1709.07,-83.33 1718.97,-81.06"/>
<polygon fill="midnightblue" stroke="midnightblue" points="1083.24,-122.31 1074.99,-128.96 1085.58,-128.91 1083.24,-122.31"/>
</g>
<!-- Node27 -->
<g id="node27" class="node">
<title>Node27</title>
<g id="a_node27"><a xlink:href="test__svp_8cpp.html" target="_top" xlink:title=" ">
<polygon fill="white" stroke="black" points="1589,-0.5 1589,-19.5 1687,-19.5 1687,-0.5 1589,-0.5"/>
<text text-anchor="middle" x="1638" y="-7.5" font-family="Helvetica,sans-Serif" font-size="10.00">tests/test_svp.cpp</text>
</a>
</g>
</g>
<!-- Node4&#45;&gt;Node27 -->
<g id="edge32" class="edge">
<title>Node4&#45;&gt;Node27</title>
<path fill="none" stroke="midnightblue" d="M1085.91,-125.5C1088.63,-124.59 1091.35,-123.74 1094,-123 1180.58,-98.87 1210.48,-122.61 1293,-87 1314.3,-77.81 1313.55,-64.84 1335,-56 1436.76,-14.07 1471.18,-36.44 1580,-20 1582.92,-19.56 1585.93,-19.1 1588.96,-18.64"/>
<polygon fill="midnightblue" stroke="midnightblue" points="1084.5,-122.29 1076.28,-128.97 1086.87,-128.87 1084.5,-122.29"/>
</g>
<!-- Node28 -->
<g id="node28" class="node">
<title>Node28</title>
<g id="a_node28"><a xlink:href="test__svp__gram_8cpp.html" target="_top" xlink:title=" ">
<polygon fill="white" stroke="black" points="1752.5,-0.5 1752.5,-19.5 1877.5,-19.5 1877.5,-0.5 1752.5,-0.5"/>
<text text-anchor="middle" x="1815" y="-7.5" font-family="Helvetica,sans-Serif" font-size="10.00">tests/test_svp_gram.cpp</text>
</a>
</g>
</g>
<!-- Node4&#45;&gt;Node28 -->
<g id="edge33" class="edge">
<title>Node4&#45;&gt;Node28</title>
<path fill="none" stroke="midnightblue" d="M1084.64,-125.47C1087.76,-124.5 1090.92,-123.64 1094,-123 1181.88,-104.77 1838.96,-151.87 1901,-87 1910.52,-77.04 1908.14,-67.79 1901,-56 1889.74,-37.4 1867.99,-26.12 1849.18,-19.51"/>
<polygon fill="midnightblue" stroke="midnightblue" points="1083.23,-122.26 1074.97,-128.9 1085.57,-128.86 1083.23,-122.26"/>
</g>
<!-- Node29 -->
<g id="node29" class="node">
<title>Node29</title>
<g id="a_node29"><a xlink:href="test__utils_8h.html" target="_top" xlink:title=" ">
<polygon fill="white" stroke="black" points="1122.5,-62 1122.5,-81 1211.5,-81 1211.5,-62 1122.5,-62"/>
<text text-anchor="middle" x="1167" y="-69" font-family="Helvetica,sans-Serif" font-size="10.00">tests/test_utils.h</text>
</a>
</g>
</g>
<!-- Node4&#45;&gt;Node29 -->
<g id="edge34" class="edge">
<title>Node4&#45;&gt;Node29</title>
<path fill="none" stroke="midnightblue" d="M1079.71,-123.62C1101.7,-110.74 1133.74,-91.98 1152.27,-81.13"/>
<polygon fill="midnightblue" stroke="midnightblue" points="1077.83,-120.66 1070.97,-128.73 1081.37,-126.7 1077.83,-120.66"/>
</g>
<!-- Node7 -->
<g id="node7" class="node">
<title>Node7</title>
<g id="a_node7"><a xlink:href="main_8cpp.html" target="_top" xlink:title=" ">
<polygon fill="white" stroke="black" points="1943,-0.5 1943,-19.5 2017,-19.5 2017,-0.5 1943,-0.5"/>
<text text-anchor="middle" x="1980" y="-7.5" font-family="Helvetica,sans-Serif" font-size="10.00">fplll/main.cpp</text>
</a>
</g>
</g>
<!-- Node6&#45;&gt;Node7 -->
<g id="edge6" class="edge">
<title>Node6&#45;&gt;Node7</title>
<path fill="none" stroke="midnightblue" d="M1980,-51.82C1980,-41 1980,-27.9 1980,-19.51"/>
<polygon fill="midnightblue" stroke="midnightblue" points="1976.5,-51.98 1980,-61.98 1983.5,-51.98 1976.5,-51.98"/>
</g>
<!-- Node9&#45;&gt;Node8 -->
<g id="edge9" class="edge">
<title>Node9&#45;&gt;Node8</title>
<path fill="none" stroke="midnightblue" d="M578.06,-55.37C536.05,-44.01 480.02,-28.86 445.51,-19.52"/>
<polygon fill="midnightblue" stroke="midnightblue" points="577.31,-58.79 587.88,-58.03 579.14,-52.04 577.31,-58.79"/>
</g>
<!-- Node10&#45;&gt;Node8 -->
<g id="edge11" class="edge">
<title>Node10&#45;&gt;Node8</title>
<path fill="none" stroke="midnightblue" d="M249.94,-55.37C291.95,-44.01 347.98,-28.86 382.49,-19.52"/>
<polygon fill="midnightblue" stroke="midnightblue" points="248.86,-52.04 240.12,-58.03 250.69,-58.79 248.86,-52.04"/>
</g>
<!-- Node11&#45;&gt;Node8 -->
<g id="edge13" class="edge">
<title>Node11&#45;&gt;Node8</title>
<path fill="none" stroke="midnightblue" d="M339.12,-51.51C358.89,-40.81 382.62,-27.97 397.99,-19.66"/>
<polygon fill="midnightblue" stroke="midnightblue" points="337.2,-48.56 330.07,-56.4 340.53,-54.72 337.2,-48.56"/>
</g>
<!-- Node12&#45;&gt;Node8 -->
<g id="edge15" class="edge">
<title>Node12&#45;&gt;Node8</title>
<path fill="none" stroke="midnightblue" d="M414,-46.29C414,-36.86 414,-26.65 414,-19.66"/>
<polygon fill="midnightblue" stroke="midnightblue" points="410.5,-46.4 414,-56.4 417.5,-46.4 410.5,-46.4"/>
</g>
<!-- Node13&#45;&gt;Node8 -->
<g id="edge17" class="edge">
<title>Node13&#45;&gt;Node8</title>
<path fill="none" stroke="midnightblue" d="M488.88,-51.51C469.11,-40.81 445.38,-27.97 430.01,-19.66"/>
<polygon fill="midnightblue" stroke="midnightblue" points="487.47,-54.72 497.93,-56.4 490.8,-48.56 487.47,-54.72"/>
</g>
<!-- Node14&#45;&gt;Node8 -->
<g id="edge19" class="edge">
<title>Node14&#45;&gt;Node8</title>
<path fill="none" stroke="midnightblue" d="M812.31,-56.06C812.2,-56.04 812.1,-56.02 812,-56 690.63,-33.54 546.23,-20.59 469.08,-14.76"/>
<polygon fill="midnightblue" stroke="midnightblue" points="811.47,-59.46 821.97,-58.03 812.87,-52.6 811.47,-59.46"/>
</g>
<!-- Node29&#45;&gt;Node16 -->
<g id="edge35" class="edge">
<title>Node29&#45;&gt;Node16</title>
<path fill="none" stroke="midnightblue" d="M1112.27,-64.92C1028.98,-56.28 865.43,-38.68 727,-20 724.07,-19.6 721.06,-19.18 718.03,-18.75"/>
<polygon fill="midnightblue" stroke="midnightblue" points="1111.96,-68.41 1122.27,-65.96 1112.68,-61.45 1111.96,-68.41"/>
</g>
<!-- Node29&#45;&gt;Node17 -->
<g id="edge36" class="edge">
<title>Node29&#45;&gt;Node17</title>
<path fill="none" stroke="midnightblue" d="M1112.26,-61.65C1042.02,-50.29 921.01,-30.73 851.75,-19.53"/>
<polygon fill="midnightblue" stroke="midnightblue" points="1111.81,-65.12 1122.24,-63.26 1112.93,-58.21 1111.81,-65.12"/>
</g>
<!-- Node29&#45;&gt;Node20 -->
<g id="edge37" class="edge">
<title>Node29&#45;&gt;Node20</title>
<path fill="none" stroke="midnightblue" d="M1123.16,-59.54C1076.96,-47.99 1005.16,-30.04 963.04,-19.51"/>
<polygon fill="midnightblue" stroke="midnightblue" points="1122.35,-62.95 1132.9,-61.98 1124.05,-56.15 1122.35,-62.95"/>
</g>
<!-- Node29&#45;&gt;Node21 -->
<g id="edge38" class="edge">
<title>Node29&#45;&gt;Node21</title>
<path fill="none" stroke="midnightblue" d="M1140.95,-57.37C1118.08,-45.83 1085.49,-29.4 1065.88,-19.51"/>
<polygon fill="midnightblue" stroke="midnightblue" points="1139.59,-60.6 1150.09,-61.98 1142.74,-54.35 1139.59,-60.6"/>
</g>
<!-- Node29&#45;&gt;Node22 -->
<g id="edge40" class="edge">
<title>Node29&#45;&gt;Node22</title>
<path fill="none" stroke="midnightblue" d="M1167,-51.82C1167,-41 1167,-27.9 1167,-19.51"/>
<polygon fill="midnightblue" stroke="midnightblue" points="1163.5,-51.98 1167,-61.98 1170.5,-51.98 1163.5,-51.98"/>
</g>
<!-- Node29&#45;&gt;Node23 -->
<g id="edge41" class="edge">
<title>Node29&#45;&gt;Node23</title>
<path fill="none" stroke="midnightblue" d="M1209.18,-59.4C1253.07,-47.84 1320.85,-30 1360.68,-19.51"/>
<polygon fill="midnightblue" stroke="midnightblue" points="1208.16,-56.04 1199.38,-61.98 1209.94,-62.81 1208.16,-56.04"/>
</g>
<!-- Node29&#45;&gt;Node24 -->
<g id="edge42" class="edge">
<title>Node29&#45;&gt;Node24</title>
<path fill="none" stroke="midnightblue" d="M1221.38,-61.15C1287.79,-49.73 1399.15,-30.58 1463.34,-19.54"/>
<polygon fill="midnightblue" stroke="midnightblue" points="1220.79,-57.7 1211.53,-62.84 1221.97,-64.6 1220.79,-57.7"/>
</g>
<!-- Node29&#45;&gt;Node27 -->
<g id="edge43" class="edge">
<title>Node29&#45;&gt;Node27</title>
<path fill="none" stroke="midnightblue" d="M1221.9,-64.36C1301.1,-55.37 1451.95,-37.76 1580,-20 1582.93,-19.59 1585.94,-19.16 1588.97,-18.72"/>
<polygon fill="midnightblue" stroke="midnightblue" points="1221.22,-60.91 1211.68,-65.52 1222.01,-67.87 1221.22,-60.91"/>
</g>
<!-- Node29&#45;&gt;Node28 -->
<g id="edge44" class="edge">
<title>Node29&#45;&gt;Node28</title>
<path fill="none" stroke="midnightblue" d="M1221.56,-65.49C1341.05,-54.52 1625.27,-28.42 1752.06,-16.78"/>
<polygon fill="midnightblue" stroke="midnightblue" points="1221.18,-62.01 1211.54,-66.41 1221.82,-68.98 1221.18,-62.01"/>
</g>
<!-- Node30 -->
<g id="node30" class="node">
<title>Node30</title>
<g id="a_node30"><a xlink:href="test__gso_8cpp.html" target="_top" xlink:title=" ">
<polygon fill="white" stroke="black" points="1232,-0.5 1232,-19.5 1330,-19.5 1330,-0.5 1232,-0.5"/>
<text text-anchor="middle" x="1281" y="-7.5" font-family="Helvetica,sans-Serif" font-size="10.00">tests/test_gso.cpp</text>
</a>
</g>
</g>
<!-- Node29&#45;&gt;Node30 -->
<g id="edge39" class="edge">
<title>Node29&#45;&gt;Node30</title>
<path fill="none" stroke="midnightblue" d="M1192.46,-57.21C1214.54,-45.69 1245.83,-29.36 1264.7,-19.51"/>
<polygon fill="midnightblue" stroke="midnightblue" points="1190.58,-54.25 1183.33,-61.98 1193.82,-60.45 1190.58,-54.25"/>
</g>
</g>
</svg>
