<?xml version="1.0" encoding="UTF-8" standalone="no"?>
<!DOCTYPE svg PUBLIC "-//W3C//DTD SVG 1.1//EN"
 "http://www.w3.org/Graphics/SVG/1.1/DTD/svg11.dtd">
<!-- Generated by graphviz version 2.38.0 (20140413.2041)
 -->
<!-- Title: fplll/enum/topenum.h Pages: 1 -->
<svg width="230pt" height="140pt"
 viewBox="0.00 0.00 229.50 140.00" xmlns="http://www.w3.org/2000/svg" xmlns:xlink="http://www.w3.org/1999/xlink">
<g id="graph0" class="graph" transform="scale(1 1) rotate(0) translate(4 136)">
<title>fplll/enum/topenum.h</title>
<polygon fill="white" stroke="none" points="-4,4 -4,-136 225.5,-136 225.5,4 -4,4"/>
<!-- Node1 -->
<g id="node1" class="node"><title>Node1</title>
<polygon fill="#bfbfbf" stroke="black" points="65.5,-112.5 65.5,-131.5 172.5,-131.5 172.5,-112.5 65.5,-112.5"/>
<text text-anchor="middle" x="119" y="-119.5" font-family="Helvetica,sans-Serif" font-size="10.00">fplll/enum/topenum.h</text>
</g>
<!-- Node2 -->
<g id="node2" class="node"><title>Node2</title>
<g id="a_node2"><a xlink:href="topenum_8cpp.html" target="_top" xlink:title="fplll/enum/topenum.cpp">
<polygon fill="white" stroke="black" points="0,-56.5 0,-75.5 118,-75.5 118,-56.5 0,-56.5"/>
<text text-anchor="middle" x="59" y="-63.5" font-family="Helvetica,sans-Serif" font-size="10.00">fplll/enum/topenum.cpp</text>
</a>
</g>
</g>
<!-- Node1&#45;&gt;Node2 -->
<g id="edge1" class="edge"><title>Node1&#45;&gt;Node2</title>
<path fill="none" stroke="midnightblue" d="M101.819,-105.537C91.1208,-95.9087 77.7437,-83.8694 68.8154,-75.8339"/>
<polygon fill="midnightblue" stroke="midnightblue" points="99.5856,-108.236 109.36,-112.324 104.268,-103.033 99.5856,-108.236"/>
</g>
<!-- Node3 -->
<g id="node3" class="node"><title>Node3</title>
<g id="a_node3"><a xlink:href="svpcvp_8cpp.html" target="_top" xlink:title="fplll/svpcvp.cpp">
<polygon fill="white" stroke="black" points="136.5,-56.5 136.5,-75.5 221.5,-75.5 221.5,-56.5 136.5,-56.5"/>
<text text-anchor="middle" x="179" y="-63.5" font-family="Helvetica,sans-Serif" font-size="10.00">fplll/svpcvp.cpp</text>
</a>
</g>
</g>
<!-- Node1&#45;&gt;Node3 -->
<g id="edge2" class="edge"><title>Node1&#45;&gt;Node3</title>
<path fill="none" stroke="midnightblue" d="M136.181,-105.537C146.879,-95.9087 160.256,-83.8694 169.185,-75.8339"/>
<polygon fill="midnightblue" stroke="midnightblue" points="133.732,-103.033 128.64,-112.324 138.414,-108.236 133.732,-103.033"/>
</g>
<!-- Node4 -->
<g id="node4" class="node"><title>Node4</title>
<g id="a_node4"><a xlink:href="fplll_8cpp.html" target="_top" xlink:title="fplll/fplll.cpp">
<polygon fill="white" stroke="black" points="145,-0.5 145,-19.5 213,-19.5 213,-0.5 145,-0.5"/>
<text text-anchor="middle" x="179" y="-7.5" font-family="Helvetica,sans-Serif" font-size="10.00">fplll/fplll.cpp</text>
</a>
</g>
</g>
<!-- Node3&#45;&gt;Node4 -->
<g id="edge3" class="edge"><title>Node3&#45;&gt;Node4</title>
<path fill="none" stroke="midnightblue" d="M179,-45.8045C179,-36.9102 179,-26.7798 179,-19.7511"/>
<polygon fill="midnightblue" stroke="midnightblue" points="175.5,-46.083 179,-56.083 182.5,-46.083 175.5,-46.083"/>
</g>
</g>
</svg>
