<?xml version="1.0" encoding="UTF-8" standalone="no"?>
<!DOCTYPE svg PUBLIC "-//W3C//DTD SVG 1.1//EN"
 "http://www.w3.org/Graphics/SVG/1.1/DTD/svg11.dtd">
<!-- Generated by graphviz version 2.38.0 (20140413.2041)
 -->
<!-- Title: fplll/util.h Pages: 1 -->
<svg width="1283pt" height="632pt"
 viewBox="0.00 0.00 1283.00 632.00" xmlns="http://www.w3.org/2000/svg" xmlns:xlink="http://www.w3.org/1999/xlink">
<g id="graph0" class="graph" transform="scale(1 1) rotate(0) translate(4 628)">
<title>fplll/util.h</title>
<polygon fill="white" stroke="none" points="-4,4 -4,-628 1279,-628 1279,4 -4,4"/>
<!-- Node1 -->
<g id="node1" class="node"><title>Node1</title>
<polygon fill="#bfbfbf" stroke="black" points="839,-604.5 839,-623.5 895,-623.5 895,-604.5 839,-604.5"/>
<text text-anchor="middle" x="867" y="-611.5" font-family="Helvetica,sans-Serif" font-size="10.00">fplll/util.h</text>
</g>
<!-- Node2 -->
<g id="node2" class="node"><title>Node2</title>
<g id="a_node2"><a xlink:href="evaluator_8h.html" target="_top" xlink:title="fplll/enum/evaluator.h">
<polygon fill="white" stroke="black" points="414,-548.5 414,-567.5 524,-567.5 524,-548.5 414,-548.5"/>
<text text-anchor="middle" x="469" y="-555.5" font-family="Helvetica,sans-Serif" font-size="10.00">fplll/enum/evaluator.h</text>
</a>
</g>
</g>
<!-- Node1&#45;&gt;Node2 -->
<g id="edge1" class="edge"><title>Node1&#45;&gt;Node2</title>
<path fill="none" stroke="midnightblue" d="M828.419,-607.765C757.421,-598.132 605.867,-577.57 524.072,-566.472"/>
<polygon fill="midnightblue" stroke="midnightblue" points="828.316,-611.283 838.696,-609.16 829.257,-604.347 828.316,-611.283"/>
</g>
<!-- Node5 -->
<g id="node5" class="node"><title>Node5</title>
<g id="a_node5"><a xlink:href="fplll_8h.html" target="_top" xlink:title="fplll/fplll.h">
<polygon fill="white" stroke="black" points="492,-380.5 492,-399.5 550,-399.5 550,-380.5 492,-380.5"/>
<text text-anchor="middle" x="521" y="-387.5" font-family="Helvetica,sans-Serif" font-size="10.00">fplll/fplll.h</text>
</a>
</g>
</g>
<!-- Node1&#45;&gt;Node5 -->
<g id="edge41" class="edge"><title>Node1&#45;&gt;Node5</title>
<path fill="none" stroke="midnightblue" d="M828.679,-611.278C786.782,-607.875 718.961,-597.794 669,-568 595.033,-523.891 540.917,-429.027 525.481,-399.772"/>
<polygon fill="midnightblue" stroke="midnightblue" points="828.519,-614.776 838.746,-612.007 829.025,-607.794 828.519,-614.776"/>
</g>
<!-- Node30 -->
<g id="node30" class="node"><title>Node30</title>
<g id="a_node30"><a xlink:href="topenum_8h.html" target="_top" xlink:title="fplll/enum/topenum.h">
<polygon fill="white" stroke="black" points="694.5,-548.5 694.5,-567.5 801.5,-567.5 801.5,-548.5 694.5,-548.5"/>
<text text-anchor="middle" x="748" y="-555.5" font-family="Helvetica,sans-Serif" font-size="10.00">fplll/enum/topenum.h</text>
</a>
</g>
</g>
<!-- Node1&#45;&gt;Node30 -->
<g id="edge38" class="edge"><title>Node1&#45;&gt;Node30</title>
<path fill="none" stroke="midnightblue" d="M838.863,-600.232C816.604,-590.131 786.144,-576.309 766.768,-567.516"/>
<polygon fill="midnightblue" stroke="midnightblue" points="837.591,-603.498 848.144,-604.444 840.484,-597.124 837.591,-603.498"/>
</g>
<!-- Node32 -->
<g id="node32" class="node"><title>Node32</title>
<g id="a_node32"><a xlink:href="svpcvp_8h.html" target="_top" xlink:title="fplll/svpcvp.h">
<polygon fill="white" stroke="black" points="629,-492.5 629,-511.5 703,-511.5 703,-492.5 629,-492.5"/>
<text text-anchor="middle" x="666" y="-499.5" font-family="Helvetica,sans-Serif" font-size="10.00">fplll/svpcvp.h</text>
</a>
</g>
</g>
<!-- Node1&#45;&gt;Node32 -->
<g id="edge42" class="edge"><title>Node1&#45;&gt;Node32</title>
<path fill="none" stroke="midnightblue" d="M828.735,-608.067C781.633,-601.247 705.367,-587.53 685,-568 669.216,-552.865 666.338,-525.41 665.944,-511.527"/>
<polygon fill="midnightblue" stroke="midnightblue" points="828.495,-611.568 838.885,-609.496 829.471,-604.636 828.495,-611.568"/>
</g>
<!-- Node33 -->
<g id="node33" class="node"><title>Node33</title>
<g id="a_node33"><a xlink:href="latticegen_8cpp.html" target="_top" xlink:title="fplll/latticegen.cpp">
<polygon fill="white" stroke="black" points="819.5,-548.5 819.5,-567.5 914.5,-567.5 914.5,-548.5 819.5,-548.5"/>
<text text-anchor="middle" x="867" y="-555.5" font-family="Helvetica,sans-Serif" font-size="10.00">fplll/latticegen.cpp</text>
</a>
</g>
</g>
<!-- Node1&#45;&gt;Node33 -->
<g id="edge45" class="edge"><title>Node1&#45;&gt;Node33</title>
<path fill="none" stroke="midnightblue" d="M867,-593.805C867,-584.91 867,-574.78 867,-567.751"/>
<polygon fill="midnightblue" stroke="midnightblue" points="863.5,-594.083 867,-604.083 870.5,-594.083 863.5,-594.083"/>
</g>
<!-- Node34 -->
<g id="node34" class="node"><title>Node34</title>
<g id="a_node34"><a xlink:href="lll_8cpp.html" target="_top" xlink:title="fplll/lll.cpp">
<polygon fill="white" stroke="black" points="933,-548.5 933,-567.5 993,-567.5 993,-548.5 933,-548.5"/>
<text text-anchor="middle" x="963" y="-555.5" font-family="Helvetica,sans-Serif" font-size="10.00">fplll/lll.cpp</text>
</a>
</g>
</g>
<!-- Node1&#45;&gt;Node34 -->
<g id="edge46" class="edge"><title>Node1&#45;&gt;Node34</title>
<path fill="none" stroke="midnightblue" d="M891.574,-599.177C909.239,-589.241 932.513,-576.149 947.614,-567.655"/>
<polygon fill="midnightblue" stroke="midnightblue" points="889.424,-596.371 882.424,-604.324 892.856,-602.472 889.424,-596.371"/>
</g>
<!-- Node35 -->
<g id="node35" class="node"><title>Node35</title>
<g id="a_node35"><a xlink:href="llldiff_8cpp.html" target="_top" xlink:title="fplll/llldiff.cpp">
<polygon fill="white" stroke="black" points="1011,-548.5 1011,-567.5 1085,-567.5 1085,-548.5 1011,-548.5"/>
<text text-anchor="middle" x="1048" y="-555.5" font-family="Helvetica,sans-Serif" font-size="10.00">fplll/llldiff.cpp</text>
</a>
</g>
</g>
<!-- Node1&#45;&gt;Node35 -->
<g id="edge47" class="edge"><title>Node1&#45;&gt;Node35</title>
<path fill="none" stroke="midnightblue" d="M904.904,-601.692C939.014,-591.515 988.393,-576.783 1019.32,-567.556"/>
<polygon fill="midnightblue" stroke="midnightblue" points="903.863,-598.35 895.281,-604.562 905.865,-605.057 903.863,-598.35"/>
</g>
<!-- Node36 -->
<g id="node36" class="node"><title>Node36</title>
<g id="a_node36"><a xlink:href="util_8cpp.html" target="_top" xlink:title="fplll/util.cpp">
<polygon fill="white" stroke="black" points="1103,-548.5 1103,-567.5 1169,-567.5 1169,-548.5 1103,-548.5"/>
<text text-anchor="middle" x="1136" y="-555.5" font-family="Helvetica,sans-Serif" font-size="10.00">fplll/util.cpp</text>
</a>
</g>
</g>
<!-- Node1&#45;&gt;Node36 -->
<g id="edge48" class="edge"><title>Node1&#45;&gt;Node36</title>
<path fill="none" stroke="midnightblue" d="M905.286,-605.597C950.439,-596.822 1027.74,-581.665 1094,-568 1096.92,-567.397 1099.96,-566.763 1103,-566.123"/>
<polygon fill="midnightblue" stroke="midnightblue" points="904.489,-602.186 895.34,-607.527 905.823,-609.058 904.489,-602.186"/>
</g>
<!-- Node37 -->
<g id="node37" class="node"><title>Node37</title>
<g id="a_node37"><a xlink:href="wrapper_8cpp.html" target="_top" xlink:title="fplll/wrapper.cpp">
<polygon fill="white" stroke="black" points="1187,-548.5 1187,-567.5 1275,-567.5 1275,-548.5 1187,-548.5"/>
<text text-anchor="middle" x="1231" y="-555.5" font-family="Helvetica,sans-Serif" font-size="10.00">fplll/wrapper.cpp</text>
</a>
</g>
</g>
<!-- Node1&#45;&gt;Node37 -->
<g id="edge49" class="edge"><title>Node1&#45;&gt;Node37</title>
<path fill="none" stroke="midnightblue" d="M905.282,-607.769C964.018,-599.672 1079.88,-583.428 1178,-568 1180.86,-567.551 1183.8,-567.078 1186.77,-566.595"/>
<polygon fill="midnightblue" stroke="midnightblue" points="904.766,-604.306 895.336,-609.137 905.72,-611.241 904.766,-604.306"/>
</g>
<!-- Node3 -->
<g id="node3" class="node"><title>Node3</title>
<g id="a_node3"><a xlink:href="bkz_8h.html" target="_top" xlink:title="fplll/bkz.h">
<polygon fill="white" stroke="black" points="420.5,-436.5 420.5,-455.5 479.5,-455.5 479.5,-436.5 420.5,-436.5"/>
<text text-anchor="middle" x="450" y="-443.5" font-family="Helvetica,sans-Serif" font-size="10.00">fplll/bkz.h</text>
</a>
</g>
</g>
<!-- Node2&#45;&gt;Node3 -->
<g id="edge2" class="edge"><title>Node2&#45;&gt;Node3</title>
<path fill="none" stroke="midnightblue" d="M456.759,-539.834C451.753,-531.788 446.546,-521.825 444,-512 438.883,-492.253 443.928,-468.14 447.375,-455.564"/>
<polygon fill="midnightblue" stroke="midnightblue" points="453.92,-541.886 462.371,-548.275 459.749,-538.01 453.92,-541.886"/>
</g>
<!-- Node26 -->
<g id="node26" class="node"><title>Node26</title>
<g id="a_node26"><a xlink:href="enumerate_8h.html" target="_top" xlink:title="fplll/enum/enumerate.h">
<polygon fill="white" stroke="black" points="281,-492.5 281,-511.5 397,-511.5 397,-492.5 281,-492.5"/>
<text text-anchor="middle" x="339" y="-499.5" font-family="Helvetica,sans-Serif" font-size="10.00">fplll/enum/enumerate.h</text>
</a>
</g>
</g>
<!-- Node2&#45;&gt;Node26 -->
<g id="edge31" class="edge"><title>Node2&#45;&gt;Node26</title>
<path fill="none" stroke="midnightblue" d="M438.915,-544.503C414.543,-534.38 380.86,-520.388 359.503,-511.516"/>
<polygon fill="midnightblue" stroke="midnightblue" points="437.823,-547.84 448.401,-548.444 440.509,-541.375 437.823,-547.84"/>
</g>
<!-- Node29 -->
<g id="node29" class="node"><title>Node29</title>
<g id="a_node29"><a xlink:href="evaluator_8cpp.html" target="_top" xlink:title="fplll/enum/evaluator.cpp">
<polygon fill="white" stroke="black" points="453,-492.5 453,-511.5 573,-511.5 573,-492.5 453,-492.5"/>
<text text-anchor="middle" x="513" y="-499.5" font-family="Helvetica,sans-Serif" font-size="10.00">fplll/enum/evaluator.cpp</text>
</a>
</g>
</g>
<!-- Node2&#45;&gt;Node29 -->
<g id="edge37" class="edge"><title>Node2&#45;&gt;Node29</title>
<path fill="none" stroke="midnightblue" d="M482.735,-540.144C490.401,-530.736 499.633,-519.405 505.869,-511.751"/>
<polygon fill="midnightblue" stroke="midnightblue" points="479.869,-538.12 476.266,-548.083 485.296,-542.541 479.869,-538.12"/>
</g>
<!-- Node4 -->
<g id="node4" class="node"><title>Node4</title>
<g id="a_node4"><a xlink:href="bkz_8cpp.html" target="_top" xlink:title="fplll/bkz.cpp">
<polygon fill="white" stroke="black" points="344.5,-380.5 344.5,-399.5 413.5,-399.5 413.5,-380.5 344.5,-380.5"/>
<text text-anchor="middle" x="379" y="-387.5" font-family="Helvetica,sans-Serif" font-size="10.00">fplll/bkz.cpp</text>
</a>
</g>
</g>
<!-- Node3&#45;&gt;Node4 -->
<g id="edge3" class="edge"><title>Node3&#45;&gt;Node4</title>
<path fill="none" stroke="midnightblue" d="M430.41,-430.101C417.632,-420.382 401.387,-408.027 390.615,-399.834"/>
<polygon fill="midnightblue" stroke="midnightblue" points="428.514,-433.056 438.593,-436.324 432.752,-427.484 428.514,-433.056"/>
</g>
<!-- Node3&#45;&gt;Node5 -->
<g id="edge4" class="edge"><title>Node3&#45;&gt;Node5</title>
<path fill="none" stroke="midnightblue" d="M469.59,-430.101C482.368,-420.382 498.613,-408.027 509.385,-399.834"/>
<polygon fill="midnightblue" stroke="midnightblue" points="467.248,-427.484 461.407,-436.324 471.486,-433.056 467.248,-427.484"/>
</g>
<!-- Node6 -->
<g id="node6" class="node"><title>Node6</title>
<g id="a_node6"><a xlink:href="fplll_8cpp.html" target="_top" xlink:title="fplll/fplll.cpp">
<polygon fill="white" stroke="black" points="814,-319 814,-338 882,-338 882,-319 814,-319"/>
<text text-anchor="middle" x="848" y="-326" font-family="Helvetica,sans-Serif" font-size="10.00">fplll/fplll.cpp</text>
</a>
</g>
</g>
<!-- Node5&#45;&gt;Node6 -->
<g id="edge5" class="edge"><title>Node5&#45;&gt;Node6</title>
<path fill="none" stroke="midnightblue" d="M560.251,-384.78C615.254,-378.411 718.157,-364.827 804,-344 810.722,-342.369 817.893,-340.198 824.453,-338.033"/>
<polygon fill="midnightblue" stroke="midnightblue" points="559.77,-381.312 550.23,-385.922 560.562,-388.267 559.77,-381.312"/>
</g>
<!-- Node7 -->
<g id="node7" class="node"><title>Node7</title>
<g id="a_node7"><a xlink:href="main_8h.html" target="_top" xlink:title="fplll/main.h">
<polygon fill="white" stroke="black" points="5,-319 5,-338 69,-338 69,-319 5,-319"/>
<text text-anchor="middle" x="37" y="-326" font-family="Helvetica,sans-Serif" font-size="10.00">fplll/main.h</text>
</a>
</g>
</g>
<!-- Node5&#45;&gt;Node7 -->
<g id="edge6" class="edge"><title>Node5&#45;&gt;Node7</title>
<path fill="none" stroke="midnightblue" d="M481.612,-385.256C376.78,-375.258 97.5766,-348.39 78,-344 71.3696,-342.513 64.3337,-340.28 57.997,-338.008"/>
<polygon fill="midnightblue" stroke="midnightblue" points="481.491,-388.76 491.778,-386.225 482.155,-381.792 481.491,-388.76"/>
</g>
<!-- Node9 -->
<g id="node9" class="node"><title>Node9</title>
<g id="a_node9"><a xlink:href="sampler__basic_8h.html" target="_top" xlink:title="fplll/sieve/sampler\l_basic.h">
<polygon fill="white" stroke="black" points="700.5,-313.5 700.5,-343.5 795.5,-343.5 795.5,-313.5 700.5,-313.5"/>
<text text-anchor="start" x="708.5" y="-331.5" font-family="Helvetica,sans-Serif" font-size="10.00">fplll/sieve/sampler</text>
<text text-anchor="middle" x="748" y="-320.5" font-family="Helvetica,sans-Serif" font-size="10.00">_basic.h</text>
</a>
</g>
</g>
<!-- Node5&#45;&gt;Node9 -->
<g id="edge8" class="edge"><title>Node5&#45;&gt;Node9</title>
<path fill="none" stroke="midnightblue" d="M560.107,-378.749C598.982,-368.56 658.666,-352.916 700.302,-342.002"/>
<polygon fill="midnightblue" stroke="midnightblue" points="558.997,-375.422 550.212,-381.343 560.772,-382.193 558.997,-375.422"/>
</g>
<!-- Node12 -->
<g id="node12" class="node"><title>Node12</title>
<g id="a_node12"><a xlink:href="sieve__common_8h.html" target="_top" xlink:title="fplll/sieve/sieve_common.h">
<polygon fill="white" stroke="black" points="575.5,-252 575.5,-271 710.5,-271 710.5,-252 575.5,-252"/>
<text text-anchor="middle" x="643" y="-259" font-family="Helvetica,sans-Serif" font-size="10.00">fplll/sieve/sieve_common.h</text>
</a>
</g>
</g>
<!-- Node5&#45;&gt;Node12 -->
<g id="edge25" class="edge"><title>Node5&#45;&gt;Node12</title>
<path fill="none" stroke="midnightblue" d="M560.092,-387.341C590.905,-383.725 632.049,-373.277 653,-344 668.928,-321.742 655.339,-287.027 647.549,-271.061"/>
<polygon fill="midnightblue" stroke="midnightblue" points="559.694,-383.863 550.083,-388.322 560.377,-390.829 559.694,-383.863"/>
</g>
<!-- Node21 -->
<g id="node21" class="node"><title>Node21</title>
<g id="a_node21"><a xlink:href="test__bkz_8cpp.html" target="_top" xlink:title="tests/test_bkz.cpp">
<polygon fill="white" stroke="black" points="87,-319 87,-338 185,-338 185,-319 87,-319"/>
<text text-anchor="middle" x="136" y="-326" font-family="Helvetica,sans-Serif" font-size="10.00">tests/test_bkz.cpp</text>
</a>
</g>
</g>
<!-- Node5&#45;&gt;Node21 -->
<g id="edge26" class="edge"><title>Node5&#45;&gt;Node21</title>
<path fill="none" stroke="midnightblue" d="M481.777,-385.066C420.012,-378.546 296.458,-364.189 193,-344 184.481,-342.338 175.336,-340.181 166.918,-338.041"/>
<polygon fill="midnightblue" stroke="midnightblue" points="481.551,-388.561 491.86,-386.118 482.278,-381.599 481.551,-388.561"/>
</g>
<!-- Node22 -->
<g id="node22" class="node"><title>Node22</title>
<g id="a_node22"><a xlink:href="test__lll_8cpp.html" target="_top" xlink:title="tests/test_lll.cpp">
<polygon fill="white" stroke="black" points="202.5,-319 202.5,-338 291.5,-338 291.5,-319 202.5,-319"/>
<text text-anchor="middle" x="247" y="-326" font-family="Helvetica,sans-Serif" font-size="10.00">tests/test_lll.cpp</text>
</a>
</g>
</g>
<!-- Node5&#45;&gt;Node22 -->
<g id="edge27" class="edge"><title>Node5&#45;&gt;Node22</title>
<path fill="none" stroke="midnightblue" d="M481.67,-381.7C437.534,-373.336 363.873,-358.857 301,-344 293.348,-342.192 285.132,-340.076 277.475,-338.029"/>
<polygon fill="midnightblue" stroke="midnightblue" points="481.22,-385.177 491.695,-383.591 482.518,-378.298 481.22,-385.177"/>
</g>
<!-- Node23 -->
<g id="node23" class="node"><title>Node23</title>
<g id="a_node23"><a xlink:href="test__nr_8cpp.html" target="_top" xlink:title="tests/test_nr.cpp">
<polygon fill="white" stroke="black" points="310,-319 310,-338 400,-338 400,-319 310,-319"/>
<text text-anchor="middle" x="355" y="-326" font-family="Helvetica,sans-Serif" font-size="10.00">tests/test_nr.cpp</text>
</a>
</g>
</g>
<!-- Node5&#45;&gt;Node23 -->
<g id="edge28" class="edge"><title>Node5&#45;&gt;Node23</title>
<path fill="none" stroke="midnightblue" d="M487.752,-377.083C455.484,-365.517 407.318,-348.252 378.74,-338.009"/>
<polygon fill="midnightblue" stroke="midnightblue" points="486.622,-380.396 497.216,-380.475 488.984,-373.806 486.622,-380.396"/>
</g>
<!-- Node24 -->
<g id="node24" class="node"><title>Node24</title>
<g id="a_node24"><a xlink:href="test__pruner_8cpp.html" target="_top" xlink:title="tests/test_pruner.cpp">
<polygon fill="white" stroke="black" points="418.5,-319 418.5,-338 527.5,-338 527.5,-319 418.5,-319"/>
<text text-anchor="middle" x="473" y="-326" font-family="Helvetica,sans-Serif" font-size="10.00">tests/test_pruner.cpp</text>
</a>
</g>
</g>
<!-- Node5&#45;&gt;Node24 -->
<g id="edge29" class="edge"><title>Node5&#45;&gt;Node24</title>
<path fill="none" stroke="midnightblue" d="M507.825,-372.669C498.776,-361.452 487.131,-347.016 479.864,-338.009"/>
<polygon fill="midnightblue" stroke="midnightblue" points="505.12,-374.89 514.123,-380.475 510.568,-370.494 505.12,-374.89"/>
</g>
<!-- Node25 -->
<g id="node25" class="node"><title>Node25</title>
<g id="a_node25"><a xlink:href="test__svp_8cpp.html" target="_top" xlink:title="tests/test_svp.cpp">
<polygon fill="white" stroke="black" points="546,-319 546,-338 644,-338 644,-319 546,-319"/>
<text text-anchor="middle" x="595" y="-326" font-family="Helvetica,sans-Serif" font-size="10.00">tests/test_svp.cpp</text>
</a>
</g>
</g>
<!-- Node5&#45;&gt;Node25 -->
<g id="edge30" class="edge"><title>Node5&#45;&gt;Node25</title>
<path fill="none" stroke="midnightblue" d="M539.689,-373.973C553.843,-362.593 572.776,-347.369 584.417,-338.009"/>
<polygon fill="midnightblue" stroke="midnightblue" points="537.202,-371.481 531.602,-380.475 541.589,-376.937 537.202,-371.481"/>
</g>
<!-- Node8 -->
<g id="node8" class="node"><title>Node8</title>
<g id="a_node8"><a xlink:href="main_8cpp.html" target="_top" xlink:title="fplll/main.cpp">
<polygon fill="white" stroke="black" points="0,-252 0,-271 74,-271 74,-252 0,-252"/>
<text text-anchor="middle" x="37" y="-259" font-family="Helvetica,sans-Serif" font-size="10.00">fplll/main.cpp</text>
</a>
</g>
</g>
<!-- Node7&#45;&gt;Node8 -->
<g id="edge7" class="edge"><title>Node7&#45;&gt;Node8</title>
<path fill="none" stroke="midnightblue" d="M37,-308.537C37,-296.17 37,-280.62 37,-271.127"/>
<polygon fill="midnightblue" stroke="midnightblue" points="33.5001,-308.734 37,-318.734 40.5001,-308.734 33.5001,-308.734"/>
</g>
<!-- Node10 -->
<g id="node10" class="node"><title>Node10</title>
<g id="a_node10"><a xlink:href="sampler__basic_8cpp.html" target="_top" xlink:title="fplll/sieve/sampler\l_basic.cpp">
<polygon fill="white" stroke="black" points="841.5,-246.5 841.5,-276.5 936.5,-276.5 936.5,-246.5 841.5,-246.5"/>
<text text-anchor="start" x="849.5" y="-264.5" font-family="Helvetica,sans-Serif" font-size="10.00">fplll/sieve/sampler</text>
<text text-anchor="middle" x="889" y="-253.5" font-family="Helvetica,sans-Serif" font-size="10.00">_basic.cpp</text>
</a>
</g>
</g>
<!-- Node9&#45;&gt;Node10 -->
<g id="edge9" class="edge"><title>Node9&#45;&gt;Node10</title>
<path fill="none" stroke="midnightblue" d="M787.848,-309.131C810.252,-298.802 837.784,-286.11 858.465,-276.577"/>
<polygon fill="midnightblue" stroke="midnightblue" points="786.211,-306.031 778.595,-313.396 789.142,-312.388 786.211,-306.031"/>
</g>
<!-- Node11 -->
<g id="node11" class="node"><title>Node11</title>
<g id="a_node11"><a xlink:href="sampler__main_8cpp.html" target="_top" xlink:title="fplll/sieve/sampler\l_main.cpp">
<polygon fill="white" stroke="black" points="728.5,-246.5 728.5,-276.5 823.5,-276.5 823.5,-246.5 728.5,-246.5"/>
<text text-anchor="start" x="736.5" y="-264.5" font-family="Helvetica,sans-Serif" font-size="10.00">fplll/sieve/sampler</text>
<text text-anchor="middle" x="776" y="-253.5" font-family="Helvetica,sans-Serif" font-size="10.00">_main.cpp</text>
</a>
</g>
</g>
<!-- Node9&#45;&gt;Node11 -->
<g id="edge10" class="edge"><title>Node9&#45;&gt;Node11</title>
<path fill="none" stroke="midnightblue" d="M758.127,-303.991C762.084,-294.804 766.489,-284.578 769.936,-276.577"/>
<polygon fill="midnightblue" stroke="midnightblue" points="754.817,-302.827 754.076,-313.396 761.246,-305.597 754.817,-302.827"/>
</g>
<!-- Node9&#45;&gt;Node12 -->
<g id="edge11" class="edge"><title>Node9&#45;&gt;Node12</title>
<path fill="none" stroke="midnightblue" d="M716.459,-307.975C696.549,-295.649 671.827,-280.345 656.742,-271.007"/>
<polygon fill="midnightblue" stroke="midnightblue" points="714.872,-311.108 725.217,-313.396 718.556,-305.156 714.872,-311.108"/>
</g>
<!-- Node13 -->
<g id="node13" class="node"><title>Node13</title>
<g id="a_node13"><a xlink:href="sieve__gauss__str_8h.html" target="_top" xlink:title="fplll/sieve/sieve_gauss\l_str.h">
<polygon fill="white" stroke="black" points="585,-179.5 585,-209.5 701,-209.5 701,-179.5 585,-179.5"/>
<text text-anchor="start" x="593" y="-197.5" font-family="Helvetica,sans-Serif" font-size="10.00">fplll/sieve/sieve_gauss</text>
<text text-anchor="middle" x="643" y="-186.5" font-family="Helvetica,sans-Serif" font-size="10.00">_str.h</text>
</a>
</g>
</g>
<!-- Node12&#45;&gt;Node13 -->
<g id="edge12" class="edge"><title>Node12&#45;&gt;Node13</title>
<path fill="none" stroke="midnightblue" d="M636.817,-241.739C635.919,-231.487 636.088,-219.001 637.324,-209.589"/>
<polygon fill="midnightblue" stroke="midnightblue" points="633.364,-242.313 638.211,-251.734 640.297,-241.346 633.364,-242.313"/>
</g>
<!-- Node14 -->
<g id="node14" class="node"><title>Node14</title>
<g id="a_node14"><a xlink:href="sieve__gauss_8h.html" target="_top" xlink:title="fplll/sieve/sieve_gauss.h">
<polygon fill="white" stroke="black" points="538,-123.5 538,-142.5 662,-142.5 662,-123.5 538,-123.5"/>
<text text-anchor="middle" x="600" y="-130.5" font-family="Helvetica,sans-Serif" font-size="10.00">fplll/sieve/sieve_gauss.h</text>
</a>
</g>
</g>
<!-- Node12&#45;&gt;Node14 -->
<g id="edge24" class="edge"><title>Node12&#45;&gt;Node14</title>
<path fill="none" stroke="midnightblue" d="M614.311,-246.933C599.995,-238.492 584.05,-226.147 576,-210 564.518,-186.967 582.39,-157.284 593.023,-142.773"/>
<polygon fill="midnightblue" stroke="midnightblue" points="612.935,-250.17 623.385,-251.917 616.305,-244.034 612.935,-250.17"/>
</g>
<!-- Node13&#45;&gt;Node12 -->
<g id="edge13" class="edge"><title>Node13&#45;&gt;Node12</title>
<path fill="none" stroke="midnightblue" d="M649.551,-219.714C650.1,-230.923 649.513,-243.541 647.789,-251.734"/>
<polygon fill="midnightblue" stroke="midnightblue" points="653.024,-219.251 648.676,-209.589 646.05,-219.853 653.024,-219.251"/>
</g>
<!-- Node13&#45;&gt;Node14 -->
<g id="edge14" class="edge"><title>Node13&#45;&gt;Node14</title>
<path fill="none" stroke="midnightblue" d="M626.815,-171.104C619.648,-161.187 611.64,-150.106 606.257,-142.658"/>
<polygon fill="midnightblue" stroke="midnightblue" points="624.115,-173.344 632.81,-179.399 629.789,-169.244 624.115,-173.344"/>
</g>
<!-- Node15 -->
<g id="node15" class="node"><title>Node15</title>
<g id="a_node15"><a xlink:href="sieve__gauss_8cpp.html" target="_top" xlink:title="fplll/sieve/sieve_gauss.cpp">
<polygon fill="white" stroke="black" points="490,-0.5 490,-19.5 624,-19.5 624,-0.5 490,-0.5"/>
<text text-anchor="middle" x="557" y="-7.5" font-family="Helvetica,sans-Serif" font-size="10.00">fplll/sieve/sieve_gauss.cpp</text>
</a>
</g>
</g>
<!-- Node14&#45;&gt;Node15 -->
<g id="edge15" class="edge"><title>Node14&#45;&gt;Node15</title>
<path fill="none" stroke="midnightblue" d="M568.158,-118.942C554.761,-111.665 540.55,-101.166 533,-87 520.895,-64.2881 539.05,-34.4596 549.883,-19.8452"/>
<polygon fill="midnightblue" stroke="midnightblue" points="566.702,-122.128 577.212,-123.471 569.834,-115.867 566.702,-122.128"/>
</g>
<!-- Node16 -->
<g id="node16" class="node"><title>Node16</title>
<g id="a_node16"><a xlink:href="sieve__gauss__2sieve_8cpp.html" target="_top" xlink:title="fplll/sieve/sieve_gauss\l_2sieve.cpp">
<polygon fill="white" stroke="black" points="542,-56.5 542,-86.5 658,-86.5 658,-56.5 542,-56.5"/>
<text text-anchor="start" x="550" y="-74.5" font-family="Helvetica,sans-Serif" font-size="10.00">fplll/sieve/sieve_gauss</text>
<text text-anchor="middle" x="600" y="-63.5" font-family="Helvetica,sans-Serif" font-size="10.00">_2sieve.cpp</text>
</a>
</g>
</g>
<!-- Node14&#45;&gt;Node16 -->
<g id="edge16" class="edge"><title>Node14&#45;&gt;Node16</title>
<path fill="none" stroke="midnightblue" d="M600,-113.235C600,-104.586 600,-94.4969 600,-86.523"/>
<polygon fill="midnightblue" stroke="midnightblue" points="596.5,-113.475 600,-123.475 603.5,-113.475 596.5,-113.475"/>
</g>
<!-- Node17 -->
<g id="node17" class="node"><title>Node17</title>
<g id="a_node17"><a xlink:href="sieve__gauss__3sieve_8cpp.html" target="_top" xlink:title="fplll/sieve/sieve_gauss\l_3sieve.cpp">
<polygon fill="white" stroke="black" points="676,-56.5 676,-86.5 792,-86.5 792,-56.5 676,-56.5"/>
<text text-anchor="start" x="684" y="-74.5" font-family="Helvetica,sans-Serif" font-size="10.00">fplll/sieve/sieve_gauss</text>
<text text-anchor="middle" x="734" y="-63.5" font-family="Helvetica,sans-Serif" font-size="10.00">_3sieve.cpp</text>
</a>
</g>
</g>
<!-- Node14&#45;&gt;Node17 -->
<g id="edge18" class="edge"><title>Node14&#45;&gt;Node17</title>
<path fill="none" stroke="midnightblue" d="M628.533,-119.331C650.213,-109.704 680.022,-96.468 702.419,-86.523"/>
<polygon fill="midnightblue" stroke="midnightblue" points="626.918,-116.218 619.199,-123.475 629.759,-122.616 626.918,-116.218"/>
</g>
<!-- Node18 -->
<g id="node18" class="node"><title>Node18</title>
<g id="a_node18"><a xlink:href="sieve__gauss__4sieve_8cpp.html" target="_top" xlink:title="fplll/sieve/sieve_gauss\l_4sieve.cpp">
<polygon fill="white" stroke="black" points="370,-56.5 370,-86.5 486,-86.5 486,-56.5 370,-56.5"/>
<text text-anchor="start" x="378" y="-74.5" font-family="Helvetica,sans-Serif" font-size="10.00">fplll/sieve/sieve_gauss</text>
<text text-anchor="middle" x="428" y="-63.5" font-family="Helvetica,sans-Serif" font-size="10.00">_4sieve.cpp</text>
</a>
</g>
</g>
<!-- Node14&#45;&gt;Node18 -->
<g id="edge20" class="edge"><title>Node14&#45;&gt;Node18</title>
<path fill="none" stroke="midnightblue" d="M565.609,-120.103C537.622,-110.422 498.062,-96.7367 468.537,-86.523"/>
<polygon fill="midnightblue" stroke="midnightblue" points="564.762,-123.513 575.357,-123.475 567.05,-116.898 564.762,-123.513"/>
</g>
<!-- Node19 -->
<g id="node19" class="node"><title>Node19</title>
<g id="a_node19"><a xlink:href="sieve__main_8h.html" target="_top" xlink:title="fplll/sieve/sieve_main.h">
<polygon fill="white" stroke="black" points="810.5,-62 810.5,-81 929.5,-81 929.5,-62 810.5,-62"/>
<text text-anchor="middle" x="870" y="-69" font-family="Helvetica,sans-Serif" font-size="10.00">fplll/sieve/sieve_main.h</text>
</a>
</g>
</g>
<!-- Node14&#45;&gt;Node19 -->
<g id="edge22" class="edge"><title>Node14&#45;&gt;Node19</title>
<path fill="none" stroke="midnightblue" d="M648.743,-121.258C701.12,-109.716 783.302,-91.6056 831.387,-81.0091"/>
<polygon fill="midnightblue" stroke="midnightblue" points="647.697,-117.905 638.684,-123.475 649.203,-124.741 647.697,-117.905"/>
</g>
<!-- Node16&#45;&gt;Node15 -->
<g id="edge17" class="edge"><title>Node16&#45;&gt;Node15</title>
<path fill="none" stroke="midnightblue" d="M583.815,-48.1041C576.648,-38.1868 568.64,-27.1062 563.257,-19.6578"/>
<polygon fill="midnightblue" stroke="midnightblue" points="581.115,-50.3444 589.81,-56.3993 586.789,-46.2442 581.115,-50.3444"/>
</g>
<!-- Node17&#45;&gt;Node15 -->
<g id="edge19" class="edge"><title>Node17&#45;&gt;Node15</title>
<path fill="none" stroke="midnightblue" d="M682.166,-53.0756C649.38,-42.0543 608.438,-28.2914 582.497,-19.5709"/>
<polygon fill="midnightblue" stroke="midnightblue" points="681.459,-56.5305 692.053,-56.3993 683.69,-49.8953 681.459,-56.5305"/>
</g>
<!-- Node18&#45;&gt;Node15 -->
<g id="edge21" class="edge"><title>Node18&#45;&gt;Node15</title>
<path fill="none" stroke="midnightblue" d="M467.927,-52.0841C491.359,-41.2763 519.878,-28.1219 538.229,-19.6578"/>
<polygon fill="midnightblue" stroke="midnightblue" points="466.186,-49.0327 458.571,-56.3993 469.118,-55.3891 466.186,-49.0327"/>
</g>
<!-- Node20 -->
<g id="node20" class="node"><title>Node20</title>
<g id="a_node20"><a xlink:href="sieve__main_8cpp.html" target="_top" xlink:title="fplll/sieve/sieve_main.cpp">
<polygon fill="white" stroke="black" points="805.5,-0.5 805.5,-19.5 934.5,-19.5 934.5,-0.5 805.5,-0.5"/>
<text text-anchor="middle" x="870" y="-7.5" font-family="Helvetica,sans-Serif" font-size="10.00">fplll/sieve/sieve_main.cpp</text>
</a>
</g>
</g>
<!-- Node19&#45;&gt;Node20 -->
<g id="edge23" class="edge"><title>Node19&#45;&gt;Node20</title>
<path fill="none" stroke="midnightblue" d="M870,-51.8165C870,-40.9962 870,-27.898 870,-19.5091"/>
<polygon fill="midnightblue" stroke="midnightblue" points="866.5,-51.9751 870,-61.9751 873.5,-51.9751 866.5,-51.9751"/>
</g>
<!-- Node26&#45;&gt;Node3 -->
<g id="edge32" class="edge"><title>Node26&#45;&gt;Node3</title>
<path fill="none" stroke="midnightblue" d="M366.005,-487.862C386.588,-477.849 414.345,-464.346 432.21,-455.655"/>
<polygon fill="midnightblue" stroke="midnightblue" points="364.295,-484.802 356.834,-492.324 367.358,-491.097 364.295,-484.802"/>
</g>
<!-- Node26&#45;&gt;Node4 -->
<g id="edge33" class="edge"><title>Node26&#45;&gt;Node4</title>
<path fill="none" stroke="midnightblue" d="M306.165,-488.154C280.927,-476.274 252.617,-457.279 267,-436 284.191,-410.566 318.385,-399.505 344.492,-394.696"/>
<polygon fill="midnightblue" stroke="midnightblue" points="305.033,-491.481 315.592,-492.349 307.879,-485.086 305.033,-491.481"/>
</g>
<!-- Node27 -->
<g id="node27" class="node"><title>Node27</title>
<g id="a_node27"><a xlink:href="enumerate_8cpp.html" target="_top" xlink:title="fplll/enum/enumerate.cpp">
<polygon fill="white" stroke="black" points="276,-436.5 276,-455.5 402,-455.5 402,-436.5 276,-436.5"/>
<text text-anchor="middle" x="339" y="-443.5" font-family="Helvetica,sans-Serif" font-size="10.00">fplll/enum/enumerate.cpp</text>
</a>
</g>
</g>
<!-- Node26&#45;&gt;Node27 -->
<g id="edge34" class="edge"><title>Node26&#45;&gt;Node27</title>
<path fill="none" stroke="midnightblue" d="M339,-481.805C339,-472.91 339,-462.78 339,-455.751"/>
<polygon fill="midnightblue" stroke="midnightblue" points="335.5,-482.083 339,-492.083 342.5,-482.083 335.5,-482.083"/>
</g>
<!-- Node28 -->
<g id="node28" class="node"><title>Node28</title>
<g id="a_node28"><a xlink:href="svpcvp_8cpp.html" target="_top" xlink:title="fplll/svpcvp.cpp">
<polygon fill="white" stroke="black" points="731.5,-436.5 731.5,-455.5 816.5,-455.5 816.5,-436.5 731.5,-436.5"/>
<text text-anchor="middle" x="774" y="-443.5" font-family="Helvetica,sans-Serif" font-size="10.00">fplll/svpcvp.cpp</text>
</a>
</g>
</g>
<!-- Node26&#45;&gt;Node28 -->
<g id="edge35" class="edge"><title>Node26&#45;&gt;Node28</title>
<path fill="none" stroke="midnightblue" d="M407.414,-492.507C498.284,-481.227 656.077,-461.639 731.49,-452.277"/>
<polygon fill="midnightblue" stroke="midnightblue" points="406.707,-489.068 397.215,-493.773 407.57,-496.015 406.707,-489.068"/>
</g>
<!-- Node28&#45;&gt;Node6 -->
<g id="edge36" class="edge"><title>Node28&#45;&gt;Node6</title>
<path fill="none" stroke="midnightblue" d="M784.992,-427.844C801.001,-402.857 830.153,-357.355 842.373,-338.282"/>
<polygon fill="midnightblue" stroke="midnightblue" points="782.01,-426.01 779.562,-436.319 787.904,-429.787 782.01,-426.01"/>
</g>
<!-- Node30&#45;&gt;Node28 -->
<g id="edge40" class="edge"><title>Node30&#45;&gt;Node28</title>
<path fill="none" stroke="midnightblue" d="M802.415,-545.126C820,-538.435 837.621,-528.052 848,-512 863.877,-487.445 825.526,-466.692 798.308,-455.618"/>
<polygon fill="midnightblue" stroke="midnightblue" points="801.01,-541.909 792.696,-548.476 803.291,-548.527 801.01,-541.909"/>
</g>
<!-- Node31 -->
<g id="node31" class="node"><title>Node31</title>
<g id="a_node31"><a xlink:href="topenum_8cpp.html" target="_top" xlink:title="fplll/enum/topenum.cpp">
<polygon fill="white" stroke="black" points="721,-492.5 721,-511.5 839,-511.5 839,-492.5 721,-492.5"/>
<text text-anchor="middle" x="780" y="-499.5" font-family="Helvetica,sans-Serif" font-size="10.00">fplll/enum/topenum.cpp</text>
</a>
</g>
</g>
<!-- Node30&#45;&gt;Node31 -->
<g id="edge39" class="edge"><title>Node30&#45;&gt;Node31</title>
<path fill="none" stroke="midnightblue" d="M758.504,-539.275C763.973,-530.045 770.418,-519.17 774.814,-511.751"/>
<polygon fill="midnightblue" stroke="midnightblue" points="755.371,-537.696 753.284,-548.083 761.393,-541.264 755.371,-537.696"/>
</g>
<!-- Node32&#45;&gt;Node5 -->
<g id="edge43" class="edge"><title>Node32&#45;&gt;Node5</title>
<path fill="none" stroke="midnightblue" d="M655.55,-483.578C646.311,-469.331 631.728,-449.417 615,-436 594.393,-419.472 566.717,-407.16 546.737,-399.631"/>
<polygon fill="midnightblue" stroke="midnightblue" points="652.786,-485.759 661.052,-492.386 658.722,-482.05 652.786,-485.759"/>
</g>
<!-- Node32&#45;&gt;Node28 -->
<g id="edge44" class="edge"><title>Node32&#45;&gt;Node28</title>
<path fill="none" stroke="midnightblue" d="M692.548,-487.726C712.546,-477.727 739.387,-464.307 756.691,-455.655"/>
<polygon fill="midnightblue" stroke="midnightblue" points="690.731,-484.721 683.352,-492.324 693.862,-490.982 690.731,-484.721"/>
</g>
</g>
</svg>
