<?xml version="1.0" encoding="UTF-8" standalone="no"?>
<!DOCTYPE svg PUBLIC "-//W3C//DTD SVG 1.1//EN"
 "http://www.w3.org/Graphics/SVG/1.1/DTD/svg11.dtd">
<!-- Generated by graphviz version 2.38.0 (20140413.2041)
 -->
<!-- Title: fplll/util.h Pages: 1 -->
<svg width="1278pt" height="364pt"
 viewBox="0.00 0.00 1277.50 364.00" xmlns="http://www.w3.org/2000/svg" xmlns:xlink="http://www.w3.org/1999/xlink">
<g id="graph0" class="graph" transform="scale(1 1) rotate(0) translate(4 360)">
<title>fplll/util.h</title>
<polygon fill="white" stroke="none" points="-4,4 -4,-360 1273.5,-360 1273.5,4 -4,4"/>
<!-- Node1 -->
<g id="node1" class="node"><title>Node1</title>
<polygon fill="#bfbfbf" stroke="black" points="833.5,-336.5 833.5,-355.5 889.5,-355.5 889.5,-336.5 833.5,-336.5"/>
<text text-anchor="middle" x="861.5" y="-343.5" font-family="Helvetica,sans-Serif" font-size="10.00">fplll/util.h</text>
</g>
<!-- Node2 -->
<g id="node2" class="node"><title>Node2</title>
<g id="a_node2"><a xlink:href="evaluator_8h.html" target="_top" xlink:title="fplll/enum/evaluator.h">
<polygon fill="white" stroke="black" points="408.5,-280.5 408.5,-299.5 518.5,-299.5 518.5,-280.5 408.5,-280.5"/>
<text text-anchor="middle" x="463.5" y="-287.5" font-family="Helvetica,sans-Serif" font-size="10.00">fplll/enum/evaluator.h</text>
</a>
</g>
</g>
<!-- Node1&#45;&gt;Node2 -->
<g id="edge1" class="edge"><title>Node1&#45;&gt;Node2</title>
<path fill="none" stroke="midnightblue" d="M822.919,-339.765C751.921,-330.132 600.367,-309.57 518.572,-298.472"/>
<polygon fill="midnightblue" stroke="midnightblue" points="822.816,-343.283 833.196,-341.16 823.757,-336.347 822.816,-343.283"/>
</g>
<!-- Node5 -->
<g id="node5" class="node"><title>Node5</title>
<g id="a_node5"><a xlink:href="fplll_8h.html" target="_top" xlink:title="fplll/fplll.h">
<polygon fill="white" stroke="black" points="486.5,-112.5 486.5,-131.5 544.5,-131.5 544.5,-112.5 486.5,-112.5"/>
<text text-anchor="middle" x="515.5" y="-119.5" font-family="Helvetica,sans-Serif" font-size="10.00">fplll/fplll.h</text>
</a>
</g>
</g>
<!-- Node1&#45;&gt;Node5 -->
<g id="edge24" class="edge"><title>Node1&#45;&gt;Node5</title>
<path fill="none" stroke="midnightblue" d="M823.179,-343.278C781.282,-339.875 713.461,-329.794 663.5,-300 589.533,-255.891 535.417,-161.027 519.981,-131.772"/>
<polygon fill="midnightblue" stroke="midnightblue" points="823.019,-346.776 833.246,-344.007 823.525,-339.794 823.019,-346.776"/>
</g>
<!-- Node19 -->
<g id="node19" class="node"><title>Node19</title>
<g id="a_node19"><a xlink:href="topenum_8h.html" target="_top" xlink:title="fplll/enum/topenum.h">
<polygon fill="white" stroke="black" points="689,-280.5 689,-299.5 796,-299.5 796,-280.5 689,-280.5"/>
<text text-anchor="middle" x="742.5" y="-287.5" font-family="Helvetica,sans-Serif" font-size="10.00">fplll/enum/topenum.h</text>
</a>
</g>
</g>
<!-- Node1&#45;&gt;Node19 -->
<g id="edge21" class="edge"><title>Node1&#45;&gt;Node19</title>
<path fill="none" stroke="midnightblue" d="M833.363,-332.232C811.104,-322.131 780.644,-308.309 761.268,-299.516"/>
<polygon fill="midnightblue" stroke="midnightblue" points="832.091,-335.498 842.644,-336.444 834.984,-329.124 832.091,-335.498"/>
</g>
<!-- Node21 -->
<g id="node21" class="node"><title>Node21</title>
<g id="a_node21"><a xlink:href="svpcvp_8h.html" target="_top" xlink:title="fplll/svpcvp.h">
<polygon fill="white" stroke="black" points="623.5,-224.5 623.5,-243.5 697.5,-243.5 697.5,-224.5 623.5,-224.5"/>
<text text-anchor="middle" x="660.5" y="-231.5" font-family="Helvetica,sans-Serif" font-size="10.00">fplll/svpcvp.h</text>
</a>
</g>
</g>
<!-- Node1&#45;&gt;Node21 -->
<g id="edge25" class="edge"><title>Node1&#45;&gt;Node21</title>
<path fill="none" stroke="midnightblue" d="M823.235,-340.067C776.133,-333.247 699.867,-319.53 679.5,-300 663.716,-284.865 660.838,-257.41 660.444,-243.527"/>
<polygon fill="midnightblue" stroke="midnightblue" points="822.995,-343.568 833.385,-341.496 823.971,-336.636 822.995,-343.568"/>
</g>
<!-- Node22 -->
<g id="node22" class="node"><title>Node22</title>
<g id="a_node22"><a xlink:href="latticegen_8cpp.html" target="_top" xlink:title="fplll/latticegen.cpp">
<polygon fill="white" stroke="black" points="814,-280.5 814,-299.5 909,-299.5 909,-280.5 814,-280.5"/>
<text text-anchor="middle" x="861.5" y="-287.5" font-family="Helvetica,sans-Serif" font-size="10.00">fplll/latticegen.cpp</text>
</a>
</g>
</g>
<!-- Node1&#45;&gt;Node22 -->
<g id="edge28" class="edge"><title>Node1&#45;&gt;Node22</title>
<path fill="none" stroke="midnightblue" d="M861.5,-325.805C861.5,-316.91 861.5,-306.78 861.5,-299.751"/>
<polygon fill="midnightblue" stroke="midnightblue" points="858,-326.083 861.5,-336.083 865,-326.083 858,-326.083"/>
</g>
<!-- Node23 -->
<g id="node23" class="node"><title>Node23</title>
<g id="a_node23"><a xlink:href="lll_8cpp.html" target="_top" xlink:title="fplll/lll.cpp">
<polygon fill="white" stroke="black" points="927.5,-280.5 927.5,-299.5 987.5,-299.5 987.5,-280.5 927.5,-280.5"/>
<text text-anchor="middle" x="957.5" y="-287.5" font-family="Helvetica,sans-Serif" font-size="10.00">fplll/lll.cpp</text>
</a>
</g>
</g>
<!-- Node1&#45;&gt;Node23 -->
<g id="edge29" class="edge"><title>Node1&#45;&gt;Node23</title>
<path fill="none" stroke="midnightblue" d="M886.074,-331.177C903.739,-321.241 927.013,-308.149 942.114,-299.655"/>
<polygon fill="midnightblue" stroke="midnightblue" points="883.924,-328.371 876.924,-336.324 887.356,-334.472 883.924,-328.371"/>
</g>
<!-- Node24 -->
<g id="node24" class="node"><title>Node24</title>
<g id="a_node24"><a xlink:href="llldiff_8cpp.html" target="_top" xlink:title="fplll/llldiff.cpp">
<polygon fill="white" stroke="black" points="1005.5,-280.5 1005.5,-299.5 1079.5,-299.5 1079.5,-280.5 1005.5,-280.5"/>
<text text-anchor="middle" x="1042.5" y="-287.5" font-family="Helvetica,sans-Serif" font-size="10.00">fplll/llldiff.cpp</text>
</a>
</g>
</g>
<!-- Node1&#45;&gt;Node24 -->
<g id="edge30" class="edge"><title>Node1&#45;&gt;Node24</title>
<path fill="none" stroke="midnightblue" d="M899.404,-333.692C933.514,-323.515 982.893,-308.783 1013.82,-299.556"/>
<polygon fill="midnightblue" stroke="midnightblue" points="898.363,-330.35 889.781,-336.562 900.365,-337.057 898.363,-330.35"/>
</g>
<!-- Node25 -->
<g id="node25" class="node"><title>Node25</title>
<g id="a_node25"><a xlink:href="util_8cpp.html" target="_top" xlink:title="fplll/util.cpp">
<polygon fill="white" stroke="black" points="1097.5,-280.5 1097.5,-299.5 1163.5,-299.5 1163.5,-280.5 1097.5,-280.5"/>
<text text-anchor="middle" x="1130.5" y="-287.5" font-family="Helvetica,sans-Serif" font-size="10.00">fplll/util.cpp</text>
</a>
</g>
</g>
<!-- Node1&#45;&gt;Node25 -->
<g id="edge31" class="edge"><title>Node1&#45;&gt;Node25</title>
<path fill="none" stroke="midnightblue" d="M899.786,-337.597C944.939,-328.822 1022.24,-313.665 1088.5,-300 1091.42,-299.397 1094.46,-298.763 1097.5,-298.123"/>
<polygon fill="midnightblue" stroke="midnightblue" points="898.989,-334.186 889.84,-339.527 900.323,-341.058 898.989,-334.186"/>
</g>
<!-- Node26 -->
<g id="node26" class="node"><title>Node26</title>
<g id="a_node26"><a xlink:href="wrapper_8cpp.html" target="_top" xlink:title="fplll/wrapper.cpp">
<polygon fill="white" stroke="black" points="1181.5,-280.5 1181.5,-299.5 1269.5,-299.5 1269.5,-280.5 1181.5,-280.5"/>
<text text-anchor="middle" x="1225.5" y="-287.5" font-family="Helvetica,sans-Serif" font-size="10.00">fplll/wrapper.cpp</text>
</a>
</g>
</g>
<!-- Node1&#45;&gt;Node26 -->
<g id="edge32" class="edge"><title>Node1&#45;&gt;Node26</title>
<path fill="none" stroke="midnightblue" d="M899.782,-339.769C958.518,-331.672 1074.38,-315.428 1172.5,-300 1175.36,-299.551 1178.3,-299.078 1181.27,-298.595"/>
<polygon fill="midnightblue" stroke="midnightblue" points="899.266,-336.306 889.836,-341.137 900.22,-343.241 899.266,-336.306"/>
</g>
<!-- Node3 -->
<g id="node3" class="node"><title>Node3</title>
<g id="a_node3"><a xlink:href="bkz_8h.html" target="_top" xlink:title="fplll/bkz.h">
<polygon fill="white" stroke="black" points="415,-168.5 415,-187.5 474,-187.5 474,-168.5 415,-168.5"/>
<text text-anchor="middle" x="444.5" y="-175.5" font-family="Helvetica,sans-Serif" font-size="10.00">fplll/bkz.h</text>
</a>
</g>
</g>
<!-- Node2&#45;&gt;Node3 -->
<g id="edge2" class="edge"><title>Node2&#45;&gt;Node3</title>
<path fill="none" stroke="midnightblue" d="M451.259,-271.834C446.253,-263.788 441.046,-253.825 438.5,-244 433.383,-224.253 438.428,-200.14 441.875,-187.564"/>
<polygon fill="midnightblue" stroke="midnightblue" points="448.42,-273.886 456.871,-280.275 454.249,-270.01 448.42,-273.886"/>
</g>
<!-- Node15 -->
<g id="node15" class="node"><title>Node15</title>
<g id="a_node15"><a xlink:href="enumerate_8h.html" target="_top" xlink:title="fplll/enum/enumerate.h">
<polygon fill="white" stroke="black" points="275.5,-224.5 275.5,-243.5 391.5,-243.5 391.5,-224.5 275.5,-224.5"/>
<text text-anchor="middle" x="333.5" y="-231.5" font-family="Helvetica,sans-Serif" font-size="10.00">fplll/enum/enumerate.h</text>
</a>
</g>
</g>
<!-- Node2&#45;&gt;Node15 -->
<g id="edge14" class="edge"><title>Node2&#45;&gt;Node15</title>
<path fill="none" stroke="midnightblue" d="M433.415,-276.503C409.043,-266.38 375.36,-252.388 354.003,-243.516"/>
<polygon fill="midnightblue" stroke="midnightblue" points="432.323,-279.84 442.901,-280.444 435.009,-273.375 432.323,-279.84"/>
</g>
<!-- Node18 -->
<g id="node18" class="node"><title>Node18</title>
<g id="a_node18"><a xlink:href="evaluator_8cpp.html" target="_top" xlink:title="fplll/enum/evaluator.cpp">
<polygon fill="white" stroke="black" points="447.5,-224.5 447.5,-243.5 567.5,-243.5 567.5,-224.5 447.5,-224.5"/>
<text text-anchor="middle" x="507.5" y="-231.5" font-family="Helvetica,sans-Serif" font-size="10.00">fplll/enum/evaluator.cpp</text>
</a>
</g>
</g>
<!-- Node2&#45;&gt;Node18 -->
<g id="edge20" class="edge"><title>Node2&#45;&gt;Node18</title>
<path fill="none" stroke="midnightblue" d="M477.235,-272.144C484.901,-262.736 494.133,-251.405 500.369,-243.751"/>
<polygon fill="midnightblue" stroke="midnightblue" points="474.369,-270.12 470.766,-280.083 479.796,-274.541 474.369,-270.12"/>
</g>
<!-- Node4 -->
<g id="node4" class="node"><title>Node4</title>
<g id="a_node4"><a xlink:href="bkz_8cpp.html" target="_top" xlink:title="fplll/bkz.cpp">
<polygon fill="white" stroke="black" points="339,-112.5 339,-131.5 408,-131.5 408,-112.5 339,-112.5"/>
<text text-anchor="middle" x="373.5" y="-119.5" font-family="Helvetica,sans-Serif" font-size="10.00">fplll/bkz.cpp</text>
</a>
</g>
</g>
<!-- Node3&#45;&gt;Node4 -->
<g id="edge3" class="edge"><title>Node3&#45;&gt;Node4</title>
<path fill="none" stroke="midnightblue" d="M424.91,-162.101C412.132,-152.382 395.887,-140.027 385.115,-131.834"/>
<polygon fill="midnightblue" stroke="midnightblue" points="423.014,-165.056 433.093,-168.324 427.252,-159.484 423.014,-165.056"/>
</g>
<!-- Node3&#45;&gt;Node5 -->
<g id="edge4" class="edge"><title>Node3&#45;&gt;Node5</title>
<path fill="none" stroke="midnightblue" d="M464.09,-162.101C476.868,-152.382 493.113,-140.027 503.885,-131.834"/>
<polygon fill="midnightblue" stroke="midnightblue" points="461.748,-159.484 455.907,-168.324 465.986,-165.056 461.748,-159.484"/>
</g>
<!-- Node6 -->
<g id="node6" class="node"><title>Node6</title>
<g id="a_node6"><a xlink:href="fplll_8cpp.html" target="_top" xlink:title="fplll/fplll.cpp">
<polygon fill="white" stroke="black" points="780.5,-56.5 780.5,-75.5 848.5,-75.5 848.5,-56.5 780.5,-56.5"/>
<text text-anchor="middle" x="814.5" y="-63.5" font-family="Helvetica,sans-Serif" font-size="10.00">fplll/fplll.cpp</text>
</a>
</g>
</g>
<!-- Node5&#45;&gt;Node6 -->
<g id="edge5" class="edge"><title>Node5&#45;&gt;Node6</title>
<path fill="none" stroke="midnightblue" d="M554.855,-114.488C605.177,-106.069 694.966,-90.732 771.5,-76 774.346,-75.4522 777.295,-74.8687 780.253,-74.2722"/>
<polygon fill="midnightblue" stroke="midnightblue" points="554.022,-111.079 544.735,-116.177 555.174,-117.983 554.022,-111.079"/>
</g>
<!-- Node7 -->
<g id="node7" class="node"><title>Node7</title>
<g id="a_node7"><a xlink:href="main_8h.html" target="_top" xlink:title="fplll/main.h">
<polygon fill="white" stroke="black" points="582.5,-56.5 582.5,-75.5 646.5,-75.5 646.5,-56.5 582.5,-56.5"/>
<text text-anchor="middle" x="614.5" y="-63.5" font-family="Helvetica,sans-Serif" font-size="10.00">fplll/main.h</text>
</a>
</g>
</g>
<!-- Node5&#45;&gt;Node7 -->
<g id="edge6" class="edge"><title>Node5&#45;&gt;Node7</title>
<path fill="none" stroke="midnightblue" d="M540.337,-107.453C558.614,-97.4835 582.916,-84.2279 598.633,-75.6545"/>
<polygon fill="midnightblue" stroke="midnightblue" points="538.509,-104.463 531.406,-112.324 541.861,-110.608 538.509,-104.463"/>
</g>
<!-- Node9 -->
<g id="node9" class="node"><title>Node9</title>
<g id="a_node9"><a xlink:href="test__bkz_8cpp.html" target="_top" xlink:title="tests/test_bkz.cpp">
<polygon fill="white" stroke="black" points="664.5,-56.5 664.5,-75.5 762.5,-75.5 762.5,-56.5 664.5,-56.5"/>
<text text-anchor="middle" x="713.5" y="-63.5" font-family="Helvetica,sans-Serif" font-size="10.00">tests/test_bkz.cpp</text>
</a>
</g>
</g>
<!-- Node5&#45;&gt;Node9 -->
<g id="edge8" class="edge"><title>Node5&#45;&gt;Node9</title>
<path fill="none" stroke="midnightblue" d="M554.747,-110.296C592.139,-100.099 647.699,-84.9458 682.201,-75.536"/>
<polygon fill="midnightblue" stroke="midnightblue" points="553.442,-107.024 544.716,-113.032 555.284,-113.778 553.442,-107.024"/>
</g>
<!-- Node10 -->
<g id="node10" class="node"><title>Node10</title>
<g id="a_node10"><a xlink:href="test__lll_8cpp.html" target="_top" xlink:title="tests/test_lll.cpp">
<polygon fill="white" stroke="black" points="0,-56.5 0,-75.5 89,-75.5 89,-56.5 0,-56.5"/>
<text text-anchor="middle" x="44.5" y="-63.5" font-family="Helvetica,sans-Serif" font-size="10.00">tests/test_lll.cpp</text>
</a>
</g>
</g>
<!-- Node5&#45;&gt;Node10 -->
<g id="edge9" class="edge"><title>Node5&#45;&gt;Node10</title>
<path fill="none" stroke="midnightblue" d="M476.102,-117.512C402.001,-110.782 236.877,-94.9818 98.5,-76 95.4868,-75.5867 92.3832,-75.1361 89.2588,-74.6639"/>
<polygon fill="midnightblue" stroke="midnightblue" points="476.086,-121.025 486.36,-118.438 476.716,-114.053 476.086,-121.025"/>
</g>
<!-- Node11 -->
<g id="node11" class="node"><title>Node11</title>
<g id="a_node11"><a xlink:href="test__nr_8cpp.html" target="_top" xlink:title="tests/test_nr.cpp">
<polygon fill="white" stroke="black" points="107.5,-56.5 107.5,-75.5 197.5,-75.5 197.5,-56.5 107.5,-56.5"/>
<text text-anchor="middle" x="152.5" y="-63.5" font-family="Helvetica,sans-Serif" font-size="10.00">tests/test_nr.cpp</text>
</a>
</g>
</g>
<!-- Node5&#45;&gt;Node11 -->
<g id="edge10" class="edge"><title>Node5&#45;&gt;Node11</title>
<path fill="none" stroke="midnightblue" d="M476.101,-115.526C417.335,-107.302 303.263,-91.1078 206.5,-76 203.589,-75.5455 200.591,-75.0691 197.57,-74.5827"/>
<polygon fill="midnightblue" stroke="midnightblue" points="475.684,-119.002 486.072,-116.92 476.653,-112.069 475.684,-119.002"/>
</g>
<!-- Node12 -->
<g id="node12" class="node"><title>Node12</title>
<g id="a_node12"><a xlink:href="test__pruner_8cpp.html" target="_top" xlink:title="tests/test_pruner.cpp">
<polygon fill="white" stroke="black" points="216,-56.5 216,-75.5 325,-75.5 325,-56.5 216,-56.5"/>
<text text-anchor="middle" x="270.5" y="-63.5" font-family="Helvetica,sans-Serif" font-size="10.00">tests/test_pruner.cpp</text>
</a>
</g>
</g>
<!-- Node5&#45;&gt;Node12 -->
<g id="edge11" class="edge"><title>Node5&#45;&gt;Node12</title>
<path fill="none" stroke="midnightblue" d="M476.564,-112.418C430.695,-102.308 354.958,-85.6153 309.194,-75.5285"/>
<polygon fill="midnightblue" stroke="midnightblue" points="475.914,-115.859 486.433,-114.593 477.421,-109.023 475.914,-115.859"/>
</g>
<!-- Node13 -->
<g id="node13" class="node"><title>Node13</title>
<g id="a_node13"><a xlink:href="test__sieve_8cpp.html" target="_top" xlink:title="tests/test_sieve.cpp">
<polygon fill="white" stroke="black" points="343,-56.5 343,-75.5 448,-75.5 448,-56.5 343,-56.5"/>
<text text-anchor="middle" x="395.5" y="-63.5" font-family="Helvetica,sans-Serif" font-size="10.00">tests/test_sieve.cpp</text>
</a>
</g>
</g>
<!-- Node5&#45;&gt;Node13 -->
<g id="edge12" class="edge"><title>Node5&#45;&gt;Node13</title>
<path fill="none" stroke="midnightblue" d="M487.127,-108.232C464.68,-98.1312 433.965,-84.3091 414.425,-75.5164"/>
<polygon fill="midnightblue" stroke="midnightblue" points="485.93,-111.532 496.486,-112.444 488.803,-105.148 485.93,-111.532"/>
</g>
<!-- Node14 -->
<g id="node14" class="node"><title>Node14</title>
<g id="a_node14"><a xlink:href="test__svp_8cpp.html" target="_top" xlink:title="tests/test_svp.cpp">
<polygon fill="white" stroke="black" points="466.5,-56.5 466.5,-75.5 564.5,-75.5 564.5,-56.5 466.5,-56.5"/>
<text text-anchor="middle" x="515.5" y="-63.5" font-family="Helvetica,sans-Serif" font-size="10.00">tests/test_svp.cpp</text>
</a>
</g>
</g>
<!-- Node5&#45;&gt;Node14 -->
<g id="edge13" class="edge"><title>Node5&#45;&gt;Node14</title>
<path fill="none" stroke="midnightblue" d="M515.5,-101.805C515.5,-92.9102 515.5,-82.7798 515.5,-75.7511"/>
<polygon fill="midnightblue" stroke="midnightblue" points="512,-102.083 515.5,-112.083 519,-102.083 512,-102.083"/>
</g>
<!-- Node8 -->
<g id="node8" class="node"><title>Node8</title>
<g id="a_node8"><a xlink:href="main_8cpp.html" target="_top" xlink:title="fplll/main.cpp">
<polygon fill="white" stroke="black" points="577.5,-0.5 577.5,-19.5 651.5,-19.5 651.5,-0.5 577.5,-0.5"/>
<text text-anchor="middle" x="614.5" y="-7.5" font-family="Helvetica,sans-Serif" font-size="10.00">fplll/main.cpp</text>
</a>
</g>
</g>
<!-- Node7&#45;&gt;Node8 -->
<g id="edge7" class="edge"><title>Node7&#45;&gt;Node8</title>
<path fill="none" stroke="midnightblue" d="M614.5,-45.8045C614.5,-36.9102 614.5,-26.7798 614.5,-19.7511"/>
<polygon fill="midnightblue" stroke="midnightblue" points="611,-46.083 614.5,-56.083 618,-46.083 611,-46.083"/>
</g>
<!-- Node15&#45;&gt;Node3 -->
<g id="edge15" class="edge"><title>Node15&#45;&gt;Node3</title>
<path fill="none" stroke="midnightblue" d="M360.505,-219.862C381.088,-209.849 408.845,-196.346 426.71,-187.655"/>
<polygon fill="midnightblue" stroke="midnightblue" points="358.795,-216.802 351.334,-224.324 361.858,-223.097 358.795,-216.802"/>
</g>
<!-- Node15&#45;&gt;Node4 -->
<g id="edge16" class="edge"><title>Node15&#45;&gt;Node4</title>
<path fill="none" stroke="midnightblue" d="M300.665,-220.154C275.427,-208.274 247.117,-189.279 261.5,-168 278.691,-142.566 312.885,-131.505 338.992,-126.696"/>
<polygon fill="midnightblue" stroke="midnightblue" points="299.533,-223.481 310.092,-224.349 302.379,-217.086 299.533,-223.481"/>
</g>
<!-- Node16 -->
<g id="node16" class="node"><title>Node16</title>
<g id="a_node16"><a xlink:href="enumerate_8cpp.html" target="_top" xlink:title="fplll/enum/enumerate.cpp">
<polygon fill="white" stroke="black" points="270.5,-168.5 270.5,-187.5 396.5,-187.5 396.5,-168.5 270.5,-168.5"/>
<text text-anchor="middle" x="333.5" y="-175.5" font-family="Helvetica,sans-Serif" font-size="10.00">fplll/enum/enumerate.cpp</text>
</a>
</g>
</g>
<!-- Node15&#45;&gt;Node16 -->
<g id="edge17" class="edge"><title>Node15&#45;&gt;Node16</title>
<path fill="none" stroke="midnightblue" d="M333.5,-213.805C333.5,-204.91 333.5,-194.78 333.5,-187.751"/>
<polygon fill="midnightblue" stroke="midnightblue" points="330,-214.083 333.5,-224.083 337,-214.083 330,-214.083"/>
</g>
<!-- Node17 -->
<g id="node17" class="node"><title>Node17</title>
<g id="a_node17"><a xlink:href="svpcvp_8cpp.html" target="_top" xlink:title="fplll/svpcvp.cpp">
<polygon fill="white" stroke="black" points="688,-168.5 688,-187.5 773,-187.5 773,-168.5 688,-168.5"/>
<text text-anchor="middle" x="730.5" y="-175.5" font-family="Helvetica,sans-Serif" font-size="10.00">fplll/svpcvp.cpp</text>
</a>
</g>
</g>
<!-- Node15&#45;&gt;Node17 -->
<g id="edge18" class="edge"><title>Node15&#45;&gt;Node17</title>
<path fill="none" stroke="midnightblue" d="M401.636,-223.732C483.721,-212.567 619.124,-194.149 687.763,-184.813"/>
<polygon fill="midnightblue" stroke="midnightblue" points="401.089,-220.274 391.652,-225.09 402.033,-227.21 401.089,-220.274"/>
</g>
<!-- Node17&#45;&gt;Node6 -->
<g id="edge19" class="edge"><title>Node17&#45;&gt;Node6</title>
<path fill="none" stroke="midnightblue" d="M743.274,-160.272C761.432,-136.494 794.043,-93.7889 807.939,-75.5914"/>
<polygon fill="midnightblue" stroke="midnightblue" points="740.379,-158.297 737.091,-168.368 745.942,-162.545 740.379,-158.297"/>
</g>
<!-- Node19&#45;&gt;Node17 -->
<g id="edge23" class="edge"><title>Node19&#45;&gt;Node17</title>
<path fill="none" stroke="midnightblue" d="M790.107,-277.591C823.605,-267.123 859.65,-249.373 842.5,-224 827.069,-201.17 797.939,-189.92 773.255,-184.378"/>
<polygon fill="midnightblue" stroke="midnightblue" points="788.917,-274.292 780.315,-280.478 790.897,-281.007 788.917,-274.292"/>
</g>
<!-- Node20 -->
<g id="node20" class="node"><title>Node20</title>
<g id="a_node20"><a xlink:href="topenum_8cpp.html" target="_top" xlink:title="fplll/enum/topenum.cpp">
<polygon fill="white" stroke="black" points="715.5,-224.5 715.5,-243.5 833.5,-243.5 833.5,-224.5 715.5,-224.5"/>
<text text-anchor="middle" x="774.5" y="-231.5" font-family="Helvetica,sans-Serif" font-size="10.00">fplll/enum/topenum.cpp</text>
</a>
</g>
</g>
<!-- Node19&#45;&gt;Node20 -->
<g id="edge22" class="edge"><title>Node19&#45;&gt;Node20</title>
<path fill="none" stroke="midnightblue" d="M753.004,-271.275C758.473,-262.045 764.918,-251.17 769.314,-243.751"/>
<polygon fill="midnightblue" stroke="midnightblue" points="749.871,-269.696 747.784,-280.083 755.893,-273.264 749.871,-269.696"/>
</g>
<!-- Node21&#45;&gt;Node5 -->
<g id="edge26" class="edge"><title>Node21&#45;&gt;Node5</title>
<path fill="none" stroke="midnightblue" d="M650.05,-215.578C640.811,-201.331 626.228,-181.417 609.5,-168 588.893,-151.472 561.217,-139.16 541.237,-131.631"/>
<polygon fill="midnightblue" stroke="midnightblue" points="647.286,-217.759 655.552,-224.386 653.222,-214.05 647.286,-217.759"/>
</g>
<!-- Node21&#45;&gt;Node17 -->
<g id="edge27" class="edge"><title>Node21&#45;&gt;Node17</title>
<path fill="none" stroke="midnightblue" d="M679.814,-218.101C692.412,-208.382 708.428,-196.027 719.049,-187.834"/>
<polygon fill="midnightblue" stroke="midnightblue" points="677.527,-215.445 671.747,-224.324 681.802,-220.987 677.527,-215.445"/>
</g>
</g>
</svg>
