<?xml version="1.0" encoding="UTF-8" standalone="no"?>
<!DOCTYPE svg PUBLIC "-//W3C//DTD SVG 1.1//EN"
 "http://www.w3.org/Graphics/SVG/1.1/DTD/svg11.dtd">
<!-- Generated by graphviz version 2.40.1 (20161225.0304)
 -->
<!-- Title: fplll/util.h Pages: 1 -->
<svg width="1129pt" height="442pt"
 viewBox="0.00 0.00 1129.00 442.00" xmlns="http://www.w3.org/2000/svg" xmlns:xlink="http://www.w3.org/1999/xlink">
<g id="graph0" class="graph" transform="scale(1 1) rotate(0) translate(4 438)">
<title>fplll/util.h</title>
<polygon fill="#ffffff" stroke="transparent" points="-4,4 -4,-438 1125,-438 1125,4 -4,4"/>
<!-- Node0 -->
<g id="node1" class="node">
<title>Node0</title>
<polygon fill="#bfbfbf" stroke="#000000" points="600,-414.5 600,-433.5 656,-433.5 656,-414.5 600,-414.5"/>
<text text-anchor="middle" x="628" y="-421.5" font-family="Helvetica,sans-Serif" font-size="10.00" fill="#000000">fplll/util.h</text>
</g>
<!-- Node1 -->
<g id="node2" class="node">
<title>Node1</title>
<g id="a_node2"><a xlink:href="evaluator_8h.html" target="_top" xlink:title="fplll/enum/evaluator.h">
<polygon fill="#ffffff" stroke="#000000" points="197,-358.5 197,-377.5 307,-377.5 307,-358.5 197,-358.5"/>
<text text-anchor="middle" x="252" y="-365.5" font-family="Helvetica,sans-Serif" font-size="10.00" fill="#000000">fplll/enum/evaluator.h</text>
</a>
</g>
</g>
<!-- Node0&#45;&gt;Node1 -->
<g id="edge1" class="edge">
<title>Node0&#45;&gt;Node1</title>
<path fill="none" stroke="#191970" d="M589.6275,-418.2849C522.6789,-408.3139 384.3211,-387.7074 307.122,-376.2097"/>
<polygon fill="#191970" stroke="#191970" points="589.3324,-421.7795 599.7389,-419.7909 590.3636,-414.8559 589.3324,-421.7795"/>
</g>
<!-- Node5 -->
<g id="node6" class="node">
<title>Node5</title>
<g id="a_node6"><a xlink:href="bkz_8cpp.html" target="_top" xlink:title="fplll/bkz.cpp">
<polygon fill="#ffffff" stroke="#000000" points="9.5,-112.5 9.5,-131.5 78.5,-131.5 78.5,-112.5 9.5,-112.5"/>
<text text-anchor="middle" x="44" y="-119.5" font-family="Helvetica,sans-Serif" font-size="10.00" fill="#000000">fplll/bkz.cpp</text>
</a>
</g>
</g>
<!-- Node0&#45;&gt;Node5 -->
<g id="edge35" class="edge">
<title>Node0&#45;&gt;Node5</title>
<path fill="none" stroke="#191970" d="M589.5809,-423.3142C512.4266,-421.2111 333.5729,-412.6684 188,-378 101.0377,-357.2898 0,-395.8944 0,-306.5 0,-306.5 0,-306.5 0,-239.5 0,-197.0238 25.5295,-151.0821 37.6959,-131.5998"/>
<polygon fill="#191970" stroke="#191970" points="589.694,-426.818 599.7787,-423.5703 589.8698,-419.8203 589.694,-426.818"/>
</g>
<!-- Node6 -->
<g id="node7" class="node">
<title>Node6</title>
<g id="a_node7"><a xlink:href="fplll_8h.html" target="_top" xlink:title="fplll/fplll.h">
<polygon fill="#ffffff" stroke="#000000" points="535,-112.5 535,-131.5 593,-131.5 593,-112.5 535,-112.5"/>
<text text-anchor="middle" x="564" y="-119.5" font-family="Helvetica,sans-Serif" font-size="10.00" fill="#000000">fplll/fplll.h</text>
</a>
</g>
</g>
<!-- Node0&#45;&gt;Node6 -->
<g id="edge42" class="edge">
<title>Node0&#45;&gt;Node6</title>
<path fill="none" stroke="#191970" d="M617.837,-405.1071C606.5805,-382.3819 590,-342.7546 590,-306.5 590,-306.5 590,-306.5 590,-239.5 590,-198.5502 574.7593,-151.4284 567.6152,-131.5896"/>
<polygon fill="#191970" stroke="#191970" points="614.8708,-406.9927 622.5555,-414.2863 621.0965,-403.7924 614.8708,-406.9927"/>
</g>
<!-- Node25 -->
<g id="node26" class="node">
<title>Node25</title>
<g id="a_node26"><a xlink:href="topenum_8h.html" target="_top" xlink:title="fplll/enum/topenum.h">
<polygon fill="#ffffff" stroke="#000000" points="411.5,-358.5 411.5,-377.5 518.5,-377.5 518.5,-358.5 411.5,-358.5"/>
<text text-anchor="middle" x="465" y="-365.5" font-family="Helvetica,sans-Serif" font-size="10.00" fill="#000000">fplll/enum/topenum.h</text>
</a>
</g>
</g>
<!-- Node0&#45;&gt;Node25 -->
<g id="edge36" class="edge">
<title>Node0&#45;&gt;Node25</title>
<path fill="none" stroke="#191970" d="M590.3267,-411.057C560.4958,-400.8084 519.5148,-386.729 492.6551,-377.5011"/>
<polygon fill="#191970" stroke="#191970" points="589.3846,-414.4341 599.9793,-414.3733 591.6591,-407.8139 589.3846,-414.4341"/>
</g>
<!-- Node27 -->
<g id="node28" class="node">
<title>Node27</title>
<g id="a_node28"><a xlink:href="svpcvp_8h.html" target="_top" xlink:title="fplll/svpcvp.h">
<polygon fill="#ffffff" stroke="#000000" points="488,-230 488,-249 562,-249 562,-230 488,-230"/>
<text text-anchor="middle" x="525" y="-237" font-family="Helvetica,sans-Serif" font-size="10.00" fill="#000000">fplll/svpcvp.h</text>
</a>
</g>
</g>
<!-- Node0&#45;&gt;Node27 -->
<g id="edge39" class="edge">
<title>Node0&#45;&gt;Node27</title>
<path fill="none" stroke="#191970" d="M605.3362,-408.0526C595.2338,-400.0009 583.8655,-389.5047 576,-378 546.6432,-335.0603 531.7757,-273.1316 526.8779,-249.3297"/>
<polygon fill="#191970" stroke="#191970" points="603.3437,-410.9346 613.4197,-414.2095 607.5852,-405.3659 603.3437,-410.9346"/>
</g>
<!-- Node28 -->
<g id="node29" class="node">
<title>Node28</title>
<g id="a_node29"><a xlink:href="latticegen_8cpp.html" target="_top" xlink:title="fplll/latticegen.cpp">
<polygon fill="#ffffff" stroke="#000000" points="618.5,-358.5 618.5,-377.5 713.5,-377.5 713.5,-358.5 618.5,-358.5"/>
<text text-anchor="middle" x="666" y="-365.5" font-family="Helvetica,sans-Serif" font-size="10.00" fill="#000000">fplll/latticegen.cpp</text>
</a>
</g>
</g>
<!-- Node0&#45;&gt;Node28 -->
<g id="edge43" class="edge">
<title>Node0&#45;&gt;Node28</title>
<path fill="none" stroke="#191970" d="M640.2679,-405.9209C646.6488,-396.5176 654.1931,-385.3997 659.4568,-377.6427"/>
<polygon fill="#191970" stroke="#191970" points="637.338,-404.0055 634.6191,-414.2455 643.1303,-407.936 637.338,-404.0055"/>
</g>
<!-- Node29 -->
<g id="node30" class="node">
<title>Node29</title>
<g id="a_node30"><a xlink:href="lll_8cpp.html" target="_top" xlink:title="fplll/lll.cpp">
<polygon fill="#ffffff" stroke="#000000" points="732,-358.5 732,-377.5 792,-377.5 792,-358.5 732,-358.5"/>
<text text-anchor="middle" x="762" y="-365.5" font-family="Helvetica,sans-Serif" font-size="10.00" fill="#000000">fplll/lll.cpp</text>
</a>
</g>
</g>
<!-- Node0&#45;&gt;Node29 -->
<g id="edge44" class="edge">
<title>Node0&#45;&gt;Node29</title>
<path fill="none" stroke="#191970" d="M660.5828,-410.3833C684.9536,-400.1985 717.6642,-386.5284 739.2652,-377.5011"/>
<polygon fill="#191970" stroke="#191970" points="658.9125,-407.2879 651.0354,-414.3733 661.6117,-413.7466 658.9125,-407.2879"/>
</g>
<!-- Node30 -->
<g id="node31" class="node">
<title>Node30</title>
<g id="a_node31"><a xlink:href="llldiff_8cpp.html" target="_top" xlink:title="fplll/llldiff.cpp">
<polygon fill="#ffffff" stroke="#000000" points="810,-358.5 810,-377.5 884,-377.5 884,-358.5 810,-358.5"/>
<text text-anchor="middle" x="847" y="-365.5" font-family="Helvetica,sans-Serif" font-size="10.00" fill="#000000">fplll/llldiff.cpp</text>
</a>
</g>
</g>
<!-- Node0&#45;&gt;Node30 -->
<g id="edge45" class="edge">
<title>Node0&#45;&gt;Node30</title>
<path fill="none" stroke="#191970" d="M665.9147,-414.3049C706.2638,-403.9873 769.6967,-387.767 809.7789,-377.5177"/>
<polygon fill="#191970" stroke="#191970" points="665.0033,-410.9253 656.1821,-416.7936 666.7375,-417.7071 665.0033,-410.9253"/>
</g>
<!-- Node31 -->
<g id="node32" class="node">
<title>Node31</title>
<g id="a_node32"><a xlink:href="util_8cpp.html" target="_top" xlink:title="fplll/util.cpp">
<polygon fill="#ffffff" stroke="#000000" points="902,-358.5 902,-377.5 968,-377.5 968,-358.5 902,-358.5"/>
<text text-anchor="middle" x="935" y="-365.5" font-family="Helvetica,sans-Serif" font-size="10.00" fill="#000000">fplll/util.cpp</text>
</a>
</g>
</g>
<!-- Node0&#45;&gt;Node31 -->
<g id="edge46" class="edge">
<title>Node0&#45;&gt;Node31</title>
<path fill="none" stroke="#191970" d="M666.3943,-418.0997C718.0662,-409.9848 812.7688,-394.4983 893,-378 895.7899,-377.4263 898.677,-376.8026 901.5709,-376.1563"/>
<polygon fill="#191970" stroke="#191970" points="665.6859,-414.6679 656.3462,-419.6699 666.7667,-421.5839 665.6859,-414.6679"/>
</g>
<!-- Node32 -->
<g id="node33" class="node">
<title>Node32</title>
<g id="a_node33"><a xlink:href="wrapper_8cpp.html" target="_top" xlink:title="fplll/wrapper.cpp">
<polygon fill="#ffffff" stroke="#000000" points="986,-358.5 986,-377.5 1074,-377.5 1074,-358.5 986,-358.5"/>
<text text-anchor="middle" x="1030" y="-365.5" font-family="Helvetica,sans-Serif" font-size="10.00" fill="#000000">fplll/wrapper.cpp</text>
</a>
</g>
</g>
<!-- Node0&#45;&gt;Node32 -->
<g id="edge47" class="edge">
<title>Node0&#45;&gt;Node32</title>
<path fill="none" stroke="#191970" d="M666.2012,-419.6676C730.5055,-412.2175 864.3881,-396.031 977,-378 979.8663,-377.5411 982.8155,-377.0466 985.7856,-376.5321"/>
<polygon fill="#191970" stroke="#191970" points="665.6576,-416.207 656.1243,-420.8294 666.4594,-423.1609 665.6576,-416.207"/>
</g>
<!-- Node2 -->
<g id="node3" class="node">
<title>Node2</title>
<g id="a_node3"><a xlink:href="enumerate__ext_8h.html" target="_top" xlink:title="fplll/enum/enumerate\l_ext.h">
<polygon fill="#ffffff" stroke="#000000" points="66.5,-291.5 66.5,-321.5 173.5,-321.5 173.5,-291.5 66.5,-291.5"/>
<text text-anchor="start" x="74.5" y="-309.5" font-family="Helvetica,sans-Serif" font-size="10.00" fill="#000000">fplll/enum/enumerate</text>
<text text-anchor="middle" x="120" y="-298.5" font-family="Helvetica,sans-Serif" font-size="10.00" fill="#000000">_ext.h</text>
</a>
</g>
</g>
<!-- Node1&#45;&gt;Node2 -->
<g id="edge2" class="edge">
<title>Node1&#45;&gt;Node2</title>
<path fill="none" stroke="#191970" d="M222.0665,-354.0537C201.2714,-344.3651 173.5822,-331.4644 152.2908,-321.5446"/>
<polygon fill="#191970" stroke="#191970" points="220.8324,-357.3399 231.375,-358.3906 223.7887,-350.9948 220.8324,-357.3399"/>
</g>
<!-- Node3 -->
<g id="node4" class="node">
<title>Node3</title>
<g id="a_node4"><a xlink:href="enumerate_8h.html" target="_top" xlink:title="fplll/enum/enumerate.h">
<polygon fill="#ffffff" stroke="#000000" points="62,-230 62,-249 178,-249 178,-230 62,-230"/>
<text text-anchor="middle" x="120" y="-237" font-family="Helvetica,sans-Serif" font-size="10.00" fill="#000000">fplll/enum/enumerate.h</text>
</a>
</g>
</g>
<!-- Node1&#45;&gt;Node3 -->
<g id="edge32" class="edge">
<title>Node1&#45;&gt;Node3</title>
<path fill="none" stroke="#191970" d="M186.4571,-361.2248C136.2918,-354.5273 73.0564,-342.2848 57,-322 36.4196,-295.9999 77.9694,-264.7553 102.9691,-249.2369"/>
<polygon fill="#191970" stroke="#191970" points="186.2549,-364.7275 196.6195,-362.5309 187.1473,-357.7846 186.2549,-364.7275"/>
</g>
<!-- Node4 -->
<g id="node5" class="node">
<title>Node4</title>
<g id="a_node5"><a xlink:href="bkz_8h.html" target="_top" xlink:title="fplll/bkz.h">
<polygon fill="#ffffff" stroke="#000000" points="240.5,-168.5 240.5,-187.5 299.5,-187.5 299.5,-168.5 240.5,-168.5"/>
<text text-anchor="middle" x="270" y="-175.5" font-family="Helvetica,sans-Serif" font-size="10.00" fill="#000000">fplll/bkz.h</text>
</a>
</g>
</g>
<!-- Node1&#45;&gt;Node4 -->
<g id="edge33" class="edge">
<title>Node1&#45;&gt;Node4</title>
<path fill="none" stroke="#191970" d="M286.551,-353.742C299.8151,-346.3601 313.5485,-335.9233 321,-322 330.4102,-304.4169 318.6865,-238.3235 312,-224 305.1384,-209.3014 291.8982,-196.0349 282.11,-187.5686"/>
<polygon fill="#191970" stroke="#191970" points="284.8274,-350.6925 277.5262,-358.3698 288.0215,-356.9213 284.8274,-350.6925"/>
</g>
<!-- Node24 -->
<g id="node25" class="node">
<title>Node24</title>
<g id="a_node25"><a xlink:href="evaluator_8cpp.html" target="_top" xlink:title="fplll/enum/evaluator.cpp">
<polygon fill="#ffffff" stroke="#000000" points="192,-297 192,-316 312,-316 312,-297 192,-297"/>
<text text-anchor="middle" x="252" y="-304" font-family="Helvetica,sans-Serif" font-size="10.00" fill="#000000">fplll/enum/evaluator.cpp</text>
</a>
</g>
</g>
<!-- Node1&#45;&gt;Node24 -->
<g id="edge34" class="edge">
<title>Node1&#45;&gt;Node24</title>
<path fill="none" stroke="#191970" d="M252,-348.2462C252,-337.5519 252,-324.814 252,-316.2449"/>
<polygon fill="#191970" stroke="#191970" points="248.5001,-348.3906 252,-358.3906 255.5001,-348.3907 248.5001,-348.3906"/>
</g>
<!-- Node2&#45;&gt;Node3 -->
<g id="edge3" class="edge">
<title>Node2&#45;&gt;Node3</title>
<path fill="none" stroke="#191970" d="M120,-281.1199C120,-269.9072 120,-257.4031 120,-249.055"/>
<polygon fill="#191970" stroke="#191970" points="116.5001,-281.2966 120,-291.2967 123.5001,-281.2967 116.5001,-281.2966"/>
</g>
<!-- Node23 -->
<g id="node24" class="node">
<title>Node23</title>
<g id="a_node24"><a xlink:href="enumerate__ext_8cpp.html" target="_top" xlink:title="fplll/enum/enumerate\l_ext.cpp">
<polygon fill="#ffffff" stroke="#000000" points="196.5,-224.5 196.5,-254.5 303.5,-254.5 303.5,-224.5 196.5,-224.5"/>
<text text-anchor="start" x="204.5" y="-242.5" font-family="Helvetica,sans-Serif" font-size="10.00" fill="#000000">fplll/enum/enumerate</text>
<text text-anchor="middle" x="250" y="-231.5" font-family="Helvetica,sans-Serif" font-size="10.00" fill="#000000">_ext.cpp</text>
</a>
</g>
</g>
<!-- Node2&#45;&gt;Node23 -->
<g id="edge31" class="edge">
<title>Node2&#45;&gt;Node23</title>
<path fill="none" stroke="#191970" d="M158.2738,-286.7743C178.144,-276.5335 202.0491,-264.2132 220.473,-254.7177"/>
<polygon fill="#191970" stroke="#191970" points="156.46,-283.7715 149.1745,-291.4639 159.6669,-289.9938 156.46,-283.7715"/>
</g>
<!-- Node3&#45;&gt;Node4 -->
<g id="edge4" class="edge">
<title>Node3&#45;&gt;Node4</title>
<path fill="none" stroke="#191970" d="M152.9377,-225.9955C181.322,-214.358 221.585,-197.8501 246.7271,-187.5419"/>
<polygon fill="#191970" stroke="#191970" points="151.3623,-222.8586 143.4375,-229.8906 154.0178,-229.3354 151.3623,-222.8586"/>
</g>
<!-- Node3&#45;&gt;Node5 -->
<g id="edge27" class="edge">
<title>Node3&#45;&gt;Node5</title>
<path fill="none" stroke="#191970" d="M97.3569,-223.8929C85.566,-214.6955 71.8102,-202.1097 63,-188 51.7589,-169.9972 46.9642,-145.1212 45.086,-131.6337"/>
<polygon fill="#191970" stroke="#191970" points="95.3881,-226.7908 105.4965,-229.9646 99.5736,-221.1799 95.3881,-226.7908"/>
</g>
<!-- Node21 -->
<g id="node22" class="node">
<title>Node21</title>
<g id="a_node22"><a xlink:href="enumerate_8cpp.html" target="_top" xlink:title="fplll/enum/enumerate.cpp">
<polygon fill="#ffffff" stroke="#000000" points="72,-168.5 72,-187.5 198,-187.5 198,-168.5 72,-168.5"/>
<text text-anchor="middle" x="135" y="-175.5" font-family="Helvetica,sans-Serif" font-size="10.00" fill="#000000">fplll/enum/enumerate.cpp</text>
</a>
</g>
</g>
<!-- Node3&#45;&gt;Node21 -->
<g id="edge28" class="edge">
<title>Node3&#45;&gt;Node21</title>
<path fill="none" stroke="#191970" d="M124.7358,-220.0832C127.3608,-209.3205 130.5112,-196.4042 132.6232,-187.7449"/>
<polygon fill="#191970" stroke="#191970" points="121.3131,-219.346 122.3438,-229.8906 128.1137,-221.0048 121.3131,-219.346"/>
</g>
<!-- Node22 -->
<g id="node23" class="node">
<title>Node22</title>
<g id="a_node23"><a xlink:href="svpcvp_8cpp.html" target="_top" xlink:title="fplll/svpcvp.cpp">
<polygon fill="#ffffff" stroke="#000000" points="323.5,-168.5 323.5,-187.5 408.5,-187.5 408.5,-168.5 323.5,-168.5"/>
<text text-anchor="middle" x="366" y="-175.5" font-family="Helvetica,sans-Serif" font-size="10.00" fill="#000000">fplll/svpcvp.cpp</text>
</a>
</g>
</g>
<!-- Node3&#45;&gt;Node22 -->
<g id="edge29" class="edge">
<title>Node3&#45;&gt;Node22</title>
<path fill="none" stroke="#191970" d="M168.0486,-227.4878C214.7354,-215.8162 284.706,-198.3235 327.7429,-187.5643"/>
<polygon fill="#191970" stroke="#191970" points="167.0201,-224.1372 158.1676,-229.9581 168.7179,-230.9282 167.0201,-224.1372"/>
</g>
<!-- Node4&#45;&gt;Node5 -->
<g id="edge5" class="edge">
<title>Node4&#45;&gt;Node5</title>
<path fill="none" stroke="#191970" d="M230.646,-168.2486C187.7398,-157.6169 119.7366,-140.7666 78.7401,-130.6082"/>
<polygon fill="#191970" stroke="#191970" points="229.9062,-171.671 240.4544,-170.679 231.5898,-164.8765 229.9062,-171.671"/>
</g>
<!-- Node4&#45;&gt;Node6 -->
<g id="edge6" class="edge">
<title>Node4&#45;&gt;Node6</title>
<path fill="none" stroke="#191970" d="M309.9021,-169.0536C311.6236,-168.6927 313.3286,-168.34 315,-168 394.2644,-151.8767 488.22,-135.167 534.8001,-127.0431"/>
<polygon fill="#191970" stroke="#191970" points="309.0275,-165.6615 299.9831,-171.1795 310.4945,-172.506 309.0275,-165.6615"/>
</g>
<!-- Node7 -->
<g id="node8" class="node">
<title>Node7</title>
<g id="a_node8"><a xlink:href="fplll_8cpp.html" target="_top" xlink:title="fplll/fplll.cpp">
<polygon fill="#ffffff" stroke="#000000" points="246,-56.5 246,-75.5 314,-75.5 314,-56.5 246,-56.5"/>
<text text-anchor="middle" x="280" y="-63.5" font-family="Helvetica,sans-Serif" font-size="10.00" fill="#000000">fplll/fplll.cpp</text>
</a>
</g>
</g>
<!-- Node6&#45;&gt;Node7 -->
<g id="edge7" class="edge">
<title>Node6&#45;&gt;Node7</title>
<path fill="none" stroke="#191970" d="M524.8859,-114.5361C478.0478,-105.5612 397.2377,-89.9594 328,-76 323.494,-75.0915 318.7533,-74.1214 314.0773,-73.156"/>
<polygon fill="#191970" stroke="#191970" points="524.4307,-118.0124 534.9104,-116.4551 525.7469,-111.1372 524.4307,-118.0124"/>
</g>
<!-- Node8 -->
<g id="node9" class="node">
<title>Node8</title>
<g id="a_node9"><a xlink:href="main_8h.html" target="_top" xlink:title="fplll/main.h">
<polygon fill="#ffffff" stroke="#000000" points="1052,-56.5 1052,-75.5 1116,-75.5 1116,-56.5 1052,-56.5"/>
<text text-anchor="middle" x="1084" y="-63.5" font-family="Helvetica,sans-Serif" font-size="10.00" fill="#000000">fplll/main.h</text>
</a>
</g>
</g>
<!-- Node6&#45;&gt;Node8 -->
<g id="edge8" class="edge">
<title>Node6&#45;&gt;Node8</title>
<path fill="none" stroke="#191970" d="M603.2026,-120.1439C685.2823,-115.8397 881.0285,-103.3845 1043,-76 1045.8897,-75.5114 1048.8773,-74.9314 1051.8617,-74.3004"/>
<polygon fill="#191970" stroke="#191970" points="602.8843,-116.6556 593.0769,-120.6635 603.2431,-123.6464 602.8843,-116.6556"/>
</g>
<!-- Node10 -->
<g id="node11" class="node">
<title>Node10</title>
<g id="a_node11"><a xlink:href="sieve__main_8cpp.html" target="_top" xlink:title="fplll/sieve/sieve_main.cpp">
<polygon fill="#ffffff" stroke="#000000" points="904.5,-56.5 904.5,-75.5 1033.5,-75.5 1033.5,-56.5 904.5,-56.5"/>
<text text-anchor="middle" x="969" y="-63.5" font-family="Helvetica,sans-Serif" font-size="10.00" fill="#000000">fplll/sieve/sieve_main.cpp</text>
</a>
</g>
</g>
<!-- Node6&#45;&gt;Node10 -->
<g id="edge10" class="edge">
<title>Node6&#45;&gt;Node10</title>
<path fill="none" stroke="#191970" d="M603.254,-116.5723C673.0658,-106.9193 819.4302,-86.6813 904.3156,-74.944"/>
<polygon fill="#191970" stroke="#191970" points="602.5529,-113.1358 593.1266,-117.9726 603.5118,-120.0699 602.5529,-113.1358"/>
</g>
<!-- Node11 -->
<g id="node12" class="node">
<title>Node11</title>
<g id="a_node12"><a xlink:href="test__bkz_8cpp.html" target="_top" xlink:title="tests/test_bkz.cpp">
<polygon fill="#ffffff" stroke="#000000" points="827,-.5 827,-19.5 925,-19.5 925,-.5 827,-.5"/>
<text text-anchor="middle" x="876" y="-7.5" font-family="Helvetica,sans-Serif" font-size="10.00" fill="#000000">tests/test_bkz.cpp</text>
</a>
</g>
</g>
<!-- Node6&#45;&gt;Node11 -->
<g id="edge11" class="edge">
<title>Node6&#45;&gt;Node11</title>
<path fill="none" stroke="#191970" d="M603.7376,-120.9107C674.8959,-118.1487 820.0959,-108.5711 857,-76 873.2704,-61.6399 876.0095,-34.3396 876.2336,-19.7564"/>
<polygon fill="#191970" stroke="#191970" points="603.2561,-117.4257 593.389,-121.2843 603.5088,-124.4211 603.2561,-117.4257"/>
</g>
<!-- Node12 -->
<g id="node13" class="node">
<title>Node12</title>
<g id="a_node13"><a xlink:href="test__cvp_8cpp.html" target="_top" xlink:title="tests/test_cvp.cpp">
<polygon fill="#ffffff" stroke="#000000" points="114,-.5 114,-19.5 212,-19.5 212,-.5 114,-.5"/>
<text text-anchor="middle" x="163" y="-7.5" font-family="Helvetica,sans-Serif" font-size="10.00" fill="#000000">tests/test_cvp.cpp</text>
</a>
</g>
</g>
<!-- Node6&#45;&gt;Node12 -->
<g id="edge12" class="edge">
<title>Node6&#45;&gt;Node12</title>
<path fill="none" stroke="#191970" d="M524.8456,-115.7207C483.9756,-108.5392 418.3839,-95.2349 364,-76 344.8857,-69.2395 341.9253,-63.2729 323,-56 283.2055,-40.7071 236.1521,-27.766 203.4153,-19.5436"/>
<polygon fill="#191970" stroke="#191970" points="524.4842,-119.2099 534.933,-117.4568 525.6716,-112.3113 524.4842,-119.2099"/>
</g>
<!-- Node13 -->
<g id="node14" class="node">
<title>Node13</title>
<g id="a_node14"><a xlink:href="test__lll_8cpp.html" target="_top" xlink:title="tests/test_lll.cpp">
<polygon fill="#ffffff" stroke="#000000" points="230.5,-.5 230.5,-19.5 319.5,-19.5 319.5,-.5 230.5,-.5"/>
<text text-anchor="middle" x="275" y="-7.5" font-family="Helvetica,sans-Serif" font-size="10.00" fill="#000000">tests/test_lll.cpp</text>
</a>
</g>
</g>
<!-- Node6&#45;&gt;Node13 -->
<g id="edge13" class="edge">
<title>Node6&#45;&gt;Node13</title>
<path fill="none" stroke="#191970" d="M525.2356,-111.5208C495.0873,-102.9959 452.4054,-90.1022 416,-76 370.886,-58.5244 319.9253,-33.2195 293.3506,-19.578"/>
<polygon fill="#191970" stroke="#191970" points="524.3789,-114.9154 534.9521,-114.2397 526.2653,-108.1744 524.3789,-114.9154"/>
</g>
<!-- Node14 -->
<g id="node15" class="node">
<title>Node14</title>
<g id="a_node15"><a xlink:href="test__lll__gram_8cpp.html" target="_top" xlink:title="tests/test_lll_gram.cpp">
<polygon fill="#ffffff" stroke="#000000" points="337,-.5 337,-19.5 453,-19.5 453,-.5 337,-.5"/>
<text text-anchor="middle" x="395" y="-7.5" font-family="Helvetica,sans-Serif" font-size="10.00" fill="#000000">tests/test_lll_gram.cpp</text>
</a>
</g>
</g>
<!-- Node6&#45;&gt;Node14 -->
<g id="edge14" class="edge">
<title>Node6&#45;&gt;Node14</title>
<path fill="none" stroke="#191970" d="M525.102,-114.611C498.4148,-108.0109 463.3766,-96.1751 438,-76 418.7313,-60.6809 405.3007,-34.2749 399.0245,-19.9465"/>
<polygon fill="#191970" stroke="#191970" points="524.3502,-118.0295 534.8837,-116.8907 525.9391,-111.2122 524.3502,-118.0295"/>
</g>
<!-- Node15 -->
<g id="node16" class="node">
<title>Node15</title>
<g id="a_node16"><a xlink:href="test__nr_8cpp.html" target="_top" xlink:title="tests/test_nr.cpp">
<polygon fill="#ffffff" stroke="#000000" points="630,-56.5 630,-75.5 720,-75.5 720,-56.5 630,-56.5"/>
<text text-anchor="middle" x="675" y="-63.5" font-family="Helvetica,sans-Serif" font-size="10.00" fill="#000000">tests/test_nr.cpp</text>
</a>
</g>
</g>
<!-- Node6&#45;&gt;Node15 -->
<g id="edge15" class="edge">
<title>Node6&#45;&gt;Node15</title>
<path fill="none" stroke="#191970" d="M592.0734,-107.8368C612.1385,-97.7139 638.5922,-84.3679 656.1674,-75.5011"/>
<polygon fill="#191970" stroke="#191970" points="590.4332,-104.7441 583.0816,-112.3733 593.5862,-110.9938 590.4332,-104.7441"/>
</g>
<!-- Node16 -->
<g id="node17" class="node">
<title>Node16</title>
<g id="a_node17"><a xlink:href="test__pruner_8cpp.html" target="_top" xlink:title="tests/test_pruner.cpp">
<polygon fill="#ffffff" stroke="#000000" points="738.5,-56.5 738.5,-75.5 847.5,-75.5 847.5,-56.5 738.5,-56.5"/>
<text text-anchor="middle" x="793" y="-63.5" font-family="Helvetica,sans-Serif" font-size="10.00" fill="#000000">tests/test_pruner.cpp</text>
</a>
</g>
</g>
<!-- Node6&#45;&gt;Node16 -->
<g id="edge16" class="edge">
<title>Node6&#45;&gt;Node16</title>
<path fill="none" stroke="#191970" d="M602.8845,-112.4911C644.9773,-102.1977 711.7285,-85.8742 753.9038,-75.5606"/>
<polygon fill="#191970" stroke="#191970" points="601.8854,-109.1322 593.003,-114.9076 603.5482,-115.9319 601.8854,-109.1322"/>
</g>
<!-- Node17 -->
<g id="node18" class="node">
<title>Node17</title>
<g id="a_node18"><a xlink:href="test__sieve_8cpp.html" target="_top" xlink:title="tests/test_sieve.cpp">
<polygon fill="#ffffff" stroke="#000000" points="587.5,-.5 587.5,-19.5 692.5,-19.5 692.5,-.5 587.5,-.5"/>
<text text-anchor="middle" x="640" y="-7.5" font-family="Helvetica,sans-Serif" font-size="10.00" fill="#000000">tests/test_sieve.cpp</text>
</a>
</g>
</g>
<!-- Node6&#45;&gt;Node17 -->
<g id="edge17" class="edge">
<title>Node6&#45;&gt;Node17</title>
<path fill="none" stroke="#191970" d="M568.365,-102.4524C572.0771,-88.6456 578.3638,-70.1561 588,-56 598.038,-41.2536 613.8494,-28.1832 625.4038,-19.7796"/>
<polygon fill="#191970" stroke="#191970" points="564.9207,-101.8018 565.9252,-112.3489 571.7172,-103.4774 564.9207,-101.8018"/>
</g>
<!-- Node18 -->
<g id="node19" class="node">
<title>Node18</title>
<g id="a_node19"><a xlink:href="test__svp_8cpp.html" target="_top" xlink:title="tests/test_svp.cpp">
<polygon fill="#ffffff" stroke="#000000" points="711,-.5 711,-19.5 809,-19.5 809,-.5 711,-.5"/>
<text text-anchor="middle" x="760" y="-7.5" font-family="Helvetica,sans-Serif" font-size="10.00" fill="#000000">tests/test_svp.cpp</text>
</a>
</g>
</g>
<!-- Node6&#45;&gt;Node18 -->
<g id="edge18" class="edge">
<title>Node6&#45;&gt;Node18</title>
<path fill="none" stroke="#191970" d="M575.3649,-104.1256C585.6366,-89.3038 602.0264,-68.6768 621,-56 648.0536,-37.9247 682.8036,-26.4247 710.7902,-19.4435"/>
<polygon fill="#191970" stroke="#191970" points="572.429,-102.2198 569.7915,-112.4812 578.2524,-106.1042 572.429,-102.2198"/>
</g>
<!-- Node19 -->
<g id="node20" class="node">
<title>Node19</title>
<g id="a_node20"><a xlink:href="test__utils_8h.html" target="_top" xlink:title="tests/test_utils.h">
<polygon fill="#ffffff" stroke="#000000" points="446.5,-56.5 446.5,-75.5 535.5,-75.5 535.5,-56.5 446.5,-56.5"/>
<text text-anchor="middle" x="491" y="-63.5" font-family="Helvetica,sans-Serif" font-size="10.00" fill="#000000">tests/test_utils.h</text>
</a>
</g>
</g>
<!-- Node6&#45;&gt;Node19 -->
<g id="edge19" class="edge">
<title>Node6&#45;&gt;Node19</title>
<path fill="none" stroke="#191970" d="M543.049,-105.928C530.2893,-96.1397 514.4115,-83.9595 503.5699,-75.6427"/>
<polygon fill="#191970" stroke="#191970" points="541.2197,-108.9359 551.2844,-112.2455 545.4804,-103.3819 541.2197,-108.9359"/>
</g>
<!-- Node9 -->
<g id="node10" class="node">
<title>Node9</title>
<g id="a_node10"><a xlink:href="main_8cpp.html" target="_top" xlink:title="fplll/main.cpp">
<polygon fill="#ffffff" stroke="#000000" points="1047,-.5 1047,-19.5 1121,-19.5 1121,-.5 1047,-.5"/>
<text text-anchor="middle" x="1084" y="-7.5" font-family="Helvetica,sans-Serif" font-size="10.00" fill="#000000">fplll/main.cpp</text>
</a>
</g>
</g>
<!-- Node8&#45;&gt;Node9 -->
<g id="edge9" class="edge">
<title>Node8&#45;&gt;Node9</title>
<path fill="none" stroke="#191970" d="M1084,-46.1575C1084,-37.155 1084,-26.9199 1084,-19.6427"/>
<polygon fill="#191970" stroke="#191970" points="1080.5001,-46.2455 1084,-56.2455 1087.5001,-46.2456 1080.5001,-46.2455"/>
</g>
<!-- Node19&#45;&gt;Node11 -->
<g id="edge20" class="edge">
<title>Node19&#45;&gt;Node11</title>
<path fill="none" stroke="#191970" d="M545.7832,-58.8211C610.796,-50.1796 722.4344,-34.9565 818,-20 820.9276,-19.5418 823.9362,-19.0591 826.9699,-18.5633"/>
<polygon fill="#191970" stroke="#191970" points="545.212,-55.3661 535.7589,-60.1504 546.1323,-62.3053 545.212,-55.3661"/>
</g>
<!-- Node19&#45;&gt;Node12 -->
<g id="edge21" class="edge">
<title>Node19&#45;&gt;Node12</title>
<path fill="none" stroke="#191970" d="M435.9406,-56.6524C381.3739,-47.3807 295.4097,-32.7532 221,-20 218.0794,-19.4994 215.0761,-18.9839 212.0465,-18.4633"/>
<polygon fill="#191970" stroke="#191970" points="435.6431,-60.1519 446.0881,-58.3764 436.8156,-53.2508 435.6431,-60.1519"/>
</g>
<!-- Node19&#45;&gt;Node13 -->
<g id="edge23" class="edge">
<title>Node19&#45;&gt;Node13</title>
<path fill="none" stroke="#191970" d="M444.14,-53.8511C404.3927,-43.5462 348.169,-28.9697 311.6472,-19.5011"/>
<polygon fill="#191970" stroke="#191970" points="443.3099,-57.2516 453.8683,-56.3733 445.0667,-50.4756 443.3099,-57.2516"/>
</g>
<!-- Node19&#45;&gt;Node14 -->
<g id="edge24" class="edge">
<title>Node19&#45;&gt;Node14</title>
<path fill="none" stroke="#191970" d="M465.3654,-51.0465C448.2841,-41.0824 426.336,-28.2794 411.5303,-19.6427"/>
<polygon fill="#191970" stroke="#191970" points="463.8767,-54.23 474.2781,-56.2455 467.4038,-48.1836 463.8767,-54.23"/>
</g>
<!-- Node19&#45;&gt;Node17 -->
<g id="edge25" class="edge">
<title>Node19&#45;&gt;Node17</title>
<path fill="none" stroke="#191970" d="M526.1512,-52.7888C553.3568,-42.5639 590.3809,-28.6488 614.7202,-19.5011"/>
<polygon fill="#191970" stroke="#191970" points="524.7434,-49.5788 516.614,-56.3733 527.2061,-56.1313 524.7434,-49.5788"/>
</g>
<!-- Node19&#45;&gt;Node18 -->
<g id="edge26" class="edge">
<title>Node19&#45;&gt;Node18</title>
<path fill="none" stroke="#191970" d="M545.639,-54.6253C595.2657,-44.2941 667.6331,-29.2288 714.2708,-19.5198"/>
<polygon fill="#191970" stroke="#191970" points="544.7986,-51.2252 535.7218,-56.6899 546.2253,-58.0782 544.7986,-51.2252"/>
</g>
<!-- Node20 -->
<g id="node21" class="node">
<title>Node20</title>
<g id="a_node21"><a xlink:href="test__gso_8cpp.html" target="_top" xlink:title="tests/test_gso.cpp">
<polygon fill="#ffffff" stroke="#000000" points="471,-.5 471,-19.5 569,-19.5 569,-.5 471,-.5"/>
<text text-anchor="middle" x="520" y="-7.5" font-family="Helvetica,sans-Serif" font-size="10.00" fill="#000000">tests/test_gso.cpp</text>
</a>
</g>
</g>
<!-- Node19&#45;&gt;Node20 -->
<g id="edge22" class="edge">
<title>Node19&#45;&gt;Node20</title>
<path fill="none" stroke="#191970" d="M500.6647,-47.3372C505.4687,-38.0605 511.0723,-27.2398 515.0065,-19.6427"/>
<polygon fill="#191970" stroke="#191970" points="497.542,-45.7561 496.0514,-56.2455 503.758,-48.9751 497.542,-45.7561"/>
</g>
<!-- Node22&#45;&gt;Node7 -->
<g id="edge30" class="edge">
<title>Node22&#45;&gt;Node7</title>
<path fill="none" stroke="#191970" d="M352.3407,-160.2111C333.9027,-136.1989 301.7057,-94.2679 287.3138,-75.5249"/>
<polygon fill="#191970" stroke="#191970" points="349.8014,-162.651 358.6677,-168.4509 355.3534,-158.3878 349.8014,-162.651"/>
</g>
<!-- Node25&#45;&gt;Node22 -->
<g id="edge38" class="edge">
<title>Node25&#45;&gt;Node22</title>
<path fill="none" stroke="#191970" d="M433.7513,-353.6201C420.5103,-346.0131 406.0745,-335.4354 397,-322 367.6575,-278.5568 365.4301,-212.3505 365.7071,-187.6956"/>
<polygon fill="#191970" stroke="#191970" points="432.1827,-356.7505 442.6468,-358.4104 435.5018,-350.5874 432.1827,-356.7505"/>
</g>
<!-- Node26 -->
<g id="node27" class="node">
<title>Node26</title>
<g id="a_node27"><a xlink:href="topenum_8cpp.html" target="_top" xlink:title="fplll/enum/topenum.cpp">
<polygon fill="#ffffff" stroke="#000000" points="406,-297 406,-316 524,-316 524,-297 406,-297"/>
<text text-anchor="middle" x="465" y="-304" font-family="Helvetica,sans-Serif" font-size="10.00" fill="#000000">fplll/enum/topenum.cpp</text>
</a>
</g>
</g>
<!-- Node25&#45;&gt;Node26 -->
<g id="edge37" class="edge">
<title>Node25&#45;&gt;Node26</title>
<path fill="none" stroke="#191970" d="M465,-348.2462C465,-337.5519 465,-324.814 465,-316.2449"/>
<polygon fill="#191970" stroke="#191970" points="461.5001,-348.3906 465,-358.3906 468.5001,-348.3907 461.5001,-348.3906"/>
</g>
<!-- Node27&#45;&gt;Node6 -->
<g id="edge40" class="edge">
<title>Node27&#45;&gt;Node6</title>
<path fill="none" stroke="#191970" d="M531.3891,-220.2507C539.8159,-194.8622 554.3282,-151.1393 560.7644,-131.7484"/>
<polygon fill="#191970" stroke="#191970" points="528.02,-219.291 528.1915,-229.8845 534.6636,-221.4962 528.02,-219.291"/>
</g>
<!-- Node27&#45;&gt;Node22 -->
<g id="edge41" class="edge">
<title>Node27&#45;&gt;Node22</title>
<path fill="none" stroke="#191970" d="M490.4795,-226.1477C460.3718,-214.5023 417.4363,-197.8952 390.6693,-187.5419"/>
<polygon fill="#191970" stroke="#191970" points="489.567,-229.5474 500.1563,-229.8906 492.0922,-223.0188 489.567,-229.5474"/>
</g>
</g>
</svg>
