<?xml version="1.0" encoding="UTF-8" standalone="no"?>
<!DOCTYPE svg PUBLIC "-//W3C//DTD SVG 1.1//EN"
 "http://www.w3.org/Graphics/SVG/1.1/DTD/svg11.dtd">
<!-- Generated by graphviz version 2.38.0 (20140413.2041)
 -->
<!-- Title: fplll/util.h Pages: 1 -->
<svg width="1296pt" height="364pt"
 viewBox="0.00 0.00 1296.00 364.00" xmlns="http://www.w3.org/2000/svg" xmlns:xlink="http://www.w3.org/1999/xlink">
<g id="graph0" class="graph" transform="scale(1 1) rotate(0) translate(4 360)">
<title>fplll/util.h</title>
<polygon fill="white" stroke="none" points="-4,4 -4,-360 1292,-360 1292,4 -4,4"/>
<!-- Node1 -->
<g id="node1" class="node"><title>Node1</title>
<polygon fill="#bfbfbf" stroke="black" points="792,-336.5 792,-355.5 848,-355.5 848,-336.5 792,-336.5"/>
<text text-anchor="middle" x="820" y="-343.5" font-family="Helvetica,sans-Serif" font-size="10.00">fplll/util.h</text>
</g>
<!-- Node2 -->
<g id="node2" class="node"><title>Node2</title>
<g id="a_node2"><a xlink:href="evaluator_8h.html" target="_top" xlink:title="fplll/enum/evaluator.h">
<polygon fill="white" stroke="black" points="449,-280.5 449,-299.5 559,-299.5 559,-280.5 449,-280.5"/>
<text text-anchor="middle" x="504" y="-287.5" font-family="Helvetica,sans-Serif" font-size="10.00">fplll/enum/evaluator.h</text>
</a>
</g>
</g>
<!-- Node1&#45;&gt;Node2 -->
<g id="edge1" class="edge"><title>Node1&#45;&gt;Node2</title>
<path fill="none" stroke="midnightblue" d="M781.909,-338.491C724.82,-328.735 617.032,-310.316 553.781,-299.507"/>
<polygon fill="midnightblue" stroke="midnightblue" points="781.51,-341.973 791.957,-340.208 782.69,-335.073 781.51,-341.973"/>
</g>
<!-- Node4 -->
<g id="node4" class="node"><title>Node4</title>
<g id="a_node4"><a xlink:href="bkz_8cpp.html" target="_top" xlink:title="fplll/bkz.cpp">
<polygon fill="white" stroke="black" points="270.5,-112.5 270.5,-131.5 339.5,-131.5 339.5,-112.5 270.5,-112.5"/>
<text text-anchor="middle" x="305" y="-119.5" font-family="Helvetica,sans-Serif" font-size="10.00">fplll/bkz.cpp</text>
</a>
</g>
</g>
<!-- Node1&#45;&gt;Node4 -->
<g id="edge22" class="edge"><title>Node1&#45;&gt;Node4</title>
<path fill="none" stroke="midnightblue" d="M781.443,-344.038C671.406,-340.343 360.377,-322.966 307,-244 282.998,-208.491 295.979,-152.738 302.243,-131.554"/>
<polygon fill="midnightblue" stroke="midnightblue" points="781.644,-347.546 791.75,-344.363 781.865,-340.549 781.644,-347.546"/>
</g>
<!-- Node5 -->
<g id="node5" class="node"><title>Node5</title>
<g id="a_node5"><a xlink:href="fplll_8h.html" target="_top" xlink:title="fplll/fplll.h">
<polygon fill="white" stroke="black" points="542,-112.5 542,-131.5 600,-131.5 600,-112.5 542,-112.5"/>
<text text-anchor="middle" x="571" y="-119.5" font-family="Helvetica,sans-Serif" font-size="10.00">fplll/fplll.h</text>
</a>
</g>
</g>
<!-- Node1&#45;&gt;Node5 -->
<g id="edge26" class="edge"><title>Node1&#45;&gt;Node5</title>
<path fill="none" stroke="midnightblue" d="M782.059,-338.913C753.823,-332.859 715.562,-321.287 688,-300 625.612,-251.816 585.77,-160.504 574.377,-131.839"/>
<polygon fill="midnightblue" stroke="midnightblue" points="781.476,-342.366 791.969,-340.902 782.853,-335.503 781.476,-342.366"/>
</g>
<!-- Node20 -->
<g id="node20" class="node"><title>Node20</title>
<g id="a_node20"><a xlink:href="topenum_8h.html" target="_top" xlink:title="fplll/enum/topenum.h">
<polygon fill="white" stroke="black" points="707.5,-280.5 707.5,-299.5 814.5,-299.5 814.5,-280.5 707.5,-280.5"/>
<text text-anchor="middle" x="761" y="-287.5" font-family="Helvetica,sans-Serif" font-size="10.00">fplll/enum/topenum.h</text>
</a>
</g>
</g>
<!-- Node1&#45;&gt;Node20 -->
<g id="edge23" class="edge"><title>Node1&#45;&gt;Node20</title>
<path fill="none" stroke="midnightblue" d="M803.105,-329.537C792.585,-319.909 779.431,-307.869 770.652,-299.834"/>
<polygon fill="midnightblue" stroke="midnightblue" points="800.781,-332.154 810.521,-336.324 805.507,-326.99 800.781,-332.154"/>
</g>
<!-- Node22 -->
<g id="node22" class="node"><title>Node22</title>
<g id="a_node22"><a xlink:href="svpcvp_8h.html" target="_top" xlink:title="fplll/svpcvp.h">
<polygon fill="white" stroke="black" points="664,-224.5 664,-243.5 738,-243.5 738,-224.5 664,-224.5"/>
<text text-anchor="middle" x="701" y="-231.5" font-family="Helvetica,sans-Serif" font-size="10.00">fplll/svpcvp.h</text>
</a>
</g>
</g>
<!-- Node1&#45;&gt;Node22 -->
<g id="edge27" class="edge"><title>Node1&#45;&gt;Node22</title>
<path fill="none" stroke="midnightblue" d="M781.998,-342.158C753.684,-337.817 716.798,-326.969 698,-300 686.244,-283.133 692.72,-257.396 697.446,-243.926"/>
<polygon fill="midnightblue" stroke="midnightblue" points="781.62,-345.638 791.993,-343.481 782.539,-338.699 781.62,-345.638"/>
</g>
<!-- Node23 -->
<g id="node23" class="node"><title>Node23</title>
<g id="a_node23"><a xlink:href="latticegen_8cpp.html" target="_top" xlink:title="fplll/latticegen.cpp">
<polygon fill="white" stroke="black" points="832.5,-280.5 832.5,-299.5 927.5,-299.5 927.5,-280.5 832.5,-280.5"/>
<text text-anchor="middle" x="880" y="-287.5" font-family="Helvetica,sans-Serif" font-size="10.00">fplll/latticegen.cpp</text>
</a>
</g>
</g>
<!-- Node1&#45;&gt;Node23 -->
<g id="edge30" class="edge"><title>Node1&#45;&gt;Node23</title>
<path fill="none" stroke="midnightblue" d="M837.181,-329.537C847.879,-319.909 861.256,-307.869 870.185,-299.834"/>
<polygon fill="midnightblue" stroke="midnightblue" points="834.732,-327.033 829.64,-336.324 839.414,-332.236 834.732,-327.033"/>
</g>
<!-- Node24 -->
<g id="node24" class="node"><title>Node24</title>
<g id="a_node24"><a xlink:href="lll_8cpp.html" target="_top" xlink:title="fplll/lll.cpp">
<polygon fill="white" stroke="black" points="946,-280.5 946,-299.5 1006,-299.5 1006,-280.5 946,-280.5"/>
<text text-anchor="middle" x="976" y="-287.5" font-family="Helvetica,sans-Serif" font-size="10.00">fplll/lll.cpp</text>
</a>
</g>
</g>
<!-- Node1&#45;&gt;Node24 -->
<g id="edge31" class="edge"><title>Node1&#45;&gt;Node24</title>
<path fill="none" stroke="midnightblue" d="M854.17,-333.172C883.544,-323.004 925.198,-308.585 951.397,-299.516"/>
<polygon fill="midnightblue" stroke="midnightblue" points="853.024,-329.865 844.719,-336.444 855.313,-336.48 853.024,-329.865"/>
</g>
<!-- Node25 -->
<g id="node25" class="node"><title>Node25</title>
<g id="a_node25"><a xlink:href="llldiff_8cpp.html" target="_top" xlink:title="fplll/llldiff.cpp">
<polygon fill="white" stroke="black" points="1024,-280.5 1024,-299.5 1098,-299.5 1098,-280.5 1024,-280.5"/>
<text text-anchor="middle" x="1061" y="-287.5" font-family="Helvetica,sans-Serif" font-size="10.00">fplll/llldiff.cpp</text>
</a>
</g>
</g>
<!-- Node1&#45;&gt;Node25 -->
<g id="edge32" class="edge"><title>Node1&#45;&gt;Node25</title>
<path fill="none" stroke="midnightblue" d="M858.138,-336.454C903.464,-326.298 978.604,-309.462 1023.6,-299.38"/>
<polygon fill="midnightblue" stroke="midnightblue" points="857.11,-333.098 848.117,-338.7 858.641,-339.929 857.11,-333.098"/>
</g>
<!-- Node26 -->
<g id="node26" class="node"><title>Node26</title>
<g id="a_node26"><a xlink:href="util_8cpp.html" target="_top" xlink:title="fplll/util.cpp">
<polygon fill="white" stroke="black" points="1116,-280.5 1116,-299.5 1182,-299.5 1182,-280.5 1116,-280.5"/>
<text text-anchor="middle" x="1149" y="-287.5" font-family="Helvetica,sans-Serif" font-size="10.00">fplll/util.cpp</text>
</a>
</g>
</g>
<!-- Node1&#45;&gt;Node26 -->
<g id="edge33" class="edge"><title>Node1&#45;&gt;Node26</title>
<path fill="none" stroke="midnightblue" d="M858.214,-339.698C913.325,-331.895 1018.25,-316.453 1107,-300 1109.79,-299.483 1112.67,-298.922 1115.56,-298.34"/>
<polygon fill="midnightblue" stroke="midnightblue" points="857.611,-336.248 848.197,-341.109 858.588,-343.18 857.611,-336.248"/>
</g>
<!-- Node27 -->
<g id="node27" class="node"><title>Node27</title>
<g id="a_node27"><a xlink:href="wrapper_8cpp.html" target="_top" xlink:title="fplll/wrapper.cpp">
<polygon fill="white" stroke="black" points="1200,-280.5 1200,-299.5 1288,-299.5 1288,-280.5 1200,-280.5"/>
<text text-anchor="middle" x="1244" y="-287.5" font-family="Helvetica,sans-Serif" font-size="10.00">fplll/wrapper.cpp</text>
</a>
</g>
</g>
<!-- Node1&#45;&gt;Node27 -->
<g id="edge34" class="edge"><title>Node1&#45;&gt;Node27</title>
<path fill="none" stroke="midnightblue" d="M858.621,-340.927C926.15,-333.669 1070.02,-317.598 1191,-300 1193.86,-299.584 1196.81,-299.136 1199.78,-298.671"/>
<polygon fill="midnightblue" stroke="midnightblue" points="858.024,-337.471 848.453,-342.015 858.769,-344.431 858.024,-337.471"/>
</g>
<!-- Node3 -->
<g id="node3" class="node"><title>Node3</title>
<g id="a_node3"><a xlink:href="bkz_8h.html" target="_top" xlink:title="fplll/bkz.h">
<polygon fill="white" stroke="black" points="477.5,-168.5 477.5,-187.5 536.5,-187.5 536.5,-168.5 477.5,-168.5"/>
<text text-anchor="middle" x="507" y="-175.5" font-family="Helvetica,sans-Serif" font-size="10.00">fplll/bkz.h</text>
</a>
</g>
</g>
<!-- Node2&#45;&gt;Node3 -->
<g id="edge2" class="edge"><title>Node2&#45;&gt;Node3</title>
<path fill="none" stroke="midnightblue" d="M490.952,-271.968C482.635,-259.018 474.242,-240.652 479,-224 482.994,-210.021 492.724,-196.156 499.588,-187.589"/>
<polygon fill="midnightblue" stroke="midnightblue" points="488.206,-274.148 496.805,-280.338 493.942,-270.137 488.206,-274.148"/>
</g>
<!-- Node16 -->
<g id="node16" class="node"><title>Node16</title>
<g id="a_node16"><a xlink:href="enumerate_8h.html" target="_top" xlink:title="fplll/enum/enumerate.h">
<polygon fill="white" stroke="black" points="316,-224.5 316,-243.5 432,-243.5 432,-224.5 316,-224.5"/>
<text text-anchor="middle" x="374" y="-231.5" font-family="Helvetica,sans-Serif" font-size="10.00">fplll/enum/enumerate.h</text>
</a>
</g>
</g>
<!-- Node2&#45;&gt;Node16 -->
<g id="edge15" class="edge"><title>Node2&#45;&gt;Node16</title>
<path fill="none" stroke="midnightblue" d="M473.915,-276.503C449.543,-266.38 415.86,-252.388 394.503,-243.516"/>
<polygon fill="midnightblue" stroke="midnightblue" points="472.823,-279.84 483.401,-280.444 475.509,-273.375 472.823,-279.84"/>
</g>
<!-- Node19 -->
<g id="node19" class="node"><title>Node19</title>
<g id="a_node19"><a xlink:href="evaluator_8cpp.html" target="_top" xlink:title="fplll/enum/evaluator.cpp">
<polygon fill="white" stroke="black" points="488,-224.5 488,-243.5 608,-243.5 608,-224.5 488,-224.5"/>
<text text-anchor="middle" x="548" y="-231.5" font-family="Helvetica,sans-Serif" font-size="10.00">fplll/enum/evaluator.cpp</text>
</a>
</g>
</g>
<!-- Node2&#45;&gt;Node19 -->
<g id="edge21" class="edge"><title>Node2&#45;&gt;Node19</title>
<path fill="none" stroke="midnightblue" d="M517.735,-272.144C525.401,-262.736 534.633,-251.405 540.869,-243.751"/>
<polygon fill="midnightblue" stroke="midnightblue" points="514.869,-270.12 511.266,-280.083 520.296,-274.541 514.869,-270.12"/>
</g>
<!-- Node3&#45;&gt;Node4 -->
<g id="edge3" class="edge"><title>Node3&#45;&gt;Node4</title>
<path fill="none" stroke="midnightblue" d="M467.448,-166.427C429.298,-156.228 372.281,-140.986 336.931,-131.536"/>
<polygon fill="midnightblue" stroke="midnightblue" points="466.63,-169.831 477.194,-169.032 468.437,-163.068 466.63,-169.831"/>
</g>
<!-- Node3&#45;&gt;Node5 -->
<g id="edge4" class="edge"><title>Node3&#45;&gt;Node5</title>
<path fill="none" stroke="midnightblue" d="M524.991,-161.82C536.458,-152.145 550.913,-139.948 560.53,-131.834"/>
<polygon fill="midnightblue" stroke="midnightblue" points="522.669,-159.2 517.283,-168.324 527.183,-164.55 522.669,-159.2"/>
</g>
<!-- Node6 -->
<g id="node6" class="node"><title>Node6</title>
<g id="a_node6"><a xlink:href="fplll_8cpp.html" target="_top" xlink:title="fplll/fplll.cpp">
<polygon fill="white" stroke="black" points="928,-56.5 928,-75.5 996,-75.5 996,-56.5 928,-56.5"/>
<text text-anchor="middle" x="962" y="-63.5" font-family="Helvetica,sans-Serif" font-size="10.00">fplll/fplll.cpp</text>
</a>
</g>
</g>
<!-- Node5&#45;&gt;Node6 -->
<g id="edge5" class="edge"><title>Node5&#45;&gt;Node6</title>
<path fill="none" stroke="midnightblue" d="M610.613,-116.892C675.351,-109.951 807.761,-94.8043 919,-76 921.858,-75.5169 924.815,-74.9789 927.778,-74.413"/>
<polygon fill="midnightblue" stroke="midnightblue" points="610.019,-113.435 600.446,-117.974 610.76,-120.396 610.019,-113.435"/>
</g>
<!-- Node7 -->
<g id="node7" class="node"><title>Node7</title>
<g id="a_node7"><a xlink:href="main_8h.html" target="_top" xlink:title="fplll/main.h">
<polygon fill="white" stroke="black" points="698,-56.5 698,-75.5 762,-75.5 762,-56.5 698,-56.5"/>
<text text-anchor="middle" x="730" y="-63.5" font-family="Helvetica,sans-Serif" font-size="10.00">fplll/main.h</text>
</a>
</g>
</g>
<!-- Node5&#45;&gt;Node7 -->
<g id="edge6" class="edge"><title>Node5&#45;&gt;Node7</title>
<path fill="none" stroke="midnightblue" d="M605.827,-109.172C635.766,-99.0039 678.221,-84.5852 704.924,-75.5164"/>
<polygon fill="midnightblue" stroke="midnightblue" points="604.537,-105.914 596.194,-112.444 606.788,-112.542 604.537,-105.914"/>
</g>
<!-- Node9 -->
<g id="node9" class="node"><title>Node9</title>
<g id="a_node9"><a xlink:href="sieve__main_8cpp.html" target="_top" xlink:title="fplll/sieve/sieve_main.cpp">
<polygon fill="white" stroke="black" points="780.5,-56.5 780.5,-75.5 909.5,-75.5 909.5,-56.5 780.5,-56.5"/>
<text text-anchor="middle" x="845" y="-63.5" font-family="Helvetica,sans-Serif" font-size="10.00">fplll/sieve/sieve_main.cpp</text>
</a>
</g>
</g>
<!-- Node5&#45;&gt;Node9 -->
<g id="edge8" class="edge"><title>Node5&#45;&gt;Node9</title>
<path fill="none" stroke="midnightblue" d="M609.966,-113.321C660.574,-103.347 748.663,-85.9862 801.431,-75.5865"/>
<polygon fill="midnightblue" stroke="midnightblue" points="609.198,-109.905 600.063,-115.272 610.551,-116.772 609.198,-109.905"/>
</g>
<!-- Node10 -->
<g id="node10" class="node"><title>Node10</title>
<g id="a_node10"><a xlink:href="test__bkz_8cpp.html" target="_top" xlink:title="tests/test_bkz.cpp">
<polygon fill="white" stroke="black" points="0,-56.5 0,-75.5 98,-75.5 98,-56.5 0,-56.5"/>
<text text-anchor="middle" x="49" y="-63.5" font-family="Helvetica,sans-Serif" font-size="10.00">tests/test_bkz.cpp</text>
</a>
</g>
</g>
<!-- Node5&#45;&gt;Node10 -->
<g id="edge9" class="edge"><title>Node5&#45;&gt;Node10</title>
<path fill="none" stroke="midnightblue" d="M531.686,-117.998C451.481,-111.698 263.274,-96.008 106,-76 103.416,-75.6713 100.769,-75.3165 98.0983,-74.9443"/>
<polygon fill="midnightblue" stroke="midnightblue" points="531.581,-121.501 541.823,-118.79 532.126,-114.522 531.581,-121.501"/>
</g>
<!-- Node11 -->
<g id="node11" class="node"><title>Node11</title>
<g id="a_node11"><a xlink:href="test__lll_8cpp.html" target="_top" xlink:title="tests/test_lll.cpp">
<polygon fill="white" stroke="black" points="115.5,-56.5 115.5,-75.5 204.5,-75.5 204.5,-56.5 115.5,-56.5"/>
<text text-anchor="middle" x="160" y="-63.5" font-family="Helvetica,sans-Serif" font-size="10.00">tests/test_lll.cpp</text>
</a>
</g>
</g>
<!-- Node5&#45;&gt;Node11 -->
<g id="edge10" class="edge"><title>Node5&#45;&gt;Node11</title>
<path fill="none" stroke="midnightblue" d="M531.455,-116.536C465.534,-108.978 329.055,-92.8324 214,-76 210.991,-75.5597 207.89,-75.0889 204.768,-74.602"/>
<polygon fill="midnightblue" stroke="midnightblue" points="531.46,-120.059 541.793,-117.717 532.255,-113.104 531.46,-120.059"/>
</g>
<!-- Node12 -->
<g id="node12" class="node"><title>Node12</title>
<g id="a_node12"><a xlink:href="test__nr_8cpp.html" target="_top" xlink:title="tests/test_nr.cpp">
<polygon fill="white" stroke="black" points="223,-56.5 223,-75.5 313,-75.5 313,-56.5 223,-56.5"/>
<text text-anchor="middle" x="268" y="-63.5" font-family="Helvetica,sans-Serif" font-size="10.00">tests/test_nr.cpp</text>
</a>
</g>
</g>
<!-- Node5&#45;&gt;Node12 -->
<g id="edge11" class="edge"><title>Node5&#45;&gt;Node12</title>
<path fill="none" stroke="midnightblue" d="M532.032,-114.055C475.871,-104.046 372.418,-85.6091 313.05,-75.0288"/>
<polygon fill="midnightblue" stroke="midnightblue" points="531.488,-117.513 541.947,-115.822 532.716,-110.622 531.488,-117.513"/>
</g>
<!-- Node13 -->
<g id="node13" class="node"><title>Node13</title>
<g id="a_node13"><a xlink:href="test__pruner_8cpp.html" target="_top" xlink:title="tests/test_pruner.cpp">
<polygon fill="white" stroke="black" points="331.5,-56.5 331.5,-75.5 440.5,-75.5 440.5,-56.5 331.5,-56.5"/>
<text text-anchor="middle" x="386" y="-63.5" font-family="Helvetica,sans-Serif" font-size="10.00">tests/test_pruner.cpp</text>
</a>
</g>
</g>
<!-- Node5&#45;&gt;Node13 -->
<g id="edge12" class="edge"><title>Node5&#45;&gt;Node13</title>
<path fill="none" stroke="midnightblue" d="M531.834,-109.568C496.935,-99.381 446.651,-84.7034 415.177,-75.5164"/>
<polygon fill="midnightblue" stroke="midnightblue" points="531.106,-113.001 541.686,-112.444 533.067,-106.282 531.106,-113.001"/>
</g>
<!-- Node14 -->
<g id="node14" class="node"><title>Node14</title>
<g id="a_node14"><a xlink:href="test__sieve_8cpp.html" target="_top" xlink:title="tests/test_sieve.cpp">
<polygon fill="white" stroke="black" points="458.5,-56.5 458.5,-75.5 563.5,-75.5 563.5,-56.5 458.5,-56.5"/>
<text text-anchor="middle" x="511" y="-63.5" font-family="Helvetica,sans-Serif" font-size="10.00">tests/test_sieve.cpp</text>
</a>
</g>
</g>
<!-- Node5&#45;&gt;Node14 -->
<g id="edge13" class="edge"><title>Node5&#45;&gt;Node14</title>
<path fill="none" stroke="midnightblue" d="M553.819,-105.537C543.121,-95.9087 529.744,-83.8694 520.815,-75.8339"/>
<polygon fill="midnightblue" stroke="midnightblue" points="551.586,-108.236 561.36,-112.324 556.268,-103.033 551.586,-108.236"/>
</g>
<!-- Node15 -->
<g id="node15" class="node"><title>Node15</title>
<g id="a_node15"><a xlink:href="test__svp_8cpp.html" target="_top" xlink:title="tests/test_svp.cpp">
<polygon fill="white" stroke="black" points="582,-56.5 582,-75.5 680,-75.5 680,-56.5 582,-56.5"/>
<text text-anchor="middle" x="631" y="-63.5" font-family="Helvetica,sans-Serif" font-size="10.00">tests/test_svp.cpp</text>
</a>
</g>
</g>
<!-- Node5&#45;&gt;Node15 -->
<g id="edge14" class="edge"><title>Node5&#45;&gt;Node15</title>
<path fill="none" stroke="midnightblue" d="M588.181,-105.537C598.879,-95.9087 612.256,-83.8694 621.185,-75.8339"/>
<polygon fill="midnightblue" stroke="midnightblue" points="585.732,-103.033 580.64,-112.324 590.414,-108.236 585.732,-103.033"/>
</g>
<!-- Node8 -->
<g id="node8" class="node"><title>Node8</title>
<g id="a_node8"><a xlink:href="main_8cpp.html" target="_top" xlink:title="fplll/main.cpp">
<polygon fill="white" stroke="black" points="693,-0.5 693,-19.5 767,-19.5 767,-0.5 693,-0.5"/>
<text text-anchor="middle" x="730" y="-7.5" font-family="Helvetica,sans-Serif" font-size="10.00">fplll/main.cpp</text>
</a>
</g>
</g>
<!-- Node7&#45;&gt;Node8 -->
<g id="edge7" class="edge"><title>Node7&#45;&gt;Node8</title>
<path fill="none" stroke="midnightblue" d="M730,-45.8045C730,-36.9102 730,-26.7798 730,-19.7511"/>
<polygon fill="midnightblue" stroke="midnightblue" points="726.5,-46.083 730,-56.083 733.5,-46.083 726.5,-46.083"/>
</g>
<!-- Node16&#45;&gt;Node3 -->
<g id="edge16" class="edge"><title>Node16&#45;&gt;Node3</title>
<path fill="none" stroke="midnightblue" d="M404.448,-220.638C429.407,-210.504 464.077,-196.427 486.024,-187.516"/>
<polygon fill="midnightblue" stroke="midnightblue" points="403.023,-217.439 395.074,-224.444 405.656,-223.924 403.023,-217.439"/>
</g>
<!-- Node16&#45;&gt;Node4 -->
<g id="edge17" class="edge"><title>Node16&#45;&gt;Node4</title>
<path fill="none" stroke="midnightblue" d="M352.359,-217.952C342.447,-210.062 331.307,-199.624 324,-188 312.612,-169.884 307.813,-144.674 305.99,-131.613"/>
<polygon fill="midnightblue" stroke="midnightblue" points="350.537,-220.961 360.626,-224.195 354.755,-215.375 350.537,-220.961"/>
</g>
<!-- Node17 -->
<g id="node17" class="node"><title>Node17</title>
<g id="a_node17"><a xlink:href="enumerate_8cpp.html" target="_top" xlink:title="fplll/enum/enumerate.cpp">
<polygon fill="white" stroke="black" points="333,-168.5 333,-187.5 459,-187.5 459,-168.5 333,-168.5"/>
<text text-anchor="middle" x="396" y="-175.5" font-family="Helvetica,sans-Serif" font-size="10.00">fplll/enum/enumerate.cpp</text>
</a>
</g>
</g>
<!-- Node16&#45;&gt;Node17 -->
<g id="edge18" class="edge"><title>Node16&#45;&gt;Node17</title>
<path fill="none" stroke="midnightblue" d="M381.46,-214.69C385.167,-205.589 389.476,-195.014 392.435,-187.751"/>
<polygon fill="midnightblue" stroke="midnightblue" points="378.165,-213.502 377.633,-224.083 384.647,-216.143 378.165,-213.502"/>
</g>
<!-- Node18 -->
<g id="node18" class="node"><title>Node18</title>
<g id="a_node18"><a xlink:href="svpcvp_8cpp.html" target="_top" xlink:title="fplll/svpcvp.cpp">
<polygon fill="white" stroke="black" points="717.5,-168.5 717.5,-187.5 802.5,-187.5 802.5,-168.5 717.5,-168.5"/>
<text text-anchor="middle" x="760" y="-175.5" font-family="Helvetica,sans-Serif" font-size="10.00">fplll/svpcvp.cpp</text>
</a>
</g>
</g>
<!-- Node16&#45;&gt;Node18 -->
<g id="edge19" class="edge"><title>Node16&#45;&gt;Node18</title>
<path fill="none" stroke="midnightblue" d="M442.136,-223.468C521.721,-212.334 650.937,-194.258 717.451,-184.952"/>
<polygon fill="midnightblue" stroke="midnightblue" points="441.625,-220.005 432.206,-224.857 442.595,-226.938 441.625,-220.005"/>
</g>
<!-- Node18&#45;&gt;Node6 -->
<g id="edge20" class="edge"><title>Node18&#45;&gt;Node6</title>
<path fill="none" stroke="midnightblue" d="M784.889,-163.446C827.032,-140.497 911.26,-94.6307 946.223,-75.5914"/>
<polygon fill="midnightblue" stroke="midnightblue" points="782.959,-160.512 775.851,-168.368 786.307,-166.66 782.959,-160.512"/>
</g>
<!-- Node20&#45;&gt;Node18 -->
<g id="edge25" class="edge"><title>Node20&#45;&gt;Node18</title>
<path fill="none" stroke="midnightblue" d="M760.83,-270.348C760.611,-246.254 760.239,-205.308 760.078,-187.591"/>
<polygon fill="midnightblue" stroke="midnightblue" points="757.331,-270.401 760.922,-280.368 764.33,-270.337 757.331,-270.401"/>
</g>
<!-- Node21 -->
<g id="node21" class="node"><title>Node21</title>
<g id="a_node21"><a xlink:href="topenum_8cpp.html" target="_top" xlink:title="fplll/enum/topenum.cpp">
<polygon fill="white" stroke="black" points="794,-224.5 794,-243.5 912,-243.5 912,-224.5 794,-224.5"/>
<text text-anchor="middle" x="853" y="-231.5" font-family="Helvetica,sans-Serif" font-size="10.00">fplll/enum/topenum.cpp</text>
</a>
</g>
</g>
<!-- Node20&#45;&gt;Node21 -->
<g id="edge24" class="edge"><title>Node20&#45;&gt;Node21</title>
<path fill="none" stroke="midnightblue" d="M784.55,-275.177C801.479,-265.241 823.783,-252.149 838.255,-243.655"/>
<polygon fill="midnightblue" stroke="midnightblue" points="782.634,-272.243 775.781,-280.324 786.177,-278.28 782.634,-272.243"/>
</g>
<!-- Node22&#45;&gt;Node5 -->
<g id="edge28" class="edge"><title>Node22&#45;&gt;Node5</title>
<path fill="none" stroke="midnightblue" d="M689.988,-215.422C680.585,-201.39 666.063,-181.852 650,-168 631.951,-152.434 607.708,-139.575 590.859,-131.645"/>
<polygon fill="midnightblue" stroke="midnightblue" points="687.254,-217.639 695.635,-224.12 693.125,-213.827 687.254,-217.639"/>
</g>
<!-- Node22&#45;&gt;Node18 -->
<g id="edge29" class="edge"><title>Node22&#45;&gt;Node18</title>
<path fill="none" stroke="midnightblue" d="M717.895,-217.537C728.415,-207.909 741.569,-195.869 750.348,-187.834"/>
<polygon fill="midnightblue" stroke="midnightblue" points="715.493,-214.99 710.479,-224.324 720.219,-220.154 715.493,-214.99"/>
</g>
</g>
</svg>
