<?xml version="1.0" encoding="UTF-8" standalone="no"?>
<!DOCTYPE svg PUBLIC "-//W3C//DTD SVG 1.1//EN"
 "http://www.w3.org/Graphics/SVG/1.1/DTD/svg11.dtd">
<!-- Generated by graphviz version 2.38.0 (20140413.2041)
 -->
<!-- Title: fplll/util.h Pages: 1 -->
<svg width="1128pt" height="442pt"
 viewBox="0.00 0.00 1128.00 442.00" xmlns="http://www.w3.org/2000/svg" xmlns:xlink="http://www.w3.org/1999/xlink">
<g id="graph0" class="graph" transform="scale(1 1) rotate(0) translate(4 438)">
<title>fplll/util.h</title>
<polygon fill="white" stroke="none" points="-4,4 -4,-438 1124,-438 1124,4 -4,4"/>
<!-- Node0 -->
<g id="node1" class="node"><title>Node0</title>
<polygon fill="#bfbfbf" stroke="black" points="600,-414.5 600,-433.5 656,-433.5 656,-414.5 600,-414.5"/>
<text text-anchor="middle" x="628" y="-421.5" font-family="Helvetica,sans-Serif" font-size="10.00">fplll/util.h</text>
</g>
<!-- Node1 -->
<g id="node2" class="node"><title>Node1</title>
<g id="a_node2"><a xlink:href="evaluator_8h.html" target="_top" xlink:title="fplll/enum/evaluator.h">
<polygon fill="white" stroke="black" points="197,-358.5 197,-377.5 307,-377.5 307,-358.5 197,-358.5"/>
<text text-anchor="middle" x="252" y="-365.5" font-family="Helvetica,sans-Serif" font-size="10.00">fplll/enum/evaluator.h</text>
</a>
</g>
</g>
<!-- Node0&#45;&gt;Node1 -->
<g id="edge1" class="edge"><title>Node0&#45;&gt;Node1</title>
<path fill="none" stroke="midnightblue" d="M589.627,-417.489C522.679,-407.874 384.321,-388.004 307.122,-376.916"/>
<polygon fill="midnightblue" stroke="midnightblue" points="589.343,-420.984 599.739,-418.941 590.338,-414.055 589.343,-420.984"/>
</g>
<!-- Node5 -->
<g id="node6" class="node"><title>Node5</title>
<g id="a_node6"><a xlink:href="bkz_8cpp.html" target="_top" xlink:title="fplll/bkz.cpp">
<polygon fill="white" stroke="black" points="9.5,-112.5 9.5,-131.5 78.5,-131.5 78.5,-112.5 9.5,-112.5"/>
<text text-anchor="middle" x="44" y="-119.5" font-family="Helvetica,sans-Serif" font-size="10.00">fplll/bkz.cpp</text>
</a>
</g>
</g>
<!-- Node0&#45;&gt;Node5 -->
<g id="edge35" class="edge"><title>Node0&#45;&gt;Node5</title>
<path fill="none" stroke="midnightblue" d="M589.595,-422.371C512.467,-420.388 333.658,-412.158 188,-378 101.12,-357.626 0,-396.737 0,-307.5 0,-307.5 0,-307.5 0,-238.5 0,-196.013 26.321,-150.156 38.2478,-131.557"/>
<polygon fill="midnightblue" stroke="midnightblue" points="589.71,-425.874 599.79,-422.611 589.875,-418.876 589.71,-425.874"/>
</g>
<!-- Node6 -->
<g id="node7" class="node"><title>Node6</title>
<g id="a_node7"><a xlink:href="fplll_8h.html" target="_top" xlink:title="fplll/fplll.h">
<polygon fill="white" stroke="black" points="534,-112.5 534,-131.5 592,-131.5 592,-112.5 534,-112.5"/>
<text text-anchor="middle" x="563" y="-119.5" font-family="Helvetica,sans-Serif" font-size="10.00">fplll/fplll.h</text>
</a>
</g>
</g>
<!-- Node0&#45;&gt;Node6 -->
<g id="edge42" class="edge"><title>Node0&#45;&gt;Node6</title>
<path fill="none" stroke="midnightblue" d="M618.353,-405.467C607.095,-383.329 590,-343.746 590,-307.5 590,-307.5 590,-307.5 590,-238.5 590,-197.521 573.685,-150.459 566.42,-131.533"/>
<polygon fill="midnightblue" stroke="midnightblue" points="615.27,-407.125 623.032,-414.337 621.461,-403.859 615.27,-407.125"/>
</g>
<!-- Node25 -->
<g id="node26" class="node"><title>Node25</title>
<g id="a_node26"><a xlink:href="topenum_8h.html" target="_top" xlink:title="fplll/enum/topenum.h">
<polygon fill="white" stroke="black" points="411.5,-358.5 411.5,-377.5 518.5,-377.5 518.5,-358.5 411.5,-358.5"/>
<text text-anchor="middle" x="465" y="-365.5" font-family="Helvetica,sans-Serif" font-size="10.00">fplll/enum/topenum.h</text>
</a>
</g>
</g>
<!-- Node0&#45;&gt;Node25 -->
<g id="edge36" class="edge"><title>Node0&#45;&gt;Node25</title>
<path fill="none" stroke="midnightblue" d="M592.297,-411.172C561.604,-401.004 518.081,-386.585 490.707,-377.516"/>
<polygon fill="midnightblue" stroke="midnightblue" points="591.579,-414.621 602.172,-414.444 593.78,-407.976 591.579,-414.621"/>
</g>
<!-- Node27 -->
<g id="node28" class="node"><title>Node27</title>
<g id="a_node28"><a xlink:href="svpcvp_8h.html" target="_top" xlink:title="fplll/svpcvp.h">
<polygon fill="white" stroke="black" points="488,-230 488,-249 562,-249 562,-230 488,-230"/>
<text text-anchor="middle" x="525" y="-237" font-family="Helvetica,sans-Serif" font-size="10.00">fplll/svpcvp.h</text>
</a>
</g>
</g>
<!-- Node0&#45;&gt;Node27 -->
<g id="edge39" class="edge"><title>Node0&#45;&gt;Node27</title>
<path fill="none" stroke="midnightblue" d="M606.559,-408.423C596.162,-400.452 584.185,-389.804 576,-378 546.113,-334.9 531.302,-272.13 526.656,-249.254"/>
<polygon fill="midnightblue" stroke="midnightblue" points="604.666,-411.375 614.803,-414.457 608.8,-405.726 604.666,-411.375"/>
</g>
<!-- Node28 -->
<g id="node29" class="node"><title>Node28</title>
<g id="a_node29"><a xlink:href="latticegen_8cpp.html" target="_top" xlink:title="fplll/latticegen.cpp">
<polygon fill="white" stroke="black" points="618.5,-358.5 618.5,-377.5 713.5,-377.5 713.5,-358.5 618.5,-358.5"/>
<text text-anchor="middle" x="666" y="-365.5" font-family="Helvetica,sans-Serif" font-size="10.00">fplll/latticegen.cpp</text>
</a>
</g>
</g>
<!-- Node0&#45;&gt;Node28 -->
<g id="edge43" class="edge"><title>Node0&#45;&gt;Node28</title>
<path fill="none" stroke="midnightblue" d="M640.065,-405.855C646.645,-396.505 654.511,-385.327 659.842,-377.751"/>
<polygon fill="midnightblue" stroke="midnightblue" points="637.168,-403.891 634.275,-414.083 642.892,-407.919 637.168,-403.891"/>
</g>
<!-- Node29 -->
<g id="node30" class="node"><title>Node29</title>
<g id="a_node30"><a xlink:href="lll_8cpp.html" target="_top" xlink:title="fplll/lll.cpp">
<polygon fill="white" stroke="black" points="732,-358.5 732,-377.5 792,-377.5 792,-358.5 732,-358.5"/>
<text text-anchor="middle" x="762" y="-365.5" font-family="Helvetica,sans-Serif" font-size="10.00">fplll/lll.cpp</text>
</a>
</g>
</g>
<!-- Node0&#45;&gt;Node29 -->
<g id="edge44" class="edge"><title>Node0&#45;&gt;Node29</title>
<path fill="none" stroke="midnightblue" d="M658.677,-410.638C683.823,-400.504 718.754,-386.427 740.867,-377.516"/>
<polygon fill="midnightblue" stroke="midnightblue" points="657.2,-407.459 649.233,-414.444 659.816,-413.952 657.2,-407.459"/>
</g>
<!-- Node30 -->
<g id="node31" class="node"><title>Node30</title>
<g id="a_node31"><a xlink:href="llldiff_8cpp.html" target="_top" xlink:title="fplll/llldiff.cpp">
<polygon fill="white" stroke="black" points="810,-358.5 810,-377.5 884,-377.5 884,-358.5 810,-358.5"/>
<text text-anchor="middle" x="847" y="-365.5" font-family="Helvetica,sans-Serif" font-size="10.00">fplll/llldiff.cpp</text>
</a>
</g>
</g>
<!-- Node0&#45;&gt;Node30 -->
<g id="edge45" class="edge"><title>Node0&#45;&gt;Node30</title>
<path fill="none" stroke="midnightblue" d="M666.127,-413.599C707.391,-403.424 772.618,-387.341 812.437,-377.522"/>
<polygon fill="midnightblue" stroke="midnightblue" points="665.053,-410.259 656.182,-416.051 666.729,-417.055 665.053,-410.259"/>
</g>
<!-- Node31 -->
<g id="node32" class="node"><title>Node31</title>
<g id="a_node32"><a xlink:href="util_8cpp.html" target="_top" xlink:title="fplll/util.cpp">
<polygon fill="white" stroke="black" points="902,-358.5 902,-377.5 968,-377.5 968,-358.5 902,-358.5"/>
<text text-anchor="middle" x="935" y="-365.5" font-family="Helvetica,sans-Serif" font-size="10.00">fplll/util.cpp</text>
</a>
</g>
</g>
<!-- Node0&#45;&gt;Node31 -->
<g id="edge46" class="edge"><title>Node0&#45;&gt;Node31</title>
<path fill="none" stroke="midnightblue" d="M666.347,-417.017C717.966,-408.844 812.609,-393.432 893,-378 895.783,-377.466 898.665,-376.892 901.556,-376.302"/>
<polygon fill="midnightblue" stroke="midnightblue" points="665.642,-413.585 656.31,-418.601 666.733,-420.5 665.642,-413.585"/>
</g>
<!-- Node32 -->
<g id="node33" class="node"><title>Node32</title>
<g id="a_node33"><a xlink:href="wrapper_8cpp.html" target="_top" xlink:title="fplll/wrapper.cpp">
<polygon fill="white" stroke="black" points="986,-358.5 986,-377.5 1074,-377.5 1074,-358.5 986,-358.5"/>
<text text-anchor="middle" x="1030" y="-365.5" font-family="Helvetica,sans-Serif" font-size="10.00">fplll/wrapper.cpp</text>
</a>
</g>
</g>
<!-- Node0&#45;&gt;Node32 -->
<g id="edge47" class="edge"><title>Node0&#45;&gt;Node32</title>
<path fill="none" stroke="midnightblue" d="M666.17,-418.585C730.428,-411.038 864.246,-394.836 977,-378 979.862,-377.573 982.807,-377.117 985.775,-376.646"/>
<polygon fill="midnightblue" stroke="midnightblue" points="665.626,-415.124 656.1,-419.763 666.439,-422.077 665.626,-415.124"/>
</g>
<!-- Node2 -->
<g id="node3" class="node"><title>Node2</title>
<g id="a_node3"><a xlink:href="enumerate__ext_8h.html" target="_top" xlink:title="fplll/enum/enumerate\l_ext.h">
<polygon fill="white" stroke="black" points="66.5,-291.5 66.5,-321.5 173.5,-321.5 173.5,-291.5 66.5,-291.5"/>
<text text-anchor="start" x="74.5" y="-309.5" font-family="Helvetica,sans-Serif" font-size="10.00">fplll/enum/enumerate</text>
<text text-anchor="middle" x="120" y="-298.5" font-family="Helvetica,sans-Serif" font-size="10.00">_ext.h</text>
</a>
</g>
</g>
<!-- Node1&#45;&gt;Node2 -->
<g id="edge2" class="edge"><title>Node1&#45;&gt;Node2</title>
<path fill="none" stroke="midnightblue" d="M223.893,-354.331C202.536,-344.704 173.173,-331.468 151.11,-321.523"/>
<polygon fill="midnightblue" stroke="midnightblue" points="222.533,-357.556 233.088,-358.475 225.409,-351.175 222.533,-357.556"/>
</g>
<!-- Node3 -->
<g id="node4" class="node"><title>Node3</title>
<g id="a_node4"><a xlink:href="enumerate_8h.html" target="_top" xlink:title="fplll/enum/enumerate.h">
<polygon fill="white" stroke="black" points="62,-230 62,-249 178,-249 178,-230 62,-230"/>
<text text-anchor="middle" x="120" y="-237" font-family="Helvetica,sans-Serif" font-size="10.00">fplll/enum/enumerate.h</text>
</a>
</g>
</g>
<!-- Node1&#45;&gt;Node3 -->
<g id="edge32" class="edge"><title>Node1&#45;&gt;Node3</title>
<path fill="none" stroke="midnightblue" d="M186.473,-360.572C136.318,-354.138 73.0874,-342.223 57,-322 36.0688,-295.688 79.8566,-264.068 104.596,-249.127"/>
<polygon fill="midnightblue" stroke="midnightblue" points="186.281,-364.074 196.634,-361.824 187.137,-357.127 186.281,-364.074"/>
</g>
<!-- Node4 -->
<g id="node5" class="node"><title>Node4</title>
<g id="a_node5"><a xlink:href="bkz_8h.html" target="_top" xlink:title="fplll/bkz.h">
<polygon fill="white" stroke="black" points="222.5,-168.5 222.5,-187.5 281.5,-187.5 281.5,-168.5 222.5,-168.5"/>
<text text-anchor="middle" x="252" y="-175.5" font-family="Helvetica,sans-Serif" font-size="10.00">fplll/bkz.h</text>
</a>
</g>
</g>
<!-- Node1&#45;&gt;Node4 -->
<g id="edge33" class="edge"><title>Node1&#45;&gt;Node4</title>
<path fill="none" stroke="midnightblue" d="M285.06,-354.008C298.766,-346.781 313.251,-336.304 321,-322 327.562,-309.885 321.919,-304.747 321,-291 318.996,-261.022 327.2,-249.917 312,-224 302.317,-207.489 283.971,-195.102 270.103,-187.547"/>
<polygon fill="midnightblue" stroke="midnightblue" points="283.262,-350.99 275.788,-358.499 286.314,-357.29 283.262,-350.99"/>
</g>
<!-- Node24 -->
<g id="node25" class="node"><title>Node24</title>
<g id="a_node25"><a xlink:href="evaluator_8cpp.html" target="_top" xlink:title="fplll/enum/evaluator.cpp">
<polygon fill="white" stroke="black" points="192,-297 192,-316 312,-316 312,-297 192,-297"/>
<text text-anchor="middle" x="252" y="-304" font-family="Helvetica,sans-Serif" font-size="10.00">fplll/enum/evaluator.cpp</text>
</a>
</g>
</g>
<!-- Node1&#45;&gt;Node24 -->
<g id="edge34" class="edge"><title>Node1&#45;&gt;Node24</title>
<path fill="none" stroke="midnightblue" d="M252,-348.317C252,-337.496 252,-324.398 252,-316.009"/>
<polygon fill="midnightblue" stroke="midnightblue" points="248.5,-348.475 252,-358.475 255.5,-348.475 248.5,-348.475"/>
</g>
<!-- Node2&#45;&gt;Node3 -->
<g id="edge3" class="edge"><title>Node2&#45;&gt;Node3</title>
<path fill="none" stroke="midnightblue" d="M120,-281.25C120,-270.017 120,-257.377 120,-249.195"/>
<polygon fill="midnightblue" stroke="midnightblue" points="116.5,-281.396 120,-291.396 123.5,-281.396 116.5,-281.396"/>
</g>
<!-- Node23 -->
<g id="node24" class="node"><title>Node23</title>
<g id="a_node24"><a xlink:href="enumerate__ext_8cpp.html" target="_top" xlink:title="fplll/enum/enumerate\l_ext.cpp">
<polygon fill="white" stroke="black" points="196.5,-224.5 196.5,-254.5 303.5,-254.5 303.5,-224.5 196.5,-224.5"/>
<text text-anchor="start" x="204.5" y="-242.5" font-family="Helvetica,sans-Serif" font-size="10.00">fplll/enum/enumerate</text>
<text text-anchor="middle" x="250" y="-231.5" font-family="Helvetica,sans-Serif" font-size="10.00">_ext.cpp</text>
</a>
</g>
</g>
<!-- Node2&#45;&gt;Node23 -->
<g id="edge31" class="edge"><title>Node2&#45;&gt;Node23</title>
<path fill="none" stroke="midnightblue" d="M157.293,-286.853C177.848,-276.576 202.95,-264.025 221.847,-254.577"/>
<polygon fill="midnightblue" stroke="midnightblue" points="155.587,-283.793 148.208,-291.396 158.718,-290.054 155.587,-283.793"/>
</g>
<!-- Node3&#45;&gt;Node4 -->
<g id="edge4" class="edge"><title>Node3&#45;&gt;Node4</title>
<path fill="none" stroke="midnightblue" d="M148.115,-225.827C173.74,-214.276 210.888,-197.532 233.123,-187.509"/>
<polygon fill="midnightblue" stroke="midnightblue" points="146.591,-222.675 138.912,-229.975 149.467,-229.056 146.591,-222.675"/>
</g>
<!-- Node3&#45;&gt;Node5 -->
<g id="edge27" class="edge"><title>Node3&#45;&gt;Node5</title>
<path fill="none" stroke="midnightblue" d="M98.0548,-223.786C86.1209,-214.747 72.0012,-202.196 63,-188 51.5418,-169.929 46.7725,-144.699 44.9727,-131.624"/>
<polygon fill="midnightblue" stroke="midnightblue" points="96.1008,-226.693 106.254,-229.72 100.205,-221.022 96.1008,-226.693"/>
</g>
<!-- Node21 -->
<g id="node22" class="node"><title>Node21</title>
<g id="a_node22"><a xlink:href="enumerate_8cpp.html" target="_top" xlink:title="fplll/enum/enumerate.cpp">
<polygon fill="white" stroke="black" points="72,-168.5 72,-187.5 198,-187.5 198,-168.5 72,-168.5"/>
<text text-anchor="middle" x="135" y="-175.5" font-family="Helvetica,sans-Serif" font-size="10.00">fplll/enum/enumerate.cpp</text>
</a>
</g>
</g>
<!-- Node3&#45;&gt;Node21 -->
<g id="edge28" class="edge"><title>Node3&#45;&gt;Node21</title>
<path fill="none" stroke="midnightblue" d="M124.624,-220.157C127.368,-209.272 130.718,-195.986 132.855,-187.509"/>
<polygon fill="midnightblue" stroke="midnightblue" points="121.2,-219.423 122.149,-229.975 127.988,-221.134 121.2,-219.423"/>
</g>
<!-- Node22 -->
<g id="node23" class="node"><title>Node22</title>
<g id="a_node23"><a xlink:href="svpcvp_8cpp.html" target="_top" xlink:title="fplll/svpcvp.cpp">
<polygon fill="white" stroke="black" points="311.5,-168.5 311.5,-187.5 396.5,-187.5 396.5,-168.5 311.5,-168.5"/>
<text text-anchor="middle" x="354" y="-175.5" font-family="Helvetica,sans-Serif" font-size="10.00">fplll/svpcvp.cpp</text>
</a>
</g>
</g>
<!-- Node3&#45;&gt;Node22 -->
<g id="edge29" class="edge"><title>Node3&#45;&gt;Node22</title>
<path fill="none" stroke="midnightblue" d="M163.385,-227.468C208.823,-215.915 279.209,-198.017 320.536,-187.509"/>
<polygon fill="midnightblue" stroke="midnightblue" points="162.356,-224.119 153.526,-229.975 164.081,-230.903 162.356,-224.119"/>
</g>
<!-- Node4&#45;&gt;Node5 -->
<g id="edge5" class="edge"><title>Node4&#45;&gt;Node5</title>
<path fill="none" stroke="midnightblue" d="M212.425,-166.726C173.13,-156.524 113.589,-141.066 76.8345,-131.524"/>
<polygon fill="midnightblue" stroke="midnightblue" points="211.64,-170.138 222.199,-169.263 213.399,-163.362 211.64,-170.138"/>
</g>
<!-- Node4&#45;&gt;Node6 -->
<g id="edge6" class="edge"><title>Node4&#45;&gt;Node6</title>
<path fill="none" stroke="midnightblue" d="M291.519,-169.859C295.063,-169.227 298.596,-168.6 302,-168 386.001,-153.199 485.306,-136.22 533.631,-127.991"/>
<polygon fill="midnightblue" stroke="midnightblue" points="290.832,-166.426 281.605,-171.634 292.066,-173.317 290.832,-166.426"/>
</g>
<!-- Node7 -->
<g id="node8" class="node"><title>Node7</title>
<g id="a_node8"><a xlink:href="fplll_8cpp.html" target="_top" xlink:title="fplll/fplll.cpp">
<polygon fill="white" stroke="black" points="245,-56.5 245,-75.5 313,-75.5 313,-56.5 245,-56.5"/>
<text text-anchor="middle" x="279" y="-63.5" font-family="Helvetica,sans-Serif" font-size="10.00">fplll/fplll.cpp</text>
</a>
</g>
</g>
<!-- Node6&#45;&gt;Node7 -->
<g id="edge7" class="edge"><title>Node6&#45;&gt;Node7</title>
<path fill="none" stroke="midnightblue" d="M524.065,-113.597C468.173,-102.97 366.105,-83.5622 313.055,-73.4753"/>
<polygon fill="midnightblue" stroke="midnightblue" points="523.464,-117.045 533.942,-115.475 524.771,-110.168 523.464,-117.045"/>
</g>
<!-- Node8 -->
<g id="node9" class="node"><title>Node8</title>
<g id="a_node9"><a xlink:href="main_8h.html" target="_top" xlink:title="fplll/main.h">
<polygon fill="white" stroke="black" points="1051,-56.5 1051,-75.5 1115,-75.5 1115,-56.5 1051,-56.5"/>
<text text-anchor="middle" x="1083" y="-63.5" font-family="Helvetica,sans-Serif" font-size="10.00">fplll/main.h</text>
</a>
</g>
</g>
<!-- Node6&#45;&gt;Node8 -->
<g id="edge8" class="edge"><title>Node6&#45;&gt;Node8</title>
<path fill="none" stroke="midnightblue" d="M602.154,-118.95C684.143,-114.299 879.728,-101.335 1042,-76 1044.88,-75.5503 1047.86,-75.0215 1050.84,-74.4491"/>
<polygon fill="midnightblue" stroke="midnightblue" points="601.83,-115.462 592.04,-119.514 602.219,-122.451 601.83,-115.462"/>
</g>
<!-- Node10 -->
<g id="node11" class="node"><title>Node10</title>
<g id="a_node11"><a xlink:href="sieve__main_8cpp.html" target="_top" xlink:title="fplll/sieve/sieve_main.cpp">
<polygon fill="white" stroke="black" points="903.5,-56.5 903.5,-75.5 1032.5,-75.5 1032.5,-56.5 903.5,-56.5"/>
<text text-anchor="middle" x="968" y="-63.5" font-family="Helvetica,sans-Serif" font-size="10.00">fplll/sieve/sieve_main.cpp</text>
</a>
</g>
</g>
<!-- Node6&#45;&gt;Node10 -->
<g id="edge10" class="edge"><title>Node6&#45;&gt;Node10</title>
<path fill="none" stroke="midnightblue" d="M602.284,-115.762C672.314,-106.425 819.305,-86.826 904.064,-75.5248"/>
<polygon fill="midnightblue" stroke="midnightblue" points="601.576,-112.325 592.127,-117.116 602.501,-119.264 601.576,-112.325"/>
</g>
<!-- Node11 -->
<g id="node12" class="node"><title>Node11</title>
<g id="a_node12"><a xlink:href="test__bkz_8cpp.html" target="_top" xlink:title="tests/test_bkz.cpp">
<polygon fill="white" stroke="black" points="826,-0.5 826,-19.5 924,-19.5 924,-0.5 826,-0.5"/>
<text text-anchor="middle" x="875" y="-7.5" font-family="Helvetica,sans-Serif" font-size="10.00">tests/test_bkz.cpp</text>
</a>
</g>
</g>
<!-- Node6&#45;&gt;Node11 -->
<g id="edge11" class="edge"><title>Node6&#45;&gt;Node11</title>
<path fill="none" stroke="midnightblue" d="M602.718,-120.041C673.845,-117.513 818.995,-108.417 856,-76 872.449,-61.5905 875.026,-33.8067 875.205,-19.6899"/>
<polygon fill="midnightblue" stroke="midnightblue" points="602.254,-116.554 592.374,-120.381 602.484,-123.55 602.254,-116.554"/>
</g>
<!-- Node12 -->
<g id="node13" class="node"><title>Node12</title>
<g id="a_node13"><a xlink:href="test__cvp_8cpp.html" target="_top" xlink:title="tests/test_cvp.cpp">
<polygon fill="white" stroke="black" points="113,-0.5 113,-19.5 211,-19.5 211,-0.5 113,-0.5"/>
<text text-anchor="middle" x="162" y="-7.5" font-family="Helvetica,sans-Serif" font-size="10.00">tests/test_cvp.cpp</text>
</a>
</g>
</g>
<!-- Node6&#45;&gt;Node12 -->
<g id="edge12" class="edge"><title>Node6&#45;&gt;Node12</title>
<path fill="none" stroke="midnightblue" d="M523.959,-114.653C483.529,-107.497 418.852,-94.4106 365,-76 345.056,-69.1818 341.765,-63.3215 322,-56 280.6,-40.6642 231.535,-27.5858 198.755,-19.5443"/>
<polygon fill="midnightblue" stroke="midnightblue" points="523.492,-118.124 533.943,-116.386 524.689,-111.227 523.492,-118.124"/>
</g>
<!-- Node13 -->
<g id="node14" class="node"><title>Node13</title>
<g id="a_node14"><a xlink:href="test__lll_8cpp.html" target="_top" xlink:title="tests/test_lll.cpp">
<polygon fill="white" stroke="black" points="229.5,-0.5 229.5,-19.5 318.5,-19.5 318.5,-0.5 229.5,-0.5"/>
<text text-anchor="middle" x="274" y="-7.5" font-family="Helvetica,sans-Serif" font-size="10.00">tests/test_lll.cpp</text>
</a>
</g>
</g>
<!-- Node6&#45;&gt;Node13 -->
<g id="edge13" class="edge"><title>Node6&#45;&gt;Node13</title>
<path fill="none" stroke="midnightblue" d="M524.242,-110.649C494.326,-102.298 452.088,-89.7146 416,-76 369.62,-58.3743 316.987,-32.7327 290.741,-19.5422"/>
<polygon fill="midnightblue" stroke="midnightblue" points="523.318,-114.025 533.889,-113.315 525.182,-107.278 523.318,-114.025"/>
</g>
<!-- Node14 -->
<g id="node15" class="node"><title>Node14</title>
<g id="a_node15"><a xlink:href="test__lll__gram_8cpp.html" target="_top" xlink:title="tests/test_lll_gram.cpp">
<polygon fill="white" stroke="black" points="336,-0.5 336,-19.5 452,-19.5 452,-0.5 336,-0.5"/>
<text text-anchor="middle" x="394" y="-7.5" font-family="Helvetica,sans-Serif" font-size="10.00">tests/test_lll_gram.cpp</text>
</a>
</g>
</g>
<!-- Node6&#45;&gt;Node14 -->
<g id="edge14" class="edge"><title>Node6&#45;&gt;Node14</title>
<path fill="none" stroke="midnightblue" d="M524.15,-113.902C497.484,-107.506 462.453,-95.946 437,-76 417.404,-60.6437 403.763,-33.783 397.641,-19.8885"/>
<polygon fill="midnightblue" stroke="midnightblue" points="523.397,-117.321 533.922,-116.108 524.938,-110.492 523.397,-117.321"/>
</g>
<!-- Node15 -->
<g id="node16" class="node"><title>Node15</title>
<g id="a_node16"><a xlink:href="test__nr_8cpp.html" target="_top" xlink:title="tests/test_nr.cpp">
<polygon fill="white" stroke="black" points="629,-56.5 629,-75.5 719,-75.5 719,-56.5 629,-56.5"/>
<text text-anchor="middle" x="674" y="-63.5" font-family="Helvetica,sans-Serif" font-size="10.00">tests/test_nr.cpp</text>
</a>
</g>
</g>
<!-- Node6&#45;&gt;Node15 -->
<g id="edge15" class="edge"><title>Node6&#45;&gt;Node15</title>
<path fill="none" stroke="midnightblue" d="M590.005,-107.862C610.588,-97.8492 638.345,-84.3458 656.21,-75.6545"/>
<polygon fill="midnightblue" stroke="midnightblue" points="588.295,-104.802 580.834,-112.324 591.358,-111.097 588.295,-104.802"/>
</g>
<!-- Node16 -->
<g id="node17" class="node"><title>Node16</title>
<g id="a_node17"><a xlink:href="test__pruner_8cpp.html" target="_top" xlink:title="tests/test_pruner.cpp">
<polygon fill="white" stroke="black" points="737.5,-56.5 737.5,-75.5 846.5,-75.5 846.5,-56.5 737.5,-56.5"/>
<text text-anchor="middle" x="792" y="-63.5" font-family="Helvetica,sans-Serif" font-size="10.00">tests/test_pruner.cpp</text>
</a>
</g>
</g>
<!-- Node6&#45;&gt;Node16 -->
<g id="edge16" class="edge"><title>Node6&#45;&gt;Node16</title>
<path fill="none" stroke="midnightblue" d="M601.827,-111.844C644.857,-101.698 713.706,-85.4623 755.695,-75.5611"/>
<polygon fill="midnightblue" stroke="midnightblue" points="600.933,-108.459 592.003,-114.161 602.539,-115.272 600.933,-108.459"/>
</g>
<!-- Node17 -->
<g id="node18" class="node"><title>Node17</title>
<g id="a_node18"><a xlink:href="test__sieve_8cpp.html" target="_top" xlink:title="tests/test_sieve.cpp">
<polygon fill="white" stroke="black" points="586.5,-0.5 586.5,-19.5 691.5,-19.5 691.5,-0.5 586.5,-0.5"/>
<text text-anchor="middle" x="639" y="-7.5" font-family="Helvetica,sans-Serif" font-size="10.00">tests/test_sieve.cpp</text>
</a>
</g>
</g>
<!-- Node6&#45;&gt;Node17 -->
<g id="edge17" class="edge"><title>Node6&#45;&gt;Node17</title>
<path fill="none" stroke="midnightblue" d="M567.13,-102.628C570.813,-88.9263 577.166,-70.2034 587,-56 597.466,-40.8836 614.158,-27.6696 625.797,-19.5395"/>
<polygon fill="midnightblue" stroke="midnightblue" points="563.726,-101.812 564.733,-112.358 570.523,-103.486 563.726,-101.812"/>
</g>
<!-- Node18 -->
<g id="node19" class="node"><title>Node18</title>
<g id="a_node19"><a xlink:href="test__svp_8cpp.html" target="_top" xlink:title="tests/test_svp.cpp">
<polygon fill="white" stroke="black" points="710,-0.5 710,-19.5 808,-19.5 808,-0.5 710,-0.5"/>
<text text-anchor="middle" x="759" y="-7.5" font-family="Helvetica,sans-Serif" font-size="10.00">tests/test_svp.cpp</text>
</a>
</g>
</g>
<!-- Node6&#45;&gt;Node18 -->
<g id="edge18" class="edge"><title>Node6&#45;&gt;Node18</title>
<path fill="none" stroke="midnightblue" d="M574.359,-103.435C584.652,-88.817 601.075,-68.4527 620,-56 647.864,-37.6653 683.778,-26.293 712.121,-19.5681"/>
<polygon fill="midnightblue" stroke="midnightblue" points="571.221,-101.826 568.515,-112.07 577.019,-105.749 571.221,-101.826"/>
</g>
<!-- Node19 -->
<g id="node20" class="node"><title>Node19</title>
<g id="a_node20"><a xlink:href="test__utils_8h.html" target="_top" xlink:title="tests/test_utils.h">
<polygon fill="white" stroke="black" points="445.5,-56.5 445.5,-75.5 534.5,-75.5 534.5,-56.5 445.5,-56.5"/>
<text text-anchor="middle" x="490" y="-63.5" font-family="Helvetica,sans-Serif" font-size="10.00">tests/test_utils.h</text>
</a>
</g>
</g>
<!-- Node6&#45;&gt;Node19 -->
<g id="edge19" class="edge"><title>Node6&#45;&gt;Node19</title>
<path fill="none" stroke="midnightblue" d="M542.858,-106.101C529.721,-96.3824 513.018,-84.0269 501.942,-75.8339"/>
<polygon fill="midnightblue" stroke="midnightblue" points="541.15,-109.191 551.271,-112.324 545.313,-103.563 541.15,-109.191"/>
</g>
<!-- Node9 -->
<g id="node10" class="node"><title>Node9</title>
<g id="a_node10"><a xlink:href="main_8cpp.html" target="_top" xlink:title="fplll/main.cpp">
<polygon fill="white" stroke="black" points="1046,-0.5 1046,-19.5 1120,-19.5 1120,-0.5 1046,-0.5"/>
<text text-anchor="middle" x="1083" y="-7.5" font-family="Helvetica,sans-Serif" font-size="10.00">fplll/main.cpp</text>
</a>
</g>
</g>
<!-- Node8&#45;&gt;Node9 -->
<g id="edge9" class="edge"><title>Node8&#45;&gt;Node9</title>
<path fill="none" stroke="midnightblue" d="M1083,-45.8045C1083,-36.9102 1083,-26.7798 1083,-19.7511"/>
<polygon fill="midnightblue" stroke="midnightblue" points="1079.5,-46.083 1083,-56.083 1086.5,-46.083 1079.5,-46.083"/>
</g>
<!-- Node19&#45;&gt;Node11 -->
<g id="edge20" class="edge"><title>Node19&#45;&gt;Node11</title>
<path fill="none" stroke="midnightblue" d="M544.747,-57.7585C609.725,-49.096 721.331,-34.0043 817,-20 819.924,-19.572 822.93,-19.1255 825.961,-18.6701"/>
<polygon fill="midnightblue" stroke="midnightblue" points="544.179,-54.3031 534.728,-59.0924 545.103,-61.2419 544.179,-54.3031"/>
</g>
<!-- Node19&#45;&gt;Node12 -->
<g id="edge21" class="edge"><title>Node19&#45;&gt;Node12</title>
<path fill="none" stroke="midnightblue" d="M435.348,-56.0023C372.763,-45.6988 271.151,-28.97 211.027,-19.0715"/>
<polygon fill="midnightblue" stroke="midnightblue" points="434.987,-59.4901 445.423,-57.6611 436.125,-52.5831 434.987,-59.4901"/>
</g>
<!-- Node19&#45;&gt;Node13 -->
<g id="edge23" class="edge"><title>Node19&#45;&gt;Node13</title>
<path fill="none" stroke="midnightblue" d="M445.836,-53.959C405.039,-43.7598 345.287,-28.8217 308.066,-19.5164"/>
<polygon fill="midnightblue" stroke="midnightblue" points="445.224,-57.4136 455.774,-56.4435 446.922,-50.6226 445.224,-57.4136"/>
</g>
<!-- Node19&#45;&gt;Node14 -->
<g id="edge24" class="edge"><title>Node19&#45;&gt;Node14</title>
<path fill="none" stroke="midnightblue" d="M465.426,-51.1774C447.761,-41.2407 424.487,-28.1492 409.386,-19.6545"/>
<polygon fill="midnightblue" stroke="midnightblue" points="464.144,-54.4718 474.576,-56.324 467.576,-48.3708 464.144,-54.4718"/>
</g>
<!-- Node19&#45;&gt;Node17 -->
<g id="edge25" class="edge"><title>Node19&#45;&gt;Node17</title>
<path fill="none" stroke="midnightblue" d="M523.371,-52.9058C551.384,-42.7536 590.696,-28.5063 615.501,-19.5164"/>
<polygon fill="midnightblue" stroke="midnightblue" points="521.819,-49.7456 513.609,-56.4435 524.204,-56.3267 521.819,-49.7456"/>
</g>
<!-- Node19&#45;&gt;Node18 -->
<g id="edge26" class="edge"><title>Node19&#45;&gt;Node18</title>
<path fill="none" stroke="midnightblue" d="M542.438,-54.4734C593.277,-44.2678 669.436,-28.9794 716.576,-19.5164"/>
<polygon fill="midnightblue" stroke="midnightblue" points="541.739,-51.0437 532.624,-56.4435 543.117,-57.9068 541.739,-51.0437"/>
</g>
<!-- Node20 -->
<g id="node21" class="node"><title>Node20</title>
<g id="a_node21"><a xlink:href="test__gso_8cpp.html" target="_top" xlink:title="tests/test_gso.cpp">
<polygon fill="white" stroke="black" points="470,-0.5 470,-19.5 568,-19.5 568,-0.5 470,-0.5"/>
<text text-anchor="middle" x="519" y="-7.5" font-family="Helvetica,sans-Serif" font-size="10.00">tests/test_gso.cpp</text>
</a>
</g>
</g>
<!-- Node19&#45;&gt;Node20 -->
<g id="edge22" class="edge"><title>Node19&#45;&gt;Node20</title>
<path fill="none" stroke="midnightblue" d="M499.676,-46.9827C504.598,-37.8168 510.358,-27.0922 514.3,-19.7511"/>
<polygon fill="midnightblue" stroke="midnightblue" points="496.437,-45.6171 494.789,-56.083 502.604,-48.929 496.437,-45.6171"/>
</g>
<!-- Node22&#45;&gt;Node7 -->
<g id="edge30" class="edge"><title>Node22&#45;&gt;Node7</title>
<path fill="none" stroke="midnightblue" d="M342.38,-159.957C326.126,-136.118 297.211,-93.7088 284.858,-75.5914"/>
<polygon fill="midnightblue" stroke="midnightblue" points="339.59,-162.078 348.115,-168.368 345.373,-158.135 339.59,-162.078"/>
</g>
<!-- Node25&#45;&gt;Node22 -->
<g id="edge38" class="edge"><title>Node25&#45;&gt;Node22</title>
<path fill="none" stroke="midnightblue" d="M435.925,-353.676C422.352,-346.128 407.017,-335.478 397,-322 364.834,-278.721 356.551,-211.368 354.576,-187.632"/>
<polygon fill="midnightblue" stroke="midnightblue" points="434.471,-356.865 444.954,-358.403 437.718,-350.664 434.471,-356.865"/>
</g>
<!-- Node26 -->
<g id="node27" class="node"><title>Node26</title>
<g id="a_node27"><a xlink:href="topenum_8cpp.html" target="_top" xlink:title="fplll/enum/topenum.cpp">
<polygon fill="white" stroke="black" points="406,-297 406,-316 524,-316 524,-297 406,-297"/>
<text text-anchor="middle" x="465" y="-304" font-family="Helvetica,sans-Serif" font-size="10.00">fplll/enum/topenum.cpp</text>
</a>
</g>
</g>
<!-- Node25&#45;&gt;Node26 -->
<g id="edge37" class="edge"><title>Node25&#45;&gt;Node26</title>
<path fill="none" stroke="midnightblue" d="M465,-348.317C465,-337.496 465,-324.398 465,-316.009"/>
<polygon fill="midnightblue" stroke="midnightblue" points="461.5,-348.475 465,-358.475 468.5,-348.475 461.5,-348.475"/>
</g>
<!-- Node27&#45;&gt;Node6 -->
<g id="edge40" class="edge"><title>Node27&#45;&gt;Node6</title>
<path fill="none" stroke="midnightblue" d="M531.085,-220.005C539.39,-194.761 553.946,-150.519 560.111,-131.782"/>
<polygon fill="midnightblue" stroke="midnightblue" points="527.657,-219.226 527.856,-229.819 534.306,-221.413 527.657,-219.226"/>
</g>
<!-- Node27&#45;&gt;Node22 -->
<g id="edge41" class="edge"><title>Node27&#45;&gt;Node22</title>
<path fill="none" stroke="midnightblue" d="M490.75,-226.583C457.511,-215.017 407.893,-197.752 378.455,-187.509"/>
<polygon fill="midnightblue" stroke="midnightblue" points="489.905,-229.994 500.5,-229.975 492.205,-223.383 489.905,-229.994"/>
</g>
</g>
</svg>
