<?xml version="1.0" encoding="UTF-8" standalone="no"?>
<!DOCTYPE svg PUBLIC "-//W3C//DTD SVG 1.1//EN"
 "http://www.w3.org/Graphics/SVG/1.1/DTD/svg11.dtd">
<!-- Generated by graphviz version 2.40.1 (20161225.0304)
 -->
<!-- Title: fplll/wrapper.h Pages: 1 -->
<svg width="1927pt" height="207pt"
 viewBox="0.00 0.00 1927.00 207.00" xmlns="http://www.w3.org/2000/svg" xmlns:xlink="http://www.w3.org/1999/xlink">
<g id="graph0" class="graph" transform="scale(1 1) rotate(0) translate(4 203)">
<title>fplll/wrapper.h</title>
<polygon fill="#ffffff" stroke="transparent" points="-4,4 -4,-203 1923,-203 1923,4 -4,4"/>
<!-- Node0 -->
<g id="node1" class="node">
<title>Node0</title>
<polygon fill="#bfbfbf" stroke="#000000" points="960.5,-179.5 960.5,-198.5 1037.5,-198.5 1037.5,-179.5 960.5,-179.5"/>
<text text-anchor="middle" x="999" y="-186.5" font-family="Helvetica,sans-Serif" font-size="10.00" fill="#000000">fplll/wrapper.h</text>
</g>
<!-- Node1 -->
<g id="node2" class="node">
<title>Node1</title>
<g id="a_node2"><a xlink:href="bkz_8cpp.html" target="_top" xlink:title="fplll/bkz.cpp">
<polygon fill="#ffffff" stroke="#000000" points="844.5,-123.5 844.5,-142.5 913.5,-142.5 913.5,-123.5 844.5,-123.5"/>
<text text-anchor="middle" x="879" y="-130.5" font-family="Helvetica,sans-Serif" font-size="10.00" fill="#000000">fplll/bkz.cpp</text>
</a>
</g>
</g>
<!-- Node0&#45;&gt;Node1 -->
<g id="edge1" class="edge">
<title>Node0&#45;&gt;Node1</title>
<path fill="none" stroke="#191970" d="M969.2376,-175.1109C947.4768,-164.9559 918.5318,-151.4482 899.3595,-142.5011"/>
<polygon fill="#191970" stroke="#191970" points="967.8293,-178.316 978.3713,-179.3733 970.7895,-171.9727 967.8293,-178.316"/>
</g>
<!-- Node2 -->
<g id="node3" class="node">
<title>Node2</title>
<g id="a_node3"><a xlink:href="fplll_8h.html" target="_top" xlink:title="fplll/fplll.h">
<polygon fill="#ffffff" stroke="#000000" points="970,-123.5 970,-142.5 1028,-142.5 1028,-123.5 970,-123.5"/>
<text text-anchor="middle" x="999" y="-130.5" font-family="Helvetica,sans-Serif" font-size="10.00" fill="#000000">fplll/fplll.h</text>
</a>
</g>
</g>
<!-- Node0&#45;&gt;Node2 -->
<g id="edge2" class="edge">
<title>Node0&#45;&gt;Node2</title>
<path fill="none" stroke="#191970" d="M999,-169.1575C999,-160.155 999,-149.9199 999,-142.6427"/>
<polygon fill="#191970" stroke="#191970" points="995.5001,-169.2455 999,-179.2455 1002.5001,-169.2456 995.5001,-169.2455"/>
</g>
<!-- Node3 -->
<g id="node4" class="node">
<title>Node3</title>
<g id="a_node4"><a xlink:href="fplll_8cpp.html" target="_top" xlink:title="fplll/fplll.cpp">
<polygon fill="#ffffff" stroke="#000000" points="0,-62 0,-81 68,-81 68,-62 0,-62"/>
<text text-anchor="middle" x="34" y="-69" font-family="Helvetica,sans-Serif" font-size="10.00" fill="#000000">fplll/fplll.cpp</text>
</a>
</g>
</g>
<!-- Node0&#45;&gt;Node3 -->
<g id="edge43" class="edge">
<title>Node0&#45;&gt;Node3</title>
<path fill="none" stroke="#191970" d="M984.8135,-171.4773C970.7581,-155.5767 947.6644,-133.12 922,-123 747.1543,-54.0545 261.4125,-123.2839 77,-87 70.1482,-85.6519 62.9259,-83.399 56.3975,-81.0228"/>
<polygon fill="#191970" stroke="#191970" points="982.1552,-173.7541 991.3055,-179.0947 987.4828,-169.2135 982.1552,-173.7541"/>
</g>
<!-- Node28 -->
<g id="node29" class="node">
<title>Node28</title>
<g id="a_node29"><a xlink:href="sieve__gauss_8cpp.html" target="_top" xlink:title="fplll/sieve/sieve_gauss.cpp">
<polygon fill="#ffffff" stroke="#000000" points="1046,-123.5 1046,-142.5 1180,-142.5 1180,-123.5 1046,-123.5"/>
<text text-anchor="middle" x="1113" y="-130.5" font-family="Helvetica,sans-Serif" font-size="10.00" fill="#000000">fplll/sieve/sieve_gauss.cpp</text>
</a>
</g>
</g>
<!-- Node0&#45;&gt;Node28 -->
<g id="edge44" class="edge">
<title>Node0&#45;&gt;Node28</title>
<path fill="none" stroke="#191970" d="M1027.8321,-174.8368C1048.4395,-164.7139 1075.6082,-151.3679 1093.6584,-142.5011"/>
<polygon fill="#191970" stroke="#191970" points="1026.0297,-171.8227 1018.5973,-179.3733 1029.116,-178.1056 1026.0297,-171.8227"/>
</g>
<!-- Node29 -->
<g id="node30" class="node">
<title>Node29</title>
<g id="a_node30"><a xlink:href="wrapper_8cpp.html" target="_top" xlink:title="fplll/wrapper.cpp">
<polygon fill="#ffffff" stroke="#000000" points="1198,-123.5 1198,-142.5 1286,-142.5 1286,-123.5 1198,-123.5"/>
<text text-anchor="middle" x="1242" y="-130.5" font-family="Helvetica,sans-Serif" font-size="10.00" fill="#000000">fplll/wrapper.cpp</text>
</a>
</g>
</g>
<!-- Node0&#45;&gt;Node29 -->
<g id="edge45" class="edge">
<title>Node0&#45;&gt;Node29</title>
<path fill="none" stroke="#191970" d="M1047.2775,-177.8743C1092.0373,-167.5593 1157.9417,-152.3715 1200.421,-142.582"/>
<polygon fill="#191970" stroke="#191970" points="1046.4627,-174.4703 1037.5041,-180.1266 1048.0347,-181.2915 1046.4627,-174.4703"/>
</g>
<!-- Node2&#45;&gt;Node3 -->
<g id="edge3" class="edge">
<title>Node2&#45;&gt;Node3</title>
<path fill="none" stroke="#191970" d="M959.8907,-123.5793C958.5812,-123.368 957.2817,-123.1737 956,-123 568.5484,-70.4865 460.7009,-162.1669 77,-87 70.147,-85.6575 62.9244,-83.4064 56.3961,-81.0301"/>
<polygon fill="#191970" stroke="#191970" points="959.5185,-127.0705 969.9927,-125.4766 960.8106,-120.1908 959.5185,-127.0705"/>
</g>
<!-- Node4 -->
<g id="node5" class="node">
<title>Node4</title>
<g id="a_node5"><a xlink:href="main_8h.html" target="_top" xlink:title="fplll/main.h">
<polygon fill="#ffffff" stroke="#000000" points="1813,-62 1813,-81 1877,-81 1877,-62 1813,-62"/>
<text text-anchor="middle" x="1845" y="-69" font-family="Helvetica,sans-Serif" font-size="10.00" fill="#000000">fplll/main.h</text>
</a>
</g>
</g>
<!-- Node2&#45;&gt;Node4 -->
<g id="edge4" class="edge">
<title>Node2&#45;&gt;Node4</title>
<path fill="none" stroke="#191970" d="M1038.3164,-123.1036C1357.1673,-74.7669 1444.274,-123.9306 1761,-87 1778.2338,-84.9905 1797.2605,-81.5802 1812.8416,-78.4693"/>
<polygon fill="#191970" stroke="#191970" points="1037.6839,-119.6597 1028.3313,-124.6376 1038.7468,-126.5785 1037.6839,-119.6597"/>
</g>
<!-- Node6 -->
<g id="node7" class="node">
<title>Node6</title>
<g id="a_node7"><a xlink:href="pruner_8cpp.html" target="_top" xlink:title="fplll/pruner/pruner.cpp">
<polygon fill="#ffffff" stroke="#000000" points="371,-.5 371,-19.5 481,-19.5 481,-.5 371,-.5"/>
<text text-anchor="middle" x="426" y="-7.5" font-family="Helvetica,sans-Serif" font-size="10.00" fill="#000000">fplll/pruner/pruner.cpp</text>
</a>
</g>
</g>
<!-- Node2&#45;&gt;Node6 -->
<g id="edge6" class="edge">
<title>Node2&#45;&gt;Node6</title>
<path fill="none" stroke="#191970" d="M959.8836,-123.6286C958.5762,-123.4031 957.279,-123.1925 956,-123 899.7157,-114.5271 488.5482,-123.6507 445,-87 425.0896,-70.2431 424.222,-36.2593 425.1317,-19.6186"/>
<polygon fill="#191970" stroke="#191970" points="959.4912,-127.1178 969.9759,-125.5943 960.8295,-120.247 959.4912,-127.1178"/>
</g>
<!-- Node7 -->
<g id="node8" class="node">
<title>Node7</title>
<g id="a_node8"><a xlink:href="pruner__cost_8cpp.html" target="_top" xlink:title="fplll/pruner/pruner\l_cost.cpp">
<polygon fill="#ffffff" stroke="#000000" points="454,-56.5 454,-86.5 546,-86.5 546,-56.5 454,-56.5"/>
<text text-anchor="start" x="462" y="-74.5" font-family="Helvetica,sans-Serif" font-size="10.00" fill="#000000">fplll/pruner/pruner</text>
<text text-anchor="middle" x="500" y="-63.5" font-family="Helvetica,sans-Serif" font-size="10.00" fill="#000000">_cost.cpp</text>
</a>
</g>
</g>
<!-- Node2&#45;&gt;Node7 -->
<g id="edge7" class="edge">
<title>Node2&#45;&gt;Node7</title>
<path fill="none" stroke="#191970" d="M959.8786,-123.6607C958.5726,-123.4261 957.2771,-123.2048 956,-123 779.3186,-94.6656 730.9799,-119.4076 555,-87 552.0731,-86.461 549.0768,-85.8354 546.0677,-85.1511"/>
<polygon fill="#191970" stroke="#191970" points="959.4727,-127.1486 969.9639,-125.671 960.8411,-120.2836 959.4727,-127.1486"/>
</g>
<!-- Node8 -->
<g id="node9" class="node">
<title>Node8</title>
<g id="a_node9"><a xlink:href="pruner__optimize_8cpp.html" target="_top" xlink:title="fplll/pruner/pruner\l_optimize.cpp">
<polygon fill="#ffffff" stroke="#000000" points="822,-56.5 822,-86.5 914,-86.5 914,-56.5 822,-56.5"/>
<text text-anchor="start" x="830" y="-74.5" font-family="Helvetica,sans-Serif" font-size="10.00" fill="#000000">fplll/pruner/pruner</text>
<text text-anchor="middle" x="868" y="-63.5" font-family="Helvetica,sans-Serif" font-size="10.00" fill="#000000">_optimize.cpp</text>
</a>
</g>
</g>
<!-- Node2&#45;&gt;Node8 -->
<g id="edge9" class="edge">
<title>Node2&#45;&gt;Node8</title>
<path fill="none" stroke="#191970" d="M969.2933,-119.0537C948.6557,-109.3651 921.1763,-96.4644 900.0462,-86.5446"/>
<polygon fill="#191970" stroke="#191970" points="967.9917,-122.3092 978.5313,-123.3906 970.9665,-115.9727 967.9917,-122.3092"/>
</g>
<!-- Node9 -->
<g id="node10" class="node">
<title>Node9</title>
<g id="a_node10"><a xlink:href="pruner__optimize__tc_8cpp.html" target="_top" xlink:title="fplll/pruner/pruner\l_optimize_tc.cpp">
<polygon fill="#ffffff" stroke="#000000" points="712,-56.5 712,-86.5 804,-86.5 804,-56.5 712,-56.5"/>
<text text-anchor="start" x="720" y="-74.5" font-family="Helvetica,sans-Serif" font-size="10.00" fill="#000000">fplll/pruner/pruner</text>
<text text-anchor="middle" x="758" y="-63.5" font-family="Helvetica,sans-Serif" font-size="10.00" fill="#000000">_optimize_tc.cpp</text>
</a>
</g>
</g>
<!-- Node2&#45;&gt;Node9 -->
<g id="edge11" class="edge">
<title>Node2&#45;&gt;Node9</title>
<path fill="none" stroke="#191970" d="M959.8744,-123.7117C922.1705,-114.6695 863.5595,-100.3726 813,-87 810.1228,-86.239 807.1646,-85.4435 804.1839,-84.632"/>
<polygon fill="#191970" stroke="#191970" points="959.3904,-127.1947 969.9303,-126.1177 961.0192,-120.3868 959.3904,-127.1947"/>
</g>
<!-- Node10 -->
<g id="node11" class="node">
<title>Node10</title>
<g id="a_node11"><a xlink:href="pruner__optimize__tp_8cpp.html" target="_top" xlink:title="fplll/pruner/pruner\l_optimize_tp.cpp">
<polygon fill="#ffffff" stroke="#000000" points="86,-56.5 86,-86.5 178,-86.5 178,-56.5 86,-56.5"/>
<text text-anchor="start" x="94" y="-74.5" font-family="Helvetica,sans-Serif" font-size="10.00" fill="#000000">fplll/pruner/pruner</text>
<text text-anchor="middle" x="132" y="-63.5" font-family="Helvetica,sans-Serif" font-size="10.00" fill="#000000">_optimize_tp.cpp</text>
</a>
</g>
</g>
<!-- Node2&#45;&gt;Node10 -->
<g id="edge13" class="edge">
<title>Node2&#45;&gt;Node10</title>
<path fill="none" stroke="#191970" d="M959.8893,-123.5891C958.5802,-123.375 957.2812,-123.1775 956,-123 617.0837,-76.0553 524.7416,-141.76 187,-87 184.0622,-86.5237 181.0576,-85.9461 178.0423,-85.2976"/>
<polygon fill="#191970" stroke="#191970" points="959.5131,-127.08 969.9895,-125.5 960.8145,-120.202 959.5131,-127.08"/>
</g>
<!-- Node11 -->
<g id="node12" class="node">
<title>Node11</title>
<g id="a_node12"><a xlink:href="pruner__prob_8cpp.html" target="_top" xlink:title="fplll/pruner/pruner\l_prob.cpp">
<polygon fill="#ffffff" stroke="#000000" points="196,-56.5 196,-86.5 288,-86.5 288,-56.5 196,-56.5"/>
<text text-anchor="start" x="204" y="-74.5" font-family="Helvetica,sans-Serif" font-size="10.00" fill="#000000">fplll/pruner/pruner</text>
<text text-anchor="middle" x="242" y="-63.5" font-family="Helvetica,sans-Serif" font-size="10.00" fill="#000000">_prob.cpp</text>
</a>
</g>
</g>
<!-- Node2&#45;&gt;Node11 -->
<g id="edge15" class="edge">
<title>Node2&#45;&gt;Node11</title>
<path fill="none" stroke="#191970" d="M959.8875,-123.6022C958.5789,-123.3843 957.2805,-123.1824 956,-123 665.6075,-81.6225 586.3594,-135.0735 297,-87 294.0641,-86.5122 291.061,-85.9259 288.0467,-85.2709"/>
<polygon fill="#191970" stroke="#191970" points="959.506,-127.0925 969.9851,-125.5312 960.8195,-120.2169 959.506,-127.0925"/>
</g>
<!-- Node12 -->
<g id="node13" class="node">
<title>Node12</title>
<g id="a_node13"><a xlink:href="pruner__util_8cpp.html" target="_top" xlink:title="fplll/pruner/pruner\l_util.cpp">
<polygon fill="#ffffff" stroke="#000000" points="306,-56.5 306,-86.5 398,-86.5 398,-56.5 306,-56.5"/>
<text text-anchor="start" x="314" y="-74.5" font-family="Helvetica,sans-Serif" font-size="10.00" fill="#000000">fplll/pruner/pruner</text>
<text text-anchor="middle" x="352" y="-63.5" font-family="Helvetica,sans-Serif" font-size="10.00" fill="#000000">_util.cpp</text>
</a>
</g>
</g>
<!-- Node2&#45;&gt;Node12 -->
<g id="edge17" class="edge">
<title>Node2&#45;&gt;Node12</title>
<path fill="none" stroke="#191970" d="M959.8847,-123.6215C958.5769,-123.3981 957.2794,-123.1898 956,-123 716.3169,-87.44 651.2332,-125.4707 412,-87 407.4325,-86.2655 402.7065,-85.3404 398.0043,-84.3096"/>
<polygon fill="#191970" stroke="#191970" points="959.4952,-127.111 969.9784,-125.5773 960.8268,-120.2388 959.4952,-127.111"/>
</g>
<!-- Node13 -->
<g id="node14" class="node">
<title>Node13</title>
<g id="a_node14"><a xlink:href="sieve__main_8cpp.html" target="_top" xlink:title="fplll/sieve/sieve_main.cpp">
<polygon fill="#ffffff" stroke="#000000" points="564.5,-62 564.5,-81 693.5,-81 693.5,-62 564.5,-62"/>
<text text-anchor="middle" x="629" y="-69" font-family="Helvetica,sans-Serif" font-size="10.00" fill="#000000">fplll/sieve/sieve_main.cpp</text>
</a>
</g>
</g>
<!-- Node2&#45;&gt;Node13 -->
<g id="edge19" class="edge">
<title>Node2&#45;&gt;Node13</title>
<path fill="none" stroke="#191970" d="M959.8636,-123.7471C958.5619,-123.4877 957.2713,-123.2378 956,-123 844.3593,-102.1168 814.8639,-106.6527 703,-87 693.0454,-85.2511 682.3844,-83.1521 672.3425,-81.0716"/>
<polygon fill="#191970" stroke="#191970" points="959.4201,-127.2307 969.9281,-125.8774 960.8697,-120.3824 959.4201,-127.2307"/>
</g>
<!-- Node14 -->
<g id="node15" class="node">
<title>Node14</title>
<g id="a_node15"><a xlink:href="test__bkz_8cpp.html" target="_top" xlink:title="tests/test_bkz.cpp">
<polygon fill="#ffffff" stroke="#000000" points="616,-.5 616,-19.5 714,-19.5 714,-.5 616,-.5"/>
<text text-anchor="middle" x="665" y="-7.5" font-family="Helvetica,sans-Serif" font-size="10.00" fill="#000000">tests/test_bkz.cpp</text>
</a>
</g>
</g>
<!-- Node2&#45;&gt;Node14 -->
<g id="edge20" class="edge">
<title>Node2&#45;&gt;Node14</title>
<path fill="none" stroke="#191970" d="M983.0645,-115.7842C962.9986,-94.2778 930.2598,-59.8183 923,-56 920.6846,-54.7822 788.4144,-31.5513 714.1955,-18.5803"/>
<polygon fill="#191970" stroke="#191970" points="980.6821,-118.3619 990.0549,-123.3016 985.8083,-113.5951 980.6821,-118.3619"/>
</g>
<!-- Node15 -->
<g id="node16" class="node">
<title>Node15</title>
<g id="a_node16"><a xlink:href="test__bkz__gram_8cpp.html" target="_top" xlink:title="tests/test_bkz_gram.cpp">
<polygon fill="#ffffff" stroke="#000000" points="732.5,-.5 732.5,-19.5 857.5,-19.5 857.5,-.5 732.5,-.5"/>
<text text-anchor="middle" x="795" y="-7.5" font-family="Helvetica,sans-Serif" font-size="10.00" fill="#000000">tests/test_bkz_gram.cpp</text>
</a>
</g>
</g>
<!-- Node2&#45;&gt;Node15 -->
<g id="edge21" class="edge">
<title>Node2&#45;&gt;Node15</title>
<path fill="none" stroke="#191970" d="M992.9745,-113.6148C986.5477,-96.078 974.6861,-70.801 956,-56 938.5106,-42.1469 884.1103,-28.3682 843.3513,-19.5554"/>
<polygon fill="#191970" stroke="#191970" points="989.7575,-115.0265 996.2862,-123.3708 996.386,-112.7764 989.7575,-115.0265"/>
</g>
<!-- Node16 -->
<g id="node17" class="node">
<title>Node16</title>
<g id="a_node17"><a xlink:href="test__cvp_8cpp.html" target="_top" xlink:title="tests/test_cvp.cpp">
<polygon fill="#ffffff" stroke="#000000" points="876,-.5 876,-19.5 974,-19.5 974,-.5 876,-.5"/>
<text text-anchor="middle" x="925" y="-7.5" font-family="Helvetica,sans-Serif" font-size="10.00" fill="#000000">tests/test_cvp.cpp</text>
</a>
</g>
</g>
<!-- Node2&#45;&gt;Node16 -->
<g id="edge22" class="edge">
<title>Node2&#45;&gt;Node16</title>
<path fill="none" stroke="#191970" d="M1002.3251,-113.113C1004.04,-96.689 1004.0175,-73.342 994,-56 984.1342,-38.9206 965.0668,-26.9474 949.4719,-19.5067"/>
<polygon fill="#191970" stroke="#191970" points="998.8303,-112.8404 1000.9617,-123.2186 1005.7674,-113.7764 998.8303,-112.8404"/>
</g>
<!-- Node17 -->
<g id="node18" class="node">
<title>Node17</title>
<g id="a_node18"><a xlink:href="test__enum_8cpp.html" target="_top" xlink:title="tests/test_enum.cpp">
<polygon fill="#ffffff" stroke="#000000" points="1306,-62 1306,-81 1412,-81 1412,-62 1306,-62"/>
<text text-anchor="middle" x="1359" y="-69" font-family="Helvetica,sans-Serif" font-size="10.00" fill="#000000">tests/test_enum.cpp</text>
</a>
</g>
</g>
<!-- Node2&#45;&gt;Node17 -->
<g id="edge23" class="edge">
<title>Node2&#45;&gt;Node17</title>
<path fill="none" stroke="#191970" d="M1038.4303,-122.8988C1150.9835,-100.8002 1182.6575,-107.3262 1292,-87 1301.2731,-85.2762 1311.2033,-83.1402 1320.5021,-81.0106"/>
<polygon fill="#191970" stroke="#191970" points="1037.5002,-119.5153 1028.3789,-124.9053 1038.8707,-126.3799 1037.5002,-119.5153"/>
</g>
<!-- Node18 -->
<g id="node19" class="node">
<title>Node18</title>
<g id="a_node19"><a xlink:href="test__hlll_8cpp.html" target="_top" xlink:title="tests/test_hlll.cpp">
<polygon fill="#ffffff" stroke="#000000" points="992,-.5 992,-19.5 1086,-19.5 1086,-.5 992,-.5"/>
<text text-anchor="middle" x="1039" y="-7.5" font-family="Helvetica,sans-Serif" font-size="10.00" fill="#000000">tests/test_hlll.cpp</text>
</a>
</g>
</g>
<!-- Node2&#45;&gt;Node18 -->
<g id="edge24" class="edge">
<title>Node2&#45;&gt;Node18</title>
<path fill="none" stroke="#191970" d="M1014.7913,-115.6779C1021.2631,-107.5566 1028.1306,-97.3908 1032,-87 1040.5256,-64.1057 1040.4669,-34.846 1039.7206,-19.8432"/>
<polygon fill="#191970" stroke="#191970" points="1012.1113,-113.4267 1008.3324,-123.3247 1017.459,-117.9436 1012.1113,-113.4267"/>
</g>
<!-- Node19 -->
<g id="node20" class="node">
<title>Node19</title>
<g id="a_node20"><a xlink:href="test__lll_8cpp.html" target="_top" xlink:title="tests/test_lll.cpp">
<polygon fill="#ffffff" stroke="#000000" points="1104.5,-.5 1104.5,-19.5 1193.5,-19.5 1193.5,-.5 1104.5,-.5"/>
<text text-anchor="middle" x="1149" y="-7.5" font-family="Helvetica,sans-Serif" font-size="10.00" fill="#000000">tests/test_lll.cpp</text>
</a>
</g>
</g>
<!-- Node2&#45;&gt;Node19 -->
<g id="edge25" class="edge">
<title>Node2&#45;&gt;Node19</title>
<path fill="none" stroke="#191970" d="M1018.8859,-116.6935C1050.6119,-90.6783 1111.7044,-40.5824 1137.2844,-19.6068"/>
<polygon fill="#191970" stroke="#191970" points="1016.2837,-114.3011 1010.7702,-123.3484 1020.7222,-119.714 1016.2837,-114.3011"/>
</g>
<!-- Node20 -->
<g id="node21" class="node">
<title>Node20</title>
<g id="a_node21"><a xlink:href="test__lll__gram_8cpp.html" target="_top" xlink:title="tests/test_lll_gram.cpp">
<polygon fill="#ffffff" stroke="#000000" points="1327,-.5 1327,-19.5 1443,-19.5 1443,-.5 1327,-.5"/>
<text text-anchor="middle" x="1385" y="-7.5" font-family="Helvetica,sans-Serif" font-size="10.00" fill="#000000">tests/test_lll_gram.cpp</text>
</a>
</g>
</g>
<!-- Node2&#45;&gt;Node20 -->
<g id="edge26" class="edge">
<title>Node2&#45;&gt;Node20</title>
<path fill="none" stroke="#191970" d="M1038.6034,-122.8061C1119.8956,-105.5532 1146.7585,-118.3124 1220,-87 1241.9958,-77.5963 1242.8766,-67.2271 1264,-56 1293.0727,-40.5478 1328.4968,-27.7167 1353.482,-19.5671"/>
<polygon fill="#191970" stroke="#191970" points="1037.4192,-119.4835 1028.4131,-125.0638 1038.9335,-126.3177 1037.4192,-119.4835"/>
</g>
<!-- Node21 -->
<g id="node22" class="node">
<title>Node21</title>
<g id="a_node22"><a xlink:href="test__nr_8cpp.html" target="_top" xlink:title="tests/test_nr.cpp">
<polygon fill="#ffffff" stroke="#000000" points="1430,-62 1430,-81 1520,-81 1520,-62 1430,-62"/>
<text text-anchor="middle" x="1475" y="-69" font-family="Helvetica,sans-Serif" font-size="10.00" fill="#000000">tests/test_nr.cpp</text>
</a>
</g>
</g>
<!-- Node2&#45;&gt;Node21 -->
<g id="edge27" class="edge">
<title>Node2&#45;&gt;Node21</title>
<path fill="none" stroke="#191970" d="M1038.3489,-123.0191C1207.6105,-94.0455 1255.7651,-118.1786 1421,-87 1429.0509,-85.4809 1437.6324,-83.2898 1445.5294,-81.0314"/>
<polygon fill="#191970" stroke="#191970" points="1037.6003,-119.5968 1028.3528,-124.7673 1038.8063,-126.4922 1037.6003,-119.5968"/>
</g>
<!-- Node22 -->
<g id="node23" class="node">
<title>Node22</title>
<g id="a_node23"><a xlink:href="test__pruner_8cpp.html" target="_top" xlink:title="tests/test_pruner.cpp">
<polygon fill="#ffffff" stroke="#000000" points="1538.5,-62 1538.5,-81 1647.5,-81 1647.5,-62 1538.5,-62"/>
<text text-anchor="middle" x="1593" y="-69" font-family="Helvetica,sans-Serif" font-size="10.00" fill="#000000">tests/test_pruner.cpp</text>
</a>
</g>
</g>
<!-- Node2&#45;&gt;Node22 -->
<g id="edge28" class="edge">
<title>Node2&#45;&gt;Node22</title>
<path fill="none" stroke="#191970" d="M1038.4434,-123.041C1255.0928,-87.9609 1315.6671,-120.4053 1529,-87 1538.4875,-85.5144 1548.6395,-83.3349 1557.9984,-81.0768"/>
<polygon fill="#191970" stroke="#191970" points="1037.6396,-119.6262 1028.3424,-124.7068 1038.7787,-126.5329 1037.6396,-119.6262"/>
</g>
<!-- Node23 -->
<g id="node24" class="node">
<title>Node23</title>
<g id="a_node24"><a xlink:href="test__sieve_8cpp.html" target="_top" xlink:title="tests/test_sieve.cpp">
<polygon fill="#ffffff" stroke="#000000" points="1461.5,-.5 1461.5,-19.5 1566.5,-19.5 1566.5,-.5 1461.5,-.5"/>
<text text-anchor="middle" x="1514" y="-7.5" font-family="Helvetica,sans-Serif" font-size="10.00" fill="#000000">tests/test_sieve.cpp</text>
</a>
</g>
</g>
<!-- Node2&#45;&gt;Node23 -->
<g id="edge29" class="edge">
<title>Node2&#45;&gt;Node23</title>
<path fill="none" stroke="#191970" d="M1038.328,-122.9319C1135.5856,-103.8725 1168.2677,-124.6273 1256,-87 1276.9951,-77.9954 1276.2174,-65.4846 1297,-56 1325.7285,-42.8891 1406.7055,-27.6981 1461.1974,-18.4729"/>
<polygon fill="#191970" stroke="#191970" points="1037.4844,-119.532 1028.3928,-124.972 1038.8924,-126.389 1037.4844,-119.532"/>
</g>
<!-- Node24 -->
<g id="node25" class="node">
<title>Node24</title>
<g id="a_node25"><a xlink:href="test__svp_8cpp.html" target="_top" xlink:title="tests/test_svp.cpp">
<polygon fill="#ffffff" stroke="#000000" points="1585,-.5 1585,-19.5 1683,-19.5 1683,-.5 1585,-.5"/>
<text text-anchor="middle" x="1634" y="-7.5" font-family="Helvetica,sans-Serif" font-size="10.00" fill="#000000">tests/test_svp.cpp</text>
</a>
</g>
</g>
<!-- Node2&#45;&gt;Node24 -->
<g id="edge30" class="edge">
<title>Node2&#45;&gt;Node24</title>
<path fill="none" stroke="#191970" d="M1038.295,-123.4493C1141.0097,-113.8757 1611.3527,-135.3747 1657,-87 1674.9055,-68.0247 1654.3797,-35.6851 1642.0143,-19.6306"/>
<polygon fill="#191970" stroke="#191970" points="1037.8387,-119.9789 1028.3352,-124.6622 1038.685,-126.9276 1037.8387,-119.9789"/>
</g>
<!-- Node25 -->
<g id="node26" class="node">
<title>Node25</title>
<g id="a_node26"><a xlink:href="test__svp__gram_8cpp.html" target="_top" xlink:title="tests/test_svp_gram.cpp">
<polygon fill="#ffffff" stroke="#000000" points="1701.5,-.5 1701.5,-19.5 1826.5,-19.5 1826.5,-.5 1701.5,-.5"/>
<text text-anchor="middle" x="1764" y="-7.5" font-family="Helvetica,sans-Serif" font-size="10.00" fill="#000000">tests/test_svp_gram.cpp</text>
</a>
</g>
</g>
<!-- Node2&#45;&gt;Node25 -->
<g id="edge31" class="edge">
<title>Node2&#45;&gt;Node25</title>
<path fill="none" stroke="#191970" d="M1038.6775,-123.1466C1193.3367,-102.5535 1545.3973,-138.6764 1674,-87 1710.4436,-72.3559 1742.6055,-36.701 1756.5883,-19.5391"/>
<polygon fill="#191970" stroke="#191970" points="1037.7234,-119.7487 1028.3344,-124.6577 1038.7354,-126.6752 1037.7234,-119.7487"/>
</g>
<!-- Node26 -->
<g id="node27" class="node">
<title>Node26</title>
<g id="a_node27"><a xlink:href="test__utils_8h.html" target="_top" xlink:title="tests/test_utils.h">
<polygon fill="#ffffff" stroke="#000000" points="1122.5,-62 1122.5,-81 1211.5,-81 1211.5,-62 1122.5,-62"/>
<text text-anchor="middle" x="1167" y="-69" font-family="Helvetica,sans-Serif" font-size="10.00" fill="#000000">tests/test_utils.h</text>
</a>
</g>
</g>
<!-- Node2&#45;&gt;Node26 -->
<g id="edge32" class="edge">
<title>Node2&#45;&gt;Node26</title>
<path fill="none" stroke="#191970" d="M1034.6477,-119.9504C1066.4962,-108.2916 1112.4063,-91.4852 1140.9343,-81.0419"/>
<polygon fill="#191970" stroke="#191970" points="1033.4374,-116.6662 1025.25,-123.3906 1035.8438,-123.2396 1033.4374,-116.6662"/>
</g>
<!-- Node5 -->
<g id="node6" class="node">
<title>Node5</title>
<g id="a_node6"><a xlink:href="main_8cpp.html" target="_top" xlink:title="fplll/main.cpp">
<polygon fill="#ffffff" stroke="#000000" points="1845,-.5 1845,-19.5 1919,-19.5 1919,-.5 1845,-.5"/>
<text text-anchor="middle" x="1882" y="-7.5" font-family="Helvetica,sans-Serif" font-size="10.00" fill="#000000">fplll/main.cpp</text>
</a>
</g>
</g>
<!-- Node4&#45;&gt;Node5 -->
<g id="edge5" class="edge">
<title>Node4&#45;&gt;Node5</title>
<path fill="none" stroke="#191970" d="M1856.0785,-53.0857C1862.6686,-42.132 1870.7647,-28.6748 1876.1372,-19.7449"/>
<polygon fill="#191970" stroke="#191970" points="1852.9374,-51.5175 1850.7813,-61.8906 1858.9356,-55.1262 1852.9374,-51.5175"/>
</g>
<!-- Node7&#45;&gt;Node6 -->
<g id="edge8" class="edge">
<title>Node7&#45;&gt;Node6</title>
<path fill="none" stroke="#191970" d="M473.94,-49.8421C461.6323,-39.6133 447.5499,-27.9097 437.8483,-19.8469"/>
<polygon fill="#191970" stroke="#191970" points="471.78,-52.5979 481.7079,-56.2977 476.2542,-47.2143 471.78,-52.5979"/>
</g>
<!-- Node8&#45;&gt;Node6 -->
<g id="edge10" class="edge">
<title>Node8&#45;&gt;Node6</title>
<path fill="none" stroke="#191970" d="M811.9303,-55.9769C688.7392,-32.0355 554.7026,-19.5355 481.2207,-13.8326"/>
<polygon fill="#191970" stroke="#191970" points="811.425,-59.4446 821.9135,-57.9473 812.7805,-52.5771 811.425,-59.4446"/>
</g>
<!-- Node9&#45;&gt;Node6 -->
<g id="edge12" class="edge">
<title>Node9&#45;&gt;Node6</title>
<path fill="none" stroke="#191970" d="M702.305,-56.0676C702.2032,-56.045 702.1016,-56.0225 702,-56 625.9899,-39.1951 536.9912,-25.4042 481.0493,-17.4389"/>
<polygon fill="#191970" stroke="#191970" points="701.4147,-59.4536 711.9511,-58.3422 703.0214,-52.6404 701.4147,-59.4536"/>
</g>
<!-- Node10&#45;&gt;Node6 -->
<g id="edge14" class="edge">
<title>Node10&#45;&gt;Node6</title>
<path fill="none" stroke="#191970" d="M188.1799,-55.8264C256.248,-39.9571 324.3173,-27.3659 370.6604,-19.2825"/>
<polygon fill="#191970" stroke="#191970" points="187.0708,-52.4918 178.1397,-58.1915 188.6758,-59.3054 187.0708,-52.4918"/>
</g>
<!-- Node11&#45;&gt;Node6 -->
<g id="edge16" class="edge">
<title>Node11&#45;&gt;Node6</title>
<path fill="none" stroke="#191970" d="M296.5728,-53.2596C329.7012,-42.1868 370.635,-28.5052 397.4865,-19.5303"/>
<polygon fill="#191970" stroke="#191970" points="295.3862,-49.9658 287.0115,-56.4554 297.6052,-56.6048 295.3862,-49.9658"/>
</g>
<!-- Node12&#45;&gt;Node6 -->
<g id="edge18" class="edge">
<title>Node12&#45;&gt;Node6</title>
<path fill="none" stroke="#191970" d="M378.06,-49.8421C390.3677,-39.6133 404.4501,-27.9097 414.1517,-19.8469"/>
<polygon fill="#191970" stroke="#191970" points="375.7458,-47.2143 370.2921,-56.2977 380.22,-52.5979 375.7458,-47.2143"/>
</g>
<!-- Node26&#45;&gt;Node14 -->
<g id="edge33" class="edge">
<title>Node26&#45;&gt;Node14</title>
<path fill="none" stroke="#191970" d="M1112.402,-66.1485C1028.5046,-57.7038 862.9058,-40.159 723,-20 720.0671,-19.5774 717.0543,-19.1222 714.0175,-18.6472"/>
<polygon fill="#191970" stroke="#191970" points="1112.1664,-69.6423 1122.4656,-67.1572 1112.8646,-62.6772 1112.1664,-69.6423"/>
</g>
<!-- Node26&#45;&gt;Node15 -->
<g id="edge34" class="edge">
<title>Node26&#45;&gt;Node15</title>
<path fill="none" stroke="#191970" d="M1112.2042,-62.441C1042.7245,-50.9545 923.4749,-31.2398 852.6591,-19.5324"/>
<polygon fill="#191970" stroke="#191970" points="1112.0606,-65.9647 1122.4976,-64.1427 1113.2024,-59.0585 1112.0606,-65.9647"/>
</g>
<!-- Node26&#45;&gt;Node16 -->
<g id="edge35" class="edge">
<title>Node26&#45;&gt;Node16</title>
<path fill="none" stroke="#191970" d="M1119.7327,-59.4878C1073.8051,-47.8162 1004.9721,-30.3235 962.6351,-19.5643"/>
<polygon fill="#191970" stroke="#191970" points="1118.899,-62.8872 1129.453,-61.9581 1120.6232,-56.1028 1118.899,-62.8872"/>
</g>
<!-- Node26&#45;&gt;Node18 -->
<g id="edge37" class="edge">
<title>Node26&#45;&gt;Node18</title>
<path fill="none" stroke="#191970" d="M1137.9361,-57.5357C1113.7739,-45.9265 1080.033,-29.7151 1058.8596,-19.5419"/>
<polygon fill="#191970" stroke="#191970" points="1136.4706,-60.7146 1147,-61.8906 1139.5022,-54.4051 1136.4706,-60.7146"/>
</g>
<!-- Node26&#45;&gt;Node19 -->
<g id="edge38" class="edge">
<title>Node26&#45;&gt;Node19</title>
<path fill="none" stroke="#191970" d="M1161.317,-52.0832C1158.167,-41.3205 1154.3866,-28.4042 1151.8522,-19.7449"/>
<polygon fill="#191970" stroke="#191970" points="1158.0194,-53.2764 1164.1875,-61.8906 1164.7375,-51.3101 1158.0194,-53.2764"/>
</g>
<!-- Node26&#45;&gt;Node20 -->
<g id="edge39" class="edge">
<title>Node26&#45;&gt;Node20</title>
<path fill="none" stroke="#191970" d="M1210.8733,-59.1229C1252.2648,-47.4459 1313.4402,-30.1877 1351.1767,-19.5419"/>
<polygon fill="#191970" stroke="#191970" points="1209.7365,-55.8069 1201.0625,-61.8906 1211.6372,-62.544 1209.7365,-55.8069"/>
</g>
<!-- Node26&#45;&gt;Node23 -->
<g id="edge40" class="edge">
<title>Node26&#45;&gt;Node23</title>
<path fill="none" stroke="#191970" d="M1221.8006,-61.7875C1287.4362,-50.1547 1396.6065,-30.8061 1461.2974,-19.3407"/>
<polygon fill="#191970" stroke="#191970" points="1220.8895,-58.3943 1211.6538,-63.5859 1222.1112,-65.2869 1220.8895,-58.3943"/>
</g>
<!-- Node26&#45;&gt;Node24 -->
<g id="edge41" class="edge">
<title>Node26&#45;&gt;Node24</title>
<path fill="none" stroke="#191970" d="M1221.6052,-64.8989C1316.485,-53.3803 1508.0473,-29.895 1575,-20 1578.186,-19.5291 1581.4656,-19.0257 1584.7693,-18.5044"/>
<polygon fill="#191970" stroke="#191970" points="1221.1351,-61.4302 1211.6295,-66.1091 1221.9782,-68.3792 1221.1351,-61.4302"/>
</g>
<!-- Node26&#45;&gt;Node25 -->
<g id="edge42" class="edge">
<title>Node26&#45;&gt;Node25</title>
<path fill="none" stroke="#191970" d="M1221.7887,-64.6252C1244.9749,-61.8047 1272.2881,-58.5988 1297,-56 1472.3164,-37.5629 1516.8701,-40.1311 1692,-20 1695.009,-19.6541 1698.0866,-19.2852 1701.1935,-18.9006"/>
<polygon fill="#191970" stroke="#191970" points="1221.2891,-61.1601 1211.7882,-65.8488 1222.1393,-68.1083 1221.2891,-61.1601"/>
</g>
<!-- Node27 -->
<g id="node28" class="node">
<title>Node27</title>
<g id="a_node28"><a xlink:href="test__gso_8cpp.html" target="_top" xlink:title="tests/test_gso.cpp">
<polygon fill="#ffffff" stroke="#000000" points="1211,-.5 1211,-19.5 1309,-19.5 1309,-.5 1211,-.5"/>
<text text-anchor="middle" x="1260" y="-7.5" font-family="Helvetica,sans-Serif" font-size="10.00" fill="#000000">tests/test_gso.cpp</text>
</a>
</g>
</g>
<!-- Node26&#45;&gt;Node27 -->
<g id="edge36" class="edge">
<title>Node26&#45;&gt;Node27</title>
<path fill="none" stroke="#191970" d="M1190.0065,-56.286C1207.3962,-44.7864 1230.7315,-29.355 1245.5708,-19.5419"/>
<polygon fill="#191970" stroke="#191970" points="1187.9418,-53.4553 1181.5313,-61.8906 1191.803,-59.2941 1187.9418,-53.4553"/>
</g>
</g>
</svg>
