<?xml version="1.0" encoding="UTF-8" standalone="no"?>
<!DOCTYPE svg PUBLIC "-//W3C//DTD SVG 1.1//EN"
 "http://www.w3.org/Graphics/SVG/1.1/DTD/svg11.dtd">
<!-- Generated by graphviz version 2.43.0 (0)
 -->
<!-- Title: fplll/wrapper.h Pages: 1 -->
<svg width="1783pt" height="207pt"
 viewBox="0.00 0.00 1783.00 207.00" xmlns="http://www.w3.org/2000/svg" xmlns:xlink="http://www.w3.org/1999/xlink">
<g id="graph0" class="graph" transform="scale(1 1) rotate(0) translate(4 203)">
<title>fplll/wrapper.h</title>
<polygon fill="white" stroke="transparent" points="-4,4 -4,-203 1779,-203 1779,4 -4,4"/>
<!-- Node1 -->
<g id="node1" class="node">
<title>Node1</title>
<g id="a_node1"><a xlink:title=" ">
<polygon fill="#bfbfbf" stroke="black" points="802.5,-179.5 802.5,-198.5 879.5,-198.5 879.5,-179.5 802.5,-179.5"/>
<text text-anchor="middle" x="841" y="-186.5" font-family="Helvetica,sans-Serif" font-size="10.00">fplll/wrapper.h</text>
</a>
</g>
</g>
<!-- Node2 -->
<g id="node2" class="node">
<title>Node2</title>
<g id="a_node2"><a xlink:href="bkz_8cpp.html" target="_top" xlink:title=" ">
<polygon fill="white" stroke="black" points="715.5,-123.5 715.5,-142.5 784.5,-142.5 784.5,-123.5 715.5,-123.5"/>
<text text-anchor="middle" x="750" y="-130.5" font-family="Helvetica,sans-Serif" font-size="10.00">fplll/bkz.cpp</text>
</a>
</g>
</g>
<!-- Node1&#45;&gt;Node2 -->
<g id="edge1" class="edge">
<title>Node1&#45;&gt;Node2</title>
<path fill="none" stroke="midnightblue" d="M817.71,-174.18C800.96,-164.24 778.9,-151.15 764.58,-142.65"/>
<polygon fill="midnightblue" stroke="midnightblue" points="815.99,-177.23 826.38,-179.32 819.57,-171.21 815.99,-177.23"/>
</g>
<!-- Node3 -->
<g id="node3" class="node">
<title>Node3</title>
<g id="a_node3"><a xlink:href="fplll_8cpp.html" target="_top" xlink:title=" ">
<polygon fill="white" stroke="black" points="0,-62 0,-81 68,-81 68,-62 0,-62"/>
<text text-anchor="middle" x="34" y="-69" font-family="Helvetica,sans-Serif" font-size="10.00">fplll/fplll.cpp</text>
</a>
</g>
</g>
<!-- Node1&#45;&gt;Node3 -->
<g id="edge2" class="edge">
<title>Node1&#45;&gt;Node3</title>
<path fill="none" stroke="midnightblue" d="M833.31,-170.2C825.58,-154.72 812.06,-133.23 793,-123 722.81,-85.34 155.26,-101.87 77,-87 69.88,-85.65 62.32,-83.39 55.56,-81.06"/>
<polygon fill="midnightblue" stroke="midnightblue" points="830.16,-171.73 837.56,-179.32 836.51,-168.77 830.16,-171.73"/>
</g>
<!-- Node4 -->
<g id="node4" class="node">
<title>Node4</title>
<g id="a_node4"><a xlink:href="fplll_8h.html" target="_top" xlink:title=" ">
<polygon fill="white" stroke="black" points="841,-123.5 841,-142.5 899,-142.5 899,-123.5 841,-123.5"/>
<text text-anchor="middle" x="870" y="-130.5" font-family="Helvetica,sans-Serif" font-size="10.00">fplll/fplll.h</text>
</a>
</g>
</g>
<!-- Node1&#45;&gt;Node4 -->
<g id="edge3" class="edge">
<title>Node1&#45;&gt;Node4</title>
<path fill="none" stroke="midnightblue" d="M850.68,-169.98C855.6,-160.82 861.36,-150.09 865.3,-142.75"/>
<polygon fill="midnightblue" stroke="midnightblue" points="847.44,-168.62 845.79,-179.08 853.6,-171.93 847.44,-168.62"/>
</g>
<!-- Node28 -->
<g id="node28" class="node">
<title>Node28</title>
<g id="a_node28"><a xlink:href="wrapper_8cpp.html" target="_top" xlink:title=" ">
<polygon fill="white" stroke="black" points="917.5,-123.5 917.5,-142.5 1004.5,-142.5 1004.5,-123.5 917.5,-123.5"/>
<text text-anchor="middle" x="961" y="-130.5" font-family="Helvetica,sans-Serif" font-size="10.00">fplll/wrapper.cpp</text>
</a>
</g>
</g>
<!-- Node1&#45;&gt;Node28 -->
<g id="edge43" class="edge">
<title>Node1&#45;&gt;Node28</title>
<path fill="none" stroke="midnightblue" d="M869.37,-175.23C891.82,-165.13 922.54,-151.31 942.07,-142.52"/>
<polygon fill="midnightblue" stroke="midnightblue" points="867.7,-172.15 860.01,-179.44 870.57,-178.53 867.7,-172.15"/>
</g>
<!-- Node4&#45;&gt;Node3 -->
<g id="edge4" class="edge">
<title>Node4&#45;&gt;Node3</title>
<path fill="none" stroke="midnightblue" d="M830.88,-123.54C829.57,-123.34 828.28,-123.16 827,-123 495.98,-80.68 404.92,-148.91 77,-87 69.88,-85.66 62.32,-83.4 55.56,-81.07"/>
<polygon fill="midnightblue" stroke="midnightblue" points="830.51,-127.03 840.96,-125.27 831.7,-120.13 830.51,-127.03"/>
</g>
<!-- Node5 -->
<g id="node5" class="node">
<title>Node5</title>
<g id="a_node5"><a xlink:href="main_8h.html" target="_top" xlink:title=" ">
<polygon fill="white" stroke="black" points="1665,-62 1665,-81 1729,-81 1729,-62 1665,-62"/>
<text text-anchor="middle" x="1697" y="-69" font-family="Helvetica,sans-Serif" font-size="10.00">fplll/main.h</text>
</a>
</g>
</g>
<!-- Node4&#45;&gt;Node5 -->
<g id="edge5" class="edge">
<title>Node4&#45;&gt;Node5</title>
<path fill="none" stroke="midnightblue" d="M909.52,-123.05C1219.06,-79.71 1302.75,-120.37 1610,-87 1628.27,-85.02 1648.53,-81.71 1664.89,-78.75"/>
<polygon fill="midnightblue" stroke="midnightblue" points="908.77,-119.62 899.36,-124.49 909.75,-126.55 908.77,-119.62"/>
</g>
<!-- Node7 -->
<g id="node7" class="node">
<title>Node7</title>
<g id="a_node7"><a xlink:href="pruner_8cpp.html" target="_top" xlink:title=" ">
<polygon fill="white" stroke="black" points="344,-0.5 344,-19.5 454,-19.5 454,-0.5 344,-0.5"/>
<text text-anchor="middle" x="399" y="-7.5" font-family="Helvetica,sans-Serif" font-size="10.00">fplll/pruner/pruner.cpp</text>
</a>
</g>
</g>
<!-- Node4&#45;&gt;Node7 -->
<g id="edge7" class="edge">
<title>Node4&#45;&gt;Node7</title>
<path fill="none" stroke="midnightblue" d="M835.62,-119.81C815.62,-111.94 790.41,-100.62 770,-87 753.26,-75.83 755.19,-64.61 737,-56 626,-3.42 584.7,-36.55 463,-20 460.11,-19.61 457.15,-19.2 454.15,-18.79"/>
<polygon fill="midnightblue" stroke="midnightblue" points="834.39,-123.09 844.98,-123.4 836.9,-116.55 834.39,-123.09"/>
</g>
<!-- Node8 -->
<g id="node8" class="node">
<title>Node8</title>
<g id="a_node8"><a xlink:href="pruner__cost_8cpp.html" target="_top" xlink:title=" ">
<polygon fill="white" stroke="black" points="526,-56.5 526,-86.5 618,-86.5 618,-56.5 526,-56.5"/>
<text text-anchor="start" x="534" y="-74.5" font-family="Helvetica,sans-Serif" font-size="10.00">fplll/pruner/pruner</text>
<text text-anchor="middle" x="572" y="-63.5" font-family="Helvetica,sans-Serif" font-size="10.00">_cost.cpp</text>
</a>
</g>
</g>
<!-- Node4&#45;&gt;Node8 -->
<g id="edge8" class="edge">
<title>Node4&#45;&gt;Node8</title>
<path fill="none" stroke="midnightblue" d="M830.84,-123.76C829.55,-123.5 828.26,-123.25 827,-123 738.35,-105.75 715.18,-106.53 627,-87 624.11,-86.36 621.14,-85.67 618.15,-84.95"/>
<polygon fill="midnightblue" stroke="midnightblue" points="830.38,-127.23 840.88,-125.79 831.77,-120.37 830.38,-127.23"/>
</g>
<!-- Node9 -->
<g id="node9" class="node">
<title>Node9</title>
<g id="a_node9"><a xlink:href="pruner__optimize_8cpp.html" target="_top" xlink:title=" ">
<polygon fill="white" stroke="black" points="196,-56.5 196,-86.5 288,-86.5 288,-56.5 196,-56.5"/>
<text text-anchor="start" x="204" y="-74.5" font-family="Helvetica,sans-Serif" font-size="10.00">fplll/pruner/pruner</text>
<text text-anchor="middle" x="242" y="-63.5" font-family="Helvetica,sans-Serif" font-size="10.00">_optimize.cpp</text>
</a>
</g>
</g>
<!-- Node4&#45;&gt;Node9 -->
<g id="edge10" class="edge">
<title>Node4&#45;&gt;Node9</title>
<path fill="none" stroke="midnightblue" d="M830.87,-123.57C829.57,-123.37 828.27,-123.18 827,-123 593.12,-90.74 529.98,-125.27 297,-87 294.08,-86.52 291.08,-85.95 288.08,-85.33"/>
<polygon fill="midnightblue" stroke="midnightblue" points="830.49,-127.06 840.95,-125.35 831.71,-120.17 830.49,-127.06"/>
</g>
<!-- Node10 -->
<g id="node10" class="node">
<title>Node10</title>
<g id="a_node10"><a xlink:href="pruner__optimize__tc_8cpp.html" target="_top" xlink:title=" ">
<polygon fill="white" stroke="black" points="306,-56.5 306,-86.5 398,-86.5 398,-56.5 306,-56.5"/>
<text text-anchor="start" x="314" y="-74.5" font-family="Helvetica,sans-Serif" font-size="10.00">fplll/pruner/pruner</text>
<text text-anchor="middle" x="352" y="-63.5" font-family="Helvetica,sans-Serif" font-size="10.00">_optimize_tc.cpp</text>
</a>
</g>
</g>
<!-- Node4&#45;&gt;Node10 -->
<g id="edge12" class="edge">
<title>Node4&#45;&gt;Node10</title>
<path fill="none" stroke="midnightblue" d="M830.87,-123.6C829.57,-123.39 828.27,-123.19 827,-123 641.64,-95.76 591.6,-119 407,-87 404.08,-86.49 401.09,-85.91 398.09,-85.27"/>
<polygon fill="midnightblue" stroke="midnightblue" points="830.48,-127.09 840.94,-125.42 831.72,-120.2 830.48,-127.09"/>
</g>
<!-- Node11 -->
<g id="node11" class="node">
<title>Node11</title>
<g id="a_node11"><a xlink:href="pruner__optimize__tp_8cpp.html" target="_top" xlink:title=" ">
<polygon fill="white" stroke="black" points="416,-56.5 416,-86.5 508,-86.5 508,-56.5 416,-56.5"/>
<text text-anchor="start" x="424" y="-74.5" font-family="Helvetica,sans-Serif" font-size="10.00">fplll/pruner/pruner</text>
<text text-anchor="middle" x="462" y="-63.5" font-family="Helvetica,sans-Serif" font-size="10.00">_optimize_tp.cpp</text>
</a>
</g>
</g>
<!-- Node4&#45;&gt;Node11 -->
<g id="edge14" class="edge">
<title>Node4&#45;&gt;Node11</title>
<path fill="none" stroke="midnightblue" d="M830.86,-123.65C829.56,-123.42 828.27,-123.21 827,-123 690.09,-100.77 653.29,-112.74 517,-87 514.09,-86.45 511.1,-85.83 508.1,-85.16"/>
<polygon fill="midnightblue" stroke="midnightblue" points="830.45,-127.14 840.92,-125.54 831.74,-120.26 830.45,-127.14"/>
</g>
<!-- Node12 -->
<g id="node12" class="node">
<title>Node12</title>
<g id="a_node12"><a xlink:href="pruner__prob_8cpp.html" target="_top" xlink:title=" ">
<polygon fill="white" stroke="black" points="86,-56.5 86,-86.5 178,-86.5 178,-56.5 86,-56.5"/>
<text text-anchor="start" x="94" y="-74.5" font-family="Helvetica,sans-Serif" font-size="10.00">fplll/pruner/pruner</text>
<text text-anchor="middle" x="132" y="-63.5" font-family="Helvetica,sans-Serif" font-size="10.00">_prob.cpp</text>
</a>
</g>
</g>
<!-- Node4&#45;&gt;Node12 -->
<g id="edge16" class="edge">
<title>Node4&#45;&gt;Node12</title>
<path fill="none" stroke="midnightblue" d="M830.88,-123.55C829.57,-123.35 828.28,-123.17 827,-123 544.56,-85.71 468.39,-131.54 187,-87 184.07,-86.54 181.08,-85.98 178.07,-85.37"/>
<polygon fill="midnightblue" stroke="midnightblue" points="830.51,-127.04 840.96,-125.3 831.7,-120.14 830.51,-127.04"/>
</g>
<!-- Node13 -->
<g id="node13" class="node">
<title>Node13</title>
<g id="a_node13"><a xlink:href="pruner__util_8cpp.html" target="_top" xlink:title=" ">
<polygon fill="white" stroke="black" points="636,-56.5 636,-86.5 728,-86.5 728,-56.5 636,-56.5"/>
<text text-anchor="start" x="644" y="-74.5" font-family="Helvetica,sans-Serif" font-size="10.00">fplll/pruner/pruner</text>
<text text-anchor="middle" x="682" y="-63.5" font-family="Helvetica,sans-Serif" font-size="10.00">_util.cpp</text>
</a>
</g>
</g>
<!-- Node4&#45;&gt;Node13 -->
<g id="edge18" class="edge">
<title>Node4&#45;&gt;Node13</title>
<path fill="none" stroke="midnightblue" d="M833.21,-120.36C802.58,-110.66 758.86,-96.83 726.31,-86.52"/>
<polygon fill="midnightblue" stroke="midnightblue" points="832.47,-123.79 843.06,-123.48 834.59,-117.12 832.47,-123.79"/>
</g>
<!-- Node14 -->
<g id="node14" class="node">
<title>Node14</title>
<g id="a_node14"><a xlink:href="test__bkz_8cpp.html" target="_top" xlink:title=" ">
<polygon fill="white" stroke="black" points="472,-0.5 472,-19.5 570,-19.5 570,-0.5 472,-0.5"/>
<text text-anchor="middle" x="521" y="-7.5" font-family="Helvetica,sans-Serif" font-size="10.00">tests/test_bkz.cpp</text>
</a>
</g>
</g>
<!-- Node4&#45;&gt;Node14 -->
<g id="edge20" class="edge">
<title>Node4&#45;&gt;Node14</title>
<path fill="none" stroke="midnightblue" d="M849.33,-117.44C837.17,-108.77 821.57,-97.45 808,-87 790.73,-73.7 789.8,-65.12 770,-56 760.97,-51.84 640.24,-31.07 570.27,-19.25"/>
<polygon fill="midnightblue" stroke="midnightblue" points="847.32,-120.3 857.5,-123.24 851.37,-114.6 847.32,-120.3"/>
</g>
<!-- Node15 -->
<g id="node15" class="node">
<title>Node15</title>
<g id="a_node15"><a xlink:href="test__bkz__gram_8cpp.html" target="_top" xlink:title=" ">
<polygon fill="white" stroke="black" points="588.5,-0.5 588.5,-19.5 713.5,-19.5 713.5,-0.5 588.5,-0.5"/>
<text text-anchor="middle" x="651" y="-7.5" font-family="Helvetica,sans-Serif" font-size="10.00">tests/test_bkz_gram.cpp</text>
</a>
</g>
</g>
<!-- Node4&#45;&gt;Node15 -->
<g id="edge21" class="edge">
<title>Node4&#45;&gt;Node15</title>
<path fill="none" stroke="midnightblue" d="M860.08,-114.44C849.39,-97.1 830.82,-71.04 808,-56 779.24,-37.04 742.41,-25.94 711.66,-19.51"/>
<polygon fill="midnightblue" stroke="midnightblue" points="857.33,-116.67 865.43,-123.5 863.36,-113.11 857.33,-116.67"/>
</g>
<!-- Node16 -->
<g id="node16" class="node">
<title>Node16</title>
<g id="a_node16"><a xlink:href="test__counter_8cpp.html" target="_top" xlink:title=" ">
<polygon fill="white" stroke="black" points="1158.5,-62 1158.5,-81 1271.5,-81 1271.5,-62 1158.5,-62"/>
<text text-anchor="middle" x="1215" y="-69" font-family="Helvetica,sans-Serif" font-size="10.00">tests/test_counter.cpp</text>
</a>
</g>
</g>
<!-- Node4&#45;&gt;Node16 -->
<g id="edge22" class="edge">
<title>Node4&#45;&gt;Node16</title>
<path fill="none" stroke="midnightblue" d="M909.42,-122.85C1013.88,-102.91 1042.71,-105.06 1144,-87 1154.03,-85.21 1164.82,-83.1 1174.89,-81.06"/>
<polygon fill="midnightblue" stroke="midnightblue" points="908.56,-119.45 899.41,-124.79 909.89,-126.33 908.56,-119.45"/>
</g>
<!-- Node17 -->
<g id="node17" class="node">
<title>Node17</title>
<g id="a_node17"><a xlink:href="test__cvp_8cpp.html" target="_top" xlink:title=" ">
<polygon fill="white" stroke="black" points="732,-0.5 732,-19.5 830,-19.5 830,-0.5 732,-0.5"/>
<text text-anchor="middle" x="781" y="-7.5" font-family="Helvetica,sans-Serif" font-size="10.00">tests/test_cvp.cpp</text>
</a>
</g>
</g>
<!-- Node4&#45;&gt;Node17 -->
<g id="edge23" class="edge">
<title>Node4&#45;&gt;Node17</title>
<path fill="none" stroke="midnightblue" d="M867.56,-113.18C864.67,-96.78 858.55,-73.01 846,-56 833.94,-39.65 814.1,-27.17 799.51,-19.54"/>
<polygon fill="midnightblue" stroke="midnightblue" points="864.12,-113.84 869.09,-123.19 871.04,-112.78 864.12,-113.84"/>
</g>
<!-- Node18 -->
<g id="node18" class="node">
<title>Node18</title>
<g id="a_node18"><a xlink:href="test__enum_8cpp.html" target="_top" xlink:title=" ">
<polygon fill="white" stroke="black" points="848,-0.5 848,-19.5 954,-19.5 954,-0.5 848,-0.5"/>
<text text-anchor="middle" x="901" y="-7.5" font-family="Helvetica,sans-Serif" font-size="10.00">tests/test_enum.cpp</text>
</a>
</g>
</g>
<!-- Node4&#45;&gt;Node18 -->
<g id="edge24" class="edge">
<title>Node4&#45;&gt;Node18</title>
<path fill="none" stroke="midnightblue" d="M876.02,-113.85C878.63,-105.68 881.62,-95.9 884,-87 890.42,-62.96 896.39,-34.22 899.24,-19.95"/>
<polygon fill="midnightblue" stroke="midnightblue" points="872.66,-112.84 872.89,-123.43 879.32,-115.01 872.66,-112.84"/>
</g>
<!-- Node19 -->
<g id="node19" class="node">
<title>Node19</title>
<g id="a_node19"><a xlink:href="test__hlll_8cpp.html" target="_top" xlink:title=" ">
<polygon fill="white" stroke="black" points="972,-0.5 972,-19.5 1066,-19.5 1066,-0.5 972,-0.5"/>
<text text-anchor="middle" x="1019" y="-7.5" font-family="Helvetica,sans-Serif" font-size="10.00">tests/test_hlll.cpp</text>
</a>
</g>
</g>
<!-- Node4&#45;&gt;Node19 -->
<g id="edge25" class="edge">
<title>Node4&#45;&gt;Node19</title>
<path fill="none" stroke="midnightblue" d="M888.75,-116.77C920.38,-91.09 983.35,-39.95 1008.38,-19.62"/>
<polygon fill="midnightblue" stroke="midnightblue" points="886.27,-114.28 880.72,-123.3 890.68,-119.71 886.27,-114.28"/>
</g>
<!-- Node20 -->
<g id="node20" class="node">
<title>Node20</title>
<g id="a_node20"><a xlink:href="test__lll_8cpp.html" target="_top" xlink:title=" ">
<polygon fill="white" stroke="black" points="1200.5,-0.5 1200.5,-19.5 1289.5,-19.5 1289.5,-0.5 1200.5,-0.5"/>
<text text-anchor="middle" x="1245" y="-7.5" font-family="Helvetica,sans-Serif" font-size="10.00">tests/test_lll.cpp</text>
</a>
</g>
</g>
<!-- Node4&#45;&gt;Node20 -->
<g id="edge26" class="edge">
<title>Node4&#45;&gt;Node20</title>
<path fill="none" stroke="midnightblue" d="M908.8,-122.92C982.71,-107.21 1006.51,-115.85 1072,-87 1093.89,-77.36 1094.72,-66.93 1116,-56 1147.43,-39.85 1185.98,-27.25 1212.71,-19.55"/>
<polygon fill="midnightblue" stroke="midnightblue" points="908.05,-119.5 899.03,-125.07 909.55,-126.34 908.05,-119.5"/>
</g>
<!-- Node21 -->
<g id="node21" class="node">
<title>Node21</title>
<g id="a_node21"><a xlink:href="test__lll__gram_8cpp.html" target="_top" xlink:title=" ">
<polygon fill="white" stroke="black" points="1307,-0.5 1307,-19.5 1423,-19.5 1423,-0.5 1307,-0.5"/>
<text text-anchor="middle" x="1365" y="-7.5" font-family="Helvetica,sans-Serif" font-size="10.00">tests/test_lll_gram.cpp</text>
</a>
</g>
</g>
<!-- Node4&#45;&gt;Node21 -->
<g id="edge27" class="edge">
<title>Node4&#45;&gt;Node21</title>
<path fill="none" stroke="midnightblue" d="M909.03,-122.95C998.52,-105.83 1028.18,-121.95 1108,-87 1128.93,-77.84 1128.2,-65.45 1149,-56 1177.25,-43.17 1256.24,-28.56 1310.45,-19.56"/>
<polygon fill="midnightblue" stroke="midnightblue" points="908.13,-119.56 899.01,-124.96 909.5,-126.43 908.13,-119.56"/>
</g>
<!-- Node22 -->
<g id="node22" class="node">
<title>Node22</title>
<g id="a_node22"><a xlink:href="test__nr_8cpp.html" target="_top" xlink:title=" ">
<polygon fill="white" stroke="black" points="1289.5,-62 1289.5,-81 1378.5,-81 1378.5,-62 1289.5,-62"/>
<text text-anchor="middle" x="1334" y="-69" font-family="Helvetica,sans-Serif" font-size="10.00">tests/test_nr.cpp</text>
</a>
</g>
</g>
<!-- Node4&#45;&gt;Node22 -->
<g id="edge28" class="edge">
<title>Node4&#45;&gt;Node22</title>
<path fill="none" stroke="midnightblue" d="M909.34,-122.99C1073.65,-96.59 1119.75,-116.06 1280,-87 1288.41,-85.48 1297.41,-83.29 1305.62,-81.07"/>
<polygon fill="midnightblue" stroke="midnightblue" points="908.68,-119.55 899.38,-124.62 909.81,-126.46 908.68,-119.55"/>
</g>
<!-- Node23 -->
<g id="node23" class="node">
<title>Node23</title>
<g id="a_node23"><a xlink:href="test__pruner_8cpp.html" target="_top" xlink:title=" ">
<polygon fill="white" stroke="black" points="1397,-62 1397,-81 1505,-81 1505,-62 1397,-62"/>
<text text-anchor="middle" x="1451" y="-69" font-family="Helvetica,sans-Serif" font-size="10.00">tests/test_pruner.cpp</text>
</a>
</g>
</g>
<!-- Node4&#45;&gt;Node23 -->
<g id="edge29" class="edge">
<title>Node4&#45;&gt;Node23</title>
<path fill="none" stroke="midnightblue" d="M909.54,-123C1120.79,-91.17 1179.17,-118.18 1387,-87 1397.03,-85.5 1407.82,-83.28 1417.63,-81.04"/>
<polygon fill="midnightblue" stroke="midnightblue" points="908.72,-119.59 899.37,-124.56 909.78,-126.51 908.72,-119.59"/>
</g>
<!-- Node24 -->
<g id="node24" class="node">
<title>Node24</title>
<g id="a_node24"><a xlink:href="test__svp_8cpp.html" target="_top" xlink:title=" ">
<polygon fill="white" stroke="black" points="1441,-0.5 1441,-19.5 1539,-19.5 1539,-0.5 1441,-0.5"/>
<text text-anchor="middle" x="1490" y="-7.5" font-family="Helvetica,sans-Serif" font-size="10.00">tests/test_svp.cpp</text>
</a>
</g>
</g>
<!-- Node4&#45;&gt;Node24 -->
<g id="edge30" class="edge">
<title>Node4&#45;&gt;Node24</title>
<path fill="none" stroke="midnightblue" d="M909.43,-123.39C1010.71,-114.79 1469.46,-134.27 1514,-87 1532.03,-67.87 1510.08,-35.27 1497.56,-19.73"/>
<polygon fill="midnightblue" stroke="midnightblue" points="908.91,-119.93 899.36,-124.52 909.69,-126.88 908.91,-119.93"/>
</g>
<!-- Node25 -->
<g id="node25" class="node">
<title>Node25</title>
<g id="a_node25"><a xlink:href="test__svp__gram_8cpp.html" target="_top" xlink:title=" ">
<polygon fill="white" stroke="black" points="1557.5,-0.5 1557.5,-19.5 1682.5,-19.5 1682.5,-0.5 1557.5,-0.5"/>
<text text-anchor="middle" x="1620" y="-7.5" font-family="Helvetica,sans-Serif" font-size="10.00">tests/test_svp_gram.cpp</text>
</a>
</g>
</g>
<!-- Node4&#45;&gt;Node25 -->
<g id="edge31" class="edge">
<title>Node4&#45;&gt;Node25</title>
<path fill="none" stroke="midnightblue" d="M909.5,-123.14C1061.14,-104.51 1405.22,-137.56 1531,-87 1567.57,-72.3 1599.83,-36.23 1613.3,-19.63"/>
<polygon fill="midnightblue" stroke="midnightblue" points="908.8,-119.71 899.36,-124.51 909.74,-126.64 908.8,-119.71"/>
</g>
<!-- Node26 -->
<g id="node26" class="node">
<title>Node26</title>
<g id="a_node26"><a xlink:href="test__utils_8h.html" target="_top" xlink:title=" ">
<polygon fill="white" stroke="black" points="974.5,-62 974.5,-81 1063.5,-81 1063.5,-62 974.5,-62"/>
<text text-anchor="middle" x="1019" y="-69" font-family="Helvetica,sans-Serif" font-size="10.00">tests/test_utils.h</text>
</a>
</g>
</g>
<!-- Node4&#45;&gt;Node26 -->
<g id="edge32" class="edge">
<title>Node4&#45;&gt;Node26</title>
<path fill="none" stroke="midnightblue" d="M900.97,-119.63C929.92,-108.07 972.37,-91.12 997.69,-81.01"/>
<polygon fill="midnightblue" stroke="midnightblue" points="899.34,-116.52 891.35,-123.48 901.93,-123.02 899.34,-116.52"/>
</g>
<!-- Node6 -->
<g id="node6" class="node">
<title>Node6</title>
<g id="a_node6"><a xlink:href="main_8cpp.html" target="_top" xlink:title=" ">
<polygon fill="white" stroke="black" points="1701,-0.5 1701,-19.5 1775,-19.5 1775,-0.5 1701,-0.5"/>
<text text-anchor="middle" x="1738" y="-7.5" font-family="Helvetica,sans-Serif" font-size="10.00">fplll/main.cpp</text>
</a>
</g>
</g>
<!-- Node5&#45;&gt;Node6 -->
<g id="edge6" class="edge">
<title>Node5&#45;&gt;Node6</title>
<path fill="none" stroke="midnightblue" d="M1708.71,-53.51C1716.37,-42.39 1726.05,-28.34 1732.14,-19.51"/>
<polygon fill="midnightblue" stroke="midnightblue" points="1705.67,-51.75 1702.87,-61.98 1711.43,-55.73 1705.67,-51.75"/>
</g>
<!-- Node8&#45;&gt;Node7 -->
<g id="edge9" class="edge">
<title>Node8&#45;&gt;Node7</title>
<path fill="none" stroke="midnightblue" d="M521.34,-53.08C489.29,-42.05 449.28,-28.29 423.92,-19.57"/>
<polygon fill="midnightblue" stroke="midnightblue" points="520.41,-56.46 531,-56.4 522.68,-49.84 520.41,-56.46"/>
</g>
<!-- Node9&#45;&gt;Node7 -->
<g id="edge11" class="edge">
<title>Node9&#45;&gt;Node7</title>
<path fill="none" stroke="midnightblue" d="M288.7,-52.8C317.56,-41.86 353.32,-28.31 376.16,-19.66"/>
<polygon fill="midnightblue" stroke="midnightblue" points="287.32,-49.58 279.21,-56.4 289.8,-56.13 287.32,-49.58"/>
</g>
<!-- Node10&#45;&gt;Node7 -->
<g id="edge13" class="edge">
<title>Node10&#45;&gt;Node7</title>
<path fill="none" stroke="midnightblue" d="M369.45,-48.4C377.35,-38.41 386.22,-27.18 392.16,-19.66"/>
<polygon fill="midnightblue" stroke="midnightblue" points="366.59,-46.38 363.14,-56.4 372.08,-50.72 366.59,-46.38"/>
</g>
<!-- Node11&#45;&gt;Node7 -->
<g id="edge15" class="edge">
<title>Node11&#45;&gt;Node7</title>
<path fill="none" stroke="midnightblue" d="M439.55,-49.3C428.74,-39.09 416.37,-27.41 408.17,-19.66"/>
<polygon fill="midnightblue" stroke="midnightblue" points="437.4,-52.08 447.07,-56.4 442.2,-46.99 437.4,-52.08"/>
</g>
<!-- Node12&#45;&gt;Node7 -->
<g id="edge17" class="edge">
<title>Node12&#45;&gt;Node7</title>
<path fill="none" stroke="midnightblue" d="M187.99,-55.82C251.75,-40.8 314.98,-27.73 355.82,-19.52"/>
<polygon fill="midnightblue" stroke="midnightblue" points="187.1,-52.44 178.17,-58.15 188.71,-59.25 187.1,-52.44"/>
</g>
<!-- Node13&#45;&gt;Node7 -->
<g id="edge19" class="edge">
<title>Node13&#45;&gt;Node7</title>
<path fill="none" stroke="midnightblue" d="M625.88,-55.82C558.38,-40.46 490.88,-27.6 446.78,-19.53"/>
<polygon fill="midnightblue" stroke="midnightblue" points="625.31,-59.28 635.84,-58.1 626.87,-52.46 625.31,-59.28"/>
</g>
<!-- Node26&#45;&gt;Node14 -->
<g id="edge33" class="edge">
<title>Node26&#45;&gt;Node14</title>
<path fill="none" stroke="midnightblue" d="M964.27,-64.92C880.98,-56.28 717.43,-38.68 579,-20 576.07,-19.6 573.06,-19.18 570.03,-18.75"/>
<polygon fill="midnightblue" stroke="midnightblue" points="963.96,-68.41 974.27,-65.96 964.68,-61.45 963.96,-68.41"/>
</g>
<!-- Node26&#45;&gt;Node15 -->
<g id="edge34" class="edge">
<title>Node26&#45;&gt;Node15</title>
<path fill="none" stroke="midnightblue" d="M964.26,-61.65C894.02,-50.29 773.01,-30.73 703.75,-19.53"/>
<polygon fill="midnightblue" stroke="midnightblue" points="963.81,-65.12 974.24,-63.26 964.93,-58.21 963.81,-65.12"/>
</g>
<!-- Node26&#45;&gt;Node17 -->
<g id="edge35" class="edge">
<title>Node26&#45;&gt;Node17</title>
<path fill="none" stroke="midnightblue" d="M975.16,-59.54C928.96,-47.99 857.16,-30.04 815.04,-19.51"/>
<polygon fill="midnightblue" stroke="midnightblue" points="974.35,-62.95 984.9,-61.98 976.05,-56.15 974.35,-62.95"/>
</g>
<!-- Node26&#45;&gt;Node18 -->
<g id="edge36" class="edge">
<title>Node26&#45;&gt;Node18</title>
<path fill="none" stroke="midnightblue" d="M992.95,-57.37C970.08,-45.83 937.49,-29.4 917.88,-19.51"/>
<polygon fill="midnightblue" stroke="midnightblue" points="991.59,-60.6 1002.09,-61.98 994.74,-54.35 991.59,-60.6"/>
</g>
<!-- Node26&#45;&gt;Node19 -->
<g id="edge38" class="edge">
<title>Node26&#45;&gt;Node19</title>
<path fill="none" stroke="midnightblue" d="M1019,-51.82C1019,-41 1019,-27.9 1019,-19.51"/>
<polygon fill="midnightblue" stroke="midnightblue" points="1015.5,-51.98 1019,-61.98 1022.5,-51.98 1015.5,-51.98"/>
</g>
<!-- Node26&#45;&gt;Node20 -->
<g id="edge39" class="edge">
<title>Node26&#45;&gt;Node20</title>
<path fill="none" stroke="midnightblue" d="M1061.18,-59.4C1105.07,-47.84 1172.85,-30 1212.68,-19.51"/>
<polygon fill="midnightblue" stroke="midnightblue" points="1060.16,-56.04 1051.38,-61.98 1061.94,-62.81 1060.16,-56.04"/>
</g>
<!-- Node26&#45;&gt;Node21 -->
<g id="edge40" class="edge">
<title>Node26&#45;&gt;Node21</title>
<path fill="none" stroke="midnightblue" d="M1073.38,-61.15C1139.79,-49.73 1251.15,-30.58 1315.34,-19.54"/>
<polygon fill="midnightblue" stroke="midnightblue" points="1072.79,-57.7 1063.53,-62.84 1073.97,-64.6 1072.79,-57.7"/>
</g>
<!-- Node26&#45;&gt;Node24 -->
<g id="edge41" class="edge">
<title>Node26&#45;&gt;Node24</title>
<path fill="none" stroke="midnightblue" d="M1073.9,-64.36C1153.1,-55.37 1303.95,-37.76 1432,-20 1434.93,-19.59 1437.94,-19.16 1440.97,-18.72"/>
<polygon fill="midnightblue" stroke="midnightblue" points="1073.22,-60.91 1063.68,-65.52 1074.01,-67.87 1073.22,-60.91"/>
</g>
<!-- Node26&#45;&gt;Node25 -->
<g id="edge42" class="edge">
<title>Node26&#45;&gt;Node25</title>
<path fill="none" stroke="midnightblue" d="M1073.8,-64.13C1096.99,-61.5 1124.3,-58.49 1149,-56 1326.15,-38.13 1370.97,-39.05 1548,-20 1551.01,-19.68 1554.08,-19.33 1557.19,-18.98"/>
<polygon fill="midnightblue" stroke="midnightblue" points="1073.34,-60.66 1063.8,-65.27 1074.13,-67.61 1073.34,-60.66"/>
</g>
<!-- Node27 -->
<g id="node27" class="node">
<title>Node27</title>
<g id="a_node27"><a xlink:href="test__gso_8cpp.html" target="_top" xlink:title=" ">
<polygon fill="white" stroke="black" points="1084,-0.5 1084,-19.5 1182,-19.5 1182,-0.5 1084,-0.5"/>
<text text-anchor="middle" x="1133" y="-7.5" font-family="Helvetica,sans-Serif" font-size="10.00">tests/test_gso.cpp</text>
</a>
</g>
</g>
<!-- Node26&#45;&gt;Node27 -->
<g id="edge37" class="edge">
<title>Node26&#45;&gt;Node27</title>
<path fill="none" stroke="midnightblue" d="M1044.46,-57.21C1066.54,-45.69 1097.83,-29.36 1116.7,-19.51"/>
<polygon fill="midnightblue" stroke="midnightblue" points="1042.58,-54.25 1035.33,-61.98 1045.82,-60.45 1042.58,-54.25"/>
</g>
</g>
</svg>
