<?xml version="1.0" encoding="UTF-8" standalone="no"?>
<!DOCTYPE svg PUBLIC "-//W3C//DTD SVG 1.1//EN"
 "http://www.w3.org/Graphics/SVG/1.1/DTD/svg11.dtd">
<!-- Generated by graphviz version 2.38.0 (20140413.2041)
 -->
<!-- Title: fplll/wrapper.h Pages: 1 -->
<svg width="1004pt" height="196pt"
 viewBox="0.00 0.00 1004.00 196.00" xmlns="http://www.w3.org/2000/svg" xmlns:xlink="http://www.w3.org/1999/xlink">
<g id="graph0" class="graph" transform="scale(1 1) rotate(0) translate(4 192)">
<title>fplll/wrapper.h</title>
<polygon fill="white" stroke="none" points="-4,4 -4,-192 1000,-192 1000,4 -4,4"/>
<!-- Node1 -->
<g id="node1" class="node"><title>Node1</title>
<polygon fill="#bfbfbf" stroke="black" points="381.5,-168.5 381.5,-187.5 458.5,-187.5 458.5,-168.5 381.5,-168.5"/>
<text text-anchor="middle" x="420" y="-175.5" font-family="Helvetica,sans-Serif" font-size="10.00">fplll/wrapper.h</text>
</g>
<!-- Node2 -->
<g id="node2" class="node"><title>Node2</title>
<g id="a_node2"><a xlink:href="bkz_8cpp.html" target="_top" xlink:title="fplll/bkz.cpp">
<polygon fill="white" stroke="black" points="265.5,-112.5 265.5,-131.5 334.5,-131.5 334.5,-112.5 265.5,-112.5"/>
<text text-anchor="middle" x="300" y="-119.5" font-family="Helvetica,sans-Serif" font-size="10.00">fplll/bkz.cpp</text>
</a>
</g>
</g>
<!-- Node1&#45;&gt;Node2 -->
<g id="edge1" class="edge"><title>Node1&#45;&gt;Node2</title>
<path fill="none" stroke="midnightblue" d="M391.627,-164.232C369.18,-154.131 338.465,-140.309 318.925,-131.516"/>
<polygon fill="midnightblue" stroke="midnightblue" points="390.43,-167.532 400.986,-168.444 393.303,-161.148 390.43,-167.532"/>
</g>
<!-- Node3 -->
<g id="node3" class="node"><title>Node3</title>
<g id="a_node3"><a xlink:href="fplll_8h.html" target="_top" xlink:title="fplll/fplll.h">
<polygon fill="white" stroke="black" points="391,-112.5 391,-131.5 449,-131.5 449,-112.5 391,-112.5"/>
<text text-anchor="middle" x="420" y="-119.5" font-family="Helvetica,sans-Serif" font-size="10.00">fplll/fplll.h</text>
</a>
</g>
</g>
<!-- Node1&#45;&gt;Node3 -->
<g id="edge2" class="edge"><title>Node1&#45;&gt;Node3</title>
<path fill="none" stroke="midnightblue" d="M420,-157.805C420,-148.91 420,-138.78 420,-131.751"/>
<polygon fill="midnightblue" stroke="midnightblue" points="416.5,-158.083 420,-168.083 423.5,-158.083 416.5,-158.083"/>
</g>
<!-- Node4 -->
<g id="node4" class="node"><title>Node4</title>
<g id="a_node4"><a xlink:href="fplll_8cpp.html" target="_top" xlink:title="fplll/fplll.cpp">
<polygon fill="white" stroke="black" points="0,-56.5 0,-75.5 68,-75.5 68,-56.5 0,-56.5"/>
<text text-anchor="middle" x="34" y="-63.5" font-family="Helvetica,sans-Serif" font-size="10.00">fplll/fplll.cpp</text>
</a>
</g>
</g>
<!-- Node1&#45;&gt;Node4 -->
<g id="edge13" class="edge"><title>Node1&#45;&gt;Node4</title>
<path fill="none" stroke="midnightblue" d="M405.839,-160.333C391.81,-145.042 368.871,-123.13 344,-112 234.705,-63.089 195.011,-96.2785 77,-76 74.1436,-75.5092 71.1877,-74.9657 68.2249,-74.3962"/>
<polygon fill="midnightblue" stroke="midnightblue" points="403.418,-162.878 412.672,-168.037 408.655,-158.233 403.418,-162.878"/>
</g>
<!-- Node14 -->
<g id="node14" class="node"><title>Node14</title>
<g id="a_node14"><a xlink:href="sieve__gauss_8cpp.html" target="_top" xlink:title="fplll/sieve/sieve_gauss.cpp">
<polygon fill="white" stroke="black" points="467,-112.5 467,-131.5 601,-131.5 601,-112.5 467,-112.5"/>
<text text-anchor="middle" x="534" y="-119.5" font-family="Helvetica,sans-Serif" font-size="10.00">fplll/sieve/sieve_gauss.cpp</text>
</a>
</g>
</g>
<!-- Node1&#45;&gt;Node14 -->
<g id="edge14" class="edge"><title>Node1&#45;&gt;Node14</title>
<path fill="none" stroke="midnightblue" d="M447.242,-164.096C468.54,-154.007 497.542,-140.27 516.021,-131.516"/>
<polygon fill="midnightblue" stroke="midnightblue" points="445.603,-161 438.064,-168.444 448.599,-167.326 445.603,-161"/>
</g>
<!-- Node15 -->
<g id="node15" class="node"><title>Node15</title>
<g id="a_node15"><a xlink:href="wrapper_8cpp.html" target="_top" xlink:title="fplll/wrapper.cpp">
<polygon fill="white" stroke="black" points="619,-112.5 619,-131.5 707,-131.5 707,-112.5 619,-112.5"/>
<text text-anchor="middle" x="663" y="-119.5" font-family="Helvetica,sans-Serif" font-size="10.00">fplll/wrapper.cpp</text>
</a>
</g>
</g>
<!-- Node1&#45;&gt;Node15 -->
<g id="edge15" class="edge"><title>Node1&#45;&gt;Node15</title>
<path fill="none" stroke="midnightblue" d="M468.522,-166.217C514.44,-156.013 582.447,-140.901 624.676,-131.516"/>
<polygon fill="midnightblue" stroke="midnightblue" points="467.507,-162.858 458.504,-168.444 469.025,-169.691 467.507,-162.858"/>
</g>
<!-- Node3&#45;&gt;Node4 -->
<g id="edge3" class="edge"><title>Node3&#45;&gt;Node4</title>
<path fill="none" stroke="midnightblue" d="M380.86,-112.658C379.559,-112.429 378.27,-112.209 377,-112 244.487,-90.2239 209.513,-97.7761 77,-76 74.1401,-75.53 71.1818,-75.0013 68.2172,-74.4415"/>
<polygon fill="midnightblue" stroke="midnightblue" points="380.444,-116.142 390.92,-114.556 381.742,-109.263 380.444,-116.142"/>
</g>
<!-- Node5 -->
<g id="node5" class="node"><title>Node5</title>
<g id="a_node5"><a xlink:href="main_8h.html" target="_top" xlink:title="fplll/main.h">
<polygon fill="white" stroke="black" points="86,-56.5 86,-75.5 150,-75.5 150,-56.5 86,-56.5"/>
<text text-anchor="middle" x="118" y="-63.5" font-family="Helvetica,sans-Serif" font-size="10.00">fplll/main.h</text>
</a>
</g>
</g>
<!-- Node3&#45;&gt;Node5 -->
<g id="edge4" class="edge"><title>Node3&#45;&gt;Node5</title>
<path fill="none" stroke="midnightblue" d="M380.847,-112.733C379.55,-112.482 378.265,-112.237 377,-112 280.912,-93.9821 256.045,-94.247 160,-76 156.776,-75.3876 153.42,-74.7198 150.072,-74.0338"/>
<polygon fill="midnightblue" stroke="midnightblue" points="380.397,-116.212 390.889,-114.735 381.766,-109.347 380.397,-116.212"/>
</g>
<!-- Node7 -->
<g id="node7" class="node"><title>Node7</title>
<g id="a_node7"><a xlink:href="sieve__main_8cpp.html" target="_top" xlink:title="fplll/sieve/sieve_main.cpp">
<polygon fill="white" stroke="black" points="168.5,-56.5 168.5,-75.5 297.5,-75.5 297.5,-56.5 168.5,-56.5"/>
<text text-anchor="middle" x="233" y="-63.5" font-family="Helvetica,sans-Serif" font-size="10.00">fplll/sieve/sieve_main.cpp</text>
</a>
</g>
</g>
<!-- Node3&#45;&gt;Node7 -->
<g id="edge6" class="edge"><title>Node3&#45;&gt;Node7</title>
<path fill="none" stroke="midnightblue" d="M380.84,-109.692C345.598,-99.515 294.583,-84.7834 262.631,-75.5565"/>
<polygon fill="midnightblue" stroke="midnightblue" points="380.203,-113.151 390.781,-112.562 382.145,-106.425 380.203,-113.151"/>
</g>
<!-- Node8 -->
<g id="node8" class="node"><title>Node8</title>
<g id="a_node8"><a xlink:href="test__bkz_8cpp.html" target="_top" xlink:title="tests/test_bkz.cpp">
<polygon fill="white" stroke="black" points="316,-56.5 316,-75.5 414,-75.5 414,-56.5 316,-56.5"/>
<text text-anchor="middle" x="365" y="-63.5" font-family="Helvetica,sans-Serif" font-size="10.00">tests/test_bkz.cpp</text>
</a>
</g>
</g>
<!-- Node3&#45;&gt;Node8 -->
<g id="edge7" class="edge"><title>Node3&#45;&gt;Node8</title>
<path fill="none" stroke="midnightblue" d="M403.706,-105.002C393.959,-95.4329 381.947,-83.6389 373.913,-75.7511"/>
<polygon fill="midnightblue" stroke="midnightblue" points="401.33,-107.575 410.918,-112.083 406.234,-102.58 401.33,-107.575"/>
</g>
<!-- Node9 -->
<g id="node9" class="node"><title>Node9</title>
<g id="a_node9"><a xlink:href="test__lll_8cpp.html" target="_top" xlink:title="tests/test_lll.cpp">
<polygon fill="white" stroke="black" points="431.5,-56.5 431.5,-75.5 520.5,-75.5 520.5,-56.5 431.5,-56.5"/>
<text text-anchor="middle" x="476" y="-63.5" font-family="Helvetica,sans-Serif" font-size="10.00">tests/test_lll.cpp</text>
</a>
</g>
</g>
<!-- Node3&#45;&gt;Node9 -->
<g id="edge8" class="edge"><title>Node3&#45;&gt;Node9</title>
<path fill="none" stroke="midnightblue" d="M436.33,-105.253C446.265,-95.6731 458.588,-83.7906 466.839,-75.8339"/>
<polygon fill="midnightblue" stroke="midnightblue" points="433.766,-102.863 428.997,-112.324 438.625,-107.902 433.766,-102.863"/>
</g>
<!-- Node10 -->
<g id="node10" class="node"><title>Node10</title>
<g id="a_node10"><a xlink:href="test__nr_8cpp.html" target="_top" xlink:title="tests/test_nr.cpp">
<polygon fill="white" stroke="black" points="539,-56.5 539,-75.5 629,-75.5 629,-56.5 539,-56.5"/>
<text text-anchor="middle" x="584" y="-63.5" font-family="Helvetica,sans-Serif" font-size="10.00">tests/test_nr.cpp</text>
</a>
</g>
</g>
<!-- Node3&#45;&gt;Node10 -->
<g id="edge9" class="edge"><title>Node3&#45;&gt;Node10</title>
<path fill="none" stroke="midnightblue" d="M455.52,-109.304C486.422,-99.1294 530.473,-84.6246 558.135,-75.5164"/>
<polygon fill="midnightblue" stroke="midnightblue" points="454.39,-105.992 445.986,-112.444 456.579,-112.64 454.39,-105.992"/>
</g>
<!-- Node11 -->
<g id="node11" class="node"><title>Node11</title>
<g id="a_node11"><a xlink:href="test__pruner_8cpp.html" target="_top" xlink:title="tests/test_pruner.cpp">
<polygon fill="white" stroke="black" points="647.5,-56.5 647.5,-75.5 756.5,-75.5 756.5,-56.5 647.5,-56.5"/>
<text text-anchor="middle" x="702" y="-63.5" font-family="Helvetica,sans-Serif" font-size="10.00">tests/test_pruner.cpp</text>
</a>
</g>
</g>
<!-- Node3&#45;&gt;Node11 -->
<g id="edge10" class="edge"><title>Node3&#45;&gt;Node11</title>
<path fill="none" stroke="midnightblue" d="M459.207,-111.829C531.492,-96.7469 604.156,-83.741 651.385,-75.5714"/>
<polygon fill="midnightblue" stroke="midnightblue" points="458.079,-108.489 449.013,-113.97 459.518,-115.34 458.079,-108.489"/>
</g>
<!-- Node12 -->
<g id="node12" class="node"><title>Node12</title>
<g id="a_node12"><a xlink:href="test__sieve_8cpp.html" target="_top" xlink:title="tests/test_sieve.cpp">
<polygon fill="white" stroke="black" points="774.5,-56.5 774.5,-75.5 879.5,-75.5 879.5,-56.5 774.5,-56.5"/>
<text text-anchor="middle" x="827" y="-63.5" font-family="Helvetica,sans-Serif" font-size="10.00">tests/test_sieve.cpp</text>
</a>
</g>
</g>
<!-- Node3&#45;&gt;Node12 -->
<g id="edge11" class="edge"><title>Node3&#45;&gt;Node12</title>
<path fill="none" stroke="midnightblue" d="M459.361,-111.934C595.455,-88.3453 632.57,-93.637 766,-76 768.759,-75.6353 771.587,-75.2518 774.442,-74.8571"/>
<polygon fill="midnightblue" stroke="midnightblue" points="458.633,-108.508 449.388,-113.683 459.843,-115.403 458.633,-108.508"/>
</g>
<!-- Node13 -->
<g id="node13" class="node"><title>Node13</title>
<g id="a_node13"><a xlink:href="test__svp_8cpp.html" target="_top" xlink:title="tests/test_svp.cpp">
<polygon fill="white" stroke="black" points="898,-56.5 898,-75.5 996,-75.5 996,-56.5 898,-56.5"/>
<text text-anchor="middle" x="947" y="-63.5" font-family="Helvetica,sans-Serif" font-size="10.00">tests/test_svp.cpp</text>
</a>
</g>
</g>
<!-- Node3&#45;&gt;Node13 -->
<g id="edge12" class="edge"><title>Node3&#45;&gt;Node13</title>
<path fill="none" stroke="midnightblue" d="M459.419,-111.997C649.59,-82.3344 701.391,-98.3628 889,-76 891.934,-75.6502 894.948,-75.2642 897.986,-74.8547"/>
<polygon fill="midnightblue" stroke="midnightblue" points="458.702,-108.567 449.372,-113.586 459.796,-115.481 458.702,-108.567"/>
</g>
<!-- Node6 -->
<g id="node6" class="node"><title>Node6</title>
<g id="a_node6"><a xlink:href="main_8cpp.html" target="_top" xlink:title="fplll/main.cpp">
<polygon fill="white" stroke="black" points="81,-0.5 81,-19.5 155,-19.5 155,-0.5 81,-0.5"/>
<text text-anchor="middle" x="118" y="-7.5" font-family="Helvetica,sans-Serif" font-size="10.00">fplll/main.cpp</text>
</a>
</g>
</g>
<!-- Node5&#45;&gt;Node6 -->
<g id="edge5" class="edge"><title>Node5&#45;&gt;Node6</title>
<path fill="none" stroke="midnightblue" d="M118,-45.8045C118,-36.9102 118,-26.7798 118,-19.7511"/>
<polygon fill="midnightblue" stroke="midnightblue" points="114.5,-46.083 118,-56.083 121.5,-46.083 114.5,-46.083"/>
</g>
</g>
</svg>
