<?xml version="1.0" encoding="UTF-8" standalone="no"?>
<!DOCTYPE svg PUBLIC "-//W3C//DTD SVG 1.1//EN"
 "http://www.w3.org/Graphics/SVG/1.1/DTD/svg11.dtd">
<!-- Generated by graphviz version 2.43.0 (0)
 -->
<!-- Title: fplll/wrapper.h Pages: 1 -->
<svg width="1915pt" height="207pt"
 viewBox="0.00 0.00 1915.00 207.00" xmlns="http://www.w3.org/2000/svg" xmlns:xlink="http://www.w3.org/1999/xlink">
<g id="graph0" class="graph" transform="scale(1 1) rotate(0) translate(4 203)">
<title>fplll/wrapper.h</title>
<polygon fill="white" stroke="transparent" points="-4,4 -4,-203 1911,-203 1911,4 -4,4"/>
<!-- Node1 -->
<g id="node1" class="node">
<title>Node1</title>
<g id="a_node1"><a xlink:title=" ">
<polygon fill="#bfbfbf" stroke="black" points="926.5,-179.5 926.5,-198.5 1003.5,-198.5 1003.5,-179.5 926.5,-179.5"/>
<text text-anchor="middle" x="965" y="-186.5" font-family="Helvetica,sans-Serif" font-size="10.00">fplll/wrapper.h</text>
</a>
</g>
</g>
<!-- Node2 -->
<g id="node2" class="node">
<title>Node2</title>
<g id="a_node2"><a xlink:href="bkz_8cpp.html" target="_top" xlink:title=" ">
<polygon fill="white" stroke="black" points="839.5,-123.5 839.5,-142.5 908.5,-142.5 908.5,-123.5 839.5,-123.5"/>
<text text-anchor="middle" x="874" y="-130.5" font-family="Helvetica,sans-Serif" font-size="10.00">fplll/bkz.cpp</text>
</a>
</g>
</g>
<!-- Node1&#45;&gt;Node2 -->
<g id="edge1" class="edge">
<title>Node1&#45;&gt;Node2</title>
<path fill="none" stroke="midnightblue" d="M941.71,-174.18C924.96,-164.24 902.9,-151.15 888.58,-142.65"/>
<polygon fill="midnightblue" stroke="midnightblue" points="939.99,-177.23 950.38,-179.32 943.57,-171.21 939.99,-177.23"/>
</g>
<!-- Node3 -->
<g id="node3" class="node">
<title>Node3</title>
<g id="a_node3"><a xlink:href="fplll_8cpp.html" target="_top" xlink:title=" ">
<polygon fill="white" stroke="black" points="0,-62 0,-81 68,-81 68,-62 0,-62"/>
<text text-anchor="middle" x="34" y="-69" font-family="Helvetica,sans-Serif" font-size="10.00">fplll/fplll.cpp</text>
</a>
</g>
</g>
<!-- Node1&#45;&gt;Node3 -->
<g id="edge2" class="edge">
<title>Node1&#45;&gt;Node3</title>
<path fill="none" stroke="midnightblue" d="M957.33,-170.17C949.6,-154.68 936.09,-133.17 917,-123 837.3,-80.54 194.63,-98.07 105,-87 92.89,-85.5 79.76,-83.06 68.13,-80.6"/>
<polygon fill="midnightblue" stroke="midnightblue" points="954.18,-171.71 961.57,-179.3 960.53,-168.76 954.18,-171.71"/>
</g>
<!-- Node4 -->
<g id="node4" class="node">
<title>Node4</title>
<g id="a_node4"><a xlink:href="fplll_8h.html" target="_top" xlink:title=" ">
<polygon fill="white" stroke="black" points="965,-123.5 965,-142.5 1023,-142.5 1023,-123.5 965,-123.5"/>
<text text-anchor="middle" x="994" y="-130.5" font-family="Helvetica,sans-Serif" font-size="10.00">fplll/fplll.h</text>
</a>
</g>
</g>
<!-- Node1&#45;&gt;Node4 -->
<g id="edge3" class="edge">
<title>Node1&#45;&gt;Node4</title>
<path fill="none" stroke="midnightblue" d="M974.68,-169.98C979.6,-160.82 985.36,-150.09 989.3,-142.75"/>
<polygon fill="midnightblue" stroke="midnightblue" points="971.44,-168.62 969.79,-179.08 977.6,-171.93 971.44,-168.62"/>
</g>
<!-- Node30 -->
<g id="node30" class="node">
<title>Node30</title>
<g id="a_node30"><a xlink:href="wrapper_8cpp.html" target="_top" xlink:title=" ">
<polygon fill="white" stroke="black" points="1041.5,-123.5 1041.5,-142.5 1128.5,-142.5 1128.5,-123.5 1041.5,-123.5"/>
<text text-anchor="middle" x="1085" y="-130.5" font-family="Helvetica,sans-Serif" font-size="10.00">fplll/wrapper.cpp</text>
</a>
</g>
</g>
<!-- Node1&#45;&gt;Node30 -->
<g id="edge45" class="edge">
<title>Node1&#45;&gt;Node30</title>
<path fill="none" stroke="midnightblue" d="M993.37,-175.23C1015.82,-165.13 1046.54,-151.31 1066.07,-142.52"/>
<polygon fill="midnightblue" stroke="midnightblue" points="991.7,-172.15 984.01,-179.44 994.57,-178.53 991.7,-172.15"/>
</g>
<!-- Node4&#45;&gt;Node3 -->
<g id="edge4" class="edge">
<title>Node4&#45;&gt;Node3</title>
<path fill="none" stroke="midnightblue" d="M954.88,-123.53C953.57,-123.34 952.28,-123.16 951,-123 567.41,-75.24 463.15,-151.4 82,-87 74.1,-85.67 65.68,-83.42 58.14,-81.09"/>
<polygon fill="midnightblue" stroke="midnightblue" points="954.52,-127.02 964.96,-125.25 955.69,-120.12 954.52,-127.02"/>
</g>
<!-- Node5 -->
<g id="node5" class="node">
<title>Node5</title>
<g id="a_node5"><a xlink:href="main_8h.html" target="_top" xlink:title=" ">
<polygon fill="white" stroke="black" points="1838,-62 1838,-81 1902,-81 1902,-62 1838,-62"/>
<text text-anchor="middle" x="1870" y="-69" font-family="Helvetica,sans-Serif" font-size="10.00">fplll/main.h</text>
</a>
</g>
</g>
<!-- Node4&#45;&gt;Node5 -->
<g id="edge5" class="edge">
<title>Node4&#45;&gt;Node5</title>
<path fill="none" stroke="midnightblue" d="M1033.5,-123.07C1382.82,-75.59 1480.35,-147.9 1824,-87 1831.59,-85.66 1839.66,-83.41 1846.89,-81.07"/>
<polygon fill="midnightblue" stroke="midnightblue" points="1032.78,-119.64 1023.36,-124.47 1033.74,-126.57 1032.78,-119.64"/>
</g>
<!-- Node7 -->
<g id="node7" class="node">
<title>Node7</title>
<g id="a_node7"><a xlink:href="pruner_8cpp.html" target="_top" xlink:title=" ">
<polygon fill="white" stroke="black" points="335,-0.5 335,-19.5 445,-19.5 445,-0.5 335,-0.5"/>
<text text-anchor="middle" x="390" y="-7.5" font-family="Helvetica,sans-Serif" font-size="10.00">fplll/pruner/pruner.cpp</text>
</a>
</g>
</g>
<!-- Node4&#45;&gt;Node7 -->
<g id="edge7" class="edge">
<title>Node4&#45;&gt;Node7</title>
<path fill="none" stroke="midnightblue" d="M954.88,-123.53C953.57,-123.34 952.28,-123.16 951,-123 904.87,-117.22 147.16,-120.57 115,-87 105.47,-77.05 106.08,-66.5 115,-56 142.64,-23.46 262.89,-14.4 334.91,-11.91"/>
<polygon fill="midnightblue" stroke="midnightblue" points="954.52,-127.02 964.96,-125.25 955.7,-120.12 954.52,-127.02"/>
</g>
<!-- Node8 -->
<g id="node8" class="node">
<title>Node8</title>
<g id="a_node8"><a xlink:href="pruner__cost_8cpp.html" target="_top" xlink:title=" ">
<polygon fill="white" stroke="black" points="688,-56.5 688,-86.5 780,-86.5 780,-56.5 688,-56.5"/>
<text text-anchor="start" x="696" y="-74.5" font-family="Helvetica,sans-Serif" font-size="10.00">fplll/pruner/pruner</text>
<text text-anchor="middle" x="734" y="-63.5" font-family="Helvetica,sans-Serif" font-size="10.00">_cost.cpp</text>
</a>
</g>
</g>
<!-- Node4&#45;&gt;Node8 -->
<g id="edge8" class="edge">
<title>Node4&#45;&gt;Node8</title>
<path fill="none" stroke="midnightblue" d="M955.08,-123.66C904.81,-112.85 820.07,-94.5 789,-87 786.12,-86.3 783.16,-85.57 780.18,-84.82"/>
<polygon fill="midnightblue" stroke="midnightblue" points="954.44,-127.1 964.95,-125.78 955.91,-120.26 954.44,-127.1"/>
</g>
<!-- Node9 -->
<g id="node9" class="node">
<title>Node9</title>
<g id="a_node9"><a xlink:href="pruner__optimize_8cpp.html" target="_top" xlink:title=" ">
<polygon fill="white" stroke="black" points="234,-56.5 234,-86.5 326,-86.5 326,-56.5 234,-56.5"/>
<text text-anchor="start" x="242" y="-74.5" font-family="Helvetica,sans-Serif" font-size="10.00">fplll/pruner/pruner</text>
<text text-anchor="middle" x="280" y="-63.5" font-family="Helvetica,sans-Serif" font-size="10.00">_optimize.cpp</text>
</a>
</g>
</g>
<!-- Node4&#45;&gt;Node9 -->
<g id="edge10" class="edge">
<title>Node4&#45;&gt;Node9</title>
<path fill="none" stroke="midnightblue" d="M954.88,-123.56C953.57,-123.36 952.28,-123.17 951,-123 679.15,-86.81 605.83,-130.17 335,-87 332.07,-86.53 329.08,-85.98 326.07,-85.36"/>
<polygon fill="midnightblue" stroke="midnightblue" points="954.5,-127.04 964.96,-125.31 955.71,-120.15 954.5,-127.04"/>
</g>
<!-- Node10 -->
<g id="node10" class="node">
<title>Node10</title>
<g id="a_node10"><a xlink:href="pruner__optimize__tc_8cpp.html" target="_top" xlink:title=" ">
<polygon fill="white" stroke="black" points="124,-56.5 124,-86.5 216,-86.5 216,-56.5 124,-56.5"/>
<text text-anchor="start" x="132" y="-74.5" font-family="Helvetica,sans-Serif" font-size="10.00">fplll/pruner/pruner</text>
<text text-anchor="middle" x="170" y="-63.5" font-family="Helvetica,sans-Serif" font-size="10.00">_optimize_tc.cpp</text>
</a>
</g>
</g>
<!-- Node4&#45;&gt;Node10 -->
<g id="edge12" class="edge">
<title>Node4&#45;&gt;Node10</title>
<path fill="none" stroke="midnightblue" d="M954.88,-123.54C953.57,-123.35 952.28,-123.16 951,-123 630.58,-81.78 544.26,-136.45 225,-87 222.07,-86.55 219.08,-86 216.07,-85.39"/>
<polygon fill="midnightblue" stroke="midnightblue" points="954.51,-127.03 964.96,-125.28 955.7,-120.13 954.51,-127.03"/>
</g>
<!-- Node11 -->
<g id="node11" class="node">
<title>Node11</title>
<g id="a_node11"><a xlink:href="pruner__optimize__tp_8cpp.html" target="_top" xlink:title=" ">
<polygon fill="white" stroke="black" points="344,-56.5 344,-86.5 436,-86.5 436,-56.5 344,-56.5"/>
<text text-anchor="start" x="352" y="-74.5" font-family="Helvetica,sans-Serif" font-size="10.00">fplll/pruner/pruner</text>
<text text-anchor="middle" x="390" y="-63.5" font-family="Helvetica,sans-Serif" font-size="10.00">_optimize_tp.cpp</text>
</a>
</g>
</g>
<!-- Node4&#45;&gt;Node11 -->
<g id="edge14" class="edge">
<title>Node4&#45;&gt;Node11</title>
<path fill="none" stroke="midnightblue" d="M954.87,-123.58C953.57,-123.37 952.27,-123.18 951,-123 727.71,-91.83 667.42,-123.9 445,-87 442.08,-86.52 439.08,-85.94 436.08,-85.32"/>
<polygon fill="midnightblue" stroke="midnightblue" points="954.49,-127.06 964.95,-125.36 955.71,-120.17 954.49,-127.06"/>
</g>
<!-- Node12 -->
<g id="node12" class="node">
<title>Node12</title>
<g id="a_node12"><a xlink:href="pruner__prob_8cpp.html" target="_top" xlink:title=" ">
<polygon fill="white" stroke="black" points="454,-56.5 454,-86.5 546,-86.5 546,-56.5 454,-56.5"/>
<text text-anchor="start" x="462" y="-74.5" font-family="Helvetica,sans-Serif" font-size="10.00">fplll/pruner/pruner</text>
<text text-anchor="middle" x="500" y="-63.5" font-family="Helvetica,sans-Serif" font-size="10.00">_prob.cpp</text>
</a>
</g>
</g>
<!-- Node4&#45;&gt;Node12 -->
<g id="edge16" class="edge">
<title>Node4&#45;&gt;Node12</title>
<path fill="none" stroke="midnightblue" d="M954.87,-123.61C953.56,-123.39 952.27,-123.19 951,-123 776.22,-96.85 729.05,-117.63 555,-87 552.08,-86.49 549.09,-85.89 546.09,-85.25"/>
<polygon fill="midnightblue" stroke="midnightblue" points="954.47,-127.1 964.94,-125.44 955.73,-120.21 954.47,-127.1"/>
</g>
<!-- Node13 -->
<g id="node13" class="node">
<title>Node13</title>
<g id="a_node13"><a xlink:href="pruner__util_8cpp.html" target="_top" xlink:title=" ">
<polygon fill="white" stroke="black" points="798,-56.5 798,-86.5 890,-86.5 890,-56.5 798,-56.5"/>
<text text-anchor="start" x="806" y="-74.5" font-family="Helvetica,sans-Serif" font-size="10.00">fplll/pruner/pruner</text>
<text text-anchor="middle" x="844" y="-63.5" font-family="Helvetica,sans-Serif" font-size="10.00">_util.cpp</text>
</a>
</g>
</g>
<!-- Node4&#45;&gt;Node13 -->
<g id="edge18" class="edge">
<title>Node4&#45;&gt;Node13</title>
<path fill="none" stroke="midnightblue" d="M963.04,-119.72C938.69,-110.06 904.76,-96.6 879.35,-86.52"/>
<polygon fill="midnightblue" stroke="midnightblue" points="961.92,-123.04 972.51,-123.48 964.5,-116.53 961.92,-123.04"/>
</g>
<!-- Node14 -->
<g id="node14" class="node">
<title>Node14</title>
<g id="a_node14"><a xlink:href="test__babai_8cpp.html" target="_top" xlink:title=" ">
<polygon fill="white" stroke="black" points="564.5,-62 564.5,-81 669.5,-81 669.5,-62 564.5,-62"/>
<text text-anchor="middle" x="617" y="-69" font-family="Helvetica,sans-Serif" font-size="10.00">tests/test_babai.cpp</text>
</a>
</g>
</g>
<!-- Node4&#45;&gt;Node14 -->
<g id="edge20" class="edge">
<title>Node4&#45;&gt;Node14</title>
<path fill="none" stroke="midnightblue" d="M954.86,-123.68C953.56,-123.44 952.27,-123.22 951,-123 830.79,-102.49 798.96,-108.91 679,-87 669.76,-85.31 659.82,-83.15 650.66,-81.01"/>
<polygon fill="midnightblue" stroke="midnightblue" points="954.43,-127.16 964.91,-125.6 955.75,-120.29 954.43,-127.16"/>
</g>
<!-- Node15 -->
<g id="node15" class="node">
<title>Node15</title>
<g id="a_node15"><a xlink:href="test__bkz_8cpp.html" target="_top" xlink:title=" ">
<polygon fill="white" stroke="black" points="603,-0.5 603,-19.5 701,-19.5 701,-0.5 603,-0.5"/>
<text text-anchor="middle" x="652" y="-7.5" font-family="Helvetica,sans-Serif" font-size="10.00">tests/test_bkz.cpp</text>
</a>
</g>
</g>
<!-- Node4&#45;&gt;Node15 -->
<g id="edge21" class="edge">
<title>Node4&#45;&gt;Node15</title>
<path fill="none" stroke="midnightblue" d="M973.05,-117.79C960.8,-109.23 945.2,-97.91 932,-87 916.49,-74.18 916.97,-65.06 899,-56 890.21,-51.56 770.7,-30.96 701.2,-19.23"/>
<polygon fill="midnightblue" stroke="midnightblue" points="971.08,-120.68 981.3,-123.48 975.06,-114.92 971.08,-120.68"/>
</g>
<!-- Node16 -->
<g id="node16" class="node">
<title>Node16</title>
<g id="a_node16"><a xlink:href="test__bkz__gram_8cpp.html" target="_top" xlink:title=" ">
<polygon fill="white" stroke="black" points="719.5,-0.5 719.5,-19.5 844.5,-19.5 844.5,-0.5 719.5,-0.5"/>
<text text-anchor="middle" x="782" y="-7.5" font-family="Helvetica,sans-Serif" font-size="10.00">tests/test_bkz_gram.cpp</text>
</a>
</g>
</g>
<!-- Node4&#45;&gt;Node16 -->
<g id="edge22" class="edge">
<title>Node4&#45;&gt;Node16</title>
<path fill="none" stroke="midnightblue" d="M983.87,-114.23C973.13,-96.93 954.61,-71.1 932,-56 903.85,-37.2 867.61,-26.04 837.8,-19.54"/>
<polygon fill="midnightblue" stroke="midnightblue" points="981.14,-116.49 989.27,-123.28 987.16,-112.9 981.14,-116.49"/>
</g>
<!-- Node17 -->
<g id="node17" class="node">
<title>Node17</title>
<g id="a_node17"><a xlink:href="test__ceil_8cpp.html" target="_top" xlink:title=" ">
<polygon fill="white" stroke="black" points="1282.5,-62 1282.5,-81 1379.5,-81 1379.5,-62 1282.5,-62"/>
<text text-anchor="middle" x="1331" y="-69" font-family="Helvetica,sans-Serif" font-size="10.00">tests/test_ceil.cpp</text>
</a>
</g>
</g>
<!-- Node4&#45;&gt;Node17 -->
<g id="edge23" class="edge">
<title>Node4&#45;&gt;Node17</title>
<path fill="none" stroke="midnightblue" d="M1033.42,-122.86C1137.9,-102.99 1166.94,-106.31 1268,-87 1277.15,-85.25 1286.99,-83.11 1296.11,-81.02"/>
<polygon fill="midnightblue" stroke="midnightblue" points="1032.56,-119.46 1023.41,-124.79 1033.89,-126.33 1032.56,-119.46"/>
</g>
<!-- Node18 -->
<g id="node18" class="node">
<title>Node18</title>
<g id="a_node18"><a xlink:href="test__counter_8cpp.html" target="_top" xlink:title=" ">
<polygon fill="white" stroke="black" points="1397.5,-62 1397.5,-81 1510.5,-81 1510.5,-62 1397.5,-62"/>
<text text-anchor="middle" x="1454" y="-69" font-family="Helvetica,sans-Serif" font-size="10.00">tests/test_counter.cpp</text>
</a>
</g>
</g>
<!-- Node4&#45;&gt;Node18 -->
<g id="edge24" class="edge">
<title>Node4&#45;&gt;Node18</title>
<path fill="none" stroke="midnightblue" d="M1033.41,-122.97C1190.6,-97.24 1234.19,-111.59 1388,-87 1398.08,-85.39 1408.93,-83.2 1418.86,-81.01"/>
<polygon fill="midnightblue" stroke="midnightblue" points="1032.67,-119.54 1023.38,-124.64 1033.82,-126.45 1032.67,-119.54"/>
</g>
<!-- Node19 -->
<g id="node19" class="node">
<title>Node19</title>
<g id="a_node19"><a xlink:href="test__cvp_8cpp.html" target="_top" xlink:title=" ">
<polygon fill="white" stroke="black" points="863,-0.5 863,-19.5 961,-19.5 961,-0.5 863,-0.5"/>
<text text-anchor="middle" x="912" y="-7.5" font-family="Helvetica,sans-Serif" font-size="10.00">tests/test_cvp.cpp</text>
</a>
</g>
</g>
<!-- Node4&#45;&gt;Node19 -->
<g id="edge25" class="edge">
<title>Node4&#45;&gt;Node19</title>
<path fill="none" stroke="midnightblue" d="M991.33,-113.35C988.29,-97.05 982.08,-73.34 970,-56 959,-40.21 940.8,-27.39 927.72,-19.53"/>
<polygon fill="midnightblue" stroke="midnightblue" points="987.89,-113.98 992.97,-123.28 994.8,-112.84 987.89,-113.98"/>
</g>
<!-- Node20 -->
<g id="node20" class="node">
<title>Node20</title>
<g id="a_node20"><a xlink:href="test__enum_8cpp.html" target="_top" xlink:title=" ">
<polygon fill="white" stroke="black" points="979,-0.5 979,-19.5 1085,-19.5 1085,-0.5 979,-0.5"/>
<text text-anchor="middle" x="1032" y="-7.5" font-family="Helvetica,sans-Serif" font-size="10.00">tests/test_enum.cpp</text>
</a>
</g>
</g>
<!-- Node4&#45;&gt;Node20 -->
<g id="edge26" class="edge">
<title>Node4&#45;&gt;Node20</title>
<path fill="none" stroke="midnightblue" d="M999.75,-113.7C1008.07,-87.2 1023.15,-39.17 1029.29,-19.62"/>
<polygon fill="midnightblue" stroke="midnightblue" points="996.39,-112.71 996.73,-123.3 1003.07,-114.81 996.39,-112.71"/>
</g>
<!-- Node21 -->
<g id="node21" class="node">
<title>Node21</title>
<g id="a_node21"><a xlink:href="test__hlll_8cpp.html" target="_top" xlink:title=" ">
<polygon fill="white" stroke="black" points="1103,-0.5 1103,-19.5 1197,-19.5 1197,-0.5 1103,-0.5"/>
<text text-anchor="middle" x="1150" y="-7.5" font-family="Helvetica,sans-Serif" font-size="10.00">tests/test_hlll.cpp</text>
</a>
</g>
</g>
<!-- Node4&#45;&gt;Node21 -->
<g id="edge27" class="edge">
<title>Node4&#45;&gt;Node21</title>
<path fill="none" stroke="midnightblue" d="M1012.29,-117.02C1031.3,-101.53 1061.99,-76.76 1089,-56 1105.7,-43.17 1125.35,-28.8 1137.74,-19.83"/>
<polygon fill="midnightblue" stroke="midnightblue" points="1009.97,-114.39 1004.44,-123.43 1014.4,-119.82 1009.97,-114.39"/>
</g>
<!-- Node22 -->
<g id="node22" class="node">
<title>Node22</title>
<g id="a_node22"><a xlink:href="test__lll_8cpp.html" target="_top" xlink:title=" ">
<polygon fill="white" stroke="black" points="1331.5,-0.5 1331.5,-19.5 1420.5,-19.5 1420.5,-0.5 1331.5,-0.5"/>
<text text-anchor="middle" x="1376" y="-7.5" font-family="Helvetica,sans-Serif" font-size="10.00">tests/test_lll.cpp</text>
</a>
</g>
</g>
<!-- Node4&#45;&gt;Node22 -->
<g id="edge28" class="edge">
<title>Node4&#45;&gt;Node22</title>
<path fill="none" stroke="midnightblue" d="M1032.8,-122.92C1106.71,-107.21 1130.51,-115.85 1196,-87 1217.89,-77.36 1218.64,-66.76 1240,-56 1272.76,-39.5 1312.92,-27.07 1341.07,-19.5"/>
<polygon fill="midnightblue" stroke="midnightblue" points="1032.05,-119.5 1023.03,-125.07 1033.55,-126.34 1032.05,-119.5"/>
</g>
<!-- Node23 -->
<g id="node23" class="node">
<title>Node23</title>
<g id="a_node23"><a xlink:href="test__lll__gram_8cpp.html" target="_top" xlink:title=" ">
<polygon fill="white" stroke="black" points="1438,-0.5 1438,-19.5 1554,-19.5 1554,-0.5 1438,-0.5"/>
<text text-anchor="middle" x="1496" y="-7.5" font-family="Helvetica,sans-Serif" font-size="10.00">tests/test_lll_gram.cpp</text>
</a>
</g>
</g>
<!-- Node4&#45;&gt;Node23 -->
<g id="edge29" class="edge">
<title>Node4&#45;&gt;Node23</title>
<path fill="none" stroke="midnightblue" d="M1033.03,-122.95C1122.52,-105.83 1152.18,-121.95 1232,-87 1252.93,-77.84 1252.17,-65.38 1273,-56 1302.08,-42.9 1383.22,-28.42 1439.16,-19.51"/>
<polygon fill="midnightblue" stroke="midnightblue" points="1032.13,-119.56 1023.01,-124.96 1033.5,-126.43 1032.13,-119.56"/>
</g>
<!-- Node24 -->
<g id="node24" class="node">
<title>Node24</title>
<g id="a_node24"><a xlink:href="test__nr_8cpp.html" target="_top" xlink:title=" ">
<polygon fill="white" stroke="black" points="1528.5,-62 1528.5,-81 1617.5,-81 1617.5,-62 1528.5,-62"/>
<text text-anchor="middle" x="1573" y="-69" font-family="Helvetica,sans-Serif" font-size="10.00">tests/test_nr.cpp</text>
</a>
</g>
</g>
<!-- Node4&#45;&gt;Node24 -->
<g id="edge30" class="edge">
<title>Node4&#45;&gt;Node24</title>
<path fill="none" stroke="midnightblue" d="M1033.39,-123.03C1248.3,-90.88 1308.26,-122.75 1519,-87 1527.61,-85.54 1536.84,-83.31 1545.19,-81.04"/>
<polygon fill="midnightblue" stroke="midnightblue" points="1032.73,-119.59 1023.37,-124.56 1033.78,-126.51 1032.73,-119.59"/>
</g>
<!-- Node25 -->
<g id="node25" class="node">
<title>Node25</title>
<g id="a_node25"><a xlink:href="test__pruner_8cpp.html" target="_top" xlink:title=" ">
<polygon fill="white" stroke="black" points="1636,-62 1636,-81 1744,-81 1744,-62 1636,-62"/>
<text text-anchor="middle" x="1690" y="-69" font-family="Helvetica,sans-Serif" font-size="10.00">tests/test_pruner.cpp</text>
</a>
</g>
</g>
<!-- Node4&#45;&gt;Node25 -->
<g id="edge31" class="edge">
<title>Node4&#45;&gt;Node25</title>
<path fill="none" stroke="midnightblue" d="M1033.56,-123.03C1295.47,-85.38 1367.49,-123.87 1626,-87 1636.15,-85.55 1647.07,-83.33 1656.97,-81.06"/>
<polygon fill="midnightblue" stroke="midnightblue" points="1032.75,-119.61 1023.36,-124.52 1033.76,-126.54 1032.75,-119.61"/>
</g>
<!-- Node26 -->
<g id="node26" class="node">
<title>Node26</title>
<g id="a_node26"><a xlink:href="test__svp_8cpp.html" target="_top" xlink:title=" ">
<polygon fill="white" stroke="black" points="1573,-0.5 1573,-19.5 1671,-19.5 1671,-0.5 1573,-0.5"/>
<text text-anchor="middle" x="1622" y="-7.5" font-family="Helvetica,sans-Serif" font-size="10.00">tests/test_svp.cpp</text>
</a>
</g>
</g>
<!-- Node4&#45;&gt;Node26 -->
<g id="edge32" class="edge">
<title>Node4&#45;&gt;Node26</title>
<path fill="none" stroke="midnightblue" d="M1033.39,-123.39C1148.65,-113.77 1699.5,-143.24 1753,-87 1784.17,-54.23 1714.32,-31.19 1665.13,-19.59"/>
<polygon fill="midnightblue" stroke="midnightblue" points="1032.92,-119.92 1023.36,-124.49 1033.68,-126.88 1032.92,-119.92"/>
</g>
<!-- Node27 -->
<g id="node27" class="node">
<title>Node27</title>
<g id="a_node27"><a xlink:href="test__svp__gram_8cpp.html" target="_top" xlink:title=" ">
<polygon fill="white" stroke="black" points="1689.5,-0.5 1689.5,-19.5 1814.5,-19.5 1814.5,-0.5 1689.5,-0.5"/>
<text text-anchor="middle" x="1752" y="-7.5" font-family="Helvetica,sans-Serif" font-size="10.00">tests/test_svp_gram.cpp</text>
</a>
</g>
</g>
<!-- Node4&#45;&gt;Node27 -->
<g id="edge33" class="edge">
<title>Node4&#45;&gt;Node27</title>
<path fill="none" stroke="midnightblue" d="M1033.61,-123.37C1151.4,-113.65 1715.2,-144.53 1770,-87 1787.86,-68.25 1769.05,-35.17 1758.35,-19.58"/>
<polygon fill="midnightblue" stroke="midnightblue" points="1032.92,-119.93 1023.36,-124.48 1033.68,-126.89 1032.92,-119.93"/>
</g>
<!-- Node28 -->
<g id="node28" class="node">
<title>Node28</title>
<g id="a_node28"><a xlink:href="test__utils_8h.html" target="_top" xlink:title=" ">
<polygon fill="white" stroke="black" points="1098.5,-62 1098.5,-81 1187.5,-81 1187.5,-62 1098.5,-62"/>
<text text-anchor="middle" x="1143" y="-69" font-family="Helvetica,sans-Serif" font-size="10.00">tests/test_utils.h</text>
</a>
</g>
</g>
<!-- Node4&#45;&gt;Node28 -->
<g id="edge34" class="edge">
<title>Node4&#45;&gt;Node28</title>
<path fill="none" stroke="midnightblue" d="M1024.97,-119.63C1053.92,-108.07 1096.37,-91.12 1121.69,-81.01"/>
<polygon fill="midnightblue" stroke="midnightblue" points="1023.34,-116.52 1015.35,-123.48 1025.93,-123.02 1023.34,-116.52"/>
</g>
<!-- Node6 -->
<g id="node6" class="node">
<title>Node6</title>
<g id="a_node6"><a xlink:href="main_8cpp.html" target="_top" xlink:title=" ">
<polygon fill="white" stroke="black" points="1833,-0.5 1833,-19.5 1907,-19.5 1907,-0.5 1833,-0.5"/>
<text text-anchor="middle" x="1870" y="-7.5" font-family="Helvetica,sans-Serif" font-size="10.00">fplll/main.cpp</text>
</a>
</g>
</g>
<!-- Node5&#45;&gt;Node6 -->
<g id="edge6" class="edge">
<title>Node5&#45;&gt;Node6</title>
<path fill="none" stroke="midnightblue" d="M1870,-51.82C1870,-41 1870,-27.9 1870,-19.51"/>
<polygon fill="midnightblue" stroke="midnightblue" points="1866.5,-51.98 1870,-61.98 1873.5,-51.98 1866.5,-51.98"/>
</g>
<!-- Node8&#45;&gt;Node7 -->
<g id="edge9" class="edge">
<title>Node8&#45;&gt;Node7</title>
<path fill="none" stroke="midnightblue" d="M678.3,-56.06C678.2,-56.04 678.1,-56.02 678,-56 597.6,-39.35 503.42,-25.73 445.23,-17.99"/>
<polygon fill="midnightblue" stroke="midnightblue" points="677.42,-59.45 687.94,-58.19 678.93,-52.62 677.42,-59.45"/>
</g>
<!-- Node9&#45;&gt;Node7 -->
<g id="edge11" class="edge">
<title>Node9&#45;&gt;Node7</title>
<path fill="none" stroke="midnightblue" d="M315.12,-51.51C334.89,-40.81 358.62,-27.97 373.99,-19.66"/>
<polygon fill="midnightblue" stroke="midnightblue" points="313.2,-48.56 306.07,-56.4 316.53,-54.72 313.2,-48.56"/>
</g>
<!-- Node10&#45;&gt;Node7 -->
<g id="edge13" class="edge">
<title>Node10&#45;&gt;Node7</title>
<path fill="none" stroke="midnightblue" d="M225.94,-55.37C267.95,-44.01 323.98,-28.86 358.49,-19.52"/>
<polygon fill="midnightblue" stroke="midnightblue" points="224.86,-52.04 216.12,-58.03 226.69,-58.79 224.86,-52.04"/>
</g>
<!-- Node11&#45;&gt;Node7 -->
<g id="edge15" class="edge">
<title>Node11&#45;&gt;Node7</title>
<path fill="none" stroke="midnightblue" d="M390,-46.29C390,-36.86 390,-26.65 390,-19.66"/>
<polygon fill="midnightblue" stroke="midnightblue" points="386.5,-46.4 390,-56.4 393.5,-46.4 386.5,-46.4"/>
</g>
<!-- Node12&#45;&gt;Node7 -->
<g id="edge17" class="edge">
<title>Node12&#45;&gt;Node7</title>
<path fill="none" stroke="midnightblue" d="M464.88,-51.51C445.11,-40.81 421.38,-27.97 406.01,-19.66"/>
<polygon fill="midnightblue" stroke="midnightblue" points="463.47,-54.72 473.93,-56.4 466.8,-48.56 463.47,-54.72"/>
</g>
<!-- Node13&#45;&gt;Node7 -->
<g id="edge19" class="edge">
<title>Node13&#45;&gt;Node7</title>
<path fill="none" stroke="midnightblue" d="M787.93,-55.97C660.07,-32.59 520.63,-20.26 445.24,-14.68"/>
<polygon fill="midnightblue" stroke="midnightblue" points="787.43,-59.44 797.9,-57.83 788.7,-52.56 787.43,-59.44"/>
</g>
<!-- Node28&#45;&gt;Node15 -->
<g id="edge35" class="edge">
<title>Node28&#45;&gt;Node15</title>
<path fill="none" stroke="midnightblue" d="M1088.25,-64.79C1006,-56.05 845.75,-38.44 710,-20 707.07,-19.6 704.06,-19.18 701.03,-18.74"/>
<polygon fill="midnightblue" stroke="midnightblue" points="1088.05,-68.28 1098.36,-65.86 1088.79,-61.32 1088.05,-68.28"/>
</g>
<!-- Node28&#45;&gt;Node16 -->
<g id="edge36" class="edge">
<title>Node28&#45;&gt;Node16</title>
<path fill="none" stroke="midnightblue" d="M1088.14,-61.46C1019.09,-50.08 901.38,-30.68 833.81,-19.54"/>
<polygon fill="midnightblue" stroke="midnightblue" points="1087.94,-64.97 1098.37,-63.14 1089.07,-58.06 1087.94,-64.97"/>
</g>
<!-- Node28&#45;&gt;Node19 -->
<g id="edge37" class="edge">
<title>Node28&#45;&gt;Node19</title>
<path fill="none" stroke="midnightblue" d="M1100.17,-59.47C1055.32,-47.91 985.83,-30.02 945.04,-19.51"/>
<polygon fill="midnightblue" stroke="midnightblue" points="1099.35,-62.87 1109.9,-61.98 1101.09,-56.09 1099.35,-62.87"/>
</g>
<!-- Node28&#45;&gt;Node20 -->
<g id="edge38" class="edge">
<title>Node28&#45;&gt;Node20</title>
<path fill="none" stroke="midnightblue" d="M1118.21,-57.21C1096.71,-45.69 1066.24,-29.36 1047.87,-19.51"/>
<polygon fill="midnightblue" stroke="midnightblue" points="1116.63,-60.34 1127.1,-61.98 1119.94,-54.17 1116.63,-60.34"/>
</g>
<!-- Node28&#45;&gt;Node21 -->
<g id="edge40" class="edge">
<title>Node28&#45;&gt;Node21</title>
<path fill="none" stroke="midnightblue" d="M1145.2,-51.82C1146.47,-41 1148.01,-27.9 1149,-19.51"/>
<polygon fill="midnightblue" stroke="midnightblue" points="1141.7,-51.63 1144,-61.98 1148.65,-52.45 1141.7,-51.63"/>
</g>
<!-- Node28&#45;&gt;Node22 -->
<g id="edge41" class="edge">
<title>Node28&#45;&gt;Node22</title>
<path fill="none" stroke="midnightblue" d="M1186.2,-59.47C1231.44,-47.91 1301.53,-30.02 1342.68,-19.51"/>
<polygon fill="midnightblue" stroke="midnightblue" points="1185.21,-56.11 1176.38,-61.98 1186.94,-62.89 1185.21,-56.11"/>
</g>
<!-- Node28&#45;&gt;Node23 -->
<g id="edge42" class="edge">
<title>Node28&#45;&gt;Node23</title>
<path fill="none" stroke="midnightblue" d="M1197.75,-61.27C1265.43,-49.86 1379.68,-30.61 1445.39,-19.53"/>
<polygon fill="midnightblue" stroke="midnightblue" points="1196.99,-57.85 1187.71,-62.96 1198.15,-64.75 1196.99,-57.85"/>
</g>
<!-- Node28&#45;&gt;Node26 -->
<g id="edge43" class="edge">
<title>Node28&#45;&gt;Node26</title>
<path fill="none" stroke="midnightblue" d="M1197.86,-64.47C1278.13,-55.51 1432.25,-37.83 1563,-20 1566.18,-19.57 1569.46,-19.11 1572.76,-18.63"/>
<polygon fill="midnightblue" stroke="midnightblue" points="1197.06,-61.03 1187.51,-65.62 1197.83,-67.99 1197.06,-61.03"/>
</g>
<!-- Node28&#45;&gt;Node27 -->
<g id="edge44" class="edge">
<title>Node28&#45;&gt;Node27</title>
<path fill="none" stroke="midnightblue" d="M1197.8,-64.11C1220.98,-61.47 1248.3,-58.47 1273,-56 1453.69,-37.93 1499.43,-39.27 1680,-20 1683.01,-19.68 1686.08,-19.34 1689.19,-18.99"/>
<polygon fill="midnightblue" stroke="midnightblue" points="1197.33,-60.64 1187.8,-65.25 1198.13,-67.59 1197.33,-60.64"/>
</g>
<!-- Node29 -->
<g id="node29" class="node">
<title>Node29</title>
<g id="a_node29"><a xlink:href="test__gso_8cpp.html" target="_top" xlink:title=" ">
<polygon fill="white" stroke="black" points="1215,-0.5 1215,-19.5 1313,-19.5 1313,-0.5 1215,-0.5"/>
<text text-anchor="middle" x="1264" y="-7.5" font-family="Helvetica,sans-Serif" font-size="10.00">tests/test_gso.cpp</text>
</a>
</g>
</g>
<!-- Node28&#45;&gt;Node29 -->
<g id="edge39" class="edge">
<title>Node28&#45;&gt;Node29</title>
<path fill="none" stroke="midnightblue" d="M1169.39,-57.52C1192.86,-45.98 1226.49,-29.44 1246.7,-19.51"/>
<polygon fill="midnightblue" stroke="midnightblue" points="1167.77,-54.42 1160.34,-61.98 1170.85,-60.7 1167.77,-54.42"/>
</g>
</g>
</svg>
