<?xml version="1.0" encoding="UTF-8" standalone="no"?>
<!DOCTYPE svg PUBLIC "-//W3C//DTD SVG 1.1//EN"
 "http://www.w3.org/Graphics/SVG/1.1/DTD/svg11.dtd">
<!-- Generated by graphviz version 2.38.0 (20140413.2041)
 -->
<!-- Title: fplll/wrapper.h Pages: 1 -->
<svg width="1015pt" height="196pt"
 viewBox="0.00 0.00 1015.00 196.00" xmlns="http://www.w3.org/2000/svg" xmlns:xlink="http://www.w3.org/1999/xlink">
<g id="graph0" class="graph" transform="scale(1 1) rotate(0) translate(4 192)">
<title>fplll/wrapper.h</title>
<polygon fill="white" stroke="none" points="-4,4 -4,-192 1011,-192 1011,4 -4,4"/>
<!-- Node0 -->
<g id="node1" class="node"><title>Node0</title>
<polygon fill="#bfbfbf" stroke="black" points="411.5,-168.5 411.5,-187.5 488.5,-187.5 488.5,-168.5 411.5,-168.5"/>
<text text-anchor="middle" x="450" y="-175.5" font-family="Helvetica,sans-Serif" font-size="10.00">fplll/wrapper.h</text>
</g>
<!-- Node1 -->
<g id="node2" class="node"><title>Node1</title>
<g id="a_node2"><a xlink:href="bkz_8cpp.html" target="_top" xlink:title="fplll/bkz.cpp">
<polygon fill="white" stroke="black" points="295.5,-112.5 295.5,-131.5 364.5,-131.5 364.5,-112.5 295.5,-112.5"/>
<text text-anchor="middle" x="330" y="-119.5" font-family="Helvetica,sans-Serif" font-size="10.00">fplll/bkz.cpp</text>
</a>
</g>
</g>
<!-- Node0&#45;&gt;Node1 -->
<g id="edge1" class="edge"><title>Node0&#45;&gt;Node1</title>
<path fill="none" stroke="midnightblue" d="M421.627,-164.232C399.18,-154.131 368.465,-140.309 348.925,-131.516"/>
<polygon fill="midnightblue" stroke="midnightblue" points="420.43,-167.532 430.986,-168.444 423.303,-161.148 420.43,-167.532"/>
</g>
<!-- Node2 -->
<g id="node3" class="node"><title>Node2</title>
<g id="a_node3"><a xlink:href="fplll_8h.html" target="_top" xlink:title="fplll/fplll.h">
<polygon fill="white" stroke="black" points="421,-112.5 421,-131.5 479,-131.5 479,-112.5 421,-112.5"/>
<text text-anchor="middle" x="450" y="-119.5" font-family="Helvetica,sans-Serif" font-size="10.00">fplll/fplll.h</text>
</a>
</g>
</g>
<!-- Node0&#45;&gt;Node2 -->
<g id="edge2" class="edge"><title>Node0&#45;&gt;Node2</title>
<path fill="none" stroke="midnightblue" d="M450,-157.805C450,-148.91 450,-138.78 450,-131.751"/>
<polygon fill="midnightblue" stroke="midnightblue" points="446.5,-158.083 450,-168.083 453.5,-158.083 446.5,-158.083"/>
</g>
<!-- Node3 -->
<g id="node4" class="node"><title>Node3</title>
<g id="a_node4"><a xlink:href="fplll_8cpp.html" target="_top" xlink:title="fplll/fplll.cpp">
<polygon fill="white" stroke="black" points="132,-56.5 132,-75.5 200,-75.5 200,-56.5 132,-56.5"/>
<text text-anchor="middle" x="166" y="-63.5" font-family="Helvetica,sans-Serif" font-size="10.00">fplll/fplll.cpp</text>
</a>
</g>
</g>
<!-- Node0&#45;&gt;Node3 -->
<g id="edge23" class="edge"><title>Node0&#45;&gt;Node3</title>
<path fill="none" stroke="midnightblue" d="M435.398,-160.782C421,-145.815 397.631,-124.129 373,-112 357.617,-104.425 254.785,-84.0038 200.085,-73.4742"/>
<polygon fill="midnightblue" stroke="midnightblue" points="433.04,-163.385 442.425,-168.302 438.155,-158.606 433.04,-163.385"/>
</g>
<!-- Node17 -->
<g id="node18" class="node"><title>Node17</title>
<g id="a_node18"><a xlink:href="sieve__gauss_8cpp.html" target="_top" xlink:title="fplll/sieve/sieve_gauss.cpp">
<polygon fill="white" stroke="black" points="497,-112.5 497,-131.5 631,-131.5 631,-112.5 497,-112.5"/>
<text text-anchor="middle" x="564" y="-119.5" font-family="Helvetica,sans-Serif" font-size="10.00">fplll/sieve/sieve_gauss.cpp</text>
</a>
</g>
</g>
<!-- Node0&#45;&gt;Node17 -->
<g id="edge24" class="edge"><title>Node0&#45;&gt;Node17</title>
<path fill="none" stroke="midnightblue" d="M477.242,-164.096C498.54,-154.007 527.542,-140.27 546.021,-131.516"/>
<polygon fill="midnightblue" stroke="midnightblue" points="475.603,-161 468.064,-168.444 478.599,-167.326 475.603,-161"/>
</g>
<!-- Node18 -->
<g id="node19" class="node"><title>Node18</title>
<g id="a_node19"><a xlink:href="wrapper_8cpp.html" target="_top" xlink:title="fplll/wrapper.cpp">
<polygon fill="white" stroke="black" points="649,-112.5 649,-131.5 737,-131.5 737,-112.5 649,-112.5"/>
<text text-anchor="middle" x="693" y="-119.5" font-family="Helvetica,sans-Serif" font-size="10.00">fplll/wrapper.cpp</text>
</a>
</g>
</g>
<!-- Node0&#45;&gt;Node18 -->
<g id="edge25" class="edge"><title>Node0&#45;&gt;Node18</title>
<path fill="none" stroke="midnightblue" d="M498.522,-166.217C544.44,-156.013 612.447,-140.901 654.676,-131.516"/>
<polygon fill="midnightblue" stroke="midnightblue" points="497.507,-162.858 488.504,-168.444 499.025,-169.691 497.507,-162.858"/>
</g>
<!-- Node2&#45;&gt;Node3 -->
<g id="edge3" class="edge"><title>Node2&#45;&gt;Node3</title>
<path fill="none" stroke="midnightblue" d="M410.841,-112.766C409.546,-112.506 408.263,-112.25 407,-112 321.403,-95.0611 299.77,-92.0403 214,-76 209.5,-75.1584 204.762,-74.2713 200.088,-73.3955"/>
<polygon fill="midnightblue" stroke="midnightblue" points="410.375,-116.243 420.873,-114.814 411.775,-109.385 410.375,-116.243"/>
</g>
<!-- Node4 -->
<g id="node5" class="node"><title>Node4</title>
<g id="a_node5"><a xlink:href="main_8h.html" target="_top" xlink:title="fplll/main.h">
<polygon fill="white" stroke="black" points="938,-56.5 938,-75.5 1002,-75.5 1002,-56.5 938,-56.5"/>
<text text-anchor="middle" x="970" y="-63.5" font-family="Helvetica,sans-Serif" font-size="10.00">fplll/main.h</text>
</a>
</g>
</g>
<!-- Node2&#45;&gt;Node4 -->
<g id="edge4" class="edge"><title>Node2&#45;&gt;Node4</title>
<path fill="none" stroke="midnightblue" d="M489.351,-112.016C684.008,-82.0303 737.749,-104.664 929,-76 931.883,-75.5679 934.866,-75.0512 937.847,-74.4867"/>
<polygon fill="midnightblue" stroke="midnightblue" points="488.709,-108.574 479.371,-113.581 489.793,-115.49 488.709,-108.574"/>
</g>
<!-- Node6 -->
<g id="node7" class="node"><title>Node6</title>
<g id="a_node7"><a xlink:href="sieve__main_8cpp.html" target="_top" xlink:title="fplll/sieve/sieve_main.cpp">
<polygon fill="white" stroke="black" points="790.5,-56.5 790.5,-75.5 919.5,-75.5 919.5,-56.5 790.5,-56.5"/>
<text text-anchor="middle" x="855" y="-63.5" font-family="Helvetica,sans-Serif" font-size="10.00">fplll/sieve/sieve_main.cpp</text>
</a>
</g>
</g>
<!-- Node2&#45;&gt;Node6 -->
<g id="edge6" class="edge"><title>Node2&#45;&gt;Node6</title>
<path fill="none" stroke="midnightblue" d="M489.299,-112.047C541.347,-103.919 699.828,-85.1357 790.342,-74.5337"/>
<polygon fill="midnightblue" stroke="midnightblue" points="488.679,-108.602 479.391,-113.7 489.831,-115.506 488.679,-108.602"/>
</g>
<!-- Node7 -->
<g id="node8" class="node"><title>Node7</title>
<g id="a_node8"><a xlink:href="test__bkz_8cpp.html" target="_top" xlink:title="tests/test_bkz.cpp">
<polygon fill="white" stroke="black" points="713,-0.5 713,-19.5 811,-19.5 811,-0.5 713,-0.5"/>
<text text-anchor="middle" x="762" y="-7.5" font-family="Helvetica,sans-Serif" font-size="10.00">tests/test_bkz.cpp</text>
</a>
</g>
</g>
<!-- Node2&#45;&gt;Node7 -->
<g id="edge7" class="edge"><title>Node2&#45;&gt;Node7</title>
<path fill="none" stroke="midnightblue" d="M489.487,-112.111C558.853,-102.436 700.756,-111.203 742,-76 758.704,-61.7429 761.693,-33.8901 762.078,-19.7241"/>
<polygon fill="midnightblue" stroke="midnightblue" points="488.708,-108.692 479.401,-113.755 489.834,-115.6 488.708,-108.692"/>
</g>
<!-- Node8 -->
<g id="node9" class="node"><title>Node8</title>
<g id="a_node9"><a xlink:href="test__cvp_8cpp.html" target="_top" xlink:title="tests/test_cvp.cpp">
<polygon fill="white" stroke="black" points="0,-0.5 0,-19.5 98,-19.5 98,-0.5 0,-0.5"/>
<text text-anchor="middle" x="49" y="-7.5" font-family="Helvetica,sans-Serif" font-size="10.00">tests/test_cvp.cpp</text>
</a>
</g>
</g>
<!-- Node2&#45;&gt;Node8 -->
<g id="edge8" class="edge"><title>Node2&#45;&gt;Node8</title>
<path fill="none" stroke="midnightblue" d="M410.888,-113.231C361.696,-103.272 280.139,-86.0917 251,-76 231.463,-69.2338 228.355,-63.2696 209,-56 167.805,-40.5274 118.912,-27.5202 86.1112,-19.5317"/>
<polygon fill="midnightblue" stroke="midnightblue" points="410.369,-116.696 420.864,-115.241 411.752,-109.834 410.369,-116.696"/>
</g>
<!-- Node9 -->
<g id="node10" class="node"><title>Node9</title>
<g id="a_node10"><a xlink:href="test__lll_8cpp.html" target="_top" xlink:title="tests/test_lll.cpp">
<polygon fill="white" stroke="black" points="116.5,-0.5 116.5,-19.5 205.5,-19.5 205.5,-0.5 116.5,-0.5"/>
<text text-anchor="middle" x="161" y="-7.5" font-family="Helvetica,sans-Serif" font-size="10.00">tests/test_lll.cpp</text>
</a>
</g>
</g>
<!-- Node2&#45;&gt;Node9 -->
<g id="edge9" class="edge"><title>Node2&#45;&gt;Node9</title>
<path fill="none" stroke="midnightblue" d="M411.244,-110.783C381.1,-102.462 338.42,-89.8571 302,-76 255.897,-58.4586 203.655,-32.7808 177.61,-19.5628"/>
<polygon fill="midnightblue" stroke="midnightblue" points="410.39,-114.178 420.959,-113.436 412.234,-107.425 410.39,-114.178"/>
</g>
<!-- Node10 -->
<g id="node11" class="node"><title>Node10</title>
<g id="a_node11"><a xlink:href="test__lll__gram_8cpp.html" target="_top" xlink:title="tests/test_lll_gram.cpp">
<polygon fill="white" stroke="black" points="223,-0.5 223,-19.5 339,-19.5 339,-0.5 223,-0.5"/>
<text text-anchor="middle" x="281" y="-7.5" font-family="Helvetica,sans-Serif" font-size="10.00">tests/test_lll_gram.cpp</text>
</a>
</g>
</g>
<!-- Node2&#45;&gt;Node10 -->
<g id="edge10" class="edge"><title>Node2&#45;&gt;Node10</title>
<path fill="none" stroke="midnightblue" d="M410.799,-110.136C378.88,-100.747 336.91,-86.994 323,-76 303.605,-60.6711 290.393,-33.7984 284.495,-19.895"/>
<polygon fill="midnightblue" stroke="midnightblue" points="410.182,-113.602 420.761,-113.023 412.13,-106.878 410.182,-113.602"/>
</g>
<!-- Node11 -->
<g id="node12" class="node"><title>Node11</title>
<g id="a_node12"><a xlink:href="test__nr_8cpp.html" target="_top" xlink:title="tests/test_nr.cpp">
<polygon fill="white" stroke="black" points="516,-56.5 516,-75.5 606,-75.5 606,-56.5 516,-56.5"/>
<text text-anchor="middle" x="561" y="-63.5" font-family="Helvetica,sans-Serif" font-size="10.00">tests/test_nr.cpp</text>
</a>
</g>
</g>
<!-- Node2&#45;&gt;Node11 -->
<g id="edge11" class="edge"><title>Node2&#45;&gt;Node11</title>
<path fill="none" stroke="midnightblue" d="M477.005,-107.862C497.588,-97.8492 525.345,-84.3458 543.21,-75.6545"/>
<polygon fill="midnightblue" stroke="midnightblue" points="475.295,-104.802 467.834,-112.324 478.358,-111.097 475.295,-104.802"/>
</g>
<!-- Node12 -->
<g id="node13" class="node"><title>Node12</title>
<g id="a_node13"><a xlink:href="test__pruner_8cpp.html" target="_top" xlink:title="tests/test_pruner.cpp">
<polygon fill="white" stroke="black" points="624.5,-56.5 624.5,-75.5 733.5,-75.5 733.5,-56.5 624.5,-56.5"/>
<text text-anchor="middle" x="679" y="-63.5" font-family="Helvetica,sans-Serif" font-size="10.00">tests/test_pruner.cpp</text>
</a>
</g>
</g>
<!-- Node2&#45;&gt;Node12 -->
<g id="edge12" class="edge"><title>Node2&#45;&gt;Node12</title>
<path fill="none" stroke="midnightblue" d="M488.979,-111.771C548.396,-97.7382 606.341,-84.0948 642.736,-75.5304"/>
<polygon fill="midnightblue" stroke="midnightblue" points="487.973,-108.412 479.045,-114.117 489.582,-115.224 487.973,-108.412"/>
</g>
<!-- Node13 -->
<g id="node14" class="node"><title>Node13</title>
<g id="a_node14"><a xlink:href="test__sieve_8cpp.html" target="_top" xlink:title="tests/test_sieve.cpp">
<polygon fill="white" stroke="black" points="473.5,-0.5 473.5,-19.5 578.5,-19.5 578.5,-0.5 473.5,-0.5"/>
<text text-anchor="middle" x="526" y="-7.5" font-family="Helvetica,sans-Serif" font-size="10.00">tests/test_sieve.cpp</text>
</a>
</g>
</g>
<!-- Node2&#45;&gt;Node13 -->
<g id="edge13" class="edge"><title>Node2&#45;&gt;Node13</title>
<path fill="none" stroke="midnightblue" d="M454.13,-102.628C457.813,-88.9263 464.166,-70.2034 474,-56 484.466,-40.8836 501.158,-27.6696 512.797,-19.5395"/>
<polygon fill="midnightblue" stroke="midnightblue" points="450.726,-101.812 451.733,-112.358 457.523,-103.486 450.726,-101.812"/>
</g>
<!-- Node14 -->
<g id="node15" class="node"><title>Node14</title>
<g id="a_node15"><a xlink:href="test__svp_8cpp.html" target="_top" xlink:title="tests/test_svp.cpp">
<polygon fill="white" stroke="black" points="597,-0.5 597,-19.5 695,-19.5 695,-0.5 597,-0.5"/>
<text text-anchor="middle" x="646" y="-7.5" font-family="Helvetica,sans-Serif" font-size="10.00">tests/test_svp.cpp</text>
</a>
</g>
</g>
<!-- Node2&#45;&gt;Node14 -->
<g id="edge14" class="edge"><title>Node2&#45;&gt;Node14</title>
<path fill="none" stroke="midnightblue" d="M461.359,-103.435C471.652,-88.817 488.075,-68.4527 507,-56 534.864,-37.6653 570.778,-26.293 599.121,-19.5681"/>
<polygon fill="midnightblue" stroke="midnightblue" points="458.221,-101.826 455.515,-112.07 464.019,-105.749 458.221,-101.826"/>
</g>
<!-- Node15 -->
<g id="node16" class="node"><title>Node15</title>
<g id="a_node16"><a xlink:href="test__utils_8h.html" target="_top" xlink:title="tests/test_utils.h">
<polygon fill="white" stroke="black" points="332.5,-56.5 332.5,-75.5 421.5,-75.5 421.5,-56.5 332.5,-56.5"/>
<text text-anchor="middle" x="377" y="-63.5" font-family="Helvetica,sans-Serif" font-size="10.00">tests/test_utils.h</text>
</a>
</g>
</g>
<!-- Node2&#45;&gt;Node15 -->
<g id="edge15" class="edge"><title>Node2&#45;&gt;Node15</title>
<path fill="none" stroke="midnightblue" d="M429.858,-106.101C416.721,-96.3824 400.018,-84.0269 388.942,-75.8339"/>
<polygon fill="midnightblue" stroke="midnightblue" points="428.15,-109.191 438.271,-112.324 432.313,-103.563 428.15,-109.191"/>
</g>
<!-- Node5 -->
<g id="node6" class="node"><title>Node5</title>
<g id="a_node6"><a xlink:href="main_8cpp.html" target="_top" xlink:title="fplll/main.cpp">
<polygon fill="white" stroke="black" points="933,-0.5 933,-19.5 1007,-19.5 1007,-0.5 933,-0.5"/>
<text text-anchor="middle" x="970" y="-7.5" font-family="Helvetica,sans-Serif" font-size="10.00">fplll/main.cpp</text>
</a>
</g>
</g>
<!-- Node4&#45;&gt;Node5 -->
<g id="edge5" class="edge"><title>Node4&#45;&gt;Node5</title>
<path fill="none" stroke="midnightblue" d="M970,-45.8045C970,-36.9102 970,-26.7798 970,-19.7511"/>
<polygon fill="midnightblue" stroke="midnightblue" points="966.5,-46.083 970,-56.083 973.5,-46.083 966.5,-46.083"/>
</g>
<!-- Node15&#45;&gt;Node7 -->
<g id="edge16" class="edge"><title>Node15&#45;&gt;Node7</title>
<path fill="none" stroke="midnightblue" d="M431.747,-57.7585C496.725,-49.096 608.331,-34.0043 704,-20 706.924,-19.572 709.93,-19.1255 712.961,-18.6701"/>
<polygon fill="midnightblue" stroke="midnightblue" points="431.179,-54.3031 421.728,-59.0924 432.103,-61.2419 431.179,-54.3031"/>
</g>
<!-- Node15&#45;&gt;Node8 -->
<g id="edge17" class="edge"><title>Node15&#45;&gt;Node8</title>
<path fill="none" stroke="midnightblue" d="M322.348,-56.0023C259.763,-45.6988 158.151,-28.97 98.027,-19.0715"/>
<polygon fill="midnightblue" stroke="midnightblue" points="321.987,-59.4901 332.423,-57.6611 323.125,-52.5831 321.987,-59.4901"/>
</g>
<!-- Node15&#45;&gt;Node9 -->
<g id="edge19" class="edge"><title>Node15&#45;&gt;Node9</title>
<path fill="none" stroke="midnightblue" d="M332.836,-53.959C292.039,-43.7598 232.287,-28.8217 195.066,-19.5164"/>
<polygon fill="midnightblue" stroke="midnightblue" points="332.224,-57.4136 342.774,-56.4435 333.922,-50.6226 332.224,-57.4136"/>
</g>
<!-- Node15&#45;&gt;Node10 -->
<g id="edge20" class="edge"><title>Node15&#45;&gt;Node10</title>
<path fill="none" stroke="midnightblue" d="M352.426,-51.1774C334.761,-41.2407 311.487,-28.1492 296.386,-19.6545"/>
<polygon fill="midnightblue" stroke="midnightblue" points="351.144,-54.4718 361.576,-56.324 354.576,-48.3708 351.144,-54.4718"/>
</g>
<!-- Node15&#45;&gt;Node13 -->
<g id="edge21" class="edge"><title>Node15&#45;&gt;Node13</title>
<path fill="none" stroke="midnightblue" d="M410.371,-52.9058C438.384,-42.7536 477.696,-28.5063 502.501,-19.5164"/>
<polygon fill="midnightblue" stroke="midnightblue" points="408.819,-49.7456 400.609,-56.4435 411.204,-56.3267 408.819,-49.7456"/>
</g>
<!-- Node15&#45;&gt;Node14 -->
<g id="edge22" class="edge"><title>Node15&#45;&gt;Node14</title>
<path fill="none" stroke="midnightblue" d="M429.438,-54.4734C480.277,-44.2678 556.436,-28.9794 603.576,-19.5164"/>
<polygon fill="midnightblue" stroke="midnightblue" points="428.739,-51.0437 419.624,-56.4435 430.117,-57.9068 428.739,-51.0437"/>
</g>
<!-- Node16 -->
<g id="node17" class="node"><title>Node16</title>
<g id="a_node17"><a xlink:href="test__gso_8cpp.html" target="_top" xlink:title="tests/test_gso.cpp">
<polygon fill="white" stroke="black" points="357,-0.5 357,-19.5 455,-19.5 455,-0.5 357,-0.5"/>
<text text-anchor="middle" x="406" y="-7.5" font-family="Helvetica,sans-Serif" font-size="10.00">tests/test_gso.cpp</text>
</a>
</g>
</g>
<!-- Node15&#45;&gt;Node16 -->
<g id="edge18" class="edge"><title>Node15&#45;&gt;Node16</title>
<path fill="none" stroke="midnightblue" d="M386.676,-46.9827C391.598,-37.8168 397.358,-27.0922 401.3,-19.7511"/>
<polygon fill="midnightblue" stroke="midnightblue" points="383.437,-45.6171 381.789,-56.083 389.604,-48.929 383.437,-45.6171"/>
</g>
</g>
</svg>
