<?xml version="1.0" encoding="UTF-8" standalone="no"?>
<!DOCTYPE svg PUBLIC "-//W3C//DTD SVG 1.1//EN"
 "http://www.w3.org/Graphics/SVG/1.1/DTD/svg11.dtd">
<!-- Generated by graphviz version 2.38.0 (20140413.2041)
 -->
<!-- Title: fplll/wrapper.h Pages: 1 -->
<svg width="1121pt" height="196pt"
 viewBox="0.00 0.00 1121.00 196.00" xmlns="http://www.w3.org/2000/svg" xmlns:xlink="http://www.w3.org/1999/xlink">
<g id="graph0" class="graph" transform="scale(1 1) rotate(0) translate(4 192)">
<title>fplll/wrapper.h</title>
<polygon fill="white" stroke="none" points="-4,4 -4,-192 1117,-192 1117,4 -4,4"/>
<!-- Node0 -->
<g id="node1" class="node"><title>Node0</title>
<polygon fill="#bfbfbf" stroke="black" points="442.5,-168.5 442.5,-187.5 519.5,-187.5 519.5,-168.5 442.5,-168.5"/>
<text text-anchor="middle" x="481" y="-175.5" font-family="Helvetica,sans-Serif" font-size="10.00">fplll/wrapper.h</text>
</g>
<!-- Node1 -->
<g id="node2" class="node"><title>Node1</title>
<g id="a_node2"><a xlink:href="bkz_8cpp.html" target="_top" xlink:title="fplll/bkz.cpp">
<polygon fill="white" stroke="black" points="326.5,-112.5 326.5,-131.5 395.5,-131.5 395.5,-112.5 326.5,-112.5"/>
<text text-anchor="middle" x="361" y="-119.5" font-family="Helvetica,sans-Serif" font-size="10.00">fplll/bkz.cpp</text>
</a>
</g>
</g>
<!-- Node0&#45;&gt;Node1 -->
<g id="edge1" class="edge"><title>Node0&#45;&gt;Node1</title>
<path fill="none" stroke="midnightblue" d="M452.627,-164.232C430.18,-154.131 399.465,-140.309 379.925,-131.516"/>
<polygon fill="midnightblue" stroke="midnightblue" points="451.43,-167.532 461.986,-168.444 454.303,-161.148 451.43,-167.532"/>
</g>
<!-- Node2 -->
<g id="node3" class="node"><title>Node2</title>
<g id="a_node3"><a xlink:href="fplll_8h.html" target="_top" xlink:title="fplll/fplll.h">
<polygon fill="white" stroke="black" points="452,-112.5 452,-131.5 510,-131.5 510,-112.5 452,-112.5"/>
<text text-anchor="middle" x="481" y="-119.5" font-family="Helvetica,sans-Serif" font-size="10.00">fplll/fplll.h</text>
</a>
</g>
</g>
<!-- Node0&#45;&gt;Node2 -->
<g id="edge2" class="edge"><title>Node0&#45;&gt;Node2</title>
<path fill="none" stroke="midnightblue" d="M481,-157.805C481,-148.91 481,-138.78 481,-131.751"/>
<polygon fill="midnightblue" stroke="midnightblue" points="477.5,-158.083 481,-168.083 484.5,-158.083 477.5,-158.083"/>
</g>
<!-- Node3 -->
<g id="node4" class="node"><title>Node3</title>
<g id="a_node4"><a xlink:href="fplll_8cpp.html" target="_top" xlink:title="fplll/fplll.cpp">
<polygon fill="white" stroke="black" points="0,-56.5 0,-75.5 68,-75.5 68,-56.5 0,-56.5"/>
<text text-anchor="middle" x="34" y="-63.5" font-family="Helvetica,sans-Serif" font-size="10.00">fplll/fplll.cpp</text>
</a>
</g>
</g>
<!-- Node0&#45;&gt;Node3 -->
<g id="edge14" class="edge"><title>Node0&#45;&gt;Node3</title>
<path fill="none" stroke="midnightblue" d="M467.348,-160.689C453.407,-145.277 430.275,-122.938 405,-112 270.41,-53.7539 221.831,-99.049 77,-76 74.1377,-75.5445 71.1778,-75.0259 68.2122,-74.473"/>
<polygon fill="midnightblue" stroke="midnightblue" points="464.888,-163.193 474.103,-168.422 470.16,-158.588 464.888,-163.193"/>
</g>
<!-- Node14 -->
<g id="node15" class="node"><title>Node14</title>
<g id="a_node15"><a xlink:href="sieve__gauss_8cpp.html" target="_top" xlink:title="fplll/sieve/sieve_gauss.cpp">
<polygon fill="white" stroke="black" points="528,-112.5 528,-131.5 662,-131.5 662,-112.5 528,-112.5"/>
<text text-anchor="middle" x="595" y="-119.5" font-family="Helvetica,sans-Serif" font-size="10.00">fplll/sieve/sieve_gauss.cpp</text>
</a>
</g>
</g>
<!-- Node0&#45;&gt;Node14 -->
<g id="edge15" class="edge"><title>Node0&#45;&gt;Node14</title>
<path fill="none" stroke="midnightblue" d="M508.242,-164.096C529.54,-154.007 558.542,-140.27 577.021,-131.516"/>
<polygon fill="midnightblue" stroke="midnightblue" points="506.603,-161 499.064,-168.444 509.599,-167.326 506.603,-161"/>
</g>
<!-- Node15 -->
<g id="node16" class="node"><title>Node15</title>
<g id="a_node16"><a xlink:href="wrapper_8cpp.html" target="_top" xlink:title="fplll/wrapper.cpp">
<polygon fill="white" stroke="black" points="680,-112.5 680,-131.5 768,-131.5 768,-112.5 680,-112.5"/>
<text text-anchor="middle" x="724" y="-119.5" font-family="Helvetica,sans-Serif" font-size="10.00">fplll/wrapper.cpp</text>
</a>
</g>
</g>
<!-- Node0&#45;&gt;Node15 -->
<g id="edge16" class="edge"><title>Node0&#45;&gt;Node15</title>
<path fill="none" stroke="midnightblue" d="M529.522,-166.217C575.44,-156.013 643.447,-140.901 685.676,-131.516"/>
<polygon fill="midnightblue" stroke="midnightblue" points="528.507,-162.858 519.504,-168.444 530.025,-169.691 528.507,-162.858"/>
</g>
<!-- Node2&#45;&gt;Node3 -->
<g id="edge3" class="edge"><title>Node2&#45;&gt;Node3</title>
<path fill="none" stroke="midnightblue" d="M441.866,-112.625C440.563,-112.405 439.272,-112.196 438,-112 278.64,-87.4488 236.36,-100.551 77,-76 74.1355,-75.5587 71.174,-75.0501 68.2073,-74.5039"/>
<polygon fill="midnightblue" stroke="midnightblue" points="441.464,-116.11 451.933,-114.477 442.731,-109.225 441.464,-116.11"/>
</g>
<!-- Node4 -->
<g id="node5" class="node"><title>Node4</title>
<g id="a_node5"><a xlink:href="main_8h.html" target="_top" xlink:title="fplll/main.h">
<polygon fill="white" stroke="black" points="86,-56.5 86,-75.5 150,-75.5 150,-56.5 86,-56.5"/>
<text text-anchor="middle" x="118" y="-63.5" font-family="Helvetica,sans-Serif" font-size="10.00">fplll/main.h</text>
</a>
</g>
</g>
<!-- Node2&#45;&gt;Node4 -->
<g id="edge4" class="edge"><title>Node2&#45;&gt;Node4</title>
<path fill="none" stroke="midnightblue" d="M441.858,-112.674C440.558,-112.44 439.269,-112.215 438,-112 315.157,-91.2227 282.793,-97.0702 160,-76 156.766,-75.4451 153.403,-74.8151 150.051,-74.1521"/>
<polygon fill="midnightblue" stroke="midnightblue" points="441.435,-116.156 451.914,-114.593 442.747,-109.281 441.435,-116.156"/>
</g>
<!-- Node6 -->
<g id="node7" class="node"><title>Node6</title>
<g id="a_node7"><a xlink:href="sieve__main_8cpp.html" target="_top" xlink:title="fplll/sieve/sieve_main.cpp">
<polygon fill="white" stroke="black" points="168.5,-56.5 168.5,-75.5 297.5,-75.5 297.5,-56.5 168.5,-56.5"/>
<text text-anchor="middle" x="233" y="-63.5" font-family="Helvetica,sans-Serif" font-size="10.00">fplll/sieve/sieve_main.cpp</text>
</a>
</g>
</g>
<!-- Node2&#45;&gt;Node6 -->
<g id="edge6" class="edge"><title>Node2&#45;&gt;Node6</title>
<path fill="none" stroke="midnightblue" d="M441.588,-112.418C395.157,-102.308 318.492,-85.6153 272.168,-75.5285"/>
<polygon fill="midnightblue" stroke="midnightblue" points="441.062,-115.886 451.577,-114.593 442.551,-109.046 441.062,-115.886"/>
</g>
<!-- Node7 -->
<g id="node8" class="node"><title>Node7</title>
<g id="a_node8"><a xlink:href="test__bkz_8cpp.html" target="_top" xlink:title="tests/test_bkz.cpp">
<polygon fill="white" stroke="black" points="316,-56.5 316,-75.5 414,-75.5 414,-56.5 316,-56.5"/>
<text text-anchor="middle" x="365" y="-63.5" font-family="Helvetica,sans-Serif" font-size="10.00">tests/test_bkz.cpp</text>
</a>
</g>
</g>
<!-- Node2&#45;&gt;Node7 -->
<g id="edge7" class="edge"><title>Node2&#45;&gt;Node7</title>
<path fill="none" stroke="midnightblue" d="M453.28,-108.096C431.608,-98.0073 402.098,-84.2697 383.295,-75.5164"/>
<polygon fill="midnightblue" stroke="midnightblue" points="452.077,-111.396 462.619,-112.444 455.031,-105.05 452.077,-111.396"/>
</g>
<!-- Node8 -->
<g id="node9" class="node"><title>Node8</title>
<g id="a_node9"><a xlink:href="test__cvp_8cpp.html" target="_top" xlink:title="tests/test_cvp.cpp">
<polygon fill="white" stroke="black" points="432,-56.5 432,-75.5 530,-75.5 530,-56.5 432,-56.5"/>
<text text-anchor="middle" x="481" y="-63.5" font-family="Helvetica,sans-Serif" font-size="10.00">tests/test_cvp.cpp</text>
</a>
</g>
</g>
<!-- Node2&#45;&gt;Node8 -->
<g id="edge8" class="edge"><title>Node2&#45;&gt;Node8</title>
<path fill="none" stroke="midnightblue" d="M481,-101.805C481,-92.9102 481,-82.7798 481,-75.7511"/>
<polygon fill="midnightblue" stroke="midnightblue" points="477.5,-102.083 481,-112.083 484.5,-102.083 477.5,-102.083"/>
</g>
<!-- Node9 -->
<g id="node10" class="node"><title>Node9</title>
<g id="a_node10"><a xlink:href="test__lll_8cpp.html" target="_top" xlink:title="tests/test_lll.cpp">
<polygon fill="white" stroke="black" points="548.5,-56.5 548.5,-75.5 637.5,-75.5 637.5,-56.5 548.5,-56.5"/>
<text text-anchor="middle" x="593" y="-63.5" font-family="Helvetica,sans-Serif" font-size="10.00">tests/test_lll.cpp</text>
</a>
</g>
</g>
<!-- Node2&#45;&gt;Node9 -->
<g id="edge9" class="edge"><title>Node2&#45;&gt;Node9</title>
<path fill="none" stroke="midnightblue" d="M508.249,-107.862C529.016,-97.8492 557.023,-84.3458 575.05,-75.6545"/>
<polygon fill="midnightblue" stroke="midnightblue" points="506.482,-104.828 498.995,-112.324 509.523,-111.134 506.482,-104.828"/>
</g>
<!-- Node10 -->
<g id="node11" class="node"><title>Node10</title>
<g id="a_node11"><a xlink:href="test__nr_8cpp.html" target="_top" xlink:title="tests/test_nr.cpp">
<polygon fill="white" stroke="black" points="656,-56.5 656,-75.5 746,-75.5 746,-56.5 656,-56.5"/>
<text text-anchor="middle" x="701" y="-63.5" font-family="Helvetica,sans-Serif" font-size="10.00">tests/test_nr.cpp</text>
</a>
</g>
</g>
<!-- Node2&#45;&gt;Node10 -->
<g id="edge10" class="edge"><title>Node2&#45;&gt;Node10</title>
<path fill="none" stroke="midnightblue" d="M519.964,-111.436C561.429,-101.258 626.426,-85.3045 666.219,-75.5371"/>
<polygon fill="midnightblue" stroke="midnightblue" points="519.092,-108.046 510.214,-113.829 520.76,-114.844 519.092,-108.046"/>
</g>
<!-- Node11 -->
<g id="node12" class="node"><title>Node11</title>
<g id="a_node12"><a xlink:href="test__pruner_8cpp.html" target="_top" xlink:title="tests/test_pruner.cpp">
<polygon fill="white" stroke="black" points="764.5,-56.5 764.5,-75.5 873.5,-75.5 873.5,-56.5 764.5,-56.5"/>
<text text-anchor="middle" x="819" y="-63.5" font-family="Helvetica,sans-Serif" font-size="10.00">tests/test_pruner.cpp</text>
</a>
</g>
</g>
<!-- Node2&#45;&gt;Node11 -->
<g id="edge11" class="edge"><title>Node2&#45;&gt;Node11</title>
<path fill="none" stroke="midnightblue" d="M520.429,-111.943C565.361,-104.102 690.791,-85.6727 764.188,-74.9677"/>
<polygon fill="midnightblue" stroke="midnightblue" points="519.612,-108.535 510.406,-113.779 520.873,-115.42 519.612,-108.535"/>
</g>
<!-- Node12 -->
<g id="node13" class="node"><title>Node12</title>
<g id="a_node13"><a xlink:href="test__sieve_8cpp.html" target="_top" xlink:title="tests/test_sieve.cpp">
<polygon fill="white" stroke="black" points="891.5,-56.5 891.5,-75.5 996.5,-75.5 996.5,-56.5 891.5,-56.5"/>
<text text-anchor="middle" x="944" y="-63.5" font-family="Helvetica,sans-Serif" font-size="10.00">tests/test_sieve.cpp</text>
</a>
</g>
</g>
<!-- Node2&#45;&gt;Node12 -->
<g id="edge12" class="edge"><title>Node2&#45;&gt;Node12</title>
<path fill="none" stroke="midnightblue" d="M520.617,-111.931C681.129,-85.6313 724.961,-95.4624 883,-76 885.762,-75.6598 888.593,-75.2959 891.449,-74.9166"/>
<polygon fill="midnightblue" stroke="midnightblue" points="519.671,-108.54 510.379,-113.631 520.818,-115.446 519.671,-108.54"/>
</g>
<!-- Node13 -->
<g id="node14" class="node"><title>Node13</title>
<g id="a_node14"><a xlink:href="test__svp_8cpp.html" target="_top" xlink:title="tests/test_svp.cpp">
<polygon fill="white" stroke="black" points="1015,-56.5 1015,-75.5 1113,-75.5 1113,-56.5 1015,-56.5"/>
<text text-anchor="middle" x="1064" y="-63.5" font-family="Helvetica,sans-Serif" font-size="10.00">tests/test_svp.cpp</text>
</a>
</g>
</g>
<!-- Node2&#45;&gt;Node13 -->
<g id="edge13" class="edge"><title>Node2&#45;&gt;Node13</title>
<path fill="none" stroke="midnightblue" d="M520.387,-112.022C735.252,-79.5346 793.634,-100.286 1006,-76 1008.94,-75.6642 1011.95,-75.2891 1014.99,-74.8877"/>
<polygon fill="midnightblue" stroke="midnightblue" points="519.722,-108.583 510.368,-113.558 520.783,-115.502 519.722,-108.583"/>
</g>
<!-- Node5 -->
<g id="node6" class="node"><title>Node5</title>
<g id="a_node6"><a xlink:href="main_8cpp.html" target="_top" xlink:title="fplll/main.cpp">
<polygon fill="white" stroke="black" points="81,-0.5 81,-19.5 155,-19.5 155,-0.5 81,-0.5"/>
<text text-anchor="middle" x="118" y="-7.5" font-family="Helvetica,sans-Serif" font-size="10.00">fplll/main.cpp</text>
</a>
</g>
</g>
<!-- Node4&#45;&gt;Node5 -->
<g id="edge5" class="edge"><title>Node4&#45;&gt;Node5</title>
<path fill="none" stroke="midnightblue" d="M118,-45.8045C118,-36.9102 118,-26.7798 118,-19.7511"/>
<polygon fill="midnightblue" stroke="midnightblue" points="114.5,-46.083 118,-56.083 121.5,-46.083 114.5,-46.083"/>
</g>
</g>
</svg>
