<?xml version="1.0" encoding="UTF-8" standalone="no"?>
<!DOCTYPE svg PUBLIC "-//W3C//DTD SVG 1.1//EN"
 "http://www.w3.org/Graphics/SVG/1.1/DTD/svg11.dtd">
<!-- Generated by graphviz version 2.40.1 (20161225.0304)
 -->
<!-- Title: fplll/wrapper.h Pages: 1 -->
<svg width="1015pt" height="196pt"
 viewBox="0.00 0.00 1015.00 196.00" xmlns="http://www.w3.org/2000/svg" xmlns:xlink="http://www.w3.org/1999/xlink">
<g id="graph0" class="graph" transform="scale(1 1) rotate(0) translate(4 192)">
<title>fplll/wrapper.h</title>
<polygon fill="#ffffff" stroke="transparent" points="-4,4 -4,-192 1011,-192 1011,4 -4,4"/>
<!-- Node0 -->
<g id="node1" class="node">
<title>Node0</title>
<polygon fill="#bfbfbf" stroke="#000000" points="411.5,-168.5 411.5,-187.5 488.5,-187.5 488.5,-168.5 411.5,-168.5"/>
<text text-anchor="middle" x="450" y="-175.5" font-family="Helvetica,sans-Serif" font-size="10.00" fill="#000000">fplll/wrapper.h</text>
</g>
<!-- Node1 -->
<g id="node2" class="node">
<title>Node1</title>
<g id="a_node2"><a xlink:href="bkz_8cpp.html" target="_top" xlink:title="fplll/bkz.cpp">
<polygon fill="#ffffff" stroke="#000000" points="295.5,-112.5 295.5,-131.5 364.5,-131.5 364.5,-112.5 295.5,-112.5"/>
<text text-anchor="middle" x="330" y="-119.5" font-family="Helvetica,sans-Serif" font-size="10.00" fill="#000000">fplll/bkz.cpp</text>
</a>
</g>
</g>
<!-- Node0&#45;&gt;Node1 -->
<g id="edge1" class="edge">
<title>Node0&#45;&gt;Node1</title>
<path fill="none" stroke="#191970" d="M420.2376,-164.1109C398.4768,-153.9559 369.5318,-140.4482 350.3595,-131.5011"/>
<polygon fill="#191970" stroke="#191970" points="418.8293,-167.316 429.3713,-168.3733 421.7895,-160.9727 418.8293,-167.316"/>
</g>
<!-- Node2 -->
<g id="node3" class="node">
<title>Node2</title>
<g id="a_node3"><a xlink:href="fplll_8h.html" target="_top" xlink:title="fplll/fplll.h">
<polygon fill="#ffffff" stroke="#000000" points="421,-112.5 421,-131.5 479,-131.5 479,-112.5 421,-112.5"/>
<text text-anchor="middle" x="450" y="-119.5" font-family="Helvetica,sans-Serif" font-size="10.00" fill="#000000">fplll/fplll.h</text>
</a>
</g>
</g>
<!-- Node0&#45;&gt;Node2 -->
<g id="edge2" class="edge">
<title>Node0&#45;&gt;Node2</title>
<path fill="none" stroke="#191970" d="M450,-158.1575C450,-149.155 450,-138.9199 450,-131.6427"/>
<polygon fill="#191970" stroke="#191970" points="446.5001,-158.2455 450,-168.2455 453.5001,-158.2456 446.5001,-158.2455"/>
</g>
<!-- Node3 -->
<g id="node4" class="node">
<title>Node3</title>
<g id="a_node4"><a xlink:href="fplll_8cpp.html" target="_top" xlink:title="fplll/fplll.cpp">
<polygon fill="#ffffff" stroke="#000000" points="132,-56.5 132,-75.5 200,-75.5 200,-56.5 132,-56.5"/>
<text text-anchor="middle" x="166" y="-63.5" font-family="Helvetica,sans-Serif" font-size="10.00" fill="#000000">fplll/fplll.cpp</text>
</a>
</g>
</g>
<!-- Node0&#45;&gt;Node3 -->
<g id="edge23" class="edge">
<title>Node0&#45;&gt;Node3</title>
<path fill="none" stroke="#191970" d="M434.4961,-160.5622C420.0599,-145.4251 397.183,-124.0915 373,-112 365.262,-108.131 257.2527,-85.1365 200.4188,-73.1936"/>
<polygon fill="#191970" stroke="#191970" points="432.2399,-163.2771 441.6025,-168.2362 437.3759,-158.5209 432.2399,-163.2771"/>
</g>
<!-- Node17 -->
<g id="node18" class="node">
<title>Node17</title>
<g id="a_node18"><a xlink:href="sieve__gauss_8cpp.html" target="_top" xlink:title="fplll/sieve/sieve_gauss.cpp">
<polygon fill="#ffffff" stroke="#000000" points="497,-112.5 497,-131.5 631,-131.5 631,-112.5 497,-112.5"/>
<text text-anchor="middle" x="564" y="-119.5" font-family="Helvetica,sans-Serif" font-size="10.00" fill="#000000">fplll/sieve/sieve_gauss.cpp</text>
</a>
</g>
</g>
<!-- Node0&#45;&gt;Node17 -->
<g id="edge24" class="edge">
<title>Node0&#45;&gt;Node17</title>
<path fill="none" stroke="#191970" d="M478.8321,-163.8368C499.4395,-153.7139 526.6082,-140.3679 544.6584,-131.5011"/>
<polygon fill="#191970" stroke="#191970" points="477.0297,-160.8227 469.5973,-168.3733 480.116,-167.1056 477.0297,-160.8227"/>
</g>
<!-- Node18 -->
<g id="node19" class="node">
<title>Node18</title>
<g id="a_node19"><a xlink:href="wrapper_8cpp.html" target="_top" xlink:title="fplll/wrapper.cpp">
<polygon fill="#ffffff" stroke="#000000" points="649,-112.5 649,-131.5 737,-131.5 737,-112.5 649,-112.5"/>
<text text-anchor="middle" x="693" y="-119.5" font-family="Helvetica,sans-Serif" font-size="10.00" fill="#000000">fplll/wrapper.cpp</text>
</a>
</g>
</g>
<!-- Node0&#45;&gt;Node18 -->
<g id="edge25" class="edge">
<title>Node0&#45;&gt;Node18</title>
<path fill="none" stroke="#191970" d="M498.2775,-166.8743C543.0373,-156.5593 608.9417,-141.3715 651.421,-131.582"/>
<polygon fill="#191970" stroke="#191970" points="497.4627,-163.4703 488.5041,-169.1266 499.0347,-170.2915 497.4627,-163.4703"/>
</g>
<!-- Node2&#45;&gt;Node3 -->
<g id="edge3" class="edge">
<title>Node2&#45;&gt;Node3</title>
<path fill="none" stroke="#191970" d="M410.8495,-112.8186C409.5518,-112.5388 408.2659,-112.2651 407,-112 321.5957,-94.1132 299.6052,-92.8992 214,-76 209.4904,-75.1098 204.7476,-74.1502 200.0705,-73.19"/>
<polygon fill="#191970" stroke="#191970" points="410.3734,-116.2981 420.8942,-115.0482 411.8903,-109.4644 410.3734,-116.2981"/>
</g>
<!-- Node4 -->
<g id="node5" class="node">
<title>Node4</title>
<g id="a_node5"><a xlink:href="main_8h.html" target="_top" xlink:title="fplll/main.h">
<polygon fill="#ffffff" stroke="#000000" points="938,-56.5 938,-75.5 1002,-75.5 1002,-56.5 938,-56.5"/>
<text text-anchor="middle" x="970" y="-63.5" font-family="Helvetica,sans-Serif" font-size="10.00" fill="#000000">fplll/main.h</text>
</a>
</g>
</g>
<!-- Node2&#45;&gt;Node4 -->
<g id="edge4" class="edge">
<title>Node2&#45;&gt;Node4</title>
<path fill="none" stroke="#191970" d="M489.3094,-112.0463C683.6373,-79.78 738.0934,-106.8754 929,-76 931.8931,-75.5321 934.8831,-74.9663 937.869,-74.3446"/>
<polygon fill="#191970" stroke="#191970" points="488.6227,-108.6126 479.3466,-113.7317 489.7904,-115.5146 488.6227,-108.6126"/>
</g>
<!-- Node6 -->
<g id="node7" class="node">
<title>Node6</title>
<g id="a_node7"><a xlink:href="sieve__main_8cpp.html" target="_top" xlink:title="fplll/sieve/sieve_main.cpp">
<polygon fill="#ffffff" stroke="#000000" points="790.5,-56.5 790.5,-75.5 919.5,-75.5 919.5,-56.5 790.5,-56.5"/>
<text text-anchor="middle" x="855" y="-63.5" font-family="Helvetica,sans-Serif" font-size="10.00" fill="#000000">fplll/sieve/sieve_main.cpp</text>
</a>
</g>
</g>
<!-- Node2&#45;&gt;Node6 -->
<g id="edge6" class="edge">
<title>Node2&#45;&gt;Node6</title>
<path fill="none" stroke="#191970" d="M489.4807,-111.912C616.4092,-87.7503 651.2622,-91.6909 776,-76 780.6637,-75.4134 785.482,-74.8061 790.3317,-74.1942"/>
<polygon fill="#191970" stroke="#191970" points="488.5277,-108.5311 479.3697,-113.8585 489.8511,-115.4049 488.5277,-108.5311"/>
</g>
<!-- Node7 -->
<g id="node8" class="node">
<title>Node7</title>
<g id="a_node8"><a xlink:href="test__bkz_8cpp.html" target="_top" xlink:title="tests/test_bkz.cpp">
<polygon fill="#ffffff" stroke="#000000" points="713,-.5 713,-19.5 811,-19.5 811,-.5 713,-.5"/>
<text text-anchor="middle" x="762" y="-7.5" font-family="Helvetica,sans-Serif" font-size="10.00" fill="#000000">tests/test_bkz.cpp</text>
</a>
</g>
</g>
<!-- Node2&#45;&gt;Node7 -->
<g id="edge7" class="edge">
<title>Node2&#45;&gt;Node7</title>
<path fill="none" stroke="#191970" d="M489.4868,-112.1481C559.0384,-101.8321 701.9104,-111.7034 743,-76 759.381,-61.7663 762.0735,-34.4126 762.2613,-19.7881"/>
<polygon fill="#191970" stroke="#191970" points="488.6317,-108.7442 479.3789,-113.9053 489.8307,-115.6408 488.6317,-108.7442"/>
</g>
<!-- Node8 -->
<g id="node9" class="node">
<title>Node8</title>
<g id="a_node9"><a xlink:href="test__cvp_8cpp.html" target="_top" xlink:title="tests/test_cvp.cpp">
<polygon fill="#ffffff" stroke="#000000" points="0,-.5 0,-19.5 98,-19.5 98,-.5 0,-.5"/>
<text text-anchor="middle" x="49" y="-7.5" font-family="Helvetica,sans-Serif" font-size="10.00" fill="#000000">tests/test_cvp.cpp</text>
</a>
</g>
</g>
<!-- Node2&#45;&gt;Node8 -->
<g id="edge8" class="edge">
<title>Node2&#45;&gt;Node8</title>
<path fill="none" stroke="#191970" d="M410.8555,-113.4311C357.2702,-101.6274 265.9791,-81.2278 251,-76 231.4797,-69.1872 228.3337,-63.3255 209,-56 168.9987,-40.8435 121.7723,-27.8372 89.0445,-19.5607"/>
<polygon fill="#191970" stroke="#191970" points="410.1973,-116.8699 420.7157,-115.5998 411.701,-110.0333 410.1973,-116.8699"/>
</g>
<!-- Node9 -->
<g id="node10" class="node">
<title>Node9</title>
<g id="a_node10"><a xlink:href="test__lll_8cpp.html" target="_top" xlink:title="tests/test_lll.cpp">
<polygon fill="#ffffff" stroke="#000000" points="116.5,-.5 116.5,-19.5 205.5,-19.5 205.5,-.5 116.5,-.5"/>
<text text-anchor="middle" x="161" y="-7.5" font-family="Helvetica,sans-Serif" font-size="10.00" fill="#000000">tests/test_lll.cpp</text>
</a>
</g>
</g>
<!-- Node2&#45;&gt;Node9 -->
<g id="edge9" class="edge">
<title>Node2&#45;&gt;Node9</title>
<path fill="none" stroke="#191970" d="M411.2356,-111.5208C381.0873,-102.9959 338.4054,-90.1022 302,-76 256.886,-58.5244 205.9253,-33.2195 179.3506,-19.578"/>
<polygon fill="#191970" stroke="#191970" points="410.3789,-114.9154 420.9521,-114.2397 412.2653,-108.1744 410.3789,-114.9154"/>
</g>
<!-- Node10 -->
<g id="node11" class="node">
<title>Node10</title>
<g id="a_node11"><a xlink:href="test__lll__gram_8cpp.html" target="_top" xlink:title="tests/test_lll_gram.cpp">
<polygon fill="#ffffff" stroke="#000000" points="223,-.5 223,-19.5 339,-19.5 339,-.5 223,-.5"/>
<text text-anchor="middle" x="281" y="-7.5" font-family="Helvetica,sans-Serif" font-size="10.00" fill="#000000">tests/test_lll_gram.cpp</text>
</a>
</g>
</g>
<!-- Node2&#45;&gt;Node10 -->
<g id="edge10" class="edge">
<title>Node2&#45;&gt;Node10</title>
<path fill="none" stroke="#191970" d="M410.7783,-110.8352C378.8453,-101.1991 336.868,-87.1182 323,-76 303.9261,-60.7081 290.9107,-34.2911 284.8639,-19.9537"/>
<polygon fill="#191970" stroke="#191970" points="410.1621,-114.3033 420.7449,-113.7982 412.1569,-107.5935 410.1621,-114.3033"/>
</g>
<!-- Node11 -->
<g id="node12" class="node">
<title>Node11</title>
<g id="a_node12"><a xlink:href="test__nr_8cpp.html" target="_top" xlink:title="tests/test_nr.cpp">
<polygon fill="#ffffff" stroke="#000000" points="516,-56.5 516,-75.5 606,-75.5 606,-56.5 516,-56.5"/>
<text text-anchor="middle" x="561" y="-63.5" font-family="Helvetica,sans-Serif" font-size="10.00" fill="#000000">tests/test_nr.cpp</text>
</a>
</g>
</g>
<!-- Node2&#45;&gt;Node11 -->
<g id="edge11" class="edge">
<title>Node2&#45;&gt;Node11</title>
<path fill="none" stroke="#191970" d="M478.0734,-107.8368C498.1385,-97.7139 524.5922,-84.3679 542.1674,-75.5011"/>
<polygon fill="#191970" stroke="#191970" points="476.4332,-104.7441 469.0816,-112.3733 479.5862,-110.9938 476.4332,-104.7441"/>
</g>
<!-- Node12 -->
<g id="node13" class="node">
<title>Node12</title>
<g id="a_node13"><a xlink:href="test__pruner_8cpp.html" target="_top" xlink:title="tests/test_pruner.cpp">
<polygon fill="#ffffff" stroke="#000000" points="624.5,-56.5 624.5,-75.5 733.5,-75.5 733.5,-56.5 624.5,-56.5"/>
<text text-anchor="middle" x="679" y="-63.5" font-family="Helvetica,sans-Serif" font-size="10.00" fill="#000000">tests/test_pruner.cpp</text>
</a>
</g>
</g>
<!-- Node2&#45;&gt;Node12 -->
<g id="edge12" class="edge">
<title>Node2&#45;&gt;Node12</title>
<path fill="none" stroke="#191970" d="M488.9825,-111.7876C546.2445,-97.4106 601.7339,-84.171 638.3264,-75.5346"/>
<polygon fill="#191970" stroke="#191970" points="487.8727,-108.4577 479.0299,-114.2935 489.5819,-115.2459 487.8727,-108.4577"/>
</g>
<!-- Node13 -->
<g id="node14" class="node">
<title>Node13</title>
<g id="a_node14"><a xlink:href="test__sieve_8cpp.html" target="_top" xlink:title="tests/test_sieve.cpp">
<polygon fill="#ffffff" stroke="#000000" points="473.5,-.5 473.5,-19.5 578.5,-19.5 578.5,-.5 473.5,-.5"/>
<text text-anchor="middle" x="526" y="-7.5" font-family="Helvetica,sans-Serif" font-size="10.00" fill="#000000">tests/test_sieve.cpp</text>
</a>
</g>
</g>
<!-- Node2&#45;&gt;Node13 -->
<g id="edge13" class="edge">
<title>Node2&#45;&gt;Node13</title>
<path fill="none" stroke="#191970" d="M454.365,-102.4524C458.0771,-88.6456 464.3638,-70.1561 474,-56 484.038,-41.2536 499.8494,-28.1832 511.4038,-19.7796"/>
<polygon fill="#191970" stroke="#191970" points="450.9207,-101.8018 451.9252,-112.3489 457.7172,-103.4774 450.9207,-101.8018"/>
</g>
<!-- Node14 -->
<g id="node15" class="node">
<title>Node14</title>
<g id="a_node15"><a xlink:href="test__svp_8cpp.html" target="_top" xlink:title="tests/test_svp.cpp">
<polygon fill="#ffffff" stroke="#000000" points="597,-.5 597,-19.5 695,-19.5 695,-.5 597,-.5"/>
<text text-anchor="middle" x="646" y="-7.5" font-family="Helvetica,sans-Serif" font-size="10.00" fill="#000000">tests/test_svp.cpp</text>
</a>
</g>
</g>
<!-- Node2&#45;&gt;Node14 -->
<g id="edge14" class="edge">
<title>Node2&#45;&gt;Node14</title>
<path fill="none" stroke="#191970" d="M461.3649,-104.1256C471.6366,-89.3038 488.0264,-68.6768 507,-56 534.0536,-37.9247 568.8036,-26.4247 596.7902,-19.4435"/>
<polygon fill="#191970" stroke="#191970" points="458.429,-102.2198 455.7915,-112.4812 464.2524,-106.1042 458.429,-102.2198"/>
</g>
<!-- Node15 -->
<g id="node16" class="node">
<title>Node15</title>
<g id="a_node16"><a xlink:href="test__utils_8h.html" target="_top" xlink:title="tests/test_utils.h">
<polygon fill="#ffffff" stroke="#000000" points="332.5,-56.5 332.5,-75.5 421.5,-75.5 421.5,-56.5 332.5,-56.5"/>
<text text-anchor="middle" x="377" y="-63.5" font-family="Helvetica,sans-Serif" font-size="10.00" fill="#000000">tests/test_utils.h</text>
</a>
</g>
</g>
<!-- Node2&#45;&gt;Node15 -->
<g id="edge15" class="edge">
<title>Node2&#45;&gt;Node15</title>
<path fill="none" stroke="#191970" d="M429.049,-105.928C416.2893,-96.1397 400.4115,-83.9595 389.5699,-75.6427"/>
<polygon fill="#191970" stroke="#191970" points="427.2197,-108.9359 437.2844,-112.2455 431.4804,-103.3819 427.2197,-108.9359"/>
</g>
<!-- Node5 -->
<g id="node6" class="node">
<title>Node5</title>
<g id="a_node6"><a xlink:href="main_8cpp.html" target="_top" xlink:title="fplll/main.cpp">
<polygon fill="#ffffff" stroke="#000000" points="933,-.5 933,-19.5 1007,-19.5 1007,-.5 933,-.5"/>
<text text-anchor="middle" x="970" y="-7.5" font-family="Helvetica,sans-Serif" font-size="10.00" fill="#000000">fplll/main.cpp</text>
</a>
</g>
</g>
<!-- Node4&#45;&gt;Node5 -->
<g id="edge5" class="edge">
<title>Node4&#45;&gt;Node5</title>
<path fill="none" stroke="#191970" d="M970,-46.1575C970,-37.155 970,-26.9199 970,-19.6427"/>
<polygon fill="#191970" stroke="#191970" points="966.5001,-46.2455 970,-56.2455 973.5001,-46.2456 966.5001,-46.2455"/>
</g>
<!-- Node15&#45;&gt;Node7 -->
<g id="edge16" class="edge">
<title>Node15&#45;&gt;Node7</title>
<path fill="none" stroke="#191970" d="M431.7832,-58.8211C496.796,-50.1796 608.4344,-34.9565 704,-20 706.9276,-19.5418 709.9362,-19.0591 712.9699,-18.5633"/>
<polygon fill="#191970" stroke="#191970" points="431.212,-55.3661 421.7589,-60.1504 432.1323,-62.3053 431.212,-55.3661"/>
</g>
<!-- Node15&#45;&gt;Node8 -->
<g id="edge17" class="edge">
<title>Node15&#45;&gt;Node8</title>
<path fill="none" stroke="#191970" d="M321.9406,-56.6524C267.3739,-47.3807 181.4097,-32.7532 107,-20 104.0794,-19.4994 101.0761,-18.9839 98.0465,-18.4633"/>
<polygon fill="#191970" stroke="#191970" points="321.6431,-60.1519 332.0881,-58.3764 322.8156,-53.2508 321.6431,-60.1519"/>
</g>
<!-- Node15&#45;&gt;Node9 -->
<g id="edge19" class="edge">
<title>Node15&#45;&gt;Node9</title>
<path fill="none" stroke="#191970" d="M330.14,-53.8511C290.3927,-43.5462 234.169,-28.9697 197.6472,-19.5011"/>
<polygon fill="#191970" stroke="#191970" points="329.3099,-57.2516 339.8683,-56.3733 331.0667,-50.4756 329.3099,-57.2516"/>
</g>
<!-- Node15&#45;&gt;Node10 -->
<g id="edge20" class="edge">
<title>Node15&#45;&gt;Node10</title>
<path fill="none" stroke="#191970" d="M351.3654,-51.0465C334.2841,-41.0824 312.336,-28.2794 297.5303,-19.6427"/>
<polygon fill="#191970" stroke="#191970" points="349.8767,-54.23 360.2781,-56.2455 353.4038,-48.1836 349.8767,-54.23"/>
</g>
<!-- Node15&#45;&gt;Node13 -->
<g id="edge21" class="edge">
<title>Node15&#45;&gt;Node13</title>
<path fill="none" stroke="#191970" d="M412.1512,-52.7888C439.3568,-42.5639 476.3809,-28.6488 500.7202,-19.5011"/>
<polygon fill="#191970" stroke="#191970" points="410.7434,-49.5788 402.614,-56.3733 413.2061,-56.1313 410.7434,-49.5788"/>
</g>
<!-- Node15&#45;&gt;Node14 -->
<g id="edge22" class="edge">
<title>Node15&#45;&gt;Node14</title>
<path fill="none" stroke="#191970" d="M431.639,-54.6253C481.2657,-44.2941 553.6331,-29.2288 600.2708,-19.5198"/>
<polygon fill="#191970" stroke="#191970" points="430.7986,-51.2252 421.7218,-56.6899 432.2253,-58.0782 430.7986,-51.2252"/>
</g>
<!-- Node16 -->
<g id="node17" class="node">
<title>Node16</title>
<g id="a_node17"><a xlink:href="test__gso_8cpp.html" target="_top" xlink:title="tests/test_gso.cpp">
<polygon fill="#ffffff" stroke="#000000" points="357,-.5 357,-19.5 455,-19.5 455,-.5 357,-.5"/>
<text text-anchor="middle" x="406" y="-7.5" font-family="Helvetica,sans-Serif" font-size="10.00" fill="#000000">tests/test_gso.cpp</text>
</a>
</g>
</g>
<!-- Node15&#45;&gt;Node16 -->
<g id="edge18" class="edge">
<title>Node15&#45;&gt;Node16</title>
<path fill="none" stroke="#191970" d="M386.6647,-47.3372C391.4687,-38.0605 397.0723,-27.2398 401.0065,-19.6427"/>
<polygon fill="#191970" stroke="#191970" points="383.542,-45.7561 382.0514,-56.2455 389.758,-48.9751 383.542,-45.7561"/>
</g>
</g>
</svg>
